<svg viewBox="0 0 24 24" fill="none" xmlns="http://www.w3.org/2000/svg">
  <g clip-path="url(#clip0_1_36)">
    <mask
      id="mask0_1_36"
      style="mask-type: luminance"
      maskUnits="userSpaceOnUse"
      x="3"
      y="0"
      width="18"
      height="11"
    >
      <path
        d="M17.8125 0L20.7438 2.93158L20.599 3.07637L19.761 3.91437L19.4936 4.18196L18.9756 4.69976L18.7256 4.94976L18.2427 5.43295L17.7829 5.89255L17.3465 6.32895L17.2411 6.43435L17.0345 6.64094L16.9335 6.74214L15.9175 7.75813L15.5915 8.08413L15.4375 8.23813L14.8155 8.86013L14.6343 9.04112L14.5769 9.09852L14.4663 9.20912L14.4133 9.26212L14.3113 9.36412L14.2153 9.46012L14.1253 9.55012L13.9253 9.75012L13.7333 9.94212L13.6133 10.0621L13.5433 10.1321L13.4969 10.1787L13.4773 10.1983L13.4707 10.2049C13.2782 10.3974 13.0497 10.5501 12.7981 10.6543C12.5466 10.7585 12.277 10.8121 12.0048 10.8121C11.7326 10.8121 11.463 10.7585 11.2115 10.6543C10.9599 10.5501 10.7314 10.3974 10.5389 10.2049L10.5325 10.1983L10.4925 10.1583L10.4663 10.1321L9.59632 9.26212L9.48872 9.15452L9.19413 8.85993L9.06613 8.73193L8.86333 8.52913L8.09234 7.75813L7.07634 6.74214L6.87255 6.53835L5.99975 5.66555L5.76696 5.43295L5.28416 4.94996L5.03396 4.69976L4.51597 4.18176L4.24837 3.91417L3.26598 2.93158L6.19755 0L12.0051 5.80735L17.8125 0Z"
        fill="white"
      />
    </mask>
    <g mask="url(#mask0_1_36)">
      <path d="M3.26598 0H20.744V10.8119H3.26598V0Z" fill="white" />
    </g>
    <mask
      id="mask1_1_36"
      style="mask-type: luminance"
      maskUnits="userSpaceOnUse"
      x="13"
      y="3"
      width="11"
      height="18"
    >
      <path
        d="M21.0682 3.25597L24 6.18754L18.1924 11.9951L24 17.8024L21.0682 20.7338L19.951 19.6168L18.4498 18.1158L17.3589 17.0249L17.0601 16.7259L16.8681 16.5339L16.6819 16.3479L16.5015 16.1673L16.2417 15.9077L15.9159 15.5817L15.7619 15.4277L15.1399 14.8057L14.9587 14.6247L14.9013 14.5673L14.7907 14.4567L14.7377 14.4035L14.6357 14.3017L14.5397 14.2057L14.4497 14.1157L14.2497 13.9157L14.0577 13.7237L13.8997 13.5657L13.8677 13.5337L13.8417 13.5077L13.8017 13.4677L13.7951 13.4609C13.6026 13.2684 13.4498 13.0399 13.3456 12.7884C13.2414 12.5369 13.1878 12.2673 13.1878 11.9951C13.1878 11.7229 13.2414 11.4533 13.3456 11.2018C13.4498 10.9503 13.6026 10.7218 13.7951 10.5293L16.5015 7.82293L16.6819 7.64253L16.8679 7.45653L17.0599 7.26453L17.6709 6.65354L18.4498 5.87454L19.951 4.37336L21.0682 3.25597Z"
        fill="white"
      />
    </mask>
    <g mask="url(#mask1_1_36)">
      <path d="M13.1879 3.25597H23.9998V20.734H13.1879V3.25597Z" fill="white" />
    </g>
    <mask
      id="mask2_1_36"
      style="mask-type: luminance"
      maskUnits="userSpaceOnUse"
      x="3"
      y="13"
      width="18"
      height="11"
    >
      <path
        d="M11.9949 13.1879C12.2687 13.1879 12.5398 13.2421 12.7925 13.3475C13.0452 13.4528 13.2746 13.6072 13.4673 13.8017L13.5073 13.8417L13.5335 13.8677L13.5655 13.8997L13.7235 14.0577L13.9155 14.2497L14.1155 14.4497L14.2055 14.5397L14.3015 14.6357L14.4035 14.7377L14.4565 14.7907L14.5671 14.9013L14.6245 14.9587L14.8057 15.1399L15.4275 15.7619L15.5815 15.9159L15.9075 16.2419L16.1671 16.5015L16.3475 16.6819L16.5337 16.8679L16.7257 17.0599L17.0246 17.3589L18.1156 18.4499L19.6168 19.951L20.734 21.0682L17.8024 24L11.9949 18.1925L6.18754 24L3.25597 21.0682L4.37316 19.951L5.87434 18.4499L6.65334 17.6709L7.26413 17.0601L7.45613 16.8681L7.64233 16.6819L7.82273 16.5015L10.5291 13.7951C10.7216 13.6026 10.9502 13.4499 11.2017 13.3457C11.4532 13.2415 11.7226 13.1879 11.9949 13.1879Z"
        fill="white"
      />
    </mask>
    <g mask="url(#mask2_1_36)">
      <path d="M3.25597 13.1879H20.734V23.9998H3.25597V13.1879Z" fill="white" />
    </g>
    <mask
      id="mask3_1_36"
      style="mask-type: luminance"
      maskUnits="userSpaceOnUse"
      x="0"
      y="3"
      width="11"
      height="18"
    >
      <path
        d="M2.93158 3.26598L3.91417 4.24857L4.18196 4.51617L4.69976 5.03416L4.94976 5.28416L5.43295 5.76716L6.00375 6.33815L6.22195 6.55635L6.32895 6.66335L6.64094 6.97535L6.74214 7.07634L7.13194 7.46634L7.31794 7.65234L7.67314 8.00734L7.75813 8.09254L7.92413 8.25833L8.08413 8.41833L8.23813 8.57233L8.86013 9.19433L8.98212 9.31653L9.04112 9.37553L9.20912 9.54352L9.26232 9.59652L9.36412 9.69852L9.46012 9.79452L9.55012 9.88452L10.0413 10.3755L10.1001 10.4345L10.1321 10.4665L10.1583 10.4925L10.1693 10.5035L10.1933 10.5275L10.1983 10.5325L10.2043 10.5385C10.5932 10.9273 10.8118 11.4547 10.8119 12.0046C10.812 12.5545 10.5937 13.0819 10.2049 13.4709L10.1983 13.4775L10.1933 13.4825L10.1787 13.4971L10.1693 13.5065L10.1321 13.5435L10.1001 13.5755L10.0413 13.6345L9.55032 14.1255L9.26232 14.4135L8.98232 14.6935L8.86013 14.8155L8.73213 14.9435L8.52913 15.1465L8.31313 15.3625L7.84173 15.8339L7.67314 16.0027L7.31814 16.3575L7.13194 16.5437L5.43295 18.2427L4.44376 19.2318L4.18176 19.4936L4.04877 19.6266L3.77817 19.8972L3.36137 20.314L3.07637 20.599L2.93158 20.7438L0 17.8125L5.80735 12.0051L0 6.19755L2.93158 3.26598Z"
        fill="white"
      />
    </mask>
    <g mask="url(#mask3_1_36)">
      <path d="M0 3.26598H10.8119V20.7438H0V3.26598Z" fill="white" />
    </g>
  </g>
  <defs>
    <clipPath id="clip0_1_36">
      <rect width="24" height="24" fill="white" />
    </clipPath>
  </defs>
</svg>
