<svg xmlns="http://www.w3.org/2000/svg" xmlns:xlink="http://www.w3.org/1999/xlink" viewBox="345 80 510 510" zoomAndPan="magnify" version="1.0"><defs><clipPath id="57d5f9ef61"><path d="M 350.390625 318 L 737 318 L 737 587.632812 L 350.390625 587.632812 Z M 350.390625 318 " clip-rule="nonzero"/></clipPath><clipPath id="d4e7c9150e"><path d="M 462 82.621094 L 846.382812 82.621094 L 846.382812 356 L 462 356 Z M 462 82.621094 " clip-rule="nonzero"/></clipPath><clipPath id="d7484dfd23"><path d="M 510.089844 194.746094 L 690 194.746094 L 690 483.320312 L 510.089844 483.320312 Z M 510.089844 194.746094 " clip-rule="nonzero"/></clipPath></defs><g clip-path="url(#57d5f9ef61)"><path fill="#ffffff" d="M 351.492188 318.824219 C 351.492188 318.824219 351.421875 320.390625 351.296875 323.355469 C 351.234375 324.839844 351.15625 326.671875 351.066406 328.832031 C 350.996094 330.996094 351.070312 333.492188 351.074219 336.292969 C 351.1875 352.054688 352.824219 367.652344 355.976562 383.09375 C 356.488281 385.511719 356.945312 387.996094 357.542969 390.507812 C 358.183594 393.007812 358.835938 395.558594 359.503906 398.164062 C 359.855469 399.457031 360.140625 400.785156 360.554688 402.089844 C 360.957031 403.398438 361.363281 404.71875 361.773438 406.046875 C 362.183594 407.378906 362.597656 408.722656 363.015625 410.074219 C 363.4375 411.429688 363.832031 412.800781 364.347656 414.144531 C 365.328125 416.855469 366.324219 419.605469 367.332031 422.398438 C 367.8125 423.804688 368.410156 425.175781 368.988281 426.566406 C 369.566406 427.957031 370.148438 429.359375 370.734375 430.765625 C 371.328125 432.175781 371.921875 433.589844 372.519531 435.019531 C 373.179688 436.417969 373.847656 437.824219 374.515625 439.238281 C 375.1875 440.65625 375.863281 442.078125 376.542969 443.511719 C 376.882812 444.226562 377.222656 444.945312 377.566406 445.664062 C 377.941406 446.367188 378.316406 447.074219 378.695312 447.78125 C 380.207031 450.605469 381.71875 453.476562 383.289062 456.351562 C 384.964844 459.160156 386.660156 462.003906 388.371094 464.871094 C 389.199219 466.320312 390.164062 467.695312 391.085938 469.105469 C 392.015625 470.507812 392.953125 471.917969 393.890625 473.335938 C 395.714844 476.203125 397.8125 478.917969 399.839844 481.707031 C 408.289062 493.109375 417.640625 503.710938 427.894531 513.519531 C 448.753906 533.554688 474.183594 550.167969 501.386719 561.660156 C 504.808594 563.050781 508.167969 564.582031 511.660156 565.746094 C 513.390625 566.367188 515.121094 566.984375 516.847656 567.605469 C 518.578125 568.214844 520.289062 568.875 522.054688 569.367188 C 525.558594 570.421875 529.054688 571.472656 532.539062 572.523438 C 536.070312 573.398438 539.589844 574.269531 543.097656 575.136719 C 556.945312 578.238281 570.957031 580.144531 585.128906 580.855469 C 586.851562 580.925781 588.570312 580.996094 590.285156 581.070312 C 591.140625 581.105469 591.992188 581.140625 592.847656 581.171875 C 593.699219 581.167969 594.550781 581.160156 595.402344 581.15625 C 598.804688 581.113281 602.179688 581.136719 605.519531 581.039062 C 608.855469 580.847656 612.164062 580.65625 615.441406 580.46875 L 616.667969 580.398438 L 617.886719 580.273438 C 618.699219 580.1875 619.507812 580.101562 620.316406 580.015625 C 621.929688 579.839844 623.535156 579.667969 625.132812 579.5 C 628.335938 579.222656 631.472656 578.667969 634.578125 578.191406 C 636.128906 577.945312 637.671875 577.707031 639.203125 577.464844 C 639.972656 577.359375 640.730469 577.203125 641.484375 577.042969 C 642.238281 576.886719 642.992188 576.730469 643.742188 576.578125 C 645.242188 576.265625 646.734375 575.957031 648.214844 575.652344 C 648.957031 575.5 649.691406 575.347656 650.429688 575.195312 C 651.164062 575.046875 651.898438 574.894531 652.617188 574.695312 C 655.503906 573.953125 658.351562 573.21875 661.15625 572.496094 C 661.855469 572.3125 662.558594 572.144531 663.25 571.945312 C 663.933594 571.734375 664.617188 571.523438 665.300781 571.3125 C 666.660156 570.890625 668.011719 570.472656 669.351562 570.058594 C 670.691406 569.644531 672.019531 569.234375 673.335938 568.824219 C 673.996094 568.632812 674.644531 568.40625 675.285156 568.164062 C 675.925781 567.933594 676.566406 567.699219 677.203125 567.46875 C 679.746094 566.546875 682.242188 565.636719 684.695312 564.75 C 687.121094 563.792969 689.464844 562.773438 691.773438 561.816406 C 692.925781 561.335938 694.066406 560.855469 695.195312 560.386719 C 696.332031 559.933594 697.402344 559.363281 698.488281 558.863281 C 700.644531 557.839844 702.75 556.835938 704.804688 555.859375 C 705.316406 555.613281 705.824219 555.371094 706.332031 555.128906 C 706.835938 554.882812 707.320312 554.605469 707.808594 554.347656 C 708.785156 553.828125 709.75 553.3125 710.699219 552.800781 C 712.59375 551.785156 714.4375 550.796875 716.226562 549.839844 C 718.035156 548.820312 719.933594 547.640625 721.867188 546.628906 C 723.699219 545.628906 725.59375 544.777344 727.558594 544.074219 C 731.128906 542.722656 734.332031 542.628906 736.171875 545.4375 C 738.015625 548.246094 736.550781 551.167969 733.660156 553.988281 C 732.015625 555.433594 730.261719 556.722656 728.386719 557.851562 C 726.433594 559.066406 724.402344 560.257812 722.46875 561.277344 C 720.558594 562.238281 718.59375 563.226562 716.566406 564.242188 C 715.554688 564.75 714.527344 565.265625 713.484375 565.789062 C 712.960938 566.042969 712.445312 566.316406 711.90625 566.566406 C 711.367188 566.808594 710.824219 567.046875 710.28125 567.292969 C 708.09375 568.261719 705.851562 569.257812 703.554688 570.277344 C 702.402344 570.769531 701.261719 571.335938 700.054688 571.78125 C 698.859375 572.246094 697.648438 572.71875 696.425781 573.195312 C 693.972656 574.132812 691.484375 575.136719 688.914062 576.074219 C 686.320312 576.941406 683.675781 577.828125 680.984375 578.726562 C 680.308594 578.953125 679.632812 579.175781 678.953125 579.402344 C 678.277344 579.636719 677.59375 579.855469 676.894531 580.042969 C 675.503906 580.433594 674.101562 580.832031 672.6875 581.230469 C 671.273438 581.628906 669.847656 582.03125 668.410156 582.433594 C 667.691406 582.636719 666.972656 582.835938 666.246094 583.039062 C 665.519531 583.226562 664.78125 583.386719 664.042969 583.5625 C 661.089844 584.242188 658.089844 584.933594 655.050781 585.632812 C 654.292969 585.820312 653.523438 585.960938 652.75 586.097656 C 651.976562 586.238281 651.199219 586.378906 650.421875 586.519531 C 648.867188 586.800781 647.300781 587.082031 645.726562 587.367188 C 644.9375 587.507812 644.148438 587.652344 643.355469 587.792969 C 642.5625 587.941406 641.765625 588.082031 640.960938 588.175781 C 639.351562 588.386719 637.734375 588.597656 636.109375 588.8125 C 632.855469 589.230469 629.574219 589.71875 626.222656 589.929688 C 624.554688 590.066406 622.875 590.203125 621.1875 590.34375 C 620.34375 590.410156 619.496094 590.476562 618.648438 590.546875 L 617.375 590.644531 L 616.09375 590.691406 C 612.675781 590.800781 609.226562 590.910156 605.746094 591.023438 C 602.265625 591.039062 598.753906 590.933594 595.21875 590.886719 C 594.335938 590.867188 593.449219 590.851562 592.5625 590.835938 C 591.675781 590.777344 590.789062 590.722656 589.898438 590.664062 C 588.121094 590.546875 586.339844 590.425781 584.546875 590.308594 C 569.878906 589.214844 555.40625 586.882812 541.136719 583.316406 C 537.535156 582.328125 533.921875 581.339844 530.292969 580.34375 C 526.722656 579.175781 523.144531 578.003906 519.554688 576.828125 C 517.746094 576.273438 516 575.550781 514.230469 574.878906 C 512.464844 574.195312 510.699219 573.515625 508.929688 572.832031 C 505.363281 571.542969 501.9375 569.886719 498.453125 568.367188 C 470.734375 555.859375 445.089844 538.175781 424.292969 517.214844 C 414.085938 506.976562 404.816406 495.945312 396.488281 484.128906 C 394.492188 481.242188 392.433594 478.4375 390.648438 475.476562 C 389.730469 474.019531 388.816406 472.5625 387.902344 471.117188 C 387 469.664062 386.058594 468.246094 385.253906 466.753906 C 383.585938 463.804688 381.9375 460.882812 380.304688 457.992188 C 378.78125 455.042969 377.320312 452.097656 375.859375 449.199219 C 375.496094 448.476562 375.132812 447.75 374.769531 447.03125 C 374.441406 446.292969 374.109375 445.558594 373.78125 444.828125 C 373.128906 443.359375 372.480469 441.90625 371.835938 440.457031 C 371.191406 439.007812 370.554688 437.570312 369.917969 436.140625 C 369.347656 434.683594 368.78125 433.238281 368.21875 431.800781 C 367.660156 430.359375 367.101562 428.933594 366.550781 427.511719 C 366.003906 426.09375 365.433594 424.695312 364.980469 423.261719 C 364.03125 420.421875 363.089844 417.621094 362.167969 414.863281 C 361.679688 413.492188 361.3125 412.097656 360.921875 410.722656 C 360.53125 409.347656 360.144531 407.984375 359.761719 406.632812 C 359.382812 405.28125 359.003906 403.941406 358.632812 402.613281 C 358.246094 401.292969 357.988281 399.945312 357.667969 398.632812 C 357.058594 395.996094 356.460938 393.410156 355.875 390.878906 C 355.335938 388.335938 354.933594 385.824219 354.472656 383.378906 C 351.675781 367.808594 350.40625 352.113281 350.660156 336.292969 C 350.726562 333.488281 350.710938 330.988281 350.832031 328.824219 C 350.972656 326.664062 351.09375 324.832031 351.191406 323.351562 Z M 351.492188 318.824219 " fill-opacity="1" fill-rule="nonzero"/></g><path fill="#ffffff" d="M 387.941406 264.101562 C 387.941406 264.101562 387.535156 265.449219 386.765625 268.011719 C 386.378906 269.289062 385.902344 270.871094 385.339844 272.738281 C 385.074219 273.675781 384.722656 274.664062 384.460938 275.753906 C 384.195312 276.84375 383.910156 278 383.609375 279.226562 C 380.03125 292.949219 377.855469 306.886719 377.082031 321.046875 C 376.992188 323.265625 376.898438 325.535156 376.804688 327.855469 C 376.652344 330.175781 376.714844 332.542969 376.734375 334.960938 C 376.746094 336.167969 376.753906 337.386719 376.765625 338.617188 C 376.769531 339.230469 376.773438 339.847656 376.78125 340.46875 L 376.789062 341.402344 L 376.84375 342.339844 C 376.988281 344.839844 377.136719 347.382812 377.285156 349.96875 C 377.324219 350.617188 377.359375 351.265625 377.398438 351.917969 C 377.429688 352.566406 377.527344 353.21875 377.589844 353.871094 C 377.730469 355.179688 377.875 356.496094 378.015625 357.824219 C 378.3125 360.480469 378.535156 363.179688 379.023438 365.886719 C 379.460938 368.597656 379.859375 371.355469 380.335938 374.128906 C 380.90625 376.890625 381.484375 379.679688 382.070312 382.507812 C 384.738281 394.230469 388.300781 405.679688 392.75 416.851562 C 393.347656 418.28125 393.949219 419.71875 394.554688 421.160156 L 395.460938 423.328125 C 395.761719 424.050781 396.050781 424.78125 396.40625 425.488281 C 397.757812 428.328125 399.117188 431.1875 400.488281 434.066406 C 401.988281 436.878906 403.496094 439.703125 405.011719 442.546875 L 405.582031 443.613281 C 405.777344 443.964844 405.996094 444.304688 406.199219 444.652344 L 407.445312 446.730469 C 408.277344 448.117188 409.109375 449.511719 409.945312 450.90625 C 416.890625 462.125 424.765625 472.644531 433.574219 482.46875 C 442.476562 492.390625 452.195312 501.433594 462.730469 509.597656 L 466.707031 512.578125 C 468.046875 513.554688 469.320312 514.613281 470.71875 515.503906 C 473.464844 517.339844 476.179688 519.214844 478.925781 521.019531 C 481.738281 522.722656 484.546875 524.421875 487.34375 526.113281 C 490.191406 527.71875 493.085938 529.21875 495.929688 530.773438 C 507.277344 536.589844 519.023438 541.429688 531.175781 545.285156 C 542.996094 549.121094 554.832031 551.59375 566.238281 553.242188 C 571.933594 554.175781 577.574219 554.535156 583.046875 555.046875 C 588.542969 555.234375 593.890625 555.582031 599.089844 555.40625 C 604.285156 555.476562 609.308594 555.027344 614.160156 554.777344 C 616.582031 554.589844 618.949219 554.269531 621.273438 554.035156 C 622.4375 553.910156 623.585938 553.789062 624.726562 553.664062 C 625.867188 553.5625 626.980469 553.324219 628.089844 553.167969 C 630.304688 552.816406 632.472656 552.472656 634.59375 552.136719 C 635.652344 551.992188 636.691406 551.769531 637.714844 551.550781 C 638.738281 551.335938 639.75 551.121094 640.75 550.914062 C 642.746094 550.488281 644.695312 550.109375 646.578125 549.679688 C 648.449219 549.191406 650.265625 548.71875 652.027344 548.257812 C 652.929688 548.03125 653.867188 547.792969 654.816406 547.550781 C 655.292969 547.441406 655.769531 547.328125 656.25 547.214844 C 656.726562 547.089844 657.203125 546.96875 657.675781 546.84375 C 659.488281 546.355469 661.328125 546.042969 663.199219 545.910156 C 664.78125 545.773438 666.3125 545.992188 667.792969 546.5625 C 668.121094 546.714844 668.433594 546.898438 668.722656 547.117188 C 669.011719 547.332031 669.277344 547.578125 669.519531 547.851562 C 669.761719 548.121094 669.96875 548.414062 670.152344 548.730469 C 670.332031 549.046875 670.476562 549.375 670.589844 549.722656 C 670.699219 550.066406 670.777344 550.417969 670.816406 550.78125 C 670.855469 551.140625 670.855469 551.5 670.820312 551.863281 C 670.785156 552.222656 670.714844 552.578125 670.609375 552.925781 C 670.5 553.269531 670.359375 553.601562 670.179688 553.921875 C 669.457031 555.171875 668.164062 556.148438 666.582031 557.046875 C 664.832031 557.980469 663.015625 558.75 661.132812 559.355469 C 660.640625 559.519531 660.144531 559.691406 659.644531 559.835938 C 659.136719 559.960938 658.632812 560.089844 658.128906 560.214844 C 657.117188 560.449219 656.117188 560.683594 655.15625 560.910156 C 653.277344 561.339844 651.339844 561.78125 649.34375 562.238281 C 647.335938 562.636719 645.257812 562.976562 643.136719 563.363281 C 642.074219 563.554688 640.996094 563.746094 639.90625 563.941406 C 638.820312 564.140625 637.714844 564.339844 636.589844 564.464844 C 634.339844 564.753906 632.039062 565.050781 629.6875 565.351562 C 628.507812 565.488281 627.328125 565.699219 626.121094 565.773438 C 624.914062 565.871094 623.695312 565.96875 622.464844 566.066406 C 620 566.242188 617.496094 566.503906 614.9375 566.625 C 609.8125 566.753906 604.511719 567.0625 599.042969 566.84375 C 593.570312 566.867188 587.953125 566.351562 582.191406 565.984375 C 576.453125 565.292969 570.554688 564.742188 564.609375 563.605469 C 552.707031 561.542969 540.414062 558.613281 528.207031 554.277344 C 515.675781 549.925781 503.597656 544.558594 491.964844 538.1875 C 489.050781 536.492188 486.09375 534.855469 483.1875 533.109375 C 480.335938 531.277344 477.476562 529.441406 474.609375 527.597656 C 471.8125 525.648438 469.054688 523.636719 466.265625 521.65625 C 464.851562 520.695312 463.554688 519.570312 462.203125 518.523438 L 458.175781 515.328125 C 447.625 506.6875 437.925781 497.179688 429.078125 486.800781 C 420.234375 476.421875 412.378906 465.339844 405.515625 453.558594 C 404.699219 452.109375 403.886719 450.664062 403.074219 449.222656 L 401.859375 447.0625 C 401.660156 446.703125 401.449219 446.347656 401.257812 445.984375 L 400.703125 444.878906 C 399.234375 441.9375 397.769531 439.011719 396.3125 436.101562 C 394.996094 433.128906 393.6875 430.171875 392.382812 427.238281 C 392.042969 426.511719 391.765625 425.757812 391.476562 425.011719 L 390.613281 422.777344 C 390.039062 421.292969 389.464844 419.8125 388.890625 418.339844 C 384.671875 406.871094 381.363281 395.144531 378.96875 383.160156 C 378.449219 380.28125 377.9375 377.4375 377.433594 374.625 C 377.023438 371.796875 376.695312 368.996094 376.324219 366.242188 C 375.90625 363.492188 375.75 360.753906 375.523438 358.0625 C 375.414062 356.714844 375.304688 355.382812 375.199219 354.054688 C 375.152344 353.390625 375.074219 352.734375 375.054688 352.074219 C 375.035156 351.414062 375.015625 350.757812 374.996094 350.105469 C 374.910156 347.488281 374.832031 344.917969 374.75 342.390625 L 374.71875 341.445312 L 374.738281 340.503906 C 374.75 339.875 374.761719 339.253906 374.773438 338.632812 C 374.792969 337.390625 374.816406 336.160156 374.839844 334.941406 C 374.882812 332.507812 374.882812 330.117188 375.09375 327.785156 C 375.253906 325.453125 375.40625 323.171875 375.558594 320.9375 C 376.710938 306.742188 379.261719 292.800781 383.210938 279.117188 C 383.546875 277.898438 383.859375 276.75 384.15625 275.667969 C 384.445312 274.585938 384.824219 273.601562 385.113281 272.671875 C 385.726562 270.816406 386.246094 269.25 386.664062 267.976562 C 387.5 265.4375 387.941406 264.101562 387.941406 264.101562 Z M 387.941406 264.101562 " fill-opacity="1" fill-rule="nonzero"/><g clip-path="url(#d4e7c9150e)"><path fill="#ffffff" d="M 848.417969 355.078125 C 848.417969 355.078125 848.488281 353.511719 848.613281 350.546875 C 848.675781 349.066406 848.753906 347.234375 848.84375 345.070312 C 848.914062 342.90625 848.839844 340.410156 848.835938 337.609375 C 848.722656 321.851562 847.089844 306.25 843.933594 290.808594 C 843.421875 288.390625 842.964844 285.90625 842.367188 283.394531 C 841.726562 280.894531 841.074219 278.34375 840.40625 275.742188 C 840.054688 274.445312 839.773438 273.117188 839.355469 271.8125 C 838.953125 270.507812 838.546875 269.1875 838.136719 267.855469 C 837.726562 266.523438 837.3125 265.183594 836.894531 263.828125 C 836.476562 262.476562 836.078125 261.101562 835.5625 259.757812 C 834.582031 257.050781 833.589844 254.296875 832.578125 251.503906 C 832.101562 250.097656 831.5 248.726562 830.925781 247.335938 C 830.34375 245.945312 829.761719 244.546875 829.175781 243.136719 C 828.585938 241.730469 827.992188 240.3125 827.390625 238.886719 C 826.730469 237.488281 826.066406 236.078125 825.394531 234.664062 C 824.722656 233.25 824.046875 231.824219 823.371094 230.390625 C 823.027344 229.675781 822.6875 228.960938 822.34375 228.242188 C 821.96875 227.535156 821.59375 226.832031 821.214844 226.125 C 819.703125 223.296875 818.195312 220.425781 816.625 217.554688 C 814.945312 214.742188 813.25 211.902344 811.539062 209.03125 C 810.714844 207.582031 809.746094 206.207031 808.824219 204.796875 C 807.894531 203.394531 806.957031 201.984375 806.019531 200.570312 C 804.199219 197.699219 802.097656 194.984375 800.070312 192.195312 C 791.621094 180.792969 782.269531 170.191406 772.015625 160.386719 C 751.15625 140.347656 725.726562 123.734375 698.523438 112.246094 C 695.105469 110.851562 691.746094 109.324219 688.25 108.15625 L 683.0625 106.300781 C 681.332031 105.691406 679.621094 105.027344 677.855469 104.535156 C 674.351562 103.480469 670.855469 102.429688 667.371094 101.382812 C 663.839844 100.507812 660.320312 99.636719 656.8125 98.765625 C 642.964844 95.664062 628.957031 93.757812 614.785156 93.050781 C 613.058594 92.976562 611.339844 92.90625 609.628906 92.835938 C 608.769531 92.800781 607.917969 92.765625 607.0625 92.730469 C 606.210938 92.734375 605.359375 92.742188 604.507812 92.75 C 601.105469 92.789062 597.734375 92.769531 594.390625 92.863281 C 591.054688 93.054688 587.746094 93.246094 584.46875 93.433594 L 583.242188 93.503906 L 582.023438 93.632812 C 581.210938 93.71875 580.402344 93.804688 579.59375 93.890625 C 577.980469 94.0625 576.375 94.234375 574.777344 94.402344 C 571.574219 94.683594 568.441406 95.238281 565.335938 95.714844 C 563.785156 95.957031 562.242188 96.199219 560.707031 96.4375 C 559.9375 96.546875 559.179688 96.699219 558.425781 96.859375 C 557.671875 97.015625 556.917969 97.171875 556.167969 97.328125 C 554.667969 97.636719 553.175781 97.945312 551.695312 98.25 C 550.957031 98.402344 550.21875 98.558594 549.484375 98.707031 C 548.746094 98.855469 548.015625 99.007812 547.292969 99.207031 C 544.40625 99.953125 541.558594 100.683594 538.753906 101.40625 C 538.054688 101.59375 537.351562 101.757812 536.664062 101.957031 C 535.976562 102.167969 535.292969 102.378906 534.613281 102.589844 C 533.25 103.011719 531.898438 103.429688 530.558594 103.84375 C 529.21875 104.257812 527.894531 104.671875 526.578125 105.078125 C 525.914062 105.273438 525.265625 105.5 524.628906 105.738281 C 523.984375 105.972656 523.34375 106.203125 522.707031 106.433594 C 520.164062 107.359375 517.667969 108.265625 515.214844 109.15625 C 512.792969 110.109375 510.449219 111.132812 508.136719 112.085938 C 506.984375 112.570312 505.84375 113.046875 504.714844 113.519531 C 503.578125 113.96875 502.511719 114.542969 501.425781 115.039062 C 499.265625 116.066406 497.160156 117.066406 495.109375 118.042969 C 494.59375 118.289062 494.085938 118.53125 493.578125 118.773438 C 493.078125 119.023438 492.589844 119.296875 492.101562 119.554688 C 491.125 120.078125 490.164062 120.59375 489.214844 121.101562 C 487.316406 122.117188 485.472656 123.105469 483.6875 124.066406 C 481.875 125.082031 479.980469 126.261719 478.042969 127.277344 C 476.210938 128.273438 474.316406 129.125 472.351562 129.832031 C 468.78125 131.179688 465.582031 131.273438 463.738281 128.464844 C 461.894531 125.660156 463.359375 122.734375 466.253906 119.914062 C 467.894531 118.46875 469.652344 117.179688 471.523438 116.050781 C 473.476562 114.835938 475.507812 113.644531 477.441406 112.625 C 479.351562 111.667969 481.320312 110.679688 483.34375 109.660156 C 484.359375 109.152344 485.386719 108.636719 486.425781 108.117188 C 486.949219 107.859375 487.46875 107.585938 488.003906 107.335938 C 488.542969 107.097656 489.085938 106.855469 489.632812 106.613281 C 491.816406 105.640625 494.058594 104.644531 496.355469 103.625 C 497.507812 103.132812 498.648438 102.566406 499.855469 102.121094 C 501.050781 101.65625 502.261719 101.183594 503.488281 100.710938 C 505.9375 99.769531 508.425781 98.765625 510.996094 97.828125 C 513.589844 96.960938 516.234375 96.078125 518.925781 95.175781 C 519.601562 94.953125 520.277344 94.726562 520.957031 94.5 C 521.632812 94.265625 522.320312 94.046875 523.015625 93.863281 C 524.40625 93.46875 525.808594 93.074219 527.222656 92.671875 C 528.636719 92.273438 530.0625 91.875 531.5 91.46875 C 532.21875 91.269531 532.941406 91.066406 533.664062 90.863281 C 534.390625 90.675781 535.132812 90.515625 535.867188 90.34375 C 538.824219 89.660156 541.820312 88.96875 544.859375 88.269531 C 545.617188 88.082031 546.386719 87.941406 547.164062 87.804688 C 547.933594 87.664062 548.710938 87.523438 549.488281 87.382812 C 551.042969 87.101562 552.609375 86.820312 554.1875 86.535156 C 554.972656 86.394531 555.765625 86.25 556.558594 86.109375 C 557.347656 85.964844 558.144531 85.820312 558.949219 85.730469 C 560.558594 85.515625 562.175781 85.304688 563.800781 85.089844 C 567.054688 84.671875 570.335938 84.183594 573.6875 83.972656 C 575.359375 83.835938 577.035156 83.699219 578.726562 83.5625 C 579.570312 83.492188 580.414062 83.425781 581.261719 83.355469 L 582.535156 83.257812 L 583.816406 83.214844 C 587.234375 83.101562 590.683594 82.992188 594.164062 82.878906 C 597.644531 82.863281 601.15625 82.96875 604.691406 83.019531 C 605.574219 83.035156 606.460938 83.050781 607.347656 83.066406 C 608.234375 83.125 609.121094 83.183594 610.011719 83.238281 C 611.789062 83.359375 613.574219 83.476562 615.363281 83.59375 C 630.03125 84.691406 644.503906 87.019531 658.773438 90.589844 C 662.375 91.574219 665.988281 92.566406 669.617188 93.558594 L 680.359375 97.078125 C 682.164062 97.632812 683.914062 98.355469 685.679688 99.027344 C 687.445312 99.707031 689.214844 100.386719 690.980469 101.070312 C 694.546875 102.359375 697.976562 104.015625 701.457031 105.535156 C 729.175781 118.046875 754.820312 135.726562 775.621094 156.691406 C 785.828125 166.929688 795.09375 177.957031 803.421875 189.773438 C 805.417969 192.660156 807.480469 195.46875 809.261719 198.425781 C 810.179688 199.886719 811.097656 201.339844 812.007812 202.785156 C 812.910156 204.238281 813.855469 205.65625 814.660156 207.148438 C 816.324219 210.097656 817.972656 213.019531 819.605469 215.910156 C 821.128906 218.863281 822.589844 221.804688 824.050781 224.703125 C 824.417969 225.429688 824.78125 226.152344 825.140625 226.871094 C 825.472656 227.609375 825.800781 228.34375 826.128906 229.078125 C 826.78125 230.542969 827.429688 232 828.074219 233.445312 C 828.71875 234.894531 829.355469 236.332031 829.992188 237.761719 C 830.5625 239.21875 831.128906 240.667969 831.691406 242.105469 C 832.253906 243.542969 832.808594 244.972656 833.359375 246.390625 C 833.90625 247.808594 834.480469 249.207031 834.929688 250.640625 C 835.882812 253.484375 836.820312 256.285156 837.742188 259.039062 C 838.230469 260.410156 838.597656 261.804688 838.992188 263.179688 C 839.378906 264.554688 839.765625 265.917969 840.148438 267.269531 C 840.527344 268.621094 840.90625 269.960938 841.28125 271.289062 C 841.667969 272.613281 841.921875 273.957031 842.246094 275.269531 C 842.855469 277.90625 843.449219 280.492188 844.035156 283.023438 C 844.578125 285.566406 844.976562 288.082031 845.4375 290.523438 C 848.234375 306.09375 849.507812 321.789062 849.25 337.609375 C 849.183594 340.417969 849.199219 342.914062 849.082031 345.078125 C 848.9375 347.238281 848.820312 349.070312 848.722656 350.554688 C 848.523438 353.515625 848.417969 355.078125 848.417969 355.078125 Z M 848.417969 355.078125 " fill-opacity="1" fill-rule="nonzero"/></g><path fill="#ffffff" d="M 811.96875 409.804688 C 811.96875 409.804688 812.375 408.453125 813.144531 405.890625 C 813.53125 404.613281 814.007812 403.03125 814.570312 401.164062 C 814.835938 400.230469 815.1875 399.238281 815.449219 398.148438 C 815.714844 397.0625 816 395.90625 816.300781 394.679688 C 819.878906 380.957031 822.054688 367.015625 822.828125 352.855469 C 822.921875 350.636719 823.011719 348.367188 823.109375 346.046875 C 823.257812 343.730469 823.195312 341.359375 823.175781 338.945312 C 823.164062 337.734375 823.15625 336.515625 823.144531 335.285156 C 823.140625 334.671875 823.136719 334.054688 823.132812 333.433594 L 823.125 332.5 L 823.070312 331.566406 C 822.921875 329.066406 822.773438 326.519531 822.625 323.933594 C 822.589844 323.289062 822.550781 322.640625 822.515625 321.988281 C 822.480469 321.335938 822.382812 320.6875 822.320312 320.03125 C 822.179688 318.722656 822.039062 317.40625 821.894531 316.078125 C 821.601562 313.421875 821.375 310.722656 820.886719 308.015625 C 820.449219 305.304688 820.050781 302.550781 819.574219 299.773438 C 819.003906 297.015625 818.425781 294.222656 817.839844 291.398438 C 815.171875 279.671875 811.613281 268.222656 807.160156 257.054688 C 806.5625 255.621094 805.960938 254.183594 805.355469 252.742188 L 804.453125 250.574219 C 804.148438 249.851562 803.859375 249.121094 803.503906 248.417969 C 802.152344 245.574219 800.792969 242.714844 799.425781 239.835938 C 797.925781 237.027344 796.414062 234.199219 794.898438 231.355469 L 794.328125 230.292969 C 794.132812 229.941406 793.917969 229.597656 793.710938 229.25 L 792.464844 227.171875 C 791.632812 225.785156 790.800781 224.394531 789.964844 223 C 783.023438 211.78125 775.144531 201.257812 766.335938 191.433594 C 757.433594 181.511719 747.714844 172.46875 737.179688 164.304688 L 733.203125 161.324219 C 731.867188 160.347656 730.589844 159.289062 729.195312 158.402344 C 726.445312 156.5625 723.730469 154.691406 720.984375 152.882812 C 718.171875 151.179688 715.367188 149.484375 712.566406 147.789062 C 709.722656 146.183594 706.824219 144.6875 703.980469 143.132812 C 692.636719 137.3125 680.886719 132.476562 668.734375 128.621094 C 656.914062 124.78125 645.078125 122.3125 633.671875 120.660156 C 627.976562 119.726562 622.335938 119.367188 616.863281 118.859375 C 611.367188 118.667969 606.023438 118.320312 600.824219 118.496094 C 595.625 118.425781 590.601562 118.875 585.75 119.128906 C 583.328125 119.3125 580.960938 119.632812 578.636719 119.867188 L 575.183594 120.238281 C 574.042969 120.339844 572.929688 120.578125 571.820312 120.738281 C 569.605469 121.089844 567.4375 121.429688 565.320312 121.765625 C 564.257812 121.910156 563.21875 122.132812 562.195312 122.355469 C 561.171875 122.570312 560.160156 122.78125 559.164062 122.992188 C 557.167969 123.417969 555.214844 123.792969 553.332031 124.222656 L 547.886719 125.644531 C 546.980469 125.875 546.042969 126.113281 545.097656 126.351562 C 544.621094 126.464844 544.140625 126.574219 543.660156 126.6875 C 543.183594 126.8125 542.707031 126.9375 542.234375 127.0625 C 540.421875 127.546875 538.582031 127.859375 536.710938 127.996094 C 535.128906 128.128906 533.597656 127.914062 532.117188 127.34375 C 531.789062 127.1875 531.480469 127.003906 531.1875 126.785156 C 530.898438 126.570312 530.632812 126.324219 530.390625 126.054688 C 530.152344 125.78125 529.941406 125.488281 529.761719 125.171875 C 529.582031 124.859375 529.433594 124.527344 529.324219 124.183594 C 529.210938 123.835938 529.132812 123.484375 529.09375 123.125 C 529.054688 122.761719 529.054688 122.402344 529.089844 122.039062 C 529.125 121.679688 529.195312 121.324219 529.304688 120.980469 C 529.410156 120.632812 529.554688 120.300781 529.730469 119.984375 C 530.457031 118.734375 531.746094 117.757812 533.332031 116.855469 C 535.078125 115.921875 536.894531 115.152344 538.777344 114.546875 C 539.273438 114.382812 539.765625 114.210938 540.269531 114.070312 C 540.773438 113.941406 541.28125 113.816406 541.785156 113.6875 C 542.792969 113.453125 543.792969 113.21875 544.753906 112.996094 C 546.632812 112.566406 548.570312 112.121094 550.566406 111.664062 C 552.574219 111.269531 554.652344 110.929688 556.777344 110.539062 C 557.839844 110.351562 558.914062 110.15625 560.003906 109.964844 C 561.09375 109.761719 562.195312 109.5625 563.324219 109.441406 C 565.570312 109.148438 567.871094 108.855469 570.222656 108.550781 C 571.402344 108.417969 572.582031 108.207031 573.792969 108.128906 C 574.996094 108.035156 576.214844 107.9375 577.449219 107.839844 C 579.910156 107.660156 582.414062 107.402344 584.972656 107.277344 C 590.097656 107.152344 595.398438 106.839844 600.871094 107.0625 C 606.34375 107.039062 611.960938 107.550781 617.722656 107.917969 C 623.457031 108.609375 629.355469 109.160156 635.300781 110.296875 C 647.203125 112.359375 659.5 115.292969 671.703125 119.625 C 684.234375 123.980469 696.316406 129.34375 707.945312 135.714844 C 710.859375 137.410156 713.820312 139.046875 716.722656 140.792969 C 719.574219 142.625 722.433594 144.460938 725.304688 146.304688 C 728.097656 148.253906 730.855469 150.269531 733.644531 152.246094 C 735.0625 153.207031 736.355469 154.335938 737.710938 155.382812 L 741.734375 158.574219 C 752.285156 167.214844 761.984375 176.722656 770.832031 187.101562 C 779.679688 197.480469 787.53125 208.5625 794.394531 220.347656 C 795.210938 221.792969 796.023438 223.238281 796.835938 224.683594 L 798.050781 226.839844 C 798.253906 227.199219 798.460938 227.554688 798.652344 227.917969 L 799.207031 229.023438 C 800.679688 231.96875 802.140625 234.894531 803.597656 237.804688 C 804.914062 240.777344 806.226562 243.730469 807.527344 246.667969 C 807.867188 247.390625 808.144531 248.144531 808.433594 248.890625 L 809.296875 251.125 C 809.875 252.609375 810.445312 254.089844 811.019531 255.5625 C 815.238281 267.03125 818.546875 278.761719 820.941406 290.746094 C 821.460938 293.621094 821.972656 296.46875 822.476562 299.28125 C 822.886719 302.105469 823.214844 304.90625 823.585938 307.660156 C 824.007812 310.410156 824.160156 313.152344 824.386719 315.839844 C 824.496094 317.1875 824.605469 318.523438 824.710938 319.847656 C 824.757812 320.511719 824.839844 321.167969 824.855469 321.828125 C 824.875 322.488281 824.894531 323.144531 824.917969 323.800781 C 825 326.414062 825.082031 328.984375 825.160156 331.515625 L 825.191406 332.460938 L 825.171875 333.402344 C 825.160156 334.027344 825.148438 334.652344 825.140625 335.273438 C 825.117188 336.511719 825.09375 337.742188 825.070312 338.960938 C 825.027344 341.394531 825.027344 343.785156 824.816406 346.117188 C 824.660156 348.449219 824.503906 350.730469 824.355469 352.964844 C 823.203125 367.160156 820.652344 381.101562 816.699219 394.785156 C 816.367188 396.003906 816.050781 397.152344 815.753906 398.234375 C 815.464844 399.320312 815.089844 400.304688 814.796875 401.234375 C 814.183594 403.085938 813.664062 404.65625 813.246094 405.925781 C 812.410156 408.464844 811.96875 409.804688 811.96875 409.804688 Z M 811.96875 409.804688 " fill-opacity="1" fill-rule="nonzero"/><path fill="#ffffff" d="M 570.96875 532.882812 C 570.96875 532.882812 572.203125 533.027344 574.546875 533.304688 C 575.71875 533.441406 577.167969 533.609375 578.878906 533.808594 C 580.589844 533.992188 582.570312 534.078125 584.792969 534.242188 C 597.296875 535.078125 609.761719 534.699219 622.1875 533.109375 C 624.132812 532.84375 626.132812 532.628906 628.160156 532.300781 C 630.179688 531.941406 632.238281 531.574219 634.34375 531.199219 C 635.390625 530.996094 636.460938 530.847656 637.519531 530.597656 C 638.578125 530.355469 639.648438 530.109375 640.730469 529.863281 C 641.808594 529.617188 642.894531 529.367188 643.996094 529.113281 C 645.089844 528.859375 646.203125 528.625 647.300781 528.296875 C 649.503906 527.679688 651.746094 527.054688 654.019531 526.414062 C 655.160156 526.121094 656.285156 525.722656 657.421875 525.351562 C 658.558594 524.972656 659.703125 524.59375 660.855469 524.210938 C 662.003906 523.824219 663.164062 523.4375 664.328125 523.046875 C 665.476562 522.605469 666.632812 522.160156 667.792969 521.710938 C 668.957031 521.261719 670.125 520.8125 671.300781 520.355469 C 671.886719 520.128906 672.476562 519.898438 673.066406 519.671875 C 673.648438 519.414062 674.226562 519.15625 674.8125 518.902344 C 684.605469 514.761719 693.984375 509.835938 702.957031 504.128906 C 712.492188 498.101562 721.449219 491.3125 729.828125 483.757812 C 746.941406 468.398438 761.609375 449.214844 772.320312 428.320312 C 773.625 425.691406 775.035156 423.117188 776.164062 420.417969 C 776.757812 419.082031 777.351562 417.746094 777.941406 416.414062 C 778.527344 415.074219 779.152344 413.757812 779.648438 412.386719 C 780.6875 409.671875 781.726562 406.960938 782.765625 404.261719 C 783.667969 401.511719 784.5625 398.773438 785.460938 396.042969 C 788.734375 385.246094 791.070312 374.25 792.464844 363.054688 C 792.621094 361.691406 792.78125 360.335938 792.9375 358.980469 C 793.015625 358.304688 793.09375 357.628906 793.171875 356.953125 C 793.21875 356.277344 793.261719 355.601562 793.308594 354.925781 C 793.476562 352.226562 793.691406 349.554688 793.808594 346.898438 C 793.855469 344.242188 793.898438 341.609375 793.941406 339 C 793.996094 337.695312 793.890625 336.398438 793.867188 335.105469 C 793.828125 333.816406 793.785156 332.535156 793.742188 331.257812 C 793.710938 328.699219 793.457031 326.183594 793.261719 323.691406 C 793.160156 322.449219 793.058594 321.210938 792.957031 319.980469 C 792.871094 318.75 792.660156 317.539062 792.519531 316.332031 C 792.191406 313.917969 791.929688 311.523438 791.550781 309.183594 C 791.132812 306.851562 790.71875 304.550781 790.308594 302.285156 C 790.203125 301.71875 790.113281 301.152344 789.996094 300.59375 C 789.871094 300.035156 789.742188 299.480469 789.617188 298.929688 C 789.363281 297.824219 789.109375 296.730469 788.859375 295.644531 C 788.609375 294.558594 788.363281 293.480469 788.117188 292.414062 C 787.886719 291.339844 787.542969 290.304688 787.269531 289.265625 C 786.6875 287.195312 786.113281 285.160156 785.550781 283.164062 C 784.9375 281.1875 784.265625 279.269531 783.644531 277.378906 C 783.015625 275.492188 782.417969 273.644531 781.699219 271.882812 C 781.011719 270.113281 780.339844 268.386719 779.6875 266.699219 C 779.070312 265 778.285156 263.417969 777.609375 261.84375 C 776.914062 260.28125 776.238281 258.761719 775.585938 257.289062 C 774.136719 254.320312 772.4375 250.929688 771.679688 247.964844 C 770.820312 245.054688 770.933594 242.511719 773.269531 241.214844 C 775.601562 239.917969 777.835938 241.253906 779.898438 243.710938 C 781.859375 246.21875 783.585938 249.847656 785.023438 253.011719 C 785.671875 254.582031 786.339844 256.199219 787.027344 257.867188 C 787.691406 259.539062 788.46875 261.226562 789.074219 263.03125 C 789.714844 264.820312 790.371094 266.65625 791.042969 268.535156 C 791.75 270.402344 792.332031 272.363281 792.9375 274.363281 C 793.539062 276.363281 794.1875 278.394531 794.78125 280.484375 C 795.316406 282.59375 795.859375 284.742188 796.417969 286.929688 C 796.679688 288.027344 797.007812 289.121094 797.21875 290.25 C 797.449219 291.375 797.679688 292.511719 797.914062 293.65625 C 798.144531 294.800781 798.378906 295.953125 798.617188 297.117188 C 798.734375 297.699219 798.851562 298.28125 798.96875 298.867188 C 799.074219 299.457031 799.15625 300.050781 799.253906 300.648438 C 799.617188 303.027344 799.992188 305.445312 800.367188 307.898438 C 800.699219 310.355469 800.914062 312.863281 801.195312 315.394531 C 801.308594 316.660156 801.496094 317.929688 801.550781 319.21875 C 801.625 320.503906 801.699219 321.800781 801.773438 323.101562 C 801.914062 325.707031 802.109375 328.335938 802.078125 331.007812 C 802.089844 332.339844 802.097656 333.679688 802.109375 335.023438 C 802.097656 336.371094 802.167969 337.722656 802.085938 339.082031 C 801.96875 341.796875 801.855469 344.539062 801.742188 347.304688 C 801.546875 350.066406 801.257812 352.84375 801.011719 355.644531 C 800.945312 356.34375 800.882812 357.046875 800.816406 357.75 C 800.71875 358.445312 800.621094 359.148438 800.523438 359.847656 C 800.324219 361.25 800.125 362.660156 799.925781 364.070312 C 798.195312 375.636719 795.496094 386.972656 791.828125 398.078125 C 790.832031 400.875 789.835938 403.683594 788.835938 406.5 C 787.699219 409.261719 786.558594 412.03125 785.414062 414.808594 C 784.867188 416.210938 784.191406 417.554688 783.554688 418.917969 C 782.910156 420.277344 782.265625 421.636719 781.621094 423 C 780.390625 425.75 778.875 428.371094 777.464844 431.042969 C 765.917969 452.28125 750.390625 471.574219 732.542969 486.832031 C 723.828125 494.324219 714.539062 501.023438 704.675781 506.929688 C 695.4375 512.5 685.804688 517.269531 675.769531 521.234375 C 675.175781 521.480469 674.578125 521.722656 673.984375 521.96875 C 673.382812 522.1875 672.78125 522.40625 672.179688 522.621094 C 670.980469 523.054688 669.789062 523.480469 668.601562 523.90625 C 667.414062 524.332031 666.238281 524.753906 665.066406 525.175781 C 663.878906 525.539062 662.695312 525.90625 661.523438 526.265625 C 660.351562 526.625 659.1875 526.980469 658.027344 527.335938 C 656.871094 527.6875 655.726562 528.058594 654.566406 528.332031 C 652.257812 528.917969 649.980469 529.496094 647.738281 530.066406 C 646.625 530.375 645.496094 530.582031 644.386719 530.8125 C 643.273438 531.042969 642.167969 531.265625 641.074219 531.488281 C 639.980469 531.710938 638.894531 531.933594 637.820312 532.152344 C 636.75 532.378906 635.667969 532.503906 634.605469 532.683594 C 632.480469 533.011719 630.394531 533.332031 628.355469 533.644531 C 626.308594 533.925781 624.289062 534.09375 622.324219 534.316406 C 609.816406 535.617188 597.296875 535.703125 584.769531 534.570312 C 582.546875 534.351562 580.566406 534.21875 578.859375 533.996094 C 577.152344 533.757812 575.707031 533.554688 574.539062 533.390625 C 572.199219 533.058594 570.96875 532.882812 570.96875 532.882812 Z M 570.96875 532.882812 " fill-opacity="1" fill-rule="nonzero"/><path fill="#ffffff" d="M 529.722656 500.765625 C 529.722656 500.765625 530.769531 501.167969 532.753906 501.925781 C 533.746094 502.308594 534.972656 502.777344 536.417969 503.335938 C 537.144531 503.601562 537.910156 503.9375 538.757812 504.207031 C 539.605469 504.484375 540.503906 504.777344 541.460938 505.089844 C 552.128906 508.730469 563.054688 511.277344 574.234375 512.722656 C 577.75 513.09375 581.402344 513.65625 585.246094 513.816406 C 587.164062 513.925781 589.113281 514.109375 591.101562 514.167969 C 593.09375 514.199219 595.117188 514.230469 597.179688 514.265625 C 599.238281 514.351562 601.328125 514.191406 603.449219 514.144531 C 605.570312 514.070312 607.726562 514.050781 609.902344 513.824219 C 612.078125 513.636719 614.285156 513.480469 616.511719 513.265625 C 618.734375 512.976562 620.984375 512.679688 623.257812 512.382812 C 641.371094 509.648438 660.816406 503.953125 679.128906 494.308594 C 688.429688 489.460938 697.234375 483.835938 705.542969 477.429688 C 713.933594 470.957031 721.675781 463.78125 728.769531 455.90625 C 735.796875 448.132812 742.042969 439.773438 747.507812 430.828125 C 752.789062 422.179688 757.316406 413.148438 761.089844 403.738281 C 764.65625 394.867188 767.449219 385.757812 769.460938 376.40625 C 770.535156 371.945312 771.152344 367.496094 771.878906 363.1875 C 772.351562 358.839844 772.941406 354.621094 773.109375 350.488281 C 773.46875 346.375 773.410156 342.363281 773.496094 338.503906 C 773.492188 336.574219 773.375 334.675781 773.328125 332.820312 C 773.296875 331.890625 773.265625 330.96875 773.238281 330.058594 C 773.222656 329.148438 773.101562 328.253906 773.039062 327.363281 C 772.890625 325.585938 772.746094 323.847656 772.605469 322.148438 C 772.554688 321.296875 772.4375 320.460938 772.324219 319.636719 C 772.214844 318.8125 772.105469 318 771.996094 317.195312 C 771.777344 315.585938 771.59375 314.019531 771.363281 312.5 C 771.085938 310.988281 770.816406 309.519531 770.554688 308.097656 C 770.425781 307.367188 770.292969 306.609375 770.160156 305.84375 C 770.097656 305.460938 770.039062 305.074219 769.976562 304.6875 L 769.765625 303.53125 C 769.484375 302.070312 769.347656 300.589844 769.351562 299.101562 C 769.335938 297.839844 769.597656 296.636719 770.136719 295.496094 C 770.277344 295.246094 770.445312 295.007812 770.632812 294.792969 C 770.820312 294.574219 771.03125 294.378906 771.261719 294.203125 C 771.492188 294.027344 771.734375 293.878906 771.996094 293.753906 C 772.257812 293.628906 772.527344 293.535156 772.808594 293.464844 C 773.085938 293.398438 773.371094 293.359375 773.660156 293.347656 C 773.949219 293.339844 774.234375 293.359375 774.519531 293.40625 C 774.804688 293.457031 775.078125 293.53125 775.347656 293.640625 C 775.617188 293.746094 775.871094 293.878906 776.113281 294.035156 C 777.0625 294.683594 777.761719 295.765625 778.378906 297.074219 C 779.015625 298.515625 779.519531 300 779.890625 301.53125 C 779.992188 301.929688 780.097656 302.332031 780.183594 302.738281 C 780.253906 303.148438 780.324219 303.554688 780.394531 303.964844 C 780.523438 304.777344 780.648438 305.582031 780.769531 306.359375 C 781 307.875 781.238281 309.4375 781.480469 311.046875 C 781.679688 312.660156 781.824219 314.328125 782.007812 316.035156 C 782.097656 316.886719 782.1875 317.753906 782.277344 318.628906 C 782.371094 319.503906 782.464844 320.390625 782.496094 321.289062 C 782.59375 323.089844 782.691406 324.933594 782.792969 326.816406 C 782.832031 327.757812 782.929688 328.703125 782.917969 329.667969 C 782.925781 330.628906 782.929688 331.601562 782.933594 332.582031 C 782.929688 334.546875 782.988281 336.546875 782.9375 338.582031 C 782.734375 342.652344 782.671875 346.875 782.171875 351.199219 C 781.871094 355.539062 781.132812 359.964844 780.5 364.511719 C 779.617188 369.019531 778.832031 373.664062 777.582031 378.308594 C 775.203125 388.015625 772.027344 397.457031 768.042969 406.625 C 763.855469 416.300781 758.890625 425.5625 753.15625 434.410156 C 747.242188 443.519531 740.539062 452 733.042969 459.855469 C 725.574219 467.714844 717.460938 474.84375 708.714844 481.246094 C 699.964844 487.652344 690.714844 493.226562 680.96875 497.976562 C 661.976562 507.335938 642.027344 512.597656 623.589844 514.882812 C 621.277344 515.125 618.992188 515.363281 616.734375 515.597656 C 614.46875 515.753906 612.230469 515.851562 610.023438 515.984375 C 607.820312 516.15625 605.636719 516.117188 603.492188 516.136719 C 601.34375 516.128906 599.230469 516.230469 597.148438 516.089844 C 595.074219 516 593.027344 515.914062 591.019531 515.828125 C 589.011719 515.71875 587.050781 515.480469 585.121094 515.320312 C 581.253906 515.054688 577.582031 514.390625 574.058594 513.925781 C 562.871094 512.179688 551.96875 509.335938 541.351562 505.398438 C 540.40625 505.0625 539.511719 504.746094 538.671875 504.445312 C 537.828125 504.152344 537.070312 503.796875 536.351562 503.507812 C 534.917969 502.914062 533.703125 502.410156 532.722656 502.003906 C 530.757812 501.191406 529.722656 500.765625 529.722656 500.765625 Z M 529.722656 500.765625 " fill-opacity="1" fill-rule="nonzero"/><path fill="#ffffff" d="M 628.941406 141.019531 C 628.941406 141.019531 627.707031 140.875 625.363281 140.597656 C 624.191406 140.460938 622.742188 140.292969 621.035156 140.09375 C 619.324219 139.914062 617.339844 139.824219 615.117188 139.660156 C 602.617188 138.824219 590.152344 139.203125 577.722656 140.796875 C 575.777344 141.058594 573.777344 141.277344 571.753906 141.601562 C 569.734375 141.960938 567.671875 142.332031 565.570312 142.707031 C 564.519531 142.90625 563.453125 143.054688 562.394531 143.308594 C 561.332031 143.550781 560.261719 143.792969 559.183594 144.039062 C 558.101562 144.289062 557.015625 144.539062 555.917969 144.789062 C 554.820312 145.042969 553.707031 145.277344 552.609375 145.605469 C 550.40625 146.222656 548.167969 146.851562 545.890625 147.488281 C 544.75 147.785156 543.625 148.179688 542.488281 148.554688 C 541.351562 148.929688 540.207031 149.3125 539.058594 149.695312 C 537.90625 150.078125 536.746094 150.464844 535.582031 150.855469 C 534.433594 151.300781 533.277344 151.746094 532.117188 152.191406 C 530.957031 152.640625 529.785156 153.09375 528.609375 153.546875 C 528.023438 153.773438 527.433594 154.003906 526.84375 154.234375 C 526.265625 154.488281 525.683594 154.746094 525.101562 155.003906 C 515.308594 159.144531 505.925781 164.066406 496.957031 169.773438 C 487.417969 175.800781 478.460938 182.589844 470.082031 190.144531 C 452.96875 205.503906 438.300781 224.691406 427.59375 245.582031 C 426.285156 248.210938 424.878906 250.785156 423.746094 253.484375 C 423.152344 254.824219 422.5625 256.15625 421.96875 257.492188 C 421.382812 258.828125 420.757812 260.144531 420.265625 261.515625 C 419.222656 264.230469 418.183594 266.941406 417.144531 269.644531 C 416.246094 272.390625 415.347656 275.132812 414.453125 277.859375 C 411.175781 288.65625 408.84375 299.652344 407.445312 310.847656 C 407.289062 312.210938 407.128906 313.570312 406.972656 314.921875 C 406.894531 315.597656 406.816406 316.273438 406.738281 316.949219 C 406.695312 317.625 406.648438 318.300781 406.605469 318.976562 C 406.4375 321.675781 406.222656 324.351562 406.101562 327.003906 C 406.054688 329.660156 406.011719 332.292969 405.96875 334.902344 C 405.917969 336.207031 406.019531 337.503906 406.042969 338.796875 C 406.085938 340.085938 406.125 341.371094 406.167969 342.648438 C 406.199219 345.203125 406.453125 347.71875 406.648438 350.210938 C 406.75 351.453125 406.851562 352.691406 406.953125 353.921875 C 407.039062 355.152344 407.25 356.363281 407.390625 357.574219 C 407.71875 359.988281 407.980469 362.378906 408.359375 364.71875 C 408.777344 367.050781 409.191406 369.351562 409.601562 371.621094 C 409.707031 372.183594 409.796875 372.75 409.914062 373.3125 C 410.042969 373.867188 410.167969 374.421875 410.296875 374.972656 C 410.550781 376.078125 410.800781 377.175781 411.050781 378.261719 C 411.300781 379.347656 411.550781 380.421875 411.796875 381.492188 C 412.023438 382.5625 412.367188 383.597656 412.640625 384.636719 C 413.226562 386.710938 413.796875 388.742188 414.359375 390.738281 C 414.976562 392.714844 415.644531 394.636719 416.265625 396.523438 C 416.894531 398.410156 417.492188 400.261719 418.210938 402.019531 C 418.898438 403.789062 419.570312 405.519531 420.222656 407.203125 C 420.84375 408.902344 421.625 410.484375 422.300781 412.058594 C 422.996094 413.621094 423.671875 415.140625 424.328125 416.613281 C 425.773438 419.582031 427.472656 422.972656 428.230469 425.9375 C 429.089844 428.851562 428.976562 431.394531 426.640625 432.691406 C 424.308594 433.984375 422.074219 432.652344 420.011719 430.191406 C 418.050781 427.683594 416.324219 424.054688 414.890625 420.890625 C 414.242188 419.320312 413.574219 417.703125 412.882812 416.039062 C 412.21875 414.363281 411.445312 412.679688 410.835938 410.875 C 410.195312 409.085938 409.539062 407.25 408.867188 405.367188 C 408.160156 403.5 407.582031 401.539062 406.972656 399.542969 C 406.371094 397.542969 405.722656 395.511719 405.132812 393.417969 C 404.597656 391.3125 404.050781 389.164062 403.492188 386.972656 C 403.234375 385.875 402.90625 384.785156 402.691406 383.652344 C 402.464844 382.527344 402.230469 381.394531 401.996094 380.25 C 401.765625 379.105469 401.53125 377.949219 401.296875 376.785156 C 401.179688 376.207031 401.058594 375.621094 400.941406 375.035156 C 400.835938 374.445312 400.753906 373.851562 400.65625 373.257812 C 400.292969 370.875 399.921875 368.457031 399.542969 366.003906 C 399.210938 363.546875 398.996094 361.039062 398.71875 358.507812 C 398.601562 357.242188 398.417969 355.972656 398.359375 354.683594 C 398.285156 353.398438 398.210938 352.101562 398.136719 350.800781 C 398 348.195312 397.800781 345.566406 397.832031 342.898438 C 397.824219 341.566406 397.8125 340.226562 397.804688 338.878906 C 397.8125 337.53125 397.742188 336.179688 397.828125 334.820312 C 397.941406 332.105469 398.054688 329.363281 398.171875 326.597656 C 398.363281 323.835938 398.652344 321.058594 398.898438 318.257812 C 398.964844 317.558594 399.03125 316.859375 399.09375 316.15625 C 399.191406 315.457031 399.289062 314.757812 399.386719 314.054688 C 399.585938 312.652344 399.785156 311.246094 399.984375 309.832031 C 401.714844 298.265625 404.414062 286.929688 408.082031 275.824219 C 409.078125 273.027344 410.074219 270.21875 411.074219 267.402344 C 412.210938 264.640625 413.351562 261.871094 414.496094 259.09375 C 415.042969 257.695312 415.71875 256.351562 416.355469 254.988281 C 417 253.628906 417.644531 252.265625 418.289062 250.90625 C 419.523438 248.152344 421.035156 245.535156 422.445312 242.859375 C 433.996094 221.621094 449.523438 202.328125 467.367188 187.070312 C 476.085938 179.578125 485.375 172.882812 495.234375 166.972656 C 504.472656 161.402344 514.105469 156.632812 524.140625 152.671875 C 524.738281 152.425781 525.332031 152.179688 525.925781 151.933594 C 526.527344 151.714844 527.128906 151.5 527.730469 151.28125 C 528.929688 150.851562 530.125 150.421875 531.308594 149.996094 C 532.496094 149.570312 533.675781 149.148438 534.84375 148.730469 C 536.035156 148.363281 537.214844 148 538.386719 147.636719 C 539.558594 147.277344 540.726562 146.921875 541.882812 146.566406 C 543.039062 146.214844 544.183594 145.84375 545.34375 145.574219 C 547.65625 144.984375 549.929688 144.40625 552.171875 143.835938 C 553.285156 143.53125 554.414062 143.320312 555.527344 143.089844 C 556.640625 142.863281 557.742188 142.636719 558.835938 142.414062 C 559.929688 142.191406 561.015625 141.96875 562.089844 141.75 C 563.160156 141.523438 564.242188 141.398438 565.304688 141.222656 C 567.429688 140.894531 569.515625 140.570312 571.558594 140.257812 C 573.605469 139.976562 575.621094 139.808594 577.585938 139.589844 C 590.097656 138.285156 602.613281 138.199219 615.140625 139.335938 C 617.363281 139.550781 619.34375 139.683594 621.054688 139.90625 C 622.757812 140.148438 624.203125 140.351562 625.375 140.515625 C 627.710938 140.84375 628.941406 141.019531 628.941406 141.019531 Z M 628.941406 141.019531 " fill-opacity="1" fill-rule="nonzero"/><path fill="#ffffff" d="M 670.1875 173.136719 L 667.15625 171.976562 C 666.164062 171.597656 664.941406 171.125 663.492188 170.570312 C 662.765625 170.300781 662 169.96875 661.152344 169.695312 C 660.304688 169.417969 659.40625 169.125 658.453125 168.816406 C 647.78125 165.171875 636.855469 162.625 625.675781 161.179688 C 622.160156 160.808594 618.507812 160.246094 614.664062 160.085938 C 612.75 159.980469 610.800781 159.792969 608.808594 159.738281 C 606.816406 159.703125 604.792969 159.671875 602.734375 159.640625 C 600.675781 159.554688 598.582031 159.710938 596.460938 159.757812 C 594.339844 159.832031 592.183594 159.851562 590.011719 160.082031 C 587.832031 160.269531 585.625 160.421875 583.398438 160.636719 C 581.175781 160.925781 578.929688 161.222656 576.652344 161.519531 C 558.539062 164.253906 539.097656 169.949219 520.785156 179.597656 C 511.480469 184.441406 502.675781 190.070312 494.367188 196.476562 C 485.976562 202.949219 478.234375 210.121094 471.144531 217.996094 C 464.113281 225.769531 457.867188 234.128906 452.402344 243.074219 C 447.121094 251.726562 442.59375 260.757812 438.824219 270.164062 C 435.253906 279.039062 432.460938 288.148438 430.449219 297.496094 C 429.375 301.957031 428.757812 306.40625 428.03125 310.714844 C 427.558594 315.0625 426.96875 319.28125 426.800781 323.414062 C 426.441406 327.53125 426.5 331.539062 426.414062 335.398438 C 426.421875 337.332031 426.535156 339.226562 426.582031 341.085938 C 426.613281 342.011719 426.644531 342.933594 426.675781 343.84375 C 426.6875 344.753906 426.8125 345.652344 426.871094 346.539062 C 427.019531 348.316406 427.164062 350.054688 427.304688 351.753906 C 427.359375 352.605469 427.472656 353.441406 427.585938 354.265625 C 427.699219 355.089844 427.804688 355.90625 427.914062 356.707031 C 428.132812 358.316406 428.316406 359.886719 428.546875 361.402344 C 428.824219 362.914062 429.09375 364.382812 429.355469 365.804688 C 429.484375 366.535156 429.617188 367.292969 429.75 368.058594 C 429.8125 368.445312 429.871094 368.828125 429.933594 369.21875 L 430.144531 370.371094 C 430.425781 371.835938 430.5625 373.3125 430.5625 374.804688 C 430.574219 376.066406 430.3125 377.265625 429.773438 378.40625 C 429.632812 378.660156 429.46875 378.894531 429.277344 379.113281 C 429.089844 379.328125 428.878906 379.527344 428.648438 379.699219 C 428.421875 379.875 428.175781 380.023438 427.914062 380.148438 C 427.65625 380.273438 427.382812 380.371094 427.105469 380.4375 C 426.824219 380.507812 426.539062 380.546875 426.25 380.554688 C 425.960938 380.566406 425.675781 380.546875 425.390625 380.496094 C 425.105469 380.449219 424.832031 380.371094 424.5625 380.265625 C 424.292969 380.160156 424.039062 380.027344 423.796875 379.867188 C 422.847656 379.21875 422.152344 378.136719 421.53125 376.828125 C 420.894531 375.390625 420.390625 373.902344 420.019531 372.375 C 419.917969 371.972656 419.8125 371.570312 419.730469 371.164062 C 419.65625 370.753906 419.585938 370.347656 419.515625 369.941406 C 419.390625 369.125 419.261719 368.320312 419.140625 367.542969 C 418.910156 366.027344 418.671875 364.46875 418.429688 362.859375 C 418.234375 361.242188 418.085938 359.574219 417.902344 357.867188 C 417.8125 357.015625 417.726562 356.152344 417.636719 355.273438 C 417.539062 354.398438 417.445312 353.515625 417.414062 352.613281 C 417.316406 350.8125 417.21875 348.972656 417.117188 347.089844 C 417.078125 346.148438 416.980469 345.199219 416.992188 344.234375 C 416.988281 343.273438 416.980469 342.300781 416.976562 341.320312 C 416.980469 339.355469 416.921875 337.355469 416.972656 335.320312 C 417.175781 331.25 417.242188 327.027344 417.738281 322.703125 C 418.042969 318.363281 418.777344 313.941406 419.410156 309.394531 C 420.292969 304.886719 421.078125 300.242188 422.328125 295.59375 C 424.707031 285.886719 427.886719 276.449219 431.867188 267.28125 C 436.054688 257.601562 441.019531 248.339844 446.757812 239.492188 C 452.667969 230.382812 459.371094 221.902344 466.867188 214.046875 C 474.339844 206.191406 482.449219 199.058594 491.199219 192.65625 C 499.945312 186.253906 509.195312 180.675781 518.941406 175.929688 C 537.933594 166.566406 557.882812 161.304688 576.320312 159.019531 C 578.632812 158.78125 580.917969 158.542969 583.175781 158.304688 C 585.441406 158.148438 587.679688 158.050781 589.886719 157.921875 C 592.089844 157.75 594.273438 157.785156 596.421875 157.765625 C 598.566406 157.777344 600.683594 157.675781 602.761719 157.816406 C 604.839844 157.902344 606.882812 157.988281 608.890625 158.074219 C 610.898438 158.183594 612.863281 158.421875 614.789062 158.582031 C 618.65625 158.847656 622.328125 159.511719 625.851562 159.976562 C 637.039062 161.726562 647.941406 164.566406 658.558594 168.503906 C 659.503906 168.839844 660.398438 169.160156 661.238281 169.457031 C 662.082031 169.75 662.839844 170.109375 663.558594 170.394531 C 664.992188 170.988281 666.207031 171.492188 667.1875 171.898438 Z M 670.1875 173.136719 " fill-opacity="1" fill-rule="nonzero"/><path fill="#ffffff" d="M 738.238281 375.410156 C 738.238281 375.410156 738.457031 374.535156 738.863281 372.875 C 739.066406 372.042969 739.320312 371.019531 739.617188 369.808594 C 739.902344 368.59375 740.140625 367.175781 740.460938 365.589844 C 742.183594 356.675781 743.035156 347.679688 743.007812 338.601562 C 742.992188 337.175781 743.015625 335.71875 742.960938 334.234375 C 742.886719 332.75 742.804688 331.234375 742.722656 329.6875 C 742.671875 328.917969 742.664062 328.132812 742.578125 327.351562 C 742.5 326.566406 742.417969 325.773438 742.339844 324.976562 C 742.160156 323.382812 742.054688 321.75 741.804688 320.109375 C 740.867188 313.132812 739.4375 306.257812 737.519531 299.484375 C 733.125 284.109375 726.351562 269.871094 717.195312 256.761719 C 707.691406 243.074219 695.214844 230.804688 681.152344 221.222656 C 674.183594 216.445312 666.839844 212.328125 659.125 208.871094 C 651.65625 205.546875 643.957031 202.878906 636.035156 200.871094 C 635.066406 200.632812 634.105469 200.398438 633.144531 200.164062 L 631.710938 199.8125 L 630.265625 199.53125 C 628.339844 199.167969 626.433594 198.773438 624.539062 198.449219 C 622.628906 198.179688 620.742188 197.910156 618.867188 197.644531 C 616.996094 197.398438 615.125 197.277344 613.28125 197.089844 C 611.441406 196.882812 609.609375 196.839844 607.800781 196.757812 C 606.898438 196.71875 606 196.679688 605.105469 196.640625 C 604.210938 196.59375 603.324219 196.636719 602.441406 196.628906 C 600.675781 196.648438 598.929688 196.621094 597.214844 196.683594 C 595.5 196.773438 593.808594 196.867188 592.140625 196.957031 C 591.722656 196.980469 591.308594 197.003906 590.894531 197.027344 C 590.484375 197.070312 590.074219 197.113281 589.664062 197.152344 L 587.234375 197.402344 C 585.628906 197.5625 584.046875 197.710938 582.507812 197.972656 C 580.964844 198.203125 579.449219 198.433594 577.964844 198.660156 C 576.488281 198.921875 575.046875 199.234375 573.632812 199.507812 C 570.796875 200.019531 568.140625 200.78125 565.597656 201.394531 C 564.320312 201.6875 563.113281 202.109375 561.921875 202.453125 C 560.734375 202.8125 559.582031 203.160156 558.460938 203.5 C 556.195312 204.273438 553.605469 205.191406 551.40625 205.46875 C 549.234375 205.824219 547.417969 205.515625 546.695312 203.71875 C 545.972656 201.921875 547.132812 200.4375 549.085938 199.175781 C 551.066406 197.992188 553.832031 197.074219 556.234375 196.328125 C 567.839844 192.921875 579.683594 190.9375 591.765625 190.378906 C 593.511719 190.328125 595.285156 190.277344 597.082031 190.226562 C 598.878906 190.210938 600.703125 190.28125 602.546875 190.308594 C 603.46875 190.339844 604.398438 190.320312 605.328125 190.394531 C 606.261719 190.457031 607.199219 190.519531 608.140625 190.585938 C 610.027344 190.71875 611.9375 190.8125 613.851562 191.074219 C 615.769531 191.316406 617.714844 191.492188 619.660156 191.796875 C 621.601562 192.121094 623.5625 192.453125 625.542969 192.785156 C 627.507812 193.171875 629.480469 193.628906 631.472656 194.058594 L 632.96875 194.386719 L 634.453125 194.789062 C 635.441406 195.054688 636.4375 195.324219 637.433594 195.59375 C 645.597656 197.878906 653.503906 200.839844 661.160156 204.476562 C 669.03125 208.234375 676.5 212.664062 683.574219 217.769531 C 697.808594 227.980469 710.285156 240.882812 719.652344 255.085938 C 728.640625 268.632812 735.1875 283.269531 739.285156 299.003906 C 741.058594 305.894531 742.335938 312.878906 743.117188 319.953125 C 743.328125 321.613281 743.398438 323.261719 743.539062 324.875 C 743.601562 325.679688 743.664062 326.480469 743.722656 327.273438 C 743.792969 328.0625 743.785156 328.851562 743.816406 329.632812 C 743.859375 331.191406 743.902344 332.71875 743.945312 334.214844 C 743.964844 335.710938 743.90625 337.175781 743.886719 338.609375 C 743.699219 347.722656 742.632812 356.734375 740.691406 365.640625 C 740.335938 367.21875 740.0625 368.628906 739.75 369.835938 C 739.421875 371.042969 739.148438 372.0625 738.921875 372.890625 C 738.476562 374.539062 738.238281 375.410156 738.238281 375.410156 Z M 738.238281 375.410156 " fill-opacity="1" fill-rule="nonzero"/><path fill="#ffffff" d="M 711.4375 402.183594 C 711.4375 402.183594 711.816406 401.464844 712.542969 400.105469 C 712.90625 399.429688 713.355469 398.589844 713.886719 397.597656 C 714.140625 397.101562 714.453125 396.582031 714.722656 395.996094 C 715 395.410156 715.289062 394.789062 715.601562 394.132812 C 719.179688 386.785156 721.992188 379.160156 724.039062 371.25 C 724.621094 368.753906 725.351562 366.179688 725.8125 363.429688 C 726.0625 362.0625 726.371094 360.675781 726.589844 359.25 C 726.792969 357.820312 726.996094 356.367188 727.207031 354.890625 C 727.453125 353.417969 727.527344 351.898438 727.6875 350.371094 C 727.820312 348.835938 728.003906 347.285156 728.035156 345.703125 C 728.09375 344.121094 728.183594 342.519531 728.230469 340.898438 C 728.21875 339.273438 728.210938 337.628906 728.199219 335.96875 C 727.859375 322.695312 725.515625 308.203125 720.222656 294.167969 C 717.566406 287.003906 714.289062 280.136719 710.402344 273.558594 C 706.511719 266.980469 702.070312 260.800781 697.074219 255.019531 C 687.117188 243.398438 674.976562 234.011719 662.46875 227.089844 C 656.40625 223.726562 650.109375 220.898438 643.566406 218.609375 C 640.457031 217.4375 637.3125 216.59375 634.277344 215.683594 C 631.195312 214.953125 628.214844 214.148438 625.257812 213.65625 C 622.328125 213.027344 619.441406 212.710938 616.671875 212.300781 C 615.285156 212.132812 613.910156 212.042969 612.570312 211.910156 C 611.230469 211.789062 609.914062 211.652344 608.621094 211.628906 C 607.332031 211.574219 606.066406 211.523438 604.832031 211.472656 C 603.597656 211.402344 602.390625 211.472656 601.214844 211.464844 C 600.039062 211.476562 598.894531 211.46875 597.78125 211.5 C 596.671875 211.5625 595.59375 211.625 594.542969 211.683594 C 593.472656 211.761719 592.316406 211.761719 591.191406 211.839844 C 590.113281 211.910156 589.039062 211.875 587.96875 211.742188 C 587.058594 211.636719 586.21875 211.339844 585.445312 210.851562 C 585.105469 210.601562 584.828125 210.292969 584.617188 209.925781 C 584.40625 209.5625 584.273438 209.167969 584.226562 208.75 C 584.175781 208.328125 584.214844 207.917969 584.335938 207.511719 C 584.460938 207.109375 584.660156 206.746094 584.933594 206.421875 C 585.484375 205.796875 586.324219 205.394531 587.320312 205.066406 C 588.414062 204.738281 589.527344 204.507812 590.660156 204.378906 C 591.84375 204.25 593.027344 204.1875 594.210938 204.183594 C 595.324219 204.152344 596.46875 204.121094 597.648438 204.089844 C 598.824219 204.09375 600.039062 204.140625 601.28125 204.160156 C 602.523438 204.207031 603.800781 204.175781 605.105469 204.28125 L 609.105469 204.566406 C 610.46875 204.632812 611.851562 204.8125 613.265625 204.984375 C 614.675781 205.164062 616.121094 205.300781 617.578125 205.519531 C 620.488281 206.03125 623.519531 206.457031 626.582031 207.203125 C 629.675781 207.8125 632.792969 208.738281 636.003906 209.601562 C 639.167969 210.644531 642.433594 211.625 645.664062 212.941406 C 652.429688 215.523438 658.933594 218.660156 665.167969 222.347656 C 678.003906 229.914062 690.332031 240.015625 700.300781 252.300781 C 705.273438 258.378906 709.671875 264.855469 713.492188 271.71875 C 717.308594 278.585938 720.488281 285.738281 723.027344 293.171875 C 728.050781 307.671875 730.039062 322.488281 730.027344 335.953125 C 729.992188 337.636719 729.957031 339.300781 729.921875 340.949219 C 729.832031 342.589844 729.703125 344.210938 729.597656 345.808594 C 729.523438 347.40625 729.300781 348.972656 729.121094 350.519531 C 728.921875 352.0625 728.804688 353.59375 728.515625 355.074219 C 728.265625 356.558594 728.019531 358.023438 727.777344 359.460938 C 727.519531 360.894531 727.171875 362.28125 726.882812 363.65625 C 726.34375 366.410156 725.539062 368.992188 724.886719 371.484375 C 722.621094 379.371094 719.597656 386.957031 715.8125 394.238281 C 715.484375 394.886719 715.175781 395.5 714.886719 396.078125 C 714.601562 396.65625 714.277344 397.171875 714.003906 397.664062 C 713.449219 398.640625 712.976562 399.46875 712.597656 400.136719 C 711.835938 401.476562 711.4375 402.183594 711.4375 402.183594 Z M 711.4375 402.183594 " fill-opacity="1" fill-rule="nonzero"/><path fill="#ffffff" d="M 461.671875 298.492188 C 461.671875 298.492188 461.457031 299.367188 461.046875 301.027344 C 460.84375 301.859375 460.589844 302.886719 460.292969 304.097656 C 460.011719 305.308594 459.769531 306.730469 459.453125 308.3125 C 457.726562 317.226562 456.878906 326.222656 456.90625 335.304688 C 456.921875 336.726562 456.894531 338.183594 456.949219 339.667969 C 457.027344 341.152344 457.105469 342.667969 457.1875 344.214844 C 457.238281 344.988281 457.246094 345.769531 457.332031 346.554688 C 457.414062 347.335938 457.492188 348.128906 457.570312 348.925781 C 457.75 350.523438 457.859375 352.152344 458.105469 353.792969 C 459.042969 360.769531 460.472656 367.648438 462.390625 374.421875 C 466.785156 389.792969 473.558594 404.03125 482.714844 417.140625 C 492.21875 430.828125 504.699219 443.101562 518.757812 452.679688 C 525.730469 457.460938 533.074219 461.574219 540.785156 465.03125 C 548.253906 468.355469 555.953125 471.023438 563.878906 473.035156 C 564.84375 473.269531 565.804688 473.503906 566.765625 473.742188 L 568.199219 474.089844 L 569.648438 474.371094 C 571.574219 474.734375 573.476562 475.128906 575.375 475.453125 C 577.28125 475.726562 579.171875 475.992188 581.042969 476.257812 C 582.917969 476.503906 584.789062 476.628906 586.628906 476.8125 C 588.46875 477.019531 590.300781 477.0625 592.109375 477.144531 C 593.015625 477.183594 593.914062 477.222656 594.804688 477.261719 C 595.699219 477.308594 596.589844 477.269531 597.472656 477.273438 C 599.238281 477.253906 600.980469 477.28125 602.695312 477.21875 C 604.414062 477.128906 606.105469 477.039062 607.769531 476.949219 C 608.1875 476.925781 608.601562 476.898438 609.015625 476.875 C 609.425781 476.832031 609.835938 476.792969 610.246094 476.75 C 611.0625 476.667969 611.871094 476.585938 612.675781 476.503906 C 614.285156 476.339844 615.867188 476.195312 617.40625 475.929688 C 618.945312 475.699219 620.460938 475.46875 621.945312 475.246094 C 623.425781 474.980469 624.863281 474.671875 626.277344 474.394531 C 629.113281 473.886719 631.769531 473.125 634.3125 472.507812 C 635.589844 472.21875 636.800781 471.796875 637.992188 471.453125 C 639.175781 471.09375 640.332031 470.742188 641.449219 470.40625 C 643.714844 469.632812 646.304688 468.710938 648.503906 468.4375 C 650.675781 468.078125 652.496094 468.390625 653.21875 470.183594 C 653.9375 471.980469 652.777344 473.464844 650.824219 474.730469 C 648.84375 475.910156 646.078125 476.828125 643.675781 477.574219 C 632.070312 480.984375 620.226562 482.964844 608.144531 483.527344 C 606.398438 483.574219 604.625 483.625 602.828125 483.675781 C 601.03125 483.695312 599.210938 483.621094 597.363281 483.59375 C 596.441406 483.566406 595.515625 483.582031 594.582031 483.511719 C 593.648438 483.445312 592.710938 483.382812 591.769531 483.320312 C 589.882812 483.183594 587.976562 483.089844 586.058594 482.828125 C 584.140625 482.589844 582.199219 482.410156 580.25 482.105469 C 578.308594 481.78125 576.347656 481.453125 574.367188 481.121094 C 572.402344 480.734375 570.429688 480.273438 568.4375 479.84375 L 566.941406 479.515625 L 565.457031 479.117188 C 564.46875 478.847656 563.472656 478.578125 562.476562 478.308594 C 554.3125 476.023438 546.40625 473.0625 538.75 469.425781 C 530.878906 465.667969 523.410156 461.238281 516.339844 456.136719 C 502.101562 445.921875 489.625 433.023438 480.257812 418.820312 C 471.269531 405.273438 464.726562 390.632812 460.628906 374.902344 C 458.851562 368.007812 457.574219 361.023438 456.792969 353.949219 C 456.582031 352.289062 456.511719 350.640625 456.371094 349.027344 C 456.308594 348.222656 456.246094 347.421875 456.1875 346.632812 C 456.121094 345.839844 456.128906 345.050781 456.09375 344.273438 C 456.050781 342.714844 456.007812 341.1875 455.964844 339.6875 C 455.945312 338.191406 456.007812 336.726562 456.023438 335.292969 C 456.210938 326.179688 457.277344 317.171875 459.21875 308.265625 C 459.574219 306.6875 459.847656 305.273438 460.164062 304.066406 C 460.488281 302.859375 460.765625 301.839844 460.988281 301.011719 C 461.433594 299.363281 461.671875 298.492188 461.671875 298.492188 Z M 461.671875 298.492188 " fill-opacity="1" fill-rule="nonzero"/><path fill="#ffffff" d="M 488.476562 271.722656 C 488.476562 271.722656 488.09375 272.4375 487.367188 273.796875 C 487.003906 274.476562 486.554688 275.316406 486.027344 276.304688 C 485.769531 276.804688 485.457031 277.324219 485.1875 277.910156 C 484.914062 278.492188 484.621094 279.113281 484.3125 279.773438 C 480.730469 287.117188 477.917969 294.746094 475.875 302.652344 C 475.292969 305.148438 474.558594 307.726562 474.097656 310.472656 C 473.847656 311.839844 473.539062 313.226562 473.320312 314.652344 C 473.117188 316.082031 472.914062 317.535156 472.703125 319.011719 C 472.457031 320.484375 472.382812 322.003906 472.226562 323.535156 C 472.089844 325.066406 471.910156 326.617188 471.878906 328.203125 C 471.816406 329.785156 471.726562 331.382812 471.683594 333.007812 C 471.691406 334.628906 471.703125 336.273438 471.710938 337.933594 C 472.050781 351.207031 474.398438 365.699219 479.6875 379.734375 C 482.347656 386.898438 485.621094 393.769531 489.507812 400.34375 C 493.398438 406.921875 497.839844 413.101562 502.835938 418.882812 C 512.796875 430.503906 524.933594 439.894531 537.445312 446.8125 C 543.503906 450.179688 549.804688 453.003906 556.34375 455.292969 C 559.457031 456.464844 562.601562 457.308594 565.632812 458.21875 C 568.714844 458.949219 571.695312 459.753906 574.652344 460.246094 C 577.582031 460.875 580.46875 461.191406 583.238281 461.601562 C 584.625 461.769531 586 461.859375 587.339844 461.992188 C 588.679688 462.117188 589.996094 462.25 591.289062 462.273438 C 592.582031 462.328125 593.84375 462.378906 595.078125 462.429688 C 596.3125 462.5 597.519531 462.429688 598.695312 462.4375 C 599.871094 462.425781 601.015625 462.433594 602.128906 462.40625 C 603.238281 462.339844 604.320312 462.28125 605.367188 462.21875 C 606.4375 462.144531 607.59375 462.140625 608.71875 462.0625 C 609.796875 461.992188 610.871094 462.027344 611.945312 462.164062 C 612.851562 462.265625 613.691406 462.5625 614.464844 463.054688 C 614.804688 463.304688 615.082031 463.609375 615.292969 463.976562 C 615.507812 464.34375 615.636719 464.734375 615.683594 465.15625 C 615.734375 465.574219 615.695312 465.988281 615.574219 466.390625 C 615.449219 466.796875 615.253906 467.160156 614.976562 467.480469 C 614.425781 468.105469 613.585938 468.507812 612.589844 468.839844 C 611.496094 469.167969 610.382812 469.394531 609.25 469.523438 C 608.070312 469.652344 606.886719 469.71875 605.699219 469.722656 C 604.585938 469.75 603.441406 469.78125 602.265625 469.8125 C 601.085938 469.808594 599.871094 469.765625 598.628906 469.742188 C 597.386719 469.699219 596.109375 469.726562 594.804688 469.621094 L 590.808594 469.339844 C 589.441406 469.273438 588.058594 469.09375 586.644531 468.921875 C 585.234375 468.742188 583.789062 468.605469 582.332031 468.382812 C 579.421875 467.871094 576.394531 467.445312 573.328125 466.699219 C 570.234375 466.089844 567.121094 465.164062 563.90625 464.300781 C 560.746094 463.257812 557.476562 462.277344 554.246094 460.960938 C 547.480469 458.378906 540.980469 455.246094 534.746094 451.558594 C 521.90625 443.988281 509.578125 433.886719 499.613281 421.601562 C 494.636719 415.523438 490.238281 409.050781 486.421875 402.183594 C 482.601562 395.316406 479.421875 388.164062 476.882812 380.730469 C 471.859375 366.230469 469.871094 351.414062 469.882812 337.953125 C 469.917969 336.265625 469.953125 334.601562 469.988281 332.957031 C 470.078125 331.3125 470.210938 329.695312 470.3125 328.097656 C 470.386719 326.496094 470.609375 324.929688 470.789062 323.382812 C 470.988281 321.839844 471.105469 320.3125 471.394531 318.828125 C 471.644531 317.34375 471.890625 315.882812 472.132812 314.445312 C 472.390625 313.011719 472.742188 311.621094 473.027344 310.246094 C 473.566406 307.492188 474.375 304.910156 475.023438 302.417969 C 477.289062 294.53125 480.3125 286.949219 484.097656 279.667969 C 484.425781 279.015625 484.734375 278.402344 485.023438 277.824219 C 485.3125 277.246094 485.636719 276.734375 485.90625 276.242188 C 486.460938 275.265625 486.933594 274.4375 487.3125 273.765625 C 488.074219 272.425781 488.476562 271.722656 488.476562 271.722656 Z M 488.476562 271.722656 " fill-opacity="1" fill-rule="nonzero"/><g clip-path="url(#d7484dfd23)"><path fill="#ffffff" d="M 684.175781 356.421875 C 680.398438 348.882812 675.15625 342.394531 668.4375 336.96875 C 661.722656 331.546875 653.742188 326.84375 644.492188 322.863281 C 635.242188 318.886719 625.140625 315.089844 614.1875 311.46875 C 608.5 309.609375 603.511719 307.878906 599.230469 306.277344 C 594.941406 304.675781 591.34375 302.972656 588.457031 301.160156 C 585.558594 299.355469 583.386719 297.390625 581.945312 295.269531 C 580.492188 293.15625 579.773438 290.648438 579.773438 287.753906 C 579.773438 284.863281 580.445312 282.40625 581.789062 280.390625 C 583.132812 278.375 584.9375 276.75 587.214844 275.507812 C 589.484375 274.265625 592.125 273.363281 595.117188 272.796875 C 598.117188 272.230469 601.320312 271.941406 604.726562 271.941406 C 608.039062 271.941406 611.289062 272.433594 614.496094 273.414062 C 617.695312 274.394531 620.746094 275.636719 623.640625 277.136719 C 626.539062 278.636719 629.246094 280.308594 631.78125 282.167969 C 634.3125 284.03125 636.609375 285.839844 638.679688 287.597656 L 640.074219 288.839844 C 641.519531 290.078125 642.835938 291.113281 644.023438 291.9375 C 645.214844 292.765625 646.53125 293.179688 647.980469 293.179688 C 649.734375 293.179688 651.488281 292.300781 653.25 290.542969 L 676.96875 265.273438 C 678.304688 263.832031 679.316406 262.539062 679.992188 261.402344 C 680.660156 260.265625 680.996094 259.027344 680.996094 257.679688 C 680.996094 256.339844 680.300781 254.734375 678.902344 252.875 C 677.507812 251.015625 675.621094 249.054688 673.246094 246.984375 C 670.867188 244.917969 668.105469 242.777344 664.953125 240.550781 C 661.800781 238.332031 658.46875 236.183594 654.949219 234.117188 C 649.476562 231.125 643.972656 228.667969 638.449219 226.757812 C 632.917969 224.84375 627.261719 223.371094 621.46875 222.335938 L 621.46875 201.570312 C 621.46875 199.5 620.617188 197.84375 618.914062 196.605469 C 617.210938 195.363281 615.582031 194.746094 614.03125 194.746094 L 584.890625 194.746094 C 582.613281 194.746094 580.914062 195.421875 579.773438 196.761719 C 578.636719 198.105469 578.070312 199.703125 578.070312 201.570312 L 578.070312 223.109375 C 569.078125 224.871094 560.988281 227.582031 553.8125 231.25 C 546.625 234.917969 540.554688 239.386719 535.597656 244.660156 C 530.632812 249.929688 526.808594 255.925781 524.125 262.640625 C 521.4375 269.359375 520.089844 276.695312 520.089844 284.652344 C 520.089844 293.746094 521.640625 301.988281 524.746094 309.375 C 527.84375 316.765625 532.496094 323.539062 538.695312 329.683594 C 544.894531 335.832031 552.648438 341.414062 561.945312 346.425781 C 571.246094 351.441406 582.097656 356.113281 594.5 360.453125 C 597.289062 361.386719 600.597656 362.550781 604.417969 363.941406 C 608.246094 365.339844 611.914062 367.019531 615.429688 368.976562 C 618.9375 370.945312 621.90625 373.195312 624.339844 375.722656 C 626.769531 378.257812 627.984375 381.125 627.984375 384.324219 C 627.984375 387.222656 627.539062 389.960938 626.664062 392.542969 C 625.785156 395.125 624.3125 397.398438 622.25 399.363281 C 620.179688 401.328125 617.363281 402.90625 613.800781 404.089844 C 610.234375 405.28125 605.816406 405.875 600.542969 405.875 C 594.859375 405.875 589.433594 404.894531 584.269531 402.929688 C 579.101562 400.964844 573.886719 398.226562 568.609375 394.714844 C 565.09375 392.339844 561.96875 389.933594 559.230469 387.507812 C 556.492188 385.078125 554.25 383.140625 552.492188 381.691406 C 551.042969 380.453125 549.800781 379.519531 548.765625 378.898438 C 547.734375 378.28125 546.753906 377.96875 545.824219 377.96875 C 544.480469 377.96875 542.726562 378.746094 540.554688 380.296875 L 513.738281 405.875 C 511.363281 408.042969 510.175781 410.007812 510.175781 411.761719 C 510.175781 413.3125 511.363281 415.382812 513.738281 417.964844 C 513.835938 418.066406 513.941406 418.144531 514.050781 418.199219 C 514.148438 418.25 514.25 418.378906 514.359375 418.585938 C 514.457031 418.6875 514.558594 418.761719 514.671875 418.820312 C 514.765625 418.871094 514.871094 419 514.972656 419.203125 L 515.445312 419.671875 C 517.09375 421.429688 519.34375 423.753906 522.183594 426.644531 C 525.023438 429.539062 528.515625 432.484375 532.648438 435.480469 C 539.472656 440.4375 546.699219 444.730469 554.351562 448.347656 C 562 451.96875 569.902344 454.648438 578.070312 456.410156 L 578.070312 479.039062 C 578.070312 483.585938 580.339844 485.859375 584.890625 485.859375 L 614.03125 485.859375 C 618.996094 485.859375 621.46875 483.585938 621.46875 479.039062 L 621.46875 456.871094 C 631.390625 455.117188 640.511719 452.144531 648.832031 447.960938 C 657.148438 443.777344 664.355469 438.53125 670.457031 432.226562 C 676.554688 425.917969 681.304688 418.714844 684.714844 410.601562 C 688.125 402.492188 689.832031 393.578125 689.832031 383.863281 C 689.832031 373.117188 687.949219 363.96875 684.175781 356.421875 " fill-opacity="1" fill-rule="nonzero"/></g></svg>
