<svg width="48" height="48" viewBox="0 0 48 48" fill="none" xmlns="http://www.w3.org/2000/svg">
<g clip-path="url(#clip0_6261_10790)">
<path d="M3.68783 10.136H0V37.8962H3.68783V10.136Z" fill="white"/>
<path d="M17.4169 27.7694H15.518C11.5956 27.7694 8.40503 24.579 8.40503 20.6566V10.1273H19.3178C23.2403 10.1273 26.4308 13.3177 26.4308 17.2401V19.9936H22.7431V17.2401C22.7431 15.3521 21.2059 13.815 19.3178 13.815H12.0929V20.6566C12.0929 22.5446 13.63 24.0817 15.518 24.0817H17.4169V27.7694ZM26.799 30.7596V27.4465C26.799 23.5241 23.6085 20.3337 19.686 20.3337H17.4169V24.0214H19.686C21.574 24.0214 23.1112 25.5585 23.1112 27.4465V30.7596C23.1112 32.6476 21.574 34.1847 19.686 34.1847H12.0929V28.0105H8.40503V37.8724H19.686C23.6085 37.8724 26.799 34.682 26.799 30.7596Z" fill="white"/>
<path d="M39.3584 38.3999H38.7448C33.9806 38.3999 30.1033 34.5227 30.1033 29.7586V18.239C30.1033 13.4749 33.9806 9.59772 38.7448 9.59772H39.3584C44.1227 9.59772 48 13.4749 48 18.239H44.3121C44.3121 15.5093 42.0904 13.2876 39.3606 13.2876H38.747C36.0172 13.2876 33.7954 15.5093 33.7954 18.239V29.7586C33.7954 32.4883 36.0172 34.71 38.747 34.71H39.3606C42.0904 34.71 44.3121 32.4883 44.3121 29.7586H48C48 34.5227 44.1227 38.3999 39.3584 38.3999Z" fill="white"/>
</g>
<defs>
<clipPath id="clip0_6261_10790">
<rect width="48" height="28.8" fill="white" transform="translate(0 9.59991)"/>
</clipPath>
</defs>
</svg>
