<svg width="383" height="382" viewBox="0 0 383 382" fill="none" xmlns="http://www.w3.org/2000/svg">
<g clip-path="url(#clip0_482_31237)">
<path d="M266.612 38.2076L215.567 87.8074V0H166.756V87.8074L115.704 38.2076L81.6812 73.169L191.161 179.547L300.642 73.169L266.612 38.2076Z" fill="#BFBFBF"/>
<path d="M300.642 308.831L191.161 202.453L81.6812 308.831L115.704 343.792L166.756 294.193V382H215.567V294.193L266.612 343.792L300.642 308.831Z" fill="#BFBFBF"/>
<path d="M73.2309 81.6122L38.2399 115.613L87.8816 166.615H0V215.385H87.8816L38.2399 266.386L73.2309 300.388L179.699 191L73.2309 81.6122Z" fill="white"/>
<path d="M382.323 166.615H294.441L344.083 115.613L309.092 81.6122L202.624 191L309.092 300.388L344.083 266.386L294.441 215.385H382.323V166.615Z" fill="white"/>
</g>
<defs>
<clipPath id="clip0_482_31237">
<rect width="383" height="382" fill="white"/>
</clipPath>
</defs>
</svg>
