<svg
  width="279"
  height="506"
  viewBox="0 0 279 506"
  fill="none"
  xmlns="http://www.w3.org/2000/svg"
>
  <path
    d="M156.687 212.012L156.122 215.029L159.191 214.972C177.011 214.641 198.049 214.31 219.093 213.979L219.111 213.979H219.112C238.294 213.677 257.48 213.375 274.23 213.074C241.791 260.996 209.362 308.919 176.933 356.842C145.855 402.767 114.778 448.693 83.692 494.618C88.977 466.532 94.262 438.452 99.547 410.373L99.658 409.783C105.649 377.953 111.64 346.123 117.631 314.283L118.188 311.32H115.174H4.54502C36.897 260.291 69.2489 209.27 101.601 158.249L101.739 158.032C132.535 109.465 163.331 60.8977 194.127 12.3226C188.301 43.4115 182.469 74.5071 176.637 105.603L176.605 105.775L176.595 105.826C169.956 141.225 163.317 176.623 156.687 212.012Z"
    fill="#FFCC00"
    stroke="black"
    stroke-width="5"
  />
</svg>
