<svg width="64" height="64" viewBox="0 0 64 64" fill="none" xmlns="http://www.w3.org/2000/svg">
<path d="M62.6666 13.9445C58.3999 15.3045 54.2133 16.9045 50.1334 18.7622C26.8892 29.2598 11.3426 45.1796 15.4048 54.2994C16.2315 56.0238 17.6004 57.4105 19.307 58.2549C24.8358 61.0549 31.1202 61.9793 37.2179 60.886C43.3157 59.7927 48.8978 56.7438 53.1289 52.1928C57.36 47.6418 60.0266 41.8285 60.711 35.6331C61.3955 29.4376 60.0799 23.1799 56.9422 17.7933L62.6577 13.9445H62.6666Z" fill="url(#paint0_linear_8265_8068)"/>
<path d="M55.0582 14.736C50.836 8.82495 44.5161 4.72724 37.3695 3.2606C30.2229 1.79395 22.783 3.06505 16.543 6.83387C10.3031 10.5938 5.73426 16.5582 3.75206 23.5358C1.76985 30.5135 2.5254 37.9712 5.8587 44.4155C11.3075 36.5223 23.3874 27.4824 38.7384 20.647C44.0183 18.2826 49.476 16.3093 55.0582 14.7449V14.736Z" fill="url(#paint1_linear_8265_8068)"/>
<defs>
<linearGradient id="paint0_linear_8265_8068" x1="22.3203" y1="43.8818" x2="95.7773" y2="26.7352" gradientUnits="userSpaceOnUse">
<stop stop-color="#2810B3"/>
<stop offset="1" stop-color="#8A76FF"/>
</linearGradient>
<linearGradient id="paint1_linear_8265_8068" x1="40.8983" y1="7.5272" x2="-21.003" y2="47.0469" gradientUnits="userSpaceOnUse">
<stop stop-color="#6000FF"/>
<stop offset="1" stop-color="#7472C9"/>
</linearGradient>
</defs>
</svg>
