<svg viewBox="0 0 131 40" fill="none" xmlns="http://www.w3.org/2000/svg">
  <path
    d="M10.959 13.96c.532.094 1.307 1.874 1.452 3.372.048.328 0 1.03 0 1.546-.048.796-.145 1.03-.436 1.405-.629.89-1.79 1.452-3.291 1.546-.436.047-1.162.094-1.549.094-.63-.047-.678-.047-.58-.281.048-.094.193-.422.29-.703.629-1.873 2.033-4.871 2.759-5.808.484-.703 1.064-1.218 1.355-1.17Zm-.484-4.075c-.242 0-.533.047-.968.188-.63.187-1.21.515-1.743.936-.774.562-.87.61-.92.375-.048-.375-.677-.89-1.258-.937-.58-.093-1.307.188-1.597.61-.145.186-.532.795-.92 1.404-.677 1.124-.92 1.92-.677 2.39.145.28.097.608-.34 2.622C1.279 21.126.02 28.667.02 30.119c-.048 3.279 0 6.37.048 6.98.146.936.484 1.592 1.114 2.013.629.422.968.515 1.645.328.678-.14 1.017-.374 1.404-.89.436-.609.532-1.264.532-4.121-.048-3.467.436-8.947.726-9.275.097-.046.726-.093 1.452 0 2.711.235 4.938-.234 6.631-1.451 1.84-1.312 2.614-2.81 2.76-5.34.145-3.326-.969-6.276-2.953-7.775-.63-.422-.823-.469-1.79-.61-.485-.093-.824-.14-1.114-.093ZM25.456 9.23c-.87 0-1.161.421-1.936 2.81-1.694 5.433-2.226 8.103-2.371 11.756-.097 2.483.096 3.045 1.113 3.56.339.14.629.234.677.234.34 0 1.017-.28 1.259-.515.387-.468 1.645-5.2 2.323-8.618.484-2.67.968-7.4.775-7.916-.34-.89-.92-1.312-1.84-1.312ZM27.683.47c-.871-.046-1.646.47-2.081 1.453-.485 1.124-.097 2.388.87 2.95 1.21.656 2.518.047 3.002-1.451.387-1.171 0-2.296-.92-2.717-.29-.14-.58-.234-.871-.234ZM44.836 11.43a.425.425 0 0 0-.339 0c-1.79.095-4.21 1.453-6.437 3.467-1.21 1.124-1.985 2.155-2.662 3.56-1.065 2.201-1.259 4.262-.484 5.62.774 1.358 2.42 2.483 4.21 2.81.388.094.823.188.968.235.146 0 1.065.047 2.082 0 1.694-.047 1.84-.047 3.436-.562 2.227-.75 3.437-1.312 3.727-1.78a1.6 1.6 0 0 0-.87-2.342c-.437-.14-.679-.094-2.615.375-2.08.515-2.226.562-3.678.468-1.694-.094-2.275-.187-2.953-.656-.387-.234-.435-.328-.435-.843 0-.702.58-2.108 1.21-3.091.58-.796 1.887-2.108 2.952-2.904l.726-.562.194.328c.339.515.774.75 1.355.75 1.065.046 1.743-.89 1.791-2.483.048-.844.048-1.03-.242-1.405a2.322 2.322 0 0 0-1.936-.984ZM63.137 15.225h.194l.387.047-1.065 1.358a307.6 307.6 0 0 0-2.178 3.044c-.678.89-1.21 1.64-1.21 1.64-.048.047-.048-.281 0-.703.097-1.546.58-2.53 2.13-4.168.822-.844 1.258-1.171 1.742-1.218Zm.484-3.466c-1.355.047-2.662.609-4.114 1.78-1.694 1.405-3.05 2.95-3.824 4.543-.29.656-.435 1.218-.871 3.56-.484 2.716-.484 2.763-.242 3.512.339 1.125.823 1.687 1.84 2.015.193.046.725.093 1.258.046.774 0 1.113-.093 1.645-.374 1.21-.61 2.904-2.39 4.598-4.872l1.017-1.452-.049 1.218c-.048 1.968 0 3.513.146 4.028.193.469.774.843 1.307.843.484 0 1.21-.421 1.549-.89.29-.374.338-.608.532-2.435.097-1.077.339-2.95.484-4.122.194-1.124.339-2.576.339-3.138 0-.562.048-1.218.145-1.452.194-.703-.145-1.546-.823-1.92-.436-.234-.678-.281-1.307-.188-.629.047-.92 0-1.549-.28-.532-.188-1.016-.329-1.549-.375-.193-.047-.387-.047-.532-.047ZM81.102 11.01c-.678 0-1.356.093-1.694.233-.823.422-2.517 1.92-2.904 2.623-.533.797-.581 1.874-.146 2.623.436.843 1.84 2.202 3.97 3.747 2.855 2.061 3 2.483 1.548 3.466-.29.235-.678.422-.871.422-.484 0-1.743-.609-3.098-1.452-.58-.422-1.21-.796-1.403-.843-1.065-.562-2.469.515-2.227 1.686.097.562.63 1.124 2.227 2.248 1.306.984 2.855 1.78 3.727 1.92.774.141.726.141 1.694 0 .484-.046 1.21-.327 1.645-.514.92-.516 2.275-1.733 2.808-2.577.822-1.358.532-3.512-.678-5.105-.436-.609-1.065-1.077-2.807-2.295-1.259-.843-2.372-1.686-2.469-1.78-.194-.234-.194-.28.145-.609.194-.187.533-.375.726-.421.34-.047.34-.047.34.28 0 1.687 2.613 2.015 3.242.422.29-.609.29-1.873.048-2.435-.242-.61-1.016-1.218-1.839-1.452-.484-.14-1.258-.234-1.984-.188ZM98.496 11.01c-.677 0-1.355.093-1.694.233-.823.422-2.517 1.92-2.904 2.623-.532.797-.58 1.874-.145 2.623.435.843 1.839 2.202 3.969 3.747 2.855 2.061 3.001 2.483 1.549 3.466-.29.235-.678.422-.872.422-.484 0-1.742-.609-3.097-1.452-.581-.422-1.21-.796-1.404-.843-1.065-.562-2.469.515-2.227 1.686.097.562.63 1.124 2.227 2.248 1.307.984 2.856 1.78 3.727 1.92.774.141.726.141 1.694 0 .484-.046 1.21-.327 1.646-.514.919-.516 2.274-1.733 2.807-2.577.823-1.358.532-3.512-.678-5.105-.435-.609-1.065-1.077-2.807-2.295-1.259-.843-2.372-1.686-2.469-1.78-.193-.234-.193-.28.146-.609.193-.187.532-.375.726-.421.338-.047.338-.047.338.28 0 1.687 2.614 2.015 3.243.422.291-.609.291-1.873.049-2.435-.242-.61-1.017-1.218-1.839-1.452-.484-.14-1.259-.234-1.985-.188ZM114.632 16.724c.097-.047.145 0 .194.093.096.281.726.515 1.694.703 1.694.234 2.226.89 1.742 2.108-.29.562-1.452 1.639-2.275 2.06-.726.375-2.033.516-2.565.328-.484-.234-.629-1.03-.436-2.716.194-2.061.291-2.202 1.065-2.483.291-.047.484-.093.581-.093Zm-1.597-3.56c-.533 0-1.017.28-1.549.796-1.21 1.218-1.936 2.857-2.275 5.246-.387 2.576-.097 4.122 1.113 5.386.726.797 1.791 1.312 2.953 1.5.823.14 1.839.046 2.952-.188 2.469-.609 5.082-2.904 5.808-5.152 1.114-3.56-1.452-6.604-5.421-6.464-.629.047-1.258.094-1.403.187-.145.047-.242.047-.242-.093 0-.328-.775-.984-1.355-1.124a2.51 2.51 0 0 0-.581-.094Z"
    fill="#fff"
  ></path>
  <path
    d="M129.01 23.983c-.388 0-.775.047-1.114.235-.435.28-.774.936-.774 1.545 0 .516.484 1.171 1.016 1.452 1.501.75 3.098-.936 2.324-2.341-.242-.516-.872-.844-1.452-.89Z"
    fill="#F2994A"
  ></path>
</svg>
