<?xml version="1.0" encoding="utf-8"?>
<!-- Generator: Adobe Illustrator 26.3.1, SVG Export Plug-In . SVG Version: 6.00 Build 0)  -->
<svg version="1.1" id="Layer_1" xmlns="http://www.w3.org/2000/svg" xmlns:xlink="http://www.w3.org/1999/xlink" x="0px" y="0px"
	 viewBox="0 0 16 16" style="enable-background:new 0 0 16 16;" xml:space="preserve">
<style type="text/css">
	.st0{display:none;}
	.st1{fill:#FFFFFF;}
</style>
<path class="st0" d="M12.7,16H3.3C1.5,16,0,14.5,0,12.7V3.3C0,1.5,1.5,0,3.3,0h9.4C14.5,0,16,1.5,16,3.3v9.4
	C16,14.5,14.5,16,12.7,16z"/>
<g>
	<path d="M15,8.1c-0.2-0.2-0.5-0.5-0.8-0.7l-0.1-0.5c-0.3-1.4-1-2.7-2.1-3.7c-1.1-1-2.5-1.5-4-1.5c-1.6,0-3.2,0.6-4.3,1.8
		c-0.3,0-0.8-0.1-1-0.1c-1.7,0-2.3,0.9-2.5,1.4c-0.4,0.9,0,2,0.9,3c0.2,0.2,0.5,0.5,0.8,0.7l0.1,0.5c0.3,1.4,1,2.7,2.1,3.7
		c1.1,1,2.5,1.5,4,1.5c1.6,0,3.1-0.6,4.3-1.7c0.3,0,0.7,0,1,0h0.1c1.7,0,2.3-0.9,2.5-1.4C16.2,10.2,15.9,9.2,15,8.1z"/>
	<g>
		<path class="st1" d="M8,3c2.2,0,4.1,1.5,4.8,3.5C13,6.7,13.2,6.9,13.5,7C13,4.4,10.7,2.5,8,2.5c-2.6,0-4.7,1.8-5.4,4.1
			C2.8,6.7,3,6.8,3.1,7C3.6,4.7,5.6,3,8,3z"/>
		<path class="st1" d="M12.9,9C12.4,11.3,10.4,13,8,13c-2.2,0-4.1-1.5-4.8-3.5C3,9.3,2.8,9.1,2.5,9C3,11.6,5.3,13.5,8,13.5
			c2.6,0,4.7-1.8,5.4-4.1C13.2,9.3,13,9.2,12.9,9z"/>
		<path class="st1" d="M13.3,11.9c1,0,1.6-0.3,1.9-1c0.3-0.8-0.2-1.7-0.8-2.3c-0.7-0.8-1.7-1.5-2.9-2.1c-1.9-1-3.8-1.2-4.7-0.7
			C6.8,5.9,6.7,6,6.6,6.1c0,0.1,0,0.3,0,0.4c0.1,0.1,0.2,0.2,0.3,0.3c0.1,0,0.2,0,0.4,0c0.6-0.3,2.1-0.2,3.9,0.7
			c0.1,0.1,0.3,0.1,0.4,0.2c0.9,0.5,1.7,1,2.3,1.6c0.9,0.9,1,1.5,0.8,1.9c-0.2,0.4-0.7,0.7-1.7,0.7c-0.2,0-0.4,0-0.6,0
			C12.8,11.8,13.1,11.9,13.3,11.9C13.3,11.9,13.3,11.9,13.3,11.9z"/>
		<path class="st1" d="M2.7,4.1c-1,0-1.6,0.3-1.9,1C0.5,5.9,1,6.8,1.5,7.4c0.7,0.8,1.7,1.5,2.9,2.1c1.9,1,3.8,1.2,4.7,0.7
			c0.1-0.1,0.2-0.2,0.2-0.3c0-0.1,0-0.3,0-0.4C9.3,9.3,9.2,9.2,9.1,9.2c-0.1,0-0.2,0-0.4,0C8.1,9.6,6.6,9.4,4.8,8.5
			C4.6,8.5,4.5,8.4,4.3,8.3c-0.9-0.5-1.7-1-2.3-1.6c-0.9-0.9-1-1.5-0.8-1.9C1.4,4.4,2,4.2,3,4.2c0.2,0,0.4,0,0.6,0
			C3.2,4.2,2.9,4.1,2.7,4.1C2.7,4.1,2.7,4.1,2.7,4.1z"/>
	</g>
</g>
</svg>
