<svg
  width="26"
  height="26"
  viewBox="0 0 26 26"
  fill="none"
  xmlns="http://www.w3.org/2000/svg"
>
  <g clip-path="url(#clip0_16_375)">
    <path
      d="M25.8554 11.1325L25.8528 11.1165L25.7811 11.119C25.7811 11.119 25.7795 11.14 25.779 11.142L25.7551 11.143C25.7239 11.531 25.6578 11.8995 25.559 12.238C25.3167 13.0715 24.9106 13.9135 24.4161 14.609C23.869 15.379 23.232 15.9495 22.5737 16.259C22.1629 16.4525 21.7558 16.5945 21.3637 16.681C21.0595 16.747 20.7594 16.78 20.4729 16.78C19.4797 16.78 18.5697 16.378 17.8407 15.618C16.7138 14.4425 16.0612 12.422 16.2167 10.5895C16.2708 9.9485 16.3774 9.352 16.4804 8.7755C16.6993 7.5515 16.888 6.4945 16.535 5.3895C16.3457 4.7975 15.9458 4.3385 15.4081 4.0965C15.042 3.9315 14.6598 3.848 14.2714 3.848C13.0229 3.848 11.9928 4.6935 11.4904 5.4175C10.7234 6.523 10.3412 7.915 10.4426 9.236C10.5373 10.4725 10.9829 11.2875 11.6516 12.391C11.987 12.944 12.3365 13.4325 12.6454 13.864C13.1674 14.594 13.6183 15.2245 13.8408 15.916C14.1492 16.8745 13.935 17.3355 13.8284 17.4895C13.6968 17.6795 13.4857 17.789 13.2002 17.815C13.1638 17.8185 13.1279 17.82 13.0931 17.82C12.2216 17.82 12.2049 16.676 12.195 15.992V15.9765C12.1945 15.9315 12.1935 15.8885 12.193 15.8475C12.1633 14.508 11.6282 13.7075 10.9502 12.6935C10.5248 12.0575 10.0428 11.337 9.61948 10.3555C8.94244 8.7875 8.7724 7.275 9.11456 5.8605C9.12652 5.81 9.13952 5.7595 9.15304 5.7085C9.56852 4.134 10.5955 2.1175 13.1269 1.453C13.6063 1.327 14.0988 1.263 14.5902 1.263C16.0784 1.263 17.3748 1.852 18.1464 2.8785C18.771 3.709 19.0928 4.6505 19.1313 5.7565C19.1407 6.0195 19.1334 6.295 19.11 6.5755C19.0554 7.208 18.916 7.9015 18.6846 8.695C18.2166 10.299 18.1033 11.658 18.3482 12.7335C18.5359 13.5585 18.9462 14.187 19.4735 14.4575C19.9009 14.6765 20.3564 14.7875 20.827 14.7875C22.0293 14.7875 23.1244 14.05 23.6766 13.3195C24.545 12.1705 25.0026 10.1445 24.9278 8.926C24.9002 8.479 24.8607 8.1005 24.8061 7.7655L24.8045 7.7605L24.8035 7.758C23.776 5.6215 22.1463 3.8105 20.0907 2.521C17.9821 1.1995 15.5298 0.5 13 0.5C9.52744 0.5 6.26288 1.8 3.80744 4.161C1.35252 6.522 0 9.661 0 13C0 13.9705 0.11648 14.9385 0.34684 15.878L0.351 15.8945L0.42328 15.8845C0.42328 15.8845 0.42224 15.864 0.42172 15.8625L0.44564 15.859C0.40092 15.115 0.47112 14.3985 0.64896 13.787C0.89128 12.954 1.2974 12.1115 1.79192 11.416C2.33896 10.6465 2.97596 10.0755 3.63428 9.766C4.04196 9.574 4.44704 9.4325 4.83756 9.3455C5.14436 9.2785 5.447 9.245 5.73612 9.245C6.72932 9.245 7.63984 9.6465 8.36836 10.4065C9.4952 11.5815 10.1478 13.6025 9.99232 15.4355C9.93824 16.077 9.83164 16.673 9.72816 17.2495C9.50924 18.4735 9.32048 19.5305 9.67356 20.6355C9.86232 21.2275 10.2627 21.6865 10.8004 21.9285C11.1665 22.0935 11.5487 22.177 11.9371 22.177C13.1856 22.177 14.2158 21.3315 14.7181 20.607C15.4851 19.5015 15.8673 18.1095 15.7659 16.7885C15.6712 15.5525 15.2256 14.737 14.5569 13.6335C14.2225 13.082 13.8726 12.5925 13.5637 12.1605C13.0416 11.4305 12.5908 10.8 12.3682 10.108C12.0598 9.1495 12.2741 8.6885 12.3802 8.535C12.5117 8.345 12.7228 8.2355 13.0083 8.2095C13.0447 8.206 13.0811 8.2045 13.1154 8.2045C13.987 8.2045 14.0036 9.3475 14.0135 10.03L14.014 10.0495C14.0145 10.094 14.0156 10.136 14.0161 10.1765C14.0457 11.516 14.5808 12.3165 15.2589 13.3305C15.6842 13.9665 16.1663 14.6875 16.5896 15.6685C17.2453 17.1865 17.4252 18.654 17.1252 20.03C17.1168 20.068 17.108 20.106 17.0992 20.144C16.7019 21.787 15.6822 23.889 13.0816 24.572C12.6022 24.698 12.1098 24.7615 11.6184 24.762C10.1301 24.762 8.83376 24.173 8.06208 23.1465C7.43756 22.316 7.11568 21.3745 7.0772 20.2685C7.07148 20.108 7.072 19.942 7.07824 19.776C7.1084 19.056 7.25452 18.256 7.5244 17.33C7.9924 15.726 8.10576 14.367 7.86084 13.2915C7.67312 12.466 7.26284 11.838 6.73556 11.5675C6.30812 11.3485 5.85312 11.2375 5.382 11.2375C4.18028 11.2375 3.08464 11.975 2.5324 12.7055C1.664 13.8545 1.2064 15.8805 1.28128 17.099C1.32756 17.856 1.40764 18.4125 1.5418 18.906L1.54336 18.91L1.5444 18.912C3.81576 22.975 8.20612 25.5 13 25.5C16.4726 25.5 19.7371 24.2 22.1926 21.839C24.648 19.478 26 16.339 26 13C26 12.376 25.9516 11.7475 25.8554 11.1325Z"
      fill="#e5f936"
    />
  </g>
  <defs>
    <clipPath id="clip0_16_375">
      <rect width="26" height="25" fill="white" transform="translate(0 0.5)" />
    </clipPath>
  </defs>
</svg>
