<?xml version="1.0" encoding="UTF-8"?>
<svg id="Layer_1" data-name="Layer 1" xmlns="http://www.w3.org/2000/svg" xmlns:xlink="http://www.w3.org/1999/xlink" viewBox="0 0 277.73 277.73">
  <a xlink:href="1.4210854715202e-14">
    <circle id="fullLogo" cx="138.865" cy="138.865" r="138.865" style="fill: #fff; stroke-width: 0px;"/>
  </a>
  <a xlink:href="100">
    <path id="fullLogo-2" data-name="fullLogo" d="m209.107,185.794c-7.319,12.735-20.859,20.566-35.532,20.566h-23.731v-80.03l-34.252,59.483c-7.318,12.734-20.858,20.565-35.5319,20.565h-23.5662v-118.1051h47.4071v79.8281l45.943-79.7915v-.0366h47.388v80.1581l49.786-86.5071c2.012-3.513,1.976-7.8676-.202-11.2891-22.962-36.264-63.672-60.1778-109.926-59.4826C66.3558,12.25,10.7887,69.0247,11.1546,139.559c.366,70.222,57.4151,127.034,127.7114,127.034s127.711-57.178,127.711-127.711c0-11.363-1.501-22.377-4.3-32.88-.842-3.183-5.087-3.769-6.733-.933l-46.456,80.707.019.018Z" style="stroke-width: 0px;"/>
  </a>
</svg>