<svg width="32" height="20" viewBox="0 0 32 20" fill="none" xmlns="http://www.w3.org/2000/svg">
<rect width="32" height="20" rx="6" fill="#020617"/>
<g clip-path="url(#clip0_204_63582)">
<path d="M21.65 7.4317C21.5716 7.4902 20.1878 8.2403 20.1878 9.9082C20.1878 11.8374 21.9486 12.5199 22.0014 12.5368C21.9932 12.5784 21.7216 13.4715 21.073 14.3815C20.4946 15.1823 19.8905 15.9818 18.9716 15.9818C18.0527 15.9818 17.8162 15.4683 16.7554 15.4683C15.7216 15.4683 15.3541 15.9987 14.5135 15.9987C13.673 15.9987 13.0865 15.2577 12.4122 14.3477C11.6311 13.2791 11 11.619 11 10.0434C11 7.5162 12.7081 6.1759 14.3892 6.1759C15.2824 6.1759 16.027 6.7401 16.5878 6.7401C17.1216 6.7401 17.9541 6.1421 18.9703 6.1421C19.3554 6.1421 20.7392 6.1759 21.65 7.4317ZM18.4878 5.0722C18.9081 4.5925 19.2054 3.9269 19.2054 3.2613C19.2054 3.169 19.1973 3.0754 19.1797 3C18.4959 3.0247 17.6824 3.4381 17.1919 3.9854C16.8068 4.4066 16.4473 5.0722 16.4473 5.7469C16.4473 5.8483 16.4649 5.9497 16.473 5.9822C16.5162 5.99 16.5865 5.9991 16.6568 5.9991C17.2703 5.9991 18.0419 5.6039 18.4878 5.0722Z" fill="#F5F5F5"/>
</g>
<defs>
<clipPath id="clip0_204_63582">
<rect width="11" height="13" fill="white" transform="translate(11 3)"/>
</clipPath>
</defs>
</svg>
