<svg width="32" height="20" viewBox="0 0 32 20" fill="none" xmlns="http://www.w3.org/2000/svg">
<rect width="32" height="20" rx="6" fill="#404040"/>
<path d="M14.2549 6.33118H18.747V13.6681H14.2549V6.33118Z" fill="#FF5F00"/>
<path d="M14.7176 10.0003C14.7171 9.29381 14.8772 8.59646 15.186 7.96101C15.4947 7.32557 15.9439 6.76868 16.4997 6.33248C15.8114 5.79154 14.9848 5.45516 14.1143 5.36179C13.2439 5.26842 12.3647 5.42182 11.5773 5.80446C10.79 6.1871 10.1261 6.78355 9.66166 7.52563C9.19722 8.26771 8.95093 9.12549 8.95093 10.0009C8.95093 10.8764 9.19722 11.7341 9.66166 12.4762C10.1261 13.2183 10.79 13.8147 11.5773 14.1974C12.3647 14.58 13.2439 14.7334 14.1143 14.6401C14.9848 14.5467 15.8114 14.2103 16.4997 13.6694C15.9438 13.233 15.4944 12.6759 15.1857 12.0403C14.8769 11.4046 14.7169 10.707 14.7176 10.0003V10.0003Z" fill="#EB001B"/>
<path d="M23.6033 12.8917V12.7414H23.6681V12.7103H23.5139V12.7414H23.5748V12.8918L23.6033 12.8917ZM23.9027 12.8917V12.7103H23.856L23.8016 12.8399L23.7471 12.7103H23.7005V12.8917H23.7342V12.7544L23.7847 12.8723H23.8197L23.8703 12.7544V12.8917H23.9027Z" fill="#F79E1B"/>
<path d="M24.0491 10.0003C24.0491 10.8758 23.8027 11.7336 23.3382 12.4757C22.8737 13.2178 22.2097 13.8143 21.4222 14.1969C20.6347 14.5794 19.7555 14.7327 18.885 14.6392C18.0145 14.5457 17.1879 14.2092 16.4996 13.6681C17.0552 13.2315 17.5043 12.6744 17.8131 12.039C18.1219 11.4035 18.2824 10.7062 18.2824 9.99963C18.2824 9.29309 18.1219 8.59577 17.8131 7.96029C17.5043 7.32481 17.0552 6.76777 16.4996 6.33119C17.1879 5.79007 18.0145 5.45353 18.885 5.36002C19.7555 5.26651 20.6348 5.41981 21.4222 5.8024C22.2097 6.18499 22.8737 6.78143 23.3382 7.52354C23.8027 8.26565 24.0491 9.12349 24.0491 9.99899V10.0003Z" fill="#F79E1B"/>
</svg>
