<svg width="32" height="20" viewBox="0 0 32 20" fill="none" xmlns="http://www.w3.org/2000/svg">
<rect width="32" height="20" rx="6" fill="#BFDBFE"/>
<mask id="mask0_204_63596" style="mask-type:luminance" maskUnits="userSpaceOnUse" x="6" y="7" width="19" height="6">
<path d="M15.804 8.92507C15.7939 9.75551 16.5132 10.219 17.0551 10.4945C17.6119 10.7772 17.7989 10.9585 17.7968 11.2113C17.7925 11.5982 17.3526 11.769 16.9409 11.7756C16.2226 11.7873 15.805 11.5733 15.473 11.4114L15.2143 12.6748C15.5474 12.835 16.1642 12.9747 16.8038 12.9808C18.3052 12.9808 19.2875 12.2075 19.2928 11.0084C19.2987 9.48664 17.2756 9.40238 17.2894 8.72217C17.2942 8.51594 17.4828 8.29586 17.8961 8.23987C18.1007 8.21159 18.6654 8.18997 19.3056 8.49765L19.5569 7.27527C19.2126 7.14444 18.7701 7.01915 18.2191 7.01915C16.806 7.01915 15.8119 7.80303 15.804 8.92507ZM21.9715 7.12448C21.6973 7.12448 21.4662 7.29134 21.3632 7.54746L19.2184 12.891H20.7187L21.0173 12.0301H22.8507L23.0239 12.891H24.3463L23.1923 7.12448H21.9715ZM22.1813 8.68225L22.6143 10.8476H21.4285L22.1813 8.68225ZM13.9849 7.12448L12.8023 12.891H14.232L15.414 7.12448H13.9849ZM11.8699 7.12448L10.3818 11.0494L9.77992 7.71211C9.70926 7.33957 9.43035 7.12448 9.12062 7.12448H6.68793L6.65393 7.2919C7.15332 7.40499 7.72072 7.58738 8.06445 7.78251C8.27483 7.9017 8.33486 8.00592 8.40393 8.28921L9.54404 12.891H11.055L13.3713 7.12448H11.8699Z" fill="white"/>
</mask>
<g mask="url(#mask0_204_63596)">
<path d="M4.80121 7.73114L22.2334 1.03216L26.1991 12.269L8.76713 18.968" fill="url(#paint0_linear_204_63596)"/>
</g>
<defs>
<linearGradient id="paint0_linear_204_63596" x1="8.25657" y1="12.7996" x2="23.3141" y2="7.4852" gradientUnits="userSpaceOnUse">
<stop stop-color="#222357"/>
<stop offset="1" stop-color="#254AA5"/>
</linearGradient>
</defs>
</svg>
