<svg width="33" height="33" viewBox="0 0 36 33" fill="none" xmlns="http://www.w3.org/2000/svg">
<g clip-path="url(#clip0_1484_4081)">
<path opacity="0.75" d="M29.7524 21.2322C30.72 18.5968 31.0994 15.7542 30.701 12.9681C30.018 8.1866 27.4567 4.49692 22.6378 1.89909C16.5097 -1.45174 8.1998 -0.26577 3.22905 4.64752C0.478065 7.37713 -1.1915 11.8951 1.02826 15.0765C2.64091 17.3731 5.7334 18.2203 7.55475 20.3475C9.83142 23.0206 9.66067 27.1432 11.9184 29.8164C13.9294 32.1883 17.5342 32.8472 20.4939 31.8683C22.9793 31.0588 27.4567 27.4633 29.7524 21.2322Z" fill="#5493F7"></path>
<path opacity="0.8" d="M20.4905 31.8868C22.9759 31.0773 27.4534 27.4818 29.749 21.2507C30.7166 18.6152 31.2478 16.0739 30.6976 12.9866C28.8573 2.80234 16.2787 15.9045 14.0969 17.241C9.80911 19.8577 8.63283 25.6181 11.6874 29.5901C11.7633 29.6843 11.8202 29.7784 11.8961 29.8537C13.9071 32.2068 17.5308 32.8468 20.4905 31.8868Z" fill="#2043B5"></path>
<path opacity="0.7" d="M24.3986 3.48314C21.7424 2.52308 18.8776 2.14658 16.0697 2.5419C11.2507 3.2196 7.53215 5.76095 4.91397 10.5425C1.53689 16.6229 2.73215 24.8682 7.68393 29.8003C10.4349 32.5299 14.9883 34.1865 18.1946 31.984C20.5092 30.3839 21.363 27.3154 23.5069 25.5082C26.2009 23.2493 30.3559 23.4187 33.0499 21.1785C35.4405 19.1831 36.1045 15.6064 35.1179 12.6697C34.3021 10.2036 30.6784 5.76095 24.3986 3.48314Z" fill="#2566E4"></path>
<path d="M18.897 23.6077L16.4495 18.7132L14.8179 20.2004L14.078 23.6077H11.2891L13.9642 11.0703H16.7721L15.7286 15.946L21.1167 11.0703H25.0061L18.6503 16.7554L22.2551 23.6077H18.897Z" fill="white"></path>
</g>
<defs>
<clipPath id="clip0_1484_4081">
<rect width="120" height="33" fill="white"></rect>
</clipPath>
</defs>
</svg>   