<svg width="48" height="48" viewBox="0 0 48 48" fill="none" xmlns="http://www.w3.org/2000/svg">
<path fill-rule="evenodd" clip-rule="evenodd" d="M15.0283 38.7853L20.6666 40.2812V38.325L21.1269 37.8647H24.3487V40.166V41.777H20.8967L16.6392 39.9359L15.0283 38.7853Z" fill="#CDBDB2"/>
<path fill-rule="evenodd" clip-rule="evenodd" d="M33.4385 38.7853L27.9153 40.2812V38.325L27.4551 37.8647H24.2333V40.166V41.777H27.6852L31.9425 39.9359L33.4385 38.7853Z" fill="#CDBDB2"/>
<path fill-rule="evenodd" clip-rule="evenodd" d="M21.1253 34.5281L20.665 38.3251L21.2403 37.8649H27.2237L27.914 38.3251L27.4538 34.5281L26.5333 33.9526L21.9307 34.0678L21.1253 34.5281Z" fill="#393939"/>
<path fill-rule="evenodd" clip-rule="evenodd" d="M18.02 8.86865L20.7816 15.3123L22.0474 34.068H26.5348L27.9156 15.3123L30.4471 8.86865H18.02Z" fill="#F89C35"/>
<path fill-rule="evenodd" clip-rule="evenodd" d="M5.93716 23.0218L2.71533 32.342L10.7699 31.8817H15.9477V27.8545L15.7176 19.5698L14.5669 20.4903L5.93716 23.0218Z" fill="#F89D35"/>
<path fill-rule="evenodd" clip-rule="evenodd" d="M12.0352 24.0562L21.4705 24.2863L20.435 29.119L15.9474 27.9684L12.0352 24.0562Z" fill="#D87C30"/>
<path fill-rule="evenodd" clip-rule="evenodd" d="M12.0352 24.1733L15.9474 27.8554V31.5375L12.0352 24.1733Z" fill="#EA8D3A"/>
<path fill-rule="evenodd" clip-rule="evenodd" d="M15.9482 27.9683L20.5509 29.1189L22.0468 34.0668L21.0111 34.642L15.9482 31.6503V27.9683Z" fill="#F89D35"/>
<path fill-rule="evenodd" clip-rule="evenodd" d="M15.9488 31.6519L15.0283 38.7859L21.1269 34.5286L15.9488 31.6519Z" fill="#EB8F35"/>
<path fill-rule="evenodd" clip-rule="evenodd" d="M21.471 24.2866L22.0464 34.0673L20.3203 29.0619L21.471 24.2866Z" fill="#EA8E3A"/>
<path fill-rule="evenodd" clip-rule="evenodd" d="M10.6548 31.767L15.9478 31.6519L15.0273 38.7859L10.6548 31.767Z" fill="#D87C30"/>
<path fill-rule="evenodd" clip-rule="evenodd" d="M5.24677 41.8928L15.0272 38.786L10.6547 31.7671L2.71533 32.3423L5.24677 41.8928Z" fill="#EB8F35"/>
<path fill-rule="evenodd" clip-rule="evenodd" d="M20.7801 15.312L15.8324 19.4544L12.0352 24.057L21.4705 24.4023L20.7801 15.312Z" fill="#E8821E"/>
<path fill-rule="evenodd" clip-rule="evenodd" d="M15.0283 38.7861L21.1269 34.5288L20.6666 38.2109V40.2821L16.5243 39.4765L15.0283 38.7861Z" fill="#DFCEC3"/>
<path fill-rule="evenodd" clip-rule="evenodd" d="M33.4385 38.7861L27.4551 34.5288L27.9153 38.2109V40.2821L32.0577 39.4765L33.4385 38.7861Z" fill="#DFCEC3"/>
<path fill-rule="evenodd" clip-rule="evenodd" d="M18.9397 26.3589L20.2056 29.0055L15.7179 27.8548L18.9397 26.3589Z" fill="#393939"/>
<path fill-rule="evenodd" clip-rule="evenodd" d="M5.13184 3.46045L20.7807 15.3121L18.1343 8.86841L5.13184 3.46045Z" fill="#E88F35"/>
<path fill-rule="evenodd" clip-rule="evenodd" d="M5.13221 3.46045L3.06104 9.78904L4.21169 16.693L3.40623 17.1532L4.55688 18.1888L3.63636 18.9943L4.90208 20.1449L4.09662 20.8353L5.93767 23.1366L14.5676 20.4901C18.7866 17.1149 20.8578 15.3889 20.7811 15.3122C20.7044 15.2355 15.4881 11.2849 5.13221 3.46045Z" fill="#8E5A30"/>
<path fill-rule="evenodd" clip-rule="evenodd" d="M42.5282 23.0213L45.75 32.3415L37.6954 31.8812H32.5176V27.854L32.7477 19.5693L33.8984 20.4899L42.5282 23.0213Z" fill="#F89D35"/>
<path fill-rule="evenodd" clip-rule="evenodd" d="M36.4297 24.0557L26.9943 24.2858L28.0298 29.1185L32.5175 27.9679L36.4297 24.0557Z" fill="#D87C30"/>
<path fill-rule="evenodd" clip-rule="evenodd" d="M36.4297 24.1729L32.5175 27.8549V31.537L36.4297 24.1729Z" fill="#EA8D3A"/>
<path fill-rule="evenodd" clip-rule="evenodd" d="M32.5176 27.9678L27.915 29.1184L26.419 34.0663L27.4547 34.6416L32.5176 31.6499V27.9678Z" fill="#F89D35"/>
<path fill-rule="evenodd" clip-rule="evenodd" d="M32.517 31.6514L33.4375 38.7854L27.4541 34.6431L32.517 31.6514Z" fill="#EB8F35"/>
<path fill-rule="evenodd" clip-rule="evenodd" d="M26.9939 24.2861L26.4185 34.0668L28.1445 29.0614L26.9939 24.2861Z" fill="#EA8E3A"/>
<path fill-rule="evenodd" clip-rule="evenodd" d="M37.8105 31.7665L32.5175 31.6514L33.4381 38.7854L37.8105 31.7665Z" fill="#D87C30"/>
<path fill-rule="evenodd" clip-rule="evenodd" d="M43.2186 41.8923L33.4381 38.7855L37.8106 31.7666L45.75 32.3418L43.2186 41.8923Z" fill="#EB8F35"/>
<path fill-rule="evenodd" clip-rule="evenodd" d="M27.6847 15.3115L32.6324 19.4539L36.4297 24.0565L26.9943 24.4018L27.6847 15.3115Z" fill="#E8821E"/>
<path fill-rule="evenodd" clip-rule="evenodd" d="M29.5256 26.3584L28.2598 29.005L32.7474 27.8543L29.5256 26.3584Z" fill="#393939"/>
<path fill-rule="evenodd" clip-rule="evenodd" d="M43.334 3.45996L27.6851 15.3116L30.3315 8.86792L43.334 3.45996Z" fill="#E88F35"/>
<path fill-rule="evenodd" clip-rule="evenodd" d="M43.3331 3.45996L45.4043 9.78855L44.2536 16.6925L45.0591 17.1527L43.9084 18.1883L44.829 18.9938L43.5633 20.1444L44.3687 20.8348L42.5277 23.1361L33.8978 20.4896C29.6787 17.1144 27.6075 15.3884 27.6843 15.3117C27.761 15.235 32.9773 11.2844 43.3331 3.45996Z" fill="#8E5A30"/>
</svg>
