<?xml version="1.0" encoding="UTF-8"?>
<svg id="a" xmlns="http://www.w3.org/2000/svg" xmlns:xlink="http://www.w3.org/1999/xlink"
    viewBox="0 0 262.44 72">
    <defs>
        <style>
            .e{fill:#fff;}.g{fill:none;}.j{clip-path:url(#b);}</style>
        <clipPath id="b">
            <rect class="g" width="88.24" height="72" />
        </clipPath>
    </defs>
    <path class="e"
        d="M104.35,21.94c1.71-.51,3.65-.98,5.82-1.41,2.22-.47,4.63-.7,7.23-.7,3.93,0,6.81,.96,8.64,2.88,1.84,1.92,2.75,4.5,2.75,7.74,0,.9-.09,1.86-.26,2.88-.13,.98-.3,2.01-.51,3.07l-4.22,17.6h-7.74l3.97-16.77c.21-.94,.43-1.9,.64-2.88s.34-1.92,.38-2.82c.04-1.49-.32-2.73-1.09-3.71-.73-.98-2.18-1.47-4.35-1.47-1.83,0-3.41,.19-4.74,.58l-6.46,27.07h-7.74l7.68-32.06h0Zm40.22,32.96c-3.97,0-7-1.17-9.09-3.52-2.09-2.35-3.14-5.44-3.14-9.28,0-2.47,.38-5.03,1.15-7.68,.77-2.65,1.94-5.06,3.52-7.23,1.58-2.18,3.56-3.97,5.95-5.38,2.39-1.41,5.2-2.11,8.45-2.11,3.97,0,7,1.17,9.09,3.52,2.09,2.3,3.14,5.38,3.14,9.22,0,2.52-.38,5.1-1.15,7.74-.73,2.65-1.88,5.06-3.46,7.23-1.54,2.18-3.52,3.97-5.95,5.38-2.39,1.41-5.23,2.11-8.51,2.11Zm5.89-28.67c-1.66,0-3.16,.49-4.48,1.47-1.28,.94-2.37,2.15-3.26,3.65-.85,1.49-1.51,3.14-1.98,4.93-.47,1.75-.7,3.46-.7,5.12,0,2.13,.4,3.82,1.22,5.06,.81,1.24,2.24,1.86,4.29,1.86,1.66,0,3.14-.47,4.42-1.41,1.32-.98,2.41-2.2,3.26-3.65,.9-1.49,1.58-3.14,2.05-4.93s.7-3.5,.7-5.12c0-2.13-.41-3.82-1.22-5.06-.81-1.28-2.24-1.92-4.29-1.92h-.01Zm22.17-4.29c1.71-.51,3.63-.98,5.76-1.41,2.13-.47,4.48-.7,7.04-.7,1.92,0,3.52,.28,4.8,.83,1.32,.55,2.43,1.34,3.33,2.37,1.24-.73,2.73-1.43,4.48-2.11,1.79-.73,3.82-1.09,6.08-1.09,1.96,0,3.63,.28,4.99,.83s2.47,1.32,3.33,2.3c.85,.98,1.47,2.15,1.86,3.52,.38,1.32,.58,2.77,.58,4.35,0,1.75-.24,3.61-.7,5.57l-4.22,17.6h-7.74l3.97-16.77c.21-.81,.4-1.69,.58-2.62,.21-.98,.32-1.96,.32-2.94,0-.68-.09-1.34-.26-1.98-.13-.68-.38-1.26-.77-1.73-.38-.47-.92-.85-1.6-1.15-.64-.3-1.47-.45-2.5-.45-1.11,0-2.2,.21-3.26,.64-1.07,.43-1.96,.87-2.69,1.34,.17,.81,.26,1.69,.26,2.62,0,.85-.06,1.75-.19,2.69s-.3,1.86-.51,2.75l-4.22,17.6h-7.74l3.97-16.77c.21-.77,.4-1.64,.58-2.62,.21-1.02,.32-2.03,.32-3.01,0-1.41-.34-2.62-1.02-3.65-.64-1.07-1.88-1.6-3.71-1.6-.85,0-1.66,.06-2.43,.19-.77,.09-1.47,.21-2.11,.38l-6.46,27.07h-7.74l7.68-32.06h-.06Zm51.96,32.07h-7.68l8-33.47h7.74l-8.06,33.47h0Zm5.76-38.53c-1.15,0-2.15-.34-3.01-1.02-.85-.68-1.28-1.71-1.28-3.07,0-1.58,.53-2.88,1.6-3.9,1.11-1.02,2.37-1.54,3.78-1.54,1.15,0,2.15,.36,3.01,1.09,.9,.68,1.34,1.71,1.34,3.07,0,1.58-.56,2.88-1.66,3.9-1.11,.98-2.37,1.47-3.78,1.47Zm3.55,25.86c0-2.9,.45-5.65,1.34-8.26,.94-2.65,2.26-4.95,3.97-6.91,1.71-2.01,3.8-3.58,6.27-4.74s5.29-1.73,8.45-1.73c1.66,0,3.18,.15,4.54,.45,1.41,.26,2.73,.66,3.97,1.22l-2.75,6.21c-.77-.34-1.62-.64-2.56-.9s-2.09-.38-3.46-.38c-1.84,0-3.5,.38-4.99,1.15-1.45,.73-2.69,1.73-3.71,3.01s-1.81,2.79-2.37,4.54c-.55,1.75-.83,3.61-.83,5.57,0,1.11,.11,2.13,.32,3.07,.26,.9,.64,1.71,1.15,2.43,.56,.68,1.3,1.22,2.24,1.6,.94,.38,2.11,.58,3.52,.58s2.84-.19,4.16-.58c1.36-.38,2.41-.77,3.14-1.15l.64,6.34c-.98,.47-2.28,.92-3.9,1.34-1.62,.47-3.46,.7-5.5,.7-2.35,0-4.37-.34-6.08-1.02-1.71-.73-3.14-1.69-4.29-2.88-1.11-1.24-1.94-2.67-2.5-4.29-.51-1.66-.77-3.46-.77-5.38h0Z" />
    <g class="j">
        <g>
            <path class="e"
                d="M67.5,18.69c-4.8,1.53-9.51,3.33-14.1,5.42C27.25,35.92,9.76,53.83,14.33,64.09c.93,1.94,2.47,3.5,4.39,4.45,6.22,3.15,13.29,4.19,20.15,2.96s13.14-4.66,17.9-9.78c4.76-5.12,7.76-11.66,8.53-18.63,.77-6.97-.71-14.01-4.24-20.07l6.43-4.33h.01Z" />
            <path class="e"
                d="M58.94,19.58c-4.75-6.65-11.86-11.26-19.9-12.91-8.04-1.65-16.41-.22-23.43,4.02C8.59,14.92,3.45,21.63,1.22,29.48c-2.23,7.85-1.38,16.24,2.37,23.49,6.13-8.88,19.72-19.05,36.99-26.74,5.94-2.66,12.08-4.88,18.36-6.64h0Z" />
            <path class="e"
                d="M87.93,16.51c-9.18-1.6-10.45-.94-14.45,7.48,1.6-9.18,.94-10.46-7.48-14.45,9.18,1.6,10.45,.94,14.45-7.48-1.6,9.18-.94,10.45,7.48,14.45Z" />
        </g>
    </g>
</svg>