<svg width="64" height="64" viewBox="0 0 64 64" fill="none" xmlns="http://www.w3.org/2000/svg">
	<path
		d="M0 32C0 14.3269 14.3269 0 32 0C49.6731 0 64 14.3269 64 32C64 49.6731 49.6731 64 32 64C14.3269 64 0 49.6731 0 32Z"
		fill="#F3F3F3" />
	<path d="M43.0819 14.9426H49.9241L27.1936 38.7714H40.4503V43.8001H14.2244L43.0819 14.9426Z" fill="#151515" />
	<path fill-rule="evenodd" clip-rule="evenodd"
		d="M45.4831 24.8268V47.0779L48.5128 43.3478V16.3566L27.9474 37.959H32.3661L45.4831 24.8268ZM34.242 37.959H39.4067V32.7883L34.242 37.959ZM40.7339 31.4596V44.4825H14.3272V48.6728H44.1558V28.0336L40.7339 31.4596ZM44.8194 50H13V43.8189L42.7841 14H49.84V43.8189L44.8194 50ZM47.6603 15.3272L24.8515 39.2862H39.4067V43.1553H15.5387L43.3343 15.3272H47.6603Z"
		fill="#151515" />
</svg>