<svg width="299" height="63" viewBox="0 0 299 63" fill="none" xmlns="http://www.w3.org/2000/svg">
<path d="M68.3127 45.721V14.5825H78.9943V42.4344C78.9943 49.3339 82.3655 53.1159 88.5219 53.1159C97.0647 53.1159 101.832 45.721 101.832 35.2026V14.5825H112.513V61.6588H101.832V54.427C97.8864 59.6046 92.1348 62.6436 85.3984 62.6436C74.9645 62.6436 68.3066 55.3332 68.3066 45.721H68.3127Z" fill="white"/>
<path d="M119.902 48.6816C119.902 40.1387 126.312 34.8765 139.537 32.8223L151.203 31.0159V30.1096C151.203 25.5059 147.832 23.047 142.002 23.047C135.677 23.047 131.568 26.0013 130.251 31.5898L121.539 25.3428C125.237 17.537 132.299 13.5919 142.407 13.5919C154.647 13.5919 161.468 19.3435 161.468 29.6928V51.4667C161.468 55.4905 161.879 58.9463 162.538 61.6529H151.941C151.53 60.0096 151.367 58.2031 151.203 55.3273C147.18 60.3358 142.25 62.6377 135.924 62.6377C126.397 62.6377 119.902 57.2184 119.902 48.6695V48.6816ZM151.203 40.6281V39.7218L142.824 41.0389C134.033 42.4345 130.747 44.4101 130.747 48.1861C130.747 51.6359 133.538 53.6901 138.057 53.6901C144.63 53.6901 151.203 49.4186 151.203 40.6281Z" fill="white"/>
<path d="M167.879 49.1709L177.407 44.7364C178.065 49.9141 183.406 53.6901 189.484 53.6901C194.251 53.6901 197.7 51.4728 197.7 48.5124C197.7 44.7364 191.949 43.667 185.708 41.9391C178.313 39.9696 170.259 37.0938 170.259 27.8924C170.259 19.2649 177.491 13.8456 188.499 13.8456C198.196 13.8456 205.669 18.6124 207.886 25.5966L197.948 30.0311C197.622 25.8382 193.84 22.7993 188.251 22.7993C184.228 22.7993 180.941 24.4426 180.941 27.1553C180.941 30.8528 187.182 31.759 193.677 33.5654C200.908 35.535 208.466 38.5739 208.466 47.6968C208.466 56.8196 200.824 62.6498 189.49 62.6498C178.156 62.6498 170.676 57.8044 167.885 49.177L167.879 49.1709Z" fill="white"/>
<path d="M213.39 48.6816C213.39 40.1387 219.8 34.8765 233.025 32.8223L244.692 31.0159V30.1096C244.692 25.5059 241.321 23.047 235.49 23.047C229.165 23.047 225.057 26.0013 223.739 31.5898L215.027 25.3428C218.725 17.537 225.788 13.5919 235.895 13.5919C248.135 13.5919 254.956 19.3435 254.956 29.6928V51.4667C254.956 55.4905 255.367 58.9463 256.026 61.6529H245.429C245.018 60.0096 244.855 58.2031 244.692 55.3273C240.668 60.3358 235.738 62.6377 229.412 62.6377C219.885 62.6377 213.39 57.2184 213.39 48.6695V48.6816ZM244.692 40.6281V39.7218L236.312 41.0389C227.521 42.4345 224.235 44.4101 224.235 48.1861C224.235 51.6359 227.026 53.6901 231.545 53.6901C238.118 53.6901 244.692 49.4186 244.692 40.6281Z" fill="white"/>
<path d="M276.157 61.6588H265.475V14.5825H276.157V21.8143C279.28 16.7212 283.962 13.5977 289.303 13.5977C293.575 13.5977 297.357 15.5673 299 18.0323L294.233 27.0705C293.001 25.1795 290.536 23.7839 287.497 23.7839C281.497 23.7839 276.157 29.0401 276.157 42.8452V61.6588Z" fill="white"/>
<path d="M48.0436 61.538L67.4613 61.6589L54.0731 51.2673C58.417 46.0413 60.9062 39.1236 60.9062 31.1789C60.9002 13.5072 48.1463 0.928526 30.8794 0.711027V0.698944C30.8008 0.698944 30.7283 0.698944 30.6498 0.698944C30.5712 0.698944 30.4987 0.698944 30.4202 0.698944V0.711027C13.1533 0.928526 0.399414 13.5072 0.399414 31.1789C0.399414 48.8506 12.676 61.4353 30.4202 61.6468V61.6589C30.4987 61.6589 30.5712 61.6589 30.6498 61.6589C30.7283 61.6589 30.8008 61.6589 30.8794 61.6589V61.6468C36.3229 61.5803 41.2589 60.3539 45.4759 58.1728L48.0436 61.538ZM30.6558 51.1404C20.0105 51.0256 12.3195 43.0084 12.3195 31.1789C12.3195 19.3494 20.0165 11.3322 30.6558 11.2174C41.3012 11.3322 48.9921 19.3494 48.9921 31.1789C48.9921 35.1241 47.0165 41.5584 45.4759 44.5007L25.448 31.8737L38.7274 49.3037C36.3289 50.4637 33.6041 51.0981 30.6498 51.1344L30.6558 51.1404Z" fill="white"/>
</svg>
