<svg xmlns="http://www.w3.org/2000/svg" width="500" height="px" viewBox="0 0 500 500">
  <defs>
    <clipPath id="a">
      <path d="M0 0h497.637v500H0Zm0 0" />
    </clipPath>
  </defs>
  <g clip-path="url(#a)">
    <path
      d="M495.332 142.742a121.726 121.726 0 0 0-4.61-16.215 114.832 114.832 0 0 0-4.378-10.27 123.078 123.078 0 0 0-7.508-13.19 114.02 114.02 0 0 0-9.086-12.06c-1.242-1.46-2.547-2.831-3.86-4.148-.378-.414-.75-.75-1.148-1.148l-50.789-50.848-.129.07A114.023 114.023 0 0 0 331.758 0H114.414C51.274.055.094 51.207 0 114.344v223.11a114.186 114.186 0 0 0 31.797 78.964l53.844 53.785a115.622 115.622 0 0 0 15.183 12.77 121.775 121.775 0 0 0 13.04 7.797 126.79 126.79 0 0 0 14.054 6.046 125.182 125.182 0 0 0 14.973 4.149 114.652 114.652 0 0 0 23.035 2.305h217.183c7.778.023 15.54-.75 23.16-2.305 3.711-.797 7.278-1.762 10.852-2.828a114.287 114.287 0 0 0 45.164-26.649 149.486 149.486 0 0 0 8.059-8.523 114.14 114.14 0 0 0 13.304-19.195 158.626 158.626 0 0 0 2.704-5.262c1.613-3.27 3.062-6.703 4.378-10.195.586-1.766 1.243-3.57 1.762-5.286a97.305 97.305 0 0 0 2.746-10.972 114.904 114.904 0 0 0 2.301-23.035V165.852a115.675 115.675 0 0 0-2.3-23.114m-112.13 320.485H165.852a73.446 73.446 0 0 1-39.547-11.438 74.559 74.559 0 0 1-34.75-62.87V165.851c.027-41.036 33.289-74.293 74.324-74.325h217.23a74.141 74.141 0 0 1 62.954 34.77 73.261 73.261 0 0 1 11.41 39.547v223.082c-.032 41.058-33.32 74.324-74.38 74.324"
      style="stroke:none;fill-rule:nonzero;fill:#4608e3;fill-opacity:1" />
  </g>
  <path
    d="M330.426 294.148H213.12a16.56 16.56 0 0 0-14.734 8.137 16.556 16.556 0 0 0 0 16.836 16.56 16.56 0 0 0 14.734 8.137h57.313v32.805l.343-.278c.551 8.68 7.746 15.445 16.446 15.465a16.537 16.537 0 0 0 12.34-5.48l43.242-47.973a16.564 16.564 0 0 0 2.824-17.813 16.565 16.565 0 0 0-15.121-9.828m-118.765-30.324h117.34c6.11.3 11.887-2.785 15.035-8.031a16.581 16.581 0 0 0 0-17.047 16.582 16.582 0 0 0-15.035-8.031h-57.305v-32.836l-.343.277a16.509 16.509 0 0 0-11.063-14.613 16.493 16.493 0 0 0-17.734 4.605L199.39 236.13a16.564 16.564 0 0 0-2.825 17.812 16.565 16.565 0 0 0 15.121 9.829"
    style="stroke:none;fill-rule:nonzero;fill:#4608e3;fill-opacity:1" />
</svg>