<svg
  id="Capa_1"
  data-name="Capa 1"
  xmlns="http://www.w3.org/2000/svg"
  viewBox="0 0 1080 1080"
>
  <defs>
    <style>
      .cls-1 {
        fill: #1461db;
      }
    </style>
  </defs>
  <path
    class="cls-1"
    d="M921.61,164.48a70.12,70.12,0,0,0-52.67-23.74H211.06a70.33,70.33,0,0,0-70.32,70.32V868.94a70.33,70.33,0,0,0,70.32,70.32H868.94a70.33,70.33,0,0,0,70.32-70.32V211.06A70,70,0,0,0,921.61,164.48Zm-98.7,397.3a34.76,34.76,0,0,1-49.15,0l-67.45-67.46V669.58a34.76,34.76,0,0,1-69.51,0V494.77L437.41,694.16c-.7.7-1.43,1.34-2.18,2l-.33.3a36,36,0,0,1-3.78,2.68l-.78.46a34.62,34.62,0,0,1-4.17,2.1l0,0h0c-1,.42-2.06.79-3.11,1.11l-.15.06c-1,.29-1.94.52-2.92.72-.14,0-.27.08-.41.1-.88.18-1.77.29-2.66.39-.23,0-.46.08-.69.1-.94.09-1.88.13-2.83.14l-.51,0h0c-1.12,0-2.25-.05-3.37-.16l-.15,0a34.61,34.61,0,0,1-15.68-5.6l0,0c-.93-.63-1.84-1.3-2.73-2a33.82,33.82,0,0,1-2.6-2.35L257.09,563a34.75,34.75,0,1,1,49.14-49.15l71.86,71.85V410.42a34.75,34.75,0,0,1,69.5,0V585.68L644.42,388.85a34.38,34.38,0,0,1,45.83-7.62c.3.18.6.36.89.56.66.45,1.3.91,1.92,1.41.89.69,1.74,1.43,2.57,2.21.16.16.35.27.5.43l.23.23L822.91,512.63A34.74,34.74,0,0,1,822.91,561.78Z"
  />
</svg>
