<svg width="48" height="48" viewBox="0 0 48 48" fill="none" xmlns="http://www.w3.org/2000/svg">
<g clip-path="url(#clip0_4167_2778)">
<path fill-rule="evenodd" clip-rule="evenodd" d="M24.0003 0C37.2567 0 48.0006 10.7439 48.0006 24.0003C48.0006 37.2567 37.2567 48.0006 24.0003 48.0006C10.7439 48.0006 0 37.2567 0 24.0003C0 10.7439 10.7439 0 24.0003 0Z" fill="url(#paint0_radial_4167_2778)"/>
<path d="M15.2535 18.5346C20.0817 13.8189 27.9193 13.8189 32.7475 18.5346L33.3287 19.1064C33.5725 19.3408 33.5725 19.7252 33.3287 19.9596L31.3412 21.9002C31.2193 22.0221 31.0224 22.0221 30.9006 21.9002L30.1037 21.1221C26.7286 17.8314 21.2723 17.8314 17.8973 21.1221L17.0441 21.9565C16.9223 22.0784 16.7254 22.0784 16.6035 21.9565L14.616 20.0158C14.3722 19.7815 14.3722 19.3971 14.616 19.1627L15.2535 18.5346ZM36.8631 22.5471L38.635 24.2721C38.8788 24.5065 38.8788 24.8909 38.635 25.1253L30.6568 32.916C30.4131 33.1504 30.0193 33.1504 29.7849 32.916L24.1223 27.3847C24.0661 27.3284 23.963 27.3284 23.9067 27.3847L18.2442 32.916C18.0004 33.1504 17.6066 33.1504 17.3723 32.916L9.36592 25.1253C9.12217 24.8909 9.12217 24.5065 9.36592 24.2721L11.1378 22.5471C11.3816 22.3127 11.7753 22.3127 12.0097 22.5471L17.6723 28.0784C17.7285 28.1347 17.8316 28.1347 17.8879 28.0784L23.5505 22.5471C23.7942 22.3127 24.188 22.3127 24.4224 22.5471L30.0849 28.0784C30.1412 28.1347 30.2443 28.1347 30.3006 28.0784L35.9631 22.5471C36.2256 22.3127 36.6194 22.3127 36.8631 22.5471Z" fill="white"/>
</g>
<defs>
<radialGradient id="paint0_radial_4167_2778" cx="0" cy="0" r="1" gradientUnits="userSpaceOnUse" gradientTransform="translate(0.000148775 24.001) scale(48.0006)">
<stop stop-color="#5D9DF6"/>
<stop offset="1" stop-color="#006FFF"/>
</radialGradient>
<clipPath id="clip0_4167_2778">
<rect width="48.0006" height="48.0006" fill="white"/>
</clipPath>
</defs>
</svg>
