<svg width="30" height="30" viewBox="0 0 31 30" fill="none" xmlns="http://www.w3.org/2000/svg">
<g filter="url(#filter0_d_394_65047)">
<g clip-path="url(#clip0_394_65047)">
<path d="M22.8783 6.11694H8.06982V19.585H22.8783V6.11694Z" fill="white"/>
<path fill-rule="evenodd" clip-rule="evenodd" d="M27.466 13.9999C27.466 20.6186 22.1006 25.984 15.482 25.984C8.86336 25.984 3.49792 20.6186 3.49792 13.9999C3.49792 7.38131 8.86336 2.01587 15.482 2.01587C22.1006 2.01587 27.466 7.38131 27.466 13.9999ZM12.086 18.769H9.76027C9.27155 18.769 9.03015 18.769 8.88296 18.6748C8.72397 18.5717 8.62682 18.401 8.61505 18.2125C8.60621 18.0389 8.72692 17.8269 8.96833 17.4029L14.7109 7.28079C14.9553 6.85096 15.0789 6.63604 15.235 6.55656C15.4028 6.47119 15.603 6.47119 15.7708 6.55656C15.9268 6.63604 16.0505 6.85096 16.2948 7.28079L17.4754 9.3416L17.4814 9.35211C17.7453 9.81324 17.8791 10.0471 17.9376 10.2925C18.0023 10.5604 18.0023 10.843 17.9376 11.1109C17.8787 11.3582 17.7462 11.5938 17.4783 12.0619L14.4619 17.3941L14.4541 17.4078C14.1884 17.8727 14.0538 18.1083 13.8672 18.2861C13.664 18.4804 13.4197 18.6217 13.1518 18.7013C12.9074 18.769 12.6336 18.769 12.086 18.769ZM17.9594 18.769H21.2919C21.7836 18.769 22.0309 18.769 22.1782 18.6719C22.3371 18.5688 22.4372 18.3951 22.4461 18.2068C22.4546 18.0387 22.3365 17.835 22.1051 17.4357C22.0971 17.4221 22.0891 17.4082 22.081 17.3942L20.4117 14.5385L20.3927 14.5063C20.1581 14.1097 20.0397 13.9093 19.8877 13.8319C19.7199 13.7465 19.5226 13.7465 19.3548 13.8319C19.2017 13.9114 19.0781 14.1204 18.8337 14.5414L17.1704 17.3971L17.1647 17.4069C16.9212 17.8273 16.7995 18.0373 16.8083 18.2096C16.82 18.3981 16.9172 18.5717 17.0761 18.6748C17.2204 18.769 17.4677 18.769 17.9594 18.769Z" fill="#E84142"/>
</g>
</g>
<defs>
<filter id="filter0_d_394_65047" x="0.48999" y="0" width="30" height="30" filterUnits="userSpaceOnUse" color-interpolation-filters="sRGB">
<feFlood flood-opacity="0" result="BackgroundImageFix"/>
<feColorMatrix in="SourceAlpha" type="matrix" values="0 0 0 0 0 0 0 0 0 0 0 0 0 0 0 0 0 0 127 0" result="hardAlpha"/>
<feOffset dy="1"/>
<feGaussianBlur stdDeviation="1.5"/>
<feColorMatrix type="matrix" values="0 0 0 0 0.129412 0 0 0 0 0.105882 0 0 0 0 0.305882 0 0 0 0.15 0"/>
<feBlend mode="normal" in2="BackgroundImageFix" result="effect1_dropShadow_394_65047"/>
<feBlend mode="normal" in="SourceGraphic" in2="effect1_dropShadow_394_65047" result="shape"/>
</filter>
<clipPath id="clip0_394_65047">
<rect width="23.984" height="24" fill="white" transform="translate(3.48999 2)"/>
</clipPath>
</defs>
</svg>
