<svg viewBox="0 0 31 31" fill="none" xmlns="http://www.w3.org/2000/svg">
  <path
    d="M15.7056 0.399071C24.1531 0.399071 31.0001 7.24608 31.0001 15.6935C31.0001 24.141 24.1531 30.982 15.7117 30.982C7.26421 30.982 0.423222 24.135 0.423222 15.6935C0.417205 7.24608 7.26421 0.399071 15.7056 0.399071Z"
    fill="#8247E5"
  />
  <mask
    id="mask0_1_204"
    style="mask-type: luminance"
    maskUnits="userSpaceOnUse"
    x="5"
    y="7"
    width="21"
    height="18"
  >
    <path d="M25.6211 7.01143H5.57947V24.5742H25.6211V7.01143Z" fill="white" />
  </mask>
  <g mask="url(#mask0_1_204)">
    <path
      d="M20.7175 12.3603C20.3505 12.1497 19.8812 12.1497 19.466 12.3603L16.5419 14.0931L14.5564 15.1941L11.6864 16.9209C11.3194 17.1315 10.8501 17.1315 10.4349 16.9209L8.19071 15.5551C7.82369 15.3446 7.56497 14.9234 7.56497 14.4541V11.8308C7.56497 11.4096 7.77556 10.9945 8.19071 10.7297L10.4349 9.41811C10.802 9.20752 11.2713 9.20752 11.6864 9.41811L13.9306 10.7839C14.2977 10.9945 14.5564 11.4157 14.5564 11.885V13.6178L16.5419 12.4626V10.6816C16.5419 10.2604 16.3313 9.84529 15.9162 9.58056L11.7406 7.11371C11.3735 6.90313 10.9042 6.90313 10.4891 7.11371L6.21122 9.63471C5.79606 9.84529 5.58548 10.2665 5.58548 10.6816V15.6093C5.58548 16.0305 5.79606 16.4456 6.21122 16.7103L10.441 19.1772C10.808 19.3878 11.2773 19.3878 11.6924 19.1772L14.5624 17.4985L16.5479 16.3433L19.4179 14.6647C19.7849 14.4541 20.2542 14.4541 20.6693 14.6647L22.9136 15.9763C23.2806 16.1869 23.5393 16.6081 23.5393 17.0774V19.7006C23.5393 20.1218 23.3287 20.537 22.9136 20.8017L20.7235 22.1133C20.3565 22.3239 19.8872 22.3239 19.472 22.1133L17.2218 20.8017C16.8548 20.5911 16.596 20.17 16.596 19.7006V18.022L14.6105 19.1772V20.91C14.6105 21.3312 14.8211 21.7463 15.2363 22.0111L19.466 24.4779C19.833 24.6885 20.3023 24.6885 20.7175 24.4779L24.9472 22.0111C25.3142 21.8005 25.573 21.3793 25.573 20.91V15.9282C25.573 15.507 25.3624 15.0919 24.9472 14.8271L20.7175 12.3603Z"
      fill="white"
    />
  </g>
</svg>
