<svg width="30" height="30" viewBox="0 0 30 30" fill="none" xmlns="http://www.w3.org/2000/svg">
<g filter="url(#filter0_d_394_65067)">
<circle cx="15" cy="14" r="12" fill="white"/>
<g clip-path="url(#clip0_394_65067)">
<path d="M18.7399 11.542C18.4772 11.3919 18.1395 11.3919 17.8393 11.542L15.7378 12.7804L14.3118 13.5684L12.2478 14.8068C11.9851 14.9569 11.6474 14.9569 11.3472 14.8068L9.73351 13.8311C9.47082 13.681 9.28319 13.3808 9.28319 13.0431V11.1667C9.28319 10.8665 9.4333 10.5663 9.73351 10.3787L11.3472 9.44051C11.6098 9.2904 11.9476 9.2904 12.2478 9.44051L13.8614 10.4162C14.1241 10.5663 14.3118 10.8665 14.3118 11.2043V12.4426L15.7378 11.6171V10.3412C15.7378 10.0409 15.5877 9.74072 15.2875 9.55309L12.2853 7.78934C12.0226 7.63923 11.6849 7.63923 11.3847 7.78934L8.3075 9.59062C8.00728 9.74072 7.85718 10.0409 7.85718 10.3412V13.8687C7.85718 14.1689 8.00728 14.4691 8.3075 14.6567L11.3472 16.4205C11.6098 16.5706 11.9476 16.5706 12.2478 16.4205L14.3118 15.2196L15.7378 14.394L17.8017 13.1932C18.0644 13.0431 18.4022 13.0431 18.7024 13.1932L20.316 14.1313C20.5787 14.2814 20.7663 14.5817 20.7663 14.9194V16.7957C20.7663 17.0959 20.6162 17.3962 20.316 17.5838L18.7399 18.522C18.4772 18.6721 18.1395 18.6721 17.8393 18.522L16.2256 17.5838C15.9629 17.4337 15.7753 17.1335 15.7753 16.7957V15.5949L14.3493 16.4205V17.6588C14.3493 17.9591 14.4994 18.2593 14.7996 18.4469L17.8393 20.2107C18.102 20.3608 18.4397 20.3608 18.7399 20.2107L21.7796 18.4469C22.0423 18.2968 22.2299 17.9966 22.2299 17.6588V14.0938C22.2299 13.7936 22.0798 13.4934 21.7796 13.3058L18.7399 11.542Z" fill="#8247E5"/>
</g>
</g>
<defs>
<filter id="filter0_d_394_65067" x="0" y="0" width="30" height="30" filterUnits="userSpaceOnUse" color-interpolation-filters="sRGB">
<feFlood flood-opacity="0" result="BackgroundImageFix"/>
<feColorMatrix in="SourceAlpha" type="matrix" values="0 0 0 0 0 0 0 0 0 0 0 0 0 0 0 0 0 0 127 0" result="hardAlpha"/>
<feOffset dy="1"/>
<feGaussianBlur stdDeviation="1.5"/>
<feColorMatrix type="matrix" values="0 0 0 0 0.129412 0 0 0 0 0.105882 0 0 0 0 0.305882 0 0 0 0.15 0"/>
<feBlend mode="normal" in2="BackgroundImageFix" result="effect1_dropShadow_394_65067"/>
<feBlend mode="normal" in="SourceGraphic" in2="effect1_dropShadow_394_65067" result="shape"/>
</filter>
<clipPath id="clip0_394_65067">
<rect width="14.4102" height="12.5714" fill="white" transform="translate(7.85718 7.71436)"/>
</clipPath>
</defs>
</svg>
