<svg
  width="36"
  height="36"
  viewBox="0 0 36 36"
  fill="none"
  xmlns="http://www.w3.org/2000/svg"
>
  <g clip-path="url(#clip0_5119_15692)">
    <path
      d="M18.0217 35.9642C27.9466 35.9642 35.9858 27.9195 35.9858 18.0001C35.9858 8.08068 27.9466 0.0360107 18.0217 0.0360107C8.0967 0.0360107 0.0576172 8.08068 0.0576172 18.0001C0.0576172 27.9195 8.1036 35.9642 18.0217 35.9642Z"
      fill="#FF060A"
    />
    <path
      d="M28.1254 14.775C27.1343 13.8556 25.7577 12.455 24.6427 11.4638L24.5738 11.4207C24.4638 11.3344 24.3399 11.2626 24.2091 11.2123C21.511 10.7096 8.9568 8.3608 8.71594 8.38954C8.6471 8.39673 8.57826 8.4254 8.52322 8.46133L8.46128 8.51163C8.38555 8.59067 8.32361 8.68401 8.28919 8.79172L8.27539 8.83484V9.07189V9.10782C9.68636 13.044 15.2683 25.9298 16.3696 28.9609C16.4384 29.1692 16.5623 29.5571 16.7963 29.5787H16.8514C16.9752 29.5787 17.5122 28.8676 17.5122 28.8676C17.5122 28.8676 27.0999 17.2458 28.0703 16.0104C28.1942 15.8596 28.3043 15.6944 28.4007 15.522C28.4282 15.3855 28.4145 15.249 28.3663 15.1197C28.3181 14.9905 28.2286 14.8684 28.1254 14.775ZM19.9624 16.1326L24.0508 12.7422L26.4529 14.9545L19.9624 16.1326ZM18.3725 15.9099L11.3314 10.1349L22.7293 12.2395L18.3725 15.9099ZM19.0057 17.4182L26.2119 16.2546L17.9733 26.1884L19.0057 17.4182ZM10.3747 10.7168L17.7874 17.0017L16.7137 26.1956L10.3747 10.7168Z"
      fill="white"
    />
  </g>
  <defs>
    <clipPath id="clip0_5119_15692">
      <rect width="36" height="36" fill="white" />
    </clipPath>
  </defs>
</svg>
