<svg width="48" height="48" viewBox="0 0 48 48" fill="none" xmlns="http://www.w3.org/2000/svg">
<rect width="48" height="48" rx="16" fill="#CA2EBD"/>
<path fill-rule="evenodd" clip-rule="evenodd" d="M19.7218 32.6329L10.5 10.498L32.6349 19.7198L23.8111 22.7168C23.9376 22.7578 24.0566 22.8286 24.157 22.9291L31.9832 30.7552C32.3227 31.0948 32.3227 31.6454 31.9832 31.9849C31.6436 32.3245 31.093 32.3245 30.7534 31.9849L22.9273 24.1588C22.8278 24.0593 22.7574 23.9417 22.7162 23.8166L19.7218 32.6329ZM26.3865 35.3832C26.7261 35.0436 27.2767 35.0436 27.6163 35.3832L30.6163 38.3832C30.9559 38.7228 30.9559 39.2733 30.6163 39.6129C30.2767 39.9525 29.7261 39.9525 29.3865 39.6129L26.3865 36.6129C26.047 36.2733 26.047 35.7228 26.3865 35.3832ZM36.6164 26.3832C36.2768 26.0436 35.7262 26.0436 35.3866 26.3832C35.047 26.7228 35.047 27.2733 35.3866 27.6129L38.3866 30.6129C38.7262 30.9525 39.2768 30.9525 39.6164 30.6129C39.956 30.2733 39.956 29.7228 39.6164 29.3832L36.6164 26.3832Z" fill="#F8DEF3"/>
</svg>
