<svg
  width="218"
  height="80"
  viewBox="0 0 218 80"
  fill="none"
  xmlns="http://www.w3.org/2000/svg"
>
  <rect
    x="2"
    y="1.5"
    width="77"
    height="77"
    rx="18.5"
    stroke="#3C356D"
    stroke-width="3"
    stroke-dasharray="4 4"
  />
  <path
    fill-rule="evenodd"
    clip-rule="evenodd"
    d="M38.2433 27.1713L26.3974 39.0172C25.8545 39.56 25.8545 40.4401 26.3974 40.9829L38.2433 52.8288C38.7861 53.3717 39.6662 53.3717 40.209 52.8288C40.7519 52.286 40.7518 51.4059 40.209 50.8631L30.736 41.3901L52.3802 41.3901C53.1479 41.3901 53.7702 40.7677 53.7702 40.0001C53.7702 39.2324 53.1479 38.6101 52.3802 38.6101L30.736 38.6101L40.209 29.137C40.7518 28.5942 40.7518 27.7141 40.209 27.1713C39.6662 26.6285 38.7861 26.6285 38.2433 27.1713Z"
    fill="#736CA3"
  />
  <path
    d="M118.183 42.38H111.379V49.364H106.627V42.38H99.8231V37.988H106.627V31.004H111.379V37.988H118.183V42.38Z"
    fill="#736CA3"
  />
  <rect
    x="139"
    y="1.5"
    width="77"
    height="77"
    rx="38.5"
    stroke="#3C356D"
    stroke-width="3"
  />
  <rect
    x="153.5"
    y="16"
    width="48.0003"
    height="48.0003"
    rx="24.0001"
    fill="#CA2EBD"
  />
  <path
    fill-rule="evenodd"
    clip-rule="evenodd"
    d="M173.22 48.6331L163.999 26.498L186.134 35.7199L177.861 38.5297C177.896 38.5583 177.93 38.5889 177.963 38.6217L185.789 46.4479C186.298 46.9573 186.298 47.7831 185.789 48.2925C185.28 48.8019 184.454 48.8019 183.944 48.2925L176.118 40.4664C176.086 40.4343 176.056 40.401 176.028 40.3666L173.22 48.6331ZM179.577 51.0756C180.087 50.5662 180.913 50.5662 181.422 51.0756L184.422 54.0756C184.931 54.585 184.931 55.4109 184.422 55.9203C183.913 56.4297 183.087 56.4297 182.577 55.9203L179.577 52.9203C179.068 52.4109 179.068 51.585 179.577 51.0756ZM190.422 42.0759C189.913 41.5665 189.087 41.5665 188.578 42.0759C188.068 42.5852 188.068 43.4111 188.578 43.9205L191.578 46.9205C192.087 47.4299 192.913 47.4299 193.422 46.9205C193.932 46.4111 193.932 45.5853 193.422 45.0759L190.422 42.0759Z"
    fill="#F8DEF3"
  />
</svg>
