<svg width="224" height="161" viewBox="0 0 224 161" fill="none" xmlns="http://www.w3.org/2000/svg">
<path d="M95.9819 81.4849L211.817 33.4325C212.294 33.2734 212.772 33.4325 213.09 33.9098C213.249 34.3872 213.09 34.8645 212.612 35.1828L95.9819 81.4849Z" fill="url(#paint0_linear_825_417)"/>
<path d="M125.418 146.882C136.079 136.38 120.645 103.285 90.8907 72.7349C61.1364 42.185 28.1998 25.9554 17.5392 36.2978L14.0387 32.6382C14.0387 32.6382 35.3599 -1.41223 98.8464 63.6654C162.333 128.584 129.237 150.701 129.237 150.701L125.418 146.882Z" fill="url(#paint1_linear_825_417)"/>
<path d="M131.624 155.633C117.781 168.998 79.2751 151.814 45.3838 117.127C11.4925 82.4403 -4.89619 43.4574 8.94672 30.0918L15.7886 23.409C0.513686 57.6185 90.2539 161.52 138.465 149.109L131.624 155.633Z" fill="url(#paint2_linear_825_417)"/>
<path d="M131.624 155.633C117.781 168.998 79.2751 151.814 45.3838 117.127C11.4925 82.4403 -4.89619 43.4574 8.94672 30.0918L15.7886 23.409C0.513686 57.6185 90.2539 161.52 138.465 149.109L131.624 155.633Z" fill="url(#paint3_linear_825_417)"/>
<path d="M102.029 61.7562C68.1372 27.0694 29.6317 9.8851 15.7888 23.2507C1.94585 36.6162 18.3346 75.7583 52.2258 110.445C86.1171 145.132 124.782 162.316 138.466 148.951C152.149 135.585 135.92 96.4431 102.029 61.7562ZM58.7495 103.921C28.9952 73.5307 13.5612 40.2759 24.2218 29.9335C34.8824 19.4319 67.6599 35.6616 97.5733 66.2114C127.487 96.7613 142.921 129.857 132.101 140.359C121.44 150.86 88.6629 134.471 58.7495 103.921Z" fill="url(#paint4_linear_825_417)"/>
<path d="M24.5402 29.1376C23.4264 30.2514 22.4718 31.6834 21.9944 33.2746C22.4718 32.0016 23.2673 30.7287 24.222 29.774C34.8826 19.4316 67.6601 35.6613 97.5735 66.2111C98.21 66.8476 98.8464 67.484 99.4829 68.1205C98.3691 67.0067 97.2553 65.8929 96.1415 64.62C67.0237 34.8657 34.8826 18.9543 24.5402 29.1376Z" fill="url(#paint5_linear_825_417)"/>
<path d="M50.6342 108.535C45.5426 103.284 40.7692 97.8745 36.4731 92.6238C41.0874 98.6701 46.3382 104.557 52.0663 110.445C85.9575 145.131 124.622 162.316 138.306 148.95C139.102 148.155 139.897 147.2 140.374 146.245C139.897 146.882 139.42 147.359 138.942 147.995C124.94 161.838 85.3211 144.177 50.6342 108.535Z" fill="url(#paint6_linear_825_417)"/>
<path d="M126.85 121.105C128.282 124.128 137.988 121.741 146.58 117.764C155.013 113.786 163.287 108.058 161.855 104.875L158.514 97.5562L123.509 113.786L126.85 121.105Z" fill="#390176"/>
<path d="M127.327 120.946C128.441 123.332 136.874 121.741 146.262 117.286C155.65 112.99 162.333 107.58 161.219 105.193L158.036 98.3515L124.145 114.104L127.327 120.946Z" fill="url(#paint7_linear_825_417)"/>
<path d="M143.219 110.597C152.868 106.128 159.701 100.371 158.482 97.7401C157.263 95.1087 148.454 96.5984 138.805 101.067C129.157 105.537 122.324 111.293 123.542 113.924C124.761 116.555 133.571 115.066 143.219 110.597Z" fill="#390176"/>
<path d="M142.921 110.126C133.533 114.422 125.1 116.013 123.986 113.786C122.873 111.558 129.555 105.989 138.943 101.693C148.331 97.3969 156.764 95.8058 157.878 98.0334C158.991 100.261 152.309 105.671 142.921 110.126Z" fill="url(#paint8_linear_825_417)"/>
<path opacity="0.7" d="M151.513 97.2381C148.172 97.8746 143.716 99.3066 138.943 101.534C129.555 105.83 122.873 111.24 123.986 113.627C125.1 116.014 133.533 114.422 142.921 109.967C139.42 110.604 137.034 110.445 136.556 109.331C135.443 107.103 142.125 101.534 151.513 97.2381Z" fill="url(#paint9_linear_825_417)"/>
<path opacity="0.6" d="M124.623 113.468C123.509 111.081 130.192 105.671 139.579 101.375C143.557 99.466 147.535 98.1931 150.717 97.3975C147.376 98.1931 143.239 99.466 138.943 101.534C129.555 105.831 122.872 111.24 123.986 113.627C124.623 114.9 127.646 115.059 131.783 113.945C127.964 114.9 125.259 114.741 124.623 113.468Z" fill="white"/>
<path opacity="0.3" d="M157.4 98.0338C158.514 100.42 151.831 105.83 142.444 110.126C138.466 112.036 134.488 113.309 131.306 114.104C134.647 113.309 138.784 112.036 143.08 109.967C152.468 105.671 159.151 100.261 158.037 97.8746C157.4 96.6017 154.377 96.4426 150.24 97.5564C154.059 96.7608 156.764 96.7608 157.4 98.0338Z" fill="white"/>
<path d="M142.458 109.29C150.273 105.67 155.889 101.185 155.002 99.2709C154.116 97.3571 147.063 98.74 139.248 102.36C131.434 105.979 125.818 110.465 126.704 112.378C127.59 114.292 134.644 112.909 142.458 109.29Z" fill="#390176"/>
<path d="M142.444 109.33C134.806 112.831 127.964 114.104 127.169 112.354C126.373 110.603 131.783 106.148 139.261 102.648C146.899 99.1471 153.741 97.8742 154.536 99.6244C155.491 101.375 150.081 105.671 142.444 109.33Z" fill="url(#paint10_linear_825_417)"/>
<path opacity="0.2" d="M148.808 99.6247C149.444 99.3064 150.081 98.9882 150.717 98.67C147.853 98.9882 143.557 100.261 139.102 102.33C131.624 105.83 126.214 110.126 127.009 112.036C127.805 113.786 133.533 112.831 140.216 109.967C138.306 110.126 136.874 109.967 136.556 109.171C135.92 107.58 141.329 103.125 148.808 99.6247Z" fill="url(#paint11_linear_825_417)"/>
<g opacity="0.6">
<path opacity="0.3" d="M128.123 111.876C127.328 109.967 132.737 105.671 140.216 102.171C142.602 101.057 144.83 100.261 146.899 99.6247C144.671 100.261 141.966 101.216 139.42 102.489C131.783 105.989 126.373 110.285 127.328 112.195C127.964 113.468 131.465 113.308 135.92 111.876C131.783 112.99 128.6 113.149 128.123 111.876Z" fill="#3F3B44"/>
</g>
<g opacity="0.6">
<path opacity="0.3" d="M153.74 99.7834C154.536 101.693 149.126 105.989 141.648 109.489C139.261 110.603 137.033 111.399 134.965 112.035C137.192 111.399 139.897 110.444 142.443 109.171C150.081 105.671 155.491 101.374 154.536 99.4651C153.899 98.1922 150.399 98.3513 145.944 99.7834C150.081 98.6696 153.104 98.5104 153.74 99.7834Z" fill="#3F3B44"/>
</g>
<path d="M131.942 109.808C131.464 108.853 133.851 106.785 137.351 104.875C137.829 104.716 138.306 104.398 138.624 104.239C142.92 102.33 146.739 101.534 147.217 102.648C147.376 102.807 147.217 103.125 147.057 103.443C147.535 103.125 148.171 102.966 148.649 102.807C149.126 102.648 149.444 102.648 149.603 102.648C149.603 102.648 149.762 102.648 149.762 102.807C149.921 102.966 149.603 103.443 149.126 103.921C148.489 104.557 147.853 105.034 147.057 105.512C146.58 105.83 145.944 105.989 145.466 106.148C145.148 106.148 144.989 106.307 144.83 106.148C144.671 106.148 144.512 106.148 144.512 105.989C144.512 105.989 144.352 105.989 144.352 106.148C143.239 106.944 141.807 107.58 140.375 108.376C140.056 108.535 139.738 108.694 139.42 108.853C135.76 110.285 132.419 110.922 131.942 109.808Z" fill="#390176"/>
<path d="M147.058 105.353C147.694 105.034 148.331 104.557 148.808 103.92C149.285 103.443 149.444 103.125 149.444 102.966C149.444 102.966 149.444 102.966 149.285 102.966C149.126 102.966 148.967 102.966 148.649 103.125C148.171 103.284 147.694 103.443 147.376 103.602C147.217 103.602 147.217 103.761 147.058 103.761C146.899 103.761 146.739 103.761 146.739 103.761C146.899 103.443 147.058 103.125 146.899 102.966C146.421 102.011 142.762 102.648 138.784 104.398C138.306 104.557 137.988 104.875 137.511 105.034C134.169 106.785 131.942 108.694 132.419 109.649C132.897 110.603 135.92 110.126 139.579 108.535C139.898 108.376 140.216 108.217 140.534 108.217C141.966 107.58 143.239 106.785 144.353 106.148C144.671 105.989 144.989 105.989 145.148 105.83V105.989L145.307 106.148C145.467 106.148 145.626 106.148 145.785 106.148C146.262 105.83 146.739 105.671 147.058 105.353Z" fill="#94512A"/>
<path d="M147.853 105.034C148.49 104.716 149.126 104.239 149.603 103.602C150.081 103.125 150.24 102.807 150.24 102.648C150.24 102.648 150.24 102.648 150.081 102.648C149.922 102.648 149.763 102.648 149.444 102.807C148.967 102.966 148.49 103.125 148.171 103.284C148.012 103.284 148.012 103.443 147.853 103.443C147.694 103.443 147.535 103.443 147.535 103.443C147.694 103.125 147.853 102.807 147.694 102.648C147.217 101.693 143.557 102.329 139.579 104.08C139.102 104.239 138.784 104.557 138.306 104.716C134.965 106.466 132.737 108.376 133.215 109.33C133.692 110.285 136.715 109.808 140.375 108.217C140.693 108.058 141.011 107.898 141.33 107.898C142.762 107.262 144.034 106.466 145.148 105.83C145.467 105.671 145.785 105.671 145.944 105.512V105.671L146.103 105.83C146.262 105.83 146.421 105.83 146.58 105.83C147.058 105.353 147.535 105.193 147.853 105.034Z" fill="url(#paint12_linear_825_417)"/>
<path d="M147.853 105.034C148.49 104.716 149.126 104.239 149.603 103.602C150.081 103.125 150.24 102.807 150.24 102.648C150.24 102.648 150.24 102.648 150.081 102.648C149.922 102.648 149.763 102.648 149.444 102.807C148.967 102.966 148.49 103.125 148.171 103.284C148.012 103.284 148.012 103.443 147.853 103.443C147.694 103.443 147.535 103.443 147.535 103.443C147.694 103.125 147.853 102.807 147.694 102.648C147.217 101.693 143.557 102.329 139.579 104.08C139.102 104.239 138.784 104.557 138.306 104.716C134.965 106.466 132.737 108.376 133.215 109.33C133.692 110.285 136.715 109.808 140.375 108.217C140.693 108.058 141.011 107.898 141.33 107.898C142.762 107.262 144.034 106.466 145.148 105.83C145.467 105.671 145.785 105.671 145.944 105.512V105.671L146.103 105.83C146.262 105.83 146.421 105.83 146.58 105.83C147.058 105.353 147.535 105.193 147.853 105.034Z" fill="url(#paint13_linear_825_417)"/>
<path d="M132.737 109.49C132.26 108.535 134.646 106.467 138.147 104.557C138.624 104.398 139.102 104.08 139.42 103.921C143.716 102.011 147.535 101.216 148.012 102.33C148.171 102.489 148.012 102.807 147.853 103.125C148.33 102.807 148.967 102.648 149.444 102.489C149.921 102.33 150.24 102.33 150.399 102.33C150.399 102.33 150.558 102.33 150.558 102.489C150.717 102.648 150.399 103.125 149.921 103.603C149.285 104.239 148.649 104.716 147.853 105.194C147.376 105.512 146.739 105.671 146.262 105.83C145.944 105.83 145.784 105.989 145.625 105.83C145.466 105.83 145.307 105.83 145.307 105.671C145.307 105.671 145.148 105.671 145.148 105.83C144.034 106.626 142.602 107.262 141.17 108.058C140.852 108.217 140.534 108.376 140.215 108.535C136.556 109.967 133.214 110.444 132.737 109.49Z" fill="#390176"/>
<path d="M147.853 105.034C148.49 104.716 149.126 104.239 149.603 103.602C150.081 103.125 150.24 102.807 150.24 102.648C150.24 102.648 150.24 102.648 150.081 102.648C149.922 102.648 149.763 102.648 149.444 102.807C148.967 102.966 148.49 103.125 148.171 103.284C148.012 103.284 148.012 103.443 147.853 103.443C147.694 103.443 147.535 103.443 147.535 103.443C147.694 103.125 147.853 102.807 147.694 102.648C147.217 101.693 143.557 102.329 139.579 104.08C139.102 104.239 138.784 104.557 138.306 104.716C134.965 106.466 132.737 108.376 133.215 109.33C133.692 110.285 136.715 109.808 140.375 108.217C140.693 108.058 141.011 107.898 141.33 107.898C142.762 107.262 144.034 106.466 145.148 105.83C145.467 105.671 145.785 105.671 145.944 105.512V105.671L146.103 105.83C146.262 105.83 146.421 105.83 146.58 105.83C147.058 105.353 147.535 105.193 147.853 105.034Z" fill="url(#paint14_linear_825_417)"/>
<path d="M140.534 108.216C136.874 109.808 133.692 110.285 133.374 109.33C132.897 108.376 135.124 106.466 138.465 104.716C140.534 104.398 141.807 104.557 142.125 105.193C142.443 105.83 141.807 106.944 140.534 108.216Z" fill="url(#paint15_linear_825_417)"/>
<path d="M90.2537 101.694L176.812 83.8728C177.13 83.8728 177.448 84.0319 177.607 84.3502C177.766 84.6684 177.448 84.9866 177.13 85.1457L90.2537 101.694Z" fill="url(#paint16_linear_825_417)"/>
<g opacity="0.6">
<path d="M97.7321 127.311L164.401 133.675C164.719 133.675 164.878 133.993 164.878 134.152C164.878 134.471 164.56 134.63 164.401 134.63L97.7321 127.311Z" fill="url(#paint17_linear_825_417)"/>
</g>
<path d="M38.701 58.5736L42.2015 8.61182C42.2015 8.45271 42.3606 8.29359 42.5197 8.29359C42.6788 8.29359 42.8379 8.45271 42.8379 8.61182L38.701 58.5736Z" fill="url(#paint18_linear_825_417)"/>
<path d="M62.5683 96.283L91.2088 28.8187C91.3679 28.5005 91.6861 28.3413 91.8452 28.5005C92.1635 28.6596 92.3226 28.9778 92.1635 29.1369L62.5683 96.283Z" fill="url(#paint19_linear_825_417)"/>
<path d="M64.6367 64.3018L77.8431 7.81632C77.8431 7.65721 78.1613 7.49809 78.3205 7.49809C78.4796 7.49809 78.6387 7.81632 78.6387 7.97543L64.6367 64.3018Z" fill="url(#paint20_linear_825_417)"/>
<path d="M69.0917 94.8513L167.583 32.7968C168.061 32.4786 168.538 32.6377 168.697 33.1151C168.856 33.5924 168.856 34.0697 168.379 34.2289L69.0917 94.8513Z" fill="url(#paint21_linear_825_417)"/>
<mask id="mask0_825_417" style="mask-type:luminance" maskUnits="userSpaceOnUse" x="20" y="26" width="116" height="118">
<path d="M132.068 140.393C142.76 129.959 127.294 96.7718 97.5237 66.2687C67.7537 35.7656 34.9529 19.497 24.2611 29.9319C13.5693 40.3668 29.0352 73.5535 58.8053 104.057C88.5753 134.56 121.376 150.828 132.068 140.393Z" fill="white"/>
</mask>
<g mask="url(#mask0_825_417)">
<path d="M61.4544 95.3274C53.1805 101.055 40.7696 97.555 33.6095 87.3717C26.4493 77.1884 27.7222 64.3002 35.9962 58.5721L40.6105 55.3898L66.0687 92.1451L61.4544 95.3274Z" fill="#390176"/>
<path d="M61.1361 94.6911C53.1804 100.26 41.0877 96.7596 34.2458 86.8945C27.4039 77.0295 28.3586 64.4594 36.4734 58.8905L40.6104 56.0264L65.2731 91.827L61.1361 94.6911Z" fill="url(#paint22_linear_825_417)"/>
<path d="M66.415 91.9776C74.6527 86.2775 75.6153 73.3969 68.5651 63.2082C61.5149 53.0194 49.1216 49.3807 40.8839 55.0809C32.6462 60.7811 31.6835 73.6616 38.7337 83.8504C45.7839 94.0391 58.1773 97.6778 66.415 91.9776Z" fill="#390176"/>
<path d="M68.1369 63.5048C74.9788 73.3699 74.0241 85.7808 66.0684 91.3498C58.1127 96.9188 46.0201 93.4182 39.1782 83.5532C32.3363 73.6881 33.2909 61.1181 41.2466 55.7082C49.2023 50.2984 61.4541 53.6398 68.1369 63.5048Z" fill="url(#paint23_linear_825_417)"/>
<path opacity="0.7" d="M34.7229 68.1194C34.4047 73.211 35.8367 78.6209 39.1781 83.5534C46.02 93.4185 58.1127 96.919 66.0684 91.35C74.0241 85.781 75.1379 73.3702 68.296 63.5051C67.9777 68.5967 65.591 73.211 61.6132 75.916C53.4984 81.485 41.5648 77.9845 34.7229 68.1194Z" fill="url(#paint24_linear_825_417)"/>
<path opacity="0.6" d="M66.0683 90.3942C58.1126 95.9632 46.0199 92.4627 39.178 82.5976C36.314 78.3016 34.7228 73.6873 34.5637 69.2321C34.4046 74.0055 35.9957 79.0971 39.178 83.5523C46.0199 93.4174 58.1126 96.9179 66.0683 91.3489C70.6826 88.1666 72.9102 82.7568 72.7511 76.8695C72.5919 82.4385 70.3644 87.3711 66.0683 90.3942Z" fill="white"/>
<path opacity="0.3" d="M41.2469 56.504C49.2026 50.935 61.2952 54.4356 68.1371 64.3006C71.0012 68.5967 72.5923 73.211 72.7514 77.6662C72.9106 72.8928 71.3194 67.8011 68.1371 63.3459C61.2952 53.4809 49.3617 49.9804 41.2469 55.5494C36.6326 58.7316 34.405 64.1415 34.5641 70.0287C34.7232 64.6188 36.9508 59.5272 41.2469 56.504Z" fill="white"/>
<path d="M64.1516 88.4404C70.7996 83.8402 71.5679 73.4331 65.8678 65.1954C60.1676 56.9577 50.1574 54.0089 43.5095 58.609C36.8615 63.2092 36.0931 73.6163 41.7933 81.854C47.4935 90.0917 57.5036 93.0405 64.1516 88.4404Z" fill="#390176"/>
<path d="M65.2728 65.5729C70.8417 73.5286 70.0462 83.5528 63.6816 88.008C57.3171 92.4632 47.6111 89.5991 42.0421 81.6434C36.4731 73.6877 37.2687 63.6636 43.6333 59.2084C49.9978 54.7532 59.8629 57.6172 65.2728 65.5729Z" fill="url(#paint25_linear_825_417)"/>
<path opacity="0.2" d="M40.292 69.0731C39.8147 68.4366 39.3373 67.6411 39.0191 66.8455C37.9053 71.4598 39.0191 76.8697 42.2014 81.6431C47.6113 89.5988 57.3172 92.3037 63.8409 87.8485C69.7281 83.7116 70.8419 75.1194 66.864 67.6411C66.2276 70.8233 64.4773 73.5283 61.9315 75.2785C55.4078 79.8928 45.7019 77.0288 40.292 69.0731Z" fill="url(#paint26_linear_825_417)"/>
<g opacity="0.6">
<path opacity="0.3" d="M63.5226 86.8944C57.158 91.3496 47.4521 88.4856 41.8831 80.5299C40.1328 78.1432 39.019 75.4382 38.5417 72.7333C39.019 75.7564 40.1328 78.7796 42.0422 81.6437C47.6112 89.5994 57.158 92.4634 63.6817 88.0082C68.1369 84.9851 69.8871 79.2569 68.6142 73.2106C69.4098 78.7796 67.6595 84.0304 63.5226 86.8944Z" fill="#3F3B44"/>
</g>
<g opacity="0.6">
<path opacity="0.3" d="M43.9518 60.3222C50.3164 55.867 60.0223 58.731 65.5913 66.6867C67.3415 69.0734 68.4554 71.7784 68.9327 74.4833C68.4554 71.4602 67.3415 68.437 65.4322 65.5729C59.8632 57.6172 50.3164 54.7532 43.7927 59.2084C39.3375 62.2315 37.5873 67.9596 38.8602 74.006C38.0646 68.437 39.8148 63.1862 43.9518 60.3222Z" fill="#3F3B44"/>
</g>
<path d="M59.8625 83.2356C56.5211 85.4632 51.9068 84.6677 48.5654 81.1672C48.2471 80.6898 47.7698 80.3716 47.4516 79.8942C44.4284 75.4391 44.9058 69.711 48.5654 67.1651C49.2018 66.6878 49.9974 66.3696 50.9521 66.0513C50.4747 65.7331 50.1565 64.9375 49.9974 64.3011C49.8383 63.6646 49.9974 63.1873 50.3156 62.7099C50.4747 62.5508 50.4747 62.5508 50.6339 62.3917C51.2703 61.9144 52.3841 61.7553 53.657 61.9144C55.2482 62.0735 56.2028 62.5508 56.9984 63.1873C57.4758 63.6646 57.794 64.3011 57.794 64.9375C57.794 65.2558 57.794 65.574 57.6349 65.8922C57.4758 66.2104 57.3166 66.3696 56.9984 66.5287C56.9984 66.5287 56.8393 66.5287 56.8393 66.6878C56.8393 66.8469 56.8393 66.8469 56.9984 67.006C58.5895 67.8016 59.8625 69.0745 60.9763 70.5065C61.1354 70.8248 61.4536 71.143 61.6127 71.4612C63.9994 75.7573 63.2039 80.8489 59.8625 83.2356Z" fill="#390176"/>
<path d="M56.6807 63.5047C56.0443 62.8682 55.0896 62.55 53.6576 62.3909C52.5438 62.2317 51.5891 62.3909 50.9526 62.8682C50.7935 63.0273 50.7935 63.0273 50.6344 63.1864C50.4753 63.5047 50.3162 63.8229 50.4753 64.3002C50.6344 64.7776 50.9526 65.414 51.2709 65.7323C51.43 65.8914 51.5891 65.8914 51.7482 65.8914C51.5891 66.2096 51.5891 66.3687 51.43 66.5278C50.4753 66.6869 49.6797 67.0052 48.8841 67.6416C45.3836 70.0283 44.9063 75.4382 47.9295 79.5752C48.2477 80.0525 48.5659 80.5299 48.8841 80.8481C51.9073 84.0304 56.3625 84.985 59.3857 82.9166C62.5679 80.689 63.2044 75.9155 60.9768 71.9377C60.8177 71.6195 60.6586 71.3012 60.3403 70.983C59.2265 69.3919 57.9536 68.2781 56.3625 67.4825C56.2034 67.1643 56.0443 66.8461 56.0443 66.3687C56.2034 66.3687 56.3625 66.2096 56.5216 66.2096C56.6807 66.0505 56.8398 65.8914 56.9989 65.7323C57.1581 65.5731 57.1581 65.2549 57.1581 65.0958C57.3172 64.3002 56.9989 63.8229 56.6807 63.5047Z" fill="#94512A"/>
<path d="M56.0439 62.7092C55.4075 62.0728 54.4528 61.7546 53.0207 61.5954C51.9069 61.4363 50.9523 61.5954 50.3158 62.0728C50.1567 62.2319 50.1567 62.2319 49.9976 62.391C49.8385 62.7092 49.6794 63.0275 49.8385 63.5048C49.9976 63.9822 50.3158 64.6186 50.634 64.9368C50.7932 65.096 50.9523 65.096 51.1114 65.096C50.9523 65.4142 50.9523 65.5733 50.7932 65.7324C49.8385 65.8915 49.0429 66.2098 48.2473 66.8462C44.7468 69.2329 44.2695 74.6428 47.2926 78.7798C47.6109 79.2571 47.9291 79.7344 48.2473 80.0527C51.2705 83.2349 55.7257 84.1896 58.7489 82.1211C61.9311 79.8936 62.5676 75.1201 60.34 71.1423C60.1809 70.8241 60.0218 70.5058 59.7035 70.1876C58.5897 68.5965 57.3168 67.4827 55.7257 66.6871C55.5666 66.3689 55.4075 66.0506 55.4075 65.5733C55.5666 65.5733 55.7257 65.4142 55.8848 65.4142C56.0439 65.2551 56.203 65.096 56.3621 64.9368C56.5213 64.7777 56.5213 64.4595 56.5213 64.3004C56.6804 63.5048 56.3621 63.0275 56.0439 62.7092Z" fill="url(#paint27_linear_825_417)"/>
<path d="M56.0439 62.7092C55.4075 62.0728 54.4528 61.7546 53.0207 61.5954C51.9069 61.4363 50.9523 61.5954 50.3158 62.0728C50.1567 62.2319 50.1567 62.2319 49.9976 62.391C49.8385 62.7092 49.6794 63.0275 49.8385 63.5048C49.9976 63.9822 50.3158 64.6186 50.634 64.9368C50.7932 65.096 50.9523 65.096 51.1114 65.096C50.9523 65.4142 50.9523 65.5733 50.7932 65.7324C49.8385 65.8915 49.0429 66.2098 48.2473 66.8462C44.7468 69.2329 44.2695 74.6428 47.2926 78.7798C47.6109 79.2571 47.9291 79.7344 48.2473 80.0527C51.2705 83.2349 55.7257 84.1896 58.7489 82.1211C61.9311 79.8936 62.5676 75.1201 60.34 71.1423C60.1809 70.8241 60.0218 70.5058 59.7035 70.1876C58.5897 68.5965 57.3168 67.4827 55.7257 66.6871C55.5666 66.3689 55.4075 66.0506 55.4075 65.5733C55.5666 65.5733 55.7257 65.4142 55.8848 65.4142C56.0439 65.2551 56.203 65.096 56.3621 64.9368C56.5213 64.7777 56.5213 64.4595 56.5213 64.3004C56.6804 63.5048 56.3621 63.0275 56.0439 62.7092Z" fill="url(#paint28_linear_825_417)"/>
<path d="M59.2265 82.2799C55.8851 84.5075 51.2708 83.7119 47.9294 80.2114C47.6112 79.734 47.1338 79.4158 46.8156 78.9385C43.7924 74.4833 44.2698 68.7552 47.9294 66.2094C48.5658 65.732 49.3614 65.4138 50.3161 65.0956C49.8388 64.7773 49.5205 63.9818 49.3614 63.3453C49.2023 62.7088 49.3614 62.2315 49.6796 61.7542C49.8388 61.595 49.8388 61.4359 49.9979 61.4359C50.6343 60.9586 51.7481 60.7995 53.021 60.9586C54.6122 61.1177 55.5669 61.595 56.3624 62.2315C56.8398 62.7088 57.158 63.3453 57.158 63.9818C57.158 64.3 57.158 64.6182 56.9989 64.9364C56.8398 65.2547 56.6807 65.4138 56.3624 65.5729C56.3624 65.5729 56.2033 65.5729 56.2033 65.732C56.2033 65.8911 56.2033 65.8911 56.3624 66.0502C57.9536 66.8458 59.2265 68.1187 60.3403 69.5507C60.4994 69.869 60.8176 70.1872 60.9767 70.5054C63.3634 74.9606 62.5679 80.0523 59.2265 82.2799Z" fill="#390176"/>
<path d="M56.0439 62.7092C55.4075 62.0728 54.4528 61.7546 53.0207 61.5954C51.9069 61.4363 50.9523 61.5954 50.3158 62.0728C50.1567 62.2319 50.1567 62.2319 49.9976 62.391C49.8385 62.7092 49.6794 63.0275 49.8385 63.5048C49.9976 63.9822 50.3158 64.6186 50.634 64.9368C50.7932 65.096 50.9523 65.096 51.1114 65.096C50.9523 65.4142 50.9523 65.5733 50.7932 65.7324C49.8385 65.8915 49.0429 66.2098 48.2473 66.8462C44.7468 69.2329 44.2695 74.6428 47.2926 78.7798C47.6109 79.2571 47.9291 79.7344 48.2473 80.0527C51.2705 83.2349 55.7257 84.1896 58.7489 82.1211C61.9311 79.8936 62.5676 75.1201 60.34 71.1423C60.1809 70.8241 60.0218 70.5058 59.7035 70.1876C58.5897 68.5965 57.3168 67.4827 55.7257 66.6871C55.5666 66.3689 55.4075 66.0506 55.4075 65.5733C55.5666 65.5733 55.7257 65.4142 55.8848 65.4142C56.0439 65.2551 56.203 65.096 56.3621 64.9368C56.5213 64.7777 56.5213 64.4595 56.5213 64.3004C56.6804 63.5048 56.3621 63.0275 56.0439 62.7092Z" fill="url(#paint29_linear_825_417)"/>
<path d="M60.4994 70.8245C62.727 74.8023 62.0906 79.5757 58.9083 81.8033C55.8851 83.8718 51.4299 83.0762 48.4068 79.7348C48.725 76.7117 50.3161 74.0067 52.7028 72.2565C54.9304 70.8245 57.7945 70.3471 60.4994 70.8245Z" fill="url(#paint30_linear_825_417)"/>
</g>
<mask id="mask1_825_417" style="mask-type:luminance" maskUnits="userSpaceOnUse" x="20" y="26" width="116" height="118">
<path d="M132.068 140.393C142.76 129.959 127.294 96.7718 97.5237 66.2687C67.7537 35.7656 34.9529 19.497 24.2611 29.9319C13.5693 40.3668 29.0352 73.5535 58.8053 104.057C88.5753 134.56 121.376 150.828 132.068 140.393Z" fill="white"/>
</mask>
<g mask="url(#mask1_825_417)">
<path d="M76.5698 142.266C81.5024 145.13 90.0945 139.243 95.9817 128.901C102.028 118.558 102.824 108.216 97.8911 105.352L91.2083 101.533L69.8871 138.447L76.5698 142.266Z" fill="#390176"/>
<path d="M76.888 141.789C81.5023 144.494 89.7763 138.448 95.5044 128.583C101.232 118.717 102.187 108.534 97.5728 105.829L91.3674 102.329L70.6826 138.288L76.888 141.789Z" fill="url(#paint31_linear_825_417)"/>
<path d="M89.0614 124.957C94.9373 114.753 95.7497 104.205 90.8758 101.399C86.002 98.5925 77.2876 104.59 71.4117 114.794C65.5358 124.999 64.7234 135.546 69.5972 138.353C74.471 141.159 83.1854 135.162 89.0614 124.957Z" fill="#390176"/>
<path d="M88.5036 124.605C82.7755 134.47 74.5016 140.516 69.8873 137.811C65.273 135.106 66.2276 125.082 71.9557 115.058C77.6838 105.193 85.9578 99.1465 90.5721 101.851C95.1864 104.397 94.2317 114.581 88.5036 124.605Z" fill="url(#paint32_linear_825_417)"/>
<path opacity="0.7" d="M81.6617 103.76C78.3203 106.147 74.8198 110.125 71.9557 115.058C66.2276 124.923 65.2729 135.106 69.8872 137.811C74.5015 140.516 82.7755 134.469 88.5036 124.604C85.1622 126.991 81.8208 127.787 79.5932 126.514C74.9789 123.809 75.9336 113.625 81.6617 103.76Z" fill="url(#paint33_linear_825_417)"/>
<path opacity="0.6" d="M70.5238 137.175C65.9095 134.47 66.8642 124.446 72.5923 114.421C74.979 110.125 78.0021 106.625 80.8662 104.238C77.6839 106.625 74.5016 110.444 71.9558 114.899C66.2277 124.764 65.273 134.947 69.8873 137.652C72.4332 139.084 76.2519 137.811 80.2297 134.629C76.5701 137.652 72.9105 138.607 70.5238 137.175Z" fill="white"/>
<path opacity="0.3" d="M89.9355 102.329C94.5498 105.034 93.5951 115.058 87.867 125.082C85.4803 129.378 82.4572 132.879 79.5931 135.266C82.7754 132.879 85.9577 129.06 88.5035 124.605C94.2316 114.74 95.1863 104.557 90.572 101.852C88.0261 100.42 84.2074 101.692 80.2296 104.875C83.8892 102.011 87.5488 100.897 89.9355 102.329Z" fill="white"/>
<path d="M87.1746 123.738C91.9542 115.438 92.7422 106.931 88.9345 104.739C85.1268 102.546 78.1654 107.498 73.3858 115.799C68.6061 124.099 67.8181 132.606 71.6258 134.798C75.4335 136.991 82.3949 132.039 87.1746 123.738Z" fill="#390176"/>
<path d="M86.7529 123.649C82.1386 131.605 75.4558 136.537 71.7962 134.31C68.1366 132.241 68.9322 123.967 73.5465 116.012C78.1608 108.056 84.8436 103.124 88.5032 105.351C92.1628 107.42 91.3672 115.694 86.7529 123.649Z" fill="url(#paint34_linear_825_417)"/>
<path opacity="0.2" d="M81.6617 108.215C82.139 107.579 82.4572 106.783 82.9346 106.147C79.7523 107.897 76.4109 111.398 73.5469 116.171C68.9326 124.127 68.2961 132.242 71.9557 134.469C75.2971 136.379 81.1843 132.56 85.6395 125.877C83.571 126.991 81.5026 127.309 80.0705 126.514C76.2518 124.286 77.0474 116.171 81.6617 108.215Z" fill="url(#paint35_linear_825_417)"/>
<g opacity="0.6">
<path opacity="0.3" d="M72.5922 133.674C68.9326 131.605 69.7282 123.331 74.3425 115.376C75.7745 112.989 77.3656 110.761 79.1159 109.011C77.2065 110.92 75.2972 113.307 73.706 116.171C69.0917 124.127 68.2962 132.401 71.9558 134.469C74.5016 135.901 78.4794 133.992 82.1391 130.173C78.4794 133.515 74.9789 134.947 72.5922 133.674Z" fill="#3F3B44"/>
</g>
<g opacity="0.6">
<path opacity="0.3" d="M87.8674 106.147C91.527 108.215 90.7314 116.489 86.1171 124.445C84.6851 126.832 83.094 129.059 81.3437 130.81C83.2531 128.9 85.1625 126.514 86.7536 123.649C91.3679 115.694 92.1635 107.42 88.5038 105.351C85.958 103.919 81.9802 105.829 78.3206 109.647C81.8211 106.306 85.4807 104.715 87.8674 106.147Z" fill="#3F3B44"/>
</g>
<path d="M74.5013 129.219C72.592 128.105 72.7511 124.445 74.6605 120.308C74.8196 119.831 75.1378 119.354 75.456 118.876C78.0018 114.421 81.8206 111.716 83.8891 112.989C84.3664 113.148 84.6846 113.626 84.8438 114.103C85.0029 113.626 85.4802 112.989 85.7984 112.512C86.1167 112.034 86.594 111.875 86.9122 111.875C87.0713 111.875 87.0713 111.875 87.2305 112.034C87.5487 112.194 87.8669 112.989 87.8669 113.785C87.8669 114.899 87.7078 115.853 87.3896 116.808C87.0713 117.444 86.7531 117.922 86.2758 118.399C86.1167 118.558 85.7984 118.717 85.6393 118.717C85.4802 118.717 85.3211 118.717 85.162 118.717C85.162 118.717 85.162 118.717 85.0029 118.717L84.8438 118.876C84.6846 119.99 83.8891 121.581 83.0935 123.172C82.9344 123.491 82.7753 123.809 82.457 124.127C79.9112 128.105 76.5698 130.173 74.5013 129.219Z" fill="#390176"/>
<path d="M87.2307 116.49C87.5489 115.694 87.708 114.899 87.5489 113.944C87.5489 113.148 87.2307 112.512 86.9125 112.353H86.7533C86.5942 112.353 86.276 112.512 85.9578 112.83C85.6395 113.148 85.3213 113.785 85.1622 114.103C85.1622 114.262 85.1622 114.421 85.0031 114.421C84.844 114.421 84.6849 114.58 84.5257 114.58C84.3666 114.103 84.0484 113.626 83.5711 113.466C81.6617 112.353 78.0021 114.899 75.6154 119.035C75.2971 119.513 75.138 119.99 74.9789 120.468C73.2287 124.286 73.0695 127.787 74.8198 128.741C76.57 129.855 79.9114 127.787 82.2981 124.127C82.4573 123.809 82.6164 123.491 82.9346 123.172C83.8893 121.581 84.3666 119.99 84.844 118.717C85.0031 118.399 85.3213 118.24 85.4804 117.922C85.4804 118.081 85.6395 118.081 85.6395 118.081C85.7987 118.081 85.9578 118.081 85.9578 118.081C86.1169 118.081 86.276 117.922 86.4351 117.763C86.7533 117.444 87.0716 116.967 87.2307 116.49Z" fill="#94512A"/>
<path d="M87.7075 115.694C88.0258 114.899 88.1849 114.103 88.0258 113.148C88.0258 112.353 87.7076 111.716 87.3893 111.557H87.2302C87.0711 111.557 86.7529 111.716 86.4346 112.035C86.1164 112.353 85.7982 112.989 85.6391 113.307C85.6391 113.467 85.6391 113.626 85.48 113.626C85.3208 113.626 85.1617 113.626 85.1617 113.626C85.0026 113.148 84.6844 112.671 84.207 112.512C82.2977 111.398 78.6381 113.944 76.2514 118.081C75.9331 118.558 75.774 119.036 75.6149 119.513C73.8646 123.332 73.7055 126.832 75.4558 127.787C77.206 128.901 80.5474 126.832 82.9341 123.172C83.0932 122.854 83.2524 122.536 83.5706 122.218C84.5253 120.627 85.0026 119.036 85.48 117.763C85.6391 117.444 85.9573 117.285 86.1164 116.967C86.1164 117.126 86.2755 117.126 86.2755 117.126C86.4346 117.126 86.5938 117.126 86.5938 117.126C86.7529 117.126 86.912 116.967 87.0711 116.808C87.0711 116.649 87.3893 116.171 87.7075 115.694Z" fill="url(#paint36_linear_825_417)"/>
<path d="M87.7075 115.694C88.0258 114.899 88.1849 114.103 88.0258 113.148C88.0258 112.353 87.7076 111.716 87.3893 111.557H87.2302C87.0711 111.557 86.7529 111.716 86.4346 112.035C86.1164 112.353 85.7982 112.989 85.6391 113.307C85.6391 113.467 85.6391 113.626 85.48 113.626C85.3208 113.626 85.1617 113.626 85.1617 113.626C85.0026 113.148 84.6844 112.671 84.207 112.512C82.2977 111.398 78.6381 113.944 76.2514 118.081C75.9331 118.558 75.774 119.036 75.6149 119.513C73.8646 123.332 73.7055 126.832 75.4558 127.787C77.206 128.901 80.5474 126.832 82.9341 123.172C83.0932 122.854 83.2524 122.536 83.5706 122.218C84.5253 120.627 85.0026 119.036 85.48 117.763C85.6391 117.444 85.9573 117.285 86.1164 116.967C86.1164 117.126 86.2755 117.126 86.2755 117.126C86.4346 117.126 86.5938 117.126 86.5938 117.126C86.7529 117.126 86.912 116.967 87.0711 116.808C87.0711 116.649 87.3893 116.171 87.7075 115.694Z" fill="url(#paint37_linear_825_417)"/>
<path d="M74.9786 128.264C73.0693 127.15 73.2284 123.491 75.1378 119.354C75.2969 118.876 75.6151 118.399 75.9333 117.922C78.4791 113.466 82.2979 110.762 84.3664 112.034C84.8437 112.194 85.1619 112.671 85.321 113.148C85.4802 112.671 85.9575 112.034 86.2757 111.557C86.594 111.08 87.0713 110.921 87.3895 110.921C87.5486 110.921 87.5486 110.921 87.7078 111.08C88.026 111.239 88.3442 112.034 88.3442 112.83C88.3442 113.944 88.1851 114.898 87.8669 115.853C87.5486 116.49 87.2304 116.967 86.7531 117.444C86.594 117.603 86.2757 117.763 86.1166 117.763C85.9575 117.763 85.7984 117.763 85.6393 117.763C85.6393 117.763 85.6393 117.763 85.4802 117.763L85.321 117.922C85.0028 119.354 84.3664 120.945 83.4117 122.536C83.2526 122.854 83.0935 123.172 82.7752 123.491C80.3885 127.309 76.888 129.378 74.9786 128.264Z" fill="#390176"/>
<path d="M87.7075 115.694C88.0258 114.899 88.1849 114.103 88.0258 113.148C88.0258 112.353 87.7076 111.716 87.3893 111.557H87.2302C87.0711 111.557 86.7529 111.716 86.4346 112.035C86.1164 112.353 85.7982 112.989 85.6391 113.307C85.6391 113.467 85.6391 113.626 85.48 113.626C85.3208 113.626 85.1617 113.626 85.1617 113.626C85.0026 113.148 84.6844 112.671 84.207 112.512C82.2977 111.398 78.6381 113.944 76.2514 118.081C75.9331 118.558 75.774 119.036 75.6149 119.513C73.8646 123.332 73.7055 126.832 75.4558 127.787C77.206 128.901 80.5474 126.832 82.9341 123.172C83.0932 122.854 83.2524 122.536 83.5706 122.218C84.5253 120.627 85.0026 119.036 85.48 117.763C85.6391 117.444 85.9573 117.285 86.1164 116.967C86.1164 117.126 86.2755 117.126 86.2755 117.126C86.4346 117.126 86.5938 117.126 86.5938 117.126C86.7529 117.126 86.912 116.967 87.0711 116.808C87.0711 116.649 87.3893 116.171 87.7075 115.694Z" fill="url(#paint38_linear_825_417)"/>
<path d="M82.7754 123.172C80.3887 126.832 77.2065 128.901 75.2971 127.787C73.5468 126.832 73.7059 123.172 75.4562 119.513C77.5247 118.24 79.4341 117.763 80.8661 118.558C82.139 119.354 82.7754 120.945 82.7754 123.172Z" fill="url(#paint39_linear_825_417)"/>
</g>
<path d="M108.075 92.3052C118.735 96.283 131.783 87.85 137.192 73.5297C142.602 59.2095 138.306 44.2528 127.805 40.2749L117.303 36.4562L97.573 88.3273L108.075 92.3052Z" fill="#390176"/>
<path d="M108.234 91.6688C118.417 95.4875 130.987 87.3727 136.238 73.3707C141.489 59.3687 137.511 44.8893 127.168 41.0706L117.462 37.5701L98.6869 87.8501L108.234 91.6688Z" fill="url(#paint40_linear_825_417)"/>
<path d="M127.71 70.1237C133.131 55.7327 128.926 40.8271 118.317 36.8311C107.709 32.8352 94.715 41.2621 89.2941 55.6531C83.8732 70.0442 88.0784 84.9498 98.6867 88.9457C109.295 92.9417 122.289 84.5148 127.71 70.1237Z" fill="#390176"/>
<path d="M127.168 69.8699C121.917 83.8719 109.347 91.9867 99.1641 88.168C88.9808 84.3493 84.8439 69.8699 90.0946 55.8679C95.3454 41.8659 107.915 33.751 118.099 37.5698C128.282 41.3885 132.419 55.8679 127.168 69.8699Z" fill="url(#paint41_linear_825_417)"/>
<path opacity="0.7" d="M102.187 40.1155C97.0958 43.4569 92.7997 48.8668 90.0947 55.8678C84.844 69.8698 88.8218 84.3492 99.1642 88.1679C109.348 91.9867 121.918 83.8719 127.168 69.8698C122.077 73.2112 116.349 74.325 111.257 72.4156C100.914 68.5969 96.9366 54.1175 102.187 40.1155Z" fill="url(#paint42_linear_825_417)"/>
<path opacity="0.6" d="M99.9597 87.5317C89.7764 83.713 85.6394 69.2336 90.8902 55.2316C93.1178 49.1852 96.7774 44.2527 100.914 40.9113C96.3 44.2527 92.3222 49.5035 89.9355 55.868C84.6847 69.8701 88.6626 84.3494 99.005 88.1682C104.892 90.3957 111.416 88.6455 116.985 84.1903C111.734 88.1682 105.529 89.6002 99.9597 87.5317Z" fill="white"/>
<path opacity="0.3" d="M117.144 38.2066C127.327 42.0253 131.464 56.5047 126.213 70.5067C123.986 76.553 120.326 81.4856 116.189 84.827C120.803 81.4856 124.781 76.2348 127.168 69.8703C132.419 55.8682 128.441 41.3889 118.098 37.5701C112.211 35.3425 105.688 37.0928 100.119 41.548C105.528 37.5701 111.734 36.1381 117.144 38.2066Z" fill="white"/>
<path d="M123.877 68.831C128.275 57.1537 124.975 45.1009 116.504 41.9103C108.034 38.7197 97.602 45.5996 93.2034 57.2769C88.8048 68.9542 92.1054 81.007 100.576 84.1976C109.046 87.3881 119.478 80.5083 123.877 68.831Z" fill="#390176"/>
<path d="M123.349 68.5965C119.053 79.8936 109.029 86.5763 100.914 83.3941C92.7996 80.2118 89.6173 68.7556 93.7543 57.4585C97.8912 46.1614 108.075 39.4786 116.189 42.6609C124.304 45.8432 127.646 57.2994 123.349 68.5965Z" fill="url(#paint43_linear_825_417)"/>
<path opacity="0.2" d="M104.574 46.4801C104.892 45.5254 105.37 44.5707 105.847 43.616C100.755 46.0027 96.3002 50.9353 93.7543 57.618C89.4583 68.756 92.7996 80.3713 100.914 83.5536C108.393 86.4177 117.462 81.1669 122.236 71.7792C118.735 73.3703 115.235 73.6885 111.893 72.4156C103.619 69.2334 100.437 57.618 104.574 46.4801Z" fill="url(#paint44_linear_825_417)"/>
<g opacity="0.6">
<path opacity="0.3" d="M101.869 82.4396C93.7545 79.4164 90.5722 67.8011 94.7092 56.504C95.9821 53.0035 97.8915 49.9804 100.119 47.5937C97.5732 50.1395 95.1865 53.64 93.7545 57.6178C89.4584 68.9149 92.6407 80.5302 100.915 83.5534C106.643 85.6219 113.166 83.0761 118.099 77.6662C113.166 82.2805 107.12 84.349 101.869 82.4396Z" fill="#3F3B44"/>
</g>
<g opacity="0.6">
<path opacity="0.3" d="M115.235 43.6165C123.349 46.6396 126.532 58.2549 122.395 69.552C121.122 73.0525 119.212 76.0757 116.985 78.4624C119.531 75.9166 121.917 72.4161 123.349 68.4382C127.645 57.1411 124.463 45.5258 116.189 42.5027C110.62 40.4342 104.097 42.98 99.1641 48.3899C103.937 43.6165 109.984 41.548 115.235 43.6165Z" fill="#3F3B44"/>
</g>
<path d="M103.142 76.0749C99.0051 74.4837 96.9366 69.233 98.3686 63.3457C98.5277 62.7093 98.6868 61.9137 99.0051 61.2773C101.392 54.9127 107.12 51.2531 111.893 53.0033C112.848 53.3216 113.644 53.7989 114.28 54.5945C114.439 53.7989 114.757 53.0033 115.394 52.3669C115.871 51.7304 116.508 51.5713 116.985 51.5713C117.144 51.5713 117.303 51.5713 117.621 51.7304C118.417 52.0486 119.372 53.0033 120.008 54.2762C120.804 55.8674 120.963 57.2994 120.804 58.4132C120.645 59.2088 120.167 60.0043 119.531 60.6408C119.213 60.959 118.894 61.1181 118.576 61.1181C118.258 61.1181 117.94 61.1181 117.621 61.1181C117.621 61.1181 117.462 61.1181 117.462 60.959C117.462 61.1181 117.303 61.1181 117.303 61.2773C117.462 63.3457 117.144 65.5733 116.348 67.8009C116.189 68.2783 116.03 68.7556 115.712 69.2329C112.689 74.6428 107.438 77.666 103.142 76.0749Z" fill="#390176"/>
<path d="M120.008 58.414C120.167 57.3002 120.008 56.1864 119.213 54.7544C118.735 53.6406 117.94 52.6859 117.144 52.3677C116.985 52.3677 116.826 52.2086 116.667 52.2086C116.349 52.2086 115.871 52.3677 115.553 52.845C115.076 53.3224 114.757 54.118 114.757 54.5953C114.757 54.7544 114.757 54.9135 114.757 55.2317C114.439 55.3909 114.121 55.3909 113.962 55.3909C113.325 54.5953 112.371 54.118 111.416 53.6406C106.961 52.0495 101.551 55.3909 99.3234 61.4372C99.0052 62.0737 98.8461 62.7101 98.687 63.3466C97.4141 68.5973 99.3234 73.689 103.301 75.2801C107.438 76.8712 112.371 74.0072 114.757 68.7564C114.917 68.2791 115.076 67.9609 115.235 67.4835C116.03 65.2559 116.349 63.0283 116.19 61.119C116.349 60.8007 116.667 60.3234 116.985 60.0052C117.144 60.1643 117.303 60.3234 117.462 60.3234C117.781 60.4825 117.94 60.4825 118.258 60.3234C118.576 60.3234 118.735 60.1643 119.054 60.0052C119.531 59.6869 120.008 59.0505 120.008 58.414Z" fill="#94512A"/>
<path d="M120.486 57.3003C120.645 56.1865 120.486 55.0727 119.69 53.6407C119.213 52.5269 118.418 51.5722 117.622 51.254C117.463 51.254 117.304 51.0949 117.145 51.0949C116.826 51.0949 116.349 51.254 116.031 51.7313C115.553 52.2087 115.235 53.0043 115.235 53.4816C115.235 53.6407 115.235 53.7998 115.235 54.1181C114.917 54.2772 114.599 54.2772 114.44 54.2772C113.803 53.4816 112.849 53.0043 111.894 52.5269C107.439 50.9358 102.029 54.2772 99.8012 60.3235C99.4829 60.96 99.3238 61.5964 99.1647 62.2329C97.8918 67.4836 99.8012 72.5753 103.779 74.1664C107.916 75.7576 112.849 72.8935 115.235 67.6427C115.394 67.1654 115.553 66.8472 115.713 66.3698C116.508 64.1422 116.826 61.9146 116.667 60.0053C116.826 59.687 117.145 59.2097 117.463 58.8915C117.622 59.0506 117.781 59.2097 117.94 59.2097C118.258 59.3688 118.418 59.3688 118.736 59.2097C119.054 59.2097 119.213 59.0506 119.531 58.8915C120.009 58.4141 120.327 57.9368 120.486 57.3003Z" fill="url(#paint45_linear_825_417)"/>
<path d="M120.486 57.3003C120.645 56.1865 120.486 55.0727 119.69 53.6407C119.213 52.5269 118.418 51.5722 117.622 51.254C117.463 51.254 117.304 51.0949 117.145 51.0949C116.826 51.0949 116.349 51.254 116.031 51.7313C115.553 52.2087 115.235 53.0043 115.235 53.4816C115.235 53.6407 115.235 53.7998 115.235 54.1181C114.917 54.2772 114.599 54.2772 114.44 54.2772C113.803 53.4816 112.849 53.0043 111.894 52.5269C107.439 50.9358 102.029 54.2772 99.8012 60.3235C99.4829 60.96 99.3238 61.5964 99.1647 62.2329C97.8918 67.4836 99.8012 72.5753 103.779 74.1664C107.916 75.7576 112.849 72.8935 115.235 67.6427C115.394 67.1654 115.553 66.8472 115.713 66.3698C116.508 64.1422 116.826 61.9146 116.667 60.0053C116.826 59.687 117.145 59.2097 117.463 58.8915C117.622 59.0506 117.781 59.2097 117.94 59.2097C118.258 59.3688 118.418 59.3688 118.736 59.2097C119.054 59.2097 119.213 59.0506 119.531 58.8915C120.009 58.4141 120.327 57.9368 120.486 57.3003Z" fill="url(#paint46_linear_825_417)"/>
<path d="M103.46 74.8029C99.3233 73.2118 97.2548 67.961 98.6868 62.0738C98.846 61.4373 99.0051 60.6418 99.3233 60.0053C101.71 53.6408 107.438 49.9811 112.212 51.7314C113.166 52.0496 113.962 52.527 114.598 53.3225C114.757 52.527 115.076 51.7314 115.712 51.0949C116.189 50.4585 116.826 50.2994 117.303 50.2994C117.462 50.2994 117.621 50.2994 117.94 50.4585C118.735 50.7767 119.69 51.7314 120.326 53.0043C121.122 54.5954 121.281 56.0275 121.122 57.1413C120.963 57.9368 120.485 58.7324 119.849 59.3689C119.531 59.6871 119.213 59.8462 118.894 59.8462C118.576 59.8462 118.258 59.8462 117.94 59.8462C117.94 59.8462 117.781 59.8462 117.781 59.6871C117.781 59.8462 117.621 59.8462 117.621 60.0053C117.781 62.0738 117.462 64.3014 116.667 66.529C116.508 67.0063 116.348 67.4837 116.03 67.961C113.166 73.53 107.915 76.5532 103.46 74.8029Z" fill="#390176"/>
<path d="M120.486 57.3003C120.645 56.1865 120.486 55.0727 119.69 53.6407C119.213 52.5269 118.418 51.5722 117.622 51.254C117.463 51.254 117.304 51.0949 117.145 51.0949C116.826 51.0949 116.349 51.254 116.031 51.7313C115.553 52.2087 115.235 53.0043 115.235 53.4816C115.235 53.6407 115.235 53.7998 115.235 54.1181C114.917 54.2772 114.599 54.2772 114.44 54.2772C113.803 53.4816 112.849 53.0043 111.894 52.5269C107.439 50.9358 102.029 54.2772 99.8012 60.3235C99.4829 60.96 99.3238 61.5964 99.1647 62.2329C97.8918 67.4836 99.8012 72.5753 103.779 74.1664C107.916 75.7576 112.849 72.8935 115.235 67.6427C115.394 67.1654 115.553 66.8472 115.713 66.3698C116.508 64.1422 116.826 61.9146 116.667 60.0053C116.826 59.687 117.145 59.2097 117.463 58.8915C117.622 59.0506 117.781 59.2097 117.94 59.2097C118.258 59.3688 118.418 59.3688 118.736 59.2097C119.054 59.2097 119.213 59.0506 119.531 58.8915C120.009 58.4141 120.327 57.9368 120.486 57.3003Z" fill="url(#paint47_linear_825_417)"/>
<path d="M115.394 67.6426C112.848 72.7342 107.916 75.5983 103.938 74.1663C99.96 72.7342 98.2098 67.6426 99.3236 62.2327C102.506 60.3233 106.006 59.846 109.03 61.1189C111.894 62.2327 114.121 64.6194 115.394 67.6426Z" fill="url(#paint48_linear_825_417)"/>
<path d="M72.7519 46.3206C66.3873 48.23 59.2272 42.8201 56.5223 34.2279C53.8173 25.6358 56.9996 17.2027 63.3642 15.2934L69.7287 13.384L78.9573 44.4112L72.7519 46.3206Z" fill="#390176"/>
<path d="M72.7518 45.8433C66.7055 47.7527 59.7045 42.3428 57.1587 34.0689C54.6128 25.795 57.636 17.521 63.6823 15.6117L69.4104 13.8614L78.4799 43.934L72.7518 45.8433Z" fill="url(#paint49_linear_825_417)"/>
<path d="M78.3672 44.6865C84.7653 42.7704 87.8673 34.256 85.2957 25.6691C82.7241 17.0822 75.4527 11.6744 69.0546 13.5905C62.6565 15.5066 59.5545 24.021 62.1261 32.6079C64.6977 41.1948 71.9691 46.6026 78.3672 44.6865Z" fill="#390176"/>
<path d="M84.6849 25.7952C87.2307 34.0691 84.2076 42.343 78.1613 44.2524C72.1149 46.1617 65.1139 40.7519 62.5681 32.4779C60.0223 24.204 63.0454 15.9301 69.0918 14.0207C75.1381 12.1114 82.2982 17.5212 84.6849 25.7952Z" fill="url(#paint50_linear_825_417)"/>
<path opacity="0.7" d="M62.5685 20.8627C61.4547 24.2041 61.2956 28.3411 62.5685 32.478C65.1143 40.752 72.1154 46.1618 78.1617 44.2525C84.208 42.3431 87.2312 34.2283 84.6854 25.7952C83.5716 29.1366 81.1849 31.6825 78.1617 32.6371C72.1154 34.5465 65.1143 29.1366 62.5685 20.8627Z" fill="url(#paint51_linear_825_417)"/>
<path opacity="0.6" d="M78.3205 43.6156C72.2741 45.525 65.2731 40.1151 62.7273 31.8412C61.6135 28.1816 61.6135 24.6811 62.4091 21.6579C61.4544 24.8402 61.4544 28.6589 62.5682 32.4776C65.114 40.7516 72.115 46.1614 78.1613 44.2521C81.6618 43.1383 84.0486 40.1151 85.1624 35.9782C84.0486 39.7969 81.6618 42.6609 78.3205 43.6156Z" fill="white"/>
<path opacity="0.3" d="M68.9332 14.6567C74.9795 12.7474 81.9805 18.1572 84.5264 26.4312C85.6402 30.0908 85.6402 33.5913 84.8446 36.6145C85.7993 33.4322 85.7993 29.6134 84.6855 25.7947C82.1397 17.5208 75.1387 12.1109 69.0923 14.0203C65.5918 15.1341 63.2051 18.1572 62.0913 22.2942C63.3642 18.4755 65.5918 15.6114 68.9332 14.6567Z" fill="white"/>
<path d="M77.5008 41.7882C82.552 40.2755 84.9503 33.3848 82.8578 26.3974C80.7652 19.41 74.9741 14.9719 69.923 16.4846C64.8718 17.9973 62.4735 24.888 64.566 31.8754C66.6586 38.8628 72.4497 43.3009 77.5008 41.7882Z" fill="#390176"/>
<path d="M82.6169 26.591C84.6854 33.2738 82.2987 39.9566 77.3661 41.3886C72.4336 42.8206 66.8646 38.5245 64.9553 31.8417C62.8868 25.159 65.2735 18.4762 70.206 17.0442C74.9794 15.6121 80.5484 19.7491 82.6169 26.591Z" fill="url(#paint52_linear_825_417)"/>
<path opacity="0.2" d="M66.069 22.9311C65.9099 22.2947 65.7507 21.8173 65.5916 21.1809C64.0005 24.0449 63.6823 28.0228 64.9552 32.0006C67.0237 38.6834 72.5926 42.9795 77.5252 41.3883C81.9804 40.1154 84.3671 34.3873 83.2533 28.341C82.2986 30.2504 80.7075 31.6824 78.639 32.3189C73.5473 33.91 67.9783 29.6139 66.069 22.9311Z" fill="url(#paint53_linear_825_417)"/>
<g opacity="0.6">
<path opacity="0.3" d="M77.5253 40.5927C72.5927 42.0247 67.0238 37.7286 65.1144 31.0459C64.4779 28.9774 64.3188 26.9089 64.4779 24.9995C64.1597 27.068 64.3188 29.4547 65.1144 31.8414C67.1829 38.5242 72.7519 42.8203 77.5253 41.3883C80.8667 40.4336 83.0943 36.9331 83.4125 32.637C82.6169 36.4557 80.5484 39.638 77.5253 40.5927Z" fill="#3F3B44"/>
</g>
<g opacity="0.3">
<path d="M69.8879 17.8391C74.8205 16.4071 80.3894 20.7032 82.2988 27.386C82.9353 29.4544 83.0944 31.5229 82.9353 33.4323C83.2535 31.3638 83.0944 28.9771 82.2988 26.5904C80.2303 19.9076 74.6613 15.6115 69.8879 17.0436C66.5465 17.9982 64.3189 21.4987 64.0007 25.7948C64.7963 21.817 66.8648 18.7938 69.8879 17.8391Z" fill="#3F3B44"/>
</g>
<path d="M75.7752 37.0922C73.2294 37.8877 70.5245 36.1375 69.0925 32.9552C68.9333 32.637 68.7742 32.1596 68.6151 31.8414C67.5013 28.0227 68.7742 24.3631 71.6383 23.4084C72.1156 23.2493 72.7521 23.2493 73.3885 23.2493C73.2294 22.931 73.0703 22.2946 73.0703 21.8172C73.0703 21.3399 73.2294 21.0217 73.5476 20.8626C73.7068 20.8626 73.7068 20.7034 73.8659 20.7034C74.3432 20.5443 75.1388 20.7034 75.7752 21.0217C76.7299 21.499 77.3664 21.9764 77.6846 22.6128C77.8437 23.0902 78.0028 23.5675 77.8437 24.0448C77.8437 24.2039 77.6846 24.5222 77.5255 24.6813C77.3664 24.8404 77.2073 24.9995 77.0482 24.9995H76.889V25.1586C77.6846 26.1133 78.3211 27.2271 78.7984 28.5C78.9575 28.8183 78.9575 29.1365 78.9575 29.2956C79.7531 33.1143 78.3211 36.4557 75.7752 37.0922Z" fill="#390176"/>
<path d="M77.3662 23.0902C77.048 22.6129 76.5706 22.1355 75.616 21.6582C74.9795 21.3399 74.343 21.1808 73.8657 21.3399C73.7066 21.3399 73.7066 21.3399 73.5475 21.4991C73.3884 21.6582 73.2292 21.8173 73.2292 22.1355C73.2292 22.4537 73.2292 22.9311 73.5475 23.2493C73.5475 23.4084 73.7066 23.4084 73.7066 23.5675C73.5475 23.7267 73.5475 23.8858 73.3884 23.8858C72.7519 23.7267 72.1154 23.8858 71.6381 24.0449C68.9332 24.8405 67.6603 28.341 68.774 31.8415C68.9332 32.1597 69.0923 32.637 69.2514 32.9553C70.5243 35.8193 73.2292 37.5696 75.616 36.9331C78.0027 36.1375 79.2756 33.1144 78.6391 29.773C78.6391 29.4548 78.48 29.2956 78.48 28.9774C78.1618 27.7045 77.3662 26.5907 76.5706 25.636C76.5706 25.3178 76.5706 25.1587 76.5706 24.8405C76.7297 24.8405 76.8889 24.8405 76.8889 24.8405C77.048 24.8405 77.2071 24.6813 77.2071 24.5222C77.3662 24.3631 77.3662 24.204 77.3662 24.0449C77.6844 23.7267 77.5253 23.2493 77.3662 23.0902Z" fill="#94512A"/>
<path d="M77.2071 22.2946C76.8889 21.8173 76.4115 21.3399 75.4569 20.8626C74.8204 20.5444 74.184 20.3852 73.7066 20.5444C73.5475 20.5444 73.5475 20.5444 73.3884 20.7035C73.2293 20.8626 73.0702 21.0217 73.0702 21.3399C73.0702 21.6582 73.0702 22.1355 73.3884 22.4537C73.3884 22.6128 73.5475 22.6128 73.5475 22.7719C73.3884 22.9311 73.3884 23.0902 73.2293 23.0902C72.5928 22.9311 71.9564 23.0902 71.479 23.2493C68.7741 24.0449 67.5012 27.5454 68.615 31.0459C68.7741 31.3641 68.9332 31.8414 69.0923 32.1597C70.3652 35.0237 73.0702 36.774 75.4569 36.1375C77.8436 35.3419 79.1165 32.3188 78.48 28.9774C78.48 28.6592 78.3209 28.5 78.3209 28.1818C78.0027 26.9089 77.2071 25.7951 76.4115 24.8404C76.4115 24.5222 76.4115 24.3631 76.4115 24.0449C76.5707 24.0449 76.7298 24.0449 76.7298 24.0449C76.8889 24.0449 77.048 23.8857 77.048 23.7266C77.2071 23.5675 77.2071 23.4084 77.2071 23.2493C77.3662 23.0902 77.3662 22.6128 77.2071 22.2946Z" fill="url(#paint54_linear_825_417)"/>
<path d="M77.2071 22.2946C76.8889 21.8173 76.4115 21.3399 75.4569 20.8626C74.8204 20.5444 74.184 20.3852 73.7066 20.5444C73.5475 20.5444 73.5475 20.5444 73.3884 20.7035C73.2293 20.8626 73.0702 21.0217 73.0702 21.3399C73.0702 21.6582 73.0702 22.1355 73.3884 22.4537C73.3884 22.6128 73.5475 22.6128 73.5475 22.7719C73.3884 22.9311 73.3884 23.0902 73.2293 23.0902C72.5928 22.9311 71.9564 23.0902 71.479 23.2493C68.7741 24.0449 67.5012 27.5454 68.615 31.0459C68.7741 31.3641 68.9332 31.8414 69.0923 32.1597C70.3652 35.0237 73.0702 36.774 75.4569 36.1375C77.8436 35.3419 79.1165 32.3188 78.48 28.9774C78.48 28.6592 78.3209 28.5 78.3209 28.1818C78.0027 26.9089 77.2071 25.7951 76.4115 24.8404C76.4115 24.5222 76.4115 24.3631 76.4115 24.0449C76.5707 24.0449 76.7298 24.0449 76.7298 24.0449C76.8889 24.0449 77.048 23.8857 77.048 23.7266C77.2071 23.5675 77.2071 23.4084 77.2071 23.2493C77.3662 23.0902 77.3662 22.6128 77.2071 22.2946Z" fill="url(#paint55_linear_825_417)"/>
<path d="M75.6162 36.4554C73.0703 37.251 70.3654 35.5007 68.9334 32.3184C68.7743 32.0002 68.6151 31.5229 68.456 31.2046C67.3422 27.3859 68.6151 23.7263 71.4792 22.7716C71.9565 22.6125 72.593 22.6125 73.2294 22.6125C73.0703 22.2942 72.9112 21.6578 72.9112 21.1804C72.9112 20.7031 73.0703 20.3849 73.3886 20.2258C73.5477 20.2258 73.5477 20.0666 73.7068 20.0666C74.1841 19.9075 74.9797 20.0666 75.6162 20.3849C76.5708 20.8622 77.2073 21.3396 77.5255 21.976C77.6846 22.4534 77.8438 22.9307 77.6846 23.408C77.6846 23.5672 77.5255 23.8854 77.3664 24.0445C77.2073 24.2036 77.0482 24.3627 76.8891 24.3627H76.7299V24.5218C77.5255 25.4765 78.162 26.5903 78.6393 27.8632C78.7984 28.1815 78.7984 28.4997 78.7984 28.6588C79.594 32.4775 78.162 35.6598 75.6162 36.4554Z" fill="#390176"/>
<path d="M77.2071 22.2946C76.8889 21.8173 76.4115 21.3399 75.4569 20.8626C74.8204 20.5444 74.184 20.3852 73.7066 20.5444C73.5475 20.5444 73.5475 20.5444 73.3884 20.7035C73.2293 20.8626 73.0702 21.0217 73.0702 21.3399C73.0702 21.6582 73.0702 22.1355 73.3884 22.4537C73.3884 22.6128 73.5475 22.6128 73.5475 22.7719C73.3884 22.9311 73.3884 23.0902 73.2293 23.0902C72.5928 22.9311 71.9564 23.0902 71.479 23.2493C68.7741 24.0449 67.5012 27.5454 68.615 31.0459C68.7741 31.3641 68.9332 31.8414 69.0923 32.1597C70.3652 35.0237 73.0702 36.774 75.4569 36.1375C77.8436 35.3419 79.1165 32.3188 78.48 28.9774C78.48 28.6592 78.3209 28.5 78.3209 28.1818C78.0027 26.9089 77.2071 25.7951 76.4115 24.8404C76.4115 24.5222 76.4115 24.3631 76.4115 24.0449C76.5707 24.0449 76.7298 24.0449 76.7298 24.0449C76.8889 24.0449 77.048 23.8857 77.048 23.7266C77.2071 23.5675 77.2071 23.4084 77.2071 23.2493C77.3662 23.0902 77.3662 22.6128 77.2071 22.2946Z" fill="url(#paint56_linear_825_417)"/>
<path d="M78.4802 28.9774C79.1167 32.3188 77.8438 35.342 75.4571 36.1375C73.0703 36.774 70.5245 35.1829 69.0925 32.1597C69.8881 30.2503 71.3201 28.6592 73.2295 28.1818C74.9797 27.5454 76.8891 28.0227 78.4802 28.9774Z" fill="url(#paint57_linear_825_417)"/>
<path d="M183.813 119.991C189.085 119.991 193.36 115.717 193.36 110.444C193.36 105.171 189.085 100.897 183.813 100.897C178.54 100.897 174.266 105.171 174.266 110.444C174.266 115.717 178.54 119.991 183.813 119.991Z" fill="url(#paint58_radial_825_417)"/>
<path d="M145.626 80.2121C149.141 80.2121 151.99 77.3626 151.99 73.8476C151.99 70.3325 149.141 67.483 145.626 67.483C142.111 67.483 139.261 70.3325 139.261 73.8476C139.261 77.3626 142.111 80.2121 145.626 80.2121Z" fill="url(#paint59_radial_825_417)"/>
<path opacity="0.4" d="M171.084 148.631C172.841 148.631 174.266 147.206 174.266 145.449C174.266 143.691 172.841 142.267 171.084 142.267C169.326 142.267 167.902 143.691 167.902 145.449C167.902 147.206 169.326 148.631 171.084 148.631Z" fill="url(#paint60_radial_825_417)"/>
<path d="M183.813 72.2563C189.085 72.2563 193.36 67.982 193.36 62.7095C193.36 57.4369 189.085 53.1626 183.813 53.1626C178.54 53.1626 174.266 57.4369 174.266 62.7095C174.266 67.982 178.54 72.2563 183.813 72.2563Z" fill="url(#paint61_radial_825_417)"/>
<path d="M116.985 26.9089C120.94 26.9089 124.145 23.7032 124.145 19.7488C124.145 15.7944 120.94 12.5887 116.985 12.5887C113.031 12.5887 109.825 15.7944 109.825 19.7488C109.825 23.7032 113.031 26.9089 116.985 26.9089Z" fill="url(#paint62_radial_825_417)"/>
<path opacity="0.4" d="M136.079 40.4341C141.351 40.4341 145.625 36.1598 145.625 30.8872C145.625 25.6147 141.351 21.3404 136.079 21.3404C130.806 21.3404 126.532 25.6147 126.532 30.8872C126.532 36.1598 130.806 40.4341 136.079 40.4341Z" fill="url(#paint63_radial_825_417)"/>
<path opacity="0.4" d="M5.6053 23.7267C8.68097 23.7267 11.1743 21.2333 11.1743 18.1577C11.1743 15.082 8.68097 12.5887 5.6053 12.5887C2.52964 12.5887 0.0363159 15.082 0.0363159 18.1577C0.0363159 21.2333 2.52964 23.7267 5.6053 23.7267Z" fill="url(#paint64_radial_825_417)"/>
<path d="M212.453 45.2075C218.605 45.2075 223.591 40.2208 223.591 34.0695C223.591 27.9182 218.605 22.9315 212.453 22.9315C206.302 22.9315 201.315 27.9182 201.315 34.0695C201.315 40.2208 206.302 45.2075 212.453 45.2075Z" fill="url(#paint65_radial_825_417)"/>
<path d="M168.538 44.0937C174.689 44.0937 179.676 39.1071 179.676 32.9557C179.676 26.8044 174.689 21.8178 168.538 21.8178C162.386 21.8178 157.4 26.8044 157.4 32.9557C157.4 39.1071 162.386 44.0937 168.538 44.0937Z" fill="url(#paint66_radial_825_417)"/>
<path d="M178.403 95.1695C184.555 95.1695 189.541 90.1829 189.541 84.0316C189.541 77.8802 184.555 72.8936 178.403 72.8936C172.252 72.8936 167.265 77.8802 167.265 84.0316C167.265 90.1829 172.252 95.1695 178.403 95.1695Z" fill="url(#paint67_radial_825_417)"/>
<path d="M165.037 142.266C169.431 142.266 172.993 138.705 172.993 134.311C172.993 129.917 169.431 126.355 165.037 126.355C160.643 126.355 157.081 129.917 157.081 134.311C157.081 138.705 160.643 142.266 165.037 142.266Z" fill="url(#paint68_radial_825_417)"/>
<path d="M92.1633 35.0243C95.7662 35.0243 98.687 32.1035 98.687 28.5006C98.687 24.8977 95.7662 21.9769 92.1633 21.9769C88.5604 21.9769 85.6396 24.8977 85.6396 28.5006C85.6396 32.1035 88.5604 35.0243 92.1633 35.0243Z" fill="url(#paint69_radial_825_417)"/>
<path d="M78.3205 14.0212C81.9235 14.0212 84.8442 11.1005 84.8442 7.49753C84.8442 3.89461 81.9235 0.973862 78.3205 0.973862C74.7176 0.973862 71.7969 3.89461 71.7969 7.49753C71.7969 11.1005 74.7176 14.0212 78.3205 14.0212Z" fill="url(#paint70_radial_825_417)"/>
<path d="M42.6789 14.9759C46.2819 14.9759 49.2026 12.0551 49.2026 8.4522C49.2026 4.84927 46.2819 1.92853 42.6789 1.92853C39.076 1.92853 36.1553 4.84927 36.1553 8.4522C36.1553 12.0551 39.076 14.9759 42.6789 14.9759Z" fill="url(#paint71_radial_825_417)"/>
<defs>
<linearGradient id="paint0_linear_825_417" x1="100.724" y1="48.2901" x2="207.554" y2="66.5742" gradientUnits="userSpaceOnUse">
<stop stop-color="#BA40F9" stop-opacity="0"/>
<stop offset="0.7198" stop-color="#BA43FA"/>
<stop offset="1" stop-color="white"/>
</linearGradient>
<linearGradient id="paint1_linear_825_417" x1="174.154" y1="166.929" x2="15.8463" y2="9.52" gradientUnits="userSpaceOnUse">
<stop offset="0.00220353" stop-color="#7DFAF5"/>
<stop offset="1" stop-color="#7A40FF"/>
</linearGradient>
<linearGradient id="paint2_linear_825_417" x1="-0.642625" y1="38.845" x2="138.644" y2="179.023" gradientUnits="userSpaceOnUse">
<stop offset="0.00220353" stop-color="#7DFAF5"/>
<stop offset="1" stop-color="#7A40FF"/>
</linearGradient>
<linearGradient id="paint3_linear_825_417" x1="-48.7119" y1="-9.5317" x2="90.5754" y2="130.647" gradientUnits="userSpaceOnUse">
<stop stop-color="#7A40FF" stop-opacity="0"/>
<stop offset="0.0582713" stop-color="#7D45FF" stop-opacity="0.1203"/>
<stop offset="0.1306" stop-color="#8455FE" stop-opacity="0.2697"/>
<stop offset="0.2104" stop-color="#906EFD" stop-opacity="0.4343"/>
<stop offset="0.2955" stop-color="#A091FB" stop-opacity="0.6101"/>
<stop offset="0.3849" stop-color="#B6BEF8" stop-opacity="0.7947"/>
<stop offset="0.4766" stop-color="#D0F5F5" stop-opacity="0.984"/>
<stop offset="0.4843" stop-color="#D2FAF5"/>
<stop offset="0.5261" stop-color="#BED0F7" stop-opacity="0.919"/>
<stop offset="0.5723" stop-color="#ACAAF9" stop-opacity="0.8294"/>
<stop offset="0.6221" stop-color="#9D89FB" stop-opacity="0.7329"/>
<stop offset="0.6753" stop-color="#906EFD" stop-opacity="0.6297"/>
<stop offset="0.7331" stop-color="#865AFE" stop-opacity="0.5175"/>
<stop offset="0.798" stop-color="#7F4BFE" stop-opacity="0.3917"/>
<stop offset="0.8757" stop-color="#7B43FF" stop-opacity="0.241"/>
<stop offset="1" stop-color="#7A40FF" stop-opacity="0"/>
</linearGradient>
<linearGradient id="paint4_linear_825_417" x1="151.218" y1="102.419" x2="2.98842" y2="69.7559" gradientUnits="userSpaceOnUse">
<stop stop-color="#322B8F"/>
<stop offset="1" stop-color="#A5B5F5"/>
</linearGradient>
<linearGradient id="paint5_linear_825_417" x1="102.356" y1="54.692" x2="21.1325" y2="36.794" gradientUnits="userSpaceOnUse">
<stop stop-color="#1F4BF5"/>
<stop offset="0.547" stop-color="#A9BEF5"/>
<stop offset="0.9988" stop-color="#FFDFF5"/>
</linearGradient>
<linearGradient id="paint6_linear_825_417" x1="142.606" y1="137.093" x2="32.0714" y2="112.736" gradientUnits="userSpaceOnUse">
<stop stop-color="#592BF5"/>
<stop offset="0.2086" stop-color="#59A0F5"/>
<stop offset="0.9988" stop-color="#ECEDFF"/>
</linearGradient>
<linearGradient id="paint7_linear_825_417" x1="159.039" y1="102.752" x2="126.72" y2="120.445" gradientUnits="userSpaceOnUse">
<stop offset="0.199" stop-color="#FFDE43"/>
<stop offset="0.3362" stop-color="#FFD242"/>
<stop offset="0.5872" stop-color="#FFB13E"/>
<stop offset="0.9215" stop-color="#FF7B38"/>
<stop offset="1" stop-color="#FF6E37"/>
</linearGradient>
<linearGradient id="paint8_linear_825_417" x1="146.957" y1="110.604" x2="135.637" y2="101.784" gradientUnits="userSpaceOnUse">
<stop offset="0.199" stop-color="#FFDE43"/>
<stop offset="0.5646" stop-color="#FFD23E"/>
<stop offset="1" stop-color="#FFBD37"/>
</linearGradient>
<linearGradient id="paint9_linear_825_417" x1="142.13" y1="108.936" x2="133.994" y2="102.597" gradientUnits="userSpaceOnUse">
<stop offset="0.0180995" stop-color="#FFFFA0"/>
<stop offset="0.9762" stop-color="#FFEB6A"/>
</linearGradient>
<linearGradient id="paint10_linear_825_417" x1="139.242" y1="102.511" x2="142.39" y2="109.306" gradientUnits="userSpaceOnUse">
<stop stop-color="#F5942A"/>
<stop offset="1" stop-color="#F5D85D"/>
</linearGradient>
<linearGradient id="paint11_linear_825_417" x1="137.846" y1="103.157" x2="140.998" y2="109.961" gradientUnits="userSpaceOnUse">
<stop stop-color="#E08C3C"/>
<stop offset="1" stop-color="#FFD06F"/>
</linearGradient>
<linearGradient id="paint12_linear_825_417" x1="140.629" y1="103.618" x2="142.448" y2="107.545" gradientUnits="userSpaceOnUse">
<stop offset="0.1642" stop-color="#FFDE43"/>
<stop offset="0.2484" stop-color="#FFDA42"/>
<stop offset="1" stop-color="#FFBD37"/>
</linearGradient>
<linearGradient id="paint13_linear_825_417" x1="140.629" y1="103.618" x2="142.448" y2="107.545" gradientUnits="userSpaceOnUse">
<stop offset="0.1642" stop-color="#FFDE43"/>
<stop offset="0.2484" stop-color="#FFDA42"/>
<stop offset="1" stop-color="#FFBD37"/>
</linearGradient>
<linearGradient id="paint14_linear_825_417" x1="140.629" y1="103.618" x2="142.448" y2="107.545" gradientUnits="userSpaceOnUse">
<stop offset="0.0180995" stop-color="#FFFFA0"/>
<stop offset="0.9762" stop-color="#FFEB6A"/>
</linearGradient>
<linearGradient id="paint15_linear_825_417" x1="136.88" y1="105.388" x2="138.569" y2="109.034" gradientUnits="userSpaceOnUse">
<stop offset="0.1642" stop-color="#FFDE43"/>
<stop offset="0.2484" stop-color="#FFDA42"/>
<stop offset="1" stop-color="#FFBD37"/>
</linearGradient>
<linearGradient id="paint16_linear_825_417" x1="97.9698" y1="79.3564" x2="169.495" y2="106.296" gradientUnits="userSpaceOnUse">
<stop stop-color="#3D35F9" stop-opacity="0"/>
<stop offset="0.7198" stop-color="#3F38FA"/>
<stop offset="1" stop-color="white"/>
</linearGradient>
<linearGradient id="paint17_linear_825_417" x1="108.224" y1="112.826" x2="154.099" y2="148.191" gradientUnits="userSpaceOnUse">
<stop stop-color="#3D35F9" stop-opacity="0"/>
<stop offset="0.7198" stop-color="#3F38FA"/>
<stop offset="1" stop-color="white"/>
</linearGradient>
<linearGradient id="paint18_linear_825_417" x1="27.6667" y1="51.0119" x2="53.2748" y2="16.0295" gradientUnits="userSpaceOnUse">
<stop stop-color="#84E2F9" stop-opacity="0"/>
<stop offset="0.7198" stop-color="#86E4FA"/>
<stop offset="1" stop-color="white"/>
</linearGradient>
<linearGradient id="paint19_linear_825_417" x1="50.9477" y1="80.4379" x2="103.008" y2="44.416" gradientUnits="userSpaceOnUse">
<stop stop-color="#5877F9" stop-opacity="0"/>
<stop offset="0.7198" stop-color="#5B7BFA"/>
<stop offset="1" stop-color="white"/>
</linearGradient>
<linearGradient id="paint20_linear_825_417" x1="53.4454" y1="53.5283" x2="89.2202" y2="18.3398" gradientUnits="userSpaceOnUse">
<stop stop-color="#5ABDF9" stop-opacity="0"/>
<stop offset="0.7198" stop-color="#5DC1FA"/>
<stop offset="1" stop-color="white"/>
</linearGradient>
<linearGradient id="paint21_linear_825_417" x1="68.1838" y1="63.7413" x2="168.795" y2="63.7413" gradientUnits="userSpaceOnUse">
<stop stop-color="#F92EEC" stop-opacity="0"/>
<stop offset="0.7198" stop-color="#FA31EF"/>
<stop offset="1" stop-color="white"/>
</linearGradient>
<linearGradient id="paint22_linear_825_417" x1="36.9287" y1="67.5774" x2="54.8228" y2="98.0637" gradientUnits="userSpaceOnUse">
<stop offset="0.199" stop-color="#FFDE43"/>
<stop offset="0.3362" stop-color="#FFD242"/>
<stop offset="0.5872" stop-color="#FFB13E"/>
<stop offset="0.9215" stop-color="#FF7B38"/>
<stop offset="1" stop-color="#FF6E37"/>
</linearGradient>
<linearGradient id="paint23_linear_825_417" x1="60.7072" y1="60.289" x2="47.5086" y2="85.0152" gradientUnits="userSpaceOnUse">
<stop offset="0.199" stop-color="#FFDE43"/>
<stop offset="0.5646" stop-color="#FFD23E"/>
<stop offset="1" stop-color="#FFBD37"/>
</linearGradient>
<linearGradient id="paint24_linear_825_417" x1="60.2488" y1="62.9907" x2="48.0721" y2="85.8025" gradientUnits="userSpaceOnUse">
<stop offset="0.0180995" stop-color="#FFFFA0"/>
<stop offset="0.9762" stop-color="#FFEB6A"/>
</linearGradient>
<linearGradient id="paint25_linear_825_417" x1="42.1465" y1="81.5733" x2="65.3287" y2="65.5321" gradientUnits="userSpaceOnUse">
<stop stop-color="#F5942A"/>
<stop offset="1" stop-color="#F5D85D"/>
</linearGradient>
<linearGradient id="paint26_linear_825_417" x1="43.1787" y1="83.0566" x2="66.4084" y2="66.9825" gradientUnits="userSpaceOnUse">
<stop stop-color="#E08C3C"/>
<stop offset="1" stop-color="#FFD06F"/>
</linearGradient>
<linearGradient id="paint27_linear_825_417" x1="46.6359" y1="77.5601" x2="60.0336" y2="68.2894" gradientUnits="userSpaceOnUse">
<stop offset="0.1642" stop-color="#FFDE43"/>
<stop offset="0.2484" stop-color="#FFDA42"/>
<stop offset="1" stop-color="#FFBD37"/>
</linearGradient>
<linearGradient id="paint28_linear_825_417" x1="46.6359" y1="77.5601" x2="60.0336" y2="68.2894" gradientUnits="userSpaceOnUse">
<stop offset="0.1642" stop-color="#FFDE43"/>
<stop offset="0.2484" stop-color="#FFDA42"/>
<stop offset="1" stop-color="#FFBD37"/>
</linearGradient>
<linearGradient id="paint29_linear_825_417" x1="46.6359" y1="77.5601" x2="60.0336" y2="68.2894" gradientUnits="userSpaceOnUse">
<stop offset="0.0180995" stop-color="#FFFFA0"/>
<stop offset="0.9762" stop-color="#FFEB6A"/>
</linearGradient>
<linearGradient id="paint30_linear_825_417" x1="49.453" y1="81.4257" x2="61.8885" y2="72.8208" gradientUnits="userSpaceOnUse">
<stop offset="0.1642" stop-color="#FFDE43"/>
<stop offset="0.2484" stop-color="#FFDA42"/>
<stop offset="1" stop-color="#FFBD37"/>
</linearGradient>
<linearGradient id="paint31_linear_825_417" x1="93.6719" y1="106.512" x2="80.7229" y2="140.447" gradientUnits="userSpaceOnUse">
<stop offset="0.199" stop-color="#FFDE43"/>
<stop offset="0.3362" stop-color="#FFD242"/>
<stop offset="0.5872" stop-color="#FFB13E"/>
<stop offset="0.9215" stop-color="#FF7B38"/>
<stop offset="1" stop-color="#FF6E37"/>
</linearGradient>
<linearGradient id="paint32_linear_825_417" x1="90.4374" y1="120.314" x2="71.2889" y2="119.408" gradientUnits="userSpaceOnUse">
<stop offset="0.199" stop-color="#FFDE43"/>
<stop offset="0.5646" stop-color="#FFD23E"/>
<stop offset="1" stop-color="#FFBD37"/>
</linearGradient>
<linearGradient id="paint33_linear_825_417" x1="86.542" y1="121.563" x2="70.5903" y2="120.808" gradientUnits="userSpaceOnUse">
<stop offset="0.0180995" stop-color="#FFFFA0"/>
<stop offset="0.9762" stop-color="#FFEB6A"/>
</linearGradient>
<linearGradient id="paint34_linear_825_417" x1="73.6023" y1="116.06" x2="86.7827" y2="123.65" gradientUnits="userSpaceOnUse">
<stop stop-color="#F5942A"/>
<stop offset="1" stop-color="#F5D85D"/>
</linearGradient>
<linearGradient id="paint35_linear_825_417" x1="72.7284" y1="117.592" x2="85.9251" y2="125.191" gradientUnits="userSpaceOnUse">
<stop stop-color="#E08C3C"/>
<stop offset="1" stop-color="#FFD06F"/>
</linearGradient>
<linearGradient id="paint36_linear_825_417" x1="76.7818" y1="117" x2="84.399" y2="121.386" gradientUnits="userSpaceOnUse">
<stop offset="0.1642" stop-color="#FFDE43"/>
<stop offset="0.2484" stop-color="#FFDA42"/>
<stop offset="1" stop-color="#FFBD37"/>
</linearGradient>
<linearGradient id="paint37_linear_825_417" x1="76.7818" y1="117" x2="84.399" y2="121.386" gradientUnits="userSpaceOnUse">
<stop offset="0.1642" stop-color="#FFDE43"/>
<stop offset="0.2484" stop-color="#FFDA42"/>
<stop offset="1" stop-color="#FFBD37"/>
</linearGradient>
<linearGradient id="paint38_linear_825_417" x1="76.7818" y1="117" x2="84.399" y2="121.386" gradientUnits="userSpaceOnUse">
<stop offset="0.0180995" stop-color="#FFFFA0"/>
<stop offset="0.9762" stop-color="#FFEB6A"/>
</linearGradient>
<linearGradient id="paint39_linear_825_417" x1="74.4912" y1="121.105" x2="81.5614" y2="125.176" gradientUnits="userSpaceOnUse">
<stop offset="0.1642" stop-color="#FFDE43"/>
<stop offset="0.2484" stop-color="#FFDA42"/>
<stop offset="1" stop-color="#FFBD37"/>
</linearGradient>
<linearGradient id="paint40_linear_825_417" x1="121.849" y1="45.999" x2="116.888" y2="91.0229" gradientUnits="userSpaceOnUse">
<stop offset="0.199" stop-color="#FFDE43"/>
<stop offset="0.3362" stop-color="#FFD242"/>
<stop offset="0.5872" stop-color="#FFB13E"/>
<stop offset="0.9215" stop-color="#FF7B38"/>
<stop offset="1" stop-color="#FF6E37"/>
</linearGradient>
<linearGradient id="paint41_linear_825_417" x1="125.784" y1="60.8888" x2="93.5741" y2="64.607" gradientUnits="userSpaceOnUse">
<stop offset="0.199" stop-color="#FFDE43"/>
<stop offset="0.5646" stop-color="#FFD23E"/>
<stop offset="1" stop-color="#FFBD37"/>
</linearGradient>
<linearGradient id="paint42_linear_825_417" x1="122.416" y1="62.4604" x2="93.131" y2="65.841" gradientUnits="userSpaceOnUse">
<stop offset="0.0180995" stop-color="#FFFFA0"/>
<stop offset="0.9762" stop-color="#FFEB6A"/>
</linearGradient>
<linearGradient id="paint43_linear_825_417" x1="93.7548" y1="57.4537" x2="123.31" y2="68.5867" gradientUnits="userSpaceOnUse">
<stop stop-color="#F5942A"/>
<stop offset="1" stop-color="#F5D85D"/>
</linearGradient>
<linearGradient id="paint44_linear_825_417" x1="92.9472" y1="59.6547" x2="122.562" y2="70.81" gradientUnits="userSpaceOnUse">
<stop stop-color="#E08C3C"/>
<stop offset="1" stop-color="#FFD06F"/>
</linearGradient>
<linearGradient id="paint45_linear_825_417" x1="100.411" y1="58.8344" x2="117.492" y2="65.2684" gradientUnits="userSpaceOnUse">
<stop offset="0.1642" stop-color="#FFDE43"/>
<stop offset="0.2484" stop-color="#FFDA42"/>
<stop offset="1" stop-color="#FFBD37"/>
</linearGradient>
<linearGradient id="paint46_linear_825_417" x1="100.411" y1="58.8344" x2="117.492" y2="65.2684" gradientUnits="userSpaceOnUse">
<stop offset="0.1642" stop-color="#FFDE43"/>
<stop offset="0.2484" stop-color="#FFDA42"/>
<stop offset="1" stop-color="#FFBD37"/>
</linearGradient>
<linearGradient id="paint47_linear_825_417" x1="100.411" y1="58.8344" x2="117.492" y2="65.2684" gradientUnits="userSpaceOnUse">
<stop offset="0.0180995" stop-color="#FFFFA0"/>
<stop offset="0.9762" stop-color="#FFEB6A"/>
</linearGradient>
<linearGradient id="paint48_linear_825_417" x1="98.3833" y1="64.5882" x2="114.241" y2="70.5617" gradientUnits="userSpaceOnUse">
<stop offset="0.1642" stop-color="#FFDE43"/>
<stop offset="0.2484" stop-color="#FFDA42"/>
<stop offset="1" stop-color="#FFBD37"/>
</linearGradient>
<linearGradient id="paint49_linear_825_417" x1="66.6565" y1="18.7032" x2="67.7261" y2="45.1217" gradientUnits="userSpaceOnUse">
<stop offset="0.199" stop-color="#FFDE43"/>
<stop offset="0.3362" stop-color="#FFD242"/>
<stop offset="0.5872" stop-color="#FFB13E"/>
<stop offset="0.9215" stop-color="#FF7B38"/>
<stop offset="1" stop-color="#FF6E37"/>
</linearGradient>
<linearGradient id="paint50_linear_825_417" x1="80.9462" y1="22.0933" x2="67.3081" y2="35.2162" gradientUnits="userSpaceOnUse">
<stop offset="0.199" stop-color="#FFDE43"/>
<stop offset="0.5646" stop-color="#FFD23E"/>
<stop offset="1" stop-color="#FFBD37"/>
</linearGradient>
<linearGradient id="paint51_linear_825_417" x1="79.9274" y1="24.003" x2="67.5279" y2="35.9341" gradientUnits="userSpaceOnUse">
<stop offset="0.0180995" stop-color="#FFFFA0"/>
<stop offset="0.9762" stop-color="#FFEB6A"/>
</linearGradient>
<linearGradient id="paint52_linear_825_417" x1="64.9066" y1="31.8756" x2="82.5596" y2="26.5889" gradientUnits="userSpaceOnUse">
<stop stop-color="#F5942A"/>
<stop offset="1" stop-color="#F5D85D"/>
</linearGradient>
<linearGradient id="paint53_linear_825_417" x1="65.2992" y1="33.1599" x2="82.9812" y2="27.8645" gradientUnits="userSpaceOnUse">
<stop stop-color="#E08C3C"/>
<stop offset="1" stop-color="#FFD06F"/>
</linearGradient>
<linearGradient id="paint54_linear_825_417" x1="68.4712" y1="30.1559" x2="78.6774" y2="27.0993" gradientUnits="userSpaceOnUse">
<stop offset="0.1642" stop-color="#FFDE43"/>
<stop offset="0.2484" stop-color="#FFDA42"/>
<stop offset="1" stop-color="#FFBD37"/>
</linearGradient>
<linearGradient id="paint55_linear_825_417" x1="68.4712" y1="30.1559" x2="78.6774" y2="27.0993" gradientUnits="userSpaceOnUse">
<stop offset="0.1642" stop-color="#FFDE43"/>
<stop offset="0.2484" stop-color="#FFDA42"/>
<stop offset="1" stop-color="#FFBD37"/>
</linearGradient>
<linearGradient id="paint56_linear_825_417" x1="68.4712" y1="30.1559" x2="78.6774" y2="27.0993" gradientUnits="userSpaceOnUse">
<stop offset="0.0180995" stop-color="#FFFFA0"/>
<stop offset="0.9762" stop-color="#FFEB6A"/>
</linearGradient>
<linearGradient id="paint57_linear_825_417" x1="69.5775" y1="33.5829" x2="79.0507" y2="30.7458" gradientUnits="userSpaceOnUse">
<stop offset="0.1642" stop-color="#FFDE43"/>
<stop offset="0.2484" stop-color="#FFDA42"/>
<stop offset="1" stop-color="#FFBD37"/>
</linearGradient>
<radialGradient id="paint58_radial_825_417" cx="0" cy="0" r="1" gradientUnits="userSpaceOnUse" gradientTransform="translate(183.813 110.444) scale(9.54683)">
<stop offset="0.00151496" stop-color="#CBFFFF"/>
<stop offset="0.00905204" stop-color="#CBFFFF" stop-opacity="0.987"/>
<stop offset="0.2044" stop-color="#CDFFFF" stop-opacity="0"/>
</radialGradient>
<radialGradient id="paint59_radial_825_417" cx="0" cy="0" r="1" gradientUnits="userSpaceOnUse" gradientTransform="translate(145.626 73.8476) scale(6.36456)">
<stop offset="0.00151496" stop-color="#CBFFFF"/>
<stop offset="0.00905204" stop-color="#CBFFFF" stop-opacity="0.987"/>
<stop offset="0.2044" stop-color="#CDFFFF" stop-opacity="0"/>
</radialGradient>
<radialGradient id="paint60_radial_825_417" cx="0" cy="0" r="1" gradientUnits="userSpaceOnUse" gradientTransform="translate(171.084 145.449) scale(3.18228)">
<stop offset="0.00151496" stop-color="#CBFFFF"/>
<stop offset="0.00905204" stop-color="#CBFFFF" stop-opacity="0.987"/>
<stop offset="0.5801" stop-color="#CDFFFF" stop-opacity="0"/>
</radialGradient>
<radialGradient id="paint61_radial_825_417" cx="0" cy="0" r="1" gradientUnits="userSpaceOnUse" gradientTransform="translate(183.813 62.7095) scale(9.54683)">
<stop offset="0.00151496" stop-color="#CBFFFF"/>
<stop offset="0.00905204" stop-color="#CBFFFF" stop-opacity="0.987"/>
<stop offset="0.2044" stop-color="#CDFFFF" stop-opacity="0"/>
</radialGradient>
<radialGradient id="paint62_radial_825_417" cx="0" cy="0" r="1" gradientUnits="userSpaceOnUse" gradientTransform="translate(116.985 19.7488) scale(7.2295)">
<stop offset="0.00151496" stop-color="#CBFFFF"/>
<stop offset="0.00905204" stop-color="#CBFFFF" stop-opacity="0.987"/>
<stop offset="0.2044" stop-color="#CDFFFF" stop-opacity="0"/>
</radialGradient>
<radialGradient id="paint63_radial_825_417" cx="0" cy="0" r="1" gradientUnits="userSpaceOnUse" gradientTransform="translate(136.079 30.8872) scale(9.54683)">
<stop offset="0.00151496" stop-color="#CBFFFF"/>
<stop offset="0.00905204" stop-color="#CBFFFF" stop-opacity="0.987"/>
<stop offset="0.2044" stop-color="#CDFFFF" stop-opacity="0"/>
</radialGradient>
<radialGradient id="paint64_radial_825_417" cx="0" cy="0" r="1" gradientUnits="userSpaceOnUse" gradientTransform="translate(5.6053 18.1577) scale(5.63836)">
<stop offset="0.00151496" stop-color="#CBFFFF"/>
<stop offset="0.00905204" stop-color="#CBFFFF" stop-opacity="0.987"/>
<stop offset="0.2044" stop-color="#CDFFFF" stop-opacity="0"/>
</radialGradient>
<radialGradient id="paint65_radial_825_417" cx="0" cy="0" r="1" gradientUnits="userSpaceOnUse" gradientTransform="translate(212.453 34.0695) scale(11.138)">
<stop offset="0.1202" stop-color="white"/>
<stop offset="0.1655" stop-color="#7E15EC"/>
<stop offset="0.5081" stop-color="#7A14E2" stop-opacity="0.5322"/>
<stop offset="0.8978" stop-color="#7714DC" stop-opacity="0"/>
</radialGradient>
<radialGradient id="paint66_radial_825_417" cx="0" cy="0" r="1" gradientUnits="userSpaceOnUse" gradientTransform="translate(168.538 32.9557) scale(11.138 11.138)">
<stop offset="0.1202" stop-color="white"/>
<stop offset="0.1655" stop-color="#D400EC"/>
<stop offset="0.5081" stop-color="#CC00E2" stop-opacity="0.5322"/>
<stop offset="0.8978" stop-color="#C800DC" stop-opacity="0"/>
</radialGradient>
<radialGradient id="paint67_radial_825_417" cx="0" cy="0" r="1" gradientUnits="userSpaceOnUse" gradientTransform="translate(178.403 84.0316) scale(11.138)">
<stop offset="0.1202" stop-color="white"/>
<stop offset="0.1655" stop-color="#1E10EC"/>
<stop offset="0.5081" stop-color="#1E0FE2" stop-opacity="0.5322"/>
<stop offset="0.8978" stop-color="#1E0FDC" stop-opacity="0"/>
</radialGradient>
<radialGradient id="paint68_radial_825_417" cx="0" cy="0" r="1" gradientUnits="userSpaceOnUse" gradientTransform="translate(165.109 134.341) scale(7.92467)">
<stop offset="0.1202" stop-color="white"/>
<stop offset="0.1655" stop-color="#1E10EC"/>
<stop offset="0.5081" stop-color="#1E0FE2" stop-opacity="0.5322"/>
<stop offset="0.8978" stop-color="#1E0FDC" stop-opacity="0"/>
</radialGradient>
<radialGradient id="paint69_radial_825_417" cx="0" cy="0" r="1" gradientUnits="userSpaceOnUse" gradientTransform="translate(92.1017 28.4363) scale(6.57681 6.57682)">
<stop offset="0.1202" stop-color="white"/>
<stop offset="0.1655" stop-color="#1E10EC"/>
<stop offset="0.5081" stop-color="#1E0FE2" stop-opacity="0.5322"/>
<stop offset="0.8978" stop-color="#1E0FDC" stop-opacity="0"/>
</radialGradient>
<radialGradient id="paint70_radial_825_417" cx="0" cy="0" r="1" gradientUnits="userSpaceOnUse" gradientTransform="translate(78.3393 7.55513) scale(6.57682 6.57681)">
<stop offset="0.1202" stop-color="white"/>
<stop offset="0.1655" stop-color="#10C6EC"/>
<stop offset="0.5586" stop-color="#05B8E1" stop-opacity="0.4632"/>
<stop offset="0.8978" stop-color="#00B2DC" stop-opacity="0"/>
</radialGradient>
<radialGradient id="paint71_radial_825_417" cx="0" cy="0" r="1" gradientUnits="userSpaceOnUse" gradientTransform="translate(42.7466 8.50439) scale(6.57682)">
<stop offset="0.1202" stop-color="white"/>
<stop offset="0.1655" stop-color="#10C6EC"/>
<stop offset="0.5586" stop-color="#05B8E1" stop-opacity="0.4632"/>
<stop offset="0.8978" stop-color="#00B2DC" stop-opacity="0"/>
</radialGradient>
</defs>
</svg>
