<svg
  width="160"
  height="160"
  viewBox="0 0 160 160"
  fill="none"
  xmlns="http://www.w3.org/2000/svg"
>
  <path
    d="M14.2948 57.1679L30.5053 117.666C31.1021 119.894 33.3915 121.215 35.6189 120.619L136.285 93.6451C138.513 93.0483 139.834 90.7589 139.238 88.5316L123.027 28.0331C122.43 25.8058 120.141 24.484 117.914 25.0808L17.2471 52.0543C15.0198 52.6511 13.698 54.9405 14.2948 57.1679Z"
    fill="url(#paint0_linear_5937_50064)"
  />
  <path
    d="M48.8468 79.0029C49.0654 79.8184 48.5607 80.6597 47.7228 80.8842L37.2417 83.6926C36.4038 83.9171 35.5462 83.4409 35.3276 82.6253L33.4618 75.6618C33.2432 74.8463 33.7478 74.0051 34.5858 73.7805L45.0669 70.9721C45.9093 70.7464 46.7624 71.2238 46.981 72.0394L48.8468 79.0029Z"
    fill="url(#paint1_linear_5937_50064)"
    stroke="#808184"
    stroke-width="0.0411733"
    stroke-miterlimit="3.86"
  />
  <path
    d="M44.7432 70.8569L34.9209 73.4888C33.8185 73.7841 33.1625 74.9205 33.4578 76.0228L35.1676 82.4038C35.463 83.5061 36.5993 84.1622 37.7017 83.8668L47.524 81.2349C48.6263 80.9396 49.2824 79.8032 48.987 78.7009L47.2773 72.3199C46.9819 71.2176 45.8455 70.5615 44.7432 70.8569ZM33.6447 75.8959L33.8274 75.7173C33.7224 74.8233 34.3019 73.9572 35.225 73.7098L36.9995 73.2344C37.4954 73.6154 37.8735 74.148 38.0452 74.7888C38.1869 75.3176 38.1711 75.8501 38.0297 76.3443L34.2388 77.36L33.953 76.2936L33.7246 76.2299L33.6334 75.8893L33.6447 75.8959ZM34.5554 79.2587L34.4594 78.9003L34.6265 78.7354L34.3227 77.6017L38.1271 76.5823C38.4335 76.9373 38.7442 77.3439 38.8751 77.8323C39.0228 78.3835 39.0175 78.9372 38.8899 79.4469L35.09 80.4651L34.7862 79.3314L34.5554 79.2587ZM37.8473 83.4964C36.9287 83.7426 35.9991 83.2664 35.6338 82.423L35.3737 82.3486L35.2801 81.9991L35.4484 81.8387L35.1555 80.7453L38.9285 79.7343C39.254 80.089 39.5626 80.5058 39.6971 81.0076C39.8868 81.7156 39.9342 82.3945 39.6621 83.0101L37.8473 83.4964ZM39.9803 82.9249C40.1607 82.3434 40.1973 81.7093 40.028 81.0775C39.8695 80.486 39.5515 79.9804 39.1464 79.5799C39.2958 79.026 39.3172 78.4247 39.1575 77.8287C38.9978 77.2327 38.6903 76.7484 38.2942 76.3454C38.437 75.8029 38.4587 75.2207 38.3014 74.6337C38.1441 74.0467 37.7341 73.5562 37.329 73.1557L44.754 71.1661C45.6189 70.9344 46.495 71.372 46.8288 72.1519L47.073 72.2209L47.1595 72.5436L47.0022 72.6914L47.2963 73.7892L43.3755 74.8398C43.3755 74.8398 42.9989 75.5315 43.2973 76.681C43.4525 77.2782 43.7761 77.787 44.1869 78.1909C44.0364 78.7403 44.0093 79.3383 44.1678 79.9298C44.3407 80.575 44.6987 81.1227 45.1615 81.5414L39.9905 82.927L39.9803 82.9249ZM48.8207 78.7791L48.6335 78.9589C48.7365 79.8631 48.1626 80.7324 47.235 80.981L45.474 81.4529C44.9037 81.063 44.5772 80.454 44.3851 79.7371C44.2554 79.2531 44.337 78.751 44.4408 78.2957L48.2138 77.2848L48.5043 78.3692L48.7327 78.4329L48.8252 78.7779L48.8207 78.7791ZM47.9862 75.6648L47.8191 75.8296L48.13 76.9902L44.3212 78.0108C43.9242 77.6225 43.6233 77.1268 43.4684 76.5487C43.3399 76.0693 43.4182 75.5728 43.4983 75.1191L47.352 74.0865L47.6582 75.2292L47.8934 75.3006L47.9907 75.6636L47.9862 75.6648ZM43.7005 80.785L40.8058 81.5606C40.6983 81.5894 40.6327 81.7031 40.6615 81.8106C40.6903 81.9182 40.8039 81.9838 40.9115 81.955L43.8062 81.1793C43.9138 81.1505 43.9794 81.0369 43.9505 80.9293C43.9217 80.8218 43.8081 80.7562 43.7005 80.785ZM41.5393 72.7191L38.6446 73.4948C38.537 73.5236 38.4714 73.6372 38.5002 73.7448C38.5291 73.8523 38.6427 73.9179 38.7502 73.8891L41.645 73.1135C41.7525 73.0846 41.8181 72.971 41.7893 72.8635C41.7605 72.7559 41.6469 72.6903 41.5393 72.7191Z"
    fill="#808184"
  />
  <path
    d="M106.893 95.8057C106.965 95.8056 107.052 95.7918 107.16 95.7629C107.536 95.6621 107.714 95.4126 107.628 95.09C107.541 94.7674 107.272 94.6762 106.932 94.7675C106.797 94.8035 106.692 94.8413 106.643 94.8736L106.895 95.8146L106.893 95.8057ZM106.267 94.7247C106.412 94.657 106.604 94.5862 106.855 94.519C107.165 94.4361 107.408 94.4478 107.586 94.5393C107.747 94.621 107.875 94.7741 107.932 94.9892C107.99 95.2043 107.974 95.3959 107.882 95.555C107.759 95.7754 107.518 95.9358 107.214 96.0175C107.12 96.0427 107.034 96.0655 106.957 96.0623L107.216 97.0302L106.902 97.1143L106.262 94.7259L106.267 94.7247Z"
    fill="#98989A"
  />
  <path
    d="M108.103 94.0661L108.421 93.9809L109.103 96.5261L108.785 96.6113L108.103 94.0661Z"
    fill="#98989A"
  />
  <path
    d="M110.413 95.2243C110.065 95.3078 109.692 95.475 109.782 95.8111C109.838 96.0172 109.997 96.0753 110.158 96.0321C110.387 95.9708 110.496 95.7878 110.506 95.6267C110.505 95.5885 110.5 95.5514 110.493 95.5245L110.413 95.2243ZM110.844 95.6132C110.884 95.7655 110.932 95.9065 110.982 96.0227L110.7 96.0983L110.614 95.886L110.605 95.8884C110.543 96.0492 110.392 96.2239 110.146 96.29C109.796 96.3836 109.551 96.1852 109.484 95.9342C109.371 95.513 109.682 95.1848 110.355 95.0092L110.345 94.9734C110.308 94.8345 110.197 94.5809 109.844 94.6802C109.678 94.7246 109.525 94.8139 109.422 94.9326L109.294 94.7412C109.413 94.6132 109.607 94.494 109.827 94.4352C110.355 94.2935 110.583 94.6217 110.675 94.9667L110.849 95.6164L110.844 95.6132Z"
    fill="#98989A"
  />
  <path
    d="M111.329 93.6233L111.441 94.04L111.893 93.9187L111.958 94.1607L111.505 94.282L111.756 95.2185C111.814 95.4336 111.909 95.5378 112.084 95.491C112.169 95.4681 112.216 95.446 112.262 95.4193L112.34 95.6577C112.283 95.6969 112.195 95.7445 112.074 95.7769C111.926 95.8166 111.797 95.7985 111.698 95.7338C111.586 95.658 111.509 95.5152 111.454 95.3091L111.201 94.3636L110.932 94.4357L110.867 94.1937L111.136 94.1216L111.049 93.799L111.333 93.6221L111.329 93.6233Z"
    fill="#98989A"
  />
  <path
    d="M112.888 95.5107L112.423 93.7765L112.737 93.6925L113.202 95.4266L112.888 95.5107ZM112.642 93.1944C112.671 93.302 112.617 93.4075 112.492 93.4411C112.375 93.4724 112.281 93.4064 112.252 93.2989C112.223 93.1913 112.28 93.0801 112.396 93.0489C112.513 93.0177 112.612 93.0824 112.642 93.1944Z"
    fill="#98989A"
  />
  <path
    d="M113.443 94.0046C113.394 93.8209 113.356 93.6775 113.304 93.5377L113.581 93.4633L113.676 93.7453L113.685 93.7429C113.727 93.5587 113.886 93.3434 114.172 93.2665C114.414 93.2017 114.825 93.2454 114.984 93.8414L115.261 94.8721L114.947 94.9561L114.679 93.9568C114.605 93.679 114.439 93.4736 114.139 93.5541C113.933 93.6093 113.811 93.8004 113.804 93.9896C113.802 94.0335 113.807 94.0897 113.821 94.1434L114.101 95.1875L113.787 95.2716L113.449 94.0079L113.443 94.0046Z"
    fill="#98989A"
  />
  <path
    d="M117.335 93.804C117.384 93.9877 117.426 94.1445 117.476 94.2754L117.198 94.3498L117.104 94.0723L117.095 94.0747C117.052 94.2352 116.917 94.4682 116.608 94.551C116.335 94.6243 115.967 94.5596 115.804 93.9501L115.532 92.9374L115.846 92.8534L116.103 93.8123C116.192 94.1439 116.355 94.3403 116.637 94.2647C116.848 94.2083 116.956 94.0208 116.976 93.8618C116.982 93.8122 116.976 93.756 116.96 93.6933L116.675 92.6312L116.989 92.5472L117.326 93.8064L117.335 93.804Z"
    fill="#98989A"
  />
  <path
    d="M117.623 92.8835C117.574 92.6998 117.526 92.5588 117.483 92.4166L117.761 92.3422L117.85 92.6209L117.859 92.6185C117.913 92.4263 118.034 92.2307 118.321 92.1539C118.554 92.0914 118.771 92.1868 118.903 92.3725L118.912 92.3701C118.939 92.2571 118.992 92.1662 119.049 92.0932C119.13 91.9849 119.232 91.9146 119.397 91.8702C119.63 91.8077 120.012 91.8688 120.173 92.4693L120.445 93.4865L120.136 93.5693L119.874 92.5925C119.784 92.2564 119.606 92.0928 119.355 92.1601C119.171 92.2093 119.073 92.3798 119.054 92.5432C119.053 92.5917 119.054 92.649 119.069 92.7073L119.356 93.7783L119.047 93.8611L118.769 92.8215C118.694 92.5437 118.52 92.3789 118.278 92.4438C118.086 92.4954 117.98 92.6919 117.972 92.8619C117.967 92.9115 117.972 92.9677 117.986 93.0215L118.266 94.0655L117.957 94.1484L117.618 92.8847L117.623 92.8835Z"
    fill="#98989A"
  />
  <path
    d="M122.244 92.7476C122.309 92.7398 122.4 92.7202 122.507 92.6914C122.83 92.605 123.094 92.4092 123 92.0552C122.912 91.7281 122.592 91.6648 122.252 91.7561L121.992 91.8257L122.239 92.7488L122.244 92.7476ZM121.934 91.5915L122.216 91.5159C122.543 91.4282 122.689 91.2018 122.627 90.9688C122.552 90.691 122.311 90.6309 121.992 90.7162C121.849 90.7546 121.771 90.7852 121.721 90.813L121.929 91.5927L121.934 91.5915ZM121.355 90.6853C121.481 90.6179 121.695 90.5366 121.91 90.479C122.223 90.3949 122.435 90.3959 122.615 90.4773C122.766 90.5377 122.885 90.6595 122.935 90.8477C122.999 91.0852 122.896 91.3289 122.669 91.4857L122.672 91.4947C122.915 91.4872 123.234 91.6034 123.33 91.9619C123.385 92.168 123.348 92.3509 123.253 92.5011C123.129 92.6979 122.874 92.8428 122.48 92.9485C122.265 93.0061 122.096 93.0371 121.989 93.0512L121.353 90.6763L121.355 90.6853Z"
    fill="#98989A"
  />
  <path
    d="M125.237 91.6878C125.287 91.8715 125.329 92.0283 125.378 92.1591L125.1 92.2336L125.007 91.9561L124.998 91.9585C124.954 92.119 124.82 92.352 124.511 92.4348C124.237 92.5081 123.869 92.4433 123.706 91.8339L123.435 90.8212L123.748 90.7372L124.005 91.6961C124.094 92.0277 124.257 92.2241 124.54 92.1485C124.75 92.0921 124.858 91.9046 124.878 91.7456C124.884 91.696 124.879 91.6398 124.862 91.577L124.577 90.515L124.891 90.431L125.228 91.6902L125.237 91.6878Z"
    fill="#98989A"
  />
  <path
    d="M125.77 91.7135C125.885 91.7453 126.063 91.7648 126.224 91.7216C126.448 91.6616 126.526 91.5207 126.486 91.3729C126.446 91.225 126.335 91.1683 126.084 91.1444C125.739 91.112 125.547 90.9858 125.49 90.7752C125.416 90.4974 125.582 90.2031 125.949 90.1047C126.124 90.0578 126.293 90.0606 126.399 90.0993L126.384 90.3483C126.305 90.3215 126.164 90.2968 126.003 90.3401C125.815 90.3905 125.745 90.5245 125.78 90.6544C125.818 90.7978 125.933 90.8341 126.186 90.8625C126.512 90.8953 126.713 90.9999 126.782 91.2598C126.865 91.569 126.681 91.849 126.277 91.957C126.089 92.0074 125.897 92.0062 125.757 91.9669L125.769 91.709L125.77 91.7135Z"
    fill="#98989A"
  />
  <path
    d="M127.443 91.6122L126.978 89.8781L127.292 89.794L127.756 91.5282L127.443 91.6122ZM127.197 89.296C127.225 89.4035 127.172 89.5091 127.047 89.5427C126.93 89.5739 126.836 89.508 126.807 89.4005C126.778 89.2929 126.835 89.1817 126.951 89.1505C127.068 89.1192 127.167 89.184 127.197 89.296Z"
    fill="#98989A"
  />
  <path
    d="M127.998 90.1042C127.949 89.9205 127.91 89.7771 127.858 89.6373L128.136 89.5629L128.231 89.8449L128.24 89.8425C128.282 89.6583 128.44 89.443 128.727 89.3662C128.965 89.3025 129.379 89.3451 129.539 89.941L129.815 90.9717L129.502 91.0557L129.234 90.0564C129.159 89.7786 128.994 89.5732 128.694 89.6537C128.487 89.7089 128.366 89.9 128.359 90.0892C128.356 90.1331 128.362 90.1893 128.376 90.243L128.656 91.2871L128.342 91.3712L128.004 90.1075L127.998 90.1042Z"
    fill="#98989A"
  />
  <path
    d="M131.425 89.4294C131.372 89.2322 131.207 88.9401 130.849 89.0362C130.526 89.1226 130.47 89.4499 130.502 89.6767L131.425 89.4294ZM130.562 89.9008C130.685 90.3241 131 90.4268 131.318 90.3415C131.542 90.2815 131.675 90.2027 131.774 90.1234L131.892 90.3319C131.793 90.4112 131.618 90.5256 131.34 90.6C130.806 90.7429 130.393 90.4741 130.253 89.9498C130.112 89.4256 130.312 88.9349 130.819 88.7993C131.388 88.6468 131.668 89.1001 131.754 89.4227C131.771 89.4854 131.784 89.5347 131.785 89.573L130.566 89.8996L130.562 89.9008Z"
    fill="#98989A"
  />
  <path
    d="M132.297 89.9647C132.411 89.9965 132.589 90.016 132.751 89.9728C132.975 89.9128 133.052 89.7719 133.013 89.624C132.973 89.4762 132.862 89.4195 132.611 89.3956C132.266 89.3632 132.073 89.237 132.017 89.0264C131.942 88.7486 132.109 88.4543 132.481 88.3547C132.655 88.3078 132.824 88.3106 132.931 88.3493L132.916 88.5983C132.836 88.5715 132.695 88.5468 132.534 88.5901C132.346 88.6405 132.276 88.7745 132.311 88.9044C132.349 89.0478 132.465 89.0841 132.717 89.1125C133.043 89.1453 133.244 89.2499 133.314 89.5098C133.396 89.819 133.212 90.099 132.809 90.207C132.621 90.2574 132.428 90.2562 132.288 90.2169L132.3 89.959L132.297 89.9647Z"
    fill="#98989A"
  />
  <path
    d="M133.864 89.5438C133.978 89.5756 134.156 89.5951 134.317 89.5519C134.541 89.4919 134.619 89.351 134.579 89.2032C134.54 89.0553 134.428 88.9986 134.177 88.9747C133.832 88.9423 133.64 88.8161 133.583 88.6055C133.509 88.3277 133.675 88.0334 134.047 87.9338C134.222 87.8869 134.391 87.8897 134.497 87.9284L134.482 88.1774C134.403 88.1506 134.262 88.1259 134.1 88.1692C133.912 88.2196 133.842 88.3536 133.877 88.4835C133.916 88.6269 134.031 88.6632 134.284 88.6916C134.609 88.7244 134.81 88.829 134.88 89.0889C134.963 89.3981 134.778 89.6781 134.375 89.7861C134.187 89.8365 133.994 89.8353 133.854 89.796L133.867 89.5381L133.864 89.5438Z"
    fill="#98989A"
  />
  <path
    d="M51.6033 54.5332L57.451 52.9664L61.7643 57.377L60.2342 63.3534L54.3865 64.9203L50.0732 60.5096L51.6033 54.5332ZM57.3811 53.2252L51.7977 54.7213L50.3331 60.44L54.4609 64.6602L60.0442 63.1641L61.5088 57.4455L57.3811 53.2252Z"
    fill="#5B6871"
  />
  <path
    d="M51.786 54.4857C51.786 54.4857 51.8231 54.4806 51.8434 54.4847C51.9056 54.5017 51.9415 54.5641 51.929 54.6251L50.416 60.5393L44.6355 62.0881C44.5727 62.105 44.5102 62.0689 44.4934 62.0061C44.4766 61.9434 44.5127 61.8809 44.5754 61.8641L50.226 60.35L51.7075 54.5692C51.7203 54.5273 51.7502 54.4953 51.7905 54.4845L51.786 54.4857Z"
    fill="#5B6871"
  />
  <path
    d="M41.7149 52.5683C41.7149 52.5683 41.752 52.5632 41.7723 52.5673C41.8345 52.5843 41.8704 52.6467 41.8579 52.7077L40.5965 57.6611C40.5796 57.7233 40.5172 57.7592 40.4562 57.7467C40.394 57.7298 40.3581 57.6674 40.3706 57.6064L41.632 52.653C41.6448 52.6111 41.6746 52.5791 41.7149 52.5683Z"
    fill="#5B6871"
  />
  <path
    d="M34.4627 59.125L40.3104 57.5581L44.6236 61.9688L43.0936 67.9452L37.2459 69.5121L32.9326 65.1014L34.4627 59.125ZM40.2405 57.817L34.6571 59.3131L33.1925 65.0318L37.3203 69.252L42.9036 67.7559L44.3682 62.0373L40.2405 57.817Z"
    fill="#5B6871"
  />
  <path
    d="M24.5408 56.3819L30.3885 54.815L34.7018 59.2256L33.1717 65.202L27.324 66.7689L23.0107 62.3582L24.5408 56.3819ZM30.3186 55.0739L24.7352 56.5699L23.2706 62.2886L27.3984 66.5088L32.9817 65.0128L34.4463 59.2941L30.3186 55.0739Z"
    fill="#5B6871"
  />
  <path
    d="M68.1522 92.9881L62.3044 94.555L57.9912 90.1444L59.5213 84.168L65.369 82.6011L69.6822 87.0118L68.1522 92.9881ZM62.3744 94.2962L67.9577 92.8001L69.4223 87.0814L65.2946 82.8612L59.7112 84.3572L58.2466 90.0759L62.3744 94.2962Z"
    fill="#5B6871"
  />
  <path
    d="M78.3748 95.7001L72.5271 97.267L68.2139 92.8563L69.7439 86.8799L75.5917 85.313L79.9049 89.7237L78.3748 95.7001ZM72.597 97.0081L78.1804 95.512L79.645 89.7933L75.5173 85.5731L69.9339 87.0692L68.4693 92.7879L72.597 97.0081Z"
    fill="#5B6871"
  />
  <path
    d="M77.3905 57.8299L71.5427 59.3968L67.2295 54.9862L68.7595 49.0098L74.6073 47.4429L78.9205 51.8536L78.9035 51.9158L77.3905 57.8299ZM71.6126 59.138L77.196 57.6419L78.6606 51.9232L74.5329 47.703L68.9495 49.199L67.4849 54.9177L71.6126 59.138Z"
    fill="#5B6871"
  />
  <path
    d="M85.5623 88.3231L79.7146 89.89L75.4014 85.4793L76.9314 79.503L82.7792 77.9361L87.0924 82.3467L85.5623 88.3231ZM79.7845 89.6311L85.3679 88.1351L86.8325 82.4164L82.7048 78.1961L77.1214 79.6922L75.6568 85.4109L79.7845 89.6311Z"
    fill="#5B6871"
  />
  <path
    d="M88.285 98.4911L82.4373 100.058L78.124 95.6473L79.6541 89.6709L85.5018 88.104L89.815 92.5147L88.285 98.4911ZM82.5072 99.7991L88.0905 98.303L89.5551 92.5843L85.4274 88.3641L79.844 89.8602L78.3794 95.5789L82.5072 99.7991Z"
    fill="#5B6871"
  />
  <path
    d="M74.6095 47.6826C74.6095 47.6826 74.5725 47.6877 74.5522 47.6835C74.49 47.6666 74.454 47.6042 74.471 47.542L75.9841 41.6278L80.9714 40.2914C81.0342 40.2746 81.0967 40.3107 81.1135 40.3734C81.1303 40.4362 81.0942 40.4987 81.0315 40.5155L76.1741 41.817L74.6925 47.5979C74.6797 47.6397 74.6499 47.6718 74.6095 47.6826Z"
    fill="#5B6871"
  />
  <path
    d="M87.3397 60.6141L81.4919 62.181L77.1787 57.7704L77.1957 57.7082L78.7088 51.794L84.5565 50.2271L88.8697 54.6378L88.8528 54.6999L87.3397 60.6141ZM81.5619 61.9221L87.1452 60.4261L88.6098 54.7074L84.4821 50.4872L78.8987 51.9832L77.4341 57.7019L81.5619 61.9221Z"
    fill="#5B6871"
  />
  <path
    d="M92.7889 80.9452L86.9412 82.5121L82.6279 78.1014L84.158 72.125L90.0057 70.5581L94.3189 74.9688L92.7889 80.9452ZM87.0111 82.2532L92.5944 80.7571L94.059 75.0385L89.9313 70.8182L84.348 72.3143L82.8834 78.033L87.0111 82.2532Z"
    fill="#5B6871"
  />
  <path
    d="M94.5272 53.2372L88.6794 54.8041L84.3662 50.3934L84.3832 50.3312L85.8963 44.417L91.744 42.8501L96.0572 47.2608L96.0403 47.323L94.5272 53.2372ZM88.7494 54.5452L94.3327 53.0491L95.7973 47.3304L91.6696 43.1102L86.0862 44.6063L84.6216 50.325L88.7494 54.5452Z"
    fill="#5B6871"
  />
  <path
    d="M97.2538 63.4051L91.406 64.972L87.0928 60.5614L87.1097 60.4992L88.6228 54.585L94.4706 53.0181L98.7838 57.4288L98.7668 57.4909L97.2538 63.4051ZM91.4759 64.7132L97.0593 63.2171L98.5239 57.4984L94.3962 53.2782L88.8128 54.7742L87.3482 60.4929L91.4759 64.7132Z"
    fill="#5B6871"
  />
  <path
    d="M102.699 83.7313L96.8513 85.2982L92.5381 80.8875L94.0681 74.9112L99.9159 73.3443L104.229 77.7549L102.699 83.7313ZM96.9212 85.0393L102.505 83.5433L103.969 77.8246L99.8415 73.6044L94.2581 75.1004L92.7935 80.8191L96.9212 85.0393Z"
    fill="#5B6871"
  />
  <path
    d="M113.261 42.773C113.22 42.7838 113.179 42.771 113.147 42.7411L108.973 38.4755L104.192 39.7567C104.129 39.7735 104.067 39.7374 104.05 39.6746C104.033 39.6119 104.069 39.5494 104.132 39.5326L109.043 38.2166L113.31 42.5819C113.356 42.6273 113.356 42.6993 113.311 42.7451C113.295 42.7589 113.279 42.7682 113.261 42.773Z"
    fill="#5B6871"
  />
  <path
    d="M114.39 58.8133L108.543 60.3802L104.229 55.9696L104.246 55.9074L105.76 49.9932L111.607 48.4263L115.921 52.837L115.904 52.8992L114.39 58.8133ZM108.613 60.1214L114.196 58.6253L115.661 52.9066L111.533 48.6864L105.95 50.1824L104.485 55.9011L108.613 60.1214Z"
    fill="#5B6871"
  />
  <path
    d="M117.113 68.9764L111.265 70.5433L106.952 66.1327L108.482 60.1563L114.33 58.5894L114.377 58.6392L118.643 63.0001L117.113 68.9764ZM111.335 70.2844L116.919 68.7884L118.383 63.0697L114.256 58.8495L108.672 60.3455L107.208 66.0642L111.335 70.2844Z"
    fill="#5B6871"
  />
  <path
    d="M118.89 41.2635L113.043 42.8304L108.729 38.4198L108.746 38.3576L110.26 32.4434L116.107 30.8765L120.421 35.2872L120.404 35.3493L118.89 41.2635ZM113.113 42.5716L118.696 41.0755L120.161 35.3568L116.033 31.1366L110.45 32.6326L108.985 38.3513L113.113 42.5716Z"
    fill="#5B6871"
  />
  <path
    d="M121.613 51.4305L115.765 52.9974L111.452 48.5868L111.469 48.5246L112.982 42.6104L118.83 41.0435L123.143 45.4542L123.126 45.5163L121.613 51.4305ZM115.835 52.7386L121.419 51.2425L122.883 45.5238L118.756 41.3036L113.172 42.7996L111.708 48.5183L115.835 52.7386Z"
    fill="#5B6871"
  />
  <path
    d="M120.644 72.6691C120.604 72.6799 120.562 72.6671 120.53 72.6373L116.901 68.9173L118.415 63.0076C118.432 62.9454 118.495 62.9095 118.557 62.9264C118.619 62.9434 118.655 63.0058 118.638 63.068L117.157 68.8489L120.694 72.4781C120.739 72.5235 120.74 72.5955 120.69 72.6425C120.674 72.6562 120.657 72.6655 120.64 72.6703L120.644 72.6691Z"
    fill="#5B6871"
  />
  <path
    d="M37.9832 110.742C38.0409 110.957 38.051 111.156 38.0123 111.335C37.9737 111.513 37.8974 111.658 37.7813 111.781C37.6652 111.903 37.5192 111.985 37.3444 112.032C37.1696 112.079 37.002 112.081 36.8403 112.033C36.6785 111.985 36.5386 111.893 36.4171 111.762C36.2944 111.627 36.2049 111.454 36.146 111.234C36.0872 111.015 36.0783 110.82 36.1169 110.642C36.1556 110.463 36.2319 110.318 36.348 110.196C36.4641 110.073 36.6101 109.991 36.7849 109.944C36.9596 109.897 37.1273 109.895 37.289 109.943C37.4507 109.991 37.5895 110.079 37.7122 110.214C37.8349 110.349 37.9244 110.522 37.9832 110.742ZM37.6785 110.824C37.6341 110.658 37.57 110.526 37.4862 110.428C37.4024 110.331 37.3079 110.265 37.197 110.227C37.0861 110.19 36.9758 110.191 36.8593 110.222C36.7428 110.253 36.6481 110.312 36.5697 110.396C36.4912 110.479 36.4423 110.583 36.4197 110.714C36.396 110.841 36.4063 110.987 36.4507 111.153C36.4952 111.318 36.5593 111.45 36.6431 111.548C36.7268 111.645 36.8226 111.716 36.9323 111.749C37.042 111.782 37.1534 111.786 37.2699 111.754C37.3865 111.723 37.4811 111.664 37.5596 111.581C37.6381 111.497 37.687 111.393 37.7095 111.262C37.7333 111.136 37.723 110.989 37.6785 110.824Z"
    fill="#5B6871"
  />
  <path
    d="M39.2117 110.265L38.956 110.387C38.933 110.355 38.9111 110.327 38.8759 110.303C38.845 110.277 38.802 110.26 38.7569 110.253C38.7117 110.246 38.6544 110.247 38.5961 110.262C38.511 110.285 38.4486 110.321 38.4011 110.377C38.3525 110.428 38.3388 110.485 38.3544 110.543C38.3676 110.592 38.3975 110.632 38.4451 110.649C38.4893 110.67 38.5593 110.68 38.6492 110.676L38.9056 110.664C39.0529 110.659 39.1736 110.679 39.2589 110.728C39.3441 110.777 39.404 110.858 39.4328 110.965C39.4568 111.055 39.4515 111.143 39.417 111.229C39.3824 111.315 39.3251 111.388 39.2418 111.453C39.1585 111.519 39.0558 111.566 38.9303 111.599C38.76 111.645 38.6115 111.646 38.4848 111.603C38.358 111.56 38.262 111.471 38.2035 111.342L38.4783 111.221C38.5167 111.292 38.5669 111.336 38.636 111.361C38.705 111.386 38.7815 111.384 38.8667 111.362C38.9653 111.335 39.0354 111.292 39.0829 111.237C39.1303 111.181 39.144 111.124 39.1284 111.066C39.1152 111.017 39.0865 110.981 39.0422 110.959C38.9979 110.937 38.937 110.925 38.8617 110.931L38.5862 110.942C38.4344 110.949 38.3169 110.923 38.2305 110.869C38.144 110.816 38.0842 110.736 38.0554 110.628C38.0313 110.539 38.0366 110.451 38.0679 110.37C38.0992 110.29 38.1565 110.217 38.2365 110.157C38.3165 110.097 38.4091 110.048 38.5256 110.017C38.6914 109.973 38.8309 109.974 38.9443 110.02C39.0576 110.067 39.1455 110.144 39.2093 110.256L39.2117 110.265Z"
    fill="#5B6871"
  />
  <path
    d="M39.823 111.337L39.4148 109.814L39.7016 109.737L39.7676 109.983L39.7855 109.979C39.7941 109.885 39.831 109.808 39.8895 109.739C39.948 109.671 40.0272 109.626 40.1302 109.598C40.2333 109.57 40.3244 109.57 40.4049 109.601C40.4853 109.633 40.5559 109.681 40.61 109.758L40.628 109.753C40.6422 109.663 40.6824 109.58 40.7511 109.513C40.8185 109.442 40.9066 109.395 41.0142 109.366C41.1531 109.329 41.2771 109.344 41.3896 109.405C41.502 109.466 41.5783 109.589 41.6252 109.764L41.8989 110.786L41.6032 110.865L41.3366 109.87C41.309 109.767 41.2617 109.698 41.1915 109.669C41.1212 109.64 41.0468 109.631 40.9706 109.651C40.872 109.678 40.8087 109.728 40.7706 109.801C40.7324 109.874 40.7259 109.957 40.7511 110.051L41.0117 111.024L40.7159 111.103L40.4446 110.09C40.423 110.009 40.3781 109.949 40.3144 109.909C40.2507 109.868 40.173 109.865 40.0923 109.887C40.0341 109.902 39.9884 109.929 39.9475 109.974C39.9066 110.018 39.8816 110.068 39.8679 110.125C39.8554 110.186 39.8531 110.249 39.8723 110.32L40.1244 111.261L39.8287 111.341L39.823 111.337Z"
    fill="#5B6871"
  />
  <path
    d="M42.8994 110.547C42.756 110.585 42.6221 110.587 42.5011 110.548C42.3755 110.509 42.2708 110.441 42.1814 110.34C42.0919 110.239 42.0233 110.109 41.9813 109.952C41.9393 109.795 41.9334 109.648 41.9592 109.511C41.9863 109.379 42.0462 109.262 42.1313 109.168C42.2208 109.072 42.3379 109.007 42.4768 108.969C42.6157 108.932 42.754 108.929 42.8751 108.968C43.0007 109.007 43.1053 109.075 43.196 109.18C43.2867 109.285 43.3541 109.411 43.3973 109.573C43.4405 109.734 43.4452 109.877 43.4181 110.009C43.3911 110.141 43.3312 110.258 43.2449 110.348C43.1554 110.444 43.0383 110.509 42.8994 110.547ZM42.8322 110.296C42.9263 110.27 42.9964 110.228 43.0415 110.163C43.091 110.097 43.119 110.022 43.1231 109.93C43.1328 109.841 43.1223 109.747 43.0959 109.649C43.0694 109.55 43.032 109.464 42.979 109.392C42.926 109.32 42.8632 109.264 42.7918 109.231C42.7158 109.198 42.6324 109.192 42.5428 109.216C42.4532 109.24 42.3797 109.288 42.3302 109.354C42.2807 109.42 42.2539 109.5 42.2486 109.588C42.2388 109.677 42.2494 109.77 42.2758 109.868C42.3022 109.967 42.3397 110.053 42.3927 110.125C42.4457 110.198 42.5085 110.253 42.5799 110.286C42.6514 110.32 42.7381 110.321 42.8322 110.296Z"
    fill="#5B6871"
  />
  <path
    d="M44.3992 108.875L44.1435 108.996C44.1205 108.964 44.0986 108.936 44.0634 108.912C44.0325 108.887 43.9895 108.869 43.9444 108.862C43.8992 108.855 43.8419 108.856 43.7836 108.872C43.6985 108.894 43.6361 108.93 43.5886 108.986C43.54 109.038 43.5263 109.094 43.5419 109.153C43.5551 109.202 43.585 109.242 43.6326 109.258C43.6768 109.28 43.7468 109.29 43.8367 109.285L44.0931 109.274C44.2404 109.268 44.3611 109.288 44.4464 109.338C44.5316 109.387 44.5915 109.467 44.6203 109.574C44.6443 109.664 44.639 109.752 44.6045 109.838C44.5699 109.924 44.5126 109.997 44.4293 110.063C44.346 110.128 44.2433 110.175 44.1178 110.209C43.9475 110.254 43.799 110.256 43.6723 110.213C43.5455 110.17 43.4495 110.08 43.391 109.952L43.6658 109.83C43.7042 109.902 43.7544 109.946 43.8235 109.97C43.8925 109.995 43.969 109.994 44.0542 109.971C44.1528 109.945 44.2229 109.902 44.2704 109.846C44.3178 109.79 44.3315 109.733 44.3159 109.675C44.3027 109.626 44.274 109.59 44.2297 109.569C44.1854 109.547 44.1245 109.534 44.0492 109.54L43.7737 109.552C43.6219 109.559 43.5044 109.532 43.418 109.479C43.3315 109.425 43.2717 109.345 43.2429 109.238C43.2188 109.148 43.2241 109.06 43.2554 108.98C43.2867 108.899 43.344 108.826 43.424 108.766C43.504 108.706 43.5966 108.658 43.7131 108.626C43.8789 108.582 44.0184 108.583 44.1318 108.63C44.2451 108.676 44.333 108.753 44.3968 108.866L44.3992 108.875Z"
    fill="#5B6871"
  />
  <path
    d="M44.7007 108.144C44.6469 108.158 44.6018 108.151 44.5519 108.126C44.5064 108.1 44.4777 108.064 44.4645 108.015C44.4513 107.965 44.4584 107.92 44.4846 107.875C44.5109 107.829 44.5509 107.8 44.6047 107.785C44.6584 107.771 44.7036 107.778 44.7535 107.803C44.8034 107.828 44.8277 107.865 44.8409 107.914C44.8541 107.963 44.847 108.008 44.8207 108.054C44.7945 108.099 44.7545 108.129 44.7007 108.144ZM45.0247 109.944L44.6165 108.421L44.9122 108.341L45.3205 109.865L45.0247 109.944Z"
    fill="#5B6871"
  />
  <path
    d="M46.5203 108.307L46.2646 108.429C46.2416 108.397 46.2197 108.369 46.1845 108.345C46.1536 108.319 46.1106 108.302 46.0655 108.295C46.0203 108.288 45.963 108.289 45.9047 108.304C45.8196 108.327 45.7571 108.363 45.7097 108.419C45.6611 108.47 45.6474 108.527 45.663 108.585C45.6762 108.634 45.7061 108.674 45.7537 108.691C45.7979 108.712 45.8678 108.722 45.9578 108.718L46.2142 108.706C46.3615 108.701 46.4822 108.721 46.5675 108.77C46.6527 108.819 46.7126 108.9 46.7414 109.007C46.7654 109.097 46.7601 109.185 46.7255 109.271C46.691 109.357 46.6337 109.43 46.5504 109.495C46.4671 109.561 46.3644 109.608 46.2389 109.641C46.0686 109.687 45.9201 109.688 45.7933 109.645C45.6666 109.602 45.5706 109.513 45.5121 109.384L45.7869 109.263C45.8252 109.334 45.8755 109.378 45.9446 109.403C46.0136 109.428 46.0901 109.426 46.1753 109.404C46.2738 109.377 46.344 109.334 46.3915 109.279C46.4389 109.223 46.4526 109.166 46.437 109.108C46.4238 109.059 46.395 109.023 46.3508 109.001C46.3065 108.979 46.2456 108.967 46.1703 108.973L45.8948 108.984C45.743 108.991 45.6255 108.965 45.5391 108.911C45.4526 108.858 45.3928 108.778 45.364 108.67C45.3399 108.58 45.3452 108.493 45.3765 108.412C45.4078 108.332 45.4651 108.259 45.5451 108.199C45.6251 108.139 45.7177 108.09 45.8342 108.059C46 108.015 46.1395 108.016 46.2528 108.062C46.3662 108.109 46.4541 108.186 46.5179 108.298L46.5203 108.307Z"
    fill="#5B6871"
  />
  <path
    d="M50.961 106.882L50.6518 106.965C50.6204 106.902 50.5823 106.849 50.5378 106.808C50.4932 106.767 50.4409 106.733 50.382 106.711C50.3231 106.688 50.2666 106.675 50.2035 106.672C50.1405 106.67 50.0753 106.678 50.0126 106.695C49.8961 106.726 49.7969 106.786 49.7229 106.868C49.6489 106.95 49.5956 107.056 49.573 107.187C49.5504 107.318 49.5596 107.46 49.604 107.625C49.6484 107.791 49.7125 107.923 49.7975 108.025C49.8825 108.127 49.977 108.193 50.0867 108.226C50.1964 108.259 50.3079 108.263 50.4244 108.232C50.4872 108.215 50.5475 108.189 50.6009 108.155C50.6544 108.122 50.701 108.081 50.7374 108.037C50.7726 107.989 50.8021 107.938 50.8247 107.879C50.8429 107.822 50.8497 107.757 50.8463 107.691L51.1555 107.608C51.1652 107.716 51.1579 107.814 51.1359 107.911C51.1094 108.01 51.0703 108.097 51.0098 108.176C50.9549 108.258 50.8817 108.325 50.7961 108.382C50.7104 108.438 50.6121 108.484 50.5001 108.514C50.3253 108.561 50.1577 108.562 49.9959 108.514C49.8342 108.467 49.6943 108.374 49.5728 108.244C49.4501 108.108 49.365 107.934 49.3062 107.715C49.2473 107.495 49.2384 107.301 49.2771 107.122C49.3157 106.944 49.392 106.798 49.5081 106.676C49.6242 106.554 49.7703 106.471 49.945 106.424C50.0526 106.396 50.1604 106.386 50.2573 106.389C50.3541 106.392 50.4569 106.417 50.5442 106.456C50.636 106.494 50.7135 106.55 50.7856 106.622C50.8577 106.694 50.9155 106.784 50.9622 106.887L50.961 106.882Z"
    fill="#5B6871"
  />
  <path
    d="M51.8365 108.728C51.7917 108.74 51.7514 108.751 51.7131 108.751C51.6749 108.752 51.6468 108.755 51.6265 108.75L51.6333 108.489C51.6907 108.488 51.7424 108.484 51.7815 108.469C51.8219 108.458 51.8574 108.429 51.8804 108.389C51.9033 108.35 51.9227 108.296 51.9259 108.219L51.9341 108.106L50.9642 106.709L51.2824 106.624L51.9847 107.703L52.0026 107.699L52.071 106.412L52.3892 106.327L52.2253 108.225C52.22 108.313 52.1977 108.391 52.1673 108.457C52.1369 108.522 52.0951 108.582 52.0396 108.625C51.9841 108.669 51.916 108.702 51.8353 108.723L51.8365 108.728Z"
    fill="#5B6871"
  />
  <path
    d="M53.1328 108.38L52.5709 106.283L52.8622 106.205L52.9282 106.451L52.9551 106.444C52.9646 106.408 52.9774 106.366 53.0012 106.312C53.0251 106.257 53.057 106.215 53.1069 106.168C53.1567 106.121 53.2281 106.083 53.3222 106.057C53.4432 106.025 53.5636 106.026 53.679 106.063C53.7944 106.099 53.8946 106.168 53.9796 106.27C54.0645 106.372 54.1343 106.507 54.1776 106.669C54.2208 106.83 54.2323 106.981 54.2098 107.112C54.1872 107.242 54.135 107.352 54.0533 107.442C53.976 107.53 53.8724 107.591 53.7514 107.623C53.6573 107.649 53.5763 107.651 53.5108 107.64C53.4442 107.624 53.3898 107.6 53.3431 107.569C53.2965 107.539 53.2632 107.504 53.2369 107.478L53.219 107.483L53.4351 108.289L53.1394 108.369L53.1328 108.38ZM53.0663 106.966C53.0951 107.074 53.1337 107.165 53.1867 107.237C53.2397 107.309 53.3013 107.36 53.3716 107.389C53.4418 107.418 53.5195 107.421 53.6047 107.399C53.6898 107.376 53.76 107.333 53.8095 107.267C53.8546 107.202 53.8826 107.127 53.8923 107.038C53.9021 106.949 53.8903 106.851 53.8639 106.753C53.8375 106.654 53.7988 106.564 53.747 106.496C53.6941 106.424 53.6324 106.373 53.5622 106.344C53.4919 106.315 53.4085 106.308 53.3189 106.332C53.2293 106.356 53.1681 106.396 53.1174 106.458C53.0711 106.519 53.0431 106.593 53.0322 106.678C53.0224 106.767 53.033 106.86 53.0618 106.968L53.0663 106.966Z"
    fill="#5B6871"
  />
  <path
    d="M54.6548 106.392L54.8973 107.297L54.6016 107.376L54.0564 105.342L54.3477 105.264L54.5506 106.021L54.5686 106.016C54.5828 105.926 54.6186 105.844 54.6815 105.774C54.74 105.706 54.8326 105.657 54.9491 105.626C55.0522 105.598 55.1523 105.595 55.2392 105.615C55.3319 105.639 55.407 105.686 55.4746 105.759C55.5422 105.832 55.5934 105.934 55.6271 106.059L55.8864 107.027L55.5907 107.106L55.3409 106.174C55.3109 106.062 55.2612 105.984 55.1861 105.937C55.1111 105.89 55.022 105.88 54.919 105.908C54.8473 105.927 54.7881 105.957 54.7428 106.003C54.6974 106.049 54.6634 106.101 54.6476 106.168C54.6319 106.234 54.632 106.306 54.6536 106.387L54.6548 106.392Z"
    fill="#5B6871"
  />
  <path
    d="M56.8867 106.796C56.7343 106.837 56.6004 106.84 56.4704 106.802C56.346 106.768 56.2357 106.697 56.1462 106.596C56.0567 106.495 55.9882 106.365 55.9461 106.208C55.9041 106.051 55.8983 105.904 55.9253 105.772C55.9511 105.635 56.0078 105.524 56.0973 105.428C56.1868 105.332 56.2994 105.268 56.4428 105.23C56.5279 105.207 56.6167 105.197 56.7045 105.203C56.7924 105.208 56.8761 105.234 56.9557 105.28C57.0352 105.325 57.1094 105.387 57.1716 105.476C57.2339 105.565 57.2831 105.677 57.3203 105.816L57.3479 105.919L56.138 106.243L56.078 106.019L57.0011 105.772C56.9807 105.695 56.9435 105.629 56.8965 105.579C56.8496 105.529 56.7916 105.492 56.7237 105.471C56.6558 105.451 56.5838 105.451 56.5076 105.472C56.4225 105.494 56.3568 105.536 56.3049 105.593C56.253 105.65 56.2226 105.716 56.2035 105.788C56.1902 105.864 56.1902 105.936 56.2107 106.012L56.2575 106.187C56.2851 106.29 56.3258 106.37 56.3809 106.433C56.436 106.495 56.4997 106.535 56.5765 106.553C56.6488 106.572 56.7298 106.57 56.8194 106.546C56.8777 106.53 56.9246 106.508 56.9658 106.482C57.0058 106.452 57.0401 106.419 57.0675 106.378C57.095 106.337 57.1066 106.291 57.1113 106.237L57.4068 106.21C57.406 106.297 57.3861 106.384 57.3435 106.458C57.302 106.536 57.2435 106.605 57.1623 106.66C57.0868 106.719 56.9873 106.76 56.8798 106.789L56.8867 106.796Z"
    fill="#5B6871"
  />
  <path
    d="M57.4883 106.603L57.08 105.079L57.3668 105.002L57.4317 105.244L57.4496 105.239C57.4549 105.151 57.4861 105.071 57.5458 105.007C57.6055 104.943 57.679 104.894 57.7641 104.872C57.782 104.867 57.8044 104.861 57.8313 104.854C57.8582 104.846 57.8761 104.842 57.8908 104.843L57.9664 105.125C57.9664 105.125 57.9327 105.124 57.9001 105.128C57.8687 105.137 57.8362 105.141 57.8093 105.148C57.7376 105.167 57.6784 105.197 57.6331 105.243C57.5877 105.289 57.5537 105.341 57.5355 105.399C57.5186 105.461 57.5163 105.524 57.5343 105.591L57.784 106.523L57.4883 106.603Z"
    fill="#5B6871"
  />
  <path
    d="M48.6011 108.826L47.2389 107.99L47.3221 107.853L48.6843 108.688L48.6011 108.826Z"
    fill="#5B6871"
  />
  <path
    d="M47.6511 109.08L47.5102 109.003L48.2721 107.598L48.4129 107.676L47.6511 109.08Z"
    fill="#5B6871"
  />
  <path
    d="M82.056 41.1486C81.5273 41.2902 80.9863 40.9741 80.8458 40.4498C80.7053 39.9256 81.0202 39.3801 81.5445 39.2396C82.0688 39.0992 82.6142 39.4141 82.7547 39.9383C82.8952 40.4626 82.5803 41.0081 82.056 41.1486ZM81.6034 39.4592C81.2001 39.5673 80.9606 39.982 81.0687 40.3853C81.1767 40.7886 81.5915 41.0281 81.9948 40.92C82.3981 40.812 82.6375 40.3972 82.5295 39.9939C82.4214 39.5906 82.0066 39.3511 81.6034 39.4592Z"
    fill="#5B6871"
  />
  <path
    d="M103.568 40.8253C103.039 40.967 102.498 40.6509 102.358 40.1266C102.217 39.6023 102.532 39.0569 103.056 38.9164C103.581 38.7759 104.126 39.0908 104.266 39.6151C104.407 40.1394 104.092 40.6848 103.568 40.8253ZM103.115 39.136C102.712 39.244 102.472 39.6588 102.58 40.0621C102.688 40.4654 103.103 40.7048 103.506 40.5968C103.91 40.4887 104.149 40.0739 104.041 39.6707C103.933 39.2674 103.518 39.0279 103.115 39.136Z"
    fill="#5B6871"
  />
  <path
    d="M121.681 74.1017C121.152 74.2434 120.611 73.9272 120.471 73.403C120.33 72.8787 120.645 72.3332 121.17 72.1928C121.694 72.0523 122.239 72.3672 122.38 72.8915C122.52 73.4157 122.205 73.9612 121.681 74.1017ZM121.228 72.4123C120.825 72.5204 120.586 72.9352 120.694 73.3384C120.802 73.7417 121.216 73.9812 121.62 73.8731C122.023 73.7651 122.263 73.3503 122.154 72.947C122.046 72.5437 121.632 72.3043 121.228 72.4123Z"
    fill="#5B6871"
  />
  <path
    d="M52.8287 92.5744C52.757 92.5936 52.6829 92.6038 52.602 92.6063C52.3354 92.6153 52.084 92.5194 51.8919 92.3403C51.6998 92.1613 51.5866 91.9178 51.5776 91.6513C51.5686 91.3848 51.6646 91.1333 51.8436 90.9413C52.0227 90.7492 52.2706 90.6347 52.5326 90.627C52.7992 90.618 53.0506 90.7139 53.2427 90.893C53.4348 91.072 53.548 91.3154 53.557 91.582C53.566 91.8485 53.47 92.1 53.291 92.292C53.1638 92.427 53.0023 92.5231 52.8275 92.5699L52.8287 92.5744ZM52.3761 90.885C52.2416 90.9211 52.1168 90.9929 52.0207 91.1003C51.8825 91.2478 51.8093 91.4403 51.8161 91.645C51.8229 91.8497 51.9059 92.034 52.0534 92.1722C52.2009 92.3104 52.3934 92.3837 52.5981 92.3768C52.8028 92.37 52.9871 92.287 53.124 92.1351C53.2622 91.9876 53.3355 91.795 53.3287 91.5903C53.3219 91.3856 53.2389 91.2014 53.0914 91.0632C52.9439 90.925 52.7514 90.8517 52.5467 90.8585C52.4893 90.8595 52.4298 90.8706 52.3761 90.885Z"
    fill="#5B6871"
  />
  <path
    d="M41.6695 50.8265C42.1983 50.6849 42.7393 51.001 42.8797 51.5253C43.0202 52.0495 42.7053 52.595 42.181 52.7355C41.6567 52.8759 41.1113 52.561 40.9708 52.0367C40.8303 51.5125 41.1452 50.967 41.6695 50.8265ZM42.1222 52.5159C42.5255 52.4078 42.7649 51.9931 42.6569 51.5898C42.5488 51.1865 42.1341 50.947 41.7308 51.0551C41.3275 51.1631 41.088 51.5779 41.1961 51.9812C41.3041 52.3845 41.7189 52.624 42.1222 52.5159Z"
    fill="#5B6871"
  />
  <path
    d="M92.2224 50.8011L89.583 51.5083L87.6377 49.5177L88.3271 46.8212L90.9664 46.114L92.9118 48.1045L92.2224 50.8011ZM89.653 51.2495L92.0324 50.6119L92.6564 48.173L90.8965 46.3728L88.5171 47.0104L87.8931 49.4493L89.653 51.2495Z"
    fill="#5B6871"
  />
  <path
    d="M26.9717 58.785L29.611 58.0778L31.5564 60.0684L30.8669 62.765L28.2276 63.4722L26.2822 61.4816L26.9717 58.785ZM29.5411 58.3367L27.1616 58.9743L26.5376 61.4132L28.2975 63.2133L30.6769 62.5758L31.3009 60.1368L29.5411 58.3367Z"
    fill="#5B6871"
  />
  <path
    d="M86.0114 96.0072L83.3721 96.7144L81.4267 94.7238L82.1162 92.0272L84.7555 91.32L86.7009 93.3106L86.0114 96.0072ZM83.442 96.4555L85.8214 95.8179L86.4455 93.379L84.6856 91.5789L82.3062 92.2165L81.6821 94.6554L83.442 96.4555Z"
    fill="#5B6871"
  />
  <path
    d="M119.351 48.9447L116.712 49.6519L114.767 47.6613L115.456 44.9647L118.095 44.2575L120.041 46.2481L119.351 48.9447ZM116.782 49.393L119.161 48.7554L119.785 46.3165L118.025 44.5164L115.646 45.154L115.022 47.5929L116.782 49.393Z"
    fill="#5B6871"
  />
  <path
    d="M84.2053 51.7145L79.7019 52.9212C79.6391 52.938 79.5766 52.9019 79.5598 52.8391C79.543 52.7764 79.5791 52.7139 79.6418 52.6971L84.1453 51.4904C84.208 51.4736 84.2705 51.5097 84.2873 51.5724C84.3041 51.6352 84.268 51.6977 84.2053 51.7145Z"
    fill="#5B6871"
  />
  <path
    d="M88.3752 60.4052C88.3752 60.4052 88.3381 60.4103 88.3178 60.4062C88.2556 60.3892 88.2197 60.3268 88.2366 60.2646L89.4172 55.6546C89.4341 55.5925 89.4965 55.5565 89.5575 55.569C89.6197 55.586 89.6556 55.6484 89.6387 55.7106L88.4581 60.3205C88.4453 60.3624 88.4155 60.3944 88.3752 60.4052Z"
    fill="#5B6871"
  />
  <path
    d="M43.431 62.2125C43.431 62.2125 43.468 62.2074 43.4883 62.2116C43.5505 62.2285 43.5864 62.2909 43.574 62.3519L42.3934 66.9619C42.3765 67.0241 42.314 67.06 42.2531 67.0475C42.1909 67.0306 42.155 66.9682 42.1674 66.9072L43.348 62.2972C43.3608 62.2553 43.3906 62.2233 43.431 62.2125Z"
    fill="#5B6871"
  />
  <path
    d="M62.8708 93.317C62.8304 93.3278 62.7886 93.315 62.7566 93.2851L59.4292 89.883C59.3834 89.8377 59.3878 89.7644 59.4332 89.7187C59.4786 89.6729 59.5506 89.6728 59.5964 89.7182L62.9237 93.1203C62.9695 93.1656 62.9651 93.2389 62.9197 93.2846C62.9042 93.2984 62.8875 93.3077 62.8696 93.3125L62.8708 93.317Z"
    fill="#5B6871"
  />
  <path
    d="M58.3569 90.1901L53.4636 91.5012C53.4009 91.518 53.3384 91.482 53.3215 91.4192C53.3047 91.3565 53.3408 91.294 53.4036 91.2772L58.2968 89.966C58.3596 89.9492 58.4221 89.9853 58.4389 90.048C58.4557 90.1108 58.4196 90.1733 58.3569 90.1901Z"
    fill="#5B6871"
  />
  <path
    d="M83.8974 77.9681C83.8974 77.9681 83.8603 77.9732 83.84 77.9691C83.7778 77.9521 83.7419 77.8897 83.7589 77.8275L84.9394 73.2175C84.9564 73.1554 85.0188 73.1194 85.081 73.1364C85.1431 73.1534 85.1791 73.2158 85.1621 73.2779L83.9816 77.8879C83.9688 77.9298 83.9389 77.9618 83.8986 77.9726L83.8974 77.9681Z"
    fill="#5B6871"
  />
  <path
    d="M113.436 57.983L108.932 59.1897C108.87 59.2065 108.807 59.1704 108.79 59.1077C108.773 59.045 108.81 58.9825 108.872 58.9657L113.376 57.759C113.438 57.7422 113.501 57.7782 113.518 57.841C113.535 57.9037 113.499 57.9662 113.436 57.983Z"
    fill="#5B6871"
  />
  <path
    d="M110.262 38.1777C110.262 38.1777 110.225 38.1828 110.205 38.1786C110.142 38.1617 110.106 38.0993 110.123 38.0371L111.304 33.4271C111.321 33.3649 111.383 33.329 111.444 33.3415C111.506 33.3584 111.542 33.4209 111.525 33.483L110.345 38.093C110.332 38.1349 110.302 38.1669 110.262 38.1777Z"
    fill="#5B6871"
  />
  <path
    d="M73.3089 67.049C73.3089 67.049 73.2955 67.0526 73.291 67.0538C73.2258 67.0617 73.1699 67.0142 73.1633 66.9535C73.1276 66.6413 73.1248 66.2723 73.1584 65.8598L73.1678 65.7516L73.2793 65.7554C73.429 65.7585 73.5739 65.7437 73.7128 65.7065C74.0758 65.6092 74.3409 65.3797 74.4627 65.0637C74.5878 64.742 74.5635 64.3643 74.406 64.0991C74.1137 63.5819 73.5045 63.1544 72.485 62.7552C71.6751 62.4391 70.8857 62.3432 70.3256 62.4933C70.2181 62.5221 70.1219 62.5575 70.0248 62.6075C69.805 62.7192 69.6457 62.9492 69.5809 63.2452C69.5004 63.6077 69.5708 64.0499 69.7468 64.2765C69.8076 64.3419 69.8857 64.4362 69.9724 64.509L70.0616 64.5908L69.9786 64.6755C69.8061 64.8562 69.6422 65.0154 69.4858 65.1485C69.4392 65.1898 69.3648 65.1809 69.3235 65.1344C69.2822 65.0878 69.2911 65.0134 69.3377 64.9721C69.463 64.8665 69.5971 64.7393 69.732 64.5975C69.6712 64.5321 69.6162 64.47 69.5692 64.4202C69.3483 64.1336 69.2586 63.6197 69.355 63.1904C69.4298 62.8246 69.6398 62.533 69.9245 62.3943C70.035 62.3406 70.1479 62.296 70.2689 62.2636C70.8783 62.1003 71.7205 62.1964 72.5734 62.5298C73.6429 62.954 74.2886 63.4102 74.6075 63.9731C74.8042 64.295 74.8332 64.7435 74.6845 65.1387C74.4948 65.6314 73.977 65.9575 73.3922 65.9797C73.3678 66.3368 73.3709 66.653 73.4047 66.9225C73.4101 66.9787 73.3716 67.0322 73.3179 67.0466L73.3089 67.049Z"
    fill="#5B6871"
  />
  <path
    d="M70.4894 78.2026C66.9405 79.1535 63.267 76.9872 62.2993 73.3755C61.3315 69.7638 63.4296 66.051 66.9786 65.1C70.5276 64.1491 74.201 66.3154 75.1688 69.9271C76.1365 73.5388 74.0384 77.2516 70.4894 78.2026ZM67.0399 65.3286C63.6164 66.2459 61.5892 69.8292 62.5245 73.3199C63.4599 76.8107 67.0071 78.9003 70.4306 77.983C73.8541 77.0657 75.8812 73.4824 74.9459 69.9916C74.0106 66.5009 70.4633 64.4112 67.0399 65.3286Z"
    fill="#5B6871"
  />
  <path
    d="M70.0241 68.4855C69.4326 68.644 68.8222 68.284 68.6614 67.6836C68.5005 67.0831 68.8491 66.4662 69.4406 66.3077C70.0321 66.1492 70.6424 66.5092 70.8033 67.1096C70.9642 67.7101 70.6156 68.327 70.0241 68.4855ZM69.4994 66.5273C69.0334 66.6522 68.7569 67.1441 68.8842 67.6191C69.0115 68.094 69.4968 68.3818 69.9629 68.257C70.4289 68.1321 70.7053 67.6402 70.578 67.1652C70.4508 66.6902 69.9654 66.4024 69.4994 66.5273Z"
    fill="#5B6871"
  />
  <path
    d="M71.6526 68.8324C71.3658 68.9092 71.0692 68.7342 70.9923 68.4474C70.9155 68.1606 71.0849 67.8607 71.3716 67.7838C71.6584 67.707 71.9551 67.8821 72.0319 68.1688C72.1088 68.4556 71.9394 68.7556 71.6526 68.8324ZM71.4317 68.0079C71.2704 68.0511 71.172 68.2216 71.2164 68.3874C71.2608 68.5532 71.4268 68.6528 71.5926 68.6083C71.7584 68.5639 71.8523 68.3947 71.8079 68.2289C71.7635 68.0631 71.5975 67.9635 71.4317 68.0079Z"
    fill="#5B6871"
  />
  <path
    d="M70.1143 77.5295C66.9193 78.3856 63.6131 76.4427 62.7426 73.194C62.7258 73.1312 62.7619 73.0687 62.8246 73.0519C62.8873 73.0351 62.9498 73.0712 62.9667 73.1339C63.8035 76.2572 66.9847 78.128 70.0542 77.3055C73.1237 76.483 74.9897 73.2839 74.1588 70.183C74.142 70.1203 74.1781 70.0578 74.2408 70.041C74.3036 70.0242 74.3661 70.0602 74.3829 70.123C75.2462 73.3448 73.3317 76.6674 70.1143 77.5295Z"
    fill="#5B6871"
  />
  <path
    d="M67.7989 74.3321C65.9976 74.8147 64.5426 74.6186 63.6928 74.2076C63.1902 73.9628 62.8593 73.6241 62.7584 73.2476C62.696 73.0146 62.7185 72.8117 62.8315 72.6421C63.097 72.2348 63.8334 72.0615 65.1827 71.8632C65.8585 71.7686 66.8803 71.5669 67.8905 70.9456C69.013 70.2414 70.0927 69.808 71.2875 69.5887C72.3421 69.4022 74.143 69.2222 74.3879 70.1363C74.5224 70.6382 74.0117 70.9191 73.3661 71.2698C73.1062 71.4115 72.8175 71.5705 72.5237 71.7645C72.2788 71.9262 72.051 72.0977 71.8065 72.2785C71.1464 72.7723 70.3928 73.3297 69.1604 73.8568C68.6912 74.0593 68.2336 74.2156 67.7989 74.3321ZM63.8293 72.3508C63.4349 72.4564 63.1479 72.5862 63.025 72.7728C62.9537 72.8831 62.9381 73.0218 62.9837 73.1921C63.0665 73.5013 63.355 73.789 63.7918 74.0034C64.7971 74.4928 66.7095 74.6576 69.0657 73.6468C70.2757 73.1257 71.0125 72.5777 71.6661 72.0952C71.9106 71.9144 72.1429 71.7417 72.391 71.5743C72.6926 71.3734 72.9904 71.212 73.2502 71.0704C73.9081 70.7116 74.2434 70.5113 74.1594 70.1976C74.0177 69.6688 72.9576 69.5302 71.3251 69.8188C70.1584 70.0353 69.1044 70.457 68.0109 71.1439C66.9595 71.7906 65.9096 71.9951 65.2114 72.0957C64.6894 72.1731 64.2102 72.2487 63.8248 72.352L63.8293 72.3508Z"
    fill="#5B6871"
  />
  <path
    d="M69.4357 76.4432C69.2072 76.5045 68.973 76.3655 68.9118 76.137C68.8505 75.9084 68.9838 75.671 69.2124 75.6098C69.4409 75.5485 69.675 75.6875 69.7363 75.916C69.7975 76.1446 69.6642 76.382 69.4357 76.4432ZM69.2724 75.8338C69.1693 75.8614 69.107 75.9694 69.1358 76.0769C69.1646 76.1845 69.2726 76.2468 69.3757 76.2192C69.4787 76.1916 69.541 76.0836 69.5122 75.9761C69.4834 75.8685 69.3755 75.8062 69.2724 75.8338Z"
    fill="#5B6871"
  />
  <path
    d="M71.0021 75.8593C70.7736 75.9205 70.5394 75.7815 70.4782 75.553C70.4169 75.3245 70.5502 75.087 70.7788 75.0258C71.0073 74.9646 71.2415 75.1035 71.3027 75.3321C71.3639 75.5606 71.2306 75.798 71.0021 75.8593ZM70.8388 75.2498C70.7357 75.2775 70.6734 75.3854 70.7022 75.493C70.731 75.6005 70.839 75.6628 70.9421 75.6352C71.0451 75.6076 71.1075 75.4996 71.0786 75.3921C71.0498 75.2846 70.9419 75.2222 70.8388 75.2498Z"
    fill="#5B6871"
  />
  <path
    d="M70.3061 76.687C70.4315 76.6534 70.5025 76.5239 70.4689 76.3985C70.4353 76.273 70.3091 76.1963 70.1836 76.23C70.0581 76.2636 69.9872 76.3931 70.0208 76.5185C70.0544 76.644 70.1806 76.7207 70.3061 76.687Z"
    fill="#5B6871"
  />
  <path
    d="M71.7436 76.1245C71.869 76.0909 71.94 75.9614 71.9064 75.836C71.8728 75.7105 71.7466 75.6339 71.6211 75.6675C71.4956 75.7011 71.4247 75.8306 71.4583 75.956C71.4919 76.0815 71.6181 76.1582 71.7436 76.1245Z"
    fill="#5B6871"
  />
  <path
    d="M68.0659 76.6963C67.7343 76.7852 67.3877 76.5851 67.2964 76.2445C67.2052 75.9039 67.4008 75.5586 67.7369 75.4685C68.073 75.3785 68.4151 75.5798 68.5063 75.9203C68.5976 76.2609 68.4019 76.6063 68.0659 76.6963ZM67.7981 75.697C67.5875 75.7535 67.4641 75.9739 67.5217 76.1889C67.5793 76.404 67.7964 76.5332 68.007 76.4767C68.2176 76.4203 68.3411 76.1999 68.2835 75.9848C68.2258 75.7697 68.0087 75.6406 67.7981 75.697Z"
    fill="#5B6871"
  />
  <path
    d="M72.0776 74.3008C71.746 74.3896 71.3994 74.1895 71.3082 73.849C71.2169 73.5084 71.4125 73.163 71.7486 73.073C72.0847 72.9829 72.4268 73.1842 72.518 73.5248C72.6093 73.8654 72.4137 74.2107 72.0776 74.3008ZM71.8098 73.3015C71.5992 73.358 71.4758 73.5783 71.5334 73.7934C71.591 74.0085 71.8082 74.1377 72.0188 74.0812C72.2294 74.0248 72.3528 73.8044 72.2952 73.5893C72.2376 73.3742 72.0204 73.2451 71.8098 73.3015Z"
    fill="#5B6871"
  />
  <path
    d="M73.304 65.9806C73.304 65.9806 73.2816 65.9866 73.2669 65.9857C73.2039 65.9834 73.1545 65.9246 73.1568 65.8615L73.2432 64.3735C73.2455 64.3105 73.2998 64.2623 73.3674 64.2634C73.4304 64.2657 73.4798 64.3245 73.4775 64.3876L73.3911 65.8756C73.3897 65.924 73.3533 65.9674 73.304 65.9806Z"
    fill="#5B6871"
  />
  <path
    d="M73.3239 65.4649C73.2702 65.4794 73.2101 65.4522 73.1867 65.4009C73.1609 65.3405 73.1856 65.2715 73.2415 65.2469C73.447 65.1534 73.5488 65.0493 73.5513 64.9334C73.5513 64.6644 73.0213 64.2637 72.173 63.8762C71.3045 63.4846 70.5903 63.5079 70.3578 63.7335C70.2503 63.8343 70.237 63.982 70.3135 64.1776C70.3392 64.2379 70.3088 64.3037 70.2485 64.3295C70.1927 64.3541 70.1224 64.3248 70.0966 64.2645C69.9827 63.9829 70.018 63.7381 70.1986 63.5696C70.5508 63.2351 71.4022 63.2759 72.272 63.672C72.9615 63.9868 73.7841 64.4579 73.7832 64.9385C73.7823 65.15 73.6322 65.3247 73.3374 65.4613C73.3329 65.4625 73.3239 65.4649 73.3195 65.4661L73.3239 65.4649Z"
    fill="#5B6871"
  />
  <path
    d="M70.0125 64.6784C69.9721 64.6892 69.9315 64.6809 69.8983 64.6466C69.8525 64.6012 69.8524 64.5292 69.8978 64.4834L71.0167 63.3719C71.0621 63.3262 71.1341 63.3261 71.1799 63.3714C71.2257 63.4168 71.2258 63.4888 71.1804 63.5346L70.0614 64.6461C70.0614 64.6461 70.0292 64.6691 70.0113 64.674L70.0125 64.6784Z"
    fill="#5B6871"
  />
  <g filter="url(#filter0_d_5937_50064)">
    <path
      d="M23 57.0847L23 120.447C23 122.78 24.8911 124.671 27.2238 124.671L132.656 124.671C134.988 124.671 136.879 122.78 136.879 120.447L136.879 57.0847C136.879 54.752 134.988 52.8609 132.656 52.8609L27.2238 52.8609C24.8911 52.8609 23 54.752 23 57.0847Z"
      fill="url(#paint2_linear_5937_50064)"
    />
    <path
      d="M51.0459 87.4686C51.0459 88.3228 50.3325 89.0127 49.4549 89.0127L38.4777 89.0127C37.6001 89.0127 36.8867 88.3228 36.8867 87.4686L36.8867 80.1755C36.8867 79.3213 37.6001 78.6314 38.4777 78.6314L49.4549 78.6314C50.3372 78.6314 51.0459 79.3213 51.0459 80.1755L51.0459 87.4686Z"
      fill="url(#paint3_linear_5937_50064)"
      stroke="#808184"
      stroke-width="0.0416531"
      stroke-miterlimit="3.86"
    />
    <path
      d="M49.1695 78.4344L38.8822 78.4344C37.7277 78.4344 36.7891 79.373 36.7891 80.5275L36.7891 87.2106C36.7891 88.3651 37.7277 89.3037 38.8822 89.3037L49.1695 89.3037C50.324 89.3037 51.2627 88.3651 51.2627 87.2106L51.2627 80.5275C51.2627 79.373 50.324 78.4344 49.1695 78.4344ZM37.0049 80.4524L37.2302 80.3257C37.3616 79.4246 38.1548 78.73 39.1215 78.73L40.98 78.73C41.3649 79.2322 41.5948 79.8517 41.5948 80.5228C41.5948 81.0766 41.44 81.5928 41.1724 82.0387L37.2021 82.0387L37.2021 80.9217L36.9956 80.7997L36.9956 80.443L37.0049 80.4524ZM37.0143 83.977L37.0143 83.6015L37.2208 83.4842L37.2208 82.2968L41.2053 82.2968C41.4118 82.7239 41.6089 83.2026 41.6089 83.7142C41.6089 84.2914 41.4587 84.8311 41.2006 85.2958L37.2208 85.2958L37.2208 84.1084L37.0143 83.977ZM39.1215 88.9799C38.1595 88.9799 37.3757 88.2712 37.2396 87.3514L37.0049 87.2106L37.0049 86.8445L37.2114 86.7319L37.2114 85.5867L41.1631 85.5867C41.3883 86.0185 41.5807 86.5066 41.5807 87.0322C41.5807 87.7737 41.4493 88.4496 41.0223 88.9799L39.1215 88.9799ZM41.3555 88.9799C41.684 88.4589 41.8858 87.8488 41.8858 87.1871C41.8858 86.5676 41.7075 85.9903 41.4165 85.4929C41.7075 84.9907 41.8858 84.4087 41.8858 83.7846C41.8858 83.1604 41.7122 82.6066 41.4306 82.1091C41.7122 81.6163 41.8858 81.0531 41.8858 80.4383C41.8858 79.8235 41.6136 79.2369 41.3226 78.7394L49.0991 78.7394C50.0049 78.7394 50.7464 79.3964 50.8684 80.2459L51.089 80.3773L51.089 80.7152L50.8966 80.8185L50.8966 81.9683L46.7901 81.9683C46.7901 81.9683 46.241 82.5456 46.2316 83.747C46.2269 84.3712 46.41 84.9532 46.7056 85.4553C46.4147 85.9528 46.2316 86.5301 46.2316 87.1496C46.2316 87.8254 46.4381 88.4542 46.7807 88.9846L41.3649 88.9846L41.3555 88.9799ZM51.0796 87.2434L50.8497 87.3701C50.7136 88.2806 49.9251 88.9799 48.9537 88.9799L47.1093 88.9799C46.654 88.4496 46.4945 87.769 46.4945 87.0181C46.4945 86.5113 46.7056 86.042 46.9262 85.6243L50.8778 85.6243L50.8778 86.76L51.0843 86.882L51.0843 87.2434L51.0796 87.2434ZM51.0796 83.9817L50.8731 84.099L50.8731 85.3145L46.884 85.3145C46.5977 84.8311 46.4334 84.2679 46.4334 83.6625C46.4334 83.1604 46.6399 82.6957 46.8371 82.2734L50.8731 82.2734L50.8731 83.4701L51.0843 83.6015L51.0843 83.9817L51.0796 83.9817ZM45.5511 87.8629L42.5194 87.8629C42.4067 87.8629 42.3129 87.9568 42.3129 88.0694C42.3129 88.182 42.4067 88.2759 42.5194 88.2759L45.5511 88.2759C45.6638 88.2759 45.7576 88.182 45.7576 88.0694C45.7576 87.9568 45.6638 87.8629 45.5511 87.8629ZM45.5511 79.4152L42.5194 79.4152C42.4067 79.4152 42.3129 79.5091 42.3129 79.6217C42.3129 79.7344 42.4067 79.8282 42.5194 79.8282L45.5511 79.8282C45.6638 79.8282 45.7576 79.7344 45.7576 79.6217C45.7576 79.5091 45.6638 79.4152 45.5511 79.4152Z"
      fill="#808184"
    />
    <path
      d="M103.368 119.086C103.439 119.105 103.528 119.114 103.641 119.114C104.035 119.114 104.274 118.917 104.274 118.579C104.274 118.241 104.035 118.082 103.678 118.082C103.537 118.082 103.425 118.091 103.368 118.11L103.368 119.095L103.368 119.086ZM103.04 117.866C103.199 117.838 103.406 117.819 103.669 117.819C103.993 117.819 104.227 117.894 104.377 118.03C104.513 118.152 104.598 118.335 104.598 118.56C104.598 118.786 104.532 118.969 104.401 119.1C104.223 119.283 103.946 119.377 103.626 119.377C103.528 119.377 103.439 119.377 103.364 119.353L103.364 120.367L103.035 120.367L103.035 117.866L103.04 117.866Z"
      fill="#98989A"
    />
    <path
      d="M105.008 117.703L105.341 117.703L105.341 120.369L105.008 120.369L105.008 117.703Z"
      fill="#98989A"
    />
    <path
      d="M106.961 119.44C106.599 119.43 106.191 119.496 106.191 119.848C106.191 120.064 106.332 120.162 106.501 120.162C106.74 120.162 106.895 120.012 106.947 119.857C106.956 119.82 106.961 119.782 106.961 119.754L106.961 119.44ZM107.28 119.932C107.28 120.092 107.289 120.242 107.308 120.369L107.012 120.369L106.984 120.139L106.975 120.139C106.872 120.28 106.679 120.411 106.421 120.411C106.055 120.411 105.867 120.153 105.867 119.89C105.867 119.449 106.257 119.21 106.961 119.214L106.961 119.177C106.961 119.031 106.918 118.754 106.548 118.759C106.374 118.759 106.2 118.806 106.069 118.895L105.994 118.675C106.144 118.581 106.365 118.515 106.595 118.515C107.148 118.515 107.285 118.895 107.285 119.257L107.285 119.937L107.28 119.932Z"
      fill="#98989A"
    />
    <path
      d="M108.277 118.114L108.277 118.551L108.751 118.551L108.751 118.804L108.277 118.804L108.277 119.785C108.277 120.01 108.342 120.137 108.525 120.137C108.614 120.137 108.666 120.128 108.718 120.114L108.732 120.367C108.666 120.391 108.567 120.414 108.441 120.414C108.286 120.414 108.164 120.362 108.084 120.273C107.995 120.17 107.957 120.01 107.957 119.795L107.957 118.804L107.676 118.804L107.676 118.551L107.957 118.551L107.957 118.213L108.281 118.114L108.277 118.114Z"
      fill="#98989A"
    />
    <path
      d="M109.304 120.367L109.304 118.551L109.632 118.551L109.632 120.367L109.304 120.367ZM109.67 118.039C109.67 118.152 109.59 118.241 109.459 118.241C109.337 118.241 109.262 118.152 109.262 118.039C109.262 117.927 109.346 117.833 109.468 117.833C109.59 117.833 109.67 117.922 109.67 118.039Z"
      fill="#98989A"
    />
    <path
      d="M110.241 119.041C110.241 118.849 110.241 118.698 110.227 118.548L110.518 118.548L110.536 118.849L110.546 118.849C110.635 118.68 110.846 118.511 111.146 118.511C111.4 118.511 111.789 118.661 111.789 119.285L111.789 120.364L111.461 120.364L111.461 119.318C111.461 119.027 111.353 118.783 111.038 118.783C110.823 118.783 110.654 118.938 110.597 119.121C110.583 119.163 110.574 119.219 110.574 119.276L110.574 120.369L110.245 120.369L110.245 119.046L110.241 119.041Z"
      fill="#98989A"
    />
    <path
      d="M114.097 119.864C114.097 120.056 114.097 120.22 114.111 120.361L113.82 120.361L113.801 120.065L113.792 120.065C113.708 120.211 113.515 120.403 113.191 120.403C112.905 120.403 112.562 120.244 112.562 119.605L112.562 118.545L112.891 118.545L112.891 119.549C112.891 119.896 112.999 120.131 113.295 120.131C113.515 120.131 113.67 119.976 113.731 119.826C113.75 119.779 113.759 119.723 113.759 119.657L113.759 118.545L114.088 118.545L114.088 119.864L114.097 119.864Z"
      fill="#98989A"
    />
    <path
      d="M114.616 119.039C114.616 118.847 114.606 118.696 114.602 118.546L114.893 118.546L114.907 118.842L114.916 118.842C115.019 118.668 115.188 118.509 115.489 118.509C115.733 118.509 115.92 118.659 116 118.875L116.01 118.875C116.066 118.772 116.141 118.696 116.216 118.64C116.324 118.556 116.441 118.513 116.615 118.513C116.859 118.513 117.216 118.673 117.216 119.302L117.216 120.367L116.892 120.367L116.892 119.344C116.892 118.992 116.76 118.786 116.498 118.786C116.305 118.786 116.164 118.926 116.103 119.081C116.089 119.128 116.075 119.185 116.075 119.246L116.075 120.367L115.751 120.367L115.751 119.278C115.751 118.987 115.625 118.781 115.371 118.781C115.169 118.781 115.015 118.945 114.963 119.109C114.944 119.156 114.935 119.213 114.935 119.269L114.935 120.362L114.611 120.362L114.611 119.039L114.616 119.039Z"
      fill="#98989A"
    />
    <path
      d="M119.168 120.117C119.234 120.126 119.328 120.131 119.441 120.131C119.778 120.131 120.088 120.009 120.088 119.638C120.088 119.296 119.793 119.15 119.436 119.15L119.164 119.15L119.164 120.117L119.168 120.117ZM119.168 118.906L119.464 118.906C119.807 118.906 120.008 118.723 120.008 118.479C120.008 118.188 119.788 118.066 119.455 118.066C119.304 118.066 119.22 118.075 119.164 118.089L119.164 118.906L119.168 118.906ZM118.84 117.869C118.981 117.836 119.211 117.813 119.436 117.813C119.764 117.813 119.971 117.869 120.126 117.996C120.257 118.094 120.342 118.244 120.342 118.441C120.342 118.69 120.177 118.901 119.915 118.995L119.915 119.005C120.154 119.061 120.436 119.258 120.436 119.633C120.436 119.849 120.351 120.018 120.22 120.14C120.046 120.3 119.76 120.375 119.347 120.375C119.121 120.375 118.948 120.361 118.84 120.347L118.84 117.859L118.84 117.869Z"
      fill="#98989A"
    />
    <path
      d="M122.375 119.866C122.375 120.058 122.375 120.222 122.389 120.363L122.098 120.363L122.079 120.067L122.069 120.067C121.985 120.213 121.793 120.405 121.469 120.405C121.182 120.405 120.84 120.246 120.84 119.607L120.84 118.547L121.168 118.547L121.168 119.551C121.168 119.898 121.276 120.133 121.572 120.133C121.793 120.133 121.947 119.978 122.008 119.828C122.027 119.781 122.037 119.725 122.037 119.659L122.037 118.547L122.365 118.547L122.365 119.866L122.375 119.866Z"
      fill="#98989A"
    />
    <path
      d="M122.884 120.03C122.988 120.091 123.157 120.156 123.326 120.156C123.56 120.156 123.673 120.039 123.673 119.884C123.673 119.729 123.579 119.645 123.34 119.556C123.011 119.434 122.856 119.26 122.856 119.039C122.856 118.748 123.096 118.504 123.481 118.504C123.664 118.504 123.828 118.551 123.922 118.617L123.842 118.856C123.771 118.809 123.64 118.748 123.471 118.748C123.274 118.748 123.171 118.861 123.171 118.997C123.171 119.147 123.274 119.213 123.513 119.307C123.823 119.424 123.992 119.579 123.992 119.851C123.992 120.175 123.739 120.4 123.316 120.4C123.119 120.4 122.931 120.349 122.805 120.274L122.884 120.025L122.884 120.03Z"
      fill="#98989A"
    />
    <path
      d="M124.55 120.369L124.55 118.553L124.879 118.553L124.879 120.369L124.55 120.369ZM124.916 118.041C124.916 118.154 124.836 118.243 124.705 118.243C124.583 118.243 124.508 118.154 124.508 118.041C124.508 117.929 124.592 117.835 124.714 117.835C124.836 117.835 124.916 117.924 124.916 118.041Z"
      fill="#98989A"
    />
    <path
      d="M125.483 119.041C125.483 118.849 125.483 118.698 125.469 118.548L125.76 118.548L125.778 118.849L125.788 118.849C125.877 118.68 126.088 118.511 126.389 118.511C126.637 118.511 127.032 118.661 127.032 119.285L127.032 120.364L126.703 120.364L126.703 119.318C126.703 119.027 126.595 118.783 126.281 118.783C126.065 118.783 125.896 118.938 125.84 119.121C125.825 119.163 125.816 119.219 125.816 119.276L125.816 120.369L125.488 120.369L125.488 119.046L125.483 119.041Z"
      fill="#98989A"
    />
    <path
      d="M129.012 119.279C129.012 119.072 128.927 118.744 128.552 118.744C128.214 118.744 128.073 119.049 128.045 119.279L129.012 119.279ZM128.045 119.513C128.054 119.959 128.336 120.142 128.669 120.142C128.904 120.142 129.054 120.1 129.171 120.048L129.232 120.283C129.115 120.335 128.913 120.4 128.622 120.4C128.064 120.4 127.73 120.03 127.73 119.481C127.73 118.931 128.054 118.504 128.585 118.504C129.181 118.504 129.336 119.021 129.336 119.359C129.336 119.424 129.336 119.476 129.326 119.513L128.05 119.513L128.045 119.513Z"
      fill="#98989A"
    />
    <path
      d="M129.72 120.03C129.823 120.091 129.992 120.156 130.161 120.156C130.395 120.156 130.508 120.039 130.508 119.884C130.508 119.729 130.414 119.645 130.175 119.556C129.846 119.434 129.691 119.26 129.691 119.039C129.691 118.748 129.931 118.504 130.32 118.504C130.503 118.504 130.668 118.551 130.762 118.617L130.682 118.856C130.611 118.809 130.48 118.748 130.311 118.748C130.114 118.748 130.011 118.861 130.011 118.997C130.011 119.147 130.114 119.213 130.353 119.307C130.663 119.424 130.832 119.579 130.832 119.851C130.832 120.175 130.578 120.4 130.156 120.4C129.959 120.4 129.771 120.349 129.645 120.274L129.724 120.025L129.72 120.03Z"
      fill="#98989A"
    />
    <path
      d="M131.364 120.03C131.467 120.091 131.636 120.156 131.805 120.156C132.04 120.156 132.153 120.039 132.153 119.884C132.153 119.729 132.059 119.645 131.819 119.556C131.491 119.434 131.336 119.26 131.336 119.039C131.336 118.748 131.575 118.504 131.965 118.504C132.148 118.504 132.312 118.551 132.406 118.617L132.326 118.856C132.256 118.809 132.124 118.748 131.955 118.748C131.758 118.748 131.655 118.861 131.655 118.997C131.655 119.147 131.758 119.213 131.998 119.307C132.307 119.424 132.476 119.579 132.476 119.851C132.476 120.175 132.223 120.4 131.801 120.4C131.604 120.4 131.416 120.349 131.289 120.274L131.369 120.025L131.364 120.03Z"
      fill="#98989A"
    />
    <path
      d="M60.1459 64.2785L66.2704 64.2785L69.3304 69.7179L66.2704 75.1572L60.1459 75.1572L57.0859 69.7179L60.1459 64.2785ZM66.1343 64.5132L60.2867 64.5132L57.3581 69.7179L60.2867 74.9226L66.1343 74.9226L69.0629 69.7179L66.1343 64.5132Z"
      fill="#5B6871"
    />
    <path
      d="M60.3375 64.2792C60.3375 64.2792 60.375 64.2839 60.3938 64.2933C60.4501 64.3262 60.4689 64.3966 60.4407 64.4529L57.4137 69.8359L51.3595 69.8359C51.2938 69.8359 51.2422 69.7843 51.2422 69.7186C51.2422 69.6529 51.2938 69.6013 51.3595 69.6013L57.2776 69.6013L60.2389 64.3402C60.2624 64.3027 60.2999 64.2792 60.3422 64.2792L60.3375 64.2792Z"
      fill="#5B6871"
    />
    <path
      d="M51.0012 59.7691C51.0012 59.7691 51.0388 59.7737 51.0576 59.7831C51.1139 59.816 51.1327 59.8864 51.1045 59.9427L48.5749 64.4528C48.5421 64.5091 48.4717 64.5279 48.4153 64.4998C48.359 64.4669 48.3402 64.3965 48.3684 64.3402L50.898 59.8301C50.9215 59.7925 50.959 59.7691 51.0012 59.7691Z"
      fill="#5B6871"
    />
    <path
      d="M42.1967 64.2785L48.3212 64.2785L51.3812 69.7179L48.3212 75.1572L42.1967 75.1572L39.1367 69.7179L42.1967 64.2785ZM48.1851 64.5132L42.3375 64.5132L39.4089 69.7179L42.3375 74.9226L48.1851 74.9226L51.1137 69.7179L48.1851 64.5132Z"
      fill="#5B6871"
    />
    <path
      d="M33.2201 58.9992L39.3447 58.9992L42.4046 64.4386L39.3447 69.8779L33.2201 69.8779L30.1602 64.4386L33.2201 58.9992ZM39.2086 59.2339L33.3609 59.2339L30.4324 64.4386L33.3609 69.6433L39.2086 69.6433L42.1371 64.4386L39.2086 59.2339Z"
      fill="#5B6871"
    />
    <path
      d="M66.247 106.189L60.1224 106.189L57.0625 100.75L60.1224 95.3107L66.247 95.3107L69.307 100.75L66.247 106.189ZM60.2585 105.955L66.1062 105.955L69.0347 100.75L66.1062 95.5454L60.2585 95.5454L57.33 100.75L60.2585 105.955Z"
      fill="#5B6871"
    />
    <path
      d="M75.5283 111.516L69.4037 111.516L66.3437 106.076L69.4037 100.637L75.5283 100.637L78.5882 106.076L75.5283 111.516ZM69.5398 111.281L75.3875 111.281L78.316 106.076L75.3875 100.872L69.5398 100.872L66.6113 106.076L69.5398 111.281Z"
      fill="#5B6871"
    />
    <path
      d="M84.4814 74.252L78.3568 74.252L75.2969 68.8126L78.3568 63.3732L84.4814 63.3732L87.5413 68.8126L87.5085 68.8689L84.4814 74.252ZM78.4929 74.0173L84.3406 74.0173L87.2691 68.8126L84.3406 63.6079L78.4929 63.6079L75.5644 68.8126L78.4929 74.0173Z"
      fill="#5B6871"
    />
    <path
      d="M84.4814 106.188L78.3568 106.188L75.2969 100.749L78.3568 95.3097L84.4814 95.3097L87.5413 100.749L84.4814 106.188ZM78.4929 105.954L84.3406 105.954L87.2691 100.749L84.3406 95.5444L78.4929 95.5444L75.5644 100.749L78.4929 105.954Z"
      fill="#5B6871"
    />
    <path
      d="M84.4814 116.838L78.3568 116.838L75.2969 111.399L78.3568 105.959L84.4814 105.959L87.5413 111.399L84.4814 116.838ZM78.4929 116.603L84.3406 116.603L87.2691 111.399L84.3406 106.194L78.4929 106.194L75.5644 111.399L78.4929 116.603Z"
      fill="#5B6871"
    />
    <path
      d="M84.4194 63.6074C84.4194 63.6074 84.3819 63.6027 84.3631 63.5933C84.3068 63.5605 84.288 63.4901 84.3209 63.4338L87.3479 58.0507L92.5714 58.0507C92.6371 58.0507 92.6887 58.1023 92.6887 58.168C92.6887 58.2338 92.6371 58.2854 92.5714 58.2854L87.484 58.2854L84.5227 63.5464C84.4992 63.584 84.4616 63.6074 84.4194 63.6074Z"
      fill="#5B6871"
    />
    <path
      d="M93.4775 79.5791L87.3529 79.5791L84.293 74.1397L84.3258 74.0834L87.3529 68.7004L93.4775 68.7004L96.5374 74.1397L96.5046 74.1961L93.4775 79.5791ZM87.489 79.3444L93.3367 79.3444L96.2652 74.1397L93.3367 68.935L87.489 68.935L84.5605 74.1397L87.489 79.3444Z"
      fill="#5B6871"
    />
    <path
      d="M93.4775 100.871L87.3529 100.871L84.293 95.4317L87.3529 89.9924L93.4775 89.9924L96.5374 95.4317L93.4775 100.871ZM87.489 100.636L93.3367 100.636L96.2652 95.4317L93.3367 90.227L87.489 90.227L84.5605 95.4317L87.489 100.636Z"
      fill="#5B6871"
    />
    <path
      d="M102.431 74.252L96.306 74.252L93.2461 68.8126L93.2789 68.7563L96.306 63.3732L102.431 63.3732L105.491 68.8126L105.458 68.8689L102.431 74.252ZM96.4421 74.0173L102.29 74.0173L105.218 68.8126L102.29 63.6079L96.4421 63.6079L93.5136 68.8126L96.4421 74.0173Z"
      fill="#5B6871"
    />
    <path
      d="M102.431 84.9004L96.306 84.9004L93.2461 79.461L93.2789 79.4047L96.306 74.0217L102.431 74.0217L105.491 79.461L105.458 79.5173L102.431 84.9004ZM96.4421 84.6657L102.29 84.6657L105.218 79.461L102.29 74.2563L96.4421 74.2563L93.5136 79.461L96.4421 84.6657Z"
      fill="#5B6871"
    />
    <path
      d="M102.431 106.189L96.306 106.189L93.2461 100.75L96.306 95.3107L102.431 95.3107L105.491 100.75L102.431 106.189ZM96.4421 105.955L102.29 105.955L105.218 100.75L102.29 95.5454L96.4421 95.5454L93.5136 100.75L96.4421 105.955Z"
      fill="#5B6871"
    />
    <path
      d="M123.475 68.9297C123.432 68.9297 123.395 68.9062 123.371 68.8687L120.41 63.6076L115.402 63.6076C115.337 63.6076 115.285 63.556 115.285 63.4903C115.285 63.4246 115.337 63.373 115.402 63.373L120.546 63.373L123.573 68.756C123.606 68.8124 123.587 68.8828 123.531 68.9156C123.512 68.925 123.493 68.9297 123.475 68.9297Z"
      fill="#5B6871"
    />
    <path
      d="M120.38 84.9014L114.255 84.9014L111.195 79.462L111.228 79.4057L114.255 74.0226L120.38 74.0226L123.44 79.462L123.407 79.5183L120.38 84.9014ZM114.391 84.6667L120.239 84.6667L123.168 79.462L120.239 74.2573L114.391 74.2573L111.463 79.462L114.391 84.6667Z"
      fill="#5B6871"
    />
    <path
      d="M120.38 95.5449L114.255 95.5449L111.195 90.1056L114.255 84.6662L120.38 84.6662L120.413 84.7272L123.44 90.1056L120.38 95.5449ZM114.391 95.3103L120.239 95.3103L123.168 90.1056L120.239 84.9008L114.391 84.9008L111.463 90.1056L114.391 95.3103Z"
      fill="#5B6871"
    />
    <path
      d="M129.372 68.9297L123.247 68.9297L120.187 63.4903L120.22 63.434L123.247 58.051L129.372 58.051L132.432 63.4903L132.399 63.5466L129.372 68.9297ZM123.384 68.695L129.231 68.695L132.16 63.4903L129.231 58.2856L123.384 58.2856L120.455 63.4903L123.384 68.695Z"
      fill="#5B6871"
    />
    <path
      d="M129.372 79.5791L123.247 79.5791L120.187 74.1397L120.22 74.0834L123.247 68.7004L129.372 68.7004L132.432 74.1397L132.399 74.1961L129.372 79.5791ZM123.384 79.3444L129.231 79.3444L132.16 74.1397L129.231 68.935L123.384 68.935L120.455 74.1397L123.384 79.3444Z"
      fill="#5B6871"
    />
    <path
      d="M122.863 100.078C122.82 100.078 122.783 100.055 122.759 100.017L120.187 95.4319L123.215 90.0535C123.247 89.9972 123.318 89.9784 123.374 90.0113C123.43 90.0442 123.449 90.1146 123.416 90.1709L120.455 95.4319L122.961 99.9045C122.994 99.9608 122.975 100.031 122.914 100.064C122.895 100.073 122.877 100.078 122.858 100.078L122.863 100.078Z"
      fill="#5B6871"
    />
    <path
      d="M32.1195 115.638C32.1195 115.863 32.0773 116.06 31.9928 116.225C31.9083 116.389 31.7957 116.511 31.6502 116.6C31.5047 116.689 31.3404 116.731 31.1574 116.731C30.9744 116.731 30.8101 116.689 30.6646 116.6C30.5191 116.511 30.4065 116.384 30.322 116.225C30.2376 116.06 30.1953 115.868 30.1953 115.638C30.1953 115.408 30.2376 115.216 30.322 115.051C30.4065 114.887 30.5191 114.765 30.6646 114.676C30.8101 114.587 30.9744 114.544 31.1574 114.544C31.3404 114.544 31.5047 114.587 31.6502 114.676C31.7957 114.765 31.9083 114.887 31.9928 115.051C32.0773 115.216 32.1195 115.408 32.1195 115.638ZM31.8004 115.638C31.8004 115.464 31.7722 115.319 31.7159 115.201C31.6596 115.084 31.5845 114.995 31.4859 114.929C31.3874 114.864 31.2794 114.835 31.1574 114.835C31.0354 114.835 30.9274 114.868 30.8289 114.929C30.7303 114.99 30.6552 115.079 30.5989 115.201C30.5426 115.319 30.5144 115.464 30.5144 115.638C30.5144 115.812 30.5426 115.957 30.5989 116.074C30.6552 116.192 30.7303 116.286 30.8289 116.347C30.9274 116.408 31.0354 116.44 31.1574 116.44C31.2794 116.44 31.3874 116.408 31.4859 116.347C31.5845 116.286 31.6596 116.196 31.7159 116.074C31.7722 115.957 31.8004 115.812 31.8004 115.638Z"
      fill="#5B6871"
    />
    <path
      d="M33.4468 115.494L33.1652 115.546C33.1512 115.508 33.1371 115.475 33.1089 115.442C33.0855 115.41 33.0479 115.381 33.0057 115.363C32.9634 115.344 32.9071 115.33 32.8461 115.33C32.7569 115.33 32.6865 115.349 32.6255 115.391C32.5645 115.428 32.5364 115.48 32.5364 115.541C32.5364 115.593 32.5551 115.64 32.5974 115.668C32.6349 115.701 32.7006 115.729 32.7898 115.747L33.0432 115.804C33.1887 115.837 33.3013 115.888 33.3717 115.959C33.4421 116.029 33.4797 116.123 33.4797 116.236C33.4797 116.329 33.4515 116.414 33.3952 116.489C33.3389 116.564 33.2638 116.62 33.1652 116.663C33.0667 116.705 32.9541 116.724 32.8226 116.724C32.6443 116.724 32.4988 116.686 32.3862 116.611C32.2736 116.536 32.2032 116.423 32.1797 116.282L32.48 116.236C32.4988 116.315 32.5364 116.372 32.5974 116.414C32.6584 116.456 32.7335 116.475 32.8226 116.475C32.9259 116.475 33.0057 116.451 33.0667 116.409C33.1277 116.367 33.1559 116.315 33.1559 116.254C33.1559 116.203 33.1371 116.16 33.0995 116.128C33.062 116.095 33.0057 116.067 32.9306 116.053L32.6584 115.992C32.5082 115.959 32.4003 115.902 32.3299 115.827C32.2595 115.752 32.2219 115.658 32.2219 115.546C32.2219 115.452 32.2501 115.367 32.3017 115.297C32.3533 115.227 32.4284 115.17 32.5223 115.133C32.6161 115.095 32.7194 115.072 32.8414 115.072C33.0151 115.072 33.1512 115.109 33.2497 115.184C33.3483 115.259 33.414 115.358 33.4468 115.485L33.4468 115.494Z"
      fill="#5B6871"
    />
    <path
      d="M33.7617 116.701L33.7617 115.106L34.0621 115.106L34.0621 115.364L34.0809 115.364C34.1137 115.275 34.17 115.209 34.2451 115.157C34.3202 115.106 34.4094 115.082 34.5173 115.082C34.6253 115.082 34.7144 115.106 34.7848 115.157C34.8552 115.209 34.9115 115.275 34.9444 115.364L34.9632 115.364C35.0007 115.279 35.0617 115.209 35.1462 115.162C35.2307 115.11 35.3292 115.087 35.4419 115.087C35.5874 115.087 35.7047 115.134 35.7985 115.223C35.8924 115.312 35.9346 115.453 35.9346 115.636L35.9346 116.706L35.6249 116.706L35.6249 115.664C35.6249 115.556 35.5967 115.476 35.5357 115.43C35.4747 115.383 35.4043 115.354 35.3245 115.354C35.2213 115.354 35.1462 115.387 35.0899 115.448C35.0336 115.509 35.0054 115.589 35.0054 115.688L35.0054 116.706L34.6957 116.706L34.6957 115.645C34.6957 115.561 34.6675 115.491 34.6159 115.434C34.5642 115.378 34.4892 115.354 34.4047 115.354C34.3437 115.354 34.292 115.369 34.2404 115.401C34.1888 115.434 34.1512 115.476 34.1231 115.528C34.0949 115.584 34.0762 115.645 34.0762 115.72L34.0762 116.706L33.7664 116.706L33.7617 116.701Z"
      fill="#5B6871"
    />
    <path
      d="M36.972 116.734C36.8218 116.734 36.6904 116.702 36.5825 116.631C36.4698 116.561 36.3853 116.467 36.3243 116.345C36.2633 116.223 36.2305 116.077 36.2305 115.913C36.2305 115.749 36.2633 115.603 36.3243 115.477C36.3853 115.355 36.4745 115.256 36.5825 115.186C36.6951 115.115 36.8265 115.082 36.972 115.082C37.1175 115.082 37.2536 115.115 37.3615 115.186C37.4742 115.256 37.5586 115.35 37.6196 115.477C37.6807 115.603 37.7135 115.744 37.7135 115.913C37.7135 116.082 37.6807 116.223 37.6196 116.345C37.5586 116.467 37.4695 116.565 37.3615 116.631C37.2489 116.702 37.1175 116.734 36.972 116.734ZM36.972 116.472C37.0705 116.472 37.1503 116.448 37.2113 116.396C37.277 116.345 37.324 116.279 37.3521 116.19C37.385 116.105 37.3991 116.012 37.3991 115.908C37.3991 115.805 37.385 115.711 37.3521 115.627C37.3193 115.542 37.2724 115.472 37.2113 115.42C37.1456 115.369 37.0659 115.341 36.972 115.341C36.8781 115.341 36.7936 115.369 36.7279 115.42C36.6622 115.472 36.6153 115.542 36.5871 115.627C36.5543 115.711 36.5402 115.805 36.5402 115.908C36.5402 116.012 36.5543 116.105 36.5871 116.19C36.62 116.274 36.6669 116.345 36.7279 116.396C36.789 116.448 36.8734 116.472 36.972 116.472Z"
      fill="#5B6871"
    />
    <path
      d="M38.8804 115.494L38.5988 115.546C38.5848 115.508 38.5707 115.475 38.5425 115.442C38.5191 115.41 38.4815 115.381 38.4393 115.363C38.397 115.344 38.3407 115.33 38.2797 115.33C38.1905 115.33 38.1201 115.349 38.0591 115.391C37.9981 115.428 37.97 115.48 37.97 115.541C37.97 115.593 37.9887 115.64 38.031 115.668C38.0685 115.701 38.1342 115.729 38.2234 115.747L38.4768 115.804C38.6223 115.837 38.7349 115.888 38.8053 115.959C38.8757 116.029 38.9133 116.123 38.9133 116.236C38.9133 116.329 38.8851 116.414 38.8288 116.489C38.7725 116.564 38.6974 116.62 38.5988 116.663C38.5003 116.705 38.3876 116.724 38.2562 116.724C38.0779 116.724 37.9324 116.686 37.8198 116.611C37.7071 116.536 37.6367 116.423 37.6133 116.282L37.9136 116.236C37.9324 116.315 37.97 116.372 38.031 116.414C38.092 116.456 38.1671 116.475 38.2562 116.475C38.3595 116.475 38.4393 116.451 38.5003 116.409C38.5613 116.367 38.5895 116.315 38.5895 116.254C38.5895 116.203 38.5707 116.16 38.5331 116.128C38.4956 116.095 38.4393 116.067 38.3642 116.053L38.092 115.992C37.9418 115.959 37.8339 115.902 37.7635 115.827C37.6931 115.752 37.6555 115.658 37.6555 115.546C37.6555 115.452 37.6837 115.367 37.7353 115.297C37.7869 115.227 37.862 115.17 37.9559 115.133C38.0497 115.095 38.153 115.072 38.275 115.072C38.4487 115.072 38.5848 115.109 38.6833 115.184C38.7819 115.259 38.8476 115.358 38.8804 115.485L38.8804 115.494Z"
      fill="#5B6871"
    />
    <path
      d="M39.3651 114.859C39.3088 114.859 39.2665 114.84 39.2243 114.802C39.1867 114.765 39.168 114.723 39.168 114.671C39.168 114.619 39.1867 114.577 39.2243 114.54C39.2618 114.502 39.3088 114.483 39.3651 114.483C39.4214 114.483 39.4636 114.502 39.5059 114.54C39.5481 114.577 39.5622 114.619 39.5622 114.671C39.5622 114.723 39.5434 114.765 39.5059 114.802C39.4683 114.84 39.4214 114.859 39.3651 114.859ZM39.2102 116.703L39.2102 115.107L39.52 115.107L39.52 116.703L39.2102 116.703Z"
      fill="#5B6871"
    />
    <path
      d="M41.0992 115.494L40.8176 115.546C40.8035 115.508 40.7894 115.475 40.7613 115.442C40.7378 115.41 40.7003 115.381 40.658 115.363C40.6158 115.344 40.5595 115.33 40.4985 115.33C40.4093 115.33 40.3389 115.349 40.2779 115.391C40.2169 115.428 40.1887 115.48 40.1887 115.541C40.1887 115.593 40.2075 115.64 40.2497 115.668C40.2873 115.701 40.353 115.729 40.4421 115.747L40.6956 115.804C40.8411 115.837 40.9537 115.888 41.0241 115.959C41.0945 116.029 41.132 116.123 41.132 116.236C41.132 116.329 41.1039 116.414 41.0476 116.489C40.9912 116.564 40.9161 116.62 40.8176 116.663C40.719 116.705 40.6064 116.724 40.475 116.724C40.2967 116.724 40.1512 116.686 40.0385 116.611C39.9259 116.536 39.8555 116.423 39.832 116.282L40.1324 116.236C40.1512 116.315 40.1887 116.372 40.2497 116.414C40.3107 116.456 40.3858 116.475 40.475 116.475C40.5782 116.475 40.658 116.451 40.719 116.409C40.78 116.367 40.8082 116.315 40.8082 116.254C40.8082 116.203 40.7894 116.16 40.7519 116.128C40.7143 116.095 40.658 116.067 40.5829 116.053L40.3107 115.992C40.1606 115.959 40.0526 115.902 39.9822 115.827C39.9118 115.752 39.8743 115.658 39.8743 115.546C39.8743 115.452 39.9024 115.367 39.9541 115.297C40.0057 115.227 40.0808 115.17 40.1746 115.133C40.2685 115.095 40.3717 115.072 40.4938 115.072C40.6674 115.072 40.8035 115.109 40.9021 115.184C41.0006 115.259 41.0663 115.358 41.0992 115.485L41.0992 115.494Z"
      fill="#5B6871"
    />
    <path
      d="M45.8116 115.266L45.4878 115.266C45.4737 115.195 45.4502 115.134 45.4174 115.083C45.3845 115.031 45.3423 114.984 45.2906 114.946C45.239 114.909 45.1874 114.881 45.1264 114.862C45.0654 114.843 44.9997 114.834 44.934 114.834C44.8119 114.834 44.6993 114.867 44.6054 114.928C44.5116 114.989 44.4318 115.078 44.3755 115.2C44.3192 115.322 44.291 115.463 44.291 115.636C44.291 115.81 44.3192 115.956 44.3755 116.078C44.4318 116.2 44.5069 116.289 44.6054 116.35C44.704 116.411 44.8119 116.444 44.934 116.444C44.9997 116.444 45.0654 116.434 45.1264 116.415C45.1874 116.397 45.2437 116.368 45.2906 116.336C45.3376 116.298 45.3798 116.256 45.4174 116.204C45.4502 116.153 45.4737 116.092 45.4878 116.026L45.8116 116.026C45.7928 116.134 45.76 116.228 45.713 116.317C45.6614 116.406 45.6004 116.481 45.5206 116.542C45.4455 116.608 45.3564 116.655 45.2578 116.688C45.1592 116.72 45.0513 116.739 44.934 116.739C44.7509 116.739 44.5867 116.697 44.4412 116.608C44.2957 116.519 44.1831 116.392 44.0986 116.232C44.0141 116.068 43.9766 115.876 43.9766 115.646C43.9766 115.416 44.0188 115.223 44.1033 115.059C44.1878 114.895 44.3004 114.773 44.4459 114.684C44.5914 114.594 44.7556 114.552 44.9387 114.552C45.0513 114.552 45.1592 114.571 45.2531 114.599C45.347 114.627 45.4408 114.679 45.5159 114.74C45.5957 114.801 45.6567 114.876 45.7083 114.965C45.76 115.054 45.7928 115.158 45.8116 115.27L45.8116 115.266Z"
      fill="#5B6871"
    />
    <path
      d="M46.1832 117.298C46.1363 117.298 46.094 117.298 46.0565 117.288C46.0189 117.279 45.9908 117.274 45.972 117.265L46.0471 117.012C46.1034 117.026 46.155 117.035 46.1973 117.03C46.2395 117.03 46.2818 117.012 46.3146 116.979C46.3475 116.946 46.3803 116.899 46.4038 116.824L46.4413 116.716L45.8594 115.097L46.1926 115.097L46.5962 116.336L46.615 116.336L47.0186 115.097L47.3518 115.097L46.6948 116.908C46.6666 116.993 46.6244 117.063 46.5774 117.12C46.5305 117.176 46.4742 117.223 46.4085 117.251C46.3428 117.279 46.2677 117.293 46.1832 117.293L46.1832 117.298Z"
      fill="#5B6871"
    />
    <path
      d="M47.5391 117.298L47.5391 115.101L47.8441 115.101L47.8441 115.36L47.8723 115.36C47.891 115.327 47.9145 115.289 47.9521 115.242C47.9896 115.195 48.0318 115.162 48.0929 115.13C48.1539 115.097 48.2336 115.078 48.3322 115.078C48.4589 115.078 48.5762 115.111 48.6795 115.177C48.7827 115.242 48.8625 115.336 48.9188 115.458C48.9752 115.58 49.008 115.73 49.008 115.899C49.008 116.068 48.9799 116.218 48.9235 116.34C48.8672 116.462 48.7874 116.556 48.6842 116.622C48.5856 116.688 48.4683 116.721 48.3416 116.721C48.243 116.721 48.1632 116.702 48.1022 116.674C48.0412 116.641 47.9943 116.603 47.9567 116.561C47.9192 116.519 47.8957 116.477 47.877 116.444L47.8582 116.444L47.8582 117.288L47.5484 117.288L47.5391 117.298ZM47.8441 115.899C47.8441 116.012 47.8582 116.11 47.891 116.195C47.9239 116.279 47.9708 116.345 48.0318 116.392C48.0929 116.439 48.1679 116.462 48.2571 116.462C48.3463 116.462 48.4261 116.439 48.4918 116.387C48.5528 116.336 48.5997 116.27 48.6326 116.186C48.6654 116.101 48.6795 116.003 48.6795 115.899C48.6795 115.796 48.6654 115.697 48.6326 115.618C48.5997 115.533 48.5528 115.468 48.4918 115.421C48.4308 115.374 48.351 115.345 48.2571 115.345C48.1632 115.345 48.0929 115.369 48.0271 115.416C47.9661 115.463 47.9192 115.529 47.8864 115.608C47.8535 115.693 47.8394 115.787 47.8394 115.899L47.8441 115.899Z"
      fill="#5B6871"
    />
    <path
      d="M49.548 115.753L49.548 116.701L49.2383 116.701L49.2383 114.57L49.5433 114.57L49.5433 115.364L49.5621 115.364C49.5997 115.279 49.656 115.209 49.7358 115.157C49.8108 115.105 49.9141 115.082 50.0361 115.082C50.1441 115.082 50.2426 115.105 50.3224 115.148C50.4069 115.195 50.4679 115.26 50.5148 115.35C50.5617 115.439 50.5852 115.551 50.5852 115.683L50.5852 116.696L50.2755 116.696L50.2755 115.72C50.2755 115.603 50.2473 115.514 50.1863 115.448C50.1253 115.382 50.0408 115.35 49.9329 115.35C49.8578 115.35 49.7921 115.364 49.7358 115.396C49.6794 115.429 49.6325 115.472 49.5997 115.533C49.5668 115.594 49.548 115.664 49.548 115.748L49.548 115.753Z"
      fill="#5B6871"
    />
    <path
      d="M51.6204 116.732C51.4609 116.732 51.3295 116.7 51.2121 116.629C51.0995 116.563 51.0103 116.465 50.9493 116.343C50.8883 116.221 50.8555 116.075 50.8555 115.911C50.8555 115.747 50.8883 115.601 50.9493 115.479C51.0103 115.353 51.0948 115.259 51.2075 115.188C51.3201 115.118 51.4468 115.085 51.597 115.085C51.6862 115.085 51.7753 115.099 51.8598 115.127C51.9443 115.156 52.0194 115.202 52.0851 115.268C52.1508 115.334 52.2071 115.414 52.2446 115.517C52.2822 115.62 52.301 115.742 52.301 115.888L52.301 115.996L51.0338 115.996L51.0338 115.761L52.0006 115.761C52.0006 115.681 51.9818 115.606 51.949 115.545C51.9161 115.484 51.8692 115.432 51.8082 115.395C51.7472 115.357 51.6768 115.339 51.597 115.339C51.5078 115.339 51.4327 115.362 51.367 115.404C51.3013 115.446 51.2544 115.503 51.2168 115.569C51.184 115.639 51.1652 115.709 51.1652 115.789L51.1652 115.972C51.1652 116.08 51.184 116.169 51.2215 116.244C51.2591 116.319 51.3107 116.376 51.3811 116.413C51.4468 116.451 51.5266 116.47 51.6204 116.47C51.6815 116.47 51.7331 116.46 51.78 116.446C51.8269 116.427 51.8692 116.404 51.9067 116.371C51.9443 116.338 51.9677 116.296 51.9865 116.244L52.2822 116.296C52.2587 116.38 52.2165 116.46 52.1555 116.521C52.0945 116.587 52.0194 116.639 51.9255 116.671C51.8363 116.709 51.7284 116.723 51.6158 116.723L51.6204 116.732Z"
      fill="#5B6871"
    />
    <path
      d="M52.2617 116.701L52.2617 115.105L52.5621 115.105L52.5621 115.359L52.5809 115.359C52.609 115.274 52.6606 115.204 52.7357 115.157C52.8108 115.11 52.8953 115.082 52.9845 115.082C53.0032 115.082 53.0267 115.082 53.0549 115.082C53.083 115.082 53.1018 115.082 53.1159 115.087L53.1159 115.382C53.1159 115.382 53.083 115.373 53.0502 115.368C53.0173 115.368 52.9845 115.364 52.9563 115.364C52.8812 115.364 52.8155 115.378 52.7592 115.411C52.7029 115.443 52.6559 115.486 52.6231 115.537C52.5902 115.594 52.5715 115.655 52.5715 115.725L52.5715 116.701L52.2617 116.701Z"
      fill="#5B6871"
    />
    <path
      d="M42.999 116.547L41.8867 115.374L42.004 115.261L43.1163 116.434L42.999 116.547Z"
      fill="#5B6871"
    />
    <path
      d="M42.004 116.547L41.8867 116.434L42.999 115.261L43.1163 115.374L42.004 116.547Z"
      fill="#5B6871"
    />
    <path
      d="M93.4098 59.1729C92.856 59.1729 92.4102 58.7223 92.4102 58.1732C92.4102 57.6241 92.8607 57.1736 93.4098 57.1736C93.9589 57.1736 94.4094 57.6241 94.4094 58.1732C94.4094 58.7223 93.9589 59.1729 93.4098 59.1729ZM93.4098 57.4035C92.9874 57.4035 92.6448 57.7461 92.6448 58.1685C92.6448 58.5909 92.9874 58.9335 93.4098 58.9335C93.8322 58.9335 94.1748 58.5909 94.1748 58.1685C94.1748 57.7461 93.8322 57.4035 93.4098 57.4035Z"
      fill="#5B6871"
    />
    <path
      d="M114.515 64.4902C113.961 64.4902 113.516 64.0397 113.516 63.4906C113.516 62.9415 113.966 62.491 114.515 62.491C115.064 62.491 115.515 62.9415 115.515 63.4906C115.515 64.0397 115.064 64.4902 114.515 64.4902ZM114.515 62.7209C114.093 62.7209 113.75 63.0635 113.75 63.4859C113.75 63.9083 114.093 64.2509 114.515 64.2509C114.938 64.2509 115.28 63.9083 115.28 63.4859C115.28 63.0635 114.938 62.7209 114.515 62.7209Z"
      fill="#5B6871"
    />
    <path
      d="M123.5 101.749C122.946 101.749 122.5 101.298 122.5 100.749C122.5 100.2 122.951 99.7497 123.5 99.7497C124.049 99.7497 124.499 100.2 124.499 100.749C124.499 101.298 124.049 101.749 123.5 101.749ZM123.5 99.9797C123.077 99.9797 122.735 100.322 122.735 100.745C122.735 101.167 123.077 101.51 123.5 101.51C123.922 101.51 124.265 101.167 124.265 100.745C124.265 100.322 123.922 99.9797 123.5 99.9797Z"
      fill="#5B6871"
    />
    <path
      d="M51.386 101.772C51.3109 101.772 51.2358 101.763 51.156 101.744C50.8932 101.683 50.6726 101.524 50.5318 101.298C50.391 101.073 50.3441 100.806 50.4051 100.543C50.4661 100.28 50.6257 100.059 50.8509 99.9187C51.0762 99.7779 51.3484 99.7309 51.6065 99.7919C51.8694 99.853 52.0899 100.013 52.2307 100.238C52.3715 100.463 52.4185 100.731 52.3574 100.993C52.2964 101.256 52.1369 101.477 51.9116 101.618C51.752 101.716 51.569 101.768 51.386 101.768L51.386 101.772ZM51.386 100.003C51.2452 100.003 51.1044 100.041 50.9824 100.12C50.8087 100.228 50.6867 100.397 50.6398 100.599C50.5928 100.801 50.6257 101.003 50.7336 101.176C50.8416 101.35 51.0105 101.472 51.2123 101.519C51.4141 101.566 51.6159 101.533 51.7896 101.42C51.9632 101.313 52.0852 101.144 52.1322 100.942C52.1791 100.74 52.1463 100.538 52.0383 100.365C51.9304 100.191 51.7614 100.069 51.5596 100.022C51.5033 100.008 51.4423 100.003 51.386 100.003Z"
      fill="#5B6871"
    />
    <path
      d="M51.4098 58.0554C51.9636 58.0554 52.4094 58.5059 52.4094 59.055C52.4094 59.6041 51.9589 60.0547 51.4098 60.0547C50.8607 60.0547 50.4102 59.6041 50.4102 59.055C50.4102 58.5059 50.8607 58.0554 51.4098 58.0554ZM51.4098 59.8247C51.8322 59.8247 52.1748 59.4821 52.1748 59.0597C52.1748 58.6374 51.8322 58.2948 51.4098 58.2948C50.9874 58.2948 50.6448 58.6374 50.6448 59.0597C50.6448 59.4821 50.9874 59.8247 51.4098 59.8247Z"
      fill="#5B6871"
    />
    <path
      d="M100.816 71.2676L98.0517 71.2676L96.6719 68.8131L98.0517 66.3585L100.816 66.3585L102.196 68.8131L100.816 71.2676ZM98.1878 71.0329L100.68 71.0329L101.928 68.8131L100.68 66.5932L98.1878 66.5932L96.9394 68.8131L98.1878 71.0329Z"
      fill="#5B6871"
    />
    <path
      d="M34.9618 61.9835L37.7261 61.9835L39.1059 64.4381L37.7261 66.8926L34.9618 66.8926L33.582 64.4381L34.9618 61.9835ZM37.59 62.2182L35.0979 62.2182L33.8495 64.4381L35.0979 66.6579L37.59 66.6579L38.8384 64.4381L37.59 62.2182Z"
      fill="#5B6871"
    />
    <path
      d="M82.9136 113.815L80.1493 113.815L78.7695 111.361L80.1493 108.906L82.9136 108.906L84.2934 111.361L82.9136 113.815ZM80.2854 113.581L82.7775 113.581L84.0259 111.361L82.7775 109.141L80.2854 109.141L79.037 111.361L80.2854 113.581Z"
      fill="#5B6871"
    />
    <path
      d="M127.812 76.5566L125.048 76.5566L123.668 74.1021L125.048 71.6476L127.812 71.6476L129.192 74.1021L127.812 76.5566ZM125.184 76.322L127.676 76.322L128.924 74.1021L127.676 71.8823L125.184 71.8823L123.935 74.1021L125.184 76.322Z"
      fill="#5B6871"
    />
    <path
      d="M92.7441 70.0605L88.0275 70.0605C87.9618 70.0605 87.9102 70.0089 87.9102 69.9432C87.9102 69.8775 87.9618 69.8259 88.0275 69.8259L92.7441 69.8259C92.8098 69.8259 92.8614 69.8775 92.8614 69.9432C92.8614 70.0089 92.8098 70.0605 92.7441 70.0605Z"
      fill="#5B6871"
    />
    <path
      d="M94.5405 79.6445C94.5405 79.6445 94.503 79.6398 94.4842 79.6304C94.4279 79.5976 94.4091 79.5272 94.4419 79.4709L96.8026 75.2752C96.8354 75.2189 96.9058 75.2001 96.9622 75.2283C97.0185 75.2611 97.0373 75.3315 97.0044 75.3878L94.6438 79.5835C94.6203 79.6211 94.5827 79.6445 94.5405 79.6445Z"
      fill="#5B6871"
    />
    <path
      d="M50.1526 69.6431C50.1526 69.6431 50.1902 69.6478 50.2089 69.6571C50.2653 69.69 50.284 69.7604 50.2559 69.8167L47.8952 74.0124C47.8624 74.0687 47.792 74.0875 47.7356 74.0593C47.6793 74.0265 47.6606 73.9561 47.6887 73.8998L50.0494 69.7041C50.0728 69.6665 50.1104 69.6431 50.1526 69.6431Z"
      fill="#5B6871"
    />
    <path
      d="M61.0024 105.128C60.9601 105.128 60.9226 105.104 60.8991 105.067L58.5385 100.871C58.5056 100.815 58.5291 100.745 58.5854 100.712C58.6417 100.679 58.7121 100.698 58.745 100.754L61.1056 104.95C61.1385 105.006 61.115 105.076 61.0587 105.109C61.0399 105.119 61.0211 105.123 61.0024 105.123L61.0024 105.128Z"
      fill="#5B6871"
    />
    <path
      d="M57.4102 100.891L52.2853 100.891C52.2196 100.891 52.168 100.839 52.168 100.773C52.168 100.708 52.2196 100.656 52.2853 100.656L57.4102 100.656C57.4759 100.656 57.5276 100.708 57.5276 100.773C57.5276 100.839 57.4759 100.891 57.4102 100.891Z"
      fill="#5B6871"
    />
    <path
      d="M85.5678 95.634C85.5678 95.634 85.5303 95.6293 85.5115 95.6199C85.4552 95.587 85.4364 95.5166 85.4693 95.4603L87.8299 91.2646C87.8628 91.2083 87.9332 91.1896 87.9895 91.2224C88.0458 91.2553 88.0646 91.3257 88.0317 91.382L85.6711 95.5777C85.6476 95.6152 85.6101 95.6387 85.5678 95.6387L85.5678 95.634Z"
      fill="#5B6871"
    />
    <path
      d="M119.666 83.8408L114.949 83.8408C114.884 83.8408 114.832 83.7892 114.832 83.7235C114.832 83.6578 114.884 83.6062 114.949 83.6062L119.666 83.6062C119.732 83.6062 119.783 83.6578 119.783 83.7235C119.783 83.7892 119.732 83.8408 119.666 83.8408Z"
      fill="#5B6871"
    />
    <path
      d="M121.748 63.6553C121.748 63.6553 121.71 63.6506 121.691 63.6412C121.635 63.6083 121.616 63.5379 121.649 63.4816L124.01 59.2859C124.042 59.2296 124.113 59.2109 124.169 59.239C124.226 59.2719 124.244 59.3423 124.211 59.3986L121.851 63.5943C121.827 63.6318 121.79 63.6553 121.748 63.6553Z"
      fill="#5B6871"
    />
    <path
      d="M78.0839 82.1924C78.0839 82.1924 78.0698 82.1924 78.0651 82.1924C77.9994 82.183 77.9572 82.122 77.9665 82.061C78.0135 81.7465 78.1073 81.3852 78.2481 80.9909L78.2857 80.8877L78.3936 80.9205C78.5391 80.9628 78.6846 80.9862 78.8301 80.9862C79.2102 80.9862 79.5293 80.8314 79.7312 80.5545C79.9376 80.2729 80.0127 79.8974 79.9283 79.5971C79.7781 79.0151 79.2947 78.4379 78.403 77.7808C77.6943 77.2599 76.9481 76.9595 76.3615 76.9595C76.2489 76.9595 76.1456 76.9689 76.0377 76.9924C75.7936 77.044 75.5777 77.227 75.4369 77.4992C75.2633 77.8324 75.2164 78.283 75.329 78.5505C75.3712 78.6303 75.4229 78.7429 75.4886 78.8368L75.5543 78.94L75.451 79.001C75.2351 79.1324 75.0333 79.2451 74.8456 79.3342C74.7893 79.3624 74.7189 79.3342 74.6907 79.2779C74.6626 79.2216 74.6907 79.1512 74.7471 79.1231C74.8972 79.0527 75.0615 78.9635 75.2304 78.8602C75.1882 78.7805 75.1507 78.7054 75.1178 78.6444C74.977 78.3064 75.0239 77.7808 75.2304 77.3866C75.3994 77.0487 75.681 76.8187 75.9954 76.7577C76.1174 76.7342 76.2395 76.7202 76.3662 76.7202C77.0044 76.7202 77.8023 77.0346 78.5485 77.5837C79.4824 78.2783 79.994 78.8931 80.1582 79.5267C80.2662 79.8927 80.177 80.3386 79.9283 80.6859C79.6138 81.1176 79.0225 81.3007 78.4452 81.1693C78.3279 81.5119 78.2481 81.8216 78.2106 82.0938C78.2012 82.1501 78.1496 82.1924 78.0933 82.1924L78.0839 82.1924Z"
      fill="#5B6871"
    />
    <path
      d="M72.4073 92.3535C68.6904 92.3535 65.668 89.2748 65.668 85.4921C65.668 81.7094 68.6904 78.6307 72.4073 78.6307C76.1243 78.6307 79.1467 81.7094 79.1467 85.4921C79.1467 89.2748 76.1243 92.3535 72.4073 92.3535ZM72.4073 78.8701C68.8218 78.8701 65.9026 81.8408 65.9026 85.4968C65.9026 89.1528 68.8218 92.1236 72.4073 92.1236C75.9929 92.1236 78.912 89.1528 78.912 85.4968C78.912 81.8408 75.9929 78.8701 72.4073 78.8701Z"
      fill="#5B6871"
    />
    <path
      d="M74.4967 82.7363C73.8772 82.7363 73.375 82.2248 73.375 81.5959C73.375 80.967 73.8772 80.4555 74.4967 80.4555C75.1162 80.4555 75.6183 80.967 75.6183 81.5959C75.6183 82.2248 75.1162 82.7363 74.4967 82.7363ZM74.4967 80.6854C74.0086 80.6854 73.6097 81.0937 73.6097 81.5912C73.6097 82.0887 74.0086 82.497 74.4967 82.497C74.9848 82.497 75.3837 82.0887 75.3837 81.5912C75.3837 81.0937 74.9848 80.6854 74.4967 80.6854Z"
      fill="#5B6871"
    />
    <path
      d="M75.9975 83.502C75.6972 83.502 75.4531 83.2532 75.4531 82.9529C75.4531 82.6525 75.6972 82.4038 75.9975 82.4038C76.2979 82.4038 76.5419 82.6525 76.5419 82.9529C76.5419 83.2532 76.2979 83.502 75.9975 83.502ZM75.9975 82.6384C75.8286 82.6384 75.6878 82.7792 75.6878 82.9529C75.6878 83.1265 75.8239 83.2673 75.9975 83.2673C76.1712 83.2673 76.3073 83.1265 76.3073 82.9529C76.3073 82.7792 76.1712 82.6384 75.9975 82.6384Z"
      fill="#5B6871"
    />
    <path
      d="M72.2167 91.5977C68.8705 91.5977 66.1484 88.8334 66.1484 85.4308C66.1484 85.3651 66.2001 85.3135 66.2658 85.3135C66.3315 85.3135 66.3831 85.3651 66.3831 85.4308C66.3831 88.702 69.0019 91.363 72.2167 91.363C75.4315 91.363 78.0925 88.7254 78.0925 85.4778C78.0925 85.4121 78.1441 85.3605 78.2098 85.3605C78.2755 85.3605 78.3272 85.4121 78.3272 85.4778C78.3272 88.8522 75.5864 91.5977 72.2167 91.5977Z"
      fill="#5B6871"
    />
    <path
      d="M70.79 87.8662C68.9033 87.8662 67.5329 87.2936 66.8102 86.6695C66.3831 86.2987 66.1484 85.881 66.1484 85.4868C66.1484 85.2427 66.2235 85.0503 66.3784 84.9142C66.7445 84.5857 67.5095 84.6092 68.8799 84.7687C69.5651 84.8532 70.6163 84.9236 71.7661 84.581C73.0474 84.1868 74.216 84.046 75.4409 84.1445C76.5203 84.2384 78.3272 84.5341 78.3272 85.4915C78.3272 86.0171 77.7546 86.1579 77.0319 86.3315C76.7409 86.4019 76.4171 86.4817 76.0791 86.5944C75.7976 86.6882 75.53 86.7962 75.2438 86.9088C74.4694 87.2186 73.5871 87.5658 72.2448 87.7583C71.7333 87.8334 71.2452 87.8662 70.79 87.8662ZM67.4297 84.8907C67.0167 84.8907 66.7022 84.9424 66.5333 85.0926C66.4347 85.1817 66.3831 85.3131 66.3831 85.4915C66.3831 85.8153 66.5896 86.172 66.9604 86.4958C67.8145 87.2373 69.6401 87.8991 72.2073 87.5283C73.5261 87.3359 74.3896 86.9933 75.1546 86.6929C75.4409 86.5803 75.7131 86.4723 75.9994 86.3738C76.3467 86.2565 76.6799 86.1767 76.9708 86.1063C77.7077 85.9279 78.0878 85.82 78.0878 85.4915C78.0878 84.9377 77.0882 84.5247 75.4174 84.3792C74.2207 84.2853 73.0802 84.4214 71.8318 84.8063C70.6351 85.163 69.5557 85.0879 68.847 85.0034C68.3167 84.9424 67.8286 84.8907 67.425 84.8907L67.4297 84.8907Z"
      fill="#5B6871"
    />
    <path
      d="M71.838 90.3594C71.5987 90.3594 71.4062 90.1623 71.4062 89.9229C71.4062 89.6836 71.5987 89.4864 71.838 89.4864C72.0774 89.4864 72.2698 89.6836 72.2698 89.9229C72.2698 90.1623 72.0774 90.3594 71.838 90.3594ZM71.838 89.7211C71.7301 89.7211 71.6409 89.8103 71.6409 89.9229C71.6409 90.0355 71.7301 90.1247 71.838 90.1247C71.946 90.1247 72.0351 90.0355 72.0351 89.9229C72.0351 89.8103 71.946 89.7211 71.838 89.7211Z"
      fill="#5B6871"
    />
    <path
      d="M73.5216 90.1973C73.2823 90.1973 73.0898 90.0002 73.0898 89.7608C73.0898 89.5215 73.2823 89.3243 73.5216 89.3243C73.761 89.3243 73.9534 89.5215 73.9534 89.7608C73.9534 90.0002 73.761 90.1973 73.5216 90.1973ZM73.5216 89.559C73.4137 89.559 73.3245 89.6482 73.3245 89.7608C73.3245 89.8734 73.4137 89.9626 73.5216 89.9626C73.6296 89.9626 73.7187 89.8734 73.7187 89.7608C73.7187 89.6482 73.6296 89.559 73.5216 89.559Z"
      fill="#5B6871"
    />
    <path
      d="M72.6253 90.8242C72.7567 90.8242 72.8599 90.7163 72.8599 90.5849C72.8599 90.4535 72.7567 90.3455 72.6253 90.3455C72.4939 90.3455 72.3906 90.4535 72.3906 90.5849C72.3906 90.7163 72.4939 90.8242 72.6253 90.8242Z"
      fill="#5B6871"
    />
    <path
      d="M74.1761 90.6504C74.3075 90.6504 74.4107 90.5424 74.4107 90.411C74.4107 90.2796 74.3075 90.1717 74.1761 90.1717C74.0447 90.1717 73.9414 90.2796 73.9414 90.411C73.9414 90.5424 74.0447 90.6504 74.1761 90.6504Z"
      fill="#5B6871"
    />
    <path
      d="M70.4344 90.2471C70.0871 90.2471 69.8008 89.9608 69.8008 89.6041C69.8008 89.2474 70.0824 88.9611 70.4344 88.9611C70.7863 88.9611 71.0679 89.2474 71.0679 89.6041C71.0679 89.9608 70.7863 90.2471 70.4344 90.2471ZM70.4344 89.2005C70.2138 89.2005 70.0354 89.3835 70.0354 89.6088C70.0354 89.8341 70.2138 90.0171 70.4344 90.0171C70.6549 90.0171 70.8333 89.8341 70.8333 89.6088C70.8333 89.3835 70.6549 89.2005 70.4344 89.2005Z"
      fill="#5B6871"
    />
    <path
      d="M74.9812 88.9561C74.6339 88.9561 74.3477 88.6698 74.3477 88.3131C74.3477 87.9564 74.6292 87.6701 74.9812 87.6701C75.3332 87.6701 75.6148 87.9564 75.6148 88.3131C75.6148 88.6698 75.3332 88.9561 74.9812 88.9561ZM74.9812 87.9095C74.7607 87.9095 74.5823 88.0925 74.5823 88.3178C74.5823 88.5431 74.7607 88.7261 74.9812 88.7261C75.2018 88.7261 75.3801 88.5431 75.3801 88.3178C75.3801 88.0925 75.2018 87.9095 74.9812 87.9095Z"
      fill="#5B6871"
    />
    <path
      d="M78.3601 81.1475C78.3601 81.1475 78.3366 81.1475 78.3225 81.1428C78.2615 81.124 78.2287 81.0536 78.2475 80.9926L78.7215 79.5612C78.7402 79.5002 78.8059 79.4673 78.8716 79.4861C78.9327 79.5049 78.9655 79.5753 78.9467 79.6363L78.4727 81.0677C78.4586 81.1146 78.4117 81.1475 78.3601 81.1475Z"
      fill="#5B6871"
    />
    <path
      d="M78.5151 80.6484C78.4588 80.6484 78.4072 80.6062 78.3978 80.5499C78.3884 80.4842 78.4306 80.4232 78.4917 80.4138C78.7169 80.3762 78.8436 80.3011 78.8765 80.1885C78.9469 79.9257 78.5339 79.3954 77.8065 78.7946C77.0603 78.1845 76.3563 78.0203 76.07 78.1798C75.9386 78.2502 75.887 78.391 75.9104 78.6022C75.9198 78.6679 75.8729 78.7242 75.8072 78.7336C75.7462 78.743 75.6852 78.6961 75.6758 78.6304C75.6382 78.3253 75.7368 78.0954 75.9574 77.978C76.3891 77.7434 77.2104 78.0062 77.9566 78.621C78.548 79.1091 79.2285 79.7849 79.1018 80.2542C79.0454 80.4607 78.853 80.5921 78.5292 80.6484C78.5245 80.6484 78.5151 80.6484 78.5104 80.6484L78.5151 80.6484Z"
      fill="#5B6871"
    />
    <path
      d="M75.4827 79.0137C75.4405 79.0137 75.4029 78.9949 75.3794 78.9527C75.3466 78.8963 75.3654 78.8259 75.4217 78.7931L76.8062 78C76.8625 77.9671 76.9329 77.9859 76.9657 78.0422C76.9986 78.0985 76.9798 78.1689 76.9235 78.2018L75.539 78.9949C75.539 78.9949 75.5015 79.009 75.4827 79.009L75.4827 79.0137Z"
      fill="#5B6871"
    />
  </g>
  <defs>
    <filter
      id="filter0_d_5937_50064"
      x="19"
      y="52.8613"
      width="121.879"
      height="79.8096"
      filterUnits="userSpaceOnUse"
      color-interpolation-filters="sRGB"
    >
      <feFlood flood-opacity="0" result="BackgroundImageFix" />
      <feColorMatrix
        in="SourceAlpha"
        type="matrix"
        values="0 0 0 0 0 0 0 0 0 0 0 0 0 0 0 0 0 0 127 0"
        result="hardAlpha"
      />
      <feOffset dy="4" />
      <feGaussianBlur stdDeviation="2" />
      <feComposite in2="hardAlpha" operator="out" />
      <feColorMatrix
        type="matrix"
        values="0 0 0 0 0 0 0 0 0 0 0 0 0 0 0 0 0 0 0.4 0"
      />
      <feBlend
        mode="normal"
        in2="BackgroundImageFix"
        result="effect1_dropShadow_5937_50064"
      />
      <feBlend
        mode="normal"
        in="SourceGraphic"
        in2="effect1_dropShadow_5937_50064"
        result="shape"
      />
    </filter>
    <linearGradient
      id="paint0_linear_5937_50064"
      x1="85.9498"
      y1="107.132"
      x2="67.5781"
      y2="38.5682"
      gradientUnits="userSpaceOnUse"
    >
      <stop stop-color="#F1F1F2" />
      <stop offset="0.5" stop-color="#E6E7E8" />
      <stop offset="1" stop-color="#E6E7E8" />
    </linearGradient>
    <linearGradient
      id="paint1_linear_5937_50064"
      x1="35.4527"
      y1="83.0385"
      x2="46.8538"
      y2="71.6365"
      gradientUnits="userSpaceOnUse"
    >
      <stop stop-color="#A6A8AB" />
      <stop offset="0.14" stop-color="#ABADB0" />
      <stop offset="0.32" stop-color="#BCBEC0" />
      <stop offset="0.47" stop-color="#D0D2D3" />
      <stop offset="0.56" stop-color="#C5C7C9" />
      <stop offset="0.83" stop-color="#AEB0B3" />
      <stop offset="1" stop-color="#A6A8AB" />
    </linearGradient>
    <linearGradient
      id="paint2_linear_5937_50064"
      x1="79.9374"
      y1="124.671"
      x2="79.9374"
      y2="52.8609"
      gradientUnits="userSpaceOnUse"
    >
      <stop stop-color="#F1F1F2" />
      <stop offset="0.5" stop-color="#E6E7E8" />
      <stop offset="1" stop-color="#E6E7E8" />
    </linearGradient>
    <linearGradient
      id="paint3_linear_5937_50064"
      x1="36.9008"
      y1="87.9051"
      x2="51.0272"
      y2="79.7485"
      gradientUnits="userSpaceOnUse"
    >
      <stop stop-color="#A6A8AB" />
      <stop offset="0.14" stop-color="#ABADB0" />
      <stop offset="0.32" stop-color="#BCBEC0" />
      <stop offset="0.47" stop-color="#D0D2D3" />
      <stop offset="0.56" stop-color="#C5C7C9" />
      <stop offset="0.83" stop-color="#AEB0B3" />
      <stop offset="1" stop-color="#A6A8AB" />
    </linearGradient>
  </defs>
</svg>
