<svg width="80" height="80" viewBox="0 0 80 80" fill="none" xmlns="http://www.w3.org/2000/svg">
<g clip-path="url(#clip0_1825_16186)">
<g opacity="0.2">
<path d="M9 3.5V79.5" stroke="#F9DE5D" stroke-width="1.5" stroke-linecap="round"/>
<path d="M23 3.5V79.5" stroke="#F9DE5D" stroke-width="1.5" stroke-linecap="round"/>
<path d="M37 3.5V79.5" stroke="#F9DE5D" stroke-width="1.5" stroke-linecap="round"/>
<path d="M51 3.5V79.5" stroke="#F9DE5D" stroke-width="1.5" stroke-linecap="round"/>
<path d="M65 3.5V79.5" stroke="#F9DE5D" stroke-width="1.5" stroke-linecap="round"/>
<path d="M79 3.5V79.5" stroke="#F9DE5D" stroke-width="1.5" stroke-linecap="round"/>
</g>
<path d="M7 72.5L20.6425 54.6237C21.0792 54.0514 21.9364 54.0391 22.3894 54.5986L29.1608 62.9633C29.5975 63.5028 30.4163 63.5143 30.868 62.9873L44.1716 47.4665C44.6098 46.9552 45.3983 46.9481 45.8457 47.4514L52.0711 54.4549C52.5461 54.9894 53.3949 54.9425 53.8082 54.359L70 31.5M71.5 42L70 31.5M70 31.5L59.5 33.5" stroke="url(#paint0_linear_1825_16186)" stroke-width="4" stroke-linecap="round"/>
<circle cx="9" cy="32" r="8" fill="#D0BB53"/>
<circle cx="9" cy="32" r="6" fill="#F9DE5D"/>
<path d="M8.86532 37.0101V26.9091H9.51242V37.0101H8.86532ZM10.4239 30.3419C10.3976 30.0525 10.2805 29.8276 10.0727 29.6671C9.86753 29.5041 9.57424 29.4225 9.19282 29.4225C8.94029 29.4225 8.72986 29.4554 8.56151 29.5211C8.39316 29.5869 8.26689 29.6777 8.18272 29.7934C8.09854 29.9065 8.05514 30.0367 8.05251 30.184C8.04725 30.305 8.07092 30.4116 8.12353 30.5036C8.17877 30.5957 8.25769 30.6772 8.36027 30.7483C8.46549 30.8167 8.59176 30.8772 8.73906 30.9298C8.88637 30.9824 9.05209 31.0284 9.23622 31.0679L9.93067 31.2257C10.3305 31.3125 10.683 31.4282 10.9881 31.5729C11.2959 31.7176 11.5537 31.8899 11.7615 32.0898C11.9719 32.2897 12.1311 32.5199 12.2389 32.7803C12.3468 33.0407 12.402 33.3327 12.4046 33.6563C12.402 34.1666 12.2731 34.6045 12.0179 34.9702C11.7628 35.3358 11.3958 35.616 10.9171 35.8106C10.441 36.0053 9.86622 36.1026 9.19282 36.1026C8.51679 36.1026 7.92756 36.0013 7.42514 35.7988C6.92272 35.5962 6.5321 35.2885 6.25327 34.8755C5.97444 34.4625 5.83108 33.9403 5.82318 33.309H7.69345C7.70923 33.5694 7.77894 33.7865 7.90257 33.9601C8.0262 34.1337 8.19587 34.2652 8.41157 34.3546C8.6299 34.4441 8.88242 34.4888 9.16914 34.4888C9.43219 34.4888 9.65578 34.4533 9.83991 34.3823C10.0267 34.3112 10.17 34.2126 10.27 34.0863C10.37 33.9601 10.4212 33.8154 10.4239 33.6523C10.4212 33.4997 10.3739 33.3695 10.2818 33.2617C10.1898 33.1512 10.0477 33.0565 9.8557 32.9776C9.6663 32.896 9.4243 32.8211 9.12969 32.7527L8.28531 32.5554C7.5856 32.3949 7.03452 32.1358 6.63205 31.7781C6.22959 31.4177 6.02968 30.9311 6.03231 30.3182C6.02968 29.8184 6.16383 29.3804 6.43477 29.0043C6.70571 28.6281 7.08055 28.3348 7.5593 28.1244C8.03804 27.9139 8.58386 27.8087 9.19676 27.8087C9.82282 27.8087 10.366 27.9152 10.8263 28.1283C11.2893 28.3388 11.6484 28.6347 11.9035 29.0161C12.1587 29.3975 12.2889 29.8394 12.2941 30.3419H10.4239Z" fill="#516F80"/>
<circle cx="37" cy="24" r="8" fill="#D0BB53"/>
<circle cx="37" cy="24" r="6" fill="#F9DE5D"/>
<path d="M36.8653 29.0101V18.9091H37.5124V29.0101H36.8653ZM38.4239 22.3419C38.3976 22.0525 38.2805 21.8276 38.0727 21.6671C37.8675 21.5041 37.5742 21.4225 37.1928 21.4225C36.9403 21.4225 36.7299 21.4554 36.5615 21.5211C36.3932 21.5869 36.2669 21.6777 36.1827 21.7934C36.0985 21.9065 36.0551 22.0367 36.0525 22.184C36.0472 22.305 36.0709 22.4116 36.1235 22.5036C36.1788 22.5957 36.2577 22.6772 36.3603 22.7483C36.4655 22.8167 36.5918 22.8772 36.7391 22.9298C36.8864 22.9824 37.0521 23.0284 37.2362 23.0679L37.9307 23.2257C38.3305 23.3125 38.683 23.4282 38.9881 23.5729C39.2959 23.7176 39.5537 23.8899 39.7615 24.0898C39.9719 24.2897 40.1311 24.5199 40.2389 24.7803C40.3468 25.0407 40.402 25.3327 40.4046 25.6563C40.402 26.1666 40.2731 26.6045 40.0179 26.9702C39.7628 27.3358 39.3958 27.616 38.9171 27.8106C38.441 28.0053 37.8662 28.1026 37.1928 28.1026C36.5168 28.1026 35.9276 28.0013 35.4251 27.7988C34.9227 27.5962 34.5321 27.2885 34.2533 26.8755C33.9744 26.4625 33.8311 25.9403 33.8232 25.309H35.6935C35.7092 25.5694 35.7789 25.7865 35.9026 25.9601C36.0262 26.1337 36.1959 26.2652 36.4116 26.3546C36.6299 26.4441 36.8824 26.4888 37.1691 26.4888C37.4322 26.4888 37.6558 26.4533 37.8399 26.3823C38.0267 26.3112 38.17 26.2126 38.27 26.0863C38.37 25.9601 38.4212 25.8154 38.4239 25.6523C38.4212 25.4997 38.3739 25.3695 38.2818 25.2617C38.1898 25.1512 38.0477 25.0565 37.8557 24.9776C37.6663 24.896 37.4243 24.8211 37.1297 24.7527L36.2853 24.5554C35.5856 24.3949 35.0345 24.1358 34.6321 23.7781C34.2296 23.4177 34.0297 22.9311 34.0323 22.3182C34.0297 21.8184 34.1638 21.3804 34.4348 21.0043C34.7057 20.6281 35.0806 20.3348 35.5593 20.1244C36.038 19.9139 36.5839 19.8087 37.1968 19.8087C37.8228 19.8087 38.366 19.9152 38.8263 20.1283C39.2893 20.3388 39.6484 20.6347 39.9035 21.0161C40.1587 21.3975 40.2889 21.8394 40.2941 22.3419H38.4239Z" fill="#516F80"/>
<circle cx="65" cy="16" r="8" fill="#D0BB53"/>
<circle cx="65" cy="16" r="6" fill="#F9DE5D"/>
<path d="M64.8653 21.0101V10.9091H65.5124V21.0101H64.8653ZM66.4239 14.3419C66.3976 14.0525 66.2805 13.8276 66.0727 13.6671C65.8675 13.5041 65.5742 13.4225 65.1928 13.4225C64.9403 13.4225 64.7299 13.4554 64.5615 13.5211C64.3932 13.5869 64.2669 13.6777 64.1827 13.7934C64.0985 13.9065 64.0551 14.0367 64.0525 14.184C64.0472 14.305 64.0709 14.4116 64.1235 14.5036C64.1788 14.5957 64.2577 14.6772 64.3603 14.7483C64.4655 14.8167 64.5918 14.8772 64.7391 14.9298C64.8864 14.9824 65.0521 15.0284 65.2362 15.0679L65.9307 15.2257C66.3305 15.3125 66.683 15.4282 66.9881 15.5729C67.2959 15.7176 67.5537 15.8899 67.7615 16.0898C67.9719 16.2897 68.1311 16.5199 68.2389 16.7803C68.3468 17.0407 68.402 17.3327 68.4046 17.6563C68.402 18.1666 68.2731 18.6045 68.0179 18.9702C67.7628 19.3358 67.3958 19.616 66.9171 19.8106C66.441 20.0053 65.8662 20.1026 65.1928 20.1026C64.5168 20.1026 63.9276 20.0013 63.4251 19.7988C62.9227 19.5962 62.5321 19.2885 62.2533 18.8755C61.9744 18.4625 61.8311 17.9403 61.8232 17.309H63.6935C63.7092 17.5694 63.7789 17.7865 63.9026 17.9601C64.0262 18.1337 64.1959 18.2652 64.4116 18.3546C64.6299 18.4441 64.8824 18.4888 65.1691 18.4888C65.4322 18.4888 65.6558 18.4533 65.8399 18.3823C66.0267 18.3112 66.17 18.2126 66.27 18.0863C66.37 17.9601 66.4212 17.8154 66.4239 17.6523C66.4212 17.4997 66.3739 17.3695 66.2818 17.2617C66.1898 17.1512 66.0477 17.0565 65.8557 16.9776C65.6663 16.896 65.4243 16.8211 65.1297 16.7527L64.2853 16.5554C63.5856 16.3949 63.0345 16.1358 62.6321 15.7781C62.2296 15.4177 62.0297 14.9311 62.0323 14.3182C62.0297 13.8184 62.1638 13.3804 62.4348 13.0043C62.7057 12.6281 63.0806 12.3348 63.5593 12.1244C64.038 11.9139 64.5839 11.8087 65.1968 11.8087C65.8228 11.8087 66.366 11.9152 66.8263 12.1283C67.2893 12.3388 67.6484 12.6347 67.9035 13.0161C68.1587 13.3975 68.2889 13.8394 68.2941 14.3419H66.4239Z" fill="#516F80"/>
</g>
<defs>
<linearGradient id="paint0_linear_1825_16186" x1="3.99998" y1="86" x2="75" y2="27" gradientUnits="userSpaceOnUse">
<stop stop-color="#FFD749"/>
<stop offset="0.9952" stop-color="#24D8FF"/>
</linearGradient>
<clipPath id="clip0_1825_16186">
<rect width="80" height="80" fill="white"/>
</clipPath>
</defs>
</svg>
