<svg width="189" height="126" viewBox="0 0 189 126" fill="none" xmlns="http://www.w3.org/2000/svg">
<rect width="15.5536" height="17.9102" transform="translate(86.7231 104.736)" fill="#736CA3"/>
<rect width="15.5536" height="41.9476" transform="translate(104.162 80.6982)" fill="#736CA3"/>
<g opacity="0.3">
<rect width="15.0823" height="17.9102" transform="translate(121.601 104.736)" fill="#736CA3"/>
</g>
<rect width="15.5536" height="6.12718" transform="translate(69.2842 116.519)" fill="#736CA3"/>
<g opacity="0.3">
<rect width="15.5536" height="6.12718" transform="translate(138.569 116.519)" fill="#736CA3"/>
</g>
<rect width="15.5536" height="37.2344" transform="translate(86.7231 67.5012)" fill="#736CA3"/>
<rect width="15.5536" height="16.9676" transform="translate(104.162 63.7306)" fill="#736CA3"/>
<g opacity="0.3">
<rect width="15.0823" height="12.2544" transform="translate(121.601 92.4813)" fill="#736CA3"/>
</g>
<g opacity="0.3">
<rect width="15.5536" height="4.71322" transform="translate(138.569 111.805)" fill="#736CA3"/>
</g>
<g opacity="0.3">
<rect width="15.5536" height="3.29925" transform="translate(156.007 119.347)" fill="#736CA3"/>
</g>
<g opacity="0.3">
<rect width="15.5536" height="2.35661" transform="translate(173.446 120.289)" fill="#736CA3"/>
</g>
<rect width="15.5536" height="22.6234" transform="translate(69.2842 93.8952)" fill="#736CA3"/>
<g opacity="0.3">
<rect width="15.0823" height="17.9102" transform="translate(52.3167 104.736)" fill="#736CA3"/>
</g>
<g opacity="0.3">
<rect width="15.0823" height="8.95511" transform="translate(34.8778 113.691)" fill="#736CA3"/>
</g>
<g opacity="0.3">
<rect width="15.5536" height="4.71322" transform="translate(17.439 117.933)" fill="#736CA3"/>
</g>
<rect width="15.5536" height="18.3815" transform="translate(86.7231 49.1197)" fill="#736CA3"/>
<rect width="15.5536" height="6.5985" transform="translate(104.162 57.1322)" fill="#736CA3"/>
<g opacity="0.3">
<rect width="15.0823" height="4.71322" transform="translate(121.601 87.768)" fill="#736CA3"/>
</g>
<g opacity="0.3">
<rect width="15.5536" height="5.18454" transform="translate(138.569 106.621)" fill="#736CA3"/>
</g>
<g opacity="0.3">
<rect width="15.5536" height="2.82793" transform="translate(156.007 116.519)" fill="#736CA3"/>
</g>
<g opacity="0.3">
<rect width="15.5536" height="0.942643" transform="translate(173.446 119.347)" fill="#736CA3"/>
</g>
<rect width="15.5536" height="28.2793" transform="translate(69.2842 65.6159)" fill="#736CA3"/>
<g opacity="0.3">
<rect width="15.0823" height="16.9676" transform="translate(52.3167 87.768)" fill="#736CA3"/>
</g>
<g opacity="0.3">
<rect width="15.0823" height="6.5985" transform="translate(34.8778 102.379)" fill="#736CA3"/>
</g>
<g opacity="0.3">
<rect width="15.0823" height="4.71322" transform="translate(34.8778 108.978)" fill="#736CA3"/>
</g>
<g opacity="0.3">
<rect width="15.5536" height="3.29925" transform="translate(17.439 114.633)" fill="#736CA3"/>
</g>
<g opacity="0.3">
<rect width="15.5536" height="2.35661" transform="translate(0 120.289)" fill="#736CA3"/>
</g>
<line x1="-0.000127363" y1="125.021" x2="189" y2="124.973" stroke="#565081" stroke-width="1.00092"/>
<rect width="1.88529" height="71.1696" transform="translate(119.716 51.4763)" fill="#F99575"/>
<rect width="1.88529" height="71.1696" transform="translate(67.399 51.4763)" fill="#F99575"/>
<path d="M121.601 51.4763H123.899C124.452 51.4763 124.9 51.9244 124.9 52.4772V59.4304C124.9 59.9832 124.452 60.4314 123.899 60.4314H121.601V51.4763Z" fill="#F99575"/>
<path d="M67.399 60.4314L65.1007 60.4314C64.5479 60.4314 64.0998 59.9832 64.0998 59.4304L64.0998 52.4772C64.0998 51.9244 64.5479 51.4762 65.1007 51.4762L67.399 51.4762L67.399 60.4314Z" fill="#F99575"/>
<path d="M87.6658 41.5785V123.588" stroke="#CEC8F3" stroke-width="1.50138" stroke-linecap="round" stroke-dasharray="3 3"/>
<g opacity="0.8">
<rect width="50.4314" height="29.6933" transform="translate(69.2842 92.9526)" fill="#F99575"/>
</g>
<path d="M93.0463 21.3331L89.0916 6.57395L90.0371 6.3206L93.9918 21.0797L93.0463 21.3331ZM93.0838 10.565C92.8951 10.0759 92.5632 9.74466 92.0883 9.57119C91.6173 9.39669 91.0647 9.39441 90.4305 9.56433C89.9846 9.6838 89.6202 9.85353 89.3373 10.0735C89.0543 10.2935 88.8591 10.5415 88.7518 10.8174C88.6445 11.0934 88.6286 11.3798 88.704 11.6768C88.7699 11.9228 88.8828 12.1212 89.0427 12.2719C89.2064 12.4217 89.4033 12.5337 89.6333 12.608C89.8622 12.6785 90.1072 12.7241 90.3682 12.7448C90.6291 12.7655 90.8884 12.7722 91.146 12.765L92.3271 12.7451C92.8007 12.7294 93.2669 12.7549 93.7255 12.8215C94.188 12.8871 94.6186 13.0106 95.0174 13.1921C95.42 13.3726 95.7684 13.6274 96.0625 13.9564C96.3567 14.2854 96.5722 14.7055 96.7092 15.2167C96.8946 15.9085 96.881 16.5651 96.6685 17.1864C96.4549 17.8039 96.0534 18.3502 95.464 18.8253C94.8773 19.2956 94.1112 19.6574 93.1657 19.9108C92.2471 20.1569 91.4115 20.2284 90.6588 20.1252C89.91 20.021 89.2722 19.747 88.7454 19.3032C88.2225 18.8583 87.8407 18.248 87.5998 17.4722L89.7041 16.9083C89.8451 17.3113 90.0636 17.6194 90.3596 17.8326C90.6557 18.0457 91.0004 18.1717 91.3939 18.2104C91.7913 18.2481 92.2129 18.2073 92.6587 18.0878C93.1238 17.9632 93.5127 17.7848 93.8253 17.5527C94.1408 17.3158 94.3651 17.0456 94.498 16.7422C94.6299 16.435 94.6524 16.1118 94.5656 15.7725C94.4794 15.4661 94.3211 15.2366 94.0908 15.0841C93.8594 14.9278 93.5661 14.8251 93.2111 14.776C92.8588 14.7221 92.4569 14.698 92.0053 14.7037L90.5693 14.7177C89.5299 14.7284 88.6598 14.5558 87.9588 14.1998C87.2607 13.839 86.7984 13.2358 86.5718 12.3902C86.3854 11.6946 86.4105 11.0349 86.6471 10.4112C86.8875 9.78657 87.2958 9.24256 87.872 8.77922C88.4471 8.31204 89.1479 7.96773 89.9742 7.74631C90.8121 7.5218 91.5854 7.47115 92.294 7.59436C93.0054 7.71269 93.6108 7.98097 94.11 8.3992C94.6083 8.81358 94.9523 9.35169 95.142 10.0135L93.0838 10.565Z" fill="#F99575"/>
<path d="M74.8162 39.514L76.3054 24.307L77.2796 24.4024L75.7904 39.6094L74.8162 39.514ZM78.6387 29.4472C78.6341 28.923 78.44 28.4961 78.0564 28.1667C77.6768 27.8377 77.1603 27.6412 76.5069 27.5772C76.0475 27.5322 75.6467 27.5629 75.3044 27.6693C74.9622 27.7758 74.6923 27.9392 74.4947 28.1598C74.2972 28.3803 74.1816 28.6429 74.1477 28.9474C74.1229 29.2009 74.1588 29.4263 74.2554 29.6237C74.356 29.8214 74.5009 29.9955 74.6901 30.146C74.8796 30.2925 75.0929 30.4213 75.3299 30.5325C75.5669 30.6437 75.8072 30.7412 76.0509 30.825L77.1635 31.2218C77.6124 31.3737 78.0398 31.5615 78.4457 31.7852C78.8556 32.0092 79.2153 32.2763 79.5247 32.5865C79.8382 32.8971 80.0747 33.2581 80.2343 33.6695C80.3939 34.081 80.4479 34.55 80.3964 35.0767C80.3266 35.7896 80.0829 36.3994 79.6655 36.9063C79.2484 37.4092 78.6804 37.7794 77.9615 38.0168C77.2469 38.2507 76.4025 38.32 75.4283 38.2246C74.4818 38.1319 73.6744 37.9049 73.0061 37.5436C72.3418 37.1827 71.8411 36.7018 71.5041 36.1011C71.1711 35.5008 71.0283 34.7951 71.0757 33.9841L73.2439 34.1964C73.2341 34.6233 73.3303 34.9885 73.5324 35.2922C73.7346 35.5959 74.013 35.835 74.3678 36.0097C74.7264 36.1847 75.1355 36.2948 75.5949 36.3398C76.074 36.3867 76.5008 36.3565 76.8751 36.2492C77.2538 36.1384 77.5587 35.9643 77.7899 35.7271C78.0214 35.4859 78.1562 35.1912 78.1943 34.8431C78.2213 34.5259 78.1539 34.2554 77.9919 34.0317C77.8302 33.8039 77.5919 33.6047 77.2768 33.4339C76.966 33.2595 76.5982 33.0956 76.1735 32.942L74.8243 32.4501C73.8476 32.0945 73.0937 31.6269 72.5628 31.0472C72.0362 30.4638 71.8155 29.7366 71.9008 28.8653C71.971 28.1485 72.2265 27.5399 72.6674 27.0393C73.1122 26.5391 73.6857 26.1735 74.388 25.9424C75.0907 25.7073 75.8678 25.6315 76.7192 25.7149C77.5826 25.7994 78.3242 26.0239 78.9442 26.3885C79.5685 26.7495 80.0409 27.2136 80.3612 27.7807C80.6818 28.3438 80.8146 28.9686 80.7594 29.6548L78.6387 29.4472Z" fill="#F99575"/>
<path opacity="0.4" d="M97.4008 42.6141L100.214 31.6335L100.918 31.8137L98.1042 42.7943L97.4008 42.6141ZM101.343 35.6663C101.399 35.2814 101.305 34.9465 101.061 34.6616C100.82 34.3773 100.464 34.1748 99.9919 34.0539C99.6602 33.9689 99.3628 33.946 99.0999 33.9853C98.8369 34.0246 98.6205 34.1139 98.4507 34.2532C98.2809 34.3925 98.1664 34.5719 98.1071 34.7914C98.0602 34.9744 98.061 35.1437 98.1095 35.2994C98.1608 35.4557 98.2473 35.5998 98.369 35.7315C98.4914 35.8604 98.6332 35.979 98.7943 36.0873C98.9555 36.1957 99.1207 36.2944 99.2898 36.3834L100.061 36.8003C100.373 36.9625 100.665 37.1486 100.937 37.3586C101.212 37.5692 101.445 37.8058 101.637 38.0682C101.832 38.3314 101.964 38.6229 102.035 38.9426C102.105 39.2623 102.092 39.6124 101.994 39.9927C101.862 40.5074 101.615 40.9269 101.251 41.2513C100.889 41.5728 100.43 41.7798 99.8762 41.8725C99.3259 41.9631 98.6989 41.9182 97.9955 41.738C97.3121 41.5629 96.7458 41.305 96.2968 40.9645C95.8506 40.6246 95.538 40.2154 95.3589 39.7368C95.1827 39.259 95.1579 38.7254 95.2845 38.1362L96.8501 38.5374C96.7946 38.8492 96.8237 39.1279 96.9376 39.3734C97.0514 39.619 97.2285 39.8258 97.4688 39.9941C97.7119 40.163 97.9993 40.29 98.331 40.375C98.677 40.4637 98.9933 40.4899 99.2799 40.4536C99.5701 40.4152 99.8134 40.3221 100.01 40.1743C100.207 40.0237 100.339 39.823 100.406 39.572C100.462 39.3426 100.443 39.1366 100.35 38.9542C100.257 38.7689 100.105 38.5959 99.8932 38.435C99.6851 38.2719 99.434 38.1101 99.14 37.9494L98.2065 37.436C97.5307 37.0647 97.0309 36.6365 96.7073 36.1514C96.3873 35.6641 96.3079 35.1059 96.4691 34.4768C96.6017 33.9592 96.8579 33.5419 97.2378 33.2248C97.6206 32.9084 98.0825 32.7053 98.6235 32.6154C99.1653 32.5226 99.7437 32.555 100.358 32.7126C100.982 32.8723 101.5 33.1209 101.913 33.4584C102.33 33.7938 102.624 34.1875 102.795 34.6395C102.966 35.0887 102.993 35.5617 102.874 36.0586L101.343 35.6663Z" fill="#F99575"/>
</svg>
