<svg width="80" height="80" viewBox="0 0 80 80" fill="none" xmlns="http://www.w3.org/2000/svg">
<path d="M10 12C11.1046 12 12 11.1046 12 10C12 8.89543 11.1046 8 10 8C8.89543 8 8 8.89543 8 10C8 11.1046 8.89543 12 10 12Z" fill="#627337" fill-opacity="0.3"/>
<path d="M22 12C23.1046 12 24 11.1046 24 10C24 8.89543 23.1046 8 22 8C20.8954 8 20 8.89543 20 10C20 11.1046 20.8954 12 22 12Z" fill="#627337" fill-opacity="0.3"/>
<path d="M34 12C35.1046 12 36 11.1046 36 10C36 8.89543 35.1046 8 34 8C32.8954 8 32 8.89543 32 10C32 11.1046 32.8954 12 34 12Z" fill="#627337" fill-opacity="0.3"/>
<path d="M46 12C47.1046 12 48 11.1046 48 10C48 8.89543 47.1046 8 46 8C44.8954 8 44 8.89543 44 10C44 11.1046 44.8954 12 46 12Z" fill="#627337" fill-opacity="0.3"/>
<path d="M58 12C59.1046 12 60 11.1046 60 10C60 8.89543 59.1046 8 58 8C56.8954 8 56 8.89543 56 10C56 11.1046 56.8954 12 58 12Z" fill="#627337" fill-opacity="0.3"/>
<path d="M70 12C71.1046 12 72 11.1046 72 10C72 8.89543 71.1046 8 70 8C68.8954 8 68 8.89543 68 10C68 11.1046 68.8954 12 70 12Z" fill="#627337" fill-opacity="0.3"/>
<path d="M10 24C11.1046 24 12 23.1046 12 22C12 20.8954 11.1046 20 10 20C8.89543 20 8 20.8954 8 22C8 23.1046 8.89543 24 10 24Z" fill="#627337" fill-opacity="0.3"/>
<path d="M22 24C23.1046 24 24 23.1046 24 22C24 20.8954 23.1046 20 22 20C20.8954 20 20 20.8954 20 22C20 23.1046 20.8954 24 22 24Z" fill="#627337" fill-opacity="0.3"/>
<path d="M34 24C35.1046 24 36 23.1046 36 22C36 20.8954 35.1046 20 34 20C32.8954 20 32 20.8954 32 22C32 23.1046 32.8954 24 34 24Z" fill="#627337" fill-opacity="0.3"/>
<path d="M46 24C47.1046 24 48 23.1046 48 22C48 20.8954 47.1046 20 46 20C44.8954 20 44 20.8954 44 22C44 23.1046 44.8954 24 46 24Z" fill="#627337" fill-opacity="0.3"/>
<path d="M58 24C59.1046 24 60 23.1046 60 22C60 20.8954 59.1046 20 58 20C56.8954 20 56 20.8954 56 22C56 23.1046 56.8954 24 58 24Z" fill="#627337" fill-opacity="0.3"/>
<path d="M70 24C71.1046 24 72 23.1046 72 22C72 20.8954 71.1046 20 70 20C68.8954 20 68 20.8954 68 22C68 23.1046 68.8954 24 70 24Z" fill="#627337" fill-opacity="0.3"/>
<path d="M10 36C11.1046 36 12 35.1046 12 34C12 32.8954 11.1046 32 10 32C8.89543 32 8 32.8954 8 34C8 35.1046 8.89543 36 10 36Z" fill="#627337" fill-opacity="0.3"/>
<path d="M22 36C23.1046 36 24 35.1046 24 34C24 32.8954 23.1046 32 22 32C20.8954 32 20 32.8954 20 34C20 35.1046 20.8954 36 22 36Z" fill="#627337" fill-opacity="0.3"/>
<path d="M34 36C35.1046 36 36 35.1046 36 34C36 32.8954 35.1046 32 34 32C32.8954 32 32 32.8954 32 34C32 35.1046 32.8954 36 34 36Z" fill="#627337" fill-opacity="0.3"/>
<path d="M46 36C47.1046 36 48 35.1046 48 34C48 32.8954 47.1046 32 46 32C44.8954 32 44 32.8954 44 34C44 35.1046 44.8954 36 46 36Z" fill="#627337" fill-opacity="0.3"/>
<path d="M58 36C59.1046 36 60 35.1046 60 34C60 32.8954 59.1046 32 58 32C56.8954 32 56 32.8954 56 34C56 35.1046 56.8954 36 58 36Z" fill="#627337" fill-opacity="0.3"/>
<path d="M70 36C71.1046 36 72 35.1046 72 34C72 32.8954 71.1046 32 70 32C68.8954 32 68 32.8954 68 34C68 35.1046 68.8954 36 70 36Z" fill="#627337" fill-opacity="0.3"/>
<path d="M10 48C11.1046 48 12 47.1046 12 46C12 44.8954 11.1046 44 10 44C8.89543 44 8 44.8954 8 46C8 47.1046 8.89543 48 10 48Z" fill="#627337" fill-opacity="0.3"/>
<path d="M22 48C23.1046 48 24 47.1046 24 46C24 44.8954 23.1046 44 22 44C20.8954 44 20 44.8954 20 46C20 47.1046 20.8954 48 22 48Z" fill="#627337" fill-opacity="0.3"/>
<path d="M34 48C35.1046 48 36 47.1046 36 46C36 44.8954 35.1046 44 34 44C32.8954 44 32 44.8954 32 46C32 47.1046 32.8954 48 34 48Z" fill="#627337" fill-opacity="0.3"/>
<path d="M46 48C47.1046 48 48 47.1046 48 46C48 44.8954 47.1046 44 46 44C44.8954 44 44 44.8954 44 46C44 47.1046 44.8954 48 46 48Z" fill="#627337" fill-opacity="0.3"/>
<path d="M58 48C59.1046 48 60 47.1046 60 46C60 44.8954 59.1046 44 58 44C56.8954 44 56 44.8954 56 46C56 47.1046 56.8954 48 58 48Z" fill="#627337" fill-opacity="0.3"/>
<path d="M70 48C71.1046 48 72 47.1046 72 46C72 44.8954 71.1046 44 70 44C68.8954 44 68 44.8954 68 46C68 47.1046 68.8954 48 70 48Z" fill="#627337" fill-opacity="0.3"/>
<path d="M10 60C11.1046 60 12 59.1046 12 58C12 56.8954 11.1046 56 10 56C8.89543 56 8 56.8954 8 58C8 59.1046 8.89543 60 10 60Z" fill="#627337" fill-opacity="0.3"/>
<path d="M22 60C23.1046 60 24 59.1046 24 58C24 56.8954 23.1046 56 22 56C20.8954 56 20 56.8954 20 58C20 59.1046 20.8954 60 22 60Z" fill="#627337" fill-opacity="0.3"/>
<path d="M34 60C35.1046 60 36 59.1046 36 58C36 56.8954 35.1046 56 34 56C32.8954 56 32 56.8954 32 58C32 59.1046 32.8954 60 34 60Z" fill="#627337" fill-opacity="0.3"/>
<path d="M46 60C47.1046 60 48 59.1046 48 58C48 56.8954 47.1046 56 46 56C44.8954 56 44 56.8954 44 58C44 59.1046 44.8954 60 46 60Z" fill="#627337" fill-opacity="0.3"/>
<path d="M58 60C59.1046 60 60 59.1046 60 58C60 56.8954 59.1046 56 58 56C56.8954 56 56 56.8954 56 58C56 59.1046 56.8954 60 58 60Z" fill="#627337" fill-opacity="0.3"/>
<path d="M70 60C71.1046 60 72 59.1046 72 58C72 56.8954 71.1046 56 70 56C68.8954 56 68 56.8954 68 58C68 59.1046 68.8954 60 70 60Z" fill="#627337" fill-opacity="0.3"/>
<path d="M10 72C11.1046 72 12 71.1046 12 70C12 68.8954 11.1046 68 10 68C8.89543 68 8 68.8954 8 70C8 71.1046 8.89543 72 10 72Z" fill="#627337" fill-opacity="0.3"/>
<path d="M22 72C23.1046 72 24 71.1046 24 70C24 68.8954 23.1046 68 22 68C20.8954 68 20 68.8954 20 70C20 71.1046 20.8954 72 22 72Z" fill="#627337" fill-opacity="0.3"/>
<path d="M34 72C35.1046 72 36 71.1046 36 70C36 68.8954 35.1046 68 34 68C32.8954 68 32 68.8954 32 70C32 71.1046 32.8954 72 34 72Z" fill="#627337" fill-opacity="0.3"/>
<path d="M46 72C47.1046 72 48 71.1046 48 70C48 68.8954 47.1046 68 46 68C44.8954 68 44 68.8954 44 70C44 71.1046 44.8954 72 46 72Z" fill="#627337" fill-opacity="0.3"/>
<path d="M58 72C59.1046 72 60 71.1046 60 70C60 68.8954 59.1046 68 58 68C56.8954 68 56 68.8954 56 70C56 71.1046 56.8954 72 58 72Z" fill="#627337" fill-opacity="0.3"/>
<path d="M70 72C71.1046 72 72 71.1046 72 70C72 68.8954 71.1046 68 70 68C68.8954 68 68 68.8954 68 70C68 71.1046 68.8954 72 70 72Z" fill="#627337" fill-opacity="0.3"/>
<path d="M11 63H69" stroke="#CBFD50" stroke-width="2" stroke-linecap="round"/>
<path d="M17 70V12" stroke="#CBFD50" stroke-width="2" stroke-linecap="round"/>
<path d="M19 61C37 61 51 50.5 54.5 32" stroke="#CBFD50" stroke-width="5" stroke-linecap="round"/>
<path d="M55.9363 18.6919C56.6557 17.8323 58.0358 18.0739 58.4205 19.1267L62.7484 30.9709C63.1331 32.0237 62.2339 33.0982 61.1298 32.9049L48.7084 30.7309C47.6043 30.5377 47.1234 29.2216 47.8428 28.3621L55.9363 18.6919Z" fill="#CBFD50"/>
</svg>
