<?xml version="1.0" encoding="utf-8"?>
<!-- Generator: Adobe Illustrator 27.6.1, SVG Export Plug-In . SVG Version: 6.00 Build 0)  -->
<svg version="1.1" id="Layer_1" xmlns="http://www.w3.org/2000/svg" xmlns:xlink="http://www.w3.org/1999/xlink" x="0px" y="0px"
	 viewBox="0 0 308 230" style="enable-background:new 0 0 308 230;" xml:space="preserve">
<style type="text/css">
	.st0{clip-path:url(#SVGID_00000086693527522169108140000015745183901756798860_);}
	.st1{fill:#B2ECF5;}
	.st2{fill:#00276D;}
	.st3{fill:#00C7E6;}
	.st4{fill:#00506F;}
	.st5{fill:#EFA726;}
	.st6{fill:#D89000;}
	.st7{fill:#E7FFFD;}
	.st8{fill:#FDDA4C;}
	.st9{fill:#006B86;}
	.st10{fill:#FAAD02;}
	.st11{fill:#FFB92E;}
	.st12{enable-background:new    ;}
	.st13{clip-path:url(#SVGID_00000091715772622950463260000000344353251589947265_);enable-background:new    ;}
	.st14{clip-path:url(#SVGID_00000175313733918661392420000007224220519641939875_);enable-background:new    ;}
	.st15{clip-path:url(#SVGID_00000141451463528798192500000008716628884219807873_);enable-background:new    ;}
	.st16{clip-path:url(#SVGID_00000163782988995908274280000011636600635682645913_);enable-background:new    ;}
</style>
<g>
	<defs>
		<rect id="SVGID_1_" width="308" height="230"/>
	</defs>
	<clipPath id="SVGID_00000010278463941614677370000017599839575149158065_">
		<use xlink:href="#SVGID_1_"  style="overflow:visible;"/>
	</clipPath>
	<g style="clip-path:url(#SVGID_00000010278463941614677370000017599839575149158065_);">
		<g>
			<polygon class="st1" points="249.6,87.6 149.9,137.7 58.4,107.4 158.1,57.2 			"/>
			<polygon class="st2" points="65.3,106.9 158.3,60.1 242.7,88.1 149.7,134.9 			"/>
			<polygon class="st3" points="58.4,107.4 149.9,137.7 149.9,222.1 58.4,191.7 			"/>
			<polygon class="st4" points="149.9,222.1 249.6,172 249.6,87.6 149.9,137.7 			"/>
			<polygon class="st5" points="115.7,210.8 115.9,126.5 89.3,117.6 89.4,202 			"/>
			<polygon class="st6" points="191.4,201.2 214,189.9 213.9,105.6 191.3,116.9 			"/>
		</g>
		<g>
			<g>
				<polygon class="st7" points="255.1,64.3 149.7,117.4 52.9,85.2 158.3,32.2 				"/>
				<polygon class="st8" points="217,51.6 111.6,104.7 85,95.9 190.4,42.9 				"/>
				<polygon class="st8" points="216.3,83.7 193.8,95.3 97,63.2 119.5,51.6 				"/>
				<polygon class="st1" points="52.9,85.2 149.7,117.4 149.7,140.1 52.9,108 				"/>
				<polygon class="st9" points="149.7,140.1 255.1,87.1 255.1,64.3 149.7,117.4 				"/>
				<polygon class="st10" points="194.6,117.5 217.1,106.2 216.3,83.8 193.7,95.2 				"/>
				<polygon class="st11" points="111.6,104.7 97.1,99.9 85,95.9 85.1,118.7 111.3,127.4 				"/>
			</g>
			<g>
				<g>
					<g class="st12">
						<g class="st12">
							<defs>
								<path id="SVGID_00000075872473648947825820000013215635016216486020_" class="st12" d="M182.6,9.1L200,20.5
									c2.1,1.4,3.6,4,4.3,7.6c0.9,4.5,0.4,9.9-1.3,14.9l-17.4-11.4c1.7-5,2.2-10.4,1.3-14.9C186.2,13.1,184.7,10.5,182.6,9.1z"/>
							</defs>
							<clipPath id="SVGID_00000054971087723610387100000017977446622473156503_">
								<use xlink:href="#SVGID_00000075872473648947825820000013215635016216486020_"  style="overflow:visible;"/>
							</clipPath>
							<g style="clip-path:url(#SVGID_00000054971087723610387100000017977446622473156503_);enable-background:new    ;">
								<path class="st10" d="M202.9,43l-17.4-11.4c1.7-5,2.2-10.4,1.3-14.9c-0.7-3.6-2.2-6.3-4.3-7.6L200,20.5
									c2.1,1.4,3.6,4,4.3,7.6C205.2,32.6,204.7,38.1,202.9,43z"/>
							</g>
						</g>
						<g class="st12">
							<g class="st12">
								<path class="st10" d="M152.6,67l0,2.3l7.8,5.1c1.1,0.7,2.7,1,4.7,0.8L152.6,67z"/>
								<path class="st10" d="M174.6,47.9c-1.5,1.5-3.2,3.1-5,4.6c-5.1,4.2-10.4,7.6-15,9.6c-0.7,0.3-1.3,0.5-1.9,0.7l-0.1,4.3
									l12.5,8.2c0.7-0.1,1.4-0.2,2.2-0.3c1.4-0.3,3-0.8,4.6-1.5c4.6-1.9,10-5.3,15-9.6c1.8-1.5,3.4-3,5-4.6L174.6,47.9z"/>
								<path class="st10" d="M191.9,59.3l-17.4-11.4c5.3-5.4,9.1-11,11-16.3L202.9,43C201.1,48.3,197.3,54,191.9,59.3z"/>
							</g>
						</g>
						<g class="st12">
							<g class="st12">
								<path class="st8" d="M172.2,38.4c2.3-3.3,4.8-6.4,7.4-9.1l-17.4-11.4c-2.6,2.7-5.1,5.7-7.4,9.1c-5.4,8-10,17.4-12.4,25.4
									l10.4,8l-0.1,9.1l7.7,5.1c-0.4-0.3-0.7-0.6-1-0.9c-1-1.4-1.2-3.6-0.5-6.5C160.9,58.5,166,47.5,172.2,38.4z"/>
								<path class="st8" d="M179.6,29.3l-17.4-11.4c1.5-1.5,3.1-2.9,4.6-4.2c0.1-0.1,0.2-0.2,0.3-0.2c2.8-2.1,5.2-3.7,7.4-4.6
									c1.4-0.6,2.7-0.9,3.8-1l17.4,11.4c-1.2,0.1-2.4,0.4-3.8,1c-2.2,0.9-4.7,2.5-7.4,4.6c-0.1,0.1-0.2,0.2-0.3,0.2
									C182.7,26.4,181.1,27.8,179.6,29.3z"/>
								<path class="st8" d="M195.8,19.3L178.4,7.9c0.8-0.1,1.6,0,2.2,0.2c0.7,0.2,1.4,0.5,2,0.9l17.4,11.4c-0.6-0.4-1.3-0.7-2-0.9
									C197.4,19.3,196.6,19.3,195.8,19.3z"/>
							</g>
						</g>
						<g>
							<path class="st10" d="M204.4,28.1c0.9,4.5,0.4,10-1.4,15c-2.4,6.8-8.1,14.3-16,20.9c-5.1,4.3-10.5,7.7-15.1,9.6
								c-1.7,0.7-3.3,1.2-4.7,1.5c-4,0.8-6.7,0.3-8-1.4c-1-1.4-1.2-3.6-0.5-6.5c2-8.6,7.2-19.6,13.4-28.7c3.6-5.3,7.8-9.8,12.1-13.2
								c0.1-0.1,0.2-0.2,0.3-0.2c2.8-2.1,5.2-3.7,7.4-4.6c2.4-1,4.4-1.3,6.1-0.9C201.2,20.3,203.5,23.3,204.4,28.1z M202.9,43
								c1.7-5,2.2-10.4,1.3-14.9c-0.9-4.7-3.1-7.7-6.3-8.5c-1.6-0.4-3.7-0.1-6,0.9c-2.2,0.9-4.6,2.4-7.4,4.6
								c-0.1,0.1-0.2,0.2-0.3,0.2c-4.3,3.4-8.5,7.9-12,13.2c-6.2,9.1-11.3,20.1-13.3,28.7c-0.7,2.9-0.5,5,0.5,6.4
								c1.3,1.7,3.9,2.2,7.9,1.4c1.4-0.3,3-0.8,4.6-1.5c4.6-1.9,10-5.3,15-9.6C194.9,57.2,200.6,49.8,202.9,43z"/>
						</g>
					</g>
				</g>
				<g>
					<g class="st12">
						<g class="st12">
							<defs>
								<path id="SVGID_00000093145622215462595050000005539253557766374052_" class="st12" d="M135.1,45.3l17.4,11.4
									c3.7,2.4,6.6,5.5,8.3,9.1c2,3.9-0.1,8.7-6.2,14.2l-17.4-11.4c6.1-5.5,8.2-10.2,6.2-14.2C141.7,50.8,138.8,47.7,135.1,45.3z"
									/>
							</defs>
							<use xlink:href="#SVGID_00000093145622215462595050000005539253557766374052_"  style="overflow:visible;fill:#FAAD02;"/>
							<clipPath id="SVGID_00000088125199721738189300000016049609995582913471_">
								<use xlink:href="#SVGID_00000093145622215462595050000005539253557766374052_"  style="overflow:visible;"/>
							</clipPath>
							<g style="clip-path:url(#SVGID_00000088125199721738189300000016049609995582913471_);enable-background:new    ;">
								<path class="st10" d="M154.6,80l-17.4-11.4c0.6-0.6,1.2-1.1,1.8-1.7l17.4,11.4C155.8,78.8,155.2,79.4,154.6,80z"/>
								<path class="st10" d="M156.4,78.3L139,66.9c4.7-4.8,6.2-9,4.5-12.5c-1.8-3.5-4.7-6.7-8.3-9.1l17.4,11.4
									c3.7,2.4,6.6,5.5,8.3,9.1C162.6,69.3,161.1,73.5,156.4,78.3z"/>
							</g>
						</g>
						<g class="st12">
							<defs>
								<path id="SVGID_00000064346017481112978270000000883528088701205170_" class="st12" d="M120.2,88.5l-17.4-11.4
									c3.5,2.3,8.9,2.6,15.6,1c2.4-0.6,4.8-1.4,7.1-2.4c4.5-1.9,8.7-4.4,11.8-7.2L154.6,80c-3.1,2.8-7.3,5.3-11.8,7.2
									c-2.3,1-4.7,1.8-7.1,2.4C129.1,91.1,123.7,90.8,120.2,88.5z"/>
							</defs>
							<use xlink:href="#SVGID_00000064346017481112978270000000883528088701205170_"  style="overflow:visible;fill:#FAAD02;"/>
							<clipPath id="SVGID_00000048479062464382857400000008680664022965344688_">
								<use xlink:href="#SVGID_00000064346017481112978270000000883528088701205170_"  style="overflow:visible;"/>
							</clipPath>
							<g style="clip-path:url(#SVGID_00000048479062464382857400000008680664022965344688_);enable-background:new    ;">
								<path class="st10" d="M120.2,88.5l-17.4-11.4c2.5,1.6,5.9,2.3,10.1,1.9l17.4,11.4C126.1,90.8,122.7,90.1,120.2,88.5z"/>
								<path class="st10" d="M130.3,90.4L112.9,79c1.7-0.1,3.6-0.5,5.5-0.9c2.4-0.6,4.8-1.4,7.1-2.4c4.5-1.9,8.7-4.4,11.8-7.2
									L154.6,80c-3.1,2.8-7.3,5.3-11.8,7.2c-2.3,1-4.7,1.8-7.1,2.4C133.8,90,132,90.3,130.3,90.4z"/>
							</g>
						</g>
						<g class="st12">
							<defs>
								<path id="SVGID_00000150102407415001158750000017769934525508807316_" class="st12" d="M120.1,88.6l-17.4-11.4
									c-0.7-0.4-1.2-0.9-1.8-1.5c-2.4-2.6-3.7-6.8-3.8-11.5c0-5,1.4-9.8,4-13.5c2.5-3.6,6.4-6.4,9.8-7.8c1-0.4,2-0.7,2.8-0.9
									c7-1.4,12.3-1.2,16.9,0.8c1.6,0.7,3.1,1.5,4.5,2.4l17.4,11.4c-1.4-0.9-2.9-1.7-4.5-2.4c-4.6-2-10-2.2-16.9-0.8
									c-0.9,0.2-1.8,0.5-2.8,0.9c-3.4,1.4-7.3,4.2-9.8,7.8c-2.6,3.8-4,8.6-4,13.5c0,4.7,1.4,8.9,3.8,11.5
									C118.9,87.7,119.5,88.2,120.1,88.6z"/>
							</defs>
							<use xlink:href="#SVGID_00000150102407415001158750000017769934525508807316_"  style="overflow:visible;fill:#FDDA4C;"/>
							<clipPath id="SVGID_00000001629666196172858960000002373988687042722730_">
								<use xlink:href="#SVGID_00000150102407415001158750000017769934525508807316_"  style="overflow:visible;"/>
							</clipPath>
							<g style="clip-path:url(#SVGID_00000001629666196172858960000002373988687042722730_);enable-background:new    ;">
								<path class="st8" d="M120.1,88.6l-17.4-11.4c-0.7-0.4-1.2-0.9-1.8-1.5c-2.4-2.6-3.7-6.8-3.8-11.5c0-5,1.4-9.8,4-13.5
									c0.7-1,1.4-1.9,2.3-2.7l17.4,11.4c-0.8,0.8-1.6,1.7-2.3,2.7c-2.6,3.8-4,8.6-4,13.5c0,4.7,1.4,8.9,3.8,11.5
									C118.9,87.7,119.5,88.2,120.1,88.6z"/>
								<path class="st8" d="M120.8,59.4l-17.4-11.4c2.3-2.3,5-4,7.5-5.1c1-0.4,2-0.7,2.8-0.9c1.9-0.4,3.7-0.7,5.4-0.8l17.4,11.4
									c-1.7,0.1-3.5,0.4-5.4,0.8c-0.9,0.2-1.8,0.5-2.8,0.9C125.8,55.3,123.1,57.1,120.8,59.4z"/>
								<path class="st8" d="M136.6,52.5l-17.4-11.4c4.4-0.4,8.2,0.2,11.5,1.6c1.6,0.7,3.1,1.5,4.5,2.4l17.4,11.4
									c-1.4-0.9-2.9-1.7-4.5-2.4C144.7,52.7,141,52.2,136.6,52.5z"/>
							</g>
						</g>
						<g>
							<path class="st10" d="M161,65.7c2,4-0.1,8.8-6.3,14.4c-3.1,2.8-7.3,5.3-11.8,7.2c-2.3,1-4.7,1.8-7.1,2.4
								c-8,2-14.2,1.1-17.4-2.5c-2.4-2.6-3.7-6.8-3.8-11.5c0-5,1.4-9.8,4-13.5c2.5-3.6,6.4-6.4,9.8-7.8c1-0.4,2-0.7,2.8-0.9
								c7-1.4,12.3-1.2,16.9,0.8C153.9,56.7,158.5,60.8,161,65.7z M154.6,80c6.1-5.5,8.2-10.2,6.2-14.2c-2.4-4.9-7-9-12.9-11.5
								c-4.6-2-9.9-2.2-16.9-0.8c-0.9,0.2-1.8,0.5-2.8,0.9c-3.4,1.4-7.2,4.1-9.7,7.7c-2.6,3.7-4,8.5-3.9,13.4
								c0,4.7,1.4,8.9,3.7,11.5c3.2,3.6,9.4,4.4,17.3,2.5c2.4-0.6,4.8-1.4,7.1-2.4C147.4,85.2,151.5,82.7,154.6,80z"/>
						</g>
					</g>
				</g>
			</g>
		</g>
	</g>
</g>
</svg>
