<svg width="600" height="300" viewBox="0 0 600 300" fill="none" xmlns="http://www.w3.org/2000/svg">
<g clip-path="url(#clip0_1_162)">
<rect width="600" height="300" fill="#3B3575"/>
<g opacity="0.6">
<path fill-rule="evenodd" clip-rule="evenodd" d="M-503 185.19L288.133 -271.571L289.618 -270.713L-501.514 186.047L-503 185.19Z" fill="url(#paint0_radial_1_162)"/>
<path fill-rule="evenodd" clip-rule="evenodd" d="M289.618 -271.571L1080.01 184.761L1078.52 185.618L288.133 -270.713L289.618 -271.571Z" fill="url(#paint1_radial_1_162)"/>
<path fill-rule="evenodd" clip-rule="evenodd" d="M-446.544 217.785L344.589 -238.976L346.075 -238.118L-445.058 218.642L-446.544 217.785Z" fill="url(#paint2_radial_1_162)"/>
<path fill-rule="evenodd" clip-rule="evenodd" d="M233.162 -238.976L1023.55 217.356L1022.07 218.213L231.676 -238.118L233.162 -238.976Z" fill="url(#paint3_radial_1_162)"/>
<path fill-rule="evenodd" clip-rule="evenodd" d="M-390.087 250.38L401.045 -206.381L402.531 -205.523L-388.601 251.238L-390.087 250.38Z" fill="url(#paint4_radial_1_162)"/>
<path fill-rule="evenodd" clip-rule="evenodd" d="M176.705 -206.381L967.095 249.951L965.609 250.809L175.22 -205.523L176.705 -206.381Z" fill="url(#paint5_radial_1_162)"/>
<path fill-rule="evenodd" clip-rule="evenodd" d="M-333.631 282.975L457.502 -173.786L458.987 -172.928L-332.145 283.833L-333.631 282.975Z" fill="url(#paint6_radial_1_162)"/>
<path fill-rule="evenodd" clip-rule="evenodd" d="M120.249 -173.786L910.639 282.546L909.153 283.404L118.763 -172.928L120.249 -173.786Z" fill="url(#paint7_radial_1_162)"/>
<path fill-rule="evenodd" clip-rule="evenodd" d="M-277.174 315.57L513.958 -141.191L515.444 -140.333L-275.689 316.428L-277.174 315.57Z" fill="url(#paint8_radial_1_162)"/>
<path fill-rule="evenodd" clip-rule="evenodd" d="M63.7927 -141.191L854.182 315.141L852.697 315.999L62.3069 -140.333L63.7927 -141.191Z" fill="url(#paint9_radial_1_162)"/>
<path fill-rule="evenodd" clip-rule="evenodd" d="M-220.718 348.165L570.415 -108.596L571.9 -107.738L-219.232 349.023L-220.718 348.165Z" fill="url(#paint10_radial_1_162)"/>
<path fill-rule="evenodd" clip-rule="evenodd" d="M7.33624 -108.595L797.726 347.736L796.24 348.594L5.85053 -107.738L7.33624 -108.595Z" fill="url(#paint11_radial_1_162)"/>
<path fill-rule="evenodd" clip-rule="evenodd" d="M-164.262 380.76L626.871 -76.0004L628.357 -75.1426L-162.776 381.618L-164.262 380.76Z" fill="url(#paint12_radial_1_162)"/>
<path fill-rule="evenodd" clip-rule="evenodd" d="M-49.1202 -76.0004L741.269 380.331L739.784 381.189L-50.6059 -75.1426L-49.1202 -76.0004Z" fill="url(#paint13_radial_1_162)"/>
<path fill-rule="evenodd" clip-rule="evenodd" d="M-107.805 413.355L683.327 -43.4053L684.813 -42.5475L-106.319 414.213L-107.805 413.355Z" fill="url(#paint14_radial_1_162)"/>
<path fill-rule="evenodd" clip-rule="evenodd" d="M-105.577 -43.4052L684.813 412.926L683.327 413.784L-107.062 -42.5475L-105.577 -43.4052Z" fill="url(#paint15_radial_1_162)"/>
<path fill-rule="evenodd" clip-rule="evenodd" d="M-51.3488 445.95L739.784 -10.8101L741.27 -9.95236L-49.863 446.808L-51.3488 445.95Z" fill="url(#paint16_radial_1_162)"/>
<path fill-rule="evenodd" clip-rule="evenodd" d="M-162.033 -10.8101L628.357 445.522L626.871 446.379L-163.519 -9.95234L-162.033 -10.8101Z" fill="url(#paint17_radial_1_162)"/>
<path fill-rule="evenodd" clip-rule="evenodd" d="M5.10765 478.546L796.24 21.785L797.726 22.6427L6.59333 479.403L5.10765 478.546Z" fill="url(#paint18_radial_1_162)"/>
<path fill-rule="evenodd" clip-rule="evenodd" d="M-218.489 21.785L571.9 478.117L570.415 478.974L-219.975 22.6428L-218.489 21.785Z" fill="url(#paint19_radial_1_162)"/>
<path fill-rule="evenodd" clip-rule="evenodd" d="M61.5641 511.141L852.697 54.3801L854.182 55.2379L63.0497 511.998L61.5641 511.141Z" fill="url(#paint20_radial_1_162)"/>
<path fill-rule="evenodd" clip-rule="evenodd" d="M-274.946 54.3801L515.444 510.712L513.958 511.57L-276.431 55.2379L-274.946 54.3801Z" fill="url(#paint21_radial_1_162)"/>
<path fill-rule="evenodd" clip-rule="evenodd" d="M118.02 543.736L909.153 86.9752L910.639 87.833L119.506 544.594L118.02 543.736Z" fill="url(#paint22_radial_1_162)"/>
<path fill-rule="evenodd" clip-rule="evenodd" d="M-331.402 86.9753L458.987 543.307L457.502 544.165L-332.888 87.833L-331.402 86.9753Z" fill="url(#paint23_radial_1_162)"/>
<path fill-rule="evenodd" clip-rule="evenodd" d="M174.477 576.331L965.609 119.57L967.095 120.428L175.963 577.189L174.477 576.331Z" fill="url(#paint24_radial_1_162)"/>
<path fill-rule="evenodd" clip-rule="evenodd" d="M-387.859 119.57L402.531 575.902L401.045 576.76L-389.344 120.428L-387.859 119.57Z" fill="url(#paint25_radial_1_162)"/>
<path fill-rule="evenodd" clip-rule="evenodd" d="M230.933 608.926L1022.07 152.165L1023.55 153.023L232.419 609.784L230.933 608.926Z" fill="url(#paint26_radial_1_162)"/>
<path fill-rule="evenodd" clip-rule="evenodd" d="M-444.315 152.166L346.075 608.497L344.589 609.355L-445.801 153.023L-444.315 152.166Z" fill="url(#paint27_radial_1_162)"/>
<path fill-rule="evenodd" clip-rule="evenodd" d="M287.39 641.521L1078.52 184.761L1080.01 185.618L288.875 642.379L287.39 641.521Z" fill="url(#paint28_radial_1_162)"/>
<path fill-rule="evenodd" clip-rule="evenodd" d="M-500.771 184.761L289.618 641.092L288.133 641.95L-502.257 185.618L-500.771 184.761Z" fill="url(#paint29_radial_1_162)"/>
</g>
</g>
<defs>
<radialGradient id="paint0_radial_1_162" cx="0" cy="0" r="1" gradientUnits="userSpaceOnUse" gradientTransform="translate(157 248.5) rotate(-59.9858) scale(263.887 941.91)">
<stop stop-color="#827ABE"/>
<stop offset="1" stop-color="#3F3876"/>
</radialGradient>
<radialGradient id="paint1_radial_1_162" cx="0" cy="0" r="1" gradientUnits="userSpaceOnUse" gradientTransform="translate(157 248.5) rotate(-59.9858) scale(263.887 941.91)">
<stop stop-color="#827ABE"/>
<stop offset="1" stop-color="#3F3876"/>
</radialGradient>
<radialGradient id="paint2_radial_1_162" cx="0" cy="0" r="1" gradientUnits="userSpaceOnUse" gradientTransform="translate(157 248.5) rotate(-59.9858) scale(263.887 941.91)">
<stop stop-color="#827ABE"/>
<stop offset="1" stop-color="#3F3876"/>
</radialGradient>
<radialGradient id="paint3_radial_1_162" cx="0" cy="0" r="1" gradientUnits="userSpaceOnUse" gradientTransform="translate(157 248.5) rotate(-59.9858) scale(263.887 941.91)">
<stop stop-color="#827ABE"/>
<stop offset="1" stop-color="#3F3876"/>
</radialGradient>
<radialGradient id="paint4_radial_1_162" cx="0" cy="0" r="1" gradientUnits="userSpaceOnUse" gradientTransform="translate(157 248.5) rotate(-59.9858) scale(263.887 941.91)">
<stop stop-color="#827ABE"/>
<stop offset="1" stop-color="#3F3876"/>
</radialGradient>
<radialGradient id="paint5_radial_1_162" cx="0" cy="0" r="1" gradientUnits="userSpaceOnUse" gradientTransform="translate(157 248.5) rotate(-59.9858) scale(263.887 941.91)">
<stop stop-color="#827ABE"/>
<stop offset="1" stop-color="#3F3876"/>
</radialGradient>
<radialGradient id="paint6_radial_1_162" cx="0" cy="0" r="1" gradientUnits="userSpaceOnUse" gradientTransform="translate(157 248.5) rotate(-59.9858) scale(263.887 941.91)">
<stop stop-color="#827ABE"/>
<stop offset="1" stop-color="#3F3876"/>
</radialGradient>
<radialGradient id="paint7_radial_1_162" cx="0" cy="0" r="1" gradientUnits="userSpaceOnUse" gradientTransform="translate(157 248.5) rotate(-59.9858) scale(263.887 941.91)">
<stop stop-color="#827ABE"/>
<stop offset="1" stop-color="#3F3876"/>
</radialGradient>
<radialGradient id="paint8_radial_1_162" cx="0" cy="0" r="1" gradientUnits="userSpaceOnUse" gradientTransform="translate(157 248.5) rotate(-59.9858) scale(263.887 941.91)">
<stop stop-color="#827ABE"/>
<stop offset="1" stop-color="#3F3876"/>
</radialGradient>
<radialGradient id="paint9_radial_1_162" cx="0" cy="0" r="1" gradientUnits="userSpaceOnUse" gradientTransform="translate(157 248.5) rotate(-59.9858) scale(263.887 941.91)">
<stop stop-color="#827ABE"/>
<stop offset="1" stop-color="#3F3876"/>
</radialGradient>
<radialGradient id="paint10_radial_1_162" cx="0" cy="0" r="1" gradientUnits="userSpaceOnUse" gradientTransform="translate(157 248.5) rotate(-59.9858) scale(263.887 941.91)">
<stop stop-color="#827ABE"/>
<stop offset="1" stop-color="#3F3876"/>
</radialGradient>
<radialGradient id="paint11_radial_1_162" cx="0" cy="0" r="1" gradientUnits="userSpaceOnUse" gradientTransform="translate(157 248.5) rotate(-59.9858) scale(263.887 941.91)">
<stop stop-color="#827ABE"/>
<stop offset="1" stop-color="#3F3876"/>
</radialGradient>
<radialGradient id="paint12_radial_1_162" cx="0" cy="0" r="1" gradientUnits="userSpaceOnUse" gradientTransform="translate(157 248.5) rotate(-59.9858) scale(263.887 941.91)">
<stop stop-color="#827ABE"/>
<stop offset="1" stop-color="#3F3876"/>
</radialGradient>
<radialGradient id="paint13_radial_1_162" cx="0" cy="0" r="1" gradientUnits="userSpaceOnUse" gradientTransform="translate(157 248.5) rotate(-59.9858) scale(263.887 941.91)">
<stop stop-color="#827ABE"/>
<stop offset="1" stop-color="#3F3876"/>
</radialGradient>
<radialGradient id="paint14_radial_1_162" cx="0" cy="0" r="1" gradientUnits="userSpaceOnUse" gradientTransform="translate(157 248.5) rotate(-59.9858) scale(263.887 941.91)">
<stop stop-color="#827ABE"/>
<stop offset="1" stop-color="#3F3876"/>
</radialGradient>
<radialGradient id="paint15_radial_1_162" cx="0" cy="0" r="1" gradientUnits="userSpaceOnUse" gradientTransform="translate(157 248.5) rotate(-59.9858) scale(263.887 941.91)">
<stop stop-color="#827ABE"/>
<stop offset="1" stop-color="#3F3876"/>
</radialGradient>
<radialGradient id="paint16_radial_1_162" cx="0" cy="0" r="1" gradientUnits="userSpaceOnUse" gradientTransform="translate(157 248.5) rotate(-59.9858) scale(263.887 941.91)">
<stop stop-color="#827ABE"/>
<stop offset="1" stop-color="#3F3876"/>
</radialGradient>
<radialGradient id="paint17_radial_1_162" cx="0" cy="0" r="1" gradientUnits="userSpaceOnUse" gradientTransform="translate(157 248.5) rotate(-59.9858) scale(263.887 941.91)">
<stop stop-color="#827ABE"/>
<stop offset="1" stop-color="#3F3876"/>
</radialGradient>
<radialGradient id="paint18_radial_1_162" cx="0" cy="0" r="1" gradientUnits="userSpaceOnUse" gradientTransform="translate(157 248.5) rotate(-59.9858) scale(263.887 941.91)">
<stop stop-color="#827ABE"/>
<stop offset="1" stop-color="#3F3876"/>
</radialGradient>
<radialGradient id="paint19_radial_1_162" cx="0" cy="0" r="1" gradientUnits="userSpaceOnUse" gradientTransform="translate(157 248.5) rotate(-59.9858) scale(263.887 941.91)">
<stop stop-color="#827ABE"/>
<stop offset="1" stop-color="#3F3876"/>
</radialGradient>
<radialGradient id="paint20_radial_1_162" cx="0" cy="0" r="1" gradientUnits="userSpaceOnUse" gradientTransform="translate(157 248.5) rotate(-59.9858) scale(263.887 941.91)">
<stop stop-color="#827ABE"/>
<stop offset="1" stop-color="#3F3876"/>
</radialGradient>
<radialGradient id="paint21_radial_1_162" cx="0" cy="0" r="1" gradientUnits="userSpaceOnUse" gradientTransform="translate(157 248.5) rotate(-59.9858) scale(263.887 941.91)">
<stop stop-color="#827ABE"/>
<stop offset="1" stop-color="#3F3876"/>
</radialGradient>
<radialGradient id="paint22_radial_1_162" cx="0" cy="0" r="1" gradientUnits="userSpaceOnUse" gradientTransform="translate(157 248.5) rotate(-59.9858) scale(263.887 941.91)">
<stop stop-color="#827ABE"/>
<stop offset="1" stop-color="#3F3876"/>
</radialGradient>
<radialGradient id="paint23_radial_1_162" cx="0" cy="0" r="1" gradientUnits="userSpaceOnUse" gradientTransform="translate(157 248.5) rotate(-59.9858) scale(263.887 941.91)">
<stop stop-color="#827ABE"/>
<stop offset="1" stop-color="#3F3876"/>
</radialGradient>
<radialGradient id="paint24_radial_1_162" cx="0" cy="0" r="1" gradientUnits="userSpaceOnUse" gradientTransform="translate(157 248.5) rotate(-59.9858) scale(263.887 941.91)">
<stop stop-color="#827ABE"/>
<stop offset="1" stop-color="#3F3876"/>
</radialGradient>
<radialGradient id="paint25_radial_1_162" cx="0" cy="0" r="1" gradientUnits="userSpaceOnUse" gradientTransform="translate(157 248.5) rotate(-59.9858) scale(263.887 941.91)">
<stop stop-color="#827ABE"/>
<stop offset="1" stop-color="#3F3876"/>
</radialGradient>
<radialGradient id="paint26_radial_1_162" cx="0" cy="0" r="1" gradientUnits="userSpaceOnUse" gradientTransform="translate(157 248.5) rotate(-59.9858) scale(263.887 941.91)">
<stop stop-color="#827ABE"/>
<stop offset="1" stop-color="#3F3876"/>
</radialGradient>
<radialGradient id="paint27_radial_1_162" cx="0" cy="0" r="1" gradientUnits="userSpaceOnUse" gradientTransform="translate(157 248.5) rotate(-59.9858) scale(263.887 941.91)">
<stop stop-color="#827ABE"/>
<stop offset="1" stop-color="#3F3876"/>
</radialGradient>
<radialGradient id="paint28_radial_1_162" cx="0" cy="0" r="1" gradientUnits="userSpaceOnUse" gradientTransform="translate(157 248.5) rotate(-59.9858) scale(263.887 941.91)">
<stop stop-color="#827ABE"/>
<stop offset="1" stop-color="#3F3876"/>
</radialGradient>
<radialGradient id="paint29_radial_1_162" cx="0" cy="0" r="1" gradientUnits="userSpaceOnUse" gradientTransform="translate(157 248.5) rotate(-59.9858) scale(263.887 941.91)">
<stop stop-color="#827ABE"/>
<stop offset="1" stop-color="#3F3876"/>
</radialGradient>
<clipPath id="clip0_1_162">
<rect width="600" height="300" fill="white"/>
</clipPath>
</defs>
</svg>
