<svg width="600" height="300" viewBox="0 0 600 300" fill="none" xmlns="http://www.w3.org/2000/svg">
<g clip-path="url(#clip0_1_2)">
<rect width="600" height="300" fill="#3B3575"/>
<g opacity="0.6">
<path fill-rule="evenodd" clip-rule="evenodd" d="M-829 358.45L-54.7215 -88.5802L-53.2675 -87.7407L-827.546 359.289L-829 358.45Z" fill="url(#paint0_radial_1_2)"/>
<path fill-rule="evenodd" clip-rule="evenodd" d="M-53.2675 -88.5803L720.284 358.03L718.83 358.869L-54.7215 -87.7408L-53.2675 -88.5803Z" fill="url(#paint1_radial_1_2)"/>
<path fill-rule="evenodd" clip-rule="evenodd" d="M-773.746 390.35L0.532125 -56.6795L1.98617 -55.84L-772.292 391.19L-773.746 390.35Z" fill="url(#paint2_radial_1_2)"/>
<path fill-rule="evenodd" clip-rule="evenodd" d="M-108.521 -56.6795L665.03 389.931L663.576 390.77L-109.975 -55.84L-108.521 -56.6795Z" fill="url(#paint3_radial_1_2)"/>
<path fill-rule="evenodd" clip-rule="evenodd" d="M-718.493 422.251L55.7858 -24.7788L57.2398 -23.9393L-717.039 423.091L-718.493 422.251Z" fill="url(#paint4_radial_1_2)"/>
<path fill-rule="evenodd" clip-rule="evenodd" d="M-163.775 -24.7788L609.777 421.831L608.323 422.671L-165.229 -23.9393L-163.775 -24.7788Z" fill="url(#paint5_radial_1_2)"/>
<path fill-rule="evenodd" clip-rule="evenodd" d="M-663.239 454.152L111.039 7.12193L112.494 7.96142L-661.785 454.991L-663.239 454.152Z" fill="url(#paint6_radial_1_2)"/>
<path fill-rule="evenodd" clip-rule="evenodd" d="M-219.029 7.12193L554.523 453.732L553.069 454.572L-220.483 7.96142L-219.029 7.12193Z" fill="url(#paint7_radial_1_2)"/>
<path fill-rule="evenodd" clip-rule="evenodd" d="M-607.985 486.053L166.293 39.0227L167.747 39.8621L-606.531 486.892L-607.985 486.053Z" fill="url(#paint8_radial_1_2)"/>
<path fill-rule="evenodd" clip-rule="evenodd" d="M-274.282 39.0227L499.269 485.633L497.815 486.472L-275.736 39.8621L-274.282 39.0227Z" fill="url(#paint9_radial_1_2)"/>
<path fill-rule="evenodd" clip-rule="evenodd" d="M-552.732 517.953L221.547 70.9234L223.001 71.7629L-551.278 518.793L-552.732 517.953Z" fill="url(#paint10_radial_1_2)"/>
<path fill-rule="evenodd" clip-rule="evenodd" d="M-329.536 70.9234L444.016 517.534L442.561 518.373L-330.99 71.7629L-329.536 70.9234Z" fill="url(#paint11_radial_1_2)"/>
<path fill-rule="evenodd" clip-rule="evenodd" d="M-497.478 549.854L276.8 102.824L278.255 103.664L-496.024 550.694L-497.478 549.854Z" fill="url(#paint12_radial_1_2)"/>
<path fill-rule="evenodd" clip-rule="evenodd" d="M-384.79 102.824L388.762 549.434L387.308 550.274L-386.244 103.664L-384.79 102.824Z" fill="url(#paint13_radial_1_2)"/>
<path fill-rule="evenodd" clip-rule="evenodd" d="M-442.224 581.755L332.054 134.725L333.508 135.564L-440.77 582.594L-442.224 581.755Z" fill="url(#paint14_radial_1_2)"/>
<path fill-rule="evenodd" clip-rule="evenodd" d="M-440.043 134.725L333.508 581.335L332.054 582.174L-441.497 135.564L-440.043 134.725Z" fill="url(#paint15_radial_1_2)"/>
<path fill-rule="evenodd" clip-rule="evenodd" d="M-386.971 613.655L387.308 166.626L388.762 167.465L-385.517 614.495L-386.971 613.655Z" fill="url(#paint16_radial_1_2)"/>
<path fill-rule="evenodd" clip-rule="evenodd" d="M-495.297 166.626L278.255 613.236L276.8 614.075L-496.751 167.465L-495.297 166.626Z" fill="url(#paint17_radial_1_2)"/>
<path fill-rule="evenodd" clip-rule="evenodd" d="M-331.717 645.556L442.561 198.526L444.016 199.366L-330.263 646.396L-331.717 645.556Z" fill="url(#paint18_radial_1_2)"/>
<path fill-rule="evenodd" clip-rule="evenodd" d="M-550.551 198.526L223.001 645.136L221.547 645.976L-552.005 199.366L-550.551 198.526Z" fill="url(#paint19_radial_1_2)"/>
<path fill-rule="evenodd" clip-rule="evenodd" d="M-276.463 677.457L497.815 230.427L499.269 231.266L-275.009 678.296L-276.463 677.457Z" fill="url(#paint20_radial_1_2)"/>
<path fill-rule="evenodd" clip-rule="evenodd" d="M-605.804 230.427L167.747 677.037L166.293 677.877L-607.258 231.267L-605.804 230.427Z" fill="url(#paint21_radial_1_2)"/>
<path fill-rule="evenodd" clip-rule="evenodd" d="M-221.21 709.358L553.069 262.328L554.523 263.167L-219.756 710.197L-221.21 709.358Z" fill="url(#paint22_radial_1_2)"/>
<path fill-rule="evenodd" clip-rule="evenodd" d="M-661.058 262.328L112.493 708.938L111.039 709.777L-662.512 263.167L-661.058 262.328Z" fill="url(#paint23_radial_1_2)"/>
<path fill-rule="evenodd" clip-rule="evenodd" d="M-165.956 741.258L608.323 294.228L609.777 295.068L-164.502 742.098L-165.956 741.258Z" fill="url(#paint24_radial_1_2)"/>
<path fill-rule="evenodd" clip-rule="evenodd" d="M-716.312 294.228L57.2398 740.839L55.7857 741.678L-717.766 295.068L-716.312 294.228Z" fill="url(#paint25_radial_1_2)"/>
<path fill-rule="evenodd" clip-rule="evenodd" d="M-110.702 773.159L663.576 326.129L665.03 326.969L-109.248 773.999L-110.702 773.159Z" fill="url(#paint26_radial_1_2)"/>
<path fill-rule="evenodd" clip-rule="evenodd" d="M-771.565 326.129L1.98613 772.739L0.53206 773.579L-773.019 326.969L-771.565 326.129Z" fill="url(#paint27_radial_1_2)"/>
<path fill-rule="evenodd" clip-rule="evenodd" d="M-55.4486 805.06L718.83 358.03L720.284 358.869L-53.9946 805.899L-55.4486 805.06Z" fill="url(#paint28_radial_1_2)"/>
<path fill-rule="evenodd" clip-rule="evenodd" d="M-826.819 358.03L-53.2676 804.64L-54.7216 805.48L-828.273 358.869L-826.819 358.03Z" fill="url(#paint29_radial_1_2)"/>
</g>
<g opacity="0.6">
<path fill-rule="evenodd" clip-rule="evenodd" d="M111 7.89923L111 -886.16L112.454 -885.321L112.454 8.73872L111 7.89923Z" fill="url(#paint30_radial_1_2)"/>
<path fill-rule="evenodd" clip-rule="evenodd" d="M111.727 -886.58L885.278 -439.97L885.278 -438.291L111.727 -884.901L111.727 -886.58Z" fill="url(#paint31_radial_1_2)"/>
<path fill-rule="evenodd" clip-rule="evenodd" d="M166.254 39.8L166.254 -854.26L167.708 -853.42L167.708 40.6394L166.254 39.8Z" fill="url(#paint32_radial_1_2)"/>
<path fill-rule="evenodd" clip-rule="evenodd" d="M111.727 -822.779L885.278 -376.169L885.278 -374.49L111.727 -821.1L111.727 -822.779Z" fill="url(#paint33_radial_1_2)"/>
<path fill-rule="evenodd" clip-rule="evenodd" d="M221.507 71.7007L221.507 -822.359L222.961 -821.52L222.961 72.5402L221.507 71.7007Z" fill="url(#paint34_radial_1_2)"/>
<path fill-rule="evenodd" clip-rule="evenodd" d="M111.727 -758.977L885.278 -312.367L885.278 -310.688L111.727 -757.298L111.727 -758.977Z" fill="url(#paint35_radial_1_2)"/>
<path fill-rule="evenodd" clip-rule="evenodd" d="M276.761 103.601L276.761 -790.458L278.215 -789.619L278.215 104.441L276.761 103.601Z" fill="url(#paint36_radial_1_2)"/>
<path fill-rule="evenodd" clip-rule="evenodd" d="M111.727 -695.176L885.278 -248.566L885.278 -246.887L111.727 -693.497L111.727 -695.176Z" fill="url(#paint37_radial_1_2)"/>
<path fill-rule="evenodd" clip-rule="evenodd" d="M332.015 135.502L332.015 -758.558L333.469 -757.718L333.469 136.342L332.015 135.502Z" fill="url(#paint38_radial_1_2)"/>
<path fill-rule="evenodd" clip-rule="evenodd" d="M111.727 -631.374L885.278 -184.764L885.278 -183.085L111.727 -629.695L111.727 -631.374Z" fill="url(#paint39_radial_1_2)"/>
<path fill-rule="evenodd" clip-rule="evenodd" d="M387.268 167.403L387.268 -726.657L388.722 -725.817L388.722 168.242L387.268 167.403Z" fill="url(#paint40_radial_1_2)"/>
<path fill-rule="evenodd" clip-rule="evenodd" d="M111.727 -567.573L885.278 -120.963L885.278 -119.284L111.727 -565.894L111.727 -567.573Z" fill="url(#paint41_radial_1_2)"/>
<path fill-rule="evenodd" clip-rule="evenodd" d="M442.522 199.304L442.522 -694.756L443.976 -693.917L443.976 200.143L442.522 199.304Z" fill="url(#paint42_radial_1_2)"/>
<path fill-rule="evenodd" clip-rule="evenodd" d="M111.727 -503.772L885.278 -57.1614L885.278 -55.4824L111.727 -502.093L111.727 -503.772Z" fill="url(#paint43_radial_1_2)"/>
<path fill-rule="evenodd" clip-rule="evenodd" d="M497.776 231.204L497.776 -662.855L499.23 -662.016L499.23 232.044L497.776 231.204Z" fill="url(#paint44_radial_1_2)"/>
<path fill-rule="evenodd" clip-rule="evenodd" d="M111.727 -439.97L885.278 6.63999L885.278 8.31897L111.727 -438.291L111.727 -439.97Z" fill="url(#paint45_radial_1_2)"/>
<path fill-rule="evenodd" clip-rule="evenodd" d="M553.029 263.105L553.029 -630.955L554.483 -630.115L554.483 263.945L553.029 263.105Z" fill="url(#paint46_radial_1_2)"/>
<path fill-rule="evenodd" clip-rule="evenodd" d="M111.727 -376.169L885.278 70.4414L885.278 72.1204L111.727 -374.49L111.727 -376.169Z" fill="url(#paint47_radial_1_2)"/>
<path fill-rule="evenodd" clip-rule="evenodd" d="M608.283 295.006L608.283 -599.054L609.737 -598.214L609.737 295.845L608.283 295.006Z" fill="url(#paint48_radial_1_2)"/>
<path fill-rule="evenodd" clip-rule="evenodd" d="M111.727 -312.367L885.278 134.243L885.278 135.922L111.727 -310.688L111.727 -312.367Z" fill="url(#paint49_radial_1_2)"/>
<path fill-rule="evenodd" clip-rule="evenodd" d="M663.537 326.906L663.537 -567.153L664.991 -566.314L664.991 327.746L663.537 326.906Z" fill="url(#paint50_radial_1_2)"/>
<path fill-rule="evenodd" clip-rule="evenodd" d="M111.727 -248.566L885.278 198.044L885.278 199.723L111.727 -246.887L111.727 -248.566Z" fill="url(#paint51_radial_1_2)"/>
<path fill-rule="evenodd" clip-rule="evenodd" d="M718.79 358.807L718.79 -535.253L720.244 -534.413L720.244 359.647L718.79 358.807Z" fill="url(#paint52_radial_1_2)"/>
<path fill-rule="evenodd" clip-rule="evenodd" d="M111.727 -184.764L885.278 261.846L885.278 263.525L111.727 -183.085L111.727 -184.764Z" fill="url(#paint53_radial_1_2)"/>
<path fill-rule="evenodd" clip-rule="evenodd" d="M774.044 390.708L774.044 -503.352L775.498 -502.512L775.498 391.547L774.044 390.708Z" fill="url(#paint54_radial_1_2)"/>
<path fill-rule="evenodd" clip-rule="evenodd" d="M111.727 -120.963L885.278 325.647L885.278 327.326L111.727 -119.284L111.727 -120.963Z" fill="url(#paint55_radial_1_2)"/>
<path fill-rule="evenodd" clip-rule="evenodd" d="M829.298 422.609L829.298 -471.451L830.752 -470.612L830.752 423.448L829.298 422.609Z" fill="url(#paint56_radial_1_2)"/>
<path fill-rule="evenodd" clip-rule="evenodd" d="M111.727 -57.1614L885.278 389.449L885.278 391.128L111.727 -55.4824L111.727 -57.1614Z" fill="url(#paint57_radial_1_2)"/>
<path fill-rule="evenodd" clip-rule="evenodd" d="M884.551 454.509L884.551 -439.55L886.005 -438.711L886.005 455.349L884.551 454.509Z" fill="url(#paint58_radial_1_2)"/>
<path fill-rule="evenodd" clip-rule="evenodd" d="M111.727 6.64002L885.278 453.25L885.278 454.929L111.727 8.31898L111.727 6.64002Z" fill="url(#paint59_radial_1_2)"/>
</g>
</g>
<defs>
<radialGradient id="paint0_radial_1_2" cx="0" cy="0" r="1" gradientUnits="userSpaceOnUse" gradientTransform="translate(322 310.5) rotate(-169.527) scale(396.099 1413.82)">
<stop stop-color="#827ABE"/>
<stop offset="1" stop-color="#3F3876"/>
</radialGradient>
<radialGradient id="paint1_radial_1_2" cx="0" cy="0" r="1" gradientUnits="userSpaceOnUse" gradientTransform="translate(322 310.5) rotate(-169.527) scale(396.099 1413.82)">
<stop stop-color="#827ABE"/>
<stop offset="1" stop-color="#3F3876"/>
</radialGradient>
<radialGradient id="paint2_radial_1_2" cx="0" cy="0" r="1" gradientUnits="userSpaceOnUse" gradientTransform="translate(322 310.5) rotate(-169.527) scale(396.099 1413.82)">
<stop stop-color="#827ABE"/>
<stop offset="1" stop-color="#3F3876"/>
</radialGradient>
<radialGradient id="paint3_radial_1_2" cx="0" cy="0" r="1" gradientUnits="userSpaceOnUse" gradientTransform="translate(322 310.5) rotate(-169.527) scale(396.099 1413.82)">
<stop stop-color="#827ABE"/>
<stop offset="1" stop-color="#3F3876"/>
</radialGradient>
<radialGradient id="paint4_radial_1_2" cx="0" cy="0" r="1" gradientUnits="userSpaceOnUse" gradientTransform="translate(322 310.5) rotate(-169.527) scale(396.099 1413.82)">
<stop stop-color="#827ABE"/>
<stop offset="1" stop-color="#3F3876"/>
</radialGradient>
<radialGradient id="paint5_radial_1_2" cx="0" cy="0" r="1" gradientUnits="userSpaceOnUse" gradientTransform="translate(322 310.5) rotate(-169.527) scale(396.099 1413.82)">
<stop stop-color="#827ABE"/>
<stop offset="1" stop-color="#3F3876"/>
</radialGradient>
<radialGradient id="paint6_radial_1_2" cx="0" cy="0" r="1" gradientUnits="userSpaceOnUse" gradientTransform="translate(322 310.5) rotate(-169.527) scale(396.099 1413.82)">
<stop stop-color="#827ABE"/>
<stop offset="1" stop-color="#3F3876"/>
</radialGradient>
<radialGradient id="paint7_radial_1_2" cx="0" cy="0" r="1" gradientUnits="userSpaceOnUse" gradientTransform="translate(322 310.5) rotate(-169.527) scale(396.099 1413.82)">
<stop stop-color="#827ABE"/>
<stop offset="1" stop-color="#3F3876"/>
</radialGradient>
<radialGradient id="paint8_radial_1_2" cx="0" cy="0" r="1" gradientUnits="userSpaceOnUse" gradientTransform="translate(322 310.5) rotate(-169.527) scale(396.099 1413.82)">
<stop stop-color="#827ABE"/>
<stop offset="1" stop-color="#3F3876"/>
</radialGradient>
<radialGradient id="paint9_radial_1_2" cx="0" cy="0" r="1" gradientUnits="userSpaceOnUse" gradientTransform="translate(322 310.5) rotate(-169.527) scale(396.099 1413.82)">
<stop stop-color="#827ABE"/>
<stop offset="1" stop-color="#3F3876"/>
</radialGradient>
<radialGradient id="paint10_radial_1_2" cx="0" cy="0" r="1" gradientUnits="userSpaceOnUse" gradientTransform="translate(322 310.5) rotate(-169.527) scale(396.099 1413.82)">
<stop stop-color="#827ABE"/>
<stop offset="1" stop-color="#3F3876"/>
</radialGradient>
<radialGradient id="paint11_radial_1_2" cx="0" cy="0" r="1" gradientUnits="userSpaceOnUse" gradientTransform="translate(322 310.5) rotate(-169.527) scale(396.099 1413.82)">
<stop stop-color="#827ABE"/>
<stop offset="1" stop-color="#3F3876"/>
</radialGradient>
<radialGradient id="paint12_radial_1_2" cx="0" cy="0" r="1" gradientUnits="userSpaceOnUse" gradientTransform="translate(322 310.5) rotate(-169.527) scale(396.099 1413.82)">
<stop stop-color="#827ABE"/>
<stop offset="1" stop-color="#3F3876"/>
</radialGradient>
<radialGradient id="paint13_radial_1_2" cx="0" cy="0" r="1" gradientUnits="userSpaceOnUse" gradientTransform="translate(322 310.5) rotate(-169.527) scale(396.099 1413.82)">
<stop stop-color="#827ABE"/>
<stop offset="1" stop-color="#3F3876"/>
</radialGradient>
<radialGradient id="paint14_radial_1_2" cx="0" cy="0" r="1" gradientUnits="userSpaceOnUse" gradientTransform="translate(322 310.5) rotate(-169.527) scale(396.099 1413.82)">
<stop stop-color="#827ABE"/>
<stop offset="1" stop-color="#3F3876"/>
</radialGradient>
<radialGradient id="paint15_radial_1_2" cx="0" cy="0" r="1" gradientUnits="userSpaceOnUse" gradientTransform="translate(322 310.5) rotate(-169.527) scale(396.099 1413.82)">
<stop stop-color="#827ABE"/>
<stop offset="1" stop-color="#3F3876"/>
</radialGradient>
<radialGradient id="paint16_radial_1_2" cx="0" cy="0" r="1" gradientUnits="userSpaceOnUse" gradientTransform="translate(322 310.5) rotate(-169.527) scale(396.099 1413.82)">
<stop stop-color="#827ABE"/>
<stop offset="1" stop-color="#3F3876"/>
</radialGradient>
<radialGradient id="paint17_radial_1_2" cx="0" cy="0" r="1" gradientUnits="userSpaceOnUse" gradientTransform="translate(322 310.5) rotate(-169.527) scale(396.099 1413.82)">
<stop stop-color="#827ABE"/>
<stop offset="1" stop-color="#3F3876"/>
</radialGradient>
<radialGradient id="paint18_radial_1_2" cx="0" cy="0" r="1" gradientUnits="userSpaceOnUse" gradientTransform="translate(322 310.5) rotate(-169.527) scale(396.099 1413.82)">
<stop stop-color="#827ABE"/>
<stop offset="1" stop-color="#3F3876"/>
</radialGradient>
<radialGradient id="paint19_radial_1_2" cx="0" cy="0" r="1" gradientUnits="userSpaceOnUse" gradientTransform="translate(322 310.5) rotate(-169.527) scale(396.099 1413.82)">
<stop stop-color="#827ABE"/>
<stop offset="1" stop-color="#3F3876"/>
</radialGradient>
<radialGradient id="paint20_radial_1_2" cx="0" cy="0" r="1" gradientUnits="userSpaceOnUse" gradientTransform="translate(322 310.5) rotate(-169.527) scale(396.099 1413.82)">
<stop stop-color="#827ABE"/>
<stop offset="1" stop-color="#3F3876"/>
</radialGradient>
<radialGradient id="paint21_radial_1_2" cx="0" cy="0" r="1" gradientUnits="userSpaceOnUse" gradientTransform="translate(322 310.5) rotate(-169.527) scale(396.099 1413.82)">
<stop stop-color="#827ABE"/>
<stop offset="1" stop-color="#3F3876"/>
</radialGradient>
<radialGradient id="paint22_radial_1_2" cx="0" cy="0" r="1" gradientUnits="userSpaceOnUse" gradientTransform="translate(322 310.5) rotate(-169.527) scale(396.099 1413.82)">
<stop stop-color="#827ABE"/>
<stop offset="1" stop-color="#3F3876"/>
</radialGradient>
<radialGradient id="paint23_radial_1_2" cx="0" cy="0" r="1" gradientUnits="userSpaceOnUse" gradientTransform="translate(322 310.5) rotate(-169.527) scale(396.099 1413.82)">
<stop stop-color="#827ABE"/>
<stop offset="1" stop-color="#3F3876"/>
</radialGradient>
<radialGradient id="paint24_radial_1_2" cx="0" cy="0" r="1" gradientUnits="userSpaceOnUse" gradientTransform="translate(322 310.5) rotate(-169.527) scale(396.099 1413.82)">
<stop stop-color="#827ABE"/>
<stop offset="1" stop-color="#3F3876"/>
</radialGradient>
<radialGradient id="paint25_radial_1_2" cx="0" cy="0" r="1" gradientUnits="userSpaceOnUse" gradientTransform="translate(322 310.5) rotate(-169.527) scale(396.099 1413.82)">
<stop stop-color="#827ABE"/>
<stop offset="1" stop-color="#3F3876"/>
</radialGradient>
<radialGradient id="paint26_radial_1_2" cx="0" cy="0" r="1" gradientUnits="userSpaceOnUse" gradientTransform="translate(322 310.5) rotate(-169.527) scale(396.099 1413.82)">
<stop stop-color="#827ABE"/>
<stop offset="1" stop-color="#3F3876"/>
</radialGradient>
<radialGradient id="paint27_radial_1_2" cx="0" cy="0" r="1" gradientUnits="userSpaceOnUse" gradientTransform="translate(322 310.5) rotate(-169.527) scale(396.099 1413.82)">
<stop stop-color="#827ABE"/>
<stop offset="1" stop-color="#3F3876"/>
</radialGradient>
<radialGradient id="paint28_radial_1_2" cx="0" cy="0" r="1" gradientUnits="userSpaceOnUse" gradientTransform="translate(322 310.5) rotate(-169.527) scale(396.099 1413.82)">
<stop stop-color="#827ABE"/>
<stop offset="1" stop-color="#3F3876"/>
</radialGradient>
<radialGradient id="paint29_radial_1_2" cx="0" cy="0" r="1" gradientUnits="userSpaceOnUse" gradientTransform="translate(322 310.5) rotate(-169.527) scale(396.099 1413.82)">
<stop stop-color="#827ABE"/>
<stop offset="1" stop-color="#3F3876"/>
</radialGradient>
<radialGradient id="paint30_radial_1_2" cx="0" cy="0" r="1" gradientUnits="userSpaceOnUse" gradientTransform="translate(581.5 276) rotate(-106.168) scale(695.355 5889.23)">
<stop stop-color="#827ABE"/>
<stop offset="1" stop-color="#3F3876"/>
</radialGradient>
<radialGradient id="paint31_radial_1_2" cx="0" cy="0" r="1" gradientUnits="userSpaceOnUse" gradientTransform="translate(581.5 276) rotate(-106.168) scale(695.355 5889.23)">
<stop stop-color="#827ABE"/>
<stop offset="1" stop-color="#3F3876"/>
</radialGradient>
<radialGradient id="paint32_radial_1_2" cx="0" cy="0" r="1" gradientUnits="userSpaceOnUse" gradientTransform="translate(581.5 276) rotate(-106.168) scale(695.355 5889.23)">
<stop stop-color="#827ABE"/>
<stop offset="1" stop-color="#3F3876"/>
</radialGradient>
<radialGradient id="paint33_radial_1_2" cx="0" cy="0" r="1" gradientUnits="userSpaceOnUse" gradientTransform="translate(581.5 276) rotate(-106.168) scale(695.355 5889.23)">
<stop stop-color="#827ABE"/>
<stop offset="1" stop-color="#3F3876"/>
</radialGradient>
<radialGradient id="paint34_radial_1_2" cx="0" cy="0" r="1" gradientUnits="userSpaceOnUse" gradientTransform="translate(581.5 276) rotate(-106.168) scale(695.355 5889.23)">
<stop stop-color="#827ABE"/>
<stop offset="1" stop-color="#3F3876"/>
</radialGradient>
<radialGradient id="paint35_radial_1_2" cx="0" cy="0" r="1" gradientUnits="userSpaceOnUse" gradientTransform="translate(581.5 276) rotate(-106.168) scale(695.355 5889.23)">
<stop stop-color="#827ABE"/>
<stop offset="1" stop-color="#3F3876"/>
</radialGradient>
<radialGradient id="paint36_radial_1_2" cx="0" cy="0" r="1" gradientUnits="userSpaceOnUse" gradientTransform="translate(581.5 276) rotate(-106.168) scale(695.355 5889.23)">
<stop stop-color="#827ABE"/>
<stop offset="1" stop-color="#3F3876"/>
</radialGradient>
<radialGradient id="paint37_radial_1_2" cx="0" cy="0" r="1" gradientUnits="userSpaceOnUse" gradientTransform="translate(581.5 276) rotate(-106.168) scale(695.355 5889.23)">
<stop stop-color="#827ABE"/>
<stop offset="1" stop-color="#3F3876"/>
</radialGradient>
<radialGradient id="paint38_radial_1_2" cx="0" cy="0" r="1" gradientUnits="userSpaceOnUse" gradientTransform="translate(581.5 276) rotate(-106.168) scale(695.355 5889.23)">
<stop stop-color="#827ABE"/>
<stop offset="1" stop-color="#3F3876"/>
</radialGradient>
<radialGradient id="paint39_radial_1_2" cx="0" cy="0" r="1" gradientUnits="userSpaceOnUse" gradientTransform="translate(581.5 276) rotate(-106.168) scale(695.355 5889.23)">
<stop stop-color="#827ABE"/>
<stop offset="1" stop-color="#3F3876"/>
</radialGradient>
<radialGradient id="paint40_radial_1_2" cx="0" cy="0" r="1" gradientUnits="userSpaceOnUse" gradientTransform="translate(581.5 276) rotate(-106.168) scale(695.355 5889.23)">
<stop stop-color="#827ABE"/>
<stop offset="1" stop-color="#3F3876"/>
</radialGradient>
<radialGradient id="paint41_radial_1_2" cx="0" cy="0" r="1" gradientUnits="userSpaceOnUse" gradientTransform="translate(581.5 276) rotate(-106.168) scale(695.355 5889.23)">
<stop stop-color="#827ABE"/>
<stop offset="1" stop-color="#3F3876"/>
</radialGradient>
<radialGradient id="paint42_radial_1_2" cx="0" cy="0" r="1" gradientUnits="userSpaceOnUse" gradientTransform="translate(581.5 276) rotate(-106.168) scale(695.355 5889.23)">
<stop stop-color="#827ABE"/>
<stop offset="1" stop-color="#3F3876"/>
</radialGradient>
<radialGradient id="paint43_radial_1_2" cx="0" cy="0" r="1" gradientUnits="userSpaceOnUse" gradientTransform="translate(581.5 276) rotate(-106.168) scale(695.355 5889.23)">
<stop stop-color="#827ABE"/>
<stop offset="1" stop-color="#3F3876"/>
</radialGradient>
<radialGradient id="paint44_radial_1_2" cx="0" cy="0" r="1" gradientUnits="userSpaceOnUse" gradientTransform="translate(581.5 276) rotate(-106.168) scale(695.355 5889.23)">
<stop stop-color="#827ABE"/>
<stop offset="1" stop-color="#3F3876"/>
</radialGradient>
<radialGradient id="paint45_radial_1_2" cx="0" cy="0" r="1" gradientUnits="userSpaceOnUse" gradientTransform="translate(581.5 276) rotate(-106.168) scale(695.355 5889.23)">
<stop stop-color="#827ABE"/>
<stop offset="1" stop-color="#3F3876"/>
</radialGradient>
<radialGradient id="paint46_radial_1_2" cx="0" cy="0" r="1" gradientUnits="userSpaceOnUse" gradientTransform="translate(581.5 276) rotate(-106.168) scale(695.355 5889.23)">
<stop stop-color="#827ABE"/>
<stop offset="1" stop-color="#3F3876"/>
</radialGradient>
<radialGradient id="paint47_radial_1_2" cx="0" cy="0" r="1" gradientUnits="userSpaceOnUse" gradientTransform="translate(581.5 276) rotate(-106.168) scale(695.355 5889.23)">
<stop stop-color="#827ABE"/>
<stop offset="1" stop-color="#3F3876"/>
</radialGradient>
<radialGradient id="paint48_radial_1_2" cx="0" cy="0" r="1" gradientUnits="userSpaceOnUse" gradientTransform="translate(581.5 276) rotate(-106.168) scale(695.355 5889.23)">
<stop stop-color="#827ABE"/>
<stop offset="1" stop-color="#3F3876"/>
</radialGradient>
<radialGradient id="paint49_radial_1_2" cx="0" cy="0" r="1" gradientUnits="userSpaceOnUse" gradientTransform="translate(581.5 276) rotate(-106.168) scale(695.355 5889.23)">
<stop stop-color="#827ABE"/>
<stop offset="1" stop-color="#3F3876"/>
</radialGradient>
<radialGradient id="paint50_radial_1_2" cx="0" cy="0" r="1" gradientUnits="userSpaceOnUse" gradientTransform="translate(581.5 276) rotate(-106.168) scale(695.355 5889.23)">
<stop stop-color="#827ABE"/>
<stop offset="1" stop-color="#3F3876"/>
</radialGradient>
<radialGradient id="paint51_radial_1_2" cx="0" cy="0" r="1" gradientUnits="userSpaceOnUse" gradientTransform="translate(581.5 276) rotate(-106.168) scale(695.355 5889.23)">
<stop stop-color="#827ABE"/>
<stop offset="1" stop-color="#3F3876"/>
</radialGradient>
<radialGradient id="paint52_radial_1_2" cx="0" cy="0" r="1" gradientUnits="userSpaceOnUse" gradientTransform="translate(581.5 276) rotate(-106.168) scale(695.355 5889.23)">
<stop stop-color="#827ABE"/>
<stop offset="1" stop-color="#3F3876"/>
</radialGradient>
<radialGradient id="paint53_radial_1_2" cx="0" cy="0" r="1" gradientUnits="userSpaceOnUse" gradientTransform="translate(581.5 276) rotate(-106.168) scale(695.355 5889.23)">
<stop stop-color="#827ABE"/>
<stop offset="1" stop-color="#3F3876"/>
</radialGradient>
<radialGradient id="paint54_radial_1_2" cx="0" cy="0" r="1" gradientUnits="userSpaceOnUse" gradientTransform="translate(581.5 276) rotate(-106.168) scale(695.355 5889.23)">
<stop stop-color="#827ABE"/>
<stop offset="1" stop-color="#3F3876"/>
</radialGradient>
<radialGradient id="paint55_radial_1_2" cx="0" cy="0" r="1" gradientUnits="userSpaceOnUse" gradientTransform="translate(581.5 276) rotate(-106.168) scale(695.355 5889.23)">
<stop stop-color="#827ABE"/>
<stop offset="1" stop-color="#3F3876"/>
</radialGradient>
<radialGradient id="paint56_radial_1_2" cx="0" cy="0" r="1" gradientUnits="userSpaceOnUse" gradientTransform="translate(581.5 276) rotate(-106.168) scale(695.355 5889.23)">
<stop stop-color="#827ABE"/>
<stop offset="1" stop-color="#3F3876"/>
</radialGradient>
<radialGradient id="paint57_radial_1_2" cx="0" cy="0" r="1" gradientUnits="userSpaceOnUse" gradientTransform="translate(581.5 276) rotate(-106.168) scale(695.355 5889.23)">
<stop stop-color="#827ABE"/>
<stop offset="1" stop-color="#3F3876"/>
</radialGradient>
<radialGradient id="paint58_radial_1_2" cx="0" cy="0" r="1" gradientUnits="userSpaceOnUse" gradientTransform="translate(581.5 276) rotate(-106.168) scale(695.355 5889.23)">
<stop stop-color="#827ABE"/>
<stop offset="1" stop-color="#3F3876"/>
</radialGradient>
<radialGradient id="paint59_radial_1_2" cx="0" cy="0" r="1" gradientUnits="userSpaceOnUse" gradientTransform="translate(581.5 276) rotate(-106.168) scale(695.355 5889.23)">
<stop stop-color="#827ABE"/>
<stop offset="1" stop-color="#3F3876"/>
</radialGradient>
<clipPath id="clip0_1_2">
<rect width="600" height="300" fill="white"/>
</clipPath>
</defs>
</svg>
