<svg width="240" height="160" viewBox="0 0 240 160" fill="none" xmlns="http://www.w3.org/2000/svg">
<path d="M231.362 80.2608C232.36 78.4772 232.557 76.3398 231.883 74.221C231.127 71.8453 229.34 69.7116 227.057 68.3934C227.482 67.6338 227.668 66.9151 227.746 66.3677C228.029 64.3643 227.258 62.2567 225.575 60.4321C223.564 58.25 220.463 57.0063 216.609 56.8313C215.808 56.7941 214.959 56.8052 214.095 56.8611C209.69 57.1441 205.512 58.4884 202.786 59.5682C201.557 60.0523 200.388 60.6816 199.29 61.4412C197.819 59.0692 195.853 56.9132 193.656 55.2748C190.744 53.1039 187.459 51.8751 184.16 51.7298C183.605 51.7038 183.047 51.7112 182.492 51.7447C180.113 51.8974 177.729 52.6012 175.406 53.8412C174.933 53.6364 174.453 53.4502 173.972 53.2864C170.803 50.933 167.4 49.3392 163.836 48.5386C163.181 44.6176 160.79 38.265 157.674 33.8524C150.152 23.21 141.502 14.9434 131.962 9.27597C124.265 4.70327 115.927 1.78389 107.184 0.603477C105.199 0.335371 103.188 0.152909 101.2 0.0672644C94.1734 -0.245526 87.2548 0.56624 80.6415 2.48022C74.099 4.37186 68.0144 7.29496 62.5518 11.1676C51.161 19.2443 43.2705 30.8064 39.733 44.6027C38.7313 48.5126 36.5082 58.574 37.0966 69.0152C32.7287 71.4505 29.0646 75.4126 26.4617 80.5177C22.697 87.9018 21.4868 97.0025 23.0471 106.155C22.9428 109.879 23.2891 113.7 24.0748 117.524C23.5349 117.323 23.0582 117.148 22.604 117.014C22.1087 116.868 21.6209 116.787 21.1592 116.764C20.7533 116.746 20.3548 116.775 19.9825 116.854C18.601 117.14 17.4988 118.071 16.9663 119.408C16.7913 119.84 16.6795 120.313 16.6274 120.812C16.5567 120.808 16.4822 120.804 16.4114 120.801C15.6108 120.763 14.8289 120.827 14.0804 120.979C10.1891 121.787 8.08153 125.023 8.83744 129.034C9.06459 130.237 9.60452 131.302 10.4535 132.225C8.30123 132.754 6.82665 133.718 5.95902 135.159C4.70042 137.245 4.67435 139.698 5.88827 141.888C7.89907 145.507 12.8144 147.835 19.0404 148.11C19.3159 148.121 19.5915 148.129 19.8708 148.136C21.3975 148.159 22.9577 148.002 24.6334 147.652C27.7687 147.004 30.6769 145.798 33.0154 144.83C34.4155 144.253 35.6481 143.739 36.5715 143.489C36.0316 144.565 34.5868 146.315 33.8868 147.168C31.7121 149.808 29.6566 152.299 30.0811 155.07C30.2859 156.414 31.0642 157.561 32.3302 158.384C33.816 159.352 35.5438 159.907 37.32 159.989C38.1169 160.026 38.9249 159.967 39.7181 159.814H39.8223L39.9713 159.762C42.5369 159.207 46.1675 157.453 49.4406 152.366C53.4138 154.314 57.4466 155.39 61.4384 155.569C63.0359 155.64 64.6259 155.561 66.1675 155.338C66.4095 155.304 66.6516 155.264 66.8899 155.219L67.0575 155.189C67.2287 155.159 67.4 155.126 67.5676 155.089C67.6644 155.066 67.7612 155.048 67.8655 155.025C67.9809 154.999 68.0926 154.973 68.2043 154.947C68.3421 154.913 68.4762 154.88 68.6102 154.846L68.7406 154.813C69.8912 154.511 71.012 154.132 72.077 153.677C72.9446 153.305 75.0746 152.299 77.5806 151.048C85.0094 154.232 92.8887 156.031 101.014 156.392C118.902 157.189 136.035 150.97 149.247 138.883C151.194 137.103 153.056 135.185 154.795 133.175C156.627 134.027 158.66 134.668 160.854 135.081C162.295 135.353 163.781 135.524 165.266 135.588C173.265 135.945 181.576 133.372 189.303 128.155C193.179 125.537 196.728 122.365 199.859 118.715C201.088 119.051 202.194 119.237 203.226 119.285C203.605 119.304 203.974 119.3 204.328 119.278C210.226 118.902 211.667 113.647 212.937 109.011C213.16 108.192 213.537 107.57 214.14 107.034L215.03 106.39C215.752 105.951 216.635 105.56 217.618 105.124C220.798 103.713 225.158 101.776 228.469 96.053C229.232 94.7348 229.843 93.3906 230.286 92.0463C232.494 90.3707 233.805 88.2928 233.991 86.1554C234.129 84.5915 233.745 82.3684 231.347 80.2645L231.362 80.2608ZM106.987 22.4318C89.098 21.6349 71.9653 27.8535 58.7536 39.9406C56.8955 41.6386 55.1267 43.4483 53.4697 45.3437C54.9741 40.205 57.4987 35.4461 60.9059 31.3798C65.2626 26.1816 70.9785 22.1786 77.0072 20.1045C80.109 19.0358 86.551 17.3005 94.8102 17.6692C100.82 17.9373 106.663 19.2704 112.166 21.6349C113.421 22.1749 114.665 22.7706 115.894 23.4223C112.959 22.8973 109.981 22.5658 106.987 22.4355V22.4318ZM172.732 115.357C170.442 115.941 168.327 116.269 166.32 116.343C166.439 116.325 166.555 116.306 166.674 116.284C172.989 115.167 178.541 111.48 182.544 105.802C182.838 106.438 183.203 107.083 183.635 107.727C181.327 111.324 178.564 113.867 172.736 115.353L172.732 115.357Z" fill="#380176"/>
<path d="M229.704 80.518C231.022 78.8982 231.409 76.7831 230.713 74.5936C229.983 72.2923 227.979 69.9576 225.194 68.8516C226.092 67.9244 226.427 66.9451 226.531 66.1966C226.762 64.5656 226.103 62.8155 224.677 61.2664C222.487 58.8907 218.856 57.7922 214.179 58.0901C209.934 58.362 205.891 59.6653 203.243 60.7116C201.675 61.3335 200.223 62.1936 198.923 63.2586C197.505 60.5887 195.345 58.0641 192.928 56.2618C189.737 53.8824 186.159 52.7466 182.58 52.9738C180.19 53.1264 177.806 53.8824 175.472 55.2192C174.794 54.9026 174.105 54.6234 173.405 54.3925C170.169 51.9535 166.553 50.2815 162.751 49.574C162.394 46.2004 160.029 39.3041 156.682 34.5675C149.26 24.0704 140.737 15.9193 131.346 10.3412C123.79 5.85411 115.609 2.99058 107.03 1.82879C105.083 1.56441 103.105 1.38567 101.158 1.30002C94.2652 0.994681 87.4806 1.78783 80.9977 3.66457C74.5892 5.51897 68.6276 8.3825 63.2803 12.1769C52.1316 20.0861 44.4086 31.4024 40.9419 44.912C39.862 49.1272 37.6576 59.2966 38.3911 69.7304C33.9599 71.9944 30.2251 75.8782 27.5738 81.0802C23.9097 88.267 22.7479 97.1368 24.2969 106.07C24.1815 109.898 24.5539 113.867 25.4141 117.841V117.855C25.5332 118.388 25.6561 118.92 25.7864 119.453C25.1124 119.23 24.498 118.995 23.9469 118.79C23.3102 118.552 22.7628 118.343 22.275 118.202C21.534 117.986 20.8488 117.941 20.2456 118.068C19.2588 118.273 18.5066 118.913 18.1193 119.877C17.8289 120.6 17.7767 121.427 17.8847 122.235C16.6708 121.978 15.4569 121.963 14.3398 122.194C11.1076 122.864 9.42449 125.463 10.0538 128.818C10.4187 130.747 11.7741 132.091 13.5429 133.026C12.7162 133.085 11.9194 133.182 11.1895 133.335C9.13032 133.763 7.76372 134.571 7.01898 135.811C5.98007 137.535 5.96145 139.486 6.97058 141.307C8.8436 144.681 13.7961 146.833 19.8955 146.923C21.3329 146.945 22.8037 146.796 24.39 146.465C27.41 145.839 30.2586 144.659 32.5487 143.713C34.2131 143.024 35.6505 142.428 36.7192 142.208C37.7991 141.985 37.8773 142.208 37.9629 142.465C38.3762 143.679 36.4176 146.059 34.8462 147.969C32.8503 150.389 30.9661 152.676 31.3087 154.903C31.4613 155.904 32.0348 156.735 33.0141 157.371C34.9616 158.641 37.3113 159.073 39.6386 158.593C41.9361 158.116 45.6896 156.426 49 150.769C53.0327 152.903 57.2777 154.165 61.5079 154.355C63.0271 154.422 64.5389 154.348 66.0061 154.135C66.2369 154.102 66.4641 154.065 66.6912 154.024C66.7434 154.013 66.7992 154.005 66.8514 153.994C67.0115 153.964 67.1753 153.934 67.3354 153.901C67.4285 153.882 67.5216 153.86 67.6147 153.841C67.7227 153.819 67.8307 153.793 67.9387 153.767C68.069 153.737 68.1956 153.704 68.3259 153.674C68.3669 153.663 68.4079 153.651 68.4488 153.64C69.5287 153.357 70.5862 153 71.6102 152.564C72.5263 152.173 74.902 151.045 77.5607 149.708C84.9448 152.948 92.9061 154.813 101.087 155.178C118.648 155.96 135.464 149.857 148.438 137.993C150.616 136.001 152.634 133.886 154.5 131.667C156.432 132.676 158.644 133.428 161.102 133.89C162.487 134.15 163.913 134.314 165.339 134.378C173.07 134.72 181.124 132.225 188.635 127.154C192.642 124.446 196.317 121.095 199.46 117.327C201.322 117.908 202.915 118.153 204.271 118.064C209.294 117.744 210.553 113.145 211.77 108.699C212.113 107.444 212.742 106.591 213.602 105.914C213.613 105.914 213.625 105.91 213.632 105.906V105.891C214.556 105.165 215.747 104.633 217.14 104.014C220.335 102.596 224.315 100.831 227.425 95.45C228.24 94.0387 228.843 92.6535 229.257 91.3055C231.342 89.8235 232.619 87.9803 232.787 86.0625C232.917 84.5693 232.44 82.4841 229.711 80.5366L229.704 80.518ZM76.6074 18.9429C79.7949 17.8481 86.4008 16.0645 94.8647 16.4406C101.024 16.7161 107.008 18.0827 112.653 20.5069C116.216 22.0373 119.642 23.9922 122.915 26.3531C117.769 24.8152 112.415 23.9066 106.933 23.6646C89.3723 22.8826 72.5561 28.9857 59.5827 40.8494C56.4399 43.7241 53.6173 46.8557 51.1299 50.1959C52.2694 42.8974 55.2967 36.1576 59.9625 30.5906C64.4607 25.2248 70.3702 21.0878 76.6037 18.9429H76.6074ZM164.539 115.323C165.183 115.268 165.824 115.186 166.46 115.074C173.241 113.875 179.058 109.574 182.926 102.931C183.168 104.517 183.958 106.137 185.109 107.69C182.755 111.566 179.899 114.798 173.036 116.552C169.89 117.356 167.049 117.688 164.356 117.569C164.081 117.558 163.813 117.539 163.548 117.517C163.891 116.79 164.219 116.061 164.531 115.323H164.539Z" fill="#380176"/>
<path d="M29.9378 126.17C29.5319 126.256 29.0962 126.311 28.642 126.345C24.3523 126.643 22.1292 126.155 19.6641 125.492L19.1875 125.362L18.9082 124.952C18.0182 123.66 17.4634 121.5 18.1188 119.866C18.5061 118.905 19.2582 118.261 20.245 118.056C20.852 117.929 21.5334 117.978 22.2744 118.19C22.7585 118.332 23.3096 118.54 23.9464 118.778C26.2737 119.657 29.7889 120.983 33.7136 120.275L37.0017 119.683L35.0467 122.394C33.7844 124.141 32.5295 125.634 29.9415 126.17H29.9378Z" fill="#380176"/>
<path d="M33.9545 121.605C32.6512 123.415 31.4783 124.796 28.5515 124.997C24.5634 125.273 22.493 124.856 20.0205 124.189C19.0895 122.834 18.7693 120.454 19.9311 119.632C20.3668 119.322 21.0072 119.233 21.9009 119.49C24.0793 120.123 28.5961 122.573 33.9545 121.605Z" fill="white"/>
<g style="mix-blend-mode:multiply" opacity="0.6">
<path d="M33.9545 121.605C32.6512 123.415 31.4783 124.796 28.5515 124.997C24.5634 125.273 22.493 124.856 20.0205 124.189C19.0895 122.834 18.7693 120.454 19.9311 119.631C20.4561 120.663 22.3887 125.09 33.9545 121.605Z" fill="#ADA3BC"/>
</g>
<path d="M39.6399 158.578C37.3164 159.058 34.963 158.626 33.0155 157.356C32.0362 156.72 31.4627 155.889 31.31 154.888C30.9675 152.661 32.8516 150.374 34.8475 147.954C36.4227 146.044 38.3813 143.668 37.9643 142.45C37.8749 142.193 37.8004 141.97 36.7206 142.193C35.6519 142.413 34.2145 143.009 32.55 143.698C30.26 144.644 27.4113 145.824 24.3914 146.45C22.8051 146.777 21.3343 146.926 19.8969 146.908C13.8012 146.818 8.84869 144.67 6.97195 141.292C5.96283 139.471 5.97772 137.52 7.02036 135.796C7.76882 134.556 9.13169 133.748 11.1909 133.32C11.9245 133.167 12.7176 133.07 13.5443 133.011C11.7755 132.076 10.4164 130.736 10.0552 128.803C9.42587 125.448 11.1053 122.849 14.3411 122.179C15.6221 121.914 17.0334 121.97 18.4223 122.346C18.7388 122.432 19.0405 122.517 19.3346 122.596C19.6921 122.692 20.0347 122.789 20.3698 122.879C22.6599 123.497 24.5813 123.914 28.4577 123.646C28.7928 123.623 29.1056 123.582 29.3923 123.523C31.0457 123.18 31.8053 122.268 32.8591 120.812L33.1309 120.436C34.0172 119.2 35.0188 117.799 36.6796 116.414C38.6904 114.735 40.3884 113.819 42.1758 113.446C44.3877 112.988 46.7559 113.361 50.3605 114.724C53.8794 116.057 56.3966 117.349 58.2845 118.79C60.9507 120.819 62.2949 123.158 62.28 125.735C62.2726 127.157 62.6487 128.282 62.9801 129.276C63.3785 130.468 63.7546 131.596 63.129 132.683C62.5183 133.744 61.2262 134.132 60.1724 134.351C59.9341 134.4 59.6697 134.448 59.3904 134.493C59.3234 134.504 59.2564 134.515 59.1931 134.53C55.5848 135.279 52.9633 140.998 52.2596 143.139C48.5247 155.066 42.7492 157.93 39.6362 158.578H39.6399Z" fill="#380176"/>
<path d="M59.1863 133.16C58.1921 133.316 57.2835 133.744 56.4643 134.336C52.871 136.935 50.9793 142.718 50.9793 142.718C46.5109 156.991 38.4751 159.304 33.7498 156.224C32.3385 155.304 32.3906 154.042 33.1242 152.616C34.8371 149.265 40.2625 144.997 39.2422 142.014C37.7863 137.758 29.2739 145.697 19.92 145.559C10.5698 145.425 5.83693 140.38 8.17914 136.496C8.46586 136.019 8.89409 135.643 9.4303 135.349C13.1801 133.275 22.2026 135.074 25.0512 133.86C25.122 133.83 25.189 133.796 25.256 133.759C25.256 133.759 12.4316 134.131 11.3815 128.561C11.1655 127.406 11.2698 126.453 11.6124 125.697C12.5843 123.53 15.4627 122.949 18.0693 123.657C18.7693 123.847 19.4098 124.025 20.0205 124.193C22.493 124.859 24.5634 125.276 28.5515 125.001C31.4783 124.8 32.6476 123.415 33.9546 121.609C34.8669 120.346 35.8462 118.872 37.5442 117.457C41.6589 114.023 44.4107 113.919 49.8808 115.997C55.3547 118.071 60.9551 121.009 60.9328 125.738C60.9067 130.467 64.5373 132.337 59.1863 133.163V133.16Z" fill="white"/>
<g style="mix-blend-mode:multiply" opacity="0.6">
<path d="M25.0518 133.856C25.1226 133.826 25.1896 133.793 25.2566 133.759C25.2566 133.759 12.4322 134.131 11.3821 128.561C11.1662 127.406 11.2704 126.453 11.613 125.697C12.421 127.797 15.1803 133.569 31.6502 132.739C31.6502 132.739 29.0399 133.547 25.0556 133.856H25.0518Z" fill="#ADA3BC"/>
</g>
<g style="mix-blend-mode:multiply" opacity="0.6">
<path d="M56.4635 134.34C52.8701 136.939 50.9785 142.722 50.9785 142.722C46.51 156.995 38.4743 159.307 33.7489 156.228C32.3376 155.308 32.3898 154.046 33.1233 152.619C33.5776 154.634 37.8971 158.142 42.7491 153.725C47.6048 149.305 49.3363 139.058 49.3363 139.058L53.3505 131.13L56.4635 134.343V134.34Z" fill="#ADA3BC"/>
</g>
<path d="M21.3508 134.321C26.24 134.321 28.8801 133.77 31.6506 132.739C31.6506 132.739 25.1229 134.284 20.9375 133.562L21.3508 134.321Z" fill="#380176"/>
<g style="mix-blend-mode:multiply" opacity="0.6">
<path d="M39.2422 142.015C37.7863 137.758 29.2739 145.697 19.92 145.559C10.5698 145.425 5.83693 140.38 8.17914 136.496C8.46586 136.019 8.89409 135.643 9.4303 135.349C8.68929 138.22 10.6591 143.485 19.8492 142.804C29.0393 142.123 32.5694 139.304 35.1015 139.382C37.6336 139.456 39.205 140.648 39.2422 142.018V142.015Z" fill="#ADA3BC"/>
</g>
<path d="M51.6902 135.808C45.4641 135.532 39.2753 132.4 34.267 126.99C29.266 121.591 25.7323 114.214 24.3173 106.215C22.7272 97.2301 23.8816 88.3007 27.568 81.073C31.3104 73.7299 37.2124 69.0082 44.1832 67.772C45.654 67.5113 47.1584 67.4145 48.6553 67.4815C54.8814 67.7571 61.0701 70.8887 66.0785 76.2992C71.0794 81.6986 74.6132 89.0752 76.0282 97.0737C77.6183 106.059 76.4639 114.988 72.7775 122.216C69.0351 129.559 63.1331 134.281 56.1623 135.517C54.6915 135.778 53.1871 135.875 51.6902 135.808Z" fill="#380176"/>
<path d="M55.9553 134.303C69.566 131.895 78.0135 115.321 74.8232 97.2838C71.633 79.2461 58.0131 66.5752 44.4023 68.9825C30.7915 71.3898 22.344 87.9637 25.5343 106.001C28.7246 124.039 42.3445 136.71 55.9553 134.303Z" fill="#2C80BC"/>
<g style="mix-blend-mode:multiply" opacity="0.6">
<path d="M55.9553 134.303C69.566 131.895 78.0135 115.321 74.8232 97.2838C71.633 79.2461 58.0131 66.5752 44.4023 68.9825C30.7915 71.3898 22.344 87.9637 25.5343 106.001C28.7246 124.039 42.3445 136.71 55.9553 134.303Z" fill="#ADA3BC"/>
</g>
<g style="mix-blend-mode:multiply" opacity="0.6">
<path d="M29.6054 102.082C27.5723 90.5828 30.2682 79.6798 36.0176 72.6606C27.5574 78.9835 23.0629 92.0537 25.528 106.003C28.7155 124.04 42.3367 136.712 55.9469 134.303C60.8808 133.431 65.1332 130.694 68.4026 126.706C65.9226 128.561 63.1038 129.834 60.0206 130.382C46.4105 132.787 32.7892 120.115 29.6017 102.082H29.6054Z" fill="#ADA3BC"/>
</g>
<path d="M101.078 155.159C88.4323 154.597 76.3116 150.449 66.0268 143.169C56.01 136.079 48.1866 126.375 43.4016 115.107C39.5476 106.036 37.8161 96.407 38.2592 86.4833C39.0412 68.9224 46.6152 52.7131 59.5885 40.8494C72.5582 28.9857 89.3744 22.8789 106.939 23.6646C120.761 24.279 133.798 29.1086 144.641 37.6321C155.254 45.9732 162.955 57.1667 166.917 70.0022C169.143 77.215 170.1 84.7295 169.762 92.3407C168.98 109.902 161.406 126.111 148.432 137.975C135.463 149.838 118.646 155.945 101.082 155.159H101.078Z" fill="#380176"/>
<path d="M168.528 92.2851C168.107 101.714 165.687 110.583 161.688 118.5C150.587 140.485 127.336 155.1 101.133 153.935C75.4578 152.791 53.9535 136.806 44.5325 114.631C40.8796 106.033 39.0438 96.5003 39.4869 86.5432C39.6657 82.5179 40.2093 78.5968 41.0881 74.8061C42.7303 67.6827 45.5491 61.0284 49.3138 55.0481C61.278 36.0424 82.8382 23.8249 106.878 24.8974C111.764 25.1133 116.497 25.8693 121.025 27.1018C126.562 28.6099 131.786 30.8292 136.608 33.6518C145.162 38.6602 152.434 45.5713 157.874 53.7821C161.241 58.8612 163.903 64.4393 165.731 70.3674C167.861 77.2712 168.859 84.6553 168.52 92.2888L168.528 92.2851Z" fill="url(#paint0_radial_3115_162532)"/>
<path d="M168.527 92.2847C168.061 102.771 165.119 112.56 160.286 121.117C156.078 128.58 150.433 135.096 143.749 140.32C132.046 149.466 117.136 154.645 101.131 153.93C75.4566 152.787 53.9522 136.801 44.5312 114.627C84.803 113.983 129.204 105.176 164.766 71.2719C165.093 70.9591 165.414 70.6575 165.734 70.3633C167.864 77.267 168.862 84.6511 168.523 92.2847H168.527Z" fill="url(#paint1_radial_3115_162532)"/>
<g style="mix-blend-mode:multiply">
<path d="M169.816 76.7308L170.721 75.8967L166.554 71.3724L165.783 70.5346C165.765 70.4787 165.75 70.4192 165.731 70.3633C163.903 64.4352 161.237 58.8571 157.874 53.7779C152.434 45.5672 145.162 38.656 136.608 33.6476C131.79 30.8214 126.562 28.602 121.025 27.0977C128.662 33.454 135.484 42.0036 138.761 53.4167C138.761 53.4167 131.73 62.9233 130.218 75.785C129.779 79.5124 129.57 84.6735 130.866 90.2255C128.524 91.499 126.126 92.7167 123.683 93.871C121.419 92.0315 118.567 90.8771 115.428 90.7356C108.226 90.4154 102.049 95.5541 100.891 102.488C84.0371 107.414 65.4968 109.98 44.3499 110.315L43.1211 110.333L43.3185 122.637L44.5473 122.618C66.8113 122.264 86.4202 119.535 104.339 114.295C106.778 116.995 110.252 118.753 114.173 118.928C121.959 119.274 128.55 113.245 128.896 105.459C128.904 105.306 128.904 105.158 128.904 105.009C131.254 103.899 133.562 102.73 135.83 101.519C140.418 108.177 148.319 114.418 161.684 118.496C165.683 110.583 168.103 101.713 168.524 92.281C168.729 87.6487 168.442 83.1095 167.705 78.7118C168.111 78.332 168.517 77.9559 168.919 77.5724C169.224 77.2857 169.522 77.0027 169.82 76.7308H169.816Z" fill="#ADA3BC"/>
</g>
<path d="M160.287 121.114C156.079 128.577 150.434 135.093 143.75 140.317C148.192 127.564 137.059 112.226 137.059 112.226L151.19 99.1035C161.534 111.466 160.339 120.954 160.287 121.114Z" fill="#380176"/>
<g style="mix-blend-mode:multiply">
<path d="M58.4556 106.215C54.8027 97.617 52.9669 88.0844 53.41 78.1272C54.2776 58.6486 63.6874 41.568 77.8635 30.3447C56.173 39.9668 40.6154 61.2216 39.4908 86.5353C39.0477 96.4925 40.8835 106.025 44.5364 114.623C53.9574 136.798 75.4618 152.784 101.137 153.927C117.29 154.645 132.319 149.369 144.075 140.063C135.235 143.985 125.374 145.977 115.056 145.519C89.3809 144.376 67.8766 128.39 58.4556 106.215Z" fill="#ADA3BC"/>
</g>
<path d="M43.2068 108.494L44.4357 108.476C67.0906 108.114 86.7555 105.199 104.558 99.5574C114.877 96.288 124.644 92.0355 133.588 86.9191C143.304 81.3634 152.363 74.6012 160.526 66.8186C160.883 66.4761 161.229 66.1558 161.568 65.8393L162.473 65.0015L166.644 69.5295L170.811 74.0538L169.906 74.8879C169.608 75.1634 169.31 75.4427 169.005 75.7294C160.131 84.1897 150.271 91.544 139.695 97.595C129.999 103.143 119.423 107.75 108.271 111.283C89.3174 117.29 68.4982 120.395 44.6293 120.775L43.4005 120.794L43.2031 108.491L43.2068 108.494Z" fill="#380176"/>
<path d="M169.074 73.9832C168.773 74.2625 168.471 74.5455 168.162 74.8359C159.363 83.2254 149.581 90.5239 139.091 96.5265C129.465 102.034 118.976 106.603 107.905 110.111C89.0669 116.08 68.3632 119.167 44.6134 119.546L44.5352 114.627L44.457 109.708C67.2349 109.347 87.0152 106.409 104.93 100.734C115.334 97.4388 125.179 93.1491 134.198 87.988C143.999 82.3801 153.141 75.5583 161.374 67.7125C161.727 67.3774 162.066 67.0571 162.405 66.748L165.738 70.3675L169.071 73.9869L169.074 73.9832Z" fill="white"/>
<path d="M169.07 73.9827C168.769 74.262 168.467 74.545 168.158 74.8354C159.359 83.2249 149.577 90.5234 139.087 96.526C129.461 102.033 118.972 106.602 107.901 110.11C89.0629 116.079 68.3592 119.166 44.6094 119.546L44.5312 114.627C84.803 113.983 129.204 105.176 164.766 71.2719C165.093 70.9591 165.414 70.6575 165.734 70.3633L169.067 73.9827H169.07Z" fill="#455393"/>
<path d="M44.5383 115.036L44.5234 114.217C67.7481 113.848 87.9492 110.843 106.288 105.031C116.998 101.638 127.141 97.2222 136.435 91.901C146.553 86.1107 155.989 79.0729 164.482 70.9738C164.814 70.661 165.134 70.3557 165.454 70.0615L166.009 70.6648C165.693 70.9552 165.372 71.2568 165.045 71.5659C156.502 79.7096 147.014 86.7884 136.838 92.6122C127.491 97.9595 117.296 102.402 106.53 105.809C88.113 111.644 67.8338 114.66 44.5309 115.033L44.5383 115.036Z" fill="#380176"/>
<path d="M114.863 117.513C122.655 117.513 128.972 111.196 128.972 103.404C128.972 95.6113 122.655 89.2944 114.863 89.2944C107.071 89.2944 100.754 95.6113 100.754 103.404C100.754 111.196 107.071 117.513 114.863 117.513Z" fill="#380176"/>
<path d="M114.861 115.475C121.529 115.475 126.934 110.071 126.934 103.403C126.934 96.736 121.529 91.3311 114.861 91.3311C108.194 91.3311 102.789 96.736 102.789 103.403C102.789 110.071 108.194 115.475 114.861 115.475Z" fill="white"/>
<g style="mix-blend-mode:multiply" opacity="0.6">
<path d="M115.838 113.174C109.176 112.876 104.019 107.239 104.317 100.577C104.395 98.8008 104.861 97.1288 105.616 95.6431C103.967 97.6055 102.924 100.104 102.801 102.867C102.503 109.529 107.664 115.166 114.322 115.464C119.204 115.68 123.535 112.966 125.62 108.877C123.289 111.651 119.74 113.353 115.838 113.178V113.174Z" fill="#ADA3BC"/>
</g>
<path d="M61.4966 154.34C47.7561 153.726 33.8183 141.788 27.6109 125.306C24.3229 116.586 23.4255 107.276 25.0788 99.0953C26.7656 90.7542 31.0144 84.0776 37.0393 80.2981C38.7261 79.2406 49.8712 73.413 53.4608 72.389C55.9818 71.6703 58.607 71.3649 61.2657 71.4841C75.5721 72.1209 89.6403 84.8187 95.479 102.361C96.045 104.059 96.5365 105.817 96.935 107.585C98.6479 115.159 98.5846 122.625 96.7525 129.179C94.9763 135.539 91.6399 140.763 87.1081 144.297C84.3042 146.479 73.7885 151.607 71.5989 152.542C69.819 153.305 67.9348 153.834 65.9985 154.117C64.5351 154.329 63.0233 154.403 61.504 154.336L61.4966 154.34Z" fill="#380176"/>
<path d="M86.3534 143.325C83.6835 145.403 73.3428 150.456 71.116 151.413C69.4478 152.128 67.679 152.631 65.8209 152.903C60.6226 153.658 55.1674 152.53 50.0026 149.894C42.6334 146.133 35.86 139.307 31.2948 130.531C30.3527 128.725 29.5074 126.833 28.7664 124.871C22.1643 107.354 25.7837 88.8103 37.6958 81.3406C39.3975 80.2719 50.442 74.5299 53.8008 73.5729C59.8369 71.8526 66.1374 72.7202 72.0022 75.5539C72.0022 75.5539 72.0059 75.5539 72.0097 75.5539C80.0677 79.4489 87.3029 87.0527 91.9017 96.7455C92.814 98.6669 93.6257 100.674 94.3183 102.752C94.8732 104.413 95.3498 106.118 95.7445 107.861C99.2187 123.236 94.9551 136.637 86.3608 143.329L86.3534 143.325Z" fill="#8AFDFD"/>
<g style="mix-blend-mode:multiply">
<path d="M86.3534 143.325C83.6835 145.403 73.3428 150.456 71.116 151.413C69.4478 152.128 67.679 152.631 65.8209 152.903C60.6226 153.658 55.1674 152.53 50.0026 149.894C44.2495 145.727 37.1857 137.799 31.2948 130.531C30.3527 128.725 29.5074 126.833 28.7664 124.871C22.1643 107.354 25.7837 88.8103 37.6958 81.3406C39.3975 80.2719 50.442 74.5299 53.8008 73.5729C59.8369 71.8526 66.1374 72.7202 72.0022 75.5539C64.6032 73.3086 62.153 73.5953 58.5336 73.6362C56.3925 73.6586 52.2964 75.4124 57.5692 76.8759C63.758 78.5962 68.744 83.895 68.744 83.895C68.744 83.895 81.6391 102.882 85.1171 108.066C87.813 112.083 88.5615 117.256 88.8817 120.343C89.4552 125.909 95.0407 124.926 95.6365 116.127C96.0648 109.812 93.4247 101.136 91.9017 96.7455C92.814 98.6669 93.6257 100.674 94.3183 102.752C94.8732 104.413 95.3498 106.118 95.7445 107.861C99.2187 123.236 94.9551 136.637 86.3608 143.329L86.3534 143.325Z" fill="#ADA3BC"/>
</g>
<path d="M61.4973 154.34C47.7569 153.729 33.8228 141.787 27.608 125.306C23.0129 113.118 23.1581 100.104 27.9952 90.4969C31.287 83.9581 36.4629 79.5231 42.9608 77.6687C45.478 76.9501 48.1069 76.6447 50.7656 76.7639C58.429 77.1065 66.2674 80.9456 72.8434 87.5812C79.4269 94.2243 84.2528 103.202 86.4386 112.869C89.0825 124.561 87.4403 135.863 81.9404 143.872C78.0417 149.547 72.3817 153.189 65.9993 154.12C64.5359 154.332 63.024 154.407 61.501 154.34H61.4973Z" fill="#380176"/>
<path d="M65.8202 152.903C51.6776 154.969 35.6099 143.035 28.7657 124.871C21.2215 104.852 27.0267 83.4893 43.303 78.8496C59.2777 74.2955 77.1142 87.8833 83.8131 108.028C84.368 109.689 84.8446 111.395 85.2393 113.137C89.8865 133.696 80.6927 150.732 65.8202 152.899V152.903Z" fill="#50C7C4"/>
<g style="mix-blend-mode:multiply">
<path d="M83.8168 108.032L28.7657 124.871C21.2215 104.852 27.0267 83.4893 43.303 78.8496C59.2777 74.2955 77.1142 87.8833 83.8131 108.028L83.8168 108.032Z" fill="#ADA3BC"/>
</g>
<path d="M60.6719 150.266C48.5401 149.726 36.3226 139.169 30.9642 124.595C27.0692 114.001 27.2889 102.736 31.5526 94.4624C34.4719 88.7912 39.026 84.967 44.7196 83.4105C46.8532 82.8258 49.0726 82.5801 51.3217 82.6806C57.9536 82.9748 64.753 86.274 70.4652 91.9675C76.1811 97.661 80.4112 105.38 82.381 113.699C84.8014 123.939 83.4534 133.874 78.6759 140.956C75.2986 145.965 70.3572 149.197 64.7605 150.053C63.4274 150.258 62.0534 150.329 60.6681 150.269L60.6719 150.266Z" fill="#380176"/>
<path d="M82.1884 126.874C81.0973 138.618 74.283 147.354 64.5827 148.836C52.1418 150.746 38.0104 140.178 32.127 124.174C25.7185 106.743 30.9838 88.4524 45.0482 84.5984C53.2478 82.353 62.0208 85.5963 69.0065 92.258C70.414 93.5986 71.7471 95.0806 72.9908 96.6818C75.5825 100.022 77.7758 103.891 79.3881 108.132C80.1068 110.013 80.7101 111.964 81.1867 113.978C81.7341 116.294 82.0804 118.566 82.2331 120.767C82.3857 122.871 82.3634 124.911 82.1809 126.87L82.1884 126.874Z" fill="#4A6894"/>
<g style="mix-blend-mode:multiply" opacity="0.6">
<path d="M79.3919 108.132C67.2005 115.553 46.0499 127.13 42.8289 120.294C38.2599 110.601 31.6206 111.018 32.127 124.174C25.7185 106.743 30.9838 88.4524 45.0482 84.5984C53.2478 82.353 62.0208 85.5963 69.0065 92.258C70.414 93.5986 71.7471 95.0806 72.9908 96.6818C75.5825 100.022 77.7758 103.891 79.3881 108.132H79.3919Z" fill="#ADA3BC"/>
</g>
<path d="M66.0008 141.631C61.2941 141.422 56.3862 139.177 52.1859 135.315C47.9893 131.457 44.664 126.121 42.8283 120.294C40.1472 111.785 40.7318 102.889 44.3922 96.4993C46.8983 92.124 50.6257 89.2642 55.1612 88.229C56.6171 87.8976 58.1215 87.7598 59.6333 87.8306C62.9995 87.9795 66.4737 89.1562 69.6761 91.2266L69.7729 91.2899L69.8586 91.3681C75.8947 97.1212 80.3445 105.053 82.3888 113.699C83.465 118.246 83.8076 122.714 83.4128 126.989L83.4017 127.09L83.3756 127.19C81.2382 135.282 75.5335 140.789 68.4883 141.556C67.6728 141.645 66.8349 141.672 66.0008 141.634V141.631Z" fill="#380176"/>
<path d="M82.1815 126.873C80.2005 134.377 75.0469 139.601 68.3517 140.331C58.6142 141.392 48.0092 132.645 43.995 119.925C39.6271 106.077 44.3637 91.9564 55.4305 89.4317C60.0404 88.3779 64.777 89.5285 69.0034 92.2617C74.641 97.6387 79.1169 105.243 81.1836 113.986C82.256 118.521 82.5502 122.874 82.1778 126.877L82.1815 126.873Z" fill="url(#paint2_linear_3115_162532)"/>
<g style="mix-blend-mode:multiply" opacity="0.6">
<g style="mix-blend-mode:multiply" opacity="0.6">
<path d="M45.2789 118.749C42.0467 108.498 43.8043 98.101 49.4196 92.3628C42.7989 97.7622 40.5274 108.926 43.9942 119.922C48.0046 132.642 58.6134 141.389 68.3509 140.328C71.7953 139.952 74.8264 138.388 77.2319 135.937C75.0647 137.71 72.4917 138.842 69.6356 139.155C59.8981 140.216 49.293 131.469 45.2789 118.749Z" fill="#ADA3BC"/>
</g>
</g>
<path d="M82.2343 120.768C81.1358 127.757 76.7791 132.769 70.9143 133.409C63.2472 134.247 54.895 127.358 51.7373 117.345C48.3003 106.439 52.0277 95.3235 60.7374 93.3313C64.9452 92.3706 69.2908 93.7409 72.9847 96.6826C76.7233 101.501 79.6315 107.422 81.1843 113.983C81.7316 116.299 82.0779 118.571 82.2306 120.771L82.2343 120.768Z" fill="url(#paint3_linear_3115_162532)"/>
<g opacity="0.4">
<path opacity="0.4" d="M76.9534 112.005C78.1599 118.42 75.1511 123.645 70.5226 124.148C66.0914 124.632 61.2617 120.651 59.4371 114.861C57.4487 108.556 59.6047 102.129 64.6428 100.979C69.9491 99.7685 75.6315 104.967 76.9571 112.005H76.9534Z" fill="url(#paint4_linear_3115_162532)"/>
</g>
<g style="mix-blend-mode:screen" opacity="0.8">
<path style="mix-blend-mode:screen" opacity="0.8" d="M72.2895 102.499C71.6304 105.828 69.1653 107.768 66.8342 107.116C64.6038 106.49 63.0435 103.634 63.2818 100.488C63.5425 97.0619 65.8288 94.3771 68.4801 94.7979C71.2766 95.241 73.0119 98.8493 72.2895 102.502V102.499Z" fill="url(#paint5_linear_3115_162532)"/>
</g>
<g style="mix-blend-mode:screen" opacity="0.6">
<path style="mix-blend-mode:screen" opacity="0.6" d="M68.4363 129.295C68.0453 131.268 66.5856 132.415 65.2041 132.028C63.8822 131.659 62.9587 129.965 63.1002 128.099C63.2566 126.07 64.6083 124.48 66.1797 124.726C67.8368 124.986 68.8645 127.128 68.4363 129.291V129.295Z" fill="url(#paint6_linear_3115_162532)"/>
</g>
<path d="M98.8083 87.5442C97.4342 87.4846 96.2389 87.1756 95.2484 86.6319H95.2298L94.9542 86.4606C93.3046 85.4329 92.3551 83.7684 92.2099 81.6422C91.9231 77.4009 94.9952 71.968 100.037 67.7974C103.519 64.919 108.002 63.4482 112.668 63.6567C117.121 63.854 121.132 65.5632 123.128 68.1177C123.798 68.9741 124.249 69.8529 124.457 70.7243C124.826 72.2212 124.498 73.6548 123.511 74.8576C121.638 77.1402 117.553 78.3169 112.31 78.0823C109.719 77.9669 108.233 80.0186 106.513 82.3906C104.748 84.8259 102.748 87.5889 99.2067 87.5517C99.0726 87.5517 98.9386 87.5479 98.8083 87.5405V87.5442Z" fill="#380176"/>
<path d="M112.371 76.8536C106.011 76.5706 105.173 86.3825 99.2263 86.323C97.7257 86.3081 96.5229 85.9841 95.6143 85.4144C91.3544 82.7631 93.462 74.8428 100.831 68.7434C108.286 62.5807 118.854 64.6361 122.168 68.8737C122.741 69.6036 123.106 70.3222 123.27 71.0111C124.13 74.5077 119.904 77.1887 112.371 76.8536Z" fill="#7C96CC"/>
<g style="mix-blend-mode:multiply">
<path d="M112.366 76.8534C106.006 76.5704 105.168 86.3824 99.2214 86.3228C97.7207 86.3079 96.518 85.9839 95.6094 85.4142C99.2214 86.3228 99.132 84.029 102.733 79.0765C106.334 74.1202 111.659 72.7722 115.673 73.2303C119.691 73.692 122.163 68.8735 122.163 68.8735L123.265 71.0109C124.125 74.5075 119.899 77.1885 112.366 76.8534Z" fill="#ADA3BC"/>
</g>
<g style="mix-blend-mode:screen" opacity="0.8">
<path style="mix-blend-mode:screen" opacity="0.8" d="M117.511 50.1892C122.097 50.1892 125.815 46.4715 125.815 41.8854C125.815 37.2993 122.097 33.5815 117.511 33.5815C112.925 33.5815 109.207 37.2993 109.207 41.8854C109.207 46.4715 112.925 50.1892 117.511 50.1892Z" fill="url(#paint7_linear_3115_162532)"/>
</g>
<path d="M161.7 115.382C148.686 114.802 137.198 102.841 134.387 86.9409C132.849 78.2386 134.1 69.5661 137.91 62.5246C141.771 55.39 147.792 50.7726 154.864 49.5215C156.431 49.2459 158.029 49.1416 159.619 49.2124C172.633 49.7933 184.121 61.7538 186.932 77.654C188.47 86.3563 187.219 95.0288 183.409 102.07C179.548 109.205 173.527 113.822 166.455 115.073C164.888 115.349 163.29 115.453 161.7 115.382Z" fill="#380176"/>
<path d="M166.251 113.853C180.091 111.405 188.811 95.2894 185.728 77.8573C182.644 60.4251 168.926 48.2779 155.086 50.7256C141.247 53.1734 132.527 69.2893 135.61 86.7214C138.693 104.154 152.412 116.301 166.251 113.853Z" fill="#2C80BC"/>
<path d="M185.727 77.8664C182.643 60.432 168.925 48.2853 155.084 50.7318C152.266 51.2307 149.663 52.2957 147.324 53.8224C149.324 52.7016 151.498 51.9085 153.818 51.4989C167.659 49.0524 181.377 61.1991 184.461 78.6334C186.915 92.5191 181.884 105.567 172.738 111.54C182.677 105.977 188.289 92.3813 185.723 77.8701L185.727 77.8664Z" fill="#46A7E0"/>
<g style="mix-blend-mode:multiply">
<path d="M170.361 108.915C156.52 111.361 142.802 99.2146 139.719 81.7803C138.021 72.1657 139.909 62.9533 144.269 56.2134C137.097 62.8751 133.433 74.4781 135.6 86.7291C138.684 104.163 152.402 116.31 166.243 113.864C172.45 112.765 177.626 108.919 181.171 103.437C178.136 106.256 174.476 108.192 170.361 108.919V108.915Z" fill="#ADA3BC"/>
</g>
<path d="M170.866 105.727C160.86 105.28 151.979 95.7961 149.745 83.1764C148.535 76.3248 149.443 69.5105 152.307 63.9845C155.226 58.3506 159.821 54.7162 165.243 53.7592C166.405 53.5544 167.589 53.4762 168.769 53.5284C178.775 53.9752 187.656 63.4595 189.89 76.0791C191.1 82.9307 190.192 89.745 187.332 95.271C184.413 100.905 179.818 104.539 174.396 105.496C173.234 105.701 172.05 105.779 170.869 105.727H170.866Z" fill="#380176"/>
<path d="M174.175 104.271C184.59 102.429 191.08 89.8958 188.672 76.2769C186.263 62.658 175.867 53.1111 165.452 54.9532C155.037 56.7953 148.546 69.3288 150.955 82.9477C153.364 96.5666 163.76 106.114 174.175 104.271Z" fill="#6DB1FD"/>
<path d="M164.948 55.2678C175.311 53.4357 185.875 63.8658 189.014 78.7568C188.932 77.9414 188.82 77.1184 188.675 76.2918C186.266 62.6742 175.873 53.1266 165.454 54.9661C159.336 56.046 154.574 60.8161 152.172 67.3288C154.682 60.8719 159.195 56.2843 164.948 55.2678Z" fill="#94CCFF"/>
<g style="mix-blend-mode:multiply">
<path d="M176.179 102.134C165.764 103.977 155.367 94.4295 152.958 80.8082C151.454 72.2884 153.427 64.1968 157.669 58.8794C152.076 63.9846 149.223 73.1933 150.951 82.9605C153.36 96.5781 163.753 106.126 174.172 104.286C178.075 103.597 181.422 101.408 183.962 98.224C181.757 100.238 179.125 101.616 176.179 102.134Z" fill="#ADA3BC"/>
</g>
<path d="M175.605 71.6145C175.341 70.9777 174.857 70.367 174.068 69.7005C173.412 69.1457 172.772 68.8478 172.329 68.8999C172.239 68.9111 172.161 68.9334 172.087 68.9707C171.9 69.0637 171.785 69.3393 171.777 69.7303C171.763 70.192 171.897 70.7878 172.09 71.1267C172.154 71.2309 172.232 71.3575 172.317 71.4693C172.217 71.6368 172.128 71.7672 172.049 71.8677C171.424 71.648 170.78 71.5772 170.139 71.6927C166.963 72.2661 165.507 76.8835 167.205 81.5195C168.754 85.7534 172.131 87.6189 174.567 86.1816C176.719 84.9118 177.598 81.3259 176.693 77.8368C176.343 76.4962 175.773 75.286 175.062 74.303C175.025 74.0274 174.998 73.737 174.984 73.4316C175.095 73.454 175.2 73.454 175.296 73.4316C175.55 73.3683 175.721 73.1338 175.769 72.7763C175.821 72.4188 175.769 71.9831 175.609 71.6182L175.605 71.6145Z" fill="#0087FD"/>
<path d="M38.8112 73.7108C37.0685 61.9738 39.716 49.6558 40.9337 44.9081C44.4004 31.3985 52.1234 20.0784 63.2721 12.173C68.6193 8.37859 74.581 5.51507 80.9895 3.66067C87.4724 1.78392 94.257 0.990775 101.15 1.29612C103.097 1.38176 105.074 1.5605 107.022 1.82488C115.598 2.98668 123.778 5.8502 131.338 10.3373C140.729 15.9154 149.252 24.0665 156.674 34.5636C160.397 39.8327 162.911 47.7827 162.788 50.5718C162.624 54.2769 156.506 57.416 153.933 57.941C152.842 58.1644 151.647 58.2538 150.474 58.2017C146.795 58.0378 144.155 56.5372 143.231 54.087C141.101 48.4121 137.545 40.1231 131.293 33.6476C125.67 27.8237 119.399 23.4037 112.652 20.5067C107.007 18.0825 101.023 16.7159 94.864 16.4404C86.4 16.0643 79.7904 17.8479 76.6067 18.9427C70.3732 21.0876 64.46 25.2246 59.9655 30.5904C54.8268 36.7234 51.6728 44.275 50.8461 52.4299L50.8126 52.7427L50.6339 53.0034C49.1109 55.2264 47.7108 57.5761 46.4782 59.9853C44.8845 63.102 43.8121 66.2821 42.6801 69.6483C42.2072 71.0596 41.7156 72.5155 41.1869 73.9566L39.6825 77.5202L38.8149 73.7146L38.8112 73.7108Z" fill="#380176"/>
<path d="M161.564 50.516C161.437 53.3832 155.956 56.2728 153.692 56.7346C150.56 57.3713 145.623 56.9394 144.39 53.6513C141.917 47.0716 138.298 39.1215 132.184 32.7912C111.435 11.298 87.436 13.9158 76.2091 17.781C63.9842 21.9887 51.4688 34.1243 49.6219 52.3071C48.0542 54.5934 46.6429 56.9692 45.3843 59.4231C43.0458 63.9883 41.7798 68.7733 40.0334 73.5322C38.637 64.1336 40.0408 53.3609 42.1335 45.2172C43.4741 39.9928 45.4551 35.1632 47.9835 30.7729C58.2311 12.9513 77.3821 2.4021 98.4619 2.46168C101.236 2.46912 104.04 2.65903 106.866 3.04257C121.415 5.01241 139.65 12.6013 155.677 35.2749C159.277 40.3689 161.675 48.0248 161.564 50.5197V50.516Z" fill="#2C80BC"/>
<path d="M165.332 134.355C163.902 134.292 162.476 134.128 161.094 133.867C155.758 132.866 151.554 130.509 148.936 127.053C146.896 124.357 145.879 120.976 146.222 118.019C146.542 115.256 147.972 113.521 149.863 113.607C150.009 113.614 150.154 113.633 150.299 113.659C151.789 113.961 153.241 114.541 154.779 115.16C157.382 116.202 160.331 117.386 164.36 117.565C167.052 117.684 169.89 117.353 173.04 116.549C181.392 114.415 183.809 110.092 186.609 105.083C187.92 102.737 189.275 100.313 191.312 97.8854C194.123 94.5303 198.521 92.3855 202.252 92.5493C204.598 92.6536 206.452 93.6776 207.469 95.4277C209.502 98.9317 207.611 104.175 205.667 107.958C201.776 115.532 195.725 122.339 188.627 127.131C181.12 132.199 173.066 134.698 165.332 134.355Z" fill="#380176"/>
<path d="M150.053 114.865C145.927 114.035 144.553 129.51 161.317 132.661C178.078 135.811 196.234 123.616 204.568 107.399C212.902 91.1823 198.655 91.0333 192.25 98.6781C185.845 106.323 186.113 114.481 173.341 117.743C160.569 121.005 155.322 115.926 150.053 114.865Z" fill="white"/>
<g style="mix-blend-mode:multiply">
<path d="M192.25 98.6783C187.86 103.918 186.605 109.403 182.133 113.383C186.966 115.003 184.482 125.63 168.474 126.371C152.466 127.112 153.14 119.721 158.133 117.706C154.942 116.72 152.499 115.36 150.053 114.869C145.927 114.039 144.553 129.514 161.317 132.664C178.078 135.815 196.234 123.62 204.568 107.403C212.902 91.1862 198.655 91.0373 192.25 98.682V98.6783Z" fill="#ADA3BC"/>
</g>
<path d="M204.261 118.045C202.023 118.187 199.148 117.438 195.465 115.748C189.429 112.977 182.954 107.239 182.849 102.06C182.782 98.7008 184.629 96.7794 186.335 95.8521C185.366 94.318 183.966 91.6146 183.616 88.3526C183.207 84.5545 184.302 81.6053 185.18 79.237C185.813 77.5316 186.312 76.1873 185.88 75.4053C185.415 74.56 183.732 73.8265 180.876 73.2195C173.641 71.6816 169.232 68.8404 168.468 65.2173C168.044 63.1953 168.573 60.0376 173.525 56.4703C176.474 54.3478 179.517 53.1711 182.577 52.9738C186.156 52.7466 189.734 53.8824 192.926 56.2618C195.514 58.1907 197.807 60.9499 199.211 63.8284C200.544 66.5541 204.473 66.4945 209.019 66.4275C213.76 66.3567 219.129 66.2785 222.246 69.8868C227.805 76.3251 233.417 85.0497 227.414 95.4314C224.305 100.808 220.328 102.577 217.13 103.996C214.43 105.195 212.475 106.063 211.76 108.68C210.542 113.126 209.284 117.725 204.261 118.045Z" fill="#380176"/>
<path d="M226.354 94.813C220.805 104.413 212.408 101.661 210.576 108.352C208.744 115.044 207.314 119.829 195.979 114.627C190.476 112.102 184.179 106.751 184.082 102.033C183.985 97.3153 188.245 96.4253 188.245 96.4253C188.167 96.3248 185.769 93.3644 185.006 89.2833C184.939 88.937 184.886 88.5795 184.845 88.2183C183.829 78.7973 193.012 74.5337 181.14 72.009C170.725 69.7972 166.786 64.9564 171.671 59.6911C172.356 58.9575 173.216 58.209 174.252 57.4606C178.668 54.2805 182.842 53.6661 186.473 54.5114C189.31 55.1705 191.816 56.7195 193.846 58.6261C195.704 60.3725 197.163 62.4205 198.113 64.3606C199.074 66.323 200.958 67.1422 203.285 67.4661C204.171 67.5927 205.125 67.6449 206.112 67.6635C211.492 67.7603 217.994 66.8294 221.323 70.6834C226.871 77.1068 231.906 85.2096 226.357 94.8092L226.354 94.813Z" fill="white"/>
<g style="mix-blend-mode:multiply" opacity="0.6">
<path d="M203.274 67.4701C201.207 69.4287 194.892 74.9808 195.957 68.5983C197.185 61.2552 191.481 56.6788 186.465 54.519C189.302 55.1781 191.808 56.7272 193.838 58.6337C195.696 60.3801 197.156 62.4282 198.105 64.3682C199.066 66.3306 200.95 67.1498 203.277 67.4738L203.274 67.4701Z" fill="#ADA3BC"/>
</g>
<g style="mix-blend-mode:multiply" opacity="0.6">
<path d="M221.317 70.6871C217.988 66.8293 211.486 67.764 206.105 67.6671L194.033 73.424C194.033 73.424 192.707 79.5048 193.784 84.0216C194.863 88.5385 199.898 86.4346 199.898 86.4346C200.49 92.9622 206.269 92.4037 206.269 92.4037C206.169 94.0532 207.222 97.6839 209.732 98.3467C212.242 99.0095 218.364 98.41 215.478 101.471C212.592 104.532 204.363 105.723 204.363 105.723C209.062 113.074 198.237 111.406 193.117 108.445C187.997 105.485 188.053 99.933 189.702 98.41L189.527 97.7434C191.531 99.5196 195.485 101.959 198.561 97.2109C200.773 93.7963 200.583 90.3035 200.583 90.3035C200.583 90.3035 198.174 97.6243 193.378 96.5146C190.574 95.8667 186.854 91.9047 187.517 85.1797C187.855 81.7613 190.987 75.9412 189.635 73.3346C188.28 70.7243 183.875 70.0056 176.978 68.1847C170.082 66.3638 170.667 62.629 171.661 59.7021C166.772 64.9675 170.715 69.812 181.127 72.0201C192.998 74.5411 183.819 78.8047 184.832 88.2257C184.869 88.5906 184.925 88.9443 184.992 89.2906C184.992 89.2906 184.996 89.3167 184.999 89.3279C185.018 89.4321 185.04 89.5364 185.063 89.6369C185.066 89.6593 185.074 89.6854 185.078 89.7077C185.1 89.812 185.122 89.9162 185.148 90.0168C185.152 90.0354 185.159 90.0577 185.163 90.0763C185.189 90.1806 185.215 90.2886 185.245 90.3929C185.245 90.404 185.253 90.4189 185.256 90.4301C185.48 91.253 185.759 92.0164 186.057 92.7015C186.061 92.7127 186.068 92.7239 186.072 92.7351C186.109 92.8207 186.146 92.9064 186.183 92.9883C186.191 93.0069 186.198 93.0218 186.206 93.0404C186.243 93.1186 186.28 93.1968 186.318 93.275C186.325 93.2936 186.336 93.3122 186.344 93.3346C186.381 93.409 186.414 93.4835 186.452 93.558C186.463 93.5766 186.47 93.5952 186.481 93.6176C186.519 93.6883 186.552 93.7628 186.589 93.8298C186.597 93.8484 186.608 93.8671 186.615 93.882C186.653 93.9527 186.69 94.0235 186.727 94.0905C186.735 94.1054 186.742 94.1203 186.749 94.1314C186.787 94.2022 186.824 94.273 186.865 94.34L186.88 94.366C187.137 94.8278 187.383 95.2225 187.595 95.5353L187.602 95.5465C187.636 95.5949 187.666 95.6395 187.695 95.6842C187.699 95.6917 187.703 95.6991 187.71 95.7029C187.74 95.7438 187.766 95.7848 187.792 95.822L187.807 95.8444C187.833 95.8816 187.855 95.9151 187.881 95.9486L187.9 95.971C187.922 96.0045 187.945 96.0343 187.967 96.0603L187.982 96.0827C188.004 96.1125 188.023 96.1385 188.042 96.1609L188.053 96.1758C188.071 96.2018 188.09 96.2242 188.105 96.2465L188.112 96.254C188.183 96.347 188.228 96.4029 188.239 96.4178C188.239 96.4178 183.983 97.3078 184.076 102.026C184.173 106.744 190.473 112.095 195.973 114.619C207.308 119.821 208.738 115.036 210.57 108.345C212.402 101.653 220.795 104.405 226.347 94.8054C231.896 85.2058 226.861 77.103 221.313 70.6796L221.317 70.6871Z" fill="#ADA3BC"/>
</g>
<path d="M212.523 96.3692C210.616 96.4921 209.004 95.6952 208.103 94.1834C206.956 92.262 207.135 89.4469 208.553 87.1754L208.609 87.0861L209.097 86.5424C212.966 82.2192 214.415 80.6031 220.372 79.7913C220.849 79.728 221.322 79.6796 221.78 79.6498C223.184 79.5605 224.245 79.6498 225.098 79.7243C225.653 79.7727 226.088 79.81 226.461 79.7839C226.744 79.7653 226.967 79.7131 227.187 79.6089L228.821 78.8418L228.896 79.985C232.344 82.074 232.925 84.4087 232.78 86.0397C232.515 89.0559 229.51 91.8822 224.934 93.4201C220.283 94.984 218.645 95.2782 216.168 95.725C215.401 95.8628 214.53 96.0192 213.458 96.2389C213.141 96.3022 212.824 96.3469 212.523 96.3655V96.3692Z" fill="#380176"/>
<path d="M224.544 92.2587C218.512 94.2881 217.678 94.1354 213.217 95.0365C208.756 95.9377 207.43 91.298 209.598 87.8275C209.888 87.5035 210.16 87.1982 210.424 86.904C213.917 83.009 215.235 81.7318 220.538 81.0094C223.2 80.6445 224.764 80.9759 225.997 81.0168C226.622 81.0354 227.159 80.9833 227.713 80.7227C234.736 84.5581 231.255 89.9984 224.544 92.2549V92.2587Z" fill="white"/>
<g style="mix-blend-mode:multiply" opacity="0.6">
<path d="M224.544 92.2589C218.512 94.2883 217.678 94.1356 213.217 95.0367C208.756 95.9379 207.43 91.2981 209.598 87.8277C209.888 87.5037 210.16 87.1984 210.424 86.9042L213.817 85.1391C210.205 89.6858 211.243 93.1116 218.877 90.3635C221.405 89.4549 225.766 88.2708 227.095 87.1686C229.311 85.3291 228.547 83.4709 226.563 82.3762C225.863 81.9926 225.751 81.5234 225.997 81.0207C226.622 81.0394 227.159 80.9872 227.713 80.7266C234.736 84.562 231.255 90.0023 224.544 92.2589Z" fill="#ADA3BC"/>
</g>
<path d="M198.116 85.5898C196.333 85.7052 193.957 84.8674 192.751 80.2277C191.928 77.0625 192.434 73.0447 194.099 69.4848C196.009 65.4036 199.252 62.2869 203.237 60.7118C205.88 59.6654 209.924 58.3621 214.173 58.0903C218.85 57.7924 222.481 58.8909 224.67 61.2666C226.096 62.8157 226.755 64.5658 226.525 66.1968C226.379 67.2357 225.795 68.7252 223.858 69.8981L223.601 70.0545H223.587C222.041 70.9147 219.956 71.4323 217.379 71.5961C217.163 71.611 216.94 71.6222 216.713 71.6297C216.59 71.6334 216.471 71.6408 216.351 71.6483C211.079 71.9834 209.101 75.0443 207.009 78.2839C206.033 79.7957 205.02 81.3597 203.668 82.6071C203.65 82.6257 203.631 82.6406 203.613 82.6592C201.565 84.5248 199.766 85.4818 198.12 85.5861L198.116 85.5898Z" fill="#380176"/>
<path d="M223.225 68.8442C221.814 69.7006 219.669 70.2852 216.668 70.4007C207.776 70.7507 206.912 77.9635 202.819 81.7244C202.808 81.7356 202.797 81.7431 202.786 81.7542C198.664 85.504 195.394 85.4965 193.946 79.9184C193.335 77.5651 193.521 74.5563 194.556 71.6221C195.975 67.6005 198.977 63.7166 203.691 61.8511C210.922 58.9913 219.781 57.7736 223.765 62.0931C224.015 62.3612 224.234 62.6405 224.424 62.9198C225.884 65.0386 225.675 67.351 223.222 68.8404L223.225 68.8442Z" fill="white"/>
<g style="mix-blend-mode:multiply" opacity="0.6">
<path d="M223.225 68.844C221.814 69.7005 219.669 70.2851 216.668 70.4005C207.776 70.7506 206.912 77.9634 202.819 81.7243C202.808 81.7355 202.797 81.7429 202.786 81.7541C198.664 85.5038 195.394 85.4964 193.946 79.9183C193.335 77.5649 193.521 74.5562 194.556 71.6219C194.947 76.068 197.632 77.874 200.831 74.1131C204.033 70.3521 210.933 65.8018 217.952 66.3827C224.975 66.9598 225.344 65.7794 224.424 62.9233C225.884 65.0421 225.675 67.3545 223.222 68.844H223.225Z" fill="#ADA3BC"/>
</g>
<path d="M206.059 91.1155C204.618 91.2086 203.244 90.6426 202.19 89.5255C200.738 87.9913 200.046 85.5635 200.321 83.0165L200.299 82.6515L200.351 82.5845C200.474 81.095 201.226 76.258 205.791 72.9066C209.601 70.1101 213.961 68.5909 219.126 68.2632C220.008 68.2073 220.928 68.185 221.863 68.1962C226.354 68.2557 229.712 71.4618 230.707 74.5972C231.589 77.3788 230.74 80.045 228.428 81.7243C227.888 82.1191 227.273 82.3313 226.558 82.376C225.992 82.4132 225.423 82.3462 224.767 82.268C223.915 82.1675 222.95 82.052 221.691 82.134C221.367 82.1563 221.032 82.1898 220.697 82.2345C215.64 82.9234 214.639 84.0368 210.926 88.1887L210.509 88.6541C209.15 90.166 207.612 91.0187 206.063 91.1192L206.059 91.1155Z" fill="#380176"/>
<path d="M227.71 80.7263C226.247 81.7913 224.549 80.4656 220.538 81.013C214.833 81.7875 213.746 83.2063 209.598 87.8311C205.45 92.4559 200.892 88.6391 201.562 83.0499C201.562 83.0499 201.562 83.0461 201.562 83.0424C201.562 83.0424 201.603 78.8868 204.798 75.4349H204.802C205.297 74.8987 205.863 74.3811 206.522 73.9008C210.57 70.9292 215.429 69.3429 221.849 69.4286C224.82 69.4695 227.352 71.1303 228.723 73.2603C230.309 75.7254 230.343 78.816 227.71 80.73V80.7263Z" fill="white"/>
<g style="mix-blend-mode:multiply" opacity="0.6">
<path d="M227.71 80.7263C226.247 81.7912 224.549 80.4656 220.538 81.013C214.833 81.7875 213.746 83.2062 209.598 87.8311C205.45 92.4559 200.892 88.6391 201.562 83.0499C201.562 83.0499 201.562 83.0461 201.562 83.0424C201.562 83.0424 201.603 78.8868 204.798 75.4349H204.802C204.023 79.8102 206.593 83.3142 211.113 80.7821C215.634 78.2463 223.971 78.5218 226.139 77.8776C228.306 77.2334 228.466 74.8763 228.723 73.2603C230.309 75.7253 230.343 78.816 227.71 80.73V80.7263Z" fill="#ADA3BC"/>
</g>
<path d="M187.641 95.8596C187.905 96.1389 188.218 96.4368 188.527 96.7086C188.84 96.9842 189.16 97.2449 189.491 97.4981C190.154 97.997 190.854 98.4476 191.595 98.8014C192.333 99.1551 193.115 99.4158 193.911 99.4902C194.705 99.5647 195.513 99.4381 196.224 99.0732C196.939 98.712 197.546 98.1274 198.045 97.4646C198.536 96.7906 198.935 96.0384 199.255 95.2527C199.903 93.6776 200.294 91.9945 200.588 90.3076C200.394 92.0131 200.104 93.7185 199.542 95.3644C199.262 96.1873 198.901 96.9879 198.425 97.7327C197.94 98.4662 197.319 99.1514 196.522 99.6169C195.729 100.086 194.783 100.298 193.867 100.265C192.947 100.231 192.057 99.9892 191.227 99.6504C190.392 99.3115 189.614 98.8721 188.873 98.3843C188.505 98.1385 188.143 97.8779 187.793 97.6061C187.44 97.3305 187.108 97.055 186.766 96.731L187.644 95.8708L187.641 95.8596Z" fill="#380176"/>
<path d="M213.62 105.887C213.319 105.951 213.043 105.999 212.76 106.04C212.477 106.085 212.194 106.118 211.915 106.148C211.632 106.182 211.349 106.2 211.07 106.226L210.224 106.271C209.096 106.312 207.968 106.271 206.851 106.148C206.571 106.111 206.292 106.092 206.017 106.044L205.186 105.902C204.911 105.854 204.639 105.779 204.367 105.72L203.957 105.623C203.823 105.59 203.689 105.545 203.555 105.504L202.755 105.262L201.973 104.964L201.585 104.815L201.209 104.636L200.457 104.279L201.235 104.566L201.623 104.707L202.021 104.819L202.818 105.042L203.626 105.206C203.76 105.232 203.894 105.266 204.028 105.284L204.438 105.34C204.709 105.374 204.978 105.422 205.253 105.444L206.072 105.508C206.344 105.53 206.62 105.526 206.892 105.534C207.983 105.552 209.074 105.489 210.15 105.351L210.954 105.232C211.222 105.184 211.487 105.139 211.751 105.083C212.015 105.027 212.28 104.971 212.54 104.908C212.797 104.845 213.065 104.774 213.3 104.7L213.624 105.887H213.62Z" fill="#380176"/>
<g style="mix-blend-mode:multiply">
<path d="M161.564 50.5159C161.437 53.3831 155.956 56.2727 153.692 56.7344C150.56 57.3712 145.623 56.9392 144.39 53.6512C141.917 47.0715 138.298 39.1214 132.184 32.7911C111.435 11.2979 87.436 13.9157 76.2091 17.7809C63.9842 21.9886 51.4688 34.1242 49.6219 52.307C48.0542 54.5933 46.6429 56.969 45.3843 59.423C43.0458 63.9882 41.7798 68.7732 40.0334 73.532C38.637 64.1334 40.0408 53.3608 42.1335 45.217C43.4741 39.9927 45.4551 35.1631 47.9835 30.7728C44.6954 38.749 45.7641 40.5401 46.7882 40.7635C49.9123 41.4449 51.9269 35.0886 57.8624 28.87C68.1957 18.0415 91.6252 3.4893 123.668 21.3333C142.305 31.7112 145.913 44.5058 148.147 48.7024C150.381 52.8953 155.185 55.5727 161.567 50.5196L161.564 50.5159Z" fill="#ADA3BC"/>
</g>
<path d="M161.567 50.5162C143.41 8.88157 111.07 4.23439 98.4648 2.46191C101.239 2.46936 104.043 2.65927 106.869 3.04281C121.418 5.01265 139.653 12.6015 155.679 35.2751C159.28 40.3692 161.678 48.0251 161.567 50.5199V50.5162Z" fill="#46A7E0"/>
<defs>
<radialGradient id="paint0_radial_3115_162532" cx="0" cy="0" r="1" gradientUnits="userSpaceOnUse" gradientTransform="translate(125.913 51.9992) rotate(2.55) scale(87.8606 87.8606)">
<stop stop-color="#57BCF7"/>
<stop offset="1" stop-color="#3C87F7"/>
</radialGradient>
<radialGradient id="paint1_radial_3115_162532" cx="0" cy="0" r="1" gradientUnits="userSpaceOnUse" gradientTransform="translate(151.103 47.5296) rotate(2.55) scale(119.285 119.285)">
<stop stop-color="#5577E0"/>
<stop offset="1" stop-color="#3F3EE0"/>
</radialGradient>
<linearGradient id="paint2_linear_3115_162532" x1="42.1702" y1="113.808" x2="82.7221" y2="115.614" gradientUnits="userSpaceOnUse">
<stop stop-color="#329FDE"/>
<stop offset="1" stop-color="#98CBDF"/>
</linearGradient>
<linearGradient id="paint3_linear_3115_162532" x1="68.507" y1="88.9048" x2="64.2318" y2="139.705" gradientUnits="userSpaceOnUse">
<stop stop-color="#80CBDF"/>
<stop offset="1" stop-color="#B6CBDF"/>
</linearGradient>
<linearGradient id="paint4_linear_3115_162532" x1="69.1485" y1="98.4182" x2="66.6776" y2="127.788" gradientUnits="userSpaceOnUse">
<stop stop-color="#81CBE0"/>
<stop offset="0.33" stop-color="#67C4DB"/>
<stop offset="1" stop-color="#2BB5D0"/>
</linearGradient>
<linearGradient id="paint5_linear_3115_162532" x1="66.8164" y1="107.473" x2="68.6774" y2="95.815" gradientUnits="userSpaceOnUse">
<stop stop-color="white" stop-opacity="0"/>
<stop offset="0.22" stop-color="white" stop-opacity="0.24"/>
<stop offset="0.6" stop-color="white" stop-opacity="0.64"/>
<stop offset="0.87" stop-color="white" stop-opacity="0.9"/>
<stop offset="1" stop-color="white"/>
</linearGradient>
<linearGradient id="paint6_linear_3115_162532" x1="65.903" y1="133.693" x2="65.7588" y2="125.631" gradientUnits="userSpaceOnUse">
<stop stop-color="white"/>
<stop offset="0.13" stop-color="white" stop-opacity="0.9"/>
<stop offset="0.4" stop-color="white" stop-opacity="0.64"/>
<stop offset="0.78" stop-color="white" stop-opacity="0.24"/>
<stop offset="1" stop-color="white" stop-opacity="0"/>
</linearGradient>
<linearGradient id="paint7_linear_3115_162532" x1="121.133" y1="34.6449" x2="114.014" y2="48.8647" gradientUnits="userSpaceOnUse">
<stop stop-color="white"/>
<stop offset="0.13" stop-color="white" stop-opacity="0.9"/>
<stop offset="0.4" stop-color="white" stop-opacity="0.64"/>
<stop offset="0.78" stop-color="white" stop-opacity="0.24"/>
<stop offset="1" stop-color="white" stop-opacity="0"/>
</linearGradient>
</defs>
</svg>
