<svg viewBox="0 0 224 168" fill="none" xmlns="http://www.w3.org/2000/svg">
  <path
    d="M121.371 26.85C121.371 31.72 112.971 36.32 111.291 37.19L110.861 37.41L94.1009 36.27L92.5209 21.65L92.1309 18.03L98.1709 22.14L101.561 21.07H106.741L112.151 17.33L115.571 21.55C116.681 21.9 118.771 22.68 120.121 24.05C120.861 24.8 121.381 25.72 121.381 26.84L121.371 26.85Z"
    fill="#390176"
  />
  <path
    d="M94.2402 21.57L97.8802 24.05L101.82 22.81H107.27L111.81 19.67L114.56 23.06C114.56 23.06 119.65 24.41 119.65 26.85C119.65 30.91 110.5 35.65 110.5 35.65L95.6702 34.64L94.2502 21.57H94.2402Z"
    fill="url(#paint0_linear_7713_30670)"
  />
  <path
    opacity="0.4"
    d="M94.2402 21.57L97.8802 24.05L101.82 22.81H107.27L111.81 19.67L114.56 23.06C114.56 23.06 119.65 24.41 119.65 26.85C119.65 30.91 110.5 35.65 110.5 35.65L95.6702 34.64L94.2502 21.57H94.2402Z"
    fill="#231F1F"
  />
  <path
    d="M118.721 25.77C118.901 26.03 119.111 26.02 119.331 25.84C118.231 24.04 114.561 23.06 114.561 23.06L115.241 24.05C115.241 24.05 118.011 24.71 118.721 25.77Z"
    fill="url(#paint1_linear_7713_30670)"
  />
  <path
    d="M98.3705 150.66C93.0505 150.66 89.9205 149.7 89.0505 147.8C88.7005 147.04 88.5705 145.8 89.9305 144.23C90.8005 143.23 90.9005 142.68 90.8305 142.53C90.7405 142.34 89.9905 141.37 83.8605 141.37C81.7205 141.37 79.3805 141.48 77.1205 141.58C75.6005 141.65 74.1705 141.71 72.8505 141.75C72.4705 141.75 72.1105 141.76 71.7505 141.76C64.0105 141.76 62.0905 139.71 61.8405 137.99C61.5405 135.92 63.6605 133.94 67.3805 132.83C70.1705 132 71.4205 131.36 71.9605 131.01C71.2805 130.74 69.6305 130.33 65.7805 130.09C65.1005 130.05 64.4205 130.03 63.7805 130.03C59.6305 130.03 56.9105 130.88 54.2805 131.7C51.9005 132.44 49.6505 133.15 46.6605 133.15C46.3005 133.15 45.9305 133.14 45.5605 133.12C44.5605 133.06 43.1505 132.86 42.4205 131.8C41.6705 130.7 42.0905 129.42 42.4705 128.28C42.7005 127.58 42.9905 126.72 42.7605 126.4C42.6405 126.23 42.0305 125.69 39.2105 125.69C38.5605 125.69 37.8205 125.72 37.0105 125.78C35.8705 125.86 34.7205 125.9 33.5805 125.9C30.3405 125.9 22.6505 125.53 21.3705 122.06C20.8105 120.53 21.5505 118.88 23.5805 117.15C26.8805 114.34 30.9705 112.9 34.2605 111.74C36.4105 110.98 38.8405 110.12 39.0805 109.38C39.1305 109.21 39.0105 108.9 38.7505 108.52C37.5305 106.79 36.2705 105 37.0805 103.32C38.0505 101.3 41.1605 100.17 56.2305 99.24C64.3205 98.74 72.0405 98.5 79.8205 98.5C97.6005 98.5 111.56 99.79 123.88 100.93C133.2 101.79 141.25 102.54 149.04 102.54C149.74 102.54 150.44 102.54 151.13 102.52C151.58 102.52 152.03 102.51 152.47 102.51C168.45 102.51 179.98 107.8 180.33 112.55C180.4 113.46 180.1 115.63 175.92 116.27C171.66 116.91 169.2 117.72 168.14 118.26C169.02 118.55 171.01 118.97 175.44 119.18C184.09 119.6 190.54 123.12 190.44 127.35C190.35 131.07 185.42 133.29 177.26 133.29C175.87 133.29 174.36 133.23 172.8 133.1C171.22 132.97 169.76 132.91 168.46 132.91C163.16 132.91 161.42 133.96 161.24 134.58C161.1 135.04 161.68 136.01 163.27 137.07C165.42 138.5 167.38 141.26 166.57 143.92C165.98 145.88 163.74 148.21 156.46 148.21C155.57 148.21 154.62 148.18 153.62 148.11C150.28 147.88 146.8 146.59 143.12 145.23C138.92 143.68 134.58 142.07 130.36 142.07C127.36 142.07 124.73 142.89 122.31 144.56C116.53 148.57 105.9 150.66 98.4005 150.66H98.3705Z"
    fill="#390176"
  />
  <path
    d="M56.28 100.39C35.72 101.66 36.46 103.3 39.67 107.86C42.88 112.42 31.42 111.97 24.31 118.03C17.99 123.42 28.07 125.27 36.9 124.63C51.05 123.61 38.28 131.56 45.6 131.97C52.92 132.39 55.66 128.32 65.84 128.94C76.02 129.56 75.31 131.66 67.71 133.93C61.05 135.92 60.25 140.89 72.83 140.59C81.61 140.38 96.32 138.64 90.81 144.98C84.96 151.72 111.45 150.66 121.63 143.6C132.3 136.21 144.17 146.29 153.67 146.94C168.66 147.98 166.76 140.77 162.6 138.01C158.02 134.97 158.53 130.79 172.86 131.93C196.03 133.78 192.6 121.15 175.36 120.31C161.06 119.61 166.08 116.56 175.72 115.11C185.36 113.66 173.97 103.24 151.12 103.65C128.26 104.07 103.23 97.47 56.27 100.37L56.28 100.39Z"
    fill="url(#paint2_radial_7713_30670)"
  />
  <path
    d="M56.28 100.39C35.72 101.66 36.46 103.3 39.67 107.86C42.88 112.42 31.42 111.97 24.31 118.03C17.99 123.42 28.07 125.27 36.9 124.63C51.05 123.61 38.28 131.56 45.6 131.97C52.92 132.39 55.66 128.32 65.84 128.94C76.02 129.56 75.31 131.66 67.71 133.93C61.05 135.92 60.25 140.89 72.83 140.59C81.61 140.38 96.32 138.64 90.81 144.98C84.96 151.72 111.45 150.66 121.63 143.6C132.3 136.21 144.17 146.29 153.67 146.94C168.66 147.98 166.76 140.77 162.6 138.01C158.02 134.97 158.53 130.79 172.86 131.93C196.03 133.78 192.6 121.15 175.36 120.31C161.06 119.61 166.08 116.56 175.72 115.11C185.36 113.66 173.97 103.24 151.12 103.65C128.26 104.07 103.23 97.47 56.27 100.37L56.28 100.39Z"
    fill="url(#paint3_radial_7713_30670)"
  />
  <path
    opacity="0.2"
    d="M158.89 108.14C158.89 116.43 139.85 131 108.35 131C84.4396 131 58.8496 120.33 58.8496 112.03C58.8496 103.73 84.4396 100.96 108.35 100.96C132.26 100.96 158.89 99.84 158.89 108.13V108.14Z"
    fill="#231F1F"
  />
  <path
    d="M161.84 96.48C161.79 111.95 149.65 121.94 124.72 127.02L124.13 127.14C120.98 127.73 113.15 127.95 106.86 127.95C100.57 127.95 94.8703 127.74 91.7003 127.4C91.4403 127.38 91.1603 127.35 90.9103 127.33C90.6103 127.29 90.3603 127.26 90.1303 127.21H90.0703C89.9803 127.18 89.8903 127.16 89.7903 127.14C85.3103 126.26 80.9403 125.12 76.8203 123.75C75.3203 123.24 73.8803 122.7 72.5203 122.14L72.4603 122.12C71.2903 121.64 70.1003 121.09 68.9503 120.52L68.4303 120.26C68.1503 120.12 67.8703 119.97 67.5903 119.82L66.9903 119.49C66.7403 119.35 66.4903 119.22 66.2503 119.08L66.0503 118.96C65.4103 118.58 64.7903 118.19 64.2003 117.8L64.0003 117.67C63.6903 117.46 63.3903 117.25 63.0903 117.04L62.9303 116.92C61.2803 115.72 59.7903 114.41 58.5203 113.04C53.9403 108.09 51.7703 102.03 52.0703 95.01V94.96C52.1503 93.33 52.3303 91.65 52.6203 89.97C52.8003 88.92 53.0203 87.84 53.2703 86.78C53.7403 84.8 54.3503 82.79 55.0903 80.78C55.4203 79.86 55.8003 78.93 56.1803 78C56.5503 77.14 56.9403 76.26 57.3603 75.4C57.7503 74.59 58.1603 73.78 58.5803 72.98C59.3303 71.56 60.1403 70.14 61.0003 68.75C61.3903 68.12 61.7703 67.53 62.1303 66.98C62.5003 66.43 62.8403 65.92 63.1703 65.45C63.5003 64.98 63.8003 64.56 64.0703 64.18C64.4903 63.62 64.8403 63.16 65.1103 62.81C65.3403 62.52 65.5103 62.3 65.6103 62.19L65.6303 62.16L65.6803 62.07L65.7703 61.98C69.1603 57.4 78.4803 49.3 84.0203 46.12C85.9603 45.01 87.6303 43.55 88.9903 41.77C89.4303 41.19 89.8403 40.57 90.2103 39.94C91.7003 37.37 92.4903 34.45 92.4903 31.49V21.56L95.8203 20.9L98.6803 27.9H99.0803L101.8 24.39L112.95 26.75L113.05 26.78C113.05 26.78 113.74 27 114.7 27C116.16 27 117.41 26.52 118.43 25.56L120.08 24.03C120.82 24.78 121.34 25.7 121.34 26.82V31.47C121.34 37.52 124.58 43.12 129.8 46.09L129.9 46.15C135.48 49.39 144.71 57.46 148.05 61.95L148.13 62.03L148.19 62.11L148.21 62.14C150.31 64.71 160.8 78.37 161.75 94.57L161.77 94.96C161.79 95.46 161.8 95.94 161.8 96.43L161.84 96.48Z"
    fill="#390176"
  />
  <path
    d="M112.511 28.44L102.521 26.32L99.9508 29.65H97.5408L94.2408 21.57V31.5C94.2408 34.81 93.3508 38.02 91.7308 40.82C91.3308 41.52 90.8808 42.19 90.3908 42.83C88.9208 44.75 87.0708 46.4 84.9108 47.63C81.1708 49.78 77.7808 52.61 74.5608 55.46C71.4508 58.22 68.5708 61.15 66.0508 64.45C63.8308 67.37 61.7508 70.49 60.1108 73.77C59.7108 74.52 59.3108 75.31 58.9208 76.13C57.2308 79.66 55.8608 83.36 54.9508 87.16C54.3308 89.74 53.9308 92.38 53.8008 95.03C53.4908 100.11 54.8608 105.26 57.8108 109.41C60.9308 113.81 65.5508 116.94 70.3508 119.26C72.6208 120.35 74.9708 121.31 77.3608 122.1C79.9308 122.96 82.5308 123.7 85.1608 124.35C88.1408 125.08 91.1008 125.66 94.1708 125.87C96.1008 126 98.0308 126.07 99.9708 126.13C104.471 126.25 108.981 126.25 113.481 126.13C115.811 126.07 118.151 126.05 120.481 125.85C125.991 125.39 131.591 123.8 136.801 122C140.931 120.58 144.981 118.79 148.631 116.38C151.581 114.43 154.281 112.03 156.291 109.1C158.141 106.42 159.341 103.34 159.831 100.12C160.651 94.72 159.621 89.03 158.001 83.86C156.651 79.53 154.741 75.37 152.471 71.45C149.921 67.05 146.841 62.77 143.231 59.14C139.891 55.79 136.261 52.67 132.421 49.9C130.251 48.34 127.771 47.12 125.761 45.31C123.951 43.68 122.481 41.68 121.431 39.48C120.251 36.99 119.631 34.25 119.631 31.5V26.85C116.471 29.8 112.501 28.44 112.501 28.44H112.511Z"
    fill="url(#paint4_radial_7713_30670)"
  />
  <path
    d="M106.91 123.02C101.31 123.02 94.1402 122.88 91.6702 122.22C80.3202 119.98 71.8102 116.55 66.3802 112.03C60.9902 107.52 58.5402 101.96 58.8902 95.05C59.3002 87.69 60.8302 84.07 64.5802 75.89C64.9702 75.04 65.7002 73.46 80.3702 72.28C88.5202 71.63 99.4402 71.25 110.33 71.25C120.11 71.25 129.21 71.55 135.95 72.1C148.03 73.08 149.14 74.56 149.61 75.19C152.59 79.22 154.82 89.5 155.11 95.1C155.46 102.01 153.01 107.56 147.62 112.08C142.18 116.61 133.65 120.04 122.28 122.28C120.06 122.74 114.16 123.02 106.91 123.02Z"
    fill="#390176"
  />
  <path
    d="M91.9308 121.09C80.7108 118.88 72.3608 115.51 67.1108 111.14C62.0208 106.88 59.7008 101.63 60.0308 95.11C60.4208 88.09 61.7408 84.83 65.6108 76.37C67.8208 71.56 144.861 70.8 148.681 75.88C151.501 79.69 153.681 89.86 153.951 95.16C154.281 101.68 151.961 106.93 146.871 111.19C141.621 115.56 133.271 118.93 122.051 121.14C119.891 121.58 113.981 121.86 106.901 121.86C99.8208 121.86 93.9108 121.64 91.9208 121.09H91.9308Z"
    fill="url(#paint5_radial_7713_30670)"
  />
  <path
    d="M130.839 98.68L135.539 101.64L136.869 103.88L137.079 106.04L128.119 110.38L137.209 106.78L137.449 107.43L137.359 103.56L136.069 101.4L130.839 98.68Z"
    fill="#390176"
  />
  <path
    d="M131.539 103.74L137.489 105.23L137.019 104.58L131.539 103.74Z"
    fill="#390176"
  />
  <path
    d="M107.269 84.84C90.1592 84.84 64.6992 82.46 64.6992 75.88C64.6992 69.3 90.1592 66.92 107.269 66.92C124.379 66.92 149.839 69.31 149.839 75.88C149.839 82.45 124.379 84.84 107.269 84.84Z"
    fill="#390176"
  />
  <path
    d="M107.27 83.68C130.145 83.68 148.69 80.1878 148.69 75.88C148.69 71.5722 130.145 68.08 107.27 68.08C84.394 68.08 65.8496 71.5722 65.8496 75.88C65.8496 80.1878 84.394 83.68 107.27 83.68Z"
    fill="url(#paint6_linear_7713_30670)"
  />
  <path
    opacity="0.5"
    d="M130.39 80.85C137.58 77.36 140.48 75.19 142.92 74.43C145.36 73.67 148.56 75.7 144.81 77.64C141.06 79.58 124.82 83.55 130.39 80.85Z"
    fill="url(#paint7_linear_7713_30670)"
  />
  <path
    opacity="0.5"
    d="M108.25 78.87C115.34 72.85 125.04 70.86 133.1 71.13C141.16 71.4 142.68 73.5 136.3 76.62C129.92 79.74 124.98 81.33 118.69 81.81C112.4 82.29 102.52 83.74 108.25 78.87Z"
    fill="url(#paint8_linear_7713_30670)"
  />
  <path
    opacity="0.5"
    d="M107.729 69.22C96.4395 67.11 64.7595 73.36 68.4195 78.59C74.2695 81.56 89.4495 83.68 107.269 83.68C107.959 83.68 108.649 83.68 109.339 83.68C108.129 82.55 104.819 82.84 104.579 80.63C104.259 77.58 119.029 71.34 107.729 69.22Z"
    fill="url(#paint9_linear_7713_30670)"
  />
  <path
    opacity="0.2"
    d="M81.2703 56.16C65.3203 66.22 57.4803 80.43 56.7403 93.07C55.9903 105.72 59.4203 110.56 66.0403 115.17C72.6603 119.77 84.0103 123.32 103.73 124.57C123.44 125.82 102.6 120.94 92.4803 102.87C82.3503 84.8 83.5603 71.38 87.7003 63.33C91.8303 55.28 98.5103 45.28 81.2803 56.16H81.2703Z"
    fill="#231F1F"
  />
  <path
    d="M139.14 100.05L135.43 101.26L137.19 104.93L137.83 109.57H143.8L145.8 110.68L150.41 101.9L140.34 96.79L139.14 100.05Z"
    fill="#EBFBFF"
  />
  <path
    d="M138.021 105.74L125.031 110.55L123.241 111.71L114.641 119.28L115.681 118.91L123.191 112.48L137.681 106.3L138.021 105.74Z"
    fill="#EBFBFF"
  />
  <path
    d="M140.07 100.32L136.85 101.9L138.29 104.75L138.87 108.96H143.71L145.53 109.97L149.08 102.37L141.04 98.3L140.07 100.32Z"
    fill="url(#paint10_radial_7713_30670)"
  />
  <path
    opacity="0.6"
    d="M140.07 100.32L136.85 101.9L138.29 104.75L138.87 108.96H143.71L145.53 109.97L149.08 102.37L141.04 98.3L140.07 100.32Z"
    fill="#1C092D"
  />
  <path
    d="M132.379 128.69C138.239 121.87 138.859 117.95 137.899 108.93C137.899 108.93 137.779 106.84 137.709 105.35C137.679 104.62 137.709 103.26 137.709 103.26C137.709 103.26 141.399 101.41 145.699 101.65C147.899 101.77 148.799 102.91 148.799 102.91L148.849 103.59C150.129 120.37 155.079 123.01 155.129 123.02C154.479 123.25 131.939 129.19 132.369 128.69H132.379Z"
    fill="#390176"
  />
  <path
    d="M139.051 108.81C140.061 118.29 139.251 122.25 133.001 128.04C126.741 133.83 155.151 123.02 155.151 123.02C155.151 123.02 150.081 122.12 148.161 107.91C147.981 106.61 147.851 105.5 147.721 103.68C147.591 101.86 143.201 102.07 140.571 102.66C139.801 102.83 137.721 103.26 137.721 103.26L138.301 104.76L139.061 108.82L139.051 108.81Z"
    fill="url(#paint11_radial_7713_30670)"
  />
  <path
    d="M135.7 101.32L117.35 90.95L111.3 89.66L101.24 76.72C101.24 76.72 111.38 88.6 111.61 88.6C111.84 88.6 117.59 89.74 117.59 89.74L136.66 101.43L135.71 101.32H135.7Z"
    fill="#EBFBFF"
  />
  <path
    d="M121.139 99.54C119.949 103.82 121.029 108.52 125.479 110.24L124.819 111.74C120.149 109.26 119.229 104.13 121.139 99.53V99.54Z"
    fill="#EBFBFF"
  />
  <path
    d="M127.67 96.74L119.93 95.49L110.92 96.12H119.77L127.67 96.74Z"
    fill="#EBFBFF"
  />
  <path
    d="M137.71 104.75L127.04 102.23L119.93 95.49L126.96 102.99L137.71 104.75Z"
    fill="#EBFBFF"
  />
  <path
    d="M140.959 98.3L137.829 90.15L140.249 85.36L138.039 83.33L136.289 74.92L137.499 83.88L139.119 85.76L137.129 89.79L140.959 98.3Z"
    fill="#EBFBFF"
  />
  <path
    d="M149.08 101.43L153.18 102.05L156.91 99.65L152.99 103.16L149.83 102.43L149.08 101.43Z"
    fill="#EBFBFF"
  />
  <path
    d="M137.16 79.02C144.37 78.06 152.89 81.79 155.14 89.08C152.63 82.15 144.25 78.88 137.36 80.15L137.16 79.02Z"
    fill="#EBFBFF"
  />
  <path
    d="M138.93 100.25L137.59 98.79L131.67 99L131.65 98.42L137.84 98.2L139.36 99.86L138.93 100.25Z"
    fill="#EBFBFF"
  />
  <path
    d="M140.02 97.69C144 94.67 147.42 93.28 152.47 94.26C151.37 94.13 150.26 94.06 149.16 94.11C145.77 94.17 142.92 96.09 140.36 98.15L140.01 97.69H140.02Z"
    fill="#EBFBFF"
  />
  <path
    opacity="0.2"
    d="M142.97 142.86C132.26 138.77 129.99 137.02 122.22 140.89C112.82 145.58 105.4 149.06 92.5898 148.88C98.7698 150.62 114.37 148.64 121.64 143.6C132.31 136.21 144.18 146.29 153.68 146.94C156.31 147.12 158.41 147.05 160.08 146.79C159.61 146.79 153.27 146.79 142.97 142.85V142.86Z"
    fill="#231F1F"
  />
  <path
    opacity="0.2"
    d="M73.0191 131.65C76.1791 130.16 77.8891 128.65 73.8291 128.04C64.6591 126.69 52.8891 128.79 45.6191 131.97C52.9391 132.39 55.6791 128.32 65.8591 128.94C72.4291 129.34 74.4591 130.36 73.0291 131.65H73.0191Z"
    fill="#231F1F"
  />
  <g opacity="0.2">
    <path
      d="M91.4199 144.18C91.4199 144.18 91.4599 144.14 91.4699 144.12C91.5099 144.06 91.5299 144.01 91.5699 143.96C91.5299 144.03 91.4699 144.11 91.4199 144.18Z"
      fill="#231F1F"
    />
    <path
      d="M87.2292 138.74C82.5392 139.15 67.0992 141.27 63.4492 138.74C64.5292 139.89 67.4492 140.73 72.8192 140.6C81.0292 140.4 94.4192 138.87 91.6192 143.86C93.7592 140.35 91.7992 138.34 87.2192 138.74H87.2292Z"
      fill="#231F1F"
    />
  </g>
  <path
    opacity="0.2"
    d="M171.73 120.05C162.1 119.04 167.04 116.43 175.74 115.12C180.78 114.36 180.06 111.15 174.97 108.31C177.42 109.96 180.32 113.08 173.06 114.57C165.8 116.07 157.53 119.48 171.73 120.04V120.05Z"
    fill="#231F1F"
  />
  <path
    opacity="0.2"
    d="M189.1 126.25C188.63 127.47 187.24 129.05 183.35 129.81C180.85 130.3 177.55 130.42 174.21 130.59L175.48 129.3L162.8 119.36C157.72 122.13 158.73 127.73 158.73 127.73L169.25 130.95C166.81 131.2 164.55 131.6 162.8 132.35C164.83 131.78 168.07 131.56 172.87 131.95C185.58 132.97 190.29 129.62 189.1 126.26V126.25Z"
    fill="#231F1F"
  />
  <path
    opacity="0.2"
    d="M37.9902 111.54C41.0602 110.35 43.9502 107.45 37.9902 104.75C38.1202 105.61 38.8102 106.63 39.6802 107.86C40.9102 109.6 39.9902 110.62 37.9902 111.54Z"
    fill="#231F1F"
  />
  <path
    opacity="0.2"
    d="M43.3394 129.3C43.3394 129.3 46.8194 123.04 42.1294 123.02C37.5794 123 28.4794 123.46 22.6094 122C24.0294 124.31 30.7694 125.07 36.9094 124.62C45.8894 123.97 44.0294 126.93 43.3394 129.29V129.3Z"
    fill="#231F1F"
  />
  <path
    opacity="0.2"
    d="M140.56 116.1C140.81 108.32 138.73 104.96 140.96 104.14C143.67 103.14 144.75 102.59 144.81 102.25C143.42 102.19 141.8 102.38 140.56 102.66C139.79 102.83 137.71 103.26 137.71 103.26L138.29 104.76L139.05 108.82C140.06 118.3 139.25 122.26 133 128.05C133 128.05 140.35 122.71 140.57 116.11L140.56 116.1Z"
    fill="#231F1F"
  />
  <path
    d="M145.92 105.2C145.45 101.88 147.81 104.67 147.54 109.05C147.27 113.43 146.61 110.02 145.92 105.2Z"
    fill="url(#paint12_linear_7713_30670)"
  />
  <path
    d="M91.0901 125.6C90.8401 125.57 90.6202 125.53 90.4102 125.5C90.6202 125.54 90.8401 125.57 91.0901 125.6Z"
    fill="#390176"
  />
  <path
    d="M73.1806 120.54C73.1806 120.54 73.1606 120.53 73.1406 120.52C73.1506 120.52 73.1606 120.53 73.1806 120.54Z"
    fill="#390176"
  />
  <path d="M146.83 63.18L146.77 63.13L146.83 63.18Z" fill="#390176" />
  <path
    d="M160.071 95.05C160.071 94.94 160.051 94.83 160.051 94.73C160.051 94.84 160.071 94.94 160.071 95.05Z"
    fill="#390176"
  />
  <path
    d="M175.7 103.34L195.59 109.1C194.32 110.87 192.97 113.38 191.69 116.85C191.65 116.95 191.62 117.05 191.58 117.15C191.51 117.34 191.44 117.53 191.38 117.72C191.32 117.89 191.26 118.06 191.21 118.23C191.16 118.38 191.11 118.53 191.06 118.68C190.99 118.9 190.92 119.13 190.84 119.36C190.8 119.48 190.77 119.59 190.73 119.71C190.62 120.06 190.51 120.42 190.41 120.79C190.41 120.79 190.41 120.81 190.41 120.82C188.92 125.95 188.31 130.14 188.48 133.49L163.57 126.27C163.8 126.72 164.08 127.45 164.4 128.37L188.7 135.41C188.82 136.04 188.95 136.62 189.15 137.16C190.03 139.7 192.47 141.84 194.24 142.35L194.3 142.37C195.63 142.75 197.9 143.41 199.63 141.99C202.77 139.42 206.25 133 208.27 126.02C210.55 118.16 210.97 111.33 209.38 107.69C208.52 105.7 205.42 104.8 205.09 104.71C203.49 104.25 200.71 104.52 198.86 105.72C198.2 106.13 197.48 106.76 196.75 107.63L177.17 101.96L176.54 103.25L175.71 103.34H175.7ZM199.89 107.11C201.29 106.2 203.57 106.02 204.62 106.32C205.89 106.69 207.4 107.49 207.76 108.31C207.76 108.31 207.76 108.32 207.76 108.33C207.76 108.35 207.78 108.37 207.79 108.38C209.19 111.61 208.74 118.13 206.61 125.49C205.76 128.42 204.63 131.27 203.38 133.73C201.83 136.82 200.08 139.31 198.51 140.6C197.49 141.44 195.83 140.96 194.78 140.66L194.72 140.64C194.29 140.52 193.72 140.19 193.14 139.71C192.18 138.97 191.2 137.83 190.76 136.49C189.63 133.16 190.02 128.06 192.01 121.2C194 114.34 196.83 109.11 199.87 107.11H199.89Z"
    fill="#390176"
  />
  <path
    d="M162.36 127.72L162.02 127.05C159.81 122.68 162.08 118.8 162.53 118.09L166.79 110.11L164.45 106.9L165.68 102.66L175.85 101.58L198.47 108.13L196.97 110.13C196.2 111.15 195.46 112.41 194.78 113.87C194.27 114.98 193.77 116.18 193.31 117.44C193.31 117.44 193.07 118.1 193.01 118.28L192.7 119.21C192.63 119.42 192.38 120.2 192.38 120.2C192.27 120.55 192.17 120.9 192.06 121.26C190.58 126.39 189.97 130.33 190.19 133.35L190.37 135.83L162.36 127.71V127.72Z"
    fill="#390176"
  />
  <path
    d="M190.401 120.82C190.401 120.82 190.401 120.8 190.401 120.79C190.511 120.42 190.621 120.06 190.721 119.71C190.761 119.59 190.791 119.48 190.831 119.36C190.901 119.13 190.971 118.9 191.051 118.68C191.101 118.53 191.151 118.38 191.201 118.23C191.261 118.06 191.321 117.89 191.371 117.72C191.441 117.53 191.511 117.34 191.571 117.15C191.611 117.05 191.641 116.95 191.681 116.85C192.181 115.48 192.701 114.25 193.211 113.15C194.001 111.46 194.801 110.14 195.581 109.1L175.691 103.34L167.011 104.26L166.341 106.57L168.821 109.97L164.001 118.98C164.001 118.98 161.591 122.41 163.541 126.27L188.451 133.49C188.211 130.19 188.881 126.01 190.381 120.82H190.401Z"
    fill="url(#paint13_radial_7713_30670)"
  />
  <path
    opacity="0.2"
    d="M190.4 120.82C190.4 120.82 190.4 120.8 190.4 120.79C190.51 120.42 190.62 120.06 190.72 119.71C190.76 119.59 190.79 119.48 190.83 119.36C190.9 119.13 190.97 118.9 191.05 118.68C191.1 118.53 191.15 118.38 191.2 118.23C191.26 118.06 191.32 117.89 191.37 117.72C191.44 117.53 191.51 117.34 191.57 117.15C191.61 117.05 191.64 116.95 191.68 116.85C192.18 115.48 192.7 114.25 193.21 113.15C194 111.46 194.8 110.14 195.58 109.1L193.48 108.49C187.17 116.12 186 119.6 184.89 123.79C184.1 126.79 170.89 122.65 163.43 120.05C162.86 121.36 162.25 123.71 163.54 126.26L188.45 133.48C188.21 130.18 188.88 126 190.38 120.81L190.4 120.82Z"
    fill="#231F1F"
  />
  <path
    d="M191.06 118.68C190.99 118.9 190.92 119.13 190.84 119.36C190.91 119.13 190.98 118.9 191.06 118.68Z"
    fill="#390176"
  />
  <path
    d="M191.06 118.68C190.99 118.9 190.92 119.13 190.84 119.36C190.91 119.13 190.98 118.9 191.06 118.68Z"
    fill="url(#paint14_radial_7713_30670)"
  />
  <path
    d="M190.4 120.82C190.4 120.82 190.4 120.8 190.4 120.79C190.51 120.42 190.62 120.06 190.72 119.71C190.61 120.06 190.5 120.42 190.4 120.79C190.4 120.79 190.4 120.81 190.4 120.82Z"
    fill="#390176"
  />
  <path
    d="M190.4 120.82C190.4 120.82 190.4 120.8 190.4 120.79C190.51 120.42 190.62 120.06 190.72 119.71C190.61 120.06 190.5 120.42 190.4 120.79C190.4 120.79 190.4 120.81 190.4 120.82Z"
    fill="url(#paint15_radial_7713_30670)"
  />
  <path
    d="M191.381 117.72C191.321 117.89 191.261 118.06 191.211 118.23C191.271 118.06 191.331 117.89 191.381 117.72Z"
    fill="#390176"
  />
  <path
    d="M191.381 117.72C191.321 117.89 191.261 118.06 191.211 118.23C191.271 118.06 191.331 117.89 191.381 117.72Z"
    fill="url(#paint16_radial_7713_30670)"
  />
  <path
    d="M204.65 106.39C204.59 106.37 204.51 106.36 204.43 106.35C203.62 106.49 200.18 107.38 197.62 112.22C194.83 117.71 191.41 128.89 191.91 131.91C192.41 134.93 194.45 135.16 195.38 132.14C195.47 134.51 196.05 136.23 197.44 136.63C197.44 136.63 197.46 136.63 197.47 136.63C197.4 136.61 197.32 136.58 197.25 136.55C194.6 135.39 195.19 128.64 196.92 122.68C197.87 119.42 199.13 116.49 200.47 114.35C202.03 111.86 203.48 110.79 204.86 111.19C204.99 111.23 205.12 111.28 205.23 111.35C205.25 111.36 205.28 111.38 205.3 111.39C205.41 111.46 205.52 111.53 205.62 111.62C205.64 111.63 205.65 111.65 205.67 111.67C205.77 111.76 205.86 111.86 205.94 111.97C205.94 111.97 205.95 111.98 205.96 111.99C206.05 112.11 206.14 112.25 206.22 112.4C206.22 112.4 206.22 112.4 206.22 112.41C207.29 114.43 207.01 118.54 206.06 122.69C205.7 124.97 204.78 130.2 203.32 133.66C201.77 136.75 200.02 139.24 198.45 140.53C201.33 138.25 204.64 132.01 206.54 125.42C208.67 118.07 209.12 111.56 207.73 108.33C207.33 107.52 205.83 106.69 204.62 106.39H204.65ZM203.63 108.07C204.13 108.63 204.11 109.53 203.53 110.08C203.46 110.12 200.03 113.26 198.05 118.87C197.77 119.63 196.95 119.99 196.24 119.73C195.48 119.45 195.12 118.63 195.38 117.92C195.52 117.42 195.72 116.94 195.91 116.51C198.12 111.15 201.39 108.14 201.62 107.97C202.18 107.47 203.08 107.49 203.63 108.07Z"
    fill="url(#paint17_radial_7713_30670)"
  />
  <path
    d="M198.48 140.52C197.46 141.36 195.85 140.9 194.75 140.58L194.69 140.56C194.26 140.44 193.71 140.14 193.15 139.7C193.73 140.17 194.3 140.51 194.73 140.63L194.79 140.65C195.84 140.95 197.5 141.44 198.52 140.59C200.09 139.31 201.83 136.81 203.39 133.72C204.64 131.26 205.77 128.41 206.62 125.48C208.75 118.12 209.2 111.6 207.8 108.37C207.8 108.35 207.78 108.33 207.77 108.32C209.17 111.55 208.71 118.07 206.58 125.41C204.67 131.99 201.37 138.23 198.49 140.52H198.48Z"
    fill="#390176"
  />
  <path
    d="M198.48 140.52C197.46 141.36 195.85 140.9 194.75 140.58L194.69 140.56C194.26 140.44 193.71 140.14 193.15 139.7C193.73 140.17 194.3 140.51 194.73 140.63L194.79 140.65C195.84 140.95 197.5 141.44 198.52 140.59C200.09 139.31 201.83 136.81 203.39 133.72C204.64 131.26 205.77 128.41 206.62 125.48C208.75 118.12 209.2 111.6 207.8 108.37C207.8 108.35 207.78 108.33 207.77 108.32C209.17 111.55 208.71 118.07 206.58 125.41C204.67 131.99 201.37 138.23 198.49 140.52H198.48Z"
    fill="url(#paint18_radial_7713_30670)"
  />
  <path
    opacity="0.2"
    d="M201.899 133.48C202.229 132.95 202.559 132.36 202.889 131.74C202.569 132.37 202.239 132.95 201.899 133.48Z"
    fill="#231F1F"
  />
  <path
    opacity="0.2"
    d="M190.78 136.49C191.11 137.41 191.67 138.22 192.29 138.88C191.69 138.22 191.14 137.43 190.81 136.56C189.68 133.23 190.07 128.13 192.06 121.27C194.11 114.19 196.88 109.18 199.92 107.18C201.25 106.27 203.31 106.11 204.43 106.35C204.54 106.33 204.61 106.32 204.61 106.32C203.61 106.03 201.29 106.2 199.88 107.11C196.88 109.18 194.05 114.18 192.02 121.2C189.99 128.22 189.63 133.16 190.77 136.49H190.78Z"
    fill="#231F1F"
  />
  <path
    d="M190.779 136.49C191.219 137.83 192.199 138.96 193.159 139.71C192.869 139.47 192.579 139.19 192.289 138.88C191.669 138.22 191.099 137.41 190.779 136.49Z"
    fill="#390176"
  />
  <path
    opacity="0.2"
    d="M190.779 136.49C191.219 137.83 192.199 138.96 193.159 139.71C192.869 139.47 192.579 139.19 192.289 138.88C191.669 138.22 191.099 137.41 190.779 136.49Z"
    fill="#231F1F"
  />
  <path
    d="M199.891 107.11C201.291 106.2 203.621 106.03 204.621 106.32C203.571 106.02 201.301 106.2 199.891 107.11Z"
    fill="#390176"
  />
  <path
    opacity="0.2"
    d="M199.891 107.11C201.291 106.2 203.621 106.03 204.621 106.32C203.571 106.02 201.301 106.2 199.891 107.11Z"
    fill="#231F1F"
  />
  <path
    d="M194.75 140.58C195.8 140.88 197.46 141.37 198.48 140.52C200.05 139.24 201.79 136.74 203.35 133.65C204.81 130.19 205.74 124.96 206.09 122.68C205.9 123.51 205.69 124.33 205.45 125.15C204.74 127.6 203.85 129.86 202.88 131.73C202.56 132.36 202.23 132.94 201.89 133.47C201.31 134.4 200.74 135.14 200.18 135.67C199.25 136.56 198.36 136.89 197.5 136.63C197.5 136.63 197.48 136.63 197.47 136.63C197.47 136.63 197.45 136.63 197.44 136.63C196.06 136.23 195.48 134.5 195.38 132.14C194.44 135.17 192.41 134.94 191.91 131.91C191.41 128.88 194.83 117.7 197.62 112.22C200.18 107.39 203.62 106.5 204.43 106.35C203.31 106.11 201.25 106.27 199.92 107.18C196.88 109.18 194.11 114.19 192.06 121.27C190.07 128.13 189.67 133.23 190.81 136.56C191.13 137.43 191.68 138.22 192.29 138.88C193.12 139.77 194.06 140.38 194.69 140.56L194.75 140.58Z"
    fill="url(#paint19_radial_7713_30670)"
  />
  <path
    opacity="0.2"
    d="M194.75 140.58C195.8 140.88 197.46 141.37 198.48 140.52C200.05 139.24 201.79 136.74 203.35 133.65C204.81 130.19 205.74 124.96 206.09 122.68C205.9 123.51 205.69 124.33 205.45 125.15C204.74 127.6 203.85 129.86 202.88 131.73C202.56 132.36 202.23 132.94 201.89 133.47C201.31 134.4 200.74 135.14 200.18 135.67C199.25 136.56 198.36 136.89 197.5 136.63C197.5 136.63 197.48 136.63 197.47 136.63C197.47 136.63 197.45 136.63 197.44 136.63C196.06 136.23 195.48 134.5 195.38 132.14C194.44 135.17 192.41 134.94 191.91 131.91C191.41 128.88 194.83 117.7 197.62 112.22C200.18 107.39 203.62 106.5 204.43 106.35C203.31 106.11 201.25 106.27 199.92 107.18C196.88 109.18 194.11 114.19 192.06 121.27C190.07 128.13 189.67 133.23 190.81 136.56C191.13 137.43 191.68 138.22 192.29 138.88C193.12 139.77 194.06 140.38 194.69 140.56L194.75 140.58Z"
    fill="#231F1F"
  />
  <path
    d="M192.291 138.88C192.571 139.19 192.861 139.47 193.161 139.71C193.721 140.14 194.271 140.44 194.701 140.57C194.071 140.39 193.131 139.77 192.301 138.89L192.291 138.88Z"
    fill="#390176"
  />
  <path
    d="M192.291 138.88C192.571 139.19 192.861 139.47 193.161 139.71C193.721 140.14 194.271 140.44 194.701 140.57C194.071 140.39 193.131 139.77 192.301 138.89L192.291 138.88Z"
    fill="url(#paint20_radial_7713_30670)"
  />
  <path
    opacity="0.2"
    d="M192.291 138.88C192.571 139.19 192.861 139.47 193.161 139.71C193.721 140.14 194.271 140.44 194.701 140.57C194.071 140.39 193.131 139.77 192.301 138.89L192.291 138.88Z"
    fill="#231F1F"
  />
  <path
    d="M194.75 140.58C195.86 140.9 197.46 141.37 198.48 140.52C197.46 141.36 195.8 140.88 194.75 140.58Z"
    fill="#390176"
  />
  <path
    d="M194.75 140.58C195.86 140.9 197.46 141.37 198.48 140.52C197.46 141.36 195.8 140.88 194.75 140.58Z"
    fill="url(#paint21_radial_7713_30670)"
  />
  <path
    opacity="0.2"
    d="M194.75 140.58C195.86 140.9 197.46 141.37 198.48 140.52C197.46 141.36 195.8 140.88 194.75 140.58Z"
    fill="#231F1F"
  />
  <path
    d="M201.85 133.46C203.19 131.33 204.46 128.4 205.4 125.13C205.75 123.91 206.03 122.74 206.26 121.54C206.26 121.54 206.22 121.85 206.14 122.37C206.2 122.1 206.26 121.82 206.32 121.56C207.05 117.82 207.21 114.25 206.25 112.41C206.25 112.41 206.25 112.41 206.25 112.4C206.17 112.25 206.09 112.11 205.99 111.99C205.99 111.99 205.98 111.98 205.97 111.97C205.89 111.86 205.8 111.76 205.7 111.67C205.68 111.65 205.67 111.64 205.65 111.62C205.55 111.53 205.44 111.46 205.33 111.39C205.31 111.38 205.28 111.36 205.26 111.35C205.14 111.29 205.02 111.23 204.89 111.19C203.51 110.79 202.06 111.87 200.5 114.35C199.16 116.48 197.89 119.41 196.95 122.68C196 125.94 195.41 129.43 195.48 132.09C195.55 134.36 196.11 136.03 197.27 136.55C197.34 136.58 197.41 136.61 197.49 136.63C198.81 136.99 200.31 135.93 201.86 133.46H201.85ZM198.65 123.18C198.79 122.69 198.94 122.21 199.09 121.74C199.09 121.71 199.11 121.69 199.12 121.66C200.84 116.35 203.1 112.53 204.39 112.9C205.8 113.31 205.51 118.57 203.75 124.65C201.99 130.73 199.42 135.33 198.02 134.92C196.62 134.51 196.9 129.25 198.66 123.17L198.65 123.18Z"
    fill="#390176"
  />
  <path
    d="M195.47 132.09C195.4 129.43 195.99 125.94 196.94 122.68C195.21 128.64 194.62 135.38 197.27 136.55C196.11 136.03 195.55 134.36 195.48 132.09H195.47Z"
    fill="#390176"
  />
  <path
    d="M204.881 111.19C205.011 111.23 205.141 111.28 205.251 111.35C205.131 111.29 205.011 111.23 204.881 111.19Z"
    fill="#390176"
  />
  <path
    d="M205.98 111.99C206.07 112.12 206.16 112.25 206.24 112.4C206.16 112.25 206.08 112.11 205.98 111.99Z"
    fill="#390176"
  />
  <path
    d="M206.14 122.38C206.13 122.48 206.11 122.58 206.09 122.69C207.04 118.54 207.31 114.44 206.25 112.41C207.21 114.25 207.04 117.82 206.32 121.56C206.27 121.83 206.2 122.1 206.14 122.37V122.38Z"
    fill="#390176"
  />
  <path
    d="M206.26 121.55C206.03 122.74 205.75 123.92 205.4 125.14C204.45 128.4 203.19 131.33 201.85 133.47C200.3 135.94 198.81 137 197.48 136.64C197.48 136.64 197.5 136.64 197.51 136.64C198.37 136.89 199.27 136.56 200.19 135.68C200.75 135.15 201.32 134.41 201.9 133.48C202.23 132.95 202.56 132.36 202.89 131.74C203.86 129.86 204.75 127.6 205.46 125.16C205.72 124.26 205.95 123.32 206.14 122.39C206.22 121.87 206.26 121.56 206.26 121.56V121.55Z"
    fill="#390176"
  />
  <path
    d="M205.449 125.15C205.689 124.34 205.899 123.51 206.089 122.68C206.109 122.57 206.119 122.47 206.139 122.37C205.939 123.3 205.719 124.24 205.459 125.14L205.449 125.15Z"
    fill="#390176"
  />
  <path
    d="M203.74 124.66C205.84 117.41 205.16 113.14 204.38 112.91C204.07 112.82 203.34 113.38 202.44 114.64C202.52 116.64 202.26 119.8 201.08 123.89C199.89 127.98 198.42 130.79 197.28 132.44C197.21 130.7 197.4 128.07 198.23 124.71C196.65 131.02 197.28 134.71 198 134.92C198.77 135.14 201.63 131.9 203.73 124.65L203.74 124.66Z"
    fill="url(#paint22_linear_7713_30670)"
  />
  <path
    opacity="0.2"
    d="M203.74 124.66C205.84 117.41 205.16 113.14 204.38 112.91C204.07 112.82 203.34 113.38 202.44 114.64C202.52 116.64 202.26 119.8 201.08 123.89C199.89 127.98 198.42 130.79 197.28 132.44C197.21 130.7 197.4 128.07 198.23 124.71C196.65 131.02 197.28 134.71 198 134.92C198.77 135.14 201.63 131.9 203.73 124.65L203.74 124.66Z"
    fill="#231F1F"
  />
  <path
    opacity="0.2"
    d="M203.74 124.66C205.84 117.41 205.16 113.14 204.38 112.91C204.07 112.82 203.34 113.38 202.44 114.64C202.52 116.64 202.26 119.8 201.08 123.89C199.89 127.98 198.42 130.79 197.28 132.44C197.21 130.7 197.4 128.07 198.23 124.71C196.65 131.02 197.28 134.71 198 134.92C198.77 135.14 201.63 131.9 203.73 124.65L203.74 124.66Z"
    fill="#231F1F"
  />
  <path
    d="M203.74 124.66C205.5 118.58 205.79 113.32 204.38 112.91C205.15 113.13 205.83 117.41 203.74 124.66Z"
    fill="#390176"
  />
  <path
    d="M203.74 124.66C205.5 118.58 205.79 113.32 204.38 112.91C205.15 113.13 205.83 117.41 203.74 124.66Z"
    fill="url(#paint23_linear_7713_30670)"
  />
  <path
    opacity="0.2"
    d="M203.74 124.66C205.5 118.58 205.79 113.32 204.38 112.91C205.15 113.13 205.83 117.41 203.74 124.66Z"
    fill="#231F1F"
  />
  <path
    opacity="0.2"
    d="M203.74 124.66C205.5 118.58 205.79 113.32 204.38 112.91C205.15 113.13 205.83 117.41 203.74 124.66Z"
    fill="#231F1F"
  />
  <path
    d="M199.481 120.62C200.461 117.89 201.521 115.89 202.451 114.63C202.451 114.63 202.451 114.63 202.451 114.64C203.351 113.38 204.071 112.82 204.391 112.91C203.101 112.54 200.851 116.36 199.121 121.67C199.211 121.39 199.301 121.14 199.401 120.87C199.431 120.79 199.461 120.7 199.491 120.62H199.481Z"
    fill="#390176"
  />
  <path
    d="M199.481 120.62C200.461 117.89 201.521 115.89 202.451 114.63C202.451 114.63 202.451 114.63 202.451 114.64C203.351 113.38 204.071 112.82 204.391 112.91C203.101 112.54 200.851 116.36 199.121 121.67C199.211 121.39 199.301 121.14 199.401 120.87C199.431 120.79 199.461 120.7 199.491 120.62H199.481Z"
    fill="url(#paint24_linear_7713_30670)"
  />
  <path
    opacity="0.2"
    d="M199.481 120.62C200.461 117.89 201.521 115.89 202.451 114.63C202.451 114.63 202.451 114.63 202.451 114.64C203.351 113.38 204.071 112.82 204.391 112.91C203.101 112.54 200.851 116.36 199.121 121.67C199.211 121.39 199.301 121.14 199.401 120.87C199.431 120.79 199.461 120.7 199.491 120.62H199.481Z"
    fill="#231F1F"
  />
  <path
    opacity="0.2"
    d="M199.481 120.62C200.461 117.89 201.521 115.89 202.451 114.63C202.451 114.63 202.451 114.63 202.451 114.64C203.351 113.38 204.071 112.82 204.391 112.91C203.101 112.54 200.851 116.36 199.121 121.67C199.211 121.39 199.301 121.14 199.401 120.87C199.431 120.79 199.461 120.7 199.491 120.62H199.481Z"
    fill="#231F1F"
  />
  <path
    d="M198.239 124.72C198.239 124.72 198.239 124.68 198.249 124.66C198.369 124.18 198.499 123.69 198.649 123.18C196.889 129.26 196.599 134.52 198.009 134.93C197.289 134.72 196.659 131.03 198.239 124.72Z"
    fill="#390176"
  />
  <path
    d="M198.239 124.72C198.239 124.72 198.239 124.68 198.249 124.66C198.369 124.18 198.499 123.69 198.649 123.18C196.889 129.26 196.599 134.52 198.009 134.93C197.289 134.72 196.659 131.03 198.239 124.72Z"
    fill="url(#paint25_linear_7713_30670)"
  />
  <path
    opacity="0.2"
    d="M198.239 124.72C198.239 124.72 198.239 124.68 198.249 124.66C198.369 124.18 198.499 123.69 198.649 123.18C196.889 129.26 196.599 134.52 198.009 134.93C197.289 134.72 196.659 131.03 198.239 124.72Z"
    fill="#231F1F"
  />
  <path
    opacity="0.2"
    d="M198.239 124.72C198.239 124.72 198.239 124.68 198.249 124.66C198.369 124.18 198.499 123.69 198.649 123.18C196.889 129.26 196.599 134.52 198.009 134.93C197.289 134.72 196.659 131.03 198.239 124.72Z"
    fill="#231F1F"
  />
  <path
    d="M199.09 121.74C198.94 122.21 198.79 122.69 198.65 123.18C198.79 122.71 198.93 122.26 199.07 121.82C199.07 121.8 199.09 121.77 199.09 121.74Z"
    fill="#390176"
  />
  <path
    d="M199.09 121.74C198.94 122.21 198.79 122.69 198.65 123.18C198.79 122.71 198.93 122.26 199.07 121.82C199.07 121.8 199.09 121.77 199.09 121.74Z"
    fill="url(#paint26_linear_7713_30670)"
  />
  <path
    opacity="0.2"
    d="M199.09 121.74C198.94 122.21 198.79 122.69 198.65 123.18C198.79 122.71 198.93 122.26 199.07 121.82C199.07 121.8 199.09 121.77 199.09 121.74Z"
    fill="#231F1F"
  />
  <path
    opacity="0.2"
    d="M199.09 121.74C198.94 122.21 198.79 122.69 198.65 123.18C198.79 122.71 198.93 122.26 199.07 121.82C199.07 121.8 199.09 121.77 199.09 121.74Z"
    fill="#231F1F"
  />
  <path
    d="M203.74 124.66C201.64 131.91 198.78 135.16 198.01 134.93C199.42 135.34 201.98 130.74 203.74 124.66Z"
    fill="#390176"
  />
  <path
    d="M203.74 124.66C201.64 131.91 198.78 135.16 198.01 134.93C199.42 135.34 201.98 130.74 203.74 124.66Z"
    fill="url(#paint27_linear_7713_30670)"
  />
  <path
    opacity="0.2"
    d="M203.74 124.66C201.64 131.91 198.78 135.16 198.01 134.93C199.42 135.34 201.98 130.74 203.74 124.66Z"
    fill="#231F1F"
  />
  <path
    opacity="0.2"
    d="M203.74 124.66C201.64 131.91 198.78 135.16 198.01 134.93C199.42 135.34 201.98 130.74 203.74 124.66Z"
    fill="#231F1F"
  />
  <path
    d="M199.09 121.74C199.09 121.74 199.11 121.69 199.12 121.66C199.12 121.69 199.1 121.71 199.09 121.74Z"
    fill="#390176"
  />
  <path
    opacity="0.2"
    d="M199.09 121.74C199.09 121.74 199.11 121.69 199.12 121.66C199.12 121.69 199.1 121.71 199.09 121.74Z"
    fill="#231F1F"
  />
  <path
    d="M198.241 124.72C197.411 128.07 197.221 130.7 197.291 132.45C198.431 130.8 199.901 127.99 201.091 123.9C202.271 119.81 202.531 116.65 202.451 114.65C201.551 115.92 200.471 117.9 199.481 120.63C199.451 120.71 199.421 120.8 199.391 120.88C199.281 121.19 199.171 121.5 199.061 121.83C198.921 122.27 198.781 122.72 198.641 123.19C198.491 123.7 198.361 124.19 198.241 124.67C198.241 124.69 198.241 124.71 198.231 124.73L198.241 124.72Z"
    fill="url(#paint28_linear_7713_30670)"
  />
  <path
    opacity="0.2"
    d="M198.241 124.72C197.411 128.07 197.221 130.7 197.291 132.45C198.431 130.8 199.901 127.99 201.091 123.9C202.271 119.81 202.531 116.65 202.451 114.65C201.551 115.92 200.471 117.9 199.481 120.63C199.451 120.71 199.421 120.8 199.391 120.88C199.281 121.19 199.171 121.5 199.061 121.83C198.921 122.27 198.781 122.72 198.641 123.19C198.491 123.7 198.361 124.19 198.241 124.67C198.241 124.69 198.241 124.71 198.231 124.73L198.241 124.72Z"
    fill="#231F1F"
  />
  <path
    opacity="0.2"
    d="M198.241 124.72C197.411 128.07 197.221 130.7 197.291 132.45C198.431 130.8 199.901 127.99 201.091 123.9C202.271 119.81 202.531 116.65 202.451 114.65C201.551 115.92 200.471 117.9 199.481 120.63C199.451 120.71 199.421 120.8 199.391 120.88C199.281 121.19 199.171 121.5 199.061 121.83C198.921 122.27 198.781 122.72 198.641 123.19C198.491 123.7 198.361 124.19 198.241 124.67C198.241 124.69 198.241 124.71 198.231 124.73L198.241 124.72Z"
    fill="#231F1F"
  />
  <path
    opacity="0.2"
    d="M198.241 124.72C197.411 128.07 197.221 130.7 197.291 132.45C198.431 130.8 199.901 127.99 201.091 123.9C202.271 119.81 202.531 116.65 202.451 114.65C201.551 115.92 200.471 117.9 199.481 120.63C199.451 120.71 199.421 120.8 199.391 120.88C199.281 121.19 199.171 121.5 199.061 121.83C198.921 122.27 198.781 122.72 198.641 123.19C198.491 123.7 198.361 124.19 198.241 124.67C198.241 124.69 198.241 124.71 198.231 124.73L198.241 124.72Z"
    fill="#231F1F"
  />
  <path
    d="M198.24 124.72C198.24 124.72 198.24 124.68 198.25 124.66C198.25 124.68 198.25 124.7 198.24 124.72Z"
    fill="#390176"
  />
  <path
    d="M198.24 124.72C198.24 124.72 198.24 124.68 198.25 124.66C198.25 124.68 198.25 124.7 198.24 124.72Z"
    fill="url(#paint29_linear_7713_30670)"
  />
  <path
    opacity="0.2"
    d="M198.24 124.72C198.24 124.72 198.24 124.68 198.25 124.66C198.25 124.68 198.25 124.7 198.24 124.72Z"
    fill="#231F1F"
  />
  <path
    opacity="0.2"
    d="M198.24 124.72C198.24 124.72 198.24 124.68 198.25 124.66C198.25 124.68 198.25 124.7 198.24 124.72Z"
    fill="#231F1F"
  />
  <path
    opacity="0.2"
    d="M198.24 124.72C198.24 124.72 198.24 124.68 198.25 124.66C198.25 124.68 198.25 124.7 198.24 124.72Z"
    fill="#231F1F"
  />
  <path
    d="M199.48 120.62C200.47 117.88 201.54 115.91 202.45 114.64C202.45 114.64 202.45 114.64 202.45 114.63C201.53 115.9 200.47 117.89 199.48 120.62Z"
    fill="#390176"
  />
  <path
    d="M199.48 120.62C200.47 117.88 201.54 115.91 202.45 114.64C202.45 114.64 202.45 114.64 202.45 114.63C201.53 115.9 200.47 117.89 199.48 120.62Z"
    fill="url(#paint30_linear_7713_30670)"
  />
  <path
    opacity="0.2"
    d="M199.48 120.62C200.47 117.88 201.54 115.91 202.45 114.64C202.45 114.64 202.45 114.64 202.45 114.63C201.53 115.9 200.47 117.89 199.48 120.62Z"
    fill="#231F1F"
  />
  <path
    opacity="0.2"
    d="M199.48 120.62C200.47 117.88 201.54 115.91 202.45 114.64C202.45 114.64 202.45 114.64 202.45 114.63C201.53 115.9 200.47 117.89 199.48 120.62Z"
    fill="#231F1F"
  />
  <path
    opacity="0.2"
    d="M199.48 120.62C200.47 117.88 201.54 115.91 202.45 114.64C202.45 114.64 202.45 114.64 202.45 114.63C201.53 115.9 200.47 117.89 199.48 120.62Z"
    fill="#231F1F"
  />
  <path
    d="M199.4 120.87C199.31 121.13 199.21 121.39 199.12 121.67C199.12 121.7 199.1 121.72 199.09 121.75C199.09 121.77 199.07 121.8 199.07 121.83C199.18 121.5 199.29 121.19 199.4 120.88V120.87Z"
    fill="#390176"
  />
  <path
    d="M199.4 120.87C199.31 121.13 199.21 121.39 199.12 121.67C199.12 121.7 199.1 121.72 199.09 121.75C199.09 121.77 199.07 121.8 199.07 121.83C199.18 121.5 199.29 121.19 199.4 120.88V120.87Z"
    fill="url(#paint31_linear_7713_30670)"
  />
  <path
    opacity="0.2"
    d="M199.4 120.87C199.31 121.13 199.21 121.39 199.12 121.67C199.12 121.7 199.1 121.72 199.09 121.75C199.09 121.77 199.07 121.8 199.07 121.83C199.18 121.5 199.29 121.19 199.4 120.88V120.87Z"
    fill="#231F1F"
  />
  <path
    opacity="0.2"
    d="M199.4 120.87C199.31 121.13 199.21 121.39 199.12 121.67C199.12 121.7 199.1 121.72 199.09 121.75C199.09 121.77 199.07 121.8 199.07 121.83C199.18 121.5 199.29 121.19 199.4 120.88V120.87Z"
    fill="#231F1F"
  />
  <path
    opacity="0.2"
    d="M199.4 120.87C199.31 121.13 199.21 121.39 199.12 121.67C199.12 121.7 199.1 121.72 199.09 121.75C199.09 121.77 199.07 121.8 199.07 121.83C199.18 121.5 199.29 121.19 199.4 120.88V120.87Z"
    fill="#231F1F"
  />
  <path
    d="M201.621 107.97C201.391 108.14 198.121 111.15 195.911 116.51C195.731 116.94 195.531 117.42 195.381 117.92C195.121 118.62 195.481 119.45 196.241 119.73C196.941 119.99 197.771 119.63 198.051 118.87C200.031 113.27 203.461 110.12 203.531 110.08C204.111 109.53 204.131 108.63 203.631 108.07C203.081 107.49 202.181 107.47 201.621 107.97Z"
    fill="url(#paint32_radial_7713_30670)"
  />
  <path
    d="M201.621 107.97C201.391 108.14 198.121 111.15 195.911 116.51C195.731 116.94 195.531 117.42 195.381 117.92C195.121 118.62 195.481 119.45 196.241 119.73C196.941 119.99 197.771 119.63 198.051 118.87C200.031 113.27 203.461 110.12 203.531 110.08C204.111 109.53 204.131 108.63 203.631 108.07C203.081 107.49 202.181 107.47 201.621 107.97Z"
    fill="url(#paint33_linear_7713_30670)"
  />
  <path
    d="M190.575 110.317C190.763 109.647 187.079 108.025 182.348 106.695C177.616 105.365 173.627 104.83 173.439 105.5C173.25 106.17 176.934 107.791 181.666 109.121C186.398 110.451 190.386 110.987 190.575 110.317Z"
    fill="url(#paint34_linear_7713_30670)"
  />
  <path
    d="M111.8 19.67V20.74C111.8 20.74 108 23.18 107.89 23.07C107.78 22.96 107.26 22.81 107.26 22.81L111.8 19.67Z"
    fill="url(#paint35_linear_7713_30670)"
  />
  <path
    d="M102.519 26.32L101.859 27.18L112.209 29.05L113.609 28.68C112.939 28.59 112.509 28.44 112.509 28.44L102.519 26.32Z"
    fill="url(#paint36_linear_7713_30670)"
  />
  <path
    d="M97.8809 24.05H100.251L101.861 23.26L107.271 22.81H101.811L97.8809 24.05Z"
    fill="url(#paint37_linear_7713_30670)"
  />
  <path
    d="M99.9491 29.65L98.8391 30.31L97.5391 29.65H99.9491Z"
    fill="url(#paint38_linear_7713_30670)"
  />
  <path
    d="M114.951 41.77C113.701 34.73 117.011 34.46 117.771 38.42C118.531 42.38 120.311 46.05 122.361 47.76C124.411 49.48 116.151 48.55 114.951 41.77Z"
    fill="url(#paint39_linear_7713_30670)"
  />
  <path
    d="M128.251 56.1C123.981 52.25 126.751 49.73 135.431 57.48C140.971 62.42 144.601 66.28 146.411 69.46C148.231 72.64 144.051 73.48 138.901 66.93C133.751 60.38 132.491 59.92 128.251 56.1Z"
    fill="url(#paint40_linear_7713_30670)"
  />
  <path
    d="M94.2402 23.64L96.7302 29.31L97.5402 29.65L94.2402 21.57V23.64Z"
    fill="url(#paint41_linear_7713_30670)"
  />
  <path
    opacity="0.2"
    d="M97.5205 34.72C98.4705 30.63 100.27 29.74 99.9005 35.09C99.5305 40.44 98.3205 46.79 95.6205 49.32C92.9205 51.85 91.2705 49.42 93.9705 44.98C96.6705 40.54 96.9105 37.35 97.5205 34.72Z"
    fill="#231F1F"
  />
  <path
    opacity="0.2"
    d="M63.4605 97.39C64.5405 80.78 72.4505 101.22 80.3205 108.14C88.1905 115.06 92.9905 117.23 98.7405 118.84C104.49 120.45 97.5405 122.68 84.2705 118.84C74.3905 115.98 62.5605 111.19 63.4605 97.39Z"
    fill="#231F1F"
  />
  <path
    opacity="0.6"
    d="M99.9492 29.65L105.799 37.07V41.83L107.269 42.83L106.739 44.49V48.87L105.249 53.42L106.299 49.18L106.099 44.44L106.739 42.83L103.879 41.83H105.139L105.499 37.12L101.859 33.54L99.9492 29.65Z"
    fill="white"
  />
  <path
    opacity="0.6"
    d="M106.301 45.74L107.311 52.41L111.131 55.86L114.371 56.24L124.371 63.18L114.761 55.73L112.981 55.78L111.421 55.26L107.741 52.38L106.141 45.43"
    fill="white"
  />
  <path
    d="M137.98 89.22L132.99 82L128.24 83.13L127.67 80.36L122.7 78.54L115.84 64.01L122.52 79.36H122.7L126.91 80.66L128.15 83.64L132.38 82.68L137.98 89.22Z"
    fill="#EBFBFF"
  />
  <path
    opacity="0.6"
    d="M168.83 109.97L172.65 115.75L177.18 115.99L182.01 123.02L188.42 123.94H178.63L181.02 123.43L176.87 116.43L172.14 115.77L168.83 109.97Z"
    fill="white"
  />
  <path
    d="M143.279 96.05C144.309 97.27 145.219 98.57 146.099 99.9L145.859 99.77C146.939 99.76 148.009 99.77 149.089 99.83H149.259C149.489 100.69 149.689 101.56 149.839 102.43C149.489 101.67 149.169 100.9 148.879 100.12L149.089 100.27C147.959 100.33 146.829 100.35 145.709 100.33C144.829 98.95 143.999 97.54 143.289 96.05H143.279Z"
    fill="#EBFBFF"
  />
  <path
    opacity="0.6"
    d="M183.81 114.45L179.9 113.98L174.58 115.98L180.02 114.32L183.81 114.45Z"
    fill="white"
  />
  <path
    d="M39.7999 140.93C38.4599 140.93 36.9699 140.91 35.3199 140.86C34.6999 140.84 33.9299 140.84 33.0399 140.84H29.4299C18.8599 140.84 14.7899 140.24 13.8899 138.54C13.7099 138.2 13.4899 137.51 14.0599 136.67C15.3199 134.79 17.2599 133.87 18.5399 133.27C18.7699 133.16 19.0499 133.03 19.2699 132.91C18.5799 132.23 17.9999 131.52 18.3499 130.65C18.8199 129.48 20.3899 128.98 28.8899 128.98C32.9499 128.98 39.3799 130.63 39.9499 132.91C40.0099 133.16 40.1299 133.97 39.2799 134.62C40.4699 135.03 42.8899 135.47 44.7499 135.82C45.5299 135.97 46.3399 136.11 47.1299 136.27C49.9399 136.82 51.1499 137.57 51.0399 138.71C50.9499 139.6 50.8199 140.94 39.8299 140.94L39.7999 140.93Z"
    fill="#390176"
  />
  <path
    d="M28.8594 129.94C17.5994 129.94 18.5594 130.91 20.1494 132.43C21.7394 133.95 17.0694 133.89 14.8394 137.21C12.6094 140.53 29.9494 139.75 35.3394 139.89C52.2294 140.36 52.2294 138.25 46.9194 137.21C41.6094 136.17 35.7694 135.42 38.4194 133.99C41.0694 132.56 34.0594 129.94 28.8594 129.94Z"
    fill="url(#paint42_radial_7713_30670)"
  />
  <path
    d="M53.0207 148.6C48.0207 148.6 44.2307 147.14 44.2207 145.2C44.2207 144.32 44.8607 143.25 47.9707 143.21C48.6707 143.21 49.3307 143.2 49.9707 143.2C62.6007 143.2 62.6907 144.9 62.7307 145.71C62.7807 146.71 62.0007 147.82 55.8307 148.46C54.8807 148.56 53.9307 148.61 53.0107 148.61L53.0207 148.6Z"
    fill="#390176"
  />
  <path
    d="M47.9807 144.18C41.8707 144.27 46.3907 148.45 55.7307 147.49C65.0807 146.53 64.3307 143.95 47.9807 144.18Z"
    fill="url(#paint43_radial_7713_30670)"
  />
  <path
    opacity="0.2"
    d="M49.6692 138.1C49.6292 139.28 46.0692 139.74 38.4792 139.71C30.8892 139.68 15.0392 138.42 15.2192 136.73C15.0892 136.88 14.9692 137.04 14.8492 137.21C12.6192 140.53 29.9592 139.75 35.3492 139.89C48.1592 140.24 51.2492 139.11 49.6692 138.09V138.1Z"
    fill="#231F1F"
  />
  <path
    opacity="0.2"
    d="M55.7309 147.49C57.7209 147.29 59.2409 147.01 60.2609 146.7C59.1209 146.96 57.4409 147.01 55.2009 146.96C51.5409 146.88 47.5009 146.86 45.2609 144.98C44.7109 146.17 48.9309 148.19 55.7309 147.49Z"
    fill="#231F1F"
  />
  <path
    opacity="0.2"
    d="M61.5117 146.15C61.5917 146.09 61.6617 146.02 61.7017 145.96C61.6417 146.03 61.5817 146.09 61.5117 146.15Z"
    fill="#231F1F"
  />
  <defs>
    <linearGradient
      id="paint0_linear_7713_30670"
      x1="94.2402"
      y1="27.67"
      x2="119.64"
      y2="27.67"
      gradientUnits="userSpaceOnUse"
    >
      <stop stop-color="#99E8F0" />
      <stop offset="1" stop-color="#C2FFFF" />
    </linearGradient>
    <linearGradient
      id="paint1_linear_7713_30670"
      x1="114.551"
      y1="24.52"
      x2="119.331"
      y2="24.52"
      gradientUnits="userSpaceOnUse"
    >
      <stop stop-color="white" stop-opacity="0" />
      <stop offset="1" stop-color="white" />
    </linearGradient>
    <radialGradient
      id="paint2_radial_7713_30670"
      cx="0"
      cy="0"
      r="1"
      gradientUnits="userSpaceOnUse"
      gradientTransform="translate(73.46 140.44) scale(136.03 136.03)"
    >
      <stop stop-color="#76D1F0" />
      <stop offset="0.49" stop-color="#DC72E8" />
      <stop offset="1" stop-color="#752CF7" />
    </radialGradient>
    <radialGradient
      id="paint3_radial_7713_30670"
      cx="0"
      cy="0"
      r="1"
      gradientUnits="userSpaceOnUse"
      gradientTransform="translate(23.24 141.86) scale(183.68 183.68)"
    >
      <stop stop-color="#752CF7" />
      <stop offset="0.51" stop-color="#DC72E8" />
      <stop offset="1" stop-color="#76D1F0" />
    </radialGradient>
    <radialGradient
      id="paint4_radial_7713_30670"
      cx="0"
      cy="0"
      r="1"
      gradientUnits="userSpaceOnUse"
      gradientTransform="translate(138.851 45.7) scale(115.21 115.21)"
    >
      <stop stop-color="#9CFFFF" />
      <stop offset="0.72" stop-color="#7682F0" />
      <stop offset="1" stop-color="#9CFFFF" />
    </radialGradient>
    <radialGradient
      id="paint5_radial_7713_30670"
      cx="0"
      cy="0"
      r="1"
      gradientUnits="userSpaceOnUse"
      gradientTransform="translate(62.5608 72.49) scale(153.35 153.35)"
    >
      <stop stop-color="#752CF7" />
      <stop offset="0.51" stop-color="#DC72E8" />
      <stop offset="1" stop-color="#76D1F0" />
    </radialGradient>
    <linearGradient
      id="paint6_linear_7713_30670"
      x1="65.8558"
      y1="75.88"
      x2="148.698"
      y2="75.88"
      gradientUnits="userSpaceOnUse"
    >
      <stop stop-color="#E9CFF6" />
      <stop offset="1" stop-color="#FF7FED" />
    </linearGradient>
    <linearGradient
      id="paint7_linear_7713_30670"
      x1="129.24"
      y1="78.02"
      x2="146.53"
      y2="78.02"
      gradientUnits="userSpaceOnUse"
    >
      <stop stop-color="#E9A0F6" />
      <stop offset="1" stop-color="#CD5DED" />
    </linearGradient>
    <linearGradient
      id="paint8_linear_7713_30670"
      x1="106.52"
      y1="76.75"
      x2="140.26"
      y2="76.75"
      gradientUnits="userSpaceOnUse"
    >
      <stop stop-color="#E9A0F6" />
      <stop offset="1" stop-color="#CD5DED" />
    </linearGradient>
    <linearGradient
      id="paint9_linear_7713_30670"
      x1="68.1295"
      y1="76.24"
      x2="111.989"
      y2="76.24"
      gradientUnits="userSpaceOnUse"
    >
      <stop stop-color="#E9A0F6" />
      <stop offset="1" stop-color="#CD5DED" />
    </linearGradient>
    <radialGradient
      id="paint10_radial_7713_30670"
      cx="0"
      cy="0"
      r="1"
      gradientUnits="userSpaceOnUse"
      gradientTransform="translate(62.5596 72.49) scale(153.35 153.35)"
    >
      <stop stop-color="#76D1F0" />
      <stop offset="0.49" stop-color="#DC72E8" />
      <stop offset="1" stop-color="#752CF7" />
    </radialGradient>
    <radialGradient
      id="paint11_radial_7713_30670"
      cx="0"
      cy="0"
      r="1"
      gradientUnits="userSpaceOnUse"
      gradientTransform="translate(23.2407 141.86) scale(183.68 183.68)"
    >
      <stop stop-color="#752CF7" />
      <stop offset="0.51" stop-color="#DC72E8" />
      <stop offset="1" stop-color="#76D1F0" />
    </radialGradient>
    <linearGradient
      id="paint12_linear_7713_30670"
      x1="146.03"
      y1="103.43"
      x2="147.55"
      y2="110.49"
      gradientUnits="userSpaceOnUse"
    >
      <stop stop-color="white" />
      <stop offset="1" stop-color="white" stop-opacity="0" />
    </linearGradient>
    <radialGradient
      id="paint13_radial_7713_30670"
      cx="0"
      cy="0"
      r="1"
      gradientUnits="userSpaceOnUse"
      gradientTransform="translate(153.981 129.39) scale(44.07 44.07)"
    >
      <stop stop-color="#9CFFFF" />
      <stop offset="0.28" stop-color="#7682F0" />
      <stop offset="1" stop-color="#9CFFFF" />
    </radialGradient>
    <radialGradient
      id="paint14_radial_7713_30670"
      cx="0"
      cy="0"
      r="1"
      gradientUnits="userSpaceOnUse"
      gradientTransform="translate(190.919 119.035) rotate(106.16) scale(0.25 0.250001)"
    >
      <stop stop-color="#9CFFFF" />
      <stop offset="0.28" stop-color="#7682F0" />
      <stop offset="1" stop-color="#9CFFFF" />
    </radialGradient>
    <radialGradient
      id="paint15_radial_7713_30670"
      cx="0"
      cy="0"
      r="1"
      gradientUnits="userSpaceOnUse"
      gradientTransform="translate(190.541 120.268) rotate(106.16) scale(0.410001 0.410009)"
    >
      <stop stop-color="#9CFFFF" />
      <stop offset="0.28" stop-color="#7682F0" />
      <stop offset="1" stop-color="#9CFFFF" />
    </radialGradient>
    <radialGradient
      id="paint16_radial_7713_30670"
      cx="0"
      cy="0"
      r="1"
      gradientUnits="userSpaceOnUse"
      gradientTransform="translate(191.264 117.99) rotate(106.16) scale(0.190001 0.189998)"
    >
      <stop stop-color="#9CFFFF" />
      <stop offset="0.28" stop-color="#7682F0" />
      <stop offset="1" stop-color="#9CFFFF" />
    </radialGradient>
    <radialGradient
      id="paint17_radial_7713_30670"
      cx="0"
      cy="0"
      r="1"
      gradientUnits="userSpaceOnUse"
      gradientTransform="translate(202.858 105.034) rotate(106.16) scale(37.74 37.74)"
    >
      <stop stop-color="#9CFFFF" />
      <stop offset="0.81" stop-color="#92B6F0" />
      <stop offset="1" stop-color="#9CFFFF" />
    </radialGradient>
    <radialGradient
      id="paint18_radial_7713_30670"
      cx="0"
      cy="0"
      r="1"
      gradientUnits="userSpaceOnUse"
      gradientTransform="translate(371.192 -475.888) rotate(106.16) scale(37.74 37.74)"
    >
      <stop stop-color="#9CFFFF" />
      <stop offset="0.81" stop-color="#92B6F0" />
      <stop offset="1" stop-color="#9CFFFF" />
    </radialGradient>
    <radialGradient
      id="paint19_radial_7713_30670"
      cx="0"
      cy="0"
      r="1"
      gradientUnits="userSpaceOnUse"
      gradientTransform="translate(75.8507 -561.469) rotate(106.16) scale(37.74 37.74)"
    >
      <stop stop-color="#9CFFFF" />
      <stop offset="0.81" stop-color="#92B6F0" />
      <stop offset="1" stop-color="#9CFFFF" />
    </radialGradient>
    <radialGradient
      id="paint20_radial_7713_30670"
      cx="0"
      cy="0"
      r="1"
      gradientUnits="userSpaceOnUse"
      gradientTransform="translate(-92.4827 19.4534) rotate(106.16) scale(37.7401 37.7401)"
    >
      <stop stop-color="#9CFFFF" />
      <stop offset="0.81" stop-color="#92B6F0" />
      <stop offset="1" stop-color="#9CFFFF" />
    </radialGradient>
    <radialGradient
      id="paint21_radial_7713_30670"
      cx="0"
      cy="0"
      r="1"
      gradientUnits="userSpaceOnUse"
      gradientTransform="translate(202.857 105.034) rotate(106.16) scale(37.7399 37.74)"
    >
      <stop stop-color="#9CFFFF" />
      <stop offset="0.81" stop-color="#92B6F0" />
      <stop offset="1" stop-color="#9CFFFF" />
    </radialGradient>
    <linearGradient
      id="paint22_linear_7713_30670"
      x1="198.028"
      y1="134.854"
      x2="204.407"
      y2="112.839"
      gradientUnits="userSpaceOnUse"
    >
      <stop stop-color="#99E8F0" />
      <stop offset="1" stop-color="#C2FFFF" />
    </linearGradient>
    <linearGradient
      id="paint23_linear_7713_30670"
      x1="199.277"
      y1="135.216"
      x2="205.656"
      y2="113.201"
      gradientUnits="userSpaceOnUse"
    >
      <stop stop-color="#99E8F0" />
      <stop offset="1" stop-color="#C2FFFF" />
    </linearGradient>
    <linearGradient
      id="paint24_linear_7713_30670"
      x1="196.752"
      y1="134.484"
      x2="203.131"
      y2="112.469"
      gradientUnits="userSpaceOnUse"
    >
      <stop stop-color="#99E8F0" />
      <stop offset="1" stop-color="#C2FFFF" />
    </linearGradient>
    <linearGradient
      id="paint25_linear_7713_30670"
      x1="196.731"
      y1="134.478"
      x2="203.11"
      y2="112.464"
      gradientUnits="userSpaceOnUse"
    >
      <stop stop-color="#99E8F0" />
      <stop offset="1" stop-color="#C2FFFF" />
    </linearGradient>
    <linearGradient
      id="paint26_linear_7713_30670"
      x1="195.474"
      y1="134.113"
      x2="201.853"
      y2="112.099"
      gradientUnits="userSpaceOnUse"
    >
      <stop stop-color="#99E8F0" />
      <stop offset="1" stop-color="#C2FFFF" />
    </linearGradient>
    <linearGradient
      id="paint27_linear_7713_30670"
      x1="199.277"
      y1="135.216"
      x2="205.656"
      y2="113.201"
      gradientUnits="userSpaceOnUse"
    >
      <stop stop-color="#99E8F0" />
      <stop offset="1" stop-color="#C2FFFF" />
    </linearGradient>
    <linearGradient
      id="paint28_linear_7713_30670"
      x1="196.684"
      y1="134.464"
      x2="203.064"
      y2="112.45"
      gradientUnits="userSpaceOnUse"
    >
      <stop stop-color="#99E8F0" />
      <stop offset="1" stop-color="#C2FFFF" />
    </linearGradient>
    <linearGradient
      id="paint29_linear_7713_30670"
      x1="195.494"
      y1="134.119"
      x2="201.876"
      y2="112.107"
      gradientUnits="userSpaceOnUse"
    >
      <stop stop-color="#99E8F0" />
      <stop offset="1" stop-color="#C2FFFF" />
    </linearGradient>
    <linearGradient
      id="paint30_linear_7713_30670"
      x1="196.118"
      y1="134.3"
      x2="202.497"
      y2="112.286"
      gradientUnits="userSpaceOnUse"
    >
      <stop stop-color="#99E8F0" />
      <stop offset="1" stop-color="#C2FFFF" />
    </linearGradient>
    <linearGradient
      id="paint31_linear_7713_30670"
      x1="195.512"
      y1="134.125"
      x2="201.892"
      y2="112.11"
      gradientUnits="userSpaceOnUse"
    >
      <stop stop-color="#99E8F0" />
      <stop offset="1" stop-color="#C2FFFF" />
    </linearGradient>
    <radialGradient
      id="paint32_radial_7713_30670"
      cx="0"
      cy="0"
      r="1"
      gradientUnits="userSpaceOnUse"
      gradientTransform="translate(202.858 105.034) rotate(106.16) scale(37.74 37.74)"
    >
      <stop stop-color="#9CFFFF" />
      <stop offset="0.81" stop-color="#92B6F0" />
      <stop offset="1" stop-color="#9CFFFF" />
    </radialGradient>
    <linearGradient
      id="paint33_linear_7713_30670"
      x1="206.112"
      y1="140.179"
      x2="203.28"
      y2="130.525"
      gradientUnits="userSpaceOnUse"
    >
      <stop stop-color="white" stop-opacity="0" />
      <stop offset="1" stop-color="white" />
    </linearGradient>
    <linearGradient
      id="paint34_linear_7713_30670"
      x1="173.438"
      y1="107.893"
      x2="190.598"
      y2="107.893"
      gradientUnits="userSpaceOnUse"
    >
      <stop stop-color="white" stop-opacity="0" />
      <stop offset="1" stop-color="white" />
    </linearGradient>
    <linearGradient
      id="paint35_linear_7713_30670"
      x1="107.27"
      y1="21.37"
      x2="111.8"
      y2="21.37"
      gradientUnits="userSpaceOnUse"
    >
      <stop stop-color="white" stop-opacity="0" />
      <stop offset="1" stop-color="white" />
    </linearGradient>
    <linearGradient
      id="paint36_linear_7713_30670"
      x1="101.859"
      y1="27.69"
      x2="113.609"
      y2="27.69"
      gradientUnits="userSpaceOnUse"
    >
      <stop stop-color="white" stop-opacity="0" />
      <stop offset="1" stop-color="white" />
    </linearGradient>
    <linearGradient
      id="paint37_linear_7713_30670"
      x1="97.8809"
      y1="23.43"
      x2="107.271"
      y2="23.43"
      gradientUnits="userSpaceOnUse"
    >
      <stop stop-color="white" stop-opacity="0" />
      <stop offset="1" stop-color="white" />
    </linearGradient>
    <linearGradient
      id="paint38_linear_7713_30670"
      x1="97.5391"
      y1="29.98"
      x2="99.9491"
      y2="29.98"
      gradientUnits="userSpaceOnUse"
    >
      <stop stop-color="white" stop-opacity="0" />
      <stop offset="1" stop-color="white" />
    </linearGradient>
    <linearGradient
      id="paint39_linear_7713_30670"
      x1="116.67"
      y1="36.0804"
      x2="119.866"
      y2="49.3078"
      gradientUnits="userSpaceOnUse"
    >
      <stop stop-color="white" />
      <stop offset="1" stop-color="white" stop-opacity="0" />
    </linearGradient>
    <linearGradient
      id="paint40_linear_7713_30670"
      x1="132.281"
      y1="51.07"
      x2="141.361"
      y2="74.1"
      gradientUnits="userSpaceOnUse"
    >
      <stop stop-color="white" />
      <stop offset="1" stop-color="white" stop-opacity="0" />
    </linearGradient>
    <linearGradient
      id="paint41_linear_7713_30670"
      x1="94.2402"
      y1="25.61"
      x2="97.5402"
      y2="25.61"
      gradientUnits="userSpaceOnUse"
    >
      <stop stop-color="white" />
      <stop offset="1" stop-color="white" stop-opacity="0" />
    </linearGradient>
    <radialGradient
      id="paint42_radial_7713_30670"
      cx="0"
      cy="0"
      r="1"
      gradientUnits="userSpaceOnUse"
      gradientTransform="translate(23.2394 141.86) scale(183.68 183.68)"
    >
      <stop stop-color="#752CF7" />
      <stop offset="0.51" stop-color="#DC72E8" />
      <stop offset="1" stop-color="#76D1F0" />
    </radialGradient>
    <radialGradient
      id="paint43_radial_7713_30670"
      cx="0"
      cy="0"
      r="1"
      gradientUnits="userSpaceOnUse"
      gradientTransform="translate(23.2407 141.86) scale(183.68 183.681)"
    >
      <stop stop-color="#752CF7" />
      <stop offset="0.51" stop-color="#DC72E8" />
      <stop offset="1" stop-color="#76D1F0" />
    </radialGradient>
  </defs>
</svg>
