<svg width="137" height="136" viewBox="0 0 137 136" fill="none" xmlns="http://www.w3.org/2000/svg">
<rect width="136" height="136" fill="url(#paint0_linear_6589_21857)"/>
<path d="M0 35H135" stroke="#FA825D" stroke-width="2" stroke-linecap="round" stroke-dasharray="0.1 4"/>
<path d="M119.777 21.5653C119.731 21.1619 119.544 20.8494 119.214 20.6278C118.885 20.4034 118.47 20.2912 117.97 20.2912C117.612 20.2912 117.302 20.348 117.041 20.4616C116.779 20.5724 116.576 20.7259 116.431 20.9219C116.289 21.1151 116.218 21.3352 116.218 21.5824C116.218 21.7898 116.267 21.9687 116.363 22.1193C116.463 22.2699 116.592 22.3963 116.751 22.4986C116.913 22.598 117.086 22.6818 117.271 22.75C117.456 22.8153 117.633 22.8693 117.804 22.9119L118.656 23.1335C118.934 23.2017 119.22 23.294 119.512 23.4105C119.805 23.527 120.076 23.6804 120.326 23.8707C120.576 24.0611 120.778 24.2969 120.931 24.5781C121.088 24.8594 121.166 25.196 121.166 25.5881C121.166 26.0824 121.038 26.5213 120.782 26.9048C120.529 27.2884 120.162 27.5909 119.679 27.8125C119.198 28.0341 118.617 28.1449 117.936 28.1449C117.282 28.1449 116.717 28.0412 116.24 27.8338C115.762 27.6264 115.389 27.3324 115.119 26.9517C114.849 26.5682 114.7 26.1136 114.671 25.5881H115.992C116.018 25.9034 116.12 26.1662 116.299 26.3764C116.481 26.5838 116.713 26.7386 116.994 26.8409C117.278 26.9403 117.589 26.9901 117.927 26.9901C118.299 26.9901 118.63 26.9318 118.92 26.8153C119.213 26.696 119.443 26.5312 119.61 26.321C119.778 26.108 119.862 25.8594 119.862 25.5753C119.862 25.3168 119.788 25.1051 119.64 24.9403C119.495 24.7756 119.298 24.6392 119.048 24.5312C118.801 24.4233 118.521 24.3281 118.208 24.2457L117.177 23.9645C116.478 23.7741 115.924 23.4943 115.515 23.125C115.109 22.7557 114.906 22.267 114.906 21.6591C114.906 21.1562 115.042 20.7173 115.315 20.3423C115.588 19.9673 115.957 19.6761 116.423 19.4688C116.889 19.2585 117.414 19.1534 118 19.1534C118.59 19.1534 119.112 19.2571 119.563 19.4645C120.018 19.6719 120.376 19.9574 120.637 20.321C120.899 20.6818 121.035 21.0966 121.046 21.5653H119.777ZM125.858 28.1321C125.213 28.1321 124.658 27.9943 124.192 27.7188C123.729 27.4403 123.371 27.0497 123.118 26.5469C122.868 26.0412 122.743 25.4489 122.743 24.7699C122.743 24.0994 122.868 23.5085 123.118 22.9972C123.371 22.4858 123.723 22.0866 124.175 21.7997C124.629 21.5128 125.161 21.3693 125.769 21.3693C126.138 21.3693 126.496 21.4304 126.842 21.5526C127.189 21.6747 127.5 21.8665 127.776 22.1278C128.051 22.3892 128.269 22.7287 128.428 23.1463C128.587 23.5611 128.666 24.0653 128.666 24.6591V25.1108H123.463V24.1562H127.418C127.418 23.821 127.35 23.5241 127.213 23.2656C127.077 23.0043 126.885 22.7983 126.638 22.6477C126.394 22.4972 126.107 22.4219 125.777 22.4219C125.419 22.4219 125.107 22.5099 124.84 22.6861C124.575 22.8594 124.371 23.0866 124.226 23.3679C124.084 23.6463 124.013 23.9489 124.013 24.2756V25.0213C124.013 25.4588 124.09 25.831 124.243 26.1378C124.399 26.4446 124.617 26.679 124.895 26.8409C125.173 27 125.499 27.0795 125.871 27.0795C126.112 27.0795 126.332 27.0455 126.531 26.9773C126.73 26.9062 126.902 26.8011 127.047 26.6619C127.192 26.5227 127.303 26.3509 127.379 26.1463L128.585 26.3636C128.489 26.7187 128.315 27.0298 128.065 27.2969C127.818 27.5611 127.507 27.767 127.132 27.9148C126.76 28.0597 126.335 28.1321 125.858 28.1321ZM131.754 19.2727V28H130.48V19.2727H131.754ZM135.142 19.2727V28H133.868V19.2727H135.142Z" fill="#FA825D"/>
<path d="M0 103H135" stroke="#29D0B2" stroke-width="2" stroke-linecap="round" stroke-dasharray="0.1 4"/>
<path d="M114.374 118V109.273H117.57C118.189 109.273 118.702 109.375 119.108 109.58C119.514 109.781 119.818 110.055 120.02 110.402C120.222 110.746 120.323 111.134 120.323 111.565C120.323 111.929 120.256 112.236 120.122 112.486C119.989 112.733 119.81 112.932 119.585 113.082C119.364 113.23 119.119 113.338 118.852 113.406V113.491C119.142 113.506 119.425 113.599 119.7 113.773C119.979 113.943 120.209 114.186 120.391 114.501C120.573 114.817 120.663 115.2 120.663 115.652C120.663 116.098 120.558 116.499 120.348 116.854C120.141 117.206 119.82 117.486 119.385 117.693C118.95 117.898 118.395 118 117.719 118H114.374ZM115.69 116.871H117.591C118.222 116.871 118.673 116.749 118.946 116.504C119.219 116.26 119.355 115.955 119.355 115.588C119.355 115.312 119.286 115.06 119.146 114.83C119.007 114.599 118.808 114.416 118.55 114.28C118.294 114.143 117.99 114.075 117.638 114.075H115.69V116.871ZM115.69 113.048H117.455C117.75 113.048 118.016 112.991 118.251 112.878C118.49 112.764 118.679 112.605 118.818 112.401C118.96 112.193 119.031 111.949 119.031 111.668C119.031 111.307 118.905 111.004 118.652 110.76C118.399 110.516 118.011 110.393 117.489 110.393H115.69V113.048ZM126.669 115.286V111.455H127.948V118H126.695V116.866H126.627C126.476 117.216 126.235 117.507 125.902 117.74C125.573 117.97 125.162 118.085 124.671 118.085C124.25 118.085 123.878 117.993 123.554 117.808C123.233 117.621 122.98 117.344 122.796 116.977C122.614 116.611 122.523 116.158 122.523 115.618V111.455H123.797V115.464C123.797 115.911 123.921 116.266 124.168 116.53C124.415 116.794 124.736 116.926 125.131 116.926C125.37 116.926 125.607 116.866 125.843 116.747C126.081 116.628 126.279 116.447 126.435 116.206C126.594 115.964 126.672 115.658 126.669 115.286ZM130.865 120.455C130.675 120.455 130.501 120.439 130.345 120.408C130.189 120.379 130.072 120.348 129.996 120.314L130.303 119.27C130.536 119.332 130.743 119.359 130.925 119.351C131.107 119.342 131.267 119.274 131.406 119.146C131.548 119.018 131.673 118.81 131.781 118.52L131.939 118.085L129.544 111.455H130.908L132.565 116.534H132.634L134.291 111.455H135.659L132.962 118.874C132.837 119.214 132.678 119.503 132.484 119.739C132.291 119.977 132.061 120.156 131.794 120.276C131.527 120.395 131.217 120.455 130.865 120.455Z" fill="#29D0B2"/>
<path opacity="0.7" d="M-3 68.3056L6.72026 28.0706C7.45968 25.01 11.8131 25.01 12.5525 28.0706L22.177 67.9094C22.2405 68.1723 22.3393 68.4255 22.4707 68.662L32.2867 86.3278C33.4298 88.3849 36.3884 88.3849 37.5315 86.3278L43.812 75.0247C45.1393 72.6359 48.7088 73.121 49.3505 75.7773L57.0315 107.571C57.7839 110.686 62.2401 110.61 62.886 107.471L71.0594 67.7552C71.6348 64.9593 75.4212 64.4712 76.6868 67.0298L82.6384 79.0614C83.7621 81.3331 87.022 81.274 88.0628 78.9632L95.5924 62.2442C96.6139 59.9761 99.7932 59.865 100.971 62.0563L108.875 76.7681C109.809 78.5069 112.139 78.8852 113.575 77.5314L122.497 69.1225C123.054 68.5978 123.79 68.3056 124.555 68.3056H136" stroke="#D3D1FF" stroke-width="2" stroke-linecap="round"/>
<path opacity="0.5" d="M6.75201 35.2035L-2.88436 68.8975C-2.96108 69.1657 -3 69.4434 -3 69.7224V115.46C-3 117.117 -1.65686 118.46 -1.43051e-06 118.46H133C134.657 118.46 136 117.117 136 115.46V72.3018C136 70.645 134.657 69.3018 133 69.3018H124.412C123.733 69.3018 123.074 69.532 122.543 69.9548L113.337 77.2847C111.943 78.3949 109.894 78.0517 108.937 76.5478L100.85 63.834C99.6176 61.8957 96.7526 62.0056 95.6719 64.0327L87.979 78.4615C86.8752 80.532 83.9287 80.5908 82.743 78.566L76.5661 68.0179C75.2033 65.6907 71.701 66.2036 71.0626 68.8238L62.8645 102.474C62.1357 105.465 57.912 105.549 57.0654 102.589L49.3432 75.5877C48.6377 73.1211 45.3624 72.6206 43.9525 74.764L37.4155 84.7018C36.2303 86.5036 33.5879 86.5036 32.4027 84.7018L22.5247 69.6848C22.3577 69.431 22.2302 69.1532 22.1467 68.8611L12.5207 35.2035C11.6913 32.3033 7.58143 32.3033 6.75201 35.2035Z" fill="url(#paint1_linear_6589_21857)"/>
<defs>
<linearGradient id="paint0_linear_6589_21857" x1="0" y1="68" x2="136" y2="68" gradientUnits="userSpaceOnUse">
<stop stop-color="#CA2EBD"/>
<stop offset="1" stop-color="#462ADF" stop-opacity="0"/>
</linearGradient>
<linearGradient id="paint1_linear_6589_21857" x1="66.5" y1="25.1182" x2="66.5" y2="118.46" gradientUnits="userSpaceOnUse">
<stop stop-color="#D3D1FF"/>
<stop offset="1" stop-color="#462ADF" stop-opacity="0"/>
</linearGradient>
</defs>
</svg>
