<svg width="40" height="40" viewBox="0 0 40 40" fill="none" xmlns="http://www.w3.org/2000/svg">
<rect width="40" height="40" rx="10" fill="url(#paint0_linear_6589_22094)"/>
<path fill-rule="evenodd" clip-rule="evenodd" d="M23 13C23 13.5523 23.4477 14 24 14H26.5858L20.5 20.0858L17.2071 16.7929C17.0196 16.6054 16.7652 16.5 16.5 16.5C16.2348 16.5 15.9804 16.6054 15.7929 16.7929L10.2929 22.2929C9.90237 22.6834 9.90237 23.3166 10.2929 23.7071C10.6834 24.0976 11.3166 24.0976 11.7071 23.7071L16.5 18.9142L19.7929 22.2071C20.1834 22.5976 20.8166 22.5976 21.2071 22.2071L28 15.4142V18C28 18.5523 28.4477 19 29 19C29.5523 19 30 18.5523 30 18V13C30 12.4477 29.5523 12 29 12H24C23.4477 12 23 12.4477 23 13ZM11 28C10.4477 28 10 28.4477 10 29C10 29.5523 10.4477 30 11 30L29 30C29.5523 30 30 29.5523 30 29C30 28.4477 29.5523 28 29 28H11Z" fill="#D3D1FF"/>
<defs>
<linearGradient id="paint0_linear_6589_22094" x1="0" y1="20" x2="40" y2="20" gradientUnits="userSpaceOnUse">
<stop stop-color="#CA2EBD"/>
<stop offset="1" stop-color="#361FB3"/>
</linearGradient>
</defs>
</svg>
