<svg width="40" height="40" viewBox="0 0 40 40" fill="none" xmlns="http://www.w3.org/2000/svg">
<path d="M38.1489 20C39.1712 20 40.0089 19.1695 39.9144 18.1515C39.6078 14.8484 38.4831 11.6629 36.6294 8.8886C34.4318 5.59961 31.3082 3.03616 27.6537 1.52241C23.9991 0.00865667 19.9778 -0.38741 16.0982 0.384294C12.2186 1.156 8.65491 3.06081 5.85786 5.85786C3.06081 8.65491 1.156 12.2186 0.384294 16.0982C-0.38741 19.9778 0.00865672 23.9991 1.52241 27.6537C3.03616 31.3082 5.59961 34.4318 8.8886 36.6294C11.6629 38.4831 14.8484 39.6078 18.1515 39.9144C19.1695 40.0089 20 39.1712 20 38.1489C20 37.1266 19.1686 36.3087 18.1528 36.1928C15.5831 35.8997 13.1106 34.9979 10.9454 33.5511C8.26528 31.7603 6.17635 29.2149 4.9428 26.2369C3.70926 23.2589 3.38651 19.9819 4.01537 16.8205C4.64422 13.659 6.19643 10.755 8.47572 8.47572C10.755 6.19643 13.659 4.64422 16.8205 4.01537C19.9819 3.38651 23.2589 3.70926 26.2369 4.9428C29.2149 6.17635 31.7603 8.26528 33.5511 10.9454C34.9979 13.1106 35.8997 15.5831 36.1928 18.1528C36.3087 19.1686 37.1266 20 38.1489 20Z" fill="url(#paint0_linear_1753_48479)"/>
<defs>
<linearGradient id="paint0_linear_1753_48479" x1="-0.444445" y1="1.61291" x2="43.7621" y2="6.59087" gradientUnits="userSpaceOnUse">
<stop stop-color="#462ADF"/>
<stop offset="1" stop-color="#8A86FF"/>
</linearGradient>
</defs>
</svg>
