<svg width="416" height="218" viewBox="0 0 416 218" fill="none" xmlns="http://www.w3.org/2000/svg">
<path d="M199.549 139.394L191.981 -89.0693C192.016 -89.9858 192.594 -90.6978 193.613 -90.9341C194.53 -90.8989 195.242 -90.3209 195.478 -89.3022L199.549 139.394Z" fill="url(#paint0_linear_7037_20594)"/>
<path d="M330.014 131.187C318.947 106.256 252.577 111.327 181.351 142.461C110.126 173.595 61.2845 219.355 72.0797 244.184L63.5884 247.805C63.5884 247.805 19.1983 189.562 170.99 123.064C322.51 56.4633 338.981 127.126 338.981 127.126L330.014 131.187Z" fill="url(#paint1_linear_7037_20594)"/>
<path d="M348.928 126.224C362.836 158.423 308.789 213.07 227.85 248.604C146.91 284.137 69.8837 287.055 55.9754 254.856L48.9702 238.892C97.5154 286.922 332.398 200.576 342.194 110.362L348.928 126.224Z" fill="url(#paint2_linear_7037_20594)"/>
<path d="M348.928 126.224C362.836 158.423 308.789 213.07 227.85 248.604C146.91 284.137 69.8837 287.055 55.9754 254.856L48.9702 238.892C97.5154 286.922 332.398 200.576 342.194 110.362L348.928 126.224Z" fill="url(#paint3_linear_7037_20594)"/>
<path d="M169.779 116.41C88.8389 151.944 34.7921 206.592 48.7003 238.791C62.6086 270.99 139.906 268.174 220.846 232.641C301.786 197.107 355.935 142.188 341.924 110.26C327.914 78.3328 250.719 80.8767 169.779 116.41ZM213.908 217.322C142.954 248.558 76.3121 253.526 65.5169 228.697C54.4503 203.767 103.189 158.277 174.517 126.872C245.845 95.4667 312.215 90.3963 323.179 115.599C334.246 140.529 285.235 185.916 213.908 217.322Z" fill="url(#paint4_linear_7037_20594)"/>
<path d="M64.3631 227.642C65.5477 230.258 67.3773 232.806 69.7849 234.642C67.9201 233.01 66.2597 230.836 65.2444 228.594C54.4492 203.765 103.188 158.276 174.516 126.871C176.01 126.194 177.505 125.517 178.999 124.84C176.384 126.025 173.769 127.209 170.882 128.291C101.422 158.851 53.6349 203.459 64.3631 227.642Z" fill="url(#paint5_linear_7037_20594)"/>
<path d="M216.567 234.128C204.339 239.441 192.045 244.109 180.328 248.064C193.606 244.077 207.022 238.901 220.744 232.911C301.683 197.378 355.832 142.459 341.822 110.531C340.976 108.663 339.858 106.693 338.536 105.265C339.316 106.488 339.823 107.609 340.602 108.832C355.223 141.609 299.646 197.85 216.567 234.128Z" fill="url(#paint6_linear_7037_20594)"/>
<path d="M286.96 112.19C293.037 111.689 295.2 93.5987 293.933 76.3866C292.564 59.446 288.107 41.6526 281.759 42.0514L267.127 43.0501L272.328 113.188L286.96 112.19Z" fill="#390176"/>
<path d="M286.997 111.272C291.783 110.905 294.486 95.4973 292.916 76.6215C291.617 57.8479 286.681 42.9731 281.894 43.3401L268.179 44.3739L273.281 112.306L286.997 111.272Z" fill="url(#paint7_linear_7037_20594)"/>
<path d="M279.545 77.5174C278.119 58.188 272.689 42.8338 267.417 43.2227C262.146 43.6117 259.028 59.5966 260.455 78.926C261.881 98.2553 267.311 113.61 272.582 113.221C277.854 112.832 280.971 96.8467 279.545 77.5174Z" fill="#390176"/>
<path d="M278.548 77.7238C279.847 96.4974 277.144 111.905 272.629 112.374C268.113 112.843 262.906 97.8664 261.607 79.0928C260.309 60.3192 263.011 44.9116 267.527 44.4425C272.042 43.9733 276.978 58.848 278.548 77.7238Z" fill="url(#paint8_linear_7037_20594)"/>
<path opacity="0.7" d="M262.085 54.7888C261.024 60.8976 260.606 69.4173 261.34 78.9909C262.638 97.7645 267.574 112.639 272.361 112.272C277.148 111.905 279.85 96.4977 278.28 77.6219C277.117 84.0021 275.313 87.9713 273.106 88.0702C268.591 88.5393 263.384 73.5624 262.085 54.7888Z" fill="url(#paint9_linear_7037_20594)"/>
<path opacity="0.6" d="M272.498 111.085C267.712 111.452 262.776 96.5777 261.477 77.8041C260.775 69.792 261.159 62.1887 261.845 56.2492C261.056 62.4602 260.57 70.3348 261.34 78.992C262.638 97.7655 267.574 112.64 272.361 112.273C274.941 112.005 277.154 106.95 277.912 99.1779C277.087 106.305 275.079 110.817 272.498 111.085Z" fill="white"/>
<path opacity="0.3" d="M267.221 45.2591C272.008 44.8921 276.944 59.7669 278.242 78.5405C278.944 86.5525 278.561 94.1558 277.874 100.095C278.663 93.8844 279.149 86.0097 278.38 77.3525C277.081 58.5789 272.145 43.7042 267.358 44.0712C264.778 44.3392 262.565 49.3941 261.808 57.1666C262.903 50.1414 264.641 45.5272 267.221 45.2591Z" fill="white"/>
<path d="M276.826 77.977C275.67 62.3219 271.626 49.8601 267.792 50.143C263.958 50.4259 261.786 63.3463 262.942 79.0015C264.097 94.6567 268.141 107.118 271.975 106.836C275.809 106.553 277.981 93.6322 276.826 77.977Z" fill="#390176"/>
<path d="M276.882 78.0288C277.948 93.3057 275.725 105.795 272.228 106.028C268.731 106.26 264.606 94.1703 263.438 79.1649C262.373 63.888 264.596 51.3991 268.093 51.1662C271.692 50.6618 275.545 62.6497 276.882 78.0288Z" fill="url(#paint10_linear_7037_20594)"/>
<path opacity="0.2" d="M264.42 60.9339C264.286 59.6438 264.152 58.3537 264.018 57.0636C262.721 62.1537 262.133 70.2998 262.8 79.2284C263.968 94.2338 267.822 106.222 271.59 106.091C275.087 105.858 277.137 95.4736 276.544 82.2341C275.589 85.5934 274.398 87.934 272.836 87.9658C269.713 88.0295 265.588 75.9394 264.42 60.9339Z" fill="url(#paint11_linear_7037_20594)"/>
<g opacity="0.6">
<path opacity="0.3" d="M272.03 104.096C268.262 104.227 264.408 92.2387 263.24 77.2333C262.873 72.4465 262.947 68.1355 263.19 64.1981C262.845 68.4069 262.736 73.6344 263.272 78.7948C264.338 94.0717 268.191 106.06 272.062 105.657C274.642 105.389 276.619 99.3158 277.038 90.7961C276.28 98.5686 274.508 104.099 272.03 104.096Z" fill="#3F3B44"/>
</g>
<g opacity="0.6">
<path opacity="0.3" d="M267.858 52.6241C271.626 52.4934 275.48 64.4813 276.648 79.4868C277.015 84.2736 276.941 88.5845 276.698 92.5219C277.043 88.3131 277.152 83.0857 276.616 77.9252C275.55 62.6484 271.697 50.6604 267.826 51.0626C265.246 51.3307 263.269 57.4042 262.85 65.924C263.608 58.1515 265.278 52.8922 267.858 52.6241Z" fill="#3F3B44"/>
</g>
<path d="M270.959 96.2479C269.024 96.449 267.029 91.049 266.02 83.8512C266.055 82.9347 265.819 81.916 265.752 81.271C265.254 72.716 266.35 65.6908 268.557 65.5919C268.93 65.4227 269.371 65.8985 269.812 66.3744C269.575 65.3557 269.713 64.1678 269.748 63.2513C269.783 62.3348 269.988 61.792 270.09 61.5205C270.09 61.5205 270.192 61.2491 270.463 61.3513C270.837 61.1821 271.447 62.0316 271.955 63.1525C272.631 64.647 273.037 66.0393 273.34 67.703C273.576 68.7217 273.439 69.9096 273.404 70.8261C273.199 71.3689 273.369 71.7425 272.995 71.9118C272.893 72.1832 272.791 72.4546 272.519 72.3524C272.519 72.3524 272.417 72.6239 272.688 72.7261C273.33 75.1371 273.496 77.9887 273.933 80.9425C274 81.5876 274.067 82.2326 274.134 82.8777C274.227 90.0403 273.166 96.1491 270.959 96.2479Z" fill="#390176"/>
<path d="M273.065 67.5996C272.931 66.3095 272.525 64.9172 271.746 63.6941C271.238 62.5733 270.798 62.0974 270.526 61.9952C270.526 61.9952 270.526 61.9952 270.424 62.2666C270.322 62.5381 270.22 62.8095 270.287 63.4545C270.252 64.371 270.216 65.2875 270.283 65.9326C270.181 66.204 270.453 66.3062 270.35 66.5776C270.248 66.849 270.146 67.1205 270.146 67.1205C269.705 66.6446 269.265 66.1688 268.891 66.338C266.956 66.5391 265.691 73.1907 266.122 81.1006C266.086 82.0171 266.425 82.7643 266.39 83.6808C267.229 90.505 269.055 95.5313 270.991 95.3303C272.926 95.1292 274.053 89.6655 273.69 82.4007C273.623 81.7556 273.556 81.1106 273.76 80.5677C273.594 77.7161 273.055 75.0337 272.684 72.7249C272.617 72.0798 272.822 71.537 272.653 71.1634L272.924 71.2656L273.298 71.0963C273.4 70.8249 273.502 70.5535 273.604 70.2821C273.368 69.2634 273.403 68.3469 273.065 67.5996Z" fill="#94512A"/>
<path d="M273.033 66.0397C272.899 64.7496 272.494 63.3573 271.715 62.1342C271.207 61.0133 270.767 60.5375 270.495 60.4353C270.495 60.4353 270.495 60.4353 270.393 60.7067C270.291 60.9781 270.188 61.2496 270.256 61.8946C270.22 62.8111 270.185 63.7276 270.252 64.3726C270.15 64.6441 270.421 64.7463 270.319 65.0177C270.217 65.2891 270.115 65.5605 270.115 65.5605C269.674 65.0847 269.233 64.6089 268.86 64.7781C266.925 64.9792 265.66 71.6308 266.09 79.5406C266.055 80.4571 266.394 81.2044 266.359 82.1209C267.198 88.945 269.024 93.9714 270.959 93.7704C272.895 93.5693 274.022 88.1056 273.658 80.8408C273.591 80.1957 273.524 79.5506 273.729 79.0078C273.563 76.1562 273.023 73.4737 272.653 71.165C272.586 70.5199 272.791 69.9771 272.621 69.6034L272.893 69.7056L273.266 69.5364C273.369 69.265 273.471 68.9935 273.573 68.7221C273.065 67.6012 273.1 66.6847 273.033 66.0397Z" fill="url(#paint12_linear_7037_20594)"/>
<path d="M273.033 66.0397C272.899 64.7496 272.494 63.3573 271.715 62.1342C271.207 61.0133 270.767 60.5375 270.495 60.4353C270.495 60.4353 270.495 60.4353 270.393 60.7067C270.291 60.9781 270.188 61.2496 270.256 61.8946C270.22 62.8111 270.185 63.7276 270.252 64.3726C270.15 64.6441 270.421 64.7463 270.319 65.0177C270.217 65.2891 270.115 65.5605 270.115 65.5605C269.674 65.0847 269.233 64.6089 268.86 64.7781C266.925 64.9792 265.66 71.6308 266.09 79.5406C266.055 80.4571 266.394 81.2044 266.359 82.1209C267.198 88.945 269.024 93.9714 270.959 93.7704C272.895 93.5693 274.022 88.1056 273.658 80.8408C273.591 80.1957 273.524 79.5506 273.729 79.0078C273.563 76.1562 273.023 73.4737 272.653 71.165C272.586 70.5199 272.791 69.9771 272.621 69.6034L272.893 69.7056L273.266 69.5364C273.369 69.265 273.471 68.9935 273.573 68.7221C273.065 67.6012 273.1 66.6847 273.033 66.0397Z" fill="url(#paint13_linear_7037_20594)"/>
<path d="M270.928 94.6873C268.993 94.8883 266.998 89.4883 265.989 82.2905C266.024 81.374 265.788 80.3554 265.721 79.7103C265.223 71.1554 266.319 64.1302 268.525 64.0313C268.899 63.8621 269.34 64.3379 269.78 64.8137C269.544 63.795 269.681 62.6071 269.717 61.6906C269.752 60.7742 269.956 60.2313 270.058 59.9599C270.058 59.9599 270.161 59.6885 270.432 59.7907C270.806 59.6214 271.416 60.4709 271.923 61.5918C272.6 63.0863 273.006 64.4786 273.309 66.1423C273.545 67.161 273.408 68.3489 273.373 69.2654C273.168 69.8083 273.337 70.1819 272.964 70.3511C272.862 70.6225 272.759 70.894 272.488 70.7918C272.488 70.7918 272.386 71.0632 272.657 71.1654C273.299 73.5764 273.465 76.428 273.902 79.3819C273.969 80.0269 274.036 80.672 274.103 81.317C274.195 88.4797 272.863 94.4862 270.928 94.6873Z" fill="#390176"/>
<path d="M273.033 66.0397C272.899 64.7496 272.494 63.3573 271.715 62.1342C271.207 61.0133 270.767 60.5375 270.495 60.4353C270.495 60.4353 270.495 60.4353 270.393 60.7067C270.291 60.9781 270.188 61.2496 270.256 61.8946C270.22 62.8111 270.185 63.7276 270.252 64.3726C270.15 64.6441 270.421 64.7463 270.319 65.0177C270.217 65.2891 270.115 65.5605 270.115 65.5605C269.674 65.0847 269.233 64.6089 268.86 64.7781C266.925 64.9792 265.66 71.6308 266.09 79.5406C266.055 80.4571 266.394 81.2044 266.359 82.1209C267.198 88.945 269.024 93.9714 270.959 93.7704C272.895 93.5693 274.022 88.1056 273.658 80.8408C273.591 80.1957 273.524 79.5506 273.729 79.0078C273.563 76.1562 273.023 73.4737 272.653 71.165C272.586 70.5199 272.791 69.9771 272.621 69.6034L272.893 69.7056L273.266 69.5364C273.369 69.265 273.471 68.9935 273.573 68.7221C273.065 67.6012 273.1 66.6847 273.033 66.0397Z" fill="url(#paint14_linear_7037_20594)"/>
<path d="M273.76 80.5681C274.124 87.8329 272.894 93.5681 271.061 93.4977C269.126 93.6988 267.3 88.6724 266.46 81.8482C267.246 78.1153 268.335 76.0461 269.625 75.912C270.915 75.778 272.406 77.5791 273.76 80.5681Z" fill="url(#paint15_linear_7037_20594)"/>
<path d="M230.341 162.15L255.539 3.04724C255.744 2.50438 256.219 2.06373 256.864 1.99671C257.509 1.92968 257.848 2.67695 257.915 3.32201L230.341 162.15Z" fill="url(#paint16_linear_7037_20594)"/>
<g opacity="0.6">
<path d="M278.844 165.846L332.523 56.2066C332.728 55.6637 333.373 55.5967 333.644 55.6989C334.187 55.9033 334.254 56.5484 334.152 56.8198L278.844 165.846Z" fill="url(#paint17_linear_7037_20594)"/>
</g>
<path d="M123.673 222.392L40.6936 184.329C40.4222 184.227 40.253 183.853 40.3552 183.582C40.4574 183.31 40.831 183.141 41.1024 183.243L123.673 222.392Z" fill="url(#paint18_linear_7037_20594)"/>
<path d="M203.328 205.901L106.639 113.711C106.199 113.235 106.132 112.59 106.505 112.421C106.981 111.98 107.626 111.913 107.795 112.287L203.328 205.901Z" fill="url(#paint19_linear_7037_20594)"/>
<path d="M150.098 181.831L62.2248 123.021C61.9534 122.919 61.8864 122.274 61.9886 122.002C62.0908 121.731 62.7358 121.664 63.0073 121.766L150.098 181.831Z" fill="url(#paint20_linear_7037_20594)"/>
<path d="M205.076 193.851L162.483 -14.0202C162.247 -15.0389 162.825 -15.751 163.741 -15.7158C164.658 -15.6806 165.472 -15.374 165.437 -14.4575L205.076 193.851Z" fill="url(#paint21_linear_7037_20594)"/>
<mask id="mask0_7037_20594" style="mask-type:luminance" maskUnits="userSpaceOnUse" x="64" y="99" width="261" height="146">
<path d="M323.232 115.668C312.299 90.7271 245.753 95.7933 174.597 126.984C103.441 158.175 54.621 203.679 65.5539 228.62C76.4868 253.561 143.033 248.495 214.189 217.304C285.344 186.114 334.165 140.609 323.232 115.668Z" fill="white"/>
</mask>
<g mask="url(#mask0_7037_20594)">
<path d="M200.995 207.183C205.452 224.977 191.509 243.899 169.538 249.573C147.568 255.246 126.4 244.796 121.943 227.003L119.479 217.087L198.53 197.268L200.995 207.183Z" fill="#390176"/>
<path d="M199.707 207.318C204.097 224.467 190.358 242.847 169.135 248.181C147.912 253.516 127.083 243.814 122.795 226.394L120.567 217.497L197.479 198.422L199.707 207.318Z" fill="url(#paint22_linear_7037_20594)"/>
<path d="M198.468 196.571C194.036 178.857 172.682 168.942 150.773 174.424C128.864 179.906 114.696 198.71 119.129 216.424C123.561 234.138 144.915 244.053 166.824 238.571C188.733 233.089 202.901 214.285 198.468 196.571Z" fill="#390176"/>
<path d="M151.003 175.346C172.226 170.011 192.784 179.611 197.174 196.76C201.564 213.908 187.825 232.288 166.602 237.623C145.379 242.958 124.55 233.255 120.431 216.209C116.313 199.163 129.882 180.409 151.003 175.346Z" fill="url(#paint23_linear_7037_20594)"/>
<path opacity="0.7" d="M137.411 235.307C145.892 239.12 156.04 240.152 166.601 237.621C187.824 232.286 201.563 213.906 197.173 196.758C192.783 179.609 172.327 169.737 151.104 175.072C159.585 178.886 165.924 185.921 167.983 194.444C172.27 211.864 158.634 229.972 137.411 235.307Z" fill="url(#paint24_linear_7037_20594)"/>
<path opacity="0.6" d="M195.546 196.146C199.936 213.294 186.197 231.674 164.974 237.009C155.806 239.135 146.912 238.885 139.21 236.295C147.251 239.633 156.958 240.189 166.602 237.622C187.825 232.287 201.564 213.907 197.174 196.759C194.71 186.843 186.912 179.569 176.767 176.059C186.165 179.907 193.148 186.875 195.546 196.146Z" fill="white"/>
<path opacity="0.3" d="M121.792 216.72C117.403 199.571 131.141 181.191 152.364 175.857C161.532 173.73 170.426 173.98 178.128 176.57C170.087 173.233 160.38 172.676 150.736 175.243C129.513 180.578 115.876 198.687 120.164 216.106C122.629 226.022 130.426 233.297 140.571 236.807C131.445 233.06 124.19 225.99 121.792 216.72Z" fill="white"/>
<path d="M190.983 198.161C187.406 183.866 170.146 175.87 152.432 180.303C134.719 184.735 123.259 199.917 126.836 214.212C130.413 228.508 147.672 236.503 165.386 232.071C183.1 227.638 194.56 212.456 190.983 198.161Z" fill="#390176"/>
<path d="M152.691 181.559C169.839 177.169 186.428 184.965 189.94 198.683C193.452 212.402 182.332 227.119 165.184 231.509C148.035 235.899 131.446 228.103 127.935 214.385C124.423 200.666 135.645 185.677 152.691 181.559Z" fill="url(#paint25_linear_7037_20594)"/>
<path opacity="0.2" d="M142.618 226.419C141.226 226.825 139.562 227.128 138 227.16C145.156 232.024 155.1 233.599 165.287 231.236C182.333 227.118 193.182 212.298 189.772 198.308C186.496 185.608 172.555 178.189 157.243 180.171C162.263 183.301 165.753 188.024 167.103 193.491C170.784 207.584 159.664 222.301 142.618 226.419Z" fill="url(#paint26_linear_7037_20594)"/>
<g opacity="0.6">
<path opacity="0.3" d="M187.935 198.239C191.447 211.958 180.327 226.675 163.179 231.065C157.983 232.518 152.653 232.68 147.732 231.757C153.196 232.884 159.069 232.926 165.181 231.509C182.329 227.119 193.347 212.673 189.937 198.683C187.642 189.141 178.995 182.476 167.863 180.764C177.874 182.984 185.707 189.342 187.935 198.239Z" fill="#3F3B44"/>
</g>
<g opacity="0.6">
<path opacity="0.3" d="M130.037 214.559C126.525 200.84 137.645 186.123 154.793 181.733C159.989 180.28 165.319 180.118 170.24 181.041C164.776 179.913 158.903 179.872 152.791 181.289C135.643 185.679 124.625 200.125 128.035 214.115C130.33 223.657 138.977 230.322 150.109 232.034C140.098 229.814 132.265 223.456 130.037 214.559Z" fill="#3F3B44"/>
</g>
<path d="M179.344 202.13C180.998 209.261 176.677 216.621 168.559 220.073C167.541 220.309 166.691 220.919 165.673 221.155C156.131 223.451 146.666 218.957 144.674 211.079C144.269 209.687 144.237 208.125 144.307 206.292C143.458 206.902 141.896 206.934 140.708 206.797C139.52 206.659 138.808 206.081 138.198 205.232C138.029 204.858 138.029 204.858 137.86 204.485C137.454 203.092 137.898 201.09 138.987 199.021C140.281 196.409 141.708 195.087 143.305 194.139C144.426 193.631 145.716 193.497 146.802 193.906C147.345 194.11 147.887 194.314 148.328 194.79C148.769 195.266 148.938 195.64 149.005 196.285C149.005 196.285 148.903 196.556 149.174 196.658C149.446 196.761 149.446 196.761 149.819 196.591C152.198 194.388 155.187 193.034 158.346 192.054C158.991 191.987 159.738 191.649 160.383 191.582C169.245 190.27 177.419 194.897 179.344 202.13Z" fill="#390176"/>
<path d="M143.641 194.886C142.146 195.563 140.99 196.987 139.799 199.327C138.812 201.125 138.47 202.856 138.876 204.248C139.045 204.622 139.045 204.622 139.214 204.996C139.655 205.471 140.096 205.947 141.012 205.982C141.929 206.018 143.219 205.884 143.966 205.545C144.34 205.376 144.442 205.104 144.544 204.833C144.985 205.309 145.256 205.411 145.425 205.785C145.084 207.515 145.115 209.077 145.69 210.843C147.513 218.347 156.435 222.636 165.434 220.137C166.452 219.9 167.471 219.664 168.218 219.326C175.589 216.213 180.079 209.226 178.492 202.74C176.736 195.881 169.002 191.729 160.786 192.974C160.141 193.041 159.496 193.108 158.749 193.446C155.319 194.324 152.601 195.78 150.222 197.984C149.577 198.051 148.932 198.118 148.118 197.811C148.22 197.54 148.051 197.166 148.153 196.895C147.984 196.521 147.814 196.147 147.645 195.774C147.476 195.4 146.933 195.196 146.662 195.094C145.407 194.311 144.388 194.547 143.641 194.886Z" fill="#94512A"/>
<path d="M141.875 195.462C140.381 196.139 139.225 197.563 138.033 199.904C137.047 201.701 136.705 203.432 137.11 204.824C137.279 205.198 137.279 205.198 137.449 205.572C137.889 206.047 138.33 206.523 139.247 206.558C140.163 206.594 141.453 206.46 142.2 206.121C142.574 205.952 142.676 205.68 142.778 205.409C143.219 205.885 143.49 205.987 143.66 206.361C143.318 208.091 143.35 209.653 143.924 211.419C145.747 218.923 154.669 223.212 163.668 220.713C164.687 220.476 165.706 220.24 166.453 219.902C173.823 216.789 178.313 209.802 176.727 203.316C174.971 196.457 167.237 192.305 159.02 193.55C158.375 193.617 157.73 193.684 156.983 194.023C153.553 194.9 150.836 196.356 148.456 198.56C147.811 198.627 147.166 198.694 146.352 198.387C146.454 198.116 146.285 197.742 146.387 197.471C146.218 197.097 146.049 196.723 145.88 196.35C145.71 195.976 145.168 195.772 144.896 195.67C143.641 194.887 142.622 195.123 141.875 195.462Z" fill="url(#paint27_linear_7037_20594)"/>
<path d="M141.875 195.462C140.381 196.139 139.225 197.563 138.033 199.904C137.047 201.701 136.705 203.432 137.11 204.824C137.279 205.198 137.279 205.198 137.449 205.572C137.889 206.047 138.33 206.523 139.247 206.558C140.163 206.594 141.453 206.46 142.2 206.121C142.574 205.952 142.676 205.68 142.778 205.409C143.219 205.885 143.49 205.987 143.66 206.361C143.318 208.091 143.35 209.653 143.924 211.419C145.747 218.923 154.669 223.212 163.668 220.713C164.687 220.476 165.706 220.24 166.453 219.902C173.823 216.789 178.313 209.802 176.727 203.316C174.971 196.457 167.237 192.305 159.02 193.55C158.375 193.617 157.73 193.684 156.983 194.023C153.553 194.9 150.836 196.356 148.456 198.56C147.811 198.627 147.166 198.694 146.352 198.387C146.454 198.116 146.285 197.742 146.387 197.471C146.218 197.097 146.049 196.723 145.88 196.35C145.71 195.976 145.168 195.772 144.896 195.67C143.641 194.887 142.622 195.123 141.875 195.462Z" fill="url(#paint28_linear_7037_20594)"/>
<path d="M177.305 202.604C178.959 209.735 174.638 217.095 166.52 220.546C165.502 220.783 164.652 221.393 163.634 221.629C154.092 223.924 144.627 219.431 142.635 211.553C142.229 210.16 142.198 208.599 142.268 206.766C141.419 207.376 139.857 207.408 138.669 207.27C137.481 207.133 136.769 206.555 136.159 205.705C135.99 205.332 135.719 205.23 135.821 204.958C135.415 203.566 135.859 201.564 136.948 199.494C138.242 196.882 139.669 195.56 141.266 194.612C142.387 194.104 143.677 193.97 144.763 194.379C145.306 194.584 145.848 194.788 146.289 195.264C146.73 195.74 146.899 196.113 146.966 196.758C146.966 196.758 146.864 197.03 147.135 197.132C147.407 197.234 147.407 197.234 147.78 197.065C150.159 194.862 153.148 193.508 156.307 192.528C156.952 192.461 157.699 192.122 158.344 192.055C167.477 190.845 175.652 195.473 177.305 202.604Z" fill="#390176"/>
<path d="M141.875 195.462C140.381 196.139 139.225 197.563 138.033 199.904C137.047 201.701 136.705 203.432 137.11 204.824C137.279 205.198 137.279 205.198 137.449 205.572C137.889 206.047 138.33 206.523 139.247 206.558C140.163 206.594 141.453 206.46 142.2 206.121C142.574 205.952 142.676 205.68 142.778 205.409C143.219 205.885 143.49 205.987 143.66 206.361C143.318 208.091 143.35 209.653 143.924 211.419C145.747 218.923 154.669 223.212 163.668 220.713C164.687 220.476 165.706 220.24 166.453 219.902C173.823 216.789 178.313 209.802 176.727 203.316C174.971 196.457 167.237 192.305 159.02 193.55C158.375 193.617 157.73 193.684 156.983 194.023C153.553 194.9 150.836 196.356 148.456 198.56C147.811 198.627 147.166 198.694 146.352 198.387C146.454 198.116 146.285 197.742 146.387 197.471C146.218 197.097 146.049 196.723 145.88 196.35C145.71 195.976 145.168 195.772 144.896 195.67C143.641 194.887 142.622 195.123 141.875 195.462Z" fill="url(#paint29_linear_7037_20594)"/>
<path d="M158.579 193.075C166.795 191.83 174.529 195.982 176.285 202.841C177.872 209.327 173.653 216.416 166.011 219.427C161.058 216.942 157.466 212.491 156.013 207.295C155.001 202.575 156.027 197.383 158.579 193.075Z" fill="url(#paint30_linear_7037_20594)"/>
</g>
<mask id="mask1_7037_20594" style="mask-type:luminance" maskUnits="userSpaceOnUse" x="64" y="99" width="261" height="146">
<path d="M323.232 115.668C312.299 90.7271 245.753 95.7933 174.597 126.984C103.441 158.175 54.621 203.679 65.5539 228.62C76.4868 253.561 143.033 248.495 214.189 217.304C285.344 186.114 334.165 140.609 323.232 115.668Z" fill="white"/>
</mask>
<g mask="url(#mask1_7037_20594)">
<path d="M290.776 211.542C298.829 204.967 294.306 186.529 280.444 169.843C266.685 152.886 249.554 144.885 241.5 151.46L230.693 160.407L279.969 220.489L290.776 211.542Z" fill="#390176"/>
<path d="M290.165 210.695C297.743 204.561 292.743 186.564 279.594 170.456C266.445 154.348 249.687 146.178 242.109 152.312L232.151 160.65L280.208 219.032L290.165 210.695Z" fill="url(#paint31_linear_7037_20594)"/>
<path d="M269.271 179.114C255.638 162.536 238.167 154.375 230.249 160.887C222.331 167.398 226.964 186.116 240.598 202.694C254.231 219.272 271.702 227.433 279.62 220.921C287.538 214.41 282.904 195.692 269.271 179.114Z" fill="#390176"/>
<path d="M268.311 179.84C281.46 195.948 286.46 213.946 278.882 220.08C271.304 226.214 254.817 218.147 241.396 201.937C228.247 185.829 223.248 167.831 230.826 161.697C238.132 155.461 254.89 163.63 268.311 179.84Z" fill="url(#paint32_linear_7037_20594)"/>
<path opacity="0.7" d="M228.361 178.123C230.286 185.356 234.823 193.882 241.398 201.936C254.547 218.044 271.305 226.213 278.883 220.08C286.461 213.946 281.461 195.948 268.312 179.84C270.237 187.073 269.448 193.284 265.846 196.266C258.268 202.4 241.51 194.231 228.361 178.123Z" fill="url(#paint33_linear_7037_20594)"/>
<path opacity="0.6" d="M278.206 218.586C270.628 224.72 254.142 216.652 240.721 200.442C234.926 193.611 230.896 186.206 228.664 179.787C230.692 186.749 235.162 194.63 241.126 201.835C254.276 217.942 271.034 226.112 278.612 219.978C282.69 216.555 282.971 209.223 280.098 200.393C282.904 208.578 282.182 215.434 278.206 218.586Z" fill="white"/>
<path opacity="0.3" d="M231.231 163.091C238.81 156.957 255.296 165.024 268.717 181.234C274.512 188.065 278.542 195.47 280.774 201.889C278.746 194.928 274.276 187.046 268.311 179.842C255.162 163.734 238.404 155.564 230.826 161.698C226.748 165.121 226.466 172.453 229.34 181.283C226.805 173.2 227.256 166.242 231.231 163.091Z" fill="white"/>
<path d="M265.977 181.551C254.888 168.066 240.883 161.258 234.697 166.345C228.511 171.432 232.487 186.488 243.576 199.973C254.666 213.458 268.671 220.266 274.857 215.179C281.043 210.092 277.067 195.036 265.977 181.551Z" fill="#390176"/>
<path d="M265.556 182.212C276.163 195.193 280.285 209.761 274.134 214.573C268.255 219.488 254.652 212.816 244.045 199.835C233.437 186.853 229.315 172.285 235.466 167.473C241.345 162.559 254.948 169.23 265.556 182.212Z" fill="url(#paint34_linear_7037_20594)"/>
<path opacity="0.2" d="M235.957 180.987C235.177 179.763 234.025 178.71 233.246 177.487C234.187 184.039 238.012 191.988 244.316 199.939C254.923 212.921 268.357 219.219 274.508 214.407C279.911 209.933 277.178 197.438 268.64 185.545C269.211 189.789 268.426 193.522 266.149 195.454C259.896 200.537 246.564 193.968 235.957 180.987Z" fill="url(#paint35_linear_7037_20594)"/>
<g opacity="0.6">
<path opacity="0.3" d="M273.565 212.807C267.686 217.722 254.083 211.05 243.475 198.069C240.324 194.093 237.546 189.948 235.684 185.838C237.715 190.321 240.56 195.111 244.424 199.665C255.031 212.647 268.634 219.318 274.513 214.404C278.591 210.981 277.889 202.969 273.726 194.273C277.075 202.662 277.27 209.554 273.565 212.807Z" fill="#3F3B44"/>
</g>
<g opacity="0.6">
<path opacity="0.3" d="M236.417 169.069C242.297 164.155 255.9 170.826 266.507 183.808C269.659 187.784 272.437 191.929 274.298 196.039C272.268 191.555 269.423 186.765 265.559 182.211C254.951 169.23 241.348 162.558 235.469 167.472C231.391 170.895 232.093 178.907 236.257 187.603C232.805 179.485 232.442 172.22 236.417 169.069Z" fill="#3F3B44"/>
</g>
<path d="M267.188 206.69C264.062 209.231 257.921 206.609 252.091 200.695C251.378 200.117 250.769 199.267 250.159 198.418C244.194 191.213 242.033 182.962 245.533 180.251C246.111 179.539 247.129 179.302 248.046 179.338C247.334 178.76 246.555 177.537 245.945 176.687C245.335 175.838 245.37 174.921 245.574 174.378C245.677 174.107 245.677 174.107 246.05 173.938C246.526 173.497 248.088 173.465 249.445 173.976C251.345 174.692 252.871 175.576 254.295 176.732C255.177 177.684 255.786 178.533 256.294 179.654C256.463 180.028 256.53 180.673 256.428 180.944C256.326 181.216 256.224 181.487 256.122 181.759C256.122 181.759 256.122 181.759 256.019 182.03L256.189 182.404C257.986 183.391 260.19 185.77 262.393 188.149C262.834 188.625 263.274 189.1 263.613 189.848C268.763 196.746 270.145 203.774 267.188 206.69Z" fill="#390176"/>
<path d="M253.653 176.798C252.5 175.744 251.245 174.961 249.514 174.62C248.157 174.109 246.867 174.243 246.391 174.683L246.289 174.955C246.187 175.226 246.254 175.871 246.592 176.618C246.931 177.366 247.812 178.317 248.253 178.793C248.524 178.895 248.796 178.998 248.693 179.269C248.591 179.54 248.76 179.914 248.658 180.185C247.742 180.15 246.723 180.387 246.145 181.099C243.019 183.64 245.011 191.518 250.535 198.247C251.145 199.096 251.857 199.674 252.569 200.253C257.959 205.691 263.828 208.211 266.581 205.838C269.605 203.568 268.223 196.54 263.513 190.118C263.072 189.642 262.632 189.166 262.293 188.419C260.192 185.768 257.784 183.932 255.92 182.3C255.479 181.824 255.412 181.179 254.971 180.703C255.243 180.805 255.345 180.534 255.345 180.534C255.447 180.263 255.549 179.991 255.549 179.991C255.652 179.72 255.482 179.346 255.313 178.972C254.975 178.225 254.365 177.376 253.653 176.798Z" fill="#94512A"/>
<path d="M252.597 175.476C251.445 174.422 250.19 173.64 248.459 173.298C247.102 172.787 245.812 172.921 245.336 173.362L245.234 173.633C245.131 173.905 245.199 174.55 245.537 175.297C245.875 176.044 246.757 176.996 247.197 177.472C247.469 177.574 247.74 177.676 247.638 177.947C247.536 178.219 247.434 178.49 247.434 178.49C246.517 178.455 245.498 178.691 244.92 179.403C241.794 181.945 243.786 189.823 249.31 196.552C249.92 197.401 250.632 197.979 251.344 198.557C256.734 203.996 262.603 206.516 265.356 204.143C268.38 201.873 266.998 194.844 262.288 188.422C261.848 187.947 261.407 187.471 261.069 186.723C258.968 184.073 256.56 182.237 254.695 180.605C254.254 180.129 254.187 179.484 253.747 179.008C254.018 179.11 254.12 178.839 254.12 178.839C254.223 178.567 254.325 178.296 254.325 178.296C254.427 178.024 254.258 177.651 254.089 177.277C253.817 177.175 253.207 176.326 252.597 175.476Z" fill="url(#paint36_linear_7037_20594)"/>
<path d="M252.597 175.476C251.445 174.422 250.19 173.64 248.459 173.298C247.102 172.787 245.812 172.921 245.336 173.362L245.234 173.633C245.131 173.905 245.199 174.55 245.537 175.297C245.875 176.044 246.757 176.996 247.197 177.472C247.469 177.574 247.74 177.676 247.638 177.947C247.536 178.219 247.434 178.49 247.434 178.49C246.517 178.455 245.498 178.691 244.92 179.403C241.794 181.945 243.786 189.823 249.31 196.552C249.92 197.401 250.632 197.979 251.344 198.557C256.734 203.996 262.603 206.516 265.356 204.143C268.38 201.873 266.998 194.844 262.288 188.422C261.848 187.947 261.407 187.471 261.069 186.723C258.968 184.073 256.56 182.237 254.695 180.605C254.254 180.129 254.187 179.484 253.747 179.008C254.018 179.11 254.12 178.839 254.12 178.839C254.223 178.567 254.325 178.296 254.325 178.296C254.427 178.024 254.258 177.651 254.089 177.277C253.817 177.175 253.207 176.326 252.597 175.476Z" fill="url(#paint37_linear_7037_20594)"/>
<path d="M265.87 205.262C262.743 207.804 256.603 205.182 250.772 199.268C250.06 198.69 249.45 197.84 248.84 196.991C242.876 189.786 240.714 181.535 244.214 178.824C244.792 178.112 245.811 177.875 246.727 177.911C246.015 177.333 245.236 176.109 244.626 175.26C244.017 174.411 244.052 173.494 244.256 172.951C244.358 172.68 244.358 172.68 244.732 172.511C245.208 172.07 246.769 172.038 248.126 172.549C250.026 173.265 251.553 174.149 252.977 175.305C253.858 176.257 254.468 177.106 254.976 178.227C255.145 178.601 255.212 179.246 255.11 179.517C255.008 179.789 254.905 180.06 254.803 180.332C254.803 180.332 254.803 180.332 254.701 180.603L254.87 180.977C257.109 182.439 259.414 184.547 261.515 187.198C261.956 187.673 262.396 188.149 262.735 188.897C267.716 195.421 268.996 202.721 265.87 205.262Z" fill="#390176"/>
<path d="M252.597 175.476C251.445 174.422 250.19 173.64 248.459 173.298C247.102 172.787 245.812 172.921 245.336 173.362L245.234 173.633C245.131 173.905 245.199 174.55 245.537 175.297C245.875 176.044 246.757 176.996 247.197 177.472C247.469 177.574 247.74 177.676 247.638 177.947C247.536 178.219 247.434 178.49 247.434 178.49C246.517 178.455 245.498 178.691 244.92 179.403C241.794 181.945 243.786 189.823 249.31 196.552C249.92 197.401 250.632 197.979 251.344 198.557C256.734 203.996 262.603 206.516 265.356 204.143C268.38 201.873 266.998 194.844 262.288 188.422C261.848 187.947 261.407 187.471 261.069 186.723C258.968 184.073 256.56 182.237 254.695 180.605C254.254 180.129 254.187 179.484 253.747 179.008C254.018 179.11 254.12 178.839 254.12 178.839C254.223 178.567 254.325 178.296 254.325 178.296C254.427 178.024 254.258 177.651 254.089 177.277C253.817 177.175 253.207 176.326 252.597 175.476Z" fill="url(#paint38_linear_7037_20594)"/>
<path d="M262.193 188.69C266.902 195.112 268.387 201.87 265.261 204.411C262.508 206.784 256.367 204.162 251.249 198.825C250.406 194.479 250.818 190.915 253.095 188.984C255.27 187.323 258.393 187.26 262.193 188.69Z" fill="url(#paint39_linear_7037_20594)"/>
</g>
<path d="M225.766 125.721C239.399 110.09 233.394 82.4165 212.44 63.9899C191.487 45.5632 163.214 43.2848 149.683 58.6438L136.423 74.1051L212.235 141.08L225.766 125.721Z" fill="#390176"/>
<path d="M224.782 125.039C237.837 110.121 232.069 83.466 211.556 65.5152C191.043 47.5644 163.788 45.0497 150.631 60.2395L138.425 74.5481L212.136 138.872L224.782 125.039Z" fill="url(#paint40_linear_7037_20594)"/>
<path d="M200.541 77.9786C179.474 59.4877 151.346 57.0871 137.715 72.6166C124.085 88.1461 130.113 115.725 151.181 134.216C172.248 152.707 200.376 155.107 214.006 139.578C227.637 124.048 221.608 96.4694 200.541 77.9786Z" fill="#390176"/>
<path d="M199.76 78.7396C220.273 96.6904 226.042 123.345 212.987 138.264C199.931 153.182 172.574 150.939 152.062 132.988C131.549 115.037 125.78 88.3824 138.835 73.4639C151.89 58.5455 179.247 60.7888 199.76 78.7396Z" fill="url(#paint41_linear_7037_20594)"/>
<path opacity="0.7" d="M132.955 102.242C135.385 113.074 141.854 123.877 152.059 132.988C172.572 150.939 199.827 153.453 212.984 138.264C226.039 123.345 220.27 96.6903 199.757 78.7395C202.187 89.5713 200.408 100.058 193.88 107.517C180.723 122.707 153.468 120.192 132.955 102.242Z" fill="url(#paint42_linear_7037_20594)"/>
<path opacity="0.6" d="M212.414 136.496C199.359 151.414 172.002 149.171 151.489 131.22C142.606 123.537 136.542 114.126 133.499 104.922C136.236 114.94 142.638 125.098 151.962 133.258C172.474 151.209 199.729 153.723 212.887 138.533C220.468 129.921 221.673 117.669 217.65 105.307C221.063 116.819 219.52 128.325 212.414 136.496Z" fill="white"/>
<path opacity="0.3" d="M139.309 75.5008C152.364 60.5824 179.721 62.8256 200.234 80.7764C209.117 88.4601 215.181 97.8711 218.224 107.074C215.488 97.0568 209.086 86.8985 199.762 78.7391C179.249 60.7883 151.994 58.2736 138.837 73.4634C131.255 82.0754 130.051 94.328 134.073 106.69C130.763 94.9061 132.306 83.4006 139.309 75.5008Z" fill="white"/>
<path d="M195.871 83.6875C178.777 68.6834 156.096 66.5721 145.213 78.9716C134.33 91.3712 139.365 113.586 156.46 128.59C173.554 143.594 196.235 145.706 207.118 133.306C218.001 120.906 212.966 98.6915 195.871 83.6875Z" fill="#390176"/>
<path d="M195.133 84.436C211.644 99.0209 216.606 120.413 205.965 132.212C195.324 144.011 173.737 142.081 157.123 127.767C140.509 113.454 135.65 91.79 146.291 79.9913C156.932 68.1926 178.621 69.8512 195.133 84.436Z" fill="url(#paint43_linear_7037_20594)"/>
<path opacity="0.2" d="M145.347 102.256C143.923 101.1 142.601 99.672 141.279 98.2446C142.08 108.463 147.632 119.231 157.397 127.867C173.637 142.349 195.598 144.11 206.238 132.311C215.928 121.394 212.796 102.55 199.848 88.3774C200.314 95.3708 198.608 101.547 194.291 106.429C183.548 118.499 161.689 116.467 145.347 102.256Z" fill="url(#paint44_linear_7037_20594)"/>
<g opacity="0.6">
<path opacity="0.3" d="M204.953 129.969C194.584 141.87 172.725 139.838 156.111 125.524C150.958 121.104 147.027 115.905 144.386 110.572C147.094 116.55 151.532 122.87 157.398 127.868C173.91 142.453 195.768 144.485 206.24 132.313C213.447 123.87 213.295 111.106 207.235 99.2174C211.938 110.595 211.583 122.238 204.953 129.969Z" fill="#3F3B44"/>
</g>
<g opacity="0.6">
<path opacity="0.3" d="M147.308 82.232C157.677 70.3311 179.535 72.3633 196.149 86.6767C201.303 91.0966 205.234 96.2955 207.874 101.629C205.167 95.6505 200.729 89.3307 194.863 84.3328C178.351 69.748 156.493 67.7157 146.021 79.8881C138.916 88.0594 139.068 100.823 145.128 112.712C140.052 101.503 140.407 89.8605 147.308 82.232Z" fill="#3F3B44"/>
</g>
<path d="M194.908 123.712C189.537 129.747 179.251 129.903 170.128 123.678C169.145 122.998 167.89 122.216 167.008 121.264C157.684 113.105 155.121 100.983 161.173 93.964C162.329 92.5399 163.654 91.4893 165.42 90.9146C164.165 90.1322 163.012 89.0784 162.335 87.5838C161.556 86.3608 161.694 85.1729 162 84.3586C162.102 84.0871 162.205 83.8157 162.68 83.3751C163.734 82.2223 165.976 81.207 168.556 80.9389C171.782 80.6038 174.327 81.2522 176.124 82.239C177.379 83.0215 178.43 84.3468 179.107 85.8413C179.445 86.5885 179.512 87.2336 179.308 87.7764C179.103 88.3193 178.899 88.8621 178.695 89.405C178.695 89.405 178.592 89.6764 178.321 89.5742C178.592 89.6764 178.49 89.9478 178.762 90.05C182.392 91.1072 185.988 93.0809 189.277 95.8689C189.989 96.4469 190.701 97.0249 191.311 97.8744C198.597 106.506 200.382 117.405 194.908 123.712Z" fill="#390176"/>
<path d="M175.616 83.5944C173.818 82.6076 171.816 82.1636 168.862 82.6009C166.656 82.6998 164.516 83.4437 163.462 84.5964C163.36 84.8679 162.986 85.0371 162.884 85.3085C162.68 85.8514 162.645 86.7679 163.254 87.6173C163.762 88.7382 164.915 89.7921 165.729 90.0987C166.001 90.2009 166.272 90.3031 166.815 90.5075C166.882 91.1525 166.677 91.6954 166.575 91.9668C164.809 92.5415 163.382 93.8634 161.954 95.1854C156.378 101.763 158.603 113.138 167.487 120.822C168.368 121.773 169.352 122.454 170.335 123.134C178.475 128.678 188.387 128.691 193.656 122.928C199.027 116.892 197.31 106.639 189.886 99.1946C189.174 98.6166 188.733 98.1407 188.021 97.5627C184.732 94.7748 181.137 92.8011 177.777 91.8461C177.337 91.3703 176.727 90.5208 176.388 89.7735C176.762 89.6043 177.136 89.4351 177.238 89.1637C177.714 88.723 177.816 88.4516 177.749 87.8065C177.953 87.2637 177.784 86.8901 177.717 86.245C177.481 85.2263 176.702 84.0032 175.616 83.5944Z" fill="#94512A"/>
<path d="M174.022 82.0658C172.224 81.0789 170.222 80.635 167.268 81.0723C165.062 81.1711 162.922 81.915 161.868 83.0678C161.766 83.3392 161.393 83.5084 161.29 83.7799C161.086 84.3227 161.051 85.2392 161.661 86.0886C162.168 87.2095 163.321 88.2634 164.135 88.57C164.407 88.6722 164.678 88.7744 165.221 88.9788C165.288 89.6238 165.084 90.1667 164.981 90.4381C163.216 91.0128 161.788 92.3348 160.361 93.6567C154.785 100.235 157.01 111.609 165.893 119.293C166.774 120.245 167.758 120.925 168.741 121.605C176.881 127.149 186.793 127.163 192.062 121.399C197.434 115.364 195.716 105.11 188.292 97.6659C187.58 97.0879 187.14 96.6121 186.427 96.0341C183.138 93.2461 179.543 91.2724 176.184 90.3174C175.743 89.8416 175.133 88.9921 174.795 88.2449C175.168 88.0757 175.542 87.9064 175.644 87.635C176.12 87.1944 176.222 86.9229 176.155 86.2779C176.36 85.735 176.19 85.3614 176.123 84.7164C175.616 83.5955 175.006 82.746 174.022 82.0658Z" fill="url(#paint45_linear_7037_20594)"/>
<path d="M174.022 82.0658C172.224 81.0789 170.222 80.635 167.268 81.0723C165.062 81.1711 162.922 81.915 161.868 83.0678C161.766 83.3392 161.393 83.5084 161.29 83.7799C161.086 84.3227 161.051 85.2392 161.661 86.0886C162.168 87.2095 163.321 88.2634 164.135 88.57C164.407 88.6722 164.678 88.7744 165.221 88.9788C165.288 89.6238 165.084 90.1667 164.981 90.4381C163.216 91.0128 161.788 92.3348 160.361 93.6567C154.785 100.235 157.01 111.609 165.893 119.293C166.774 120.245 167.758 120.925 168.741 121.605C176.881 127.149 186.793 127.163 192.062 121.399C197.434 115.364 195.716 105.11 188.292 97.6659C187.58 97.0879 187.14 96.6121 186.427 96.0341C183.138 93.2461 179.543 91.2724 176.184 90.3174C175.743 89.8416 175.133 88.9921 174.795 88.2449C175.168 88.0757 175.542 87.9064 175.644 87.635C176.12 87.1944 176.222 86.9229 176.155 86.2779C176.36 85.735 176.19 85.3614 176.123 84.7164C175.616 83.5955 175.006 82.746 174.022 82.0658Z" fill="url(#paint46_linear_7037_20594)"/>
<path d="M192.939 122.354C187.568 128.389 177.282 128.545 168.159 122.321C167.176 121.64 165.921 120.858 165.04 119.906C155.716 111.747 153.152 99.6249 159.204 92.6064C160.36 91.1822 161.685 90.1317 163.451 89.557C162.196 88.7746 161.043 87.7207 160.367 86.2262C159.587 85.0031 159.725 83.8152 160.031 83.0009C160.134 82.7295 160.236 82.4581 160.712 82.0174C161.766 80.8647 164.007 79.8494 166.588 79.5813C169.813 79.2462 172.358 79.8945 174.156 80.8814C175.411 81.6638 176.461 82.9891 177.138 84.4836C177.476 85.2309 177.543 85.8759 177.339 86.4188C177.135 86.9616 176.93 87.5045 176.726 88.0473C176.726 88.0473 176.624 88.3188 176.352 88.2166C176.624 88.3188 176.521 88.5902 176.793 88.6924C180.424 89.7496 184.019 91.7233 187.308 94.5112C188.02 95.0892 188.732 95.6673 189.342 96.5167C197.002 104.979 198.787 115.878 192.939 122.354Z" fill="#390176"/>
<path d="M174.022 82.0658C172.224 81.0789 170.222 80.635 167.268 81.0723C165.062 81.1711 162.922 81.915 161.868 83.0678C161.766 83.3392 161.393 83.5084 161.29 83.7799C161.086 84.3227 161.051 85.2392 161.661 86.0886C162.168 87.2095 163.321 88.2634 164.135 88.57C164.407 88.6722 164.678 88.7744 165.221 88.9788C165.288 89.6238 165.084 90.1667 164.981 90.4381C163.216 91.0128 161.788 92.3348 160.361 93.6567C154.785 100.235 157.01 111.609 165.893 119.293C166.774 120.245 167.758 120.925 168.741 121.605C176.881 127.149 186.793 127.163 192.062 121.399C197.434 115.364 195.716 105.11 188.292 97.6659C187.58 97.0879 187.14 96.6121 186.427 96.0341C183.138 93.2461 179.543 91.2724 176.184 90.3174C175.743 89.8416 175.133 88.9921 174.795 88.2449C175.168 88.0757 175.542 87.9064 175.644 87.635C176.12 87.1944 176.222 86.9229 176.155 86.2779C176.36 85.735 176.19 85.3614 176.123 84.7164C175.616 83.5955 175.006 82.746 174.022 82.0658Z" fill="url(#paint47_linear_7037_20594)"/>
<path d="M188.394 97.3943C195.444 105.008 197.162 115.261 192.164 121.127C187.166 126.993 177.356 126.708 168.843 121.333C167.63 114.679 169.064 108.401 173.177 104.061C176.917 99.8908 182.419 97.6239 188.394 97.3943Z" fill="url(#paint48_linear_7037_20594)"/>
<path d="M124.644 156.435C123.813 168.518 109.985 177.258 93.5906 176.353C77.1961 175.448 64.8546 164.603 65.6855 152.52L66.5165 140.436L125.372 144.623L124.644 156.435Z" fill="#390176"/>
<path d="M123.83 156.128C123.204 167.669 109.478 176.137 93.7288 175.165C77.9794 174.193 65.8071 163.722 66.4336 152.181L67.1272 141.286L124.252 145.131L123.83 156.128Z" fill="url(#paint49_linear_7037_20594)"/>
<path d="M125.46 145.808C126.301 133.663 113.769 122.903 97.4693 121.774C81.1694 120.645 67.274 129.576 66.433 141.721C65.5919 153.866 78.1238 164.626 94.4236 165.755C110.723 166.884 124.619 157.953 125.46 145.808Z" fill="#390176"/>
<path d="M97.2943 122.896C113.044 123.868 125.216 134.339 124.589 145.88C123.963 157.421 110.238 165.889 94.4882 164.917C78.7388 163.945 66.5665 153.474 67.193 141.933C67.8196 130.392 81.6471 121.653 97.2943 122.896Z" fill="url(#paint50_linear_7037_20594)"/>
<path opacity="0.7" d="M74.6732 157.457C79.6577 161.504 86.6126 164.432 94.4873 164.918C110.237 165.89 123.962 157.422 124.589 145.881C125.215 134.341 113.314 123.971 97.2934 122.897C102.278 126.944 105.088 132.65 104.774 138.42C104.148 149.961 90.4226 158.429 74.6732 157.457Z" fill="url(#paint51_linear_7037_20594)"/>
<path opacity="0.6" d="M123.607 145.197C122.981 156.738 109.255 165.206 93.506 164.234C86.5478 163.784 80.5764 161.535 75.9303 158.236C80.7456 161.909 87.2598 164.362 94.4895 164.914C110.239 165.886 123.964 157.418 124.591 145.878C124.939 139.191 121.315 133.178 114.973 128.62C120.772 132.973 124.125 138.884 123.607 145.197Z" fill="white"/>
<path opacity="0.3" d="M68.1805 142.608C68.8071 131.068 82.5324 122.6 98.2818 123.572C105.24 124.022 111.211 126.271 115.857 129.57C111.042 125.897 104.528 123.444 97.2983 122.891C81.5489 121.92 67.8236 130.388 67.197 141.928C66.8486 148.615 70.4726 154.628 76.8143 159.185C71.1177 154.561 67.6628 148.922 68.1805 142.608Z" fill="white"/>
<path d="M119.962 145.423C120.626 135.835 110.412 127.318 97.1488 126.399C83.8852 125.481 72.5947 132.509 71.9307 142.097C71.2668 151.685 81.4808 160.203 94.7444 161.121C108.008 162.04 119.299 155.012 119.962 145.423Z" fill="#390176"/>
<path d="M97.3237 126.935C110.052 127.699 119.919 136.063 119.194 145.397C118.468 154.731 107.563 161.471 94.9364 160.436C82.2078 159.672 72.341 151.308 73.0664 141.974C73.6896 132.912 84.3237 126.069 97.3237 126.935Z" fill="url(#paint52_linear_7037_20594)"/>
<path opacity="0.2" d="M80.4517 152.812C79.2638 152.674 78.3473 152.639 77.1594 152.502C81.0231 157.055 87.6043 160.153 95.2076 160.537C107.936 161.301 118.842 154.56 119.296 145.124C119.986 136.707 111.748 128.956 100.718 126.972C103.362 129.827 104.783 133.461 104.54 137.399C103.984 147.106 93.078 153.847 80.4517 152.812Z" fill="url(#paint53_linear_7037_20594)"/>
<g opacity="0.6">
<path opacity="0.3" d="M117.94 144.613C117.215 153.947 106.309 160.687 93.683 159.652C89.7457 159.409 86.1149 158.352 82.96 156.854C86.2842 158.725 90.4578 159.987 95.0402 160.163C107.769 160.927 118.674 154.186 119.297 145.124C119.815 138.81 115.275 132.762 108.15 129.46C114.154 133.27 118.254 138.842 117.94 144.613Z" fill="#3F3B44"/>
</g>
<g opacity="0.3">
<path d="M74.2158 143.03C74.9413 133.696 85.8468 126.955 98.4731 127.991C102.41 128.234 106.041 129.291 109.196 130.789C105.872 128.917 101.698 127.656 97.116 127.48C84.3875 126.716 73.4819 133.456 72.8587 142.519C72.341 148.832 76.8816 154.88 84.0057 158.183C77.731 154.271 73.9026 148.8 74.2158 143.03Z" fill="#3F3B44"/>
</g>
<path d="M110.847 145.351C110.569 150.205 105.846 153.695 99.4979 154.094C98.8529 154.161 97.9364 154.126 97.2913 154.193C90.0617 153.64 84.6365 149.118 84.8476 143.619C84.8828 142.702 85.2916 141.617 85.7004 140.531C85.0553 140.598 83.8674 140.461 83.0531 140.154C82.2389 139.847 81.7982 139.372 81.7312 138.726C81.8334 138.455 81.562 138.353 81.6642 138.081C81.6994 137.165 82.4818 135.91 83.4334 135.029C84.8609 133.707 86.084 132.928 87.3741 132.794C88.2906 132.829 89.2071 132.864 89.9192 133.442C90.1906 133.544 90.6312 134.02 90.8005 134.394C90.9697 134.767 91.1389 135.141 91.0367 135.412L90.9345 135.684L91.2059 135.786C93.3455 135.042 95.6543 134.672 98.1323 134.675C98.7774 134.608 99.3202 134.812 99.5916 134.915C106.617 136.01 111.397 140.599 110.847 145.351Z" fill="#390176"/>
<path d="M87.9812 133.647C86.9625 133.883 85.8416 134.391 84.4141 135.713C83.4625 136.594 82.7822 137.577 82.7471 138.494C82.6449 138.765 82.6449 138.765 82.8141 139.139C82.9833 139.513 83.1525 139.886 83.6954 140.091C84.2382 140.295 85.0525 140.602 85.7998 140.263C86.0712 140.365 86.1734 140.094 86.4448 140.196C86.614 140.57 86.8855 140.672 86.7833 140.943C86.103 141.927 85.9657 143.115 85.9305 144.031C85.5502 149.157 90.7039 153.576 97.3907 153.925C98.0358 153.858 98.9522 153.893 99.5973 153.826C105.301 153.494 110.024 150.004 110.471 145.524C110.647 140.942 106.307 136.828 100.199 135.768C99.6558 135.563 99.2822 135.733 98.7394 135.528C96.3635 135.254 93.9526 135.895 91.813 136.639C91.2701 136.435 90.9987 136.333 90.4559 136.128C90.5581 135.857 90.6603 135.585 90.6603 135.585C90.7625 135.314 90.5932 134.94 90.3218 134.838C90.1526 134.464 89.8812 134.362 89.6097 134.26C89.2713 133.513 88.3548 133.478 87.9812 133.647Z" fill="#94512A"/>
<path d="M86.5202 133.404C85.5016 133.641 84.3807 134.148 82.9532 135.47C82.0015 136.352 81.3213 137.335 81.2861 138.252C81.1839 138.523 81.1839 138.523 81.3531 138.897C81.5224 139.27 81.6916 139.644 82.2344 139.848C82.7773 140.053 83.5916 140.359 84.3388 140.021C84.6102 140.123 84.7124 139.852 84.9839 139.954C85.1531 140.328 85.4245 140.43 85.3223 140.701C84.6421 141.685 84.5047 142.873 84.4695 143.789C84.0892 148.914 89.243 153.334 95.9298 153.683C96.5748 153.616 97.4913 153.651 98.1364 153.584C103.84 153.252 108.563 149.762 109.01 145.282C109.186 140.699 104.847 136.586 98.7377 135.526C98.1949 135.321 97.8213 135.49 97.2784 135.286C94.9026 135.011 92.4916 135.653 90.352 136.397C89.8092 136.192 89.5378 136.09 88.9949 135.886C89.0971 135.614 89.1993 135.343 89.1993 135.343C89.3015 135.072 89.1323 134.698 88.8609 134.596C88.6917 134.222 88.4202 134.12 88.1488 134.018C87.9796 133.644 87.1653 133.337 86.5202 133.404Z" fill="url(#paint54_linear_7037_20594)"/>
<path d="M86.5202 133.404C85.5016 133.641 84.3807 134.148 82.9532 135.47C82.0015 136.352 81.3213 137.335 81.2861 138.252C81.1839 138.523 81.1839 138.523 81.3531 138.897C81.5224 139.27 81.6916 139.644 82.2344 139.848C82.7773 140.053 83.5916 140.359 84.3388 140.021C84.6102 140.123 84.7124 139.852 84.9839 139.954C85.1531 140.328 85.4245 140.43 85.3223 140.701C84.6421 141.685 84.5047 142.873 84.4695 143.789C84.0892 148.914 89.243 153.334 95.9298 153.683C96.5748 153.616 97.4913 153.651 98.1364 153.584C103.84 153.252 108.563 149.762 109.01 145.282C109.186 140.699 104.847 136.586 98.7377 135.526C98.1949 135.321 97.8213 135.49 97.2784 135.286C94.9026 135.011 92.4916 135.653 90.352 136.397C89.8092 136.192 89.5378 136.09 88.9949 135.886C89.0971 135.614 89.1993 135.343 89.1993 135.343C89.3015 135.072 89.1323 134.698 88.8609 134.596C88.6917 134.222 88.4202 134.12 88.1488 134.018C87.9796 133.644 87.1653 133.337 86.5202 133.404Z" fill="url(#paint55_linear_7037_20594)"/>
<path d="M109.656 145.215C109.378 150.069 104.655 153.559 98.3065 153.958C97.6615 154.025 96.745 153.99 96.0999 154.057C88.8703 153.504 83.4451 148.982 83.6562 143.483C83.6914 142.566 84.1002 141.481 84.509 140.395C83.8639 140.462 82.676 140.324 81.8617 140.018C81.0475 139.711 80.6068 139.235 80.5398 138.59C80.642 138.319 80.3706 138.217 80.4728 137.945C80.5079 137.029 81.2904 135.774 82.242 134.893C83.6695 133.571 84.8926 132.792 86.1827 132.658C87.0992 132.693 88.0157 132.728 88.7278 133.306C88.9992 133.408 89.4398 133.884 89.6091 134.258C89.7783 134.631 89.9475 135.005 89.8453 135.276L89.7431 135.548L90.0145 135.65C92.1541 134.906 94.4629 134.536 96.9409 134.539C97.5859 134.472 98.1288 134.676 98.4002 134.779C105.425 135.874 109.934 140.361 109.656 145.215Z" fill="#390176"/>
<path d="M86.5202 133.404C85.5016 133.641 84.3807 134.148 82.9532 135.47C82.0015 136.352 81.3213 137.335 81.2861 138.252C81.1839 138.523 81.1839 138.523 81.3531 138.897C81.5224 139.27 81.6916 139.644 82.2344 139.848C82.7773 140.053 83.5916 140.359 84.3388 140.021C84.6102 140.123 84.7124 139.852 84.9839 139.954C85.1531 140.328 85.4245 140.43 85.3223 140.701C84.6421 141.685 84.5047 142.873 84.4695 143.789C84.0892 148.914 89.243 153.334 95.9298 153.683C96.5748 153.616 97.4913 153.651 98.1364 153.584C103.84 153.252 108.563 149.762 109.01 145.282C109.186 140.699 104.847 136.586 98.7377 135.526C98.1949 135.321 97.8213 135.49 97.2784 135.286C94.9026 135.011 92.4916 135.653 90.352 136.397C89.8092 136.192 89.5378 136.09 88.9949 135.886C89.0971 135.614 89.1993 135.343 89.1993 135.343C89.3015 135.072 89.1323 134.698 88.8609 134.596C88.6917 134.222 88.4202 134.12 88.1488 134.018C87.9796 133.644 87.1653 133.337 86.5202 133.404Z" fill="url(#paint56_linear_7037_20594)"/>
<path d="M98.7388 135.526C104.848 136.586 109.187 140.699 109.011 145.282C108.564 149.762 104.214 153.083 98.1374 153.584C95.3913 151 93.5969 147.535 94.009 143.972C94.0475 140.577 96.0882 137.627 98.7388 135.526Z" fill="url(#paint57_linear_7037_20594)"/>
<path d="M321.649 14.3006C325.035 5.30637 320.489 -4.73036 311.495 -8.11703C302.501 -11.5037 292.464 -6.95784 289.077 2.03643C285.691 11.0307 290.237 21.0674 299.231 24.4541C308.225 27.8408 318.262 23.2949 321.649 14.3006Z" fill="url(#paint58_radial_7037_20594)"/>
<path d="M229.263 53.8932C231.521 47.897 228.49 41.2059 222.494 38.9481C216.498 36.6903 209.807 39.7209 207.549 45.7171C205.291 51.7132 208.322 58.4044 214.318 60.6622C220.314 62.9199 227.005 59.8894 229.263 53.8932Z" fill="url(#paint59_radial_7037_20594)"/>
<path opacity="0.4" d="M362.329 54.4106C363.458 51.4125 361.942 48.067 358.944 46.9381C355.946 45.8092 352.601 47.3245 351.472 50.3225C350.343 53.3206 351.858 56.6662 354.856 57.7951C357.854 58.924 361.2 57.4087 362.329 54.4106Z" fill="url(#paint60_radial_7037_20594)"/>
<path d="M119.941 68.5095C122.481 61.7638 119.072 54.2363 112.326 51.6963C105.581 49.1563 98.0531 52.5657 95.5131 59.3114C92.9731 66.0571 96.3825 73.5846 103.128 76.1246C109.874 78.6646 117.401 75.2552 119.941 68.5095Z" fill="url(#paint61_radial_7037_20594)"/>
<path opacity="0.4" d="M155.277 44.6277C158.664 35.6334 154.118 25.5967 145.124 22.21C136.13 18.8234 126.093 23.3692 122.706 32.3635C119.32 41.3578 123.866 51.3945 132.86 54.7812C141.854 58.1678 151.891 53.622 155.277 44.6277Z" fill="url(#paint62_radial_7037_20594)"/>
<path d="M182.371 -8.39166C186.322 -18.885 181.018 -30.5945 170.525 -34.5456C160.032 -38.4967 148.322 -33.1932 144.371 -22.6999C140.42 -12.2066 145.723 -0.497096 156.217 3.45402C166.71 7.40513 178.419 2.10165 182.371 -8.39166Z" fill="url(#paint63_radial_7037_20594)"/>
<path d="M275.833 7.58796C279.785 -2.90535 274.481 -14.6149 263.988 -18.566C253.494 -22.5171 241.785 -17.2136 237.834 -6.72028C233.883 3.77303 239.186 15.4825 249.68 19.4337C260.173 23.3848 271.882 18.0813 275.833 7.58796Z" fill="url(#paint64_radial_7037_20594)"/>
<path d="M347.591 60.6362C350.413 53.141 346.625 44.777 339.129 41.9548C331.634 39.1326 323.27 42.9208 320.448 50.416C317.626 57.9112 321.414 66.2752 328.909 69.0974C336.404 71.9196 344.768 68.1314 347.591 60.6362Z" fill="url(#paint65_radial_7037_20594)"/>
<path d="M117.838 116.065C120.152 109.919 117.046 103.061 110.9 100.747C104.754 98.4324 97.8951 101.539 95.5809 107.685C93.2667 113.831 96.373 120.689 102.519 123.004C108.665 125.318 115.524 122.211 117.838 116.065Z" fill="url(#paint66_radial_7037_20594)"/>
<path d="M73.1191 126.189C75.4333 120.043 72.327 113.185 66.1809 110.871C60.0348 108.556 53.1764 111.663 50.8621 117.809C48.5479 123.955 51.6543 130.813 57.8003 133.128C63.9464 135.442 70.8049 132.335 73.1191 126.189Z" fill="url(#paint67_radial_7037_20594)"/>
<path d="M51.8554 187.603C54.1696 181.457 51.0633 174.598 44.9172 172.284C38.7711 169.97 31.9127 173.076 29.5985 179.222C27.2842 185.368 30.3906 192.227 36.5367 194.541C42.6828 196.855 49.5412 193.749 51.8554 187.603Z" fill="url(#paint68_radial_7037_20594)"/>
<defs>
<linearGradient id="paint0_linear_7037_20594" x1="145.969" y1="109.983" x2="245.778" y2="-60.5103" gradientUnits="userSpaceOnUse">
<stop stop-color="#BA40F9" stop-opacity="0"/>
<stop offset="0.7198" stop-color="#BA43FA"/>
<stop offset="1" stop-color="white"/>
</linearGradient>
<linearGradient id="paint1_linear_7037_20594" x1="395.514" y1="60.9275" x2="25.3132" y2="229.872" gradientUnits="userSpaceOnUse">
<stop offset="0.00220353" stop-color="#7DFAF5"/>
<stop offset="1" stop-color="#7A40FF"/>
</linearGradient>
<linearGradient id="paint2_linear_7037_20594" x1="64.7478" y1="276.836" x2="393.339" y2="129.271" gradientUnits="userSpaceOnUse">
<stop offset="0.00220353" stop-color="#7DFAF5"/>
<stop offset="1" stop-color="#7A40FF"/>
</linearGradient>
<linearGradient id="paint3_linear_7037_20594" x1="-48.6519" y1="327.762" x2="279.939" y2="180.197" gradientUnits="userSpaceOnUse">
<stop stop-color="#7A40FF" stop-opacity="0"/>
<stop offset="0.0582713" stop-color="#7D45FF" stop-opacity="0.1203"/>
<stop offset="0.1306" stop-color="#8455FE" stop-opacity="0.2697"/>
<stop offset="0.2104" stop-color="#906EFD" stop-opacity="0.4343"/>
<stop offset="0.2955" stop-color="#A091FB" stop-opacity="0.6101"/>
<stop offset="0.3849" stop-color="#B6BEF8" stop-opacity="0.7947"/>
<stop offset="0.4766" stop-color="#D0F5F5" stop-opacity="0.984"/>
<stop offset="0.4843" stop-color="#D2FAF5"/>
<stop offset="0.5261" stop-color="#BED0F7" stop-opacity="0.919"/>
<stop offset="0.5723" stop-color="#ACAAF9" stop-opacity="0.8294"/>
<stop offset="0.6221" stop-color="#9D89FB" stop-opacity="0.7329"/>
<stop offset="0.6753" stop-color="#906EFD" stop-opacity="0.6297"/>
<stop offset="0.7331" stop-color="#865AFE" stop-opacity="0.5175"/>
<stop offset="0.798" stop-color="#7F4BFE" stop-opacity="0.3917"/>
<stop offset="0.8757" stop-color="#7B43FF" stop-opacity="0.241"/>
<stop offset="1" stop-color="#7A40FF" stop-opacity="0"/>
</linearGradient>
<linearGradient id="paint4_linear_7037_20594" x1="270.74" y1="58.6183" x2="119.81" y2="290.497" gradientUnits="userSpaceOnUse">
<stop stop-color="#322B8F"/>
<stop offset="1" stop-color="#A5B5F5"/>
</linearGradient>
<linearGradient id="paint5_linear_7037_20594" x1="157.938" y1="111.314" x2="75.2349" y2="238.373" gradientUnits="userSpaceOnUse">
<stop stop-color="#1F4BF5"/>
<stop offset="0.547" stop-color="#A9BEF5"/>
<stop offset="0.9988" stop-color="#FFDFF5"/>
</linearGradient>
<linearGradient id="paint6_linear_7037_20594" x1="324.358" y1="95.5809" x2="211.81" y2="268.492" gradientUnits="userSpaceOnUse">
<stop stop-color="#592BF5"/>
<stop offset="0.2086" stop-color="#59A0F5"/>
<stop offset="0.9988" stop-color="#ECEDFF"/>
</linearGradient>
<linearGradient id="paint7_linear_7037_20594" x1="276.33" y1="45.4911" x2="285.752" y2="111.986" gradientUnits="userSpaceOnUse">
<stop offset="0.199" stop-color="#FFDE43"/>
<stop offset="0.3362" stop-color="#FFD242"/>
<stop offset="0.5872" stop-color="#FFB13E"/>
<stop offset="0.9215" stop-color="#FF7B38"/>
<stop offset="1" stop-color="#FF6E37"/>
</linearGradient>
<linearGradient id="paint8_linear_7037_20594" x1="281.955" y1="71.1457" x2="259.639" y2="84.7914" gradientUnits="userSpaceOnUse">
<stop offset="0.199" stop-color="#FFDE43"/>
<stop offset="0.5646" stop-color="#FFD23E"/>
<stop offset="1" stop-color="#FFBD37"/>
</linearGradient>
<linearGradient id="paint9_linear_7037_20594" x1="276.013" y1="78.3088" x2="259.974" y2="88.1166" gradientUnits="userSpaceOnUse">
<stop offset="0.0180995" stop-color="#FFFFA0"/>
<stop offset="0.9762" stop-color="#FFEB6A"/>
</linearGradient>
<linearGradient id="paint10_linear_7037_20594" x1="263.193" y1="79.1092" x2="276.807" y2="78.1047" gradientUnits="userSpaceOnUse">
<stop stop-color="#F5942A"/>
<stop offset="1" stop-color="#F5D85D"/>
</linearGradient>
<linearGradient id="paint11_linear_7037_20594" x1="263.406" y1="81.9018" x2="277.037" y2="80.8961" gradientUnits="userSpaceOnUse">
<stop stop-color="#E08C3C"/>
<stop offset="1" stop-color="#FFD06F"/>
</linearGradient>
<linearGradient id="paint12_linear_7037_20594" x1="265.977" y1="77.4535" x2="273.845" y2="76.873" gradientUnits="userSpaceOnUse">
<stop offset="0.1642" stop-color="#FFDE43"/>
<stop offset="0.2484" stop-color="#FFDA42"/>
<stop offset="1" stop-color="#FFBD37"/>
</linearGradient>
<linearGradient id="paint13_linear_7037_20594" x1="265.977" y1="77.4535" x2="273.845" y2="76.873" gradientUnits="userSpaceOnUse">
<stop offset="0.1642" stop-color="#FFDE43"/>
<stop offset="0.2484" stop-color="#FFDA42"/>
<stop offset="1" stop-color="#FFBD37"/>
</linearGradient>
<linearGradient id="paint14_linear_7037_20594" x1="265.977" y1="77.4535" x2="273.845" y2="76.873" gradientUnits="userSpaceOnUse">
<stop offset="0.0180995" stop-color="#FFFFA0"/>
<stop offset="0.9762" stop-color="#FFEB6A"/>
</linearGradient>
<linearGradient id="paint15_linear_7037_20594" x1="266.589" y1="84.9842" x2="273.892" y2="84.4453" gradientUnits="userSpaceOnUse">
<stop offset="0.1642" stop-color="#FFDE43"/>
<stop offset="0.2484" stop-color="#FFDA42"/>
<stop offset="1" stop-color="#FFBD37"/>
</linearGradient>
<linearGradient id="paint16_linear_7037_20594" x1="197.193" y1="134.639" x2="289.09" y2="29.9305" gradientUnits="userSpaceOnUse">
<stop stop-color="#3D35F9" stop-opacity="0"/>
<stop offset="0.7198" stop-color="#3F38FA"/>
<stop offset="1" stop-color="white"/>
</linearGradient>
<linearGradient id="paint17_linear_7037_20594" x1="260.874" y1="138.644" x2="350.668" y2="83.1034" gradientUnits="userSpaceOnUse">
<stop stop-color="#3D35F9" stop-opacity="0"/>
<stop offset="0.7198" stop-color="#3F38FA"/>
<stop offset="1" stop-color="white"/>
</linearGradient>
<linearGradient id="paint18_linear_7037_20594" x1="103.686" y1="236.358" x2="60.4598" y2="170.204" gradientUnits="userSpaceOnUse">
<stop stop-color="#84E2F9" stop-opacity="0"/>
<stop offset="0.7198" stop-color="#86E4FA"/>
<stop offset="1" stop-color="white"/>
</linearGradient>
<linearGradient id="paint19_linear_7037_20594" x1="168.834" y1="215.547" x2="140.825" y2="103.602" gradientUnits="userSpaceOnUse">
<stop stop-color="#5877F9" stop-opacity="0"/>
<stop offset="0.7198" stop-color="#5B7BFA"/>
<stop offset="1" stop-color="white"/>
</linearGradient>
<linearGradient id="paint20_linear_7037_20594" x1="124.532" y1="194.002" x2="87.4841" y2="110.372" gradientUnits="userSpaceOnUse">
<stop stop-color="#5ABDF9" stop-opacity="0"/>
<stop offset="0.7198" stop-color="#5DC1FA"/>
<stop offset="1" stop-color="white"/>
</linearGradient>
<linearGradient id="paint21_linear_7037_20594" x1="151.424" y1="175.417" x2="216.048" y2="3.78962" gradientUnits="userSpaceOnUse">
<stop stop-color="#F92EEC" stop-opacity="0"/>
<stop offset="0.7198" stop-color="#FA31EF"/>
<stop offset="1" stop-color="white"/>
</linearGradient>
<linearGradient id="paint22_linear_7037_20594" x1="137.906" y1="231.197" x2="201.405" y2="220.254" gradientUnits="userSpaceOnUse">
<stop offset="0.199" stop-color="#FFDE43"/>
<stop offset="0.3362" stop-color="#FFD242"/>
<stop offset="0.5872" stop-color="#FFB13E"/>
<stop offset="0.9215" stop-color="#FF7B38"/>
<stop offset="1" stop-color="#FF6E37"/>
</linearGradient>
<linearGradient id="paint23_linear_7037_20594" x1="140.745" y1="185.954" x2="174.447" y2="224.351" gradientUnits="userSpaceOnUse">
<stop offset="0.199" stop-color="#FFDE43"/>
<stop offset="0.5646" stop-color="#FFD23E"/>
<stop offset="1" stop-color="#FFBD37"/>
</linearGradient>
<linearGradient id="paint24_linear_7037_20594" x1="145.058" y1="188.469" x2="176.15" y2="223.893" gradientUnits="userSpaceOnUse">
<stop offset="0.0180995" stop-color="#FFFFA0"/>
<stop offset="0.9762" stop-color="#FFEB6A"/>
</linearGradient>
<linearGradient id="paint25_linear_7037_20594" x1="165.131" y1="231.286" x2="152.657" y2="181.437" gradientUnits="userSpaceOnUse">
<stop stop-color="#F5942A"/>
<stop offset="1" stop-color="#F5D85D"/>
</linearGradient>
<linearGradient id="paint26_linear_7037_20594" x1="168.326" y1="230.477" x2="155.827" y2="180.526" gradientUnits="userSpaceOnUse">
<stop stop-color="#E08C3C"/>
<stop offset="1" stop-color="#FFD06F"/>
</linearGradient>
<linearGradient id="paint27_linear_7037_20594" x1="161.166" y1="221.049" x2="153.957" y2="192.24" gradientUnits="userSpaceOnUse">
<stop offset="0.1642" stop-color="#FFDE43"/>
<stop offset="0.2484" stop-color="#FFDA42"/>
<stop offset="1" stop-color="#FFBD37"/>
</linearGradient>
<linearGradient id="paint28_linear_7037_20594" x1="161.166" y1="221.049" x2="153.957" y2="192.24" gradientUnits="userSpaceOnUse">
<stop offset="0.1642" stop-color="#FFDE43"/>
<stop offset="0.2484" stop-color="#FFDA42"/>
<stop offset="1" stop-color="#FFBD37"/>
</linearGradient>
<linearGradient id="paint29_linear_7037_20594" x1="161.166" y1="221.049" x2="153.957" y2="192.24" gradientUnits="userSpaceOnUse">
<stop offset="0.0180995" stop-color="#FFFFA0"/>
<stop offset="0.9762" stop-color="#FFEB6A"/>
</linearGradient>
<linearGradient id="paint30_linear_7037_20594" x1="169.567" y1="218.728" x2="162.876" y2="191.988" gradientUnits="userSpaceOnUse">
<stop offset="0.1642" stop-color="#FFDE43"/>
<stop offset="0.2484" stop-color="#FFDA42"/>
<stop offset="1" stop-color="#FFBD37"/>
</linearGradient>
<linearGradient id="paint31_linear_7037_20594" x1="240.767" y1="159.405" x2="290.339" y2="203.292" gradientUnits="userSpaceOnUse">
<stop offset="0.199" stop-color="#FFDE43"/>
<stop offset="0.3362" stop-color="#FFD242"/>
<stop offset="0.5872" stop-color="#FFB13E"/>
<stop offset="0.9215" stop-color="#FF7B38"/>
<stop offset="1" stop-color="#FF6E37"/>
</linearGradient>
<linearGradient id="paint32_linear_7037_20594" x1="262.234" y1="173.786" x2="248.389" y2="205.868" gradientUnits="userSpaceOnUse">
<stop offset="0.199" stop-color="#FFDE43"/>
<stop offset="0.5646" stop-color="#FFD23E"/>
<stop offset="1" stop-color="#FFBD37"/>
</linearGradient>
<linearGradient id="paint33_linear_7037_20594" x1="261.863" y1="181.232" x2="250.33" y2="207.959" gradientUnits="userSpaceOnUse">
<stop offset="0.0180995" stop-color="#FFFFA0"/>
<stop offset="0.9762" stop-color="#FFEB6A"/>
</linearGradient>
<linearGradient id="paint34_linear_7037_20594" x1="244.163" y1="199.771" x2="265.576" y2="182.161" gradientUnits="userSpaceOnUse">
<stop stop-color="#F5942A"/>
<stop offset="1" stop-color="#F5D85D"/>
</linearGradient>
<linearGradient id="paint35_linear_7037_20594" x1="246.214" y1="202.248" x2="267.653" y2="184.618" gradientUnits="userSpaceOnUse">
<stop stop-color="#E08C3C"/>
<stop offset="1" stop-color="#FFD06F"/>
</linearGradient>
<linearGradient id="paint36_linear_7037_20594" x1="247.808" y1="194.953" x2="260.182" y2="184.776" gradientUnits="userSpaceOnUse">
<stop offset="0.1642" stop-color="#FFDE43"/>
<stop offset="0.2484" stop-color="#FFDA42"/>
<stop offset="1" stop-color="#FFBD37"/>
</linearGradient>
<linearGradient id="paint37_linear_7037_20594" x1="247.808" y1="194.953" x2="260.182" y2="184.776" gradientUnits="userSpaceOnUse">
<stop offset="0.1642" stop-color="#FFDE43"/>
<stop offset="0.2484" stop-color="#FFDA42"/>
<stop offset="1" stop-color="#FFBD37"/>
</linearGradient>
<linearGradient id="paint38_linear_7037_20594" x1="247.808" y1="194.953" x2="260.182" y2="184.776" gradientUnits="userSpaceOnUse">
<stop offset="0.0180995" stop-color="#FFFFA0"/>
<stop offset="0.9762" stop-color="#FFEB6A"/>
</linearGradient>
<linearGradient id="paint39_linear_7037_20594" x1="253.345" y1="201.494" x2="264.831" y2="192.049" gradientUnits="userSpaceOnUse">
<stop offset="0.1642" stop-color="#FFDE43"/>
<stop offset="0.2484" stop-color="#FFDA42"/>
<stop offset="1" stop-color="#FFBD37"/>
</linearGradient>
<linearGradient id="paint40_linear_7037_20594" x1="155.621" y1="72.4797" x2="229.239" y2="109.861" gradientUnits="userSpaceOnUse">
<stop offset="0.199" stop-color="#FFDE43"/>
<stop offset="0.3362" stop-color="#FFD242"/>
<stop offset="0.5872" stop-color="#FFB13E"/>
<stop offset="0.9215" stop-color="#FF7B38"/>
<stop offset="1" stop-color="#FF6E37"/>
</linearGradient>
<linearGradient id="paint41_linear_7037_20594" x1="183.551" y1="75.3317" x2="169.204" y2="132.666" gradientUnits="userSpaceOnUse">
<stop offset="0.199" stop-color="#FFDE43"/>
<stop offset="0.5646" stop-color="#FFD23E"/>
<stop offset="1" stop-color="#FFBD37"/>
</linearGradient>
<linearGradient id="paint42_linear_7037_20594" x1="184.065" y1="82.087" x2="171.022" y2="134.215" gradientUnits="userSpaceOnUse">
<stop offset="0.0180995" stop-color="#FFFFA0"/>
<stop offset="0.9762" stop-color="#FFEB6A"/>
</linearGradient>
<linearGradient id="paint43_linear_7037_20594" x1="157.115" y1="127.763" x2="195.091" y2="84.4968" gradientUnits="userSpaceOnUse">
<stop stop-color="#F5942A"/>
<stop offset="1" stop-color="#F5D85D"/>
</linearGradient>
<linearGradient id="paint44_linear_7037_20594" x1="160.353" y1="130.552" x2="198.404" y2="87.1987" gradientUnits="userSpaceOnUse">
<stop stop-color="#E08C3C"/>
<stop offset="1" stop-color="#FFD06F"/>
</linearGradient>
<linearGradient id="paint45_linear_7037_20594" x1="163.745" y1="117.296" x2="185.691" y2="92.2917" gradientUnits="userSpaceOnUse">
<stop offset="0.1642" stop-color="#FFDE43"/>
<stop offset="0.2484" stop-color="#FFDA42"/>
<stop offset="1" stop-color="#FFBD37"/>
</linearGradient>
<linearGradient id="paint46_linear_7037_20594" x1="163.745" y1="117.296" x2="185.691" y2="92.2917" gradientUnits="userSpaceOnUse">
<stop offset="0.1642" stop-color="#FFDE43"/>
<stop offset="0.2484" stop-color="#FFDA42"/>
<stop offset="1" stop-color="#FFBD37"/>
</linearGradient>
<linearGradient id="paint47_linear_7037_20594" x1="163.745" y1="117.296" x2="185.691" y2="92.2917" gradientUnits="userSpaceOnUse">
<stop offset="0.0180995" stop-color="#FFFFA0"/>
<stop offset="0.9762" stop-color="#FFEB6A"/>
</linearGradient>
<linearGradient id="paint48_linear_7037_20594" x1="172.257" y1="124.45" x2="192.633" y2="101.235" gradientUnits="userSpaceOnUse">
<stop offset="0.1642" stop-color="#FFDE43"/>
<stop offset="0.2484" stop-color="#FFDA42"/>
<stop offset="1" stop-color="#FFBD37"/>
</linearGradient>
<linearGradient id="paint49_linear_7037_20594" x1="73.6178" y1="149.093" x2="119.371" y2="164.238" gradientUnits="userSpaceOnUse">
<stop offset="0.199" stop-color="#FFDE43"/>
<stop offset="0.3362" stop-color="#FFD242"/>
<stop offset="0.5872" stop-color="#FFB13E"/>
<stop offset="0.9215" stop-color="#FF7B38"/>
<stop offset="1" stop-color="#FF6E37"/>
</linearGradient>
<linearGradient id="paint50_linear_7037_20594" x1="88.578" y1="126.896" x2="102.204" y2="158.59" gradientUnits="userSpaceOnUse">
<stop offset="0.199" stop-color="#FFDE43"/>
<stop offset="0.5646" stop-color="#FFD23E"/>
<stop offset="1" stop-color="#FFBD37"/>
</linearGradient>
<linearGradient id="paint51_linear_7037_20594" x1="91.18" y1="129.863" x2="103.568" y2="158.678" gradientUnits="userSpaceOnUse">
<stop offset="0.0180995" stop-color="#FFFFA0"/>
<stop offset="0.9762" stop-color="#FFEB6A"/>
</linearGradient>
<linearGradient id="paint52_linear_7037_20594" x1="94.9629" y1="160.541" x2="97.2834" y2="127.031" gradientUnits="userSpaceOnUse">
<stop stop-color="#F5942A"/>
<stop offset="1" stop-color="#F5D85D"/>
</linearGradient>
<linearGradient id="paint53_linear_7037_20594" x1="97.406" y1="160.695" x2="99.7303" y2="127.13" gradientUnits="userSpaceOnUse">
<stop stop-color="#E08C3C"/>
<stop offset="1" stop-color="#FFD06F"/>
</linearGradient>
<linearGradient id="paint54_linear_7037_20594" x1="94.3192" y1="153.356" x2="95.6608" y2="133.983" gradientUnits="userSpaceOnUse">
<stop offset="0.1642" stop-color="#FFDE43"/>
<stop offset="0.2484" stop-color="#FFDA42"/>
<stop offset="1" stop-color="#FFBD37"/>
</linearGradient>
<linearGradient id="paint55_linear_7037_20594" x1="94.3192" y1="153.356" x2="95.6608" y2="133.983" gradientUnits="userSpaceOnUse">
<stop offset="0.1642" stop-color="#FFDE43"/>
<stop offset="0.2484" stop-color="#FFDA42"/>
<stop offset="1" stop-color="#FFBD37"/>
</linearGradient>
<linearGradient id="paint56_linear_7037_20594" x1="94.3192" y1="153.356" x2="95.6608" y2="133.983" gradientUnits="userSpaceOnUse">
<stop offset="0.0180995" stop-color="#FFFFA0"/>
<stop offset="0.9762" stop-color="#FFEB6A"/>
</linearGradient>
<linearGradient id="paint57_linear_7037_20594" x1="100.877" y1="153.671" x2="102.122" y2="135.688" gradientUnits="userSpaceOnUse">
<stop offset="0.1642" stop-color="#FFDE43"/>
<stop offset="0.2484" stop-color="#FFDA42"/>
<stop offset="1" stop-color="#FFBD37"/>
</linearGradient>
<radialGradient id="paint58_radial_7037_20594" cx="0" cy="0" r="1" gradientUnits="userSpaceOnUse" gradientTransform="translate(305.363 8.16853) rotate(-69.3668) scale(17.4018)">
<stop offset="0.00151496" stop-color="#CBFFFF"/>
<stop offset="0.00905204" stop-color="#CBFFFF" stop-opacity="0.987"/>
<stop offset="0.2044" stop-color="#CDFFFF" stop-opacity="0"/>
</radialGradient>
<radialGradient id="paint59_radial_7037_20594" cx="0" cy="0" r="1" gradientUnits="userSpaceOnUse" gradientTransform="translate(218.406 49.8051) rotate(-69.3668) scale(11.6012)">
<stop offset="0.00151496" stop-color="#CBFFFF"/>
<stop offset="0.00905204" stop-color="#CBFFFF" stop-opacity="0.987"/>
<stop offset="0.2044" stop-color="#CDFFFF" stop-opacity="0"/>
</radialGradient>
<radialGradient id="paint60_radial_7037_20594" cx="0" cy="0" r="1" gradientUnits="userSpaceOnUse" gradientTransform="translate(356.9 52.3666) rotate(-69.3668) scale(5.8006)">
<stop offset="0.00151496" stop-color="#CBFFFF"/>
<stop offset="0.00905204" stop-color="#CBFFFF" stop-opacity="0.987"/>
<stop offset="0.5801" stop-color="#CDFFFF" stop-opacity="0"/>
</radialGradient>
<radialGradient id="paint61_radial_7037_20594" cx="0" cy="0" r="1" gradientUnits="userSpaceOnUse" gradientTransform="translate(107.727 63.9104) rotate(-69.3668) scale(13.1778)">
<stop offset="0.00151496" stop-color="#CBFFFF"/>
<stop offset="0.00905204" stop-color="#CBFFFF" stop-opacity="0.987"/>
<stop offset="0.2044" stop-color="#CDFFFF" stop-opacity="0"/>
</radialGradient>
<radialGradient id="paint62_radial_7037_20594" cx="0" cy="0" r="1" gradientUnits="userSpaceOnUse" gradientTransform="translate(138.992 38.4956) rotate(-69.3668) scale(17.4018)">
<stop offset="0.00151496" stop-color="#CBFFFF"/>
<stop offset="0.00905204" stop-color="#CBFFFF" stop-opacity="0.987"/>
<stop offset="0.2044" stop-color="#CDFFFF" stop-opacity="0"/>
</radialGradient>
<radialGradient id="paint63_radial_7037_20594" cx="0" cy="0" r="1" gradientUnits="userSpaceOnUse" gradientTransform="translate(163.371 -15.5458) rotate(-69.3668) scale(20.3021 20.3021)">
<stop offset="0.1202" stop-color="white"/>
<stop offset="0.1655" stop-color="#D400EC"/>
<stop offset="0.5081" stop-color="#CC00E2" stop-opacity="0.5322"/>
<stop offset="0.8978" stop-color="#C800DC" stop-opacity="0"/>
</radialGradient>
<radialGradient id="paint64_radial_7037_20594" cx="0" cy="0" r="1" gradientUnits="userSpaceOnUse" gradientTransform="translate(256.834 0.43384) rotate(-69.3668) scale(20.3021)">
<stop offset="0.1202" stop-color="white"/>
<stop offset="0.1655" stop-color="#1E10EC"/>
<stop offset="0.5081" stop-color="#1E0FE2" stop-opacity="0.5322"/>
<stop offset="0.8978" stop-color="#1E0FDC" stop-opacity="0"/>
</radialGradient>
<radialGradient id="paint65_radial_7037_20594" cx="0" cy="0" r="1" gradientUnits="userSpaceOnUse" gradientTransform="translate(334.117 55.4223) rotate(-69.3668) scale(14.4449)">
<stop offset="0.1202" stop-color="white"/>
<stop offset="0.1655" stop-color="#1E10EC"/>
<stop offset="0.5081" stop-color="#1E0FE2" stop-opacity="0.5322"/>
<stop offset="0.8978" stop-color="#1E0FDC" stop-opacity="0"/>
</radialGradient>
<radialGradient id="paint66_radial_7037_20594" cx="0" cy="0" r="1" gradientUnits="userSpaceOnUse" gradientTransform="translate(106.56 111.939) rotate(-69.3668) scale(11.9881 11.9881)">
<stop offset="0.1202" stop-color="white"/>
<stop offset="0.1655" stop-color="#1E10EC"/>
<stop offset="0.5081" stop-color="#1E0FE2" stop-opacity="0.5322"/>
<stop offset="0.8978" stop-color="#1E0FDC" stop-opacity="0"/>
</radialGradient>
<radialGradient id="paint67_radial_7037_20594" cx="0" cy="0" r="1" gradientUnits="userSpaceOnUse" gradientTransform="translate(62.1009 122.004) rotate(-69.3668) scale(11.9881 11.9881)">
<stop offset="0.1202" stop-color="white"/>
<stop offset="0.1655" stop-color="#10C6EC"/>
<stop offset="0.5586" stop-color="#05B8E1" stop-opacity="0.4632"/>
<stop offset="0.8978" stop-color="#00B2DC" stop-opacity="0"/>
</radialGradient>
<radialGradient id="paint68_radial_7037_20594" cx="0" cy="0" r="1" gradientUnits="userSpaceOnUse" gradientTransform="translate(40.8594 183.33) rotate(-69.3668) scale(11.9881)">
<stop offset="0.1202" stop-color="white"/>
<stop offset="0.1655" stop-color="#10C6EC"/>
<stop offset="0.5586" stop-color="#05B8E1" stop-opacity="0.4632"/>
<stop offset="0.8978" stop-color="#00B2DC" stop-opacity="0"/>
</radialGradient>
</defs>
</svg>
