<svg width="1440" height="718" viewBox="0 0 1440 718" fill="none" xmlns="http://www.w3.org/2000/svg">
<g opacity="0.6">
<mask id="mask0_5830_40806" style="mask-type:alpha" maskUnits="userSpaceOnUse" x="-52" y="0" width="1544" height="719">
<rect x="-52" width="1544" height="719" fill="url(#paint0_linear_5830_40806)"/>
</mask>
<g mask="url(#mask0_5830_40806)">
<path d="M69.3691 680.808L1371.61 680.808" stroke="#3C356D"/>
<path d="M155.104 653.221L1286.53 653.221" stroke="#3C356D"/>
<path d="M222.613 634.265L1219.02 634.265" stroke="#3C356D"/>
<path d="M296.938 613.411L1144.69 613.411" stroke="#3C356D"/>
<path d="M334.586 602.984L1107.04 602.984" stroke="#3C356D"/>
<path d="M365.65 590.379H1073.8" stroke="#3C356D"/>
<path d="M365.65 529.579H1073.8" stroke="#3C356D"/>
<path d="M365.65 468.778H1073.8" stroke="#3C356D"/>
<path d="M365.65 407.978H1073.8" stroke="#3C356D"/>
<path d="M365.65 347.177H1073.8" stroke="#3C356D"/>
<path d="M365.65 225.575H1073.8" stroke="#3C356D"/>
<path d="M365.65 103.974H1073.8" stroke="#3C356D"/>
<path d="M365.65 286.376H1073.8" stroke="#3C356D"/>
<path d="M365.65 164.774H1073.8" stroke="#3C356D"/>
<path d="M365.65 43.1729H1073.8" stroke="#3C356D"/>
<path d="M60.9824 1638.01V702.35C60.9824 688.9 69.9337 677.094 82.884 673.464L344.493 600.12C357.444 596.49 366.395 584.684 366.395 571.234V29" stroke="#3C356D"/>
<path d="M1380 1638.47V702.35C1380 688.9 1371.05 677.094 1358.1 673.464L1096.49 600.12C1083.54 596.49 1074.59 584.684 1074.59 571.234V29" stroke="#3C356D"/>
<path d="M170.684 1638.47V701.186C170.684 688.293 178.922 676.841 191.147 672.743L405.117 600.999C417.341 596.9 425.58 585.449 425.58 572.555V29" stroke="#3C356D"/>
<path d="M1270.3 1638.01V701.186C1270.3 688.293 1262.06 676.841 1249.84 672.742L1035.87 600.999C1023.64 596.9 1015.4 585.449 1015.4 572.555V29" stroke="#3C356D"/>
<path d="M280.709 1638.93L280.709 699.503C280.709 687.443 287.931 676.555 299.042 671.865L465.953 601.403C477.064 596.713 484.286 585.825 484.286 573.765V29" stroke="#3C356D"/>
<path d="M1160.27 1638.47V699.503C1160.27 687.443 1153.05 676.555 1141.94 671.865L975.027 601.403C963.917 596.713 956.695 585.825 956.695 573.765V29" stroke="#3C356D"/>
<path d="M388.887 1638.47V697.327C388.887 686.446 394.779 676.418 404.284 671.121L527.596 602.405C537.101 597.109 542.993 587.081 542.993 576.199V29" stroke="#3C356D"/>
<path d="M1052.09 1638.47L1052.09 697.327C1052.09 686.446 1046.2 676.418 1036.7 671.121L913.384 602.405C903.879 597.109 897.988 587.081 897.988 576.199V29" stroke="#3C356D"/>
<path d="M498.045 1637.09V693.617C498.045 684.686 502.024 676.22 508.899 670.52L590.845 602.591C597.721 596.892 601.7 588.425 601.7 579.495V29" stroke="#3C356D"/>
<path d="M942.936 1638.47V693.617C942.936 684.686 938.957 676.22 932.081 670.52L850.135 602.591C843.26 596.892 839.281 588.426 839.281 579.495V29" stroke="#3C356D"/>
<path d="M608.121 1638.93V687.894C608.121 682.299 609.685 676.817 612.637 672.065L656.809 600.948C659.76 596.196 661.324 590.713 661.324 585.119V29" stroke="#3C356D"/>
<path d="M832.859 1638.47V687.893C832.859 682.299 831.295 676.817 828.344 672.065L784.172 600.948C781.22 596.196 779.656 590.713 779.656 585.119V29" stroke="#3C356D"/>
<path d="M720.031 29L720.031 718.103L720.031 1638.93" stroke="#3C356D"/>
</g>
<path d="M1124.04 371.243C1124.24 370.825 1124.9 370.825 1125.1 371.243C1126.51 374.184 1128.89 376.558 1131.83 377.972C1132.24 378.173 1132.24 378.826 1131.83 379.028C1128.89 380.442 1126.51 382.816 1125.1 385.756C1124.9 386.175 1124.24 386.175 1124.04 385.756C1122.63 382.816 1120.25 380.442 1117.31 379.028C1116.9 378.826 1116.9 378.173 1117.31 377.972C1120.25 376.558 1122.63 374.184 1124.04 371.243Z" fill="#F5A68C"/>
<path d="M1194.04 473.314C1194.24 472.895 1194.9 472.895 1195.1 473.314C1196.51 476.254 1198.89 478.628 1201.83 480.042C1202.24 480.244 1202.24 480.897 1201.83 481.098C1198.89 482.512 1196.51 484.886 1195.1 487.827C1194.9 488.245 1194.24 488.245 1194.04 487.827C1192.63 484.886 1190.25 482.512 1187.31 481.098C1186.9 480.897 1186.9 480.244 1187.31 480.042C1190.25 478.628 1192.63 476.254 1194.04 473.314Z" fill="#462ADF"/>
<path d="M882.042 595.314C882.244 594.895 882.897 594.895 883.098 595.314C884.512 598.254 886.886 600.628 889.827 602.042C890.245 602.244 890.245 602.897 889.827 603.098C886.886 604.512 884.512 606.886 883.098 609.827C882.897 610.245 882.244 610.245 882.042 609.827C880.628 606.886 878.254 604.512 875.314 603.098C874.895 602.897 874.895 602.244 875.314 602.042C878.254 600.628 880.628 598.254 882.042 595.314Z" fill="#29D0B2"/>
<path d="M436.042 441.314C436.244 440.895 436.897 440.895 437.098 441.314C438.512 444.254 440.886 446.628 443.827 448.042C444.245 448.244 444.245 448.897 443.827 449.098C440.886 450.512 438.512 452.886 437.098 455.827C436.897 456.245 436.244 456.245 436.042 455.827C434.628 452.886 432.254 450.512 429.314 449.098C428.895 448.897 428.895 448.244 429.314 448.042C432.254 446.628 434.628 444.254 436.042 441.314Z" fill="#64C5EE"/>
<path d="M354.042 325.314C354.244 324.895 354.897 324.895 355.098 325.314C356.512 328.254 358.886 330.628 361.827 332.042C362.245 332.244 362.245 332.897 361.827 333.098C358.886 334.512 356.512 336.886 355.098 339.827C354.897 340.245 354.244 340.245 354.042 339.827C352.628 336.886 350.254 334.512 347.314 333.098C346.895 332.897 346.895 332.244 347.314 332.042C350.254 330.628 352.628 328.254 354.042 325.314Z" fill="#CC54C2"/>
<path d="M1179.04 94.3137C1179.24 93.8954 1179.9 93.8954 1180.1 94.3137C1181.51 97.2543 1183.89 99.6282 1186.83 101.042C1187.24 101.244 1187.24 101.897 1186.83 102.098C1183.89 103.512 1181.51 105.886 1180.1 108.827C1179.9 109.245 1179.24 109.245 1179.04 108.827C1177.63 105.886 1175.25 103.512 1172.31 102.098C1171.9 101.897 1171.9 101.244 1172.31 101.042C1175.25 99.6282 1177.63 97.2543 1179.04 94.3137Z" fill="#E196DB"/>
</g>
<defs>
<linearGradient id="paint0_linear_5830_40806" x1="720" y1="0" x2="720" y2="719" gradientUnits="userSpaceOnUse">
<stop stop-color="#D9D9D9" stop-opacity="0"/>
<stop offset="0.215" stop-color="#D9D9D9"/>
<stop offset="1" stop-color="#D9D9D9"/>
</linearGradient>
</defs>
</svg>
