<svg width="292" height="232" viewBox="0 0 292 232" fill="none" xmlns="http://www.w3.org/2000/svg">
<path d="M0.247768 86.7449L0.000488281 86.4333L39.8128 56.664L39.8527 56.6484L101.952 39.4304L102.064 39.8122L39.9962 57.0146L0.247768 86.7449Z" fill="#4747B5"/>
<path d="M133.197 196.278L78.8672 179.481L78.8512 179.356L69.3588 89.0122L39.7568 56.968L40.052 56.7109L69.7497 88.8486L69.7576 88.9109L79.2341 179.185L133.317 195.904L133.197 196.278Z" fill="#4747B5"/>
<path d="M251.935 37.1771L234.022 70.4312L234.375 70.6125L252.288 37.3584L251.935 37.1771Z" fill="#4747B5"/>
<path d="M153.642 224.988L133.046 196.138L133.062 196.052L147.436 128.98L37.0928 129.767L69.4467 88.7474L141.653 81.7355L101.729 39.6254L131.108 10.4717L131.395 10.7444L102.279 39.6332L142.147 81.681L234.256 70.3374L234.312 70.3685L286.153 96.6708L286.089 96.8344L266.099 146.034L289.144 174.128L288.833 174.37L265.836 146.338L217.114 184.171L153.634 224.98L153.642 224.988ZM133.477 196.052L153.746 224.45L216.89 183.859L265.365 146.213L202.556 140.386L147.843 129.011L133.477 196.044V196.052ZM147.867 128.629L202.62 140.012L265.748 145.863L285.658 96.8578L234.192 70.7503L142.299 82.0628L147.867 128.629ZM69.6621 89.1214L37.9144 129.369L147.46 128.59L141.9 82.1017L69.6621 89.1214Z" fill="#4747B5"/>
<path d="M101.842 39.5181L69.4004 88.8357L69.7359 89.0463L102.177 39.7287L101.842 39.5181Z" fill="#4747B5"/>
<path d="M69.6558 88.7609L69.4712 89.1062L147.599 128.965L147.783 128.619L69.6558 88.7609Z" fill="#4747B5"/>
<path d="M202.762 140.124L202.382 140.243L216.807 184.071L217.187 183.952L202.762 140.124Z" fill="#4747B5"/>
<path d="M10.6298 42.9812L10.458 43.3328L39.8234 57.0191L39.9951 56.6675L10.6298 42.9812Z" fill="#4747B5"/>
<path d="M133.285 196.286L133.229 195.896L216.515 183.89L147.555 128.933L147.811 128.629L217.472 184.147L133.285 196.286Z" fill="#4747B5"/>
<path d="M265.692 146.136L234.216 71.0385L202.755 140.269L202.388 140.113L234.232 70.0413L266.059 145.987L265.692 146.136Z" fill="#4747B5"/>
<path d="M142.176 81.7211L141.989 82.0652L265.789 146.249L265.976 145.905L142.176 81.7211Z" fill="#4747B5"/>
<path d="M79.019 181.958L37.3481 129.689L37.6592 129.447L79.0829 181.405L148.13 128.746L234.487 70.1348L131.156 10.0042L131.355 9.66919L235.221 70.1114L234.966 70.2828L148.369 129.066L79.019 181.958Z" fill="#4747B5"/>
<path d="M102.043 39.4329L101.95 39.8118L234.164 70.7188L234.257 70.3399L102.043 39.4329Z" fill="#4747B5"/>
<path d="M131.453 10.5808L131.059 10.6379L141.874 81.9179L142.269 81.8608L131.453 10.5808Z" fill="#4747B5"/>
<path d="M37.6154 129.393L37.3843 129.711L133.143 196.227L133.374 195.909L37.6154 129.393Z" fill="#4747B5"/>
<path d="M79.0044 181.47L37.3433 190.505L37.4297 190.886L79.0909 181.85L79.0044 181.47Z" fill="#4747B5"/>
<path d="M147.7 139.435L156.977 134.208V123.721L147.684 128.785L147.7 139.435Z" fill="#00A000"/>
<path d="M138.39 123.721L147.683 128.785L156.976 123.721L147.683 118.486L138.39 123.721Z" fill="#00DF44"/>
<path d="M147.699 139.435L138.39 134.208V123.721L147.683 128.785L147.699 139.435Z" fill="#55F25D"/>
<path d="M139.388 124.266L140.098 124.656V122.755L139.388 123.16V124.266Z" fill="#36EB83"/>
<path d="M140.488 124.866L141.461 125.396V121.991L140.488 122.537V124.866Z" fill="#36EB83"/>
<path d="M131.267 21.2544L140.552 16.0267V5.54785L131.259 10.6042L131.267 21.2544Z" fill="#00A000"/>
<path d="M121.958 5.54776L131.259 10.6041L140.552 5.54776L131.259 0.304443L121.958 5.54776Z" fill="#00DF44"/>
<path d="M131.267 21.2544L121.958 16.0267V5.54785L131.259 10.6042L131.267 21.2544Z" fill="#55F25D"/>
<path d="M122.963 6.09323L123.673 6.48278V4.58179L122.963 4.97912V6.09323Z" fill="#36EB83"/>
<path d="M124.064 6.69296L125.038 7.22274V3.8103L124.064 4.36346V6.69296Z" fill="#36EB83"/>
<path d="M37.5155 140.214L46.8005 134.994V124.508L37.4995 129.564L37.5155 140.214Z" fill="#00A000"/>
<path d="M28.2065 124.508L37.4995 129.564L46.8005 124.508L37.4995 119.264L28.2065 124.508Z" fill="#00DF44"/>
<path d="M37.5155 140.214L28.2065 134.994V124.508L37.4995 129.564L37.5155 140.214Z" fill="#55F25D"/>
<path d="M29.2041 125.053L29.922 125.443V123.542L29.2041 123.947V125.053Z" fill="#36EB83"/>
<path d="M30.3125 125.653L31.2857 126.183V122.77L30.3125 123.323V125.653Z" fill="#36EB83"/>
<path d="M133.269 206.741L142.554 201.514V191.035L133.261 196.091L133.269 206.741Z" fill="#00A000"/>
<path d="M123.96 191.035L133.261 196.091L142.554 191.035L133.261 185.791L123.96 191.035Z" fill="#00DF44"/>
<path d="M133.269 206.741L123.96 201.514V191.035L133.261 196.091L133.269 206.741Z" fill="#55F25D"/>
<path d="M124.965 191.572L125.675 191.962V190.069L124.965 190.466V191.572Z" fill="#36EB83"/>
<path d="M126.066 192.172L127.04 192.702V189.297L126.066 189.843V192.172Z" fill="#36EB83"/>
<path d="M153.698 231.696L159.784 228.276V221.404L153.69 224.715L153.698 231.696Z" fill="#00A000"/>
<path d="M147.604 221.404L153.69 224.715L159.785 221.404L153.69 217.968L147.604 221.404Z" fill="#00DF44"/>
<path d="M153.698 231.696L147.604 228.276V221.404L153.69 224.715L153.698 231.696Z" fill="#55F25D"/>
<path d="M148.258 221.762L148.728 222.012V220.773L148.258 221.03V221.762Z" fill="#36EB83"/>
<path d="M148.983 222.152L149.622 222.502V220.266L148.983 220.625V222.152Z" fill="#36EB83"/>
<path d="M79.1784 186.306L85.2647 182.877V176.006L79.1704 179.325L79.1784 186.306Z" fill="#00A000"/>
<path d="M73.0762 176.006L79.1705 179.325L85.2647 176.006L79.1705 172.578L73.0762 176.006Z" fill="#00DF44"/>
<path d="M79.1784 186.306L73.0762 182.877V176.006L79.1705 179.325L79.1784 186.306Z" fill="#55F25D"/>
<path d="M73.7383 176.364L74.2009 176.621V175.375L73.7383 175.64V176.364Z" fill="#36EB83"/>
<path d="M74.4561 176.762L75.0942 177.105V174.876L74.4561 175.235V176.762Z" fill="#36EB83"/>
<path d="M69.5671 95.9071L75.6454 92.4869V85.6152L69.5591 88.9264L69.5671 95.9071Z" fill="#00A000"/>
<path d="M63.4644 85.6155L69.5586 88.9267L75.645 85.6155L69.5586 82.1797L63.4644 85.6155Z" fill="#00DF44"/>
<path d="M69.5666 95.9071L63.4644 92.4869V85.6152L69.5586 88.9264L69.5666 95.9071Z" fill="#55F25D"/>
<path d="M64.1182 85.9736L64.5888 86.2229V84.9841L64.1182 85.249V85.9736Z" fill="#36EB83"/>
<path d="M64.8438 86.3632L65.4819 86.7138V84.4778L64.8438 84.8362V86.3632Z" fill="#36EB83"/>
<path d="M102.017 46.5982L108.103 43.178V36.3064L102.009 39.6253L102.017 46.5982Z" fill="#00A000"/>
<path d="M95.9141 36.3064L102.008 39.6254L108.103 36.3064L102.008 32.8706L95.9141 36.3064Z" fill="#00DF44"/>
<path d="M102.016 46.5982L95.9141 43.178V36.3064L102.008 39.6253L102.016 46.5982Z" fill="#55F25D"/>
<path d="M96.5762 36.665L97.0388 36.9221V35.6755L96.5762 35.9404V36.665Z" fill="#36EB83"/>
<path d="M97.2944 37.0621L97.9326 37.405V35.1689L97.2944 35.5351V37.0621Z" fill="#36EB83"/>
<path d="M142.083 88.8641L148.162 85.4439V78.5723L142.075 81.8834L142.083 88.8641Z" fill="#00A000"/>
<path d="M135.981 78.5723L142.076 81.8834L148.162 78.5723L142.076 75.1365L135.981 78.5723Z" fill="#00DF44"/>
<path d="M142.084 88.8641L135.981 85.4439V78.5723L142.076 81.8834L142.084 88.8641Z" fill="#55F25D"/>
<path d="M136.635 78.9306L137.106 79.1799V77.9412L136.635 78.1983V78.9306Z" fill="#36EB83"/>
<path d="M137.362 79.3202L138 79.6708V77.4348L137.362 77.7932V79.3202Z" fill="#36EB83"/>
<path d="M234.232 77.5128L240.318 74.0926V67.2209L234.224 70.5399L234.232 77.5128Z" fill="#00A000"/>
<path d="M228.129 67.2207L234.224 70.5397L240.318 67.2207L234.224 63.7849L228.129 67.2207Z" fill="#00DF44"/>
<path d="M234.232 77.5128L228.129 74.0926V67.2209L234.224 70.5399L234.232 77.5128Z" fill="#55F25D"/>
<path d="M228.792 67.5793L229.254 67.8364V66.5898L228.792 66.8547V67.5793Z" fill="#36EB83"/>
<path d="M229.51 67.9687L230.148 68.3193V66.0833L229.51 66.4416V67.9687Z" fill="#36EB83"/>
<path d="M202.58 147.172L208.666 143.744V136.88L202.572 140.191L202.58 147.172Z" fill="#00A000"/>
<path d="M196.478 136.88L202.572 140.191L208.666 136.88L202.572 133.444L196.478 136.88Z" fill="#00DF44"/>
<path d="M202.58 147.172L196.478 143.744V136.88L202.572 140.191L202.58 147.172Z" fill="#55F25D"/>
<path d="M197.14 137.23L197.603 137.488V136.241L197.14 136.506V137.23Z" fill="#36EB83"/>
<path d="M197.858 137.628L198.496 137.978V135.742L197.858 136.101V137.628Z" fill="#36EB83"/>
<path d="M217.002 190.996L223.088 187.576V180.704L216.994 184.023L217.002 190.996Z" fill="#00A000"/>
<path d="M210.907 180.704L216.994 184.023L223.088 180.704L216.994 177.268L210.907 180.704Z" fill="#00DF44"/>
<path d="M217.002 190.996L210.907 187.576V180.704L216.994 184.023L217.002 190.996Z" fill="#55F25D"/>
<path d="M211.562 181.062L212.024 181.32V180.073L211.562 180.338V181.062Z" fill="#36EB83"/>
<path d="M212.28 181.452L212.918 181.802V179.566L212.28 179.925V181.452Z" fill="#36EB83"/>
<path d="M265.883 153.038L271.97 149.618V142.746L265.875 146.057L265.883 153.038Z" fill="#00A000"/>
<path d="M259.781 142.746L265.876 146.058L271.97 142.746L265.876 139.311L259.781 142.746Z" fill="#00DF44"/>
<path d="M265.884 153.038L259.781 149.618V142.746L265.876 146.057L265.884 153.038Z" fill="#55F25D"/>
<path d="M260.443 143.105L260.906 143.362V142.115L260.443 142.38V143.105Z" fill="#36EB83"/>
<path d="M261.162 143.494L261.8 143.845V141.609L261.162 141.967V143.494Z" fill="#36EB83"/>
<path d="M285.913 103.737L292 100.309V93.4373L285.905 96.7562L285.913 103.737Z" fill="#00A000"/>
<path d="M279.819 93.4375L285.906 96.7565L292 93.4375L285.906 90.0095L279.819 93.4375Z" fill="#00DF44"/>
<path d="M285.914 103.737L279.819 100.309V93.4373L285.906 96.7562L285.914 103.737Z" fill="#55F25D"/>
<path d="M280.474 93.7959L280.944 94.053V92.8064L280.474 93.0713V93.7959Z" fill="#36EB83"/>
<path d="M281.2 94.193L281.838 94.5358V92.3076L281.2 92.666V94.193Z" fill="#36EB83"/>
<path d="M39.9167 63.8163L45.995 60.396V53.5244L39.9087 56.8434L39.9167 63.8163Z" fill="#00A000"/>
<path d="M33.8145 53.5244L39.9087 56.8434L45.9951 53.5244L39.9087 50.0886L33.8145 53.5244Z" fill="#00DF44"/>
<path d="M39.9167 63.8163L33.8145 60.396V53.5244L39.9087 56.8434L39.9167 63.8163Z" fill="#55F25D"/>
<path d="M34.4683 53.8828L34.9389 54.1399V52.8933L34.4683 53.1582V53.8828Z" fill="#36EB83"/>
<path d="M35.1943 54.2802L35.8325 54.623V52.387L35.1943 52.7531V54.2802Z" fill="#36EB83"/>
</svg>
