<?xml version="1.0" encoding="utf-8"?>
<!-- Generator: Adobe Illustrator 27.6.1, SVG Export Plug-In . SVG Version: 6.00 Build 0)  -->
<svg version="1.1" id="Layer_1" xmlns="http://www.w3.org/2000/svg" xmlns:xlink="http://www.w3.org/1999/xlink" x="0px" y="0px"
	 viewBox="0 0 308 230" style="enable-background:new 0 0 308 230;" xml:space="preserve">
<style type="text/css">
	.st0{clip-path:url(#SVGID_00000055705205541553890980000007164385695500437684_);}
	.st1{fill:#FF5F9E;}
	.st2{fill:#FF95B7;}
	.st3{fill:#FF5A9B;}
	.st4{fill:#663540;}
	.st5{fill:#673340;}
	.st6{fill:#FFB0CE;}
	.st7{fill:#FF5A9E;}
	.st8{fill:#6A354A;}
	.st9{clip-path:url(#SVGID_00000025422674129870459690000004979085600144989115_);}
	.st10{fill:#FFAE0E;}
	.st11{fill:#FFC94A;}
</style>
<g>
	<defs>
		<rect id="SVGID_1_" width="308" height="230"/>
	</defs>
	<clipPath id="SVGID_00000008852633475600294680000001757694680844897692_">
		<use xlink:href="#SVGID_1_"  style="overflow:visible;"/>
	</clipPath>
	<g style="clip-path:url(#SVGID_00000008852633475600294680000001757694680844897692_);">
		<path class="st1" d="M240.8,46.3c-10.9,0-19.7,8.8-19.7,19.7c0,10.9,8.8,19.7,19.7,19.7c10.9,0,19.7-8.8,19.7-19.7
			C260.5,55.1,251.7,46.3,240.8,46.3z M240.8,75.2c-5.1,0-9.3-4.1-9.3-9.3s4.1-9.3,9.3-9.3c5.1,0,9.3,4.1,9.3,9.3
			S245.9,75.2,240.8,75.2z"/>
		<path class="st1" d="M262.3,47.8c1.7,1.7,2.8,4,2.8,6.6c0,5.1-4.1,9.3-9.3,9.3v10.4c10.9,0,19.7-8.8,19.7-19.7
			c0-5.3-3.8-11.9-5.5-13.6s-5.5-3.7-8.4-0.8C258.8,42.8,261.1,46.5,262.3,47.8z"/>
		
			<ellipse transform="matrix(0.9169 -0.3992 0.3992 0.9169 -35.9201 69.6437)" class="st2" cx="149.3" cy="121.1" rx="106.7" ry="86.9"/>
		<path class="st2" d="M58.5,89.5c0,0-16.2-28.2-6.4-35.1s31.8,22,31.8,22s-15.3-1.5-18.3,2.7C62.6,83.3,58.5,89.5,58.5,89.5z"/>
		<g>
			<path class="st3" d="M52.2,54.4c9.8-6.9,31.8,22,31.8,22l8.7-5.2c0,0-22-28.9-31.8-22L52.2,54.4z"/>
		</g>
		<path class="st3" d="M123.2,90.3c6.3-4.3,16.9-7.5,29,4.6c20.3,20.3,0,45.1,0,45.1l11-5.8c0,0,20.3-24.9,0-45.1
			c-8.8-8.8-16.8-9.5-23-7.6L123.2,90.3z"/>
		<path class="st2" d="M117,96.1c0,0,12.2,10.4,19.7,19.1c7.5,8.7,15.6,24.9,15.6,24.9s20.3-24.9,0-45.1
			C132.6,75.2,117,96.1,117,96.1z"/>
		<path class="st4" d="M107.7,68.9c-6.2,5.3,3.5,12.7,11.6,6.4c8.1-6.4,15.9-10.7,27.8-16.8c9.2-4.7,18.8-7.2,22.6-8.7
			c5.8-2.3,2.3-9.8-11-6.9c-13.3,2.9-22,7.1-31,11.9C114.1,61.9,111.8,65.4,107.7,68.9z"/>
		
			<ellipse transform="matrix(0.1073 -0.9942 0.9942 0.1073 -57.9814 168.0617)" class="st5" cx="64.6" cy="116.3" rx="7.5" ry="4.3"/>
		
			<ellipse transform="matrix(0.1073 -0.9942 0.9942 0.1073 -46.2007 231.0681)" class="st5" cx="105.6" cy="141.3" rx="8.3" ry="8"/>
		<g>
			
				<ellipse transform="matrix(0.7575 -0.6528 0.6528 0.7575 -94.8512 79.8166)" class="st6" cx="60" cy="167.6" rx="19.1" ry="35.9"/>
			<g>
				<path class="st7" d="M83.5,194.8c8-6.9,4-24.6-9-39.7s-29.9-21.6-37.9-14.7l9.5-7.6c9.3-5.8,26.5,0.3,39.4,15.4s17,32.8,9,39.7
					L83.5,194.8z"/>
			</g>
			
				<ellipse transform="matrix(0.9902 -0.1399 0.1399 0.9902 -21.8449 8.011)" class="st8" cx="46.1" cy="159.4" rx="4.3" ry="10.1"/>
			
				<ellipse transform="matrix(0.9902 -0.1399 0.1399 0.9902 -23.3923 11.4546)" class="st8" cx="69.8" cy="172.2" rx="4.3" ry="10.1"/>
		</g>
		<path class="st4" d="M76.7,76.1c-6-5.6-15-16.2-20.2-12.8c-5.8,3.9,4.6,22.3,4.6,22.3l0,0c1.4-2,3.1-4.5,4.5-6.6
			C67.3,76.8,72.3,76.2,76.7,76.1z"/>
		<path class="st4" d="M122.7,101.2L122.7,101.2c4.2,3.8,9.7,9.1,13.9,13.9c4,4.6,8.2,11.4,11.2,16.7c4.3-10.5,4.7-22.2-2.2-29.7
			C138.7,94.6,131.1,94.6,122.7,101.2z"/>
		<g>
			<defs>
				<path id="SVGID_00000094595353574690374310000008369095611122062476_" d="M107.7,68.9c-6.2,5.3,3.5,12.7,11.6,6.4
					c8.1-6.4,15.9-10.7,27.8-16.8c9.2-4.7,18.8-7.2,22.6-8.7c2.9-1.2,3.5-3.6,1.7-5.4V18.6h-44.8l-19.1,21.6L107.7,68.9z"/>
			</defs>
			<clipPath id="SVGID_00000145774665402821062010000012815793290197246393_">
				<use xlink:href="#SVGID_00000094595353574690374310000008369095611122062476_"  style="overflow:visible;"/>
			</clipPath>
			<g style="clip-path:url(#SVGID_00000145774665402821062010000012815793290197246393_);">
				<path class="st10" d="M158.7,24.9c0,0-6.2-3.1-6.3-3.1c-3.5-1.7-7.9-2.1-12.7-0.7c-14.1,3.9-27.3,20.6-29.6,37.3
					c-1.5,11,2.2,19.2,8.9,22.5c0,0,6.2,3.1,6.3,3.1c3.5,1.7,7.9,2.1,12.7,0.7c14.1-3.9,27.3-20.6,29.6-37.3
					C169,36.4,165.4,28.2,158.7,24.9z"/>
				<ellipse transform="matrix(0.5284 -0.849 0.849 0.5284 20.7118 146.2768)" class="st11" cx="142" cy="54.5" rx="34" ry="21.9"/>
				<path class="st10" d="M142.5,69.3c-7.1,2.8-13-0.8-13-8s5.8-15.2,13-18c1.5-0.6,2.9-0.9,4.3-0.9c0.1-0.1,0.2-0.2,0.3-0.3
					c0,0,0,0,0,0c0-0.1-0.1-0.1-0.1-0.2l0,0l0,0c-0.3-0.6-0.2-1.6,0.2-2.6c0.4-0.8,0.9-1.5,1.6-1.9c0.2-0.1,0.5-0.3,0.7-0.4
					c1.3-0.5,2.8-0.5,4.3,0c1.8,0.6,2.8,1.4,3.1,2.5c0.2,0.7,0,1.6-0.5,2.5c-0.5,0.9-1.3,1.6-2.2,1.9c-0.2,0.1-0.4,0.1-0.6,0.2
					c-0.1,0.3-0.2,0.6-0.2,0.9c1.3,1.6,2,3.7,2,6.2C155.5,58.5,149.6,66.6,142.5,69.3z"/>
			</g>
		</g>
	</g>
</g>
</svg>
