<svg width="80" height="80" viewBox="0 0 80 80" fill="none" xmlns="http://www.w3.org/2000/svg">
<path opacity="0.4" d="M7.77777 66.6665H73.8889M7.77777 51.6665H73.8889M7.77777 36.6665H73.8889M7.77777 22.7776H73.8889M7.77777 8.88867H73.8889" stroke="#8A86FF" stroke-width="1.66667" stroke-linecap="round"/>
<path d="M8.33331 15L23.8858 42.8872C24.1914 43.4352 24.8898 43.6216 25.4279 43.2988L31.7576 39.501C32.3094 39.1699 33.0262 39.3754 33.3188 39.9485L45.4447 63.6949C45.7793 64.3503 46.6471 64.5052 47.1879 64.0061L67.7778 45M67.7778 45H57.7778M67.7778 45V49.4444V53.8889" stroke="url(#paint0_linear_1802_14794)" stroke-width="4.44444" stroke-linecap="round"/>
<circle cx="46.6667" cy="64.4443" r="7.77778" fill="#D248DC"/>
<path d="M46.7542 69.6766V59.5756H47.4013V69.6766H46.7542ZM48.3128 63.0084C48.2865 62.719 48.1694 62.4941 47.9616 62.3336C47.7565 62.1706 47.4632 62.089 47.0817 62.089C46.8292 62.089 46.6188 62.1219 46.4504 62.1877C46.2821 62.2534 46.1558 62.3442 46.0716 62.4599C45.9875 62.573 45.9441 62.7032 45.9414 62.8505C45.9362 62.9715 45.9598 63.0781 46.0124 63.1701C46.0677 63.2622 46.1466 63.3437 46.2492 63.4148C46.3544 63.4832 46.4807 63.5437 46.628 63.5963C46.7753 63.6489 46.941 63.6949 47.1251 63.7344L47.8196 63.8922C48.2194 63.979 48.5719 64.0947 48.877 64.2394C49.1848 64.3841 49.4426 64.5564 49.6504 64.7563C49.8608 64.9562 50.02 65.1864 50.1278 65.4468C50.2357 65.7072 50.2909 65.9992 50.2935 66.3228C50.2909 66.8331 50.162 67.271 49.9069 67.6367C49.6517 68.0023 49.2848 68.2825 48.806 68.4771C48.3299 68.6718 47.7551 68.7691 47.0817 68.7691C46.4057 68.7691 45.8165 68.6678 45.3141 68.4653C44.8116 68.2627 44.421 67.955 44.1422 67.542C43.8634 67.129 43.72 66.6068 43.7121 65.9755H45.5824C45.5981 66.2359 45.6679 66.453 45.7915 66.6266C45.9151 66.8002 46.0848 66.9317 46.3005 67.0211C46.5188 67.1106 46.7713 67.1553 47.0581 67.1553C47.3211 67.1553 47.5447 67.1198 47.7288 67.0488C47.9156 66.9777 48.059 66.8791 48.1589 66.7528C48.2589 66.6266 48.3102 66.4819 48.3128 66.3188C48.3102 66.1662 48.2628 66.036 48.1707 65.9282C48.0787 65.8177 47.9366 65.723 47.7446 65.6441C47.5552 65.5625 47.3132 65.4876 47.0186 65.4192L46.1742 65.2219C45.4745 65.0614 44.9234 64.8023 44.521 64.4446C44.1185 64.0842 43.9186 63.5976 43.9212 62.9847C43.9186 62.4849 44.0527 62.0469 44.3237 61.6708C44.5946 61.2946 44.9695 61.0013 45.4482 60.7909C45.927 60.5804 46.4728 60.4752 47.0857 60.4752C47.7117 60.4752 48.2549 60.5818 48.7153 60.7948C49.1782 61.0053 49.5373 61.3012 49.7924 61.6826C50.0476 62.064 50.1778 62.5059 50.1831 63.0084H48.3128Z" fill="#240E33"/>
<path opacity="0.89" d="M45.4188 47.9768L43.8348 38.0007L44.4739 37.8992L46.0579 47.8753L45.4188 47.9768ZM45.9124 41.1466C45.841 40.865 45.6901 40.6612 45.4597 40.5353C45.2315 40.4064 44.9291 40.3719 44.5524 40.4317C44.303 40.4713 44.1003 40.5368 43.9443 40.6281C43.7884 40.7194 43.6779 40.8289 43.6129 40.9564C43.5475 41.0813 43.5251 41.2167 43.5456 41.3626C43.5594 41.4829 43.5995 41.5844 43.6658 41.6671C43.7348 41.7494 43.8256 41.8175 43.938 41.8716C44.0527 41.9226 44.1869 41.9626 44.3406 41.9914C44.4943 42.0203 44.6652 42.0398 44.8533 42.0499L45.5639 42.0969C45.9724 42.1199 46.3386 42.1789 46.6627 42.274C46.9893 42.3686 47.2709 42.4983 47.5075 42.6632C47.7467 42.8276 47.94 43.03 48.0873 43.2703C48.2347 43.5105 48.335 43.7903 48.3884 44.1094C48.4658 44.6138 48.4072 45.0666 48.2125 45.4677C48.0178 45.8688 47.6994 46.203 47.2571 46.4704C46.8174 46.7373 46.265 46.9235 45.5999 47.0291C44.9322 47.1351 44.3344 47.1275 43.8065 47.0063C43.2785 46.885 42.8444 46.6423 42.5043 46.2781C42.1641 45.914 41.9407 45.4208 41.8339 44.7985L43.681 44.5052C43.7374 44.76 43.8403 44.9634 43.9896 45.1154C44.139 45.2675 44.3272 45.3708 44.5542 45.4253C44.7839 45.4794 45.0403 45.484 45.3235 45.439C45.5832 45.3977 45.7985 45.3276 45.9692 45.2286C46.1425 45.1292 46.2687 45.0093 46.3476 44.8689C46.4265 44.7285 46.4545 44.5776 46.4315 44.4161C46.405 44.2658 46.3378 44.1447 46.2299 44.0526C46.1217 43.9579 45.9666 43.8867 45.7645 43.8388C45.5647 43.788 45.3139 43.7519 45.0122 43.7306L44.1474 43.6681C43.4312 43.6194 42.8463 43.4499 42.3927 43.1597C41.9387 42.8669 41.6649 42.4176 41.5714 41.8119C41.4904 41.3187 41.5543 40.8651 41.7629 40.4511C41.9715 40.0371 42.2957 39.6887 42.7355 39.4058C43.1753 39.1229 43.6979 38.9333 44.3032 38.8372C44.9215 38.7391 45.4747 38.7591 45.9627 38.8973C46.453 39.0326 46.854 39.2685 47.1658 39.6052C47.4776 39.9419 47.6755 40.3579 47.7595 40.8533L45.9124 41.1466Z" fill="#FF64F2"/>
<path opacity="0.56" d="M51.7242 34.1309L52.5651 27.1104L53.0148 27.1643L52.174 34.1848L51.7242 34.1309ZM53.3626 29.626C53.3684 29.4227 53.3057 29.2567 53.1747 29.1278C53.0456 28.9974 52.8486 28.9163 52.5835 28.8846C52.408 28.8635 52.259 28.8689 52.1365 28.9006C52.014 28.9323 51.9187 28.9848 51.8505 29.0583C51.7826 29.1299 51.7416 29.2168 51.7275 29.3189C51.7138 29.4026 51.7214 29.4786 51.7503 29.547C51.781 29.6156 51.8291 29.6788 51.8945 29.7367C51.9619 29.793 52.0446 29.8456 52.1426 29.8944C52.2406 29.9432 52.352 29.989 52.4767 30.0318L52.9462 30.1993C53.2169 30.2929 53.4522 30.4027 53.6522 30.5286C53.8541 30.6548 54.0189 30.796 54.1467 30.9523C54.2763 31.1087 54.3678 31.2819 54.4211 31.4719C54.4744 31.6619 54.4884 31.8694 54.4633 32.0945C54.419 32.449 54.293 32.7427 54.0852 32.9756C53.8774 33.2084 53.5991 33.3726 53.2501 33.468C52.903 33.5637 52.4954 33.5835 52.0274 33.5274C51.5575 33.4712 51.1564 33.3517 50.8241 33.1691C50.4918 32.9865 50.2459 32.7401 50.0865 32.4299C49.927 32.1196 49.8709 31.7448 49.9179 31.3053L51.2178 31.461C51.2071 31.6433 51.2375 31.8 51.309 31.9309C51.3805 32.0619 51.4874 32.1674 51.6299 32.2475C51.7742 32.3279 51.946 32.38 52.1453 32.4038C52.3281 32.4257 52.4865 32.4197 52.6204 32.3856C52.7561 32.3518 52.8639 32.2952 52.9439 32.2157C53.0239 32.1363 53.0716 32.04 53.087 31.9269C53.0979 31.8206 53.0758 31.7262 53.0208 31.6436C52.966 31.5591 52.8751 31.4815 52.7482 31.4106C52.6234 31.3382 52.4614 31.266 52.2624 31.1939L51.6919 30.9865C51.219 30.8167 50.8575 30.5908 50.6076 30.3086C50.3578 30.0246 50.2594 29.6698 50.3122 29.244C50.352 28.8964 50.4817 28.6032 50.7013 28.3643C50.921 28.1254 51.2059 27.9527 51.5562 27.8463C51.9064 27.7399 52.2946 27.7122 52.7205 27.7633C53.1557 27.8154 53.5243 27.9346 53.8266 28.121C54.1308 28.3058 54.3557 28.5414 54.5013 28.8278C54.6469 29.1141 54.7006 29.4321 54.6625 29.7817L53.3626 29.626Z" fill="#FA29D1"/>
<defs>
<linearGradient id="paint0_linear_1802_14794" x1="8.35848" y1="39.9708" x2="67.7633" y2="39.9708" gradientUnits="userSpaceOnUse">
<stop stop-color="#49B3FF"/>
<stop offset="0.9952" stop-color="#FF24CF"/>
</linearGradient>
</defs>
</svg>
