<svg
  width="70"
  height="22"
  viewBox="0 0 70 22"
  fill="none"
  xmlns="http://www.w3.org/2000/svg"
>
  <path
    d="M9.14368 11.915C9.95041 11.9267 10.7145 12.2744 11.2628 12.8662L13.132 14.8848C13.2361 14.9973 13.2462 15.1683 13.1505 15.2881C12.9837 15.496 12.8046 15.6946 12.6154 15.8818C12.5062 15.9896 12.3349 15.9972 12.212 15.9053L9.23645 13.6787C9.10155 13.9553 9.01575 14.2601 8.9884 14.582L8.44348 20.9893C8.4234 21.2258 8.23346 21.4133 7.99622 21.4189C7.91432 21.4208 7.83149 21.4219 7.74915 21.4219C7.66624 21.4219 7.58355 21.4209 7.5011 21.4189C7.26376 21.4134 7.07295 21.2258 7.05286 20.9893L6.50891 14.582C6.48118 14.256 6.39296 13.9474 6.255 13.668L3.27942 15.8994C3.15641 15.9914 2.98422 15.9832 2.87512 15.875C2.68853 15.6899 2.51243 15.4943 2.34778 15.2891C2.2516 15.1692 2.26186 14.9974 2.36633 14.8848L4.24036 12.8662C4.78804 12.2761 5.54961 11.9284 6.35461 11.916C6.8255 11.9088 7.30471 11.9043 7.79016 11.9043C8.24756 11.9043 8.69913 11.9086 9.14368 11.915ZM25.8497 7.0459C26.6161 7.04597 27.2813 7.23221 27.8448 7.60449C28.4195 7.96555 28.8643 8.47898 29.1798 9.14453C29.4954 9.81025 29.6534 10.5944 29.6534 11.4971C29.6534 12.411 29.4901 13.2068 29.1632 13.8838C28.8364 14.5605 28.3799 15.0848 27.7941 15.457C27.2079 15.8294 26.5143 16.0156 25.714 16.0156C24.8912 16.0156 24.2208 15.824 23.7023 15.4404C23.3492 15.1655 23.0913 14.8185 22.924 14.4014V19.3164H20.7941V7.21484H22.8732V8.64453C23.0682 8.22478 23.3723 7.87808 23.7863 7.60449C24.3499 7.23213 25.0381 7.0459 25.8497 7.0459ZM35.1642 7.0459C36.0884 7.0459 36.8946 7.23753 37.5822 7.62109C38.2696 7.99338 38.8054 8.51218 39.1886 9.17773C39.5719 9.84347 39.7638 10.617 39.7638 11.4971C39.7638 12.3771 39.5665 13.1614 39.172 13.8496C38.7887 14.5266 38.2531 15.0568 37.5656 15.4404C36.8779 15.8241 36.0772 16.0156 35.1642 16.0156C34.2513 16.0156 33.445 15.824 32.7462 15.4404C32.0589 15.0568 31.5239 14.5264 31.1407 13.8496C30.7575 13.1614 30.5656 12.3771 30.5656 11.4971C30.5656 10.617 30.7575 9.84347 31.1407 9.17773C31.5239 8.51235 32.059 7.99335 32.7462 7.62109C33.445 7.23751 34.2513 7.04595 35.1642 7.0459ZM48.0392 7.0459C49.2228 7.0459 50.119 7.31679 50.7277 7.8584C51.3363 8.38872 51.6407 9.17294 51.6407 10.2109V14.1201C51.6407 14.3908 51.6577 14.6673 51.6915 14.9492C51.7366 15.2313 51.7982 15.5308 51.8771 15.8467H49.7472C49.6908 15.621 49.6453 15.3724 49.6115 15.1016C49.5966 14.9227 49.5882 14.7192 49.5831 14.4912C49.3564 14.9326 49.0405 15.2836 48.631 15.542C48.1237 15.8579 47.498 16.0156 46.754 16.0156C45.8864 16.0156 45.1934 15.8016 44.6749 15.373C44.1677 14.933 43.9142 14.3457 43.9142 13.6123C43.9142 12.8226 44.2017 12.196 44.7765 11.7334C45.3513 11.271 46.163 10.9607 47.2111 10.8027L49.5109 10.4551V10.0244C49.5109 9.57307 49.3805 9.23446 49.1212 9.00879C48.8732 8.77196 48.4902 8.65333 47.9718 8.65332C47.4646 8.65332 47.0584 8.74959 46.754 8.94141C46.4612 9.12189 46.2807 9.3868 46.213 9.73633H44.1671C44.2574 8.93533 44.6413 8.28646 45.3175 7.79004C45.9938 7.29376 46.901 7.04592 48.0392 7.0459ZM65.9513 7.0459C67.022 7.0459 67.8791 7.27675 68.5216 7.73926C69.1754 8.19059 69.536 8.81705 69.6036 9.61816H67.6593C67.6029 9.2684 67.4226 9.0028 67.1183 8.82227C66.8253 8.6419 66.4196 8.55181 65.9015 8.55176C65.4168 8.55176 65.0499 8.63109 64.8019 8.78906C64.554 8.93575 64.4298 9.15592 64.4298 9.44922C64.4299 9.67476 64.5264 9.86651 64.7179 10.0244C64.9095 10.171 65.2303 10.3013 65.6808 10.4141L67.1691 10.752C68.0145 10.9438 68.6519 11.2771 69.0802 11.751C69.5196 12.2248 69.7394 12.7837 69.7394 13.4268C69.7393 14.2503 69.4233 14.8876 68.7921 15.3389C68.1609 15.7901 67.2762 16.0156 66.1378 16.0156C64.9431 16.0156 63.9905 15.7679 63.2804 15.2715C62.5703 14.7638 62.1811 14.0641 62.1134 13.1729H64.0577C64.1142 13.6127 64.3231 13.9453 64.6837 14.1709C65.0444 14.3966 65.5291 14.5098 66.1378 14.5098C66.6901 14.5098 67.1017 14.4251 67.3722 14.2559C67.654 14.0753 67.795 13.8213 67.795 13.4941C67.795 13.2572 67.7156 13.0656 67.5577 12.9189C67.4 12.761 67.1017 12.6308 66.6622 12.5293L65.2755 12.208C64.3287 12.0049 63.6244 11.6885 63.1622 11.2598C62.7113 10.8197 62.4855 10.2726 62.4855 9.61816C62.4855 8.81704 62.7899 8.1906 63.3986 7.73926C64.0184 7.27673 64.8694 7.04597 65.9513 7.0459ZM42.7853 15.8467H40.6544V3.66016H42.7853V15.8467ZM57.8058 7.0459C58.0425 7.0459 58.2121 7.06815 58.3136 7.11328V9.12695C58.2572 9.10439 58.1777 9.09375 58.0763 9.09375C57.9749 9.08248 57.8507 9.07617 57.7042 9.07617C56.8815 9.07621 56.2672 9.25713 55.8615 9.61816C55.4557 9.97924 55.2531 10.5549 55.2531 11.3447V15.8467H53.1222V7.21484H55.2023V8.80176C55.408 8.30676 55.6955 7.91324 56.0646 7.62109C56.5492 7.23752 57.1295 7.04592 57.8058 7.0459ZM61.338 15.8467H59.2072V7.21484H61.338V15.8467ZM47.5656 12.1064C47.0585 12.1854 46.6753 12.3263 46.4161 12.5293C46.1681 12.7324 46.0441 13.0149 46.0441 13.376C46.0442 13.703 46.1629 13.9572 46.3995 14.1377C46.6362 14.3068 46.9632 14.3916 47.38 14.3916C47.9885 14.3916 48.4958 14.2391 48.9015 13.9346C49.3072 13.63 49.5108 13.2573 49.5109 12.8174V11.8096L47.5656 12.1064ZM35.1642 8.75488C34.4769 8.75498 33.9079 8.99755 33.4572 9.48242C33.0063 9.96752 32.7805 10.6335 32.7804 11.4795C32.7804 12.055 32.8822 12.5576 33.0851 12.9863C33.2992 13.4036 33.5806 13.7309 33.9298 13.9678C34.2904 14.1934 34.7022 14.3066 35.1642 14.3066C35.6151 14.3066 36.0212 14.1934 36.382 13.9678C36.7426 13.7308 37.0248 13.4038 37.2277 12.9863C37.4305 12.5576 37.5314 12.0549 37.5314 11.4795C37.5313 10.6335 37.3064 9.96752 36.8556 9.48242C36.416 8.9973 35.8517 8.75488 35.1642 8.75488ZM25.1564 8.78906C24.48 8.78906 23.9328 9.03141 23.5157 9.5166C23.0988 9.99042 22.8908 10.6617 22.8907 11.5303C22.8907 12.3991 23.0987 13.071 23.5157 13.5449C23.9328 14.0188 24.4854 14.2559 25.173 14.2559C25.8604 14.2559 26.4068 14.0187 26.8126 13.5449C27.2184 13.0597 27.422 12.3825 27.422 11.5137C27.422 10.645 27.213 9.97388 26.796 9.5C26.3903 9.02617 25.8438 8.78914 25.1564 8.78906ZM7.99915 0.50293C8.23649 0.50845 8.42729 0.696048 8.44739 0.932617L8.99133 7.33984C9.01886 7.66367 9.10599 7.97019 9.24231 8.24805L12.2159 6.01855C12.3387 5.92656 12.5101 5.93426 12.6193 6.04199C12.8057 6.2266 12.982 6.42225 13.1466 6.62695C13.2429 6.74674 13.2334 6.91847 13.129 7.03125L10.7794 9.56348C10.947 9.61539 11.1222 9.65041 11.3029 9.66699L15.0616 10.0117C15.2868 10.0326 15.4684 10.2079 15.4835 10.4336C15.4952 10.6078 15.5011 10.7837 15.5011 10.9609C15.5011 11.1253 15.3594 11.2511 15.1954 11.2393C13.8928 11.1437 12.3989 11.0582 10.7814 11.0078C10.0027 10.9836 9.26033 10.6686 8.71106 10.1162L8.14661 9.54883C7.92826 9.32954 7.57302 9.32962 7.35461 9.54883L6.78723 10.1191C6.23867 10.6708 5.49739 10.9858 4.71985 11.0107C3.1039 11.0624 1.61316 11.149 0.315552 11.2451C0.148182 11.2575 0.00309882 11.1288 0.00305176 10.9609C0.00305176 10.7837 0.00892258 10.6078 0.0206299 10.4336C0.035809 10.2078 0.218094 10.0324 0.443481 10.0117L4.20032 9.66699C4.37566 9.6509 4.54598 9.61779 4.70911 9.56836L2.36633 7.03906C2.26196 6.9264 2.25172 6.75459 2.34778 6.63477C2.51453 6.42678 2.69367 6.22832 2.88293 6.04102C2.9921 5.93342 3.16349 5.9257 3.28625 6.01758L6.26184 8.24512C6.39727 7.96809 6.48442 7.66245 6.51184 7.33984L7.05676 0.932617C7.07685 0.696123 7.26677 0.508548 7.50403 0.50293C7.58676 0.500996 7.66986 0.500002 7.75305 0.5C7.83518 0.5 7.91747 0.501047 7.99915 0.50293ZM60.2892 3.27148C60.6611 3.27148 60.9826 3.40079 61.2531 3.66016C61.5235 3.90836 61.6593 4.24709 61.6593 4.67578C61.6593 5.07071 61.5236 5.404 61.2531 5.6748C60.9826 5.94547 60.6611 6.08105 60.2892 6.08105C59.9062 6.08099 59.5738 5.94539 59.2921 5.6748C59.0216 5.404 58.8859 5.07071 58.8859 4.67578C58.8859 4.24709 59.0216 3.90836 59.2921 3.66016C59.5738 3.40087 59.9062 3.27154 60.2892 3.27148Z"
    fill="white"
  />
</svg>
