<svg width="57" height="57" viewBox="0 0 57 57" fill="none" xmlns="http://www.w3.org/2000/svg">
<path d="M28.5 57C44.2401 57 57 44.2401 57 28.5C57 12.7599 44.2401 0 28.5 0C12.7599 0 0 12.7599 0 28.5C0 44.2401 12.7599 57 28.5 57Z" fill="#3CCD64"/>
<path d="M54.8891 28.8041C54.8891 41.5948 45.9938 52.2848 34.1188 54.8891L33.9465 54.0877C32.1574 54.4781 30.3324 54.6749 28.5021 54.6749C15.7026 54.6749 4.80045 45.0102 3.14336 32.1938C2.9994 31.0698 2.9274 29.9375 2.92779 28.8041H2.11133C2.11133 14.0639 13.9253 2.11133 28.5002 2.11133V2.93077C42.6065 2.93077 54.0765 14.5367 54.0765 28.8016L54.8891 28.8041Z" fill="#191919"/>
<path d="M42.3945 48.5565L41.5176 47.2108C51.3839 40.3785 54.1578 26.684 47.767 16.356L49.0928 15.4824C55.9443 26.5536 52.9721 41.233 42.3945 48.5565Z" fill="#3CCD64"/>
<path d="M8.28775 42.2223C6.46385 39.4155 5.21532 36.2477 4.62007 32.9165C4.02483 29.5852 4.09563 26.162 4.82808 22.8605C5.56052 19.559 6.93888 16.45 8.87715 13.7276C10.8154 11.0051 13.272 8.72757 16.0936 7.03711L16.8874 8.47123C10.0561 12.5718 5.81236 20.2115 5.81236 28.4093C5.80432 33.0038 7.12553 37.4943 9.604 41.2963L8.28775 42.2223Z" fill="#3CCD64"/>
<path d="M18.9798 47.8516C8.39148 42.6375 4.02783 29.8066 9.23384 19.1965C9.6244 18.4007 10.0639 17.6299 10.5498 16.8887L11.9199 17.7914C9.8016 21.0131 8.67571 24.7879 8.68235 28.6459C8.68235 36.233 12.9057 43.0257 19.7038 46.3788L18.9798 47.8516Z" fill="#3CCD64"/>
<path d="M49.273 33.7779L47.704 33.3621C48.1271 31.7276 48.3409 30.0451 48.3403 28.3557C48.3403 17.5036 39.5977 8.67487 28.8516 8.67487V7.03711C40.51 7.03775 49.9627 16.5823 49.9627 28.3557C49.9631 30.1854 49.7313 32.0076 49.273 33.7779V33.7779Z" fill="#3CCD64"/>
<path d="M44.3635 20.6649C40.4956 26.6262 37.0514 24.8197 32.9377 24.0123C28.8239 23.2049 26.5513 27.6116 26.5513 27.6116C26.5513 27.6116 26.5558 27.5967 26.5584 27.5896C26.4803 27.734 26.4041 27.8797 26.3311 28.0273C26.1992 28.2863 26.0802 28.5576 25.9662 28.8353C25.979 28.5334 26.0245 28.2337 26.1019 27.9418C26.1768 27.6478 26.2741 27.3601 26.3932 27.0813C26.5414 26.734 26.7209 26.4013 26.9297 26.0875C27.5698 21.919 24.1648 20.3153 19.8647 17.8057C15.0756 15.0112 17.2189 11.9629 17.2189 11.9629C17.2189 11.9629 9.12136 20.4707 14.5244 28.5148C19.9275 36.559 26.7619 38.8336 19.6375 50.9426C19.6375 50.9426 24.4778 53.785 32.2655 52.3948C30.2298 43.6009 30.7438 40.2871 33.9677 37.301L33.6163 37.4305C33.4882 37.4739 33.3602 37.5056 33.2322 37.5406L33.0401 37.5917C32.9761 37.6073 32.9121 37.6163 32.8442 37.6286C32.7162 37.6519 32.583 37.6739 32.4524 37.6934C32.3218 37.7128 32.1874 37.7128 32.0562 37.7206C31.9922 37.7206 31.9243 37.727 31.8584 37.7283C31.7924 37.7296 31.7258 37.7232 31.6599 37.718C31.528 37.7096 31.3968 37.6998 31.2668 37.6837C31.3949 37.6435 31.5229 37.6105 31.6458 37.5781C31.7098 37.5613 31.7707 37.547 31.8328 37.5321L32.0178 37.4745C32.14 37.4376 32.2623 37.4027 32.3846 37.3683C32.5069 37.334 32.6246 37.2835 32.7444 37.244C32.8045 37.2239 32.8647 37.2065 32.9236 37.1838L33.1009 37.1152C33.2174 37.0673 33.3378 37.0304 33.453 36.9792L33.8013 36.8322C33.9184 36.7856 34.0305 36.7273 34.1457 36.6755C34.6028 36.4632 35.0539 36.2327 35.499 35.984L35.8191 35.804C37.3491 35.0271 38.6999 34.1446 39.9425 33.0199C47.5816 26.1185 44.3635 20.6649 44.3635 20.6649Z" fill="white"/>
</svg>
