<svg width="596" height="378" viewBox="0 0 596 378" fill="none" xmlns="http://www.w3.org/2000/svg">
<path d="M298.085 334.276L361.404 297.807V224.656L298 259.954L298.085 334.276Z" fill="#00A000"/>
<path d="M234.596 224.656L298 259.954L361.404 224.656L298 188.081L234.596 224.656Z" fill="#00DF44"/>
<path d="M272.86 214.309L313.82 237.39L321.544 232.956L281.293 209.515L272.86 214.309Z" fill="black"/>
<path d="M298.084 334.276L234.596 297.807V224.656L298 259.954L298.084 334.276Z" fill="#55F25D"/>
<path d="M291.226 322.43L241.454 293.847V236.503L291.152 264.167L291.226 322.43Z" fill="#00DF44"/>
<path d="M285.594 284.387L247.097 262.277V247.569L285.531 268.961L285.594 284.387Z" fill="#FFB200"/>
<path d="M274.889 215.449L281.293 211.733V209.515L272.86 214.309L274.889 215.449Z" fill="#006000"/>
<path d="M281.272 209.537L281.293 211.733L319.42 234.18L321.544 232.956L281.293 209.515L281.272 209.537Z" fill="#55F25D"/>
<path d="M250.658 249.554L247.097 247.569V262.277H250.658V249.554Z" fill="black"/>
<path d="M285.584 281.98L250.658 262.277H247.097L285.594 284.387L285.584 281.98Z" fill="#AA6D00"/>
<path d="M257.389 277.64C258.433 276.76 258.275 274.858 257.036 273.392C255.798 271.926 253.948 271.451 252.904 272.331C251.861 273.211 252.019 275.113 253.257 276.579C254.496 278.045 256.346 278.52 257.389 277.64Z" fill="#AA6D00"/>
<path d="M256.623 277.14C257.475 276.422 257.347 274.871 256.338 273.677C255.329 272.483 253.821 272.097 252.969 272.816C252.117 273.534 252.245 275.085 253.254 276.279C254.263 277.473 255.771 277.859 256.623 277.14Z" fill="#FFB200"/>
<path d="M257.379 286.928C258.423 286.048 258.265 284.146 257.026 282.68C255.787 281.214 253.937 280.739 252.894 281.619C251.85 282.499 252.008 284.401 253.247 285.867C254.486 287.333 256.336 287.808 257.379 286.928Z" fill="#AA6D00"/>
<path d="M256.612 286.428C257.464 285.71 257.336 284.159 256.327 282.965C255.319 281.771 253.81 281.385 252.958 282.104C252.107 282.822 252.234 284.373 253.243 285.567C254.252 286.761 255.76 287.147 256.612 286.428Z" fill="#FFB200"/>
<path d="M257.386 296.214C258.43 295.333 258.272 293.431 257.033 291.965C255.794 290.499 253.944 290.025 252.901 290.905C251.857 291.785 252.015 293.687 253.254 295.153C254.492 296.619 256.342 297.094 257.386 296.214Z" fill="#AA6D00"/>
<path d="M256.619 295.714C257.471 294.996 257.344 293.445 256.335 292.251C255.326 291.057 253.817 290.671 252.966 291.39C252.114 292.108 252.241 293.659 253.25 294.853C254.259 296.047 255.768 296.433 256.619 295.714Z" fill="#FFB200"/>
<path d="M268.017 283.826C269.061 282.946 268.903 281.044 267.664 279.578C266.426 278.112 264.576 277.637 263.532 278.517C262.489 279.397 262.647 281.299 263.885 282.765C265.124 284.231 266.974 284.706 268.017 283.826Z" fill="#AA6D00"/>
<path d="M267.242 283.333C268.094 282.614 267.967 281.064 266.958 279.87C265.949 278.675 264.44 278.29 263.589 279.008C262.737 279.727 262.864 281.277 263.873 282.471C264.882 283.666 266.391 284.051 267.242 283.333Z" fill="#FFB200"/>
<path d="M268.013 293.111C269.057 292.231 268.899 290.329 267.66 288.863C266.422 287.397 264.572 286.922 263.528 287.802C262.485 288.683 262.643 290.585 263.881 292.051C265.12 293.517 266.97 293.992 268.013 293.111Z" fill="#AA6D00"/>
<path d="M267.239 292.629C268.091 291.911 267.963 290.36 266.954 289.166C265.945 287.972 264.437 287.586 263.585 288.305C262.733 289.023 262.861 290.574 263.87 291.768C264.879 292.962 266.387 293.348 267.239 292.629Z" fill="#FFB200"/>
<path d="M268.021 302.408C269.064 301.527 268.906 299.625 267.668 298.159C266.429 296.693 264.579 296.218 263.536 297.099C262.492 297.979 262.65 299.881 263.889 301.347C265.127 302.813 266.977 303.288 268.021 302.408Z" fill="#AA6D00"/>
<path d="M267.246 301.915C268.098 301.196 267.97 299.646 266.961 298.452C265.952 297.257 264.444 296.872 263.592 297.59C262.74 298.309 262.868 299.859 263.877 301.053C264.886 302.248 266.394 302.633 267.246 301.915Z" fill="#FFB200"/>
<path d="M278.634 290.026C279.677 289.146 279.519 287.244 278.28 285.778C277.042 284.312 275.192 283.837 274.148 284.718C273.105 285.598 273.263 287.5 274.501 288.966C275.74 290.432 277.59 290.907 278.634 290.026Z" fill="#AA6D00"/>
<path d="M277.866 289.527C278.718 288.808 278.591 287.258 277.582 286.064C276.573 284.869 275.065 284.484 274.213 285.202C273.361 285.921 273.488 287.471 274.497 288.665C275.506 289.86 277.015 290.245 277.866 289.527Z" fill="#FFB200"/>
<path d="M278.64 299.312C279.684 298.432 279.526 296.53 278.287 295.064C277.049 293.598 275.199 293.123 274.155 294.003C273.112 294.883 273.27 296.785 274.508 298.251C275.747 299.717 277.597 300.192 278.64 299.312Z" fill="#AA6D00"/>
<path d="M277.874 298.823C278.726 298.105 278.598 296.554 277.589 295.36C276.58 294.166 275.072 293.78 274.22 294.498C273.368 295.217 273.496 296.767 274.505 297.962C275.514 299.156 277.022 299.541 277.874 298.823Z" fill="#FFB200"/>
<path d="M278.63 308.6C279.673 307.72 279.515 305.818 278.277 304.352C277.038 302.886 275.188 302.411 274.144 303.291C273.101 304.172 273.259 306.074 274.498 307.54C275.736 309.006 277.586 309.481 278.63 308.6Z" fill="#AA6D00"/>
<path d="M277.863 308.101C278.715 307.382 278.587 305.832 277.578 304.637C276.57 303.443 275.061 303.058 274.209 303.776C273.358 304.494 273.485 306.045 274.494 307.239C275.503 308.433 277.011 308.819 277.863 308.101Z" fill="#FFB200"/>
<path d="M241.412 228.458L246.283 231.171V217.92L241.412 220.729V228.458Z" fill="#36EB83"/>
<path d="M248.946 232.65L255.583 236.345V212.556L248.946 216.379V232.65Z" fill="#36EB83"/>
<path d="M255.625 261.971C254.716 261.454 253.469 260.556 253.385 259.173L254.146 259.616C254.272 260.345 254.896 260.883 255.71 261.348C256.629 261.876 257.221 261.971 257.221 261.274C257.221 260.704 256.851 260.324 256.069 259.796L255.287 259.268C254.124 258.487 253.48 257.695 253.48 256.776C253.48 255.858 254.146 255.668 255.752 256.586C256.777 257.177 257.865 258.033 257.96 259.363L257.21 258.93C257.083 258.233 256.534 257.705 255.71 257.23C254.801 256.702 254.304 256.671 254.304 257.241C254.304 257.779 254.727 258.191 255.488 258.708L256.27 259.226C257.464 260.028 258.056 260.767 258.056 261.739C258.056 262.71 257.379 262.974 255.636 261.971H255.625Z" fill="black"/>
<path d="M263.371 261.084V261.812L261.342 260.651V265.16L260.528 264.695V260.186L258.499 259.025V258.296L263.371 261.094V261.084Z" fill="black"/>
<path d="M267.598 268.749L267.26 267.789L264.111 265.973L263.772 266.543L262.917 266.057L265.241 262.161L266.129 262.668L268.443 269.235L267.587 268.749H267.598ZM264.407 265.487L266.974 266.965L265.696 263.312L264.407 265.487Z" fill="black"/>
<path d="M274.403 272.656L273.441 272.097L271.687 268.971L269.965 270.101L269.162 269.636V264.41L269.965 264.874V269.003L273.283 266.786L274.223 267.324L272.163 268.665L274.403 272.646V272.656Z" fill="black"/>
<path d="M279.496 271.072L275.935 269.024V270.64L279.338 272.593V273.248L275.935 271.294V272.825L279.496 274.874V275.592L275.122 273.079V267.852L279.496 270.365V271.083V271.072Z" fill="black"/>
<path d="M328.519 168.527C328.561 166.721 327.25 164.842 324.661 163.416L286.577 142.436C281.99 139.913 275.111 139.797 271.233 142.183C269.542 143.228 268.697 144.569 268.654 145.963V190.214C268.602 192.02 269.912 193.92 272.511 195.356L310.596 216.336C315.183 218.86 322.062 218.976 325.94 216.59C327.705 215.502 328.55 214.087 328.519 212.62V168.527Z" fill="#FFC94A"/>
<path d="M324.661 163.427L314.083 157.599V217.699C318.205 218.776 322.95 218.417 325.93 216.59C327.694 215.502 328.54 214.087 328.508 212.62V168.527C328.55 166.721 327.24 164.842 324.651 163.416L324.661 163.427Z" fill="#FFAE0E"/>
<path d="M324.661 163.427C329.248 165.95 329.829 169.942 325.94 172.328C322.051 174.714 315.182 174.598 310.596 172.074L272.511 151.094C267.925 148.571 267.344 144.58 271.233 142.193C275.122 139.807 281.99 139.923 286.577 142.447L324.661 163.427Z" fill="#F8ECA4"/>
<path d="M296.848 181.271C296.848 177.808 294.037 173.817 290.571 172.37C287.105 170.924 284.294 172.55 284.294 176.013C284.294 178.378 285.604 180.997 287.549 182.876V191.851C287.549 193.519 288.901 195.441 290.571 196.138C292.241 196.835 293.593 196.053 293.593 194.385V185.41C295.527 185.157 296.848 183.647 296.848 181.271Z" fill="black"/>
<path d="M314.39 168.537C314.39 168.537 314.316 168.537 314.274 168.537C312.012 168.474 310.226 166.595 310.29 164.325L310.797 146.269C311.019 138.319 304.901 128.319 297.429 124.434C294.333 122.818 291.491 122.533 289.62 123.621C287.94 124.613 286.968 126.799 286.883 129.777L286.387 147.705C286.323 149.965 284.442 151.749 282.17 151.686C279.909 151.622 278.123 149.743 278.186 147.473L278.683 129.544C278.852 123.642 281.261 119.028 285.467 116.557C289.821 114.002 295.559 114.224 301.213 117.17C311.495 122.523 319.304 135.404 318.987 146.501L318.48 164.557C318.416 166.785 316.599 168.537 314.379 168.537H314.39Z" fill="white"/>
<path d="M237.629 359.448C234.11 359.448 231.267 356.598 231.267 353.092C231.267 349.587 234.12 346.736 237.629 346.736H358.371C361.89 346.736 364.733 349.587 364.733 353.092C364.733 356.598 361.88 359.448 358.371 359.448H237.629Z" fill="#616191"/>
<path d="M237.629 359.448C234.11 359.448 231.267 356.598 231.267 353.092C231.267 349.587 234.12 346.736 237.629 346.736H340.301C343.82 346.736 346.663 349.587 346.663 353.092C346.663 356.598 343.81 359.448 340.301 359.448H237.629Z" fill="#2E7BFF"/>
</svg>
