<svg width="402" height="256" viewBox="0 0 402 256" fill="none" xmlns="http://www.w3.org/2000/svg">
<path d="M66.7432 158.713H65.5742V159.106H66.7432V158.713Z" fill="white"/>
<path d="M335.549 159.106H333.211V158.713H335.549V159.106ZM331.65 159.106H329.312V158.713H331.65V159.106ZM327.751 159.106H325.413V158.713H327.751V159.106ZM323.852 159.106H321.514V158.713H323.852V159.106ZM319.953 159.106H317.615V158.713H319.953V159.106ZM316.054 159.106H313.717V158.713H316.054V159.106ZM312.156 159.106H309.818V158.713H312.156V159.106ZM308.257 159.106H305.919V158.713H308.257V159.106ZM304.358 159.106H302.02V158.713H304.358V159.106ZM300.459 159.106H298.121V158.713H300.459V159.106ZM296.56 159.106H294.222V158.713H296.56V159.106ZM292.661 159.106H290.324V158.713H292.661V159.106ZM288.763 159.106H286.425V158.713H288.763V159.106ZM284.864 159.106H282.526V158.713H284.864V159.106ZM280.965 159.106H278.627V158.713H280.965V159.106ZM277.066 159.106H274.728V158.713H277.066V159.106ZM273.167 159.106H270.829V158.713H273.167V159.106ZM269.269 159.106H266.931V158.713H269.269V159.106ZM265.37 159.106H263.032V158.713H265.37V159.106ZM261.471 159.106H259.133V158.713H261.471V159.106ZM257.572 159.106H255.234V158.713H257.572V159.106ZM253.673 159.106H251.335V158.713H253.673V159.106ZM249.774 159.106H247.436V158.713H249.774V159.106ZM245.876 159.106H243.538V158.713H245.876V159.106ZM241.977 159.106H239.639V158.713H241.977V159.106ZM238.078 159.106H235.74V158.713H238.078V159.106ZM234.179 159.106H231.841V158.713H234.179V159.106ZM230.28 159.106H227.942V158.713H230.28V159.106ZM226.381 159.106H224.044V158.713H226.381V159.106ZM222.483 159.106H220.145V158.713H222.483V159.106ZM218.584 159.106H216.246V158.713H218.584V159.106ZM214.685 159.106H212.347V158.713H214.685V159.106ZM210.786 159.106H208.448V158.713H210.786V159.106ZM206.887 159.106H204.549V158.713H206.887V159.106ZM202.988 159.106H200.651V158.713H202.988V159.106ZM199.09 159.106H196.752V158.713H199.09V159.106ZM195.191 159.106H192.853V158.713H195.191V159.106ZM191.292 159.106H188.954V158.713H191.292V159.106ZM187.393 159.106H185.055V158.713H187.393V159.106ZM183.494 159.106H181.156V158.713H183.494V159.106ZM179.595 159.106H177.258V158.713H179.595V159.106ZM175.697 159.106H173.359V158.713H175.697V159.106ZM171.798 159.106H169.46V158.713H171.798V159.106ZM167.899 159.106H165.561V158.713H167.899V159.106ZM164 159.106H161.662V158.713H164V159.106ZM160.101 159.106H157.763V158.713H160.101V159.106ZM156.202 159.106H153.865V158.713H156.202V159.106ZM152.304 159.106H149.966V158.713H152.304V159.106ZM148.405 159.106H146.067V158.713H148.405V159.106ZM144.506 159.106H142.168V158.713H144.506V159.106ZM140.607 159.106H138.269V158.713H140.607V159.106ZM136.708 159.106H134.37V158.713H136.708V159.106ZM132.809 159.106H130.472V158.713H132.809V159.106ZM128.911 159.106H126.573V158.713H128.911V159.106ZM125.012 159.106H122.674V158.713H125.012V159.106ZM121.113 159.106H118.775V158.713H121.113V159.106ZM117.214 159.106H114.876V158.713H117.214V159.106ZM113.315 159.106H110.977V158.713H113.315V159.106ZM109.416 159.106H107.079V158.713H109.416V159.106ZM105.518 159.106H103.18V158.713H105.518V159.106ZM101.619 159.106H99.281V158.713H101.619V159.106ZM97.72 159.106H95.3821V158.713H97.72V159.106ZM93.8212 159.106H91.4833V158.713H93.8212V159.106ZM89.9224 159.106H87.5845V158.713H89.9224V159.106ZM86.0235 159.106H83.6857V158.713H86.0235V159.106ZM82.1247 159.106H79.7868V158.713H82.1247V159.106ZM78.2259 159.106H75.888V158.713H78.2259V159.106ZM74.327 159.106H71.9892V158.713H74.327V159.106ZM70.4282 159.106H68.0903V158.713H70.4282V159.106Z" fill="white"/>
<path d="M338.271 158.713H337.103V159.106H338.271V158.713Z" fill="white"/>
<path d="M126.872 105.082H41.3403V202.018H41.3617C41.4472 202.783 41.8749 203.52 42.6447 203.949L81.6401 225.745C83.1726 226.603 85.04 226.603 86.5725 225.745L125.568 203.949C126.338 203.52 126.765 202.783 126.851 202.018H126.872V105.082Z" fill="#DCEAFF"/>
<path d="M84.4629 226.374C85.1899 226.324 85.9098 226.117 86.5727 225.745L125.568 203.949C126.338 203.52 126.766 202.783 126.851 202.018H126.872V105.082H84.4629V226.374Z" fill="#B1C5DD"/>
<path d="M42.6447 107.97L81.6401 129.766C83.1725 130.624 85.04 130.624 86.5724 129.766L125.568 107.97C127.286 107.012 127.307 104.531 125.603 103.544L86.6366 80.976C85.0685 80.0679 83.1369 80.0679 81.5688 80.976L42.6019 103.544C40.8984 104.531 40.9126 107.005 42.6375 107.97H42.6447Z" fill="white"/>
<path d="M77.1781 202.919L77.1425 139.599C77.1425 138.004 76.28 136.531 74.8901 135.752L50.5278 122.136C49.8364 121.75 49.0738 121.786 48.4608 122.101L48.4251 122.115C48.3824 122.136 48.3467 122.158 48.304 122.179L45.4315 123.474C44.7401 123.831 44.2412 124.546 44.2412 125.433V188.296C44.2412 189.876 45.0823 191.328 46.4437 192.114L70.8701 206.202C71.6257 206.638 72.481 206.559 73.1296 206.152L75.9949 204.864C76.6792 204.507 77.1781 203.792 77.1781 202.912V202.919Z" fill="#B1C5DD"/>
<path d="M71.8612 137.125L47.4988 123.509C46.0377 122.694 44.2344 123.752 44.2344 125.433V188.296C44.2344 189.876 45.0754 191.328 46.4368 192.114L70.8633 206.202C72.3245 207.045 74.1563 205.987 74.1563 204.292L74.1207 140.972C74.1207 139.377 73.2582 137.904 71.8683 137.125H71.8612Z" fill="#EBF4FF"/>
<path d="M69.5943 142.094L49.5941 130.917C48.3895 130.245 46.9141 131.118 46.9141 132.498V160.265C46.9141 161.559 47.6054 162.753 48.7245 163.404L68.7817 174.967C69.9863 175.66 71.4831 174.788 71.4831 173.401L71.4546 145.255C71.4546 143.946 70.749 142.738 69.6014 142.094H69.5943Z" fill="#00DF44"/>
<path d="M49.7375 131.018H49.5728V163.625H49.7375V131.018Z" fill="#55F25D"/>
<path d="M53.5578 133.256H53.3931V165.864H53.5578V133.256Z" fill="#55F25D"/>
<path d="M57.3786 135.494H57.2139V168.102H57.3786V135.494Z" fill="#55F25D"/>
<path d="M61.1916 137.725H61.0269V170.333H61.1916V137.725Z" fill="#55F25D"/>
<path d="M65.0124 139.963H64.8477V172.571H65.0124V139.963Z" fill="#55F25D"/>
<path d="M68.8254 142.194H68.6606V174.802H68.8254V142.194Z" fill="#55F25D"/>
<path d="M46.964 134.009L46.8813 134.151L71.431 148.526L71.5136 148.384L46.964 134.009Z" fill="#55F25D"/>
<path d="M46.963 138.737L46.8804 138.879L71.43 153.254L71.5126 153.112L46.963 138.737Z" fill="#55F25D"/>
<path d="M46.9694 143.458L46.8867 143.6L71.4363 157.975L71.519 157.833L46.9694 143.458Z" fill="#55F25D"/>
<path d="M46.9684 148.186L46.8857 148.328L71.4354 162.703L71.518 162.561L46.9684 148.186Z" fill="#55F25D"/>
<path d="M46.9615 152.911L46.8789 153.053L71.4285 167.428L71.5112 167.286L46.9615 152.911Z" fill="#55F25D"/>
<path d="M46.9679 157.632L46.8853 157.774L71.4349 172.149L71.5175 172.007L46.9679 157.632Z" fill="#55F25D"/>
<path d="M47.2277 133.134C47.2277 131.754 48.7031 130.882 49.9077 131.554L69.9079 142.731C70.4425 143.031 70.8844 143.46 71.198 143.961C70.8986 143.181 70.3427 142.509 69.5943 142.094L49.5941 130.917C48.3895 130.245 46.9141 131.118 46.9141 132.498V160.265C46.9141 160.958 47.1136 161.616 47.47 162.188C47.3132 161.781 47.2277 161.351 47.2277 160.901V133.134Z" fill="#006019"/>
<path d="M63.2936 159.592C63.2295 159.592 63.1653 159.592 63.1083 159.585C62.2316 159.499 61.5188 158.834 60.97 157.619C60.5851 156.753 60.243 155.724 59.9151 154.715C59.3235 152.928 58.7177 151.076 58.0191 150.904C57.8338 150.861 57.6343 150.94 57.4062 151.161C56.8716 151.683 56.4225 152.449 56.0234 153.121C55.4461 154.093 54.9899 154.866 54.3983 154.851C54.0277 154.844 53.6927 154.522 53.3434 153.85C52.9229 153.042 52.6449 152.213 52.4025 151.476C51.8252 149.738 51.4047 148.48 49.6655 148.48V148.165C51.6328 148.165 52.1317 149.653 52.7019 151.376C52.9514 152.134 53.2151 152.921 53.6214 153.7C53.9065 154.243 54.1702 154.522 54.4054 154.53C54.4054 154.53 54.4054 154.53 54.4125 154.53C54.8188 154.53 55.2679 153.764 55.7525 152.956C56.1588 152.27 56.6221 151.483 57.1923 150.933C57.4988 150.639 57.7982 150.525 58.0975 150.597C58.9671 150.811 59.5445 152.57 60.2216 154.615C60.5495 155.609 60.8845 156.639 61.2694 157.483C61.7683 158.591 62.3955 159.192 63.1511 159.263C64.0777 159.356 65.1682 158.627 66.1375 157.268C67.6843 155.094 69.2666 148.802 69.2808 148.744L69.5873 148.823C69.5232 149.081 67.9765 155.237 66.3941 157.461C65.4177 158.834 64.3057 159.599 63.3079 159.599L63.2936 159.592Z" fill="#17FFFF"/>
<path d="M69.5943 184.999L49.5941 173.823C48.3895 173.15 46.9141 174.023 46.9141 175.403V177.427C46.9141 178.721 47.6054 179.915 48.7245 180.566L68.7817 192.129C69.9863 192.822 71.4831 191.95 71.4831 190.563L71.4546 188.16C71.4546 186.851 70.749 185.643 69.6014 184.999H69.5943Z" fill="black"/>
<path d="M90.165 202.919L90.2007 139.599C90.2007 138.004 91.0631 136.531 92.453 135.752L116.815 122.136C117.507 121.75 118.269 121.786 118.882 122.101L118.918 122.115C118.961 122.136 118.996 122.158 119.039 122.179L121.912 123.474C122.603 123.831 123.102 124.546 123.102 125.433V188.296C123.102 189.876 122.261 191.328 120.9 192.114L96.473 206.202C95.7175 206.638 94.8622 206.559 94.2135 206.152L91.3482 204.864C90.664 204.507 90.165 203.792 90.165 202.912V202.919Z" fill="#8DA2B7"/>
<path d="M95.4821 137.125L119.844 123.509C121.306 122.694 123.109 123.752 123.109 125.433V188.296C123.109 189.876 122.268 191.328 120.906 192.114L96.48 206.202C95.0188 207.045 93.187 205.987 93.187 204.292L93.2226 140.972C93.2226 139.377 94.0851 137.904 95.475 137.125H95.4821Z" fill="#DCEAFF"/>
<path d="M97.8913 142.409L117.621 131.382C118.804 130.717 120.265 131.583 120.265 132.941V183.834C120.265 185.114 119.588 186.294 118.483 186.93L98.7038 198.336C97.5206 199.022 96.0381 198.157 96.0381 196.791L96.0666 145.527C96.0666 144.232 96.7651 143.038 97.8913 142.409Z" fill="#213147"/>
<path d="M100.578 106C101.224 100.382 94.5358 94.9927 85.6392 93.9632C76.7427 92.9336 69.007 96.6534 68.361 102.272C67.7151 107.89 74.4035 113.279 83.3 114.308C92.1966 115.338 99.9323 111.618 100.578 106Z" fill="#BFBFBF"/>
<path d="M87.4708 96.4648C78.7038 94.7987 70.2504 97.8735 68.5896 103.337C68.5112 103.608 68.4471 103.873 68.4043 104.145C69.167 108.571 74.3131 112.661 81.455 114.02C90.2221 115.686 98.6755 112.611 100.336 107.148C100.415 106.876 100.479 106.612 100.522 106.34C99.7589 101.914 94.6127 97.8235 87.4708 96.4648Z" fill="black"/>
<path d="M98.3259 100.233C98.2831 96.1001 93.6644 92.1099 87.0428 90.8514C79.5231 89.4212 72.2672 92.0599 70.8416 96.7508C70.7276 97.1298 70.6492 97.516 70.6207 97.895C70.5565 98.6601 70.5922 101.456 70.5993 102.035C70.6777 106.154 75.2893 110.116 81.8824 111.374C89.4021 112.804 96.658 110.166 98.0836 105.475C98.1976 105.11 98.2689 104.738 98.3045 104.374C98.3758 103.594 98.333 100.798 98.333 100.233H98.3259Z" fill="#FFAE0E"/>
<path d="M98.294 100.946C98.848 96.128 93.1089 91.5063 85.4755 90.6229C77.842 89.7396 71.2049 92.929 70.6509 97.7468C70.097 102.565 75.8361 107.186 83.4695 108.07C91.1029 108.953 97.7401 105.764 98.294 100.946Z" fill="#FFC94A"/>
<path d="M82.4815 104.273C78.4615 103.508 75.8171 100.855 76.5798 98.3525C77.3424 95.8497 81.227 94.4339 85.247 95.199C86.0809 95.3563 86.865 95.5995 87.592 95.9212C87.6562 95.9141 87.7203 95.907 87.7916 95.8926C87.7773 95.864 87.7702 95.8354 87.7559 95.814V95.8068C87.6633 95.5351 87.8272 95.1847 88.1551 94.9487C88.4259 94.7485 88.8037 94.6412 89.1957 94.6699C89.3383 94.677 89.4737 94.6985 89.6234 94.7271C90.329 94.8629 91.1416 95.2348 91.8401 95.7568C92.7168 96.4075 93.1516 96.9295 93.2015 97.4015C93.2442 97.6875 93.0518 97.9878 92.6812 98.1809C92.3248 98.3668 91.8258 98.4169 91.3055 98.3168C91.1986 98.2953 91.0846 98.2667 90.9776 98.2381C90.8992 98.3239 90.8208 98.4097 90.7638 98.4956C91.2841 99.3608 91.4196 100.276 91.1558 101.141C90.3932 103.644 86.5086 105.06 82.4886 104.295L82.4815 104.273Z" fill="#FFAE0E"/>
<path d="M98.3259 87.2045C98.2831 83.0713 93.6644 79.0811 87.0428 77.8226C79.5231 76.3924 72.2672 79.0311 70.8416 83.722C70.7276 84.101 70.6492 84.4872 70.6207 84.8662C70.5565 85.6313 70.5922 88.4273 70.5993 89.0065C70.6777 93.1254 75.2893 97.0869 81.8824 98.3455C89.4021 99.7757 96.658 97.137 98.0836 92.4461C98.1976 92.0814 98.2689 91.7095 98.3045 91.3448C98.3758 90.5654 98.333 87.7694 98.333 87.2045H98.3259Z" fill="#FFAE0E"/>
<path d="M98.2872 87.9104C98.8411 83.0926 93.1021 78.4709 85.4686 77.5875C77.8352 76.7042 71.198 79.8936 70.6441 84.7114C70.0902 89.5292 75.8292 94.1509 83.4627 95.0343C91.0961 95.9177 97.7333 92.7282 98.2872 87.9104Z" fill="#FFC94A"/>
<path d="M82.4815 91.2446C78.4615 90.4795 75.8171 87.8265 76.5798 85.3237C77.3424 82.8209 81.227 81.4051 85.247 82.1702C86.0809 82.3275 86.865 82.5707 87.592 82.8924C87.6562 82.8853 87.7203 82.8781 87.7916 82.8638C87.7773 82.8352 87.7702 82.8066 87.7559 82.7852V82.778C87.6633 82.5063 87.8272 82.1559 88.1551 81.9199C88.4259 81.7197 88.8037 81.6124 89.1957 81.641C89.3383 81.6482 89.4737 81.6696 89.6234 81.6983C90.329 81.8341 91.1416 82.206 91.8401 82.728C92.7168 83.3787 93.1516 83.9007 93.2015 84.3727C93.2442 84.6587 93.0518 84.959 92.6812 85.1521C92.3248 85.338 91.8258 85.3881 91.3055 85.288C91.1986 85.2665 91.0846 85.2379 90.9776 85.2093C90.8992 85.2951 90.8208 85.3809 90.7638 85.4667C91.2841 86.332 91.4196 87.2473 91.1558 88.1126C90.3932 90.6153 86.5086 92.0312 82.4886 91.2661L82.4815 91.2446Z" fill="#FFAE0E"/>
<path d="M98.3259 56.6918C98.2831 52.5586 93.6644 48.5684 87.0428 47.3099C79.5231 45.8797 72.2672 48.5184 70.8416 53.2093C70.7276 53.5883 70.6492 53.9745 70.6207 54.3535C70.5565 55.1186 70.5922 57.9146 70.5993 58.4938C70.6777 62.6127 75.2893 66.5742 81.8824 67.8328C89.4021 69.263 96.658 66.6243 98.0836 61.9334C98.1976 61.5687 98.2689 61.1968 98.3045 60.8321C98.3758 60.0527 98.333 57.2567 98.333 56.6918H98.3259Z" fill="#FFAE0E"/>
<path d="M98.2877 57.399C98.8416 52.5812 93.1025 47.9595 85.4691 47.0761C77.8357 46.1927 71.1985 49.3822 70.6446 54.2C70.0907 59.0177 75.8297 63.6395 83.4631 64.5228C91.0966 65.4062 97.7337 62.2168 98.2877 57.399Z" fill="#FFC94A"/>
<path d="M82.4815 60.7322C78.4615 59.967 75.8171 57.3141 76.5798 54.8113C77.3424 52.3085 81.227 50.8926 85.247 51.6578C86.0809 51.8151 86.865 52.0582 87.592 52.38C87.6562 52.3728 87.7203 52.3657 87.7916 52.3514C87.7773 52.3228 87.7702 52.2942 87.7559 52.2727V52.2656C87.6633 51.9938 87.8272 51.6435 88.1551 51.4075C88.4259 51.2072 88.8037 51.1 89.1957 51.1286C89.3383 51.1357 89.4737 51.1572 89.6234 51.1858C90.329 51.3217 91.1416 51.6935 91.8401 52.2155C92.7168 52.8662 93.1516 53.3883 93.2015 53.8602C93.2442 54.1462 93.0518 54.4466 92.6812 54.6397C92.3248 54.8256 91.8258 54.8756 91.3055 54.7755C91.1986 54.7541 91.0846 54.7255 90.9776 54.6969C90.8992 54.7827 90.8208 54.8685 90.7638 54.9543C91.2841 55.8195 91.4196 56.7349 91.1558 57.6001C90.3932 60.1029 86.5086 61.5188 82.4886 60.7536L82.4815 60.7322Z" fill="#FFAE0E"/>
<path d="M56.0875 161.509C55.6527 161.509 55.2037 161.223 54.7261 160.644C54.5123 160.386 54.3127 160.129 54.1131 159.871C53.3861 158.92 52.7518 158.105 51.9178 158.048C51.2835 158.005 50.5351 158.427 49.6441 159.328L49.416 159.106C50.3782 158.134 51.1979 157.683 51.9392 157.733C52.9157 157.798 53.6213 158.706 54.3626 159.678C54.5551 159.929 54.7546 160.186 54.9613 160.443C55.4246 161.001 55.8238 161.244 56.1802 161.187C56.9713 161.065 57.7411 159.557 58.8103 156.99C59.7369 154.758 60.5708 153.679 61.3477 153.722C61.9536 153.743 62.4668 154.401 62.9087 155.731C63.0726 156.224 63.4005 156.811 63.9921 156.789C65.1254 156.746 66.8788 154.537 67.7412 151.047C68.9244 146.256 69.5659 144.304 69.573 144.282L69.8724 144.383C69.8724 144.383 69.2238 146.342 68.0477 151.119C67.2352 154.415 65.4604 157.04 64.0063 157.097C63.5644 157.118 62.9657 156.904 62.6093 155.824C62.2244 154.665 61.7825 154.043 61.3406 154.029C60.9201 154.022 60.1717 154.537 59.1025 157.104C57.9407 159.9 57.178 161.352 56.2301 161.495C56.1802 161.502 56.1303 161.509 56.0804 161.509H56.0875Z" fill="white"/>
<g opacity="0.6">
<path d="M108.44 164.977C108.383 165.013 108.319 165.041 108.262 165.063C108.191 165.091 107.556 165.334 106.637 165.47C106.102 165.549 105.575 165.57 105.069 165.535C104.435 165.492 103.836 165.37 103.28 165.163C101.883 164.641 100.771 163.611 99.9797 162.095C99.5164 161.208 99.16 160.143 98.9177 158.934C98.654 157.619 98.5186 156.088 98.5186 154.401C98.5186 153.979 98.768 153.457 99.1529 153.064L106.48 145.634C107.015 145.09 107.642 144.976 107.884 145.376C108.12 145.777 107.884 146.549 107.343 147.093L100.657 153.872C100.721 156.489 101.142 158.584 101.918 160.107C102.581 161.401 103.501 162.295 104.648 162.746C105.668 163.146 106.694 163.132 107.371 163.046C107.827 162.989 108.198 162.889 108.412 162.824C108.633 162.631 109.003 162.288 109.467 161.795C110.151 161.073 111.184 159.864 112.218 158.255C113.373 156.446 114.299 154.494 114.962 152.456C115.739 150.075 116.16 147.565 116.224 144.983L113.829 145.291L108.554 157.676C108.39 158.062 108.098 158.42 107.77 158.656C107.442 158.891 107.107 158.963 106.872 158.863L104.1 157.662C103.686 157.483 103.686 156.803 104.1 156.153C104.513 155.502 105.19 155.116 105.603 155.295L107.385 156.067L112.446 144.182C112.717 143.553 113.301 143.024 113.8 142.959L117.72 142.459C118.105 142.409 118.355 142.652 118.355 143.074C118.355 146.22 117.863 149.302 116.894 152.241C116.102 154.637 114.998 156.939 113.601 159.085C111.199 162.782 108.768 164.741 108.668 164.82C108.59 164.884 108.512 164.934 108.433 164.977H108.44Z" fill="#00DF44"/>
<path d="M106.528 184.959C108.762 181.99 109.205 178.547 107.517 177.269C105.83 175.992 102.651 177.363 100.418 180.333C98.1838 183.302 97.7409 186.745 99.4283 188.023C101.116 189.3 104.294 187.929 106.528 184.959Z" fill="#FFBD45"/>
<path d="M103.473 182.632L106.794 184.57C105.875 185.9 104.691 187.016 103.473 187.716C100.693 189.311 98.4048 188.324 98.4048 185.535C98.4048 182.747 100.693 179.143 103.473 177.548C106.252 175.953 108.54 176.94 108.54 179.729L103.473 182.632Z" fill="#0048E7"/>
<path d="M103.473 182.632L103.822 187.502C103.708 187.573 103.587 187.645 103.473 187.716C100.693 189.311 98.4048 188.324 98.4048 185.535C98.4048 182.747 100.693 179.143 103.473 177.548C106.252 175.953 108.54 176.94 108.54 179.729L103.473 182.632Z" fill="#00E7C8"/>
<path d="M104.906 183.731C105.954 182.338 106.162 180.722 105.37 180.123C104.578 179.523 103.087 180.167 102.039 181.56C100.991 182.954 100.783 184.569 101.575 185.169C102.367 185.768 103.858 185.125 104.906 183.731Z" fill="#213147"/>
<path d="M111.592 176.994C111.939 176.514 112.016 175.977 111.764 175.794C111.512 175.611 111.027 175.851 110.681 176.331C110.334 176.811 110.257 177.348 110.509 177.531C110.761 177.714 111.246 177.474 111.592 176.994Z" fill="#00E7C8"/>
<path d="M114.066 175.373C114.412 174.893 114.489 174.356 114.237 174.173C113.985 173.989 113.5 174.23 113.154 174.71C112.807 175.189 112.731 175.727 112.982 175.91C113.234 176.093 113.719 175.852 114.066 175.373Z" fill="#00E7C8"/>
<path d="M116.543 173.738C116.89 173.258 116.966 172.721 116.715 172.538C116.463 172.355 115.978 172.595 115.631 173.075C115.285 173.555 115.208 174.092 115.46 174.275C115.712 174.458 116.197 174.218 116.543 173.738Z" fill="#0048E7"/>
<path d="M119.022 172.114C119.369 171.634 119.445 171.097 119.194 170.913C118.942 170.73 118.457 170.971 118.11 171.451C117.764 171.93 117.687 172.468 117.939 172.651C118.191 172.834 118.676 172.593 119.022 172.114Z" fill="#00E7C8"/>
<path d="M111.593 179.171C111.94 178.691 112.017 178.154 111.765 177.971C111.513 177.788 111.028 178.028 110.682 178.508C110.335 178.988 110.258 179.525 110.51 179.708C110.762 179.891 111.247 179.651 111.593 179.171Z" fill="#00E7C8"/>
<path d="M114.067 177.542C114.413 177.062 114.49 176.525 114.238 176.342C113.986 176.159 113.501 176.399 113.155 176.879C112.808 177.359 112.731 177.896 112.983 178.079C113.235 178.262 113.72 178.022 114.067 177.542Z" fill="#0048E7"/>
<path d="M116.544 175.915C116.891 175.435 116.967 174.898 116.716 174.715C116.464 174.532 115.979 174.772 115.632 175.252C115.286 175.732 115.209 176.269 115.461 176.452C115.713 176.635 116.198 176.394 116.544 175.915Z" fill="#FFBD45"/>
<path d="M119.016 174.29C119.363 173.81 119.44 173.273 119.188 173.09C118.936 172.907 118.451 173.147 118.104 173.627C117.758 174.107 117.681 174.644 117.933 174.827C118.185 175.01 118.67 174.77 119.016 174.29Z" fill="#FFBD45"/>
<path d="M111.594 181.34C111.941 180.861 112.018 180.323 111.766 180.14C111.514 179.957 111.029 180.198 110.683 180.677C110.336 181.157 110.259 181.694 110.511 181.877C110.763 182.06 111.248 181.82 111.594 181.34Z" fill="#00E7C8"/>
<path d="M114.068 179.719C114.415 179.239 114.491 178.702 114.24 178.519C113.988 178.336 113.503 178.576 113.156 179.056C112.81 179.535 112.733 180.073 112.985 180.256C113.237 180.439 113.722 180.198 114.068 179.719Z" fill="#FFBD45"/>
<path d="M116.544 178.088C116.891 177.609 116.967 177.071 116.716 176.888C116.464 176.705 115.979 176.946 115.632 177.425C115.286 177.905 115.209 178.442 115.461 178.625C115.713 178.809 116.198 178.568 116.544 178.088Z" fill="#FFBD45"/>
<path d="M119.017 176.46C119.364 175.98 119.441 175.443 119.189 175.26C118.937 175.077 118.452 175.317 118.105 175.797C117.759 176.276 117.682 176.814 117.934 176.997C118.186 177.18 118.671 176.939 119.017 176.46Z" fill="#FFBD45"/>
</g>
<path d="M52.4308 176.325C52.4308 176.325 43.9204 179.45 43.9204 201.067L62.2955 210.921C62.2955 210.921 59.5442 192.787 68.632 185.493L52.438 176.325H52.4308Z" fill="white"/>
<path d="M243.766 105.082H158.234V202.018H158.255C158.341 202.783 158.768 203.52 159.538 203.949L198.534 225.745C200.066 226.603 201.934 226.603 203.466 225.745L242.461 203.949C243.231 203.52 243.659 202.783 243.744 202.018H243.766V105.082Z" fill="#DCEAFF"/>
<path d="M201.356 226.374C202.083 226.324 202.803 226.117 203.466 225.745L242.462 203.949C243.231 203.52 243.659 202.783 243.745 202.018H243.766V105.082H201.356V226.374Z" fill="#B1C5DD"/>
<path d="M159.538 107.97L198.534 129.766C200.066 130.624 201.934 130.624 203.466 129.766L242.461 107.97C244.179 107.012 244.201 104.531 242.497 103.544L203.53 80.976C201.962 80.0679 200.03 80.0679 198.462 80.976L159.495 103.544C157.792 104.531 157.806 107.005 159.531 107.97H159.538Z" fill="white"/>
<path d="M194.072 202.919L194.036 139.599C194.036 138.004 193.174 136.531 191.784 135.752L167.421 122.136C166.73 121.75 165.967 121.786 165.354 122.101L165.319 122.115C165.276 122.136 165.24 122.158 165.198 122.179L162.325 123.474C161.634 123.831 161.135 124.546 161.135 125.433V188.296C161.135 189.876 161.976 191.328 163.337 192.114L187.764 206.202C188.519 206.638 189.375 206.559 190.023 206.152L192.888 204.864C193.573 204.507 194.072 203.792 194.072 202.912V202.919Z" fill="#B1C5DD"/>
<path d="M188.755 137.125L164.392 123.509C162.931 122.694 161.128 123.752 161.128 125.433V188.296C161.128 189.876 161.969 191.328 163.33 192.114L187.757 206.202C189.218 207.045 191.05 205.987 191.05 204.292L191.014 140.972C191.014 139.377 190.152 137.904 188.762 137.125H188.755Z" fill="#EBF4FF"/>
<path d="M186.488 142.094L166.488 130.917C165.284 130.245 163.808 131.118 163.808 132.498V160.265C163.808 161.559 164.499 162.753 165.619 163.404L185.676 174.967C186.88 175.66 188.377 174.788 188.377 173.401L188.349 145.255C188.349 143.946 187.643 142.738 186.495 142.094H186.488Z" fill="#00DF44"/>
<path d="M166.631 131.018H166.466V163.625H166.631V131.018Z" fill="#55F25D"/>
<path d="M170.452 133.256H170.287V165.864H170.452V133.256Z" fill="#55F25D"/>
<path d="M174.272 135.494H174.107V168.102H174.272V135.494Z" fill="#55F25D"/>
<path d="M178.085 137.725H177.92V170.333H178.085V137.725Z" fill="#55F25D"/>
<path d="M181.906 139.963H181.741V172.571H181.906V139.963Z" fill="#55F25D"/>
<path d="M185.719 142.194H185.554V174.802H185.719V142.194Z" fill="#55F25D"/>
<path d="M163.864 134.009L163.781 134.151L188.331 148.526L188.413 148.384L163.864 134.009Z" fill="#55F25D"/>
<path d="M163.863 138.737L163.78 138.879L188.33 153.254L188.413 153.112L163.863 138.737Z" fill="#55F25D"/>
<path d="M163.862 143.465L163.779 143.607L188.329 157.982L188.412 157.84L163.862 143.465Z" fill="#55F25D"/>
<path d="M163.868 148.186L163.786 148.328L188.335 162.703L188.418 162.561L163.868 148.186Z" fill="#55F25D"/>
<path d="M163.861 152.91L163.778 153.052L188.328 167.427L188.411 167.285L163.861 152.91Z" fill="#55F25D"/>
<path d="M163.86 157.638L163.778 157.781L188.327 172.156L188.41 172.013L163.86 157.638Z" fill="#55F25D"/>
<path d="M164.122 133.134C164.122 131.754 165.597 130.882 166.802 131.554L186.802 142.731C187.336 143.031 187.778 143.46 188.092 143.961C187.793 143.181 187.237 142.509 186.488 142.094L166.488 130.917C165.284 130.245 163.808 131.118 163.808 132.498V160.265C163.808 160.958 164.008 161.616 164.364 162.188C164.207 161.781 164.122 161.351 164.122 160.901V133.134Z" fill="#006019"/>
<path d="M180.187 159.592C180.123 159.592 180.059 159.592 180.002 159.585C179.125 159.499 178.412 158.834 177.864 157.619C177.479 156.753 177.137 155.724 176.809 154.715C176.217 152.928 175.611 151.076 174.913 150.904C174.727 150.861 174.528 150.94 174.3 151.161C173.765 151.683 173.316 152.449 172.917 153.121C172.34 154.093 171.883 154.866 171.292 154.851C170.921 154.844 170.586 154.522 170.237 153.85C169.816 153.042 169.538 152.213 169.296 151.476C168.719 149.738 168.298 148.48 166.559 148.48V148.165C168.526 148.165 169.025 149.653 169.595 151.376C169.845 152.134 170.109 152.921 170.515 153.7C170.8 154.243 171.064 154.522 171.299 154.53C171.299 154.53 171.299 154.53 171.306 154.53C171.712 154.53 172.161 153.764 172.646 152.956C173.052 152.27 173.516 151.483 174.086 150.933C174.392 150.639 174.692 150.525 174.991 150.597C175.861 150.811 176.438 152.57 177.115 154.615C177.443 155.609 177.778 156.639 178.163 157.483C178.662 158.591 179.289 159.192 180.045 159.263C180.971 159.356 182.062 158.627 183.031 157.268C184.578 155.094 186.16 148.802 186.174 148.744L186.481 148.823C186.417 149.081 184.87 155.237 183.288 157.461C182.311 158.834 181.199 159.599 180.201 159.599L180.187 159.592Z" fill="#17FFFF"/>
<path d="M186.488 184.999L166.488 173.823C165.284 173.15 163.808 174.023 163.808 175.403V177.427C163.808 178.721 164.499 179.915 165.619 180.566L185.676 192.129C186.88 192.822 188.377 191.95 188.377 190.563L188.349 188.16C188.349 186.851 187.643 185.643 186.495 184.999H186.488Z" fill="black"/>
<path d="M207.059 202.919L207.094 139.599C207.094 138.004 207.957 136.531 209.347 135.752L233.709 122.136C234.4 121.75 235.163 121.786 235.776 122.101L235.812 122.115C235.854 122.136 235.89 122.158 235.933 122.179L238.805 123.474C239.497 123.831 239.996 124.546 239.996 125.433V188.296C239.996 189.876 239.154 191.328 237.793 192.114L213.367 206.202C212.611 206.638 211.756 206.559 211.107 206.152L208.242 204.864C207.558 204.507 207.059 203.792 207.059 202.912V202.919Z" fill="#8DA2B7"/>
<path d="M212.376 137.125L236.738 123.509C238.199 122.694 240.002 123.752 240.002 125.433V188.296C240.002 189.876 239.161 191.328 237.8 192.114L213.374 206.202C211.912 207.045 210.081 205.987 210.081 204.292L210.116 140.972C210.116 139.377 210.979 137.904 212.369 137.125H212.376Z" fill="#DCEAFF"/>
<path d="M214.785 142.409L234.514 131.382C235.697 130.717 237.159 131.583 237.159 132.941V183.834C237.159 185.114 236.481 186.294 235.377 186.93L215.597 198.336C214.414 199.022 212.932 198.157 212.932 196.791L212.96 145.527C212.96 144.232 213.659 143.038 214.785 142.409Z" fill="#213147"/>
<path d="M217.474 106C218.12 100.382 211.431 94.993 202.535 93.9634C193.638 92.9338 185.902 96.6536 185.257 102.272C184.611 107.89 191.299 113.279 200.196 114.309C209.092 115.338 216.828 111.618 217.474 106Z" fill="#BFBFBF"/>
<path d="M204.364 96.4648C195.597 94.7987 187.144 97.8735 185.483 103.337C185.405 103.608 185.341 103.873 185.298 104.145C186.061 108.571 191.207 112.661 198.349 114.02C207.116 115.686 215.569 112.611 217.23 107.148C217.308 106.876 217.372 106.612 217.415 106.34C216.652 101.914 211.506 97.8235 204.364 96.4648Z" fill="black"/>
<path d="M215.219 100.233C215.177 96.1001 210.558 92.1099 203.936 90.8514C196.417 89.4212 189.161 92.0599 187.735 96.7508C187.621 97.1298 187.543 97.516 187.514 97.895C187.45 98.6601 187.486 101.456 187.493 102.035C187.571 106.154 192.183 110.116 198.776 111.374C206.296 112.804 213.552 110.166 214.977 105.475C215.091 105.11 215.162 104.738 215.198 104.374C215.269 103.594 215.227 100.798 215.227 100.233H215.219Z" fill="#FFAE0E"/>
<path d="M215.19 100.946C215.744 96.128 210.005 91.5063 202.371 90.6229C194.738 89.7396 188.101 92.929 187.547 97.7468C186.993 102.565 192.732 107.186 200.365 108.07C207.999 108.953 214.636 105.764 215.19 100.946Z" fill="#FFC94A"/>
<path d="M199.375 104.273C195.355 103.508 192.711 100.855 193.473 98.3525C194.236 95.8497 198.121 94.4339 202.141 95.199C202.974 95.3563 203.759 95.5995 204.486 95.9212C204.55 95.9141 204.614 95.907 204.685 95.8926C204.671 95.864 204.664 95.8354 204.649 95.814V95.8068C204.557 95.5351 204.721 95.1847 205.049 94.9487C205.319 94.7485 205.697 94.6412 206.089 94.6699C206.232 94.677 206.367 94.6985 206.517 94.7271C207.223 94.8629 208.035 95.2348 208.734 95.7568C209.61 96.4075 210.045 96.9295 210.095 97.4015C210.138 97.6875 209.945 97.9878 209.575 98.1809C209.218 98.3668 208.719 98.4169 208.199 98.3168C208.092 98.2953 207.978 98.2667 207.871 98.2381C207.793 98.3239 207.714 98.4097 207.657 98.4956C208.178 99.3608 208.313 100.276 208.049 101.141C207.287 103.644 203.402 105.06 199.382 104.295L199.375 104.273Z" fill="#FFAE0E"/>
<path d="M215.219 87.2045C215.177 83.0713 210.558 79.0811 203.936 77.8226C196.417 76.3924 189.161 79.0311 187.735 83.722C187.621 84.101 187.543 84.4872 187.514 84.8662C187.45 85.6313 187.486 88.4273 187.493 89.0065C187.571 93.1254 192.183 97.0869 198.776 98.3455C206.296 99.7757 213.552 97.137 214.977 92.4461C215.091 92.0814 215.162 91.7095 215.198 91.3448C215.269 90.5654 215.227 87.7694 215.227 87.2045H215.219Z" fill="#FFAE0E"/>
<path d="M215.183 87.9107C215.737 83.0929 209.998 78.4712 202.364 77.5878C194.731 76.7044 188.094 79.8939 187.54 84.7117C186.986 89.5295 192.725 94.1512 200.358 95.0346C207.992 95.9179 214.629 92.7285 215.183 87.9107Z" fill="#FFC94A"/>
<path d="M199.375 91.2446C195.355 90.4795 192.711 87.8265 193.473 85.3237C194.236 82.8209 198.121 81.4051 202.141 82.1702C202.974 82.3275 203.759 82.5707 204.486 82.8924C204.55 82.8853 204.614 82.8781 204.685 82.8638C204.671 82.8352 204.664 82.8066 204.649 82.7852V82.778C204.557 82.5063 204.721 82.1559 205.049 81.9199C205.319 81.7197 205.697 81.6124 206.089 81.641C206.232 81.6482 206.367 81.6696 206.517 81.6983C207.223 81.8341 208.035 82.206 208.734 82.728C209.61 83.3787 210.045 83.9007 210.095 84.3727C210.138 84.6587 209.945 84.959 209.575 85.1521C209.218 85.338 208.719 85.3881 208.199 85.288C208.092 85.2665 207.978 85.2379 207.871 85.2093C207.793 85.2951 207.714 85.3809 207.657 85.4667C208.178 86.332 208.313 87.2473 208.049 88.1126C207.287 90.6153 203.402 92.0312 199.382 91.2661L199.375 91.2446Z" fill="#FFAE0E"/>
<path d="M215.219 56.6918C215.177 52.5586 210.558 48.5684 203.936 47.3099C196.417 45.8797 189.161 48.5184 187.735 53.2093C187.621 53.5883 187.543 53.9745 187.514 54.3535C187.45 55.1186 187.486 57.9146 187.493 58.4938C187.571 62.6127 192.183 66.5742 198.776 67.8328C206.296 69.263 213.552 66.6243 214.977 61.9334C215.091 61.5687 215.162 61.1968 215.198 60.8321C215.269 60.0527 215.227 57.2567 215.227 56.6918H215.219Z" fill="#FFAE0E"/>
<path d="M215.191 57.3992C215.744 52.5814 210.005 47.9597 202.372 47.0763C194.739 46.1929 188.101 49.3824 187.547 54.2002C186.993 59.018 192.733 63.6397 200.366 64.5231C207.999 65.4065 214.637 62.217 215.191 57.3992Z" fill="#FFC94A"/>
<path d="M199.375 60.7322C195.355 59.967 192.711 57.3141 193.473 54.8113C194.236 52.3085 198.121 50.8926 202.141 51.6578C202.974 51.8151 203.759 52.0582 204.486 52.38C204.55 52.3728 204.614 52.3657 204.685 52.3514C204.671 52.3228 204.664 52.2942 204.649 52.2727V52.2656C204.557 51.9938 204.721 51.6435 205.049 51.4075C205.319 51.2072 205.697 51.1 206.089 51.1286C206.232 51.1357 206.367 51.1572 206.517 51.1858C207.223 51.3217 208.035 51.6935 208.734 52.2155C209.61 52.8662 210.045 53.3883 210.095 53.8602C210.138 54.1462 209.945 54.4466 209.575 54.6397C209.218 54.8256 208.719 54.8756 208.199 54.7755C208.092 54.7541 207.978 54.7255 207.871 54.6969C207.793 54.7827 207.714 54.8685 207.657 54.9543C208.178 55.8195 208.313 56.7349 208.049 57.6001C207.287 60.1029 203.402 61.5188 199.382 60.7536L199.375 60.7322Z" fill="#FFAE0E"/>
<path d="M172.981 161.509C172.546 161.509 172.097 161.223 171.62 160.644C171.406 160.386 171.206 160.129 171.007 159.871C170.28 158.92 169.645 158.105 168.811 158.048C168.177 158.005 167.429 158.427 166.538 159.328L166.31 159.106C167.272 158.134 168.091 157.683 168.833 157.733C169.809 157.798 170.515 158.706 171.256 159.678C171.449 159.929 171.648 160.186 171.855 160.443C172.318 161.001 172.717 161.244 173.074 161.187C173.865 161.065 174.635 159.557 175.704 156.99C176.63 154.758 177.464 153.679 178.241 153.722C178.847 153.743 179.36 154.401 179.802 155.731C179.966 156.224 180.294 156.811 180.886 156.789C182.019 156.746 183.772 154.537 184.635 151.047C185.818 146.256 186.459 144.304 186.467 144.282L186.766 144.383C186.766 144.383 186.117 146.342 184.941 151.119C184.129 154.415 182.354 157.04 180.9 157.097C180.458 157.118 179.859 156.904 179.503 155.824C179.118 154.665 178.676 154.043 178.234 154.029C177.814 154.022 177.065 154.537 175.996 157.104C174.834 159.9 174.072 161.352 173.124 161.495C173.074 161.502 173.024 161.509 172.974 161.509H172.981Z" fill="white"/>
<g opacity="0.6">
<path d="M225.334 164.977C225.277 165.013 225.213 165.041 225.156 165.063C225.084 165.091 224.45 165.334 223.531 165.47C222.996 165.549 222.468 165.57 221.962 165.535C221.328 165.492 220.729 165.37 220.173 165.163C218.776 164.641 217.664 163.611 216.873 162.095C216.41 161.208 216.054 160.143 215.811 158.934C215.548 157.619 215.412 156.088 215.412 154.401C215.412 153.979 215.662 153.457 216.046 153.064L223.374 145.634C223.908 145.09 224.536 144.976 224.778 145.376C225.013 145.777 224.778 146.549 224.236 147.093L217.55 153.872C217.615 156.489 218.035 158.584 218.812 160.107C219.475 161.401 220.394 162.295 221.542 162.746C222.561 163.146 223.588 163.132 224.265 163.046C224.721 162.989 225.091 162.889 225.305 162.824C225.526 162.631 225.897 162.288 226.36 161.795C227.044 161.073 228.078 159.864 229.111 158.255C230.266 156.446 231.193 154.494 231.856 152.456C232.633 150.075 233.053 147.565 233.117 144.983L230.722 145.291L225.448 157.676C225.284 158.062 224.992 158.42 224.664 158.656C224.336 158.891 224.001 158.963 223.766 158.863L220.993 157.662C220.58 157.483 220.58 156.803 220.993 156.153C221.406 155.502 222.084 155.116 222.497 155.295L224.279 156.067L229.34 144.182C229.61 143.553 230.195 143.024 230.694 142.959L234.614 142.459C234.999 142.409 235.248 142.652 235.248 143.074C235.248 146.22 234.757 149.302 233.787 152.241C232.996 154.637 231.891 156.939 230.494 159.085C228.092 162.782 225.662 164.741 225.562 164.82C225.483 164.884 225.405 164.934 225.327 164.977H225.334Z" fill="#00DF44"/>
<path d="M223.428 184.968C225.662 181.999 226.104 178.556 224.417 177.278C222.73 176.001 219.551 177.372 217.317 180.342C215.084 183.311 214.641 186.754 216.328 188.032C218.016 189.309 221.194 187.938 223.428 184.968Z" fill="#FFBD45"/>
<path d="M220.366 182.632L223.687 184.57C222.768 185.9 221.584 187.016 220.366 187.716C217.586 189.311 215.298 188.324 215.298 185.535C215.298 182.747 217.586 179.143 220.366 177.548C223.145 175.953 225.433 176.94 225.433 179.729L220.366 182.632Z" fill="#0048E7"/>
<path d="M220.366 182.632L220.715 187.502C220.601 187.573 220.48 187.645 220.366 187.716C217.586 189.311 215.298 188.324 215.298 185.535C215.298 182.747 217.586 179.143 220.366 177.548C223.145 175.953 225.433 176.94 225.433 179.729L220.366 182.632Z" fill="#00E7C8"/>
<path d="M221.806 183.74C222.854 182.347 223.062 180.731 222.27 180.132C221.478 179.532 219.987 180.176 218.939 181.569C217.891 182.963 217.683 184.578 218.475 185.178C219.267 185.777 220.758 185.134 221.806 183.74Z" fill="#213147"/>
<path d="M228.482 176.99C228.828 176.51 228.905 175.973 228.653 175.789C228.401 175.606 227.916 175.847 227.57 176.327C227.223 176.806 227.147 177.343 227.398 177.527C227.65 177.71 228.135 177.469 228.482 176.99Z" fill="#00E7C8"/>
<path d="M230.948 175.361C231.294 174.881 231.371 174.344 231.119 174.161C230.868 173.978 230.383 174.218 230.036 174.698C229.69 175.178 229.613 175.715 229.865 175.898C230.116 176.081 230.601 175.841 230.948 175.361Z" fill="#00E7C8"/>
<path d="M233.426 173.733C233.772 173.254 233.849 172.716 233.597 172.533C233.345 172.35 232.86 172.591 232.514 173.07C232.167 173.55 232.09 174.087 232.342 174.27C232.594 174.454 233.079 174.213 233.426 173.733Z" fill="#0048E7"/>
<path d="M235.904 172.109C236.251 171.629 236.328 171.092 236.076 170.909C235.824 170.726 235.339 170.966 234.993 171.446C234.646 171.926 234.569 172.463 234.821 172.646C235.073 172.829 235.558 172.589 235.904 172.109Z" fill="#00E7C8"/>
<path d="M228.483 179.166C228.83 178.687 228.906 178.149 228.655 177.966C228.403 177.783 227.918 178.024 227.571 178.503C227.225 178.983 227.148 179.52 227.4 179.703C227.652 179.886 228.137 179.646 228.483 179.166Z" fill="#00E7C8"/>
<path d="M230.949 177.537C231.296 177.058 231.373 176.52 231.121 176.337C230.869 176.154 230.384 176.395 230.038 176.874C229.691 177.354 229.614 177.891 229.866 178.074C230.118 178.257 230.603 178.017 230.949 177.537Z" fill="#0048E7"/>
<path d="M233.426 175.903C233.773 175.423 233.85 174.886 233.598 174.703C233.346 174.52 232.861 174.76 232.515 175.24C232.168 175.72 232.091 176.257 232.343 176.44C232.595 176.623 233.08 176.383 233.426 175.903Z" fill="#FFBD45"/>
<path d="M235.905 174.286C236.252 173.806 236.329 173.269 236.077 173.086C235.825 172.903 235.34 173.143 234.994 173.623C234.647 174.102 234.57 174.64 234.822 174.823C235.074 175.006 235.559 174.765 235.905 174.286Z" fill="#FFBD45"/>
<path d="M228.477 181.336C228.824 180.856 228.901 180.319 228.649 180.136C228.397 179.953 227.912 180.193 227.565 180.673C227.219 181.152 227.142 181.69 227.394 181.873C227.646 182.056 228.131 181.815 228.477 181.336Z" fill="#00E7C8"/>
<path d="M230.95 179.714C231.297 179.234 231.374 178.697 231.122 178.514C230.87 178.331 230.385 178.571 230.039 179.051C229.692 179.531 229.615 180.068 229.867 180.251C230.119 180.434 230.604 180.194 230.95 179.714Z" fill="#FFBD45"/>
<path d="M233.434 178.084C233.78 177.604 233.857 177.067 233.605 176.884C233.353 176.701 232.868 176.941 232.522 177.421C232.175 177.9 232.099 178.438 232.35 178.621C232.602 178.804 233.087 178.563 233.434 178.084Z" fill="#FFBD45"/>
<path d="M235.907 176.455C236.253 175.975 236.33 175.438 236.078 175.255C235.827 175.072 235.342 175.312 234.995 175.792C234.649 176.272 234.572 176.809 234.824 176.992C235.075 177.175 235.56 176.935 235.907 176.455Z" fill="#FFBD45"/>
</g>
<path d="M169.325 176.325C169.325 176.325 160.814 179.45 160.814 201.067L179.19 210.921C179.19 210.921 176.438 192.787 185.526 185.493L169.332 176.325H169.325Z" fill="white"/>
<path d="M360.659 105.082H275.127V202.018H275.149C275.234 202.783 275.662 203.52 276.432 203.949L315.427 225.745C316.96 226.603 318.827 226.603 320.36 225.745L359.355 203.949C360.125 203.52 360.552 202.783 360.638 202.018H360.659V105.082Z" fill="#DCEAFF"/>
<path d="M318.25 226.374C318.977 226.324 319.697 226.117 320.36 225.745L359.355 203.949C360.125 203.52 360.553 202.783 360.638 202.018H360.66V105.082H318.25V226.374Z" fill="#B1C5DD"/>
<path d="M276.432 107.97L315.427 129.766C316.96 130.624 318.827 130.624 320.36 129.766L359.355 107.97C361.073 107.012 361.094 104.531 359.391 103.544L320.424 80.976C318.856 80.0679 316.924 80.0679 315.356 80.976L276.389 103.544C274.685 104.531 274.7 107.005 276.425 107.97H276.432Z" fill="white"/>
<path d="M310.966 202.919L310.93 139.599C310.93 138.004 310.068 136.531 308.678 135.752L284.315 122.136C283.624 121.75 282.861 121.786 282.248 122.101L282.213 122.115C282.17 122.136 282.134 122.158 282.092 122.179L279.219 123.474C278.528 123.831 278.029 124.546 278.029 125.433V188.296C278.029 189.876 278.87 191.328 280.231 192.114L304.658 206.202C305.413 206.638 306.269 206.559 306.917 206.152L309.783 204.864C310.467 204.507 310.966 203.792 310.966 202.912V202.919Z" fill="#B1C5DD"/>
<path d="M305.648 137.125L281.286 123.509C279.825 122.694 278.021 123.752 278.021 125.433V188.296C278.021 189.876 278.863 191.328 280.224 192.114L304.65 206.202C306.112 207.045 307.943 205.987 307.943 204.292L307.908 140.972C307.908 139.377 307.045 137.904 305.655 137.125H305.648Z" fill="#EBF4FF"/>
<path d="M303.382 142.094L283.382 130.917C282.177 130.245 280.702 131.118 280.702 132.498V160.265C280.702 161.559 281.393 162.753 282.512 163.404L302.569 174.967C303.774 175.66 305.271 174.788 305.271 173.401L305.242 145.255C305.242 143.946 304.537 142.738 303.389 142.094H303.382Z" fill="#00DF44"/>
<path d="M283.525 131.018H283.36V163.625H283.525V131.018Z" fill="#55F25D"/>
<path d="M287.345 133.256H287.181V165.864H287.345V133.256Z" fill="#55F25D"/>
<path d="M291.166 135.494H291.001V168.102H291.166V135.494Z" fill="#55F25D"/>
<path d="M294.979 137.725H294.814V170.333H294.979V137.725Z" fill="#55F25D"/>
<path d="M298.8 139.963H298.635V172.571H298.8V139.963Z" fill="#55F25D"/>
<path d="M302.613 142.194H302.448V174.802H302.613V142.194Z" fill="#55F25D"/>
<path d="M280.756 134.016L280.673 134.158L305.223 148.533L305.306 148.391L280.756 134.016Z" fill="#55F25D"/>
<path d="M280.762 138.737L280.68 138.879L305.229 153.254L305.312 153.112L280.762 138.737Z" fill="#55F25D"/>
<path d="M280.761 143.465L280.679 143.607L305.228 157.982L305.311 157.84L280.761 143.465Z" fill="#55F25D"/>
<path d="M280.761 148.193L280.678 148.335L305.228 162.71L305.31 162.568L280.761 148.193Z" fill="#55F25D"/>
<path d="M280.761 152.91L280.678 153.052L305.228 167.427L305.31 167.285L280.761 152.91Z" fill="#55F25D"/>
<path d="M280.76 157.638L280.677 157.781L305.227 172.156L305.31 172.013L280.76 157.638Z" fill="#55F25D"/>
<path d="M281.015 133.134C281.015 131.754 282.491 130.882 283.695 131.554L303.695 142.731C304.23 143.031 304.672 143.46 304.986 143.961C304.686 143.181 304.13 142.509 303.382 142.094L283.382 130.917C282.177 130.245 280.702 131.118 280.702 132.498V160.265C280.702 160.958 280.901 161.616 281.258 162.188C281.101 161.781 281.015 161.351 281.015 160.901V133.134Z" fill="#006019"/>
<path d="M297.081 159.592C297.017 159.592 296.952 159.592 296.895 159.585C296.019 159.499 295.306 158.834 294.757 157.619C294.372 156.753 294.03 155.724 293.702 154.715C293.111 152.928 292.505 151.076 291.806 150.904C291.621 150.861 291.421 150.94 291.193 151.161C290.659 151.683 290.21 152.449 289.811 153.121C289.233 154.093 288.777 154.866 288.185 154.851C287.815 154.844 287.48 154.522 287.131 153.85C286.71 153.042 286.432 152.213 286.19 151.476C285.612 149.738 285.192 148.48 283.453 148.48V148.165C285.42 148.165 285.919 149.653 286.489 151.376C286.738 152.134 287.002 152.921 287.409 153.7C287.694 154.243 287.957 154.522 288.193 154.53C288.193 154.53 288.193 154.53 288.2 154.53C288.606 154.53 289.055 153.764 289.54 152.956C289.946 152.27 290.409 151.483 290.979 150.933C291.286 150.639 291.585 150.525 291.885 150.597C292.754 150.811 293.332 152.57 294.009 154.615C294.337 155.609 294.672 156.639 295.056 157.483C295.555 158.591 296.183 159.192 296.938 159.263C297.865 159.356 298.955 158.627 299.925 157.268C301.471 155.094 303.054 148.802 303.068 148.744L303.374 148.823C303.31 149.081 301.764 155.237 300.181 157.461C299.205 158.834 298.093 159.599 297.095 159.599L297.081 159.592Z" fill="#17FFFF"/>
<path d="M303.382 184.999L283.382 173.823C282.177 173.15 280.702 174.023 280.702 175.403V177.427C280.702 178.721 281.393 179.915 282.512 180.566L302.569 192.129C303.774 192.822 305.271 191.95 305.271 190.563L305.242 188.16C305.242 186.851 304.537 185.643 303.389 184.999H303.382Z" fill="black"/>
<path d="M323.952 202.919L323.988 139.599C323.988 138.004 324.85 136.531 326.24 135.752L350.602 122.136C351.294 121.75 352.057 121.786 352.669 122.101L352.705 122.115C352.748 122.136 352.784 122.158 352.826 122.179L355.699 123.474C356.39 123.831 356.889 124.546 356.889 125.433V188.296C356.889 189.876 356.048 191.328 354.687 192.114L330.26 206.202C329.505 206.638 328.649 206.559 328.001 206.152L325.135 204.864C324.451 204.507 323.952 203.792 323.952 202.912V202.919Z" fill="#8DA2B7"/>
<path d="M329.269 137.125L353.632 123.509C355.093 122.694 356.896 123.752 356.896 125.433V188.296C356.896 189.876 356.055 191.328 354.694 192.114L330.267 206.202C328.806 207.045 326.974 205.987 326.974 204.292L327.01 140.972C327.01 139.377 327.872 137.904 329.262 137.125H329.269Z" fill="#DCEAFF"/>
<path d="M331.678 142.409L351.408 131.382C352.591 130.717 354.052 131.583 354.052 132.941V183.834C354.052 185.114 353.375 186.294 352.27 186.93L332.491 198.336C331.308 199.022 329.825 198.157 329.825 196.791L329.854 145.527C329.854 144.232 330.552 143.038 331.678 142.409Z" fill="#213147"/>
<path d="M334.37 106C335.016 100.382 328.327 94.9932 319.431 93.9636C310.534 92.9341 302.798 96.6539 302.153 102.272C301.507 107.89 308.195 113.279 317.092 114.309C325.988 115.338 333.724 111.619 334.37 106Z" fill="#BFBFBF"/>
<path d="M321.258 96.4648C312.491 94.7987 304.037 97.8735 302.377 103.337C302.298 103.608 302.234 103.873 302.191 104.145C302.954 108.571 308.1 112.661 315.242 114.02C324.009 115.686 332.463 112.611 334.123 107.148C334.202 106.876 334.266 106.612 334.309 106.34C333.546 101.914 328.4 97.8235 321.258 96.4648Z" fill="black"/>
<path d="M332.114 100.233C332.071 96.1001 327.452 92.1099 320.83 90.8514C313.311 89.4212 306.055 92.0599 304.629 96.7508C304.515 97.1298 304.437 97.516 304.408 97.895C304.344 98.6601 304.38 101.456 304.387 102.035C304.465 106.154 309.077 110.116 315.67 111.374C323.19 112.804 330.446 110.166 331.871 105.475C331.985 105.11 332.056 104.738 332.092 104.374C332.163 103.594 332.121 100.798 332.121 100.233H332.114Z" fill="#FFAE0E"/>
<path d="M332.086 100.946C332.639 96.1283 326.9 91.5066 319.267 90.6232C311.634 89.7398 304.996 92.9293 304.442 97.7471C303.889 102.565 309.628 107.187 317.261 108.07C324.894 108.953 331.532 105.764 332.086 100.946Z" fill="#FFC94A"/>
<path d="M316.269 104.273C312.249 103.508 309.604 100.855 310.367 98.3525C311.13 95.8497 315.014 94.4339 319.034 95.199C319.868 95.3563 320.652 95.5995 321.379 95.9212C321.443 95.9141 321.507 95.907 321.579 95.8926C321.564 95.864 321.557 95.8354 321.543 95.814V95.8068C321.45 95.5351 321.614 95.1847 321.942 94.9487C322.213 94.7485 322.591 94.6412 322.983 94.6699C323.125 94.677 323.261 94.6985 323.41 94.7271C324.116 94.8629 324.929 95.2348 325.627 95.7568C326.504 96.4075 326.939 96.9295 326.989 97.4015C327.031 97.6875 326.839 97.9878 326.468 98.1809C326.112 98.3668 325.613 98.4169 325.093 98.3168C324.986 98.2953 324.872 98.2667 324.765 98.2381C324.686 98.3239 324.608 98.4097 324.551 98.4956C325.071 99.3608 325.207 100.276 324.943 101.141C324.18 103.644 320.296 105.06 316.276 104.295L316.269 104.273Z" fill="#FFAE0E"/>
<path d="M332.114 87.2045C332.071 83.0713 327.452 79.0811 320.83 77.8226C313.311 76.3924 306.055 79.0311 304.629 83.722C304.515 84.101 304.437 84.4872 304.408 84.8662C304.344 85.6313 304.38 88.4273 304.387 89.0065C304.465 93.1254 309.077 97.0869 315.67 98.3455C323.19 99.7757 330.446 97.137 331.871 92.4461C331.985 92.0814 332.056 91.7095 332.092 91.3448C332.163 90.5654 332.121 87.7694 332.121 87.2045H332.114Z" fill="#FFAE0E"/>
<path d="M332.078 87.9109C332.632 83.0931 326.893 78.4714 319.26 77.588C311.626 76.7047 304.989 79.8941 304.435 84.7119C303.881 89.5297 309.62 94.1514 317.254 95.0348C324.887 95.9182 331.524 92.7287 332.078 87.9109Z" fill="#FFC94A"/>
<path d="M316.269 91.2446C312.249 90.4795 309.604 87.8265 310.367 85.3237C311.13 82.8209 315.014 81.4051 319.034 82.1702C319.868 82.3275 320.652 82.5707 321.379 82.8924C321.443 82.8853 321.507 82.8781 321.579 82.8638C321.564 82.8352 321.557 82.8066 321.543 82.7852V82.778C321.45 82.5063 321.614 82.1559 321.942 81.9199C322.213 81.7197 322.591 81.6124 322.983 81.641C323.125 81.6482 323.261 81.6696 323.41 81.6983C324.116 81.8341 324.929 82.206 325.627 82.728C326.504 83.3787 326.939 83.9007 326.989 84.3727C327.031 84.6587 326.839 84.959 326.468 85.1521C326.112 85.338 325.613 85.3881 325.093 85.288C324.986 85.2665 324.872 85.2379 324.765 85.2093C324.686 85.2951 324.608 85.3809 324.551 85.4667C325.071 86.332 325.207 87.2473 324.943 88.1126C324.18 90.6153 320.296 92.0312 316.276 91.2661L316.269 91.2446Z" fill="#FFAE0E"/>
<path d="M332.114 56.6918C332.071 52.5586 327.452 48.5684 320.83 47.3099C313.311 45.8797 306.055 48.5184 304.629 53.2093C304.515 53.5883 304.437 53.9745 304.408 54.3535C304.344 55.1186 304.38 57.9146 304.387 58.4938C304.465 62.6127 309.077 66.5742 315.67 67.8328C323.19 69.263 330.446 66.6243 331.871 61.9334C331.985 61.5687 332.056 61.1968 332.092 60.8321C332.163 60.0527 332.121 57.2567 332.121 56.6918H332.114Z" fill="#FFAE0E"/>
<path d="M332.087 57.3994C332.64 52.5817 326.901 47.9599 319.268 47.0766C311.635 46.1932 304.997 49.3827 304.443 54.2004C303.889 59.0182 309.629 63.6399 317.262 64.5233C324.895 65.4067 331.533 62.2172 332.087 57.3994Z" fill="#FFC94A"/>
<path d="M316.269 60.7322C312.249 59.967 309.604 57.3141 310.367 54.8113C311.13 52.3085 315.014 50.8926 319.034 51.6578C319.868 51.8151 320.652 52.0582 321.379 52.38C321.443 52.3728 321.507 52.3657 321.579 52.3514C321.564 52.3228 321.557 52.2942 321.543 52.2727V52.2656C321.45 51.9938 321.614 51.6435 321.942 51.4075C322.213 51.2072 322.591 51.1 322.983 51.1286C323.125 51.1357 323.261 51.1572 323.41 51.1858C324.116 51.3217 324.929 51.6935 325.627 52.2155C326.504 52.8662 326.939 53.3883 326.989 53.8602C327.031 54.1462 326.839 54.4466 326.468 54.6397C326.112 54.8256 325.613 54.8756 325.093 54.7755C324.986 54.7541 324.872 54.7255 324.765 54.6969C324.686 54.7827 324.608 54.8685 324.551 54.9543C325.071 55.8195 325.207 56.7349 324.943 57.6001C324.18 60.1029 320.296 61.5188 316.276 60.7536L316.269 60.7322Z" fill="#FFAE0E"/>
<path d="M289.875 161.509C289.44 161.509 288.991 161.223 288.513 160.644C288.299 160.386 288.1 160.129 287.9 159.871C287.173 158.92 286.539 158.105 285.705 158.048C285.071 158.005 284.322 158.427 283.431 159.328L283.203 159.106C284.165 158.134 284.985 157.683 285.726 157.733C286.703 157.798 287.408 158.706 288.15 159.678C288.342 159.929 288.542 160.186 288.748 160.443C289.212 161.001 289.611 161.244 289.967 161.187C290.758 161.065 291.528 159.557 292.597 156.99C293.524 154.758 294.358 153.679 295.135 153.722C295.741 153.743 296.254 154.401 296.696 155.731C296.86 156.224 297.188 156.811 297.779 156.789C298.912 156.746 300.666 154.537 301.528 151.047C302.712 146.256 303.353 144.304 303.36 144.282L303.66 144.383C303.66 144.383 303.011 146.342 301.835 151.119C301.022 154.415 299.247 157.04 297.793 157.097C297.352 157.118 296.753 156.904 296.396 155.824C296.012 154.665 295.57 154.043 295.128 154.029C294.707 154.022 293.959 154.537 292.89 157.104C291.728 159.9 290.965 161.352 290.017 161.495C289.967 161.502 289.917 161.509 289.867 161.509H289.875Z" fill="white"/>
<g opacity="0.6">
<path d="M342.228 164.977C342.171 165.013 342.107 165.041 342.05 165.063C341.978 165.091 341.344 165.334 340.425 165.47C339.89 165.549 339.363 165.57 338.856 165.535C338.222 165.492 337.623 165.37 337.067 165.163C335.67 164.641 334.558 163.611 333.767 162.095C333.304 161.208 332.948 160.143 332.705 158.934C332.442 157.619 332.306 156.088 332.306 154.401C332.306 153.979 332.556 153.457 332.941 153.064L340.268 145.634C340.802 145.09 341.43 144.976 341.672 145.376C341.907 145.777 341.672 146.549 341.13 147.093L334.444 153.872C334.509 156.489 334.929 158.584 335.706 160.107C336.369 161.401 337.288 162.295 338.436 162.746C339.455 163.146 340.482 163.132 341.159 163.046C341.615 162.989 341.986 162.889 342.199 162.824C342.42 162.631 342.791 162.288 343.254 161.795C343.938 161.073 344.972 159.864 346.006 158.255C347.16 156.446 348.087 154.494 348.75 152.456C349.527 150.075 349.947 147.565 350.011 144.983L347.616 145.291L342.342 157.676C342.178 158.062 341.886 158.42 341.558 158.656C341.23 158.891 340.895 158.963 340.66 158.863L337.887 157.662C337.474 157.483 337.474 156.803 337.887 156.153C338.301 155.502 338.978 155.116 339.391 155.295L341.173 156.067L346.234 144.182C346.504 143.553 347.089 143.024 347.588 142.959L351.508 142.459C351.893 142.409 352.142 142.652 352.142 143.074C352.142 146.22 351.651 149.302 350.681 152.241C349.89 154.637 348.785 156.939 347.388 159.085C344.986 162.782 342.556 164.741 342.456 164.82C342.378 164.884 342.299 164.934 342.221 164.977H342.228Z" fill="#00DF44"/>
<path d="M340.328 184.97C342.562 182.001 343.005 178.558 341.318 177.28C339.63 176.003 336.452 177.374 334.218 180.344C331.984 183.313 331.541 186.756 333.229 188.034C334.916 189.311 338.095 187.94 340.328 184.97Z" fill="#FFBD45"/>
<path d="M337.26 182.632L340.581 184.57C339.662 185.9 338.479 187.016 337.26 187.716C334.48 189.311 332.192 188.324 332.192 185.535C332.192 182.747 334.48 179.143 337.26 177.548C340.039 175.953 342.327 176.94 342.327 179.729L337.26 182.632Z" fill="#0048E7"/>
<path d="M337.26 182.632L337.609 187.502C337.495 187.573 337.374 187.645 337.26 187.716C334.48 189.311 332.192 188.324 332.192 185.535C332.192 182.747 334.48 179.143 337.26 177.548C340.039 175.953 342.327 176.94 342.327 179.729L337.26 182.632Z" fill="#00E7C8"/>
<path d="M338.707 183.742C339.755 182.349 339.962 180.733 339.171 180.134C338.379 179.534 336.887 180.178 335.839 181.571C334.791 182.965 334.583 184.58 335.375 185.18C336.167 185.779 337.659 185.136 338.707 183.742Z" fill="#213147"/>
<path d="M345.365 176.985C345.711 176.505 345.788 175.968 345.536 175.785C345.285 175.602 344.8 175.842 344.453 176.322C344.107 176.802 344.03 177.339 344.282 177.522C344.533 177.705 345.018 177.465 345.365 176.985Z" fill="#00E7C8"/>
<path d="M347.838 175.356C348.185 174.877 348.261 174.339 348.01 174.156C347.758 173.973 347.273 174.214 346.926 174.693C346.58 175.173 346.503 175.71 346.755 175.893C347.007 176.076 347.492 175.836 347.838 175.356Z" fill="#00E7C8"/>
<path d="M350.316 173.729C350.662 173.249 350.739 172.712 350.487 172.529C350.235 172.346 349.75 172.586 349.404 173.066C349.057 173.545 348.981 174.083 349.232 174.266C349.484 174.449 349.969 174.208 350.316 173.729Z" fill="#0048E7"/>
<path d="M352.795 172.104C353.141 171.625 353.218 171.087 352.966 170.904C352.714 170.721 352.229 170.962 351.883 171.441C351.536 171.921 351.46 172.458 351.711 172.641C351.963 172.824 352.448 172.584 352.795 172.104Z" fill="#00E7C8"/>
<path d="M345.366 179.162C345.712 178.682 345.789 178.145 345.537 177.962C345.286 177.779 344.801 178.019 344.454 178.499C344.108 178.978 344.031 179.516 344.283 179.699C344.534 179.882 345.019 179.641 345.366 179.162Z" fill="#00E7C8"/>
<path d="M347.839 177.533C348.186 177.053 348.262 176.516 348.01 176.333C347.759 176.15 347.274 176.39 346.927 176.87C346.581 177.349 346.504 177.887 346.756 178.07C347.008 178.253 347.493 178.012 347.839 177.533Z" fill="#0048E7"/>
<path d="M350.317 175.898C350.663 175.419 350.74 174.881 350.488 174.698C350.236 174.515 349.751 174.756 349.405 175.235C349.058 175.715 348.981 176.252 349.233 176.435C349.485 176.618 349.97 176.378 350.317 175.898Z" fill="#FFBD45"/>
<path d="M352.789 174.281C353.135 173.801 353.212 173.264 352.96 173.081C352.708 172.898 352.223 173.138 351.877 173.618C351.53 174.098 351.454 174.635 351.705 174.818C351.957 175.001 352.442 174.761 352.789 174.281Z" fill="#FFBD45"/>
<path d="M345.367 181.331C345.713 180.851 345.79 180.314 345.538 180.131C345.287 179.948 344.801 180.188 344.455 180.668C344.109 181.148 344.032 181.685 344.284 181.868C344.535 182.051 345.02 181.811 345.367 181.331Z" fill="#00E7C8"/>
<path d="M347.841 179.709C348.187 179.23 348.264 178.693 348.012 178.509C347.76 178.326 347.275 178.567 346.929 179.046C346.582 179.526 346.505 180.063 346.757 180.247C347.009 180.43 347.494 180.189 347.841 179.709Z" fill="#FFBD45"/>
<path d="M350.317 178.079C350.663 177.599 350.74 177.062 350.488 176.879C350.236 176.696 349.751 176.936 349.405 177.416C349.058 177.896 348.981 178.433 349.233 178.616C349.485 178.799 349.97 178.559 350.317 178.079Z" fill="#FFBD45"/>
<path d="M352.79 176.45C353.136 175.971 353.213 175.433 352.961 175.25C352.709 175.067 352.224 175.308 351.878 175.787C351.531 176.267 351.455 176.804 351.706 176.988C351.958 177.171 352.443 176.93 352.79 176.45Z" fill="#FFBD45"/>
</g>
<path d="M286.218 176.325C286.218 176.325 277.708 179.45 277.708 201.067L296.083 210.921C296.083 210.921 293.332 192.787 302.42 185.493L286.226 176.325H286.218Z" fill="white"/>
</svg>
