<svg width="438" height="278" viewBox="0 0 438 278" fill="none" xmlns="http://www.w3.org/2000/svg">
<path d="M130.841 245.844L177.375 219.022V165.224L130.779 191.183L130.841 245.844Z" fill="#00A000"/>
<path d="M84.1829 165.224L130.779 191.183L177.374 165.224L130.779 138.324L84.1829 165.224Z" fill="#00DF44"/>
<path d="M112.303 157.614L142.404 174.589L148.081 171.327L118.501 154.088L112.303 157.614Z" fill="black"/>
<path d="M130.841 245.844L84.1829 219.022V165.224L130.779 191.183L130.841 245.844Z" fill="#55F25D"/>
<path d="M125.801 237.131L89.2231 216.11V173.936L125.746 194.282L125.801 237.131Z" fill="#00DF44"/>
<path d="M121.654 209.152L93.3701 192.892V182.074L121.615 197.807L121.654 209.152Z" fill="#FFB200"/>
<path d="M113.795 158.452L118.501 155.719V154.088L112.303 157.614L113.795 158.452Z" fill="#006000"/>
<path d="M118.485 154.104L118.501 155.719L146.52 172.228L148.081 171.327L118.501 154.088L118.485 154.104Z" fill="#55F25D"/>
<path d="M95.9872 183.534L93.3701 182.074V192.892H95.9872V183.534Z" fill="black"/>
<path d="M121.654 207.382L95.9872 192.892H93.3701L121.654 209.152V207.382Z" fill="#AA6D00"/>
<path d="M100.938 204.189C101.704 203.542 101.588 202.143 100.678 201.065C99.7678 199.987 98.4082 199.637 97.6413 200.285C96.8744 200.932 96.9906 202.331 97.9008 203.409C98.811 204.487 100.171 204.836 100.938 204.189Z" fill="#AA6D00"/>
<path d="M100.374 203.829C101 203.301 100.906 202.161 100.165 201.282C99.4234 200.404 98.3148 200.12 97.6889 200.649C97.0629 201.177 97.1565 202.317 97.898 203.196C98.6394 204.074 99.748 204.358 100.374 203.829Z" fill="#FFB200"/>
<path d="M100.93 211.02C101.697 210.373 101.58 208.974 100.67 207.896C99.76 206.818 98.4004 206.468 97.6335 207.116C96.8666 207.763 96.9828 209.162 97.893 210.24C98.8032 211.318 100.163 211.667 100.93 211.02Z" fill="#AA6D00"/>
<path d="M100.366 210.652C100.992 210.124 100.899 208.984 100.157 208.105C99.4158 207.227 98.3073 206.944 97.6813 207.472C97.0553 208 97.1489 209.141 97.8904 210.019C98.6319 210.897 99.7404 211.181 100.366 210.652Z" fill="#FFB200"/>
<path d="M100.935 217.849C101.702 217.202 101.586 215.803 100.675 214.725C99.7651 213.647 98.4055 213.297 97.6386 213.945C96.8717 214.592 96.9879 215.991 97.8981 217.069C98.8084 218.147 100.168 218.497 100.935 217.849Z" fill="#AA6D00"/>
<path d="M100.371 217.489C100.997 216.961 100.904 215.821 100.162 214.942C99.4207 214.064 98.3122 213.78 97.6862 214.309C97.0602 214.837 97.1538 215.978 97.8953 216.856C98.6368 217.734 99.7453 218.018 100.371 217.489Z" fill="#FFB200"/>
<path d="M108.74 208.738C109.507 208.091 109.391 206.692 108.481 205.614C107.571 204.536 106.211 204.187 105.444 204.834C104.677 205.481 104.793 206.88 105.704 207.958C106.614 209.036 107.973 209.386 108.74 208.738Z" fill="#AA6D00"/>
<path d="M108.178 208.384C108.804 207.855 108.711 206.715 107.969 205.837C107.228 204.958 106.119 204.675 105.493 205.203C104.867 205.732 104.961 206.872 105.702 207.75C106.444 208.628 107.552 208.912 108.178 208.384Z" fill="#FFB200"/>
<path d="M108.745 215.575C109.512 214.928 109.396 213.529 108.486 212.451C107.575 211.373 106.216 211.024 105.449 211.671C104.682 212.318 104.798 213.717 105.708 214.795C106.619 215.873 107.978 216.223 108.745 215.575Z" fill="#AA6D00"/>
<path d="M108.176 215.213C108.802 214.684 108.708 213.544 107.967 212.666C107.225 211.788 106.117 211.504 105.491 212.032C104.865 212.561 104.958 213.701 105.7 214.579C106.441 215.458 107.55 215.741 108.176 215.213Z" fill="#FFB200"/>
<path d="M108.742 222.404C109.509 221.757 109.393 220.358 108.483 219.28C107.573 218.202 106.213 217.853 105.446 218.5C104.679 219.147 104.796 220.546 105.706 221.624C106.616 222.703 107.976 223.052 108.742 222.404Z" fill="#AA6D00"/>
<path d="M108.173 222.05C108.799 221.521 108.705 220.381 107.964 219.503C107.222 218.624 106.114 218.341 105.488 218.869C104.862 219.398 104.956 220.538 105.697 221.416C106.438 222.294 107.547 222.578 108.173 222.05Z" fill="#FFB200"/>
<path d="M116.55 213.299C117.317 212.651 117.2 211.253 116.29 210.174C115.38 209.096 114.02 208.747 113.253 209.394C112.486 210.042 112.603 211.44 113.513 212.519C114.423 213.597 115.783 213.946 116.55 213.299Z" fill="#AA6D00"/>
<path d="M115.986 212.939C116.612 212.411 116.518 211.27 115.777 210.392C115.035 209.514 113.927 209.23 113.301 209.759C112.675 210.287 112.769 211.427 113.51 212.306C114.251 213.184 115.36 213.467 115.986 212.939Z" fill="#FFB200"/>
<path d="M116.555 220.136C117.322 219.488 117.205 218.089 116.295 217.011C115.385 215.933 114.025 215.584 113.258 216.231C112.492 216.879 112.608 218.277 113.518 219.356C114.428 220.434 115.788 220.783 116.555 220.136Z" fill="#AA6D00"/>
<path d="M115.991 219.768C116.617 219.24 116.524 218.099 115.782 217.221C115.041 216.343 113.932 216.059 113.306 216.588C112.68 217.116 112.774 218.256 113.515 219.135C114.257 220.013 115.365 220.297 115.991 219.768Z" fill="#FFB200"/>
<path d="M116.547 226.959C117.314 226.312 117.198 224.913 116.287 223.835C115.377 222.756 114.018 222.407 113.251 223.054C112.484 223.702 112.6 225.101 113.51 226.179C114.42 227.257 115.78 227.606 116.547 226.959Z" fill="#AA6D00"/>
<path d="M115.984 226.599C116.61 226.071 116.516 224.931 115.774 224.052C115.033 223.174 113.924 222.89 113.298 223.419C112.672 223.947 112.766 225.087 113.508 225.966C114.249 226.844 115.358 227.128 115.984 226.599Z" fill="#FFB200"/>
<path d="M89.1919 168.019L92.772 170.015V160.269L89.1919 162.335V168.019Z" fill="#36EB83"/>
<path d="M94.7292 171.102L99.6063 173.82V156.324L94.7292 159.136V171.102Z" fill="#36EB83"/>
<path d="M99.6374 192.666C98.9695 192.286 98.0531 191.626 97.991 190.609L98.5501 190.935C98.6433 191.471 99.1015 191.867 99.6995 192.208C100.375 192.597 100.81 192.666 100.81 192.154C100.81 191.735 100.538 191.455 99.9635 191.067L99.3888 190.679C98.5346 190.104 98.0609 189.521 98.0609 188.846C98.0609 188.17 98.5501 188.031 99.7305 188.706C100.484 189.141 101.284 189.77 101.354 190.748L100.802 190.43C100.709 189.917 100.305 189.529 99.6995 189.18C99.0316 188.792 98.6666 188.768 98.6666 189.188C98.6666 189.584 98.9772 189.886 99.5364 190.267L100.111 190.647C100.989 191.238 101.424 191.781 101.424 192.496C101.424 193.21 100.926 193.404 99.6451 192.666H99.6374Z" fill="black"/>
<path d="M105.33 192.014V192.55L103.839 191.696V195.012L103.241 194.67V191.354L101.75 190.5V189.964L105.33 192.022V192.014Z" fill="black"/>
<path d="M108.436 197.652L108.188 196.945L105.873 195.609L105.625 196.029L104.996 195.672L106.704 192.806L107.357 193.179L109.057 198.009L108.428 197.652H108.436ZM106.091 195.252L107.978 196.339L107.038 193.653L106.091 195.252Z" fill="black"/>
<path d="M113.437 200.525L112.731 200.113L111.442 197.815L110.176 198.646L109.585 198.304V194.46L110.176 194.802V197.838L112.614 196.207L113.305 196.603L111.791 197.59L113.437 200.517V200.525Z" fill="black"/>
<path d="M117.18 199.36L114.563 197.854V199.042L117.064 200.478V200.96L114.563 199.523V200.649L117.18 202.156V202.684L113.965 200.836V196.992L117.18 198.84V199.368V199.36Z" fill="black"/>
<path d="M353.817 114.112H260.625V219.379H260.649C260.742 220.21 261.208 221.01 262.047 221.476L304.534 245.145C306.204 246.077 308.239 246.077 309.908 245.145L352.396 221.476C353.235 221.01 353.7 220.21 353.794 219.379H353.817V114.112Z" fill="#DCEAFF"/>
<path d="M307.617 245.828C308.409 245.774 309.194 245.549 309.916 245.145L352.403 221.476C353.242 221.01 353.708 220.21 353.801 219.379H353.825V114.112H307.617V245.828Z" fill="#B1C5DD"/>
<path d="M262.047 117.249L304.534 140.918C306.204 141.85 308.239 141.85 309.908 140.918L352.396 117.249C354.267 116.209 354.291 113.514 352.435 112.442L309.978 87.935C308.27 86.9488 306.165 86.9488 304.457 87.935L262 112.442C260.144 113.514 260.16 116.201 262.039 117.249H262.047Z" fill="white"/>
<path d="M299.673 220.358L299.634 151.595C299.634 149.864 298.694 148.264 297.18 147.418L270.636 132.632C269.883 132.213 269.052 132.252 268.384 132.594L268.345 132.609C268.298 132.632 268.26 132.656 268.213 132.679L265.083 134.085C264.33 134.473 263.786 135.249 263.786 136.212V204.478C263.786 206.194 264.703 207.77 266.186 208.624L292.8 223.922C293.623 224.396 294.555 224.31 295.262 223.868L298.384 222.47C299.129 222.082 299.673 221.305 299.673 220.35V220.358Z" fill="#B1C5DD"/>
<path d="M293.887 148.909L267.343 134.123C265.751 133.238 263.786 134.387 263.786 136.212V204.477C263.786 206.194 264.703 207.77 266.186 208.624L292.8 223.922C294.392 224.838 296.388 223.689 296.388 221.849L296.349 153.086C296.349 151.355 295.409 149.755 293.895 148.909H293.887Z" fill="#EBF4FF"/>
<path d="M291.41 154.306L269.619 142.168C268.306 141.438 266.699 142.386 266.699 143.884V174.037C266.699 175.443 267.452 176.74 268.671 177.446L290.525 190.003C291.837 190.756 293.468 189.809 293.468 188.302L293.437 157.738C293.437 156.317 292.668 155.004 291.418 154.306H291.41Z" fill="#00DF44"/>
<path d="M269.781 142.277H269.603V177.687H269.781V142.277Z" fill="#55F25D"/>
<path d="M273.936 144.708H273.758V180.118H273.936V144.708Z" fill="#55F25D"/>
<path d="M278.098 147.138H277.92V182.548H278.098V147.138Z" fill="#55F25D"/>
<path d="M282.253 149.561H282.075V184.971H282.253V149.561Z" fill="#55F25D"/>
<path d="M286.416 151.991H286.238V187.402H286.416V151.991Z" fill="#55F25D"/>
<path d="M290.57 154.414H290.393V189.824H290.57V154.414Z" fill="#55F25D"/>
<path d="M266.761 145.532L266.671 145.686L293.419 161.296L293.509 161.142L266.761 145.532Z" fill="#55F25D"/>
<path d="M266.761 150.658L266.671 150.812L293.419 166.423L293.509 166.269L266.761 150.658Z" fill="#55F25D"/>
<path d="M266.76 155.793L266.67 155.947L293.418 171.557L293.508 171.403L266.76 155.793Z" fill="#55F25D"/>
<path d="M266.767 160.927L266.677 161.082L293.425 176.692L293.515 176.538L266.767 160.927Z" fill="#55F25D"/>
<path d="M266.759 166.05L266.669 166.204L293.417 181.814L293.507 181.66L266.759 166.05Z" fill="#55F25D"/>
<path d="M266.758 171.184L266.668 171.339L293.416 186.949L293.506 186.795L266.758 171.184Z" fill="#55F25D"/>
<path d="M267.048 144.576C267.048 143.077 268.655 142.13 269.968 142.859L291.759 154.997C292.341 155.323 292.823 155.789 293.165 156.332C292.839 155.486 292.233 154.756 291.417 154.306L269.626 142.168C268.314 141.438 266.706 142.386 266.706 143.884V174.037C266.706 174.791 266.924 175.505 267.312 176.126C267.141 175.684 267.048 175.218 267.048 174.728V144.576Z" fill="#006019"/>
<path d="M284.545 173.307C284.475 173.307 284.405 173.307 284.343 173.3C283.388 173.207 282.611 172.484 282.013 171.164C281.594 170.225 281.221 169.106 280.864 168.012C280.219 166.07 279.559 164.059 278.798 163.873C278.596 163.826 278.379 163.911 278.13 164.152C277.548 164.719 277.058 165.55 276.624 166.28C275.994 167.336 275.497 168.175 274.853 168.159C274.449 168.151 274.084 167.802 273.704 167.072C273.245 166.194 272.942 165.294 272.678 164.494C272.049 162.607 271.591 161.24 269.696 161.24V160.898C271.84 160.898 272.383 162.514 273.005 164.385C273.276 165.208 273.564 166.062 274.006 166.909C274.317 167.499 274.604 167.802 274.861 167.81C274.861 167.81 274.861 167.81 274.868 167.81C275.311 167.81 275.8 166.979 276.328 166.101C276.771 165.356 277.276 164.502 277.897 163.904C278.231 163.585 278.557 163.461 278.883 163.539C279.831 163.772 280.46 165.682 281.198 167.903C281.555 168.982 281.92 170.1 282.339 171.017C282.883 172.22 283.566 172.873 284.389 172.95C285.399 173.051 286.587 172.259 287.643 170.784C289.329 168.423 291.053 161.59 291.068 161.527L291.402 161.613C291.332 161.892 289.647 168.578 287.923 170.993C286.859 172.484 285.648 173.315 284.56 173.315L284.545 173.307Z" fill="#17FFFF"/>
<path d="M291.41 200.898L269.619 188.76C268.306 188.03 266.699 188.978 266.699 190.477V192.674C266.699 194.08 267.452 195.376 268.671 196.083L290.525 208.64C291.837 209.393 293.468 208.446 293.468 206.939L293.437 204.33C293.437 202.909 292.668 201.597 291.418 200.898H291.41Z" fill="black"/>
<path d="M313.83 220.358L313.869 151.595C313.869 149.864 314.809 148.264 316.323 147.418L342.867 132.632C343.62 132.213 344.451 132.252 345.119 132.594L345.158 132.609C345.205 132.632 345.243 132.656 345.29 132.679L348.42 134.085C349.173 134.473 349.717 135.249 349.717 136.212V204.478C349.717 206.194 348.8 207.77 347.317 208.624L320.703 223.922C319.88 224.396 318.948 224.31 318.241 223.868L315.119 222.47C314.374 222.082 313.83 221.305 313.83 220.35V220.358Z" fill="#8DA2B7"/>
<path d="M319.616 148.909L346.16 134.123C347.752 133.238 349.717 134.387 349.717 136.212V204.477C349.717 206.194 348.8 207.77 347.317 208.624L320.703 223.922C319.111 224.838 317.115 223.689 317.115 221.849L317.154 153.086C317.154 151.355 318.094 149.755 319.608 148.909H319.616Z" fill="#DCEAFF"/>
<path d="M322.241 154.647L343.737 142.673C345.026 141.951 346.618 142.89 346.618 144.366V199.632C346.618 201.022 345.88 202.303 344.677 202.994L323.126 215.38C321.837 216.126 320.222 215.186 320.222 213.703L320.253 158.033C320.253 156.627 321.014 155.331 322.241 154.647Z" fill="#213147"/>
<path d="M325.177 115.1C325.881 108.999 318.593 103.147 308.9 102.029C299.207 100.911 290.778 104.951 290.075 111.052C289.371 117.153 296.658 123.005 306.351 124.123C316.045 125.241 324.473 121.201 325.177 115.1Z" fill="#BFBFBF"/>
<path d="M310.887 104.755C301.335 102.945 292.124 106.284 290.315 112.217C290.229 112.512 290.159 112.8 290.113 113.095C290.944 117.901 296.551 122.343 304.332 123.819C313.884 125.628 323.095 122.289 324.904 116.356C324.99 116.061 325.06 115.774 325.106 115.479C324.275 110.672 318.668 106.23 310.887 104.755Z" fill="black"/>
<path d="M322.722 108.847C322.675 104.359 317.643 100.026 310.428 98.659C302.235 97.1059 294.33 99.9713 292.776 105.065C292.652 105.477 292.567 105.896 292.536 106.308C292.466 107.139 292.505 110.175 292.512 110.804C292.598 115.277 297.622 119.579 304.806 120.946C312.999 122.499 320.905 119.633 322.458 114.539C322.582 114.143 322.66 113.739 322.699 113.343C322.776 112.497 322.73 109.461 322.73 108.847H322.722Z" fill="#FFAE0E"/>
<path d="M322.688 109.612C323.292 104.38 317.039 99.3612 308.722 98.4019C300.405 97.4426 293.173 100.906 292.57 106.138C291.966 111.37 298.219 116.389 306.536 117.348C314.853 118.307 322.085 114.844 322.688 109.612Z" fill="#FFC94A"/>
<path d="M305.45 113.235C301.07 112.404 298.189 109.523 299.02 106.805C299.851 104.087 304.084 102.549 308.464 103.38C309.372 103.551 310.226 103.815 311.019 104.165C311.089 104.157 311.158 104.149 311.236 104.134C311.221 104.103 311.213 104.072 311.197 104.048V104.04C311.096 103.745 311.275 103.365 311.632 103.109C311.927 102.891 312.339 102.775 312.766 102.806C312.921 102.814 313.069 102.837 313.232 102.868C314.001 103.015 314.886 103.419 315.647 103.986C316.602 104.693 317.076 105.26 317.13 105.772C317.177 106.083 316.967 106.409 316.564 106.619C316.175 106.82 315.632 106.875 315.065 106.766C314.948 106.743 314.824 106.712 314.707 106.681C314.622 106.774 314.537 106.867 314.474 106.96C315.041 107.9 315.189 108.894 314.902 109.833C314.071 112.551 309.838 114.089 305.458 113.258L305.45 113.235Z" fill="#FFAE0E"/>
<path d="M322.722 94.6987C322.675 90.2103 317.643 85.8772 310.428 84.5105C302.235 82.9575 294.33 85.8229 292.776 90.917C292.652 91.3285 292.567 91.7479 292.536 92.1594C292.466 92.9903 292.505 96.0266 292.512 96.6556C292.598 101.128 297.622 105.43 304.806 106.797C312.999 108.35 320.905 105.485 322.458 100.391C322.582 99.9947 322.66 99.5909 322.699 99.1948C322.776 98.3484 322.73 95.3122 322.73 94.6987H322.722Z" fill="#FFAE0E"/>
<path d="M322.681 95.4642C323.284 90.2324 317.031 85.2135 308.714 84.2542C300.397 83.2949 293.166 86.7585 292.562 91.9903C291.959 97.2222 298.212 102.241 306.529 103.2C314.846 104.16 322.077 100.696 322.681 95.4642Z" fill="#FFC94A"/>
<path d="M305.45 99.0859C301.07 98.255 298.189 95.3741 299.02 92.6562C299.851 89.9383 304.084 88.4008 308.464 89.2317C309.372 89.4025 310.226 89.6666 311.019 90.016C311.089 90.0082 311.158 90.0005 311.236 89.9849C311.221 89.9539 311.213 89.9228 311.197 89.8995V89.8918C311.096 89.5967 311.275 89.2162 311.632 88.9599C311.927 88.7425 312.339 88.626 312.766 88.6571C312.921 88.6648 313.069 88.6881 313.232 88.7192C314.001 88.8667 314.886 89.2705 315.647 89.8374C316.602 90.544 317.076 91.1109 317.13 91.6234C317.177 91.934 316.967 92.2602 316.564 92.4699C316.175 92.6718 315.632 92.7261 315.065 92.6174C314.948 92.5941 314.824 92.563 314.707 92.532C314.622 92.6252 314.537 92.7183 314.474 92.8115C315.041 93.7511 315.189 94.7451 314.902 95.6847C314.071 98.4026 309.838 99.9401 305.458 99.1092L305.45 99.0859Z" fill="#FFAE0E"/>
<path d="M322.722 61.5637C322.675 57.0753 317.643 52.7422 310.428 51.3755C302.235 49.8225 294.33 52.6879 292.776 57.782C292.652 58.1935 292.567 58.6128 292.536 59.0244C292.466 59.8553 292.505 62.8916 292.512 63.5206C292.598 67.9934 297.622 72.2954 304.806 73.6621C312.999 75.2152 320.905 72.3498 322.458 67.2557C322.582 66.8597 322.66 66.4559 322.699 66.0598C322.776 65.2134 322.73 62.1771 322.73 61.5637H322.722Z" fill="#FFAE0E"/>
<path d="M322.682 62.3307C323.285 57.0989 317.032 52.08 308.715 51.1207C300.398 50.1614 293.167 53.625 292.563 58.8568C291.959 64.0886 298.212 69.1075 306.53 70.0668C314.847 71.0261 322.078 67.5625 322.682 62.3307Z" fill="#FFC94A"/>
<path d="M305.45 65.9512C301.07 65.1203 298.189 62.2393 299.02 59.5215C299.851 56.8036 304.084 55.266 308.464 56.0969C309.372 56.2678 310.226 56.5318 311.019 56.8812C311.089 56.8735 311.158 56.8657 311.236 56.8502C311.221 56.8191 311.213 56.788 311.197 56.7648V56.757C311.096 56.4619 311.275 56.0814 311.632 55.8251C311.927 55.6077 312.339 55.4912 312.766 55.5223C312.921 55.5301 313.069 55.5534 313.232 55.5844C314.001 55.732 314.886 56.1358 315.647 56.7026C316.602 57.4093 317.076 57.9761 317.13 58.4887C317.177 58.7993 316.967 59.1254 316.564 59.3351C316.175 59.537 315.632 59.5913 315.065 59.4826C314.948 59.4593 314.824 59.4283 314.707 59.3972C314.622 59.4904 314.537 59.5836 314.474 59.6768C315.041 60.6164 315.189 61.6103 314.902 62.55C314.071 65.2678 309.838 66.8054 305.458 65.9745L305.45 65.9512Z" fill="#FFAE0E"/>
<path d="M276.693 175.388C276.22 175.388 275.73 175.078 275.21 174.449C274.977 174.169 274.76 173.89 274.542 173.61C273.75 172.577 273.059 171.692 272.15 171.63C271.459 171.583 270.644 172.042 269.673 173.02L269.424 172.779C270.473 171.723 271.366 171.234 272.173 171.288C273.237 171.358 274.006 172.344 274.814 173.4C275.024 173.672 275.241 173.952 275.466 174.231C275.971 174.837 276.406 175.101 276.794 175.039C277.656 174.907 278.495 173.268 279.66 170.481C280.669 168.058 281.578 166.885 282.425 166.932C283.085 166.955 283.644 167.67 284.125 169.114C284.304 169.65 284.661 170.287 285.306 170.263C286.54 170.217 288.451 167.817 289.391 164.028C290.68 158.825 291.379 156.705 291.386 156.682L291.713 156.79C291.713 156.79 291.006 158.918 289.725 164.105C288.839 167.685 286.905 170.535 285.321 170.597C284.84 170.62 284.187 170.388 283.799 169.215C283.38 167.957 282.898 167.281 282.417 167.266C281.959 167.258 281.143 167.817 279.978 170.605C278.712 173.641 277.881 175.218 276.849 175.373C276.794 175.381 276.74 175.388 276.685 175.388H276.693Z" fill="white"/>
<g opacity="0.6">
<path d="M333.734 179.155C333.672 179.194 333.602 179.225 333.54 179.248C333.462 179.279 332.771 179.543 331.769 179.691C331.187 179.776 330.612 179.799 330.061 179.76C329.37 179.714 328.717 179.582 328.111 179.357C326.589 178.79 325.378 177.672 324.516 176.025C324.011 175.062 323.623 173.905 323.359 172.593C323.071 171.164 322.924 169.502 322.924 167.67C322.924 167.212 323.196 166.645 323.615 166.218L331.598 158.149C332.181 157.559 332.864 157.435 333.128 157.87C333.385 158.305 333.128 159.143 332.538 159.734L325.254 167.095C325.324 169.937 325.782 172.213 326.628 173.867C327.35 175.272 328.352 176.243 329.603 176.732C330.713 177.167 331.831 177.151 332.569 177.058C333.066 176.996 333.47 176.887 333.703 176.817C333.944 176.608 334.348 176.235 334.852 175.699C335.598 174.915 336.724 173.603 337.85 171.855C339.108 169.891 340.118 167.771 340.84 165.558C341.686 162.972 342.145 160.246 342.214 157.443L339.605 157.777L333.858 171.226C333.68 171.646 333.361 172.034 333.004 172.29C332.647 172.546 332.282 172.624 332.026 172.515L329.005 171.211C328.554 171.017 328.554 170.279 329.005 169.572C329.455 168.866 330.193 168.446 330.643 168.64L332.585 169.479L338.098 156.573C338.394 155.89 339.03 155.315 339.574 155.245L343.845 154.702C344.265 154.647 344.536 154.911 344.536 155.369C344.536 158.786 344.001 162.133 342.944 165.325C342.082 167.926 340.879 170.426 339.357 172.756C336.739 176.771 334.091 178.898 333.983 178.984C333.897 179.054 333.812 179.108 333.726 179.155H333.734Z" fill="#00DF44"/>
<path d="M331.665 200.866C334.099 197.641 334.581 193.902 332.743 192.515C330.904 191.128 327.441 192.617 325.007 195.842C322.574 199.067 322.091 202.806 323.929 204.193C325.768 205.58 329.231 204.091 331.665 200.866Z" fill="#FFBD45"/>
<path d="M328.321 198.327L331.94 200.432C330.939 201.876 329.649 203.088 328.321 203.849C325.293 205.58 322.8 204.509 322.8 201.48C322.8 198.452 325.293 194.538 328.321 192.806C331.35 191.075 333.843 192.146 333.843 195.175L328.321 198.327Z" fill="#0048E7"/>
<path d="M328.321 198.327L328.702 203.616C328.578 203.693 328.446 203.771 328.321 203.849C325.293 205.58 322.8 204.509 322.8 201.48C322.8 198.452 325.293 194.538 328.321 192.806C331.35 191.075 333.843 192.146 333.843 195.175L328.321 198.327Z" fill="#00E7C8"/>
<path d="M329.898 199.533C331.04 198.02 331.266 196.265 330.404 195.614C329.541 194.963 327.916 195.662 326.774 197.175C325.632 198.688 325.405 200.443 326.268 201.094C327.131 201.745 328.756 201.046 329.898 199.533Z" fill="#213147"/>
<path d="M337.157 192.195C337.534 191.674 337.618 191.091 337.343 190.892C337.069 190.693 336.541 190.954 336.163 191.475C335.786 191.996 335.702 192.58 335.976 192.778C336.251 192.977 336.779 192.716 337.157 192.195Z" fill="#00E7C8"/>
<path d="M339.851 190.434C340.229 189.913 340.313 189.33 340.038 189.131C339.764 188.932 339.235 189.193 338.858 189.714C338.48 190.235 338.397 190.819 338.671 191.017C338.945 191.216 339.474 190.955 339.851 190.434Z" fill="#00E7C8"/>
<path d="M342.551 188.659C342.928 188.138 343.012 187.555 342.737 187.356C342.463 187.157 341.935 187.418 341.557 187.939C341.18 188.46 341.096 189.044 341.37 189.243C341.645 189.441 342.173 189.18 342.551 188.659Z" fill="#0048E7"/>
<path d="M345.244 186.895C345.622 186.374 345.705 185.791 345.431 185.592C345.156 185.393 344.628 185.654 344.25 186.175C343.873 186.696 343.789 187.28 344.064 187.478C344.338 187.677 344.866 187.416 345.244 186.895Z" fill="#00E7C8"/>
<path d="M337.158 194.559C337.535 194.038 337.619 193.455 337.344 193.256C337.07 193.057 336.542 193.318 336.164 193.839C335.787 194.36 335.703 194.943 335.977 195.142C336.252 195.341 336.78 195.08 337.158 194.559Z" fill="#00E7C8"/>
<path d="M339.852 192.79C340.23 192.269 340.314 191.686 340.039 191.487C339.765 191.288 339.236 191.549 338.859 192.07C338.481 192.591 338.398 193.175 338.672 193.373C338.946 193.572 339.475 193.311 339.852 192.79Z" fill="#0048E7"/>
<path d="M342.544 191.023C342.921 190.502 343.005 189.919 342.731 189.72C342.456 189.521 341.928 189.782 341.55 190.303C341.173 190.824 341.089 191.407 341.363 191.606C341.638 191.805 342.166 191.544 342.544 191.023Z" fill="#FFBD45"/>
<path d="M345.245 189.259C345.623 188.738 345.706 188.154 345.432 187.956C345.157 187.757 344.629 188.018 344.251 188.539C343.874 189.06 343.79 189.643 344.065 189.842C344.339 190.041 344.867 189.78 345.245 189.259Z" fill="#FFBD45"/>
<path d="M337.159 196.923C337.537 196.402 337.62 195.818 337.346 195.619C337.071 195.421 336.543 195.682 336.165 196.203C335.788 196.723 335.704 197.307 335.979 197.506C336.253 197.705 336.782 197.443 337.159 196.923Z" fill="#00E7C8"/>
<path d="M339.854 195.154C340.231 194.633 340.315 194.05 340.041 193.851C339.766 193.652 339.238 193.913 338.86 194.434C338.483 194.955 338.399 195.538 338.674 195.737C338.948 195.936 339.476 195.675 339.854 195.154Z" fill="#FFBD45"/>
<path d="M342.552 193.383C342.929 192.863 343.013 192.279 342.738 192.08C342.464 191.881 341.936 192.143 341.558 192.664C341.181 193.184 341.097 193.768 341.371 193.967C341.646 194.165 342.174 193.904 342.552 193.383Z" fill="#FFBD45"/>
<path d="M345.246 191.615C345.624 191.094 345.708 190.51 345.433 190.312C345.159 190.113 344.63 190.374 344.253 190.895C343.875 191.416 343.792 191.999 344.066 192.198C344.34 192.397 344.869 192.136 345.246 191.615Z" fill="#FFBD45"/>
</g>
<path d="M272.709 191.478C272.709 191.478 263.437 194.872 263.437 218.346L283.457 229.047C283.457 229.047 280.46 209.354 290.361 201.433L272.717 191.478H272.709Z" fill="white"/>
<path d="M240.597 188.388H193.062V189.017H240.597V188.388Z" fill="white"/>
<path d="M239.681 191.828L245.094 188.698L239.681 185.569V191.828Z" fill="white"/>
</svg>
