<svg width="138" height="80" viewBox="0 0 138 80" fill="none" xmlns="http://www.w3.org/2000/svg">
<g id="Staking graphic">
<g id="Group">
<path id="Vector" d="M46.9288 57.0013L128.939 22.9805C129.277 22.8678 129.615 22.9805 129.84 23.3185C129.953 23.6564 129.84 23.9944 129.502 24.2197L46.9288 57.0013Z" fill="url(#paint0_linear_1285_10317)"/>
</g>
<g id="Group_2">
<g id="Group_3">
<path id="Vector_2" d="M67.7697 103.302C75.3173 95.867 64.3901 72.4354 43.3243 50.8063C22.2584 29.1772 -1.06044 17.6868 -8.60809 25.0091L-11.0864 22.4181C-11.0864 22.4181 4.00888 -1.68931 48.9569 44.3852C93.9048 90.347 70.4733 106.006 70.4733 106.006L67.7697 103.302Z" fill="url(#paint1_linear_1285_10317)"/>
<path id="Vector_3" d="M72.1629 109.497C62.3622 118.96 35.1005 106.794 11.1057 82.2358C-12.8891 57.6777 -24.4922 30.0781 -14.6915 20.6153L-9.84747 15.884C-20.662 40.1041 42.8735 113.666 77.0069 104.879L72.1629 109.497Z" fill="url(#paint2_linear_1285_10317)"/>
<path id="Vector_4" d="M72.1629 109.497C62.3622 118.96 35.1005 106.794 11.1057 82.2358C-12.8891 57.6777 -24.4922 30.0781 -14.6915 20.6153L-9.84747 15.884C-20.662 40.1041 42.8735 113.666 77.0069 104.879L72.1629 109.497Z" fill="url(#paint3_linear_1285_10317)"/>
<path id="Vector_5" d="M51.2098 43.0335C27.215 18.4754 -0.0466833 6.30907 -9.84737 15.7718C-19.6481 25.2345 -8.04495 52.9468 15.9498 77.5049C39.9446 102.063 67.319 114.229 77.007 104.767C86.695 95.3038 75.2046 67.5915 51.2098 43.0335ZM20.5686 72.8862C-0.497291 51.3697 -11.4245 27.8255 -3.87684 20.5032C3.67082 13.0682 26.877 24.5586 48.0555 46.1877C69.234 67.8168 80.1612 91.2484 72.5009 98.6834C64.9533 106.118 41.7471 94.5153 20.5686 72.8862Z" fill="url(#paint4_linear_1285_10317)"/>
<g id="Group_4">
<path id="Vector_6" d="M-3.65143 19.9397C-4.43999 20.7283 -5.1159 21.7421 -5.45386 22.8687C-5.1159 21.9675 -4.55264 21.0662 -3.87673 20.3903C3.67092 13.068 26.8772 24.5584 48.0556 46.1875C48.5063 46.6381 48.9569 47.0888 49.4075 47.5394C48.6189 46.7508 47.8303 45.9622 47.0418 45.061C26.4265 23.9952 3.67092 12.73 -3.65143 19.9397Z" fill="url(#paint5_linear_1285_10317)"/>
</g>
<g id="Group_5">
<path id="Vector_7" d="M14.823 76.1528C11.2181 72.4353 7.83859 68.6051 4.797 64.8876C8.06389 69.1684 11.7814 73.3365 15.8369 77.5046C39.8316 102.063 67.206 114.229 76.894 104.766C77.4573 104.203 78.0205 103.527 78.3585 102.851C78.0205 103.302 77.6826 103.64 77.3446 104.09C67.4313 113.891 39.381 101.387 14.823 76.1528Z" fill="url(#paint6_linear_1285_10317)"/>
</g>
</g>
</g>
<g id="Group_6">
<g id="Group_7">
<path id="Vector_8" d="M68.7832 85.0521C69.797 87.1924 76.6688 85.5027 82.752 82.6864C88.7225 79.8701 94.5804 75.8146 93.5665 73.5616L91.2008 68.3796L66.4175 79.8701L68.7832 85.0521Z" fill="#390176"/>
<path id="Vector_9" d="M69.1212 84.9392C69.9098 86.629 75.8803 85.5025 82.5267 82.3482C89.1732 79.3066 93.9045 75.4765 93.116 73.7867L90.863 68.9427L66.8682 80.0952L69.1212 84.9392Z" fill="url(#paint7_linear_1285_10317)"/>
</g>
<g id="Group_8">
<path id="Vector_10" d="M80.3725 77.6121C87.2035 74.448 92.0415 70.3728 91.1786 68.5098C90.3157 66.6468 84.0785 67.7015 77.2475 70.8656C70.4165 74.0296 65.5784 78.1049 66.4414 79.9679C67.3043 81.8309 73.5415 80.7762 80.3725 77.6121Z" fill="#390176"/>
<path id="Vector_11" d="M80.1612 77.2789C73.5147 80.3205 67.5442 81.447 66.7557 79.8699C65.9671 78.2928 70.6985 74.35 77.3449 71.3084C83.9913 68.2668 89.9619 67.1403 90.7504 68.7174C91.539 70.2945 86.8076 74.1247 80.1612 77.2789Z" fill="url(#paint8_linear_1285_10317)"/>
<g id="Group_9">
<path id="Vector_12" opacity="0.7" d="M86.2444 68.1543C83.8787 68.6049 80.7244 69.6188 77.3449 71.1959C70.6985 74.2375 65.9671 78.0677 66.7557 79.7575C67.5442 81.4472 73.5147 80.3207 80.1612 77.1665C77.6829 77.6171 75.9931 77.5044 75.6551 76.7159C74.8666 75.1387 79.5979 71.1959 86.2444 68.1543Z" fill="url(#paint9_linear_1285_10317)"/>
</g>
<g id="Group_10">
<path id="Vector_13" opacity="0.6" d="M67.2061 79.645C66.4176 77.9552 71.1489 74.1251 77.7954 71.0835C80.6117 69.7317 83.428 68.8305 85.681 68.2672C83.3153 68.8305 80.3864 69.7317 77.3448 71.1961C70.6983 74.2377 65.967 78.0679 66.7555 79.7577C67.2061 80.6589 69.3465 80.7715 72.2755 79.983C69.5718 80.6589 67.6567 80.5462 67.2061 79.645Z" fill="white"/>
<path id="Vector_14" opacity="0.3" d="M90.4125 68.7177C91.201 70.4075 86.4697 74.2376 79.8232 77.2792C77.0069 78.631 74.1907 79.5322 71.9376 80.0955C74.3033 79.5322 77.2322 78.631 80.2738 77.1666C86.9203 74.125 91.6517 70.2948 90.8631 68.605C90.4125 67.7038 88.2721 67.5912 85.3432 68.3797C88.0468 67.8165 89.9619 67.8165 90.4125 68.7177Z" fill="white"/>
</g>
<path id="Vector_15" d="M79.8337 76.6869C85.3662 74.1242 89.3425 70.9484 88.7149 69.5935C88.0873 68.2386 83.0936 69.2177 77.561 71.7803C72.0285 74.3429 68.0522 77.5187 68.6798 78.8736C69.3074 80.2286 74.3012 79.2495 79.8337 76.6869Z" fill="#390176"/>
<path id="Vector_16" d="M79.8234 76.7157C74.4161 79.194 69.5721 80.0952 69.0088 78.8561C68.4456 77.6169 72.2757 74.4626 77.5703 71.9843C82.9776 69.506 87.8216 68.6048 88.3849 69.8439C89.0608 71.0831 85.2306 74.1247 79.8234 76.7157Z" fill="url(#paint10_linear_1285_10317)"/>
<g id="Group_11">
<path id="Vector_17" opacity="0.2" d="M84.3292 69.8441C84.7798 69.6188 85.2304 69.3935 85.681 69.1682C83.6533 69.3935 80.6117 70.2947 77.4574 71.7591C72.1628 74.2375 68.3326 77.2791 68.8959 78.6309C69.4592 79.8701 73.5146 79.1941 78.246 77.1664C76.8942 77.2791 75.8803 77.1664 75.655 76.6032C75.2044 75.4766 79.0345 72.3224 84.3292 69.8441Z" fill="url(#paint11_linear_1285_10317)"/>
</g>
<g id="Group_12" opacity="0.6">
<path id="Vector_18" opacity="0.3" d="M69.6845 78.5182C69.1213 77.1664 72.9514 74.1248 78.246 71.6465C79.9358 70.8579 81.5129 70.2946 82.9774 69.844C81.4003 70.2946 79.4852 70.9706 77.6828 71.8718C72.2755 74.3501 68.4454 77.3917 69.1213 78.7435C69.5719 79.6447 72.0502 79.5321 75.2045 78.5182C72.2755 79.3068 70.0225 79.4194 69.6845 78.5182Z" fill="#3F3B44"/>
</g>
<g id="Group_13" opacity="0.6">
<path id="Vector_19" opacity="0.3" d="M87.8212 69.9564C88.3845 71.3082 84.5543 74.3498 79.2597 76.8282C77.5699 77.6167 75.9928 78.18 74.5283 78.6306C76.1054 78.18 78.0205 77.5041 79.8229 76.6029C85.2302 74.1245 89.0604 71.0829 88.3845 69.7311C87.9339 68.8299 85.4555 68.9426 82.3013 69.9564C85.2302 69.1679 87.3706 69.0552 87.8212 69.9564Z" fill="#3F3B44"/>
</g>
<g id="Group_14">
<path id="Vector_20" d="M72.388 77.0538C72.05 76.3779 73.7398 74.9134 76.2181 73.5616C76.5561 73.4489 76.894 73.2236 77.1193 73.111C80.1609 71.7591 82.8646 71.1959 83.2025 71.9844C83.3152 72.0971 83.2025 72.3224 83.0899 72.5477C83.4278 72.3224 83.8784 72.2098 84.2164 72.0971C84.5543 71.9844 84.7796 71.9844 84.8923 71.9844C84.8923 71.9844 85.0049 71.9844 85.0049 72.0971C85.1176 72.2098 84.8923 72.5477 84.5543 72.8857C84.1037 73.3363 83.6531 73.6742 83.0899 74.0122C82.7519 74.2375 82.3013 74.3501 81.9633 74.4628C81.738 74.4628 81.6254 74.5754 81.5127 74.4628C81.4001 74.4628 81.2874 74.4628 81.2874 74.3501C81.2874 74.3501 81.1748 74.3501 81.1748 74.4628C80.3862 75.026 79.3724 75.4766 78.3585 76.0399C78.1332 76.1526 77.9079 76.2652 77.6826 76.3779C75.0916 77.3917 72.7259 77.8423 72.388 77.0538Z" fill="#390176"/>
<path id="Vector_21" d="M83.09 73.8994C83.5406 73.6741 83.9912 73.3362 84.3292 72.8855C84.6671 72.5476 84.7798 72.3223 84.7798 72.2096C84.7798 72.2096 84.7798 72.2096 84.6672 72.2096C84.5545 72.2096 84.4418 72.2096 84.2165 72.3223C83.8786 72.4349 83.5406 72.5476 83.3153 72.6602C83.2027 72.6602 83.2027 72.7729 83.09 72.7729C82.9774 72.7729 82.8647 72.7729 82.8647 72.7729C82.9774 72.5476 83.09 72.3223 82.9774 72.2096C82.6394 71.5337 80.0484 71.9843 77.2321 73.2235C76.8942 73.3361 76.6689 73.5615 76.3309 73.6741C73.9652 74.9133 72.3881 76.2651 72.7261 76.941C73.064 77.6169 75.2044 77.279 77.7954 76.1524C78.0207 76.0398 78.246 75.9271 78.4713 75.9271C79.4852 75.4765 80.3864 74.9133 81.1749 74.4627C81.4002 74.35 81.6256 74.35 81.7382 74.2374V74.35L81.8509 74.4627C81.9635 74.4627 82.0762 74.4627 82.1888 74.4627C82.5268 74.2374 82.8647 74.1247 83.09 73.8994Z" fill="#94512A"/>
<path id="Vector_22" d="M83.6533 73.6741C84.1039 73.4488 84.5545 73.1109 84.8924 72.6602C85.2304 72.3223 85.343 72.097 85.343 71.9843C85.343 71.9843 85.343 71.9843 85.2304 71.9843C85.1177 71.9843 85.0051 71.9843 84.7798 72.097C84.4418 72.2096 84.1039 72.3223 83.8786 72.4349C83.7659 72.4349 83.7659 72.5476 83.6533 72.5476C83.5406 72.5476 83.428 72.5476 83.428 72.5476C83.5406 72.3223 83.6533 72.097 83.5406 71.9843C83.2027 71.3084 80.6117 71.759 77.7954 72.9982C77.4574 73.1109 77.2321 73.3362 76.8942 73.4488C74.5285 74.688 72.9514 76.0398 73.2893 76.7157C73.6273 77.3916 75.7676 77.0537 78.3586 75.9271C78.5839 75.8145 78.8092 75.7018 79.0345 75.7018C80.0484 75.2512 80.9496 74.688 81.7382 74.2374C81.9635 74.1247 82.1888 74.1247 82.3014 74.0121V74.1247L82.4141 74.2374C82.5267 74.2374 82.6394 74.2374 82.752 74.2374C83.09 73.8994 83.428 73.7868 83.6533 73.6741Z" fill="url(#paint12_linear_1285_10317)"/>
<path id="Vector_23" d="M83.6533 73.6741C84.1039 73.4488 84.5545 73.1109 84.8924 72.6602C85.2304 72.3223 85.343 72.097 85.343 71.9843C85.343 71.9843 85.343 71.9843 85.2304 71.9843C85.1177 71.9843 85.0051 71.9843 84.7798 72.097C84.4418 72.2096 84.1039 72.3223 83.8786 72.4349C83.7659 72.4349 83.7659 72.5476 83.6533 72.5476C83.5406 72.5476 83.428 72.5476 83.428 72.5476C83.5406 72.3223 83.6533 72.097 83.5406 71.9843C83.2027 71.3084 80.6117 71.759 77.7954 72.9982C77.4574 73.1109 77.2321 73.3362 76.8942 73.4488C74.5285 74.688 72.9514 76.0398 73.2893 76.7157C73.6273 77.3916 75.7676 77.0537 78.3586 75.9271C78.5839 75.8145 78.8092 75.7018 79.0345 75.7018C80.0484 75.2512 80.9496 74.688 81.7382 74.2374C81.9635 74.1247 82.1888 74.1247 82.3014 74.0121V74.1247L82.4141 74.2374C82.5267 74.2374 82.6394 74.2374 82.752 74.2374C83.09 73.8994 83.428 73.7868 83.6533 73.6741Z" fill="url(#paint13_linear_1285_10317)"/>
<path id="Vector_24" d="M72.9512 76.8285C72.6132 76.1526 74.303 74.6881 76.7813 73.3363C77.1193 73.2236 77.4573 72.9983 77.6826 72.8857C80.7241 71.5338 83.4278 70.9706 83.7657 71.7592C83.8784 71.8718 83.7657 72.0971 83.6531 72.3224C83.991 72.0971 84.4417 71.9845 84.7796 71.8718C85.1176 71.7592 85.3429 71.7592 85.4555 71.7592C85.4555 71.7592 85.5682 71.7592 85.5682 71.8718C85.6808 71.9845 85.4555 72.3224 85.1176 72.6604C84.667 73.111 84.2164 73.4489 83.6531 73.7869C83.3151 74.0122 82.8645 74.1248 82.5266 74.2375C82.3013 74.2375 82.1886 74.3501 82.076 74.2375C81.9633 74.2375 81.8507 74.2375 81.8507 74.1248C81.8507 74.1248 81.738 74.1248 81.738 74.2375C80.9495 74.8007 79.9356 75.2514 78.9217 75.8146C78.6964 75.9273 78.4711 76.0399 78.2458 76.1526C75.6548 77.1664 73.2891 77.5044 72.9512 76.8285Z" fill="#390176"/>
<path id="Vector_25" d="M83.6533 73.6741C84.1039 73.4488 84.5545 73.1109 84.8924 72.6602C85.2304 72.3223 85.343 72.097 85.343 71.9843C85.343 71.9843 85.343 71.9843 85.2304 71.9843C85.1177 71.9843 85.0051 71.9843 84.7798 72.097C84.4418 72.2096 84.1039 72.3223 83.8786 72.4349C83.7659 72.4349 83.7659 72.5476 83.6533 72.5476C83.5406 72.5476 83.428 72.5476 83.428 72.5476C83.5406 72.3223 83.6533 72.097 83.5406 71.9843C83.2027 71.3084 80.6117 71.759 77.7954 72.9982C77.4574 73.1109 77.2321 73.3362 76.8942 73.4488C74.5285 74.688 72.9514 76.0398 73.2893 76.7157C73.6273 77.3916 75.7676 77.0537 78.3586 75.9271C78.5839 75.8145 78.8092 75.7018 79.0345 75.7018C80.0484 75.2512 80.9496 74.688 81.7382 74.2374C81.9635 74.1247 82.1888 74.1247 82.3014 74.0121V74.1247L82.4141 74.2374C82.5267 74.2374 82.6394 74.2374 82.752 74.2374C83.09 73.8994 83.428 73.7868 83.6533 73.6741Z" fill="url(#paint14_linear_1285_10317)"/>
<path id="Vector_26" d="M78.4713 75.927C75.8803 77.0535 73.6273 77.3915 73.402 76.7156C73.064 76.0397 74.6411 74.6878 77.0068 73.4487C78.4713 73.2234 79.3725 73.336 79.5978 73.7866C79.8231 74.2372 79.3725 75.0258 78.4713 75.927Z" fill="url(#paint15_linear_1285_10317)"/>
</g>
</g>
</g>
<g id="Group_15">
<path id="Vector_27" d="M42.8733 71.3088L104.156 58.6918C104.381 58.6918 104.606 58.8045 104.719 59.0298C104.832 59.2551 104.606 59.4804 104.381 59.593L42.8733 71.3088Z" fill="url(#paint16_linear_1285_10317)"/>
</g>
<g id="Group_16">
<path id="Vector_28" d="M6.37427 40.7802L8.8526 5.40764C8.8526 5.29499 8.96526 5.18233 9.07791 5.18233C9.19056 5.18233 9.30321 5.29499 9.30321 5.40764L6.37427 40.7802Z" fill="url(#paint17_linear_1285_10317)"/>
</g>
<g id="Group_17">
<path id="Vector_29" d="M23.2722 67.4782L43.5495 19.7139C43.6622 19.4886 43.8875 19.376 44.0001 19.4886C44.2254 19.6013 44.3381 19.8266 44.2254 19.9392L23.2722 67.4782Z" fill="url(#paint18_linear_1285_10317)"/>
</g>
<g id="Group_18">
<path id="Vector_30" d="M24.7366 44.8357L34.0867 4.8444C34.0867 4.73175 34.312 4.61909 34.4246 4.61909C34.5373 4.61909 34.6499 4.8444 34.6499 4.95705L24.7366 44.8357Z" fill="url(#paint19_linear_1285_10317)"/>
</g>
<g id="Group_19">
<path id="Vector_31" d="M27.8907 66.4645L97.6221 22.5304C97.96 22.3051 98.298 22.4177 98.4106 22.7557C98.5233 23.0936 98.5233 23.4316 98.1853 23.5442L27.8907 66.4645Z" fill="url(#paint20_linear_1285_10317)"/>
</g>
<g id="Group_20">
<g id="Group_21">
<g id="Group_22">
<g id="Clip path group">
<mask id="mask0_1285_10317" style="mask-type:luminance" maskUnits="userSpaceOnUse" x="-7" y="18" width="82" height="83">
<g id="SVGID_00000074421767457605878240000007203964241796982161_">
<path id="Vector_32" d="M72.4774 98.708C80.0472 91.3202 69.0974 67.8242 48.0204 46.2282C26.9434 24.6322 3.72064 13.1142 -3.84909 20.502C-11.4188 27.8898 -0.469025 51.3858 20.608 72.9818C41.6849 94.5778 64.9077 106.096 72.4774 98.708Z" fill="white"/>
</g>
</mask>
<g mask="url(#mask0_1285_10317)">
<g id="Group_23">
<g id="Group_24">
<path id="Vector_33" d="M22.4836 66.8016C16.6257 70.8571 7.83887 68.3788 2.76955 61.1691C-2.29977 53.9594 -1.39856 44.8346 4.45933 40.7791L7.72622 38.5261L25.7505 64.5486L22.4836 66.8016Z" fill="#390176"/>
<path id="Vector_34" d="M22.2582 66.3512C16.6256 70.2941 8.0641 67.8157 3.22008 60.8313C-1.62394 53.8469 -0.948029 44.9474 4.7972 41.0046L7.72614 38.9769L25.1871 64.3235L22.2582 66.3512Z" fill="url(#paint21_linear_1285_10317)"/>
</g>
<g id="Group_25">
<path id="Vector_35" d="M25.9956 64.43C31.8278 60.3943 32.5093 51.275 27.5178 44.0614C22.5263 36.8479 13.7519 34.2717 7.91971 38.3074C2.08746 42.3431 1.40591 51.4624 6.39742 58.6759C11.3889 65.8895 20.1633 68.4657 25.9956 64.43Z" fill="#390176"/>
<path id="Vector_36" d="M27.2147 44.2714C32.0588 51.2558 31.3828 60.0427 25.7503 63.9855C20.1177 67.9283 11.5562 65.4499 6.71214 58.4655C1.86812 51.4811 2.54403 42.5817 8.17661 38.7515C13.8092 34.9214 22.4834 37.2871 27.2147 44.2714Z" fill="url(#paint22_linear_1285_10317)"/>
<g id="Group_26">
<path id="Vector_37" opacity="0.7" d="M3.55786 47.5386C3.33256 51.1434 4.34642 54.9736 6.7121 58.4658C11.5561 65.4502 20.1176 67.9285 25.7502 63.9857C31.3828 60.0429 32.1714 51.2561 27.3273 44.2717C27.102 47.8765 25.4123 51.1434 22.596 53.0585C16.8508 57.0013 8.40188 54.523 3.55786 47.5386Z" fill="url(#paint23_linear_1285_10317)"/>
</g>
<g id="Group_27">
<path id="Vector_38" opacity="0.6" d="M25.7501 63.309C20.1175 67.2518 11.556 64.7735 6.71196 57.7891C4.68423 54.7475 3.55772 51.4806 3.44507 48.3263C3.33242 51.7059 4.45893 55.3107 6.71196 58.465C11.556 65.4494 20.1175 67.9277 25.7501 63.9849C29.017 61.7319 30.5941 57.9017 30.4814 53.7336C30.3688 57.6764 28.7917 61.1686 25.7501 63.309Z" fill="white"/>
<path id="Vector_39" opacity="0.3" d="M8.17657 39.315C13.8092 35.3722 22.3707 37.8505 27.2147 44.8349C29.2424 47.8765 30.3689 51.1434 30.4816 54.2976C30.5942 50.9181 29.4677 47.3133 27.2147 44.159C22.3707 37.1746 13.9218 34.6963 8.17657 38.6391C4.90968 40.8921 3.33256 44.7223 3.44521 48.8904C3.55786 45.0602 5.13498 41.4554 8.17657 39.315Z" fill="white"/>
</g>
<path id="Vector_40" d="M24.3931 61.9257C29.0999 58.6688 29.6438 51.3006 25.6081 45.4684C21.5725 39.6362 14.4853 37.5484 9.77862 40.8053C5.0719 44.0621 4.52792 51.4303 8.5636 57.2626C12.5993 63.0948 19.6864 65.1826 24.3931 61.9257Z" fill="#390176"/>
<path id="Vector_41" d="M25.187 45.7357C29.1298 51.3682 28.5665 58.4653 24.0604 61.6195C19.5544 64.7738 12.6826 62.746 8.73983 57.1135C4.79703 51.4809 5.36028 44.3838 9.86635 41.2296C14.3724 38.0754 21.3568 40.1031 25.187 45.7357Z" fill="url(#paint24_linear_1285_10317)"/>
<g id="Group_28">
<path id="Vector_42" opacity="0.2" d="M7.50071 48.2138C7.16275 47.7632 6.8248 47.1999 6.5995 46.6367C5.81094 49.9036 6.5995 53.7337 8.85253 57.1133C12.6827 62.7458 19.5544 64.6609 24.1731 61.5067C28.3412 58.5777 29.1298 52.4945 26.3135 47.1999C25.8629 49.4529 24.6238 51.368 22.8213 52.6072C18.2026 55.8741 11.3309 53.8464 7.50071 48.2138Z" fill="url(#paint25_linear_1285_10317)"/>
</g>
<g id="Group_29" opacity="0.6">
<path id="Vector_43" opacity="0.3" d="M23.9478 60.8312C19.4417 63.9854 12.57 61.9577 8.62716 56.3251C7.38799 54.6353 6.59943 52.7202 6.26147 50.8052C6.59943 52.9455 7.38799 55.0859 8.73981 57.1137C12.6826 62.7462 19.4417 64.774 24.0604 61.6197C27.2147 59.4793 28.4538 55.4239 27.5526 51.1431C28.1159 55.0859 26.8767 58.8034 23.9478 60.8312Z" fill="#3F3B44"/>
</g>
<g id="Group_30" opacity="0.6">
<path id="Vector_44" opacity="0.3" d="M10.0918 42.0182C14.5978 38.8639 21.4696 40.8916 25.4124 46.5242C26.6516 48.214 27.4401 50.1291 27.7781 52.0442C27.4401 49.9038 26.6516 47.7634 25.2997 45.7357C21.3569 40.1031 14.5978 38.0754 9.97912 41.2296C6.82488 43.37 5.58571 47.4254 6.48693 51.7062C5.92367 47.7634 7.16283 44.0459 10.0918 42.0182Z" fill="#3F3B44"/>
</g>
<g id="Group_31">
<path id="Vector_45" d="M21.3565 58.2407C18.9908 59.8179 15.7239 59.2546 13.3582 56.7763C13.1329 56.4383 12.7949 56.213 12.5696 55.875C10.4293 52.7208 10.7672 48.6653 13.3582 46.8629C13.8088 46.525 14.3721 46.2997 15.048 46.0744C14.71 45.8491 14.4847 45.2858 14.3721 44.8352C14.2594 44.3846 14.3721 44.0466 14.5974 43.7087C14.71 43.596 14.71 43.596 14.8227 43.4834C15.2733 43.1454 16.0618 43.0328 16.963 43.1454C18.0896 43.2581 18.7655 43.596 19.3287 44.0466C19.6667 44.3846 19.892 44.8352 19.892 45.2858C19.892 45.5111 19.892 45.7364 19.7793 45.9617C19.6667 46.187 19.554 46.2997 19.3287 46.4123C19.3287 46.4123 19.2161 46.4123 19.2161 46.525C19.2161 46.6376 19.2161 46.6376 19.3287 46.7503C20.4552 47.3135 21.3565 48.2147 22.145 49.2286C22.2577 49.4539 22.483 49.6792 22.5956 49.9045C24.2854 52.9461 23.7221 56.551 21.3565 58.2407Z" fill="#390176"/>
<path id="Vector_46" d="M19.1038 44.2713C18.6531 43.8207 17.9772 43.5954 16.9634 43.4828C16.1748 43.3701 15.4989 43.4828 15.0483 43.8207C14.9356 43.9334 14.9356 43.9334 14.823 44.046C14.7103 44.2713 14.5977 44.4966 14.7103 44.8346C14.823 45.1725 15.0483 45.6231 15.2736 45.8485C15.3863 45.9611 15.4989 45.9611 15.6116 45.9611C15.4989 46.1864 15.4989 46.2991 15.3862 46.4117C14.7103 46.5244 14.1471 46.7497 13.5838 47.2003C11.1055 48.89 10.7675 52.7202 12.9079 55.6491C13.1332 55.9871 13.3585 56.325 13.5838 56.5504C15.7242 58.8034 18.8784 59.4793 21.0188 58.0148C23.2719 56.4377 23.7225 53.0582 22.1453 50.2419C22.0327 50.0166 21.92 49.7913 21.6947 49.566C20.9062 48.4394 20.005 47.6509 18.8785 47.0876C18.7658 46.8623 18.6531 46.637 18.6531 46.2991C18.7658 46.2991 18.8784 46.1864 18.9911 46.1864C19.1038 46.0738 19.2164 45.9611 19.3291 45.8485C19.4417 45.7358 19.4417 45.5105 19.4417 45.3978C19.5544 44.8346 19.3291 44.4966 19.1038 44.2713Z" fill="#94512A"/>
<path id="Vector_47" d="M18.6529 43.7081C18.2023 43.2575 17.5264 43.0322 16.5126 42.9195C15.724 42.8069 15.0481 42.9195 14.5975 43.2575C14.4848 43.3701 14.4848 43.3701 14.3722 43.4828C14.2595 43.7081 14.1469 43.9334 14.2595 44.2714C14.3722 44.6093 14.5975 45.0599 14.8228 45.2852C14.9354 45.3979 15.0481 45.3979 15.1607 45.3979C15.0481 45.6232 15.0481 45.7358 14.9354 45.8485C14.2595 45.9611 13.6963 46.1864 13.133 46.637C10.6547 48.3268 10.3167 52.157 12.4571 55.0859C12.6824 55.4239 12.9077 55.7618 13.133 55.9871C15.2734 58.2402 18.4276 58.9161 20.568 57.4516C22.8211 55.8745 23.2717 52.4949 21.6945 49.6786C21.5819 49.4533 21.4692 49.228 21.2439 49.0027C20.4554 47.8762 19.5542 47.0876 18.4276 46.5244C18.315 46.2991 18.2023 46.0738 18.2023 45.7358C18.315 45.7358 18.4276 45.6232 18.5403 45.6232C18.6529 45.5105 18.7656 45.3979 18.8783 45.2852C18.9909 45.1726 18.9909 44.9473 18.9909 44.8346C19.1036 44.2714 18.8782 43.9334 18.6529 43.7081Z" fill="url(#paint26_linear_1285_10317)"/>
<path id="Vector_48" d="M18.6529 43.7081C18.2023 43.2575 17.5264 43.0322 16.5126 42.9195C15.724 42.8069 15.0481 42.9195 14.5975 43.2575C14.4848 43.3701 14.4848 43.3701 14.3722 43.4828C14.2595 43.7081 14.1469 43.9334 14.2595 44.2714C14.3722 44.6093 14.5975 45.0599 14.8228 45.2852C14.9354 45.3979 15.0481 45.3979 15.1607 45.3979C15.0481 45.6232 15.0481 45.7358 14.9354 45.8485C14.2595 45.9611 13.6963 46.1864 13.133 46.637C10.6547 48.3268 10.3167 52.157 12.4571 55.0859C12.6824 55.4239 12.9077 55.7618 13.133 55.9871C15.2734 58.2402 18.4276 58.9161 20.568 57.4516C22.8211 55.8745 23.2717 52.4949 21.6945 49.6786C21.5819 49.4533 21.4692 49.228 21.2439 49.0027C20.4554 47.8762 19.5542 47.0876 18.4276 46.5244C18.315 46.2991 18.2023 46.0738 18.2023 45.7358C18.315 45.7358 18.4276 45.6232 18.5403 45.6232C18.6529 45.5105 18.7656 45.3979 18.8783 45.2852C18.9909 45.1726 18.9909 44.9473 18.9909 44.8346C19.1036 44.2714 18.8782 43.9334 18.6529 43.7081Z" fill="url(#paint27_linear_1285_10317)"/>
<path id="Vector_49" d="M20.9061 57.564C18.5405 59.1412 15.2736 58.5779 12.9079 56.0996C12.6826 55.7616 12.3446 55.5363 12.1193 55.1984C9.97893 52.0441 10.3169 47.9887 12.9079 46.1862C13.3585 45.8483 13.9217 45.623 14.5976 45.3977C14.2597 45.1724 14.0344 44.6091 13.9217 44.1585C13.8091 43.7079 13.9217 43.3699 14.147 43.032C14.2597 42.9193 14.2597 42.8067 14.3723 42.8067C14.823 42.4687 15.6115 42.3561 16.5127 42.4687C17.6392 42.5814 18.3152 42.9193 18.8784 43.3699C19.2164 43.7079 19.4417 44.1585 19.4417 44.6091C19.4417 44.8344 19.4417 45.0597 19.329 45.285C19.2164 45.5103 19.1037 45.623 18.8784 45.7356C18.8784 45.7356 18.7658 45.7356 18.7658 45.8483C18.7658 45.9609 18.7658 45.9609 18.8784 46.0736C20.0049 46.6368 20.9061 47.538 21.6947 48.5519C21.8074 48.7772 22.0327 49.0025 22.1453 49.2278C23.8351 52.3821 23.2718 55.9869 20.9061 57.564Z" fill="#390176"/>
<path id="Vector_50" d="M18.6529 43.7081C18.2023 43.2575 17.5264 43.0322 16.5126 42.9195C15.724 42.8069 15.0481 42.9195 14.5975 43.2575C14.4848 43.3701 14.4848 43.3701 14.3722 43.4828C14.2595 43.7081 14.1469 43.9334 14.2595 44.2714C14.3722 44.6093 14.5975 45.0599 14.8228 45.2852C14.9354 45.3979 15.0481 45.3979 15.1607 45.3979C15.0481 45.6232 15.0481 45.7358 14.9354 45.8485C14.2595 45.9611 13.6963 46.1864 13.133 46.637C10.6547 48.3268 10.3167 52.157 12.4571 55.0859C12.6824 55.4239 12.9077 55.7618 13.133 55.9871C15.2734 58.2402 18.4276 58.9161 20.568 57.4516C22.8211 55.8745 23.2717 52.4949 21.6945 49.6786C21.5819 49.4533 21.4692 49.228 21.2439 49.0027C20.4554 47.8762 19.5542 47.0876 18.4276 46.5244C18.315 46.2991 18.2023 46.0738 18.2023 45.7358C18.315 45.7358 18.4276 45.6232 18.5403 45.6232C18.6529 45.5105 18.7656 45.3979 18.8783 45.2852C18.9909 45.1726 18.9909 44.9473 18.9909 44.8346C19.1036 44.2714 18.8782 43.9334 18.6529 43.7081Z" fill="url(#paint28_linear_1285_10317)"/>
<path id="Vector_51" d="M21.8074 49.4536C23.3845 52.2699 22.9339 55.6495 20.6809 57.2266C18.5405 58.6911 15.3862 58.1278 13.2458 55.7621C13.4712 53.6217 14.5977 51.7067 16.2874 50.4675C17.8646 49.4536 19.8923 49.1157 21.8074 49.4536Z" fill="url(#paint29_linear_1285_10317)"/>
</g>
</g>
</g>
</g>
</g>
</g>
</g>
<g id="Group_32">
<g id="Group_33">
<g id="Clip path group_2">
<mask id="mask1_1285_10317" style="mask-type:luminance" maskUnits="userSpaceOnUse" x="-7" y="18" width="82" height="83">
<g id="SVGID_00000182490720223541751080000002878417745775948703_">
<path id="Vector_52" d="M72.4774 98.708C80.0472 91.3202 69.0974 67.8242 48.0204 46.2282C26.9434 24.6322 3.72064 13.1142 -3.84909 20.502C-11.4188 27.8898 -0.469025 51.3858 20.608 72.9818C41.6849 94.5778 64.9077 106.096 72.4774 98.708Z" fill="white"/>
</g>
</mask>
<g mask="url(#mask1_1285_10317)">
<g id="Group_34">
<g id="Group_35">
<path id="Vector_53" d="M33.1852 100.034C36.6774 102.062 42.7606 97.8936 46.9287 90.5712C51.2095 83.2489 51.7727 75.9265 48.2805 73.8988L43.5492 71.1951L28.4539 97.3303L33.1852 100.034Z" fill="#390176"/>
<path id="Vector_54" d="M33.4105 99.696C36.6774 101.611 42.5353 97.3304 46.5907 90.346C50.6462 83.3616 51.3221 76.1519 48.0552 74.2368L43.6618 71.7585L29.0171 97.2177L33.4105 99.696Z" fill="url(#paint30_linear_1285_10317)"/>
</g>
<g id="Group_36">
<path id="Vector_55" d="M42.0292 87.7795C46.1893 80.5547 46.7644 73.0872 43.3138 71.1002C39.8631 69.1133 33.6934 73.3594 29.5333 80.5842C25.3732 87.809 24.798 95.2765 28.2487 97.2634C31.6993 99.2504 37.869 95.0043 42.0292 87.7795Z" fill="#390176"/>
<path id="Vector_56" d="M41.6343 87.5298C37.5788 94.5142 31.7209 98.7949 28.454 96.8798C25.1871 94.9648 25.8631 87.8677 29.9185 80.7707C33.974 73.7863 39.8319 69.5055 43.0987 71.4206C46.3656 73.223 45.6897 80.4327 41.6343 87.5298Z" fill="url(#paint31_linear_1285_10317)"/>
<g id="Group_37">
<path id="Vector_57" opacity="0.7" d="M36.7903 72.7722C34.4246 74.462 31.9462 77.2782 29.9185 80.7704C25.8631 87.7548 25.1871 94.9645 28.454 96.8796C31.7209 98.7947 37.5788 94.5139 41.6343 87.5295C39.2686 89.2193 36.9029 89.7826 35.3258 88.8814C32.0589 86.9663 32.7348 79.7566 36.7903 72.7722Z" fill="url(#paint32_linear_1285_10317)"/>
</g>
<g id="Group_38">
<path id="Vector_58" opacity="0.6" d="M28.9048 96.4292C25.6379 94.5142 26.3138 87.4171 30.3692 80.3201C32.059 77.2785 34.1994 74.8001 36.2271 73.1104C33.9741 74.8001 31.7211 77.5038 29.9186 80.658C25.8632 87.6424 25.1873 94.8521 28.4542 96.7672C30.2566 97.781 32.9602 96.8798 35.7765 94.6268C33.1855 96.7672 30.5945 97.4431 28.9048 96.4292Z" fill="white"/>
<path id="Vector_59" opacity="0.3" d="M42.648 71.7587C45.9149 73.6737 45.239 80.7708 41.1836 87.8678C39.4938 90.9094 37.3534 93.3878 35.3257 95.0775C37.5787 93.3878 39.8317 90.6841 41.6342 87.5299C45.6896 80.5455 46.3655 73.3358 43.0986 71.4207C41.2962 70.4068 38.5926 71.308 35.7763 73.5611C38.3673 71.5333 40.9583 70.7448 42.648 71.7587Z" fill="white"/>
</g>
<path id="Vector_60" d="M40.6933 86.9165C44.0773 81.0397 44.6352 75.0171 41.9394 73.4649C39.2436 71.9126 34.3149 75.4183 30.9309 81.2952C27.547 87.1721 26.9891 93.1946 29.6849 94.7469C32.3807 96.2991 37.3094 92.7934 40.6933 86.9165Z" fill="#390176"/>
<path id="Vector_61" d="M40.3948 86.8532C37.1279 92.4858 32.3965 95.978 29.8055 94.4009C27.2146 92.9364 27.7778 87.0785 31.0447 81.446C34.3116 75.8134 39.043 72.3212 41.634 73.8983C44.225 75.3628 43.6617 81.2207 40.3948 86.8532Z" fill="url(#paint33_linear_1285_10317)"/>
<g id="Group_39">
<path id="Vector_62" opacity="0.2" d="M36.7902 75.9264C37.1281 75.4758 37.3534 74.9125 37.6914 74.4619C35.4384 75.7011 33.0727 78.1794 31.0449 81.5589C27.778 87.1915 27.3274 92.9368 29.9184 94.5139C32.2841 95.8657 36.4522 93.1621 39.6065 88.4307C38.142 89.2192 36.6775 89.4446 35.6637 88.8813C32.96 87.3042 33.5233 81.5589 36.7902 75.9264Z" fill="url(#paint34_linear_1285_10317)"/>
</g>
<g id="Group_40" opacity="0.6">
<path id="Vector_63" opacity="0.3" d="M30.3691 93.9505C27.7781 92.4861 28.3413 86.6282 31.6082 80.9956C32.6221 79.3058 33.7486 77.7287 34.9878 76.4895C33.636 77.8414 32.2841 79.5311 31.1576 81.5589C27.8907 87.1914 27.3275 93.0493 29.9185 94.5138C31.7209 95.5276 34.5372 94.1758 37.1282 91.4722C34.5372 93.8379 32.0588 94.8517 30.3691 93.9505Z" fill="#3F3B44"/>
</g>
<g id="Group_41" opacity="0.6">
<path id="Vector_64" opacity="0.3" d="M41.1838 74.4618C43.7748 75.9262 43.2115 81.7841 39.9446 87.4167C38.9307 89.1065 37.8042 90.6836 36.5651 91.9228C37.9169 90.5709 39.2687 88.8812 40.3952 86.8534C43.6621 81.2209 44.2254 75.363 41.6344 73.8985C39.832 72.8846 37.0157 74.2365 34.4247 76.9401C36.903 74.5744 39.494 73.4479 41.1838 74.4618Z" fill="#3F3B44"/>
</g>
<g id="Group_42">
<path id="Vector_65" d="M31.7208 90.7966C30.369 90.0081 30.4816 87.4171 31.8334 84.4881C31.9461 84.1502 32.1714 83.8122 32.3967 83.4743C34.1991 80.32 36.9027 78.4049 38.3672 79.3062C38.7052 79.4188 38.9305 79.7568 39.0431 80.0947C39.1558 79.7568 39.4937 79.3062 39.719 78.9682C39.9443 78.6302 40.2823 78.5176 40.5076 78.5176C40.6202 78.5176 40.6202 78.5176 40.7329 78.6302C40.9582 78.7429 41.1835 79.3062 41.1835 79.8694C41.1835 80.658 41.0709 81.3339 40.8455 82.0098C40.6202 82.4604 40.3949 82.7984 40.057 83.1363C39.9443 83.249 39.719 83.3616 39.6064 83.3616C39.4937 83.3616 39.3811 83.3616 39.2684 83.3616C39.2684 83.3616 39.2684 83.3616 39.1558 83.3616L39.0431 83.4743C38.9305 84.2628 38.3672 85.3893 37.804 86.5159C37.6913 86.7412 37.5787 86.9665 37.3534 87.1918C35.5509 90.0081 33.1852 91.4725 31.7208 90.7966Z" fill="#390176"/>
<path id="Vector_66" d="M40.7331 81.7845C40.9584 81.2212 41.071 80.658 40.9584 79.982C40.9584 79.4188 40.7331 78.9682 40.5078 78.8555H40.3951C40.2825 78.8555 40.0572 78.9682 39.8319 79.1935C39.6066 79.4188 39.3813 79.8694 39.2686 80.0947C39.2686 80.2074 39.2686 80.32 39.156 80.32C39.0433 80.32 38.9307 80.4327 38.818 80.4327C38.7054 80.0947 38.48 79.7567 38.1421 79.6441C36.7903 78.8555 34.1993 80.658 32.5095 83.5869C32.2842 83.9249 32.1716 84.2628 32.0589 84.6008C30.8197 87.3044 30.7071 89.7827 31.9463 90.4586C33.1854 91.2472 35.5511 89.7827 37.2409 87.1917C37.3535 86.9664 37.4662 86.7411 37.6915 86.5158C38.3674 85.3893 38.7054 84.2628 39.0433 83.3616C39.156 83.1363 39.3813 83.0236 39.4939 82.7983C39.4939 82.911 39.6066 82.911 39.6066 82.911C39.7192 82.911 39.8319 82.911 39.8319 82.911C39.9445 82.911 40.0572 82.7983 40.1698 82.6857C40.3951 82.4604 40.6204 82.1224 40.7331 81.7845Z" fill="#94512A"/>
<path id="Vector_67" d="M41.0706 81.2212C41.2959 80.658 41.4086 80.0947 41.2959 79.4188C41.2959 78.8556 41.0706 78.4049 40.8453 78.2923H40.7327C40.62 78.2923 40.3947 78.405 40.1694 78.6303C39.9441 78.8556 39.7188 79.3062 39.6062 79.5315C39.6062 79.6441 39.6061 79.7568 39.4935 79.7568C39.3808 79.7568 39.2682 79.7568 39.2682 79.7568C39.1555 79.4188 38.9302 79.0809 38.5923 78.9682C37.2405 78.1797 34.6495 79.9821 32.9597 82.911C32.7344 83.249 32.6218 83.5869 32.5091 83.9249C31.2699 86.6285 31.1573 89.1069 32.3965 89.7828C33.6356 90.5713 36.0013 89.1069 37.6911 86.5159C37.8037 86.2906 37.9164 86.0653 38.1417 85.84C38.8176 84.7134 39.1555 83.5869 39.4935 82.6857C39.6061 82.4604 39.8315 82.3478 39.9441 82.1225C39.9441 82.2351 40.0568 82.2351 40.0568 82.2351C40.1694 82.2351 40.2821 82.2351 40.2821 82.2351C40.3947 82.2351 40.5074 82.1225 40.62 82.0098C40.62 81.8972 40.8453 81.5592 41.0706 81.2212Z" fill="url(#paint35_linear_1285_10317)"/>
<path id="Vector_68" d="M41.0706 81.2212C41.2959 80.658 41.4086 80.0947 41.2959 79.4188C41.2959 78.8556 41.0706 78.4049 40.8453 78.2923H40.7327C40.62 78.2923 40.3947 78.405 40.1694 78.6303C39.9441 78.8556 39.7188 79.3062 39.6062 79.5315C39.6062 79.6441 39.6061 79.7568 39.4935 79.7568C39.3808 79.7568 39.2682 79.7568 39.2682 79.7568C39.1555 79.4188 38.9302 79.0809 38.5923 78.9682C37.2405 78.1797 34.6495 79.9821 32.9597 82.911C32.7344 83.249 32.6218 83.5869 32.5091 83.9249C31.2699 86.6285 31.1573 89.1069 32.3965 89.7828C33.6356 90.5713 36.0013 89.1069 37.6911 86.5159C37.8037 86.2906 37.9164 86.0653 38.1417 85.84C38.8176 84.7134 39.1555 83.5869 39.4935 82.6857C39.6061 82.4604 39.8315 82.3478 39.9441 82.1225C39.9441 82.2351 40.0568 82.2351 40.0568 82.2351C40.1694 82.2351 40.2821 82.2351 40.2821 82.2351C40.3947 82.2351 40.5074 82.1225 40.62 82.0098C40.62 81.8972 40.8453 81.5592 41.0706 81.2212Z" fill="url(#paint36_linear_1285_10317)"/>
<path id="Vector_69" d="M32.0587 90.1207C30.7068 89.3322 30.8195 86.7412 32.1713 83.8122C32.284 83.4743 32.5093 83.1363 32.7346 82.7984C34.537 79.6441 37.2406 77.7291 38.7051 78.6303C39.0431 78.7429 39.2684 79.0809 39.381 79.4188C39.4937 79.0809 39.8316 78.6303 40.0569 78.2923C40.2822 77.9544 40.6202 77.8417 40.8455 77.8417C40.9581 77.8417 40.9581 77.8417 41.0708 77.9544C41.2961 78.067 41.5214 78.6303 41.5214 79.1935C41.5214 79.9821 41.4087 80.658 41.1834 81.3339C40.9581 81.7845 40.7328 82.1225 40.3949 82.4604C40.2822 82.5731 40.0569 82.6857 39.9443 82.6857C39.8316 82.6857 39.719 82.6857 39.6063 82.6857C39.6063 82.6857 39.6063 82.6857 39.4937 82.6857L39.381 82.7984C39.1557 83.8122 38.7051 84.9387 38.0292 86.0653C37.9165 86.2906 37.8039 86.5159 37.5786 86.7412C35.8888 89.4448 33.4105 90.9093 32.0587 90.1207Z" fill="#390176"/>
<path id="Vector_70" d="M41.0706 81.2212C41.2959 80.658 41.4086 80.0947 41.2959 79.4188C41.2959 78.8556 41.0706 78.4049 40.8453 78.2923H40.7327C40.62 78.2923 40.3947 78.405 40.1694 78.6303C39.9441 78.8556 39.7188 79.3062 39.6062 79.5315C39.6062 79.6441 39.6061 79.7568 39.4935 79.7568C39.3808 79.7568 39.2682 79.7568 39.2682 79.7568C39.1555 79.4188 38.9302 79.0809 38.5923 78.9682C37.2405 78.1797 34.6495 79.9821 32.9597 82.911C32.7344 83.249 32.6218 83.5869 32.5091 83.9249C31.2699 86.6285 31.1573 89.1069 32.3965 89.7828C33.6356 90.5713 36.0013 89.1069 37.6911 86.5159C37.8037 86.2906 37.9164 86.0653 38.1417 85.84C38.8176 84.7134 39.1555 83.5869 39.4935 82.6857C39.6061 82.4604 39.8315 82.3478 39.9441 82.1225C39.9441 82.2351 40.0568 82.2351 40.0568 82.2351C40.1694 82.2351 40.2821 82.2351 40.2821 82.2351C40.3947 82.2351 40.5074 82.1225 40.62 82.0098C40.62 81.8972 40.8453 81.5592 41.0706 81.2212Z" fill="url(#paint37_linear_1285_10317)"/>
</g>
</g>
</g>
</g>
</g>
</g>
</g>
</g>
<g id="Group_43">
<g id="Group_44">
<g id="Group_45">
<path id="Vector_71" d="M55.4903 64.6619C63.038 67.4782 72.2754 61.5076 76.1055 51.369C79.9357 41.2303 76.8941 30.6411 69.4591 27.8248L62.0241 25.1212L48.0553 61.8456L55.4903 64.6619Z" fill="#390176"/>
<path id="Vector_72" d="M55.603 64.2113C62.8127 66.9149 71.7121 61.1697 75.4296 51.2564C79.1471 41.343 76.3309 31.0917 69.0085 28.3881L62.1368 25.9098L48.8439 61.5076L55.603 64.2113Z" fill="url(#paint38_linear_1285_10317)"/>
</g>
<g id="Group_46">
<path id="Vector_73" d="M69.392 48.9576C73.23 38.7689 70.2527 28.2158 62.7421 25.3867C55.2315 22.5576 46.0318 28.5238 42.1938 38.7125C38.3559 48.9013 41.3332 59.4544 48.8437 62.2835C56.3543 65.1126 65.5541 59.1464 69.392 48.9576Z" fill="#390176"/>
<path id="Vector_74" d="M69.0085 48.7779C65.291 58.6912 56.3915 64.4364 49.1818 61.7328C41.9721 59.0292 39.0431 48.7779 42.7606 38.8645C46.4781 28.9512 55.3776 23.206 62.5873 25.9096C69.797 28.6132 72.726 38.8645 69.0085 48.7779Z" fill="url(#paint39_linear_1285_10317)"/>
<g id="Group_47">
<path id="Vector_75" opacity="0.7" d="M51.3222 27.712C47.7174 30.0777 44.6758 33.9079 42.7607 38.8646C39.0432 48.7779 41.8595 59.0292 49.1818 61.7328C56.3915 64.4365 65.291 58.6912 69.0085 48.7779C65.4037 51.1436 61.3482 51.9321 57.7434 50.5803C50.421 47.8767 47.6047 37.6254 51.3222 27.712Z" fill="url(#paint40_linear_1285_10317)"/>
</g>
<g id="Group_48">
<path id="Vector_76" opacity="0.6" d="M49.745 61.2823C42.5353 58.5786 39.6063 48.3274 43.3238 38.414C44.9009 34.1333 47.4919 30.6411 50.4209 28.2754C47.154 30.6411 44.3377 34.3586 42.6479 38.8646C38.9304 48.778 41.7467 59.0293 49.069 61.7329C53.2371 63.31 57.8559 62.0709 61.7987 58.9166C58.0812 61.7329 53.6878 62.7468 49.745 61.2823Z" fill="white"/>
<path id="Vector_77" opacity="0.3" d="M61.9111 26.3605C69.1208 29.0642 72.0498 39.3155 68.3323 49.2288C66.7552 53.5096 64.1642 57.0018 61.2352 59.3674C64.5021 57.0018 67.3184 53.2843 69.0082 48.7782C72.7257 38.8649 69.9094 28.6136 62.587 25.9099C58.4189 24.3328 53.8002 25.572 49.8574 28.7262C53.6876 25.9099 58.081 24.8961 61.9111 26.3605Z" fill="white"/>
</g>
<path id="Vector_78" d="M66.6779 48.0424C69.7921 39.7749 67.4553 31.2416 61.4585 28.9827C55.4617 26.7238 48.0757 31.5947 44.9615 39.8622C41.8473 48.1296 44.1841 56.6629 50.1809 58.9218C56.1778 61.1807 63.5637 56.3098 66.6779 48.0424Z" fill="#390176"/>
<path id="Vector_79" d="M66.3047 47.8763C63.2631 55.8746 56.1661 60.6059 50.4208 58.3529C44.6756 56.0999 42.4226 47.989 45.3515 39.9907C48.2805 31.9924 55.4902 27.2611 61.2354 29.5141C66.9806 31.7671 69.3463 39.8781 66.3047 47.8763Z" fill="url(#paint41_linear_1285_10317)"/>
<g id="Group_49">
<path id="Vector_80" opacity="0.2" d="M53.0119 32.218C53.2372 31.5421 53.5751 30.8662 53.9131 30.1903C50.3082 31.88 47.154 35.3722 45.3516 40.1036C42.31 47.9892 44.6757 56.2128 50.4209 58.4658C55.7155 60.4935 62.1367 56.776 65.5162 50.1296C63.0379 51.2561 60.5595 51.4814 58.1939 50.5802C52.336 48.3272 50.0829 40.1036 53.0119 32.218Z" fill="url(#paint42_linear_1285_10317)"/>
</g>
<g id="Group_50" opacity="0.6">
<path id="Vector_81" opacity="0.3" d="M51.097 57.6771C45.3517 55.5367 43.0987 47.3132 46.0276 39.3149C46.9288 36.8366 48.2807 34.6962 49.8578 33.0064C48.0554 34.8089 46.3656 37.2872 45.3517 40.1035C42.3101 48.1017 44.5632 56.3253 50.421 58.4657C54.4765 59.9302 59.0952 58.1277 62.5874 54.2976C59.0952 57.5645 54.8145 59.0289 51.097 57.6771Z" fill="#3F3B44"/>
</g>
<g id="Group_51" opacity="0.6">
<path id="Vector_82" opacity="0.3" d="M60.5596 30.1907C66.3048 32.3311 68.5578 40.5546 65.6289 48.5529C64.7277 51.0312 63.3759 53.1716 61.7987 54.8614C63.6012 53.059 65.2909 50.5806 66.3048 47.7643C69.3464 39.7661 67.0934 31.5425 61.2355 29.4021C57.2927 27.9377 52.674 29.7401 49.1818 33.5702C52.5613 30.1907 56.8421 28.7262 60.5596 30.1907Z" fill="#3F3B44"/>
</g>
<g id="Group_52">
<path id="Vector_83" d="M51.998 53.1711C49.069 52.0446 47.6046 48.3271 48.6184 44.1589C48.7311 43.7083 48.8437 43.1451 49.069 42.6945C50.7588 38.1884 54.8143 35.5974 58.1938 36.8366C58.8697 37.0619 59.433 37.3998 59.8836 37.9631C59.9962 37.3998 60.2215 36.8366 60.6722 36.386C61.0101 35.9354 61.4607 35.8227 61.7987 35.8227C61.9113 35.8227 62.024 35.8227 62.2493 35.9354C62.8125 36.1607 63.4884 36.8366 63.9391 37.7378C64.5023 38.8643 64.615 39.8782 64.5023 40.6667C64.3897 41.23 64.0517 41.7933 63.6011 42.2439C63.3758 42.4692 63.1505 42.5818 62.9252 42.5818C62.6999 42.5818 62.4746 42.5818 62.2493 42.5818C62.2493 42.5818 62.1366 42.5818 62.1366 42.4692C62.1366 42.5818 62.024 42.5818 62.024 42.6945C62.1366 44.1589 61.9113 45.7361 61.3481 47.3132C61.2354 47.6511 61.1228 47.9891 60.8975 48.327C58.7571 52.1572 55.0396 54.2976 51.998 53.1711Z" fill="#390176"/>
<path id="Vector_84" d="M63.9392 40.6673C64.0519 39.8787 63.9392 39.0902 63.376 38.0763C63.038 37.2878 62.4748 36.6118 61.9115 36.3865C61.7989 36.3865 61.6862 36.2739 61.5736 36.2739C61.3483 36.2739 61.0103 36.3865 60.785 36.7245C60.447 37.0625 60.2217 37.6257 60.2217 37.9637C60.2217 38.0763 60.2217 38.189 60.2217 38.4143C59.9964 38.5269 59.7711 38.5269 59.6585 38.5269C59.2079 37.9637 58.532 37.6257 57.8561 37.2878C54.7018 36.1612 50.8717 38.5269 49.2945 42.8077C49.0692 43.2583 48.9566 43.7089 48.8439 44.1595C47.9427 47.877 49.2945 51.4819 52.1108 52.6084C55.0398 53.7349 58.532 51.7072 60.2217 47.9897C60.3344 47.6517 60.447 47.4264 60.5597 47.0884C61.1229 45.5113 61.3482 43.9342 61.2356 42.5824C61.3482 42.3571 61.5736 42.0191 61.7989 41.7938C61.9115 41.9065 62.0242 42.0191 62.1368 42.0191C62.3621 42.1318 62.4748 42.1318 62.7001 42.0191C62.9254 42.0191 63.038 41.9065 63.2633 41.7938C63.6013 41.5685 63.9392 41.1179 63.9392 40.6673Z" fill="#94512A"/>
<path id="Vector_85" d="M64.2774 39.8788C64.39 39.0902 64.2774 38.3017 63.7141 37.2878C63.3762 36.4992 62.8129 35.8233 62.2496 35.598C62.137 35.598 62.0243 35.4854 61.9117 35.4854C61.6864 35.4854 61.3484 35.598 61.1231 35.936C60.7852 36.2739 60.5599 36.8372 60.5599 37.1751C60.5599 37.2878 60.5599 37.4004 60.5599 37.6257C60.3346 37.7384 60.1093 37.7384 59.9966 37.7384C59.546 37.1751 58.8701 36.8372 58.1942 36.4992C55.0399 35.3727 51.2098 37.7384 49.6327 42.0192C49.4074 42.4698 49.2947 42.9204 49.1821 43.371C48.2808 47.0885 49.6327 50.6933 52.4489 51.8198C55.3779 52.9464 58.8701 50.9186 60.5599 47.2011C60.6725 46.8632 60.7852 46.6379 60.8978 46.2999C61.4611 44.7228 61.6864 43.1457 61.5737 41.7939C61.6864 41.5686 61.9117 41.2306 62.137 41.0053C62.2496 41.1179 62.3623 41.2306 62.4749 41.2306C62.7002 41.3432 62.8129 41.3432 63.0382 41.2306C63.2635 41.2306 63.3762 41.1179 63.6015 41.0053C63.9394 40.6673 64.1647 40.3294 64.2774 39.8788Z" fill="url(#paint43_linear_1285_10317)"/>
<path id="Vector_86" d="M64.2774 39.8788C64.39 39.0902 64.2774 38.3017 63.7141 37.2878C63.3762 36.4992 62.8129 35.8233 62.2496 35.598C62.137 35.598 62.0243 35.4854 61.9117 35.4854C61.6864 35.4854 61.3484 35.598 61.1231 35.936C60.7852 36.2739 60.5599 36.8372 60.5599 37.1751C60.5599 37.2878 60.5599 37.4004 60.5599 37.6257C60.3346 37.7384 60.1093 37.7384 59.9966 37.7384C59.546 37.1751 58.8701 36.8372 58.1942 36.4992C55.0399 35.3727 51.2098 37.7384 49.6327 42.0192C49.4074 42.4698 49.2947 42.9204 49.1821 43.371C48.2808 47.0885 49.6327 50.6933 52.4489 51.8198C55.3779 52.9464 58.8701 50.9186 60.5599 47.2011C60.6725 46.8632 60.7852 46.6379 60.8978 46.2999C61.4611 44.7228 61.6864 43.1457 61.5737 41.7939C61.6864 41.5686 61.9117 41.2306 62.137 41.0053C62.2496 41.1179 62.3623 41.2306 62.4749 41.2306C62.7002 41.3432 62.8129 41.3432 63.0382 41.2306C63.2635 41.2306 63.3762 41.1179 63.6015 41.0053C63.9394 40.6673 64.1647 40.3294 64.2774 39.8788Z" fill="url(#paint44_linear_1285_10317)"/>
<path id="Vector_87" d="M52.2233 52.2705C49.2944 51.144 47.8299 47.4265 48.8438 43.2583C48.9564 42.8077 49.0691 42.2445 49.2944 41.7939C50.9842 37.2878 55.0396 34.6968 58.4192 35.936C59.0951 36.1613 59.6583 36.4993 60.1089 37.0625C60.2216 36.4993 60.4469 35.936 60.8975 35.4854C61.2355 35.0348 61.6861 34.9221 62.024 34.9221C62.1367 34.9221 62.2493 34.9221 62.4746 35.0348C63.0379 35.2601 63.7138 35.936 64.1644 36.8372C64.7277 37.9637 64.8403 38.9776 64.7277 39.7662C64.615 40.3294 64.2771 40.8927 63.8264 41.3433C63.6011 41.5686 63.3758 41.6812 63.1505 41.6812C62.9252 41.6812 62.6999 41.6812 62.4746 41.6812C62.4746 41.6812 62.362 41.6812 62.362 41.5686C62.362 41.6812 62.2493 41.6812 62.2493 41.7939C62.362 43.2584 62.1367 44.8355 61.5734 46.4126C61.4608 46.7506 61.3481 47.0885 61.1228 47.4265C59.0951 51.3693 55.3776 53.5096 52.2233 52.2705Z" fill="#390176"/>
<path id="Vector_88" d="M64.2774 39.8788C64.39 39.0902 64.2774 38.3017 63.7141 37.2878C63.3762 36.4992 62.8129 35.8233 62.2496 35.598C62.137 35.598 62.0243 35.4854 61.9117 35.4854C61.6864 35.4854 61.3484 35.598 61.1231 35.936C60.7852 36.2739 60.5599 36.8372 60.5599 37.1751C60.5599 37.2878 60.5599 37.4004 60.5599 37.6257C60.3346 37.7384 60.1093 37.7384 59.9966 37.7384C59.546 37.1751 58.8701 36.8372 58.1942 36.4992C55.0399 35.3727 51.2098 37.7384 49.6327 42.0192C49.4074 42.4698 49.2947 42.9204 49.1821 43.371C48.2808 47.0885 49.6327 50.6933 52.4489 51.8198C55.3779 52.9464 58.8701 50.9186 60.5599 47.2011C60.6725 46.8632 60.7852 46.6379 60.8978 46.2999C61.4611 44.7228 61.6864 43.1457 61.5737 41.7939C61.6864 41.5686 61.9117 41.2306 62.137 41.0053C62.2496 41.1179 62.3623 41.2306 62.4749 41.2306C62.7002 41.3432 62.8129 41.3432 63.0382 41.2306C63.2635 41.2306 63.3762 41.1179 63.6015 41.0053C63.9394 40.6673 64.1647 40.3294 64.2774 39.8788Z" fill="url(#paint45_linear_1285_10317)"/>
<path id="Vector_89" d="M60.6724 47.201C58.87 50.8058 55.3778 52.8336 52.5615 51.8197C49.7452 50.8058 48.506 47.201 49.2946 43.3708C51.5476 42.019 54.0259 41.6811 56.1663 42.5823C58.1941 43.3708 59.7712 45.0606 60.6724 47.201Z" fill="url(#paint46_linear_1285_10317)"/>
</g>
</g>
</g>
</g>
<g id="Group_53">
<g id="Group_54">
<path id="Vector_90" d="M30.4821 32.1051C25.976 33.457 20.9067 29.6268 18.9916 23.5436C17.0765 17.4604 19.3296 11.4899 23.8356 10.1381L28.3417 8.78625L34.8755 30.7533L30.4821 32.1051Z" fill="#390176"/>
<path id="Vector_91" d="M30.482 31.7672C26.2013 33.1191 21.2446 29.2889 19.4422 23.431C17.6397 17.5732 19.7801 11.7153 24.0609 10.3634L28.1163 9.12428L34.5375 30.4154L30.482 31.7672Z" fill="url(#paint47_linear_1285_10317)"/>
</g>
<g id="Group_55">
<path id="Vector_92" d="M34.4576 30.9483C38.9874 29.5917 41.1836 23.5636 39.363 17.4841C37.5423 11.4046 32.3942 7.57598 27.8644 8.93255C23.3346 10.2891 21.1384 16.3172 22.9591 22.3967C24.7798 28.4762 29.9278 32.3049 34.4576 30.9483Z" fill="#390176"/>
<path id="Vector_93" d="M38.9306 17.5734C40.733 23.4312 38.5926 29.2891 34.3119 30.6409C30.0311 31.9928 25.0744 28.1626 23.272 22.3047C21.4696 16.4468 23.61 10.589 27.8907 9.23713C32.1715 7.88531 37.2408 11.7155 38.9306 17.5734Z" fill="url(#paint48_linear_1285_10317)"/>
<g id="Group_56">
<path id="Vector_94" opacity="0.7" d="M23.2723 14.0812C22.4837 16.4469 22.3711 19.3759 23.2723 22.3048C25.0747 28.1627 30.0314 31.9928 34.3122 30.641C38.5929 29.2892 40.7333 23.544 38.9309 17.5734C38.1423 19.9391 36.4525 21.7415 34.3122 22.4174C30.0314 23.7693 25.0747 19.9391 23.2723 14.0812Z" fill="url(#paint49_linear_1285_10317)"/>
</g>
<g id="Group_57">
<path id="Vector_95" opacity="0.6" d="M34.4246 30.1902C30.1438 31.542 25.1872 27.7119 23.3847 21.854C22.5962 19.263 22.5962 16.7847 23.1594 14.6443C22.4835 16.8973 22.4835 19.601 23.2721 22.3046C25.0745 28.1625 30.0312 31.9926 34.3119 30.6408C36.7903 29.8523 38.4801 27.7119 39.2686 24.7829C38.4801 27.4866 36.7903 29.5143 34.4246 30.1902Z" fill="white"/>
<path id="Vector_96" opacity="0.3" d="M27.7785 9.68757C32.0592 8.33575 37.0159 12.1659 38.8183 18.0238C39.6069 20.6148 39.6069 23.0931 39.0436 25.2335C39.7195 22.9805 39.7195 20.2768 38.931 17.5732C37.1285 11.7153 32.1719 7.88515 27.8911 9.23697C25.4128 10.0255 23.723 12.1659 22.9344 15.0948C23.8357 12.3912 25.4128 10.3635 27.7785 9.68757Z" fill="white"/>
</g>
<path id="Vector_97" d="M33.8443 28.8963C37.4205 27.8253 39.1185 22.9468 37.637 17.9997C36.1555 13.0527 32.0554 9.91057 28.4792 10.9816C24.9031 12.0525 23.205 16.9311 24.6866 21.8781C26.1681 26.8251 30.2682 29.9673 33.8443 28.8963Z" fill="#390176"/>
<path id="Vector_98" d="M37.4664 18.1368C38.9309 22.8682 37.2411 27.5995 33.7489 28.6134C30.2567 29.6273 26.3139 26.5857 24.9621 21.8543C23.4976 17.1229 25.1874 12.3916 28.6796 11.3777C32.0591 10.3638 36.002 13.2928 37.4664 18.1368Z" fill="url(#paint50_linear_1285_10317)"/>
<g id="Group_58">
<path id="Vector_99" opacity="0.2" d="M25.7507 15.5457C25.638 15.0951 25.5253 14.7571 25.4127 14.3065C24.2862 16.3343 24.0609 19.1505 24.9621 21.9668C26.4266 26.6982 30.3694 29.7398 33.8616 28.6133C37.0158 27.7121 38.7056 23.6566 37.917 19.3758C37.2411 20.7277 36.1146 21.7415 34.6501 22.1921C31.0453 23.3187 27.1025 20.2771 25.7507 15.5457Z" fill="url(#paint51_linear_1285_10317)"/>
</g>
<g id="Group_59" opacity="0.6">
<path id="Vector_100" opacity="0.3" d="M33.8616 28.0499C30.3694 29.0638 26.4266 26.0222 25.0748 21.2908C24.6242 19.8263 24.5115 18.3619 24.6242 17.01C24.3989 18.4745 24.5115 20.1643 25.0748 21.8541C26.5393 26.5854 30.4821 29.627 33.8616 28.6132C36.2273 27.9372 37.8044 25.4589 38.0297 22.4173C37.4665 25.121 36.002 27.374 33.8616 28.0499Z" fill="#3F3B44"/>
</g>
<g id="Group_60" opacity="0.3">
<path id="Vector_101" d="M28.4544 11.9406C31.9466 10.9267 35.8894 13.9683 37.2412 18.6997C37.6918 20.1642 37.8044 21.6286 37.6918 22.9804C37.9171 21.516 37.8044 19.8262 37.2412 18.1364C35.7767 13.4051 31.8339 10.3635 28.4544 11.3773C26.0887 12.0532 24.5116 14.5316 24.2863 17.5732C24.8495 14.7569 26.314 12.6165 28.4544 11.9406Z" fill="#3F3B44"/>
</g>
<g id="Group_61">
<path id="Vector_102" d="M32.6225 25.5715C30.82 26.1348 28.905 24.8956 27.8911 22.6426C27.7784 22.4173 27.6658 22.0793 27.5531 21.854C26.7646 19.1504 27.6658 16.5594 29.6935 15.8835C30.0315 15.7708 30.4821 15.7708 30.9327 15.7708C30.82 15.5455 30.7074 15.0949 30.7074 14.757C30.7074 14.419 30.82 14.1937 31.0453 14.0811C31.158 14.0811 31.158 13.9684 31.2706 13.9684C31.6086 13.8558 32.1719 13.9684 32.6225 14.1937C33.2984 14.5317 33.749 14.8696 33.9743 15.3202C34.0869 15.6582 34.1996 15.9961 34.0869 16.3341C34.0869 16.4467 33.9743 16.672 33.8616 16.7847C33.749 16.8974 33.6363 17.01 33.5237 17.01H33.411V17.1227C33.9743 17.7986 34.4249 18.5871 34.7628 19.4883C34.8755 19.7136 34.8755 19.9389 34.8755 20.0516C35.4387 22.7552 34.4249 25.1209 32.6225 25.5715Z" fill="#390176"/>
<path id="Vector_103" d="M33.7489 15.6582C33.5236 15.3202 33.1857 14.9823 32.5098 14.6443C32.0592 14.419 31.6086 14.3064 31.2706 14.419C31.1579 14.419 31.1579 14.419 31.0453 14.5317C30.9326 14.6443 30.82 14.757 30.82 14.9823C30.82 15.2076 30.82 15.5455 31.0453 15.7708C31.0453 15.8835 31.1579 15.8835 31.1579 15.9961C31.0453 16.1088 31.0453 16.2214 30.9326 16.2214C30.482 16.1088 30.0314 16.2214 29.6935 16.3341C27.7784 16.8973 26.8772 19.3757 27.6657 21.854C27.7784 22.0793 27.891 22.4173 28.0037 22.6426C28.9049 24.6703 30.82 25.9095 32.5098 25.4589C34.1995 24.8956 35.1007 22.7552 34.6501 20.3895C34.6501 20.1642 34.5375 20.0516 34.5375 19.8263C34.3122 18.9251 33.7489 18.1365 33.1857 17.4606C33.1857 17.2353 33.1857 17.1226 33.1857 16.8973C33.2983 16.8973 33.411 16.8973 33.411 16.8973C33.5236 16.8973 33.6363 16.7847 33.6363 16.672C33.7489 16.5594 33.7489 16.4467 33.7489 16.3341C33.9742 16.1088 33.8616 15.7708 33.7489 15.6582Z" fill="#94512A"/>
<path id="Vector_104" d="M33.6363 15.0949C33.411 14.757 33.073 14.419 32.3971 14.0811C31.9465 13.8558 31.4959 13.7431 31.1579 13.8558C31.0453 13.8558 31.0453 13.8558 30.9326 13.9684C30.82 14.0811 30.7073 14.1937 30.7073 14.419C30.7073 14.6443 30.7073 14.9823 30.9326 15.2076C30.9326 15.3202 31.0453 15.3202 31.0453 15.4329C30.9326 15.5455 30.9326 15.6582 30.82 15.6582C30.3694 15.5455 29.9188 15.6582 29.5808 15.7708C27.6657 16.3341 26.7645 18.8124 27.5531 21.2908C27.6657 21.5161 27.7784 21.854 27.891 22.0793C28.7922 24.1071 30.7073 25.3462 32.3971 24.8956C34.0869 24.3324 34.9881 22.192 34.5375 19.8263C34.5375 19.601 34.4248 19.4883 34.4248 19.263C34.1995 18.3618 33.6363 17.5733 33.073 16.8974C33.073 16.6721 33.073 16.5594 33.073 16.3341C33.1856 16.3341 33.2983 16.3341 33.2983 16.3341C33.4109 16.3341 33.5236 16.2214 33.5236 16.1088C33.6363 15.9961 33.6363 15.8835 33.6363 15.7708C33.7489 15.6582 33.7489 15.3202 33.6363 15.0949Z" fill="url(#paint52_linear_1285_10317)"/>
<path id="Vector_105" d="M33.6363 15.0949C33.411 14.757 33.073 14.419 32.3971 14.0811C31.9465 13.8558 31.4959 13.7431 31.1579 13.8558C31.0453 13.8558 31.0453 13.8558 30.9326 13.9684C30.82 14.0811 30.7073 14.1937 30.7073 14.419C30.7073 14.6443 30.7073 14.9823 30.9326 15.2076C30.9326 15.3202 31.0453 15.3202 31.0453 15.4329C30.9326 15.5455 30.9326 15.6582 30.82 15.6582C30.3694 15.5455 29.9188 15.6582 29.5808 15.7708C27.6657 16.3341 26.7645 18.8124 27.5531 21.2908C27.6657 21.5161 27.7784 21.854 27.891 22.0793C28.7922 24.1071 30.7073 25.3462 32.3971 24.8956C34.0869 24.3324 34.9881 22.192 34.5375 19.8263C34.5375 19.601 34.4248 19.4883 34.4248 19.263C34.1995 18.3618 33.6363 17.5733 33.073 16.8974C33.073 16.6721 33.073 16.5594 33.073 16.3341C33.1856 16.3341 33.2983 16.3341 33.2983 16.3341C33.4109 16.3341 33.5236 16.2214 33.5236 16.1088C33.6363 15.9961 33.6363 15.8835 33.6363 15.7708C33.7489 15.6582 33.7489 15.3202 33.6363 15.0949Z" fill="url(#paint53_linear_1285_10317)"/>
<path id="Vector_106" d="M32.5099 25.1207C30.7075 25.684 28.7924 24.4448 27.7785 22.1918C27.6659 21.9665 27.5532 21.6285 27.4406 21.4032C26.652 18.6996 27.5532 16.1086 29.581 15.4327C29.9189 15.32 30.3695 15.32 30.8201 15.32C30.7075 15.0947 30.5948 14.6441 30.5948 14.3062C30.5948 13.9682 30.7075 13.7429 30.9328 13.6302C31.0454 13.6302 31.0454 13.5176 31.1581 13.5176C31.496 13.4049 32.0593 13.5176 32.5099 13.7429C33.1858 14.0809 33.6364 14.4188 33.8617 14.8694C33.9744 15.2074 34.087 15.5453 33.9744 15.8833C33.9744 15.9959 33.8617 16.2212 33.7491 16.3339C33.6364 16.4465 33.5238 16.5592 33.4111 16.5592H33.2985V16.6718C33.8617 17.3478 34.3123 18.1363 34.6503 19.0375C34.7629 19.2628 34.7629 19.4881 34.7629 19.6008C35.3262 22.3044 34.3123 24.5575 32.5099 25.1207Z" fill="#390176"/>
<path id="Vector_107" d="M33.6363 15.0949C33.411 14.757 33.073 14.419 32.3971 14.0811C31.9465 13.8558 31.4959 13.7431 31.1579 13.8558C31.0453 13.8558 31.0453 13.8558 30.9326 13.9684C30.82 14.0811 30.7073 14.1937 30.7073 14.419C30.7073 14.6443 30.7073 14.9823 30.9326 15.2076C30.9326 15.3202 31.0453 15.3202 31.0453 15.4329C30.9326 15.5455 30.9326 15.6582 30.82 15.6582C30.3694 15.5455 29.9188 15.6582 29.5808 15.7708C27.6657 16.3341 26.7645 18.8124 27.5531 21.2908C27.6657 21.5161 27.7784 21.854 27.891 22.0793C28.7922 24.1071 30.7073 25.3462 32.3971 24.8956C34.0869 24.3324 34.9881 22.192 34.5375 19.8263C34.5375 19.601 34.4248 19.4883 34.4248 19.263C34.1995 18.3618 33.6363 17.5733 33.073 16.8974C33.073 16.6721 33.073 16.5594 33.073 16.3341C33.1856 16.3341 33.2983 16.3341 33.2983 16.3341C33.4109 16.3341 33.5236 16.2214 33.5236 16.1088C33.6363 15.9961 33.6363 15.8835 33.6363 15.7708C33.7489 15.6582 33.7489 15.3202 33.6363 15.0949Z" fill="url(#paint54_linear_1285_10317)"/>
<path id="Vector_108" d="M34.5377 19.8263C34.9883 22.192 34.0871 24.3323 32.3973 24.8956C30.7075 25.3462 28.9051 24.2197 27.8912 22.0793C28.4545 20.7275 29.4684 19.601 30.8202 19.263C32.0593 18.8124 33.4112 19.1504 34.5377 19.8263Z" fill="url(#paint55_linear_1285_10317)"/>
</g>
</g>
</g>
<path id="Vector_109" d="M109.112 84.2632C112.845 84.2632 115.872 81.2371 115.872 77.5041C115.872 73.7712 112.845 70.745 109.112 70.745C105.38 70.745 102.353 73.7712 102.353 77.5041C102.353 81.2371 105.38 84.2632 109.112 84.2632Z" fill="url(#paint56_radial_1285_10317)"/>
<path id="Vector_110" d="M82.0763 56.1002C84.5649 56.1002 86.5823 54.0828 86.5823 51.5941C86.5823 49.1055 84.5649 47.0881 82.0763 47.0881C79.5876 47.0881 77.5702 49.1055 77.5702 51.5941C77.5702 54.0828 79.5876 56.1002 82.0763 56.1002Z" fill="url(#paint57_radial_1285_10317)"/>
<path id="Vector_111" d="M109.112 50.4675C112.845 50.4675 115.872 47.4413 115.872 43.7084C115.872 39.9754 112.845 36.9493 109.112 36.9493C105.38 36.9493 102.353 39.9754 102.353 43.7084C102.353 47.4413 105.38 50.4675 109.112 50.4675Z" fill="url(#paint58_radial_1285_10317)"/>
<path id="Vector_112" d="M61.7991 18.3618C64.5988 18.3618 66.8684 16.0922 66.8684 13.2925C66.8684 10.4928 64.5988 8.22321 61.7991 8.22321C58.9993 8.22321 56.7297 10.4928 56.7297 13.2925C56.7297 16.0922 58.9993 18.3618 61.7991 18.3618Z" fill="url(#paint59_radial_1285_10317)"/>
<path id="Vector_113" opacity="0.4" d="M75.317 27.9375C79.0499 27.9375 82.076 24.9114 82.076 21.1785C82.076 17.4455 79.0499 14.4194 75.317 14.4194C71.584 14.4194 68.5579 17.4455 68.5579 21.1785C68.5579 24.9114 71.584 27.9375 75.317 27.9375Z" fill="url(#paint60_radial_1285_10317)"/>
<path id="Vector_114" d="M129.39 31.317C133.745 31.317 137.275 27.7865 137.275 23.4314C137.275 19.0763 133.745 15.5458 129.39 15.5458C125.035 15.5458 121.504 19.0763 121.504 23.4314C121.504 27.7865 125.035 31.317 129.39 31.317Z" fill="url(#paint61_radial_1285_10317)"/>
<path id="Vector_115" d="M98.2978 30.5285C102.653 30.5285 106.183 26.998 106.183 22.6429C106.183 18.2878 102.653 14.7573 98.2978 14.7573C93.9427 14.7573 90.4122 18.2878 90.4122 22.6429C90.4122 26.998 93.9427 30.5285 98.2978 30.5285Z" fill="url(#paint62_radial_1285_10317)"/>
<path id="Vector_116" d="M105.282 66.6898C109.638 66.6898 113.168 63.1593 113.168 58.8042C113.168 54.4491 109.638 50.9186 105.282 50.9186C100.927 50.9186 97.3969 54.4491 97.3969 58.8042C97.3969 63.1593 100.927 66.6898 105.282 66.6898Z" fill="url(#paint63_radial_1285_10317)"/>
<path id="Vector_117" d="M44.2253 24.1074C46.7761 24.1074 48.844 22.0395 48.844 19.4887C48.844 16.9378 46.7761 14.8699 44.2253 14.8699C41.6744 14.8699 39.6066 16.9378 39.6066 19.4887C39.6066 22.0395 41.6744 24.1074 44.2253 24.1074Z" fill="url(#paint64_radial_1285_10317)"/>
<path id="Vector_118" d="M34.4247 9.23743C36.9756 9.23743 39.0435 7.16956 39.0435 4.61872C39.0435 2.06787 36.9756 0 34.4247 0C31.8739 0 29.806 2.06787 29.806 4.61872C29.806 7.16956 31.8739 9.23743 34.4247 9.23743Z" fill="url(#paint65_radial_1285_10317)"/>
<path id="Vector_119" d="M9.19061 9.91331C11.7415 9.91331 13.8093 7.84544 13.8093 5.2946C13.8093 2.74375 11.7415 0.67588 9.19061 0.67588C6.63977 0.67588 4.5719 2.74375 4.5719 5.2946C4.5719 7.84544 6.63977 9.91331 9.19061 9.91331Z" fill="url(#paint66_radial_1285_10317)"/>
</g>
<defs>
<linearGradient id="paint0_linear_1285_10317" x1="50.2862" y1="33.4996" x2="125.921" y2="46.4446" gradientUnits="userSpaceOnUse">
<stop stop-color="#BA40F9" stop-opacity="0"/>
<stop offset="0.7198" stop-color="#BA43FA"/>
<stop offset="1" stop-color="white"/>
</linearGradient>
<linearGradient id="paint1_linear_1285_10317" x1="102.274" y1="117.495" x2="-9.80664" y2="6.05064" gradientUnits="userSpaceOnUse">
<stop offset="0.00220353" stop-color="#7DFAF5"/>
<stop offset="1" stop-color="#7A40FF"/>
</linearGradient>
<linearGradient id="paint2_linear_1285_10317" x1="-21.4807" y1="26.8126" x2="77.1336" y2="126.058" gradientUnits="userSpaceOnUse">
<stop offset="0.00220353" stop-color="#7DFAF5"/>
<stop offset="1" stop-color="#7A40FF"/>
</linearGradient>
<linearGradient id="paint3_linear_1285_10317" x1="-55.5134" y1="-7.43784" x2="43.1011" y2="91.8075" gradientUnits="userSpaceOnUse">
<stop stop-color="#7A40FF" stop-opacity="0"/>
<stop offset="0.0582713" stop-color="#7D45FF" stop-opacity="0.1203"/>
<stop offset="0.1306" stop-color="#8455FE" stop-opacity="0.2697"/>
<stop offset="0.2104" stop-color="#906EFD" stop-opacity="0.4343"/>
<stop offset="0.2955" stop-color="#A091FB" stop-opacity="0.6101"/>
<stop offset="0.3849" stop-color="#B6BEF8" stop-opacity="0.7947"/>
<stop offset="0.4766" stop-color="#D0F5F5" stop-opacity="0.984"/>
<stop offset="0.4843" stop-color="#D2FAF5"/>
<stop offset="0.5261" stop-color="#BED0F7" stop-opacity="0.919"/>
<stop offset="0.5723" stop-color="#ACAAF9" stop-opacity="0.8294"/>
<stop offset="0.6221" stop-color="#9D89FB" stop-opacity="0.7329"/>
<stop offset="0.6753" stop-color="#906EFD" stop-opacity="0.6297"/>
<stop offset="0.7331" stop-color="#865AFE" stop-opacity="0.5175"/>
<stop offset="0.798" stop-color="#7F4BFE" stop-opacity="0.3917"/>
<stop offset="0.8757" stop-color="#7B43FF" stop-opacity="0.241"/>
<stop offset="1" stop-color="#7A40FF" stop-opacity="0"/>
</linearGradient>
<linearGradient id="paint4_linear_1285_10317" x1="86.0358" y1="71.8226" x2="-18.9099" y2="48.6972" gradientUnits="userSpaceOnUse">
<stop stop-color="#322B8F"/>
<stop offset="1" stop-color="#A5B5F5"/>
</linearGradient>
<linearGradient id="paint5_linear_1285_10317" x1="51.4413" y1="38.0321" x2="-6.06412" y2="25.3604" gradientUnits="userSpaceOnUse">
<stop stop-color="#1F4BF5"/>
<stop offset="0.547" stop-color="#A9BEF5"/>
<stop offset="0.9988" stop-color="#FFDFF5"/>
</linearGradient>
<linearGradient id="paint6_linear_1285_10317" x1="79.9381" y1="96.3717" x2="1.6806" y2="79.1271" gradientUnits="userSpaceOnUse">
<stop stop-color="#592BF5"/>
<stop offset="0.2086" stop-color="#59A0F5"/>
<stop offset="0.9988" stop-color="#ECEDFF"/>
</linearGradient>
<linearGradient id="paint7_linear_1285_10317" x1="91.5725" y1="72.0584" x2="68.6913" y2="84.5846" gradientUnits="userSpaceOnUse">
<stop offset="0.199" stop-color="#FFDE43"/>
<stop offset="0.3362" stop-color="#FFD242"/>
<stop offset="0.5872" stop-color="#FFB13E"/>
<stop offset="0.9215" stop-color="#FF7B38"/>
<stop offset="1" stop-color="#FF6E37"/>
</linearGradient>
<linearGradient id="paint8_linear_1285_10317" x1="83.0186" y1="77.617" x2="75.004" y2="71.3728" gradientUnits="userSpaceOnUse">
<stop offset="0.199" stop-color="#FFDE43"/>
<stop offset="0.5646" stop-color="#FFD23E"/>
<stop offset="1" stop-color="#FFBD37"/>
</linearGradient>
<linearGradient id="paint9_linear_1285_10317" x1="79.6012" y1="76.4363" x2="73.8408" y2="71.9485" gradientUnits="userSpaceOnUse">
<stop offset="0.0180995" stop-color="#FFFFA0"/>
<stop offset="0.9762" stop-color="#FFEB6A"/>
</linearGradient>
<linearGradient id="paint10_linear_1285_10317" x1="77.5569" y1="71.8874" x2="79.7854" y2="76.6986" gradientUnits="userSpaceOnUse">
<stop stop-color="#F5942A"/>
<stop offset="1" stop-color="#F5D85D"/>
</linearGradient>
<linearGradient id="paint11_linear_1285_10317" x1="76.5685" y1="72.3452" x2="78.7997" y2="77.1623" gradientUnits="userSpaceOnUse">
<stop stop-color="#E08C3C"/>
<stop offset="1" stop-color="#FFD06F"/>
</linearGradient>
<linearGradient id="paint12_linear_1285_10317" x1="78.5385" y1="72.6713" x2="79.8264" y2="75.4518" gradientUnits="userSpaceOnUse">
<stop offset="0.1642" stop-color="#FFDE43"/>
<stop offset="0.2484" stop-color="#FFDA42"/>
<stop offset="1" stop-color="#FFBD37"/>
</linearGradient>
<linearGradient id="paint13_linear_1285_10317" x1="78.5385" y1="72.6713" x2="79.8264" y2="75.4518" gradientUnits="userSpaceOnUse">
<stop offset="0.1642" stop-color="#FFDE43"/>
<stop offset="0.2484" stop-color="#FFDA42"/>
<stop offset="1" stop-color="#FFBD37"/>
</linearGradient>
<linearGradient id="paint14_linear_1285_10317" x1="78.5385" y1="72.6713" x2="79.8264" y2="75.4518" gradientUnits="userSpaceOnUse">
<stop offset="0.0180995" stop-color="#FFFFA0"/>
<stop offset="0.9762" stop-color="#FFEB6A"/>
</linearGradient>
<linearGradient id="paint15_linear_1285_10317" x1="75.8845" y1="73.9247" x2="77.08" y2="76.5056" gradientUnits="userSpaceOnUse">
<stop offset="0.1642" stop-color="#FFDE43"/>
<stop offset="0.2484" stop-color="#FFDA42"/>
<stop offset="1" stop-color="#FFBD37"/>
</linearGradient>
<linearGradient id="paint16_linear_1285_10317" x1="48.3362" y1="55.4942" x2="98.9758" y2="74.567" gradientUnits="userSpaceOnUse">
<stop stop-color="#3D35F9" stop-opacity="0"/>
<stop offset="0.7198" stop-color="#3F38FA"/>
<stop offset="1" stop-color="white"/>
</linearGradient>
<linearGradient id="paint17_linear_1285_10317" x1="-1.4379" y1="35.4266" x2="16.6925" y2="10.6593" gradientUnits="userSpaceOnUse">
<stop stop-color="#84E2F9" stop-opacity="0"/>
<stop offset="0.7198" stop-color="#86E4FA"/>
<stop offset="1" stop-color="white"/>
</linearGradient>
<linearGradient id="paint18_linear_1285_10317" x1="15.0449" y1="56.26" x2="51.903" y2="30.7567" gradientUnits="userSpaceOnUse">
<stop stop-color="#5877F9" stop-opacity="0"/>
<stop offset="0.7198" stop-color="#5B7BFA"/>
<stop offset="1" stop-color="white"/>
</linearGradient>
<linearGradient id="paint19_linear_1285_10317" x1="16.8132" y1="37.2082" x2="42.1416" y2="12.2949" gradientUnits="userSpaceOnUse">
<stop stop-color="#5ABDF9" stop-opacity="0"/>
<stop offset="0.7198" stop-color="#5DC1FA"/>
<stop offset="1" stop-color="white"/>
</linearGradient>
<linearGradient id="paint20_linear_1285_10317" x1="27.248" y1="44.4389" x2="98.4797" y2="44.4389" gradientUnits="userSpaceOnUse">
<stop stop-color="#F92EEC" stop-opacity="0"/>
<stop offset="0.7198" stop-color="#FA31EF"/>
<stop offset="1" stop-color="white"/>
</linearGradient>
<linearGradient id="paint21_linear_1285_10317" x1="5.11955" y1="47.1549" x2="17.7885" y2="68.739" gradientUnits="userSpaceOnUse">
<stop offset="0.199" stop-color="#FFDE43"/>
<stop offset="0.3362" stop-color="#FFD242"/>
<stop offset="0.5872" stop-color="#FFB13E"/>
<stop offset="0.9215" stop-color="#FF7B38"/>
<stop offset="1" stop-color="#FF6E37"/>
</linearGradient>
<linearGradient id="paint22_linear_1285_10317" x1="21.9545" y1="41.9947" x2="12.61" y2="59.5006" gradientUnits="userSpaceOnUse">
<stop offset="0.199" stop-color="#FFDE43"/>
<stop offset="0.5646" stop-color="#FFD23E"/>
<stop offset="1" stop-color="#FFBD37"/>
</linearGradient>
<linearGradient id="paint23_linear_1285_10317" x1="21.63" y1="43.9075" x2="13.009" y2="60.0581" gradientUnits="userSpaceOnUse">
<stop offset="0.0180995" stop-color="#FFFFA0"/>
<stop offset="0.9762" stop-color="#FFEB6A"/>
</linearGradient>
<linearGradient id="paint24_linear_1285_10317" x1="8.8137" y1="57.0638" x2="25.2266" y2="45.7067" gradientUnits="userSpaceOnUse">
<stop stop-color="#F5942A"/>
<stop offset="1" stop-color="#F5D85D"/>
</linearGradient>
<linearGradient id="paint25_linear_1285_10317" x1="9.54443" y1="58.114" x2="25.9909" y2="46.7337" gradientUnits="userSpaceOnUse">
<stop stop-color="#E08C3C"/>
<stop offset="1" stop-color="#FFD06F"/>
</linearGradient>
<linearGradient id="paint26_linear_1285_10317" x1="11.9922" y1="54.2224" x2="21.4776" y2="47.6588" gradientUnits="userSpaceOnUse">
<stop offset="0.1642" stop-color="#FFDE43"/>
<stop offset="0.2484" stop-color="#FFDA42"/>
<stop offset="1" stop-color="#FFBD37"/>
</linearGradient>
<linearGradient id="paint27_linear_1285_10317" x1="11.9922" y1="54.2224" x2="21.4776" y2="47.6588" gradientUnits="userSpaceOnUse">
<stop offset="0.1642" stop-color="#FFDE43"/>
<stop offset="0.2484" stop-color="#FFDA42"/>
<stop offset="1" stop-color="#FFBD37"/>
</linearGradient>
<linearGradient id="paint28_linear_1285_10317" x1="11.9922" y1="54.2224" x2="21.4776" y2="47.6588" gradientUnits="userSpaceOnUse">
<stop offset="0.0180995" stop-color="#FFFFA0"/>
<stop offset="0.9762" stop-color="#FFEB6A"/>
</linearGradient>
<linearGradient id="paint29_linear_1285_10317" x1="13.9866" y1="56.9592" x2="22.7908" y2="50.867" gradientUnits="userSpaceOnUse">
<stop offset="0.1642" stop-color="#FFDE43"/>
<stop offset="0.2484" stop-color="#FFDA42"/>
<stop offset="1" stop-color="#FFBD37"/>
</linearGradient>
<linearGradient id="paint30_linear_1285_10317" x1="45.2933" y1="74.72" x2="36.1256" y2="98.7462" gradientUnits="userSpaceOnUse">
<stop offset="0.199" stop-color="#FFDE43"/>
<stop offset="0.3362" stop-color="#FFD242"/>
<stop offset="0.5872" stop-color="#FFB13E"/>
<stop offset="0.9215" stop-color="#FF7B38"/>
<stop offset="1" stop-color="#FF6E37"/>
</linearGradient>
<linearGradient id="paint31_linear_1285_10317" x1="43.0034" y1="84.4921" x2="29.4464" y2="83.8507" gradientUnits="userSpaceOnUse">
<stop offset="0.199" stop-color="#FFDE43"/>
<stop offset="0.5646" stop-color="#FFD23E"/>
<stop offset="1" stop-color="#FFBD37"/>
</linearGradient>
<linearGradient id="paint32_linear_1285_10317" x1="40.2455" y1="85.3759" x2="28.9518" y2="84.8416" gradientUnits="userSpaceOnUse">
<stop offset="0.0180995" stop-color="#FFFFA0"/>
<stop offset="0.9762" stop-color="#FFEB6A"/>
</linearGradient>
<linearGradient id="paint33_linear_1285_10317" x1="31.0842" y1="81.4804" x2="40.4159" y2="86.8537" gradientUnits="userSpaceOnUse">
<stop stop-color="#F5942A"/>
<stop offset="1" stop-color="#F5D85D"/>
</linearGradient>
<linearGradient id="paint34_linear_1285_10317" x1="30.4654" y1="82.565" x2="39.8086" y2="87.945" gradientUnits="userSpaceOnUse">
<stop stop-color="#E08C3C"/>
<stop offset="1" stop-color="#FFD06F"/>
</linearGradient>
<linearGradient id="paint35_linear_1285_10317" x1="33.3353" y1="82.146" x2="38.7282" y2="85.2513" gradientUnits="userSpaceOnUse">
<stop offset="0.1642" stop-color="#FFDE43"/>
<stop offset="0.2484" stop-color="#FFDA42"/>
<stop offset="1" stop-color="#FFBD37"/>
</linearGradient>
<linearGradient id="paint36_linear_1285_10317" x1="33.3353" y1="82.146" x2="38.7282" y2="85.2513" gradientUnits="userSpaceOnUse">
<stop offset="0.1642" stop-color="#FFDE43"/>
<stop offset="0.2484" stop-color="#FFDA42"/>
<stop offset="1" stop-color="#FFBD37"/>
</linearGradient>
<linearGradient id="paint37_linear_1285_10317" x1="33.3353" y1="82.146" x2="38.7282" y2="85.2513" gradientUnits="userSpaceOnUse">
<stop offset="0.0180995" stop-color="#FFFFA0"/>
<stop offset="0.9762" stop-color="#FFEB6A"/>
</linearGradient>
<linearGradient id="paint38_linear_1285_10317" x1="65.2422" y1="31.8774" x2="61.7304" y2="63.754" gradientUnits="userSpaceOnUse">
<stop offset="0.199" stop-color="#FFDE43"/>
<stop offset="0.3362" stop-color="#FFD242"/>
<stop offset="0.5872" stop-color="#FFB13E"/>
<stop offset="0.9215" stop-color="#FF7B38"/>
<stop offset="1" stop-color="#FF6E37"/>
</linearGradient>
<linearGradient id="paint39_linear_1285_10317" x1="68.0286" y1="42.4193" x2="45.2241" y2="45.0518" gradientUnits="userSpaceOnUse">
<stop offset="0.199" stop-color="#FFDE43"/>
<stop offset="0.5646" stop-color="#FFD23E"/>
<stop offset="1" stop-color="#FFBD37"/>
</linearGradient>
<linearGradient id="paint40_linear_1285_10317" x1="65.6439" y1="43.5321" x2="44.9103" y2="45.9255" gradientUnits="userSpaceOnUse">
<stop offset="0.0180995" stop-color="#FFFFA0"/>
<stop offset="0.9762" stop-color="#FFEB6A"/>
</linearGradient>
<linearGradient id="paint41_linear_1285_10317" x1="45.3519" y1="39.9873" x2="66.2769" y2="47.8694" gradientUnits="userSpaceOnUse">
<stop stop-color="#F5942A"/>
<stop offset="1" stop-color="#F5D85D"/>
</linearGradient>
<linearGradient id="paint42_linear_1285_10317" x1="44.7801" y1="41.5456" x2="65.7471" y2="49.4435" gradientUnits="userSpaceOnUse">
<stop stop-color="#E08C3C"/>
<stop offset="1" stop-color="#FFD06F"/>
</linearGradient>
<linearGradient id="paint43_linear_1285_10317" x1="50.0643" y1="40.9649" x2="62.1574" y2="45.5201" gradientUnits="userSpaceOnUse">
<stop offset="0.1642" stop-color="#FFDE43"/>
<stop offset="0.2484" stop-color="#FFDA42"/>
<stop offset="1" stop-color="#FFBD37"/>
</linearGradient>
<linearGradient id="paint44_linear_1285_10317" x1="50.0643" y1="40.9649" x2="62.1574" y2="45.5201" gradientUnits="userSpaceOnUse">
<stop offset="0.1642" stop-color="#FFDE43"/>
<stop offset="0.2484" stop-color="#FFDA42"/>
<stop offset="1" stop-color="#FFBD37"/>
</linearGradient>
<linearGradient id="paint45_linear_1285_10317" x1="50.0643" y1="40.9649" x2="62.1574" y2="45.5201" gradientUnits="userSpaceOnUse">
<stop offset="0.0180995" stop-color="#FFFFA0"/>
<stop offset="0.9762" stop-color="#FFEB6A"/>
</linearGradient>
<linearGradient id="paint46_linear_1285_10317" x1="48.6289" y1="45.0385" x2="59.8564" y2="49.2677" gradientUnits="userSpaceOnUse">
<stop offset="0.1642" stop-color="#FFDE43"/>
<stop offset="0.2484" stop-color="#FFDA42"/>
<stop offset="1" stop-color="#FFBD37"/>
</linearGradient>
<linearGradient id="paint47_linear_1285_10317" x1="26.1666" y1="12.5523" x2="26.9238" y2="31.2564" gradientUnits="userSpaceOnUse">
<stop offset="0.199" stop-color="#FFDE43"/>
<stop offset="0.3362" stop-color="#FFD242"/>
<stop offset="0.5872" stop-color="#FFB13E"/>
<stop offset="0.9215" stop-color="#FF7B38"/>
<stop offset="1" stop-color="#FF6E37"/>
</linearGradient>
<linearGradient id="paint48_linear_1285_10317" x1="36.2836" y1="14.9525" x2="26.6279" y2="24.2434" gradientUnits="userSpaceOnUse">
<stop offset="0.199" stop-color="#FFDE43"/>
<stop offset="0.5646" stop-color="#FFD23E"/>
<stop offset="1" stop-color="#FFBD37"/>
</linearGradient>
<linearGradient id="paint49_linear_1285_10317" x1="35.5623" y1="16.3045" x2="26.7835" y2="24.7517" gradientUnits="userSpaceOnUse">
<stop offset="0.0180995" stop-color="#FFFFA0"/>
<stop offset="0.9762" stop-color="#FFEB6A"/>
</linearGradient>
<linearGradient id="paint50_linear_1285_10317" x1="24.9277" y1="21.8783" x2="37.4259" y2="18.1353" gradientUnits="userSpaceOnUse">
<stop stop-color="#F5942A"/>
<stop offset="1" stop-color="#F5D85D"/>
</linearGradient>
<linearGradient id="paint51_linear_1285_10317" x1="25.2056" y1="22.7876" x2="37.7244" y2="19.0385" gradientUnits="userSpaceOnUse">
<stop stop-color="#E08C3C"/>
<stop offset="1" stop-color="#FFD06F"/>
</linearGradient>
<linearGradient id="paint52_linear_1285_10317" x1="27.4513" y1="20.6606" x2="34.6772" y2="18.4966" gradientUnits="userSpaceOnUse">
<stop offset="0.1642" stop-color="#FFDE43"/>
<stop offset="0.2484" stop-color="#FFDA42"/>
<stop offset="1" stop-color="#FFBD37"/>
</linearGradient>
<linearGradient id="paint53_linear_1285_10317" x1="27.4513" y1="20.6606" x2="34.6772" y2="18.4966" gradientUnits="userSpaceOnUse">
<stop offset="0.1642" stop-color="#FFDE43"/>
<stop offset="0.2484" stop-color="#FFDA42"/>
<stop offset="1" stop-color="#FFBD37"/>
</linearGradient>
<linearGradient id="paint54_linear_1285_10317" x1="27.4513" y1="20.6606" x2="34.6772" y2="18.4966" gradientUnits="userSpaceOnUse">
<stop offset="0.0180995" stop-color="#FFFFA0"/>
<stop offset="0.9762" stop-color="#FFEB6A"/>
</linearGradient>
<linearGradient id="paint55_linear_1285_10317" x1="28.2346" y1="23.0869" x2="34.9416" y2="21.0783" gradientUnits="userSpaceOnUse">
<stop offset="0.1642" stop-color="#FFDE43"/>
<stop offset="0.2484" stop-color="#FFDA42"/>
<stop offset="1" stop-color="#FFBD37"/>
</linearGradient>
<radialGradient id="paint56_radial_1285_10317" cx="0" cy="0" r="1" gradientUnits="userSpaceOnUse" gradientTransform="translate(109.112 77.5041) scale(6.75909)">
<stop offset="0.00151496" stop-color="#CBFFFF"/>
<stop offset="0.00905204" stop-color="#CBFFFF" stop-opacity="0.987"/>
<stop offset="0.2044" stop-color="#CDFFFF" stop-opacity="0"/>
</radialGradient>
<radialGradient id="paint57_radial_1285_10317" cx="0" cy="0" r="1" gradientUnits="userSpaceOnUse" gradientTransform="translate(82.0763 51.5941) scale(4.50606)">
<stop offset="0.00151496" stop-color="#CBFFFF"/>
<stop offset="0.00905204" stop-color="#CBFFFF" stop-opacity="0.987"/>
<stop offset="0.2044" stop-color="#CDFFFF" stop-opacity="0"/>
</radialGradient>
<radialGradient id="paint58_radial_1285_10317" cx="0" cy="0" r="1" gradientUnits="userSpaceOnUse" gradientTransform="translate(109.112 43.7084) scale(6.75909)">
<stop offset="0.00151496" stop-color="#CBFFFF"/>
<stop offset="0.00905204" stop-color="#CBFFFF" stop-opacity="0.987"/>
<stop offset="0.2044" stop-color="#CDFFFF" stop-opacity="0"/>
</radialGradient>
<radialGradient id="paint59_radial_1285_10317" cx="0" cy="0" r="1" gradientUnits="userSpaceOnUse" gradientTransform="translate(61.7991 13.2925) scale(5.11844)">
<stop offset="0.00151496" stop-color="#CBFFFF"/>
<stop offset="0.00905204" stop-color="#CBFFFF" stop-opacity="0.987"/>
<stop offset="0.2044" stop-color="#CDFFFF" stop-opacity="0"/>
</radialGradient>
<radialGradient id="paint60_radial_1285_10317" cx="0" cy="0" r="1" gradientUnits="userSpaceOnUse" gradientTransform="translate(75.317 21.1785) scale(6.75909)">
<stop offset="0.00151496" stop-color="#CBFFFF"/>
<stop offset="0.00905204" stop-color="#CBFFFF" stop-opacity="0.987"/>
<stop offset="0.2044" stop-color="#CDFFFF" stop-opacity="0"/>
</radialGradient>
<radialGradient id="paint61_radial_1285_10317" cx="0" cy="0" r="1" gradientUnits="userSpaceOnUse" gradientTransform="translate(129.39 23.4314) scale(7.88561)">
<stop offset="0.1202" stop-color="white"/>
<stop offset="0.1655" stop-color="#7E15EC"/>
<stop offset="0.5081" stop-color="#7A14E2" stop-opacity="0.5322"/>
<stop offset="0.8978" stop-color="#7714DC" stop-opacity="0"/>
</radialGradient>
<radialGradient id="paint62_radial_1285_10317" cx="0" cy="0" r="1" gradientUnits="userSpaceOnUse" gradientTransform="translate(98.2978 22.6429) scale(7.88561 7.88561)">
<stop offset="0.1202" stop-color="white"/>
<stop offset="0.1655" stop-color="#D400EC"/>
<stop offset="0.5081" stop-color="#CC00E2" stop-opacity="0.5322"/>
<stop offset="0.8978" stop-color="#C800DC" stop-opacity="0"/>
</radialGradient>
<radialGradient id="paint63_radial_1285_10317" cx="0" cy="0" r="1" gradientUnits="userSpaceOnUse" gradientTransform="translate(105.282 58.8042) scale(7.88561)">
<stop offset="0.1202" stop-color="white"/>
<stop offset="0.1655" stop-color="#1E10EC"/>
<stop offset="0.5081" stop-color="#1E0FE2" stop-opacity="0.5322"/>
<stop offset="0.8978" stop-color="#1E0FDC" stop-opacity="0"/>
</radialGradient>
<radialGradient id="paint64_radial_1285_10317" cx="0" cy="0" r="1" gradientUnits="userSpaceOnUse" gradientTransform="translate(44.1817 19.4431) scale(4.65634 4.65634)">
<stop offset="0.1202" stop-color="white"/>
<stop offset="0.1655" stop-color="#1E10EC"/>
<stop offset="0.5081" stop-color="#1E0FE2" stop-opacity="0.5322"/>
<stop offset="0.8978" stop-color="#1E0FDC" stop-opacity="0"/>
</radialGradient>
<radialGradient id="paint65_radial_1285_10317" cx="0" cy="0" r="1" gradientUnits="userSpaceOnUse" gradientTransform="translate(34.438 4.65949) scale(4.65634 4.65634)">
<stop offset="0.1202" stop-color="white"/>
<stop offset="0.1655" stop-color="#10C6EC"/>
<stop offset="0.5586" stop-color="#05B8E1" stop-opacity="0.4632"/>
<stop offset="0.8978" stop-color="#00B2DC" stop-opacity="0"/>
</radialGradient>
<radialGradient id="paint66_radial_1285_10317" cx="0" cy="0" r="1" gradientUnits="userSpaceOnUse" gradientTransform="translate(9.23849 5.33155) scale(4.65634)">
<stop offset="0.1202" stop-color="white"/>
<stop offset="0.1655" stop-color="#10C6EC"/>
<stop offset="0.5586" stop-color="#05B8E1" stop-opacity="0.4632"/>
<stop offset="0.8978" stop-color="#00B2DC" stop-opacity="0"/>
</radialGradient>
</defs>
</svg>
