<svg width="516" height="328" viewBox="0 0 516 328" fill="none" xmlns="http://www.w3.org/2000/svg">
<path d="M90.8305 129.597L90.5469 129.23L136.209 94.2222L136.255 94.2039L207.479 73.9558L207.608 74.4047L136.42 94.6345L90.8305 129.597Z" fill="#4747B5"/>
<path d="M243.316 258.405L181.003 238.652L180.984 238.505L170.097 132.263L136.146 94.5794L136.484 94.2771L170.546 132.07L170.555 132.144L181.424 238.304L243.453 257.966L243.316 258.405Z" fill="#4747B5"/>
<path d="M379.5 71.3057L358.955 110.412L359.36 110.625L379.905 71.519L379.5 71.3057Z" fill="#4747B5"/>
<path d="M266.764 292.167L243.142 258.241L243.16 258.14L259.647 179.264L133.089 180.189L170.197 131.951L253.014 123.706L207.223 74.1849L240.919 39.9006L241.248 40.2213L207.854 74.194L253.581 123.641L359.224 110.302L359.288 110.338L418.747 141.269L418.673 141.462L395.746 199.32L422.177 232.358L421.821 232.642L395.444 199.677L339.563 244.168L266.755 292.158L266.764 292.167ZM243.636 258.14L266.883 291.535L339.306 243.801L394.904 199.53L322.866 192.677L260.113 179.301L243.636 258.131V258.14ZM260.141 178.852L322.939 192.237L395.344 199.118L418.179 141.489L359.15 110.787L253.755 124.09L260.141 178.852ZM170.444 132.391L134.032 179.722L259.674 178.806L253.297 124.136L170.444 132.391Z" fill="#4747B5"/>
<path d="M207.353 74.0587L170.145 132.055L170.529 132.303L207.738 74.3063L207.353 74.0587Z" fill="#4747B5"/>
<path d="M170.437 131.967L170.226 132.373L259.833 179.246L260.045 178.84L170.437 131.967Z" fill="#4747B5"/>
<path d="M323.102 192.37L322.667 192.51L339.211 244.051L339.647 243.91L323.102 192.37Z" fill="#4747B5"/>
<path d="M102.738 78.1315L102.541 78.5449L136.221 94.6398L136.418 94.2264L102.738 78.1315Z" fill="#4747B5"/>
<path d="M243.417 258.414L243.353 257.956L338.877 243.838L259.784 179.209L260.077 178.852L339.974 244.14L243.417 258.414Z" fill="#4747B5"/>
<path d="M395.28 199.439L359.178 111.126L323.095 192.54L322.674 192.356L359.196 109.953L395.701 199.265L395.28 199.439Z" fill="#4747B5"/>
<path d="M253.614 123.689L253.399 124.093L395.391 199.572L395.606 199.168L253.614 123.689Z" fill="#4747B5"/>
<path d="M181.176 241.566L133.382 180.098L133.739 179.814L181.25 240.915L260.443 178.989L359.489 110.063L240.974 39.3508L241.203 38.9568L360.331 110.036L360.038 110.237L260.717 179.365L181.176 241.566Z" fill="#4747B5"/>
<path d="M207.583 73.9583L207.476 74.4038L359.119 110.75L359.225 110.304L207.583 73.9583Z" fill="#4747B5"/>
<path d="M241.315 40.029L240.862 40.0962L253.267 123.92L253.72 123.853L241.315 40.029Z" fill="#4747B5"/>
<path d="M133.688 179.75L133.423 180.124L243.253 258.345L243.518 257.972L133.688 179.75Z" fill="#4747B5"/>
<path d="M181.16 240.991L133.377 251.617L133.476 252.064L181.259 241.438L181.16 240.991Z" fill="#4747B5"/>
<path d="M259.949 191.559L270.589 185.412V173.08L259.931 179.035L259.949 191.559Z" fill="#00A000"/>
<path d="M249.272 173.079L259.93 179.035L270.589 173.079L259.93 166.923L249.272 173.079Z" fill="#00DF44"/>
<path d="M259.949 191.559L249.272 185.412V173.08L259.93 179.035L259.949 191.559Z" fill="#55F25D"/>
<path d="M250.416 173.721L251.23 174.179V171.943L250.416 172.42V173.721Z" fill="#36EB83"/>
<path d="M251.678 174.426L252.794 175.049V171.046L251.678 171.687V174.426Z" fill="#36EB83"/>
<path d="M241.102 52.5807L251.751 46.433V34.1101L241.093 40.0563L241.102 52.5807Z" fill="#00A000"/>
<path d="M230.425 34.1101L241.093 40.0563L251.751 34.1101L241.093 27.9441L230.425 34.1101Z" fill="#00DF44"/>
<path d="M241.102 52.5807L230.425 46.433V34.1101L241.093 40.0563L241.102 52.5807Z" fill="#55F25D"/>
<path d="M231.578 34.7515L232.392 35.2097V32.9741L231.578 33.4414V34.7515Z" fill="#36EB83"/>
<path d="M232.84 35.4571L233.957 36.0801V32.0671L232.84 32.7176V35.4571Z" fill="#36EB83"/>
<path d="M133.574 192.476L144.224 186.337V174.005L133.556 179.951L133.574 192.476Z" fill="#00A000"/>
<path d="M122.897 174.005L133.556 179.951L144.224 174.005L133.556 167.839L122.897 174.005Z" fill="#00DF44"/>
<path d="M133.574 192.476L122.897 186.337V174.005L133.556 179.951L133.574 192.476Z" fill="#55F25D"/>
<path d="M124.042 174.646L124.865 175.104V172.869L124.042 173.345V174.646Z" fill="#36EB83"/>
<path d="M125.313 175.352L126.429 175.975V171.962L125.313 172.612V175.352Z" fill="#36EB83"/>
<path d="M243.398 270.71L254.048 264.562V252.239L243.389 258.185L243.398 270.71Z" fill="#00A000"/>
<path d="M232.722 252.239L243.389 258.185L254.048 252.239L243.389 246.073L232.722 252.239Z" fill="#00DF44"/>
<path d="M243.399 270.71L232.722 264.562V252.239L243.389 258.185L243.399 270.71Z" fill="#55F25D"/>
<path d="M233.874 252.872L234.688 253.33V251.103L233.874 251.571V252.872Z" fill="#36EB83"/>
<path d="M235.137 253.577L236.253 254.2V250.196L235.137 250.838V253.577Z" fill="#36EB83"/>
<path d="M266.828 300.056L273.809 296.034V287.953L266.819 291.847L266.828 300.056Z" fill="#00A000"/>
<path d="M259.839 287.953L266.82 291.847L273.809 287.953L266.82 283.912L259.839 287.953Z" fill="#00DF44"/>
<path d="M266.829 300.056L259.839 296.034V287.953L266.82 291.847L266.829 300.056Z" fill="#55F25D"/>
<path d="M260.589 288.374L261.129 288.667V287.211L260.589 287.513V288.374Z" fill="#36EB83"/>
<path d="M261.422 288.832L262.154 289.245V286.615L261.422 287.037V288.832Z" fill="#36EB83"/>
<path d="M181.359 246.678L188.34 242.647V234.566L181.35 238.469L181.359 246.678Z" fill="#00A000"/>
<path d="M174.36 234.566L181.35 238.469L188.34 234.566L181.35 230.534L174.36 234.566Z" fill="#00DF44"/>
<path d="M181.359 246.678L174.36 242.647V234.566L181.35 238.469L181.359 246.678Z" fill="#55F25D"/>
<path d="M175.12 234.987L175.65 235.29V233.824L175.12 234.135V234.987Z" fill="#36EB83"/>
<path d="M175.943 235.454L176.675 235.858V233.237L175.943 233.659V235.454Z" fill="#36EB83"/>
<path d="M170.335 140.371L177.306 136.349V128.268L170.326 132.162L170.335 140.371Z" fill="#00A000"/>
<path d="M163.336 128.268L170.326 132.162L177.306 128.268L170.326 124.228L163.336 128.268Z" fill="#00DF44"/>
<path d="M170.335 140.371L163.336 136.349V128.268L170.326 132.162L170.335 140.371Z" fill="#55F25D"/>
<path d="M164.086 128.69L164.626 128.983V127.526L164.086 127.838V128.69Z" fill="#36EB83"/>
<path d="M164.919 129.148L165.651 129.56V126.93L164.919 127.352V129.148Z" fill="#36EB83"/>
<path d="M207.553 82.3848L214.533 78.3626V70.2817L207.543 74.1848L207.553 82.3848Z" fill="#00A000"/>
<path d="M200.554 70.2819L207.543 74.1849L214.533 70.2819L207.543 66.2415L200.554 70.2819Z" fill="#00DF44"/>
<path d="M207.553 82.3848L200.554 78.3626V70.2817L207.543 74.1848L207.553 82.3848Z" fill="#55F25D"/>
<path d="M201.313 70.7031L201.844 71.0055V69.5396L201.313 69.8511V70.7031Z" fill="#36EB83"/>
<path d="M202.137 71.1705L202.869 71.5736V68.9441L202.137 69.3747V71.1705Z" fill="#36EB83"/>
<path d="M253.508 132.089L260.479 128.066V119.986L253.499 123.879L253.508 132.089Z" fill="#00A000"/>
<path d="M246.509 119.986L253.499 123.88L260.479 119.986L253.499 115.945L246.509 119.986Z" fill="#00DF44"/>
<path d="M253.508 132.089L246.509 128.066V119.986L253.499 123.879L253.508 132.089Z" fill="#55F25D"/>
<path d="M247.259 120.407L247.799 120.7V119.244L247.259 119.546V120.407Z" fill="#36EB83"/>
<path d="M248.092 120.865L248.824 121.277V118.648L248.092 119.069V120.865Z" fill="#36EB83"/>
<path d="M359.196 118.74L366.177 114.718V106.637L359.187 110.54L359.196 118.74Z" fill="#00A000"/>
<path d="M352.197 106.637L359.187 110.54L366.177 106.637L359.187 102.596L352.197 106.637Z" fill="#00DF44"/>
<path d="M359.196 118.74L352.197 114.718V106.637L359.187 110.54L359.196 118.74Z" fill="#55F25D"/>
<path d="M352.957 107.058L353.488 107.36V105.895L352.957 106.206V107.058Z" fill="#36EB83"/>
<path d="M353.78 107.516L354.512 107.929V105.299L353.78 105.721V107.516Z" fill="#36EB83"/>
<path d="M322.893 200.657L329.874 196.626V188.554L322.884 192.448L322.893 200.657Z" fill="#00A000"/>
<path d="M315.895 188.554L322.884 192.448L329.874 188.554L322.884 184.514L315.895 188.554Z" fill="#00DF44"/>
<path d="M322.893 200.657L315.895 196.626V188.554L322.884 192.448L322.893 200.657Z" fill="#55F25D"/>
<path d="M316.654 188.967L317.184 189.269V187.803L316.654 188.114V188.967Z" fill="#36EB83"/>
<path d="M317.477 189.434L318.209 189.846V187.217L317.477 187.638V189.434Z" fill="#36EB83"/>
<path d="M339.435 252.194L346.416 248.171V240.091L339.426 243.994L339.435 252.194Z" fill="#00A000"/>
<path d="M332.445 240.09L339.425 243.993L346.415 240.09L339.425 236.05L332.445 240.09Z" fill="#00DF44"/>
<path d="M339.435 252.194L332.445 248.171V240.091L339.425 243.994L339.435 252.194Z" fill="#55F25D"/>
<path d="M333.195 240.512L333.726 240.814V239.348L333.195 239.66V240.512Z" fill="#36EB83"/>
<path d="M334.019 240.97L334.75 241.382V238.753L334.019 239.174V240.97Z" fill="#36EB83"/>
<path d="M395.499 207.556L402.48 203.534V195.453L395.49 199.347L395.499 207.556Z" fill="#00A000"/>
<path d="M388.5 195.453L395.49 199.347L402.48 195.453L395.49 191.413L388.5 195.453Z" fill="#00DF44"/>
<path d="M395.499 207.556L388.5 203.534V195.453L395.49 199.347L395.499 207.556Z" fill="#55F25D"/>
<path d="M389.26 195.875L389.79 196.177V194.711L389.26 195.022V195.875Z" fill="#36EB83"/>
<path d="M390.083 196.333L390.815 196.745V194.115L390.083 194.537V196.333Z" fill="#36EB83"/>
<path d="M418.473 149.579L425.453 145.548V137.467L418.463 141.37L418.473 149.579Z" fill="#00A000"/>
<path d="M411.482 137.467L418.463 141.37L425.453 137.467L418.463 133.436L411.482 137.467Z" fill="#00DF44"/>
<path d="M418.472 149.579L411.482 145.548V137.467L418.463 141.37L418.472 149.579Z" fill="#55F25D"/>
<path d="M412.233 137.888L412.773 138.191V136.725L412.233 137.036V137.888Z" fill="#36EB83"/>
<path d="M413.065 138.356L413.797 138.759V136.138L413.065 136.56V138.356Z" fill="#36EB83"/>
<path d="M136.328 102.633L143.3 98.6107V90.5298L136.319 94.4328L136.328 102.633Z" fill="#00A000"/>
<path d="M129.33 90.5299L136.319 94.433L143.3 90.5299L136.319 86.4895L129.33 90.5299Z" fill="#00DF44"/>
<path d="M136.329 102.633L129.33 98.6107V90.5298L136.319 94.4328L136.329 102.633Z" fill="#55F25D"/>
<path d="M130.08 90.9512L130.619 91.2535V89.7876L130.08 90.0991V90.9512Z" fill="#36EB83"/>
<path d="M130.912 91.4185L131.644 91.8216V89.1921L130.912 89.6228V91.4185Z" fill="#36EB83"/>
</svg>
