<svg width="90" height="165" viewBox="0 0 90 165" fill="none" xmlns="http://www.w3.org/2000/svg">
<g id="Group 9919">
<path id="Vector" d="M45.044 147.907L87.5405 123.431V74.3369L44.9873 98.0266L45.044 147.907Z" fill="#00A000"/>
<path id="Vector_2" d="M2.43408 74.3371L44.9873 98.0268L87.5405 74.3371L44.9873 49.79L2.43408 74.3371Z" fill="#00DF44"/>
<path id="Vector_3" d="M28.1152 67.3925L55.6046 82.8833L60.789 79.907L33.7748 64.1753L28.1152 67.3925Z" fill="black"/>
<path id="Vector_4" d="M45.044 147.907L2.43408 123.431V74.3369L44.9873 98.0266L45.044 147.907Z" fill="#55F25D"/>
<path id="Vector_5" d="M40.4414 139.957L7.03711 120.774V82.2881L40.3917 100.854L40.4414 139.957Z" fill="#00DF44"/>
<path id="Vector_6" d="M36.6611 114.425L10.8242 99.5859V89.7146L36.6186 104.072L36.6611 114.425Z" fill="#FFB200"/>
<path id="Vector_7" d="M29.4769 68.1578L33.7748 65.6634V64.1753L28.1152 67.3925L29.4769 68.1578Z" fill="#006000"/>
<path id="Vector_8" d="M33.7603 64.1895L33.7744 65.6634L59.3631 80.729L60.7886 79.907L33.7744 64.1753L33.7603 64.1895Z" fill="#55F25D"/>
<path id="Vector_9" d="M13.2143 91.0468L10.8242 89.7146V99.5859H13.2143V91.0468Z" fill="black"/>
<path id="Vector_10" d="M36.654 112.809L13.2143 99.5857H10.8242L36.6611 114.425L36.654 112.809Z" fill="#AA6D00"/>
<path id="Vector_11" d="M17.732 109.896C18.4324 109.306 18.3263 108.029 17.495 107.045C16.6638 106.061 15.4221 105.743 14.7217 106.333C14.0214 106.924 14.1275 108.201 14.9588 109.185C15.79 110.168 17.0316 110.487 17.732 109.896Z" fill="#AA6D00"/>
<path id="Vector_12" d="M17.2177 109.561C17.7894 109.079 17.7039 108.038 17.0268 107.237C16.3496 106.435 15.3372 106.176 14.7656 106.658C14.1939 107.141 14.2794 108.181 14.9565 108.983C15.6337 109.784 16.646 110.043 17.2177 109.561Z" fill="#FFB200"/>
<path id="Vector_13" d="M17.7252 116.13C18.4255 115.539 18.3194 114.263 17.4882 113.279C16.6569 112.295 15.4153 111.976 14.7149 112.567C14.0145 113.158 14.1206 114.434 14.9519 115.418C15.7832 116.402 17.0248 116.721 17.7252 116.13Z" fill="#AA6D00"/>
<path id="Vector_14" d="M17.2099 115.795C17.7816 115.313 17.6961 114.272 17.0189 113.47C16.3418 112.669 15.3294 112.41 14.7578 112.892C14.1861 113.374 14.2716 114.415 14.9487 115.217C15.6259 116.018 16.6382 116.277 17.2099 115.795Z" fill="#FFB200"/>
<path id="Vector_15" d="M17.7296 122.362C18.4299 121.771 18.3238 120.495 17.4926 119.511C16.6613 118.527 15.4197 118.208 14.7193 118.799C14.0189 119.39 14.125 120.666 14.9563 121.65C15.7876 122.634 17.0292 122.953 17.7296 122.362Z" fill="#AA6D00"/>
<path id="Vector_16" d="M17.2148 122.027C17.7865 121.544 17.701 120.504 17.0238 119.702C16.3467 118.901 15.3343 118.642 14.7626 119.124C14.191 119.606 14.2765 120.647 14.9536 121.449C15.6308 122.25 16.6431 122.509 17.2148 122.027Z" fill="#FFB200"/>
<path id="Vector_17" d="M24.8648 114.048C25.5652 113.457 25.4591 112.181 24.6278 111.197C23.7966 110.213 22.5549 109.894 21.8546 110.485C21.1542 111.076 21.2603 112.352 22.0916 113.336C22.9228 114.32 24.1645 114.639 24.8648 114.048Z" fill="#AA6D00"/>
<path id="Vector_18" d="M24.3447 113.717C24.9163 113.235 24.8308 112.194 24.1537 111.393C23.4766 110.591 22.4642 110.332 21.8925 110.815C21.3209 111.297 21.4063 112.337 22.0835 113.139C22.7606 113.94 23.773 114.199 24.3447 113.717Z" fill="#FFB200"/>
<path id="Vector_19" d="M24.8624 120.28C25.5628 119.689 25.4566 118.413 24.6254 117.429C23.7941 116.445 22.5525 116.126 21.8521 116.717C21.1517 117.308 21.2578 118.584 22.0891 119.568C22.9204 120.552 24.162 120.871 24.8624 120.28Z" fill="#AA6D00"/>
<path id="Vector_20" d="M24.3422 119.956C24.9139 119.474 24.8284 118.433 24.1513 117.632C23.4741 116.83 22.4618 116.571 21.8901 117.054C21.3184 117.536 21.4039 118.576 22.081 119.378C22.7582 120.179 23.7706 120.438 24.3422 119.956Z" fill="#FFB200"/>
<path id="Vector_21" d="M24.8668 126.519C25.5672 125.928 25.4611 124.652 24.6298 123.668C23.7985 122.684 22.5569 122.365 21.8565 122.956C21.1561 123.547 21.2623 124.823 22.0935 125.807C22.9248 126.791 24.1664 127.11 24.8668 126.519Z" fill="#AA6D00"/>
<path id="Vector_22" d="M24.3466 126.188C24.9183 125.706 24.8328 124.665 24.1556 123.864C23.4785 123.062 22.4662 122.804 21.8945 123.286C21.3228 123.768 21.4083 124.809 22.0854 125.61C22.7626 126.412 23.7749 126.67 24.3466 126.188Z" fill="#FFB200"/>
<path id="Vector_23" d="M31.9893 118.209C32.6897 117.619 32.5836 116.342 31.7523 115.358C30.9211 114.374 29.6794 114.056 28.9791 114.646C28.2787 115.237 28.3848 116.514 29.2161 117.498C30.0473 118.481 31.289 118.8 31.9893 118.209Z" fill="#AA6D00"/>
<path id="Vector_24" d="M31.475 117.874C32.0467 117.392 31.9612 116.351 31.2841 115.55C30.6069 114.748 29.5946 114.489 29.0229 114.972C28.4512 115.454 28.5367 116.494 29.2139 117.296C29.891 118.097 30.9034 118.356 31.475 117.874Z" fill="#FFB200"/>
<path id="Vector_25" d="M31.9942 124.442C32.6946 123.851 32.5885 122.574 31.7572 121.59C30.926 120.607 29.6843 120.288 28.984 120.879C28.2836 121.469 28.3897 122.746 29.221 123.73C30.0522 124.714 31.2938 125.032 31.9942 124.442Z" fill="#AA6D00"/>
<path id="Vector_26" d="M31.4794 124.113C32.0511 123.631 31.9656 122.591 31.2885 121.789C30.6113 120.988 29.599 120.729 29.0273 121.211C28.4556 121.693 28.5411 122.734 29.2183 123.535C29.8954 124.337 30.9078 124.595 31.4794 124.113Z" fill="#FFB200"/>
<path id="Vector_27" d="M31.9874 130.675C32.6878 130.084 32.5817 128.808 31.7504 127.824C30.9191 126.84 29.6775 126.521 28.9771 127.112C28.2767 127.703 28.3828 128.979 29.2141 129.963C30.0454 130.947 31.287 131.266 31.9874 130.675Z" fill="#AA6D00"/>
<path id="Vector_28" d="M31.4726 130.34C32.0443 129.858 31.9588 128.817 31.2816 128.016C30.6045 127.214 29.5921 126.955 29.0205 127.437C28.4488 127.92 28.5343 128.96 29.2114 129.762C29.8886 130.563 30.9009 130.822 31.4726 130.34Z" fill="#FFB200"/>
<path id="Vector_29" d="M7.0083 76.8881L10.2778 78.7093V69.8159L7.0083 71.7009V76.8881Z" fill="#36EB83"/>
<path id="Vector_30" d="M12.0654 79.7014L16.5193 82.1816V66.2161L12.0654 68.7813V79.7014Z" fill="#36EB83"/>
<path id="Vector_31" d="M16.5475 99.3801C15.9376 99.0329 15.1007 98.4305 15.0439 97.5022L15.5546 97.7999C15.6397 98.2888 16.0581 98.6502 16.6042 98.962C17.2212 99.3163 17.6184 99.3801 17.6184 98.9124C17.6184 98.5297 17.3702 98.2746 16.8454 97.9203L16.3205 97.566C15.5404 97.0416 15.1078 96.5101 15.1078 95.8936C15.1078 95.2771 15.5546 95.1496 16.6326 95.7661C17.3205 96.1629 18.051 96.7369 18.1149 97.6298L17.6113 97.3392C17.5262 96.8715 17.1574 96.5172 16.6042 96.1983C15.9943 95.844 15.661 95.8228 15.661 96.2054C15.661 96.5668 15.9447 96.8432 16.4553 97.1904L16.9801 97.5377C17.7815 98.0762 18.1787 98.5723 18.1787 99.2242C18.1787 99.8762 17.7248 100.053 16.5546 99.3801H16.5475Z" fill="black"/>
<path id="Vector_32" d="M21.7461 98.7849V99.2738L20.3844 98.4943V101.52L19.8383 101.208V98.1825L18.4766 97.403V96.9141L21.7461 98.7919V98.7849Z" fill="black"/>
<path id="Vector_33" d="M24.5832 103.93L24.3563 103.285L22.2428 102.066L22.0159 102.449L21.4414 102.123L23.0017 99.5078L23.5974 99.848L25.1506 104.256L24.5762 103.93H24.5832ZM22.4414 101.74L24.1648 102.732L23.3066 100.28L22.4414 101.74Z" fill="black"/>
<path id="Vector_34" d="M29.1505 106.552L28.5052 106.176L27.3278 104.078L26.1718 104.837L25.6328 104.525V101.017L26.1718 101.329V104.1L28.3988 102.612L29.03 102.973L27.647 103.873L29.1505 106.544V106.552Z" fill="black"/>
<path id="Vector_35" d="M32.569 105.488L30.1789 104.114V105.198L32.4626 106.509V106.948L30.1789 105.637V106.665L32.569 108.04V108.521L29.6328 106.835V103.327L32.569 105.014V105.496V105.488Z" fill="black"/>
<path id="Vector_36" d="M65.4694 36.6661C65.4977 35.4543 64.6183 34.193 62.8807 33.2363L37.3204 19.1557C34.2424 17.4621 29.6254 17.3841 27.0226 18.9857C25.8878 19.6872 25.3204 20.5872 25.292 21.5226V51.2214C25.2566 52.4332 26.136 53.7088 27.8807 54.6725L53.441 68.7531C56.519 70.4467 61.136 70.5247 63.7389 68.9231C64.9233 68.1933 65.4906 67.2437 65.4694 66.2587V36.6661Z" fill="#FFC94A"/>
<path id="Vector_37" d="M62.881 33.2435L55.7817 29.3318V69.6673C58.5477 70.3901 61.7321 70.1492 63.7321 68.9232C64.9165 68.1933 65.4839 67.2438 65.4626 66.2588V36.6662C65.491 35.4544 64.6115 34.193 62.8739 33.2364L62.881 33.2435Z" fill="#FFAE0E"/>
<path id="Vector_38" d="M62.8807 33.2434C65.9587 34.937 66.3487 37.6157 63.7388 39.2172C61.1289 40.8187 56.519 40.7407 53.4409 39.0471L27.8807 24.9665C24.8026 23.2729 24.4126 20.5942 27.0225 18.9927C29.6324 17.3912 34.2424 17.4692 37.3204 19.1628L62.8807 33.2434Z" fill="#F8ECA4"/>
<path id="Vector_39" d="M44.2146 45.2191C44.2146 42.8948 42.3281 40.2162 40.0018 39.2453C37.6756 38.2745 35.7891 39.3658 35.7891 41.6901C35.7891 43.2775 36.6685 45.0349 37.9735 46.2962V52.3196C37.9735 53.4393 38.8813 54.729 40.0018 55.1967C41.1224 55.6644 42.0302 55.14 42.0302 54.0204V47.997C43.3281 47.8269 44.2146 46.8135 44.2146 45.2191Z" fill="black"/>
<path id="Vector_40" d="M55.9875 36.6731C55.9875 36.6731 55.9378 36.6731 55.9094 36.6731C54.3917 36.6306 53.1931 35.3693 53.2357 33.8457L53.5761 21.728C53.725 16.392 49.6186 9.68124 44.6045 7.07346C42.5264 5.98925 40.6187 5.79792 39.3633 6.52781C38.2357 7.19393 37.5832 8.66081 37.5265 10.6592L37.1931 22.6918C37.1506 24.2083 35.8881 25.4058 34.3633 25.3633C32.8456 25.3208 31.647 24.0594 31.6896 22.5359L32.0229 10.5033C32.1364 6.54199 33.7534 3.44525 36.5761 1.78704C39.4981 0.0721481 43.3492 0.220963 47.1435 2.19805C54.0442 5.79083 59.2853 14.4362 59.0725 21.8839L58.7321 34.0016C58.6896 35.4968 57.4697 36.6731 55.9804 36.6731H55.9875Z" fill="white"/>
<path id="Vector_41" d="M4.46969 164.801C2.10799 164.801 0.200195 162.888 0.200195 160.536C0.200195 158.183 2.11508 156.27 4.46969 156.27H85.5051C87.8669 156.27 89.7747 158.183 89.7747 160.536C89.7747 162.888 87.8598 164.801 85.5051 164.801H4.46969Z" fill="#616191"/>
<path id="Vector_42" d="M4.46969 164.801C2.10799 164.801 0.200195 162.888 0.200195 160.536C0.200195 158.183 2.11508 156.27 4.46969 156.27H73.3775C75.7392 156.27 77.647 158.183 77.647 160.536C77.647 162.888 75.7321 164.801 73.3775 164.801H4.46969Z" fill="#2E7BFF"/>
</g>
</svg>
