<svg width="318" height="170" viewBox="0 0 318 170" fill="none" xmlns="http://www.w3.org/2000/svg">
<path d="M25.4112 106.159H24.248V106.528H25.4112V106.159Z" fill="white"/>
<path d="M292.88 106.528H290.553V106.159H292.88V106.528ZM289 106.528H286.674V106.159H289V106.528ZM285.121 106.528H282.794V106.159H285.121V106.528ZM281.241 106.528H278.915V106.159H281.241V106.528ZM277.362 106.528H275.036V106.159H277.362V106.528ZM273.482 106.528H271.156V106.159H273.482V106.528ZM269.603 106.528H267.277V106.159H269.603V106.528ZM265.724 106.528H263.397V106.159H265.724V106.528ZM261.844 106.528H259.518V106.159H261.844V106.528ZM257.965 106.528H255.638V106.159H257.965V106.528ZM254.085 106.528H251.759V106.159H254.085V106.528ZM250.206 106.528H247.88V106.159H250.206V106.528ZM246.326 106.528H244V106.159H246.326V106.528ZM242.447 106.528H240.121V106.159H242.447V106.528ZM238.568 106.528H236.241V106.159H238.568V106.528ZM234.688 106.528H232.362V106.159H234.688V106.528ZM230.809 106.528H228.482V106.159H230.809V106.528ZM226.929 106.528H224.603V106.159H226.929V106.528ZM223.05 106.528H220.724V106.159H223.05V106.528ZM219.17 106.528H216.844V106.159H219.17V106.528ZM215.291 106.528H212.965V106.159H215.291V106.528ZM211.411 106.528H209.085V106.159H211.411V106.528ZM207.532 106.528H205.206V106.159H207.532V106.528ZM203.653 106.528H201.326V106.159H203.653V106.528ZM199.773 106.528H197.447V106.159H199.773V106.528ZM195.894 106.528H193.568V106.159H195.894V106.528ZM192.014 106.528H189.688V106.159H192.014V106.528ZM188.135 106.528H185.809V106.159H188.135V106.528ZM184.255 106.528H181.929V106.159H184.255V106.528ZM180.376 106.528H178.05V106.159H180.376V106.528ZM176.497 106.528H174.17V106.159H176.497V106.528ZM172.617 106.528H170.291V106.159H172.617V106.528ZM168.738 106.528H166.412V106.159H168.738V106.528ZM164.858 106.528H162.532V106.159H164.858V106.528ZM160.979 106.528H158.653V106.159H160.979V106.528ZM157.099 106.528H154.773V106.159H157.099V106.528ZM153.22 106.528H150.894V106.159H153.22V106.528ZM149.341 106.528H147.014V106.159H149.341V106.528ZM145.461 106.528H143.135V106.159H145.461V106.528ZM141.582 106.528H139.255V106.159H141.582V106.528ZM137.702 106.528H135.376V106.159H137.702V106.528ZM133.823 106.528H131.497V106.159H133.823V106.528ZM129.943 106.528H127.617V106.159H129.943V106.528ZM126.064 106.528H123.738V106.159H126.064V106.528ZM122.185 106.528H119.858V106.159H122.185V106.528ZM118.305 106.528H115.979V106.159H118.305V106.528ZM114.426 106.528H112.099V106.159H114.426V106.528ZM110.546 106.528H108.22V106.159H110.546V106.528ZM106.667 106.528H104.341V106.159H106.667V106.528ZM102.787 106.528H100.461V106.159H102.787V106.528ZM98.908 106.528H96.5817V106.159H98.908V106.528ZM95.0285 106.528H92.7023V106.159H95.0285V106.528ZM91.1491 106.528H88.8229V106.159H91.1491V106.528ZM87.2697 106.528H84.9434V106.159H87.2697V106.528ZM83.3902 106.528H81.064V106.159H83.3902V106.528ZM79.5108 106.528H77.1846V106.159H79.5108V106.528ZM75.6314 106.528H73.3051V106.159H75.6314V106.528ZM71.7519 106.528H69.4257V106.159H71.7519V106.528ZM67.8725 106.528H65.5463V106.159H67.8725V106.528ZM63.9931 106.528H61.6668V106.159H63.9931V106.528ZM60.1137 106.528H57.7874V106.159H60.1137V106.528ZM56.2342 106.528H53.908V106.159H56.2342V106.528ZM52.3548 106.528H50.0286V106.159H52.3548V106.528ZM48.4754 106.528H46.1491V106.159H48.4754V106.528ZM44.5959 106.528H42.2697V106.159H44.5959V106.528ZM40.7165 106.528H38.3903V106.159H40.7165V106.528ZM36.8371 106.528H34.5108V106.159H36.8371V106.528ZM32.9576 106.528H30.6314V106.159H32.9576V106.528ZM29.0782 106.528H26.752V106.159H29.0782V106.528Z" fill="white"/>
<path d="M295.588 106.159H294.425V106.528H295.588V106.159Z" fill="white"/>
<path d="M85.2411 55.8796H0.134766V146.758H0.156041C0.241148 147.475 0.666682 148.166 1.43264 148.568L40.2341 169.001C41.7589 169.806 43.617 169.806 45.1419 169.001L83.9433 148.568C84.7092 148.166 85.1348 147.475 85.2199 146.758H85.2411V55.8796Z" fill="#DCEAFF"/>
<path d="M43.0425 169.591C43.7659 169.544 44.4822 169.35 45.1418 169.001L83.9432 148.568C84.7091 148.166 85.1347 147.475 85.2198 146.758H85.2411V55.8796H43.0425V169.591Z" fill="#B1C5DD"/>
<path d="M1.43256 58.5882L40.234 79.0217C41.7588 79.8261 43.617 79.8261 45.1418 79.0217L83.9432 58.5882C85.6524 57.6898 85.6737 55.3636 83.9787 54.4384L45.2056 33.2809C43.6453 32.4295 41.7233 32.4295 40.1631 33.2809L1.39001 54.4384C-0.305025 55.3636 -0.290841 57.6831 1.42547 58.5882H1.43256Z" fill="white"/>
<path d="M35.794 147.603L35.7586 88.2395C35.7586 86.7446 34.9004 85.3636 33.5175 84.6328L9.27632 71.8686C8.58837 71.5066 7.82951 71.5401 7.21958 71.8351L7.18412 71.8485C7.14157 71.8686 7.1061 71.8887 7.06355 71.9088L4.20539 73.1222C3.51745 73.4574 3.021 74.1278 3.021 74.9591V133.893C3.021 135.375 3.85788 136.736 5.21249 137.473L29.5175 150.68C30.2692 151.089 31.1203 151.015 31.7657 150.633L34.6167 149.426C35.2976 149.091 35.794 148.421 35.794 147.596V147.603Z" fill="#B1C5DD"/>
<path d="M30.5035 85.9198L6.26239 73.1556C4.80849 72.3914 3.01416 73.3835 3.01416 74.959V133.893C3.01416 135.375 3.85104 136.735 5.20565 137.473L29.5106 150.68C30.9645 151.471 32.7872 150.479 32.7872 148.89L32.7517 89.5266C32.7517 88.0316 31.8936 86.6506 30.5106 85.9198H30.5035Z" fill="#EBF4FF"/>
<path d="M28.248 90.579L8.34733 80.1008C7.14875 79.4706 5.68066 80.2885 5.68066 81.5823V107.614C5.68066 108.827 6.36861 109.947 7.48208 110.557L27.4395 121.397C28.6381 122.047 30.1275 121.229 30.1275 119.929L30.0991 93.5421C30.0991 92.3153 29.397 91.1823 28.2551 90.579H28.248Z" fill="#00DF44"/>
<path d="M8.4901 80.1948H8.32617V110.765H8.4901V80.1948Z" fill="#55F25D"/>
<path d="M12.2914 82.293H12.1274V112.863H12.2914V82.293Z" fill="#55F25D"/>
<path d="M16.0926 84.3916H15.9287V114.961H16.0926V84.3916Z" fill="#55F25D"/>
<path d="M19.8871 86.4832H19.7231V117.053H19.8871V86.4832Z" fill="#55F25D"/>
<path d="M23.6888 88.5813H23.5249V119.151H23.6888V88.5813Z" fill="#55F25D"/>
<path d="M27.4828 90.6729H27.3188V121.243H27.4828V90.6729Z" fill="#55F25D"/>
<path d="M5.73017 82.9992L5.64795 83.1323L30.0754 96.6089L30.1576 96.4757L5.73017 82.9992Z" fill="#55F25D"/>
<path d="M5.7292 87.4318L5.64697 87.5649L30.0744 101.041L30.1567 100.908L5.7292 87.4318Z" fill="#55F25D"/>
<path d="M5.73554 91.8576L5.65332 91.9907L30.0808 105.467L30.163 105.334L5.73554 91.8576Z" fill="#55F25D"/>
<path d="M5.73506 96.2902L5.65283 96.4233L30.0803 109.9L30.1625 109.767L5.73506 96.2902Z" fill="#55F25D"/>
<path d="M5.72773 100.719L5.64551 100.853L30.073 114.329L30.1552 114.196L5.72773 100.719Z" fill="#55F25D"/>
<path d="M5.73408 105.145L5.65186 105.278L30.0793 118.755L30.1616 118.622L5.73408 105.145Z" fill="#55F25D"/>
<path d="M5.99272 82.179C5.99272 80.8851 7.4608 80.0673 8.65939 80.6974L28.5601 91.1756C29.092 91.4572 29.5317 91.8594 29.8438 92.3287C29.5459 91.598 28.9927 90.9678 28.248 90.579L8.34733 80.1008C7.14875 79.4706 5.68066 80.2885 5.68066 81.5823V107.614C5.68066 108.264 5.87924 108.881 6.23385 109.417C6.07783 109.035 5.99272 108.633 5.99272 108.21V82.179Z" fill="#006019"/>
<path d="M21.9787 106.984C21.9149 106.984 21.8511 106.984 21.7943 106.977C20.922 106.896 20.2128 106.273 19.6667 105.133C19.2837 104.322 18.9433 103.357 18.617 102.412C18.0284 100.736 17.4256 98.9992 16.7305 98.8384C16.5461 98.7981 16.3475 98.8719 16.1206 99.0797C15.5887 99.5691 15.1419 100.286 14.7447 100.917C14.1702 101.828 13.7163 102.552 13.1277 102.539C12.7589 102.532 12.4255 102.231 12.078 101.6C11.6596 100.843 11.383 100.065 11.1419 99.3747C10.5674 97.7456 10.149 96.5657 8.41846 96.5657V96.2708C10.3759 96.2708 10.8724 97.6652 11.4397 99.2808C11.688 99.9914 11.9504 100.729 12.3546 101.46C12.6383 101.969 12.9007 102.231 13.1348 102.237C13.1348 102.237 13.1348 102.237 13.1419 102.237C13.5461 102.237 13.9929 101.52 14.4752 100.762C14.8795 100.119 15.3404 99.3814 15.9078 98.8652C16.2128 98.5903 16.5107 98.483 16.8085 98.5501C17.6738 98.7512 18.2482 100.4 18.922 102.318C19.2482 103.25 19.5816 104.215 19.9646 105.006C20.461 106.045 21.0851 106.608 21.8369 106.675C22.7589 106.762 23.844 106.079 24.8085 104.805C26.3475 102.767 27.922 96.8674 27.9362 96.8138L28.2411 96.8875C28.1773 97.1289 26.6383 102.901 25.0638 104.986C24.0922 106.273 22.9858 106.99 21.9929 106.99L21.9787 106.984Z" fill="#17FFFF"/>
<path d="M28.248 130.803L8.34733 120.324C7.14875 119.694 5.68066 120.512 5.68066 121.806V123.703C5.68066 124.917 6.36861 126.036 7.48208 126.646L27.4395 137.486C28.6381 138.137 30.1275 137.319 30.1275 136.018L30.0991 133.766C30.0991 132.539 29.397 131.406 28.2551 130.803H28.248Z" fill="black"/>
<path d="M48.7163 147.603L48.7518 88.2395C48.7518 86.7446 49.6099 85.3636 50.9929 84.6328L75.234 71.8686C75.922 71.5066 76.6808 71.5401 77.2908 71.8351L77.3262 71.8485C77.3688 71.8686 77.4042 71.8887 77.4468 71.9088L80.305 73.1222C80.9929 73.4574 81.4894 74.1278 81.4894 74.9591V133.893C81.4894 135.375 80.6525 136.736 79.2979 137.473L54.9929 150.68C54.2411 151.089 53.3901 151.015 52.7447 150.633L49.8936 149.426C49.2128 149.091 48.7163 148.421 48.7163 147.596V147.603Z" fill="#8DA2B7"/>
<path d="M54.0068 85.9198L78.248 73.1556C79.7019 72.3914 81.4962 73.3835 81.4962 74.959V133.893C81.4962 135.375 80.6593 136.735 79.3047 137.473L54.9997 150.68C53.5458 151.471 51.7231 150.479 51.7231 148.89L51.7586 89.5266C51.7586 88.0316 52.6168 86.6506 53.9997 85.9198H54.0068Z" fill="#DCEAFF"/>
<path d="M56.404 90.8742L76.0352 80.5367C77.2125 79.9133 78.6664 80.7245 78.6664 81.9982V129.71C78.6664 130.91 77.9927 132.016 76.8934 132.613L57.2125 143.305C56.0352 143.949 54.5601 143.138 54.5601 141.857L54.5884 93.7971C54.5884 92.5837 55.2835 91.4641 56.404 90.8742Z" fill="#213147"/>
<path d="M59.0776 56.7405C59.7204 51.4735 53.0652 46.4213 44.213 45.4561C35.3607 44.4909 27.6635 47.9782 27.0207 53.2452C26.378 58.5122 33.0331 63.5644 41.8854 64.5296C50.7377 65.4949 58.4349 62.0076 59.0776 56.7405Z" fill="#BFBFBF"/>
<path d="M46.0351 47.8015C37.3117 46.2395 28.9004 49.1222 27.2479 54.2439C27.1699 54.4987 27.106 54.7467 27.0635 55.0015C27.8223 59.1512 32.9429 62.9858 40.0493 64.2596C48.7727 65.8216 57.184 62.9389 58.8365 57.8171C58.9145 57.5624 58.9784 57.3143 59.0209 57.0596C58.2621 52.9099 53.1415 49.0752 46.0351 47.8015Z" fill="black"/>
<path d="M56.8368 51.3345C56.7942 47.4597 52.1985 43.7189 45.6098 42.539C38.1276 41.1982 30.9077 43.672 29.4893 48.0697C29.3758 48.425 29.2978 48.7871 29.2694 49.1424C29.2056 49.8597 29.2411 52.4809 29.2481 53.0239C29.3262 56.8854 33.9148 60.5993 40.4751 61.7792C47.9574 63.12 55.1772 60.6463 56.5957 56.2485C56.7091 55.9066 56.7801 55.558 56.8155 55.2161C56.8864 54.4854 56.8439 51.8642 56.8439 51.3345H56.8368Z" fill="#FFAE0E"/>
<path d="M56.8048 52.0023C57.356 47.4856 51.6455 43.1528 44.05 42.3246C36.4546 41.4964 29.8504 44.4865 29.2993 49.0032C28.7481 53.5199 34.4586 57.8528 42.054 58.6809C49.6495 59.5091 56.2536 56.519 56.8048 52.0023Z" fill="#FFC94A"/>
<path d="M41.0711 55.1221C37.0711 54.4048 34.4399 51.9177 35.1987 49.5713C35.9576 47.2249 39.8229 45.8976 43.8229 46.6149C44.6526 46.7624 45.4328 46.9903 46.1562 47.292C46.22 47.2853 46.2839 47.2786 46.3548 47.2652C46.3406 47.2383 46.3335 47.2115 46.3193 47.1914V47.1847C46.2271 46.93 46.3902 46.6015 46.7165 46.3802C46.986 46.1925 47.3619 46.092 47.7519 46.1188C47.8938 46.1255 48.0285 46.1456 48.1775 46.1724C48.8796 46.2998 49.6881 46.6484 50.3831 47.1378C51.2555 47.7478 51.6881 48.2372 51.7378 48.6797C51.7803 48.9478 51.5888 49.2294 51.22 49.4104C50.8654 49.5847 50.369 49.6316 49.8512 49.5378C49.7449 49.5177 49.6314 49.4909 49.525 49.464C49.447 49.5445 49.369 49.6249 49.3122 49.7054C49.83 50.5166 49.9647 51.3747 49.7023 52.1858C48.9434 54.5322 45.0782 55.8596 41.0782 55.1423L41.0711 55.1221Z" fill="#FFAE0E"/>
<path d="M56.8368 39.1199C56.7942 35.2451 52.1985 31.5043 45.6098 30.3244C38.1276 28.9836 30.9077 31.4574 29.4893 35.8551C29.3758 36.2104 29.2978 36.5725 29.2694 36.9278C29.2056 37.6451 29.2411 40.2663 29.2481 40.8093C29.3262 44.6708 33.9148 48.3847 40.4751 49.5646C47.9574 50.9054 55.1772 48.4317 56.5957 44.0339C56.7091 43.692 56.7801 43.3434 56.8155 43.0015C56.8864 42.2708 56.8439 39.6496 56.8439 39.1199H56.8368Z" fill="#FFAE0E"/>
<path d="M56.798 39.7818C57.3492 35.2652 51.6387 30.9323 44.0432 30.1041C36.4478 29.276 29.8436 32.2661 29.2924 36.7828C28.7413 41.2994 34.4518 45.6323 42.0472 46.4605C49.6427 47.2886 56.2468 44.2985 56.798 39.7818Z" fill="#FFC94A"/>
<path d="M41.0711 42.9075C37.0711 42.1902 34.4399 39.7031 35.1987 37.3567C35.9576 35.0103 39.8229 33.683 43.8229 34.4003C44.6526 34.5478 45.4328 34.7757 46.1562 35.0774C46.22 35.0707 46.2839 35.064 46.3548 35.0506C46.3406 35.0237 46.3335 34.9969 46.3193 34.9768V34.9701C46.2271 34.7154 46.3902 34.3869 46.7165 34.1656C46.986 33.9779 47.3619 33.8774 47.7519 33.9042C47.8938 33.9109 48.0285 33.931 48.1775 33.9578C48.8796 34.0852 49.6881 34.4338 50.3831 34.9232C51.2555 35.5332 51.6881 36.0226 51.7378 36.4651C51.7803 36.7332 51.5888 37.0148 51.22 37.1958C50.8654 37.3701 50.369 37.417 49.8512 37.3232C49.7449 37.3031 49.6314 37.2763 49.525 37.2494C49.447 37.3299 49.369 37.4103 49.3122 37.4908C49.83 38.3019 49.9647 39.1601 49.7023 39.9712C48.9434 42.3176 45.0782 43.645 41.0782 42.9276L41.0711 42.9075Z" fill="#FFAE0E"/>
<path d="M56.8368 10.5145C56.7942 6.63961 52.1985 2.89884 45.6098 1.71895C38.1276 0.378165 30.9077 2.85191 29.4893 7.24967C29.3758 7.60498 29.2978 7.96699 29.2694 8.3223C29.2056 9.03962 29.2411 11.6608 29.2481 12.2039C29.3262 16.0653 33.9148 19.7793 40.4751 20.9592C47.9574 22.2999 55.1772 19.8262 56.5957 15.4284C56.7091 15.0865 56.7801 14.7379 56.8155 14.396C56.8864 13.6653 56.8439 11.0441 56.8439 10.5145H56.8368Z" fill="#FFAE0E"/>
<path d="M56.799 11.1773C57.3501 6.66066 51.6396 2.3278 44.0442 1.49963C36.4487 0.671464 29.8446 3.66159 29.2934 8.17827C28.7422 12.695 34.4527 17.0278 42.0482 17.856C49.6436 18.6841 56.2478 15.694 56.799 11.1773Z" fill="#FFC94A"/>
<path d="M41.0711 14.3021C37.0711 13.5848 34.4399 11.0976 35.1987 8.75123C35.9576 6.40486 39.8229 5.07749 43.8229 5.7948C44.6526 5.94229 45.4328 6.17022 46.1562 6.4719C46.22 6.4652 46.2839 6.45849 46.3548 6.44508C46.3406 6.41827 46.3335 6.39145 46.3193 6.37134V6.36464C46.2271 6.10989 46.3902 5.7814 46.7165 5.56017C46.986 5.37246 47.3619 5.2719 47.7519 5.29872C47.8938 5.30542 48.0285 5.32553 48.1775 5.35235C48.8796 5.47972 49.6881 5.82832 50.3831 6.31771C51.2555 6.92776 51.6881 7.41715 51.7378 7.85961C51.7803 8.12777 51.5888 8.40933 51.22 8.59034C50.8654 8.76464 50.369 8.81156 49.8512 8.71771C49.7449 8.6976 49.6314 8.67078 49.525 8.64397C49.447 8.72441 49.369 8.80486 49.3122 8.88531C49.83 9.69648 49.9647 10.5546 49.7023 11.3658C48.9434 13.7121 45.0782 15.0395 41.0782 14.3222L41.0711 14.3021Z" fill="#FFAE0E"/>
<path d="M14.8087 108.78C14.3761 108.78 13.9293 108.512 13.4541 107.969C13.2413 107.728 13.0427 107.486 12.8442 107.245C12.1208 106.354 11.4896 105.589 10.6598 105.536C10.0286 105.495 9.28389 105.891 8.39736 106.736L8.17041 106.528C9.12786 105.616 9.94346 105.194 10.681 105.241C11.6527 105.301 12.3548 106.152 13.0924 107.064C13.2839 107.299 13.4825 107.54 13.6881 107.781C14.1491 108.304 14.5463 108.532 14.9009 108.479C15.6881 108.365 16.4541 106.95 17.5179 104.543C18.4399 102.452 19.2697 101.44 20.0427 101.48C20.6456 101.5 21.1562 102.117 21.5959 103.364C21.7591 103.826 22.0853 104.376 22.674 104.356C23.8016 104.316 25.5463 102.244 26.4045 98.9725C27.5818 94.4809 28.2201 92.6507 28.2271 92.6306L28.525 92.7245C28.525 92.7245 27.8796 94.5613 26.7094 99.0396C25.9009 102.13 24.135 104.59 22.6881 104.644C22.2484 104.664 21.6527 104.463 21.2981 103.451C20.9151 102.365 20.4754 101.781 20.0357 101.768C19.6172 101.761 18.8725 102.244 17.8087 104.651C16.6527 107.272 15.8938 108.633 14.9506 108.767C14.9009 108.774 14.8513 108.78 14.8016 108.78H14.8087Z" fill="white"/>
<g opacity="0.6">
<path d="M66.9002 112.032C66.8434 112.065 66.7796 112.092 66.7229 112.112C66.6519 112.139 66.0207 112.367 65.1058 112.494C64.5739 112.568 64.0491 112.588 63.5456 112.555C62.9144 112.514 62.3186 112.4 61.7654 112.206C60.3753 111.717 59.269 110.751 58.4817 109.33C58.0207 108.499 57.6661 107.5 57.425 106.367C57.1626 105.133 57.0278 103.699 57.0278 102.117C57.0278 101.721 57.2761 101.232 57.659 100.863L64.9498 93.8977C65.4817 93.3882 66.1058 93.2809 66.347 93.6563C66.581 94.0317 66.347 94.7558 65.808 95.2652L59.1555 101.621C59.2193 104.074 59.6378 106.038 60.4108 107.466C61.0704 108.68 61.9853 109.518 63.1271 109.94C64.1413 110.316 65.1626 110.302 65.8363 110.222C66.2902 110.168 66.659 110.074 66.8718 110.014C67.0917 109.833 67.4605 109.511 67.9214 109.048C68.6023 108.371 69.6307 107.238 70.659 105.73C71.808 104.034 72.73 102.204 73.3895 100.293C74.1626 98.0608 74.581 95.7077 74.6449 93.2876L72.2619 93.5759L67.0136 105.187C66.8505 105.549 66.5597 105.884 66.2335 106.105C65.9073 106.327 65.5739 106.394 65.3399 106.3L62.581 105.174C62.1697 105.006 62.1697 104.369 62.581 103.759C62.9924 103.149 63.6661 102.787 64.0775 102.955L65.8505 103.679L70.886 92.5368C71.1555 91.9468 71.7371 91.4507 72.2335 91.3904L76.1342 90.9211C76.5172 90.8742 76.7654 91.1021 76.7654 91.4977C76.7654 94.4474 76.2761 97.3368 75.3115 100.092C74.5243 102.338 73.425 104.497 72.0349 106.508C69.6449 109.974 67.2264 111.811 67.1271 111.884C67.0491 111.945 66.9711 111.992 66.8931 112.032H66.9002Z" fill="#00DF44"/>
<path d="M64.9974 130.765C67.22 127.981 67.6607 124.753 65.9818 123.556C64.3028 122.358 61.14 123.644 58.9174 126.428C56.6948 129.212 56.2541 132.44 57.9331 133.637C59.612 134.835 62.7748 133.549 64.9974 130.765Z" fill="#FFBD45"/>
<path d="M61.9571 128.584L65.2621 130.4C64.3472 131.647 63.1699 132.693 61.9571 133.35C59.1911 134.845 56.9146 133.92 56.9146 131.305C56.9146 128.691 59.1911 125.312 61.9571 123.817C64.7231 122.322 66.9997 123.247 66.9997 125.862L61.9571 128.584Z" fill="#0048E7"/>
<path d="M61.9571 128.584L62.3046 133.149C62.1912 133.216 62.0706 133.283 61.9571 133.35C59.1911 134.845 56.9146 133.92 56.9146 131.305C56.9146 128.691 59.1911 125.312 61.9571 123.817C64.7231 122.322 66.9997 123.247 66.9997 125.862L61.9571 128.584Z" fill="#00E7C8"/>
<path d="M63.3841 129.614C64.4269 128.308 64.6336 126.793 63.8457 126.231C63.0579 125.669 61.5737 126.273 60.5309 127.579C59.488 128.885 59.2813 130.4 60.0692 130.962C60.8571 131.524 62.3412 130.92 63.3841 129.614Z" fill="#213147"/>
<path d="M70.0365 123.298C70.3813 122.848 70.4576 122.345 70.2071 122.173C69.9565 122.001 69.4739 122.227 69.1291 122.676C68.7844 123.126 68.708 123.63 68.9586 123.801C69.2091 123.973 69.6917 123.748 70.0365 123.298Z" fill="#00E7C8"/>
<path d="M72.4974 121.778C72.8422 121.328 72.9186 120.824 72.668 120.653C72.4174 120.481 71.9348 120.706 71.5901 121.156C71.2453 121.606 71.1689 122.11 71.4195 122.281C71.6701 122.453 72.1527 122.227 72.4974 121.778Z" fill="#00E7C8"/>
<path d="M74.9628 120.245C75.3075 119.796 75.3839 119.292 75.1333 119.12C74.8828 118.949 74.4002 119.174 74.0554 119.624C73.7106 120.073 73.6343 120.577 73.8848 120.749C74.1354 120.92 74.618 120.695 74.9628 120.245Z" fill="#0048E7"/>
<path d="M77.4296 118.722C77.7743 118.273 77.8507 117.769 77.6001 117.597C77.3496 117.426 76.867 117.651 76.5222 118.101C76.1774 118.55 76.1011 119.054 76.3516 119.226C76.6022 119.397 77.0848 119.172 77.4296 118.722Z" fill="#00E7C8"/>
<path d="M70.038 125.339C70.3827 124.889 70.4591 124.385 70.2085 124.214C69.958 124.042 69.4754 124.267 69.1306 124.717C68.7858 125.167 68.7095 125.67 68.96 125.842C69.2106 126.014 69.6932 125.788 70.038 125.339Z" fill="#00E7C8"/>
<path d="M72.4989 123.812C72.8437 123.362 72.92 122.858 72.6695 122.687C72.4189 122.515 71.9363 122.74 71.5915 123.19C71.2468 123.64 71.1704 124.144 71.421 124.315C71.6715 124.487 72.1541 124.261 72.4989 123.812Z" fill="#0048E7"/>
<path d="M74.9637 122.286C75.3085 121.836 75.3849 121.333 75.1343 121.161C74.8837 120.989 74.4011 121.215 74.0564 121.665C73.7116 122.114 73.6352 122.618 73.8858 122.79C74.1364 122.961 74.619 122.736 74.9637 122.286Z" fill="#FFBD45"/>
<path d="M77.4237 120.763C77.7685 120.313 77.8448 119.809 77.5943 119.638C77.3437 119.466 76.8611 119.692 76.5163 120.141C76.1716 120.591 76.0952 121.095 76.3458 121.266C76.5963 121.438 77.0789 121.213 77.4237 120.763Z" fill="#FFBD45"/>
<path d="M70.0389 127.372C70.3837 126.923 70.4601 126.419 70.2095 126.247C69.959 126.076 69.4763 126.301 69.1316 126.751C68.7868 127.201 68.7104 127.704 68.961 127.876C69.2116 128.048 69.6942 127.822 70.0389 127.372Z" fill="#00E7C8"/>
<path d="M72.4999 125.852C72.8446 125.403 72.921 124.899 72.6705 124.727C72.4199 124.556 71.9373 124.781 71.5925 125.231C71.2477 125.68 71.1714 126.184 71.4219 126.356C71.6725 126.527 72.1551 126.302 72.4999 125.852Z" fill="#FFBD45"/>
<path d="M74.9637 124.324C75.3085 123.874 75.3849 123.37 75.1343 123.199C74.8837 123.027 74.4011 123.252 74.0564 123.702C73.7116 124.152 73.6352 124.655 73.8858 124.827C74.1364 124.999 74.619 124.773 74.9637 124.324Z" fill="#FFBD45"/>
<path d="M77.4247 122.797C77.7694 122.347 77.8458 121.843 77.5953 121.672C77.3447 121.5 76.8621 121.726 76.5173 122.175C76.1726 122.625 76.0962 123.129 76.3468 123.3C76.5973 123.472 77.0799 123.246 77.4247 122.797Z" fill="#FFBD45"/>
</g>
<path d="M11.1697 122.671C11.1697 122.671 2.70166 125.601 2.70166 145.866L20.9853 155.104C20.9853 155.104 18.2478 138.103 27.2903 131.265L11.1768 122.671H11.1697Z" fill="white"/>
<path d="M201.553 55.8796H116.447V146.758H116.468C116.553 147.475 116.979 148.166 117.745 148.568L156.546 169.001C158.071 169.806 159.929 169.806 161.454 169.001L200.255 148.568C201.021 148.166 201.447 147.475 201.532 146.758H201.553V55.8796Z" fill="#DCEAFF"/>
<path d="M159.354 169.591C160.078 169.544 160.794 169.35 161.454 169.001L200.255 148.568C201.021 148.166 201.447 147.475 201.532 146.758H201.553V55.8796H159.354V169.591Z" fill="#B1C5DD"/>
<path d="M117.745 58.5882L156.546 79.0217C158.071 79.8261 159.929 79.8261 161.454 79.0217L200.255 58.5882C201.964 57.6898 201.986 55.3636 200.291 54.4384L161.518 33.2809C159.957 32.4295 158.035 32.4295 156.475 33.2809L117.702 54.4384C116.007 55.3636 116.021 57.6831 117.737 58.5882H117.745Z" fill="white"/>
<path d="M152.106 147.603L152.071 88.2395C152.071 86.7446 151.212 85.3636 149.829 84.6328L125.588 71.8686C124.9 71.5066 124.142 71.5401 123.532 71.8351L123.496 71.8485C123.454 71.8686 123.418 71.8887 123.376 71.9088L120.517 73.1222C119.829 73.4574 119.333 74.1278 119.333 74.9591V133.893C119.333 135.375 120.17 136.736 121.524 137.473L145.829 150.68C146.581 151.089 147.432 151.015 148.078 150.633L150.929 149.426C151.61 149.091 152.106 148.421 152.106 147.596V147.603Z" fill="#B1C5DD"/>
<path d="M146.816 85.9198L122.574 73.1556C121.12 72.3914 119.326 73.3835 119.326 74.959V133.893C119.326 135.375 120.163 136.735 121.518 137.473L145.823 150.68C147.277 151.471 149.099 150.479 149.099 148.89L149.064 89.5266C149.064 88.0316 148.206 86.6506 146.823 85.9198H146.816Z" fill="#EBF4FF"/>
<path d="M144.56 90.579L124.659 80.1008C123.461 79.4706 121.993 80.2885 121.993 81.5823V107.614C121.993 108.827 122.681 109.947 123.794 110.557L143.752 121.397C144.95 122.047 146.439 121.229 146.439 119.929L146.411 93.5421C146.411 92.3153 145.709 91.1823 144.567 90.579H144.56Z" fill="#00DF44"/>
<path d="M124.802 80.1948H124.638V110.765H124.802V80.1948Z" fill="#55F25D"/>
<path d="M128.604 82.293H128.44V112.863H128.604V82.293Z" fill="#55F25D"/>
<path d="M132.405 84.3916H132.241V114.961H132.405V84.3916Z" fill="#55F25D"/>
<path d="M136.2 86.4832H136.036V117.053H136.2V86.4832Z" fill="#55F25D"/>
<path d="M140 88.5813H139.836V119.151H140V88.5813Z" fill="#55F25D"/>
<path d="M143.795 90.6729H143.631V121.243H143.795V90.6729Z" fill="#55F25D"/>
<path d="M122.049 82.9989L121.966 83.1321L146.394 96.6086L146.476 96.4755L122.049 82.9989Z" fill="#55F25D"/>
<path d="M122.048 87.4315L121.965 87.5647L146.393 101.041L146.475 100.908L122.048 87.4315Z" fill="#55F25D"/>
<path d="M122.047 91.8641L121.964 91.9973L146.392 105.474L146.474 105.341L122.047 91.8641Z" fill="#55F25D"/>
<path d="M122.053 96.2902L121.971 96.4233L146.398 109.9L146.48 109.767L122.053 96.2902Z" fill="#55F25D"/>
<path d="M122.046 100.719L121.963 100.853L146.391 114.329L146.473 114.196L122.046 100.719Z" fill="#55F25D"/>
<path d="M122.045 105.152L121.963 105.285L146.39 118.762L146.473 118.629L122.045 105.152Z" fill="#55F25D"/>
<path d="M122.305 82.179C122.305 80.8851 123.773 80.0673 124.971 80.6974L144.872 91.1756C145.404 91.4572 145.844 91.8594 146.156 92.3287C145.858 91.598 145.305 90.9678 144.56 90.579L124.659 80.1008C123.461 79.4706 121.993 80.2885 121.993 81.5823V107.614C121.993 108.264 122.191 108.881 122.546 109.417C122.39 109.035 122.305 108.633 122.305 108.21V82.179Z" fill="#006019"/>
<path d="M138.291 106.984C138.227 106.984 138.163 106.984 138.106 106.977C137.234 106.896 136.525 106.273 135.979 105.133C135.596 104.322 135.255 103.357 134.929 102.412C134.34 100.736 133.738 98.9992 133.043 98.8384C132.858 98.7981 132.66 98.8719 132.433 99.0797C131.901 99.5691 131.454 100.286 131.057 100.917C130.482 101.828 130.028 102.552 129.44 102.539C129.071 102.532 128.738 102.231 128.39 101.6C127.972 100.843 127.695 100.065 127.454 99.3747C126.879 97.7456 126.461 96.5657 124.73 96.5657V96.2708C126.688 96.2708 127.184 97.6652 127.752 99.2808C128 99.9914 128.262 100.729 128.667 101.46C128.95 101.969 129.213 102.231 129.447 102.237C129.447 102.237 129.447 102.237 129.454 102.237C129.858 102.237 130.305 101.52 130.787 100.762C131.191 100.119 131.652 99.3814 132.22 98.8652C132.525 98.5903 132.823 98.483 133.121 98.5501C133.986 98.7512 134.56 100.4 135.234 102.318C135.56 103.25 135.894 104.215 136.277 105.006C136.773 106.045 137.397 106.608 138.149 106.675C139.071 106.762 140.156 106.079 141.121 104.805C142.66 102.767 144.234 96.8674 144.248 96.8138L144.553 96.8875C144.489 97.1289 142.95 102.901 141.376 104.986C140.404 106.273 139.298 106.99 138.305 106.99L138.291 106.984Z" fill="#17FFFF"/>
<path d="M144.56 130.803L124.659 120.324C123.461 119.694 121.993 120.512 121.993 121.806V123.703C121.993 124.917 122.681 126.036 123.794 126.646L143.752 137.486C144.95 138.137 146.439 137.319 146.439 136.018L146.411 133.766C146.411 132.539 145.709 131.406 144.567 130.803H144.56Z" fill="black"/>
<path d="M165.028 147.603L165.064 88.2395C165.064 86.7446 165.922 85.3636 167.305 84.6328L191.546 71.8686C192.234 71.5066 192.993 71.5401 193.603 71.8351L193.638 71.8485C193.681 71.8686 193.716 71.8887 193.759 71.9088L196.617 73.1222C197.305 73.4574 197.801 74.1278 197.801 74.9591V133.893C197.801 135.375 196.964 136.736 195.61 137.473L171.305 150.68C170.553 151.089 169.702 151.015 169.057 150.633L166.206 149.426C165.525 149.091 165.028 148.421 165.028 147.596V147.603Z" fill="#8DA2B7"/>
<path d="M170.319 85.9198L194.56 73.1556C196.014 72.3914 197.809 73.3835 197.809 74.959V133.893C197.809 135.375 196.972 136.735 195.617 137.473L171.312 150.68C169.858 151.471 168.036 150.479 168.036 148.89L168.071 89.5266C168.071 88.0316 168.929 86.6506 170.312 85.9198H170.319Z" fill="#DCEAFF"/>
<path d="M172.716 90.8742L192.347 80.5367C193.525 79.9133 194.978 80.7245 194.978 81.9982V129.71C194.978 130.91 194.305 132.016 193.205 132.613L173.525 143.305C172.347 143.949 170.872 143.138 170.872 141.857L170.9 93.7971C170.9 92.5837 171.595 91.4641 172.716 90.8742Z" fill="#213147"/>
<path d="M175.392 56.7408C176.034 51.4738 169.379 46.4216 160.527 45.4564C151.675 44.4911 143.977 47.9784 143.335 53.2455C142.692 58.5125 149.347 63.5647 158.199 64.5299C167.052 65.4951 174.749 62.0078 175.392 56.7408Z" fill="#BFBFBF"/>
<path d="M162.347 47.8015C153.624 46.2395 145.212 49.1222 143.56 54.2439C143.482 54.4987 143.418 54.7467 143.375 55.0015C144.134 59.1512 149.255 62.9858 156.361 64.2596C165.085 65.8216 173.496 62.9389 175.149 57.8171C175.227 57.5624 175.29 57.3143 175.333 57.0596C174.574 52.9099 169.454 49.0752 162.347 47.8015Z" fill="black"/>
<path d="M173.149 51.3345C173.106 47.4597 168.511 43.7189 161.922 42.539C154.44 41.1982 147.22 43.672 145.801 48.0697C145.688 48.425 145.61 48.7871 145.581 49.1424C145.518 49.8597 145.553 52.4809 145.56 53.0239C145.638 56.8854 150.227 60.5993 156.787 61.7792C164.269 63.12 171.489 60.6463 172.908 56.2485C173.021 55.9066 173.092 55.558 173.128 55.2161C173.198 54.4854 173.156 51.8642 173.156 51.3345H173.149Z" fill="#FFAE0E"/>
<path d="M173.119 52.0025C173.67 47.4859 167.96 43.153 160.364 42.3248C152.769 41.4967 146.165 44.4868 145.614 49.0035C145.063 53.5201 150.773 57.853 158.368 58.6812C165.964 59.5093 172.568 56.5192 173.119 52.0025Z" fill="#FFC94A"/>
<path d="M157.383 55.1221C153.383 54.4048 150.751 51.9177 151.51 49.5713C152.269 47.2249 156.134 45.8976 160.134 46.6149C160.964 46.7624 161.744 46.9903 162.468 47.292C162.532 47.2853 162.595 47.2786 162.666 47.2652C162.652 47.2383 162.645 47.2115 162.631 47.1914V47.1847C162.539 46.93 162.702 46.6015 163.028 46.3802C163.297 46.1925 163.673 46.092 164.063 46.1188C164.205 46.1255 164.34 46.1456 164.489 46.1724C165.191 46.2998 166 46.6484 166.695 47.1378C167.567 47.7478 168 48.2372 168.049 48.6797C168.092 48.9478 167.9 49.2294 167.532 49.4104C167.177 49.5847 166.68 49.6316 166.163 49.5378C166.056 49.5177 165.943 49.4909 165.837 49.464C165.759 49.5445 165.68 49.6249 165.624 49.7054C166.141 50.5166 166.276 51.3747 166.014 52.1858C165.255 54.5322 161.39 55.8596 157.39 55.1423L157.383 55.1221Z" fill="#FFAE0E"/>
<path d="M173.149 39.1199C173.106 35.2451 168.511 31.5043 161.922 30.3244C154.44 28.9836 147.22 31.4574 145.801 35.8551C145.688 36.2104 145.61 36.5725 145.581 36.9278C145.518 37.6451 145.553 40.2663 145.56 40.8093C145.638 44.6708 150.227 48.3847 156.787 49.5646C164.269 50.9054 171.489 48.4317 172.908 44.0339C173.021 43.692 173.092 43.3434 173.128 43.0015C173.198 42.2708 173.156 39.6496 173.156 39.1199H173.149Z" fill="#FFAE0E"/>
<path d="M173.112 39.7818C173.663 35.2652 167.953 30.9323 160.357 30.1041C152.762 29.276 146.158 32.2661 145.606 36.7828C145.055 41.2994 150.766 45.6323 158.361 46.4605C165.957 47.2886 172.561 44.2985 173.112 39.7818Z" fill="#FFC94A"/>
<path d="M157.383 42.9075C153.383 42.1902 150.751 39.7031 151.51 37.3567C152.269 35.0103 156.134 33.683 160.134 34.4003C160.964 34.5478 161.744 34.7757 162.468 35.0774C162.532 35.0707 162.595 35.064 162.666 35.0506C162.652 35.0237 162.645 34.9969 162.631 34.9768V34.9701C162.539 34.7154 162.702 34.3869 163.028 34.1656C163.297 33.9779 163.673 33.8774 164.063 33.9042C164.205 33.9109 164.34 33.931 164.489 33.9578C165.191 34.0852 166 34.4338 166.695 34.9232C167.567 35.5332 168 36.0226 168.049 36.4651C168.092 36.7332 167.9 37.0148 167.532 37.1958C167.177 37.3701 166.68 37.417 166.163 37.3232C166.056 37.3031 165.943 37.2763 165.837 37.2494C165.759 37.3299 165.68 37.4103 165.624 37.4908C166.141 38.3019 166.276 39.1601 166.014 39.9712C165.255 42.3176 161.39 43.645 157.39 42.9276L157.383 42.9075Z" fill="#FFAE0E"/>
<path d="M173.149 10.5145C173.106 6.63961 168.511 2.89884 161.922 1.71895C154.44 0.378165 147.22 2.85191 145.801 7.24967C145.688 7.60498 145.61 7.96699 145.581 8.3223C145.518 9.03962 145.553 11.6608 145.56 12.2039C145.638 16.0653 150.227 19.7793 156.787 20.9592C164.269 22.2999 171.489 19.8262 172.908 15.4284C173.021 15.0865 173.092 14.7379 173.128 14.396C173.198 13.6653 173.156 11.0441 173.156 10.5145H173.149Z" fill="#FFAE0E"/>
<path d="M173.12 11.1773C173.671 6.66066 167.96 2.3278 160.365 1.49963C152.77 0.671464 146.165 3.66159 145.614 8.17827C145.063 12.695 150.774 17.0278 158.369 17.856C165.964 18.6841 172.569 15.694 173.12 11.1773Z" fill="#FFC94A"/>
<path d="M157.383 14.3021C153.383 13.5848 150.751 11.0976 151.51 8.75123C152.269 6.40486 156.134 5.07749 160.134 5.7948C160.964 5.94229 161.744 6.17022 162.468 6.4719C162.532 6.4652 162.595 6.45849 162.666 6.44508C162.652 6.41827 162.645 6.39145 162.631 6.37134V6.36464C162.539 6.10989 162.702 5.7814 163.028 5.56017C163.297 5.37246 163.673 5.2719 164.063 5.29872C164.205 5.30542 164.34 5.32553 164.489 5.35235C165.191 5.47972 166 5.82832 166.695 6.31771C167.567 6.92776 168 7.41715 168.049 7.85961C168.092 8.12777 167.9 8.40933 167.532 8.59034C167.177 8.76464 166.68 8.81156 166.163 8.71771C166.056 8.6976 165.943 8.67078 165.837 8.64397C165.759 8.72441 165.68 8.80486 165.624 8.88531C166.141 9.69648 166.276 10.5546 166.014 11.3658C165.255 13.7121 161.39 15.0395 157.39 14.3222L157.383 14.3021Z" fill="#FFAE0E"/>
<path d="M131.121 108.78C130.688 108.78 130.241 108.512 129.766 107.969C129.553 107.728 129.355 107.486 129.156 107.245C128.433 106.354 127.802 105.589 126.972 105.536C126.341 105.495 125.596 105.891 124.709 106.736L124.482 106.528C125.44 105.616 126.255 105.194 126.993 105.241C127.965 105.301 128.667 106.152 129.404 107.064C129.596 107.299 129.794 107.54 130 107.781C130.461 108.304 130.858 108.532 131.213 108.479C132 108.365 132.766 106.95 133.83 104.543C134.752 102.452 135.582 101.44 136.355 101.48C136.958 101.5 137.468 102.117 137.908 103.364C138.071 103.826 138.397 104.376 138.986 104.356C140.114 104.316 141.858 102.244 142.716 98.9725C143.894 94.4809 144.532 92.6507 144.539 92.6306L144.837 92.7245C144.837 92.7245 144.192 94.5613 143.021 99.0396C142.213 102.13 140.447 104.59 139 104.644C138.56 104.664 137.965 104.463 137.61 103.451C137.227 102.365 136.787 101.781 136.348 101.768C135.929 101.761 135.185 102.244 134.121 104.651C132.965 107.272 132.206 108.633 131.263 108.767C131.213 108.774 131.163 108.78 131.114 108.78H131.121Z" fill="white"/>
<g opacity="0.6">
<path d="M183.213 112.032C183.156 112.065 183.092 112.092 183.035 112.112C182.964 112.139 182.333 112.367 181.418 112.494C180.886 112.568 180.362 112.588 179.858 112.555C179.227 112.514 178.631 112.4 178.078 112.206C176.688 111.717 175.581 110.751 174.794 109.33C174.333 108.499 173.979 107.5 173.737 106.367C173.475 105.133 173.34 103.699 173.34 102.117C173.34 101.721 173.589 101.232 173.972 100.863L181.262 93.8977C181.794 93.3882 182.418 93.2809 182.659 93.6563C182.894 94.0317 182.659 94.7558 182.12 95.2652L175.468 101.621C175.532 104.074 175.95 106.038 176.723 107.466C177.383 108.68 178.298 109.518 179.44 109.94C180.454 110.316 181.475 110.302 182.149 110.222C182.603 110.168 182.972 110.074 183.184 110.014C183.404 109.833 183.773 109.511 184.234 109.048C184.915 108.371 185.943 107.238 186.972 105.73C188.12 104.034 189.042 102.204 189.702 100.293C190.475 98.0608 190.894 95.7077 190.957 93.2876L188.574 93.5759L183.326 105.187C183.163 105.549 182.872 105.884 182.546 106.105C182.22 106.327 181.886 106.394 181.652 106.3L178.894 105.174C178.482 105.006 178.482 104.369 178.894 103.759C179.305 103.149 179.979 102.787 180.39 102.955L182.163 103.679L187.198 92.5368C187.468 91.9468 188.05 91.4507 188.546 91.3904L192.447 90.9211C192.83 90.8742 193.078 91.1021 193.078 91.4977C193.078 94.4474 192.589 97.3368 191.624 100.092C190.837 102.338 189.737 104.497 188.347 106.508C185.957 109.974 183.539 111.811 183.44 111.884C183.362 111.945 183.284 111.992 183.206 112.032H183.213Z" fill="#00DF44"/>
<path d="M181.316 130.774C183.539 127.99 183.98 124.762 182.301 123.564C180.622 122.367 177.459 123.653 175.236 126.436C173.014 129.22 172.573 132.448 174.252 133.646C175.931 134.843 179.094 133.558 181.316 130.774Z" fill="#FFBD45"/>
<path d="M178.27 128.584L181.575 130.4C180.66 131.647 179.482 132.693 178.27 133.35C175.504 134.845 173.227 133.92 173.227 131.305C173.227 128.691 175.504 125.312 178.27 123.817C181.036 122.322 183.312 123.247 183.312 125.862L178.27 128.584Z" fill="#0048E7"/>
<path d="M178.27 128.584L178.617 133.149C178.504 133.216 178.383 133.283 178.27 133.35C175.504 134.845 173.227 133.92 173.227 131.305C173.227 128.691 175.504 125.312 178.27 123.817C181.036 122.322 183.312 123.247 183.312 125.862L178.27 128.584Z" fill="#00E7C8"/>
<path d="M179.703 129.623C180.746 128.316 180.952 126.802 180.165 126.24C179.377 125.678 177.893 126.281 176.85 127.587C175.807 128.894 175.6 130.408 176.388 130.97C177.176 131.532 178.66 130.929 179.703 129.623Z" fill="#213147"/>
<path d="M186.345 123.294C186.69 122.844 186.766 122.34 186.516 122.169C186.265 121.997 185.782 122.222 185.438 122.672C185.093 123.122 185.017 123.625 185.267 123.797C185.518 123.969 186 123.743 186.345 123.294Z" fill="#00E7C8"/>
<path d="M188.799 121.767C189.144 121.317 189.22 120.813 188.97 120.642C188.719 120.47 188.237 120.696 187.892 121.145C187.547 121.595 187.471 122.099 187.721 122.27C187.972 122.442 188.454 122.216 188.799 121.767Z" fill="#00E7C8"/>
<path d="M191.264 120.241C191.609 119.791 191.685 119.288 191.435 119.116C191.184 118.944 190.701 119.17 190.357 119.62C190.012 120.069 189.936 120.573 190.186 120.745C190.437 120.916 190.919 120.691 191.264 120.241Z" fill="#0048E7"/>
<path d="M193.731 118.718C194.076 118.268 194.152 117.765 193.901 117.593C193.651 117.421 193.168 117.647 192.823 118.096C192.479 118.546 192.402 119.05 192.653 119.221C192.903 119.393 193.386 119.168 193.731 118.718Z" fill="#00E7C8"/>
<path d="M186.347 125.334C186.691 124.884 186.768 124.381 186.517 124.209C186.267 124.037 185.784 124.263 185.439 124.713C185.094 125.162 185.018 125.666 185.269 125.838C185.519 126.009 186.002 125.784 186.347 125.334Z" fill="#00E7C8"/>
<path d="M188.8 123.807C189.145 123.358 189.221 122.854 188.971 122.682C188.72 122.511 188.238 122.736 187.893 123.186C187.548 123.635 187.472 124.139 187.722 124.311C187.973 124.482 188.455 124.257 188.8 123.807Z" fill="#0048E7"/>
<path d="M191.266 122.275C191.61 121.825 191.687 121.321 191.436 121.15C191.186 120.978 190.703 121.204 190.358 121.653C190.013 122.103 189.937 122.607 190.188 122.778C190.438 122.95 190.921 122.725 191.266 122.275Z" fill="#FFBD45"/>
<path d="M193.732 120.759C194.077 120.309 194.153 119.805 193.903 119.634C193.652 119.462 193.17 119.687 192.825 120.137C192.48 120.587 192.404 121.091 192.654 121.262C192.905 121.434 193.388 121.208 193.732 120.759Z" fill="#FFBD45"/>
<path d="M186.34 127.368C186.685 126.918 186.761 126.415 186.511 126.243C186.26 126.071 185.778 126.297 185.433 126.747C185.088 127.196 185.012 127.7 185.262 127.872C185.513 128.043 185.995 127.818 186.34 127.368Z" fill="#00E7C8"/>
<path d="M188.801 125.848C189.146 125.398 189.222 124.894 188.972 124.723C188.721 124.551 188.239 124.777 187.894 125.226C187.549 125.676 187.473 126.18 187.723 126.351C187.974 126.523 188.456 126.298 188.801 125.848Z" fill="#FFBD45"/>
<path d="M191.272 124.319C191.617 123.87 191.693 123.366 191.443 123.194C191.192 123.023 190.71 123.248 190.365 123.698C190.02 124.148 189.944 124.651 190.194 124.823C190.445 124.995 190.928 124.769 191.272 124.319Z" fill="#FFBD45"/>
<path d="M193.733 122.792C194.078 122.343 194.154 121.839 193.904 121.667C193.653 121.496 193.171 121.721 192.826 122.171C192.481 122.621 192.405 123.124 192.655 123.296C192.906 123.468 193.389 123.242 193.733 122.792Z" fill="#FFBD45"/>
</g>
<path d="M127.482 122.671C127.482 122.671 119.014 125.601 119.014 145.866L137.298 155.104C137.298 155.104 134.56 138.103 143.603 131.265L127.489 122.671H127.482Z" fill="white"/>
<path d="M317.865 55.8796H232.759V146.758H232.78C232.865 147.475 233.291 148.166 234.057 148.568L272.858 169.001C274.383 169.806 276.241 169.806 277.766 169.001L316.567 148.568C317.333 148.166 317.759 147.475 317.844 146.758H317.865V55.8796Z" fill="#DCEAFF"/>
<path d="M275.667 169.591C276.39 169.544 277.106 169.35 277.766 169.001L316.567 148.568C317.333 148.166 317.759 147.475 317.844 146.758H317.865V55.8796H275.667V169.591Z" fill="#B1C5DD"/>
<path d="M234.057 58.5882L272.858 79.0217C274.383 79.8261 276.241 79.8261 277.766 79.0217L316.567 58.5882C318.276 57.6898 318.298 55.3636 316.603 54.4384L277.83 33.2809C276.269 32.4295 274.347 32.4295 272.787 33.2809L234.014 54.4384C232.319 55.3636 232.333 57.6831 234.05 58.5882H234.057Z" fill="white"/>
<path d="M268.418 147.603L268.383 88.2395C268.383 86.7446 267.524 85.3636 266.141 84.6328L241.9 71.8686C241.212 71.5066 240.454 71.5401 239.844 71.8351L239.808 71.8485C239.766 71.8686 239.73 71.8887 239.688 71.9088L236.829 73.1222C236.141 73.4574 235.645 74.1278 235.645 74.9591V133.893C235.645 135.375 236.482 136.736 237.837 137.473L262.141 150.68C262.893 151.089 263.744 151.015 264.39 150.633L267.241 149.426C267.922 149.091 268.418 148.421 268.418 147.596V147.603Z" fill="#B1C5DD"/>
<path d="M263.128 85.9198L238.886 73.1556C237.433 72.3914 235.638 73.3835 235.638 74.959V133.893C235.638 135.375 236.475 136.735 237.83 137.473L262.135 150.68C263.589 151.471 265.411 150.479 265.411 148.89L265.376 89.5266C265.376 88.0316 264.518 86.6506 263.135 85.9198H263.128Z" fill="#EBF4FF"/>
<path d="M260.873 90.579L240.972 80.1008C239.773 79.4706 238.305 80.2885 238.305 81.5823V107.614C238.305 108.827 238.993 109.947 240.107 110.557L260.064 121.397C261.263 122.047 262.752 121.229 262.752 119.929L262.724 93.5421C262.724 92.3153 262.021 91.1823 260.88 90.579H260.873Z" fill="#00DF44"/>
<path d="M241.114 80.1948H240.95V110.765H241.114V80.1948Z" fill="#55F25D"/>
<path d="M244.916 82.293H244.752V112.863H244.916V82.293Z" fill="#55F25D"/>
<path d="M248.717 84.3916H248.553V114.961H248.717V84.3916Z" fill="#55F25D"/>
<path d="M252.512 86.4832H252.348V117.053H252.512V86.4832Z" fill="#55F25D"/>
<path d="M256.313 88.5813H256.149V119.151H256.313V88.5813Z" fill="#55F25D"/>
<path d="M260.107 90.6729H259.943V121.243H260.107V90.6729Z" fill="#55F25D"/>
<path d="M238.359 83.0055L238.277 83.1387L262.704 96.6152L262.787 96.4821L238.359 83.0055Z" fill="#55F25D"/>
<path d="M238.365 87.4315L238.283 87.5647L262.711 101.041L262.793 100.908L238.365 87.4315Z" fill="#55F25D"/>
<path d="M238.364 91.8641L238.282 91.9973L262.71 105.474L262.792 105.341L238.364 91.8641Z" fill="#55F25D"/>
<path d="M238.364 96.2965L238.282 96.4297L262.709 109.906L262.791 109.773L238.364 96.2965Z" fill="#55F25D"/>
<path d="M238.364 100.719L238.282 100.853L262.709 114.329L262.791 114.196L238.364 100.719Z" fill="#55F25D"/>
<path d="M238.363 105.152L238.281 105.285L262.708 118.761L262.79 118.628L238.363 105.152Z" fill="#55F25D"/>
<path d="M238.617 82.179C238.617 80.8851 240.085 80.0673 241.284 80.6974L261.185 91.1756C261.717 91.4572 262.156 91.8594 262.468 92.3287C262.17 91.598 261.617 90.9678 260.873 90.579L240.972 80.1008C239.773 79.4706 238.305 80.2885 238.305 81.5823V107.614C238.305 108.264 238.504 108.881 238.858 109.417C238.702 109.035 238.617 108.633 238.617 108.21V82.179Z" fill="#006019"/>
<path d="M254.603 106.984C254.539 106.984 254.475 106.984 254.418 106.977C253.546 106.896 252.837 106.273 252.291 105.133C251.908 104.322 251.567 103.357 251.241 102.412C250.652 100.736 250.05 98.9992 249.355 98.8384C249.17 98.7981 248.972 98.8719 248.745 99.0797C248.213 99.5691 247.766 100.286 247.369 100.917C246.794 101.828 246.34 102.552 245.752 102.539C245.383 102.532 245.05 102.231 244.702 101.6C244.284 100.843 244.007 100.065 243.766 99.3747C243.191 97.7456 242.773 96.5657 241.042 96.5657V96.2708C243 96.2708 243.496 97.6652 244.064 99.2808C244.312 99.9914 244.574 100.729 244.979 101.46C245.262 101.969 245.525 102.231 245.759 102.237C245.759 102.237 245.759 102.237 245.766 102.237C246.17 102.237 246.617 101.52 247.099 100.762C247.503 100.119 247.964 99.3814 248.532 98.8652C248.837 98.5903 249.135 98.483 249.433 98.5501C250.298 98.7512 250.872 100.4 251.546 102.318C251.872 103.25 252.206 104.215 252.589 105.006C253.085 106.045 253.709 106.608 254.461 106.675C255.383 106.762 256.468 106.079 257.433 104.805C258.972 102.767 260.546 96.8674 260.56 96.8138L260.865 96.8875C260.801 97.1289 259.262 102.901 257.688 104.986C256.716 106.273 255.61 106.99 254.617 106.99L254.603 106.984Z" fill="#17FFFF"/>
<path d="M260.873 130.803L240.972 120.324C239.773 119.694 238.305 120.512 238.305 121.806V123.703C238.305 124.917 238.993 126.036 240.107 126.646L260.064 137.486C261.263 138.137 262.752 137.319 262.752 136.018L262.724 133.766C262.724 132.539 262.021 131.406 260.88 130.803H260.873Z" fill="black"/>
<path d="M281.34 147.603L281.376 88.2395C281.376 86.7446 282.234 85.3636 283.617 84.6328L307.858 71.8686C308.546 71.5066 309.305 71.5401 309.915 71.8351L309.95 71.8485C309.993 71.8686 310.028 71.8887 310.071 71.9088L312.929 73.1222C313.617 73.4574 314.113 74.1278 314.113 74.9591V133.893C314.113 135.375 313.276 136.736 311.922 137.473L287.617 150.68C286.865 151.089 286.014 151.015 285.369 150.633L282.518 149.426C281.837 149.091 281.34 148.421 281.34 147.596V147.603Z" fill="#8DA2B7"/>
<path d="M286.631 85.9198L310.872 73.1556C312.326 72.3914 314.121 73.3835 314.121 74.959V133.893C314.121 135.375 313.284 136.735 311.929 137.473L287.624 150.68C286.17 151.471 284.348 150.479 284.348 148.89L284.383 89.5266C284.383 88.0316 285.241 86.6506 286.624 85.9198H286.631Z" fill="#DCEAFF"/>
<path d="M289.028 90.8742L308.659 80.5367C309.837 79.9133 311.29 80.7245 311.29 81.9982V129.71C311.29 130.91 310.617 132.016 309.517 132.613L289.837 143.305C288.659 143.949 287.184 143.138 287.184 141.857L287.212 93.7971C287.212 92.5837 287.907 91.4641 289.028 90.8742Z" fill="#213147"/>
<path d="M291.706 56.741C292.348 51.474 285.693 46.4218 276.841 45.4566C267.989 44.4914 260.291 47.9787 259.649 53.2457C259.006 58.5127 265.661 63.5649 274.513 64.5301C283.366 65.4953 291.063 62.008 291.706 56.741Z" fill="#BFBFBF"/>
<path d="M278.66 47.8015C269.936 46.2395 261.525 49.1222 259.872 54.2439C259.794 54.4987 259.731 54.7467 259.688 55.0015C260.447 59.1512 265.567 62.9858 272.674 64.2596C281.397 65.8216 289.809 62.9389 291.461 57.8171C291.539 57.5624 291.603 57.3143 291.645 57.0596C290.887 52.9099 285.766 49.0752 278.66 47.8015Z" fill="black"/>
<path d="M289.461 51.3345C289.418 47.4597 284.823 43.7189 278.234 42.539C270.752 41.1982 263.532 43.672 262.113 48.0697C262 48.425 261.922 48.7871 261.893 49.1424C261.83 49.8597 261.865 52.4809 261.872 53.0239C261.95 56.8854 266.539 60.5993 273.099 61.7792C280.581 63.12 287.801 60.6463 289.22 56.2485C289.333 55.9066 289.404 55.558 289.44 55.2161C289.51 54.4854 289.468 51.8642 289.468 51.3345H289.461Z" fill="#FFAE0E"/>
<path d="M289.433 52.0028C289.984 47.4861 284.274 43.1532 276.678 42.3251C269.083 41.4969 262.479 44.487 261.928 49.0037C261.377 53.5204 267.087 57.8532 274.682 58.6814C282.278 59.5096 288.882 56.5195 289.433 52.0028Z" fill="#FFC94A"/>
<path d="M273.695 55.1221C269.695 54.4048 267.063 51.9177 267.822 49.5713C268.581 47.2249 272.446 45.8976 276.446 46.6149C277.276 46.7624 278.056 46.9903 278.78 47.292C278.844 47.2853 278.907 47.2786 278.978 47.2652C278.964 47.2383 278.957 47.2115 278.943 47.1914V47.1847C278.851 46.93 279.014 46.6015 279.34 46.3802C279.61 46.1925 279.985 46.092 280.375 46.1188C280.517 46.1255 280.652 46.1456 280.801 46.1724C281.503 46.2998 282.312 46.6484 283.007 47.1378C283.879 47.7478 284.312 48.2372 284.361 48.6797C284.404 48.9478 284.212 49.2294 283.844 49.4104C283.489 49.5847 282.992 49.6316 282.475 49.5378C282.368 49.5177 282.255 49.4909 282.149 49.464C282.071 49.5445 281.992 49.6249 281.936 49.7054C282.453 50.5166 282.588 51.3747 282.326 52.1858C281.567 54.5322 277.702 55.8596 273.702 55.1423L273.695 55.1221Z" fill="#FFAE0E"/>
<path d="M289.461 39.1199C289.418 35.2451 284.823 31.5043 278.234 30.3244C270.752 28.9836 263.532 31.4574 262.113 35.8551C262 36.2104 261.922 36.5725 261.893 36.9278C261.83 37.6451 261.865 40.2663 261.872 40.8093C261.95 44.6708 266.539 48.3847 273.099 49.5646C280.581 50.9054 287.801 48.4317 289.22 44.0339C289.333 43.692 289.404 43.3434 289.44 43.0015C289.51 42.2708 289.468 39.6496 289.468 39.1199H289.461Z" fill="#FFAE0E"/>
<path d="M289.426 39.7821C289.977 35.2654 284.267 30.9325 276.671 30.1044C269.076 29.2762 262.472 32.2663 261.92 36.783C261.369 41.2997 267.08 45.6325 274.675 46.4607C282.271 47.2889 288.875 44.2988 289.426 39.7821Z" fill="#FFC94A"/>
<path d="M273.695 42.9075C269.695 42.1902 267.063 39.7031 267.822 37.3567C268.581 35.0103 272.446 33.683 276.446 34.4003C277.276 34.5478 278.056 34.7757 278.78 35.0774C278.844 35.0707 278.907 35.064 278.978 35.0506C278.964 35.0237 278.957 34.9969 278.943 34.9768V34.9701C278.851 34.7154 279.014 34.3869 279.34 34.1656C279.61 33.9779 279.985 33.8774 280.375 33.9042C280.517 33.9109 280.652 33.931 280.801 33.9578C281.503 34.0852 282.312 34.4338 283.007 34.9232C283.879 35.5332 284.312 36.0226 284.361 36.4651C284.404 36.7332 284.212 37.0148 283.844 37.1958C283.489 37.3701 282.992 37.417 282.475 37.3232C282.368 37.3031 282.255 37.2763 282.149 37.2494C282.071 37.3299 281.992 37.4103 281.936 37.4908C282.453 38.3019 282.588 39.1601 282.326 39.9712C281.567 42.3176 277.702 43.645 273.702 42.9276L273.695 42.9075Z" fill="#FFAE0E"/>
<path d="M289.461 10.5145C289.418 6.63961 284.823 2.89884 278.234 1.71895C270.752 0.378165 263.532 2.85191 262.113 7.24967C262 7.60498 261.922 7.96699 261.893 8.3223C261.83 9.03962 261.865 11.6608 261.872 12.2039C261.95 16.0653 266.539 19.7793 273.099 20.9592C280.581 22.2999 287.801 19.8262 289.22 15.4284C289.333 15.0865 289.404 14.7379 289.44 14.396C289.51 13.6653 289.468 11.0441 289.468 10.5145H289.461Z" fill="#FFAE0E"/>
<path d="M289.434 11.1776C289.985 6.6609 284.274 2.32805 276.679 1.49988C269.083 0.671708 262.479 3.66184 261.928 8.17852C261.377 12.6952 267.088 17.0281 274.683 17.8562C282.278 18.6844 288.883 15.6943 289.434 11.1776Z" fill="#FFC94A"/>
<path d="M273.695 14.3021C269.695 13.5848 267.063 11.0976 267.822 8.75123C268.581 6.40486 272.446 5.07749 276.446 5.7948C277.276 5.94229 278.056 6.17022 278.78 6.4719C278.844 6.4652 278.907 6.45849 278.978 6.44508C278.964 6.41827 278.957 6.39145 278.943 6.37134V6.36464C278.851 6.10989 279.014 5.7814 279.34 5.56017C279.61 5.37246 279.985 5.2719 280.375 5.29872C280.517 5.30542 280.652 5.32553 280.801 5.35235C281.503 5.47972 282.312 5.82832 283.007 6.31771C283.879 6.92776 284.312 7.41715 284.361 7.85961C284.404 8.12777 284.212 8.40933 283.844 8.59034C283.489 8.76464 282.992 8.81156 282.475 8.71771C282.368 8.6976 282.255 8.67078 282.149 8.64397C282.071 8.72441 281.992 8.80486 281.936 8.88531C282.453 9.69648 282.588 10.5546 282.326 11.3658C281.567 13.7121 277.702 15.0395 273.702 14.3222L273.695 14.3021Z" fill="#FFAE0E"/>
<path d="M247.432 108.78C247 108.78 246.553 108.512 246.078 107.969C245.865 107.728 245.666 107.486 245.468 107.245C244.744 106.354 244.113 105.589 243.283 105.536C242.652 105.495 241.907 105.891 241.021 106.736L240.794 106.528C241.751 105.616 242.567 105.194 243.305 105.241C244.276 105.301 244.978 106.152 245.716 107.064C245.907 107.299 246.106 107.54 246.312 107.781C246.773 108.304 247.17 108.532 247.524 108.479C248.312 108.365 249.078 106.95 250.141 104.543C251.063 102.452 251.893 101.44 252.666 101.48C253.269 101.5 253.78 102.117 254.219 103.364C254.383 103.826 254.709 104.376 255.297 104.356C256.425 104.316 258.17 102.244 259.028 98.9725C260.205 94.4809 260.844 92.6507 260.851 92.6306L261.149 92.7245C261.149 92.7245 260.503 94.5613 259.333 99.0396C258.524 102.13 256.758 104.59 255.312 104.644C254.872 104.664 254.276 104.463 253.922 103.451C253.539 102.365 253.099 101.781 252.659 101.768C252.241 101.761 251.496 102.244 250.432 104.651C249.276 107.272 248.517 108.633 247.574 108.767C247.524 108.774 247.475 108.78 247.425 108.78H247.432Z" fill="white"/>
<g opacity="0.6">
<path d="M299.525 112.032C299.468 112.065 299.404 112.092 299.347 112.112C299.276 112.139 298.645 112.367 297.73 112.494C297.198 112.568 296.674 112.588 296.17 112.555C295.539 112.514 294.943 112.4 294.39 112.206C293 111.717 291.893 110.751 291.106 109.33C290.645 108.499 290.291 107.5 290.05 106.367C289.787 105.133 289.652 103.699 289.652 102.117C289.652 101.721 289.901 101.232 290.284 100.863L297.574 93.8977C298.106 93.3882 298.73 93.2809 298.971 93.6563C299.206 94.0317 298.971 94.7558 298.432 95.2652L291.78 101.621C291.844 104.074 292.262 106.038 293.035 107.466C293.695 108.68 294.61 109.518 295.752 109.94C296.766 110.316 297.787 110.302 298.461 110.222C298.915 110.168 299.284 110.074 299.496 110.014C299.716 109.833 300.085 109.511 300.546 109.048C301.227 108.371 302.255 107.238 303.284 105.73C304.432 104.034 305.354 102.204 306.014 100.293C306.787 98.0608 307.206 95.7077 307.269 93.2876L304.886 93.5759L299.638 105.187C299.475 105.549 299.184 105.884 298.858 106.105C298.532 106.327 298.198 106.394 297.964 106.3L295.206 105.174C294.794 105.006 294.794 104.369 295.206 103.759C295.617 103.149 296.291 102.787 296.702 102.955L298.475 103.679L303.511 92.5368C303.78 91.9468 304.362 91.4507 304.858 91.3904L308.759 90.9211C309.142 90.8742 309.39 91.1021 309.39 91.4977C309.39 94.4474 308.901 97.3368 307.936 100.092C307.149 102.338 306.05 104.497 304.659 106.508C302.269 109.974 299.851 111.811 299.752 111.884C299.674 111.945 299.596 111.992 299.518 112.032H299.525Z" fill="#00DF44"/>
<path d="M297.635 130.775C299.857 127.991 300.298 124.764 298.619 123.566C296.94 122.368 293.777 123.654 291.555 126.438C289.332 129.222 288.891 132.45 290.57 133.648C292.249 134.845 295.412 133.559 297.635 130.775Z" fill="#FFBD45"/>
<path d="M294.582 128.584L297.887 130.4C296.972 131.647 295.794 132.693 294.582 133.35C291.816 134.845 289.539 133.92 289.539 131.305C289.539 128.691 291.816 125.312 294.582 123.817C297.348 122.322 299.624 123.247 299.624 125.862L294.582 128.584Z" fill="#0048E7"/>
<path d="M294.582 128.584L294.929 133.149C294.816 133.216 294.695 133.283 294.582 133.35C291.816 134.845 289.539 133.92 289.539 131.305C289.539 128.691 291.816 125.312 294.582 123.817C297.348 122.322 299.624 123.247 299.624 125.862L294.582 128.584Z" fill="#00E7C8"/>
<path d="M296.021 129.624C297.064 128.318 297.271 126.804 296.483 126.242C295.695 125.68 294.211 126.283 293.168 127.589C292.125 128.895 291.918 130.41 292.706 130.972C293.494 131.534 294.978 130.931 296.021 129.624Z" fill="#213147"/>
<path d="M302.646 123.289C302.991 122.84 303.067 122.336 302.817 122.164C302.566 121.993 302.084 122.218 301.739 122.668C301.394 123.117 301.318 123.621 301.568 123.793C301.819 123.964 302.302 123.739 302.646 123.289Z" fill="#00E7C8"/>
<path d="M305.107 121.762C305.452 121.313 305.528 120.809 305.278 120.637C305.027 120.466 304.545 120.691 304.2 121.141C303.855 121.591 303.779 122.094 304.029 122.266C304.28 122.437 304.763 122.212 305.107 121.762Z" fill="#00E7C8"/>
<path d="M307.572 120.237C307.917 119.787 307.993 119.283 307.743 119.112C307.492 118.94 307.01 119.165 306.665 119.615C306.32 120.065 306.244 120.569 306.494 120.74C306.745 120.912 307.227 120.686 307.572 120.237Z" fill="#0048E7"/>
<path d="M310.039 118.714C310.384 118.264 310.46 117.76 310.21 117.589C309.959 117.417 309.476 117.643 309.132 118.092C308.787 118.542 308.71 119.046 308.961 119.217C309.212 119.389 309.694 119.163 310.039 118.714Z" fill="#00E7C8"/>
<path d="M302.647 125.33C302.992 124.88 303.068 124.376 302.818 124.205C302.567 124.033 302.085 124.259 301.74 124.708C301.395 125.158 301.319 125.662 301.569 125.833C301.82 126.005 302.303 125.779 302.647 125.33Z" fill="#00E7C8"/>
<path d="M305.108 123.803C305.453 123.353 305.529 122.849 305.279 122.678C305.028 122.506 304.546 122.732 304.201 123.181C303.856 123.631 303.78 124.135 304.03 124.306C304.281 124.478 304.764 124.253 305.108 123.803Z" fill="#0048E7"/>
<path d="M307.574 122.271C307.918 121.821 307.995 121.317 307.744 121.146C307.494 120.974 307.011 121.199 306.666 121.649C306.321 122.099 306.245 122.603 306.496 122.774C306.746 122.946 307.229 122.72 307.574 122.271Z" fill="#FFBD45"/>
<path d="M310.033 120.754C310.378 120.305 310.454 119.801 310.204 119.629C309.953 119.458 309.47 119.683 309.126 120.133C308.781 120.582 308.705 121.086 308.955 121.258C309.206 121.429 309.688 121.204 310.033 120.754Z" fill="#FFBD45"/>
<path d="M302.648 127.364C302.993 126.914 303.069 126.41 302.819 126.239C302.568 126.067 302.086 126.292 301.741 126.742C301.396 127.192 301.32 127.696 301.57 127.867C301.821 128.039 302.304 127.813 302.648 127.364Z" fill="#00E7C8"/>
<path d="M305.109 125.843C305.454 125.394 305.53 124.89 305.28 124.718C305.029 124.547 304.547 124.772 304.202 125.222C303.857 125.672 303.781 126.175 304.031 126.347C304.282 126.519 304.764 126.293 305.109 125.843Z" fill="#FFBD45"/>
<path d="M307.573 124.315C307.918 123.865 307.994 123.362 307.744 123.19C307.493 123.018 307.011 123.244 306.666 123.694C306.321 124.143 306.245 124.647 306.495 124.819C306.746 124.99 307.228 124.765 307.573 124.315Z" fill="#FFBD45"/>
<path d="M310.034 122.788C310.379 122.339 310.455 121.835 310.205 121.663C309.954 121.492 309.471 121.717 309.127 122.167C308.782 122.616 308.706 123.12 308.956 123.292C309.207 123.463 309.689 123.238 310.034 122.788Z" fill="#FFBD45"/>
</g>
<path d="M243.794 122.671C243.794 122.671 235.326 125.601 235.326 145.866L253.61 155.104C253.61 155.104 250.872 138.103 259.915 131.265L243.801 122.671H243.794Z" fill="white"/>
</svg>
