<svg width="273" height="188" viewBox="0 0 273 188" fill="none" xmlns="http://www.w3.org/2000/svg">
<path d="M47.0922 187.847L94.0591 162.256V110.926L47.0295 135.694L47.0922 187.847Z" fill="#00A000"/>
<path d="M0 110.926L47.0296 135.695L94.0591 110.926L47.0296 85.2607L0 110.926Z" fill="#00DF44"/>
<path d="M28.3823 103.665L58.7634 119.861L64.4932 116.75L34.6373 100.301L28.3823 103.665Z" fill="black"/>
<path d="M47.0923 187.847L0 162.256V110.926L47.0296 135.694L47.0923 187.847Z" fill="#55F25D"/>
<path d="M42.0051 179.534L5.08691 159.478V119.239L41.9503 138.651L42.0051 179.534Z" fill="#00DF44"/>
<path d="M37.8196 152.839L9.27271 137.325V127.004L37.7805 142.015L37.8196 152.839Z" fill="#FFB200"/>
<path d="M29.8873 104.465L34.6373 101.857V100.301L28.3823 103.665L29.8873 104.465Z" fill="#006000"/>
<path d="M34.6216 100.316L34.6372 101.857L62.9177 117.609L64.4932 116.75L34.6372 100.301L34.6216 100.316Z" fill="#55F25D"/>
<path d="M11.9142 128.397L9.27271 127.004V137.325H11.9142V128.397Z" fill="black"/>
<path d="M37.8196 151.15L11.9142 137.325H9.27271L37.8196 152.839V151.15Z" fill="#AA6D00"/>
<path d="M16.9103 148.104C17.6844 147.486 17.5671 146.151 16.6484 145.123C15.7297 144.094 14.3575 143.761 13.5834 144.378C12.8094 144.996 12.9266 146.331 13.8454 147.359C14.7641 148.388 16.1363 148.721 16.9103 148.104Z" fill="#AA6D00"/>
<path d="M16.3416 147.761C16.9734 147.257 16.879 146.169 16.1306 145.331C15.3822 144.493 14.2634 144.222 13.6315 144.726C12.9997 145.23 13.0942 146.318 13.8426 147.156C14.591 147.994 15.7098 148.265 16.3416 147.761Z" fill="#FFB200"/>
<path d="M16.9025 154.621C17.6766 154.004 17.5593 152.669 16.6406 151.64C15.7219 150.612 14.3497 150.278 13.5756 150.896C12.8016 151.514 12.9188 152.848 13.8375 153.877C14.7562 154.906 16.1285 155.239 16.9025 154.621Z" fill="#AA6D00"/>
<path d="M16.3338 154.271C16.9656 153.767 16.8711 152.679 16.1228 151.841C15.3744 151.003 14.2555 150.732 13.6237 151.236C12.9919 151.74 13.0864 152.828 13.8348 153.666C14.5831 154.504 15.702 154.775 16.3338 154.271Z" fill="#FFB200"/>
<path d="M16.9079 161.137C17.682 160.52 17.5647 159.185 16.646 158.156C15.7273 157.128 14.355 156.794 13.581 157.412C12.8069 158.03 12.9242 159.364 13.8429 160.393C14.7616 161.422 16.1339 161.755 16.9079 161.137Z" fill="#AA6D00"/>
<path d="M16.3392 160.794C16.971 160.29 16.8765 159.202 16.1281 158.364C15.3798 157.526 14.2609 157.255 13.6291 157.759C12.9973 158.263 13.0918 159.351 13.8402 160.189C14.5885 161.027 15.7074 161.298 16.3392 160.794Z" fill="#FFB200"/>
<path d="M24.7859 152.444C25.5599 151.827 25.4426 150.492 24.5239 149.463C23.6052 148.435 22.233 148.101 21.4589 148.719C20.6849 149.337 20.8021 150.671 21.7208 151.7C22.6396 152.729 24.0118 153.062 24.7859 152.444Z" fill="#AA6D00"/>
<path d="M24.2188 152.106C24.8506 151.602 24.7561 150.514 24.0078 149.676C23.2594 148.838 22.1405 148.567 21.5087 149.072C20.8769 149.576 20.9714 150.664 21.7198 151.502C22.4682 152.34 23.587 152.61 24.2188 152.106Z" fill="#FFB200"/>
<path d="M24.791 158.968C25.565 158.35 25.4477 157.015 24.529 155.987C23.6103 154.958 22.2381 154.625 21.464 155.242C20.69 155.86 20.8072 157.195 21.726 158.223C22.6447 159.252 24.0169 159.585 24.791 158.968Z" fill="#AA6D00"/>
<path d="M24.2161 158.622C24.848 158.118 24.7535 157.03 24.0051 156.192C23.2567 155.354 22.1379 155.083 21.5061 155.587C20.8742 156.091 20.9687 157.179 21.7171 158.017C22.4655 158.855 23.5843 159.126 24.2161 158.622Z" fill="#FFB200"/>
<path d="M24.7883 165.484C25.5623 164.866 25.4451 163.531 24.5264 162.503C23.6077 161.474 22.2354 161.141 21.4614 161.758C20.6873 162.376 20.8046 163.711 21.7233 164.739C22.642 165.768 24.0142 166.101 24.7883 165.484Z" fill="#AA6D00"/>
<path d="M24.2134 165.145C24.8453 164.641 24.7508 163.553 24.0024 162.715C23.254 161.877 22.1352 161.606 21.5034 162.111C20.8716 162.615 20.966 163.703 21.7144 164.541C22.4628 165.379 23.5816 165.649 24.2134 165.145Z" fill="#FFB200"/>
<path d="M32.6679 156.795C33.442 156.178 33.3247 154.843 32.406 153.814C31.4873 152.786 30.115 152.452 29.341 153.07C28.5669 153.688 28.6842 155.022 29.6029 156.051C30.5216 157.08 31.8939 157.413 32.6679 156.795Z" fill="#AA6D00"/>
<path d="M32.0992 156.452C32.731 155.948 32.6365 154.86 31.8881 154.022C31.1398 153.184 30.0209 152.914 29.3891 153.418C28.7573 153.922 28.8518 155.01 29.6002 155.848C30.3485 156.686 31.4674 156.956 32.0992 156.452Z" fill="#FFB200"/>
<path d="M32.673 163.319C33.4471 162.701 33.3298 161.367 32.4111 160.338C31.4924 159.309 30.1202 158.976 29.3461 159.594C28.5721 160.211 28.6893 161.546 29.6081 162.575C30.5268 163.603 31.899 163.937 32.673 163.319Z" fill="#AA6D00"/>
<path d="M32.1043 162.968C32.7361 162.464 32.6416 161.376 31.8933 160.538C31.1449 159.7 30.026 159.429 29.3942 159.934C28.7624 160.438 28.8569 161.526 29.6053 162.364C30.3537 163.202 31.4725 163.472 32.1043 162.968Z" fill="#FFB200"/>
<path d="M32.6652 169.829C33.4393 169.211 33.322 167.877 32.4033 166.848C31.4846 165.819 30.1124 165.486 29.3383 166.104C28.5643 166.721 28.6815 168.056 29.6002 169.085C30.5189 170.114 31.8912 170.447 32.6652 169.829Z" fill="#AA6D00"/>
<path d="M32.0965 169.486C32.7283 168.982 32.6338 167.894 31.8854 167.056C31.1371 166.218 30.0182 165.947 29.3864 166.451C28.7546 166.955 28.8491 168.043 29.5975 168.881C30.3458 169.719 31.4647 169.99 32.0965 169.486Z" fill="#FFB200"/>
<path d="M5.05566 113.593L8.6691 115.497V106.199L5.05566 108.17V113.593Z" fill="#36EB83"/>
<path d="M10.6443 116.535L15.5667 119.128V102.435L10.6443 105.117V116.535Z" fill="#36EB83"/>
<path d="M15.5982 137.11C14.9241 136.747 13.9992 136.117 13.9365 135.146L14.5009 135.458C14.5949 135.969 15.0574 136.347 15.6609 136.673C16.3429 137.043 16.7818 137.11 16.7818 136.621C16.7818 136.221 16.5075 135.954 15.9274 135.583L15.3474 135.213C14.4852 134.665 14.0071 134.109 14.0071 133.464C14.0071 132.82 14.5009 132.686 15.6923 133.331C16.4526 133.746 17.2599 134.346 17.3305 135.28L16.774 134.976C16.6799 134.487 16.2723 134.116 15.6609 133.783C14.9869 133.413 14.6185 133.39 14.6185 133.79C14.6185 134.168 14.932 134.457 15.4963 134.82L16.0764 135.183C16.9621 135.746 17.401 136.265 17.401 136.947C17.401 137.628 16.8994 137.814 15.6061 137.11H15.5982Z" fill="black"/>
<path d="M21.3437 136.488V136.999L19.8387 136.184V139.347L19.2352 139.021V135.858L17.7302 135.043V134.531L21.3437 136.495V136.488Z" fill="black"/>
<path d="M24.4789 141.866L24.2281 141.192L21.8923 139.918L21.6415 140.318L21.0066 139.977L22.731 137.243L23.3894 137.599L25.106 142.207L24.4711 141.866H24.4789ZM22.1118 139.577L24.0165 140.614L23.0681 138.051L22.1118 139.577Z" fill="black"/>
<path d="M29.5265 144.608L28.8132 144.215L27.512 142.022L26.2344 142.815L25.6387 142.489V138.821L26.2344 139.147V142.044L28.6956 140.488L29.3932 140.866L27.8647 141.807L29.5265 144.6V144.608Z" fill="black"/>
<path d="M33.3046 143.496L30.6631 142.059V143.193L33.187 144.563V145.023L30.6631 143.652V144.726L33.3046 146.164V146.667L30.0596 144.904V141.237L33.3046 143V143.504V143.496Z" fill="black"/>
<path d="M272.144 62.1589H178.085V162.597H178.109C178.203 163.39 178.673 164.153 179.52 164.598L222.403 187.181C224.088 188.07 226.142 188.07 227.827 187.181L270.71 164.598C271.556 164.153 272.027 163.39 272.121 162.597H272.144V62.1589Z" fill="#DCEAFF"/>
<path d="M225.514 187.833C226.314 187.781 227.105 187.566 227.834 187.181L270.717 164.598C271.564 164.153 272.034 163.39 272.128 162.597H272.152V62.1589H225.514V187.833Z" fill="#B1C5DD"/>
<path d="M179.519 65.1522L222.403 87.7352C224.088 88.6243 226.141 88.6243 227.827 87.7352L270.71 65.1522C272.599 64.1594 272.622 61.5884 270.749 60.566L227.897 37.1828C226.173 36.2418 224.049 36.2418 222.324 37.1828L179.472 60.566C177.599 61.5884 177.615 64.152 179.512 65.1522H179.519Z" fill="white"/>
<path d="M217.496 163.531L217.457 97.9227C217.457 96.2705 216.508 94.7442 214.98 93.9366L188.189 79.8296C187.428 79.4295 186.59 79.4666 185.916 79.7926L185.876 79.8074C185.829 79.8296 185.79 79.8519 185.743 79.8741L182.584 81.2151C181.824 81.5856 181.275 82.3265 181.275 83.2452V148.379C181.275 150.016 182.2 151.52 183.697 152.335L210.559 166.931C211.39 167.383 212.331 167.302 213.044 166.879L216.195 165.546C216.947 165.175 217.496 164.434 217.496 163.523V163.531Z" fill="#B1C5DD"/>
<path d="M211.656 95.3593L184.865 81.2524C183.258 80.4077 181.275 81.5043 181.275 83.2454V148.379C181.275 150.016 182.2 151.521 183.697 152.336L210.559 166.932C212.166 167.806 214.18 166.709 214.18 164.953L214.141 99.3455C214.141 97.6932 213.193 96.1669 211.664 95.3593H211.656Z" fill="#EBF4FF"/>
<path d="M209.156 100.509L187.162 88.928C185.837 88.2316 184.214 89.1355 184.214 90.5655V119.335C184.214 120.676 184.975 121.913 186.205 122.588L208.262 134.568C209.587 135.287 211.233 134.383 211.233 132.946L211.201 103.783C211.201 102.427 210.425 101.175 209.164 100.509H209.156Z" fill="#00DF44"/>
<path d="M187.326 89.032H187.146V122.818H187.326V89.032Z" fill="#55F25D"/>
<path d="M191.519 91.3508H191.339V125.136H191.519V91.3508Z" fill="#55F25D"/>
<path d="M195.72 93.6702H195.541V127.456H195.72V93.6702Z" fill="#55F25D"/>
<path d="M199.914 95.9817H199.734V129.767H199.914V95.9817Z" fill="#55F25D"/>
<path d="M204.116 98.3008H203.936V132.086H204.116V98.3008Z" fill="#55F25D"/>
<path d="M208.308 100.612H208.129V134.398H208.308V100.612Z" fill="#55F25D"/>
<path d="M184.278 92.1373L184.188 92.2844L211.185 107.179L211.275 107.031L184.278 92.1373Z" fill="#55F25D"/>
<path d="M184.277 97.0286L184.187 97.1758L211.184 112.07L211.275 111.923L184.277 97.0286Z" fill="#55F25D"/>
<path d="M184.277 101.928L184.186 102.075L211.183 116.969L211.274 116.822L184.277 101.928Z" fill="#55F25D"/>
<path d="M184.284 106.826L184.193 106.974L211.19 121.868L211.281 121.721L184.284 106.826Z" fill="#55F25D"/>
<path d="M184.276 111.714L184.185 111.861L211.182 126.756L211.273 126.608L184.276 111.714Z" fill="#55F25D"/>
<path d="M184.275 116.613L184.184 116.76L211.181 131.654L211.272 131.507L184.275 116.613Z" fill="#55F25D"/>
<path d="M184.567 91.2249C184.567 89.7949 186.19 88.891 187.514 89.5875L209.508 101.168C210.096 101.479 210.582 101.924 210.927 102.442C210.598 101.635 209.987 100.938 209.164 100.509L187.169 88.928C185.845 88.2316 184.222 89.1355 184.222 90.5655V119.335C184.222 120.054 184.442 120.735 184.834 121.328C184.661 120.906 184.567 120.461 184.567 119.995V91.2249Z" fill="#006019"/>
<path d="M202.227 118.639C202.157 118.639 202.086 118.639 202.024 118.631C201.06 118.543 200.276 117.853 199.672 116.594C199.249 115.697 198.873 114.631 198.512 113.586C197.862 111.734 197.195 109.815 196.427 109.637C196.223 109.592 196.004 109.674 195.753 109.903C195.165 110.444 194.671 111.237 194.232 111.934C193.598 112.941 193.096 113.741 192.445 113.727C192.038 113.719 191.669 113.386 191.285 112.689C190.823 111.852 190.517 110.993 190.251 110.23C189.616 108.429 189.153 107.125 187.241 107.125V106.799C189.404 106.799 189.953 108.34 190.58 110.126C190.854 110.911 191.144 111.726 191.591 112.534C191.904 113.097 192.194 113.386 192.453 113.393C192.453 113.393 192.453 113.393 192.461 113.393C192.908 113.393 193.402 112.6 193.935 111.763C194.381 111.052 194.891 110.237 195.518 109.666C195.855 109.363 196.184 109.244 196.513 109.318C197.47 109.54 198.105 111.363 198.849 113.482C199.21 114.512 199.578 115.579 200.001 116.453C200.55 117.602 201.24 118.224 202.071 118.298C203.09 118.394 204.289 117.639 205.355 116.231C207.056 113.979 208.796 107.458 208.812 107.399L209.149 107.481C209.078 107.747 207.377 114.127 205.637 116.431C204.563 117.853 203.341 118.646 202.243 118.646L202.227 118.639Z" fill="#17FFFF"/>
<path d="M209.156 144.963L187.162 133.383C185.837 132.686 184.214 133.59 184.214 135.02V137.117C184.214 138.458 184.975 139.695 186.205 140.37L208.262 152.35C209.587 153.069 211.233 152.165 211.233 150.728L211.201 148.238C211.201 146.882 210.425 145.63 209.164 144.963H209.156Z" fill="black"/>
<path d="M231.785 163.531L231.824 97.9227C231.824 96.2705 232.773 94.7442 234.301 93.9366L261.092 79.8296C261.853 79.4295 262.691 79.4666 263.366 79.7926L263.405 79.8074C263.452 79.8296 263.491 79.8519 263.538 79.8741L266.697 81.2151C267.457 81.5856 268.006 82.3265 268.006 83.2452V148.379C268.006 150.016 267.081 151.52 265.584 152.335L238.722 166.931C237.891 167.383 236.951 167.302 236.237 166.879L233.086 165.546C232.334 165.175 231.785 164.434 231.785 163.523V163.531Z" fill="#8DA2B7"/>
<path d="M237.625 95.3593L264.416 81.2524C266.023 80.4077 268.006 81.5043 268.006 83.2454V148.379C268.006 150.016 267.081 151.521 265.584 152.336L238.722 166.932C237.115 167.806 235.101 166.709 235.101 164.953L235.14 99.3455C235.14 97.6932 236.088 96.1669 237.617 95.3593H237.625Z" fill="#DCEAFF"/>
<path d="M240.274 100.835L261.97 89.4096C263.271 88.7206 264.878 89.6171 264.878 91.0248V143.756C264.878 145.082 264.133 146.304 262.919 146.964L241.167 158.781C239.866 159.493 238.236 158.596 238.236 157.181L238.267 104.065C238.267 102.724 239.035 101.487 240.274 100.835Z" fill="#213147"/>
<path d="M243.238 63.1019C243.949 57.2808 236.593 51.6971 226.81 50.6304C217.026 49.5636 208.52 53.4178 207.809 59.2388C207.099 65.0599 214.454 70.6436 224.238 71.7103C234.021 72.7771 242.528 68.9229 243.238 63.1019Z" fill="#BFBFBF"/>
<path d="M228.815 53.2309C219.174 51.5046 209.878 54.6905 208.051 60.3511C207.965 60.6326 207.895 60.9068 207.848 61.1883C208.686 65.7746 214.346 70.0126 222.2 71.4203C231.841 73.1466 241.137 69.9607 242.963 64.3001C243.049 64.0186 243.12 63.7445 243.167 63.4629C242.328 58.8767 236.669 54.6386 228.815 53.2309Z" fill="black"/>
<path d="M240.76 57.1355C240.713 52.8531 235.634 48.7188 228.352 47.4148C220.082 45.9329 212.103 48.6669 210.535 53.5273C210.41 53.92 210.324 54.3201 210.292 54.7127C210.222 55.5055 210.261 58.4025 210.269 59.0026C210.355 63.2703 215.426 67.3749 222.677 68.6789C230.946 70.1608 238.926 67.4268 240.493 62.5664C240.619 62.1886 240.697 61.8033 240.736 61.4254C240.815 60.6178 240.768 57.7208 240.768 57.1355H240.76Z" fill="#FFAE0E"/>
<path d="M240.726 57.8654C241.335 52.8736 235.024 48.0849 226.629 47.1697C218.235 46.2544 210.936 49.5591 210.327 54.5509C209.717 59.5427 216.029 64.3313 224.423 65.2466C232.818 66.1619 240.116 62.8572 240.726 57.8654Z" fill="#FFC94A"/>
<path d="M223.328 61.3219C218.907 60.5291 215.999 57.7803 216.837 55.1871C217.676 52.5939 221.948 51.1269 226.369 51.9197C227.286 52.0827 228.148 52.3346 228.948 52.668C229.018 52.6606 229.089 52.6532 229.167 52.6384C229.151 52.6088 229.144 52.5791 229.128 52.5569V52.5495C229.026 52.2679 229.206 51.9049 229.567 51.6604C229.865 51.4529 230.28 51.3418 230.711 51.3714C230.868 51.3788 231.017 51.4011 231.181 51.4307C231.957 51.5715 232.851 51.9568 233.619 52.4976C234.583 53.1719 235.061 53.7127 235.116 54.2017C235.163 54.4981 234.952 54.8093 234.544 55.0093C234.152 55.202 233.604 55.2538 233.031 55.1501C232.914 55.1279 232.788 55.0982 232.671 55.0686C232.585 55.1575 232.498 55.2464 232.436 55.3353C233.008 56.2318 233.157 57.1802 232.867 58.0767C232.028 60.6699 227.756 62.1369 223.335 61.3441L223.328 61.3219Z" fill="#FFAE0E"/>
<path d="M240.76 43.636C240.713 39.3535 235.634 35.2193 228.352 33.9152C220.082 32.4334 212.103 35.1674 210.535 40.0278C210.41 40.4205 210.324 40.8206 210.292 41.2132C210.222 42.006 210.261 44.903 210.269 45.5031C210.355 49.7708 215.426 53.8754 222.677 55.1794C230.946 56.6613 238.926 53.9273 240.493 49.0669C240.619 48.689 240.697 48.3038 240.736 47.9259C240.815 47.1183 240.768 44.2213 240.768 43.636H240.76Z" fill="#FFAE0E"/>
<path d="M240.718 44.3667C241.327 39.3748 235.016 34.5862 226.621 33.6709C218.227 32.7556 210.928 36.0603 210.319 41.0521C209.71 46.0439 216.021 50.8326 224.415 51.7479C232.81 52.6631 240.109 49.3585 240.718 44.3667Z" fill="#FFC94A"/>
<path d="M223.328 47.8221C218.907 47.0294 215.999 44.2806 216.837 41.6874C217.676 39.0942 221.948 37.6272 226.369 38.42C227.286 38.583 228.148 38.8349 228.948 39.1683C229.018 39.1609 229.089 39.1535 229.167 39.1386C229.151 39.109 229.144 39.0794 229.128 39.0571V39.0497C229.026 38.7682 229.206 38.4051 229.567 38.1606C229.865 37.9532 230.28 37.842 230.711 37.8717C230.868 37.8791 231.017 37.9013 231.181 37.931C231.957 38.0717 232.851 38.457 233.619 38.9979C234.583 39.6721 235.061 40.213 235.116 40.702C235.163 40.9983 234.952 41.3095 234.544 41.5096C234.152 41.7022 233.604 41.7541 233.031 41.6503C232.914 41.6281 232.788 41.5985 232.671 41.5688C232.585 41.6577 232.498 41.7466 232.436 41.8356C233.008 42.7321 233.157 43.6804 232.867 44.5769C232.028 47.1701 227.756 48.6371 223.335 47.8444L223.328 47.8221Z" fill="#FFAE0E"/>
<path d="M240.76 12.0215C240.713 7.73904 235.634 3.60475 228.352 2.30074C220.082 0.818918 212.103 3.55289 210.535 8.41327C210.41 8.80596 210.324 9.20605 210.292 9.59873C210.222 10.3915 210.261 13.2885 210.269 13.8886C210.355 18.1563 215.426 22.2609 222.677 23.5649C230.946 25.0468 238.926 22.3128 240.493 17.4524C240.619 17.0745 240.697 16.6893 240.736 16.3114C240.815 15.5038 240.768 12.6068 240.768 12.0215H240.76Z" fill="#FFAE0E"/>
<path d="M240.719 12.7531C241.328 7.76132 235.017 2.97264 226.622 2.05736C218.228 1.14207 210.929 4.44676 210.32 9.43858C209.711 14.4304 216.022 19.219 224.416 20.1343C232.811 21.0496 240.11 17.7449 240.719 12.7531Z" fill="#FFC94A"/>
<path d="M223.328 16.2076C218.907 15.4149 215.999 12.6661 216.837 10.0729C217.676 7.47968 221.948 6.01267 226.369 6.80545C227.286 6.96845 228.148 7.22036 228.948 7.55377C229.018 7.54636 229.089 7.53895 229.167 7.52413C229.151 7.4945 229.144 7.46486 229.128 7.44263V7.43522C229.026 7.15368 229.206 6.79063 229.567 6.54613C229.865 6.33867 230.28 6.22754 230.711 6.25717C230.868 6.26458 231.017 6.28681 231.181 6.31645C231.957 6.45722 232.851 6.84249 233.619 7.38336C234.583 8.05759 235.061 8.59846 235.116 9.08746C235.163 9.38383 234.952 9.69501 234.544 9.89506C234.152 10.0877 233.604 10.1396 233.031 10.0358C232.914 10.0136 232.788 9.98396 232.671 9.95433C232.585 10.0432 232.498 10.1321 232.436 10.2211C233.008 11.1176 233.157 12.0659 232.867 12.9624C232.028 15.5556 227.756 17.0226 223.335 16.2299L223.328 16.2076Z" fill="#FFAE0E"/>
<path d="M194.303 120.624C193.825 120.624 193.331 120.328 192.806 119.728C192.571 119.461 192.351 119.195 192.132 118.928C191.332 117.942 190.635 117.098 189.718 117.038C189.02 116.994 188.197 117.431 187.217 118.365L186.966 118.135C188.024 117.127 188.926 116.661 189.741 116.712C190.815 116.779 191.591 117.72 192.406 118.728C192.618 118.987 192.837 119.254 193.064 119.52C193.574 120.098 194.013 120.35 194.405 120.291C195.275 120.165 196.121 118.602 197.297 115.942C198.316 113.63 199.233 112.511 200.088 112.556C200.754 112.578 201.318 113.26 201.804 114.638C201.984 115.149 202.345 115.757 202.996 115.734C204.242 115.69 206.17 113.401 207.118 109.785C208.42 104.821 209.125 102.798 209.133 102.776L209.462 102.88C209.462 102.88 208.749 104.91 207.456 109.859C206.562 113.275 204.61 115.994 203.011 116.053C202.525 116.075 201.867 115.853 201.475 114.734C201.052 113.534 200.566 112.889 200.08 112.875C199.617 112.867 198.794 113.401 197.619 116.06C196.341 118.957 195.502 120.461 194.46 120.61C194.405 120.617 194.35 120.624 194.295 120.624H194.303Z" fill="white"/>
<g opacity="0.6">
<path d="M251.875 124.218C251.812 124.255 251.741 124.284 251.679 124.307C251.6 124.336 250.903 124.588 249.892 124.729C249.304 124.81 248.724 124.833 248.167 124.796C247.47 124.751 246.811 124.625 246.2 124.41C244.664 123.869 243.441 122.803 242.571 121.232C242.061 120.313 241.669 119.209 241.403 117.957C241.113 116.594 240.964 115.008 240.964 113.26C240.964 112.822 241.238 112.282 241.661 111.874L249.719 104.176C250.307 103.613 250.997 103.494 251.263 103.909C251.522 104.324 251.263 105.124 250.668 105.687L243.315 112.711C243.386 115.423 243.848 117.594 244.703 119.172C245.432 120.513 246.443 121.439 247.705 121.906C248.826 122.321 249.954 122.306 250.699 122.217C251.201 122.158 251.608 122.054 251.843 121.988C252.086 121.788 252.494 121.432 253.003 120.921C253.756 120.172 254.892 118.92 256.029 117.253C257.299 115.379 258.318 113.356 259.047 111.244C259.901 108.777 260.364 106.176 260.434 103.502L257.8 103.82L252 116.653C251.82 117.053 251.498 117.424 251.138 117.668C250.777 117.913 250.409 117.987 250.15 117.883L247.101 116.638C246.647 116.453 246.647 115.749 247.101 115.075C247.556 114.401 248.3 114.001 248.755 114.186L250.715 114.986L256.28 102.672C256.578 102.02 257.22 101.472 257.769 101.405L262.08 100.886C262.503 100.834 262.778 101.086 262.778 101.524C262.778 104.784 262.237 107.977 261.171 111.022C260.301 113.504 259.086 115.89 257.55 118.113C254.908 121.943 252.235 123.973 252.126 124.055C252.039 124.121 251.953 124.173 251.867 124.218H251.875Z" fill="#00DF44"/>
<path d="M249.786 144.933C252.242 141.856 252.729 138.289 250.874 136.965C249.018 135.642 245.523 137.063 243.066 140.14C240.61 143.217 240.123 146.784 241.978 148.108C243.834 149.431 247.33 148.01 249.786 144.933Z" fill="#FFBD45"/>
<path d="M246.411 142.511L250.064 144.519C249.053 145.897 247.752 147.053 246.411 147.779C243.354 149.431 240.838 148.409 240.838 145.519C240.838 142.629 243.354 138.895 246.411 137.243C249.468 135.591 251.984 136.613 251.984 139.503L246.411 142.511Z" fill="#0048E7"/>
<path d="M246.411 142.511L246.795 147.557C246.67 147.631 246.537 147.705 246.411 147.779C243.354 149.431 240.838 148.409 240.838 145.519C240.838 142.629 243.354 138.895 246.411 137.243C249.468 135.591 251.984 136.613 251.984 139.503L246.411 142.511Z" fill="#00E7C8"/>
<path d="M248.003 143.661C249.156 142.217 249.384 140.543 248.513 139.922C247.642 139.301 246.002 139.968 244.85 141.412C243.697 142.855 243.469 144.529 244.339 145.15C245.21 145.771 246.85 145.105 248.003 143.661Z" fill="#213147"/>
<path d="M255.328 136.66C255.71 136.163 255.794 135.606 255.517 135.417C255.24 135.227 254.707 135.476 254.326 135.973C253.945 136.47 253.86 137.027 254.137 137.217C254.414 137.406 254.947 137.157 255.328 136.66Z" fill="#00E7C8"/>
<path d="M258.049 134.98C258.43 134.483 258.514 133.926 258.237 133.737C257.96 133.547 257.427 133.796 257.046 134.293C256.665 134.79 256.58 135.347 256.857 135.536C257.134 135.726 257.668 135.477 258.049 134.98Z" fill="#00E7C8"/>
<path d="M260.773 133.286C261.154 132.789 261.239 132.233 260.962 132.043C260.685 131.853 260.152 132.102 259.77 132.599C259.389 133.096 259.305 133.653 259.582 133.843C259.859 134.032 260.392 133.783 260.773 133.286Z" fill="#0048E7"/>
<path d="M263.492 131.603C263.873 131.106 263.957 130.549 263.68 130.36C263.403 130.17 262.87 130.419 262.489 130.916C262.108 131.413 262.023 131.97 262.3 132.16C262.577 132.349 263.111 132.1 263.492 131.603Z" fill="#00E7C8"/>
<path d="M255.33 138.915C255.711 138.418 255.795 137.862 255.518 137.672C255.242 137.482 254.708 137.731 254.327 138.229C253.946 138.726 253.862 139.282 254.139 139.472C254.416 139.662 254.949 139.412 255.33 138.915Z" fill="#00E7C8"/>
<path d="M258.05 137.228C258.431 136.731 258.515 136.174 258.238 135.984C257.961 135.795 257.428 136.044 257.047 136.541C256.666 137.038 256.581 137.594 256.858 137.784C257.135 137.974 257.669 137.725 258.05 137.228Z" fill="#0048E7"/>
<path d="M260.766 135.541C261.147 135.044 261.232 134.488 260.955 134.298C260.678 134.108 260.145 134.357 259.764 134.854C259.383 135.351 259.298 135.908 259.575 136.098C259.852 136.288 260.385 136.038 260.766 135.541Z" fill="#FFBD45"/>
<path d="M263.493 133.858C263.874 133.361 263.958 132.805 263.681 132.615C263.404 132.425 262.871 132.674 262.49 133.171C262.109 133.668 262.024 134.225 262.301 134.415C262.578 134.604 263.112 134.355 263.493 133.858Z" fill="#FFBD45"/>
<path d="M255.331 141.17C255.712 140.673 255.797 140.117 255.52 139.927C255.243 139.737 254.71 139.986 254.329 140.483C253.948 140.98 253.863 141.537 254.14 141.727C254.417 141.916 254.95 141.667 255.331 141.17Z" fill="#00E7C8"/>
<path d="M258.051 139.483C258.432 138.986 258.517 138.429 258.24 138.24C257.963 138.05 257.429 138.299 257.048 138.796C256.667 139.293 256.583 139.85 256.86 140.04C257.137 140.229 257.67 139.98 258.051 139.483Z" fill="#FFBD45"/>
<path d="M260.774 137.794C261.155 137.297 261.239 136.74 260.962 136.55C260.685 136.361 260.152 136.61 259.771 137.107C259.39 137.604 259.306 138.161 259.582 138.35C259.859 138.54 260.393 138.291 260.774 137.794Z" fill="#FFBD45"/>
<path d="M263.494 136.106C263.875 135.609 263.959 135.052 263.683 134.863C263.406 134.673 262.872 134.922 262.491 135.419C262.11 135.916 262.026 136.473 262.303 136.663C262.58 136.852 263.113 136.603 263.494 136.106Z" fill="#FFBD45"/>
</g>
<path d="M190.282 135.976C190.282 135.976 180.923 139.214 180.923 161.612L201.13 171.821C201.13 171.821 198.104 153.032 208.098 145.475L190.29 135.976H190.282Z" fill="white"/>
<path d="M157.87 133.027H109.892V133.627H157.87V133.027Z" fill="white"/>
<path d="M156.945 136.309L162.409 133.324L156.945 130.338V136.309Z" fill="white"/>
</svg>
