<svg width="208" height="194" viewBox="0 0 208 194" fill="none" xmlns="http://www.w3.org/2000/svg">
<path d="M41.1121 193.169C26.9911 193.169 12.2003 181.664 5.1379 165.195C4.92208 164.693 4.71741 164.187 4.51648 163.677L4.41605 163.417C4.01419 162.382 3.64206 161.329 3.3109 160.28L3.28487 160.194C1.36858 154.14 0.587191 147.837 1.02254 141.973V141.91C1.06719 141.385 1.11926 140.849 1.17879 140.317C1.30159 139.238 1.46906 138.177 1.67371 137.147L1.68484 137.095C2.20949 134.483 2.98717 132.008 4.00299 129.746C5.87463 125.578 8.49048 122.155 11.7872 119.573L11.8691 119.509C12.1928 119.26 12.5352 119.007 12.8812 118.765C12.9036 118.75 12.9705 118.698 12.9705 118.698L13.0003 118.68C13.4096 118.401 13.8338 118.129 14.2729 117.865C16.0589 103.089 22.5929 89.6934 33.1977 79.0886C43.9401 68.3462 57.5104 61.7936 72.491 60.1006L109.135 0.0666504L117.038 70.9323C117.578 71.2969 118.11 71.6653 118.631 72.0374C127.055 78.0728 133.76 85.7119 138.571 94.7501L139.342 94.9436C139.822 95.0627 144.056 96.2794 145.585 101.887C147.174 107.71 145.288 110.244 144.67 110.884L144.64 110.918C145.779 115.826 146.356 120.882 146.356 125.962C146.356 134.933 144.618 143.584 141.184 151.718C143.297 151.595 145.515 151.175 147.93 150.442C153.34 148.801 155.878 146.367 157.902 143.022C156.506 141.11 155.736 139.19 155.613 137.303C155.394 133.932 156.819 131.777 158.173 130.512C157.377 129.143 156.529 127.327 156.034 125.21C155.937 124.804 155.852 124.376 155.788 123.945C155.148 119.755 156 116.942 156.823 114.222C157.269 112.745 157.731 111.219 158.002 109.329C158.177 108.105 158.058 106.043 157.943 104.049C157.734 100.432 157.533 97.0162 158.728 94.8952C160.986 90.8803 166.233 87.4905 170.066 85.0161C171.398 84.1566 172.551 83.4124 173.228 82.8654C174.702 81.6858 176.265 81.0868 177.872 81.0868C180.793 81.0868 183.357 83.0626 184.726 86.3705C185.362 87.9073 185.656 89.5817 185.586 91.1445C185.761 91.1222 185.932 91.0999 186.103 91.0813C186.962 90.9882 187.803 90.9399 188.603 90.9399C192.477 90.9399 195.647 92.0561 197.776 94.1659C199.569 95.9483 200.447 98.0655 200.25 100.134C200.202 100.648 200.068 101.303 199.748 102.013C202.003 103.256 203.807 105.269 204.648 107.554C205.404 109.608 205.333 111.721 204.481 113.541C206.873 115.539 207.342 117.731 207.271 119.301C207.182 121.351 206.133 123.335 204.228 125.065C203.833 126.557 203.249 128.053 202.486 129.519C199.398 135.454 195.104 137.597 191.967 139.156C189.143 140.563 188.198 141.158 187.826 142.81C186.717 147.696 185.34 153.776 178.166 153.776C177.135 153.776 176.015 153.638 174.765 153.355C171.896 156.95 168.629 160.116 165.042 162.777C157.619 168.284 149.5 171.193 141.559 171.193C140.082 171.193 138.601 171.089 137.158 170.885C134.724 170.539 132.48 169.91 130.471 169.009C129.34 170.326 128.16 171.606 126.943 172.823C114.422 185.344 97.7786 192.239 80.0705 192.239C72.0891 192.239 64.2676 190.825 56.8183 188.035C54.4518 189.352 52.4424 190.412 51.6127 190.81C50.5596 191.32 49.4396 191.755 48.2898 192.109L48.2377 192.124C47.8656 192.236 47.4898 192.34 47.1252 192.433L46.9094 192.485C46.5633 192.567 46.2135 192.649 45.8638 192.715L45.8005 192.73C44.2824 193.021 42.7047 193.169 41.1121 193.169Z" fill="#390176"/>
<path d="M202.516 113.939C203.744 112.287 204.031 110.188 203.249 108.063C202.431 105.835 200.354 103.628 197.567 102.661C198.412 101.708 198.698 100.729 198.769 99.9852C198.925 98.3703 198.2 96.6773 196.726 95.215C194.468 92.9749 190.851 92.0521 186.263 92.5508C185.422 92.6438 184.592 92.7777 183.781 92.9377C184.391 91.014 184.101 88.7331 183.349 86.9247C182.218 84.1898 180.168 82.56 177.872 82.56C176.611 82.56 175.361 83.0474 174.155 84.0112C173.418 84.6028 172.235 85.3656 170.869 86.2475C167.167 88.64 162.099 91.9145 160.023 95.6057C159.044 97.3471 159.23 100.551 159.427 103.944C159.547 106.013 159.673 108.149 159.476 109.522C159.189 111.524 158.709 113.105 158.248 114.635C157.437 117.317 156.67 119.848 157.258 123.703C157.318 124.09 157.396 124.484 157.485 124.856C158.08 127.412 159.241 129.5 160.142 130.836C158.516 131.911 156.89 133.928 157.102 137.191C157.221 139.033 158.11 140.968 159.695 142.888C157.574 146.68 154.877 149.88 148.365 151.852C145.303 152.782 142.527 153.232 139.874 153.232C139.539 153.232 139.215 153.221 138.895 153.21C142.81 144.778 144.875 135.524 144.875 125.95C144.875 120.689 144.246 115.498 143.007 110.456C143.208 110.251 143.409 110.047 143.606 109.842C143.948 109.489 145.574 107.468 144.157 102.27C142.825 97.3917 139.144 96.4205 138.988 96.3796L137.917 96.1117L137.753 96.3833C133.064 87.2298 126.263 79.3265 117.768 73.239C117.064 72.7366 116.357 72.2492 115.639 71.7766L108.141 4.54639L73.384 61.4919C58.6044 62.9989 44.9038 69.4808 34.2544 80.1302C23.7278 90.6568 17.272 104.171 15.672 118.761C15.5901 118.81 15.5082 118.858 15.4301 118.906C14.8906 119.215 14.3659 119.539 13.8561 119.889C13.8413 119.9 13.8227 119.911 13.8115 119.918C13.7854 119.937 13.7631 119.956 13.737 119.974C13.4133 120.201 13.0933 120.436 12.7808 120.677C12.7585 120.696 12.7361 120.715 12.7101 120.733C9.63655 123.144 7.14724 126.382 5.36862 130.345C4.38256 132.544 3.64583 134.906 3.15094 137.381C3.15094 137.396 3.14349 137.414 3.13977 137.429C2.94256 138.423 2.78255 139.431 2.6672 140.458V140.477C2.60766 140.986 2.55928 141.5 2.51835 142.013V142.021C2.08672 147.699 2.82348 153.779 4.71373 159.748C4.72117 159.774 4.72863 159.796 4.73607 159.822C5.0598 160.845 5.42073 161.861 5.81144 162.873C5.84492 162.959 5.87465 163.041 5.90814 163.126C6.10163 163.617 6.3026 164.112 6.51098 164.6C13.3427 180.54 27.5753 191.673 41.1159 191.673C42.6154 191.673 44.1001 191.536 45.5289 191.26C45.5475 191.26 45.5624 191.253 45.581 191.249C45.9122 191.186 46.2396 191.111 46.5633 191.033C46.6303 191.018 46.701 191 46.768 190.985C47.1178 190.896 47.4601 190.803 47.8062 190.698C47.8248 190.695 47.8397 190.687 47.8583 190.684C48.9262 190.356 49.968 189.951 50.969 189.471C51.8546 189.043 54.1466 187.83 56.7029 186.397C64.1076 189.258 72.0147 190.751 80.0743 190.751C97.3842 190.751 113.656 184.012 125.894 171.77C127.371 170.293 128.767 168.756 130.08 167.167C132.19 168.261 134.638 169.02 137.373 169.411C138.746 169.604 140.157 169.705 141.563 169.705C149.184 169.705 156.998 166.895 164.16 161.578C167.907 158.799 171.308 155.424 174.192 151.673C175.688 152.075 177.009 152.28 178.17 152.28C184.157 152.28 185.288 147.293 186.378 142.471C186.914 140.101 188.44 139.245 191.309 137.812C194.427 136.261 198.308 134.326 201.173 128.819C201.991 127.245 202.553 125.716 202.907 124.238C204.671 122.75 205.716 120.997 205.791 119.223C205.854 117.749 205.288 115.717 202.52 113.928L202.516 113.939Z" fill="#390176"/>
<path d="M80.0706 190.751C67.6054 190.751 55.5011 187.205 45.0675 180.492C34.9056 173.958 26.7864 164.756 21.5845 153.88C17.3947 145.128 15.2738 135.729 15.2738 125.95C15.2738 108.64 22.0125 92.3685 34.2544 80.1303C46.4926 67.892 62.7644 61.1497 80.0743 61.1497C93.6967 61.1497 106.731 65.3283 117.771 73.2353C128.573 80.9749 136.64 91.6466 141.098 104.101C143.602 111.096 144.875 118.449 144.875 125.946C144.875 143.256 138.136 159.528 125.894 171.766C113.656 184.005 97.3842 190.747 80.0743 190.747L80.0706 190.751Z" fill="#390176"/>
<path d="M143.658 125.954C143.658 135.249 141.664 144.079 138.08 152.038C128.123 174.148 105.894 189.541 80.0743 189.541C54.2546 189.541 32.9186 174.762 22.6822 153.362C18.712 145.065 16.4906 135.77 16.4906 125.954C16.4906 121.987 16.8552 118.106 17.551 114.341C18.8534 107.26 21.3353 100.596 24.7772 94.5453C35.713 75.3265 56.383 62.3665 80.078 62.3665C84.8929 62.3665 89.5814 62.9023 94.0912 63.9181C99.6019 65.1572 104.841 67.1107 109.704 69.6781C118.337 74.2289 125.794 80.7108 131.502 88.5471C135.033 93.3955 137.898 98.7649 139.959 104.517C142.359 111.215 143.665 118.434 143.665 125.954H143.658Z" fill="url(#paint0_radial_2_6562)"/>
<path d="M143.658 125.954C143.658 136.287 141.195 146.047 136.815 154.672C133.001 162.196 127.736 168.853 121.392 174.285C110.281 183.796 95.8437 189.541 80.0706 189.541C54.7643 189.541 32.9149 174.762 22.6785 153.362C62.2583 150.966 105.548 140.358 139.044 105.451C139.353 105.131 139.654 104.819 139.956 104.517C142.356 111.215 143.662 118.434 143.662 125.954H143.658Z" fill="url(#paint1_radial_2_6562)"/>
<g style="mix-blend-mode:multiply">
<path d="M35.9996 144.477C32.0293 136.179 29.8079 126.884 29.8079 117.068C29.8079 97.8682 38.3177 80.6587 51.7689 69.001C30.8572 79.4159 16.4868 101.005 16.4868 125.95C16.4868 135.762 18.7083 145.057 22.6785 153.359C32.9149 174.758 54.7681 189.538 80.0706 189.538C95.9888 189.538 110.545 183.688 121.697 174.018C113.172 178.263 103.561 180.652 93.3916 180.652C68.0854 180.652 46.2359 165.872 35.9996 144.473V144.477Z" fill="#AFA5BE"/>
</g>
<path d="M20.8106 147.13L22.2952 147.041C44.5354 145.694 63.7244 141.969 80.9636 135.655C90.9506 131.993 100.353 127.39 108.912 121.976C118.203 116.097 126.802 109.061 134.475 101.068C134.795 100.737 135.591 99.8776 136.253 98.8952L137.917 96.1194L138.988 96.3873C139.144 96.4282 142.824 97.3994 144.157 102.278C145.574 107.476 143.948 109.496 143.606 109.85C135.234 118.575 125.838 126.255 115.688 132.682C106.374 138.576 96.16 143.576 85.3283 147.547C66.9207 154.297 46.5559 158.267 23.0655 159.688L21.5808 159.778L20.8143 147.134L20.8106 147.13Z" fill="#390176"/>
<path d="M142.717 102.665C143.833 106.758 142.825 108.51 142.531 108.808C134.24 117.444 124.942 125.054 114.884 131.416C105.66 137.255 95.5386 142.207 84.8073 146.144C66.5374 152.842 46.3103 156.786 22.9688 158.196L22.6748 153.359L22.3808 148.522C44.7698 147.167 64.0965 143.413 81.4696 137.046C91.5572 133.348 101.057 128.7 109.701 123.23C119.096 117.284 127.788 110.174 135.543 102.095C135.877 101.749 136.759 100.804 137.504 99.6879L138.62 97.8274C138.62 97.8274 141.597 98.5716 142.713 102.665H142.717Z" fill="white"/>
<path d="M142.717 102.664C142.612 102.281 142.49 101.939 142.356 101.615C141.001 103.714 139.249 105.235 139.04 105.451C105.544 140.354 62.2583 150.966 22.6748 153.362L22.9688 158.2C46.3103 156.786 66.5374 152.845 84.8073 146.147C95.5386 142.214 105.66 137.258 114.884 131.42C124.938 125.057 134.24 117.448 142.531 108.811C142.821 108.51 143.833 106.761 142.717 102.668V102.664Z" fill="#455396"/>
<path d="M141.995 100.841C140.663 102.597 138.858 104.569 138.504 104.938C110.623 133.991 72.7217 149.589 22.6339 152.622L22.6413 152.771L22.7232 154.107C73.2054 151.052 111.427 135.305 139.58 105.969C139.602 105.946 141.21 104.231 142.642 102.434C142.46 101.831 142.24 101.302 141.995 100.841Z" fill="#390176"/>
<path d="M91.3674 153.132C99.0388 153.132 105.258 146.913 105.258 139.241C105.258 131.57 99.0388 125.351 91.3674 125.351C83.696 125.351 77.4771 131.57 77.4771 139.241C77.4771 146.913 83.696 153.132 91.3674 153.132Z" fill="#390176"/>
<path d="M91.3674 151.126C97.9312 151.126 103.252 145.805 103.252 139.242C103.252 132.678 97.9312 127.357 91.3674 127.357C84.8036 127.357 79.4827 132.678 79.4827 139.242C79.4827 145.805 84.8036 151.126 91.3674 151.126Z" fill="white"/>
<g style="mix-blend-mode:multiply" opacity="0.6">
<path d="M92.7553 148.812C86.1915 148.812 80.8706 143.491 80.8706 136.927C80.8706 135.174 81.2538 133.511 81.9348 132.015C80.398 134.017 79.4827 136.521 79.4827 139.241C79.4827 145.805 84.8036 151.126 91.3674 151.126C96.1786 151.126 100.32 148.265 102.188 144.153C100.015 146.985 96.5991 148.812 92.7553 148.812Z" fill="#AFA5BE"/>
</g>
<path d="M41.1082 191.677C27.5639 191.677 13.335 180.544 6.50703 164.603C2.89026 156.172 1.59907 147.055 2.86792 138.936C4.16281 130.657 8.0475 123.904 13.8075 119.922C15.4187 118.81 26.1276 112.588 29.6142 111.424C32.0588 110.605 34.63 110.192 37.2496 110.192C51.3483 110.192 65.7446 122.065 72.2526 139.067C72.8852 140.711 73.4433 142.419 73.9159 144.142C75.9326 151.517 76.1968 158.862 74.6824 165.389C73.2126 171.722 70.1614 177.009 65.8563 180.678C63.1958 182.948 53.0748 188.451 50.9613 189.467C49.2459 190.293 47.4152 190.899 45.5213 191.26C44.0924 191.536 42.6078 191.673 41.1082 191.673V191.677Z" fill="#390176"/>
<path d="M65.0714 179.759C62.5374 181.917 52.5876 187.342 50.4369 188.38C48.8294 189.154 47.1104 189.727 45.2945 190.077C40.2154 191.048 34.8014 190.178 29.6032 187.811C22.1874 184.433 15.2292 178.018 10.3547 169.586C9.35008 167.848 8.43473 166.029 7.61984 164.131C0.360254 147.193 3.10631 128.793 14.4962 120.923C16.1222 119.8 26.7344 113.667 29.994 112.577C35.8545 110.62 42.0908 111.197 47.9811 113.727C47.9811 113.727 47.9848 113.727 47.9885 113.727C56.0853 117.206 63.5347 124.369 68.4835 133.701C69.4659 135.55 70.3514 137.489 71.1217 139.502C71.7393 141.109 72.2826 142.765 72.7477 144.462C76.8408 159.431 73.2315 172.801 65.0714 179.759Z" fill="#8CFFFF"/>
<g style="mix-blend-mode:multiply">
<path d="M65.0714 179.759C62.5374 181.917 52.5876 187.342 50.4369 188.38C48.8294 189.154 47.1104 189.727 45.2945 190.077C40.2154 191.048 34.8014 190.178 29.6032 187.811C23.7613 183.964 16.4683 176.477 10.3547 169.586C9.35008 167.848 8.43473 166.029 7.61984 164.131C0.360254 147.193 3.10631 128.793 14.4962 120.923C16.1222 119.8 26.7344 113.667 29.994 112.577C35.8545 110.62 42.0908 111.197 47.9811 113.727C40.6061 111.84 38.2098 112.235 34.6489 112.432C32.5465 112.547 28.5911 114.453 33.8414 115.662C40.0033 117.083 45.142 122.077 45.142 122.077C45.142 122.077 58.6602 140.187 62.303 145.132C65.1309 148.968 66.0947 154.021 66.5412 157.043C67.3486 162.494 72.7998 161.281 73.0008 152.6C73.1459 146.367 70.1691 137.954 68.4798 133.701C69.4621 135.55 70.3477 137.489 71.1179 139.502C71.7356 141.109 72.2789 142.765 72.744 144.462C76.8371 159.431 73.2278 172.801 65.0677 179.759H65.0714Z" fill="#AFA5BE"/>
</g>
<path d="M41.1121 191.681C27.5716 191.681 13.3389 180.548 6.50724 164.607C1.45418 152.819 1.02625 140.015 5.36488 130.352C8.3156 123.777 13.2124 119.185 19.5231 117.079C21.9678 116.264 24.539 115.848 27.1586 115.848C34.7084 115.848 42.5894 119.282 49.3466 125.518C56.1113 131.762 61.2537 140.384 63.8248 149.798C66.9356 161.184 65.8193 172.369 60.7588 180.492C57.1718 186.244 51.7652 190.073 45.5289 191.268C44.1001 191.543 42.6154 191.681 41.1159 191.681H41.1121Z" fill="#390176"/>
<path d="M45.2945 190.077C31.4749 192.726 15.1473 181.697 7.61981 164.131C-0.677924 144.771 4.09607 123.505 19.9027 118.229C35.4154 113.049 53.555 125.634 61.0267 145.154C61.6444 146.761 62.1876 148.417 62.6527 150.114C68.1225 170.133 59.8248 187.29 45.2945 190.073V190.077Z" fill="#50C9C6"/>
<g style="mix-blend-mode:multiply">
<path d="M61.0304 145.154L7.61981 164.131C-0.677924 144.771 4.09607 123.505 19.9027 118.229C35.4154 113.049 53.555 125.634 61.0267 145.154H61.0304Z" fill="#AFA5BE"/>
</g>
<path d="M40.1224 187.711C28.1669 187.711 15.6868 177.861 9.77793 163.763C5.48395 153.515 5.20488 142.427 9.03374 134.099C11.657 128.391 15.9696 124.432 21.4989 122.65C23.5715 121.98 25.7446 121.641 27.9622 121.641C34.4963 121.641 41.3317 124.588 47.1996 129.935C53.0713 135.286 57.5699 142.691 59.8695 150.788C62.7011 160.752 61.8081 170.583 57.4211 177.761C54.3178 182.836 49.5996 186.23 44.1336 187.32C42.8312 187.58 41.4805 187.711 40.1186 187.711H40.1224Z" fill="#390176"/>
<path d="M60.2527 163.755C59.6946 175.354 53.3727 184.243 43.8992 186.129C31.7465 188.552 17.3836 178.781 10.8942 163.294C3.82813 146.431 8.20398 128.209 21.8711 123.8C29.8376 121.232 38.6079 124.038 45.7745 130.285C47.2182 131.543 48.595 132.942 49.8862 134.46C52.5801 137.63 54.9057 141.34 56.6806 145.444C57.4695 147.26 58.1504 149.158 58.7085 151.115C59.3485 153.37 59.7876 155.588 60.0369 157.746C60.2788 159.807 60.3458 161.817 60.2527 163.752V163.755Z" fill="#4A6896"/>
<g style="mix-blend-mode:multiply" opacity="0.6">
<path d="M56.6844 145.448C45.0192 153.281 24.7251 165.593 21.2534 159.011C16.3343 149.675 9.8226 150.378 10.898 163.294C3.83186 146.431 8.2077 128.209 21.8748 123.8C29.8413 121.232 38.6116 124.038 45.7782 130.285C47.2219 131.543 48.5987 132.942 49.8899 134.46C52.5839 137.63 54.9095 141.34 56.6844 145.444V145.448Z" fill="#AFA5BE"/>
</g>
<path d="M44.9819 178.981C40.3419 178.981 35.419 176.99 31.1176 173.374C26.8199 169.761 23.3185 164.663 21.2534 159.011C18.2431 150.758 18.4292 141.984 21.752 135.539C24.0255 131.126 27.5641 128.149 31.9809 126.932C33.3986 126.542 34.8758 126.344 36.3605 126.344C39.6795 126.344 43.1475 127.349 46.3884 129.243L46.4852 129.299L46.5707 129.373C52.7587 134.769 57.4843 142.374 59.8732 150.787C61.1308 155.212 61.663 159.595 61.462 163.815V163.915L61.436 164.012C59.6871 172.068 54.3178 177.731 47.4229 178.795C46.6266 178.918 45.8042 178.981 44.9782 178.981H44.9819Z" fill="#390176"/>
<path d="M60.2527 163.755C58.6304 171.223 53.7931 176.585 47.2368 177.597C37.7074 179.067 26.8906 170.929 22.3883 158.594C17.4878 145.165 21.525 131.066 32.3009 128.097C36.7884 126.858 41.4991 127.781 45.7745 130.285C51.5568 135.327 56.2899 142.609 58.7085 151.119C59.9625 155.532 60.4425 159.8 60.2527 163.755Z" fill="url(#paint2_linear_2_6562)"/>
<g style="mix-blend-mode:multiply" opacity="0.6">
<g style="mix-blend-mode:multiply">
<path d="M23.6013 157.385C19.9734 147.443 21.2459 137.139 26.5185 131.253C20.245 136.853 18.4999 147.934 22.3883 158.598C26.8906 170.933 37.7075 179.074 47.2369 177.601C50.608 177.08 53.5215 175.409 55.7802 172.894C53.7262 174.736 51.2443 175.96 48.4499 176.392C38.9205 177.861 28.1037 169.724 23.6013 157.389V157.385Z" fill="#AFA5BE"/>
</g>
</g>
<path d="M60.037 157.75C59.263 164.674 55.196 169.794 49.4583 170.68C41.9568 171.837 33.4396 165.43 29.8935 155.718C26.0349 145.143 29.2125 134.043 37.6963 131.703C41.7931 130.575 46.128 131.733 49.8899 134.464C53.7783 139.041 56.9002 144.734 58.7123 151.119C59.3523 153.374 59.7914 155.591 60.0407 157.75H60.037Z" fill="url(#paint3_linear_2_6562)"/>
<g opacity="0.4">
<path d="M54.4555 149.362C55.9253 155.621 53.1941 160.89 48.6619 161.589C44.1298 162.289 39.4005 158.553 37.3502 152.938C35.1176 146.824 36.9558 140.41 41.8601 139.055C47.0247 137.63 52.8443 142.497 54.4555 149.358V149.362Z" fill="url(#paint4_linear_2_6562)"/>
</g>
<g style="mix-blend-mode:screen" opacity="0.8">
<path style="mix-blend-mode:screen" d="M49.4545 140.216C48.9522 143.52 46.6154 145.534 44.2898 144.994C42.0684 144.477 40.4089 141.734 40.5056 138.631C40.6135 135.249 42.7419 132.506 45.3689 132.804C48.1373 133.117 50.0015 136.592 49.4508 140.216H49.4545Z" fill="url(#paint5_linear_2_6562)"/>
</g>
<g style="mix-blend-mode:screen" opacity="0.6">
<path style="mix-blend-mode:screen" d="M46.8424 166.743C46.5447 168.7 45.1605 169.894 43.7838 169.574C42.407 169.254 41.4842 167.643 41.5438 165.805C41.607 163.8 42.8684 162.177 44.4275 162.352C46.0684 162.538 47.1736 164.596 46.8461 166.743H46.8424Z" fill="url(#paint6_linear_2_6562)"/>
</g>
<g style="mix-blend-mode:multiply">
<path d="M71.7654 122.754C70.3626 122.754 69.1347 122.497 68.1002 121.987H68.0817L67.7951 121.827C66.0686 120.856 65.0268 119.204 64.7849 117.046C64.3012 112.741 67.1812 107.07 72.1263 102.597C75.5385 99.5091 80.0371 97.8086 84.7962 97.8086C89.5553 97.8086 93.4958 99.3677 95.6465 101.876C96.3684 102.717 96.8632 103.591 97.12 104.465C97.5628 105.972 97.2949 107.446 96.3423 108.715C94.5377 111.126 90.4372 112.506 85.0864 112.506C82.4445 112.506 81.0232 114.661 79.3822 117.158C77.6966 119.718 75.7841 122.62 72.1784 122.743C72.0408 122.746 71.9068 122.75 71.7728 122.75L71.7654 122.754Z" fill="#AFA5BE"/>
</g>
<path d="M71.5273 121.742C70.1728 121.742 68.9821 121.493 67.9849 121.001H67.9663L67.6872 120.845C66.0165 119.907 65.0119 118.311 64.7774 116.224C64.3123 112.064 67.0956 106.586 71.8696 102.263C75.1663 99.2784 79.5161 97.6375 84.1115 97.6375C88.5022 97.6375 92.5209 99.1444 94.5972 101.567C95.2967 102.382 95.773 103.223 96.0186 104.071C96.4465 105.53 96.186 106.951 95.2669 108.179C93.5255 110.508 89.559 111.844 84.3906 111.844C81.838 111.844 80.465 113.928 78.8762 116.335C77.2464 118.81 75.4007 121.612 71.9142 121.734C71.7803 121.738 71.6501 121.742 71.5235 121.742H71.5273Z" fill="#390176"/>
<path d="M84.3943 110.631C78.1245 110.631 77.7338 120.32 71.877 120.521C70.3998 120.573 69.2054 120.306 68.2826 119.788C63.9774 117.37 65.7002 109.485 72.6845 103.163C79.7469 96.7742 90.2288 98.3333 93.6781 102.356C94.2734 103.051 94.6642 103.74 94.8577 104.41C95.8586 107.811 91.8176 110.635 84.3943 110.635V110.631Z" fill="#7C98CE"/>
<g style="mix-blend-mode:multiply">
<path d="M84.3943 110.631C78.1245 110.631 77.7338 120.32 71.877 120.521C70.3998 120.573 69.2053 120.305 68.2825 119.788C71.877 120.521 71.6873 118.274 75.0101 113.243C78.3366 108.212 83.5125 106.649 87.4827 106.925C91.4567 107.2 93.6744 102.355 93.6744 102.355L94.8539 104.409C95.8549 107.81 91.8139 110.635 84.3906 110.635L84.3943 110.631Z" fill="#AFA5BE"/>
</g>
<path d="M139.174 52.5656C140.692 53.4363 153.537 60.8001 156.905 59.1107C159.546 57.7972 159.997 48.2344 160.056 47.1069C160.075 48.1079 160.324 55.8028 162.099 57.2726C164.562 59.3042 173.511 55.8363 174.315 55.5312C173.53 56.0112 164.533 61.4438 164.637 63.695C164.763 66.2736 173.857 71.1332 174.438 71.442C173.753 71.3192 163.014 69.2764 162.386 69.5443L159.085 63.3526C158.784 62.7945 158.103 62.5861 157.552 62.8801C157.005 63.174 156.789 63.8624 157.079 64.4094L160.25 70.3704C158.613 71.7769 151.346 83.3453 150.449 84.7891C151.279 83.2709 158.415 70.3183 156.335 68.3536C155.591 67.6652 143.688 72.2606 142.56 72.7034C143.539 72.2234 153.891 67.1927 153.976 64.4429C154.028 62.6308 140.625 53.5479 139.167 52.5693L139.174 52.5656Z" fill="#FFB600"/>
<path d="M178.103 105.221C176.607 105.221 175.245 104.402 174.542 103.085L154.553 65.4922C154.047 64.5434 153.946 63.4494 154.263 62.415C154.579 61.3918 155.275 60.5508 156.216 60.0485C156.793 59.7396 157.448 59.5759 158.103 59.5759C159.584 59.5759 160.946 60.3908 161.649 61.7006L164.707 67.4383L181.638 99.2971C182.512 100.96 182.148 102.977 180.748 104.213C180.51 104.421 180.295 104.559 180.179 104.633L180.101 104.681L180.004 104.737C179.405 105.057 178.754 105.221 178.099 105.221H178.103Z" fill="#390176"/>
<path d="M180.332 100L163.401 68.1412L160.347 62.4072C159.9 61.5812 159.044 61.064 158.11 61.064C157.697 61.064 157.284 61.1681 156.923 61.3616C156.328 61.6779 155.893 62.2063 155.692 62.8537C155.491 63.5049 155.554 64.1933 155.874 64.7886L175.863 102.381C176.306 103.211 177.165 103.728 178.11 103.728C178.523 103.728 178.933 103.624 179.294 103.435L179.353 103.401L179.398 103.371C179.491 103.312 179.629 103.226 179.774 103.096C180.655 102.318 180.886 101.046 180.332 99.9963V100Z" fill="#615A3B"/>
<g style="mix-blend-mode:multiply" opacity="0.6">
<path d="M177.348 101.269L157.359 63.6762C157.039 63.0772 156.975 62.3925 157.176 61.7414C157.24 61.533 157.333 61.3395 157.44 61.1609C157.258 61.2093 157.083 61.2762 156.92 61.3655C156.324 61.6818 155.889 62.2102 155.688 62.8576C155.487 63.5088 155.55 64.1972 155.87 64.7925L175.859 102.385C176.302 103.215 177.162 103.732 178.107 103.732C178.52 103.732 178.929 103.628 179.29 103.438L179.349 103.405L179.394 103.375C179.487 103.316 179.625 103.23 179.77 103.1C179.96 102.932 180.116 102.735 180.242 102.527C180.03 102.583 179.811 102.616 179.591 102.616C178.646 102.616 177.787 102.099 177.344 101.269H177.348Z" fill="#AFA5BE"/>
</g>
<path d="M164.685 53.1533C164.979 51.2295 165.481 49.343 166.177 47.5495C166.877 45.7709 167.788 44.063 169.039 42.716L168.015 41.8713C166.787 43.542 166.054 45.4397 165.545 47.3449C165.046 49.25 164.76 51.2035 164.685 53.1496V53.1533Z" fill="#FFCE00"/>
<path d="M167.587 64.3088C168.659 62.6716 169.965 61.1869 171.45 59.9702C172.927 58.7609 174.661 57.8381 176.451 57.6706L176.242 56.3608C174.129 56.8036 172.395 58.0539 171 59.4753C169.612 60.9153 168.469 62.5525 167.591 64.3088H167.587Z" fill="#FF8700"/>
<path d="M153.039 58.3963C151.479 56.2382 149.604 54.2995 147.517 52.6065C145.418 50.9209 143.055 49.5032 140.428 48.6362L140.067 49.9162C142.56 50.5116 144.945 51.6688 147.118 53.1386C149.295 54.6121 151.308 56.3796 153.039 58.3926V58.3963Z" fill="#FF8700"/>
<path d="M151.182 67.4642C148.692 66.7647 146.069 66.5228 143.453 66.6344C140.838 66.7572 138.211 67.3117 135.744 68.3386L136.309 69.5405C138.531 68.387 140.983 67.6317 143.513 67.2968C146.039 66.9693 148.644 66.9842 151.182 67.4642Z" fill="#FF8700"/>
<path d="M152.849 75.386C151.163 75.5237 149.526 76.0892 148.004 76.8669C146.475 77.6595 145.072 78.7088 143.837 79.9293L144.83 80.8111C145.82 79.5349 146.999 78.3814 148.346 77.44C149.697 76.506 151.204 75.7395 152.852 75.386H152.849Z" fill="#FF8700"/>
<path d="M155.092 47.6763C154.508 45.4698 154.036 43.241 153.69 41.0047C153.522 39.8809 153.388 38.7572 153.332 37.6409C153.273 36.5321 153.277 35.4083 153.47 34.3776L152.149 34.1953C152.045 35.4269 152.164 36.5953 152.335 37.7451C152.514 38.8949 152.763 40.0223 153.039 41.1349C153.608 43.3563 154.296 45.5368 155.092 47.6763Z" fill="#FF8700"/>
<path d="M165.612 68.8337C167.915 68.8671 170.207 69.243 172.358 69.9499C174.501 70.6681 176.518 71.7993 177.924 73.4365L178.884 72.5211C177.091 70.8095 174.814 69.842 172.536 69.3136C170.248 68.7964 167.907 68.6476 165.608 68.8337H165.612Z" fill="#FFCE00"/>
<path d="M154.356 63.851C152.294 62.8166 150.11 62.0055 147.866 61.3729C145.623 60.7515 143.301 60.3385 140.919 60.2715L140.949 61.6073C143.185 61.4473 145.47 61.6296 147.725 62.0241C149.969 62.4222 152.201 63.0213 154.356 63.851Z" fill="#FFFF91"/>
<path d="M158.337 59.5534C157.928 57.131 157.816 54.6641 158.047 52.2492C158.281 49.8529 158.91 47.4454 160.283 45.6072L159.174 44.863C157.798 47.1403 157.411 49.7338 157.373 52.2157C157.366 54.7087 157.705 57.1757 158.33 59.5534H158.337Z" fill="#FF8700"/>
<path d="M162.583 63.1329C163.204 61.3618 164.157 59.7208 165.329 58.2994C166.505 56.8855 167.948 55.7245 169.556 54.9654L168.92 53.8008C167.227 54.8538 165.835 56.2938 164.793 57.9087C163.747 59.5199 162.985 61.2948 162.579 63.1329H162.583Z" fill="#FFFF91"/>
<path d="M155.662 71.643C154.717 71.3193 153.708 71.2002 152.707 71.1258C151.703 71.0513 150.698 71.0588 149.69 71.1072C147.68 71.2188 145.671 71.5165 143.695 71.9295L144.041 73.2132C145.909 72.5955 147.814 72.0932 149.764 71.7732C150.743 71.6132 151.718 71.4979 152.711 71.4607C153.701 71.4272 154.694 71.4346 155.669 71.6467L155.662 71.643Z" fill="#FFFF91"/>
<path d="M158.661 70.8763C158.594 72.9265 158.635 74.9879 158.802 77.0531C158.996 79.1145 159.241 81.1833 160.064 83.2299L161.262 82.6457C160.354 80.9601 159.855 78.9396 159.461 76.9563C159.074 74.9507 158.817 72.9191 158.661 70.8726V70.8763Z" fill="#FFFF91"/>
<path d="M173.314 65.1906C174.929 64.0631 176.793 63.3189 178.691 63.051C180.585 62.7831 182.501 63.1069 184.157 63.9255L184.674 62.7013C182.698 61.9868 180.525 61.8901 178.564 62.4036C176.592 62.9059 174.795 63.8845 173.314 65.1906Z" fill="#FFCE00"/>
<path d="M172.466 50.7612C173.228 49.2579 174.252 47.896 175.468 46.7984C176.685 45.7044 178.151 44.9193 179.681 44.7146L179.402 43.416C177.612 43.9109 176.12 45.0197 175 46.3332C173.872 47.6542 173.031 49.1686 172.469 50.7612H172.466Z" fill="#FFCE00"/>
<path d="M140.599 55.3299C138.635 54.5634 136.532 54.1169 134.397 53.9606C132.261 53.8118 130.062 54.0015 127.959 54.6862L128.436 55.9253C130.27 55.103 132.313 54.6974 134.389 54.6229C136.458 54.5597 138.568 54.7755 140.599 55.3299Z" fill="#FF8700"/>
<path d="M149.161 45.8566C148.246 44.0333 147.212 42.2696 145.991 40.6026C145.377 39.7765 144.707 38.9765 143.952 38.2398C143.178 37.5142 142.322 36.8221 141.195 36.4314L140.834 37.7114C141.675 37.8975 142.519 38.4072 143.297 38.9914C144.067 39.5979 144.793 40.2863 145.474 41.0305C146.832 42.5114 148.06 44.1449 149.158 45.8566H149.161Z" fill="#FFCE00"/>
<path d="M154.266 79.1816C153.18 81.1017 152.406 83.2003 151.956 85.3956C151.513 87.5873 151.446 89.9054 151.993 92.1678L153.269 91.792C152.577 89.8236 152.402 87.6468 152.614 85.4924C152.834 83.3379 153.381 81.1947 154.266 79.1816Z" fill="#FFCE00"/>
<path d="M171.383 75.4829C172.975 76.3015 174.456 77.3062 175.811 78.4225C177.173 79.5462 178.404 80.8113 179.379 82.2178L180.417 81.3918C179.175 80.0039 177.731 78.8541 176.205 77.8829C174.676 76.9192 173.061 76.1006 171.379 75.4866L171.383 75.4829Z" fill="#FFCE00"/>
<g style="mix-blend-mode:color-dodge">
<path d="M133.898 46.7572L135.844 48.893L135.193 51.7098L137.824 50.5154L140.298 52.0075L139.978 49.1349L142.162 47.2409L139.331 46.6567L138.199 44L136.778 46.5116L133.898 46.7572Z" fill="#FF8700"/>
</g>
<path d="M155.338 51.7688L153.693 51.073L153.333 49.3279L152.164 50.6749L150.393 50.4777L151.316 52.007L150.579 53.633L152.32 53.2237L153.638 54.4256L153.783 52.647L155.338 51.7688Z" fill="#FFFF91"/>
<path d="M163.014 42.6194L161.578 43.2147L160.272 42.3738L160.399 43.9254L159.197 44.904L160.707 45.265L161.266 46.7162L162.077 45.3878L163.632 45.3022L162.616 44.1226L163.014 42.6194Z" fill="#FFFF91"/>
<g style="mix-blend-mode:color-dodge">
<path d="M174.397 37.9458L172.291 38.3402L170.769 36.8369L170.505 38.9616L168.596 39.9439L170.538 40.8593L170.884 42.969L172.354 41.41L174.468 41.7337L173.433 39.8583L174.397 37.9458Z" fill="#FF8700"/>
</g>
<g style="mix-blend-mode:color-dodge">
<path d="M143.844 84.8709L144.581 86.5826L143.584 88.1677L145.448 87.9928L146.642 89.4254L147.052 87.6058L148.786 86.91L147.185 85.9574L147.055 84.0933L145.652 85.3286L143.844 84.8709Z" fill="#FF8700"/>
</g>
<g style="mix-blend-mode:color-dodge">
<path d="M161.567 85.0979L162.24 87.2672L160.838 89.0495L163.107 89.0793L164.369 90.9621L165.098 88.8151L167.279 88.1975L165.467 86.8393L165.552 84.5732L163.695 85.883L161.567 85.0979Z" fill="#FF8700"/>
</g>
<path d="M182.334 73.6482L182.3 74.4891L181.589 74.9394L182.378 75.2333L182.59 76.0482L183.108 75.3859L183.949 75.4417L183.48 74.7384L183.789 73.957L182.985 74.1877L182.334 73.6482Z" fill="#FF8700"/>
<g style="mix-blend-mode:color-dodge">
<path d="M153.102 28.2898L152.812 30.4256L150.884 31.3968L152.826 32.3307L153.154 34.4666L154.646 32.9038L156.774 33.2498L155.755 31.3521L156.741 29.4396L154.62 29.8191L153.102 28.2898Z" fill="#FF8700"/>
</g>
<g style="mix-blend-mode:color-dodge">
<path d="M167.528 63.2894L167.859 65.0494L166.601 66.3183L168.373 66.5452L169.195 68.1341L169.961 66.5155L171.721 66.2252L170.415 65.0011L170.687 63.2373L169.124 64.0931L167.528 63.2894Z" fill="#FF8700"/>
</g>
<g style="mix-blend-mode:color-dodge">
<path d="M180.131 50.3034L180.447 51.5537L179.595 52.5211L180.875 52.6104L181.53 53.7155L182.014 52.5211L183.271 52.242L182.282 51.416L182.404 50.136L181.31 50.8169L180.131 50.3034Z" fill="#FF8700"/>
</g>
<g style="mix-blend-mode:color-dodge">
<path d="M125.615 62.2028L126.687 63.7284L126.039 65.481L127.822 64.934L129.291 66.0949L129.317 64.2233L130.877 63.1889L129.109 62.5824L128.607 60.7852L127.483 62.2773L125.615 62.2028Z" fill="#FF8700"/>
</g>
<path d="M160.752 61.213L158.453 62.2176L156.32 60.8818L156.566 63.3823L154.642 64.9972L157.087 65.5367L158.032 67.8661L159.308 65.7042L161.809 65.5293L160.149 63.6465L160.752 61.213Z" fill="#FFFF91"/>
<g style="mix-blend-mode:color-dodge">
<path d="M139.063 77.3955L141.34 76.8485L143.074 78.415L143.26 76.082L145.288 74.9099L143.126 74.0206L142.642 71.7322L141.124 73.5071L138.798 73.2615L140.019 75.2559L139.063 77.3955Z" fill="#FF8700"/>
</g>
<g style="mix-blend-mode:color-dodge">
<g style="mix-blend-mode:color-dodge">
<path d="M188.674 62.0427L187.342 63.6502L185.269 63.4753L186.386 65.2353L185.578 67.1553L187.595 66.6306L189.18 67.9963L189.299 65.9125L191.089 64.8372L189.147 64.0744L188.674 62.0427Z" fill="#FF8700"/>
</g>
</g>
<path d="M136.019 156.905C132.205 164.429 126.94 171.085 120.596 176.518C124.406 163.778 112.785 149.18 112.785 149.18L126.11 135.655C136.826 147.361 136.067 156.749 136.023 156.905H136.019Z" fill="#390176"/>
<path d="M141.559 169.709C140.153 169.709 138.743 169.608 137.37 169.415C132.078 168.663 127.84 166.527 125.113 163.242C122.984 160.678 121.838 157.4 122.047 154.475C122.24 151.74 123.569 149.977 125.436 149.977C125.578 149.977 125.727 149.988 125.868 150.01C127.345 150.241 128.8 150.75 130.341 151.29C132.945 152.202 135.9 153.24 139.87 153.24C142.523 153.24 145.303 152.79 148.361 151.859C156.48 149.396 158.672 145.035 161.206 139.989C162.393 137.627 163.621 135.182 165.515 132.704C168.134 129.281 172.365 126.977 176.042 126.977C178.356 126.977 180.22 127.9 181.299 129.578C183.45 132.935 181.82 138.174 180.075 141.98C176.577 149.601 170.925 156.563 164.153 161.586C156.99 166.899 149.176 169.712 141.559 169.712V169.709Z" fill="#390176"/>
<path d="M125.682 151.204C121.585 150.568 120.915 165.85 137.541 168.213C154.166 170.576 171.491 157.787 178.977 141.47C186.464 125.154 172.443 125.634 166.479 133.433C160.514 141.232 161.135 149.247 148.715 153.013C136.294 156.778 130.914 152.016 125.682 151.201V151.204Z" fill="white"/>
<g style="mix-blend-mode:multiply">
<path d="M166.479 133.433C162.389 138.78 161.396 144.228 157.173 148.339C161.999 149.72 160.019 160.28 144.305 161.712C128.592 163.141 128.93 155.841 133.753 153.645C130.571 152.816 128.108 151.584 125.682 151.208C121.585 150.572 120.915 165.854 137.541 168.217C154.166 170.579 171.491 157.791 178.977 141.474C186.464 125.161 172.443 125.638 166.479 133.437V133.433Z" fill="#AFA5BE"/>
</g>
<path d="M178.166 152.287C176.086 152.287 173.507 151.651 170.281 150.341C167.234 149.106 164.127 147.171 161.76 145.035C158.877 142.434 157.266 139.725 157.102 137.195C156.89 133.932 158.516 131.911 160.142 130.84C159.241 129.504 158.08 127.416 157.485 124.86C157.396 124.484 157.318 124.094 157.258 123.707C156.67 119.852 157.437 117.321 158.248 114.639C158.713 113.109 159.189 111.528 159.476 109.526C159.673 108.157 159.546 106.017 159.427 103.948C159.23 100.555 159.044 97.351 160.023 95.6096C162.099 91.9185 167.171 88.644 170.869 86.2514C172.235 85.3696 173.418 84.6068 174.155 84.0151C175.357 83.0514 176.607 82.564 177.872 82.564C180.172 82.564 182.218 84.1975 183.349 86.9287C184.421 89.5147 184.562 93.0608 182.464 95.1594C181.53 96.0934 179.662 96.7594 176.696 97.7418C175.413 98.1697 173.426 98.8283 172.469 99.3343C173.199 100.157 174.348 100.607 176.094 100.774C176.618 100.826 177.202 100.849 177.88 100.849C178.151 100.849 178.43 100.845 178.709 100.838C179.614 100.815 180.548 100.759 181.534 100.7C182.877 100.622 184.261 100.536 185.623 100.536C188.6 100.536 192.35 100.886 194.922 103.61C200.734 109.764 206.698 118.196 201.169 128.827C198.304 134.334 194.423 136.269 191.305 137.82C188.436 139.249 186.91 140.109 186.375 142.479C185.281 147.301 184.153 152.287 178.166 152.287Z" fill="#390176"/>
<path d="M199.848 128.142C194.81 137.828 186.434 135.491 184.923 142.151C183.413 148.812 182.218 153.582 170.84 148.961C165.318 146.721 158.888 141.731 158.583 137.094C158.281 132.458 162.43 131.398 162.43 131.398C162.348 131.301 159.859 128.495 158.933 124.518C158.851 124.179 158.784 123.833 158.728 123.476C157.868 117.865 160.134 115.401 160.949 109.734C161.474 106.084 160.012 98.6719 161.321 96.3388C163.948 91.669 172.224 87.4681 175.089 85.176C180.67 80.7108 184.763 90.7574 181.415 94.1063C179.64 95.8812 169.716 97.563 170.732 99.4272C171.762 101.314 173.649 102.036 175.952 102.255C176.83 102.341 177.768 102.348 178.743 102.326C184.042 102.188 190.393 100.983 193.835 104.633C199.573 110.709 204.883 118.456 199.844 128.142H199.848Z" fill="white"/>
<g style="mix-blend-mode:multiply" opacity="0.6">
<path d="M201.601 123.163C202.977 115.758 198.553 109.63 193.835 104.633C190.393 100.986 184.038 102.188 178.743 102.326L167.122 108.514C167.122 108.514 166.084 114.553 167.342 118.947C168.603 123.342 173.463 121.053 173.463 121.053C174.33 127.45 179.989 126.646 179.989 126.646C179.963 128.272 181.158 131.799 183.655 132.339C186.151 132.879 192.149 132.023 189.444 135.159C186.739 138.296 178.698 139.829 178.698 139.829C183.64 146.854 172.923 145.69 167.759 143C162.594 140.313 162.404 134.851 163.963 133.277L163.762 132.629C165.813 134.289 169.809 136.514 172.622 131.71C174.646 128.253 174.311 124.826 174.311 124.826C174.311 124.826 172.265 132.134 167.498 131.252C164.715 130.739 160.879 127.007 161.236 120.358C161.4 117.31 161.909 108 160.946 104.372C161.061 106.382 161.15 108.331 160.953 109.73C160.142 115.397 157.876 117.861 158.732 123.472C158.97 123.74 158.858 124.172 158.932 124.51C159.037 124.964 159.163 125.396 159.301 125.812C159.331 125.902 159.36 125.987 159.39 126.077C159.435 126.203 159.48 126.326 159.528 126.449C159.561 126.534 159.591 126.62 159.625 126.702C159.677 126.828 159.729 126.955 159.781 127.078C159.811 127.148 159.84 127.223 159.874 127.293C159.956 127.479 160.041 127.658 160.127 127.833C160.131 127.844 160.138 127.852 160.142 127.863L160.149 127.874C160.235 128.049 160.32 128.216 160.41 128.38C160.421 128.399 160.428 128.417 160.44 128.436L160.447 128.447C160.529 128.599 160.611 128.748 160.693 128.893L160.704 128.912C160.704 128.912 160.722 128.945 160.733 128.964L160.741 128.975C160.819 129.109 160.893 129.236 160.972 129.362C160.979 129.377 160.99 129.392 160.998 129.403L161.013 129.425C161.031 129.455 161.046 129.481 161.065 129.507C161.124 129.6 161.18 129.69 161.236 129.775C161.277 129.835 161.314 129.894 161.351 129.95C161.392 130.01 161.429 130.065 161.466 130.121C161.504 130.177 161.541 130.229 161.578 130.281C161.615 130.337 161.653 130.386 161.69 130.438C161.716 130.475 161.742 130.512 161.768 130.545L161.775 130.557C161.794 130.583 161.813 130.605 161.827 130.627C161.865 130.676 161.898 130.72 161.932 130.765C161.946 130.784 161.961 130.802 161.973 130.821L161.987 130.843C162.01 130.869 162.028 130.895 162.047 130.921C162.066 130.944 162.08 130.966 162.095 130.985C162.114 131.007 162.133 131.033 162.151 131.052L162.166 131.07C162.188 131.096 162.207 131.122 162.226 131.145L162.237 131.159C162.255 131.182 162.274 131.204 162.293 131.226L162.3 131.234C162.374 131.323 162.423 131.375 162.43 131.386C162.43 131.386 161.117 131.725 160.023 132.841C159.171 133.712 158.453 135.055 158.583 137.083C158.631 137.809 158.828 138.546 159.148 139.275C159.826 140.819 161.053 142.348 162.579 143.751C164.797 145.794 167.636 147.569 170.319 148.73C170.494 148.804 170.665 148.879 170.84 148.949C178.445 152.038 181.5 150.925 183.141 147.863C183.956 146.345 184.421 144.347 184.923 142.136C185.292 140.51 186.073 139.42 187.111 138.56C189.132 136.89 192.131 136.09 195.03 133.913C196.749 132.622 198.43 130.851 199.844 128.127C200.737 126.408 201.303 124.748 201.601 123.148V123.163Z" fill="#AFA5BE"/>
</g>
<path d="M186.319 130.278C184.447 130.482 182.828 129.768 181.876 128.32C180.663 126.478 180.719 123.703 182.01 121.411L182.062 121.318L182.516 120.759C186.133 116.339 187.487 114.683 193.31 113.626C193.776 113.541 194.241 113.474 194.691 113.425C196.068 113.277 197.117 113.317 197.958 113.355C198.505 113.377 198.937 113.396 199.301 113.355C199.58 113.325 199.796 113.262 200.008 113.15L201.582 112.324L201.705 113.444C205.188 115.345 205.861 117.619 205.791 119.23C205.664 122.207 202.829 125.12 198.397 126.836C193.891 128.577 192.295 128.942 189.876 129.489C189.124 129.66 188.276 129.85 187.23 130.11C186.922 130.188 186.613 130.244 186.319 130.274V130.278Z" fill="#390176"/>
<path d="M197.958 125.708C192.112 127.967 191.286 127.855 186.936 128.938C182.587 130.021 181.083 125.515 183.063 122.006C183.335 121.675 183.591 121.362 183.837 121.061C187.104 117.076 188.343 115.762 193.526 114.821C196.127 114.348 197.683 114.605 198.896 114.59C199.513 114.583 200.038 114.504 200.57 114.225C207.647 117.69 204.462 123.193 197.958 125.708Z" fill="white"/>
<g style="mix-blend-mode:multiply" opacity="0.6">
<path d="M197.958 125.708C192.112 127.967 191.286 127.855 186.936 128.938C182.587 130.021 181.083 125.515 183.063 122.006C183.335 121.675 183.591 121.362 183.837 121.061L187.096 119.174C183.74 123.803 184.916 127.126 192.302 124.09C194.747 123.085 198.989 121.731 200.246 120.584C202.345 118.679 201.511 116.882 199.513 115.896C198.81 115.55 198.676 115.092 198.896 114.59C199.513 114.583 200.038 114.504 200.57 114.225C207.647 117.69 204.462 123.193 197.958 125.708Z" fill="#AFA5BE"/>
</g>
<path d="M171.677 120.305C169.928 120.495 167.554 119.777 166.166 115.267C165.221 112.19 165.541 108.216 167.022 104.64C168.722 100.54 171.777 97.3322 175.625 95.6094C178.181 94.4633 182.103 93.0047 186.267 92.5507C190.855 92.0521 194.471 92.9712 196.73 95.2149C198.204 96.6773 198.925 98.3703 198.773 99.9852C198.672 101.016 198.166 102.504 196.313 103.743L196.068 103.907H196.053C194.572 104.822 192.54 105.422 190.014 105.697C189.802 105.719 189.582 105.742 189.359 105.76C189.24 105.771 189.121 105.782 189.002 105.794C183.829 106.355 182.021 109.451 180.101 112.733C179.204 114.263 178.281 115.848 177.005 117.135C176.99 117.154 176.972 117.172 176.953 117.187C175.022 119.111 173.295 120.13 171.677 120.305Z" fill="#390176"/>
<path d="M195.64 102.735C194.289 103.639 192.205 104.306 189.258 104.555C180.529 105.288 179.993 112.421 176.135 116.298C176.127 116.309 176.116 116.317 176.105 116.328C172.216 120.198 168.998 120.332 167.331 114.91C166.627 112.622 166.68 109.656 167.569 106.724C168.786 102.706 171.573 98.7539 176.127 96.7148C183.115 93.5855 191.774 91.9966 195.885 96.0748C196.142 96.3278 196.373 96.592 196.57 96.8599C198.099 98.8767 197.995 101.165 195.647 102.735H195.64Z" fill="white"/>
<g style="mix-blend-mode:multiply" opacity="0.6">
<path d="M189.255 104.555C190.717 104.432 195.617 102.973 196.67 102.665C194.04 100.644 186.278 100.838 182.728 102.121C179.178 103.405 175.688 106.527 173.842 108.897C170.862 112.734 168.142 111.078 167.561 106.72C168.157 104.335 169.135 101.783 170.854 99.632C170.814 99.5651 170.769 99.4981 170.732 99.4237C170.356 98.7353 171.476 98.0692 173.121 97.4181C174.609 96.2906 176.454 95.4162 178.754 94.9548C179.666 94.7725 180.451 94.5641 181.121 94.3408C181.228 94.2627 181.329 94.1846 181.407 94.1064C183.108 92.4059 182.888 88.9827 181.534 86.605H181.53C181.53 86.605 182.769 89.6599 177.995 91.5092C173.221 93.3622 169.228 94.8878 167.32 98.4041C165.411 101.92 165.05 107.305 165.973 110.196C166.895 113.083 167.32 114.914 167.32 114.914C168.987 120.335 172.201 120.201 176.094 116.332C176.105 116.321 176.116 116.313 176.123 116.302C179.986 112.425 180.518 105.292 189.247 104.559L189.255 104.555Z" fill="#AFA5BE"/>
</g>
<path d="M179.733 125.392C178.319 125.544 176.942 125.05 175.855 124C174.363 122.557 173.571 120.197 173.734 117.678L173.694 117.317L173.742 117.247C173.798 115.773 174.322 110.984 178.668 107.49C182.293 104.573 186.516 102.888 191.58 102.337C192.443 102.244 193.351 102.181 194.27 102.151C198.691 102.013 202.133 105.02 203.249 108.06C204.239 110.757 203.521 113.414 201.322 115.167C200.804 115.576 200.213 115.814 199.51 115.892C198.951 115.952 198.393 115.911 197.742 115.863C196.901 115.799 195.945 115.732 194.71 115.863C194.39 115.896 194.062 115.944 193.738 116.004C188.793 116.901 187.859 118.043 184.388 122.289L183.997 122.765C182.728 124.313 181.251 125.217 179.729 125.384L179.733 125.392Z" fill="#390176"/>
<path d="M200.566 114.225C199.171 115.338 197.448 114.106 193.523 114.821C187.949 115.833 186.936 117.276 183.059 122.006C179.182 126.735 174.531 123.182 174.944 117.652C174.944 117.652 174.944 117.649 174.944 117.645C174.944 117.645 174.802 113.556 177.794 110.021H177.798C178.259 109.47 178.799 108.938 179.424 108.436C183.275 105.336 187.986 103.561 194.304 103.364C197.229 103.275 199.792 104.796 201.232 106.832C202.903 109.187 203.071 112.227 200.563 114.225H200.566Z" fill="white"/>
<g style="mix-blend-mode:multiply" opacity="0.6">
<path d="M200.566 114.226C199.171 115.338 197.448 114.106 193.523 114.821C187.949 115.833 186.936 117.277 183.059 122.006C179.182 126.735 174.531 123.182 174.944 117.653C174.944 117.653 174.944 117.649 174.944 117.645C174.944 117.645 174.802 113.556 177.794 110.021H177.798C177.225 114.36 179.904 117.693 184.242 115.003C188.577 112.313 196.79 112.216 198.896 111.487C201.002 110.758 201.054 108.432 201.232 106.832C202.903 109.187 203.071 112.227 200.563 114.226H200.566Z" fill="#AFA5BE"/>
</g>
<path d="M161.82 130.866C162.092 131.13 162.412 131.405 162.728 131.662C163.044 131.919 163.375 132.164 163.71 132.395C164.384 132.856 165.091 133.269 165.835 133.582C166.575 133.895 167.357 134.122 168.142 134.159C168.927 134.2 169.712 134.036 170.397 133.645C171.085 133.258 171.654 132.659 172.116 131.982C172.57 131.297 172.927 130.538 173.21 129.753C173.775 128.175 174.088 126.505 174.304 124.83C174.188 126.516 173.976 128.209 173.496 129.85C173.258 130.669 172.938 131.472 172.499 132.228C172.053 132.972 171.476 133.671 170.709 134.166C169.95 134.665 169.031 134.91 168.127 134.918C167.219 134.925 166.333 134.724 165.504 134.43C164.67 134.133 163.885 133.735 163.133 133.288C162.758 133.061 162.393 132.823 162.04 132.57C161.679 132.313 161.344 132.056 160.99 131.755L161.816 130.869L161.82 130.866Z" fill="#390176"/>
<path d="M187.815 139.591C187.521 139.669 187.253 139.725 186.974 139.777C186.698 139.833 186.423 139.878 186.144 139.923C185.869 139.967 185.589 139.997 185.314 140.034L184.484 140.116C183.375 140.205 182.263 140.213 181.158 140.142C180.882 140.12 180.607 140.112 180.332 140.075L179.509 139.971C179.234 139.937 178.966 139.874 178.695 139.826L178.289 139.751C178.155 139.725 178.021 139.684 177.887 139.655L177.087 139.45L176.306 139.189L175.915 139.059L175.535 138.899L174.78 138.579L175.558 138.829L175.945 138.951L176.343 139.044L177.135 139.23L177.939 139.357C178.073 139.376 178.203 139.402 178.341 139.416L178.747 139.454C179.015 139.476 179.282 139.509 179.554 139.521L180.362 139.547C180.629 139.558 180.901 139.539 181.169 139.536C182.244 139.506 183.312 139.398 184.369 139.212L185.154 139.059C185.415 139 185.675 138.944 185.932 138.877C186.189 138.81 186.445 138.743 186.698 138.669C186.948 138.598 187.208 138.512 187.435 138.43L187.807 139.584L187.815 139.591Z" fill="#390176"/>
<g style="mix-blend-mode:multiply">
<path d="M116.302 79.699C112.622 90.1065 94.3218 88.6777 81.1757 83.0442C66.3291 76.6813 60.9151 69.0571 66.05 65.7603C70.0165 63.2114 77.172 62.6459 89.3283 65.8756C101.485 69.1054 116.302 79.699 116.302 79.699Z" fill="#AFA5BE"/>
</g>
<path d="M106.054 85.8197C101.924 86.523 96.9637 86.2141 91.3115 84.9007C67.7802 79.4457 68.9858 69.2577 69.0491 68.8261L69.0937 68.5247L108.141 4.55029L116.476 79.2857L116.298 79.6653C116.205 79.8625 113.961 84.4727 106.054 85.816V85.8197Z" fill="#390176"/>
<path d="M114.951 79.0364L107.144 9.0415L70.5226 69.0419C70.5226 69.0419 69.1793 78.2439 91.6502 83.4532C110.802 87.8923 114.951 79.0364 114.951 79.0364Z" fill="#55CEF8"/>
<path d="M99.7246 79.4085C96.279 80.8597 92.6362 81.976 88.8743 82.7537C81.1757 80.6737 76.6919 78.1099 74.091 75.762C81.6594 75.4308 89.0715 73.8755 95.7953 71.1406C102.233 68.521 108.093 65.3173 112.971 61.2651L114.002 70.4931C109.875 74.1285 105.049 77.1648 99.7283 79.4048L99.7246 79.4085Z" fill="#FFDA3E"/>
<path d="M93.9274 63.0733C100.755 60.2974 106.936 56.8556 111.985 52.45L113.008 61.6333C108.696 65.6221 103.561 68.9338 97.8567 71.3375C90.6455 74.3776 82.5561 75.9553 74.3477 75.9962C70.0463 72.2752 70.5188 69.0417 70.5188 69.0417L71.3226 67.7282C79.2036 67.4826 86.9357 65.9161 93.9274 63.0733Z" fill="#FF3636"/>
<path d="M96.3609 62.9693C88.7218 66.1879 80.1003 67.7693 71.3896 67.6168L76.7775 58.7907C82.225 58.0688 87.5125 56.7032 92.4278 54.7013C99.4902 51.8287 105.857 48.2492 110.999 43.624L112.022 52.785C107.609 56.9897 102.292 60.4688 96.3609 62.9693Z" fill="#55CEF8"/>
<path d="M76.2826 59.598L82.4296 49.5291C85.1385 48.8333 87.7804 47.97 90.3218 46.9356C97.9051 43.8509 104.692 39.9477 110.017 34.8127L111.033 43.9216C106.411 48.6175 100.692 52.4873 94.2548 55.2036C88.6734 57.5552 82.5673 59.0325 76.2826 59.6018V59.598Z" fill="#FFDA3E"/>
<path d="M109.023 25.8824L110.035 34.9466C105.273 40.0518 99.2409 44.2416 92.3944 47.129C89.0604 48.5356 85.5367 49.6258 81.9013 50.3998L89.105 38.5969C96.8446 35.382 103.725 31.2964 109.027 25.8787L109.023 25.8824Z" fill="#FF3636"/>
<path d="M108.123 17.8192C104.696 21.4658 100.618 24.6435 96.0558 27.2072L107.144 9.0415L108.123 17.8192Z" fill="#FFDA3E"/>
<path d="M108.03 16.9858L109.038 26.0352C104.197 31.3859 97.9832 35.7767 90.8911 38.7646C90.0725 39.1107 89.2427 39.4344 88.4055 39.7395L97.0605 25.5589C101.191 23.1217 104.901 20.2975 108.026 16.9858H108.03Z" fill="#55CEF8"/>
<path opacity="0.51" d="M83.6427 81.1015L100.51 26.7383L73.5031 75.2112C75.4194 77.12 78.545 79.2149 83.639 81.1015H83.6427Z" fill="white"/>
<g style="mix-blend-mode:multiply">
<path d="M88.7181 82.7129C89.6483 82.9659 90.6195 83.2115 91.6465 83.4496C110.798 87.8887 114.947 79.0328 114.947 79.0328L109.805 32.9153C107.416 47.5126 98.5786 68.5881 88.7181 82.7091V82.7129Z" fill="#AFA5BE"/>
</g>
<defs>
<radialGradient id="paint0_radial_2_6562" cx="0" cy="0" r="1" gradientUnits="userSpaceOnUse" gradientTransform="translate(99.9777 88.1973) scale(86.5048 86.5048)">
<stop stop-color="#56BEF9"/>
<stop offset="1" stop-color="#3A89F9"/>
</radialGradient>
<radialGradient id="paint1_radial_2_6562" cx="0" cy="0" r="1" gradientUnits="userSpaceOnUse" gradientTransform="translate(124.558 82.6976) scale(117.445)">
<stop stop-color="#5577E2"/>
<stop offset="1" stop-color="#3F3EE2"/>
</radialGradient>
<linearGradient id="paint2_linear_2_6562" x1="20.3268" y1="152.663" x2="60.2936" y2="152.663" gradientUnits="userSpaceOnUse">
<stop stop-color="#30A1E1"/>
<stop offset="1" stop-color="#9ACDE1"/>
</linearGradient>
<linearGradient id="paint3_linear_2_6562" x1="45.142" y1="127.011" x2="43.1624" y2="177.169" gradientUnits="userSpaceOnUse">
<stop stop-color="#82CDE1"/>
<stop offset="1" stop-color="#B8CDE1"/>
</linearGradient>
<linearGradient id="paint4_linear_2_6562" x1="46.1801" y1="136.343" x2="45.0377" y2="165.34" gradientUnits="userSpaceOnUse">
<stop stop-color="#84CDE2"/>
<stop offset="0.31" stop-color="#6AC6DD"/>
<stop offset="0.98" stop-color="#29B7D2"/>
<stop offset="1" stop-color="#28B7D2"/>
</linearGradient>
<linearGradient id="paint5_linear_2_6562" x1="44.2935" y1="145.351" x2="45.6108" y2="133.801" gradientUnits="userSpaceOnUse">
<stop stop-color="white" stop-opacity="0"/>
<stop offset="0.22" stop-color="white" stop-opacity="0.24"/>
<stop offset="0.6" stop-color="white" stop-opacity="0.64"/>
<stop offset="0.87" stop-color="white" stop-opacity="0.9"/>
<stop offset="1" stop-color="white"/>
</linearGradient>
<linearGradient id="paint6_linear_2_6562" x1="44.5466" y1="171.178" x2="44.0517" y2="163.26" gradientUnits="userSpaceOnUse">
<stop stop-color="white"/>
<stop offset="0.13" stop-color="white" stop-opacity="0.9"/>
<stop offset="0.4" stop-color="white" stop-opacity="0.64"/>
<stop offset="0.78" stop-color="white" stop-opacity="0.24"/>
<stop offset="1" stop-color="white" stop-opacity="0"/>
</linearGradient>
</defs>
</svg>
