<svg width="390" height="105" viewBox="0 0 390 105" fill="none" xmlns="http://www.w3.org/2000/svg">
<path d="M104.949 40.5645C104.949 29.233 113.245 21.0771 124.643 21.0771C136.041 21.0771 144.338 29.233 144.338 40.5645C144.338 51.896 136.041 60.0519 124.643 60.0519C113.317 60.0519 104.949 51.896 104.949 40.5645ZM136.114 40.5645C136.114 33.4913 131.569 28.1503 124.643 28.1503C117.718 28.1503 113.245 33.4913 113.245 40.5645C113.245 47.5655 117.718 52.9787 124.643 52.9787C131.569 52.9065 136.114 47.5655 136.114 40.5645Z" fill="white"/>
<path d="M147.439 54.0563L151.768 47.9214C154.437 50.6641 158.549 52.9737 163.743 52.9737C168.144 52.9737 170.308 50.9528 170.308 48.7875C170.308 42.1474 148.594 46.6944 148.594 32.4759C148.594 26.1966 154.004 21 162.877 21C168.865 21 173.843 22.8044 177.594 26.2688L173.121 32.115C170.091 29.3002 165.979 28.001 162.156 28.001C158.693 28.001 156.818 29.5167 156.818 31.7541C156.818 37.7447 178.46 33.7029 178.46 47.7771C178.46 54.7059 173.554 59.9025 163.382 59.9025C156.168 60.0469 150.974 57.5929 147.439 54.0563Z" fill="white"/>
<path d="M216.694 59.3962V32.98L206.089 59.3962H202.554L191.95 32.98V59.3962H183.942V21.6484H195.196L204.358 44.4559L213.52 21.6484H224.846V59.324H216.694V59.3962Z" fill="white"/>
<path d="M230.401 40.5606C230.401 29.2291 238.697 21.0732 250.095 21.0732C261.493 21.0732 269.79 29.2291 269.79 40.5606C269.79 51.8921 261.493 60.048 250.095 60.048C238.697 60.048 230.401 51.8921 230.401 40.5606ZM261.566 40.5606C261.566 33.4874 257.021 28.1464 250.095 28.1464C243.17 28.1464 238.697 33.4874 238.697 40.5606C238.697 47.5616 243.17 52.9748 250.095 52.9748C257.021 52.9026 261.566 47.5616 261.566 40.5606Z" fill="white"/>
<path d="M272.891 54.0563L277.22 47.9214C279.889 50.6641 284.001 52.9737 289.195 52.9737C293.596 52.9737 295.76 50.9528 295.76 48.7875C295.76 42.1474 274.046 46.6944 274.046 32.4759C274.046 26.1966 279.456 21 288.33 21C294.317 21 299.295 22.8044 303.046 26.2688L298.573 32.115C295.544 29.3002 291.432 28.001 287.608 28.001C284.145 28.001 282.27 29.5167 282.27 31.7541C282.27 37.7447 303.912 33.7029 303.912 47.7771C303.912 54.7059 299.006 59.9025 288.835 59.9025C281.62 60.0469 276.426 57.5929 272.891 54.0563Z" fill="white"/>
<path d="M309.322 59.3962V21.6484H317.402V59.324H309.322V59.3962Z" fill="white"/>
<path d="M322.308 54.0563L326.636 47.9214C329.305 50.6641 333.417 52.9737 338.611 52.9737C343.012 52.9737 345.176 50.9528 345.176 48.7875C345.176 42.1474 323.462 46.6944 323.462 32.4759C323.462 26.1966 328.873 21 337.746 21C343.733 21 348.711 22.8044 352.462 26.2688L347.99 32.115C344.96 29.3002 340.848 28.001 337.024 28.001C333.562 28.001 331.686 29.5167 331.686 31.7541C331.686 37.7447 353.328 33.7029 353.328 47.7771C353.328 54.7059 348.423 59.9025 338.251 59.9025C330.965 60.0469 325.77 57.5929 322.308 54.0563Z" fill="white"/>
<path d="M115 74.04V76.3H109.18V79.88H113.64V82.1H109.18V88H106.38V74.04H115ZM146.085 88L143.005 82.56H141.685V88H138.885V74.04H144.125C145.205 74.04 146.125 74.2333 146.885 74.62C147.645 74.9933 148.212 75.5067 148.585 76.16C148.972 76.8 149.165 77.52 149.165 78.32C149.165 79.24 148.899 80.0733 148.365 80.82C147.832 81.5533 147.039 82.06 145.985 82.34L149.325 88H146.085ZM141.685 80.46H144.025C144.785 80.46 145.352 80.28 145.725 79.92C146.099 79.5467 146.285 79.0333 146.285 78.38C146.285 77.74 146.099 77.2467 145.725 76.9C145.352 76.54 144.785 76.36 144.025 76.36H141.685V80.46ZM180.078 88.14C178.771 88.14 177.571 87.8333 176.478 87.22C175.385 86.6067 174.518 85.76 173.878 84.68C173.238 83.5867 172.918 82.3533 172.918 80.98C172.918 79.62 173.238 78.4 173.878 77.32C174.518 76.2267 175.385 75.3733 176.478 74.76C177.571 74.1467 178.771 73.84 180.078 73.84C181.398 73.84 182.598 74.1467 183.678 74.76C184.771 75.3733 185.631 76.2267 186.258 77.32C186.898 78.4 187.218 79.62 187.218 80.98C187.218 82.3533 186.898 83.5867 186.258 84.68C185.631 85.76 184.771 86.6067 183.678 87.22C182.585 87.8333 181.385 88.14 180.078 88.14ZM180.078 85.64C180.918 85.64 181.658 85.4533 182.298 85.08C182.938 84.6933 183.438 84.1467 183.798 83.44C184.158 82.7333 184.338 81.9133 184.338 80.98C184.338 80.0467 184.158 79.2333 183.798 78.54C183.438 77.8333 182.938 77.2933 182.298 76.92C181.658 76.5467 180.918 76.36 180.078 76.36C179.238 76.36 178.491 76.5467 177.838 76.92C177.198 77.2933 176.698 77.8333 176.338 78.54C175.978 79.2333 175.798 80.0467 175.798 80.98C175.798 81.9133 175.978 82.7333 176.338 83.44C176.698 84.1467 177.198 84.6933 177.838 85.08C178.491 85.4533 179.238 85.64 180.078 85.64ZM223.141 88H220.341L214.001 78.42V88H211.201V74.02H214.001L220.341 83.62V74.02H223.141V88ZM257.308 74.04V76.3H253.588V88H250.788V76.3H247.068V74.04H257.308ZM284.051 74.04V88H281.251V74.04H284.051ZM311.517 76.3V79.8H316.217V82.02H311.517V85.72H316.817V88H308.717V74.02H316.817V76.3H311.517ZM348.462 88L345.382 82.56H344.062V88H341.262V74.04H346.502C347.582 74.04 348.502 74.2333 349.262 74.62C350.022 74.9933 350.589 75.5067 350.962 76.16C351.349 76.8 351.542 77.52 351.542 78.32C351.542 79.24 351.275 80.0733 350.742 80.82C350.209 81.5533 349.415 82.06 348.362 82.34L351.702 88H348.462ZM344.062 80.46H346.402C347.162 80.46 347.729 80.28 348.102 79.92C348.475 79.5467 348.662 79.0333 348.662 78.38C348.662 77.74 348.475 77.2467 348.102 76.9C347.729 76.54 347.162 76.36 346.402 76.36H344.062V80.46Z" fill="white"/>
<path d="M90.7315 25.3491C89.8768 22.0562 87.1296 18.7633 82.1846 15.0976C78.2165 12.1775 74.0041 10.5 70.6464 10.5C69.9749 10.5 69.3644 10.5621 68.7539 10.6864C67.2277 10.997 65.8846 12.1154 65.0299 13.7929C63.9921 15.7811 63.7479 18.4527 64.4194 20.068C64.6636 20.5651 64.9689 21.1864 65.3352 21.7456C62.0996 23.7337 60.2681 24.2929 60.0239 24.355C68.4487 27.213 75.4693 33.1775 79.8648 40.9438L79.9258 40.1982C80.109 38.1479 80.7195 35.787 81.5741 33.3639C82.4288 33.6124 83.2835 33.7367 84.1382 33.7367C86.397 33.7367 88.3506 32.8047 89.5715 31.1272C90.7925 29.4497 91.2809 27.213 90.7315 25.3491Z" fill="#5E12A0"/>
<path d="M81.9406 31.5624C87.4961 33.1156 89.7549 28.7665 89.0223 25.8464C88.2286 22.9263 85.6646 19.944 81.147 16.589C76.6294 13.234 72.0507 11.8671 69.1204 12.4884C66.19 13.1097 65.3353 17.6452 66.0679 19.3848C66.3732 20.0683 67.0447 21.0624 67.9604 22.1807C66.8005 22.9884 65.7016 23.6097 64.7859 24.1689C70.4024 26.7162 75.2863 30.6925 78.9492 35.6629C79.3766 33.9854 79.987 32.4943 80.5365 31.1896C80.9638 31.2517 81.4522 31.376 81.9406 31.5624Z" fill="url(#paint0_radial_6839_23779)"/>
<path d="M50.1341 92.4498C68.9815 92.4498 84.2604 76.9003 84.2604 57.719C84.2604 38.5378 68.9815 22.9883 50.1341 22.9883C31.2867 22.9883 16.0078 38.5378 16.0078 57.719C16.0078 76.9003 31.2867 92.4498 50.1341 92.4498Z" fill="url(#paint1_radial_6839_23779)"/>
<path opacity="0.6" d="M86.214 22.9875C81.5743 18.0171 77.6672 16.7124 72.9664 15.6562C69.3035 14.7863 70.2803 12.6739 74.7368 13.1088C72.6001 12.3633 70.5855 12.1769 69.1203 12.4875C66.19 13.1088 65.3353 17.6443 66.0679 19.384C66.3731 20.0674 67.0447 21.0615 67.9604 22.1798C66.3121 23.2982 64.908 24.1059 63.748 24.7272C64.2975 24.9757 64.969 25.2863 65.7627 25.7212C67.8383 26.8396 70.0971 28.7035 70.0971 28.7035C66.6784 25.7212 67.411 24.3544 72.1117 20.9994C73.5769 19.9431 76.2631 20.0674 78.7661 21.3721C81.2691 22.6769 84.1994 25.9698 84.1994 25.9698L81.3911 31.4372C81.5743 31.4994 81.7574 31.5615 81.9406 31.6236C83.711 32.1207 85.1151 31.9964 86.214 31.5615C87.496 30.7538 90.8537 28.0201 86.214 22.9875Z" fill="#A98698"/>
<path d="M72.9053 18.638C74.1263 19.1351 75.7136 20.0049 77.6672 21.3096C79.987 22.8629 82.0016 24.6025 83.2836 25.9694C81.1469 28.8274 79.7428 32.7416 78.8881 35.4753C79.3155 36.0966 79.8039 36.7179 80.2312 37.3392C80.6585 35.7859 81.3911 33.4871 82.3679 31.1883C82.6121 31.2504 82.9173 31.2504 83.2226 31.2504C83.9552 31.2504 84.8099 31.1262 85.4814 30.567C85.9698 30.1942 86.5192 29.5108 86.4582 28.2682C86.4582 27.0877 85.5425 25.5966 83.6499 23.7948C82.3069 22.4901 80.4754 21.0611 78.6439 19.7564C73.3937 16.2149 69.7308 15.2209 68.0825 16.8984C66.9836 18.0167 67.1057 19.3836 67.472 20.3777C65.5184 21.6824 63.8701 22.6143 62.7712 23.2356C63.5038 23.4842 64.1754 23.7948 64.9079 24.1055C66.8615 23.0493 69.6698 21.2475 72.9053 18.638ZM84.4436 27.5226C84.6267 27.8333 84.6878 28.1439 84.6878 28.3303C84.6878 28.8895 84.5046 29.0759 84.3825 29.2001C84.1383 29.3865 83.6499 29.5108 83.2226 29.5108C83.5889 28.7652 84.0162 28.1439 84.4436 27.5226ZM69.3645 18.2652C69.5477 18.0788 70.0361 17.9546 70.8297 18.0788C70.2192 18.5759 69.6087 19.0108 68.9982 19.4457C68.9372 19.0108 68.9982 18.5759 69.3645 18.2652Z" fill="#5E12A0"/>
<path d="M50.1341 20.9385C30.1711 20.9385 13.9932 37.403 13.9932 57.7195C13.9932 78.0361 30.1711 94.5006 50.1341 94.5006C70.097 94.5006 86.2749 78.0361 86.2749 57.7195C86.2749 37.403 70.036 20.9385 50.1341 20.9385ZM50.1341 92.4503C31.27 92.4503 16.0078 76.9178 16.0078 57.7195C16.0078 38.5213 31.27 22.9888 50.1341 22.9888C68.9981 22.9888 84.2603 38.5213 84.2603 57.7195C84.2603 76.9178 68.9371 92.4503 50.1341 92.4503Z" fill="#5E12A0"/>
<path opacity="0.6" d="M50.1341 92.4498C68.9815 92.4498 84.2604 76.9003 84.2604 57.719C84.2604 38.5378 68.9815 22.9883 50.1341 22.9883C31.2867 22.9883 16.0078 38.5378 16.0078 57.719C16.0078 76.9003 31.2867 92.4498 50.1341 92.4498Z" fill="url(#paint2_linear_6839_23779)"/>
<path opacity="0.6" d="M49.8898 88.2238C31.2699 85.1794 18.6328 67.348 21.6852 48.3983C23.0283 40.0108 27.1796 32.8658 33.0403 27.709C24.4935 32.7415 18.1444 41.5019 16.435 52.1883C13.4437 71.138 26.0808 88.9693 44.6396 92.0137C55.0179 93.7534 65.0299 90.4605 72.4168 83.9989C65.8846 87.851 57.9482 89.5285 49.8898 88.2238Z" fill="#A98698"/>
<path opacity="0.6" d="M55.5675 23.4851C46.9596 22.0561 38.5959 24.0442 31.7585 28.4555C31.6364 28.5797 31.5143 28.704 31.5143 28.704C34.1394 27.0886 37.9854 25.6596 37.9854 25.6596C28.0955 31.4998 25.0431 38.1478 25.0431 38.1478C28.8892 30.5679 40.1832 25.2247 49.0353 24.8519C57.8873 24.4791 63.687 27.1507 70.7686 32.9288C77.8503 38.7691 82.1237 50.6981 81.6964 60.1419C81.3301 69.5856 76.4462 77.2277 76.4462 77.2277C79.8039 72.8164 81.8185 69.5856 83.1005 66.2927C83.3447 65.2987 83.5889 64.3046 83.711 63.2484C86.7634 44.3608 74.1874 26.5294 55.5675 23.4851Z" fill="url(#paint3_linear_6839_23779)"/>
<path d="M82.5509 57.4072C82.5509 75.6114 68.0213 90.3983 50.134 90.3983C32.2467 90.3983 17.656 75.6114 17.656 57.4072H82.5509Z" fill="url(#paint4_linear_6839_23779)"/>
<g opacity="0.6">
<path opacity="0.6" d="M79.9868 57.4072C79.9868 75.1765 66.1898 89.7149 48.8519 90.3984C49.2793 90.3984 49.7066 90.3984 50.1339 90.3984C68.0213 90.3984 82.5509 75.6114 82.5509 57.4072H79.9868Z" fill="url(#paint5_linear_6839_23779)"/>
</g>
<g opacity="0.7">
<path opacity="0.7" d="M22.2347 57.4072H17.656C17.656 75.6114 32.1856 90.3983 50.0729 90.3983C50.8666 90.3983 51.5991 90.3983 52.3317 90.3362C35.5433 89.0936 22.2347 74.8037 22.2347 57.4072Z" fill="url(#paint6_linear_6839_23779)"/>
</g>
<path d="M82.4898 57.7183C82.4898 53.9284 76.0187 51.7538 67.4108 51.0083C61.1838 50.5112 54.8958 51.1325 47.692 53.3692C41.465 55.2331 35.8486 54.9225 31.7583 54.4254C22.662 53.3692 17.656 53.2449 17.656 57.7183C17.656 64.1798 30.5984 72.2568 50.0119 69.4609C59.8407 68.0319 64.9078 65.1118 70.7074 63.1236C76.9954 61.0112 82.4898 61.0733 82.4898 57.7183Z" fill="url(#paint7_linear_6839_23779)"/>
<path d="M60.7566 42.0623C63.7911 42.0623 66.251 39.5588 66.251 36.4706C66.251 33.3824 63.7911 30.8789 60.7566 30.8789C57.7221 30.8789 55.2622 33.3824 55.2622 36.4706C55.2622 39.5588 57.7221 42.0623 60.7566 42.0623Z" fill="white"/>
<path d="M69.7309 46.2248C71.0121 46.2248 72.0507 45.1678 72.0507 43.8639C72.0507 42.56 71.0121 41.5029 69.7309 41.5029C68.4496 41.5029 67.411 42.56 67.411 43.8639C67.411 45.1678 68.4496 46.2248 69.7309 46.2248Z" fill="white"/>
<g opacity="0.6">
<path opacity="0.6" d="M78.0333 31.9971C77.9722 31.9971 77.9112 31.9971 77.9112 31.9971C77.5449 31.935 77.3007 31.5622 77.3618 31.1273C77.9112 28.2693 80.2311 25.5356 80.3532 25.4113C80.5974 25.1007 81.0857 25.1007 81.3299 25.3492C81.6352 25.5977 81.6352 26.0948 81.391 26.3433C81.3299 26.4054 79.1932 28.9527 78.7048 31.438C78.6438 31.8107 78.3385 31.9971 78.0333 31.9971Z" fill="url(#paint8_linear_6839_23779)"/>
</g>
<path opacity="0.2" d="M47.8793 83.6267C48.8233 83.6267 49.5887 82.8479 49.5887 81.8871C49.5887 80.9263 48.8233 80.1475 47.8793 80.1475C46.9352 80.1475 46.1699 80.9263 46.1699 81.8871C46.1699 82.8479 46.9352 83.6267 47.8793 83.6267Z" fill="white"/>
<g opacity="0.4">
<path opacity="0.6" d="M46.8985 83.0078C46.2269 82.3243 46.2269 81.206 46.8985 80.5226C47.0206 80.3983 47.1427 80.3362 47.2648 80.2119C47.0206 80.274 46.8374 80.3983 46.6543 80.5847C45.9828 81.2681 45.9828 82.3865 46.6543 83.0699C47.2037 83.6291 48.0584 83.7533 48.7299 83.3805C48.1195 83.6291 47.3869 83.5048 46.8985 83.0078Z" fill="url(#paint9_linear_6839_23779)"/>
</g>
<path opacity="0.3" d="M48.4858 81.3901C48.6881 81.3901 48.8521 81.2232 48.8521 81.0173C48.8521 80.8114 48.6881 80.6445 48.4858 80.6445C48.2835 80.6445 48.1195 80.8114 48.1195 81.0173C48.1195 81.2232 48.2835 81.3901 48.4858 81.3901Z" fill="white"/>
<path opacity="0.2" d="M56.7923 82.7566C57.7363 82.7566 58.5016 81.9778 58.5016 81.017C58.5016 80.0562 57.7363 79.2773 56.7923 79.2773C55.8482 79.2773 55.0829 80.0562 55.0829 81.017C55.0829 81.9778 55.8482 82.7566 56.7923 82.7566Z" fill="white"/>
<g opacity="0.4">
<path opacity="0.6" d="M55.8116 82.1367C55.14 81.4532 55.14 80.3349 55.8116 79.6515C55.9337 79.5272 56.0558 79.4651 56.1779 79.3408C55.9337 79.403 55.7505 79.5272 55.5674 79.7136C54.8958 80.397 54.8958 81.5154 55.5674 82.1988C56.1168 82.758 56.9715 82.8822 57.643 82.5095C57.0325 82.758 56.3 82.6337 55.8116 82.1367Z" fill="url(#paint10_linear_6839_23779)"/>
</g>
<path opacity="0.3" d="M57.3989 80.52C57.6012 80.52 57.7652 80.3531 57.7652 80.1472C57.7652 79.9413 57.6012 79.7744 57.3989 79.7744C57.1966 79.7744 57.0326 79.9413 57.0326 80.1472C57.0326 80.3531 57.1966 80.52 57.3989 80.52Z" fill="white"/>
<path opacity="0.2" d="M52.393 86.796C53.101 86.796 53.675 86.2118 53.675 85.4913C53.675 84.7707 53.101 84.1865 52.393 84.1865C51.6849 84.1865 51.111 84.7707 51.111 85.4913C51.111 86.2118 51.6849 86.796 52.393 86.796Z" fill="white"/>
<g opacity="0.4">
<path opacity="0.6" d="M51.6604 86.3013C51.172 85.8042 51.172 84.9344 51.6604 84.4374C51.7215 84.3752 51.8436 84.3131 51.9046 84.251C51.7215 84.3131 51.5994 84.4374 51.4773 84.5616C50.9889 85.0587 50.9889 85.9285 51.4773 86.4255C51.9046 86.8604 52.5151 86.9226 53.0645 86.6119C52.5761 86.7983 52.0267 86.674 51.6604 86.3013Z" fill="url(#paint11_linear_6839_23779)"/>
</g>
<path opacity="0.3" d="M52.8203 85.0566C52.9551 85.0566 53.0644 84.9453 53.0644 84.8081C53.0644 84.6708 52.9551 84.5596 52.8203 84.5596C52.6854 84.5596 52.576 84.6708 52.576 84.8081C52.576 84.9453 52.6854 85.0566 52.8203 85.0566Z" fill="white"/>
<path opacity="0.2" d="M60.2681 85.8634C60.9762 85.8634 61.5501 85.2792 61.5501 84.5586C61.5501 83.8381 60.9762 83.2539 60.2681 83.2539C59.5601 83.2539 58.9861 83.8381 58.9861 84.5586C58.9861 85.2792 59.5601 85.8634 60.2681 85.8634Z" fill="white"/>
<g opacity="0.4">
<path opacity="0.6" d="M59.5355 85.3687C59.0471 84.8716 59.0471 84.0018 59.5355 83.5047C59.5966 83.4426 59.7187 83.3805 59.7797 83.3184C59.5966 83.3805 59.4745 83.5048 59.3524 83.629C58.864 84.1261 58.864 84.9959 59.3524 85.4929C59.7797 85.9278 60.3902 85.99 60.9396 85.6793C60.4512 85.8657 59.9018 85.7414 59.5355 85.3687Z" fill="url(#paint12_linear_6839_23779)"/>
</g>
<path opacity="0.3" d="M60.6955 84.124C60.8304 84.124 60.9397 84.0127 60.9397 83.8755C60.9397 83.7382 60.8304 83.627 60.6955 83.627C60.5606 83.627 60.4513 83.7382 60.4513 83.8755C60.4513 84.0127 60.5606 84.124 60.6955 84.124Z" fill="white"/>
<path opacity="0.2" d="M40.6104 83.006C42.1613 83.006 43.4186 81.7265 43.4186 80.148C43.4186 78.5696 42.1613 77.29 40.6104 77.29C39.0594 77.29 37.8021 78.5696 37.8021 80.148C37.8021 81.7265 39.0594 83.006 40.6104 83.006Z" fill="white"/>
<g opacity="0.4">
<path opacity="0.6" d="M39.0248 81.949C37.9259 80.8306 37.9259 79.0288 39.0248 77.9105C39.208 77.7241 39.3911 77.5998 39.6353 77.4756C39.269 77.5998 38.9638 77.8484 38.6585 78.0969C37.5596 79.2152 37.5596 81.017 38.6585 82.1353C39.5742 83.0673 40.9784 83.2537 42.0772 82.5703C41.0394 83.0052 39.8184 82.8188 39.0248 81.949Z" fill="url(#paint13_linear_6839_23779)"/>
</g>
<path opacity="0.3" d="M41.5873 79.2778C41.9245 79.2778 42.1978 78.9996 42.1978 78.6565C42.1978 78.3133 41.9245 78.0352 41.5873 78.0352C41.2501 78.0352 40.9768 78.3133 40.9768 78.6565C40.9768 78.9996 41.2501 79.2778 41.5873 79.2778Z" fill="white"/>
<path opacity="0.2" d="M65.7031 75.9855C67.2541 75.9855 68.5114 74.7059 68.5114 73.1275C68.5114 71.5491 67.2541 70.2695 65.7031 70.2695C64.1522 70.2695 62.8949 71.5491 62.8949 73.1275C62.8949 74.7059 64.1522 75.9855 65.7031 75.9855Z" fill="white"/>
<g opacity="0.4">
<path opacity="0.6" d="M64.0532 74.9294C62.9544 73.8111 62.9544 72.0093 64.0532 70.891C64.2364 70.7046 64.4195 70.5803 64.6637 70.4561C64.2974 70.5803 63.9922 70.8288 63.687 71.0774C62.5881 72.1957 62.5881 73.9975 63.687 75.1158C64.6027 76.0478 66.0068 76.2342 67.1057 75.5507C66.0679 75.9856 64.9079 75.7993 64.0532 74.9294Z" fill="url(#paint14_linear_6839_23779)"/>
</g>
<path opacity="0.3" d="M66.6784 72.2573C67.0155 72.2573 67.2888 71.9791 67.2888 71.636C67.2888 71.2928 67.0155 71.0146 66.6784 71.0146C66.3412 71.0146 66.0679 71.2928 66.0679 71.636C66.0679 71.9791 66.3412 72.2573 66.6784 72.2573Z" fill="white"/>
<g clip-path="url(#clip0_6839_23779)">
<path d="M47.4214 17.1997C45.2084 18.072 43.7224 19.9455 43.3039 22.0368L34.6547 11.0682L34.6359 11.0772C33.2405 9.43462 31.0258 8.76 29.2396 9.61222C27.4439 10.4689 27.9475 11.9599 26.5748 12.6148C25.2868 13.2293 24.3602 11.9401 22.5645 12.7968C20.7782 13.6491 19.9092 15.7949 20.5618 17.7918L20.5524 17.7963L23.5074 31.6224C21.5991 30.5592 19.1447 30.5022 17.0225 31.7028C13.8749 33.4803 12.7145 37.3498 14.4329 40.3444C18.4555 47.3583 29.5762 47.5384 35.7793 44.5789L45.6283 39.88C51.8314 36.9206 58.6883 28.1636 55.7675 20.624C54.5211 17.4042 50.7834 15.8716 47.4214 17.1997Z" fill="url(#paint15_linear_6839_23779)"/>
<path opacity="0.05" d="M47.1497 25.2351L45.4198 23.0366L45.0603 22.5733L43.6855 20.8286C43.6028 21.0181 43.5295 21.2031 43.4745 21.4025C43.4008 21.6108 43.3503 21.8195 43.3044 22.0376L44.2377 23.2197L44.5927 23.6736L44.5972 23.683L46.3364 25.8771C47.3881 27.2104 47.1709 29.126 45.8833 30.2251C45.5852 30.4712 45.2965 30.7128 45.0033 30.945C42.6808 32.8263 40.1964 34.3925 37.564 35.6484C34.9316 36.9043 32.1512 37.8499 29.2276 38.4715C28.8815 38.5443 28.5259 38.6216 28.1753 38.685C26.4921 39.0033 24.8576 37.948 24.4972 36.2733L24.2662 35.1601L24.2617 35.1507L23.8028 33.0037L23.5116 31.6191C23.3132 31.5176 23.1147 31.4161 22.9113 31.3285C22.7218 31.2458 22.5274 31.1769 22.3419 31.1269L22.7877 33.2225L23.2466 35.3696L23.2551 35.4117L23.2596 35.4211L23.4821 36.4922C23.958 38.7234 26.1078 40.133 28.366 39.7135C28.7354 39.6412 29.0909 39.5639 29.4465 39.4866C32.4215 38.852 35.3049 37.8803 38.0125 36.5885C40.7202 35.2967 43.2896 33.6669 45.6546 31.7538C45.9572 31.5171 46.2553 31.271 46.5489 31.0155C48.2814 29.5426 48.5474 27.0036 47.1497 25.2351Z" fill="black"/>
<path opacity="0.07" d="M46.7385 25.5585L45.0086 23.3599L44.6491 22.8966L43.4746 21.4026C43.4009 21.6109 43.3504 21.8196 43.3045 22.0378L44.2378 23.2198L44.5928 23.6737L44.5973 23.6831L46.3365 25.8772C47.3882 27.2105 47.171 29.1261 45.8834 30.2252C45.5853 30.4713 45.2966 30.7129 45.0034 30.9451C42.6809 32.8264 40.1965 34.3926 37.5641 35.6485C34.9317 36.9044 32.1513 37.8501 29.2277 38.4716C28.8816 38.5444 28.526 38.6217 28.1754 38.6851C26.4922 39.0034 24.8577 37.9481 24.4973 36.2734L24.2663 35.1603L24.2618 35.1509L23.8029 33.0038L23.5117 31.6192C23.3133 31.5177 23.1148 31.4162 22.9114 31.3286L23.2885 33.1107L23.7473 35.2578L23.7607 35.286L23.7603 35.3093L23.9922 36.3759C24.4079 38.3358 26.2906 39.5728 28.2685 39.1947C28.6285 39.1268 28.9886 39.0589 29.3441 38.9816C32.2676 38.3601 35.1184 37.3924 37.7884 36.1186C40.4584 34.8447 43.0041 33.2378 45.336 31.352C45.6247 31.1103 45.9228 30.8643 46.2115 30.6227C47.731 29.3322 47.9631 27.1093 46.7385 25.5585Z" fill="black"/>
<path d="M46.3355 25.8822C47.3839 27.2136 47.1701 29.1265 45.8783 30.2241C45.5891 30.4694 45.2976 30.71 45.0034 30.945C42.6809 32.8263 40.1965 34.3925 37.5641 35.6484C34.9317 36.9043 32.1513 37.8499 29.2277 38.4715C28.8787 38.5479 28.5261 38.6192 28.1726 38.6863C26.4931 39.0052 24.8592 37.9438 24.502 36.2711L23.9235 33.5636C23.8597 33.2628 24.0709 32.9774 24.3771 32.9444C31.9741 32.113 38.4082 29.0329 43.8266 23.6352C44.0464 23.4161 44.4062 23.4325 44.5988 23.6765L46.3355 25.8822Z" fill="url(#paint16_linear_6839_23779)"/>
<path d="M38.0126 36.5884C40.0895 35.5975 40.9699 33.1105 39.9791 31.0336C38.9882 28.9567 36.5012 28.0763 34.4243 29.0672C32.3474 30.0581 31.467 32.545 32.4579 34.6219C33.4487 36.6989 35.9357 37.5793 38.0126 36.5884Z" fill="url(#paint17_linear_6839_23779)"/>
</g>
<defs>
<radialGradient id="paint0_radial_6839_23779" cx="0" cy="0" r="1" gradientUnits="userSpaceOnUse" gradientTransform="translate(87.9087 21.9321) scale(27.2854 27.7687)">
<stop stop-color="#FFEAFF" stop-opacity="0.6"/>
<stop offset="0.6807" stop-color="#A087C9"/>
<stop offset="1" stop-color="#10002F"/>
</radialGradient>
<radialGradient id="paint1_radial_6839_23779" cx="0" cy="0" r="1" gradientUnits="userSpaceOnUse" gradientTransform="translate(72.7286 33.775) scale(66.7575 67.94)">
<stop stop-color="#FFEAFF" stop-opacity="0.6"/>
<stop offset="0.6807" stop-color="#A087C9"/>
<stop offset="1" stop-color="#10002F"/>
</radialGradient>
<linearGradient id="paint2_linear_6839_23779" x1="44.66" y1="91.9572" x2="55.9551" y2="23.486" gradientUnits="userSpaceOnUse">
<stop stop-color="#81FFFF"/>
<stop offset="0.6202" stop-color="white" stop-opacity="0"/>
</linearGradient>
<linearGradient id="paint3_linear_6839_23779" x1="74.1844" y1="34.1321" x2="45.5129" y2="59.9811" gradientUnits="userSpaceOnUse">
<stop offset="0.2888" stop-color="white"/>
<stop offset="0.7796" stop-color="white" stop-opacity="0"/>
</linearGradient>
<linearGradient id="paint4_linear_6839_23779" x1="17.6835" y1="73.8835" x2="82.5351" y2="73.8835" gradientUnits="userSpaceOnUse">
<stop stop-color="#0002E9"/>
<stop offset="0.9952" stop-color="#FF00C7"/>
</linearGradient>
<linearGradient id="paint5_linear_6839_23779" x1="85.605" y1="60.3022" x2="49.7224" y2="93.623" gradientUnits="userSpaceOnUse">
<stop offset="0.2888" stop-color="white"/>
<stop offset="0.7796" stop-color="white" stop-opacity="0"/>
</linearGradient>
<linearGradient id="paint6_linear_6839_23779" x1="17.6835" y1="73.8835" x2="52.3788" y2="73.8835" gradientUnits="userSpaceOnUse">
<stop stop-color="#000292"/>
<stop offset="0.9952" stop-color="#7D00C7"/>
</linearGradient>
<linearGradient id="paint7_linear_6839_23779" x1="17.727" y1="60.4591" x2="82.4916" y2="60.4591" gradientUnits="userSpaceOnUse">
<stop stop-color="#000292"/>
<stop offset="0.9952" stop-color="#BE00C7"/>
</linearGradient>
<linearGradient id="paint8_linear_6839_23779" x1="81.429" y1="25.1088" x2="76.6548" y2="32.7318" gradientUnits="userSpaceOnUse">
<stop offset="0.2888" stop-color="white"/>
<stop offset="0.7796" stop-color="white" stop-opacity="0"/>
</linearGradient>
<linearGradient id="paint9_linear_6839_23779" x1="46.1489" y1="81.9427" x2="48.7318" y2="81.9427" gradientUnits="userSpaceOnUse">
<stop offset="0.2888" stop-color="white"/>
<stop offset="0.7796" stop-color="white" stop-opacity="0"/>
</linearGradient>
<linearGradient id="paint10_linear_6839_23779" x1="55.0558" y1="81.0598" x2="57.6387" y2="81.0598" gradientUnits="userSpaceOnUse">
<stop offset="0.2888" stop-color="white"/>
<stop offset="0.7796" stop-color="white" stop-opacity="0"/>
</linearGradient>
<linearGradient id="paint11_linear_6839_23779" x1="51.103" y1="85.5084" x2="53.0421" y2="85.5084" gradientUnits="userSpaceOnUse">
<stop offset="0.2888" stop-color="white"/>
<stop offset="0.7796" stop-color="white" stop-opacity="0"/>
</linearGradient>
<linearGradient id="paint12_linear_6839_23779" x1="58.9517" y1="84.5734" x2="60.8908" y2="84.5734" gradientUnits="userSpaceOnUse">
<stop offset="0.2888" stop-color="white"/>
<stop offset="0.7796" stop-color="white" stop-opacity="0"/>
</linearGradient>
<linearGradient id="paint13_linear_6839_23779" x1="37.8063" y1="80.2201" x2="42.0244" y2="80.2201" gradientUnits="userSpaceOnUse">
<stop offset="0.2888" stop-color="white"/>
<stop offset="0.7796" stop-color="white" stop-opacity="0"/>
</linearGradient>
<linearGradient id="paint14_linear_6839_23779" x1="62.8582" y1="73.1984" x2="67.0763" y2="73.1984" gradientUnits="userSpaceOnUse">
<stop offset="0.2888" stop-color="white"/>
<stop offset="0.7796" stop-color="white" stop-opacity="0"/>
</linearGradient>
<linearGradient id="paint15_linear_6839_23779" x1="25.9325" y1="11.2685" x2="38.4091" y2="37.4197" gradientUnits="userSpaceOnUse">
<stop stop-color="#EBA84B"/>
<stop offset="1" stop-color="#D97218"/>
</linearGradient>
<linearGradient id="paint16_linear_6839_23779" x1="25.6119" y1="36.8218" x2="49.3403" y2="25.5012" gradientUnits="userSpaceOnUse">
<stop stop-color="#A34F27"/>
<stop offset="0.587" stop-color="#8B3817"/>
<stop offset="1" stop-color="#802D10"/>
</linearGradient>
<linearGradient id="paint17_linear_6839_23779" x1="33.2114" y1="26.525" x2="38.5051" y2="37.6207" gradientUnits="userSpaceOnUse">
<stop stop-color="#F0F0F0"/>
<stop offset="1" stop-color="#BBC1C4"/>
</linearGradient>
<clipPath id="clip0_6839_23779">
<rect width="46" height="35" fill="white" transform="translate(5 20.8076) rotate(-25.5055)"/>
</clipPath>
</defs>
</svg>
