<svg width="67" height="65" viewBox="0 0 67 65" fill="none" xmlns="http://www.w3.org/2000/svg">
<path d="M39.6852 25.1533C39.9791 23.2295 40.4814 21.343 41.1773 19.5495C41.8768 17.7709 42.7884 16.063 44.0387 14.716L43.0154 13.8713C41.7875 15.542 41.0544 17.4397 40.5447 19.3449C40.0461 21.25 39.7596 23.2035 39.6852 25.1496V25.1533Z" fill="white"/>
<path d="M42.5875 36.3088C43.6591 34.6716 44.9652 33.1869 46.4498 31.9702C47.927 30.7609 49.661 29.8381 51.4508 29.6706L51.2424 28.3608C49.1289 28.8036 47.395 30.0539 45.9996 31.4753C44.6117 32.9153 43.4693 34.5525 42.5912 36.3088H42.5875Z" fill="white"/>
<path d="M28.0385 30.3963C26.4795 28.2382 24.6041 26.2995 22.5166 24.6065C20.418 22.9209 18.0552 21.5032 15.4282 20.6362L15.0673 21.9162C17.5603 22.5116 19.9454 23.6688 22.1185 25.1386C24.2952 26.6121 26.3083 28.3796 28.0385 30.3926V30.3963Z" fill="white"/>
<path d="M26.1818 39.4642C23.6925 38.7647 21.0692 38.5228 18.4533 38.6344C15.8375 38.7572 13.2105 39.3117 10.7435 40.3386L11.3091 41.5405C13.5305 40.387 15.9826 39.6317 18.5129 39.2968C21.0394 38.9693 23.6441 38.9842 26.1818 39.4642V39.4642Z" fill="white"/>
<path d="M27.8488 47.386C26.1632 47.5237 24.5259 48.0892 23.0041 48.8669C21.4747 49.6595 20.072 50.7088 18.8366 51.9293L19.8301 52.8111C20.8199 51.5349 21.9994 50.3814 23.3464 49.44C24.6971 48.506 26.2041 47.7395 27.8525 47.386H27.8488Z" fill="white"/>
<path d="M30.0925 19.6763C29.5083 17.4698 29.0357 15.241 28.6897 13.0047C28.5222 11.8809 28.3883 10.7572 28.3325 9.64092C28.2729 8.53208 28.2767 7.40834 28.4702 6.37764L27.1492 6.19531C27.045 7.42695 27.1641 8.59534 27.3352 9.74512C27.5139 10.8949 27.7632 12.0223 28.0385 13.1349C28.6078 15.3563 29.2962 17.5368 30.0925 19.6763V19.6763Z" fill="white"/>
<path d="M40.6117 40.8337C42.9149 40.8671 45.207 41.243 47.3578 41.9499C49.501 42.6681 51.5178 43.7993 52.9243 45.4365L53.8843 44.5211C52.0908 42.8095 49.8136 41.842 47.5364 41.3136C45.248 40.7964 42.9075 40.6476 40.6079 40.8337H40.6117Z" fill="white"/>
<path d="M29.3558 35.851C27.2944 34.8166 25.1101 34.0055 22.8664 33.3729C20.6227 32.7515 18.3008 32.3385 15.9194 32.2715L15.9491 33.6073C18.1854 33.4473 20.4701 33.6296 22.725 34.0241C24.9687 34.4222 27.2013 35.0213 29.3558 35.851V35.851Z" fill="white"/>
<path d="M33.3372 31.5534C32.9279 29.131 32.8163 26.6641 33.047 24.2492C33.2814 21.8529 33.9102 19.4454 35.2832 17.6072L34.1744 16.863C32.7976 19.1403 32.4107 21.7338 32.3734 24.2157C32.366 26.7087 32.7046 29.1757 33.3297 31.5534H33.3372Z" fill="white"/>
<path d="M37.5828 35.1329C38.2042 33.3618 39.1568 31.7208 40.3289 30.2994C41.5047 28.8855 42.9484 27.7245 44.5559 26.9654L43.9196 25.8008C42.2266 26.8538 40.8349 28.2938 39.793 29.9087C38.7474 31.5199 37.9847 33.2948 37.5791 35.1329H37.5828Z" fill="white"/>
<path d="M30.6618 43.643C29.7167 43.3193 28.7083 43.2002 27.7074 43.1258C26.7027 43.0513 25.6981 43.0588 24.6897 43.1072C22.6804 43.2188 20.671 43.5165 18.6952 43.9295L19.0413 45.2132C20.9092 44.5955 22.8143 44.0932 24.7641 43.7732C25.7427 43.6132 26.7176 43.4979 27.7111 43.4607C28.7009 43.4272 29.6944 43.4346 30.6693 43.6467L30.6618 43.643Z" fill="white"/>
<path d="M33.6609 42.8763C33.5939 44.9265 33.6348 46.9879 33.8023 49.0531C33.9958 51.1145 34.2414 53.1833 35.0637 55.2299L36.2618 54.6457C35.3539 52.9601 34.8553 50.9396 34.4609 48.9563C34.0739 46.9507 33.8172 44.9191 33.6609 42.8726V42.8763Z" fill="white"/>
<path d="M48.314 37.1906C49.9289 36.0631 51.7931 35.3189 53.6908 35.051C55.5848 34.7831 57.5011 35.1069 59.1569 35.9255L59.6741 34.7013C57.6983 33.9868 55.5252 33.8901 53.5643 34.4036C51.5922 34.9059 49.795 35.8845 48.314 37.1906V37.1906Z" fill="white"/>
<path d="M47.4657 22.7612C48.2285 21.2579 49.2517 19.896 50.4685 18.7984C51.6852 17.7044 53.1513 16.9193 54.6806 16.7146L54.4015 15.416C52.6117 15.9109 51.1196 17.0197 49.9996 18.3332C48.8722 19.6542 48.0312 21.1686 47.4694 22.7612H47.4657Z" fill="white"/>
<path d="M15.5994 27.3299C13.6347 26.5634 11.5324 26.1169 9.39654 25.9606C7.26071 25.8118 5.06161 26.0015 2.95927 26.6862L3.43556 27.9253C5.26999 27.103 7.3128 26.6974 9.38909 26.6229C11.4579 26.5597 13.5678 26.7755 15.5994 27.3299V27.3299Z" fill="white"/>
<path d="M24.1613 17.8566C23.246 16.0333 22.2115 14.2696 20.9911 12.6026C20.3771 11.7765 19.7073 10.9765 18.952 10.2398C18.178 9.51419 17.3222 8.8221 16.1947 8.4314L15.8338 9.71141C16.6748 9.89745 17.5194 10.4072 18.2971 10.9914C19.0673 11.5979 19.7929 12.2863 20.4738 13.0305C21.832 14.5114 23.0599 16.1449 24.1576 17.8566H24.1613Z" fill="white"/>
<path d="M29.2665 51.1816C28.18 53.1017 27.406 55.2003 26.9557 57.3956C26.5129 59.5873 26.446 61.9054 26.993 64.1678L28.2692 63.792C27.5771 61.8236 27.4023 59.6468 27.6144 57.4924C27.8339 55.3379 28.3809 53.1947 29.2665 51.1816V51.1816Z" fill="white"/>
<path d="M46.3829 47.4829C47.9754 48.3015 49.4564 49.3062 50.8108 50.4225C52.1727 51.5462 53.4043 52.8113 54.3792 54.2178L55.4174 53.3918C54.1746 52.0039 52.7308 50.8541 51.2052 49.8829C49.6759 48.9192 48.061 48.1006 46.3791 47.4866L46.3829 47.4829Z" fill="white"/>
<g style="mix-blend-mode:color-dodge">
<path d="M8.89795 18.7572L10.844 20.893L10.1928 23.7098L12.8235 22.5154L15.298 24.0075L14.978 21.1349L17.1622 19.2409L14.3305 18.6567L13.1994 16L11.778 18.5116L8.89795 18.7572Z" fill="white"/>
</g>
<path d="M30.3381 23.7688L28.6934 23.073L28.3325 21.3279L27.1641 22.6749L25.3929 22.4777L26.3157 24.007L25.579 25.633L27.3204 25.2237L28.6376 26.4256L28.7827 24.647L30.3381 23.7688Z" fill="white"/>
<path d="M38.0144 14.6194L36.5782 15.2147L35.2721 14.3738L35.3986 15.9254L34.1967 16.904L35.7074 17.265L36.2656 18.7162L37.0768 17.3878L38.6321 17.3022L37.6163 16.1226L38.0144 14.6194Z" fill="white"/>
<g style="mix-blend-mode:color-dodge">
<path d="M49.3968 9.94575L47.2908 10.3402L45.7689 8.83691L45.5047 10.9616L43.5959 11.9439L45.5382 12.8593L45.8843 14.969L47.354 13.41L49.4675 13.7337L48.4331 11.8583L49.3968 9.94575Z" fill="white"/>
</g>
<g style="mix-blend-mode:color-dodge">
<path d="M18.8441 56.8709L19.5808 58.5826L18.5836 60.1677L20.4478 59.9928L21.6422 61.4254L22.0515 59.6058L23.7855 58.91L22.1855 57.9574L22.0553 56.0933L20.6524 57.3286L18.8441 56.8709Z" fill="white"/>
</g>
<g style="mix-blend-mode:color-dodge">
<path d="M36.567 57.0979L37.2405 59.2672L35.8377 61.0495L38.1075 61.0793L39.3689 62.9621L40.0982 60.8151L42.2786 60.1975L40.4665 58.8393L40.5521 56.5732L38.6954 57.883L36.567 57.0979Z" fill="white"/>
</g>
<path d="M57.3336 45.6482L57.3001 46.4891L56.5894 46.9394L57.3783 47.2333L57.5904 48.0482L58.1076 47.3859L58.9485 47.4417L58.4797 46.7384L58.7885 45.957L57.9848 46.1877L57.3336 45.6482Z" fill="white"/>
<g style="mix-blend-mode:color-dodge">
<path d="M28.1018 0.289795L27.8116 2.42562L25.8841 3.39679L27.8265 4.33075L28.1539 6.46658L29.646 4.90379L31.7744 5.24984L30.7548 3.35214L31.7409 1.43958L29.6199 1.8191L28.1018 0.289795Z" fill="white"/>
</g>
<g style="mix-blend-mode:color-dodge">
<path d="M42.528 35.2894L42.8591 37.0494L41.6014 38.3183L43.3726 38.5452L44.1949 40.1341L44.9614 38.5155L46.7215 38.2252L45.4154 37.0011L45.6871 35.2373L44.1242 36.0931L42.528 35.2894Z" fill="white"/>
</g>
<g style="mix-blend-mode:color-dodge">
<path d="M55.1308 22.3034L55.4471 23.5537L54.595 24.5211L55.875 24.6104L56.5299 25.7155L57.0136 24.5211L58.2713 24.242L57.2815 23.416L57.4043 22.136L56.3104 22.8169L55.1308 22.3034Z" fill="white"/>
</g>
<g style="mix-blend-mode:color-dodge">
<path d="M0.615089 34.2028L1.68673 35.7284L1.03928 37.481L2.82159 36.934L4.2914 38.0949L4.31742 36.2233L5.87653 35.1889L4.10907 34.5824L3.60671 32.7852L2.48302 34.2773L0.615089 34.2028Z" fill="white"/>
</g>
<path d="M35.7521 33.213L33.4525 34.2176L31.3204 32.8818L31.566 35.3823L29.6423 36.9972L32.0869 37.5367L33.0321 39.8661L34.3083 37.7042L36.8089 37.5293L35.1493 35.6465L35.7521 33.213Z" fill="white"/>
<g style="mix-blend-mode:color-dodge">
<path d="M14.0626 49.3955L16.3399 48.8485L18.0738 50.415L18.2598 48.082L20.2878 46.9099L18.1259 46.0206L17.6422 43.7322L16.124 45.5071L13.7984 45.2615L15.0189 47.2559L14.0626 49.3955Z" fill="white"/>
</g>
<g style="mix-blend-mode:color-dodge">
<g style="mix-blend-mode:color-dodge">
<path d="M63.6742 34.0427L62.3421 35.6502L60.2695 35.4753L61.3858 37.2353L60.5783 39.1553L62.5951 38.6306L64.1802 39.9963L64.2993 37.9125L66.089 36.8372L64.1467 36.0744L63.6742 34.0427Z" fill="white"/>
</g>
</g>
</svg>
