<svg fill="none" height="200" viewBox="0 0 200 200" width="200" xmlns="http://www.w3.org/2000/svg" xmlns:xlink="http://www.w3.org/1999/xlink"><clipPath id="a"><path d="m0 0h200v200h-200z"/></clipPath><g clip-path="url(#a)"><path d="m100.122 200.067c55.172 0 99.897-44.725 99.897-99.896 0-55.1714-44.725-99.896586-99.897-99.896586-55.1709 0-99.896048 44.725186-99.896048 99.896586 0 55.171 44.725148 99.896 99.896048 99.896z" fill="#1a1a1a"/><path d="m100.122 150.731c27.924 0 50.561-22.636 50.561-50.56 0-27.9239-22.637-50.5605-50.561-50.5605-27.9234 0-50.5601 22.6366-50.5601 50.5605 0 27.924 22.6367 50.56 50.5601 50.56z" fill="#dedede"/><path d="m266.044 607.004c-32.151 0-60.754-5.22-85.807-15.659-24.914-10.578-44.469-24.983-58.666-43.216s-21.295-38.902-21.295-62.007c0-17.815 4.036-34.169 12.109-49.062 8.212-15.032 19.347-27.489 33.404-37.371 14.058-10.021 29.786-16.424 47.184-19.207v-2.923c-22.827-4.593-41.338-15.658-55.535-33.196-14.197-17.676-21.295-38.206-21.295-61.589 0-22.13 6.472-41.824 19.416-59.083 12.944-17.398 30.69-31.038 53.238-40.92 22.687-10.021 48.436-15.032 77.247-15.032s54.491 5.011 77.038 15.032c22.687 10.021 40.503 23.731 53.447 41.129 12.944 17.258 19.486 36.883 19.625 58.874-.139 23.523-7.377 44.052-21.713 61.589-14.336 17.538-32.708 28.603-55.117 33.196v2.923c17.12 2.783 32.639 9.186 46.557 19.207 14.058 9.882 25.193 22.339 33.405 37.371 8.351 14.893 12.596 31.247 12.735 49.062-.139 23.105-7.307 43.774-21.504 62.007s-33.822 32.638-58.875 43.216c-24.914 10.439-53.446 15.659-85.598 15.659zm0-66.391c14.336 0 26.863-2.575 37.58-7.725 10.717-5.289 19.068-12.526 25.053-21.713 6.124-9.325 9.186-20.042 9.186-32.151 0-12.387-3.132-23.313-9.395-32.778-6.263-9.604-14.753-17.12-25.471-22.548-10.717-5.567-23.035-8.351-36.953-8.351-13.779 0-26.097 2.784-36.953 8.351-10.857 5.428-19.416 12.944-25.68 22.548-6.124 9.465-9.186 20.391-9.186 32.778 0 12.109 2.993 22.826 8.978 32.151 5.984 9.187 14.405 16.424 25.261 21.713 10.857 5.15 23.383 7.725 37.58 7.725zm0-191.03c11.97 0 22.617-2.436 31.943-7.307 9.325-4.872 16.632-11.622 21.921-20.252 5.289-8.629 7.934-18.581 7.934-29.855 0-11.134-2.645-20.877-7.934-29.228-5.289-8.49-12.526-15.102-21.712-19.834-9.187-4.871-19.904-7.307-32.152-7.307-12.109 0-22.826 2.436-32.151 7.307-9.326 4.732-16.633 11.344-21.922 19.834-5.15 8.351-7.725 18.094-7.725 29.228 0 11.274 2.645 21.226 7.934 29.855 5.289 8.63 12.596 15.38 21.921 20.252 9.326 4.871 19.973 7.307 31.943 7.307z" fill="#1a1a1a"/></g></svg>