<svg fill="none" height="200" viewBox="0 0 200 200" width="200" xmlns="http://www.w3.org/2000/svg" xmlns:xlink="http://www.w3.org/1999/xlink"><linearGradient id="a" gradientUnits="userSpaceOnUse" x1="162.633" x2="37.641" y1="47.306" y2="152.474"><stop offset="0" stop-color="#b6509e"/><stop offset="1" stop-color="#2ebac6"/></linearGradient><clipPath id="b"><path d="m0 0h200v200h-200z"/></clipPath><mask id="c" height="200" maskUnits="userSpaceOnUse" width="200" x="0" y="0"><path d="m200 0h-200v200h200z" fill="#fff"/></mask><g clip-path="url(#b)"><g mask="url(#c)"><path d="m100 184c46.392 0 84-37.608 84-84 0-46.3919-37.608-84-84-84-46.3919 0-84 37.6081-84 84 0 46.392 37.6081 84 84 84z" fill="url(#a)"/><path d="m142.45 138.65-32.8-79.3c-1.85-4.1-4.6-6.1-8.225-6.1h-2.9c-3.625 0-6.375 2-8.225 6.1l-14.275 34.55h-10.8c-3.225.025-5.85 2.625-5.875 5.875v.075c.025 3.225 2.65 5.85 5.875 5.875h5.8l-13.625 32.925c-.25.725-.4 1.475-.4 2.25 0 1.85.575 3.3 1.6 4.425s2.5 1.675 4.35 1.675c1.225-.025 2.4-.4 3.375-1.125 1.05-.725 1.775-1.775 2.35-2.975l15-37.2h10.4c3.225-.025 5.85-2.625 5.875-5.875v-.15c-.025-3.225-2.65-5.85-5.875-5.875h-5.55l11.45-28.525 31.2 77.6c.575 1.2 1.3 2.25 2.35 2.975.975.725 2.175 1.1 3.375 1.125 1.85 0 3.3-.55 4.35-1.675s1.6-2.575 1.6-4.425c.025-.75-.1-1.525-.4-2.225z" fill="#fff"/></g></g></svg>