<svg fill="none" height="200" viewBox="0 0 200 200" width="200" xmlns="http://www.w3.org/2000/svg" xmlns:xlink="http://www.w3.org/1999/xlink"><linearGradient id="a" gradientUnits="userSpaceOnUse" x1="59.955" x2="153.637" y1="84.828" y2="129.795"><stop offset="0" stop-color="#13577a"/><stop offset=".3173" stop-color="#5ab8aa"/><stop offset=".8563" stop-color="#8dc121"/></linearGradient><path d="m146.628 138.525h-10.849c-2.122 0-4.066-1.207-5.019-3.1-7.114-11.739-16.185-15.182-22.016-15.169v-11.891c5.082-.038 9.198 3.532 12.692 8.41l-21.432-42.8891-21.4705 42.9531c3.4937-4.904 7.6352-8.512 12.7296-8.474v11.891c-5.8439-.013-14.9528 3.443-22.0799 15.283-.9147 1.83-2.7822 2.986-4.8276 2.986h-10.9764c-.2667 0-.4446-.292-.3303-.534l39.4973-79.0325 4.9928-9.9855c1.0163-2.0327 3.913-2.0327 4.929 0l4.993 9.9855 39.497 79.0325c.127.254-.051.534-.33.534zm-42.661-33.488c-.686.457-1.435.8-2.058 1.321-1.054.864-1.639 2.134-1.9181 3.493-.559-2.388-2.5155-4.471-3.1126-7.063-.2667-1.156-.3684-2.363-.8892-3.4303-.6861-1.4101-2.0327-2.3883-3.3794-3.2014 1.0672 1.461 1.0545 3.4301.8131 5.2087-.2287 1.791-.6352 3.621-.1906 5.374.5717 2.274 2.452 3.938 4.2178 5.463.1398.114.2795.228.4193.355v11.078c1.2577 1.093 2.4897 2.224 3.7727 3.278v-13.759c4.04-2.96 5.285-6.098 5.692-7.355.597-1.842-.178-3.291 1.283-6.2126-2.541 1.2836-2.744 4.1796-4.65 5.4506z" fill="url(#a)"/></svg>