<svg fill="none" height="200" viewBox="0 0 200 200" width="200" xmlns="http://www.w3.org/2000/svg" xmlns:xlink="http://www.w3.org/1999/xlink"><linearGradient id="a" gradientUnits="userSpaceOnUse" x1="70.6144" x2="148.941" y1="21.0487" y2="178.746"><stop offset="0" stop-color="#d4bdeb"/><stop offset="1" stop-color="#8561a9"/></linearGradient><linearGradient id="b" gradientUnits="userSpaceOnUse" x1="66.7819" x2="161.049" y1="20.7255" y2="171.553"><stop offset="0" stop-color="#f9f4ff"/><stop offset="1" stop-color="#c9b0e7"/></linearGradient><linearGradient id="c" gradientUnits="userSpaceOnUse" x1="83.9365" x2="83.9365" y1="47.6139" y2="147.214"><stop offset="0" stop-color="#4d2d78"/><stop offset="1" stop-color="#8561a9"/></linearGradient><linearGradient id="d" gradientUnits="userSpaceOnUse" x1="113.419" x2="113.419" y1="43.7403" y2="147.63"><stop offset="0" stop-color="#8561a9"/><stop offset="1" stop-color="#4d2d78"/></linearGradient><mask id="e" height="168" maskUnits="userSpaceOnUse" width="166" x="17" y="17"><path d="m182.897 17h-165.7945v168h165.7945z" fill="#fff"/></mask><g mask="url(#e)"><path d="m99.8988 178.746c43.5472 0 78.8492-35.302 78.8492-78.8485 0-43.547-35.302-78.8488-78.8492-78.8488-43.547 0-78.8488 35.3018-78.8488 78.8488 0 43.5465 35.3018 78.8485 78.8488 78.8485z" fill="url(#a)"/><path d="m99.8977 164.432c36.0563 0 65.2863-29.229 65.2863-65.286 0-36.0567-29.23-65.2864-65.2863-65.2864-36.0567 0-65.2864 29.2297-65.2864 65.2864 0 36.057 29.2297 65.286 65.2864 65.286z" fill="url(#b)"/><path d="m95.114 58.9155c-.3391-1.0574-.3188-2.1972.0577-3.2418v.0352l-26.9524 76.8501c-.2487.634-.3671 1.311-.3476 1.992.0192.681.1759 1.351.4601 1.97.2841.619.6906 1.174 1.1944 1.633.5039.458 1.095.81 1.7381 1.035.6431.224 1.3249.317 2.0047.272s1.3433-.227 1.9512-.534 1.1476-.734 1.5866-1.255c.4392-.521.7688-1.125.9691-1.775l22.1629-63.2261-4.78-13.6146c-.0159-.0415-.0319-.0927-.0448-.1408z" fill="url(#c)"/><path d="m131.673 132.551-26.952-76.8459c-.016-.0482-.035-.093-.051-.1411-.467-1.2377-1.399-2.2438-2.597-2.803-1.199-.5591-2.5686-.6271-3.8165-.1894-1.2481.438-2.2752 1.3468-2.8613 2.5323-.5864 1.1855-.6853 2.5534-.2758 3.811 0 .0479.0288.0927.0448.1408l26.9528 76.8403c.463 1.242 1.396 2.254 2.597 2.816 1.201.563 2.574.632 3.826.193 1.251-.439 2.281-1.352 2.867-2.542.586-1.189.681-2.562.266-3.821z" fill="url(#d)"/><path d="m102.567 99.8983h-4.2259c-.5544 0-1.1036.1087-1.6158.3217-.5123.212-.9779.523-1.37.915s-.7031.857-.9152 1.37c-.2123.512-.3214 1.061-.3214 1.615.0116 1.117.46 2.185 1.2491 2.975.7893.79 1.8564 1.24 2.9733 1.254 1.4416.043 2.8499.043 4.2259 0 2.377-.09 4.219-1.893 4.219-4.222.001-.555-.108-1.104-.319-1.617-.212-.513-.523-.979-.914-1.372-.392-.392-.858-.704-1.37-.917s-1.061-.3223-1.616-.3227z" fill="#7a559f"/><path d="m99.8978 167.629c37.5722 0 68.0302-30.458 68.0302-68.0304 0-37.5723-30.458-68.0306-68.0302-68.0306-37.5723 0-68.0306 30.4583-68.0306 68.0306 0 37.5724 30.4583 68.0304 68.0306 68.0304z" stroke="#5d4286" stroke-width="30.6684"/><g fill="#fff"><path d="m142.005 156.913-.39-.591c-.081.031-.16.058-.24.083-.078.02-.151.037-.22.05-.068.008-.126.013-.176.014l-.159-.511c.082-.013.179-.032.291-.056.11-.027.223-.06.338-.1.116-.045.222-.098.317-.162.143-.094.252-.189.326-.283.075-.095.116-.188.123-.28.009-.097-.015-.189-.071-.274-.061-.092-.145-.151-.253-.175-.108-.025-.237-.031-.388-.018-.15.008-.317.025-.501.05-.171.018-.334.029-.489.036-.154.002-.299-.01-.434-.035-.132-.027-.253-.072-.364-.136-.109-.069-.205-.165-.286-.289-.116-.175-.17-.363-.161-.565.011-.204.09-.402.237-.594l-.362-.548.329-.3.349.529c.022-.014.045-.029.067-.044.02-.018.041-.034.063-.049.026-.016.052-.032.08-.045.025-.017.05-.031.074-.043l-.314-.476.338-.306.403.61c.079-.025.157-.045.235-.06.077-.014.149-.025.217-.033l.107.545c-.082.008-.167.021-.255.038-.086.016-.175.043-.268.082-.092.033-.188.082-.286.147-.159.105-.271.225-.337.36-.068.132-.06.261.024.388.062.095.147.158.254.188.104.027.23.035.378.024.151-.013.325-.03.521-.05.166-.019.325-.03.477-.035.153-.01.296-.004.429.018s.256.066.369.133c.11.064.208.161.295.291.117.178.171.37.162.577-.012.204-.089.403-.234.599l.409.619-.371.246-.356-.538c-.036.028-.072.056-.108.085-.033.026-.07.053-.111.08l-.057.038.346.524z"/><path d="m145.512 151.55-.875.743-.549-1.519zm-2.194-1.268 1.382 3.92.483-.41-.353-.981 1.17-.994.953.54.428-.484-3.636-1.954z"/><path d="m149.466 149.277-1.264 1.198-2.325-2.453-.46.436 2.67 2.818 1.787-1.693z"/><path d="m149.619 144.328-2.119 2.271.372.347.833-.894 2.468 2.302.444-.476-2.468-2.302.907-.972z"/><path d="m154.955 144.179-.445-.253-1.207 1.409-.92-.787.907-1.058-.449-.257-.843.984-.88-.754 1.11-1.297-.444-.253-1.461 1.704 2.949 2.526z"/><path d="m153.773 140.213c.102-.142.209-.251.32-.326.107-.077.219-.116.337-.115.119-.003.245.043.378.139.129.094.208.2.235.318.029.116.025.239-.014.371-.04.126-.106.254-.2.383l-.294.408-1.06-.767zm-1.104.611 3.146 2.275.371-.514-1.226-.887.251-.347c.034-.046.07-.097.111-.152.037-.058.067-.107.091-.146l1.73.209.402-.556-1.937-.216c.043-.209.033-.413-.029-.613-.065-.202-.199-.377-.403-.524-.222-.16-.441-.237-.658-.229-.217.007-.425.08-.623.218-.202.136-.384.317-.547.542z"/><path d="m62.7383 38.4009.345.6183c.0823-.0242.164-.0458.2449-.0649.0794-.0138.154-.0248.2236-.0331.0679-.0031.1267-.0032.1763-.0003l.1208.5211c-.0832.0071-.1817.0184-.2951.0338-.1116.0187-.2262.0435-.3442.0744-.1193.0361-.2289.082-.3286.1376-.1497.0835-.2649.1697-.3462.2586-.0811.0888-.129.1788-.1435.2698-.0162.0961.0008.1891.0509.2788.0537.0964.1333.161.2388.1937.1054.0327.234.0481.3855.0464.1501.0034.3178-.0008.5031-.0126.1718-.0044.3356-.0042.4908.0007.1537.0101.297.0325.4299.0674.1294.0367.2469.091.3524.163.1042.077.1922.1804.2647.31.102.1828.1413.3744.118.5748-.0265.2023-.12.3942-.2805.5752l.32.5735-.3505.2739-.309-.5534c-.0234.0131-.0465.026-.0698.0389-.0213.0164-.0438.0311-.067.044-.0266.0148-.054.0281-.0825.0395-.0266.015-.0526.0271-.0776.0369l.2783.4985-.3606.2797-.3563-.6382c-.0808.0189-.1603.0328-.2383.0414s-.1509.0145-.2191.0176l-.0659-.5516c.0817-.002.1675-.0086.2574-.0194.0864-.009.1775-.0293.2733-.0611.0942-.0264.1929-.0683.2959-.1259.1662-.0927.2872-.2037.3632-.3333.0778-.1263.0794-.2559.0053-.3888-.0557-.0997-.1355-.1685-.2393-.2064-.1022-.0346-.2273-.0519-.3757-.052-.1516.0018-.326.0054-.5234.011-.1668.0059-.3261.0054-.4781-.0013-.1535-.0016-.2956-.0181-.4266-.0497-.1309-.0315-.25-.0849-.3575-.1601-.1055-.0719-.1962-.176-.2723-.3123-.1039-.1861-.1434-.382-.1188-.5876.0266-.2023.1194-.3957.278-.5801l-.3617-.6482.3888-.217.3145.5634c.038-.0256.0759-.0512.114-.0767.0348-.0238.0737-.0477.1169-.0718l.0598-.0334-.3061-.5485z"/><path d="m58.8395 43.486.9279-.6752.4333 1.5561zm2.0923 1.4292-1.0845-4.0129-.5125.373.2791 1.0046-1.2418.9037-.9095-.6093-.4633.4502 3.48 2.2201z"/><path d="m54.7274 45.4573 1.3501-1.1001 2.1353 2.6205.4914-.4005-2.4526-3.0099-1.9078 1.5544z"/><path d="m54.2049 50.3816 2.2827-2.1066-.3446-.3735-.898.8288-2.2885-2.4801-.4785.4417 2.2887 2.4799-.9777.9021z"/><path d="m48.8728 50.1309.4246.2858 1.3094-1.3151.8577.8542-.983.9873.4285.2897.9146-.9185.8215.818-1.2048 1.2096.4247.2858 1.5833-1.59-2.7514-2.7397z"/><path d="m49.7546 54.1746c-.1131.1337-.2275.234-.3434.3006-.113.069-.2279.0989-.3448.0899-.1194-.006-.2416-.0619-.3667-.1673-.1222-.1032-.1924-.2148-.2107-.3348-.0209-.1171-.0069-.2397.0416-.3681.0491-.1231.1251-.2457.2283-.3679l.3239-.3839.9994.8431zm1.1465-.5268-2.9675-2.5036-.4087.4842 1.1564.9758-.2762.3274c-.0367.0436-.0772.0915-.1214.1439-.0414.0549-.0752.101-.1018.1382l-1.71-.3372-.4419.5238 1.9146.3603c-.0581.205-.0639.4093-.0168.6134.05.2064.1708.3907.3628.5526.2095.1767.4226.2695.6395.2781.2168.0086.4295-.0485.6379-.1716.2113-.1204.4065-.287.5856-.4994z"/><path d="m161.493 62.9447-.62.3427c.024.0823.045.1642.064.2451.013.0796.024.1542.032.2236.003.0682.003.1269 0 .1765l-.522.1187c-.007-.0833-.017-.1816-.032-.2952-.019-.1116-.043-.2265-.074-.3446-.035-.1194-.081-.2291-.136-.329-.083-.1499-.168-.2656-.257-.3473-.088-.0815-.178-.1296-.269-.1447-.096-.0164-.189.0002-.279.0499-.097.0535-.162.1329-.195.2381-.033.1053-.049.2339-.048.3854-.004.15 0 .3177.011.503.004.172.003.3356-.003.4908-.01.1538-.034.2971-.069.4298-.037.1292-.092.2465-.164.3517-.078.1038-.181.1915-.311.2633-.184.1014-.375.1401-.576.1159-.202-.0274-.393-.1216-.574-.283l-.574.3178-.273-.3515.555-.3067c-.013-.0234-.026-.0467-.039-.0701-.016-.0213-.031-.0438-.044-.0671-.014-.0266-.028-.0543-.039-.0827-.015-.0267-.027-.0525-.036-.0776l-.5.2762-.278-.3616.639-.3536c-.018-.0811-.032-.1605-.04-.2385-.009-.0781-.014-.1511-.017-.2191l.552-.0639c.002.0817.008.1675.018.2574.009.0866.029.1777.06.2735.026.0944.068.1931.125.2965.092.1664.203.2881.332.3644.126.0782.255.0805.389.007.1-.0553.169-.1349.207-.2388.035-.1019.053-.227.053-.3752-.001-.1516-.004-.3262-.008-.5236-.006-.1669-.005-.3261.003-.4781.002-.1533.019-.2956.051-.4262.032-.1309.086-.2498.162-.3569.072-.1053.176-.1958.313-.2711.187-.1032.383-.1421.588-.1165.202.0274.395.1208.579.2801l.65-.3591.215.3898-.564.3122c.025.0381.05.0762.076.1143.023.0348.047.0739.071.1173l.033.0598.55-.3039z"/><path d="m156.422 59.0267.672.9306-1.558.4273zm-1.437 2.0868 4.017-1.0688-.371-.5139-1.005.2752-.899-1.2455.612-.907-.448-.465-2.234 3.4712z"/><path d="m154.468 54.9059 1.095 1.3544-2.629 2.1249.399.493 3.019-2.4408-1.547-1.914z"/><path d="m149.546 54.3641 2.097 2.291.375-.3432-.825-.9011 2.489-2.2788-.44-.4801-2.489 2.2788-.898-.9814z"/><path d="m149.817 49.0326-.287.4234 1.31 1.3145-.858.8546-.983-.9871-.292.4275.915.9181-.821.8182-1.205-1.2093-.287.4234 1.584 1.5895 2.75-2.7405z"/><path d="m145.77 49.8993c-.134-.1134-.233-.2283-.299-.3444-.069-.1132-.098-.2283-.089-.3452.006-.1193.063-.2414.169-.366.103-.1219.215-.1917.335-.2095.117-.0203.24-.0057.368.0432.123.0495.245.1261.367.2297l.383.3254-.847.9961zm.522 1.1489 2.515-2.9578-.482-.4107-.981 1.1527-.326-.2774c-.043-.0371-.091-.0776-.143-.1221-.055-.0415-.101-.0755-.138-.1023l.343-1.7089-.521-.4438-.368 1.9133c-.205-.0592-.409-.0655-.614-.0192-.206.0489-.391.1693-.554.3605-.177.2089-.271.4216-.28.6384-.01.2168.047.4298.169.6386.12.2117.285.4077.497.5876z"/><path d="m41.2334 140.288.5987-.378c-.0286-.081-.0546-.161-.078-.241-.0182-.078-.0332-.152-.0452-.221-.0068-.068-.0101-.126-.0099-.176l.5137-.149c.0117.083.0283.18.0498.293.0248.11.0557.223.0929.339.0426.118.0944.225.1552.321.0916.145.1839.256.2771.332.0931.076.1855.119.2772.128.0968.011.1888-.011.2756-.065.0933-.059.1535-.142.1804-.249.027-.108.0354-.237.0256-.388-.0048-.15-.0181-.317-.04-.501-.0137-.172-.0223-.335-.0258-.491.0017-.154.0164-.298.0441-.433.0294-.131.0773-.251.1435-.36.0712-.108.1697-.202.2952-.281.1771-.112.3663-.162.5678-.15.2033.016.3999.099.5892.25l.5553-.351.2928.335-.536.339c.0143.022.0284.045.0428.067.0174.021.0331.042.0475.065.0161.025.0309.052.0438.08.0164.026.0299.051.0409.075l.4828-.304.2988.345-.618.39c.0234.079.0416.158.0545.235.0127.078.0225.15.0293.218l-.5473.096c-.0064-.082-.0174-.167-.0332-.256-.0137-.086-.0389-.176-.0757-.27-.0316-.092-.0787-.188-.1417-.288-.1016-.161-.2193-.276-.3526-.345-.1304-.071-.2598-.065-.3886.016-.0966.061-.1609.144-.1931.25-.0291.104-.0395.23-.0315.378.0098.151.0231.325.0393.522.0149.166.0231.326.0246.478.0067.153-.0021.296-.0264.428-.0244.133-.0713.255-.1407.366-.0659.109-.165.205-.2971.289-.1802.113-.3737.164-.5802.15-.2036-.015-.4015-.098-.5944-.246l-.6276.396-.2377-.376.5455-.345c-.0277-.036-.0551-.073-.0828-.109-.0255-.034-.0515-.072-.078-.113l-.0366-.058-.5311.335z"/><path d="m46.5219 143.906-.7246-.89 1.5303-.517zm1.3136-2.167-3.9483 1.3.4003.492.9879-.333.9697 1.191-.559.941.4746.438 2.0282-3.595z"/><path d="m48.7135 147.905-1.1717-1.288 2.5009-2.274-.4263-.469-2.8727 2.612 1.6555 1.821z"/><path d="m53.658 148.16-2.227-2.165-.3542.364.8761.852-2.3523 2.42.4668.453 2.3521-2.419.9539.927z"/><path d="m53.6969 153.499.2623-.44-1.3839-1.236.8063-.903 1.0391.928.2662-.444-.9668-.863.7723-.864 1.2731 1.137.2625-.44-1.6736-1.494-2.5866 2.895z"/><path d="m57.6875 152.398c.1398.106.2459.214.3188.327.0749.109.1111.222.1085.339.0004.12-.0488.245-.1474.375-.0963.128-.204.204-.3227.229-.1159.027-.2392.02-.37-.022-.1255-.042-.252-.111-.3796-.208l-.4011-.302.7879-1.044zm-.5881-1.116-2.3394 3.099.5059.381.9118-1.207.3417.258c.0457.034.0956.072.1503.113.0571.039.105.07.1437.094l-.244 1.726.5468.413.2562-1.931c.2076.047.4119.041.6132-.017.2035-.061.3808-.191.5323-.392.165-.219.2461-.437.2429-.654-.0031-.217-.0717-.426-.2058-.627-.1319-.205-.3088-.391-.5305-.558z"/></g></g></svg>