<svg fill="none" height="200" viewBox="0 0 200 200" width="200" xmlns="http://www.w3.org/2000/svg"><path d="m50.5864 75.6712v47.2948c0 3.019 1.6134 5.812 4.227 7.317l40.9587 23.652c2.6133 1.505 5.8309 1.505 8.4449 0l40.959-23.652c2.613-1.505 4.227-4.298 4.227-7.317v-47.2948c0-3.0194-1.614-5.8118-4.227-7.3166l-40.959-23.6523c-2.614-1.5048-5.8316-1.5048-8.4449 0l-40.9685 23.6523c-2.6137 1.5048-4.2172 4.2972-4.2172 7.3166z" fill="#213147"/><path d="m108.93 108.492-5.841 16.018c-.158.446-.158.931 0 1.377l10.048 27.562 11.623-6.712-13.95-38.245c-.317-.881-1.564-.881-1.881 0z" fill="#12aaff"/><path d="m120.643 81.5522c-.317-.881-1.564-.881-1.881 0l-5.841 16.0184c-.158.4454-.158.9311 0 1.3766l16.463 45.1258 11.623-6.712-20.365-55.8088z" fill="#12aaff"/><path d="m99.9901 46.4746c.2879 0 .5749.079.8319.2183l44.324 25.5925c.514.2972.832.851.832 1.4357v51.1749c0 .595-.318 1.139-.832 1.436l-44.324 25.592c-.248.148-.544.219-.8319.219-.2871 0-.5746-.079-.8312-.219l-44.3246-25.573c-.5144-.297-.8314-.851-.8314-1.435v-51.1851c0-.5945.317-1.1384.8314-1.4357l44.3246-25.5925c.2579-.148.5441-.2281.8312-.2281zm0-7.4746c-1.5736 0-3.1587.4058-4.5736 1.2273l-44.3146 25.5826c-2.8319 1.6331-4.5736 4.6537-4.5736 7.9199v51.1752c0 3.267 1.7428 6.287 4.5736 7.92l44.3245 25.592c1.4161.812 2.9901 1.228 4.5736 1.228 1.584 0 3.159-.406 4.574-1.228l44.324-25.592c2.832-1.633 4.574-4.654 4.574-7.92v-51.1752c0-3.2673-1.743-6.2868-4.574-7.9199l-44.334-25.5826c-1.416-.8215-3-1.2273-4.5739-1.2273z" fill="#9dcced"/><path d="m70.6753 144.133 4.0789-11.167 8.2072 6.821-7.673 7.009z" fill="#213147"/><g fill="#fff"><path d="m96.2575 70.0676h-11.2366c-.8411 0-1.5938.5243-1.8809 1.3173l-24.0878 66.0351 11.6227 6.713 26.5236-72.7185c.2481-.6537-.2381-1.3469-.941-1.3469z"/><path d="m115.919 70.0676h-11.236c-.841 0-1.594.5243-1.881 1.3173l-27.5032 75.4021 11.6227 6.712 29.9395-82.0845c.238-.6537-.248-1.3469-.942-1.3469z"/></g></svg>