<svg width="400" height="400" viewBox="0 0 400 400" fill="none" xmlns="http://www.w3.org/2000/svg">
<path d="M158.92 60.897C164.031 58.887 169.142 56.877 174.646 55.311C177.598 62.7163 179.991 69.7444 182.756 76.6231C187.012 87.2114 191.455 97.7263 196.015 108.187C196.542 109.398 198.311 110.068 199.591 111.426C199.767 114.234 199.855 116.606 199.886 119.446C199.892 128.274 199.954 136.634 199.937 145.427C199.902 147.905 199.946 149.951 199.83 152.269C199.553 153.375 199.436 154.211 198.934 155.022C197.353 153.805 195.697 152.823 195.037 151.384C191.532 143.741 188.199 136.015 184.95 128.258C176.279 107.562 167.646 86.8504 159.131 66.0906C158.513 64.584 158.965 62.6384 158.92 60.897Z" fill="#D7B501"/>
<path d="M274.937 73.9454C275.14 73.9553 275.343 73.9651 275.986 74.276C276.858 74.7098 277.29 74.8426 277.723 74.9754C277.723 74.9754 277.952 74.8936 278.221 75.1937C279.028 75.632 279.568 75.7701 280.107 75.9083C280.107 75.9083 280.563 75.8864 280.837 76.3465C281.972 77.7906 282.834 78.7733 283.693 79.7589C293.055 90.4974 302.42 101.233 311.767 111.985C312.182 112.461 312.657 113.054 312.724 113.637C313.637 121.574 320.1 123.956 325.953 126.956C326.003 132.324 326.054 137.693 325.654 143.514C323.945 143.284 322.431 142.853 321.472 141.876C317.342 137.674 313.354 133.332 309.359 128.999C307.779 127.286 306.387 125.081 303.67 127.918C289.201 111.484 274.948 95.2342 260.989 78.7364C257.512 74.6272 254.982 69.7169 252.016 65.1748C258.814 67.6965 265.612 70.2182 272.911 73.1266C273.92 73.6572 274.428 73.8013 274.937 73.9454Z" fill="#B802D2"/>
<path d="M175.964 346.834C168.953 346.891 161.943 346.947 154.486 346.566C154.391 345.212 154.604 344.209 155.116 343.392C164.465 328.454 173.982 313.62 183.177 298.588C188.705 289.551 193.741 280.213 199.338 270.946C200.516 270.143 201.513 269.523 202.171 268.649C210.883 257.074 219.548 245.464 228.449 233.85C228.673 233.837 229.03 234.109 228.957 234.452C224.6 242.679 220.281 250.544 216.04 258.451C211.964 266.047 206.665 273.292 204.219 281.391C199.605 296.668 192.584 310.624 185.153 324.583C181.41 331.614 176.346 338.327 175.964 346.834Z" fill="#00E6EE"/>
<path d="M176.403 346.918C176.346 338.327 181.41 331.614 185.153 324.583C192.584 310.624 199.605 296.668 204.219 281.391C206.665 273.292 211.964 266.047 216.04 258.451C220.281 250.544 224.6 242.679 229.318 234.452C233.839 235.754 237.925 237.401 241.854 239.36C236.279 249.144 230.761 258.56 225.466 268.1C214.589 287.693 203.719 307.29 193.091 327.018C189.649 333.409 186.973 340.212 183.946 346.826C181.578 346.884 179.21 346.943 176.403 346.918Z" fill="#01F0DC"/>
<path d="M317.196 284.077C312.185 292.303 307.174 300.53 301.465 308.932C289.082 309.315 279.78 313.369 274.997 324.895C274.174 326.877 272.827 328.637 271.956 330.604C269.569 335.991 267.307 341.433 264.995 346.854C260.643 346.898 256.29 346.942 251.496 346.551C252.639 342.677 254.162 339.209 255.817 335.806C260.8 325.552 265.683 315.245 270.928 305.127C272.803 301.511 275.602 298.375 277.981 295.4C278.158 297.001 278.335 298.22 278.512 299.44C278.98 299.793 279.449 300.146 279.918 300.5C285.731 295.335 292.222 290.732 297.126 284.814C300.584 280.641 303.769 278.289 309.407 278.961C312.241 280.703 314.718 282.39 317.196 284.077Z" fill="#D4EF02"/>
<path d="M100.909 82.7278C102.656 82.0654 104.403 81.4029 106.534 81.1552C108.195 85.9921 109.282 90.4803 110.785 94.8245C116.152 110.336 121.583 125.826 127.137 141.271C131.907 154.535 137.052 167.665 141.721 180.964C148.253 199.574 154.497 218.284 160.546 237.083C158.473 237.836 156.718 238.459 154.757 238.793C150.7 227.489 146.877 216.464 142.989 205.462C140.631 198.791 138.302 192.102 135.655 185.544C135.089 184.141 133.203 183.271 131.925 182.156C130.93 183.334 129.868 184.465 128.968 185.712C128.496 186.365 128.307 187.222 127.622 187.975C126.327 187.693 124.945 187.72 124.542 187.106C121.089 181.842 116.567 183.656 111.806 185.005C111.352 185.014 111.171 185.025 110.69 184.879C108.604 183.522 106.817 182.323 105.051 180.743C106.123 178.927 107.174 177.491 108.591 176.065C111.001 176.675 113.056 177.242 115.089 177.879C120.626 179.613 121.716 178.842 121.979 172.946C122.023 171.962 122.056 170.976 122.514 169.992C129.963 169.945 130.093 169.905 128.025 163.322C124.744 152.882 121.36 142.471 117.849 132.106C114.916 123.447 111.668 114.896 108.692 106.251C106.004 98.4421 103.496 90.5713 100.909 82.7278Z" fill="#17E6B5"/>
<path d="M140.12 67.9721C143.481 66.6337 146.842 65.2953 150.857 64.1367C152.552 65.9963 153.879 67.5642 154.587 69.3741C158.989 80.6215 163.245 91.926 167.564 103.206C173.905 119.77 180.327 136.304 186.566 152.906C188.627 158.391 190.23 164.048 191.602 169.73C188.466 169.796 185.77 169.758 182.985 169.374C175.995 152.182 169.247 135.27 162.15 118.507C154.987 101.585 147.478 84.8109 140.12 67.9721Z" fill="#D4D136"/>
<path d="M145.003 346.842C144.248 346.897 143.493 346.952 142.367 346.535C142.197 344.764 142.142 343.357 142.637 342.182C148.898 327.353 155.406 312.625 161.495 297.726C165.168 288.737 168.221 279.495 171.587 270.273C169.406 269.562 168.292 269.198 167.275 268.867C167.576 266.656 167.821 264.856 168.378 262.938C175.514 252.066 182.377 241.338 189.081 230.511C189.59 229.689 188.966 228.166 189.096 226.68C192.554 225.219 195.785 224.046 199.377 222.934C201.808 223.636 203.88 224.278 206.197 225.104C206.972 225.598 207.5 225.908 207.951 226.549C201.727 237.887 196.026 249.171 189.341 259.839C176.296 280.659 163 301.288 154.24 324.432C151.381 331.986 148.094 339.377 145.003 346.842Z" fill="#02B8F0"/>
<path d="M139.733 67.9713C147.478 84.8109 154.987 101.585 162.15 118.507C169.247 135.27 175.995 152.182 182.581 169.466C181.167 169.958 180.067 170.012 178.56 170.026C176.787 169.935 175.422 169.884 174.034 169.436C173.856 167.563 174.057 165.928 173.485 164.635C170.012 156.782 166.681 148.84 162.699 141.244C156.347 129.127 149.411 117.319 142.956 105.255C140.464 100.597 138.67 95.5712 136.424 90.7758C135.91 89.6801 134.844 88.8435 133.967 87.5208C132.339 82.1145 130.777 77.075 129.214 72.0354C132.592 70.6805 135.969 69.3255 139.733 67.9713Z" fill="#D4E76B"/>
<path d="M207.122 48.0885C211.161 49.562 215.2 51.0356 219.195 52.8364C219.134 54.3071 218.645 55.7646 219.167 56.547C227.543 69.0903 235.967 81.6027 244.548 94.0064C251.15 103.551 257.865 113.023 264.751 122.365C272.422 132.77 280.344 142.991 288.071 153.607C286.637 155.942 285.289 157.961 283.607 159.919C282.717 159.518 282.016 159.297 281.626 158.821C272.407 147.578 263.221 136.308 254.011 124.658C253.38 122.571 253.023 120.716 252.109 119.196C248.608 113.377 245.1 107.548 241.282 101.936C231.29 87.247 221.027 72.7418 211.134 57.9879C209.193 55.0929 208.429 51.4087 207.122 48.0885Z" fill="#B3D4D4"/>
<path d="M73.2639 145.014C73.2212 133.986 73.1786 122.958 73.5243 111.598C75.0004 113.067 75.8121 115.129 77.2253 116.622C82.2362 121.913 87.2896 127.188 92.6615 132.103C95.2342 134.458 98.5573 135.992 101.742 138.078C102.278 138.885 102.612 139.513 103.009 140.416C103.411 141.126 103.75 141.56 104.349 142.203C106.37 145.364 108.13 148.317 109.804 151.592C104.91 154.922 100.101 157.93 94.8088 160.951C89.8651 161.061 85.4043 161.156 80.9206 160.889C80.2398 159.544 79.5817 158.562 78.9413 157.229C77.0605 152.924 75.1622 148.969 73.2639 145.014Z" fill="#B3D4D4"/>
<path d="M206.843 47.8802C208.429 51.4088 209.193 55.093 211.134 57.988C221.027 72.7419 231.29 87.247 241.282 101.936C245.1 107.548 248.608 113.377 252.109 119.196C253.023 120.716 253.38 122.571 253.738 124.504C252.328 124.815 251.172 124.895 249.676 124.92C248.158 123.995 246.762 123.31 245.837 122.224C237.397 112.325 229.078 102.323 220.614 92.4448C219.389 91.0159 217.583 90.0854 216.026 88.5627C214.706 85.5467 213.827 82.5544 212.02 80.3082C208.264 75.6397 204.017 71.3668 199.902 66.4715C199.765 59.3308 199.699 52.65 200.075 45.8747C200.817 45.7772 201.118 45.7742 201.418 45.7711C203.134 46.4047 204.849 47.0383 206.843 47.8802Z" fill="#B4ECD1"/>
<path d="M325.928 237.986C325.975 242.667 326.022 247.349 325.621 252.485C323.488 252.296 321.678 251.866 320.136 250.973C307.344 243.563 294.609 236.052 281.822 228.631C281.017 228.164 279.922 228.195 278.886 227.56C278.635 225.085 278.458 223.046 278.412 220.559C278.636 215.408 278.73 210.704 279.206 206.01C281.48 206.933 283.764 207.441 285.194 208.829C291.398 214.853 299.527 217.274 307.143 221.271C311.943 225.979 316.518 230.454 321.223 234.789C322.602 236.06 324.35 236.931 325.928 237.986Z" fill="#01F1B9"/>
<path d="M199.633 45.9692C199.699 52.65 199.765 59.3308 199.812 66.9341C199.846 71.5924 199.9 75.3282 199.867 79.4686C199.808 81.5324 199.835 83.1916 199.825 85.3327C199.819 93.4736 199.851 101.133 199.817 109.158C199.67 110.013 199.587 110.501 199.504 110.989C198.311 110.068 196.542 109.398 196.015 108.187C191.455 97.7263 187.012 87.2114 182.756 76.6231C179.991 69.7444 177.598 62.7163 175.028 55.358C182.606 51.9241 190.193 48.8872 198.421 45.8792C199.252 45.9284 199.442 45.9488 199.633 45.9692Z" fill="#E4B503"/>
<path d="M100.533 82.7689C103.496 90.5714 106.004 98.4422 108.692 106.251C111.668 114.896 114.916 123.447 117.849 132.106C121.36 142.471 124.744 152.882 128.025 163.322C130.093 169.905 129.963 169.945 122.415 169.656C119.622 165.834 117.348 162.349 114.933 158.586C114.183 157.216 113.573 156.124 113.201 154.755C112.321 149.718 111.61 144.817 110.014 140.222C103.802 122.339 97.3092 104.553 90.921 86.7315C93.9996 85.4243 97.0781 84.1171 100.533 82.7689Z" fill="#02DFB8"/>
<path d="M145.414 346.922C148.094 339.377 151.381 331.986 154.24 324.432C163 301.288 176.296 280.659 189.342 259.839C196.026 249.171 201.727 237.887 208.295 226.573C211.193 227.39 213.67 228.515 216.071 230.008C208.301 242.793 200.475 255.132 192.962 267.658C188.688 274.783 185.371 282.505 180.842 289.448C170.863 304.747 160.233 319.64 153.212 336.647C151.857 339.929 151.057 343.441 150.001 346.847C148.609 346.898 147.218 346.95 145.414 346.922Z" fill="#00C8F1"/>
<path d="M184.385 346.915C186.973 340.212 189.649 333.409 193.091 327.018C203.719 307.29 214.589 287.693 225.466 268.1C230.761 258.56 236.279 249.144 242.214 239.354C245.154 240.042 247.576 241.048 249.774 242.303C246.472 247.248 243.105 251.781 240.366 256.667C227.803 279.079 215.318 301.537 203.021 324.097C198.993 331.488 195.616 339.234 191.941 346.818C189.569 346.88 187.197 346.942 184.385 346.915Z" fill="#01F1B9"/>
<path d="M326.03 126.497C320.1 123.956 313.637 121.574 312.724 113.637C312.657 113.054 312.182 112.461 311.767 111.985C302.42 101.233 293.055 90.4974 283.693 79.7588C282.834 78.7733 281.972 77.7906 281.021 76.4827C294.858 81.3523 308.761 86.6147 322.735 91.678C325.357 92.628 326.292 93.913 326.24 96.7032C326.055 106.479 326.131 116.26 326.03 126.497Z" fill="#C600D2"/>
<path d="M103.712 317.673C100.118 312.124 96.5233 306.574 93.0107 300.368C101.862 287.194 107.052 273.567 106.3 257.789C111.387 255.661 116.194 253.755 121.165 251.906C121.33 251.962 121.654 252.09 121.669 252.55C121.621 261.998 121.558 270.985 121.158 280C119.827 280.804 118.512 281.382 117.888 282.388C111.111 293.316 105.583 304.766 103.712 317.673Z" fill="#D4B5C0"/>
<path d="M118.188 76.1613C119.541 75.7456 120.893 75.3298 122.625 75.1677C123.015 75.6145 123.025 75.8076 123.079 76.3383C124.072 77.7806 125.021 78.8853 125.98 80.3676C126.002 81.5005 126.013 82.2559 126.081 83.381C130.168 95.335 134.194 106.921 138.233 118.503C141.603 128.162 145.019 137.806 148.359 147.476C151.965 157.913 155.506 168.374 159.078 178.823C160.733 183.666 162.396 188.505 164.053 193.347C168.343 205.892 172.632 218.437 176.92 231.118C176.919 231.253 176.923 231.524 176.569 231.635C174.808 232.122 173.401 232.499 171.994 232.484C171.32 229.705 170.72 227.294 169.959 224.936C167.972 218.785 165.949 212.645 163.88 206.522C160.006 195.059 156.282 183.54 152.137 172.175C147.776 160.215 142.74 148.499 138.463 136.512C133.101 121.487 128.2 106.297 123.121 91.1709C121.445 86.1785 119.831 81.1651 118.188 76.1613Z" fill="#A2F3AF"/>
<path d="M288.157 153.292C280.344 142.991 272.422 132.77 264.751 122.365C257.865 113.023 251.15 103.551 244.548 94.0064C235.967 81.6028 227.543 69.0903 219.168 56.547C218.645 55.7647 219.134 54.3071 219.447 53.0594C222.327 53.8817 224.913 54.8082 227.821 56.2734C228.622 57.8633 228.948 59.0229 229.604 59.9496C246.722 84.1425 263.764 108.391 281.116 132.416C284.518 137.125 289.141 140.953 293.103 145.509C291.707 148.191 290.408 150.552 288.87 153.008C288.473 153.165 288.315 153.228 288.157 153.292Z" fill="#B4B4D2"/>
<path d="M150.397 346.927C151.057 343.441 151.857 339.929 153.212 336.647C160.233 319.64 170.863 304.747 180.842 289.448C185.371 282.505 188.688 274.783 192.962 267.658C200.475 255.132 208.301 242.793 216.426 230.039C217.891 230.181 218.925 230.661 219.952 231.503C215.759 239.699 211.578 247.533 207.389 255.363C204.598 260.582 201.796 265.794 198.999 271.01C193.741 280.213 188.705 289.551 183.177 298.588C173.982 313.62 164.465 328.454 155.116 343.392C154.604 344.209 154.391 345.212 154.024 346.487C152.937 346.899 151.865 346.953 150.397 346.927Z" fill="#01D7EF"/>
<path d="M117.856 76.1587C119.831 81.1652 121.445 86.1786 123.121 91.171C128.201 106.297 133.101 121.487 138.463 136.512C142.741 148.499 147.776 160.215 152.137 172.175C156.282 183.54 160.006 195.059 163.88 206.522C165.949 212.645 167.972 218.785 169.959 224.936C170.72 227.294 171.321 229.705 171.673 232.676C169.901 233.639 168.45 234.018 166.996 233.94C166.288 229.938 165.84 226.318 164.815 222.869C163.539 218.578 161.678 214.465 160.26 210.211C156.092 197.7 152.155 185.11 147.798 172.667C146.842 169.936 144.015 167.888 142.917 165.174C138.844 155.099 135.065 144.902 131.322 134.697C129.964 130.998 129.081 127.127 127.869 123.37C125.289 115.373 122.501 107.441 120.052 99.4048C117.89 92.3084 116.073 85.1069 114.103 77.9518C115.243 77.3532 116.383 76.7546 117.856 76.1587Z" fill="#7AF0B5"/>
<path d="M325.955 210.993C326.012 215.025 326.069 219.057 325.674 223.526C321.27 220.648 317.277 217.38 313.378 214.003C309.492 210.637 305.997 206.177 299.647 209.93C296.948 207.822 294.689 205.634 292.203 203.744C287.82 200.412 283.299 197.261 278.757 193.61C278.531 191.206 278.384 189.227 278.424 186.857C278.468 183.982 278.326 181.497 278.37 178.662C278.549 175.459 278.541 172.608 278.661 169.53C278.916 169.187 279.043 169.07 279.501 169.03C282.862 171.85 286.007 174.48 288.905 177.358C298.629 187.013 308.166 196.86 318.015 206.386C320.15 208.451 323.282 209.484 325.955 210.993Z" fill="#02D7DD"/>
<path d="M192.042 169.627C190.23 164.048 188.627 158.391 186.566 152.906C180.327 136.304 173.905 119.77 167.564 103.206C163.246 91.926 158.989 80.6215 154.587 69.3741C153.879 67.5642 152.552 65.9963 151.232 64.1121C153.365 62.916 155.778 61.9242 158.555 60.9147C158.965 62.6384 158.513 64.584 159.131 66.0906C167.646 86.8504 176.279 107.562 184.95 128.258C188.199 136.015 191.532 143.741 195.037 151.384C195.697 152.823 197.353 153.805 198.964 155.361C199.602 156.808 199.825 157.893 199.997 159.43C199.919 163.148 199.893 166.413 199.439 169.756C196.689 169.764 194.366 169.695 192.042 169.627Z" fill="#D3BC0F"/>
<path d="M135.967 346.85C131.294 346.721 126.621 346.592 121.771 345.623C121.654 341.189 121.715 337.595 122.088 333.831C126.713 327.486 131.407 321.536 135.253 315.082C140.981 305.47 146.059 295.472 151.564 285.723C152.215 284.571 153.808 283.951 154.951 283.498C154.657 285.206 154.118 286.505 154.136 287.796C154.27 297.825 150.804 306.903 147.203 316.037C143.195 326.204 139.691 336.57 135.967 346.85Z" fill="#0279F3"/>
<path d="M121.777 334C121.716 337.595 121.654 341.189 121.534 345.213C115.613 336.529 109.752 327.416 103.802 317.988C105.583 304.766 111.111 293.316 117.888 282.388C118.512 281.382 119.827 280.804 121.248 280.336C121.75 281.103 121.824 281.561 121.817 282.48C121.744 289.011 121.754 295.08 121.701 301.604C121.65 307.756 121.663 313.452 121.636 319.593C121.655 324.692 121.716 329.346 121.777 334Z" fill="#B4B4D2"/>
<path d="M211.967 346.829C209.619 346.885 207.27 346.941 204.721 346.668C207.092 341.389 209.575 336.391 212.253 331.499C220.489 316.447 228.583 301.309 237.155 286.45C243.361 275.694 250.334 265.384 256.752 254.747C258.335 252.123 259.087 248.998 260.545 246.096C262.285 246.729 263.7 247.368 265.015 248.359C261.949 254.617 258.91 260.487 256.036 266.436C251.94 274.917 247.965 283.455 243.6 292.039C242.708 292.458 241.931 292.674 241.635 293.174C233.019 307.698 224.368 322.201 215.945 336.836C214.175 339.912 213.27 343.485 211.967 346.829Z" fill="#05F334"/>
<path d="M113.742 77.8798C116.073 85.1068 117.89 92.3083 120.052 99.4048C122.501 107.441 125.289 115.373 127.869 123.37C129.081 127.127 129.964 130.997 131.322 134.697C135.065 144.902 138.844 155.099 142.917 165.174C144.014 167.888 146.841 169.936 147.798 172.666C152.155 185.11 156.091 197.7 160.26 210.211C161.678 214.465 163.539 218.578 164.815 222.869C165.84 226.318 166.288 229.938 166.838 234.142C166.121 235.236 165.56 235.67 164.669 236.114C163.901 236.127 163.461 236.129 163.015 235.725C161.971 232.027 160.991 228.717 159.884 225.45C155.96 213.866 152.03 202.284 148.033 190.725C143 176.172 137.87 161.653 132.839 147.1C129.427 137.233 126.08 127.342 122.763 117.443C118.491 104.696 114.278 91.9299 110.039 79.1722C111.153 78.7174 112.267 78.2626 113.742 77.8798Z" fill="#4FDCB5"/>
<path d="M73.5057 269.926C73.339 259.263 73.1723 248.601 73.405 237.527C78.6998 238.318 81.197 234.701 83.4442 231.68C90.5277 222.158 91.4663 211.157 89.3183 199.967C88.3864 195.112 85.7781 190.579 83.9353 185.49C84.1131 183.193 84.2868 181.307 84.4605 179.421C84.8913 179.23 85.322 179.038 85.7528 178.847C87.1565 180.267 88.5603 181.687 89.9711 183.497C89.9958 184.928 90.0134 185.969 90.0197 187.435C90.4091 190.303 90.6563 192.783 91.2358 195.183C94.2978 207.863 95.2858 220.383 88.7906 232.426C86.251 237.134 83.5718 241.663 86.619 247.369C89.153 252.114 91.0408 257.204 92.9488 262.387C88.4554 264.311 84.228 265.99 79.617 267.742C77.3241 268.519 75.4149 269.223 73.5057 269.926Z" fill="#02B8F0"/>
<path d="M326.037 210.535C323.282 209.484 320.15 208.451 318.015 206.386C308.166 196.86 298.629 187.013 288.905 177.358C286.007 174.48 282.862 171.85 279.575 168.72C279.619 167.331 279.918 166.329 280.504 165.23C281.256 164.743 281.721 164.354 282.52 164.043C289.274 167.086 295.693 170.051 302.386 173.183C305.441 175.907 308.223 178.463 311.058 181.368C314.846 186.399 318.505 191.149 322.388 195.707C323.099 196.542 324.721 196.599 325.923 197.016C325.989 201.37 326.054 205.724 326.037 210.535Z" fill="#01D7EF"/>
<path d="M136.396 346.921C139.691 336.57 143.195 326.204 147.203 316.037C150.804 306.903 154.27 297.825 154.136 287.796C154.118 286.505 154.657 285.206 155.114 283.185C156.152 281.038 157.026 279.623 157.875 278.193C160.904 273.089 163.924 267.98 167.229 262.911C167.695 262.985 167.881 263.021 168.066 263.056C167.821 264.856 167.576 266.656 167.275 268.867C168.292 269.198 169.406 269.562 171.587 270.273C168.221 279.495 165.168 288.737 161.495 297.726C155.406 312.625 148.898 327.353 142.637 342.182C142.142 343.357 142.197 344.764 141.995 346.454C140.27 346.894 138.547 346.943 136.396 346.921Z" fill="#01A6F3"/>
<path d="M265.455 346.929C267.307 341.433 269.569 335.991 271.956 330.604C272.827 328.637 274.174 326.877 274.997 324.895C279.78 313.369 289.082 309.315 301.238 309.151C295.109 319.953 288.317 330.602 282.009 341.53C279.568 345.759 276.802 347.913 271.856 347.076C269.927 346.75 267.898 347.011 265.455 346.929Z" fill="#EEEE01"/>
<path d="M80.0006 267.668C84.228 265.99 88.4554 264.311 93.2821 262.372C95.2932 261.538 96.705 260.965 98.4756 260.339C100.574 259.565 102.313 258.845 104.381 258.124C105.146 258.086 105.583 258.048 106.019 258.011C107.052 273.567 101.862 287.194 92.9145 300.037C90.1992 296.507 87.6616 292.652 85.1476 288.078C89.1741 279.186 87.4391 272.578 80.0006 267.668Z" fill="#D3B486"/>
<path d="M109.733 79.1821C114.278 91.9299 118.491 104.696 122.763 117.443C126.08 127.342 129.427 137.233 132.839 147.1C137.87 161.653 143 176.172 148.033 190.725C152.03 202.284 155.96 213.866 159.884 225.45C160.991 228.717 161.971 232.027 162.809 235.944C162.027 236.698 161.446 236.825 160.864 236.952C154.497 218.284 148.253 199.574 141.72 180.964C137.052 167.665 131.907 154.535 127.137 141.271C121.583 125.826 116.152 110.336 110.785 94.8246C109.282 90.4803 108.195 85.9921 106.895 81.1273C107.724 80.1871 108.575 79.6896 109.733 79.1821Z" fill="#37EBB5"/>
<path d="M260.222 246.103C259.087 248.998 258.335 252.123 256.752 254.747C250.334 265.385 243.36 275.694 237.155 286.45C228.583 301.31 220.489 316.447 212.252 331.499C209.575 336.391 207.092 341.389 204.287 346.588C202.964 346.888 201.873 346.938 200.452 346.556C202.438 341.206 204.584 336.2 207.105 331.391C211.868 322.305 216.739 313.271 221.764 304.328C227.417 294.268 233.295 284.336 239.065 274.342C244.774 264.455 250.472 254.561 256.47 244.648C257.162 244.611 257.558 244.598 258.226 244.788C259.073 245.363 259.647 245.733 260.222 246.103Z" fill="#06F362"/>
<path d="M73.2059 229.011C73.1776 212.355 73.1493 195.699 73.4839 178.731C75.896 179.547 77.9452 180.675 80.0632 182.157C81.0917 183.663 82.0513 184.816 83.0106 186.375C83.9912 194.982 85.5532 203.165 85.7994 211.387C86.0784 220.7 80.1508 228.203 73.2059 229.011Z" fill="#0279F3"/>
<path d="M230.982 346.841C228.61 346.887 226.238 346.934 223.449 346.537C225.025 341.564 227.094 337.067 228.992 332.497C232.666 323.655 236.231 314.768 239.865 305.909C241.226 302.591 242.652 299.301 244.384 295.935C247.021 292.729 249.173 289.46 251.682 286.492C253.161 284.743 255.204 283.471 256.997 282.415C256.342 285.881 255.971 289.017 254.956 291.928C253.65 295.675 251.862 299.257 250.223 302.883C245.609 313.09 240.906 323.258 236.358 333.494C234.412 337.875 232.765 342.388 230.982 346.841Z" fill="#30F302"/>
<path d="M239.021 60.2155C242.068 61.3139 245.116 62.4124 248.15 63.8353C248.057 64.8672 247.647 65.7936 247.949 66.2481C250.892 70.6822 253.718 75.2252 257.025 79.3799C267.05 91.9711 277.196 104.468 287.457 116.867C291.78 122.089 296.511 126.972 301.041 132.391C300.996 133.536 300.968 134.299 300.641 135.139C299.272 136.195 298.201 137.177 296.975 137.843C286.519 124.823 275.824 112.415 266.033 99.3306C256.546 86.6537 247.987 73.282 239.021 60.2155Z" fill="#B54AD3"/>
<path d="M90.5714 86.7815C97.3093 104.553 103.802 122.339 110.014 140.222C111.61 144.817 112.321 149.718 112.939 154.579C111.589 153.542 110.74 152.405 109.89 151.269C108.13 148.317 106.37 145.364 104.294 141.927C103.635 141.008 103.291 140.574 102.946 140.141C102.612 139.513 102.278 138.885 101.6 137.738C99.4656 134.175 97.6744 131.13 95.9106 127.669C94.8572 123.305 93.9099 119.315 92.6687 115.418C89.8721 106.638 86.93 97.9048 84.0471 89.1524C84.0471 89.1524 84.3537 88.895 84.8631 88.8824C85.9182 88.5981 86.4638 88.3265 87.0094 88.0549C88.0801 87.6471 89.1509 87.2393 90.5714 86.7815Z" fill="#02D8C5"/>
<path d="M247 346.838C245.288 346.886 243.576 346.934 241.446 346.531C242.368 342.733 243.564 339.319 245.074 336.049C254.642 315.333 264.24 294.629 273.971 273.989C274.715 272.412 276.562 271.356 277.931 270.367C278.026 271.087 278.086 271.497 278.128 272.309C278.376 274.829 278.641 276.947 278.773 279.243C278.463 279.659 278.244 279.853 277.869 280.11C277.598 280.539 277.683 280.801 278.024 281.42C278.041 283.218 278.04 284.601 277.669 286.009C275.555 288.473 273.437 290.728 272.126 293.382C264.349 309.132 256.737 324.963 249.136 340.799C248.218 342.713 247.702 344.82 247 346.838Z" fill="#9CF300"/>
<path d="M238.718 60.0265C247.987 73.282 256.546 86.6537 266.033 99.3306C275.824 112.415 286.519 124.823 296.91 138.149C296.389 139.838 295.777 140.907 294.856 141.831C290.395 137.171 285.825 132.968 282.164 128.083C269.611 111.334 257.248 94.4381 245.088 77.4016C240.685 71.2326 237.057 64.51 233.075 58.04C234.855 58.6392 236.635 59.2384 238.718 60.0265Z" fill="#B571D3"/>
<path d="M244.049 295.998C242.652 299.301 241.226 302.591 239.865 305.909C236.231 314.768 232.666 323.655 228.992 332.498C227.094 337.067 225.025 341.564 223.01 346.462C219.618 346.881 216.249 346.933 212.423 346.907C213.27 343.485 214.175 339.912 215.945 336.836C224.368 322.201 233.019 307.698 241.635 293.174C241.931 292.674 242.708 292.458 243.621 292.443C244.003 293.85 244.026 294.924 244.049 295.998Z" fill="#03F31C"/>
<path d="M256.174 244.67C250.472 254.561 244.774 264.455 239.065 274.342C233.295 284.335 227.417 294.268 221.764 304.327C216.739 313.271 211.868 322.305 207.105 331.391C204.584 336.2 202.438 341.206 200.05 346.474C198.908 346.881 197.839 346.935 196.382 346.531C196.279 344.964 196.372 343.758 196.879 342.762C202.065 332.568 206.973 322.212 212.627 312.282C223.274 293.582 234.312 275.102 245.303 256.6C247.984 252.086 251.116 247.841 254.296 243.486C255.092 243.889 255.633 244.28 256.174 244.67Z" fill="#03F37C"/>
<path d="M237.983 346.84C236.915 346.89 235.848 346.94 234.406 346.553C235.621 342.668 237.186 339.207 238.805 335.772C243.395 326.035 248.43 316.481 252.514 306.536C258.92 290.937 264.688 275.076 270.734 259.328C271.792 256.574 272.89 253.835 274.31 251.174C275.776 251.547 276.903 251.835 278.056 252.357C278.084 252.591 278.137 253.062 278.091 253.398C277.989 254.182 277.932 254.63 277.651 255.386C277.301 256.97 277.177 258.246 277.23 259.65C277.557 260.028 277.648 260.299 277.294 260.719C276.103 261.64 274.942 262.286 274.554 263.244C270.958 272.138 267.688 281.167 263.944 289.997C259.046 301.55 253.882 312.992 248.682 324.414C245.252 331.952 241.558 339.369 237.983 346.84Z" fill="#60F303"/>
<path d="M254.041 243.472C251.116 247.841 247.984 252.086 245.303 256.6C234.312 275.102 223.274 293.582 212.627 312.282C206.973 322.212 202.065 332.568 196.879 342.762C196.372 343.758 196.279 344.964 195.986 346.45C194.899 346.883 193.82 346.938 192.34 346.905C195.616 339.234 198.993 331.488 203.021 324.097C215.318 301.537 227.803 279.079 240.366 256.667C243.104 251.781 246.472 247.247 250.133 242.302C251.824 242.525 252.933 242.999 254.041 243.472Z" fill="#02F394"/>
<path d="M273.97 251.088C272.89 253.835 271.792 256.574 270.734 259.328C264.688 275.076 258.92 290.937 252.514 306.536C248.43 316.481 243.395 326.035 238.805 335.772C237.186 339.207 235.621 342.668 234.011 346.477C233.237 346.888 232.483 346.939 231.355 346.915C232.765 342.388 234.412 337.875 236.358 333.494C240.906 323.258 245.609 313.09 250.223 302.883C251.862 299.257 253.65 295.675 254.956 291.928C255.971 289.017 256.342 285.882 257.251 282.186C259.667 276.237 262.799 271.112 263.735 265.613C264.766 259.555 267.165 254.693 271.323 250.201C272.413 250.471 273.192 250.78 273.97 251.088Z" fill="#4AF301"/>
<path d="M232.811 57.8213C237.057 64.51 240.685 71.2325 245.088 77.4016C257.248 94.438 269.611 111.334 282.164 128.083C285.825 132.968 290.395 137.171 294.826 142.172C295.091 143.113 295.078 143.568 294.817 144.142C294.112 144.571 293.656 144.879 293.2 145.188C289.141 140.953 284.518 137.125 281.116 132.416C263.764 108.391 246.722 84.1424 229.604 59.9495C228.948 59.0228 228.622 57.8632 228.13 56.467C229.594 56.6155 231.07 57.1091 232.811 57.8213Z" fill="#B591D3"/>
<path d="M300.939 135.063C300.968 134.3 300.996 133.536 301.307 132.225C302.39 130.455 303.192 129.233 303.995 128.011C306.387 125.081 307.779 127.286 309.359 128.999C313.354 133.332 317.342 137.674 321.472 141.877C322.431 142.853 323.945 143.284 325.561 143.972C325.953 148.971 325.988 153.964 325.591 159.414C321.394 156.77 317.291 153.993 313.948 150.491C309.312 145.634 305.248 140.232 300.939 135.063Z" fill="#AC27F3"/>
<path d="M303.67 127.918C303.192 129.233 302.39 130.455 301.322 131.843C296.511 126.972 291.78 122.089 287.458 116.867C277.196 104.468 267.05 91.9712 257.025 79.38C253.718 75.2253 250.892 70.6822 247.949 66.2482C247.648 65.7936 248.057 64.8673 248.397 64.054C249.562 64.2499 250.465 64.5518 251.693 65.0143C254.982 69.717 257.512 74.6273 260.989 78.7365C274.948 95.2342 289.201 111.484 303.67 127.918Z" fill="#B528D4"/>
<path d="M95.8832 128.086C97.6744 131.13 99.4656 134.175 101.399 137.558C98.5573 135.992 95.2342 134.457 92.6615 132.103C87.2896 127.188 82.2362 121.913 77.2253 116.622C75.8121 115.129 75.0004 113.067 73.6106 111.137C73.2619 105.562 73.2153 100.116 73.4889 94.4562C81.167 105.523 88.5251 116.804 95.8832 128.086Z" fill="#B4D4C0"/>
<path d="M325.92 262.985C325.969 265.085 326.019 267.186 325.61 269.635C319.97 268.081 314.789 266.179 309.378 264.105C305.829 262.886 302.508 261.838 299.07 260.47C295.716 256.362 289.585 254.627 290.734 248.001C293.702 247.885 296.729 246.846 298.772 247.836C305.79 251.237 312.464 255.346 319.266 259.19C321.489 260.447 323.702 261.719 325.92 262.985Z" fill="#06F362"/>
<path d="M299.984 209.985C305.997 206.177 309.492 210.638 313.378 214.003C317.277 217.38 321.27 220.648 325.58 223.98C325.986 228.354 326.035 232.712 326.006 237.528C324.35 236.931 322.602 236.06 321.223 234.789C316.518 230.454 311.944 225.979 307.091 220.931C304.57 216.865 302.277 213.425 299.984 209.985Z" fill="#01F0DC"/>
<path d="M300.641 135.139C305.248 140.232 309.312 145.634 313.948 150.491C317.291 153.993 321.394 156.77 325.509 159.865C325.924 161.65 325.989 163.44 325.608 165.637C323.126 164.761 321.139 163.389 319.042 162.215C314.707 159.788 310.312 157.468 305.897 154.753C302.256 150.943 298.661 147.483 295.065 144.023C295.078 143.568 295.091 143.113 295.135 142.316C295.777 140.907 296.389 139.838 297.066 138.464C298.201 137.177 299.272 136.196 300.641 135.139Z" fill="#7C5AF3"/>
<path d="M278.961 227.995C279.922 228.195 281.017 228.164 281.822 228.631C294.609 236.052 307.344 243.563 320.136 250.973C321.678 251.866 323.488 252.296 325.542 252.942C325.968 254.349 326.026 255.754 325.639 257.565C324.141 257.536 323.035 257.198 322.043 256.653C315.072 252.823 308.335 248.473 301.091 245.267C296.533 243.249 291.371 242.882 287.4 239.143C285.078 236.956 281.853 235.728 278.943 233.63C278.65 231.422 278.447 229.653 278.424 227.909C278.604 227.933 278.961 227.995 278.961 227.995Z" fill="#02F394"/>
<path d="M238.359 346.916C241.558 339.369 245.252 331.952 248.682 324.414C253.882 312.992 259.046 301.55 263.944 289.997C267.688 281.167 270.958 272.138 274.554 263.244C274.942 262.286 276.103 261.64 277.343 260.95C277.859 261.353 277.979 261.636 278.086 262.352C277.987 265.221 277.942 267.639 277.896 270.058C276.562 271.356 274.715 272.412 273.971 273.989C264.24 294.629 254.642 315.333 245.074 336.049C243.564 339.318 242.368 342.733 241.023 346.456C240.257 346.885 239.496 346.938 238.359 346.916Z" fill="#78F303"/>
<path d="M73.1176 229.448C80.1508 228.203 86.0784 220.7 85.7994 211.387C85.5532 203.165 83.9912 194.982 83.2401 186.351C83.47 185.921 83.9312 185.9 83.9312 185.9C85.778 190.579 88.3864 195.112 89.3183 199.967C91.4663 211.157 90.5276 222.158 83.4442 231.68C81.197 234.701 78.6998 238.318 73.4752 237.063C73.107 234.636 73.0682 232.26 73.1176 229.448Z" fill="#01A6F3"/>
<path d="M247.398 346.917C247.702 344.82 248.218 342.713 249.136 340.799C256.737 324.963 264.349 309.132 272.126 293.382C273.437 290.728 275.555 288.473 277.785 286.216C278.451 286.67 278.689 286.876 278.976 287.392C278.977 288.515 278.984 289.264 278.84 290.345C278.476 292.1 278.264 293.524 278.033 294.966C278.016 294.984 277.98 295.02 277.98 295.02C275.602 298.375 272.803 301.511 270.928 305.127C265.683 315.245 260.8 325.552 255.817 335.805C254.162 339.209 252.639 342.677 251.038 346.475C249.946 346.889 248.871 346.943 247.398 346.917Z" fill="#B1F303"/>
<path d="M95.9105 127.669C88.5251 116.804 81.167 105.523 73.5935 93.9811C76.6863 92.2122 79.9946 90.7037 83.6749 89.1738C86.9299 97.9048 89.872 106.638 92.6686 115.418C93.9098 119.315 94.8571 123.305 95.9105 127.669Z" fill="#02D7DD"/>
<path d="M305.942 155.104C310.312 157.468 314.707 159.788 319.042 162.215C321.139 163.389 323.126 164.761 325.523 166.074C325.954 170.757 326.025 175.409 325.67 180.467C323.121 179.567 320.999 178.262 318.738 176.667C316.365 173.584 314.129 170.79 312.137 167.775C310.972 165.248 309.451 163.001 308.188 160.617C307.264 158.872 306.679 156.948 305.942 155.104Z" fill="#4779F3"/>
<path d="M279.034 234.07C281.853 235.729 285.078 236.956 287.4 239.143C291.371 242.882 296.534 243.249 301.091 245.267C308.335 248.473 315.072 252.823 322.043 256.653C323.035 257.198 324.141 257.536 325.558 257.979C325.975 259.38 326.028 260.771 326.001 262.574C323.702 261.719 321.489 260.447 319.266 259.19C312.464 255.346 305.79 251.237 298.772 247.836C296.729 246.846 293.703 247.885 290.564 247.683C286.236 244.255 282.472 241.136 278.709 237.636C278.57 236.51 278.43 235.765 278.479 234.785C278.791 234.39 278.913 234.23 279.034 234.07Z" fill="#03F37C"/>
<path d="M123.035 76.0007C123.025 75.8076 123.015 75.6145 122.988 75.1317C124.802 73.9144 126.634 72.987 128.839 72.0475C130.777 77.0749 132.339 82.1144 134.011 87.909C136.621 95.6777 139.148 102.683 141.617 109.708C143.754 115.786 145.824 121.888 147.602 127.887C144.985 124.061 142.205 120.534 140.502 116.547C137.468 109.444 135.294 101.977 132.35 94.8302C130.657 90.7195 128.16 86.9399 126.025 83.0113C126.013 82.2559 126.002 81.5006 125.938 80.0302C124.936 78.2104 123.986 77.1056 123.035 76.0007Z" fill="#B4ED8A"/>
<path d="M309.608 264.277C314.789 266.179 319.97 268.081 325.508 270.077C323.156 274.689 320.448 279.207 317.468 283.901C314.718 282.39 312.241 280.703 309.401 278.527C308.952 275.69 308.866 273.342 309.072 270.69C309.446 268.349 309.527 266.313 309.608 264.277Z" fill="#D4D136"/>
<path d="M79.6171 267.742C87.4392 272.578 89.1741 279.186 85.0806 287.743C81.2284 282.302 77.4668 276.478 73.6055 270.289C75.415 269.223 77.3242 268.519 79.6171 267.742Z" fill="#D4D136"/>
<path d="M78.9237 157.58C79.5817 158.562 80.2398 159.544 80.946 161.285C80.6186 166.04 80.243 170.035 79.5036 174.02C74.8932 173.597 74.1709 170.227 73.2655 167.01C73.2018 162.958 73.138 158.906 73.3635 154.677C74.4012 157.252 75.9667 158.607 78.9237 157.58Z" fill="#559EF3"/>
<path d="M326.016 196.58C324.722 196.599 323.099 196.542 322.388 195.707C318.505 191.149 314.846 186.399 311.424 181.373C313.163 181.338 314.588 181.644 316.35 182.021C319.763 184.407 322.839 186.723 325.914 189.039C325.979 191.407 326.044 193.775 326.016 196.58Z" fill="#00C8F1"/>
<path d="M326.009 188.599C322.839 186.723 319.763 184.407 316.339 181.682C315.333 179.887 314.677 178.502 314.426 177.086C316.18 177.023 317.528 176.99 318.876 176.958C320.999 178.262 323.121 179.567 325.584 180.924C325.984 183.371 326.044 185.765 326.009 188.599Z" fill="#01A6F3"/>
<path d="M73.1774 167.463C74.1708 170.227 74.8931 173.597 79.5344 174.455C79.9509 177.202 79.9726 179.503 79.9944 181.804C77.9452 180.675 75.8961 179.547 73.5653 178.278C73.2188 174.729 73.154 171.322 73.1774 167.463Z" fill="#4779F3"/>
<path d="M78.9412 157.229C75.9666 158.607 74.4011 157.253 73.4495 154.216C73.1916 151.253 73.1369 148.573 73.173 145.454C75.1621 148.969 77.0604 152.924 78.9412 157.229Z" fill="#B4B4D2"/>
<path d="M274.749 73.7483C274.428 73.8013 273.92 73.6572 273.207 73.3357C273.523 73.2893 274.042 73.4202 274.749 73.7483Z" fill="#C600D2"/>
<path d="M277.558 74.8102C277.29 74.8427 276.858 74.7099 276.251 74.4261C276.516 74.3985 276.955 74.5217 277.558 74.8102Z" fill="#C600D2"/>
<path d="M279.911 75.7019C279.568 75.7702 279.028 75.632 278.293 75.292C278.636 75.2251 279.176 75.3602 279.911 75.7019Z" fill="#C600D2"/>
<path d="M86.6935 88.0535C86.4637 88.3265 85.9181 88.5981 85.0614 88.9091C85.2928 88.6497 85.8352 88.3509 86.6935 88.0535Z" fill="#02D7DD"/>
<path d="M200.075 45.8746C199.443 45.9487 199.252 45.9283 198.78 45.847C199.309 45.6221 200.119 45.4581 201.174 45.5326C201.117 45.7741 200.817 45.7771 200.075 45.8746Z" fill="#D3BC0F"/>
<path d="M200.049 158.977C199.825 157.893 199.602 156.808 199.349 155.385C199.436 154.211 199.553 153.375 200.175 152.328C205.223 155.121 209.588 158.458 214.362 161.035C218.832 163.448 221.848 161.41 221.949 156.408C221.988 154.446 221.947 152.326 221.265 150.536C218.737 143.903 216.197 137.249 213.148 130.848C210.102 124.451 206.443 118.346 203.389 112.126C206.472 115.08 209.32 117.934 211.931 120.992C213.811 123.194 215.375 125.665 217.124 128.389C219.477 134.144 221.787 139.527 224.124 145.282C227.017 153.525 231.719 160.872 230.613 169.842C228.786 169.947 227.374 169.966 225.503 169.956C221.355 169.957 217.665 169.989 213.602 170.02C212.493 169.928 211.757 169.838 211 169.398C208.085 164.879 205.728 160.126 200.049 158.977Z" fill="#60F303"/>
<path d="M203.052 112.114C206.443 118.346 210.102 124.451 213.148 130.848C216.197 137.249 218.737 143.903 221.265 150.536C221.947 152.326 221.988 154.446 221.949 156.408C221.848 161.41 218.832 163.448 214.362 161.035C209.588 158.458 205.223 155.121 200.335 152.056C199.946 149.951 199.902 147.905 200.304 145.486C202.309 145.65 203.887 146.142 205.427 146.731C210.528 148.684 212.1 147.72 211.943 142.112C211.69 133.068 206.485 126.204 201.342 119.379C201.109 119.069 200.42 119.104 199.943 118.978C199.855 116.606 199.767 114.234 199.591 111.426C199.587 110.501 199.67 110.013 200.077 109.368C201.284 110.179 202.168 111.146 203.052 112.114Z" fill="#4AF301"/>
<path d="M199.886 119.446C200.42 119.104 201.109 119.069 201.342 119.379C206.485 126.204 211.69 133.068 211.943 142.112C212.1 147.72 210.528 148.684 205.427 146.731C203.887 146.142 202.309 145.65 200.383 145.054C199.954 136.634 199.892 128.274 199.886 119.446Z" fill="#30F302"/>
<path d="M254.296 243.486C252.933 242.999 251.824 242.525 250.357 242.053C247.576 241.048 245.154 240.042 242.371 239.041C237.925 237.401 233.839 235.754 229.391 234.109C229.03 234.109 228.673 233.837 228.395 233.658C228.118 233.48 227.951 233.118 228.033 232.731C228.798 226.917 229.481 221.491 230.496 216.11C231.907 216.486 232.985 216.816 234.047 217.531C234.898 220.599 235.764 223.282 236.727 226.265C238.715 224.974 239.876 224.22 240.273 223.962C244.122 228.731 247.619 233.209 251.283 237.546C253.365 240.011 255.721 242.245 257.954 244.584C257.558 244.598 257.162 244.611 256.47 244.648C255.633 244.28 255.092 243.889 254.296 243.486Z" fill="#D4EF02"/>
<path d="M227.951 233.118C227.951 233.118 228.118 233.48 228.171 233.671C219.548 245.464 210.883 257.074 202.171 268.649C201.513 269.523 200.516 270.143 199.338 270.946C201.796 265.794 204.598 260.582 207.389 255.363C211.578 247.533 215.759 239.699 220.2 231.366C220.638 230.812 220.819 230.759 221.334 230.869C223.762 231.727 225.857 232.423 227.951 233.118Z" fill="#02D7DD"/>
<path d="M308.779 270.994C308.866 273.342 308.952 275.69 309.044 278.472C303.769 278.289 300.584 280.641 297.126 284.814C292.222 290.732 285.731 295.335 279.918 300.5C279.449 300.146 278.98 299.793 278.511 299.44C278.335 298.22 278.158 297.001 277.98 295.4C277.98 295.02 278.015 294.984 278.398 294.967C288.131 290.952 294.987 284.429 299.338 274.969C302.776 273.731 304.57 269.585 308.779 270.994Z" fill="#B1F303"/>
<path d="M121.654 252.09C121.654 252.09 121.33 251.962 121.169 251.447C121.009 245.115 121.208 239.288 120.895 233.487C120.794 231.602 119.849 229.164 118.442 228.052C112.524 223.376 110.471 216.883 109.003 209.536C108.694 205.185 109.28 200.925 107.867 197.485C105.661 192.11 106.343 188.291 110.99 185.036C111.171 185.025 111.352 185.014 111.866 185.335C114.203 187.344 116.431 188.825 118.14 190.764C119.433 192.231 120.803 194.257 120.864 196.078C121.201 206.115 124.207 215.403 127.744 224.665C130.494 231.867 132.599 239.316 134.687 246.82C133.552 247.39 132.721 247.795 131.537 248.257C128.007 249.572 124.831 250.831 121.654 252.09Z" fill="#02D7DD"/>
<path d="M160.546 237.083C161.446 236.825 162.027 236.698 162.816 236.351C163.461 236.129 163.901 236.126 164.649 236.487C163.832 239.593 162.736 242.347 161.573 245.073C159.443 250.069 157.273 255.048 154.805 260.182C153.088 262.129 151.049 263.72 150.385 265.759C144.965 282.402 134.896 296.661 126.922 311.985C125.571 314.58 123.445 316.77 121.676 319.148C121.663 313.452 121.65 307.756 121.988 301.379C128.293 291.009 134.467 281.446 140.085 271.566C142.05 268.111 142.646 263.879 144.067 259.716C147.287 253.173 150.306 246.917 153.374 240.42C153.937 239.814 154.45 239.448 154.963 239.082C156.718 238.459 158.473 237.836 160.546 237.083Z" fill="#7C5AF3"/>
<path d="M154.757 238.793C154.45 239.448 153.937 239.814 152.983 240.36C150.693 241.261 148.842 241.982 146.642 242.746C145.599 242.906 144.907 243.022 143.899 242.942C142.675 240.838 141.555 239.001 140.894 237.011C138.449 229.65 136.257 222.204 133.78 214.855C130.831 206.107 126.52 197.679 127.99 187.988C128.307 187.223 128.496 186.365 128.967 185.712C129.868 184.465 130.93 183.335 131.924 182.156C133.203 183.271 135.089 184.141 135.655 185.544C138.302 192.102 140.631 198.791 142.989 205.463C146.877 216.464 150.7 227.489 154.757 238.793Z" fill="#02DFB8"/>
<path d="M110.69 184.879C106.343 188.291 105.661 192.11 107.867 197.485C109.28 200.925 108.694 205.185 108.618 209.521C103.785 208.227 101.71 210.071 101.36 214.519C101.243 216.005 101.211 217.505 100.989 218.975C98.9836 232.265 97.6629 245.494 104.052 258.124C102.313 258.844 100.574 259.565 98.4016 259.935C96.6172 255.13 94.8793 250.745 94.0376 246.195C93.3748 242.613 92.8963 238.543 93.9305 235.18C98.0632 221.741 97.9971 208.309 94.7935 194.85C94.1197 192.02 91.665 189.613 90.0309 187.01C90.0134 185.969 89.9958 184.928 90.3305 183.309C95.4653 182.194 100.248 181.659 105.03 181.123C106.817 182.322 108.604 183.522 110.69 184.879Z" fill="#01D7EF"/>
<path d="M127.622 187.975C126.52 197.679 130.831 206.107 133.78 214.855C136.257 222.204 138.449 229.65 140.894 237.011C141.555 239.001 142.675 240.838 143.634 243.184C140.787 244.633 137.889 245.645 134.99 246.656C132.599 239.316 130.494 231.867 127.744 224.665C124.207 215.403 121.201 206.115 120.864 196.078C120.803 194.257 119.433 192.231 118.14 190.764C116.432 188.825 114.203 187.344 112.139 185.336C116.567 183.656 121.089 181.842 124.542 187.106C124.945 187.72 126.327 187.693 127.622 187.975Z" fill="#02D8C5"/>
<path d="M105.051 180.744C100.248 181.659 95.4653 182.194 90.3233 182.918C88.5602 181.687 87.1565 180.267 85.7528 178.847C85.322 179.038 84.8912 179.23 84.4604 179.421C84.2867 181.307 84.1131 183.193 83.9353 185.49C83.9312 185.9 83.47 185.921 83.2405 185.945C82.0513 184.816 81.0917 183.663 80.0632 182.157C79.9726 179.503 79.9508 177.202 79.8982 174.466C80.2429 170.035 80.6185 166.04 80.9687 161.648C85.4042 161.156 89.865 161.06 94.7777 161.304C97.9128 165.3 101.379 167.34 106.19 167.2C106.959 170.365 107.592 173.21 108.225 176.055C107.174 177.491 106.123 178.927 105.051 180.744Z" fill="#3DC4F3"/>
<path d="M108.591 176.065C107.592 173.21 106.959 170.365 106.262 166.863C107.763 163.42 108.941 160.219 113.214 160.79C113.739 160.86 114.449 159.54 115.073 158.864C117.347 162.349 119.622 165.834 121.996 169.655C122.056 170.976 122.023 171.962 121.979 172.946C121.716 178.842 120.626 179.613 115.089 177.879C113.056 177.242 111.001 176.675 108.591 176.065Z" fill="#4FDCB5"/>
<path d="M191.602 169.73C194.366 169.695 196.689 169.764 199.498 169.845C199.984 169.858 200.062 170.054 200.015 170.42C199.967 171.524 199.965 172.262 199.943 173.449C199.939 176.589 199.957 179.28 199.906 182.365C199.588 185.21 199.338 187.659 198.753 190.01C194.684 184.361 189.746 180.17 184.19 176.476C181.998 175.018 180.682 172.241 178.967 170.065C180.067 170.012 181.167 169.958 182.67 169.812C185.77 169.758 188.466 169.795 191.602 169.73Z" fill="#D4B5C0"/>
<path d="M178.56 170.026C180.682 172.241 181.998 175.018 184.19 176.476C189.746 180.17 194.684 184.361 198.917 190.377C199.65 195.305 198.895 200.122 200.342 204.148C202.759 210.869 200.882 216.747 199.016 222.874C195.785 224.046 192.554 225.219 188.732 226.743C185.78 227.909 183.419 228.724 181.012 229.12C175.719 212.894 170.389 197.114 165.29 181.259C164.12 177.622 163.748 173.728 163.467 169.959C167.302 169.921 170.679 169.876 174.057 169.832C175.422 169.884 176.787 169.935 178.56 170.026Z" fill="#D4DCB4"/>
<path d="M199.377 222.934C200.882 216.747 202.759 210.869 200.342 204.148C198.895 200.122 199.65 195.305 199.252 190.476C199.338 187.659 199.588 185.21 200.247 182.433C203.102 183.731 205.549 185.355 208.012 187.353C210.008 191.46 211.988 195.193 213.955 199.324C211.278 208.121 208.614 216.52 205.951 224.92C203.88 224.278 201.808 223.636 199.377 222.934Z" fill="#D1F293"/>
<path d="M206.197 225.104C208.614 216.52 211.278 208.121 214.332 199.342C215.477 198.966 216.23 198.971 217.137 199.294C219.526 204.066 221.763 208.52 223.999 213.39C222.999 219.44 222 225.073 221 230.705C220.819 230.759 220.638 230.812 220.208 231.003C218.925 230.661 217.891 230.181 216.501 229.67C213.67 228.514 211.193 227.39 208.373 226.241C207.5 225.908 206.971 225.598 206.197 225.104Z" fill="#D4E76B"/>
<path d="M181.058 229.538C183.419 228.724 185.78 227.909 188.505 227.031C188.966 228.166 189.59 229.689 189.081 230.511C182.377 241.338 175.514 252.066 168.378 262.938C167.881 263.021 167.695 262.985 167.293 262.565C167.32 260.781 167.562 259.382 167.855 257.592C168.441 255.467 168.913 253.71 169.523 252.002C171.967 245.168 174.453 238.349 176.923 231.524C176.923 231.524 176.919 231.253 177.243 231.091C178.731 230.465 179.895 230.001 181.058 229.538Z" fill="#3DC4F3"/>
<path d="M174.034 169.436C170.679 169.876 167.302 169.921 163.454 169.57C160.195 161.46 157.427 153.739 154.614 146.034C152.412 140.005 150.156 133.996 147.924 127.979C145.824 121.888 143.754 115.786 141.617 109.708C139.148 102.683 136.621 95.6778 134.076 88.2759C134.844 88.8435 135.91 89.6801 136.424 90.7758C138.67 95.5711 140.464 100.597 142.956 105.255C149.411 117.319 156.347 129.127 162.699 141.244C166.681 148.84 170.012 156.782 173.485 164.635C174.057 165.928 173.856 167.563 174.034 169.436Z" fill="#D1F293"/>
<path d="M318.738 176.667C317.528 176.99 316.181 177.023 314.143 176.891C311.063 174.693 308.736 172.578 306.267 170.644C303.116 168.174 301.832 169.305 302.112 173.015C295.693 170.051 289.274 167.086 282.578 163.741C282.848 162.233 283.395 161.106 283.942 159.979C285.289 157.961 286.637 155.942 288.071 153.607C288.315 153.228 288.473 153.165 289.14 153.2C297.064 158.198 304.479 163.097 311.893 167.997C314.129 170.79 316.365 173.584 318.738 176.667Z" fill="#3DC4F3"/>
<path d="M283.608 159.919C283.395 161.106 282.848 162.233 282.243 163.663C281.721 164.354 281.256 164.743 280.409 164.859C278.981 162.734 278.181 160.68 276.849 159.064C268.445 148.872 259.897 138.8 251.483 128.616C250.689 127.655 250.492 126.2 250.017 124.974C251.172 124.895 252.328 124.815 253.756 124.89C263.221 136.308 272.407 147.578 281.626 158.821C282.016 159.297 282.717 159.518 283.608 159.919Z" fill="#B4D4C0"/>
<path d="M114.933 158.586C114.449 159.54 113.739 160.86 113.214 160.79C108.941 160.219 107.763 163.42 106.127 166.542C101.379 167.34 97.9128 165.3 95.2606 161.289C100.101 157.93 104.91 154.922 109.804 151.592C110.739 152.405 111.589 153.542 112.7 154.855C113.573 156.124 114.183 157.216 114.933 158.586Z" fill="#7AF0B5"/>
<path d="M103.009 140.416C103.29 140.574 103.635 141.008 104.033 141.718C103.749 141.56 103.411 141.126 103.009 140.416Z" fill="#B4D4C0"/>
<path d="M249.676 124.92C250.492 126.2 250.689 127.655 251.483 128.616C259.897 138.8 268.445 148.872 276.849 159.064C278.181 160.68 278.981 162.734 280.122 164.956C279.918 166.329 279.619 167.331 279.245 168.643C279.043 169.07 278.916 169.187 278.354 169.584C277.292 169.857 276.665 169.85 275.97 169.508C269.803 161.557 263.572 154.041 257.631 146.302C248.571 134.499 239.838 122.444 230.71 110.695C226.458 105.221 221.606 100.214 216.957 94.6187C216.608 92.4692 216.327 90.6967 216.047 88.9242C217.583 90.0853 219.389 91.0159 220.614 92.4447C229.078 102.323 237.397 112.325 245.837 122.224C246.762 123.309 248.158 123.995 249.676 124.92Z" fill="#B4ECAD"/>
<path d="M216.026 88.5627C216.327 90.6968 216.608 92.4693 216.949 94.9605C216.811 96.5519 216.611 97.4245 216.135 99.5019C211.349 93.0111 207.24 87.3615 203.026 81.7921C202.216 80.7212 200.989 79.9652 199.954 79.0639C199.9 75.3281 199.847 71.5924 199.882 67.3939C204.017 71.3668 208.264 75.6397 212.02 80.3082C213.827 82.5543 214.706 85.5467 216.026 88.5627Z" fill="#A2F3AF"/>
<path d="M278.823 206.001C278.73 210.704 278.636 215.408 278.08 220.59C275.278 221.602 272.723 223.001 270.647 222.482C266.693 221.494 262.816 219.752 259.256 217.713C250.495 212.695 245.015 204.604 240.408 196.072C243.165 196.702 245.575 197.378 248.046 198.394C250.726 204.782 255.828 208.063 261.472 210.743C269.523 214.568 274.708 212.563 276.273 204.024C277.106 204.06 277.66 204.096 278.334 204.437C278.577 205.162 278.7 205.581 278.823 206.001Z" fill="#4AF301"/>
<path d="M279.206 206.01C278.7 205.581 278.577 205.162 278.49 203.997C278.629 200.179 278.732 197.107 278.836 194.034C283.299 197.261 287.82 200.412 292.203 203.744C294.689 205.634 296.948 207.822 299.647 209.931C302.277 213.425 304.57 216.865 306.915 220.645C299.527 217.274 291.398 214.853 285.194 208.829C283.765 207.441 281.48 206.933 279.206 206.01Z" fill="#02D8C5"/>
<path d="M240.06 196.117C245.015 204.604 250.495 212.695 259.256 217.713C262.816 219.752 266.693 221.494 270.647 222.482C272.723 223.001 275.278 221.602 277.949 221.037C278.458 223.046 278.635 225.085 278.886 227.56C278.961 227.995 278.604 227.933 278.089 227.952C274.647 227.785 271.582 228.092 268.818 227.321C260.133 224.896 253.892 218.928 248.101 212.334C246.815 210.868 244.738 210.097 242.792 208.752C240.324 204.053 238.087 199.609 236.246 195.13C237.434 195.077 238.226 195.059 239.226 195.183C239.642 195.589 239.851 195.853 240.06 196.117Z" fill="#60F303"/>
<path d="M199.867 79.4685C200.989 79.9651 202.215 80.7211 203.026 81.7921C207.24 87.3614 211.349 93.011 216.135 99.5018C216.611 97.4245 216.811 96.5518 217.018 95.3374C221.606 100.214 226.458 105.221 230.71 110.695C239.838 122.444 248.571 134.499 257.631 146.302C263.572 154.041 269.803 161.557 275.547 169.595C273.481 170.077 271.771 170.139 269.693 170.134C268.58 169.998 267.835 169.928 267.051 169.51C258.814 159.064 250.597 148.983 242.424 138.866C237.254 132.465 231.889 126.2 227.091 119.529C222.192 112.717 218.363 105.091 211.012 99.8565C207.171 94.6556 203.516 89.7531 199.862 84.8507C199.835 83.1915 199.808 81.5323 199.867 79.4685Z" fill="#B4ED8A"/>
<path d="M199.825 85.3326C203.516 89.7532 207.171 94.6557 210.97 100.225C212.676 104.469 214.128 108.099 215.824 111.61C218.476 117.098 221.293 122.506 223.602 127.948C221.136 127.971 219.109 127.994 217.081 128.017C215.375 125.666 213.811 123.194 211.931 120.992C209.32 117.934 206.472 115.08 203.389 112.126C202.168 111.146 201.284 110.179 200.141 109.001C199.851 101.133 199.819 93.4736 199.825 85.3326Z" fill="#67F354"/>
<path d="M104.381 258.124C97.6629 245.494 98.9836 232.265 100.989 218.976C101.211 217.505 101.243 216.005 101.36 214.519C101.71 210.071 103.785 208.228 108.618 209.98C110.471 216.883 112.524 223.376 118.442 228.052C119.849 229.164 120.794 231.602 120.895 233.487C121.208 239.288 121.009 245.115 121.004 251.391C116.194 253.755 111.387 255.661 106.3 257.789C105.583 258.048 105.146 258.086 104.381 258.124Z" fill="#00E6EE"/>
<path d="M121.669 252.55C124.831 250.831 128.007 249.572 131.482 248.624C128.788 260.053 127.805 271.771 121.899 282.019C121.824 281.561 121.75 281.103 121.585 280.309C121.558 270.985 121.621 261.998 121.669 252.55Z" fill="#C600D2"/>
<path d="M147.602 127.887C150.156 133.996 152.413 140.005 154.614 146.034C157.427 153.739 160.195 161.46 162.996 169.564C163.748 173.728 164.121 177.622 165.29 181.259C170.389 197.114 175.719 212.894 181.012 229.12C179.895 230.001 178.731 230.465 177.245 230.955C172.632 218.437 168.343 205.892 164.053 193.347C162.396 188.505 160.733 183.666 159.078 178.823C155.506 168.374 151.965 157.914 148.359 147.476C145.019 137.806 141.603 128.162 138.233 118.503C134.194 106.921 130.168 95.3351 126.081 83.3811C128.16 86.94 130.657 90.7195 132.35 94.8303C135.294 101.977 137.468 109.444 140.502 116.547C142.205 120.534 144.985 124.061 147.602 127.887Z" fill="#B4ECAD"/>
<path d="M176.569 231.635C174.453 238.349 171.967 245.168 169.523 252.002C168.913 253.71 168.441 255.467 167.558 257.701C165.247 260.374 163.283 262.549 161.319 264.723C161.074 264.476 160.83 264.23 160.585 263.983C161.368 261.282 162.151 258.58 163.124 255.225C159.662 257.305 157.391 258.669 155.12 260.034C157.273 255.048 159.443 250.069 161.573 245.073C162.736 242.347 163.832 239.593 164.978 236.477C165.56 235.67 166.122 235.236 166.841 234.599C168.45 234.018 169.901 233.639 171.673 233.068C173.401 232.499 174.808 232.122 176.569 231.635Z" fill="#559EF3"/>
<path d="M123.079 76.3384C123.986 77.1056 124.936 78.2105 125.928 79.6527C125.021 78.8854 124.072 77.7807 123.079 76.3384Z" fill="#B4ECAD"/>
<path d="M312.137 167.775C304.478 163.097 297.064 158.198 289.378 153.106C290.407 150.552 291.707 148.191 293.103 145.509C293.656 144.879 294.112 144.571 294.817 144.143C298.661 147.483 302.256 150.943 305.897 154.753C306.679 156.948 307.264 158.872 308.188 160.617C309.451 163.001 310.972 165.248 312.137 167.775Z" fill="#559EF3"/>
<path d="M278.757 193.61C278.732 197.107 278.629 200.179 278.37 203.692C277.66 204.096 277.106 204.06 275.93 203.955C273.54 201.59 271.772 199.292 270.056 196.66C274.546 191.811 270.784 188.058 268.999 183.78C269.018 182.979 269.011 182.521 269.344 182.119C272.535 183.865 275.386 185.556 278.237 187.247C278.384 189.227 278.531 191.206 278.757 193.61Z" fill="#31F31A"/>
<path d="M278.424 186.857C275.386 185.556 272.535 183.865 269.213 181.795C266.199 177.653 263.656 173.888 261.536 170.083C263.669 169.98 265.38 169.92 267.09 169.859C267.835 169.928 268.58 169.998 269.695 170.489C271.164 175.221 273.278 178.516 278.183 179.013C278.326 181.497 278.468 183.982 278.424 186.857Z" fill="#06F362"/>
<path d="M278.37 178.662C273.277 178.516 271.164 175.221 270.063 170.556C271.771 170.139 273.481 170.077 275.614 169.929C276.665 169.85 277.292 169.857 278.226 169.81C278.541 172.608 278.549 175.459 278.37 178.662Z" fill="#03F37C"/>
<path d="M199.997 159.43C205.728 160.126 208.085 164.879 210.623 169.483C209.501 170.004 208.735 170.092 207.536 170.096C204.756 170.026 202.409 170.04 200.062 170.054C200.062 170.054 199.984 169.858 199.925 169.768C199.893 166.413 199.919 163.148 199.997 159.43Z" fill="#78F303"/>
<path d="M154.805 260.182C157.391 258.669 159.662 257.305 163.124 255.225C162.151 258.58 161.368 261.282 160.585 263.983C160.83 264.23 161.074 264.476 161.319 264.723C163.283 262.549 165.247 260.374 167.508 258.092C167.562 259.382 167.32 260.781 167.013 262.527C163.925 267.98 160.904 273.089 157.875 278.193C157.026 279.623 156.152 281.038 155.127 282.773C153.808 283.951 152.215 284.571 151.564 285.723C146.059 295.472 140.981 305.47 135.253 315.082C131.407 321.536 126.713 327.486 122.088 333.831C121.716 329.346 121.655 324.693 121.635 319.593C123.445 316.771 125.571 314.58 126.922 311.985C134.896 296.661 144.965 282.403 150.385 265.759C151.049 263.72 153.088 262.129 154.805 260.182Z" fill="#4779F3"/>
<path d="M121.816 282.48C127.805 271.771 128.788 260.053 131.836 248.568C132.721 247.795 133.552 247.39 134.687 246.82C137.889 245.644 140.787 244.633 143.949 243.38C144.907 243.022 145.599 242.906 146.633 243.15C145.637 247.041 143.998 250.496 143.091 254.134C142.648 255.915 143.565 258.035 143.867 260.001C142.646 263.879 142.05 268.111 140.085 271.566C134.467 281.446 128.293 291.01 122.051 300.923C121.754 295.08 121.744 289.011 121.816 282.48Z" fill="#AC27F3"/>
<path d="M271.01 250.239C267.165 254.693 264.766 259.555 263.735 265.613C262.799 271.112 259.666 276.237 257.248 281.756C255.204 283.471 253.16 284.743 251.682 286.492C249.173 289.46 247.02 292.729 244.384 295.935C244.026 294.924 244.003 293.85 243.959 292.373C247.965 283.455 251.94 274.917 256.036 266.436C258.91 260.487 261.948 254.617 265.367 248.342C267.551 248.728 269.28 249.483 271.01 250.239Z" fill="#31F31A"/>
<path d="M271.323 250.201C269.28 249.483 267.551 248.728 265.469 247.99C263.7 247.368 262.284 246.729 260.545 246.096C259.647 245.733 259.073 245.363 258.226 244.788C255.721 242.245 253.365 240.011 251.283 237.546C247.619 233.209 244.122 228.731 240.273 223.962C239.875 224.22 238.715 224.974 236.727 226.265C235.764 223.282 234.898 220.599 234.437 217.48C235.894 217.038 236.945 217.032 238.152 217.33C240.852 219.922 243.422 222.183 245.935 224.507C251.516 229.67 256.617 235.51 262.785 239.829C267.16 242.892 271.811 246.902 278.139 246.354C278.148 248.512 278.089 250.317 278.029 252.123C276.902 251.835 275.776 251.547 274.31 251.174C273.192 250.78 272.413 250.471 271.323 250.201Z" fill="#B1F303"/>
<path d="M90.0198 187.435C91.665 189.613 94.1197 192.02 94.7936 194.85C97.9972 208.309 98.0633 221.741 93.9305 235.18C92.8964 238.543 93.3749 242.613 94.0376 246.195C94.8793 250.745 96.6172 255.13 98.0428 259.989C96.7051 260.965 95.2933 261.538 93.5481 262.126C91.0408 257.204 89.1531 252.114 86.619 247.369C83.5718 241.663 86.2511 237.134 88.7907 232.426C95.2859 220.383 94.2979 207.863 91.2359 195.183C90.6564 192.783 90.4092 190.303 90.0198 187.435Z" fill="#00C8F1"/>
<path d="M302.386 173.184C301.832 169.306 303.116 168.174 306.267 170.644C308.736 172.578 311.063 174.693 313.737 176.922C314.676 178.502 315.333 179.887 316.002 181.612C314.588 181.644 313.163 181.338 311.371 181.025C308.223 178.464 305.441 175.908 302.386 173.184Z" fill="#02B8F0"/>
<path d="M278.981 287.018C278.689 286.876 278.451 286.67 278.154 286.192C278.04 284.601 278.041 283.218 278.027 281.169C278.003 280.336 277.994 280.169 277.986 280.002C278.244 279.853 278.463 279.658 279.124 279.17C284.936 276.242 286.889 271.347 288.485 265.946C290.627 265.619 292.389 265.314 294.05 265.357C292.982 268.116 292.015 270.528 290.974 273.293C286.927 278.103 282.954 282.561 278.981 287.018Z" fill="#60F303"/>
<path d="M277.931 270.367C277.942 267.639 277.987 265.221 278.446 262.32C282.278 261.125 285.565 260.25 286.516 256.01C292.59 257.854 292.738 258.362 289.064 262.848C288.577 263.443 288.393 264.286 287.702 265.032C284.271 267.337 281.208 269.622 278.145 271.908C278.086 271.497 278.026 271.087 277.931 270.367Z" fill="#31F31A"/>
<path d="M278.128 272.309C281.208 269.622 284.271 267.337 287.716 265.271C288.097 265.49 288.104 265.969 288.104 265.969C286.889 271.347 284.936 276.242 279.256 278.993C278.641 276.947 278.376 274.829 278.128 272.309Z" fill="#4AF301"/>
<path d="M277.869 280.11C277.994 280.169 278.003 280.336 278.009 280.754C277.683 280.801 277.598 280.538 277.869 280.11Z" fill="#B1F303"/>
<path d="M288.485 265.946C288.103 265.969 288.096 265.49 288.083 265.252C288.393 264.286 288.577 263.443 289.064 262.848C292.738 258.362 292.59 257.854 286.252 255.761C283.131 254.69 280.634 253.876 278.137 253.062C278.137 253.062 278.084 252.591 278.056 252.357C278.089 250.317 278.148 248.512 278.167 245.933C278.32 242.779 278.514 240.398 278.707 238.018C282.472 241.136 286.236 244.255 290.171 247.691C289.585 254.627 295.716 256.362 298.755 260.614C297.089 262.389 295.619 263.699 294.15 265.009C292.389 265.314 290.627 265.619 288.485 265.946Z" fill="#67F354"/>
<path d="M278.091 253.398C280.634 253.876 283.131 254.69 285.893 255.754C285.565 260.25 282.278 261.125 278.499 261.87C277.979 261.636 277.859 261.353 277.731 260.821C277.648 260.299 277.557 260.028 277.517 259.375C277.71 257.674 277.792 256.376 277.875 255.078C277.932 254.63 277.989 254.182 278.091 253.398Z" fill="#05F334"/>
<path d="M277.651 255.385C277.793 256.376 277.71 257.674 277.34 259.248C277.177 258.246 277.301 256.97 277.651 255.385Z" fill="#78F303"/>
<path d="M294.05 265.357C295.619 263.699 297.089 262.389 298.873 260.934C302.508 261.838 305.829 262.886 309.378 264.105C309.527 266.313 309.446 268.349 309.072 270.69C304.57 269.585 302.777 273.731 298.961 274.961C297.459 274.975 296.703 274.967 295.845 274.617C294.179 273.829 292.613 273.385 291.048 272.94C292.015 270.528 292.982 268.116 294.05 265.357Z" fill="#93F328"/>
<path d="M243.025 209.005C244.738 210.097 246.815 210.868 248.101 212.334C253.892 218.928 260.133 224.896 268.819 227.321C271.582 228.092 274.647 227.785 277.909 227.928C278.447 229.654 278.65 231.422 278.943 233.63C278.913 234.23 278.791 234.39 278.111 234.791C273.046 233.581 267.805 233.13 264.184 230.472C256.661 224.95 249.998 218.257 242.982 211.665C242.996 210.524 243.011 209.765 243.025 209.005Z" fill="#78F303"/>
<path d="M295.946 274.959C296.703 274.967 297.459 274.975 298.593 274.991C294.988 284.429 288.131 290.952 278.416 294.949C278.264 293.524 278.476 292.1 279.189 290.28C281.123 289.08 282.818 288.539 283.946 287.424C288.049 283.373 291.962 279.13 295.946 274.959Z" fill="#9CF300"/>
<path d="M295.845 274.617C291.961 279.13 288.048 283.373 283.946 287.424C282.818 288.539 281.123 289.08 279.34 289.949C278.984 289.264 278.977 288.515 278.976 287.392C282.954 282.561 286.927 278.103 290.974 273.293C292.613 273.385 294.179 273.829 295.845 274.617Z" fill="#78F303"/>
<path d="M242.982 212.046C249.998 218.257 256.661 224.95 264.184 230.472C267.805 233.13 273.046 233.581 277.921 235.025C278.43 235.765 278.57 236.51 278.709 237.636C278.514 240.398 278.32 242.779 278.098 245.58C271.811 246.902 267.16 242.892 262.785 239.829C256.617 235.51 251.516 229.671 245.935 224.508C243.422 222.183 240.852 219.923 238.019 217.005C236.183 210.936 241.755 214.124 242.982 212.046Z" fill="#9CF300"/>
<path d="M217.124 128.389C219.109 127.994 221.136 127.971 223.776 128.236C225.516 129.731 226.762 130.848 227.754 132.157C236.067 143.126 244.372 154.102 252.561 165.163C253.48 166.404 253.667 168.186 253.722 169.801C249.864 169.833 246.478 169.781 243.069 169.357C238.488 159.577 235.386 149.022 224.097 144.91C221.787 139.527 219.477 134.144 217.124 128.389Z" fill="#93F328"/>
<path d="M239.018 195.041C238.226 195.059 237.434 195.077 235.964 194.91C231.921 193.553 228.556 192.381 224.863 191.03C221.75 189.225 218.965 187.6 216.169 185.556C216.078 183.739 215.998 182.339 216.16 180.683C215.592 176.957 214.783 173.489 213.974 170.021C217.665 169.989 221.355 169.957 225.498 170.338C226.227 175.821 230.088 177.354 233.996 179.216C234.689 180.726 235.347 181.894 235.923 183.399C236.09 185.583 236.135 187.489 236.644 189.262C237.217 191.251 238.209 193.12 239.018 195.041Z" fill="#67F354"/>
<path d="M224.124 145.282C235.386 149.022 238.488 159.577 242.609 169.429C239.123 169.951 236.072 170.031 232.689 170.055C231.913 169.917 231.47 169.837 231.028 169.757C231.719 160.872 227.017 153.525 224.124 145.282Z" fill="#78F303"/>
<path d="M213.602 170.02C214.783 173.489 215.592 176.957 215.833 180.628C213.504 179.852 211.743 178.873 209.979 177.525C209.306 174.831 208.637 172.505 207.969 170.18C208.735 170.092 209.501 170.005 210.644 169.832C211.757 169.838 212.493 169.928 213.602 170.02Z" fill="#7AF0B5"/>
<path d="M230.613 169.842C231.47 169.837 231.913 169.917 232.685 170.465C233.331 173.58 233.647 176.227 233.963 178.875C230.088 177.354 226.227 175.821 225.956 170.369C227.374 169.966 228.786 169.947 230.613 169.842Z" fill="#06F362"/>
<path d="M225.191 191.21C228.556 192.381 231.921 193.553 235.569 194.944C238.087 199.609 240.324 204.053 242.792 208.752C243.011 209.765 242.996 210.524 242.982 211.665C241.755 214.124 236.183 210.936 237.864 216.702C236.945 217.032 235.894 217.038 234.453 217.094C232.985 216.816 231.907 216.486 230.452 215.764C229.731 214.545 229.387 213.718 229.04 212.491C229.288 210.332 229.715 208.576 229.744 206.814C229.778 204.808 229.823 202.676 229.211 200.813C228.131 197.526 226.558 194.402 225.191 191.21Z" fill="#93F328"/>
<path d="M229.042 212.892C229.387 213.718 229.731 214.545 230.119 215.718C229.481 221.491 228.798 226.917 228.033 232.731C225.857 232.423 223.763 231.727 221.334 230.868C222 225.073 222.999 219.44 224.419 213.401C226.24 212.961 227.641 212.926 229.042 212.892Z" fill="#D4D136"/>
<path d="M144.067 259.716C143.565 258.035 142.648 255.915 143.091 254.134C143.998 250.496 145.637 247.041 146.982 243.106C148.842 241.981 150.693 241.261 152.934 240.6C150.306 246.917 147.287 253.173 144.067 259.716Z" fill="#B54AD3"/>
<path d="M207.996 186.979C205.549 185.355 203.102 183.731 200.315 182.038C199.957 179.28 199.939 176.589 200.285 173.507C203.077 174.764 205.506 176.412 207.956 178.439C206.93 181.539 211.918 184.249 207.996 186.979Z" fill="#B4ECAD"/>
<path d="M207.934 178.061C205.505 176.412 203.077 174.764 200.306 173.057C199.965 172.262 199.967 171.524 200.015 170.42C202.409 170.04 204.756 170.026 207.536 170.096C208.637 172.505 209.306 174.83 209.639 177.566C208.847 178.005 208.391 178.033 207.934 178.061Z" fill="#A2F3AF"/>
<path d="M207.956 178.439C208.391 178.033 208.847 178.005 209.643 177.935C211.743 178.873 213.504 179.852 215.591 180.886C215.998 182.339 216.078 183.739 216.121 185.979C216.384 190.872 216.684 194.924 216.984 198.975C216.23 198.971 215.477 198.967 214.345 198.944C211.988 195.193 210.008 191.46 208.012 187.353C211.918 184.249 206.93 181.54 207.956 178.439Z" fill="#B4ED8A"/>
<path d="M217.137 199.294C216.684 194.924 216.384 190.872 216.132 186.398C218.965 187.6 221.75 189.225 224.863 191.03C226.558 194.402 228.131 197.526 229.211 200.813C229.823 202.676 229.778 204.808 229.744 206.814C229.715 208.576 229.288 210.332 229.04 212.491C227.641 212.926 226.24 212.961 224.419 212.985C221.763 208.52 219.526 204.066 217.137 199.294Z" fill="#B3F160"/>
<path d="M270.005 196.995C271.772 199.292 273.54 201.59 275.651 203.956C274.708 212.563 269.523 214.568 261.472 210.743C255.828 208.063 250.726 204.782 248.181 198.09C248.506 196.605 248.757 195.766 249.372 194.953C251.016 195.666 252.476 196.146 253.548 197.074C260.998 203.525 263.446 203.548 270.005 196.995Z" fill="#30F302"/>
<path d="M249.008 194.927C248.757 195.766 248.506 196.605 248.12 197.749C245.575 197.378 243.165 196.702 240.408 196.072C239.851 195.853 239.643 195.589 239.226 195.183C238.209 193.12 237.217 191.251 236.644 189.262C236.135 187.489 236.09 185.583 236.282 183.37C237.204 182.989 237.685 182.976 238.312 183.266C239.968 184.967 241.264 187.093 243.032 187.613C246.941 188.763 248.536 191.249 249.008 194.927Z" fill="#31F31A"/>
<path d="M254.193 169.716C253.667 168.186 253.48 166.404 252.561 165.163C244.372 154.102 236.067 143.126 227.754 132.157C226.762 130.848 225.516 129.731 224.213 128.236C221.293 122.506 218.476 117.098 215.824 111.61C214.128 108.099 212.676 104.469 211.157 100.524C218.363 105.091 222.192 112.717 227.091 119.529C231.889 126.2 237.254 132.465 242.424 138.866C250.597 148.983 258.814 159.064 267.051 169.51C265.38 169.92 263.669 169.98 261.1 169.992C258.225 169.868 256.209 169.792 254.193 169.716Z" fill="#B3F160"/>
<path d="M249.372 194.953C248.536 191.249 246.941 188.763 243.032 187.613C241.264 187.093 239.968 184.967 238.513 182.992C241.236 179.529 243.786 176.519 246.65 173.844C247.405 173.138 249.417 172.92 250.353 173.418C254.308 175.521 258.05 178.02 261.918 180.292C264.225 181.648 266.619 182.852 268.974 184.124C270.784 188.058 274.546 191.811 270.056 196.66C263.446 203.548 260.998 203.525 253.548 197.074C252.476 196.146 251.016 195.666 249.372 194.953Z" fill="#03F31C"/>
<path d="M268.999 183.78C266.619 182.852 264.224 181.648 261.918 180.292C258.05 178.02 254.308 175.521 250.353 173.418C249.417 172.92 247.405 173.138 246.65 173.844C243.786 176.519 241.236 179.529 238.367 182.688C237.685 182.976 237.204 182.989 236.365 183.032C235.347 181.894 234.689 180.726 233.996 179.216C233.647 176.227 233.331 173.58 233.018 170.522C236.072 170.031 239.123 169.951 242.632 169.8C246.478 169.781 249.864 169.833 253.722 169.801C256.209 169.792 258.225 169.868 260.677 170.034C263.656 173.888 266.199 177.653 268.874 181.74C269.011 182.521 269.018 182.979 268.999 183.78Z" fill="#05F334"/>
</svg>
