<svg width="125" height="125" viewBox="0 0 125 125" fill="none" xmlns="http://www.w3.org/2000/svg">
<g clip-path="url(#clip0_243_507)">
<path d="M62.5 125C97.0178 125 125 97.0178 125 62.5C125 27.9822 97.0178 0 62.5 0C27.9822 0 0 27.9822 0 62.5C0 97.0178 27.9822 125 62.5 125Z" fill="url(#paint0_linear_243_507)"/>
<g opacity="0.17">
<path d="M110.287 99.057H99.4561C97.3328 99.057 95.3917 97.8572 94.4423 95.9578C87.3411 84.2374 78.2785 80.8031 72.4679 80.8188V68.9417C77.5381 68.9024 81.655 72.466 85.135 77.3371L63.7355 34.5242L42.3035 77.4022C45.7924 72.5006 49.9222 68.9081 55.0131 68.9475V80.8246C49.1831 80.8088 40.0792 84.2653 32.9674 96.0804C32.0556 97.9046 30.1913 99.057 28.1519 99.057H17.1843C16.913 99.057 16.7365 98.7715 16.8578 98.5289L56.2927 19.6336L61.2744 9.66678C62.2883 7.63842 65.1828 7.63842 66.1966 9.66677L71.1784 19.6336L110.613 98.5289C110.735 98.7715 110.558 99.057 110.287 99.057ZM67.692 65.6203C67.0128 66.0727 66.2637 66.4238 65.635 66.9437C64.585 67.8115 63.9967 69.0783 63.7245 70.4258C63.1702 68.0403 61.2123 65.9612 60.6155 63.3687C60.3499 62.2164 60.2475 61.0068 59.7272 59.9447C59.0365 58.5333 57.6989 57.5613 56.3576 56.7427C57.4209 58.1957 57.4041 60.1614 57.1712 61.9468C56.9384 63.7321 56.5362 65.5626 56.9781 67.308C57.5517 69.5723 59.4203 71.2387 61.1947 72.7579C61.331 72.8746 61.4729 72.9917 61.619 73.107V84.1676C62.8792 85.2541 64.1 86.3874 65.3908 87.4379V73.7334C69.4291 70.7723 70.6664 67.6407 71.0714 66.3928C71.667 64.5577 70.889 63.1081 72.3488 60.1884C69.7941 61.4657 69.5963 64.3519 67.692 65.6203Z" fill="#1A1A1A"/>
</g>
<path d="M41.199 91.2029C43.5846 92.9544 46.303 94.3042 49.0025 95.5535C49.3729 95.7293 49.7056 95.9177 49.9881 96.1185V103.432C49.3101 103.495 48.4124 103.307 47.2321 102.874C30.8843 96.8719 19.2575 80.3545 19.2072 62.6946C19.1508 44.5764 30.5139 28.0151 47.0877 22.0322C48.381 21.5676 49.3164 21.2851 49.9881 21.26V28.7057C49.2913 29.12 48.4626 29.4528 47.659 29.8295C22.8171 41.3558 19.2512 75.0748 41.199 91.2029Z" fill="#FDFDFE"/>
<path d="M105.793 62.6443C105.824 80.5114 94.612 96.8341 78.0382 102.88C77.1781 103.194 76.0481 104.035 75.1001 104.016V96.2691C75.1315 96.2503 75.1629 96.2377 75.1943 96.2189C76.2553 95.6664 77.4104 95.2898 78.4588 94.731C91.5044 87.7437 98.3976 76.8012 98.2219 62.0354C98.0398 47.4203 90.8138 36.8481 77.831 30.1998C76.9395 29.7478 75.9225 29.5092 75.1001 28.9693V20.99C76.1108 20.8958 77.2974 21.8752 78.1763 22.2079C94.6183 28.3917 105.755 44.796 105.793 62.6443Z" fill="#FDFDFE"/>
<path d="M71.2452 82.0245C70.7493 82.2317 70.2847 82.4389 69.8452 82.6649L69.6694 82.7465C68.5583 83.2989 67.4031 83.7133 66.2228 83.9895V91.3787H58.7772C58.7772 91.3787 58.7772 83.9833 58.7772 83.977C58.7772 83.8703 56.9001 83.368 56.7368 83.3178C56.0149 83.0792 55.2929 82.8281 54.5772 82.5644C54.257 82.4514 53.9369 82.3384 53.623 82.2066C53.3405 82.0936 52.8194 81.9743 52.6059 81.7546C51.4131 81.1582 50.3522 80.3232 49.4732 79.3187C48.2553 77.9313 47.3952 76.2676 46.78 74.5411C46.1585 72.7896 45.8508 70.3098 45.8508 70.3098H53.1082C53.1082 70.3098 53.5351 71.6722 54.0561 72.8838C56.1907 77.8873 63.674 79.6451 68.0937 76.4183C70.1152 74.943 70.7619 72.9215 70.5233 70.5107C70.3035 68.2569 68.8722 66.926 66.926 66.3736C63.9126 65.5197 60.8112 64.9924 57.7476 64.3269C50.6535 62.8014 47.3889 59.7252 46.962 54.1692C46.5414 48.6697 48.8894 44.7145 54.3889 42.3791C55.7575 41.6823 57.1888 41.1738 58.6516 40.8599V33.5774H66.1412V40.8975C67.5475 41.2114 68.9224 41.7074 70.2345 42.3791C72.639 43.3145 74.4093 45.3109 75.6712 47.6903C76.2864 48.8517 77.3851 51.1243 77.3851 51.1243L71.2306 54.7209C71.2306 54.7209 70.2031 52.6374 69.6443 51.4194C67.4847 46.7298 63.6363 46.5414 59.4426 47.075C56.8059 47.4141 55.0292 48.8706 54.6902 51.658C54.3324 54.6149 55.5942 56.7118 58.4444 57.4525C61.9036 58.3503 65.482 58.796 68.9538 59.6686C74.9429 61.1691 77.6801 64.0695 78.264 69.1672C78.8918 74.6919 76.3806 79.8461 71.2452 82.0245Z" fill="#FDFDFE"/>
</g>
<defs>
<linearGradient id="paint0_linear_243_507" x1="-16.1597" y1="24.7438" x2="121.953" y2="91.037" gradientUnits="userSpaceOnUse">
<stop stop-color="#13577A"/>
<stop offset="0.31733" stop-color="#5AB8AA"/>
<stop offset="0.85627" stop-color="#8DC121"/>
</linearGradient>
<clipPath id="clip0_243_507">
<rect width="125" height="125" fill="white"/>
</clipPath>
</defs>
</svg>
