<svg fill="none" height="200" viewBox="0 0 200 200" width="200" xmlns="http://www.w3.org/2000/svg" xmlns:xlink="http://www.w3.org/1999/xlink"><linearGradient id="a" gradientUnits="userSpaceOnUse" x1="-5.35606" x2="179.631" y1="49.4297" y2="138.222"><stop offset="0" stop-color="#13577a"/><stop offset=".31733" stop-color="#5ab8aa"/><stop offset=".85627" stop-color="#8dc121"/></linearGradient><mask id="b" height="168" maskUnits="userSpaceOnUse" width="168" x="16" y="16"><path d="m183.712 16.2881h-167.4239v167.4239h167.4239z" fill="#fff"/></mask><g mask="url(#b)"><path d="m100 183.712c46.233 0 83.712-37.479 83.712-83.712 0-46.2328-37.479-83.7119-83.712-83.7119-46.2328 0-83.7119 37.4791-83.7119 83.7119 0 46.233 37.4791 83.712 83.7119 83.712z" fill="url(#a)"/><path d="m164.005 148.964h-14.506c-2.844 0-5.444-1.607-6.716-4.151-9.511-15.698-21.65-20.298-29.432-20.277v-15.908c6.791-.053 12.305 4.72 16.966 11.245l-28.662-57.3435-28.7061 57.4305c4.673-6.565 10.2044-11.377 17.0231-11.324v15.908c-7.8086-.021-20.0023 4.608-29.5278 20.433-1.2213 2.444-3.7183 3.987-6.4498 3.987h-14.6899c-.3634 0-.5998-.382-.4374-.707l52.8188-105.6718 6.6724-13.3495c1.358-2.7168 5.2347-2.7168 6.5927 0l6.673 13.3495 52.818 105.6718c.163.325-.074.707-.437.707zm-57.051-44.785c-.91.606-1.913 1.077-2.755 1.773-1.406 1.162-2.194 2.859-2.559 4.664-.742-3.195-3.3648-5.98-4.1642-9.452-.3557-1.5438-.4929-3.164-1.1898-4.5865-.9251-1.8904-2.7167-3.1923-4.5132-4.2888 1.4242 1.9462 1.4017 4.579 1.0897 6.9704-.3118 2.3909-.8505 4.8429-.2586 7.1809.7683 3.033 3.2711 5.265 5.6477 7.299.1825.157.3726.314.5683.468v14.814c1.6881 1.456 3.3231 2.974 5.0521 4.381v-18.356c5.409-3.966 7.066-8.161 7.608-9.832.798-2.458-.244-4.399 1.711-8.3101-3.421 1.7108-3.686 5.5761-6.237 7.2751z" fill="#1a1a1a" opacity=".17"/><g fill="#fdfdfe"><path d="m71.4696 138.444c3.1952 2.346 6.8362 4.154 10.4519 5.828.4961.235.9417.487 1.3201.756v9.796c-.9081.084-2.1105-.167-3.6914-.747-21.896-8.04-37.4689-30.163-37.5362-53.816-.0756-24.2677 15.144-46.4497 37.3428-54.4632 1.7323-.6223 2.9851-1.0006 3.8848-1.0343v9.9728c-.9333.5549-2.0432 1.0006-3.1196 1.5052-33.273 15.4382-38.0491 60.6015-8.6524 82.2025z"/><path d="m157.986 100.193c.042 23.931-14.975 45.794-37.174 53.892-1.152.42-2.666 1.547-3.936 1.521v-10.376c.043-.025.085-.042.127-.067 1.421-.74 2.968-1.245 4.372-1.993 17.473-9.359 26.706-24.015 26.471-43.7922-.244-19.5754-9.923-33.7357-27.312-42.6403-1.194-.6054-2.556-.925-3.658-1.6482v-10.6874c1.354-.1261 2.944 1.1857 4.121 1.6313 22.022 8.2825 36.938 30.2543 36.989 54.1598z"/><path d="m111.713 126.151c-.664.277-1.286.555-1.875.858l-.235.109c-1.489.74-3.036 1.295-4.617 1.665v9.897h-9.9723s0-9.905 0-9.914c0-.143-2.5142-.816-2.7329-.883-.9669-.319-1.9339-.656-2.8925-1.009-.4289-.151-.8577-.303-1.2781-.479-.3784-.152-1.0763-.311-1.3623-.606-1.5976-.798-3.0186-1.917-4.1959-3.262-1.6312-1.858-2.7833-4.087-3.6072-6.399-.8325-2.346-1.2446-5.668-1.2446-5.668h9.7205s.5718 1.825 1.2696 3.448c2.8591 6.702 12.8817 9.056 18.8017 4.734 2.708-1.976 3.574-4.684 3.254-7.913-.294-3.018-2.211-4.801-4.818-5.541-4.036-1.143-8.19-1.85-12.2933-2.741-9.5018-2.043-13.8744-6.1635-14.4462-13.6052-.5633-7.366 2.5816-12.6635 9.9475-15.7915 1.8331-.9333 3.7502-1.6144 5.7095-2.0348v-9.7541h10.0315v9.8044c1.884.4205 3.725 1.0848 5.482 1.9845 3.221 1.2528 5.592 3.9268 7.282 7.1137.824 1.5556 2.296 4.5995 2.296 4.5995l-8.243 4.8173s-1.377-2.7907-2.125-4.422c-2.893-6.2812-8.047-6.5336-13.6641-5.8189-3.5315.4542-5.9112 2.405-6.3653 6.1384-.4792 3.9605 1.2108 6.7691 5.0283 7.7611 4.6333 1.2025 9.4261 1.7995 14.0761 2.9683 8.022 2.0097 11.688 5.8943 12.47 12.7223.841 7.4-2.522 14.303-9.401 17.221z"/></g></g></svg>