<svg fill="none" height="200" viewBox="0 0 200 200" width="200" xmlns="http://www.w3.org/2000/svg" xmlns:xlink="http://www.w3.org/1999/xlink"><linearGradient id="a" gradientUnits="userSpaceOnUse" x1="44.0633" x2="146.583" y1="153.757" y2="55.2321"><stop offset=".0156851" stop-color="#2e0e5b"/><stop offset="1" stop-color="#2e205b"/></linearGradient><linearGradient id="b"><stop offset=".0403439" stop-color="#6af2a6"/><stop offset=".197" stop-color="#64efab"/><stop offset=".4077" stop-color="#53e8b9"/><stop offset=".6492" stop-color="#37dcd1"/><stop offset=".9118" stop-color="#10cbf1"/><stop offset="1" stop-color="#01c5fd"/></linearGradient><linearGradient id="c" gradientUnits="userSpaceOnUse" x1="158.685" x2="84.595" xlink:href="#b" y1="47.854" y2="156.625"/><linearGradient id="d" gradientUnits="userSpaceOnUse" x1="141.919" x2="67.8282" xlink:href="#b" y1="36.4339" y2="145.205"/><linearGradient id="e" gradientUnits="userSpaceOnUse" x1="132.353" x2="58.2626" xlink:href="#b" y1="29.918" y2="138.689"/><path d="m100 184c-46.4291 0-84-37.571-84-84 0-46.4291 37.5709-84 84-84 46.429 0 84 37.5709 84 84 0 46.429-37.571 84-84 84z" fill="url(#a)"/><path d="m144.597 125.811c-.153.305-.306.611-.458.764l-.306.458c-1.069 1.527-2.291 2.749-3.818 3.665l-32.531 18.786c-2.291 1.374-4.887 1.985-7.331 1.985-2.5962 0-5.0399-.611-7.3308-1.985l-28.56-16.342c-.3054-.306-.6109-.458-.9163-.611-.3055-.458-.4582-.764-.4582-1.222.3054-1.069 2.7491-1.527 2.9018-1.68.6109-.153 1.2218-.153 1.8327-.305h.4582c1.0691-.153 2.1382-.306 3.0546-.459 1.0691-.152 1.9854-.305 3.0545-.458 4.1236-.611 8.0946-1.069 12.0655-1.527 3.8182-.458 7.6363-.916 11.6072-1.222 4.1238-.458 7.9418-.763 11.3018-.916 3.666-.153 7.331-.458 10.844-.611 3.512-.153 7.025-.153 10.538-.306h1.069 1.069c2.596 0 5.346 0 8.095.153h1.069.611c1.069.153 1.68.458 1.985.917.306.305.306.61.153.916z" fill="url(#c)"/><path d="m146.582 97.0982v10.6908c0 3.971 0 4.124-8.248 5.04l-5.345.458c-.764 0-1.375.153-2.138.153l-1.68.305c-13.593 1.375-27.338 2.597-40.9311 3.36-6.109.306-12.0654.611-18.1745.917-2.7491.153-5.6509.153-8.4.305-1.3745 0-2.7491 0-4.1236 0-1.0691 0-2.7491.306-3.6655-.458-.7636-.764-.6109-2.291-.6109-3.36v-26.8799c0-3.8182 1.2218-4.5818 9.0109-5.04h4.4291c22.9091 0 47.1926 3.36 76.5166 10.6909h.152c.306 0 .459.1528.764.1528 1.222.4581 2.444.1527 2.444 3.6654z" fill="url(#d)"/><path d="m144.596 79.3818c-.152.1527-.305.1527-.458.3054-.916.3055-1.985.1528-2.902 0-1.069 0-2.138-.1527-3.207-.1527-1.985-.1527-4.123-.3054-6.109-.6109-2.749-.3054-5.498-.6109-8.094-.9164-4.124-.4581-8.248-.9163-12.219-1.3745-4.734-.4582-9.621-1.0691-14.356-1.5273-4.7346-.4582-9.4691-1.0691-14.2036-1.5272-4.1237-.4582-8.0946-.9164-12.2182-1.2219-2.5964-.3054-5.3455-.6109-7.9418-.9163-.611 0-1.3746-.1528-1.9855-.1528-.1527 0-.3055 0-.4582 0-.4582-.1527-.9163-.1527-1.2218-.4581-.1527-.1528-.1527-.4582.1527-.9164l.1528-.1527c.1527-.1528.4581-.3055.6109-.4582.3054-.1527.4581-.3055.7636-.4582l31.7673-18.3273c2.2909-1.2218 4.8872-1.9854 7.4838-1.9854 2.596 0 5.193.6109 7.331 1.9854 0 0 31.309 18.0219 31.767 18.3273 2.596 1.5273 4.735 4.1236 5.345 7.1782.153.7636.611 2.5964 0 3.36z" fill="url(#e)"/></svg>