<svg width="1024" height="1024" viewBox="0 0 1024 1024" fill="none" xmlns="http://www.w3.org/2000/svg">
<path fill-rule="evenodd" clip-rule="evenodd" d="M512 0.98304C794.227 0.98304 1023.02 229.773 1023.02 512C1023.02 794.227 794.227 1023.02 512 1023.02C229.773 1023.02 0.98304 794.227 0.98304 512C0.98304 229.773 229.773 0.98304 512 0.98304Z" fill="#2E3148"/>
<path fill-rule="evenodd" clip-rule="evenodd" d="M511.017 217.182C673.841 217.182 805.835 349.177 805.835 512C805.835 674.823 673.841 806.818 511.017 806.818C348.194 806.818 216.2 674.823 216.2 512C216.2 349.177 348.194 217.182 511.017 217.182Z" fill="#161931"/>
<path fill-rule="evenodd" clip-rule="evenodd" d="M520.027 88.3895C515.967 84.6537 513.872 84.583 513.52 84.583C513.168 84.583 511.073 84.6537 507.014 88.3895C502.847 92.2243 497.866 98.8408 492.499 109.05C481.786 129.427 471.533 160.227 462.696 199.969C445.095 279.131 434.035 389.46 434.035 512C434.035 634.54 445.095 744.869 462.696 824.03C471.533 863.773 481.786 894.573 492.499 914.95C497.866 925.159 502.847 931.776 507.014 935.61C511.073 939.346 513.168 939.417 513.52 939.417C513.872 939.417 515.967 939.346 520.027 935.61C524.194 931.776 529.175 925.159 534.542 914.95C545.254 894.573 555.507 863.773 564.344 824.03C581.946 744.869 593.006 634.54 593.006 512C593.006 389.46 581.946 279.131 564.344 199.969C555.507 160.227 545.254 129.427 534.542 109.05C529.175 98.8408 524.194 92.2243 520.027 88.3895ZM613.006 512C613.006 264.898 568.464 64.583 513.52 64.583C458.576 64.583 414.035 264.898 414.035 512C414.035 759.101 458.576 959.417 513.52 959.417C568.464 959.417 613.006 759.101 613.006 512Z" fill="#6F7390"/>
<path fill-rule="evenodd" clip-rule="evenodd" d="M883.862 305.813C885.069 300.434 884.082 298.594 883.911 298.299C883.739 298.001 882.634 296.223 877.363 294.576C871.953 292.886 863.726 291.883 852.194 292.342C829.176 293.259 797.356 299.786 758.496 312.009C681.094 336.356 579.955 381.949 473.765 443.219C367.576 504.489 277.497 569.226 217.699 624.042C187.677 651.562 166.113 675.837 153.81 695.297C147.647 705.047 144.405 712.666 143.166 718.187C141.959 723.564 142.945 725.405 143.117 725.701C143.288 725.999 144.394 727.777 149.665 729.424C155.074 731.114 163.301 732.117 174.834 731.658C197.852 730.74 229.672 724.214 268.531 711.99C345.933 687.644 447.073 642.051 553.262 580.781C659.452 519.511 749.531 454.774 809.329 399.958C839.351 372.438 860.915 348.163 873.217 328.703C879.381 318.953 882.623 311.334 883.862 305.813ZM125.799 735.706C153.272 783.26 349.129 721.654 563.257 598.104C777.386 474.555 928.701 335.848 901.229 288.294C873.756 240.74 677.899 302.346 463.77 425.896C249.641 549.445 98.3266 688.152 125.799 735.706Z" fill="#6F7390"/>
<path fill-rule="evenodd" clip-rule="evenodd" d="M901.229 735.706C928.701 688.152 777.386 549.445 563.257 425.896C349.129 302.346 153.272 240.74 125.799 288.294C98.3266 335.848 249.641 474.555 463.77 598.104C677.899 721.654 873.756 783.26 901.229 735.706ZM143.117 298.299C143.289 298 144.396 296.222 149.665 294.576C155.074 292.886 163.301 291.883 174.834 292.342C197.852 293.259 229.672 299.786 268.531 312.009C345.933 336.356 447.073 381.949 553.262 443.219C659.452 504.489 749.531 569.226 809.329 624.042C839.351 651.562 860.915 675.837 873.217 695.297C879.381 705.047 882.623 712.666 883.862 718.187C885.069 723.566 884.082 725.406 883.911 725.701C883.739 725.999 882.634 727.777 877.363 729.424C871.953 731.114 863.726 732.117 852.194 731.658C829.176 730.74 797.356 724.214 758.496 711.99C681.094 687.644 579.955 642.051 473.766 580.781C367.576 519.511 277.497 454.774 217.699 399.958C187.677 372.438 166.113 348.163 153.81 328.703C147.647 318.953 144.405 311.334 143.166 305.813C141.959 300.436 142.945 298.595 143.117 298.299" fill="#6F7390"/>
<path fill-rule="evenodd" clip-rule="evenodd" d="M227.547 386.703C244.923 386.703 259.01 400.796 259.01 418.18C259.01 435.565 244.923 449.658 227.547 449.658C210.171 449.658 196.084 435.565 196.084 418.18C196.084 400.796 210.171 386.703 227.547 386.703Z" fill="#B7B9C8"/>
<path fill-rule="evenodd" clip-rule="evenodd" d="M727.586 278.91C744.97 278.91 759.064 293.003 759.064 310.388C759.064 327.773 744.97 341.866 727.586 341.866C710.201 341.866 696.108 327.773 696.108 310.388C696.108 293.003 710.201 278.91 727.586 278.91Z" fill="#B7B9C8"/>
<path fill-rule="evenodd" clip-rule="evenodd" d="M450.119 772.975C467.504 772.975 481.597 787.061 481.597 804.438C481.597 821.814 467.504 835.9 450.119 835.9C432.734 835.9 418.641 821.814 418.641 804.438C418.641 787.061 432.734 772.975 450.119 772.975Z" fill="#B7B9C8"/>
<path fill-rule="evenodd" clip-rule="evenodd" d="M511.767 458.473C541.2 458.473 565.06 482.334 565.06 511.767C565.06 541.2 541.2 565.06 511.767 565.06C482.334 565.06 458.473 541.2 458.473 511.767C458.473 482.334 482.334 458.473 511.767 458.473Z" fill="#B7B9C8"/>
</svg>