<svg fill="none" height="200" viewBox="0 0 200 200" width="200" xmlns="http://www.w3.org/2000/svg"><g clip-rule="evenodd" fill-rule="evenodd"><path d="m99.9998 16c46.3922 0 84.0002 37.608 84.0002 83.9998 0 46.3922-37.608 84.0002-84.0002 84.0002-46.3918 0-83.9998-37.608-83.9998-84.0002 0-46.3918 37.608-83.9998 83.9998-83.9998z" fill="#2e3148"/><path d="m99.8383 51.5383c26.7647 0 48.4617 21.6971 48.4617 48.4615 0 26.7642-21.697 48.4612-48.4617 48.4612-26.7645 0-48.4613-21.697-48.4613-48.4612 0-26.7644 21.6968-48.4615 48.4613-48.4615z" fill="#161931"/><path d="m101.319 30.3676c-.667-.6141-1.012-.6257-1.069-.6257-.058 0-.4026.0116-1.0698.6257-.685.6304-1.5038 1.718-2.386 3.3961-1.761 3.3495-3.4463 8.4124-4.8989 14.9451-2.8932 13.0124-4.7113 31.1481-4.7113 51.2909 0 20.1433 1.8181 38.2783 4.7113 51.2903 1.4526 6.533 3.1379 11.596 4.8989 14.946.8822 1.678 1.701 2.765 2.386 3.396.6672.614 1.0118.625 1.0698.625.057 0 .402-.011 1.069-.625.685-.631 1.504-1.718 2.386-3.396 1.761-3.35 3.446-8.413 4.899-14.946 2.893-13.012 4.711-31.147 4.711-51.2903 0-20.1428-1.818-38.2785-4.711-51.2909-1.453-6.5327-3.138-11.5956-4.899-14.9451-.882-1.6781-1.701-2.7657-2.386-3.3961zm15.284 69.6321c0-40.6181-7.322-73.5454-16.353-73.5454-9.032 0-16.3535 32.9273-16.3535 73.5454 0 40.6183 7.3215 73.5453 16.3535 73.5453 9.031 0 16.353-32.927 16.353-73.5453z" fill="#6f7390"/><path d="m161.125 66.1072c.199-.8842.036-1.1866.008-1.2351-.028-.049-.21-.3413-1.076-.612-.889-.2778-2.242-.4427-4.137-.3672-3.784.1507-9.014 1.2236-15.402 3.2328-12.723 4.0021-29.348 11.4966-46.8035 21.568-17.4551 10.0714-32.262 20.7123-42.0915 29.7233-4.9349 4.524-8.4796 8.514-10.5019 11.713-1.0131 1.602-1.546 2.855-1.7496 3.762-.1984.884-.0364 1.187-.0081 1.235.0281.049.2099.342 1.0764.612.8891.278 2.2414.443 4.1372.368 3.7836-.151 9.0141-1.224 15.4017-3.233 12.7231-4.002 29.3483-11.497 46.8033-21.568 17.455-10.072 32.262-20.7129 42.092-29.7235 4.935-4.5236 8.479-8.5139 10.501-11.7127 1.014-1.6027 1.547-2.8551 1.75-3.7626zm-124.6083 70.6648c4.516 7.817 36.7105-2.31 71.9083-22.619 35.198-20.3084 60.071-43.1087 55.555-50.9255s-36.71 2.3098-71.9084 22.6187c-35.198 20.3088-60.0707 43.1088-55.5549 50.9258z" fill="#6f7390"/><path d="m163.98 136.772c4.516-7.817-20.357-30.617-55.555-50.9258-35.1978-20.3089-67.3923-30.4355-71.9083-22.6187-4.5158 7.8168 20.3569 30.6171 55.5549 50.9255 35.1984 20.309 67.3924 30.436 71.9084 22.619zm-124.6166-71.8999c.0283-.0492.2102-.3414 1.0764-.612.8891-.2778 2.2414-.4427 4.1372-.3672 3.7836.1507 9.0141 1.2236 15.4017 3.2328 12.7231 4.0021 29.3483 11.4966 46.8033 21.568s32.262 20.7123 42.092 29.7233c4.935 4.524 8.479 8.514 10.501 11.713 1.014 1.602 1.547 2.855 1.75 3.762.199.884.036 1.187.008 1.235-.028.049-.21.342-1.076.612-.889.278-2.242.443-4.137.368-3.784-.151-9.014-1.224-15.402-3.233-12.723-4.002-29.348-11.497-46.8033-21.568-17.4553-10.072-32.2622-20.7129-42.0917-29.7235-4.9349-4.5236-8.4796-8.5139-10.5019-11.7127-1.0131-1.6027-1.546-2.8551-1.7496-3.7626-.1984-.8839-.0364-1.1865-.0081-1.2351z" fill="#6f7390"/><g fill="#b7b9c8"><path d="m53.2421 79.4037c2.8563 0 5.1718 2.3166 5.1718 5.1741 0 2.8577-2.3155 5.1743-5.1718 5.1743-2.8562 0-5.1718-2.3166-5.1718-5.1743 0-2.8575 2.3156-5.1741 5.1718-5.1741z"/><path d="m135.437 61.6849c2.858 0 5.175 2.3166 5.175 5.1743s-2.317 5.1743-5.175 5.1743c-2.857 0-5.174-2.3166-5.174-5.1743s2.317-5.1743 5.174-5.1743z"/><path d="m89.8281 142.898c2.8577 0 5.1743 2.316 5.1743 5.172s-2.3166 5.172-5.1743 5.172-5.1743-2.316-5.1743-5.172 2.3166-5.172 5.1743-5.172z"/><path d="m99.9615 91.2012c4.8385 0 8.7605 3.9222 8.7605 8.7603 0 4.8385-3.922 8.7605-8.7605 8.7605-4.8381 0-8.7603-3.922-8.7603-8.7605 0-4.8381 3.9222-8.7603 8.7603-8.7603z"/></g></g></svg>