<svg fill="none" height="200" viewBox="0 0 200 200" width="200" xmlns="http://www.w3.org/2000/svg" xmlns:xlink="http://www.w3.org/1999/xlink"><mask id="a" height="170" maskUnits="userSpaceOnUse" width="170" x="15" y="15"><path d="m185 100c0-46.9442-38.056-85-85-85-46.9442 0-85 38.0558-85 85 0 46.944 38.0558 85 85 85 46.944 0 85-38.056 85-85z" fill="#fff"/></mask><mask id="b" height="170" maskUnits="userSpaceOnUse" width="170" x="15" y="15"><path d="m185 15h-170v170h170z" fill="#fff"/></mask><g mask="url(#a)"><g mask="url(#b)"><path d="m100 185c47.104 0 85-37.896 85-85 0-47.1043-37.896-85-85-85-47.1043 0-85 37.8957-85 85 0 47.104 37.8957 85 85 85z" fill="#2775ca"/><g fill="#fff"><path d="m123.375 113.458c0-12.395-7.437-16.6455-22.312-18.4158-10.6253-1.4172-12.7503-4.2501-12.7503-9.209s3.5418-8.1457 10.625-8.1457c6.3753 0 9.9173 2.125 11.6873 7.4375.355 1.0625 1.417 1.7707 2.48 1.7707h5.666c1.417 0 2.479-1.0624 2.479-2.4785v-.3547c-1.417-7.7917-7.792-13.8125-15.937-14.5203v-8.5c0-1.4172-1.063-2.4797-2.833-2.8339h-5.313c-1.4168 0-2.4793 1.0625-2.8336 2.8339v8.1453c-10.625 1.4172-17.3539 8.5-17.3539 17.3547 0 11.6875 7.0832 16.2908 21.9582 18.0628 9.9163 1.77 13.1043 3.895 13.1043 9.562s-4.959 9.563-11.688 9.563c-9.2084 0-12.3956-3.897-13.4581-9.209-.3536-1.416-1.4164-2.125-2.4789-2.125h-6.0211c-1.4161 0-2.4789 1.062-2.4789 2.479v.355c1.4161 8.853 7.0832 15.228 18.7707 17v8.5c0 1.416 1.0625 2.478 2.8332 2.833h5.3121c1.417 0 2.48-1.063 2.834-2.833v-8.5c10.625-1.772 17.708-9.209 17.708-18.772z"/><path d="m81.9376 150.645c-27.625-9.916-41.792-40.728-31.5204-67.9996 5.3125-14.875 16.9996-26.2079 31.5204-31.5204 1.4171-.7082 2.125-1.7707 2.125-3.5419v-4.9581c0-1.4169-.7079-2.4794-2.125-2.833-.3547 0-1.0625 0-1.4168.3536-33.6457 10.6248-52.0627 46.3962-41.4377 80.0424 6.375 19.832 21.6045 35.062 41.4377 41.437 1.4168.708 2.8339 0 3.1875-1.417.3543-.354.3543-.708.3543-1.416v-4.959c0-1.063-1.0625-2.479-2.125-3.188zm37.5424-110.4994c-1.417-.7081-2.834 0-3.188 1.4169-.354.3545-.354.7081-.354 1.417v4.958c0 1.4168 1.062 2.8329 2.125 3.5418 27.625 9.9161 41.792 40.7286 31.52 67.9997-5.312 14.875-17 26.209-31.52 31.521-1.418.708-2.125 1.77-2.125 3.542v4.958c0 1.417.707 2.479 2.125 2.833.354 0 1.062 0 1.417-.354 33.645-10.625 52.062-46.396 41.437-80.0415-6.375-20.1875-21.959-35.4169-41.437-41.7919z"/></g></g></g><path d="m69.9841 128.635h-42.0134v38.211h42.0134z" fill="#fff"/><path clip-rule="evenodd" d="m83 151c0 18.778-15.2221 34-34 34-18.7777 0-34-15.222-34-34s15.2223-34 34-34c18.7779 0 34 15.222 34 34zm-43.6346 13.53h-6.5985c-1.3865 0-2.0714 0-2.489-.267-.451-.292-.7267-.777-.7601-1.311-.0251-.493.3174-1.094 1.0023-2.297l16.2924-28.718c.6933-1.219 1.044-1.829 1.4867-2.055.4761-.242 1.0442-.242 1.5202 0 .4427.226.7936.836 1.4868 2.055l3.3494 5.847.017.03c.7486 1.308 1.1284 1.971 1.2943 2.668.1836.76.1836 1.562 0 2.322-.1672.701-.5429 1.369-1.3032 2.698l-8.5579 15.128-.0221.038c-.7537 1.319-1.1357 1.988-1.6651 2.492-.5763.552-1.2696.952-2.0296 1.178-.6933.192-1.4701.192-3.0236.192zm16.6631 0h9.455c1.3947 0 2.0965 0 2.5143-.275.4509-.293.7348-.785.7603-1.32.0238-.476-.3111-1.055-.9677-2.188-.0224-.038-.0452-.077-.0683-.117l-4.7359-8.102-.054-.091c-.6654-1.126-1.0013-1.694-1.4328-1.914-.4756-.242-1.036-.242-1.5116 0-.4345.226-.7851.819-1.4783 2.013l-4.7192 8.102-.0164.028c-.6908 1.193-1.0359 1.789-1.0111 2.278.0333.534.309 1.027.7602 1.319.409.267 1.1108.267 2.5055.267z" fill="#e84142" fill-rule="evenodd"/><path d="m49.0001 184.15c18.3082 0 33.15-14.842 33.15-33.15s-14.8418-33.15-33.15-33.15-33.15 14.842-33.15 33.15 14.8418 33.15 33.15 33.15z" stroke="#000" stroke-width="5"/></svg>