<svg fill="none" height="200" viewBox="0 0 200 200" width="200" xmlns="http://www.w3.org/2000/svg"><path d="m152 45h-104v94h104z" fill="#fff"/><path clip-rule="evenodd" d="m184 100c0 46.392-37.608 84-84 84-46.3919 0-84-37.608-84-84 0-46.3919 37.6081-84 84-84 46.392 0 84 37.6081 84 84zm-107.8032 33.428h-16.302c-3.4256 0-5.1177 0-6.1494-.66-1.1144-.723-1.7953-1.92-1.8778-3.24-.062-1.217.7841-2.704 2.4762-5.675l40.2518-70.9495c1.7128-3.0128 2.5794-4.5192 3.6731-5.0763 1.1762-.5984 2.5793-.5984 3.7553 0 1.094.5571 1.961 2.0635 3.673 5.0763l8.275 14.4449.043.0737c1.849 3.2321 2.788 4.8712 3.197 6.5915.454 1.8778.454 3.8588 0 5.7367-.413 1.7333-1.341 3.3843-3.219 6.6653l-21.1433 37.3754-.0547.096c-1.8621 3.258-2.8058 4.91-4.1136 6.156-1.4239 1.362-3.1367 2.352-5.0145 2.911-1.7128.474-3.6318.474-7.4701.474zm41.1682 0h23.359c3.446 0 5.18 0 6.212-.68 1.114-.723 1.815-1.941 1.878-3.261.059-1.178-.768-2.606-2.39-5.405-.056-.095-.112-.192-.169-.291l-11.701-20.016-.133-.225c-1.644-2.781-2.474-4.1849-3.54-4.7276-1.176-.5985-2.559-.5985-3.735 0-1.073.5572-1.94 2.0226-3.652 4.9736l-11.66 20.016-.039.069c-1.707 2.946-2.56 4.418-2.499 5.626.083 1.321.764 2.538 1.878 3.261 1.011.66 2.745.66 6.191.66z" fill="#e84142" fill-rule="evenodd"/></svg>