<?xml version="1.0" encoding="UTF-8"?>
<svg id="b" data-name="Layer 2" xmlns="http://www.w3.org/2000/svg" width="38" height="38" xmlns:xlink="http://www.w3.org/1999/xlink" viewBox="0 0 38 38">
  <defs>
    <filter id="d" data-name="drop-shadow-1" filterUnits="userSpaceOnUse">
      <feOffset dx="0" dy="0"/>
      <feGaussianBlur result="e" stdDeviation=".256"/>
      <feFlood flood-color="#000" flood-opacity=".13"/>
      <feComposite in2="e" operator="in"/>
      <feComposite in="SourceGraphic"/>
    </filter>
    <filter id="f" data-name="drop-shadow-2" filterUnits="userSpaceOnUse">
      <feOffset dx="0" dy="0"/>
      <feGaussianBlur result="g" stdDeviation=".256"/>
      <feFlood flood-color="#000" flood-opacity=".13"/>
      <feComposite in2="g" operator="in"/>
      <feComposite in="SourceGraphic"/>
    </filter>
    <filter id="h" data-name="drop-shadow-3" filterUnits="userSpaceOnUse">
      <feOffset dx="0" dy="0"/>
      <feGaussianBlur result="i" stdDeviation=".256"/>
      <feFlood flood-color="#000" flood-opacity=".13"/>
      <feComposite in2="i" operator="in"/>
      <feComposite in="SourceGraphic"/>
    </filter>
    <filter id="j" data-name="drop-shadow-4" filterUnits="userSpaceOnUse">
      <feOffset dx="0" dy="0"/>
      <feGaussianBlur result="k" stdDeviation=".256"/>
      <feFlood flood-color="#000" flood-opacity=".13"/>
      <feComposite in2="k" operator="in"/>
      <feComposite in="SourceGraphic"/>
    </filter>
  </defs>
  <g id="c" data-name="Layer 1">
    <g>
      <circle cx="19" cy="19" r="19" fill="#fff"/>
      <g>
        <path d="M20.412,17.093l7.415-7.374-2.813-2.798-6.009,5.976-6.009-5.976-2.813,2.798,7.415,7.374c.388,.386,.898,.579,1.406,.579s1.018-.193,1.406-.579Z" filter="url(#d)"/>
        <path d="M31.146,24.97l-6.009-5.976,6.009-5.976-2.813-2.798-7.415,7.374c-.777,.773-.777,2.025,0,2.798l7.415,7.374,2.813-2.798h0Z" filter="url(#f)"/>
        <path d="M18.995,25.104l6.009,5.976,2.813-2.798-7.415-7.374c-.777-.772-2.036-.772-2.813,0l-7.415,7.374,2.813,2.798,6.009-5.976h0Z" filter="url(#h)"/>
        <path d="M17.082,20.404c.373-.371,.583-.874,.583-1.399s-.209-1.028-.583-1.399l-7.415-7.374-2.813,2.798,6.009,5.976-6.009,5.976,2.813,2.798,7.415-7.374h0Z" filter="url(#j)"/>
      </g>
    </g>
  </g>
</svg>