<svg fill="none" height="200" viewBox="0 0 200 200" width="200" xmlns="http://www.w3.org/2000/svg" xmlns:xlink="http://www.w3.org/1999/xlink"><filter id="a" color-interpolation-filters="sRGB" filterUnits="userSpaceOnUse" height="48.5548" width="79.0291" x="60.5075" y="46.0861"><feFlood flood-opacity="0" result="BackgroundImageFix"/><feColorMatrix in="SourceAlpha" result="hardAlpha" type="matrix" values="0 0 0 0 0 0 0 0 0 0 0 0 0 0 0 0 0 0 127 0"/><feOffset/><feGaussianBlur stdDeviation=".256"/><feColorMatrix type="matrix" values="0 0 0 0 0 0 0 0 0 0 0 0 0 0 0 0 0 0 0.13 0"/><feBlend in2="BackgroundImageFix" mode="normal" result="effect1_dropShadow_8_691"/><feBlend in="SourceGraphic" in2="effect1_dropShadow_8_691" mode="normal" result="shape"/></filter><filter id="b" color-interpolation-filters="sRGB" filterUnits="userSpaceOnUse" height="78.5959" width="48.8189" x="105.391" y="60.6712"><feFlood flood-opacity="0" result="BackgroundImageFix"/><feColorMatrix in="SourceAlpha" result="hardAlpha" type="matrix" values="0 0 0 0 0 0 0 0 0 0 0 0 0 0 0 0 0 0 127 0"/><feOffset/><feGaussianBlur stdDeviation=".256"/><feColorMatrix type="matrix" values="0 0 0 0 0 0 0 0 0 0 0 0 0 0 0 0 0 0 0.13 0"/><feBlend in2="BackgroundImageFix" mode="normal" result="effect1_dropShadow_8_691"/><feBlend in="SourceGraphic" in2="effect1_dropShadow_8_691" mode="normal" result="shape"/></filter><filter id="c" color-interpolation-filters="sRGB" filterUnits="userSpaceOnUse" height="48.5548" width="79.0247" x="60.4677" y="105.364"><feFlood flood-opacity="0" result="BackgroundImageFix"/><feColorMatrix in="SourceAlpha" result="hardAlpha" type="matrix" values="0 0 0 0 0 0 0 0 0 0 0 0 0 0 0 0 0 0 127 0"/><feOffset/><feGaussianBlur stdDeviation=".256"/><feColorMatrix type="matrix" values="0 0 0 0 0 0 0 0 0 0 0 0 0 0 0 0 0 0 0.13 0"/><feBlend in2="BackgroundImageFix" mode="normal" result="effect1_dropShadow_8_691"/><feBlend in="SourceGraphic" in2="effect1_dropShadow_8_691" mode="normal" result="shape"/></filter><filter id="d" color-interpolation-filters="sRGB" filterUnits="userSpaceOnUse" height="78.6047" width="48.8199" x="45.79" y="60.7242"><feFlood flood-opacity="0" result="BackgroundImageFix"/><feColorMatrix in="SourceAlpha" result="hardAlpha" type="matrix" values="0 0 0 0 0 0 0 0 0 0 0 0 0 0 0 0 0 0 127 0"/><feOffset/><feGaussianBlur stdDeviation=".256"/><feColorMatrix type="matrix" values="0 0 0 0 0 0 0 0 0 0 0 0 0 0 0 0 0 0 0.13 0"/><feBlend in2="BackgroundImageFix" mode="normal" result="effect1_dropShadow_8_691"/><feBlend in="SourceGraphic" in2="effect1_dropShadow_8_691" mode="normal" result="shape"/></filter><path d="m100 184c46.392 0 84-37.608 84-84 0-46.3919-37.608-84-84-84-46.3919 0-84 37.6081-84 84 0 46.392 37.6081 84 84 84z" fill="#fff"/><g filter="url(#a)"><path d="m106.242 91.5691 32.783-32.6009-12.437-12.3701-26.566 26.4203-26.566-26.4203-12.4365 12.3701 32.7821 32.6009c1.7154 1.7065 3.9701 2.5598 6.2164 2.5598 2.246 0 4.5-.8533 6.216-2.5598z" fill="#000"/></g><g filter="url(#b)"><path d="m153.698 126.394-26.566-26.4205 26.566-26.4202-12.436-12.3701-32.783 32.6009c-3.435 3.4174-3.435 8.9529 0 12.3699l32.783 32.601 12.436-12.37z" fill="#000"/></g><g filter="url(#c)"><path d="m99.9778 126.986 26.5662 26.42 12.436-12.37-32.782-32.6c-3.435-3.414-9.001-3.414-12.4362 0l-32.7821 32.6 12.4365 12.37z" fill="#000"/></g><g filter="url(#d)"><path d="m91.5205 106.207c1.6491-1.64 2.5775-3.864 2.5775-6.185s-.924-4.5447-2.5775-6.1849l-32.7821-32.6009-12.4364 12.3701 26.5661 26.4207-26.5661 26.42 12.4364 12.37 32.7821-32.601z" fill="#000"/></g></svg>