<svg fill="none" height="200" viewBox="0 0 200 200" width="200" xmlns="http://www.w3.org/2000/svg"><g clip-rule="evenodd" fill-rule="evenodd"><path d="m100 16c46.385 0 84 37.6152 84 84 0 46.385-37.615 84-84 84-46.3848 0-84-37.615-84-84 0-46.3848 37.6152-84 84-84z" fill="#0055d5"/><path d="m61.696 71.5744s-9.0384-7.224-9.66 10.6176c-.6216 13.8264-.6048 40.673 5.796 53.357 2.7048 4.771 6.3168 3.309 13.0368-1.445 5.8464-4.318 26.9976-23.806 35.9522-32.357 8.954-8.551 27.115-33.079 30.895-16.4134 1.495 7.0056 3.343 12.9528 1.932 28.4924-.437 4.788-2.486 8.417-11.827 1.932-7.056-4.536-13.759-9.408-13.759-9.408s-1.294-2.318-4.352 1.445c-2.402 3.007-3.612 3.747.236 6.031 3.864 2.285 23.402 15.759 30.895 17.859 6.182 1.797 9.71 1.764 9.895-10.383-.034-9.643-.588-37.2452-4.099-49.0052-2.655-7.3248-6.552-10.6512-14.969-2.4192s-34.9608 33.9694-49.476 45.6284c-9.6264 7.224-13.7424 13.743-17.3712 1.697-2.5536-9.122-5.8632-37.5142 4.5864-32.1046 6.5352 3.1248 9.7944 3.108 7.2408 5.0736-2.5536 1.9488-9.8952 8.6856-9.8952 8.6856s-2.268 1.8314-1.2096 5.7964c1.0584 2.772 1.0584 4.149 6.7536-1.21 5.6952-5.3592 9.8952-9.408 9.8952-9.408s.9072-1.428 3.612 1.2096 3.1416 3.3768 3.1416 3.3768.7224 1.9656 3.612-1.4448c2.9064-3.4104 4.7712-5.4936-.7224-8.6856-5.4768-3.2256-30.1392-16.9176-30.1392-16.9176z" fill="#fff"/></g></svg>