<svg fill="none" height="200" viewBox="0 0 200 200" width="200" xmlns="http://www.w3.org/2000/svg"><path d="m99.8147 184c46.3923 0 84.0003-37.608 84.0003-84 0-46.3919-37.608-84-84.0003-84-46.3919 0-84 37.6081-84 84 0 46.392 37.6081 84 84 84z" fill="#4520e6"/><path clip-rule="evenodd" d="m129.266 118.541c0 8.659-6.912 15.703-15.409 15.703h-29.5448l30.7038-31.288c7.948.616 14.25 7.33 14.25 15.585zm-48.8628-17.541v-36.1778h34.4188c.588 0 1.168.0323 1.74.0962zm55.8248-20.1965c0-7.2964-3.576-13.7689-9.061-17.7464l14.803-14.8571-8.856.0506-11.76 11.8035c-2.177-.734-4.506-1.1319-6.926-1.1319h-40.4891v57.5578l48.7471-48.9251c4.39 2.7679 7.315 7.6719 7.315 13.2486 0 8.6191-6.986 15.6302-15.573 15.6302h-1.29l-54.2344 54.4333h8.8053l10.633-10.672h36.0861c12.02 0 21.8-9.815 21.8-21.88 0-7.956-4.267-14.913-10.61-18.7433 6.35-3.829 10.61-10.8077 10.61-18.7682z" fill="#fff" fill-rule="evenodd"/></svg>