<svg fill="none" height="200" viewBox="0 0 200 200" width="200" xmlns="http://www.w3.org/2000/svg"><path d="m100.1 183.8c46.337 0 83.9-37.563 83.9-83.9 0-46.3367-37.563-83.9-83.9-83.9-46.3365 0-83.8998 37.5633-83.8998 83.9 0 46.337 37.5633 83.9 83.8998 83.9z" fill="#3cc194"/><g fill="#fff"><path d="m139.347 115.63-.245.263c-1.505 1.522-3.325 2.729-5.32 3.517h-.105c-1.837.717-3.796 1.085-5.756 1.085-2.887.052-5.739-.56-8.346-1.803h-.158l-.385-.192-.105-.053c-2.414-1.294-4.392-3.272-5.704-5.686l-.245-.438-5.337 5.722s-1.067 5.477-1.539 8.154v.175l.122.122.07.088c5.424 5.949 13.106 9.326 21.154 9.326l.438.017.35.018c5.266 0 10.446-1.348 15.048-3.902l.139-.07c2.538-1.435 4.865-3.22 6.894-5.302l.245-.262z"/><path d="m64.0381 89.1391v.105l2.1697 8.1363.4374-.6999c2.3447-3.3945 5.9141-5.7566 9.956-6.544h.175c1.4173-.2975 2.8696-.4025 4.3218-.3325 2.1872.14 4.3044.7699 6.2291 1.8198l.1575.0874c2.6421 1.4873 4.9867 3.4645 6.894 5.8267l.3149.4024 5.1093-7.1914 1.6272-7.5939-.175-.14-.577-.5074c-3.3424-3.0795-7.2968-5.3892-11.6186-6.8065-2.3272-.6999-4.7418-1.0848-7.1565-1.1198h-.105c-5.4766.0175-10.8483 1.3998-15.6601 4.0069l-.1575.0875-2.1522 9.6411z"/><path d="m111.858 109.874v-.14c.035-.595-.105-2.94-.14-4.305l.035-.367c-.07-3.622 1.103-7.1567 3.36-9.9913l.07-.105c.332-.4199.665-.8049 1.032-1.1898 2.94-3.027 6.964-4.7418 11.181-4.7418.665 0 1.347.035 2.012.105h.105c3.464.4549 6.684 2.0297 9.186 4.4618l.263.2625 10.795-10.8834-.262-.2624c-5.459-5.3018-12.633-8.4513-20.227-8.9237h-.105l-2.047-.105c-4.567-.035-9.081.8399-13.298 2.5721-2.782 1.1898-5.354 2.8521-7.559 4.9168l-.122.105h-.14v.07l-.088.0699-.122.105c-.77.7524-1.488 1.5573-2.135 2.4147v.07l-1.75 7.6113-5.7565 7.9438v5.5465c-.0525 6.142-3.587 11.706-9.1336 14.348l-.105.053c-2.0297.909-4.2169 1.382-6.4391 1.399-8.7487.07-15.9401-6.859-16.1851-15.607l-.0699-5.18.0175-.332-2.8346-11.1108 2.3971-10.306-.2624-16.1851-15.6427-5.5292.5949 35.7997v.1575l.21 12.7379c0 .438.0175.875.0525 1.312-.0175.07-.0175.158-.0175.228.6124 8.749 4.8992 16.832 11.7932 22.257l.105.087c5.6866 4.514 12.7556 6.947 20.017 6.912l1.1373-.018.245.018c7.2789-.018 14.2779-2.747 19.6499-7.664l.087-.088c.735-.7 1.435-1.452 2.117-2.239l.053-.07 1.68-8.942 6.176-7.086z"/></g></svg>