<svg fill="none" height="200" viewBox="0 0 200 200" width="200" xmlns="http://www.w3.org/2000/svg"><g clip-rule="evenodd" fill-rule="evenodd"><path d="m93.1103 17.289c-1.9957.1692-4.8742.5477-6.8637.9018-.5768.1025-1.8209.3165-2.7646.4757-2.2126.3728-4.1402.7827-5.3385 1.1354-.5243.154-2.1545.6301-3.6226 1.0577-1.468.428-2.8184.8637-3.0005.969-.1821.1054-.4299.1916-.551.1916s-.5724.1626-1.0033.3609c-.4309.1987-1.3842.5924-2.1183.8756-2.3418.9023-2.7855 1.1063-6.7665 3.112-2.1488 1.0825-4.1712 2.1697-4.4948 2.4166-.3237.2469-1.0968.7203-1.7179 1.0525-.6215.3317-1.4299.8379-1.797 1.1244-.367.2865-1.2678.9214-2.0019 1.4109-2.4757 1.6506-6.7494 5.0754-6.7608 5.4181-.0043.1277-.4061.5138-.8932.858-1.4495 1.0238-3.6722 3.2007-4.7623 4.6635-.561.7531-1.1821 1.42-1.3799 1.4829-.4652.1477-3.2669 3.4066-5.1745 6.0182-.367.5024-.9104 1.2435-1.2069 1.6463-.2969.4033-1.2131 1.8056-2.0353 3.1164-.8227 1.3108-1.6878 2.6835-1.9223 3.0505-.6892 1.0782-2.5768 4.707-3.3223 6.3871-.1859.4195-.6749 1.4815-1.0867 2.3595-.4119.8784-1.0525 2.5086-1.4233 3.6225-.3708 1.1144-.8384 2.389-1.0386 2.8328-.2002.4437-.755 2.2884-1.2327 4.0992-.478 1.8107-.9504 3.5925-1.05 3.9595-.4381 1.6163-1.0339 5.3795-1.3127 8.2937-.1106 1.1535-.2855 2.9982-.3885 4.0992-.3327 3.5473-.1916 12.3455.1945 12.1065.0743-.046.0925.142.04.416-.0743.39-.0371.464.1707.339.2221-.134.2211-.105-.0048.173-.214.264-.2178.321-.0172.275.185-.043.3923.709.7708 2.801 6.8704 37.947 35.1401 65.402 72.0382 69.962 45.9371 5.678 86.8721-26.763 93.0921-73.775.014-.105.081.11.147.477.068.367.066.71-.003.762-.119.091-.55 3.56-.55 4.425 0 1.08.371-.206.479-1.66.039-.524.176-1.511.305-2.193.341-1.802.345-14.129.005-16.8731-.264-2.1382-.677-4.7298-.971-6.1011-.091-.4194-.258-1.3203-.373-2.0019s-.293-1.5825-.396-2.002c-.103-.4194-.368-1.5348-.588-2.4785-.22-.9438-.47-1.8018-.554-1.9066-.085-.1049-.339-.8771-.565-1.716-.227-.8389-.486-1.6969-.578-1.9066-.091-.2097-.338-.8961-.549-1.5253-.324-.9704-1.101-2.9462-1.724-4.3852-.706-1.6306-3.029-6.3895-3.257-6.6731-.083-.1048-.495-.8341-.914-1.6206-1.463-2.745-4.629-7.4634-6.78-10.105-.726-.8913-1.707-2.112-2.181-2.7126s-1.016-1.1416-1.207-1.2021c-.19-.0606-.688-.5396-1.106-1.0653-.419-.5253-.98-1.1273-1.248-1.338s-.487-.4905-.487-.6225c0-.2412-2.254-2.3942-3.356-3.2055-.325-.2397-1.06-.9075-1.634-1.4843-1.181-1.1868-2.49-2.2936-3.849-3.2536-.51-.3603-1.797-1.2746-2.86-2.032-1.063-.7569-2.319-1.6063-2.791-1.8865-.472-.2808-1.409-.8623-2.083-1.2927-1.44-.9195-3.227-1.8766-5.734-3.0706-.996-.4743-1.94-.9338-2.097-1.021-.779-.4314-1.109-.592-1.811-.8818-.42-.1735-.935-.3889-1.144-.4795-.21-.0901-.896-.3465-1.526-.5696-.629-.2231-1.509-.5806-1.955-.7936-.446-.2136-1.219-.5015-1.716-.6397s-1.805-.5205-2.906-.8494c-2.816-.8408-4.721-1.3527-5.72-1.5358-2.159-.3961-6.679-1.194-7.627-1.3465-4.166-.6697-12.6132-.9242-17.3497-.5224zm10.2007 8.5459c29.263 1.6864 54.719 19.7471 65.164 46.2337 7.888 20.0041 5.411 47.5184-5.87 65.2054-.334.525-.986 1.552-1.447 2.285-15.665 24.828-47.396 37.81-77.0769 31.534-38.3065-8.1-62.7325-43.587-57.5951-83.6763 4.2159-32.9013 34.0376-59.6562 68.6263-61.569 3.9199-.2168 4.6354-.2183 8.1987-.0128zm-7.5314 13.8376c-39.4548 3.3533-64.9804 40.2947-53.8659 77.9575 5.226 17.708 18.8373 32.283 36.4204 38.999 15.0541 5.751 33.5509 4.825 47.9759-2.399 38.323-19.194 45.053-71.0154 12.936-99.6164-11.587-10.318-28.688-16.1966-43.4664-14.9411zm10.0754 1.3203c33.747 3.7699 57.509 35.1578 51.976 68.6552-5.857 35.462-41.169 57.583-75.3977 47.231-30.0442-9.086-47.8285-40.506-40.2398-71.091 7.1412-28.7835 34.5229-48.0502 63.6615-44.7952zm-6.9295 10.2118c-1.9791.5858-3.0425 3.4452-1.7327 4.6588l.4934.4576v5.9991c0 6.3204-.0248 6.6026-.5811 6.6026-.5014 0-.5495.1544-.5805 1.858-.0444 2.4571.0281 2.4805-3.083-1.0101-.3789-.4247-1.4876-1.5886-2.4643-2.5858-.9766-.9976-2.7574-2.8804-3.9576-4.1845-5.0087-5.4429-5.3295-5.7079-6.9072-5.7079-2.2726 0-4.5906 3.133-2.7317 3.6926.3146.0944.7865.2493 1.0487.3437.2621.0944 2.3213 2.1173 4.5758 4.4948 2.2546 2.378 5.1931 5.4519 6.5301 6.8314 2.3714 2.4471 2.431 2.5291 2.431 3.3537 0 .908-.2465 1.3031-.8127 1.3031-.2589 0-.3389.1163-.2955.429l.0595.429-10.8953.0953c-10.5106.092-10.9115.1087-11.3442.4734-1.7255 1.4523-2.0697 2.949-.7388 3.215.3198.0643 1.0738.3541 1.6749.6449l1.0934.5286 10.2004.0953c11.0511.1035 10.9138.0891 11.1283 1.1611.2712 1.3561.1826 1.5592-1.0195 2.3251-.6707.4281-2.1249 1.7803-3.5706 3.3218-1.3413 1.4295-3.5544 3.7646-4.9181 5.1884-6.0234 6.2914-7.0053 7.8324-4.9901 7.8324.2017 0 .8695.225 1.4839.501 1.5743.707 1.643.661 6.0067-3.9945 8.473-9.0382 9.3586-9.8385 10.9034-9.8485 1.9242-.0129 2.8394 1.9461 2.0915 4.4762-.1615.5462-.255 5.196-.3288 16.3758-.102 15.362-.1101 15.617-.4853 15.825-.5743.318-.6611.512-.6644 1.483-.0053 1.584.2483 1.493-4.1702 1.494-4.5492.001-5.003.09-6.074 1.188-1.2188 1.249-1.2393 2.216-.0543 2.538.4718.129 1.275.423 1.785.655.817.371 1.3842.437 4.7665.554 4.3342.15 4.6288.24 5.1579 1.562.3727.931.3775 2.684.0104 3.702-1.2831 3.563 1.3232 8.037 3.3046 5.672 1.135-1.355 1.594-4.227.891-5.585-.468-.905-.487-3.109-.035-3.946.64-1.185.968-1.276 5.084-1.41 3.483-.114 3.794-.155 4.775-.618.576-.273 1.327-.549 1.668-.615 1.136-.217.65-2.149-.778-3.095-.758-.502-.81-.509-4.973-.603l-4.208-.095-.192-1.314c-.16-1.097-.263-1.34-.621-1.472l-.429-.157-.008-15.116c-.006-8.997-.084-15.4637-.193-15.9742-.823-3.8227-.438-5.2126 1.518-5.4748 1.609-.2159 2.034.1096 7.085 5.4214 8.636 9.0826 8.251 8.7126 9.032 8.6906.38-.011.807-.117.95-.236s.719-.363 1.281-.543c1.213-.389 1.41-.942.739-2.079-.771-1.3072-12.894-13.7941-14.065-14.4871-.956-.5663-1.166-1.868-.446-2.7584l.364-.45 20.721-.1906.953-.501c.525-.2755 1.254-.5648 1.621-.6434 1.071-.2293 1.001-1.4119-.156-2.6383-1.061-1.124-.64-1.0858-11.995-1.0792-5.743.0034-10.555.0048-10.692.0034-.149-.0019-.226-.174-.191-.4219.045-.3131-.061-.4471-.417-.5319-.424-.101-.484-.2255-.535-1.1239l-.058-1.0101 1.878-1.9371c1.033-1.0658 2.438-2.5381 3.124-3.2722 7.694-8.2432 8.571-9.0497 9.839-9.0554.958-.0043.145-2.3056-1.109-3.1349-2.108-1.3952-3.886-.3561-8.641 5.0515-.409.4657-2.178 2.3485-3.93 4.1836-1.751 1.8351-3.552 3.7655-4.001 4.2898-1.36 1.5892-1.524 1.6045-1.526.143-.004-1.8189-.186-2.5343-.693-2.7274l-.449-.1706v-12.1379l.476-.6459c1.715-2.3237-1.024-5.4452-4.0035-4.5625zm-82.5765 57.8734c.2774 2.919.3423 3.259.5253 2.766.1101-.297.0929-.544-.0505-.717-.1368-.165-.175-.587-.102-1.12.0777-.568.0462-.855-.0939-.855-.1321 0-.1683-.211-.0977-.564.0653-.326.0243-.62-.0968-.695-.1487-.092-.173.251-.0844 1.185zm165.418 4.28c0 .216.086.339.191.275.105-.065.191-.242.191-.393s-.086-.275-.191-.275-.191.177-.191.393zm-.142 1.228c.002.419.041.568.087.331.045-.237.044-.58-.004-.763-.048-.182-.085.012-.083.432zm-84.3568 68.303c1.2907.033 3.3498.033 4.5758 0s.17-.06-2.3465-.06c-2.5168 0-3.5201.028-2.2293.06z" fill="#a7f0e9"/><path d="m95.4937 27.4883c-32.7693 2.0868-59.875 24.3841-67.2912 55.3526-4.1111 17.1681-1.848 35.5901 6.2312 50.7161 25.682 48.081 92.8603 52.585 124.8873 8.372 18.267-25.218 17.878-60.4004-.943-85.2534-14.771-19.5036-38.922-30.7135-62.8843-29.1873zm7.5023 12.075c49.051 2.9834 74.158 59.8622 43.509 98.5687-24.157 30.508-71.6217 29.794-95.0524-1.43-28.9494-38.5768-3.6965-94.029 44.2317-97.1277 3.3685-.2178 3.8967-.2188 7.3117-.011zm-8.265 1.4648c-14.178 1.2736-29.0023 8.3056-37.5629 17.8182-10.5874 11.7656-15.7023 23.6333-16.4778 38.2355-1.94 36.5102 29.8774 66.2932 65.9567 61.7392 36.198-4.568 59.504-40.045 49.474-75.3104-7.602-26.7306-33.93-44.9492-61.39-42.4825zm6.708 9.9844c.66.2483 1.704 1.234 2.057 1.9409.21.4209.272 2.3961.311 9.8681.027 5.1383.11 9.3424.183 9.3424.074 0 .288-.236.476-.5243.187-.2884 1.378-1.5968 2.645-2.9076 1.268-1.3108 2.859-2.9838 3.534-3.7179 5.256-5.7055 7.522-7.8452 8.441-7.9715 2.724-.3732 4.726 1.5258 4.45 4.2208-.176 1.7102-.361 1.99-3.413 5.1454-1.49 1.5396-3.622 3.7865-4.739 4.9924-1.116 1.206-2.937 3.1364-4.047 4.2899s-2.019 2.1645-2.019 2.2469c-.001.0825 1.865.1254 4.145.0954 2.281-.0301 7.113-.0329 10.738-.0067l6.592.0477.749.642c2.368 2.0296 2.122 5.217-.534 6.9119l-.711.4538h-21.254l3.624 3.6702c1.993 2.0186 4.039 4.1421 4.546 4.7188.507.5768 2.018 2.1731 3.357 3.5468 3.166 3.2481 3.793 4.9041 2.634 6.9631-.383.681-1.155 1.502-1.412 1.502-.124 0-.333.128-.464.286-.162.195-.595.286-1.362.286-1.526 0-2.085-.386-4.853-3.355-1.248-1.339-3.771-3.9943-5.606-5.9004-1.835-1.9066-3.765-3.9886-4.29-4.6268-.524-.6383-1.063-1.1645-1.197-1.1702-.195-.0081-.24 3.593-.227 18.4844.013 14.185.069 18.496.244 18.501.125.005 1.814.004 3.754-.001 3.968-.009 4.656.132 5.688 1.168 1.675 1.679 1.622 4.711-.106 6.07-1.107.871-1.6.954-5.686.954h-3.87l-.125 9.276-.526.795c-1.678 2.534-5.2419 2.293-6.5384-.443-.2054-.433-.2831-1.659-.3212-5.052l-.0501-4.481-4.1945-.095c-4.6059-.105-4.7851-.146-5.941-1.366-1.0072-1.063-1.6444-3.49-1.0181-3.877.1048-.065.1906-.245.1906-.4 0-.322.2245-.636 1.0625-1.489.8899-.905 1.9309-1.085 6.0964-1.057l3.6135.025.1205-1.209c.1836-1.838.1888-36.0451.0053-35.9722-.0877.0348-.6239.5854-1.1916 1.2226-.9781 1.0997-3.6903 3.9706-9.8772 10.4546-3.3389 3.499-3.3961 3.541-4.931 3.542-3.4442.004-5.0315-4.089-2.6611-6.862 1.2145-1.4205 9.1002-9.7404 11.2499-11.8687 1.2446-1.2321 2.1917-2.2416 2.1044-2.2435-.0867-.0015-4.8566 0-10.5997.0033-11.5183.0067-10.9568.062-12.3091-1.2131-1.7297-1.6306-1.5081-5.2412.3833-6.2374.2431-.1283.5033-.3275.5781-.4428.0963-.1483 3.2837-.2098 10.9153-.2098 5.9286 0 10.779-.0529 10.779-.1177 0-.0644-1.5934-1.7803-3.5405-3.8132-11.4506-11.952-10.5154-10.8562-10.6899-12.5259-.3608-3.4495 3.3351-5.8538 5.7808-3.7608.9567.8189 5.3142 5.266 6.1722 6.2994.3484.4195 1.9309 2.0925 3.5167 3.7179s3.1874 3.3318 3.5587 3.7917l.6759.837.1377-3.0815c.0763-1.6945.1206-5.8461.0987-9.2256-.0219-3.3794.0286-6.4019.1116-6.7165.5162-1.9519 2.9847-3.1258 4.9853-2.3713zm59.699 104.7085c-.361.445-.731.939-.822 1.096-.355.612.507-.258 1.076-1.085.723-1.051.592-1.056-.254-.011zm-123.9268-.334c.1139.21.6139.768 1.112 1.239l.9052.858-.5906-.762c-.7646-.988-1.726-1.887-1.4266-1.335zm122.2448 2.102c-.132.16-.203.329-.156.376.047.046.23-.085.407-.291s.247-.376.156-.376-.274.131-.407.291zm-116.1079 3.985c.8717.967 2.0424 1.828 1.6306 1.2-.1859-.283-.4142-.468-.5077-.41-.0934.057-.1696.024-.1696-.075 0-.098-.3218-.419-.715-.711l-.715-.532zm111.9109.123-.661.586.715-.513c.632-.453.838-.658.661-.658-.03 0-.352.263-.715.585zm-1.419 1.274-.568.715.605-.477c.332-.262.61-.584.616-.715.015-.343-.025-.315-.653.477z" fill="#234252"/><path d="m93.2058 26.4169c-23.5918 2.1601-44.5082 15.0188-56.4412 34.6982-1.7169 2.8313-5.4381 10.7214-5.1788 10.9807.042.0419.3146-.4619.6058-1.1197 14.7872-33.3861 52.1471-50.7829 87.5164-40.7527 21.408 6.0711 39.194 21.7267 47.48 41.7937.971 2.3509 1.385 2.9657.597.8861-9.63-25.415-31.914-42.7003-59.612-46.2394-2.645-.338-12.2441-.4962-14.9672-.2469zm5.4872 13.094c.5015.0391 1.2737.0386 1.716-.0014.442-.04.032-.072-.9114-.0715-.9437.0005-1.306.0334-.8046.0729zm-.4823 1.3356c.7602.0362 2.0043.0362 2.7643 0 .761-.0362.138-.0658-1.382-.0658-1.5206 0-2.1426.0296-1.3823.0658zm-3.7179.1807c.1835.0476.4838.0476.6673 0 .1835-.0482.0334-.0873-.3337-.0873-.367 0-.5171.0391-.3336.0873zm9.4402.0033c.237.0458.58.0439.763-.0038.182-.0477-.012-.0853-.432-.083-.419.002-.569.041-.331.0868zm-5.2933 9.9701c-.2541.1645-.2541.1849 0 .1849.1573 0 .4146-.0834.5719-.1849.2541-.1644.2541-.1849 0-.1849-.1573 0-.4146.0834-.5719.1849zm3.8133.8585c1.192 1.3608 1.14.939 1.189 9.6731l.046 8.0578.052-8.0015c.057-8.892.092-8.6155-1.227-9.8248l-.727-.6673zm-6.2476 2.5734c0 .367.0391.5172.0872.3337.0477-.1836.0477-.4839 0-.6674-.0481-.1835-.0872-.0333-.0872.3337zm-37.2336.715-.6568.7149.715-.6568c.3932-.3618.7149-.6835.7149-.7149 0-.1459-.1611-.0086-.7731.6568zm.572 1.3346-.6568.715.7149-.6569c.3933-.3617.715-.6835.715-.7149 0-.1459-.1611-.0086-.7731.6568zm81.2322-.6626c0 .0291.665.6941 1.477 1.4777l1.478 1.4252-1.425-1.4777c-1.324-1.3722-1.53-1.5648-1.53-1.4252zm-62.0318 1.4252c-.0486.0787.5139.114 1.2498.0787.796-.0381 1.4228.02 1.5458.143.1139.1139.2922.2073.3961.2073.1044 0 .0229-.1258-.1811-.2798-.3895-.295-2.8442-.4166-3.0106-.1492zm39.2588.1492c-.204.154-.285.2798-.181.2798s.27-.0786.37-.1744c.099-.0963.396-.2131.658-.2603l.476-.0853-.476-.02c-.262-.011-.643.1063-.847.2602zm2.84-.153c.206.052.592.2241.858.3818l.485.287-.476-.3999c-.263-.2198-.649-.3914-.858-.3818-.372.0176-.373.0205-.009.1129zm-43.5378 1.1068c-.325.3708-.5915.7312-.5915.8008s.0648.0453.1444-.0544c.0796-.0996.3957-.4599.7031-.8007.307-.3408.5086-.6197.4471-.6197-.061 0-.3775.3032-.7031.674zm63.4708-.6144c0 .0329.278.3117.619.6197l.62.56-.56-.6196c-.522-.5777-.679-.7074-.679-.5601zm-24.034.8461-.657.7149.715-.6568c.665-.612.803-.7731.657-.7731-.032 0-.353.3217-.715.715zm-60.9175 1.6206-.5601.6196.6197-.56c.3408-.308.6196-.5868.6196-.6197 0-.1473-.1573-.0176-.6792.5601zm59.2955.1906-.56.6197.619-.5601c.341-.3079.62-.5867.62-.6196 0-.1473-.157-.0177-.679.56zm8.232.7603c-.163 1.7565-.366 2.052-4.026 5.8638-4.088 4.2588-8.265 8.7422-7.727 8.2951.489-.4061 2.813-2.8175 4.685-4.8618.625-.6816 2.353-2.4996 3.842-4.0392 1.488-1.54 2.838-3.0567 3-3.3699.278-.5377.654-3.2679.45-3.2679-.053 0-.153.6211-.224 1.3799zm-46.9271.0906c.0948 1.7407.2764 2.0143 3.5753 5.3761 1.398 1.4252 2.8766 2.9772 3.2856 3.449 1.0329 1.1917 7.5554 7.8767 6.8828 7.0545-.521-.6368-3.9304-4.2298-9.7504-10.2742-3.5705-3.7079-3.6697-3.8504-3.8885-5.5721l-.1792-1.4085zm9.6254.5314c2.5706 2.726 3.0706 3.2117 1.9605 1.9066-.5348-.6292-1.5996-1.7445-2.3656-2.4786-1.1821-1.1325-1.1211-1.0457.4051.572zm24.5397 3.2889c-1.83 1.9662-3.645 3.8752-4.034 4.2422-.388.367-1.06 1.0963-1.493 1.6206-.91 1.1006 3.266-3.1983 6.713-6.9114 1.29-1.3895 2.3-2.5263 2.244-2.5263s-1.599 1.6087-3.43 3.5749zm-20.4347 1.1916c.4094.4195.7874.7627.8398.7627.0525 0-.2397-.3432-.6492-.7627-.4094-.4194-.7874-.7626-.8398-.7626-.0525 0 .2397.3432.6492.7626zm3.3256 3.3366c1.7826 1.9471 2.3179 2.4548 1.2059 1.144-.5339-.6292-1.2984-1.4443-1.6993-1.8113-.4008-.367-.1787-.0667.4934.6673zm2.7197 1.0243c-.0367 1.6673-.0619 1.7703-.3732 1.5358-.3165-.2383-.3165-.2326-.0048.1082.4886.5334.5506.3222.481-1.643l-.0634-1.7879zm7.6444.0243c0 .5768.035.8127.079.5243.044-.2883.044-.7602 0-1.0486s-.079-.0524-.079.5243zm-72.9818 2.9948c-.378.9271-1.2326 3.5616-1.1744 3.6192.0362.0367.3765-.8103.7559-1.8813.379-1.0715.6597-1.9776.6235-2.0139-.0362-.0362-.1287.0877-.205.276zm79.2158 3.1597c-.902 1.0063-1.045 1.3575-.572 1.3923.165.012.185-.0128.048-.0591-.373-.1248-.299-.2626.656-1.2326.492-.4995.856-.9414.81-.9828-.046-.0415-.47.356-.942.8822zm58.929-.1382c-.008.1106.194.797.448 1.5253s.469 1.2336.476 1.123c.008-.1106-.194-.797-.448-1.5253s-.469-1.2336-.476-1.123zm-139.6596 1.338c-.0705.2793-.091.5448-.0462.5896.0453.0448.1392-.1468.2092-.4266.0706-.2793.0911-.5448.0463-.5896-.0453-.0448-.1392.1468-.2093.4266zm45.4244.0338c2.6549.03 6.9448.0296 9.533 0 2.5882-.03.4156-.0548-4.8275-.0543-5.2432 0-7.3605.0243-4.7055.0543zm39.1672-.0014c.708.0367 1.866.0367 2.574 0s.129-.0667-1.287-.0667-1.995.03-1.287.0667zm16.28.1854c.328.0415.972.3785 1.43.7498l.832.6744-.835-.7802c-.641-.5992-.973-.7732-1.43-.7498l-.595.0305zm-61.9325.4452c-.1778.1034-.5072.4657-.7317.8046l-.408.6158.4114-.4766c.2264-.2622.5986-.6249.8269-.806.4567-.3623.4066-.4324-.0986-.1378zm101.6855 1.1344c0 .1573.074.4576.164.6673.104.2403.164.2755.164.0954 0-.1573-.074-.4576-.164-.6673-.103-.2403-.164-.2755-.164-.0954zm-141.7824 2.2879c-.0724.3294-.092.6392-.0433.6874.0486.0486.143-.1854.2102-.5205.1587-.7946.0047-.9486-.1669-.1669zm38.6407.215c-.0443.9562.3785 1.8571 1.2403 2.6445l.7297.6673-.715-.7703c-.3932-.4237-.7149-.8999-.7149-1.0581 0-.1583-.0801-.369-.1778-.4686-.0982-.0996-.2121-.5243-.2541-.9438l-.0763-.7626zm66.1557 0c-.044.777-.575 1.9109-1.237 2.6445l-.603.6668.638-.5715c.799-.7159 1.418-1.9914 1.311-2.7016-.08-.5382-.08-.5382-.109-.0382zm-105.3579 2.1788c-.0715.3827-.0924.734-.0457.7807.0467.0463.1435-.2283.2154-.611.0715-.3828.0925-.7341.0458-.7808-.0467-.0462-.1435.2283-.2155.6111zm41.6489 1.3041c.4151.255 1.8289.2874 10.9629.2545l10.4864-.0376-10.5817-.0982c-5.8199-.0543-10.7533-.1687-10.963-.255-.2097-.0858-.1668-.0243.0954.1363zm61.297-.0753c-.076.1235-3.915.1907-10.895.1907-6.881 0-10.753.0667-10.713.1849.078.2269 7.052 7.2508 7.2 7.2508.058 0-1.523-1.6301-3.514-3.6225l-3.619-3.6226 10.676-.0062c9.084-.0052 10.73-.0476 11.044-.286.204-.1539.274-.2798.155-.2798s-.269.0858-.334.1907zm-39.6885.3184c.07.0701-.0229.306-.2064.5243-.3337.3961-.3337.3961.0948.0334.4686-.3966.5553-.6854.2064-.6854-.122 0-.1649.0572-.0948.1277zm-1.5058 1.6359-.5601.6196.6197-.56c.5777-.522.7073-.6793.5601-.6793-.0329 0-.3118.2789-.6197.6197zm82.5173.7149c0 .3671.039.5172.087.3337.047-.1835.047-.4838 0-.6673-.048-.1835-.087-.0334-.087.3336zm-84.3233 1.0963-1.042 1.0963 1.0963-1.0419c1.0186-.9686 1.1835-1.1507 1.042-1.1507-.0296 0-.5229.4934-1.0963 1.0963zm84.5133.2384c0 .367.039.5171.087.3336s.048-.4838 0-.6673-.087-.0334-.087.3337zm.191 1.3346c0 .367.039.5172.087.3336.048-.1835.048-.4838 0-.6673s-.087-.0333-.087.3337zm-86.9856.858c-.4633.4718-.7993.8579-.7469.8579s.4743-.3861.9376-.8579c.4633-.4719.7993-.858.7469-.858s-.4743.3861-.9376.858zm10.3052.2292c-.6482.8366-8.1884 8.8135-11.2723 11.9255l-2.7875 2.812h-1.3255c-.7913 0-1.4338-.096-1.5935-.238-.2273-.203-.2292-.189-.0147.095.3555.47 2.5739.469 3.2765-.001.2736-.183 1.732-1.627 3.2411-3.209 6.1869-6.484 8.8991-9.3549 9.8772-10.4546 1.3632-1.5319 1.327-1.5448 1.4043.4958l.0667 1.7769-.0119-1.796c-.0134-1.9809-.1902-2.2707-.8604-1.4066zm8.0454 17.4545.046 17.97.05-17.779c.034-12.3003.111-17.7794.251-17.7794.11 0 .147-.0858.082-.1907-.431-.6987-.473 1.0248-.429 17.7791zm.715-17.4669c0 .2427 7.731 8.5169 11.726 12.5509 1.501 1.515 1.536 1.541.286.209-.786-.838-1.473-1.57-1.525-1.626-.053-.056-.473-.531-.934-1.055-.462-.524-1.924-2.069-3.25-3.432-1.326-1.3632-3.286-3.4428-4.356-4.6216-1.071-1.1787-1.947-2.0901-1.947-2.0253zm-22.0241 2.9767-2.094 2.145 2.145-2.094c1.1797-1.1516 2.1449-2.1168 2.1449-2.1449 0-.1377-.2507.1015-2.1959 2.0939zm34.4171-.9056c.356.367.69.6673.743.6673.052 0-.196-.3003-.552-.6673s-.69-.6673-.742-.6673c-.053 0 .196.3003.551.6673zm-90.5113.4766c0 .4719.0371.665.0824.429.0458-.2359.0458-.622 0-.858-.0453-.2359-.0824-.0428-.0824.429zm146.4293.4767c.002.5243.039.7164.083.4266.044-.2903.043-.7193-.003-.9533-.045-.2345-.081.0024-.08.5267zm-52.867 2.2879c1.307 1.3108 2.418 2.3833 2.467 2.3833.165 0-4.466-4.7122-4.657-4.7394-.103-.0152.883 1.0453 2.19 2.3561zm38.565-.6673c0 .4719.037.6649.083.429s.046-.622 0-.858c-.046-.2359-.083-.0429-.083.429zm-119.1534.7626c0 .6817.0348.9605.0768.6197.0424-.3408.0424-.8985 0-1.2393-.042-.3408-.0768-.062-.0768.6196zm1.3346.572c0 .6816.0348.9605.0768.6197.0424-.3408.0424-.8985 0-1.2393-.042-.3408-.0768-.062-.0768.6196zm-14.4763 1.716c0 1.4153.03 1.9943.0667 1.2873.0367-.708.0367-1.8665 0-2.5743s-.0667-.1287-.0667 1.287zm52.9192-1.1917c-1.2336 1.2927-2.4481 2.698-1.6883 1.954.8923-.8734 2.9033-3.0503 2.8184-3.0503-.0462 0-.5548.4934-1.1301 1.0963zm93.8799 1.287c.001.839.034 1.158.074.71.041-.448.04-1.1347-.001-1.5255-.041-.3904-.074-.0234-.073.8155zm-132.3213 2.097c.0009.734.0352 1.011.0767.616.0415-.396.0405-.997-.0014-1.335-.0424-.338-.0763-.015-.0753.719zm-1.3346.382c.0009.734.0352 1.011.0767.615s.0405-.996-.0014-1.335c-.0425-.338-.0763-.014-.0753.72zm84.2709.286c0 .681.034.96.076.619.043-.341.043-.898 0-1.239-.042-.341-.076-.062-.076.62zm-47.0216.858c.1182 1.212.6201 2.174 1.4209 2.723.2879.197.194.023-.2622-.488-.3904-.438-.7521-.991-.8041-1.23-.5019-2.315-.4752-2.24-.3546-1.005zm81.8996-.191c.001.419.04.569.086.331.046-.237.044-.58-.004-.762-.047-.183-.085.011-.082.431zm-35.115.895c-.023.482-.769 1.661-1.197 1.89-.207.111-.325.252-.264.314.336.335 1.783-1.763 1.575-2.282-.065-.159-.104-.132-.114.078zm49.414.44c.002.419.041.568.087.331s.044-.58-.004-.763c-.048-.182-.085.012-.083.432zm-146.431.476c0 .367.0391.517.0873.334.0476-.184.0476-.484 0-.667-.0482-.184-.0873-.034-.0873.333zm92.151 1.615c.555.42 2.633.39 2.959-.042.215-.284.213-.298-.014-.095-.32.285-2.595.324-2.765.047-.065-.104-.215-.19-.334-.19s-.05.126.154.28zm54.086.292c0 .367.039.517.087.333.047-.183.047-.483 0-.667-.048-.183-.087-.033-.087.334zm-76.3118 20.916c-.051.65-.0233 1.113.0615 1.028.0844-.085.1263-.617.0925-1.183l-.061-1.028zm-5.9453 1.152c1.0806.034 2.7966.034 3.8133 0 1.0171-.035.1329-.062-1.9643-.062-2.0973 0-2.929.028-1.849.062zm15.0041-.015c2.246.134 6.716.147 6.513.019-.121-.078-1.851-.126-3.843-.108-1.993.017-3.194.058-2.67.089zm-18.6395.66c-.2903.216-.6196.578-.7321.804-.1549.311-.0963.285.2412-.108.2455-.285.7035-.65 1.0181-.809.3146-.16.4433-.288.286-.286-.1573.003-.5234.182-.8132.399zm26.0495-.119c.696.363.872.365.396.005-.203-.154-.498-.282-.656-.285-.157-.002-.04.124.26.28zm1.478 1.518c.402.682.459 2.888.099 3.82-.087.225-.028.187.145-.096.609-.993.189-4.385-.543-4.385-.05 0 .084.297.299.661zm-29.0656.801c-.5291.529.1171 2.827 1.0814 3.845 1.1559 1.22 1.3351 1.261 5.941 1.366l4.1945.095.2222 2.288.0291-1.048c.0443-1.607.2555-1.533-4.461-1.579-4.6049-.046-4.8771-.106-5.8795-1.297-.7526-.895-1.0982-1.865-1.0295-2.892.0333-.498.0533-.905.0448-.905-.0091 0-.0734.057-.143.127zm89.6136 3.543c-.565.865-1.398 2.216-1.851 3.003-31.19 54.176-106.5393 57.731-142.342 6.715-.9119-1.3-2.6259-3.964-3.8085-5.921-1.1825-1.957-2.2779-3.702-2.4347-3.877-.1563-.174-.234-.367-.173-.429.061-.061.0109-.111-.1111-.111-.705 0 4.2684 8.996 6.8504 12.393.1998.262.7207.992 1.1588 1.621.4375.629.8484 1.187.9123 1.239s.4552.524.8699 1.049c.4147.524 1.184 1.459 1.7097 2.076 1.1249 1.324 6.3214 6.599 6.4996 6.599.0677 0 .6607.554 1.318 1.23.6568.677 1.2397 1.186 1.2946 1.131.0548-.055.2464.142.4261.438 1.1011 1.813 11.799 8.98 17.0608 11.43.5767.269 1.5634.747 2.1926 1.062.6291.316 2.1306.957 3.3365 1.426s2.45.966 2.7646 1.106c3.1535 1.398 10.1193 3.179 16.0155 4.096.6291.098 1.959.319 2.9552.493 3.2341.562 17.3697.497 20.9247-.097.656-.109 1.685-.281 2.288-.382s1.869-.312 2.812-.469c2.701-.45 4.344-.84 7.436-1.765.525-.157 1.254-.362 1.621-.455.688-.176 3.072-1.011 5.91-2.069 4.027-1.502 10.937-5.04 14.776-7.568 3.93-2.587 7.174-5.045 8.723-6.613.393-.397.715-.687.715-.644s.307-.211.681-.564.761-.642.858-.642.177-.116.177-.257.172-.412.381-.601c.21-.19.382-.305.382-.256 0 .05.922-.85 2.049-1.999 1.128-1.149 2.493-2.527 3.034-3.063 1.048-1.037 2.969-3.306 3.932-4.644.32-.446.644-.811.718-.811.075 0 .188-.15.25-.333.062-.184.585-.977 1.161-1.764.577-.786 1.281-1.816 1.566-2.288.284-.472.873-1.415 1.309-2.097 1.354-2.119 4.983-8.961 4.753-8.961-.041 0-.537.708-1.101 1.573zm-61.036.321c-.907 1.003-1.764 1.171-5.861 1.148-2.103-.011-3.902.056-3.996.15s-.146 2.095-.116 4.448l.056 4.276.087-8.675h3.911c3.545 0 3.989-.037 4.743-.391.706-.332 1.913-1.325 1.61-1.325-.055 0-.25.166-.434.369zm29.245 4.35-.656.715.715-.657c.665-.612.802-.773.656-.773-.031 0-.353.322-.715.715zm-85.977.906c.3556.367.6897.667.7422.667.0524 0-.1959-.3-.5515-.667s-.6897-.668-.7422-.668c-.0524 0 .1959.301.5515.668zm0 1.906c.8866.892 1.655 1.621 1.7074 1.621s-.6301-.729-1.5167-1.621c-.8866-.891-1.6549-1.62-1.7074-1.62-.0524 0 .6302.729 1.5167 1.62zm2.002.096c.4094.419.7874.762.8398.762.0525 0-.2397-.343-.6492-.762-.4094-.42-.7874-.763-.8398-.763-.0525 0 .2397.343.6492.763zm81.115 1.859-.656.714.715-.656c.665-.612.802-.773.656-.773-.031 0-.353.321-.715.715zm-43.625.574c-.081 2.591 3.2603 4.417 5.499 3.004.699-.442 1.721-1.678 1.721-2.082 0-.099-.262.215-.581.698-1.96 2.958-5.914 1.997-6.4779-1.575l-.1354-.858zm-49.1203 5.574c.9395.944 1.7507 1.716 1.8031 1.716.0525 0-.673-.772-1.6125-1.716-.9394-.943-1.7507-1.716-1.8031-1.716-.0525 0 .673.773 1.6125 1.716zm48.1894 8.14c.1835.047.4838.047.6673 0 .1835-.049.0334-.088-.3336-.088-.3671 0-.5172.039-.3337.088zm7.5339.003c.236.046.58.044.762-.004s-.012-.085-.431-.083c-.42.002-.569.041-.331.087zm1.808 1.141c.184.047.484.047.668 0 .183-.049.033-.088-.334-.088s-.517.039-.334.088zm-8.1069.196c.3384.042.939.043 1.3346.002.3956-.042.1187-.076-.6153-.077-.7341-.001-1.0577.033-.7193.075zm4.2939.001c.393.042 1.037.042 1.43 0 .393-.041.072-.074-.715-.074-.786 0-1.108.033-.715.074zm-8.0075 11.814c.1835.048.4838.048.6673 0s.0334-.087-.3336-.087c-.3671 0-.5172.039-.3337.087zm12.3925 0c.184.048.484.048.668 0 .183-.048.033-.087-.334-.087s-.517.039-.334.087zm-9.6279.197c.3408.042.8985.042 1.2393 0s.0619-.077-.6197-.077-.9604.035-.6196.077zm6.2949.001c.343.042.858.041 1.144-.002.287-.044.006-.079-.623-.078s-.863.037-.521.08z" fill="#5c8786"/><path d="m97.7342 26.1661c.9175.0348 2.4188.0348 3.3368 0 .917-.0348.167-.0634-1.6685-.0634-1.8351 0-2.5859.0286-1.6683.0634zm-4.0015.1854c.2903.0438.7193.0429.9533-.0024.2345-.0453-.0024-.0815-.5267-.0801-.5243.0015-.7164.0386-.4266.0825zm10.6773 0c.29.0438.719.0429.953-.0024s-.002-.0815-.527-.0801c-.524.0015-.716.0386-.426.0825zm-12.8699.1887c.2369.0458.5801.0439.7626-.0038.1821-.0476-.0119-.0853-.4313-.0829-.4195.0019-.5687.041-.3313.0867zm15.2529 0c.237.0458.58.0439.763-.0038.182-.0476-.012-.0853-.432-.0829-.419.0019-.568.041-.331.0867zm13.868 2.7251c.21.09.51.1639.667.1639.181 0 .145-.0605-.095-.1639-.21-.0901-.51-.164-.667-.164-.18 0-.145.0605.095.164zm6.769 2.3832c.262.1497.562.2727.667.2727s-.024-.123-.286-.2727-.563-.2726-.667-.2726c-.105 0 .023.1229.286.2726zm-58.9145 1.144c-.2622.1496-.3909.2726-.286.2726.1048 0 .4051-.123.6673-.2726.2622-.1497.3908-.2727.286-.2727-.1049 0-.4052.123-.6673.2727zm61.9645.1906c.262.1497.563.2727.667.2727.105 0-.023-.123-.286-.2727-.262-.1496-.562-.2726-.667-.2726s.024.123.286.2726zm3.241 1.5191c0 .0525.429.3127.954.5782.524.2655.953.44.953.3875 0-.0524-.429-.3127-.953-.5782-.525-.2655-.954-.4399-.954-.3875zm-72.3553 2.0334c-.5243.3246-1.0391.6783-1.144.7865-.2111.2169 1.103-.5305 1.8275-1.0401.7612-.5352.3361-.3775-.6835.2536zm75.4063-.3212c0 .0524.257.2287.572.3913.314.1625.572.2531.572.2007 0-.0525-.258-.2288-.572-.3914-.315-.1625-.572-.2531-.572-.2006zm-78.5064 2.3012c-.8642.5787-1.5711 1.0958-1.5711 1.1497 0 .0949 2.7713-1.705 3.1364-2.0372.4376-.3975-.1063-.0891-1.5653.8875zm83.6544.9243c0 .0524.257.2783.572.5023.314.2241.572.3642.572.3118 0-.0525-.258-.2784-.572-.5024-.315-.224-.572-.3642-.572-.3117zm1.334.9566c0 .0524.515.4914 1.144.9757s1.144.8375 1.144.785c0-.0524-.515-.4914-1.144-.9757-.629-.4842-1.144-.8374-1.144-.785zm-88.9427.9967-.7627.6825.8103-.6063c.6974-.5214.9491-.7726.7627-.7617-.0262.0015-.3909.3099-.8103.6855zm93.0427 2.2703c.419.3946 1.77 1.6558 3.002 2.8022 4.718 4.3899 9.182 10.034 12.514 15.8229 1.263 2.1935 1.596 2.8928 3.759 7.8733 1.507 3.4696 1.812 3.9271.762 1.144-3.732-9.8891-11.451-20.6791-19.561-27.3422-.681-.56-.896-.6954-.476-.3002zm-96.7711.8069-.6568.715.715-.6568c.6654-.612.8026-.7731.6568-.7731-.0315 0-.3532.3217-.715.7149zm-3.9185 3.7179c-5.6383 5.7646-9.8214 11.6236-12.9702 18.1657-1.2831 2.6663-2.981 6.8942-2.8847 7.1836.0324.0967.5177-.9662 1.0792-2.3623 3.7302-9.2833 8.1006-15.9812 15.0602-23.0823 1.6187-1.6516 2.8985-3.0029 2.8442-3.0029-.0539 0-1.4619 1.3942-3.1287 3.0982zm49.7733 13.8705c0 3.6178.0257 5.0978.0567 3.2889.0315-1.8088.0315-4.7689 0-6.5777-.031-1.8089-.0567-.3289-.0567 3.2888zm43.1943-5.4695c0 .0329.279.3117.619.6196l.62.5601-.56-.6197c-.522-.5777-.679-.7073-.679-.56zm-56.2531 2.4666c.4676.4981.8751.9057.9056.9057.1435 0-.0081-.1711-.8498-.9614l-.9057-.8499zm37.1761 6.5778-.657.715.715-.6568c.666-.612.803-.7731.657-.7731-.031 0-.353.3217-.715.7149zm-37.5493 3.9205c0 .0329.2788.3117.6196.6196l.6197.5601-.5601-.6196c-.5219-.5778-.6792-.7074-.6792-.5601zm85.5253 5.4696c.07.2621.207.6053.304.7626.123.1988.138.1406.049-.1907-.07-.2621-.207-.6053-.304-.7626-.123-.1988-.138-.1406-.049.1907zm-58.118 3.1883c.341.0424.899.0424 1.239 0 .341-.042.062-.0768-.619-.0768-.682 0-.961.0348-.62.0768zm10.105.0047c1.704.032 4.493.032 6.197 0 1.704-.0314.309-.0572-3.099-.0572s-4.802.0258-3.098.0572zm-.715 7.4839-10.772.1001 10.713.0453c6.986.0296 10.755-.0209 10.831-.1453.065-.1049.092-.1702.06-.1454-.033.0248-4.907.09-10.832.1453zm-44.8527.143c2.9624.0296 7.8099.0296 10.7723 0 2.9624-.0295.5386-.0538-5.3862-.0538-5.9247 0-8.3485.0243-5.3861.0538zm16.8215 10.2957-1.6164 1.6683 1.6683-1.6163c1.5496-1.5015 1.755-1.7203 1.6163-1.7203-.0286 0-.7793.7507-1.6682 1.6683zm4.6711 14.7286c0 8.651.0234 12.19.052 7.865.0286-4.326.0286-11.404 0-15.73-.0286-4.3254-.052-.786-.052 7.865zm13.6361-12.679c.887.8913 1.655 1.6206 1.708 1.6206.052 0-.63-.7293-1.517-1.6206-.886-.8913-1.655-1.6206-1.707-1.6206-.053 0 .63.7293 1.516 1.6206zm-70.8628 1.7159c.001.7341.0353 1.0111.0768.6151.0414-.395.0405-.9959-.0015-1.3343-.0424-.3384-.0762-.0148-.0753.7192zm45.973 3.1941-.7536.81.8103-.754c.7536-.701.898-.867.7536-.867-.031 0-.3956.365-.8103.811zm31.2778 1.858c.834.839 1.559 1.526 1.611 1.526.053 0-.587-.687-1.421-1.526-.834-.838-1.559-1.525-1.611-1.525-.053 0 .586.687 1.421 1.525zm61.543 22.832c-.067.184-.172.377-.232.429s-.364.653-.676 1.335c-5.112 11.182-11.028 19.772-19.238 27.931-2.11 2.098-2.977 3.028-1.925 2.069 6.497-5.934 12.314-13.231 17.15-21.516.612-1.049 1.465-2.421 1.896-3.051.43-.629.969-1.572 1.197-2.097 1.231-2.833 1.747-4.177 1.658-4.32-.054-.088-.018-.16.081-.16s.221-.215.271-.477c.105-.55-.001-.633-.182-.143zm-157.0381.715c.1373.587.5344 1.566 1.3161 3.241.8455 1.812 1.1616 2.585 1.2078 2.955.0133.105.1668.191.3418.191.1744 0 .2672.05.2062.111-.061.062.0167.255.173.429.1568.175 1.2576 1.928 2.4463 3.895 3.1874 5.275 6.8528 10.351 9.5359 13.206.8175.871.7469.757-.2998-.481-4.7889-5.668-8.625-11.614-12.7304-19.734-2.1425-4.238-2.3999-4.684-2.1969-3.813zm92.5561 7.223-.46.594.545-.519c.3-.285.507-.552.46-.594s-.292.192-.545.519zm-23.2296 1.213c1.0224.034 2.6955.034 3.7179 0 1.0224-.035.1859-.063-1.8589-.063-2.0449 0-2.8814.028-1.859.063zm15.9306 0c1.08.034 2.796.034 3.813 0 1.017-.035.133-.062-1.964-.062-2.098 0-2.93.028-1.849.062zm-9.8013 5.196c0 1.521.0295 2.143.0658 1.383.0362-.761.0362-2.005 0-2.765-.0363-.76-.0658-.138-.0658 1.382zm7.0233 3.623c0 .367.039.517.087.333.048-.183.048-.483 0-.667-.048-.183-.087-.033-.087.334zm47.135 6.339-.754.811.81-.754c.754-.701.898-.867.754-.867-.031 0-.396.365-.81.81zm-110.3836 4.719c1.6754 1.678 3.0892 3.051 3.1416 3.051s-1.2755-1.373-2.9509-3.051c-1.6755-1.678-3.0892-3.051-3.1416-3.051-.0525 0 1.2755 1.373 2.9509 3.051zm3.3528 3.194c.0086.078.3732.439.8103.801l.7941.659-.7536-.802c-.775-.824-.8785-.904-.8508-.658zm55.516.565c.2903.044.7193.043.9528-.002.235-.045-.002-.081-.5262-.08-.5243.001-.7164.039-.4266.082zm52.5108 2.519c-1.568 1.297-1.781 1.583-.368.494 1.057-.814 1.753-1.453 1.549-1.423-.039.006-.57.424-1.181.929zm-102.7398 1.314c.754.667 2.3232 1.809 2.3232 1.69 0-.046-.6649-.571-1.4776-1.167-.8127-.595-1.1931-.831-.8456-.523zm99.6558 1.1-.572.491.619-.41c.341-.225.62-.447.62-.492 0-.143-.081-.093-.667.411zm-1.907 1.334-.572.492.62-.41c.34-.226.619-.447.619-.492 0-.143-.08-.093-.667.41zm-94.2369.122c.5663.481 1.6712 1.171 1.6712 1.043 0-.043-.4933-.395-1.0963-.782s-.8618-.505-.5749-.261zm4.9124 3.093c0 .052.2574.229.572.391.3146.163.572.253.572.201s-.2574-.229-.572-.391c-.3146-.163-.572-.253-.572-.201zm1.716.956c0 .052.3431.27.7626.484s.7626.346.7626.294c0-.053-.3431-.271-.7626-.485s-.7626-.346-.7626-.293zm79.4575.687c-.603.311-1.096.609-1.096.661s.515-.165 1.144-.483c.629-.317 1.144-.619 1.144-.67 0-.127.035-.142-1.192.492zm-3.003 1.513c-.576.304-.963.554-.858.554s.663-.25 1.24-.554c.576-.305.962-.554.858-.554-.105 0-.663.249-1.24.554zm-71.3067.477c.2621.149.5624.272.6673.272s-.0238-.123-.286-.272c-.2621-.15-.5624-.273-.6673-.273s.0238.123.286.273zm7.2451 2.923c.1573.097.5005.234.7626.304.3313.089.3894.073.1907-.05-.1573-.096-.5005-.234-.7627-.304-.3312-.088-.3894-.073-.1906.05zm50.2386 1.748c-.24.103-.275.164-.095.164.157 0 .458-.074.667-.164.241-.104.276-.164.096-.164-.158 0-.458.074-.668.164zm-32.8409 2.419c.1836.048.4838.048.6674 0 .1835-.048.0333-.087-.3337-.087s-.5172.039-.3337.087zm20.7819 0c.184.048.484.048.667 0 .184-.048.034-.087-.333-.087s-.517.039-.334.087zm-19.1589.194c.2369.046.5801.044.7627-.004.1821-.047-.0119-.085-.4314-.083-.4194.002-.5686.041-.3313.087zm17.5409 0c.237.046.58.044.763-.004.182-.047-.012-.085-.432-.083-.419.002-.568.041-.331.087zm-15.5389.193c.2903.044.7192.043.9533-.003.2345-.045-.0024-.081-.5267-.08-.5243.002-.7164.039-.4266.083zm13.2489-.003c.236.046.622.046.858 0 .236-.045.042-.082-.429-.082-.472 0-.665.037-.429.082zm-8.6869.199c1.3308.033 3.5619.033 4.9569 0 1.396-.032.307-.059-2.4192-.059-2.7264 0-3.8685.026-2.5377.059zm.9647 1.334c1.0225.035 2.6952.035 3.7182 0 1.022-.034.186-.062-1.8592-.062-2.0448 0-2.8814.028-1.859.062z" fill="#6c9b98"/><path d="m95.1123 25.8477c-36.9705 2.0444-68.249 32.5791-69.0021 67.3618-.0414 1.8999-.0419 3.0253-.0014 2.501 1.7226-22.3731 10.9129-40.5616 26.9632-53.3645 29.5261-23.5522 71.942-21.3072 98.59 5.2179 9.524 9.4802 15.252 19.6438 18.755 33.2751 1.267 4.9338 1.525 6.347 2.278 12.4882.045.367.048-.5767.007-2.0973-.157-5.8709-1.66-12.6889-4.223-19.1613-9.737-24.5924-32.869-42.3638-59.544-45.7447-4.728-.5996-8.9609-.7455-13.8227-.4762zm.241 14.9921c.2369.0458.5801.0439.7627-.0038.182-.0476-.012-.0853-.4314-.0829-.4195.0019-.5687.041-.3313.0867zm7.6267 0c.237.0458.58.0439.762-.0038.182-.0476-.012-.0853-.431-.0829-.419.0019-.569.041-.331.0867zm-3.6433 10.1131c-.0486.0787.2812.143.7333.143.452 0 .781-.0643.733-.143-.049-.0786-.379-.143-.733-.143-.3549 0-.6847.0644-.7333.143zm3.2253 1.2098c.307.377.597.653.644.6134.047-.0395-.204-.3479-.558-.6854l-.644-.6135zm.816 1.9161c.055.7741-.023 1.0749-.429 1.6607l-.496.7154v12.096l.463.1759c.301.1144.491.3632.543.7102.045.2941.094-3.2141.109-7.7956.016-4.5816-.035-8.37-.114-8.4191-.079-.0486-.113.337-.076.8565zm-6.9308 8.6827c0 4.909.0429 8.3261.0954 7.593.0815-1.1415.1501-1.3432.4766-1.4047.6416-.1201.6616-.3155.6645-6.5663l.0025-6.0625-.483-.4481c-.2903-.2688-.5377-.7655-.6197-1.2426-.0748-.4371-.1363 3.2217-.1363 8.1312zm43.7568-7.3161c0 .0329.279.3117.619.6196l.62.5601-.56-.6197c-.522-.5777-.679-.7073-.679-.56zm-83.3245 1.7993-1.2336 1.287 1.287-1.2336c.7078-.6787 1.2869-1.2579 1.2869-1.2869 0-.1407-.194.0381-1.3403 1.2335zm.9547.7627-1.6163 1.6683 1.6683-1.6164c1.5495-1.5014 1.755-1.7202 1.6163-1.7202-.0286 0-.7793.7507-1.6683 1.6683zm85.0388.1072c0 .0329.279.3117.62.6197l.619.56-.56-.6196c-.522-.5777-.679-.7074-.679-.5601zm0 1.7517c.356.367.69.6673.742.6673.053 0-.196-.3003-.551-.6673-.356-.367-.69-.6673-.742-.6673-.053 0 .195.3003.551.6673zm-19.71-.2002c.16.4176-.08 1.2489-.361 1.2498-1.268.0057-2.145.8122-9.839 9.0554-.686.7341-2.091 2.2064-3.124 3.2722l-1.878 1.9371.058 1.0101c.051.8984.111 1.0229.535 1.1239.366.0872.466.2216.431.5796l-.046.4662.185-.4357c.102-.2393 1.195-1.49 2.429-2.7784 7.739-8.0797 11.044-11.6565 11.398-12.3333.351-.6726.581-3.144.308-3.3128-.133-.0824-.168-.0209-.096.1659zm-46.5349 1.4095c.1191 1.8184.4018 2.2259 4.4581 6.4252 1.7374 1.7989 4.6173 4.8137 6.4 6.7003 1.7827 1.8861 3.2698 3.358 3.3046 3.2703.0353-.0877.2112-.1597.3909-.1597.5386 0 .7847-.4089.7847-1.3031 0-.8246-.0596-.9066-2.431-3.3537-1.337-1.3795-4.2755-4.4534-6.5301-6.8314-2.2545-2.3775-4.3137-4.4004-4.5758-4.4948-.2622-.0944-.7332-.2493-1.0474-.3446-.4108-.1245-.6091-.3318-.7083-.7408-.0758-.3122-.0963.0625-.0457.8323zm9.3328.7926c.6225.6292 1.1749 1.144 1.2274 1.144.0524 0-.4142-.5148-1.0367-1.144-.6225-.6291-1.175-1.1439-1.2274-1.1439s.4142.5148 1.0367 1.1439zm27.0621.8103-.56.6197.619-.5601c.341-.3079.62-.5867.62-.6196 0-.1473-.157-.0177-.679.56zm-25.8228.5839c0 .0329.2788.3118.6196.6197l.6197.5601-.5601-.6197c-.5219-.5777-.6792-.7073-.6792-.5601zm24.2068 1.2274-1.042 1.0963 1.097-1.0419c.603-.5734 1.096-1.0668 1.096-1.0963 0-.1416-.182.0233-1.151 1.0419zm-20.0123 3.1578c0 .0329.2789.3118.6197.6197l.6196.5601-.56-.6197c-.522-.5777-.6793-.7073-.6793-.5601zm15.8193 1.2274-1.234 1.287 1.287-1.2336c.708-.6788 1.287-1.2579 1.287-1.287 0-.1406-.194.0382-1.34 1.2336zm-14.4847.1073c0 .0329.2789.3117.6197.6196l.6196.5601-.56-.6197c-.522-.5777-.6793-.7073-.6793-.56zm1.8113 2.0376c.4095.4195.7874.7627.8399.7627.0524 0-.2398-.3432-.6492-.7627-.4095-.4194-.7874-.7626-.8399-.7626-.0524 0 .2398.3432.6492.7626zm9.1044-.0953c.002.4195.041.5687.087.3313.046-.2369.044-.5801-.004-.7627-.048-.182-.085.012-.083.4314zm1.37.3337-.56.6196.62-.5601c.34-.3079.619-.5867.619-.6196 0-.1473-.157-.0176-.679.5601zm-29.9561 6.9591c2.8128.0295 7.36.0295 10.105 0 2.7456-.0301.4443-.0544-5.1135-.0544-5.5577 0-7.8037.0243-4.9915.0544zm38.4051-.0015c.76.0363 2.004.0363 2.764 0 .76-.0362.138-.0657-1.382-.0657-1.521 0-2.143.0295-1.382.0657zm17.779.49c0 .0329.279.3118.619.6197l.62.5601-.56-.6197c-.522-.5777-.679-.7073-.679-.5601zm-64.2528 3.3004c0 .8327.7121 2.4766 1.2698 2.9318.9223.7522 1.0891.7627 12.074.7627 11.4521 0 11.3172-.0129 10.3667.9838l-.5453.5715.9967-.6349c1.0558-.6721 1.1498-.9109.8843-2.2379-.2145-1.072-.0772-1.0576-11.1283-1.1611l-10.2004-.0953-1.0545-.5105c-.58-.2803-1.3093-.5696-1.6206-.6425-.3112-.0725-.673-.267-.8041-.4314-.2007-.2526-.2383-.1797-.2383.4638zm65.8088-.3785c-.017.1197-.348.2769-.735.3494-.388.0729-1.139.3613-1.669.6411l-.964.5086-20.721.1906-.364.45c-.648.8008-.508 2.2317.256 2.6187.341.173 1.992 1.6526 3.67 3.288l3.051 2.9733-3.199-3.2284c-1.807-1.8241-3.157-3.3346-3.104-3.4728.075-.1959 2.233-.2455 10.713-.2455h10.618l.836-.49c1.01-.592 1.847-2.1292 1.72-3.1616-.043-.3508-.092-.5405-.108-.4214zm-44.5554 7.3619-1.3294 1.3823 1.3823-1.3294c1.2841-1.235 1.4695-1.4352 1.3294-1.4352-.0291 0-.6511.622-1.3823 1.3823zm6.297 1.0777c-.817.3799-3.2039 2.7612-9.5119 9.4901-4.3637 4.6555-4.4324 4.7015-6.0067 3.9945-.6144-.276-1.2881-.501-1.4983-.501-.4256 0-.7169-.287-.8728-.858-.0572-.21-.0543.218.0067.95.2331 2.815 2.7965 4.592 4.9753 3.451.4619-.241 4.0272-3.882 7.2971-7.4517.6725-.734 2.2998-2.4499 3.6163-3.8132 1.3165-1.3632 2.6674-2.8184 3.002-3.234 1.0524-1.3075 1.0229-1.8714.9585 18.3179-.0329 10.264-.0167 18.134.0358 17.487.0524-.647.1382-1.204.1906-1.239s.2666-.159.4763-.275c.3752-.208.3833-.463.4853-15.825.0738-11.1798.1673-15.8296.3288-16.3758.9553-3.2322-.8347-5.3485-3.483-4.1178zm8.5034-.1216c-1.19.6116-1.652 2.8142-.933 4.4439.194.438.258 3.9271.301 16.2473l.054 15.689.457.174c.326.123.481.355.538.803.044.346.088-7.52.097-17.48.012-13.4042.073-18.1278.234-18.1817.12-.0396.96.7307 1.867 1.7121.907.9819 2.645 2.8146 3.864 4.073 1.218 1.2584 2.763 2.8876 3.435 3.6216 5.521 6.033 6.496 6.643 8.55 5.347 1.611-1.018 2.568-4.027 1.638-5.155-.306-.373-.309-.372-.1.057.45.927.185 1.438-.928 1.795-.562.18-1.138.424-1.281.543s-.57.225-.95.236c-.781.022-.397.39-9.025-8.6834-5.312-5.5868-6.108-6.1207-7.818-5.2418zm-17.2857 1.7131-.56.6197.6196-.5601c.5777-.5219.7074-.6792.5601-.6792-.0329 0-.3118.2788-.6197.6196zm-2.9466 3.1459-1.9986 2.0496 2.0496-1.9986c1.1273-1.0991 2.0496-2.0214 2.0496-2.0496 0-.1377-.2446.0949-2.1006 1.9986zm33.4643-.9056c.409.4194.787.7626.84.7626.052 0-.24-.3432-.649-.7626-.41-.4195-.788-.7626-.84-.7626-.053 0 .239.3431.649.7626zm56.598 2.1926c0 .9438.032 1.3537.072.9113.04-.4423.04-1.2145.001-1.7159s-.072-.1392-.073.8046zm-53.262 1.3346c1.308 1.3108 2.421 2.3833 2.473 2.3833.053 0-.975-1.0725-2.282-2.3833s-2.42-2.3832-2.473-2.3832c-.052 0 .975 1.0724 2.282 2.3832zm-93.7306 2.0973c.0005 1.3633.031 1.8963.0677 1.1833.0367-.7119.0367-1.8273-.0005-2.4784-.0371-.6506-.0672-.0681-.0672 1.2951zm132.7026.4763c0 1.626.029 2.291.065 1.478.035-.813.035-2.1426 0-2.9553-.036-.8127-.065-.1478-.065 1.4773zm-79.2009-1.6203c-.4633.4719-.7993.858-.7469.858s.4743-.3861.9376-.858.7993-.858.7469-.858-.4743.3861-.9376.858zm-1.8418 2.0493c-.5758.614-1.0057 1.42-.6344 1.191.1034-.064.1883-.215.1883-.335s.2741-.501.6092-.847c.3355-.345.5667-.6283.5143-.6283-.0525 0-.3571.2793-.6774.6193zm95.3197 2.527c.001.524.039.716.083.426.043-.29.042-.719-.003-.953-.045-.235-.081.002-.08.527zm-146.8018 1.239c0 .681.0348.96.0768.619.0424-.34.0424-.898 0-1.239-.042-.341-.0768-.062-.0768.62zm13.3296 0c0 .367.039.517.0872.334.0477-.184.0477-.484 0-.668-.0482-.183-.0872-.033-.0872.334zm118.9722.762c0 .368.039.518.087.334.048-.183.048-.484 0-.667-.048-.184-.087-.034-.087.333zm24.003 1.621c-4.748 35.885-30.227 64.616-64.089 72.27-47.4683 10.729-92.7921-20.019-101.0472-68.552-.223-1.311-.4566-2.512-.519-2.669-.0625-.158-.0978-.357-.0787-.444.0195-.086-.0453-.107-.143-.046-.1945.12-.183.463.0258.796.0724.117.0562.475-.0363.798-.1339.466-.1144.566.0939.486.2093-.08.2398.089.1502.845-.0668.565-.0329.994.0843 1.066.1092.068.1521.449.0963.863-.1029.767.4161 4.59.7145 5.264.093.21.2078.639.255.953.0477.315.216 1.001.3742 1.526.1578.524.4681 1.639.6888 2.478.8803 3.343 3.9338 9.979 7.4128 16.111 31.143 54.891 107.9324 57.758 142.9694 5.339 2.589-3.875 8.257-14.327 8.257-15.228 0-.119.086-.216.191-.216s.191-.134.191-.297c0-.184.091-.245.238-.16.131.075.177.07.103-.013-.075-.083.007-.418.182-.746.175-.327.303-.652.284-.721-.019-.07.178-.733.438-1.474.258-.742.47-1.478.47-1.638 0-.159.092-.289.203-.289s.158-.07.105-.156.038-.537.202-1.001c.463-1.308 1.205-4.878 1.336-6.417.064-.764.178-1.387.253-1.387s.096-.215.045-.477c-.055-.291-.003-.477.135-.477.14 0 .179-.147.103-.387-.139-.439.26-4.614.455-4.761.07-.052.072-.395.004-.762-.066-.367-.133-.582-.147-.477zm-78.601 22.645c.081.081 1.857.124 3.947.095l3.799-.052-3.947-.095c-2.17-.052-3.88-.029-3.799.052zm-13.4646.09c1.1273.034 2.9719.034 4.0992 0 1.1273-.033.205-.061-2.0496-.061-2.2545 0-3.1769.028-2.0496.061zm-3.9681 1.05-.5601.62.6197-.56c.5777-.522.7073-.68.5601-.68-.0329 0-.3118.279-.6197.62zm27.8897 1.701c.097.862.092.871-.544.992-.352.068-1.114.346-1.69.619-.981.463-1.292.504-4.775.618-4.116.134-4.444.225-5.084 1.41-.452.837-.433 3.041.035 3.946.703 1.358.244 4.23-.891 5.585-1.9814 2.365-4.5877-2.109-3.3046-5.672.3671-1.018.3623-2.771-.0104-3.702-.5291-1.322-.8237-1.412-5.1579-1.562-3.3823-.117-3.9495-.183-4.7665-.554-.51-.232-1.3128-.527-1.7847-.656-.7827-.213-.8546-.282-.8189-.788.0334-.479.011-.507-.1644-.201-.4781.836.418 3.249 1.5181 4.089l.674.514 4.3971.061c3.113.043 4.4395.127 4.541.286.0787.124.1445 2.167.1459 4.54.0024 3.278.0677 4.468.2722 4.957.9394 2.244 3.5361 3.027 5.2301 1.577 1.431-1.225 1.454-1.323 1.5-6.354.022-2.456.082-4.575.133-4.709.07-.183 1.128-.256 4.36-.3l4.268-.058.7-.534c1.153-.88 1.914-3.553 1.315-4.622-.149-.267-.173-.142-.098.518zm26.838 10.12-1.903 1.954 1.954-1.903c1.075-1.046 1.955-1.926 1.955-1.954 0-.138-.238.088-2.006 1.903zm.948.763-.754.81.811-.754c.753-.701.898-.867.753-.867-.031 0-.395.365-.81.811zm11.627 6.101-.56.619.62-.56c.341-.308.62-.586.62-.619 0-.148-.158-.018-.68.56zm-55.1362 10.389c.603.037 1.5892.037 2.1922 0 .603-.038.11-.069-1.0959-.069s-1.6992.031-1.0963.069zm-56.4788.496c-.0024.088.1673.378.377.645s.3794.409.377.316c-.0057-.222-.7488-1.169-.754-.961zm114.509.405c-.427.652-.385.821.074.292.347-.4.493-.762.308-.762-.041 0-.213.211-.382.47zm-63.6523-.145c.2369.046.5801.044.7627-.004.182-.047-.0119-.085-.4314-.083s-.5686.041-.3313.087zm12.5813 0c.236.046.622.046.858 0s.043-.083-.429-.083-.665.037-.429.083zm-8.4959.199c1.3308.032 3.5619.032 4.9569 0 1.396-.033.307-.06-2.4192-.06-2.7265 0-3.8685.027-2.5377.06z" fill="#6da49c"/></g></svg>