<svg fill="none" height="200" viewBox="0 0 200 200" width="200" xmlns="http://www.w3.org/2000/svg" xmlns:xlink="http://www.w3.org/1999/xlink"><mask id="a" height="44" maskUnits="userSpaceOnUse" width="28" x="73" y="73"><path d="m73.6528 73.6526h26.3882v43.1784h-26.3882z" fill="#fff"/></mask><mask id="b" height="16" maskUnits="userSpaceOnUse" width="50" x="75" y="111"><path d="m75.7881 111.234h48.5049v15.588h-48.5049z" fill="#fff"/></mask><mask id="c" height="44" maskUnits="userSpaceOnUse" width="27" x="100" y="73"><path d="m100.041 73.6526h26.781v43.1784h-26.781z" fill="#fff"/></mask><path d="m100.252 17c-45.984 0-83.252 37.268-83.252 83.252 0 45.976 37.268 83.251 83.252 83.251 45.976 0 83.251-37.275 83.251-83.251 0-45.984-37.275-83.252-83.251-83.252z" fill="#000"/><path d="m100.019 21.6639c-43.2732 0-78.3549 35.0818-78.3549 78.3541 0 43.281 35.0817 78.355 78.3549 78.355 43.28 0 78.354-35.074 78.354-78.355 0-43.2723-35.074-78.3541-78.354-78.3541z" fill="#fff"/><path d="m100.12 25.9635c-40.955 0-74.1566 33.2016-74.1566 74.1565 0 40.956 33.2016 74.157 74.1566 74.157 40.956 0 74.157-33.201 74.157-74.157 0-40.9549-33.201-74.1565-74.157-74.1565z" fill="#000"/><g mask="url(#a)"><path d="m98.5759 108.654v-34.812l-24.9231 7.783v34.819z" fill="#fff"/></g><g mask="url(#b)"><path d="m100.237 111.613-23.8005 7.44 23.8005 7.433 23.801-7.433z" fill="#fff"/></g><g mask="url(#c)"><path d="m101.898 108.654 24.923 7.79v-34.819l-24.923-7.783z" fill="#fff"/></g></svg>