<svg fill="none" height="200" viewBox="0 0 200 200" width="200" xmlns="http://www.w3.org/2000/svg" xmlns:xlink="http://www.w3.org/1999/xlink"><linearGradient id="a" gradientUnits="userSpaceOnUse" x1="112.939" x2="85.7297" y1="43.1654" y2="157.268"><stop offset="0" stop-color="#f0f"/><stop offset=".461458" stop-color="#7a85ff"/><stop offset="1" stop-color="#21dfff"/></linearGradient><path clip-rule="evenodd" d="m111.541 57.5323c3.725.6212 7.362-1.7188 8.292-5.4468.977-3.9196-1.408-7.8893-5.328-8.8665-3.919-.9773-7.889 1.4079-8.866 5.3275-.439 1.7581-.201 3.5263.549 5.03l-11.7878 7.083-13.851-3.4535c.6629-3.6157-1.593-7.171-5.2093-8.0727-3.7628-.9382-7.5737 1.3516-8.5118 5.1144-.9113 3.6546 1.2226 7.3546 4.7935 8.4238l-3.4237 13.732-11.9293 7.1678c-.9757-1.3679-2.4251-2.4083-4.1831-2.8466-3.9196-.9772-7.8893 1.408-8.8665 5.3275-.9773 3.9196 1.4079 7.8892 5.3275 8.8664 3.7665.9391 7.5793-1.2268 8.7384-4.8755l7.0726 1.7634-6.8955 27.6555c-3.6567-.725-7.3087 1.665-8.2579 5.471-.9773 3.92 1.2808 7.858 5.0436 8.796 3.6029.898 7.279-1.279 8.4427-4.907l28.1213 7.011-1.7928 7.191c-3.7237-.633-7.3311 1.584-8.2236 5.164-.9381 3.763 1.4787 7.605 5.3983 8.582 3.9195.977 7.8575-1.281 8.7957-5.043.4286-1.72.1568-3.455-.6387-4.927l11.8604-7.127 13.288 3.313c-.665 3.752 1.681 7.431 5.434 8.367 3.92.977 7.89-1.408 8.867-5.328.926-3.714-1.168-7.474-4.725-8.688l3.343-13.411 11.72-7.041c.925 1.393 2.33 2.448 4.05 2.877 3.763.938 7.605-1.479 8.582-5.398.977-3.92-1.281-7.858-5.043-8.796-3.543-.883-7.156 1.207-8.382 4.726l-7.087-1.767 6.985-28.0164c3.709.6099 7.292-1.6047 8.181-5.1706.938-3.7628-1.479-7.6054-5.399-8.5826-3.767-.9392-7.55 1.1101-8.672 4.6114l-27.549-6.8689zm25.552 14.9776-27.573-6.8745-5.353 21.4702c3.129.9977 5.663 3.0562 7.302 5.6718l26.477-15.9091c-.741-1.3011-1.068-2.8209-.853-4.3584zm1.515 5.3265-26.56 15.959c1.372 2.6818 1.856 5.8334 1.169 8.9866l21.905 5.462 6.984-28.0103c-1.425-.4637-2.624-1.3153-3.498-2.3973zm-31.047 33.2656c2.48-1.662 4.418-4.149 5.358-7.188l21.92 5.465-3.439 13.794-12.187 7.322zm-9.8919 2.066c3.1439.572 6.2619-.007 8.8919-1.457l11.649 19.387-12.186 7.322-13.7937-3.439zm-8.64-5.542c1.7439 2.501 4.3405 4.424 7.4984 5.283l-5.4327 21.789-28.1323-7.014c.2299-1.436.0368-2.852-.4937-4.099zm-2.1858-10.2131c-.624 3.2691 0 6.5181 1.5583 9.2251l-26.4772 15.909c-.7805-1.234-1.9295-2.217-3.3374-2.759l6.906-27.6984zm5.8646-8.7579c-2.6384 1.7218-4.6822 4.3686-5.5962 7.6186l-21.3356-5.3195 3.44-13.7972 12.1841-7.3209zm10.3301-1.8569c-3.2794-.744-6.5624-.2185-9.3233 1.2603l-11.3114-18.8252 12.1842-7.3209 13.7975 3.44zm40.007 24.6279-7.071-1.763-3.156 12.658 10.753-6.461c-.604-1.336-.816-2.877-.526-4.434zm-15.104 25.621 3.059-12.268-11.184 6.72 3.708 6.17c1.333-.645 2.868-.889 4.417-.622zm-5.427 1.213-3.701-6.159-11.183 6.72 12.164 3.033c.519-1.499 1.491-2.736 2.72-3.594zm-28.8021 7.558 10.8931-6.545-12.6578-3.156-1.7928 7.19c1.4614.486 2.6833 1.38 3.5575 2.511zm-36.1616-56.9148 7.0903 1.7678 3.1569-12.6617-10.9272 6.5657c.6469 1.3044.9093 2.8066.68 4.3282zm15.217-25.9891-3.1507 12.6369 11.1809-6.7182-3.9801-6.624c-1.2191.6189-2.6227.8862-4.0501.7053zm5.0461-1.3199 3.9873 6.6359 11.1809-6.7182-12.7374-3.1758c-.483 1.3399-1.3447 2.4568-2.4308 3.2581zm28.9786-7.0152c.869 1.2134 2.112 2.1677 3.613 2.6703l-1.737 6.9675-12.6619-3.1569z" fill="url(#a)" fill-rule="evenodd"/></svg>