<svg fill="none" height="200" viewBox="0 0 200 200" width="200" xmlns="http://www.w3.org/2000/svg"><path clip-rule="evenodd" d="m100 16c46.395 0 84 37.6048 84 84 0 46.395-37.605 84-84 84-46.3952 0-84-37.605-84-84 0-46.3952 37.6048-84 84-84z" fill="#f0b90b" fill-rule="evenodd"/><g fill="#fff"><path d="m62.1662 100 .0605 22.212 18.8731 11.105v13.004l-29.9183-17.547v-35.2691zm0-22.2115v12.9433l-10.9914-6.5019v-12.9433l10.9914-6.5019 11.0451 6.5019zm26.8153-6.5019 10.9914-6.5019 11.0451 6.5019-11.0451 6.5019z"/><path d="m70.1084 117.608v-13.004l10.9913 6.502v12.943zm18.8731 20.367 10.9913 6.502 11.0452-6.502v12.943l-11.0452 6.502-10.9913-6.502zm37.7995-66.6884 10.992-6.5019 11.045 6.5019v12.9433l-11.045 6.5019v-12.9433zm10.992 50.9254.06-22.212 10.992-6.5019v35.2689l-29.919 17.547v-13.003z"/><path d="m129.891 117.608-10.991 6.441v-12.943l10.991-6.502z"/><path d="m129.891 82.3923.061 13.0039-18.927 11.1058v22.265l-10.992 6.442-10.991-6.442v-22.265l-18.9269-11.1058v-13.0039l11.0385-6.5019 18.8125 11.1596 18.9269-11.1596 11.045 6.5019zm-59.7826-22.2048 29.8644-17.6077 29.9182 17.6077-10.991 6.5019-18.9272-11.1596-18.8731 11.1596z"/></g></svg>