<svg fill="none" height="200" viewBox="0 0 200 200" width="200" xmlns="http://www.w3.org/2000/svg" xmlns:xlink="http://www.w3.org/1999/xlink"><radialGradient id="a" cx="0" cy="0" gradientTransform="matrix(-84.2881 0 0 -84.2881 100 100)" gradientUnits="userSpaceOnUse" r="1"><stop offset=".5625" stop-color="#75fb75"/><stop offset=".760417" stop-color="#06b706"/><stop offset=".901042" stop-color="#04a304"/><stop offset=".9999" stop-color="#01ae01"/><stop offset="1" stop-color="#009f00"/></radialGradient><linearGradient id="b" gradientUnits="userSpaceOnUse" x1="100" x2="100" y1="26.2479" y2="114.75"><stop offset=".114583" stop-color="#86ff86"/><stop offset=".244792" stop-color="#42f342"/><stop offset=".505208" stop-color="#17c817"/><stop offset=".671875" stop-color="#01b201"/><stop offset=".817708" stop-color="#00a900"/><stop offset=".958333" stop-color="#14a514"/></linearGradient><linearGradient id="c" gradientUnits="userSpaceOnUse" x1="100" x2="100" y1="23.0871" y2="74.1868"><stop offset="0" stop-color="#2cff41" stop-opacity=".31"/><stop offset="1" stop-color="#d9d9d9" stop-opacity="0"/></linearGradient><radialGradient id="d" cx="0" cy="0" gradientTransform="matrix(0 84.2881 -84.2881 0 100 100)" gradientUnits="userSpaceOnUse" r="1"><stop offset=".880208" stop-color="#d9d9d9" stop-opacity="0"/><stop offset="1" stop-color="#010101" stop-opacity=".28"/></radialGradient><path d="m100 184.288c46.551 0 84.288-37.737 84.288-84.288s-37.737-84.2881-84.288-84.2881-84.2881 37.7371-84.2881 84.2881 37.7371 84.288 84.2881 84.288z" fill="url(#a)"/><path d="m100 173.752c40.732 0 73.752-33.02 73.752-73.752 0-40.7321-33.02-73.7521-73.752-73.7521s-73.752 33.02-73.752 73.7521c0 40.732 33.02 73.752 73.752 73.752z" fill="url(#b)"/><path d="m100 184.288c46.551 0 84.288-37.737 84.288-84.288s-37.737-84.2881-84.288-84.2881-84.2881 37.7371-84.2881 84.2881 37.7371 84.288 84.2881 84.288z" fill="url(#c)"/><path d="m100 184.288c46.551 0 84.288-37.737 84.288-84.288s-37.737-84.2881-84.288-84.2881-84.2881 37.7371-84.2881 84.2881 37.7371 84.288 84.2881 84.288z" fill="url(#d)"/></svg>