<svg fill="none" height="200" viewBox="0 0 200 200" width="200" xmlns="http://www.w3.org/2000/svg" xmlns:xlink="http://www.w3.org/1999/xlink"><linearGradient id="a" gradientUnits="userSpaceOnUse" x1="99.7119" x2="99.7119" y1="16" y2="184"><stop offset="0" stop-color="#00e0ff"/><stop offset="1" stop-color="#00e0ff" stop-opacity="0"/></linearGradient><path d="m99.554 16c-6.304 0-12.6076.6376-18.9115 2.2315v.9564 103.6051c0 2.232-1.8912 3.825-3.7824 3.825h-7.5647c-1.5759 0-2.8367-1.274-2.8367-2.869v-101.0545c-29.9438 12.7514-50.7468 42.7172-50.7468 77.1456 0 46.5429 37.5084 84.1599 84.1579 84.1599 46.6492 0 83.8422-37.617 83.8422-83.841 0-46.2236-37.824-84.159-84.158-84.159zm-1.5754 118.907c0 1.912-1.5762 3.506-3.4675 3.506h-7.5647c-1.8911 0-3.4671-1.594-3.4671-3.506v-53.2373c0-1.9127 1.576-3.5066 3.4671-3.5066h7.5647c1.8913 0 3.4675 1.5939 3.4675 3.5066zm17.0204 5.101c0 1.912-1.576 3.506-3.467 3.506h-7.565c-1.891 0-3.467-1.594-3.467-3.506v-63.4388c0-1.9127 1.576-3.5067 3.467-3.5067h7.565c1.891 0 3.467 1.594 3.467 3.5067zm17.021-9.564c0 1.913-1.576 3.506-3.468 3.506h-7.564c-1.891 0-3.467-1.593-3.467-3.506v-43.6737c0-1.9127 1.576-3.5067 3.467-3.5067h7.564c1.892 0 3.468 1.594 3.468 3.5067z" fill="#ff005c"/><path d="m99.554 16c-6.304 0-12.6076.6376-18.9115 2.2315v.9564 103.6051c0 2.232-1.8912 3.825-3.7824 3.825h-7.5647c-1.5759 0-2.8367-1.274-2.8367-2.869v-101.0545c-29.9438 12.7514-50.7468 42.7172-50.7468 77.1456 0 46.5429 37.5084 84.1599 84.1579 84.1599 46.6492 0 83.8422-37.617 83.8422-83.841 0-46.2236-37.824-84.159-84.158-84.159zm-1.5754 118.907c0 1.912-1.5762 3.506-3.4675 3.506h-7.5647c-1.8911 0-3.4671-1.594-3.4671-3.506v-53.2373c0-1.9127 1.576-3.5066 3.4671-3.5066h7.5647c1.8913 0 3.4675 1.5939 3.4675 3.5066zm17.0204 5.101c0 1.912-1.576 3.506-3.467 3.506h-7.565c-1.891 0-3.467-1.594-3.467-3.506v-63.4388c0-1.9127 1.576-3.5067 3.467-3.5067h7.565c1.891 0 3.467 1.594 3.467 3.5067zm17.021-9.564c0 1.913-1.576 3.506-3.468 3.506h-7.564c-1.891 0-3.467-1.593-3.467-3.506v-43.6737c0-1.9127 1.576-3.5067 3.467-3.5067h7.564c1.892 0 3.468 1.594 3.468 3.5067z" fill="url(#a)" fill-opacity=".4"/></svg>