<svg fill="none" height="200" viewBox="0 0 200 200" width="200" xmlns="http://www.w3.org/2000/svg" xmlns:xlink="http://www.w3.org/1999/xlink"><mask id="a" height="168" maskUnits="userSpaceOnUse" width="168" x="16" y="16"><path d="m183.712 16h-167.4239v168h167.4239z" fill="#fff"/></mask><g mask="url(#a)"><path d="m100 16c46.229 0 83.712 37.6118 83.712 84 0 46.388-37.483 84-83.712 84-46.2291 0-83.7119-37.612-83.7119-84 0-46.3882 37.4828-84 83.7119-84z" fill="#f0b90b"/><path d="m43.0757 100.027 14.2176-14.2667 14.2176 14.2667-14.2176 14.266zm99.6303-14.3608-56.9908 57.1868 14.2176 14.267 56.9912-57.1872zm-78.3072 35.7568 56.9912-57.1868 14.217 14.2665-56.9906 57.1873zm-.0268-42.759 35.661-35.784 14.218 14.2666-35.6614 35.784z" fill="#fff"/></g></svg>