<svg fill="none" height="200" viewBox="0 0 200 200" width="200" xmlns="http://www.w3.org/2000/svg"><path d="m99.7119 184c46.3921 0 84.0001-37.608 84.0001-84 0-46.3919-37.608-84-84.0001-84-46.3919 0-84 37.6081-84 84 0 46.392 37.6081 84 84 84z" fill="#7e00e9"/><g fill="#1cff49" stroke="#1cff49" stroke-miterlimit="10" stroke-width="2.4"><path d="m154.275 101.154c0 15.138-6.163 22.014-16.111 25.096-.237.074-.488.091-.732.05-.245-.04-.477-.138-.677-.284-.2-.147-.363-.338-.476-.559-.112-.221-.172-.465-.173-.713.006-.344.124-.677.336-.948.212-.272.506-.467.838-.557 3.855-1.07 6.023-2.806 6.023-5.622 0-8.096-19.519-14.661-43.6008-14.661-24.0817 0-43.5709 6.565-43.5709 14.661 0 2.63 2.2184 4.317 6.0229 5.401.3299.092.6212.288.8302.56.209.271.3245.603.3292.945.0007.275-.0632.546-.1867.791s-.303.457-.5239.62c-.221.163-.4772.271-.7479.317-.2707.045-.5482.026-.8101-.056-9.8225-3.132-15.8956-10.038-15.8956-25.046 0-14.4706 5.7486-28.3489 15.9811-38.5814s24.1108-15.9811 38.5818-15.9811c14.4707 0 28.3497 5.7486 38.5817 15.9811 10.233 10.2325 15.981 24.1108 15.981 38.5814z"/><path d="m94.0703 155.506h-.0703c-28.7043 6.224-24.5335 14.054-8.2665-25.266 6.3391-15.313-2.0077-21.211 13.2705-21.211h.0703c15.2677 0 13.2657 5.019 13.2657 21.211s11.805 17.256-18.2697 25.266z"/></g></svg>