<svg fill="none" height="200" viewBox="0 0 200 200" width="200" xmlns="http://www.w3.org/2000/svg" xmlns:xlink="http://www.w3.org/1999/xlink"><linearGradient id="a" gradientUnits="userSpaceOnUse" x1="48.9998" x2="151" y1="91.9996" y2="91.9996"><stop offset="0" stop-color="#12c1e1"/><stop offset=".7" stop-color="#12c1e1"/><stop offset="1" stop-color="#1694d2"/></linearGradient><path d="m84.7125 141.45h-34.1322l6.6971-33.901 35.4329-28.5565h-30.1327l24.3672-13.3603h39.6182l-51.2437 45.2578-3.4408 17.284s11.4386.751 20.4604 0c9.0201-.835 19.1581-4.175 19.1581-4.175zm53.6625-72.5607-15.252 13.3596s12.833 12.7756 1.022 30.3111c-11.625 17.2-50.221 14.027-50.221 14.027l2.9756-15.113 54.3144-47.4284h-45.0136l4.5571-23.0456h-21.7623l-7.8122 39.4124h27.7139l-32.9226 26.5526-6.9743 35.738s26.3193.668 48.6402 0c22.4128-.668 48.5468-17.87 52.3598-37.325 5.208-26.3026-11.625-36.4887-11.625-36.4887z" fill="url(#a)"/></svg>