<svg fill="none" height="200" viewBox="0 0 200 200" width="200" xmlns="http://www.w3.org/2000/svg" xmlns:xlink="http://www.w3.org/1999/xlink"><mask id="a" height="168" maskUnits="userSpaceOnUse" width="169" x="16" y="16"><path d="m100.5 184c46.392 0 84-37.608 84-84 0-46.3919-37.608-84-84-84-46.3919 0-84 37.6081-84 84 0 46.392 37.6081 84 84 84z" fill="#d9d9d9"/></mask><g mask="url(#a)"><path d="m184.5 16h-168v168h168z" fill="#1c1c1c"/><g stroke="#06fc99" stroke-opacity=".1"><path d="m16.5 20.2h168"/><path d="m16.5 24.4h168"/><path d="m16.5 28.6h168"/><path d="m16.5 32.8h168"/><path d="m16.5 37h168"/><path d="m16.5 41.2h168"/><path d="m16.5 45.4h168"/><path d="m16.5 49.6h168"/><path d="m16.5 53.8h168"/><path d="m16.5 58h168"/><path d="m16.5 62.2h168"/><path d="m16.5 66.4h168"/><path d="m16.5 70.6h168"/><path d="m16.5 74.8h168"/><path d="m16.5 79h168"/><path d="m16.5 83.2h168"/><path d="m16.5 87.4h168"/><path d="m16.5 91.6h168"/><path d="m16.5 95.8h168"/><path d="m16.5 100h168"/><path d="m16.5 104.2h168"/><path d="m16.5 108.4h168"/><path d="m16.5 112.6h168"/><path d="m16.5 116.8h168"/><path d="m16.5 121h168"/><path d="m16.5 125.2h168"/><path d="m16.5 129.4h168"/><path d="m16.5 133.6h168"/><path d="m16.5 137.8h168"/><path d="m16.5 142h168"/><path d="m16.5 146.2h168"/><path d="m16.5 150.4h168"/><path d="m16.5 154.6h168"/><path d="m16.5 158.8h168"/><path d="m16.5 163h168"/><path d="m16.5 167.2h168"/><path d="m16.5 171.4h168"/><path d="m16.5 175.6h168"/><path d="m16.5 179.8h168"/><path d="m16.5 184h168"/></g><path clip-rule="evenodd" d="m140.82 56.3199v86.5201h-80.6403v-.001h15.12v-15.268h-15.12v-55.9828h15.12v-15.2683zm-52.9212 15.269h37.8002v15.2682h-37.8002zm37.8002 43.2601h-37.8002v-27.9919l-15.1199.0007v27.9912h15.1199v15.268h37.8002z" fill="#06fc99" fill-rule="evenodd"/></g></svg>