<svg fill="none" height="200" viewBox="0 0 200 200" width="200" xmlns="http://www.w3.org/2000/svg" xmlns:xlink="http://www.w3.org/1999/xlink"><linearGradient id="a"><stop offset="0" stop-color="#fe5000"/><stop offset="1" stop-color="#ff8412"/></linearGradient><linearGradient id="b" gradientUnits="userSpaceOnUse" x1="42.4634" x2="156.464" xlink:href="#a" y1="100.969" y2="100.969"/><linearGradient id="c" gradientUnits="userSpaceOnUse" x1="42.4633" x2="156.463" xlink:href="#a" y1="100.969" y2="100.969"/><path d="m154.792 132.083.626-1.255c2.315-5.557.152-12.032-5.049-15.087-1.86-1.096-3.975-1.675-6.117-1.675-4.278 0-8.288 2.289-10.451 5.985l-.337.531-6.654 11.549c-.262.566-.579 1.103-.931 1.614l-.027.041-.048.083-.055.075c-.187.263-.386.518-.593.759h22.526c3.252 0 5.766-.931 7.116-2.634z" fill="url(#b)"/><path d="m100.315 162.993h.799c4.636-.062 8.949-1.117 12.145-2.971l33.073-19.107c1.068-.613 2.122-1.392 3.141-2.296-.578.055-1.178.083-1.798.083h-63.0113c-.6128-.007-1.2192-.069-1.8116-.172l11.2838 19.561c1.722 2.992 3.9128 4.73 6.1721 4.909z" fill="url(#c)"/><path d="m45.9835 131.166c.1377.234.2686.475.4133.71 2.3697 3.978 5.4352 7.191 8.6385 9.046l33.066 19.106c1.0748.621 2.2665 1.152 3.5615 1.586-.3377-.476-.6614-.986-.9712-1.524l-15.2035-26.359c-.3309-.476-.6339-.993-.8955-1.552l-14.7076-25.498c-.5442-.738-.9989-1.531-1.3433-2.351-.0551-.138-.1102-.283-.1654-.427l-11.2286 19.471c-1.7222 2.986-2.1356 5.744-1.1642 7.785z" fill="url(#c)"/><g fill="url(#b)"><path d="m56.606 99.0004 1.9909-3.4478c.3306-.7722.7646-1.5236 1.2881-2.2339l15.5617-26.9802.0622-.1105.0482-.0826.0551-.0758c.1929-.2758.3927-.5379.606-.7862h-22.5261c-3.4375 0-6.0277 1.0204-7.3159 2.8824-.1447.2482-.2894.4964-.4271.7446-2.2457 4.0336-3.4857 8.2947-3.4857 11.9835v38.2191c0 1.241.1378 2.537.4133 3.875.2411-.531.5235-1.069.8267-1.599l12.9095-22.3819z"/><path d="m79.5043 61.2913h37.4337c.53.0207 1.054.0827 1.57.1723l-11.283-19.5612c-1.736-3.0063-3.934-4.7438-6.2-4.9024h-.035c-.069 0-.186 0-.31 0-.144 0-.289 0-.427 0-4.643.0621-8.9481 1.117-12.1448 2.9649l-33.0727 19.1131c-1.0678.6205-2.1218 1.3859-3.1413 2.2891.5786-.0551 1.178-.0827 1.7979-.0827h25.8122z"/><path d="m123.585 62.2842 10.237 17.9134c2.163 3.6888 6.193 5.9918 10.492 5.9918 2.149 0 4.277-.5791 6.145-1.6824 5.786-3.4063 7.729-10.8805 4.333-16.6723l-.496-.8065c-2.239-3.4477-5.077-6.2816-7.964-7.9502l-33.073-19.1131c-1.068-.6205-2.259-1.1445-3.548-1.5789.338.4757.662.986.972 1.5169l12.909 22.3813z"/></g></svg>