<svg fill="none" height="200" viewBox="0 0 200 200" width="200" xmlns="http://www.w3.org/2000/svg"><path d="m100.463 183c45.84 0 83-37.16 83-83 0-45.8396-37.16-83-83-83-45.8392 0-82.9996 37.1604-82.9996 83 0 45.84 37.1604 83 82.9996 83z" fill="#fff"/><path clip-rule="evenodd" d="m135.397 114.812h-48.8835v-27.2597h-7.54v31.0497c-.001.493.0966.982.2875 1.437.1939.453.4737.863.8243 1.208.7072.701 1.662 1.096 2.6584 1.099h42.8133l-8.838 7.956h-47.433v-45.1268h48.89c.93.0023 1.828-.3417 2.518-.9648l17.221-15.451c.566-.5089.965-1.1772 1.144-1.9169.132-.5538.137-1.1298.015-1.6856-.122-.5561-.369-1.0767-.721-1.5239-.353-.4469-.801-.8081-1.313-1.0571-.512-.2486-1.074-.3785-1.643-.3791h-52.6533c-.4951 0-.9848.0976-1.4419.2872-.4572.1895-.8722.4671-1.2218.8173-.3496.3503-.6268.766-.8154 1.2231-.1889.4575-.2855.9476-.2848 1.4426v9.3036h7.5337v-5.5783h39.0555l-8.837 7.9554h-51.2095c-.4993-.0036-.9947.0923-1.4565.2819-.4618.1899-.8815.4698-1.2337.8237-.3516.3479-.6298.7629-.8181 1.2204-.1852.4568-.2805.9449-.2812 1.4379v52.6534c-.0006.495.096.985.2849 1.443.1886.457.4658.873.8154 1.223s.7646.628 1.2217.817c.4572.19.9469.287 1.4419.287h52.6541c.929 0 1.825-.344 2.517-.964l17.222-15.49c.566-.509.964-1.178 1.142-1.919.179-.74.128-1.517-.145-2.228s-.755-1.322-1.382-1.754c-.628-.431-1.372-.662-2.133-.662" fill="#ff4350" fill-rule="evenodd"/></svg>