<svg fill="none" height="200" viewBox="0 0 200 200" width="200" xmlns="http://www.w3.org/2000/svg" xmlns:xlink="http://www.w3.org/1999/xlink"><clipPath id="a"><path d="m0 0h200v200h-200z"/></clipPath><g clip-path="url(#a)"><path d="m100 200c55.228 0 100-44.772 100-100 0-55.2284-44.772-100-100-100-55.2284 0-100 44.7716-100 100 0 55.228 44.7716 100 100 100z" fill="#bec9f8"/><g fill="#000"><path d="m125.363 95.4069h24.1c-.434-5.0977-1.658-10.0967-3.626-14.8172-2.908-7.005-7.392-13.2413-13.102-18.2209-5.709-4.9793-12.49-8.5677-19.811-10.4841v-8.8771h-8.197v31.7202c5.161.8559 9.926 3.3092 13.627 7.0168 3.708 3.7042 6.16 8.4837 7.009 13.6623zm-12.439-36.1587c6.568 2.023 12.543 5.626 17.402 10.4959 4.86 4.8698 8.459 10.8581 10.481 17.4425h-10.885c-.002-.0219-.009-.0431-.02-.0615-3.219-7.6761-9.317-13.7759-16.979-16.9851z"/><path d="m87.3063 52.0529c-1.9789.5547-3.9228 1.2293-5.8203 2.0199-8.8962 3.775-16.4873 10.0929-21.8264 18.1656-5.3389 8.0731-8.19 17.5436-8.1962 27.2309-.0097 10.7567 3.4874 21.2217 9.9582 29.8007 6.4705 8.579 15.5604 14.802 25.8847 17.722v8.004h8.1976v-30.863c-5.6409-1.179-10.7054-4.269-14.3404-8.753-3.6353-4.483-5.6201-10.085-5.6201-15.8632-.0014-5.7792 1.9827-11.3826 5.6177-15.8672 3.6357-4.4847 8.7005-7.5764 14.3428-8.7553v-31.8943h-8.1976zm0 18.5464c-5.5016 2.5506-10.1605 6.6264-13.4266 11.7463-3.2664 5.12-5.0039 11.07-5.007 17.148-.0055 6.0844 1.7281 12.0444 4.9949 17.1724 3.2668 5.127 7.9305 9.209 13.4387 11.762v11.057c-8.3555-2.807-15.6199-8.176-20.7675-15.348-5.1477-7.171-7.9177-15.784-7.9194-24.6202.0003-8.8379 2.7707-17.4522 7.919-24.6253 5.1484-7.1731 12.4148-12.5424 20.7724-15.349z"/><path d="m142.327 104.65h-17.152c-1.004 4.822-3.397 9.243-6.885 12.714-3.486 3.471-7.912 5.838-12.729 6.808h-.84v30.828h8.197v-7.718c2.339-.605 4.631-1.381 6.856-2.322 8.073-3.459 15.075-9.021 20.281-16.109 5.205-7.088 8.424-15.445 9.323-24.201zm-29.407 35.161v-10.912c.02-.011.05-.02.072-.031 7.293-3.08 13.17-8.788 16.476-15.998h11.016c-2.131 6.363-5.742 12.126-10.535 16.811-4.794 4.685-10.631 8.158-17.029 10.13z"/></g></g></svg>