<svg fill="none" height="200" viewBox="0 0 200 200" width="200" xmlns="http://www.w3.org/2000/svg" xmlns:xlink="http://www.w3.org/1999/xlink"><linearGradient id="a" gradientUnits="userSpaceOnUse" x1="46.4643" x2="95.8556" y1="99.9987" y2="99.9987"><stop offset="0" stop-color="#87f2ff"/><stop offset="1" stop-color="#0093ff"/></linearGradient><linearGradient id="b" gradientUnits="userSpaceOnUse" x1="105.463" x2="154.463" y1="120.005" y2="120.005"><stop offset="0" stop-color="#ecac1a"/><stop offset=".31985" stop-color="#e7ba1e"/><stop offset=".68015" stop-color="#ffe864"/><stop offset="1" stop-color="#f5c635"/></linearGradient><linearGradient id="c" gradientUnits="userSpaceOnUse" x1="110.554" x2="148.972" y1="126.018" y2="126.018"><stop offset="0" stop-color="#b46a11"/><stop offset=".31985" stop-color="#d68d15"/><stop offset=".68015" stop-color="#e7ac18"/><stop offset="1" stop-color="#f8c73d"/></linearGradient><linearGradient id="d" gradientUnits="userSpaceOnUse" x1="93.8752" x2="173.726" y1="96.7495" y2="96.7495"><stop offset="0" stop-color="#da9917"/><stop offset=".31985" stop-color="#ffcf25"/><stop offset=".68015" stop-color="#ffff90"/><stop offset="1" stop-color="#ecbf26"/></linearGradient><mask id="e" height="168" maskUnits="userSpaceOnUse" width="169" x="16" y="16"><path d="m100 184c46.392 0 84-37.608 84-84 0-46.3919-37.608-84-84-84-46.3917 0-83.9998 37.6081-83.9998 84 0 46.392 37.6081 84 83.9998 84z" fill="#fff"/></mask><mask id="f" height="254" maskUnits="userSpaceOnUse" width="633" x="16" y="-70"><path d="m648.517-69.8035h-632.5168v253.8035h632.5168z" fill="#fff"/></mask><mask id="g" height="21" maskUnits="userSpaceOnUse" width="47" x="105" y="111"><path d="m151.501 120.355c-2.741 3.264-6.113 5.942-9.914 7.872-3.801 1.929-7.953 3.071-12.206 3.356-4.253.286-8.521-.291-12.545-1.695-4.025-1.405-7.725-3.608-10.878-6.478l9.407-7.872c1.783 1.906 3.994 3.36 6.45 4.244 2.456.883 5.087 1.17 7.676.837 2.588-.334 5.061-1.278 7.213-2.755s3.922-3.444 5.164-5.739l.217-.402z" fill="#fff"/></mask><mask id="h" height="64" maskUnits="userSpaceOnUse" width="108" x="46" y="68"><path d="m127.255 68.3421c-4.339-.0046-8.634.886-12.614 2.616-3.98 1.7301-7.56 4.2625-10.518 7.4389l-1.135 1.3834c-1.272 1.5235-2.347 3.2004-3.2012 4.9913-2.6852 5.7116-4.1226 11.9299-4.2163 18.2403l-.0682 4.293c-.6797 2.644-1.9885 5.083-3.8148 7.111-1.826 1.763-3.9998 3.124-6.3821 3.999-2.3824.874-4.921 1.242-7.4535 1.079-3.0659-.111-6.0623-.944-8.7459-2.431s-4.9786-3.585-6.6989-6.126c-1.7202-2.54-2.817-5.45-3.2014-8.494-.3844-3.0431-.0454-6.1348.9893-9.0229 1.0347-2.8882 2.7361-5.4916 4.9658-7.5988 2.2297-2.1071 4.9251-3.6587 7.8671-4.5287 2.942-.8699 6.0477-1.0337 9.0648-.4781 3.0172.5557 5.8608 1.8151 8.2998 3.6761l.0361.3252 7.0734-10.0589c-4.9034-3.71-10.7812-5.9118-16.9154-6.3363-6.1341-.4245-12.2591.9466-17.6269 3.9459-5.3677 2.9994-9.7458 7.497-12.5994 12.9435-2.8537 5.4465-4.0594 11.6062-3.4698 17.727.5895 6.12 2.9488 11.937 6.7895 16.739 3.8408 4.801 8.9968 8.38 14.8383 10.3s12.1156 2.096 18.056.509c5.9404-1.588 11.2899-4.871 15.3947-9.449l.862-1.005 50.926-37.4534c-2.874-4.4064-6.805-8.0254-11.432-10.5287-4.629-2.5034-9.808-3.8118-15.07-3.8068zm-19.583 34.6099c-.493-3.3537-.111-6.8628 1.132-10.0163 1.245-3.1535 3.294-5.9257 5.943-8.0403 2.65-2.1146 5.808-3.4976 9.159-4.0111 3.35-.5135 6.778-.1396 9.939 1.0845l.728.2811z" fill="#fff"/></mask><g mask="url(#e)"><path d="m648.517-69.8035h-632.5168v253.8035h632.5168z" fill="#000b48"/><g mask="url(#f)"><g fill="#02238e" opacity=".5"><path d="m108.746 251.54c-29.7818.018-59.2748-5.854-86.7928-17.279-27.51789-11.424-52.5211-28.178-73.5799-49.303-21.0584-21.125-37.7601-46.207-49.1493-73.812-11.388-27.6044-17.241-57.1903-17.224-87.0657-.09-29.88556 5.731-59.4923 17.124-87.1065 11.3926-27.6144 28.1321-52.6878 49.2492-73.7678 42.55015-42.635 100.231-66.583 160.3708-66.583 60.141 0 117.822 23.948 160.372 66.583 21.117 21.08 37.856 46.1534 49.249 73.7678 11.393 27.6142 17.213 57.22094 17.124 87.1065.017 29.8752-5.836 59.4609-17.225 87.0657-11.388 27.604-28.089 52.686-49.147 73.811-21.059 21.125-46.062 37.879-73.58 49.304-27.518 11.424-57.01 17.297-86.791 17.279zm0-454.257c-44.7156 0-88.4267 13.302-125.6061 38.223-37.1795 24.92-66.157 60.341-83.2699 101.7829-17.111 41.4418-21.588 87.043-12.865 131.0372 8.723 43.9939 30.256 84.4059 61.8748 116.1239 31.6185 31.718 71.9029 53.318 115.759 62.069 43.8562 8.752 89.3142 4.26 130.6262-12.906 41.311-17.166 76.62-46.235 101.463-83.531s38.102-81.1455 38.102-126.0017c-.065-60.1313-23.905-117.781-66.289-160.3013-42.385-42.52-99.853-66.428-159.795-66.496z"/><path d="m108.747 240.049c-28.2706.016-56.2668-5.558-82.3882-16.403-26.121472-10.845-49.8558-26.749-69.846-46.801-19.9902-20.054-35.844-43.862-46.6556-70.066-10.8112-26.2036-16.3682-54.2879-16.3522-82.6473-.016-28.35929 5.541-56.4436 16.3522-82.6472 10.8116-26.2039 26.6654-50.0125 46.6556-70.0655s43.724528-35.957 69.846-46.801c26.1214-10.846 54.1176-16.42 82.3882-16.403 28.27-.017 56.266 5.557 82.388 16.402 26.121 10.845 49.855 26.749 69.846 46.801 19.99 20.054 35.843 43.8626 46.654 70.0663s16.367 54.28819 16.351 82.6474c.016 28.3594-5.54 56.4437-16.351 82.6483-10.811 26.203-26.664 50.012-46.654 70.065-19.991 20.053-43.725 35.957-69.846 46.802-26.122 10.844-54.118 16.419-82.388 16.402zm0-431.174c-42.4404 0-83.9274 12.625-119.215 36.277-35.2877 23.653-62.7908 57.2715-79.0322 96.6045-16.2418 39.3331-20.4898 82.614-12.2108 124.3698 8.2796 41.7557 28.7168 80.1107 58.7261 110.2157 30.0097 30.104 68.2443 50.605 109.8689 58.911 41.625 8.305 84.77 4.042 123.979-12.25 39.21-16.292 72.722-43.882 96.301-79.281 23.578-35.398 36.164-77.0165 36.164-119.5903-.065-57.0698-22.693-111.7836-62.92-152.1387-40.228-40.355-94.771-63.054-151.661-63.118z"/><path d="m108.741 253.843c-30.0858.089-59.8895-5.811-87.6869-17.355-27.79734-11.543-53.0362-28.504-74.2559-49.897-21.3279-21.289-38.2346-46.609-49.7422-74.496-11.508-27.8869-17.387-57.7864-17.298-87.9679-.089-30.18114 5.79-60.0804 17.298-87.9668 11.5068-27.8861 28.4143-53.2063 49.7422-74.4933 42.9689-43.058 101.219-67.243 161.9538-67.243 60.733 0 118.983 24.185 161.952 67.243 21.325 21.289 38.23 46.6089 49.735 74.4951 11.505 27.8863 17.382 57.78487 17.291 87.965.09 30.1805-5.786 60.0794-17.292 87.9659-11.504 27.887-28.409 53.208-49.734 74.498-21.222 21.396-46.464 38.357-74.266 49.901-27.801 11.545-57.609 17.442-87.697 17.351zm0-458.742c-45.159-.001-89.3034 13.432-126.8514 38.6-37.548 25.167-66.8135 60.938-84.0946 102.7904-17.282 41.8521-21.803 87.9052-12.993 132.3354 8.809 44.4302 30.5547 85.2412 62.4866 117.2742 31.9318 32.032 72.6153 53.846 116.906 62.684 44.2904 8.838 90.1994 4.302 131.9194-13.034 41.721-17.336 77.38-46.693 102.468-84.36 25.089-37.666 38.479-81.9497 38.479-127.2502-.065-60.7265-24.141-118.9477-66.945-161.8888-42.803-42.941-100.84-67.082-161.375-67.151z"/><path d="m108.748 319.665c-38.7126.117-77.0638-7.469-112.83389-22.32-35.77011-14.851-68.24911-36.671-95.55581-64.198-27.4403-27.394-49.1933-59.975-63.9973-95.858-14.804-35.882-22.366-74.3542-22.25-113.1886-.116-38.834 7.446-77.3056 22.25-113.1878 14.804-35.8826 36.556-68.4626 63.9973-95.8556 55.2893-55.402 130.2407-86.521 208.3877-86.521 78.148 0 153.1 31.119 208.388 86.521 27.441 27.393 49.193 59.973 63.997 95.8556 14.805 35.8822 22.367 74.3538 22.25 113.1878.117 38.8344-7.445 77.3066-22.25 113.1886-14.804 35.883-36.556 68.464-63.997 95.858-27.306 27.527-59.784 49.347-95.554 64.198s-74.12 22.438-112.832 22.32zm0-590.466c-58.1435-.002-114.98169 17.291-163.3271 49.694-48.3449 32.403-86.0269 78.46-108.2789 132.3455-22.252 53.8865-28.075 113.1816-16.733 170.3877 11.341 57.2058 39.34 109.7528 80.4516 150.9968 41.1132 41.244 93.49462 69.332 150.5205 80.712 57.0259 11.379 116.1349 5.54 169.8529-16.78 53.717-22.321 99.631-60.118 131.934-108.615 32.303-48.496 49.545-105.5131 49.545-163.8396-.089-78.1836-31.089-153.1394-86.198-208.4244-55.11-55.286-129.829-86.386-207.767-86.477z"/><path d="m108.752 291.592c-35.0327.106-69.7387-6.759-102.10916-20.198-32.37044-13.439-61.76224-33.186-86.47474-58.096-24.8321-24.791-44.5161-54.275-57.9131-86.747-13.397-32.4723-20.24-67.2876-20.135-102.4309-.105-35.143 6.739-69.9579 20.135-102.4294 13.397-32.4717 33.082-61.9557 57.9131-86.7457 50.0358-50.134 117.8633-78.295 188.5829-78.295 70.719 0 138.547 28.161 188.582 78.295 24.832 24.79 44.516 54.274 57.913 86.7457 13.397 32.4715 20.241 67.2864 20.136 102.4294.105 35.1433-6.739 69.9586-20.136 102.4309-13.396 32.472-33.081 61.956-57.913 86.747-24.712 24.91-54.103 44.657-86.473 58.096s-67.075 20.304-102.108 20.198zm0-534.281c-52.6046 0-104.02831 15.648-147.7679 44.965-43.7392 29.317-77.8301 70.988-97.9621 119.7415-20.131 48.7532-25.398 102.4003-15.136 154.1569 10.263 51.7566 35.594 99.2976 72.792 136.6126 37.197 37.314 84.58918 62.726 136.1833 73.021 51.5947 10.294 105.0727 5.011 153.6727-15.184 48.601-20.195 90.141-54.393 119.366-98.271 29.225-43.877 44.824-95.4624 44.823-148.2329-.08-70.7375-28.127-138.5541-77.989-188.5741-49.862-50.018-117.466-78.154-187.982-78.235z"/><path d="m108.743 197.4c-22.6915.012-45.1635-4.462-66.1305-13.167-20.9671-8.705-40.01798-21.471-56.0637-37.567-16.0456-16.096-28.771-35.207-37.4489-56.2402-8.6779-21.0331-13.1379-43.5759-13.125-66.3392.0102-34.2767 10.1499-67.781 29.1372-96.2783 18.9874-28.4983 45.9702-50.7083 77.5381-63.8263 31.5678-13.118 66.3038-16.553 99.8168-9.872 33.515 6.681 64.302 23.179 88.471 47.408 16.09 16.0633 28.845 35.1676 37.525 56.2084 8.681 21.0408 13.115 43.59973 13.046 66.3711.012 22.7624-4.448 45.3041-13.126 66.3361-8.678 21.0324-21.404 40.1414-37.449 56.2364-16.045 16.096-35.096 28.86-56.062 37.565-20.966 8.704-43.438 13.177-66.129 13.165zm0-345.963c-34.04-.001-67.3162 10.125-95.62 29.096s-50.364 45.9355-63.3909 77.4838c-13.027 31.5482-16.4356 66.2631-9.7948 99.7546 6.6409 33.4916 23.0328 64.2556 47.103 88.4016 24.0703 24.146 54.7376 40.59 88.124 47.252 33.3867 6.661 67.9917 3.242 99.4417-9.827 31.449-13.067 58.329-35.197 77.24-63.59 18.912-28.3928 29.006-61.7738 29.005-95.9214-.052-45.7736-18.201-89.6575-50.467-122.0243-32.265-32.3673-76.01-50.5733-121.641-50.6253z"/><path d="m108.74 295.318c-35.5256.106-70.7194-6.857-103.54412-20.488-32.82478-13.63-62.62868-33.656-87.68628-58.918-25.1836-25.137-45.1466-55.035-58.7336-87.964-13.588-32.9274-20.53-68.232-20.425-103.8696-.105-35.6376 6.837-70.9423 20.424-103.8704 13.588-32.928 33.551-62.826 58.7346-87.962 50.7385-50.838 119.5183-79.393 191.2304-79.393 71.712 0 140.492 28.555 191.231 79.393 25.183 25.136 45.146 55.034 58.733 87.962 13.588 32.9281 20.53 68.2328 20.425 103.8704.105 35.6376-6.837 70.9422-20.425 103.8696-13.587 32.929-33.55 62.827-58.733 87.964-25.058 25.262-54.862 45.288-87.687 58.918-32.825 13.631-68.018 20.594-103.544 20.488zm0-541.806c-53.3466 0-105.4956 15.868-149.8521 45.599-44.3561 29.731-78.9279 71.989-99.3429 121.4297-20.416 49.4413-25.757 103.8451-15.35 156.3317s36.096 100.6986 73.8178 138.5396c37.7221 37.84 85.78282 63.61 138.1046 74.05 52.3216 10.44 106.5546 5.082 155.8406-15.398 49.285-20.479 91.411-55.16 121.048-99.656 29.638-44.497 45.457-96.8094 45.456-150.3242-.081-71.735-28.525-140.5088-79.089-191.2328-50.566-50.725-119.123-79.257-190.633-79.339z"/><path d="m108.745 173.176c-19.5184.011-38.8479-3.837-56.8831-11.323-18.0352-7.487-34.4223-18.468-48.22452-32.312-13.80218-13.845-24.74878-30.2828-32.21378-48.3743-7.4649-18.0915-11.3019-37.4816-11.2915-57.0616 0-39.5359 15.6563-77.4525 43.52452-105.4082 27.86838-27.9569 65.66588-43.6619 105.07738-43.6619 39.412 0 77.209 15.705 105.078 43.6619 27.868 27.9557 43.525 65.8723 43.525 105.4082.01 19.5783-3.827 38.9666-11.29 57.0565s-18.408 34.5274-32.208 48.3714c-13.8 13.845-30.185 24.825-48.218 32.313-18.032 7.488-37.36 11.338-56.876 11.33zm0-297.478c-29.2607-.001-57.8644 8.703-82.1941 25.0103-24.32967 16.3078-43.2924 39.4858-54.4903 66.6043-11.1979 27.11845-14.1279 56.9589-8.4195 85.7479 5.7083 28.789 19.7986 55.2335 40.48919 75.9895 20.69051 20.755 47.05181 34.89 75.75041 40.616 28.6983 5.727 58.4453 2.787 85.4783-8.446 27.034-11.233 50.139-30.255 66.396-54.661 16.255-24.407 24.932-53.1009 24.932-82.4539-.045-39.3462-15.646-77.0682-43.381-104.8899-27.735-27.8222-65.338-43.4722-104.561-43.5172z"/><path d="m108.744 218.099c-25.4023.014-50.5586-4.994-74.0303-14.74-23.4716-9.744-44.7982-24.035-62.7606-42.054-17.9623-18.019-32.208-39.413-41.9225-62.9582-9.7146-23.5455-14.7076-48.7811-14.6933-74.2637.0093-38.3723 11.3585-75.8808 32.6125-107.7845 21.2544-31.9036 51.460264-56.7696 86.7996-71.4566 35.3393-14.686 74.2256-18.533 111.7446-11.055 37.518 7.479 71.984 25.948 99.041 53.071 18.013 17.9813 32.293 39.3678 42.011 62.9223 9.718 23.5542 14.682 48.80826 14.605 74.3001.014 25.4825-4.978 50.7181-14.693 74.2637-9.714 23.5449-23.96 44.9389-41.923 62.9579-17.962 18.019-39.289 32.31-62.76 42.055-23.472 9.746-48.628 14.756-74.031 14.742zm0-387.375c-38.1218 0-75.3877 11.341-107.08501 32.587-31.69729 21.247-56.40239 51.4446-70.99079 86.7755-14.5892 35.331-18.4061 74.2084-10.9688 111.7157 7.4374 37.5072 25.7948 71.9598 52.7511 99.0008 26.956366 27.042 61.3009 45.457 98.6904 52.918 37.3901 7.461 76.1451 3.631 111.3651-11.003 35.22-14.635 65.323-39.418 86.502-71.215 21.18-31.7971 32.485-69.1805 32.485-107.4226-.059-51.2631-20.384-100.4099-56.52-136.6584-36.134-36.249-85.127-56.639-136.229-56.698z"/><path d="m108.756 206.161c-23.8407.013-47.4501-4.687-69.4785-13.833s-42.04379-22.558-58.9016-39.468c-16.8579-16.911-30.2275-36.99-39.3447-59.0879-9.1171-22.0979-13.8027-45.7817-13.7892-69.6973.0084-36.0126 10.6597-71.2142 30.6072-101.1552 19.9475-29.9416 48.2959-53.2786 81.462-67.0616 33.1662-13.783 69.6618-17.393 104.8718-10.374 35.211 7.019 67.558 24.353 92.95 49.809 16.905 16.8754 30.306 36.9466 39.426 59.052s13.78 45.805887 13.708 69.7298c.014 23.9153-4.672 47.599-13.789 69.6966s-22.486 42.1756-39.344 59.0866c-16.857 16.911-36.873 30.323-58.9 39.469-22.028 9.146-45.638 13.847-69.478 13.834zm0-363.509c-35.7702 0-70.7371 10.639-100.4791 30.575-29.742 19.935-52.9232 48.2696-66.612 81.4207-13.6888 33.1512-17.2705 69.6301-10.2924 104.8234 6.9783 35.1934 24.2032 67.5209 49.4964 92.8939 25.29334 25.373 57.519 42.652 92.6018 49.652 35.0823 7 71.4473 3.407 104.4943-10.325s61.293-36.986 81.165-66.822c19.873-29.8354 30.48-64.9125 30.479-100.7952-.055-48.0995-19.126-94.2134-53.031-128.2248-33.905-34.011-79.873-53.143-127.822-53.198z"/><path d="m108.743 220.262c-25.6826.014-51.1167-5.049-74.8477-14.901s-45.2935-24.299-63.4546-42.517c-18.1611-18.217-32.5646-39.847-42.3874-63.6522-9.8221-23.8051-14.8714-49.3191-14.8571-75.0829.0042-38.7988 11.4769-76.7251 32.9655-108.9846 21.4891-32.2583 52.03024-57.4023 87.7624-72.2513 35.7322-14.85 75.0509-18.738 112.9859-11.174 37.935 7.565 72.782 26.241 100.137 53.671 18.212 18.1799 32.649 39.8032 42.474 63.6176 9.826 23.8145 14.845 49.3477 14.767 75.1213.014 25.7637-5.035 51.2773-14.857 75.0821-9.823 23.806-24.226 45.435-42.387 63.652s-39.723 32.665-63.453 42.517c-23.731 9.853-49.165 14.916-74.848 14.902zm0-391.664c-38.5453-.001-76.2256 11.465-108.275334 32.947-32.049766 21.481-57.029666 52.0152-71.781066 87.7387-14.7504 35.7236-18.6102 75.033-11.0905 112.9571 7.5197 37.9242 26.0811 72.7592 53.337 100.1012 27.25598 27.342 61.9821 45.962 99.7872 53.506 37.8057 7.543 76.9917 3.671 112.6027-11.126 35.611-14.798 66.049-39.856 87.463-72.007 21.415-32.151 32.845-69.9499 32.844-108.617-.062-51.8299-20.615-101.5187-57.15-138.167-36.535-36.648-86.069-57.275-137.737-57.333z"/><path d="m108.742 176.22c-19.9177.011-39.6426-3.916-58.0467-11.557-18.4041-7.64-35.1262-18.846-49.21038-32.975-14.08422-14.128-25.25412-30.903-32.87112-49.3649-7.617-18.462-11.5317-38.2491-11.5203-58.2299.0078-30.08692 8.9068-59.4963 25.5724-84.5109 16.665601-25.0148 40.3496-44.5113 68.0586-56.0263 27.7089-11.515 58.1995-14.532 87.6155-8.668 29.418 5.864 56.443 20.345 77.658 41.6123 14.123 14.0986 25.319 30.8672 32.939 49.3357 7.62 18.4684 11.512 38.2696 11.451 58.2572.012 19.9805-3.902 39.7674-11.52 58.2293-7.617 18.4625-18.786 35.2365-32.87 49.3645-14.084 14.129-30.806 25.334-49.209 32.975-18.404 7.642-38.129 11.569-58.047 11.558zm0-303.59c-29.863 0-59.0559 8.882-83.8865 25.526-24.8306636 16.6425-44.1839 40.2981-55.6124 67.975-11.4284 27.67703-14.4188 58.132-8.5929 87.5139 5.826 29.3817 20.2064 56.3701 41.32301 77.5531 21.11659 21.184 48.02079 35.61 77.31029 41.454s59.6495 2.845 87.2385-8.62c27.59-11.465 51.172-30.879 67.763-55.787 16.591-24.9096 25.445-54.1944 25.445-84.1518-.045-40.1566-15.967-78.6556-44.273-107.0502-28.306-28.395-66.684-44.368-106.715-44.413z"/><path d="m108.755 160.86c-17.9047.01-35.6359-3.52-52.1798-10.389-16.5438-6.868-31.5758-16.941-44.2364-29.642-12.660574-12.7-22.7014-27.7791-29.5485-44.3751-6.8471-16.5959-10.366-34.383-10.3557-52.3442 0-36.2684 14.3623-71.0512 39.9273-96.697 25.5651-25.6452 60.2387-40.0527 96.3931-40.0527 36.154 0 70.828 14.4075 96.393 40.0527 25.566 25.6458 39.928 60.4286 39.928 96.697.009 17.9609-3.51 35.7478-10.357 52.3434-6.848 16.5956-16.889 31.6749-29.549 44.3749-12.66 12.701-27.692 22.773-44.236 29.642-16.544 6.868-34.275 10.399-52.179 10.39zm0-272.837c-26.832-.003-53.0624 7.976-75.3738 22.9283-22.3114 14.9528-39.70167 36.2061-49.9716 61.0731-10.2699 24.86701-12.9583 52.2307-7.725 78.6305 5.2332 26.3996 18.15294 50.6501 37.1254 69.6831 18.9724 19.034 43.1453 31.996 69.4617 37.248 26.3173 5.252 53.5943 2.558 78.3843-7.743 24.79-10.3 45.978-27.743 60.885-50.1236 14.907-22.3807 22.863-48.693 22.863-75.6097-.041-36.0779-14.346-70.6666-39.776-96.1787-25.429-25.5116-59.909-39.864-95.873-39.908z"/><path d="m108.757 168.448c-18.8976.011-37.6113-3.714-55.0718-10.964s-33.3254-17.88-46.6875-31.284-23.9595-29.3192-31.186-46.8347c-7.2266-17.5155-10.9406-36.2882-10.93-55.2446-.0823-19.00596 3.5783-37.8411 10.7717-55.4243 7.1933-17.583 17.77791-33.5676 31.14592-47.036 13.36808-13.4686 29.25628-24.1554 46.75268-31.4484 17.4964-7.292 36.2564-11.046 55.203-11.046 18.946 0 37.707 3.754 55.203 11.046 17.496 7.293 33.384 17.9798 46.753 31.4484 13.368 13.4684 23.952 29.453 31.145 47.036 7.194 17.5832 10.855 36.41834 10.772 55.4243.011 18.9562-3.703 37.7286-10.93 55.244-7.226 17.5152-17.823 33.4303-31.185 46.8343s-29.227 24.035-46.687 31.284c-17.46 7.25-36.173 10.976-55.069 10.965zm0-287.992c-28.3265 0-56.0162 8.425-79.5684 24.2112-23.55226 15.7861-41.909 38.224-52.7491 64.4759-10.84 26.25192-13.6764 55.1388-8.1505 83.0078 5.526 27.869 19.166 53.4691 39.19538 73.5611 20.02932 20.092 45.54822 33.775 73.32972 39.318 27.7809 5.543 56.5769 2.698 82.7479-8.175 26.169-10.875 48.536-29.29 64.272-52.916 15.738-23.6264 24.136-51.4033 24.136-79.8183-.044-38.0889-15.146-74.6054-41.994-101.538-26.848-26.9327-63.251-42.0827-101.219-42.1267z"/><path d="m108.75 157.886c-17.5139.01-34.8576-3.443-51.0399-10.161-16.1823-6.719-30.8858-16.572-43.2697-28.995-12.38388-12.422-22.20541-27.1722-28.9029-43.4055-6.6975-16.2332-10.1397-33.6316-10.1296-51.2003-.0794-17.6165 3.311-35.0752 9.9765-51.3736 6.66545-16.2986 16.47464-31.1157 28.8643-43.6008 12.3897-12.4849 27.1158-22.3918 43.3328-29.1518s33.6054-10.24 51.1665-10.24c17.562 0 34.95 3.48 51.167 10.24s30.943 16.6669 43.333 29.1518c12.389 12.4851 22.199 27.3022 28.864 43.6008 6.666 16.2984 10.056 33.7571 9.977 51.3736.01 17.5684-3.432 34.9666-10.13 51.1997-6.697 16.2331-16.518 30.9831-28.902 43.4051-12.384 12.423-27.086 22.276-43.269 28.995-16.182 6.719-33.525 10.172-51.038 10.162zm0-266.874c-26.2429-.001-51.8962 7.805-73.7164 22.4307-21.8201 14.6244-38.82692 35.4124-48.8697 59.7336-10.0429 24.32123-12.6707 51.0837-7.5512 76.9031 5.1196 25.8194 17.75652 49.5358 36.3128 68.1506 18.5563 18.615 42.1985 31.292 67.9368 36.427 25.7377 5.136 52.4177 2.5 76.6617-7.574 24.245-10.075 44.967-27.136 59.546-49.0242 14.579-21.8889 22.361-47.623 22.36-73.9482-.043-35.2852-14.037-69.1124-38.91-94.062-24.873-24.9488-58.596-38.9966-93.77-39.0366z"/><path d="m108.754 146.428c-16.016.01-31.877-3.148-46.676-9.291-14.7989-6.144-28.2455-15.153-39.5708-26.514-11.3252-11.3615-20.30706-24.8499-26.43184-39.6954-6.12466-14.8454-9.27226-30.7563-9.26256-46.823.0061-20.11379 4.95639-39.9159 14.41243-57.6524 9.45607-17.7366 23.12617-32.8605 39.79957-44.0325 16.6735-11.1712 35.836-18.0466 55.7903-20.0156 19.9539-1.9698 40.0849 1.0274 58.6099 8.726 18.523 7.6977 34.87 19.8592 47.59 35.4073 12.72 15.548 21.422 34.0026 25.336 53.729686 3.913 19.727014 2.917 40.117814-2.901 59.366414-5.818 19.2487-16.276 36.7613-30.451 50.9875-11.302 11.392-24.743 20.423-39.548 26.569-14.803 6.146-30.676 9.286-46.697 9.238zm0-243.9861c-23.9867 0-47.4351 7.1358-67.3795 20.5044-19.9445 13.3681-35.48937 32.3692-44.6688 54.6001-9.1794 22.230966-11.5812 46.6932-6.9015 70.2934 4.67961 23.6002 16.23045 45.2784 33.1918 62.2932 16.9614 17.015 38.5715 28.602 62.0976 33.297 23.5264 4.693 47.9114 2.284 70.0724-6.924 22.162-9.209 41.103-24.802 54.429-44.8093 13.327-20.0073 20.44-43.5294 20.44-67.5921-.036-32.25574-12.826-63.1801-35.562-85.9884-22.737-22.808-53.565-35.6381-85.719-35.6743z"/><path d="m108.749 117.443c-18.4067 0-36.3996-5.475-51.7039-15.733-15.3042-10.2581-27.2324-24.8385-34.2762-41.8972s-8.8867-35.8297-5.2959-53.93919c3.5909-18.10951 12.4544-34.74411 25.4696-47.80031 13.0152-13.0561 29.5975-21.9475 47.6501-25.5497 18.0523-3.6022 36.7643-1.7534 53.7693 5.3125 17.006 7.066 31.541 19.0317 41.766 34.3843 10.226 15.3524 15.684 33.40196 15.684 51.8663-.027 24.7513-9.841 48.4811-27.288 65.983-17.447 17.5023-41.102 27.3463-65.775 27.3733zm0-186.0502c-18.277-.0016-36.1435 5.4336-51.3406 15.6185-15.1972 10.1847-27.0422 24.6615-34.0374 41.5996-6.9951 16.93813-8.826 35.5766-5.2613 53.5587 3.5648 17.9819 12.3652 34.4996 25.2883 47.4642 12.9231 12.9642 29.3884 21.7932 47.3137 25.3712 17.9253 3.577 36.5053 1.741 53.3913-5.275 16.885-7.016 31.317-18.898 41.471-34.1424 10.153-15.2444 15.572-33.1669 15.571-51.5009-.027-24.574413-9.77-48.1342-27.092-65.5114s-40.807-27.1528-65.304-27.1825z"/><path d="m108.754 119.586c-18.8213 0-37.2196-5.598-52.8688-16.088-15.6491-10.4894-27.8462-25.3983-35.0487-42.8415s-9.087-36.6372-5.4152-55.15471c3.6718-18.51759 12.7351-35.52709 26.0435-48.87749 13.3086-13.3504 30.2646-22.4421 48.724-26.1255 18.4592-3.6834 37.5932-1.7926 54.9812 5.4323 17.389 7.2251 32.251 19.4606 42.708 35.159 10.456 15.6984 16.037 34.15482 16.037 53.0352-.028 25.3091-10.063 49.5736-27.903 67.4699-17.84 17.8958-42.029 27.9628-67.258 27.9908zm0-190.2615c-18.6912 0-36.9626 5.5593-52.5038 15.9758-15.5413 10.4165-27.6543 25.222-34.8074 42.5445-7.1531 17.32251-9.025 36.3838-5.3789 54.7735 3.6461 18.3896 12.6464 35.2817 25.8628 48.5401 13.2163 13.2586 30.055 22.2876 48.3868 25.9456 18.3315 3.658 37.3335 1.781 54.6015-5.395 17.269-7.175 32.027-19.3252 42.412-34.9151 10.384-15.5899 15.927-33.9187 15.927-52.6686-.028-25.13351-9.994-49.2296-27.709-67.002-17.717-17.7723-41.737-27.7694-66.791-27.7988z"/></g><g fill="#19369e" opacity=".5"><path d="m236.261 60.0536c-19.559.0596-38.937-3.7735-57.01-11.2771-18.073-7.5038-34.483-18.5291-48.28-32.4379-13.865-13.84035-24.856-30.3022-32.3364-48.4324-7.4801-18.1302-11.3011-37.5686-11.2418-57.1902-.0592-19.622 3.762-39.059 11.2421-57.189s18.4711-34.591 32.3361-48.431c13.797-13.909 30.207-24.934 48.28-32.438s37.451-11.337 57.01-11.277c19.56-.059 38.937 3.774 57.01 11.278 18.073 7.503 34.482 18.528 48.279 32.437 13.864 13.84 24.855 30.301 32.335 48.431s11.302 37.567 11.243 57.189c.059 19.6216-3.762 39.06-11.242 57.1902s-18.471 34.59205-32.336 48.4324c-13.797 13.9085-30.206 24.9338-48.279 32.4375s-37.45 11.3368-57.01 11.2775zm0-298.0126c-39.293.045-76.965 15.723-104.75 43.595s-43.4146 65.662-43.4599 105.08c.0447 39.4178 15.6739 77.2085 43.4589 105.0812s65.457 43.5513 104.751 43.5961c39.296-.0426 76.97-15.7203 104.758-43.5932 27.786-27.8729 43.417-65.6648 43.461-105.0841-.044-39.42-15.675-77.211-43.462-105.083-27.787-27.873-65.461-43.55-104.757-43.592z"/><path d="m236.253 52.4425c-18.568.0563-36.963-3.5825-54.12-10.7059s-32.736-17.5897-45.833-30.7933c-13.163-13.13901-23.596-28.7664-30.697-45.9776-7.1012-17.2111-10.7285-35.6646-10.6724-54.2916-.056-18.6261 3.5716-37.0791 10.6724-54.2901 7.101-17.211 17.535-32.837 30.697-45.976 13.097-13.204 28.676-23.67 45.833-30.793s35.552-10.762 54.12-10.706c18.568-.056 36.963 3.583 54.12 10.706 17.157 7.124 32.734 17.59 45.832 30.793 13.162 13.139 23.595 28.765 30.696 45.976s10.728 35.664 10.673 54.2901c.056 18.627-3.572 37.0805-10.672 54.2916-7.102 17.2112-17.535 32.83859-30.697 45.9776-13.098 13.2034-28.675 23.6696-45.832 30.793-17.157 7.1233-35.552 10.7623-54.12 10.7062zm0-282.8735c-37.293.043-73.045 14.923-99.416 41.376-26.37 26.453-41.2029 62.319-41.2454 99.7291.0425 37.4106 14.8754 73.2764 41.2454 99.7295 26.371 26.4531 62.123 41.3332 99.416 41.3758 37.294-.0426 73.046-14.9227 99.417-41.3758 26.37-26.4531 41.203-62.3189 41.245-99.7295-.042-37.4101-14.875-73.2761-41.245-99.7291-26.371-26.453-62.123-41.333-99.417-41.376z"/><path d="m236.253 61.5325c-19.753.0604-39.322-3.8103-57.574-11.388-18.251-7.5777-34.823-18.712-48.757-32.7581-14.001-13.97731-25.1-30.6016-32.6536-48.9107-7.5539-18.309-11.4127-37.9391-11.3532-57.7547-.059-19.815 3.8-39.444 11.3539-57.752 7.5539-18.309 18.6519-34.933 32.6529-48.91 13.934-14.045 30.507-25.178 48.758-32.756 18.252-7.577 37.82-11.448 57.573-11.387 19.753-.061 39.32 3.81 57.571 11.388 18.252 7.577 34.823 18.71 48.756 32.755 14.001 13.976 25.1 30.601 32.654 48.91 7.555 18.308 11.413 37.937 11.354 57.752.059 19.8156-3.799 39.4457-11.354 57.7547-7.553 18.3091-18.652 34.93339-32.654 48.9107-13.932 14.0459-30.504 25.1801-48.755 32.7578-18.252 7.5777-37.819 11.4485-57.572 11.3883zm0-300.9595c-39.683.045-77.729 15.878-105.789 44.027-28.061 28.148-43.8451 66.313-43.8905 106.121.0447 39.809 15.8285 77.9745 43.8895 106.1235s66.106 43.9829 105.79 44.0276c39.683-.0454 77.728-15.8796 105.788-44.0285 28.06-28.149 43.844-66.314 43.888-106.1226-.045-39.808-15.829-77.972-43.889-106.121-28.06-28.148-66.105-43.981-105.787-44.027z"/><path d="m236.258 104.713c-25.413.078-50.588-4.9028-74.068-14.6512-23.481-9.7487-44.801-24.0725-62.7265-42.1423-18.0128-17.9817-32.2917-39.36881-42.0098-62.9235-9.718-23.5546-14.6824-48.8089-14.6057-74.3009-.0762-25.4921 4.8884-50.7461 14.6065-74.3001 9.718-23.554 23.9966-44.94 42.009-62.922 17.9255-18.07 39.2455-32.393 62.7265-42.142 23.48-9.749 48.655-14.729 74.068-14.652 25.411-.077 50.587 4.903 74.067 14.652 23.481 9.748 44.801 24.072 62.727 42.142 18.012 17.982 32.29 39.368 42.009 62.922 9.718 23.554 14.682 48.808 14.606 74.3001.077 25.492-4.887 50.7463-14.606 74.3009-9.718 23.55469-23.997 44.9418-42.009 62.9235-17.926 18.0699-39.246 32.3939-62.727 42.1426-23.48 9.7489-48.656 14.7289-74.067 14.6509zm0-387.373c-51.104.057-100.097 20.447-136.232 56.695-36.1349 36.249-56.4614 85.397-56.5197 136.6601.0576 51.2638 20.3837 100.4117 56.5187 136.6609 36.136 36.2492 85.129 56.639 136.233 56.697 51.102-.058 100.095-20.4488 136.23-56.6979 36.134-36.2491 56.46-85.3967 56.518-136.66-.058-51.2631-20.385-100.4101-56.519-136.6591-36.135-36.248-85.127-56.638-136.229-56.696z"/><path d="m236.264 86.3068c-22.998.0705-45.782-4.4361-67.033-13.2588-21.251-8.8228-40.546-21.7863-56.768-38.1403-16.3024-16.2736-29.2246-35.629154-38.0192-56.9463-8.7945-21.3172-13.2867-44.1726-13.2164-67.2429-.0701-23.0705 4.4222-45.9255 13.2167-67.2415 8.7945-21.317 21.7167-40.672 38.0189-56.945 16.222-16.354 35.517-29.318 56.767-38.14 21.25-8.823 44.033-13.329 67.032-13.259 22.997-.07 45.781 4.436 67.031 13.259 21.249 8.823 40.543 21.786 56.766 38.14 16.301 16.273 29.224 35.628 38.02 56.945 8.794 21.316 13.287 44.171 13.217 67.2415.071 23.0705-4.423 45.926-13.217 67.2432-8.795 21.317179-21.719 40.6727-38.02 56.946-16.222 16.3531-35.516 29.3162-56.765 38.139-21.25 8.8227-44.032 13.3297-67.03 13.2601zm0-350.5138c-46.227.055-90.545 18.502-123.233 51.293-32.6879 32.791-51.0764 77.249-51.1317 123.6216.0489 46.3772 18.4345 90.84139 51.1227 123.6375 32.689 32.796 77.01 51.2457 123.242 51.3014 46.228-.0556 90.546-18.5019 123.234-51.2928 32.688-32.7907 51.076-77.2486 51.132-123.6217-.049-46.377-18.435-90.842-51.123-123.638-32.689-32.796-77.011-51.246-123.243-51.301z"/><path d="m236.255 24.5156c-30.082-.0311-58.924-12.032-80.195-33.3694-21.272-21.3373-33.237-50.2684-33.271-80.4452.035-30.174 11.999-59.104 33.268-80.441 21.271-21.336 50.11-33.338 80.189-33.371 30.08.034 58.918 12.036 80.187 33.373 21.27 21.336 33.234 50.265 33.268 80.439-.033 30.1734-11.996 59.1016-33.263 80.43849-21.268 21.33681-50.105 33.33991-80.183 33.37611zm0-226.9656c-29.906.033-58.576 11.965-79.723 33.178-21.146 21.212-33.042 49.973-33.076 79.973.034 29.9999 11.929 58.7615 33.075 79.97456 21.147 21.21324 49.818 33.14564 79.724 33.17954 29.904-.0346 58.575-11.9674 79.721-33.18046 21.147-21.21314 33.041-49.97424 33.075-79.97364-.036-29.998-11.931-58.758-33.077-79.97-21.145-21.212-49.815-33.147-79.719-33.181z"/><path d="m236.25 88.7758c-23.322.0708-46.426-4.4992-67.975-13.4455-21.549-8.9464-41.115-22.0914-57.566-38.6742-16.5305-16.5026-29.6342-36.130455-38.5525-57.7473-8.9182-21.6169-13.4739-44.7935-13.4032-68.1885-.0704-23.3943 4.4853-46.5703 13.4036-68.1873 8.9182-21.616 22.0218-41.244 38.5521-57.745 16.451-16.583 36.016-29.728 57.565-38.674 21.548-8.947 44.652-13.517 67.972-13.446 23.322-.071 46.426 4.499 67.974 13.446 21.549 8.946 41.114 22.091 57.564 38.674 16.531 16.501 29.635 36.129 38.553 57.745 8.918 21.617 13.474 44.793 13.403 68.1873.071 23.395-4.485 46.5716-13.403 68.1885-8.918 21.616845-22.022 41.2447-38.553 57.7473-16.45 16.5823-36.015 29.727-57.563 38.6733-21.548 8.9464-44.651 13.5166-67.971 13.4464zm0-355.4538c-46.886.052-91.837 18.757-124.991 52.014-33.154 33.256-51.8031 78.349-51.8557 125.3818.0526 47.0318 18.7006 92.1222 51.8527 125.3788 33.152 33.2566 78.101 51.9634 124.985 52.0161 46.884-.0534 91.833-18.7604 124.985-52.0168 33.152-33.25647 51.8-78.3466 51.853-125.3781-.053-47.0308-18.7-92.1198-51.851-125.3748-33.149-33.257-78.096-51.964-124.978-52.021z"/><path d="m236.257 38.093c-16.686.051-33.218-3.2188-48.636-9.62-15.418-6.401-29.417-15.8063-41.188-27.671336-11.828-11.807564-21.204-25.851264-27.584-41.318064-6.382-15.4669-9.641-32.0498-9.591-48.7885-.05-16.7391 3.21-33.3211 9.591-48.7881 6.381-15.466 15.756-29.509 27.584-41.316 11.771-11.865 25.77-21.271 41.188-27.672s31.95-9.67 48.636-9.62c16.686-.05 33.216 3.22 48.634 9.621 15.418 6.4 29.417 15.806 41.187 27.671 11.828 11.807 21.204 25.85 27.584 41.316 6.382 15.467 9.641 32.049 9.591 48.7881.05 16.7387-3.209 33.3216-9.59 48.7885-6.381 15.4668-15.757 29.5105-27.585 41.318064-11.77 11.864836-25.769 21.270036-41.187 27.671136-15.418 6.401-31.948 9.6709-48.634 9.6202zm0-254.134c-33.495.04-65.606 13.405-89.291 37.164s-37.009 55.971-37.049 89.5721c.039 33.6004 13.363 65.8137 37.048 89.573079 23.685 23.759321 55.796 37.124821 89.292 37.164521 33.495-.0404 65.606-13.4062 89.29-37.165521 23.684-23.759279 37.008-55.972179 37.047-89.572079-.04-33.6001-13.364-65.8121-37.047-89.5711-23.685-23.758-55.796-37.124-89.29-37.165z"/><path d="m236.256 30.2992c-15.661.0472-31.176-3.0221-45.647-9.0302s-27.611-14.83567-38.658-25.97172c-11.1-11.08218-19.9-24.26298-25.888-38.77948-5.99-14.5165-9.049-30.0803-9.001-45.7908-.047-15.71 3.012-31.273 9.001-45.789s14.788-27.697 25.888-38.779c11.048-11.135 24.187-19.962 38.658-25.97s29.986-9.076 45.647-9.028c15.66-.047 31.172 3.023 45.641 9.03s27.607 14.834 38.653 25.968c11.101 11.082 19.901 24.263 25.89 38.779s9.049 30.078 9.002 45.789c.047 15.7105-3.013 31.2746-9.002 45.791-5.989 14.5165-14.789 27.6972-25.89 38.77928-11.046 11.13487-24.183 19.96172-38.652 25.96982s-29.982 9.078-45.642 9.0321zm0-238.4782c-31.427.035-61.556 12.574-83.778 34.866-22.221 22.291-34.722 52.515-34.757 84.04.035 31.5259 12.534 61.7503 34.756 84.04242 22.223 22.29208 52.352 34.83138 83.779 34.86678 31.426-.0361 61.556-12.5757 83.777-34.86778 22.221-22.29202 34.721-52.51602 34.756-84.04142-.036-31.525-12.536-61.748-34.757-84.039-22.221-22.292-52.35-34.831-83.776-34.867z"/><path d="m236.25 39.5101c-16.872.0514-33.585-3.2545-49.174-9.7263-15.588-6.4718-29.742-15.981-41.644-27.97722-11.958-11.93808-21.437-26.13698-27.888-41.77478-6.452-15.6379-9.748-32.404-9.696-49.3283-.051-16.9235 3.244-33.6895 9.696-49.3265s15.931-29.836 27.888-41.773c11.902-11.996 26.056-21.506 41.644-27.977 15.589-6.472 32.302-9.779 49.174-9.727 16.871-.052 33.586 3.254 49.176 9.725 15.59 6.472 29.744 15.982 41.646 27.979 11.958 11.937 21.437 26.136 27.888 41.773 6.452 15.637 9.748 32.403 9.697 49.3265.052 16.9243-3.245 33.6904-9.696 49.3283-6.451 15.6378-15.93 29.8367-27.889 41.77478-11.902 11.99682-26.056 21.50642-41.646 27.97822-15.59 6.4719-32.305 9.7774-49.176 9.7253zm0-256.9491c-33.868.037-66.338 13.55-90.287 37.573-23.948 24.023-37.419 56.596-37.457 90.5695.037 33.9751 13.508 66.5478 37.457 90.57162 23.948 24.02388 56.418 37.53708 90.287 37.57458 33.867-.0383 66.337-13.5517 90.285-37.5755s37.418-56.5961 37.455-90.5707c-.037-33.9735-13.508-66.5455-37.456-90.5685s-56.417-37.537-90.284-37.574z"/></g><g fill="#02135b" opacity=".5"><path d="m-37.2391 157.584c-19.56.058-38.9372-3.774-57.0106-11.278-18.0733-7.504-34.4833-18.529-48.2803-32.438-13.865-13.84-24.854-30.3024-32.334-48.4325-7.48-18.1302-11.3-37.5684-11.241-57.18977-.059-19.62043 3.762-39.05773 11.242-57.18693 7.48-18.1291 18.469-34.5904 32.333-48.4303 13.797-13.9085 30.207-24.9335 48.2803-32.4375 18.0734-7.504 37.4506-11.337 57.0106-11.278 19.5599-.059 38.93736 3.774 57.0106 11.278 18.0733 7.504 34.4834 18.529 48.2805 32.4375 13.8648 13.8399 24.8554 30.3013 32.336 48.431 7.48 18.1298 11.301 37.5678 11.242 57.18897.059 19.62153-3.762 39.06003-11.242 57.19033-7.4803 18.1302-18.471 34.5922-32.336 48.4322-13.7974 13.909-30.2075 24.933-48.2808 32.436-18.07328 7.503-37.4506 11.336-57.0103 11.277zm0-298.013c-29.3134 0-57.9682 8.72-82.3419 25.057-24.373 16.3373-43.37 39.5575-54.587 66.7247-11.218 27.1674-14.152 57.06163-8.434 85.9023 5.719 28.8406 19.835 55.3324 40.563 76.125 20.728 20.793 47.1366 34.953 75.8871 40.689 28.7502 5.736 58.55052 2.792 85.6324-8.461 27.0818-11.254 50.2289-30.311 66.5142-54.7608 16.2853-24.4503 24.9763-53.1957 24.9763-82.60147-.044-39.41773-15.6736-77.20843-43.4589-105.08043-27.7853-27.8723-65.45735-43.5503-104.7512-43.5943z"/><path d="m-37.2473 149.975c-18.5681.056-36.9625-3.583-54.1195-10.706-17.1572-7.124-32.7352-17.59-45.8322-30.793-13.162-13.1393-23.596-28.7667-30.696-45.9779-7.101-17.2111-10.729-35.6643-10.672-54.29131-.057-18.62649 3.571-37.07919 10.672-54.28999 7.101-17.2107 17.534-32.8377 30.696-45.9761 13.097-13.2027 28.675-23.6697 45.8322-30.7927 17.157-7.124 35.5514-10.763 54.1195-10.707 18.5685-.056 36.96354 3.584 54.1207 10.707 17.1571 7.123 32.7354 17.59 45.8333 30.7927 13.1609 13.1393 23.5936 28.7662 30.6941 45.9768 7.1002 17.2107 10.7282 35.663 10.6722 54.28929.056 18.62671-3.571 37.07961-10.6717 54.29081-7.1006 17.2111-17.5334 32.8386-30.6946 45.9784-13.0979 13.203-28.6762 23.669-45.8333 30.792-17.15716 7.124-35.5522 10.763-54.1207 10.707zm0-282.873c-27.8203 0-55.0158 8.275-78.1477 23.78-23.132 15.5047-41.161 37.5429-51.807 63.3262-10.646 25.7836-13.432 54.15512-8.004 81.5268 5.427 27.3717 18.824 52.5142 38.496 72.248 19.672 19.734 44.735 33.173 72.0209 38.618 27.2857 5.444 55.5682 2.65 81.2708-8.03 25.7025-10.68 47.671-28.766 63.1271-51.9705 15.4561-23.2046 23.7062-50.4857 23.7062-78.39371-.046-37.40789-14.8814-73.27029-41.2511-99.72009-26.3696-26.4507-62.120743-41.3427-99.4112-41.3847z"/><path d="m-37.2478 159.067c-19.7525.06-39.3206-3.811-57.5713-11.389-18.2519-7.577-34.8229-18.711-48.7559-32.757-14.002-13.977-25.101-30.6009-32.655-48.91-7.554-18.3093-11.413-37.9396-11.353-57.7549-.059-19.8148 3.799-39.4447 11.353-57.7534 7.554-18.3088 18.653-34.9323 32.655-48.909 13.933-14.0457 30.504-25.1787 48.7559-32.7567 18.2507-7.578 37.8188-11.449 57.5713-11.39 19.7529-.058 39.32137 3.812 57.5729 11.39 18.2516 7.578 34.8237 18.711 48.7574 32.7567 14.001 13.9767 25.0997 30.6009 32.6535 48.9095 7.554 18.3085 11.413 37.9382 11.354 57.7529.059 19.8151-3.8 39.4452-11.353 57.7543-7.5545 18.309-18.6533 34.9336-32.6545 48.9106-13.9337 14.046-30.5058 25.179-48.7574 32.757-18.25153 7.577-37.82 11.449-57.5729 11.389zm0-300.959c-29.6031 0-58.5415 8.806-83.1562 25.305-24.613 16.498-43.798 39.9476-55.127 67.3839-11.329 27.436-14.293 57.62575-8.517 86.7517 5.775 29.1258 20.031 55.8797 40.963 76.8784 20.932 20.998 47.6023 35.298 76.6368 41.092 29.0345 5.793 59.1294 2.821 86.4792-8.544 27.3499-11.364 50.7262-30.609 67.1729-55.301 16.4461-24.6918 25.2251-53.7214 25.2251-83.4179-.045-39.8078-15.8295-77.9722-43.8894-106.1206-28.0601-28.1485-66.10458-43.9825-105.7874-44.0275z"/><path d="m-37.2435 202.246c-25.4118.077-50.586-4.903-74.0665-14.652-23.481-9.749-44.8-24.072-62.724-42.142-18.014-17.982-32.293-39.369-42.011-62.9234-9.718-23.5547-14.683-48.8091-14.605-74.30145-.078-25.49185 4.887-50.74585 14.605-74.30015 9.718-23.5545 23.997-44.941 42.011-62.922 17.924-18.07 39.243-32.394 62.724-42.143 23.4797-9.748 48.6547-14.728 74.0665-14.651 25.4122-.077 50.5872 4.903 74.0679 14.652 23.4807 9.748 44.8007 24.072 62.7258 42.142 18.0128 17.981 32.2908 39.3683 42.0098 62.9224 9.718 23.5542 14.683 48.808 14.606 74.29975.077 25.49215-4.888 50.74645-14.607 74.30105-9.718 23.5538-23.996 44.9418-42.0088 62.9238-17.9255 18.07-39.2455 32.392-62.7261 42.142-23.4807 9.749-48.6556 14.728-74.0676 14.652zm0-387.375c-38.1229 0-75.3895 11.34-107.0875 32.586s-56.405 51.444-70.994 86.7766c-14.589 35.3317-18.406 74.20986-10.969 111.7179 7.437 37.5081 25.795 71.9615 52.752 99.0035 26.957 27.041 61.302 45.458 98.6922 52.918 37.3907 7.46 76.14668 3.632 111.3675-11.004 35.2207-14.635 65.3243-39.418 86.5033-71.216 21.18-31.7987 32.484-69.1829 32.484-107.42585-.059-51.26315-20.384-100.40995-56.5192-136.65815-36.1347-36.249-85.1272-56.639-136.2293-56.698z"/><path d="m-37.2365 183.84c-22.9982.069-45.7822-4.438-67.0315-13.261-21.25-8.822-40.545-21.786-56.768-38.139-16.301-16.273-29.223-35.6293-38.018-56.9464s-13.287-44.1724-13.217-67.24281c-.067-23.06769 4.426-45.91989 13.221-67.23399 8.794-21.3144 21.714-40.6672 38.014-56.9388 16.222-16.356 35.516-29.322 56.766-38.147 21.2505-8.825 44.0344-13.334 67.0335-13.266 22.9992-.068 45.78339 4.441 67.0337 13.266 21.2502 8.825 40.5444 21.79 56.7657 38.147 16.3011 16.2733 29.2241 35.6286 38.0181 56.9448 8.795 21.3166 13.288 44.1714 13.22 67.24164.068 23.06826-4.426 45.92106-13.221 67.23566-8.795 21.3147-21.717 40.6679-38.0171 56.9399-16.2224 16.354-35.5171 29.317-56.7673 38.139-21.25022 8.824-44.0338 13.33-67.0321 13.261zm0-350.515c-34.4859.003-68.1955 10.264-96.8685 29.485-28.673 19.222-51.019 46.5411-64.215 78.5025-13.194 31.9616-16.646 67.13069-9.916 101.0599 6.729 33.9292 23.337 65.0946 47.723 89.5556s55.455 41.118 89.2778 47.866c33.8236 6.749 68.88188 3.284 100.7422-9.956 31.8602-13.239 59.0916-35.658 78.25-64.423 19.16-28.7635 29.386-62.5809 29.386-97.17512-.056-46.37598-18.445-90.83658-51.1361-123.62888-32.6908-32.792-77.01302-51.234-123.2434-51.286z"/><path d="m-37.2515 122.05c-22.4396 0-44.3755-6.675-63.0335-19.181-18.658-12.5059-33.2-30.2813-41.788-51.0782-8.586-20.7969-10.833-43.68124-6.456-65.7591 4.378-22.0779 15.184-42.3577 31.052-58.2746 15.866-15.9171 36.0827-26.7573 58.0912-31.1491 22.0085-4.391 44.821-2.138 65.5525 6.4767 20.7316 8.6142 38.4512 23.2024 50.918 41.9191 12.4668 18.7168 19.1209 40.7216 19.1209 63.23201-.0338 30.17509-11.9981 59.10459-33.2681 80.44159-21.27 21.3366-50.10865 33.3386-80.189 33.3726zm0-226.966c-22.3095 0-44.1184 6.6365-62.6682 19.0702-18.5493 12.4337-33.0073 30.1064-41.5443 50.7828-8.537 20.6763-10.771 43.428-6.419 65.3778 4.353 21.9498 15.097 42.112 30.872 57.9368 15.775 15.8244 35.8746 26.6014 57.7553 30.9674 21.881 4.366 44.5612 2.125 65.17241-6.44 20.61129-8.566 38.22779-23.069 50.62189-41.6774 12.3942-18.6084 19.0093-40.4859 19.0087-62.86579-.0345-29.99951-11.9298-58.76021-33.0763-79.97301-21.1464-21.2125-49.8172-33.1448-79.7225-33.1788z"/><path d="m-37.2513 186.308c-23.321.071-46.4245-4.5-67.9727-13.446-21.549-8.946-41.114-22.091-57.565-38.674-16.531-16.502-29.635-36.1296-38.553-57.7465-8.918-21.617-13.474-44.7939-13.403-68.18882-.071-23.39458 4.485-46.57098 13.403-68.18738 8.918-21.6162 22.022-41.2433 38.553-57.7453 16.451-16.583 36.016-29.728 57.565-38.674 21.5482-8.947 44.6517-13.517 67.9727-13.446 23.3213-.071 46.42516 4.499 67.9741 13.445 21.549 8.947 41.1152 22.092 57.5661 38.675 16.5301 16.502 29.6341 36.1291 38.5531 57.7455 8.918 21.6165 13.473 44.7927 13.403 68.18718.07 23.39492-4.485 46.57152-13.403 68.18852-8.919 21.6169-22.023 41.2448-38.5531 57.7468-16.4509 16.583-36.0171 29.728-57.5661 38.674-21.54894 8.946-44.6528 13.517-67.9741 13.446zm0-355.453c-34.9753 0-69.1647 10.404-98.2457 29.896s-51.747 47.1981-65.131 79.6128c-13.385 32.4147-16.887 68.08293-10.063 102.4942 6.823 34.4113 23.665 66.02 48.396 90.829 24.732 24.809 56.241 41.705 90.5439 48.549 34.3035 6.845 69.85982 3.332 102.1727-10.094 32.3129-13.427 59.9312-36.164 79.3624-65.336 19.431-29.1731 29.803-63.4706 29.803-98.55605-.056-47.02975-18.706-92.11665-51.8578-125.37195-33.1517-33.253-78.09847-51.969-124.9805-52.023z"/><path d="m-37.2491 106.166c-19.3041 0-38.1744-5.742-54.226-16.5008-16.0509-10.7587-28.5609-26.0504-35.9479-43.9413-7.388-17.8909-9.321-37.57759-5.554-56.5705 3.766-18.9929 13.061-36.439 26.712-50.1322 13.65-13.6934 31.0414-23.0182 49.9744-26.7966 18.9333-3.7774 38.5582-1.8387 56.392908 5.5718 17.834792 7.4113 33.078392 19.9606 43.803192 36.062 10.7249 16.1014 16.4492 35.0315 16.4492 54.39653-.0288 25.95877-10.3212 50.84607-28.6193 69.20177-18.298 18.3557-43.1072 28.6803-68.9845 28.7093zm0-195.1594c-19.174 0-37.9174 5.7036-53.8606 16.3901-15.9423 10.6862-28.3673 25.8749-35.7063 43.6453-7.337 17.7704-9.256 37.32447-5.516 56.1894 3.742 18.8649 12.975 36.1933 26.533 49.7939 13.5587 13.6007 30.8324 22.8629 49.6385 26.6147 18.8058 3.752 38.2984 1.826 56.012818-5.535 17.714382-7.3612 32.854982-19.8265 43.507182-35.8196 10.6521-15.9932 16.3374-34.796 16.3369-54.03047-.0288-25.78343-10.252-50.50243-28.4266-68.73393-18.1746-18.2311-42.8164-28.4858-68.5189-28.5144z"/><path d="m-37.2415 135.624c-16.6803.01-33.1991-3.278-48.6115-9.677-15.412-6.399-29.417-15.783-41.211-27.6147-11.795-11.832-21.15-25.8801-27.529-41.3412-6.378-15.461-9.656-32.0317-9.647-48.76467-.009-16.73265 3.269-33.30303 9.648-48.76383 6.379-15.4607 15.734-29.5088 27.529-41.3402 11.794-11.8314 25.799-21.2154 41.2109-27.6144 15.4123-6.398 31.9305-9.687 48.6106-9.677 16.6803-.01 33.1989 3.278 48.6114 9.676 15.4125 6.4 29.4165 15.7831 41.2114 27.6145s21.1491 25.8798 27.528 41.3407c6.3788 15.4608 9.6572 32.03141 9.6475 48.76423.01 16.73307-3.268 33.30387-9.6467 48.76507-6.3788 15.4613-15.733 29.5095-27.5279 41.3415-11.7948 11.832-25.799 21.216-41.2117 27.615-15.41268 6.399-31.9315 9.686-48.612 9.676zm0-254.133c-24.9878 0-49.4145 7.433-70.1915 21.3594-20.776 13.9263-36.97 33.7203-46.531 56.8789-9.563 23.1584-12.064 48.64138-7.19 73.2262 4.875 24.5849 16.908 47.1674 34.578 64.8919 17.669 17.7246 40.1804 29.7956 64.6885 34.6846 24.5077 4.89 49.9106 2.38 72.9962-7.213 23.0855-9.593 42.8169-25.8373 56.699-46.68 13.8821-20.8423 21.2914-45.3461 21.2908-70.41257-.0403-33.60033-13.3641-65.81283-37.0487-89.57153-23.6848-23.7589-55.79647-37.1239-89.2913-37.1639z"/><path d="m-37.2424 127.767c-15.6555.008-31.1591-3.079-45.6244-9.085-14.4656-6.006-27.6092-14.813-38.6782-25.9178-11.071-11.105-19.85-24.29-25.836-38.801-5.988-14.5111-9.065-30.0636-9.056-45.7683-.008-15.70448 3.069-31.2567 9.057-45.7675 5.986-14.5107 14.766-27.6954 25.835-38.8005 11.071-11.104 24.2134-19.9114 38.6791-25.9169 14.4649-6.006 29.9683-9.093 45.6235-9.084 15.6554-.01 31.15909 3.077 45.62455 9.082 14.46545 6.0058 27.60905 14.8124 38.67905 25.918 11.07 11.1046 19.8495 24.2896 25.8362 38.8006 5.9868 14.5111 9.0635 30.06357 9.0542 45.7683.0097 15.705-3.0668 31.2577-9.0534 45.7692-5.9866 14.5113-14.766 27.6966-25.8361 38.8017-11.07 11.1052-24.2137 19.9122-38.67933 25.9182-14.46566 6.006-29.96957 9.092-45.62517 9.083zm0-238.481c-23.4442 0-46.3619 6.974-65.8546 20.0399-19.493 13.0653-34.686 31.6366-43.659 53.3644-8.971 21.7278-11.319 45.6365-6.745 68.7026 4.574 23.0662 15.864 44.2537 32.441 60.8835 16.577 16.6306 37.6985 27.9546 60.6924 32.5426 22.9937 4.589 46.8273 2.233 68.48682-6.767 21.65958-8.999 40.17238-24.2402 53.19718-43.7947 13.0249-19.5545 19.9769-42.5444 19.9769-66.0624-.0353-31.5258-12.5351-61.7503-34.7573-84.0422-22.2221-22.2919-52.35161-34.8317-83.7784-34.8667z"/><path d="m-37.2407 137.028c-16.8633.009-33.5629-3.316-49.144-9.786-15.5823-6.47-29.7393-15.957-41.6633-27.9183-11.924-11.9621-21.381-26.164-27.831-41.7945-6.449-15.6304-9.764-32.3827-9.756-49.2991-.009-16.91666 3.306-33.6692 9.755-49.3 6.449-15.6307 15.906-29.8332 27.83-41.7948 11.925-11.9616 26.082-21.4483 41.6645-27.9183 15.5811-6.47 32.2813-9.794 49.1448-9.785 16.8634-.008 33.56305 3.317 49.1444 9.787 15.5813 6.469 29.7387 15.9564 41.6629 27.918 11.9241 11.9616 21.3813 26.1635 27.8306 41.7939 6.4494 15.6305 9.7645 32.38279 9.7559 49.2992.0079 16.9163-3.3077 33.6682-9.7573 49.2983s-15.9068 29.8318-27.8308 41.7937c-11.9241 11.9619-26.0812 21.4489-41.6622 27.9179-15.58094 6.47-32.2803 9.796-49.1435 9.788zm0-256.949c-25.2654 0-49.963 7.515-70.9703 21.5961-21.008 14.0809-37.381 34.095-47.05 57.5108-9.668 23.4158-12.198 49.18183-7.269 74.0398 4.93 24.858 17.097 47.6915 34.962 65.6129 17.866 17.9214 40.6272 30.1264 65.4075 35.0704 24.78 4.944 50.4651 2.406 73.8071-7.294 23.3421-9.699 43.2927-26.124 57.329-47.1982 14.0364-21.0739 21.528-45.8498 21.5274-71.19487-.0381-33.97443-13.5091-66.54633-37.4575-90.57003-23.9484-24.0229-56.41838-37.5359-90.2862-37.5729z"/><path d="m-37.242 108.112c-19.6996 0-38.9569-5.86-55.3369-16.8389-16.3791-10.979-29.1451-26.5839-36.6841-44.8413s-9.512-38.34735-5.669-57.7293c3.844-19.382 13.33-37.1855 27.26-51.1591 13.9297-13.9737 31.6772-23.49 50.9983-27.3448 19.3212-3.8556 39.3481-1.8765 57.548102 5.6851 18.200098 7.5626 33.755998 20.3695 44.700498 36.8008 10.9445 16.4312 16.7862 35.7491 16.7862 55.51079-.0295 26.49051-10.5329 51.88751-29.2057 70.61921-18.6728 18.7316-43.9901 29.2675-70.3974 29.2975zm0-199.1709c-19.5697 0-38.6998 5.8204-54.9715 16.727-16.2725 10.9063-28.9545 26.408-36.4445 44.5448-7.488 18.1369-9.448 38.09431-5.63 57.3484 3.818 19.2542 13.241 36.9402 27.079 50.8216 13.8372 13.8815 31.4679 23.3351 50.6617 27.1641 19.1937 3.83 39.0884 1.864 57.168354-5.6487 18.079946-7.5126 33.532946-20.235 44.404946-36.558 10.872-16.3231 16.6747-35.5137 16.6741-55.14501-.0295-26.31469-10.4633-51.54299-29.0121-70.15029-18.5489-18.6072-43.698-29.0736-69.93-29.1039z"/><path d="m-37.2374 98.0618c-17.7107 0-35.0237-5.2684-49.7497-15.1389-14.7249-9.8704-26.2029-23.8997-32.9799-40.3138-6.778-16.414-8.551-34.47551-5.096-51.90053 3.454-17.42507 11.983-33.43097 24.507-45.99367 12.5231-12.5628 28.4789-21.1184 45.8489-24.5842 17.3704-3.4659 35.3752-1.6867 51.73764 5.1114 16.36246 6.7993 30.34776 18.3128 40.18716 33.0851 9.8395 14.7722 15.0914 32.13961 15.0914 49.90603-.0266 23.81587-9.4696 46.64857-26.257 63.48887-16.78745 16.8403-39.5484 26.313-63.2895 26.3397zm0-178.9937c-17.5806 0-34.7666 5.229-49.3843 15.0274-14.6173 9.798-26.0103 23.7244-32.7383 40.0179-6.727 16.29352-8.487 34.22241-5.057 51.5194 3.429 17.2971 11.896 33.1853 24.327 45.6555 12.4317 12.4703 28.2699 20.9626 45.513 24.4029 17.2428 3.4402 35.1154 1.674 51.35755-5.0753 16.24215-6.7494 30.12435-18.1787 39.89115-32.8427 9.7669-14.664 14.9796-31.9041 14.9791-49.53997-.0266-23.64043-9.4003-46.30493-26.0644-63.02093-16.66402-16.7161-39.2576-26.1182-62.8238-26.1442z"/><path d="m-37.2454 103.009c-18.6909 0-36.9619-5.5599-52.5027-15.9767-15.5409-10.4168-27.6539-25.2226-34.8059-42.5451-7.153-17.3225-9.024-36.38368-5.378-54.7731 3.646-18.3895 12.647-35.2814 25.863-48.5394 13.2163-13.2579 30.0549-22.2871 48.387-25.9444 18.3317-3.6582 37.3331-1.7808 54.60119 5.3944 17.26811 7.1753 32.02741 19.3258 42.41151 34.9157 10.3841 15.5898 15.9266 33.9186 15.9266 52.66829-.0281 25.13401-9.9936 49.23041-27.7103 67.00291-17.7166 17.7724-41.7374 27.7694-66.7924 27.7974zm0-188.9379c-18.5612 0-36.7057 5.5213-52.139 15.8659-15.4326 10.3448-27.4616 25.0479-34.5646 42.2503-7.103 17.2023-8.962 36.13128-5.34 54.3932 3.621 18.2619 12.559 35.0365 25.683 48.2026 13.1254 13.1661 29.8473 22.1323 48.0519 25.7649 18.2045 3.633 37.0741 1.768 54.22237-5.3573 17.14833-7.1254 31.80523-19.1919 42.11733-34.6736 10.312-15.4817 15.8161-33.6833 15.8161-52.30295-.0267-24.96005-9.9226-48.89015-27.5166-66.53945-17.594-17.6496-41.4489-27.5768-66.3305-27.6036z"/><path d="m-37.2507 96.0698c-17.3238 0-34.2585-5.1532-48.6628-14.8082-14.4045-9.6548-25.6305-23.3777-32.2605-39.4333-6.63-16.0555-8.364-33.7225-4.984-50.76695 3.379-17.04445 11.722-32.70075 23.9716-44.98915 12.2497-12.2884 27.8569-20.6571 44.8476-24.0473 16.9909-3.3903 34.6025-1.6498 50.60758 5.0005 16.00512 6.6502 29.68492 17.9122 39.30952 32.3618s14.7617 31.43768 14.7617 48.81607c-.0266 23.29553-9.2635 45.62923-25.6842 62.10163-16.42062 16.4723-38.6842 25.7382-61.9065 25.7649zm0-175.0756c-17.1936 0-34.0015 5.1147-48.2975 14.697-14.2959 9.5823-25.4378 23.2021-32.0178 39.137-6.579 15.93486-8.301 33.46908-4.946 50.3854 3.354 16.9164 11.633 32.455 23.791 44.6511 12.1573 12.1959 27.6477 20.5015 44.5106 23.8664 16.8633 3.3649 34.3424 1.6379 50.22725-4.9625s29.46185-17.7779 39.01405-32.1189c9.5523-14.341 14.6508-31.2014 14.6508-48.44916-.0303-23.11924-9.1989-45.28284-25.4953-61.63064-16.29645-16.3475-38.3905-25.5455-61.4371-25.5757z"/><path d="m-37.2407 88.5952c-15.8449 0-31.3338-4.7134-44.5081-13.544-13.1746-8.8307-23.4432-21.3819-29.5062-36.0668-6.064-14.6848-7.65-30.84356-4.559-46.43287 3.091-15.58933 10.721-29.90903 21.9247-41.14833 11.2039-11.2393 25.4789-18.8933 41.0193-21.9938 15.5404-3.1013 31.6484-1.5095 46.28716 4.5729 14.63866 6.0826 27.15054 16.3832 35.95354 29.5992 8.8028 13.216 13.5014 28.75374 13.5014 44.64849-.0238 21.30681-8.4718 41.73421-23.4908 56.80041-15.01886 15.0663-35.382 23.5409-56.622 23.5648zm0-160.0669c-15.7148-.0009-31.077 4.6733-44.1435 13.4311-13.0671 8.758-23.2508 21.2061-29.2648 35.7703-6.014 14.56429-7.588 30.59051-4.523 46.052 3.066 15.4615 10.634 29.6638 21.7455 40.8108 11.1124 11.1471 25.27 18.7383 40.6829 21.8137 15.4129 3.0753 31.3888 1.4967 45.90734-4.5364 14.51853-6.0329 26.92756-16.2494 35.65796-29.3571 8.7304-13.1079 13.3899-28.5184 13.3894-44.28271-.0267-21.12939-8.4062-41.38559-23.3008-56.32549-14.8946-14.94-35.088-23.3519-56.151-23.3762z"/><path d="m-37.2405 69.5758c-12.0981 0-23.9245-3.5988-33.984-10.3414-10.059-6.7425-17.8996-16.326-22.5288-27.5384-4.6301-11.2124-5.8414-23.55025-3.481-35.45334 2.3604-11.90306 8.1858-22.83666 16.7404-31.41836 8.5545-8.5816 19.4542-14.4257 31.3199-16.7934 11.8656-2.3677 24.1648-1.1525 35.3421 3.4918 11.17716 4.6444 20.73049 12.5093 27.4519 22.6002 6.7213 10.091 10.3088 21.95471 10.3088 34.09093-.0179 16.26867-6.4683 31.86587-17.93591 43.36957-11.46759 11.5036-27.01579 17.9744-43.23339 17.9924zm0-122.0609c-11.9681-.0005-23.6677 3.5592-33.6195 10.229-9.9506 6.6697-17.7072 16.15-22.2877 27.2419-4.5805 11.09189-5.7783 23.29716-3.444 35.0724 2.3352 11.7752 8.0976 22.5914 16.5606 31.0809s19.2453 14.2708 30.9835 16.6128c11.7382 2.3421 23.9052 1.1398 34.9622-3.4549 11.05712-4.5947 20.50761-12.3754 27.1564-22.3582 6.6488-9.9827 10.1974-21.7191 10.1968-33.72497-.0187-16.09262-6.3997-31.52063-17.74312-42.89993-11.34344-11.3791-26.72308-17.7802-42.76518-17.799z"/><path d="m-37.2391 71.0048c-12.3703.0005-24.4629-3.6787-34.7488-10.5723-10.2858-6.8938-18.3028-16.6924-23.037-28.1567-4.7351-11.4644-5.9741-24.07965-3.5616-36.25059 2.4125-12.17091 8.3689-23.35091 17.115-32.12601 8.7469-8.7753 19.8908-14.7517 32.0232-17.1734 12.1324-2.4218 24.7083-1.1802 36.1372 3.5677 11.42899 4.7479 21.19787 12.7889 28.0713 23.1063 6.8733 10.3173 10.5426 22.44758 10.5436 34.85678-.0172 16.63512-6.6118 32.58402-18.33696 44.34762-11.72511 11.7636-27.62314 18.3811-44.20594 18.4006zm0-124.8224c-12.2397 0-24.2045 3.6409-34.3817 10.4623-10.1766 6.8214-18.1088 16.5169-22.7926 27.8605-4.6838 11.34352-5.9096 23.82571-3.5213 35.868 2.3881 12.0422 8.2816 23.1038 16.9361 31.7858 8.6554 8.6819 19.6819 14.5945 31.6863 16.9899 12.0045 2.3953 24.4475 1.1659 35.7554-3.5327 11.30796-4.6987 20.97301-12.6556 27.773-22.8646 6.8-10.2089 10.4295-22.2114 10.4295-34.48956-.0173-16.45976-6.5427-32.24044-18.14443-43.87974-11.60174-11.6393-27.33227-18.1811-43.74027-18.1999z"/></g></g></g><path d="m126.964 68c-4.339-.0046-8.632.8956-12.612 2.6444-3.98 1.7487-7.56 4.3084-10.517 7.5192l-1.135 1.3983c-1.272 1.5399-2.347 3.2349-3.2008 5.0452-2.6849 5.7733-4.1221 12.0587-4.2158 18.4369l-.0682 4.34c-.6797 2.672-1.9883 5.138-3.8144 7.188-1.8258 1.782-3.9992 3.158-6.3813 4.041-2.3821.884-4.9203 1.256-7.4526 1.091-3.0655-.112-6.0615-.954-8.7448-2.457s-4.9781-3.624-6.6981-6.192c-1.72-2.567-2.8167-5.509-3.2011-8.585-.3843-3.0767-.0453-6.2018.9892-9.1211 1.0346-2.9194 2.7358-5.5509 4.9653-7.6808 2.2294-2.13 4.9244-3.6983 7.8661-4.5777 2.9416-.8793 6.0469-1.0449 9.0637-.4832 3.0168.5616 5.8601 1.8347 8.2988 3.7157l.0361.3288 7.0726-10.1675c-4.9029-3.7502-10.78-5.9757-16.9134-6.4048s-12.2577.9569-17.6248 3.9886c-5.367 3.0317-9.7446 7.5778-12.5979 13.0832s-4.0589 11.7316-3.4694 17.9178c.5895 6.187 2.9485 12.066 6.7887 16.92 3.8403 4.853 8.9957 8.471 14.8366 10.412 5.8408 1.94 12.1141 2.119 18.0538.514 5.9396-1.605 11.2885-4.924 15.3937-9.55l.861-1.017 50.92-37.8576c-2.874-4.454-6.804-8.1121-11.431-10.6425-4.628-2.5303-9.807-3.8529-15.068-3.8479zm-19.581 34.984c-.492-3.3902-.111-6.9372 1.133-10.1248 1.244-3.1875 3.293-5.9897 5.942-8.1271s5.807-3.5354 9.157-4.0544 6.777-.1411 9.938 1.0963l.729.2841z" fill="url(#a)"/><path d="m154.463 123.228-2.933-2.765c-2.792 3.349-6.214 6.09-10.064 8.061-3.851 1.971-8.05 3.13-12.347 3.41-4.298.279-8.608-.327-12.671-1.783-4.064-1.456-7.799-3.732-10.985-6.692l9.545-8.158c1.809 1.975 4.053 3.483 6.545 4.398 2.491.916 5.161 1.213 7.788.867 2.626-.345 5.135-1.324 7.319-2.854 2.183-1.53 3.98-3.569 5.24-5.948l.136-.248-3.07-2.892 14.898-.624z" fill="url(#b)"/><g mask="url(#g)"><path d="m120.629 117.188-10.038 13.452 18.07 5.22 20.278-7.63-12.649-12.046z" fill="url(#c)"/><path d="m128.698 117.066.337 10.067-1.513-9.966zm-3.449 10.306-.402.367-.143 4.084.767.032.143-4.088zm7.027-.318-.303.442.705 4.03.75-.13-.703-4.03zm6.36-1.873-.2.504 1.656 3.743.701-.31-1.651-3.742zm-20.057.819-.492.235-1.418 3.838.719.264 1.418-3.836z" fill="#fff"/></g><g mask="url(#h)"><path d="m133.802 136.676c22.05 0 39.926-17.876 39.926-39.9265 0-22.0508-17.876-39.9265-39.926-39.9265-22.051 0-39.9268 17.8757-39.9268 39.9265 0 22.0505 17.8758 39.9265 39.9268 39.9265z" fill="url(#d)"/></g><path d="m101.463 162c34.242 0 62-27.758 62-62 0-34.2417-27.758-62-62-62-34.2413 0-61.9996 27.7583-61.9996 62 0 34.242 27.7583 62 61.9996 62z" stroke="#fff" stroke-miterlimit="10" stroke-width=".015"/></svg>