<svg fill="none" height="200" viewBox="0 0 200 200" width="200" xmlns="http://www.w3.org/2000/svg"><path d="m99.9634 184c46.6676 0 84.4996-37.608 84.4996-84 0-46.3919-37.832-84-84.4996-84-46.6681 0-84.5 37.6081-84.5 84 0 46.392 37.8319 84 84.5 84z" fill="#d5a52f"/><path d="m101.963 184c45.564 0 82.5-37.608 82.5-84 0-46.3919-36.936-84-82.5-84-45.5631 0-82.4996 37.6081-82.4996 84 0 46.392 36.9365 84 82.4996 84z" fill="#f4b420"/><g fill="#d5a52f"><path d="m81.9226 52c-.0826.5968-.5285.8115-1.1517.8845-.7141.5771-1.2851 1.2658-2.2718 1.2832-.2712.0048-.4689.2614-.6238.4918-.18.268-.4237.4301-.7427.4662-.5145.0581-.8999.3179-1.206.7253-.1855.2467-.4223.455-.7349.4983-.588.0814-.9999.38-1.2805.8965-.1031.1894-.288.327-.5014.3656-.6124.1111-1.0375.4578-1.3351.9882-.0439.0781-.1059.1766-.1842.1952-1.0943.26-1.5604 1.3727-2.5036 1.8363-.3057.1502-.5581.3762-.7008.6874-.1738.3791-.4234.6457-.8352.7678-.4025.1193-.6654.4161-.8255.7916-.1936.4545-.5149.7358-1.0595.8462-.0943.0355-.1305.0504-.2656.1202-.1274.0771-.1563.0993-.2579.1996-.0926.1076-.1122.1372-.1573.2139-.0402.0802-.0549.1133-.0886.1978-.0856.2278-.1141.4172-.2404.6317-.351.2618-.7381.377-1.0076.7562-.2752.2405-.2812.5257-.344.8522-.0333.0926-.0504.1278-.105.2072-.1865.1584-.3777.1817-.577.3091-.146.1271-.2519.2194-.3987.344-.0648.0578-.0905.0818-.1798.1946-.1542.2726-.143.4767-.1892.7305-.0272.0943-.0417.1305-.0893.2137-.1179.1212-.2187.1668-.3679.2336-.0778.039-.1084.0551-.1835.0979-.1027.0644-.1611.1016-.2631.1685-.1032.0679-.1634.1051-.27.1709-.1431.0843-.2453.1222-.4056.0972-.6006-.0296-1.1539-.0303-1.7901-.031-.2111-.1368-.235-.2963-.1553-.5515.7132-.9285 1.3901-1.7836 2.0916-2.6181.1038-.1236.3236-.1494.5484-.2524.1598-.1891.162-.3868.2868-.5943.0239-.0818.018-.1268.0356-.1396.9601-.7034 1.5018-1.8573 2.5904-2.4171.2551-.1311.467-.2547.5262-.5659.0268-.1411.1039-.3513.2074-.3868 1.1073-.38 1.5544-1.6263 2.6531-2.0033.2977-.1021.5393-.2348.6615-.5584.0603-.1591.2013-.3657.344-.4031 1.1099-.2904 1.8031-1.2306 2.7334-1.8001.901-.5517 1.9155-.9484 2.7285-1.656.644-.5605 1.4866-.8165 2.2271-1.1641 1.8208-.8545 3.6326-1.7738 5.6586-2.3212z"/><path d="m78.3717 145.442c-1.5691-.442-2.9269-1.266-4.3401-1.993-.9327-.479-1.8191-1.038-2.6843-1.591-.9832-.629-1.9817-1.268-2.9172-2.001-.7997-.626-1.5015-1.435-2.4457-1.871-.5496-.254-.8141-.692-1.0626-1.256-.1136-.118-.1928-.182-.3458-.212-.6381-.074-.979-.416-1.1168-1.041-.0519-.28-.211-.409-.4398-.546-.4093.024-.6776-.101-.8719-.464-.1039-1.05.7071-.773 1.2864-.927.1208.005.1686.009.286.026.1143.025.159.037.2674.073.1044.041.1449.059.2442.104.3771.221.75.312 1.0787.601.1145.176.1592.32.2466.502.086.133.132.226.1612.376.0035.048-.0094.137-.0174.179-.008.041.0237.117.0571.142.0947.02.156.016.2695.023.3819.133.6984.276.9323.639.1247.238.1616.443.2713.68.0424.079.0602.109.1075.18.0752.089.1243.133.2225.193.0759.035.1076.047.1894.072.1212.027.1932.037.3252.046.1803.011.3502-.011.4087.064.635.817 1.5726 1.275 2.302 1.977.0407.039.0435.127.0884.154 1.0041.618 1.7523 1.556 2.8079 2.206.187.063.3039.123.4711.226.4031.374.549.94 1.2063 1.021.8359.431 1.4612 1.079 2.4009 1.237.4394.074.745.569.611 1.181z"/><path d="m63.8511 133.727c-.6294.092-1.2665-.057-1.7029.611-.3518-.428-.9904-.827-1.1896-1.226-.5339-1.07-1.8861-1.455-2.0869-2.714-.0312-.195-.1229-.338-.3031-.414-.6654-.279-1.0927-.731-1.1101-1.492-.006-.262-.2182-.319-.4042-.423-.5338-.298-.8697-.732-.862-1.444 1.0954.385 2.2019.834 3.3649 1.318.1359.117.2257.182.3834.246.1405.089.2138.17.3128.298.0521.069.0726.097.1633.196.1262.111.1847.146.2945.199.1166.056.1776.099.2677.199.1914.34.0676.718.3719 1.015.2037.164.3495.301.5387.478.3797.32.6726.629.7822 1.129.1209.163.2075.281.3245.442.1179.161.2351.224.4393.246.2824.077.4248.232.5413.506.0665.313.0598.552-.1257.83z"/><path d="m51.116 116.245c.1344-.146.2578-.246.3976-.281 1.6243-.405 1.6681-.333 1.4733 1.325-.1048.892-.0528 1.802-.0647 2.789-.3293.077-.6845-.143-.7013-.378-.0882-1.228-1.2331-2.097-1.1049-3.455z"/><path d="m53.1109 86.6794c-1.0179.8164-2.1424 1.2586-3.4192 1.5211-.3092-.657-.2395-1.2506.2693-1.7565.1815-.1807.2866-.385.232-.6496-.1387-.6727.0032-1.2586.5383-1.7203.2153-.1859.1864-.4264.156-.6698-.0717-.5731.0369-1.0817.522-1.4574.2083-.1612.2905-.3781.2564-.6388-.0814-.6205.1124-1.1329.6105-1.5169.2402-.1853.3273-.4178.2909-.7131-.0147-.1187-.0531-.283.0062-.3551.7587-.9264.9324-2.1693 1.6868-3.094.0371-.0456.1308-.0683.1377-.1114.1711-1.0671 1.021-1.7624 1.4893-2.7463.0719-.1821.1268-.2931.2123-.4568.5897-.6667 1.1266-1.2867 1.3772-2.1209.0925-.3081.4323-.4756.8324-.5633.1646-.124.2481-.2545.4593-.3579.5766-.141 1.0817-.1567 1.6529.0188.3736.2935.3403.6472.3251 1.0629-.022.1131-.0349.1566-.0783.2594-.1342.2008-.2929.2625-.4902.3683-.1734.1083-.2908.1957-.4243.3464-.0557.0707-.0771.0996-.1507.2235-.155.3464-.1154.6173-.1731.9324-.0267.0909-.0408.1257-.0869.2068-.1402.1441-.2784.1873-.451.2716-.0989.0595-.1528.0971-.2402.1716-.058.0585-.0805.0829-.161.1908-.0885.1462-.1148.211-.1519.3311-.0238.0905-.0335.1271-.0577.2186-.058.2033-.0799.3555-.1128.5633-.0215.0912-.0327.1268-.0695.2107-.0701.103-.1202.1518-.2177.221-.0662.046-.0925.0638-.1563.1083-.0375.0268-.1076.0843-.1676.1504-.0943.1163-.1257.1678-.1754.2636-.0367.0703-.0523.0982-.0923.1681-.0399.0718-.0553.101-.1063.227-.0906.3485-.0784.6121-.1916.9098-.0425.0846-.0621.1169-.1157.1942-.0589.0731-.0837.101-.1861.2079-.1035.1051-.1293.1312-.229.2381-.0963.1104-.1188.1396-.1993.265-.2489.4115-.2239.769-.2627 1.1746-.0158.0982-.0244.1369-.0519.2319-.0502.1285-.0848.1984-.1523.3165-.1117.1768-.2171.2834-.3704.4191-.065.061-.0902.0857-.1753.1964-.1529.2907-.1351.509-.1402.7816-.0028.0951-.0053.1334-.0161.2288-.0177.095-.027.1323-.0571.2242-.0566.1225-.0974.188-.1799.2938-.0606.0728-.0856.101-.1861.2134-.0992.1135-.1229.1428-.2088.2691-.3492.499-.1531.9477-.2005 1.432-.0315.0923-.0475.1278-.0923.2127-.0694.1125-.1098.1755-.1752.2876-.0408.0818-.0562.1152-.092.1995-.0447.1225-.0668.1943-.0982.3245-.0374.8352.0223 1.638-.6915 2.2717z"/></g><path d="m56.2299 126.606c-1.3581-1.011-2.213-2.3-2.7985-3.802-.1143-.293-.1655-.567-.1823-.939-.2111-.424-.3049-.798-.2264-1.271.0162-.165-.0008-.264-.0558-.397-.623-.755-.267-1.598-.3374-2.386-.0132-.148.0265-.3.0449-.45.1518-1.24.1359-1.256-1.0594-1.131-.1209.013-.241.011-.4284-.034-3.1799-.021-6.0801-.782-8.4812-2.803-2.5784-2.17-5.2019-4.328-6.5913-7.576-.3253-.76-1.245-1.105-1.9019-1.62-1.5463-1.212-2.0859-2.869-1.4923-4.7383.3191-1.0055.6785-1.9667 1.2532-2.8747 1.4321-2.2627 3.6912-3.0899 6.0974-3.687 1.1088-.275 2.236-.4776 3.3586-.6935.3326-.0641.5201-.1636.5692-.5557.1544-1.2324 1.017-1.8779 2.0874-2.2609 1.1335-.4052 2.2942-.7342 3.4873-1.1437 1.0599-.6778 2.2854-.8735 3.3119-1.6314.9933-.5059 1.5299-1.4309 2.3882-2.091.9034-.8439 1.868-1.4651 3.0476-1.8654 1.0596-.29 2.0534-.5623 3.0739-.7061.6283-.0881.871-.4254.8684-1.0462-.003-.7067-.0518-1.378-.4424-2.0047-.523-.8397-.5499-1.7891-.4314-2.7309.1632-1.2969.4667-2.5662 1.073-3.7364.559-1.0789 1.0673-2.1864 1.4157-3.3419.7878-2.6126 2.6164-4.0525 5.1977-4.8058.6785-.0598 1.2833-.0538 1.9611-.0139.6382.0348 1.1245.2996 1.59.5757 1.2033.7141 2.4796 1.2742 3.7716 1.7923 1.3856.556 2.6689 1.2962 3.9407 2.0607.7002.4209 1.3711.4676 2.1562.1616 1.59-.6198 3.2566-.9418 4.9709-.9561.4993-.0042.9459-.1378 1.3885-.3628 2.0579-1.0462 4.1555-1.1677 6.3238-.3122 2.716 1.0719 5.3406 2.3107 7.6896 4.0633.606.4515.904.274 1.146-.3367.29-.7308.628-1.4389.846-2.2021.681-2.3834 3.137-3.0115 4.887-1.2742.755.7499 1.137 1.7024 1.498 2.6714.37.9964.56 2.045.889 3.0533.239.7342.439.8359.986.2879.913-.9143 1.474-2.0388 1.503-3.3684.034-1.5406.525-2.7901 2.078-3.3994 1.246-.4881 2.609-.1479 3.523.94.665.7921 1.378 1.5337 2.152 2.2133.581.5104.775.4223.919-.3461.078-.4164.092-.8432.195-1.2568.223-.8965.561-1.0226 1.349-.5021.481.3175.837.7956 1.416 1.095.754.8686 1.576 1.5211 2.695 1.8549.202.0885.318.2068.53.2632.212.0286.366.055.572.1156.197.0818.308.1967.511.2639.133.0338.209.0554.342.0951.48.1681.904.3182 1.398.4487.265.054.458.133.71.2291.176.0644.288.1212.474.157 1.946.6459 3.379 1.8494 4.463 3.4934.416.6319.8 1.2851 1.298 1.9323.122.1633.195.2914.381.3767.116.0369.182.0574.299.0933.15.0459.25.079.405.11.123.023.193.0386.314.0707.155.0449.257.0794.416.1121.126.0226.197.0383.321.0693.16.0428.265.0776.43.102.168.0195.28.0386.447.0707.169.0379.279.0766.452.0988.177.0202.295.0425.472.0763.181.039.297.0849.485.103 1.229.2298 2.158.8836 3.081 1.6802.965 1.0121 1.907 1.9507 3.08 2.7254 1.676 1.0131 3.49 1.4869 5.285 1.998 1.462.4164 2.876.8342 3.063 2.6874.029.282.247.3785.509.4293 1.21.2343 2.431.4286 3.623.7336 4.323 1.1054 6.61 3.0018 7.396 7.8112.214 1.3041-.487 2.5115-1.558 3.2987-1.203.884-2.167 1.854-2.89 3.221-1.155 2.183-3.097 3.745-4.91 5.397-1.793 1.634-3.832 2.717-6.178 3.238-1.131.251-2.29.078-3.518.106-.229.018-.37.097-.52.084-.756-.066-.821.367-.739.962.122.887.273 1.779-.095 2.715-.102 2.28-.817 4.257-2.302 6.003-.499.559-1.051.972-1.673 1.405-.49.265-.953.428-1.473.631-.153.054-.243.076-.404.106-1.525.599-3.061.803-4.675 1.002-.267.066-.466.085-.742.088-.478.013-.886-.055-1.352.123-1.24.146-2.407.101-3.652.044-.23-.044-.373-.1-.571-.216-.097-.072-.132-.105-.206-.195-.419-1.729-.646-3.446-1.556-4.956-.312-.516-.595-1.049-.943-1.543-.277-.394-.544-.431-.825.013-.386.612-.767 1.227-1.155 1.838-.907 1.426-1.876 2.807-3.036 4.127-.863 1.061-1.81 1.957-2.75 2.945-.708.813-1.57 1.348-2.391 2.028-.971.895-2.058 1.525-3.128 2.285-.118.081-.191.119-.322.173-.217.058-.345.15-.511.297-1.025.555-1.963 1.15-3.079 1.524-.227.046-.369.126-.553.263-.399.201-.77.299-1.191.449-.289.059-.473.183-.717.35-2.926 1.076-5.889 1.561-8.925 1.765-5.8469.392-11.425-.684-16.8298-2.853-.6235-.25-1.1583-.652-1.8222-.968-2.5645-1.518-5.0047-3.094-7.2089-5.007-1.051-.913-2.1223-1.802-3.0944-2.804-.8331-.858-.995-.807-1.4173.347-.0313.085-.0547.173-.1065.317-.0895.202-.2079.317-.2803.525-.0345.136-.055.214-.0909.353-.0745.226-.0853.398-.0738.643-.0139.619.0895 1.202-.4978 1.646-.4143.162-.797.066-1.2144.238-.7583.129-1.4421.111-2.2028.039-.5013-.178-.9472-.162-1.4631-.157-.3029.007-.5339.001-.8288-.041-.2313-.037-.3951-.083-.6283-.067-.355.005-.6336-.081-.9772-.151-.2169-.055-.3697-.115-.5969-.119-.1851-.011-.3071-.031-.4895-.066-.2195-.054-.3742-.114-.603-.125-.1454-.017-.2281-.031-.3725-.062-.2652-.084-.4761-.115-.7532-.153-1.2345-.344-2.3451-.804-3.3855-1.568z" fill="#f9f8f6"/><path d="m117.313 73.6631c-.009-1.2774-.059-2.5175-.108-3.758-.014-.376.006-.7471.426-.9125.447-.1758.663.1581.889.4408 1.594 1.9946 3.559 3.5254 5.81 4.7161.555.2935.757.2545.858-.4088.098-.6472-.07-1.5743.429-1.8605.426-.2447 1.034.5282 1.606.775 1.283.5543 2.62.9379 3.958 1.3167 2.175.6163 4.038 1.6461 5.113 3.7496.958 1.878 2.473 2.9033 4.581 3.0763 2.294.1884 4.115 1.2464 5.618 2.9799 1.186 1.3679 2.846 2.0356 4.496 2.6456 1.389.5135 2.816.9271 4.231 1.3686.557.1737 1.003.2824.438 1.0072-.506.6486-.248 1.1576.674 1.463 1.47.4867 3.013.6632 4.519.9999.856.1914 1.71.4076 2.542.6792 2.385.7781 3.579 2.5624 4.055 4.9222.141.6994-.16 1.2499-.668 1.6854-.436.3739-.913.7005-1.37 1.0494-.733.5578-1.329 1.2008-1.651 2.1058-.414 1.168-1.259 2.075-2.115 2.925-1.863 1.849-3.619 3.858-6.177 4.819-2.095.789-4.228.82-6.499.293.616-.765 1.324-1.264 2.009-1.788.186-.142.492-.215.459-.505-.037-.326-.369-.371-.616-.45-.435-.14-.892-.236-1.341-.095-2.177.684-4.377.442-6.565.132-.664-.093-.828.121-.803.694.035.832.368 1.586.619 2.362.216.668.577-.01.888.094.114 1.291.228 2.58.355 4.022.788-.734 1.494-1.376 2.18-2.039.374-.363.557-.37.677.199.373 1.773.45 3.529.01 5.309-.49 1.989-1.666 3.305-3.578 4.018-2.683 1.001-5.482 1.221-8.306 1.308-.384.012-.585-.106-.682-.532-.72-3.173-2.569-5.704-4.652-8.102-.412-.474-.58-.142-.818.156-1.099 1.375-1.993 2.889-2.938 4.368-3.734 5.838-8.588 10.428-15.077 13.03-8.24 3.305-16.5118 2.971-24.7209-.215-1.253-.486-1.1977-.53-.7639-1.781 2.1527-6.208 4.2715-12.427 5.2575-18.959.1769-1.171.2347-2.353.0863-3.532-.0557-.442-.0887-1.003-.5424-1.178-.455-.176-.853.238-1.1983.509-.7733.605-1.1674 1.452-1.3495 2.402-.2075 1.082-.1974 2.168-.0647 3.258.1469 1.21-.2918 1.778-1.5441 1.944-.5076.067-1.0278.062-1.5416.054-.5122-.008-1.0232-.061-1.5963-.098.1709.484.3812.916.4717 1.372.133.67-.1726.904-.8133.648-1.02-.408-1.8709-1.111-2.8169-1.649-.2197-.125-.4383-.422-.7241-.233-.2333.155-.0745.449-.0972.681-.0369.378.2591.912-.0901 1.099-.4196.225-.7392-.297-1.0403-.556-1.7011-1.464-3.2716-3.056-4.729-4.768-.8638-1.015-1.0549-2.203-1.213-3.446-.2527-1.986-.2336-3.852.8823-5.688.9929-1.633 1.1315-3.6212 1.6091-5.464.1967-.7603.3962-1.5249.6727-2.2581.2827-.7499.6433-.8081 1.1805-.1995.398.4505.7141.9741 1.0605 1.4699.3109.4453.5292.336.6354-.1236.1494-.6469.2601-1.3028.4108-2.076.6939.4839 1.1019 1.1893 1.8003 1.8797.3917-1.8453.8154-3.5585.4878-5.3289-.1361-.7363-.8349-.8787-1.4574-.6848-.839.2615-1.1287-.0164-1.0646-.8276.055-.6928-.1442-1.0622-.9212-.7743-.4965.1839-.672-.0849-.6434-.5323.0626-.9922-.3426-1.4581-1.3742-1.316-1.1068.1528-1.8752-.2434-2.0412-1.5399-.4384.3878-.29.7722-.3158 1.0942-.0961 1.2074-.1024 2.4239-.3624 3.6135-.0547.2493-.0798.5989-.4178.6239-.2587.0192-.4126-.2402-.5306-.448-.6441-1.1315-1.2648-2.2763-1.919-3.4015-.1727-.2973-.3085-.7607-.72-.7189-.3388.0341-.2615.495-.3732.76-.3196.7579-.5616.8442-1.1566.2315-1.7132-1.7631-2.8461-3.766-2.4274-6.3507.0902-.5567.1197-1.0417-.4959-1.3849-.4297-.2392-.4978-.7434-.4584-1.2144.0965-1.1541.3076-2.2954.8402-3.3263.6838-1.3237 1.2272-2.6971 1.7209-4.0977.5522-1.5664 2.1683-2.7111 3.8172-2.7407.4317-.008.8376.0526 1.2101.3036.9341.6298 1.9476 1.1228 3.0025 1.4932 2.3302.8189 4.3022 2.3494 6.5895 3.2518.4412.174.7604.1653 1.1785-.0387 1.9675-.9605 4.0348-1.4814 6.2414-1.2039.3816.0477.6312-.1058.9056-.3022 1.5395-1.1009 3.172-1.394 4.9702-.6496 3.0025 1.2425 5.9497 2.5686 8.3557 4.8379.197.1856.431.3321.655.4867.603.4161 1.108.3684 1.538-.2792 1.028-1.5475 1.861-3.187 2.398-4.9685.076-.2514.012-.6016.381-.626.315-.0209.444.2733.587.5027.486.7803.772 1.6479 1.003 2.5238.432 1.6381.843 3.2838 1.184 4.9428.142.6897.42.7791.989.525 1.533-.6855 2.932-1.5643 4.141-2.7431.535-.5212.758-1.1959.978-1.8553.421.0738.284.4835.545.6945.081.1212.142.156.263.117z" fill="#040404"/><path d="m82.1383 118.563c1.5145.311 2.5436-.093 3.1341-1.414.3708-.83 1.0709-.607 1.6213-.657.4004-.036.1786.481.1097.719-.7266 2.499-1.4529 4.998-2.2285 7.482-.4958 1.588-1.0929 3.145-1.6057 4.728-.1818.56-.384.624-.8864.319-2.9137-1.771-5.5639-3.871-8.002-6.249-.3304-.322-.391-.541-.1375-.98.9891-1.711.8122-3.354-.3816-4.708-.3321-.376-.5403-.464-.915-.037-2.1512 2.456-4.1096 5.019-4.8633 8.29-.0926.402-.234.629-.7197.607-2.7277-.128-5.4379-.322-8.0518-1.225-2.0584-.712-3.3633-2.057-3.8658-4.197-.4533-1.932-.3676-3.825.2333-5.864.9002.844 1.7211 1.613 2.6846 2.516.1004-1.278.1762-2.379.281-3.478.0247-.259-.106-.809.509-.413.2969.191.3564-.109.4279-.282.3024-.729.5528-1.477.6287-2.268.0588-.612-.1339-.877-.8413-.745-1.8556.346-3.7334.437-5.6057.133-.6774-.11-1.32-.484-2.0341-.266-.3381.104-.8014.149-.8649.554-.052.331.3907.404.6151.59.3961.329.8141.633 1.1891.983.2038.191.6647.291.519.641-.1081.26-.5261.232-.8209.273-3.2936.464-6.2438-.222-8.7606-2.516-1.366-1.246-2.763-2.455-3.9374-3.89-.5184-.634-.9955-1.291-1.2559-2.089-.3317-1.015-1.1772-1.586-1.9869-2.173-1.8207-1.319-1.9394-1.777-1.1622-3.8942.9234-2.5154 3.0168-3.4119 5.3681-3.9495 1.534-.3509 3.0841-.6301 4.6231-.9598.3516-.0756.6959-.2051 1.0282-.3461.6513-.2764.8027-.791.3694-1.3056-.5939-.7053-.134-.8509.4207-1.0113 2.1221-.6145 4.2349-1.2468 6.2266-2.2342 1.0454-.518 2.0287-1.1217 2.7744-2.0123 1.3837-1.6523 3.2027-2.3069 5.245-2.7894 1.5375-.3635 2.4399-.1626 3.147 1.292.4589.9438 1.2286 1.7241 2.1881 2.3535.0265.4129-.276.4387-.5337.4972-.7427.1688-1.493.2621-2.2535.1361-2.0289-.336-3.9039.0884-5.676 1.1002-1.4448.8251-2.8661 1.7066-4.5001 2.1373-.1463.0383-.285.1051-.4144.1838-.5136.3127-1.0279.7197-.842 1.3596.1953.6729.872.3554 1.3416.3627.6948.0108 1.2608-.3857 1.8262-.7408 1.2832-.8057 2.5018-1.7067 3.7498-2.5638 1.643-1.1291 3.4833-1.0915 5.3374-.986.5753.0327.7079.3906.4386.892-.0573.1068-.1105.2228-.1983.3036-1.3179 1.2087-1.9295 2.8399-2.6177 4.418-.4469 1.0243-1.2043 1.6186-2.2511 1.9448-2.5169.7841-5.0175 1.0038-7.5831.1529-2.2318-.7399-4.4337-.0979-6.6153.3976-.4589.1041-.7525.4881-.9716.9045-.6769 1.2871-.924 2.6892-1.0385 4.1122-.0563.7.2539 1.301.8497 1.715 1.4243.99 3.0562 1.454 4.7238 1.784.774.153 1.3202-.394 1.7734-.925.8274-.969 1.7356-1.857 2.6106-2.78 1.0825-1.141 2.4223-1.794 3.9044-2.204.8942-.248 1.1462-.048.9595.859-.1726.84.3622.723.8417.744 2.8932.13 5.6292.787 8.0755 2.413.3799.253.7211.55 1.0529.862.5351.504.8822 1.01.2558 1.697-.212.232-.2144.568-.1911.869.1494 1.952-.4401 3.777-.9727 5.606-.3722 1.279-.8722 2.523-1.2308 3.801-.6012 2.141-2.2032 3.422-3.7745 4.75-1.1353.961-1.1445.984.269 1.544 2.5193.998 2.1881 1.168 3.0007-1.375 1.0661-3.335 3.0248-6.036 5.3821-8.519.1055-.111.2312-.195.4464-.253.4801-.044.6347.296.8502.533 1.3494 1.482 2.8061 2.847 4.3996 4.063.3582.273.7422.527 1.2582.651.4422.202.6142.547.7767.912.7225 1.628 1.5883 3.183 2.449 4.739.1458.264.3143.515.5138.743.3935.448.7799.41 1.1221-.051.5143-.692.7771-1.403.3036-2.259-.5104-.922-.9605-1.879-1.3543-2.859-.1121-.279-.2601-.548-.1925-.93.0682-.146.133-.209.2827-.269z" fill="#080808"/><path d="m71.8142 113.216c-.0641.17-.0899.297-.1665.372-2.8204 2.735-4.7982 5.966-5.8866 9.756-.3908 1.36-.4901 1.353-1.7819.844-.7881-.311-1.5559-.673-2.3434-.986-.5681-.225-.5469-.463-.0855-.79.2461-.175.4505-.409.7009-.576 2.5008-1.662 3.8835-4.041 4.6247-6.907.6734-2.602 1.6945-5.126 1.5093-7.891-.0098-.142.0111-.377.0947-.42.9849-.512.251-.904-.1093-1.243-1.9594-1.838-4.4077-2.584-6.9775-3.01-.8631-.143-1.7446-.227-2.6187-.236-.7813-.009-.7654-.334-.5184-.89.1024-.231.3864-.491.1525-.736-.2133-.223-.5193-.023-.7701.046-1.4565.404-2.7581 1.097-3.8116 2.193-.9014.938-1.7744 1.904-2.6454 2.87-.7671.851-1.6218 1.13-2.7621.733-1.2852-.449-2.5997-.798-3.7779-1.516-.8305-.507-1.2366-1.207-1.1811-2.184.0853-1.5.4549-2.922 1.1106-4.276.2868-.5918.7264-.9536 1.3673-1.0758 2.4387-.4651 4.8472-.947 7.338-.0985 2.3348.7955 4.6693.3053 6.9486-.4394.7583-.2475 1.3215-.7116 1.6317-1.4671.1606-.3913.3778-.76.5331-1.1531.4919-1.2453 1.0441-2.4465 2.0668-3.3691.235-.212.4071-.4937.7602-.932-2.2249.0926-4.2417-.2889-6.0258 1.1026-1.2618.9843-2.6594 1.7927-3.9766 2.708-.8599.5971-1.8259.5629-2.7942.5758-.3456.0045-.4585-.1681-.4881-.5003-.0774-.8683.4079-1.7258 1.4024-1.9806 1.7372-.4457 3.2119-1.3923 4.7389-2.247 1.408-.7886 2.894-1.1775 4.5187-1.1305 1.2906.0376 2.5979.2549 3.9415-.196.6242.0571 1.1116.375 1.7143.3562.5017-.016.5278.5953.8296.9327-.0975.5083-.5205.3642-.7927.479-.6866.2901-.7406.4443-.2354 1.0041 1.503 1.667 2.8406 3.4495 3.8858 5.5162-.4913 1.7968-.736 3.6148-1.7224 5.2228-1.1217 1.829-.8049 3.89-.6963 5.907.1153 2.139 1.0243 3.926 2.2979 5.632z" fill="#a3a7b3"/><path d="m81.8515 118.833c.6503 1.392 1.2972 2.723 1.9211 4.066.3582.769-.1866 2.301-.9334 2.681-.5717.291-.8419-.128-1.0873-.51-1.1482-1.783-2.0903-3.679-3.0088-5.587-.1309-.272-.2757-.537-.4289-.867.6392-.077 1.2871-.045 1.8543-.505.4853-.394.8832.128 1.3877.253.1849.128.274.248.2953.469z" fill="#a1a6b1"/><path d="m71.9816 96.4413c-.4157-.0077-.4627-.3875-.62-.6591-1.0299-1.7759-2.1784-3.4644-3.6849-4.8727-.5038-.4714-.392-.7555.1511-.9884.3558-.1525.7409-.2371 1.1823-.3781.4014.4021.7057.8557 1.0703 1.254 1.2129 1.3244 3.0331 1.1482 3.9689-.3833.2044-.3342.2987-.6639.7781-.266.1327.1107.5157-.063.7778-.1292.3677-.0922.6364.0087.6138.4088-.0191.337.195.8937-.4529.8822-1.9177-.0331-2.7059 1.1903-3.1648 2.7891-.2165.7541-.4038 1.5165-.6197 2.3427z" fill="#111"/><path d="m70.1528 126.57c.2319.147.2239.318-.0373.49-.1169-.147-.0974-.302.0373-.49z" fill="#f0c44a"/><path d="m121.484 111.223c.062-1.457-.08-2.82-.296-4.16-.35-2.164.281-4.07 1.285-5.915.959-1.7619 2.049-3.4303 3.465-4.8692.568-.5765 1.041-.7081 1.618.0272.361.4613.819 1.207 1.342 1.0817.508-.1215.253-.9992.393-1.5333.859-3.2908 2.694-5.9963 4.977-8.4368.71-.7583.705-.9665-.302-1.307-1.612-.5449-3.292-.7976-4.969-1.0483-.15-.0223-.301-.0327-.451-.0553-1.514-.2298-1.535-.2469-.594-1.4299.374-.47.07-.5452-.263-.6758-3.091-1.2136-4.985-3.533-6.081-6.5878-.077-.2151-.244-.4285-.013-.7635 1.218 1.1497 2.365 2.3459 3.354 3.6644.816 1.0883 1.84 1.8379 3.049 2.3559 2.086.893 4.194 1.7356 6.29 2.6046 1.233.5111 2.531.6663 3.835.5358 2.713-.2712 5.151.3802 7.401 1.903.927.6277 1.956 1.072 3.061 1.348 1.095.2737 1.694 1.0508 1.69 1.9835-.002.3979-.121.6319-.566.6305-1.008-.0024-1.989-.0474-2.865-.6674-1.063-.752-2.221-1.3801-3.228-2.1958-1.399-1.1319-2.949-1.6176-4.714-1.5096-.562.0344-1.449-.2911-1.604.1076-.185.4745.553.9661.971 1.3731.703.6841 1.081 1.5559 1.348 2.4416.647 2.147 2.084 3.1473 4.25 3.5101 1.994.3342 3.908.2872 5.828-.3019 2.375-.729 4.674-.0919 6.973.4265.479.1076.733.5202.937.9345.663 1.3473 1.032 2.7727 1.125 4.2732.061.9821-.36 1.6844-1.181 2.1884-1.414.868-2.983 1.319-4.574 1.707-.749.182-1.299-.234-1.769-.716-.718-.736-1.391-1.517-2.074-2.2867-1.276-1.4376-2.785-2.5123-4.671-2.99-.223-.0564-.493-.2277-.693-.0529-.242.2127.006.4672.105.6476.418.7589.161.9877-.638 1.0082-2.637.0683-5.165.6145-7.516 1.8548-.836.441-1.6.983-2.236 1.689-.24.267-.446.541.046.778.361.173.252.518.253.804.01 4.035 1.473 7.705 2.947 11.349.542 1.342 1.903 2.087 2.972 3.017 1.507 1.311 1.525 1.293-.314 2.068-.53.224-1.082.4-1.599.648-.719.345-1.072.055-1.27-.626-.102-.349-.263-.68-.359-1.029-.966-3.518-2.962-6.397-5.494-8.957-1.47-1.487-2.962-2.95-4.555-4.304-.448-.381-.705-.805-.747-1.386-.102-1.408-.219-2.815-.333-4.253-.313.151-.292.423-.345.641-.406 1.677-.79 3.36-1.202 5.036-.266 1.083-.137 2.047.741 2.815 1.019.891 1.173 1.957.772 3.207-1.089 3.399-2.722 6.536-4.564 9.57-.562.925-.976.883-1.609-.002-.61-.855-.748-1.671-.225-2.683.875-1.692 1.604-3.46 2.381-5.201.311-.697.509-1.426.505-2.286z" fill="#a2a6b2"/><path d="m97.8402 87.0621c1.6583 3.4593 1.4 7.0606.7855 10.6866-.1264.7451-.5414 1.214-1.3592 1.1733-.7914-.0393-1.0803-.509-1.1204-1.2582-.0282-.5313-.0466-1.1973-.7736-1.2485-.6921-.0484-1.0949.4383-1.3066 1.0605-.1166.3429-.1838.7025-.2928 1.0486-.3656 1.1621-1.0278 2.0816-2.2546 2.4086-2.0848.556-3.6459 1.694-4.509 3.728-.1845.435-.4857.864-.8387 1.175-1.1057.977-1.4239 2.18-1.2986 3.601.0522.592.3669 1.388-.3395 1.741-.6681.333-1.1586-.328-1.661-.684-.4192-.296-.7941-.654-1.2001-.97-.1549-.121-.3353-.351-.5428-.172-.1859.16-.0498.394.0303.59.1483.364.3008.727.4436 1.093.1093.282.2611.588-.0112.845-.2813.265-.6301.182-.9389.047-.2751-.12-.5425-.275-.7813-.457-.4811-.366-.9425-.76-1.4083-1.146-.4178-.346-.7617-.883-1.2857-.973-.6646-.115-.7573.667-1.1378 1.017-.6333.581-1.1983.47-1.3999-.378-.3332-1.4-.2173-2.832-.116-4.251.0411-.578.546-.351.8656-.34 2.6613.087 5.1781-.411 7.495-1.776 1.9758-1.163 3.5028-2.771 4.6987-4.709.6768-1.097.6344-2.3079.5515-3.5272-.0192-.2848-.1971-.5723.0282-.9633.5403.4474.8735.9992 1.1823 1.5726.0843.1567.1654.3757.3865.2803.1062-.0456.1922-.234.2113-.3687.0738-.5125.063-1.0299-.0536-1.5357-.893-3.8705-1.9967-7.6758-3.6034-11.3168-.7496-1.699-1.8679-3.1073-3.5017-4.0556-.4056-.2354-.7865-.4338-1.2054.0334-.3178.3548-.6722.1922-.9292-.1257-.3039-.376-.573-.7802-.8589-1.1712-.5911-.8091-.963-.9059-1.8306-.3875-.7269.4342-1.4204.9237-2.1307 1.386-.4418.2879-.9337.4495-1.456.4477-.7422-.0031-.9086-.3317-.5605-.9623.1811-.3276.7162-.6082.4739-.9873-.2368-.3712-.7827-.1344-1.1904-.1539-.5438-.0258-1.0904-.0038-1.6353.0129-2.9401.0894-3.735-2.5116-3.2629-4.7297.0864-.4049.4439-.4815.7907-.4456.4811.0501.9644.1187 1.433.2343 1.0671.2632 2.0221.2555 2.7696-.7419.3624-.4843.7844-.3816 1.0639.1497.2893.549.7733.7245 1.3495.769.7544.0585 1.5061.163 2.2612.202 2.3828.1225 4.3833.9988 5.6729 3.0675 1.5987 2.5649 4.0469 3.9203 6.7305 4.9881.1365.0543.2684.1483.5302.0038-.6288-1.0695-1.7209-1.6913-2.5258-2.5945.3888-.3304.7948-.18 1.1691-.1904 2.6219-.0728 4.972.5602 6.7677 2.6275.1557.179.3677.3092.6086.4645.1939-.6574-.3255-1.1079-.4773-1.675-.0978-.3645-.4331-.6601-.3384-1.081.1988-.0411.2952.0769.3965.1883 2.7557 3.0199 5.4111 6.1202 7.6161 9.577.227.3566.416.7385.617 1.1117 1.468 2.7278 1.096 5.4483-1.059 7.6566-.155.1591-.282.4791-.557.367-.275-.1118-.132-.4286-.148-.6532-.288-3.8446-2.115-6.8673-5.0288-9.3253z" fill="#a2a7b3"/><path d="m110.135 90.4136c.089-.0365.209-.0365.245.0185 1.532 2.388 3.324 4.6214 4.19 7.3965 1.072 3.4394 2.243 6.8454 2.411 10.4974.147 3.179-.169 6.291-1.143 9.323-.341 1.062-.818 2.062-1.74 3.064-.282-2.158-.539-4.115-.834-6.361-.3.599-.481.948-.652 1.302-.632 1.303-1.537 2.39-2.644 3.312-.654.545-.831.465-1.059-.393-.189-.708-.174-1.425-.093-2.132-.227-.066-.35.042-.416.172-.439.865-1.051 1.161-2.003.771-.501-.205-1.033 0-1.455.318-.52.392-.598.131-.596-.338.001-.212-.029-.427-.003-.635.072-.586.023-.957-.761-.949-.722.007-.657-.488-.294-.922.627-.752 1.42-1.321 2.228-1.853 1.617-1.067 3.243-2.122 4.894-3.135 1.707-1.049 2.409-2.522 2.204-4.516-.344-3.341-.419-6.7086-.999-10.0279-.294-1.6819-.988-3.235-1.48-4.9125z" fill="#a1a6b1"/><path d="m84.7964 100.193c-1.3759 1.169-2.8496 2.067-4.3927 2.844-1.3508.681-2.8148.642-4.2722.484-.6486-.07-.9344-.578-1.019-1.132-.3019-1.974-.1741-3.9234.4895-5.8208.0233-.0676.1222-.1087.2695-.2323.3408 1.4999.8899 2.8546 1.5419 4.1671.1933.39.3259 1.003.8997.82.6197-.198 1.269-.555 1.2258-1.3805-.0348-.6619-.1577-1.3192-.2545-2.0809.5898.4132.6956 1.0179.9199 1.5308.4929 1.1256 1.1398 1.4806 2.3507 1.2086.7175-.161 1.3588-.502 2.0043-.8392.1497-.0784.3419-.3774.5149-.0749.094.1644-.1069.3241-.2778.5061z" fill="#efeeee"/><path d="m115.715 78.4948c-.111 1.8734-.393 3.6267-1.144 5.2777-.357.7843-.838 1.4723-1.558 1.9625-.181.1232-.396.3819-.632.1664-.192-.1758.024-.3875.098-.573.547-1.3753 1.154-2.7296 1.517-4.1709.062-.2451.247-.5.004-.8454-1.28.8676-2.67 1.4915-4.212 1.7408-.784.1267-1.567.117-2.352.0752-.199-.0108-.482.0401-.533-.2211-.053-.2614.231-.3227.408-.416 1.897-1.0027 3.802-1.9911 5.696-3.0004.667-.3551 1.304-.7638 1.962-1.1343.196-.1103.362-.4101.619-.2541.234.1424.119.4432.135.6757.015.2103-.002.423-.008.7169z" fill="#9a9fa9"/><path d="m153.905 105.993c.197.021.335.032.533.076.26.095.469.079.732.125.498.04 1.151-.207 1.313.185.196.472-.323.92-.676 1.282-.756.778-1.994 1.106-3.334.888.528-.436 1.217-.594 1.622-1.251-1.483-.175-2.622-.897-3.682-1.746-.436-.349-.744-.345-1.18-.009-.956.739-2.055.909-3.392.701.834-.814 1.498-1.575 2.011-2.453.505-.864.409-1.183-.522-1.59-1.16-.507-2.392-.624-3.64-.646-.333-.006-.665-.014-1.077-.05-.281-.082-.489-.071-.756-.094-.254-.025-.448-.044-.706-.098-.108-.568.31-.413.56-.417.938-.017 1.878-.032 2.896.022.345.037.61.057.937.107.14.036.219.049.355.086 1.911.267 3.212 1.426 4.402 2.722.75.817 1.594 1.456 2.687 1.885.334.078.584.216.917.275z" fill="#eae9e9"/><path d="m139.09 113.234c1.789 1.381 2.126 1.313 3.209-.576.122-.214.159-.608.521-.497.282.086.329.419.338.693.022.678-.215 1.312-.431 1.934-.348.997.545 1.058 1.018 1.408.57.42.597-.225.802-.485.208-.263.43-.62.78-.484.341.131.162.539.138.819-.198 2.336-.78 2.642-2.847 1.568-1.58-.821-2.916-1.932-4.039-3.303-.48-.585-.907-1.207-.819-2.116.553.223.839.717 1.33 1.039z" fill="#ededed"/><path d="m69.0678 82.1866c-.2256-.5163-.2054-1.3442-.7245-1.2934-.6033.0588-.4112.8683-.5027 1.3679-.0484.2642-.0045.5449-.0418.8126-.0334.2406.1682.6197-.2117.6824-.2754.0452-.4763-.2504-.6037-.4836-.846-1.5486-.5929-3.1132-.1163-4.8575 1.3094 1.6889 2.8559 2.4566 4.8383 2.2244.4756-.0557.4781.2573.3844.5866-.3624 1.2792-.6893 2.5628-.8039 3.8948-.0564.6525-.4268.5731-.79.2424-.4853-.4419-.6653-1.0706-.9034-1.6545-.1936-.4738-.3367-.9685-.5247-1.5221z" fill="#ededed"/><path d="m118.8 85.1385c-1.044-.5532-1.281-1.2944-1.054-2.4099.327-1.5956.231-3.2434.29-4.8968.213.7677.407 1.5409.642 2.3016.589 1.909 1.384 3.7336 2.288 5.5138.114.2259.477.4745.029.7541-.361.2256-.627.2151-.936-.1289-.36-.4017-.802-.7318-1.259-1.1339z" fill="#ededed"/><path d="m143.169 89.1385c.887.533 1.718 1.0315 2.546 1.5339.202.1229.478.2239.413.5251-.069.315-.341.3767-.633.4083-2.498.2695-4.483-.8199-5.506-3.0366-.111-.2405-.318-.5006-.102-.7582.249-.2967.565-.1456.831-.0056.804.423 1.597.8655 2.451 1.3331z" fill="#536473"/><path d="m138.407 110.278c.148-1.228.121-2.366-.27-3.479-.087-.248-.225-.584.009-.77.285-.228.574.045.816.202.676.437 1.136 1.015 1.002 1.88-.241 1.554.169 2.933 1.077 4.189.065.09.095.204.148.321-1.431.138-2.438-.699-2.782-2.343z" fill="#989da7"/><path d="m132.018 78.2961c1.004.8328 1.94 1.644 2.574 2.7323.13.2229.344.5101.155.7465-.214.2688-.503.0167-.746-.0627-2.054-.6705-3.567-1.871-3.986-4.1235-.037-.2019-.106-.4126.063-.6532.74.274 1.27.8642 1.94 1.3606z" fill="#989da7"/><path d="m160.22 96.2893c-.403-.6751-.771-1.2924-1.139-1.9097 1.661.6194 3.214 1.3665 4.617 2.3919.316.2308.202.4466-.05.6527-.538.4408-1.104.8339-1.732 1.1427-.462.2273-.843.1692-1.072-.2844-.286-.5627.239-.6229.562-.805.228-.1285.525-.1556.716-.5295-.698-.0418-1.566.4108-1.902-.6587z" fill="#9498a2"/><path d="m159.691 102.048c.569-.379 1.231-.973 1.705-.564.383.33-.082 1.113-.311 1.657-.303.723-.765 1.302-1.606 1.426-.329.049-.693.084-.901-.243-.172-.272-.093-.583.05-.862.261-.513.589-.978 1.063-1.414z" fill="#989da7"/><path d="m89.4321 76.5146c-.7648-.1525-1.5075-.062-2.1672-.4637.9689-.8133 2.8559-1.2506 3.4843-.8311.3844.2563.8154.5484.6469 1.072-.195.6065-.7444.3356-1.1677.3193-.2396-.0091-.4777-.0589-.7963-.0965z" fill="#536473"/><path d="m68.4725 69.5451c-.2806.2719-.5135.4993-.7523.7325-.1407-.9389.3474-1.8549 1.2561-2.3145.2932-.148.6177-.2406.9348-.3328.3012-.0874.7162-.3569.8923.0052.2155.4428-.2405.6838-.5671.8888-.557.3499-1.2579.4491-1.7638 1.0208z" fill="#9498a2"/><g fill="#cac9c9"><path d="m144.623 100.898c-.753.318-1.594.069-2.419.154-.351.036-.719-.087-1.085.169-.328.071-.617.064-.922-.274 1.511-.218 2.933-.261 4.426-.049z"/><path d="m153.914 105.969c-.286.253-.539-.006-.844-.163.277-.127.519.076.844.163z"/><path d="m141.851 101.438c.168-.251.399-.215.659-.011-.186.167-.395.066-.659.011z"/><path d="m155.178 106.173c-.179.237-.408.196-.657-.022.187-.037.396-.026.657.022z"/><path d="m145.935 101.095c-.08.16-.185.137-.312.001.084-.04.187-.039.312-.001z"/></g><path d="m110.156 90.3405c-.045-.0599-.095-.1163-.145-.173.032-.0244.065-.0484.098-.0728.021.0526.042.1052.049.2072-.015.0494-.006.0421-.002.0386z" fill="#a1a6b1"/><path d="m117.522 74.7332c.004-.0051-.004.0048 0 0z" fill="#9498a2"/><path d="m95.906 77.9314c-.0352.0063-.0484-.0108-.0613-.0278.0279.0014.0557.0028.0613.0278z" fill="#a2a7b3"/><path d="m53.2546 109.443c-.664-.71-1.1853-.502-1.8143.01-.9405.765-1.9973 1.36-3.3223 1.496.2954.681 1.0096.778 1.4534 1.206-1.3958.473-3.3517-.424-3.8645-1.724-.1551-.394-.0714-.563.3621-.569.7885-.012 1.5719-.075 2.34-.276 1.193-.312 2.3278-.767 3.1193-1.747 2.0565-2.546 4.7481-3.528 7.9427-3.376.7665.036 1.5363.005 2.3137.161-.9752.479-1.9942.622-3.041.613-1.3415-.012-2.6656.087-3.9097.648-.9448.426-1.0321.709-.498 1.593.4238.701.9071 1.359 1.5044 1.928.1246.118.3548.208.2916.413-.0813.264-.3523.181-.5479.187-.8011.024-1.564-.135-2.3295-.563z" fill="#e6e5e5"/><path d="m60.1826 116.857c.9668 1.274 1.2354 1.322 2.4452.404.5719-.434 1.1079-.915 1.7736-1.469.0858.697-.1044 1.209-.4317 1.664-1.373 1.909-3.1269 3.354-5.3232 4.222-1.1021.435-1.4892.223-1.7674-.906-.0932-.379-.134-.774-.1609-1.165-.0173-.249-.1557-.602.202-.701.2942-.082.4755.194.6576.4.249.282.2508 1.023.9335.535.5237-.374 1.3421-.552.8993-1.539-.219-.489-.307-1.043-.4028-1.577-.0602-.335.0236-.756.3379-.872.3872-.144.4065.334.5665.559.0874.122.1562.258.2704.445z" fill="#ededed"/><path d="m57.3812 95.2169c-.3186.0153-.5612.0369-.7997.0142-.2219-.0209-.4087-.1389-.4523-.3781-.0373-.204.0936-.3429.255-.439 1.7366-1.0344 3.4213-2.1596 5.2662-3.0039.1968-.0901.4003-.1727.5815.0241.1668.1806.1459.4063.0497.5946-.5113 1.0009-1.1026 1.9525-2.0034 2.6522-.5348.4157-1.2386.1452-1.8388.3628-.3059.1111-.6523.1107-1.0582.1731z" fill="#536473"/><path d="m61.7477 114.98c.4628-1.117.7068-2.185.4709-3.336-.103-.502.1121-.958.4701-1.317.3617-.363.8466-.861 1.2901-.628.4262.224.0276.827-.0826 1.233-.2352.865-.2184 1.727-.162 2.606.0874 1.365-.6976 2.429-1.9935 2.753-.1992.05-.4427.171-.6015-.006-.1927-.214.0672-.374.1618-.543.1322-.237.2809-.465.4467-.762z" fill="#989da7"/><path d="m42.5996 98.0721c.3473-.1139.5046-.0383.3279.2649-.4097.7029-.8287 1.4017-1.2768 2.081-.3914.592-.9974.071-1.5026.198.0891.459.4832.439.7559.58.272.14.5965.274.4588.657-.1337.373-.4318.627-.8479.476-.8324-.303-1.5438-.83-2.1944-1.41-.3554-.317.1291-.449.3014-.575 1.2192-.8985 2.6041-1.5119 3.9777-2.2719z" fill="#9498a2"/><path d="m40.8632 105.037c1.3171.188 2.0923.982 2.6438 2.041.1514.291.2949.631.0517.935-.2626.329-.6365.277-.9985.191-1.1043-.262-1.9848-1.827-1.697-3.167z" fill="#989da7"/><path d="m97.7808 87.08c-.0125-.0208-.0296-.0389-.0467-.0571.0185.0032.0369.0063.0449.0383-.0104.0289-.0027.0216.0018.0188z" fill="#040404"/><path d="m96.8779 80.8928c.0376.0136.1156.0237.1156.031-.0024.0825-.0397.093-.0999-.0066-.0038-.0386-.0118-.0292-.0157-.0244z" fill="#040404"/></svg>