<svg fill="none" height="200" viewBox="0 0 200 200" width="200" xmlns="http://www.w3.org/2000/svg" xmlns:xlink="http://www.w3.org/1999/xlink"><filter id="a" color-interpolation-filters="sRGB" filterUnits="userSpaceOnUse" height="437.423" width="546.269" x="-173.267" y="-38.972"><feFlood flood-opacity="0" result="BackgroundImageFix"/><feBlend in="SourceGraphic" in2="BackgroundImageFix" mode="normal" result="shape"/><feGaussianBlur result="effect1_foregroundBlur_8_1277" stdDeviation="38.3795"/></filter><filter id="b" color-interpolation-filters="sRGB" filterUnits="userSpaceOnUse" height="106.667" width="99.7775" x="46.5834" y="46.5834"><feFlood flood-opacity="0" result="BackgroundImageFix"/><feColorMatrix in="SourceAlpha" result="hardAlpha" type="matrix" values="0 0 0 0 0 0 0 0 0 0 0 0 0 0 0 0 0 0 127 0"/><feOffset/><feGaussianBlur stdDeviation="1.66667"/><feComposite in2="hardAlpha" operator="out"/><feColorMatrix type="matrix" values="0 0 0 0 0 0 0 0 0 0 0 0 0 0 0 0 0 0 0.1 0"/><feBlend in2="BackgroundImageFix" mode="normal" result="effect1_dropShadow_8_1277"/><feBlend in="SourceGraphic" in2="effect1_dropShadow_8_1277" mode="normal" result="shape"/></filter><radialGradient id="c" cx="0" cy="0" gradientTransform="matrix(0 92.75 -92.75 0 99.75 99.75)" gradientUnits="userSpaceOnUse" r="1"><stop offset="0" stop-color="#311810"/><stop offset="1" stop-color="#1e0e0a"/></radialGradient><radialGradient id="d" cx="0" cy="0" gradientTransform="matrix(0 141.952 -196.375 0 99.8679 179.74)" gradientUnits="userSpaceOnUse" r="1"><stop offset="0" stop-color="#a744f4"/><stop offset=".411458" stop-color="#b2b1ee" stop-opacity=".46"/><stop offset="1" stop-color="#b1c2ee" stop-opacity="0"/></radialGradient><linearGradient id="e" gradientUnits="userSpaceOnUse" x1="113.228" x2="113.228" y1="135.363" y2="64.5708"><stop offset="0" stop-color="#ffc780"/><stop offset="1" stop-color="#964b48"/></linearGradient><mask id="f" height="168" maskUnits="userSpaceOnUse" width="168" x="17" y="16"><path d="m101 184c46.392 0 84-37.608 84-84 0-46.3919-37.608-84-84-84-46.3919 0-84 37.6081-84 84 0 46.392 37.6081 84 84 84z" fill="#c4c4c4"/></mask><mask id="g" height="186" maskUnits="userSpaceOnUse" width="186" x="7" y="7"><path d="m192.5 7h-185.5v185.5h185.5z" fill="url(#c)"/></mask><g mask="url(#f)"><path d="m192.5 7h-185.5v185.5h185.5z" fill="url(#c)"/><g mask="url(#g)"><g filter="url(#a)" opacity=".5"><path d="m99.8678 321.692c108.4552 0 196.3752-63.554 196.3752-141.952 0-78.399-87.92-141.9529-196.3752-141.9529-108.4551 0-196.3754 63.5539-196.3754 141.9529 0 78.398 87.9203 141.952 196.3754 141.952z" fill="url(#d)"/></g></g><g clip-rule="evenodd" fill-rule="evenodd" filter="url(#b)"><path d="m100.12 49.9168c8.617-.0066 17.09 2.1949 24.605 6.3926 7.515 4.1978 13.818 10.2504 18.303 17.5755-6.934 0-13.584 2.7423-18.487 7.6231s-7.657 11.5013-7.657 18.4038c0 6.9032 2.754 13.5232 7.657 18.4042s11.553 7.623 18.487 7.623c-4.562 7.451-11.003 13.584-18.683 17.789s-16.332 6.336-25.0949 6.181c-8.7638-.155-17.3338-2.59-24.8592-7.064-7.5252-4.474-13.7435-10.83-18.0367-18.437-4.2932-7.608-6.5119-16.201-6.4355-24.9267.0762-8.7254 2.4449-17.2787 6.8705-24.8106 4.4256-7.5318 10.7541-13.7794 18.3563-18.122 7.6025-4.3426 16.2141-6.629 24.9795-6.6319z" fill="#ffc780"/><path d="m143.028 73.8845c-6.934 0-13.584 2.7422-18.487 7.623-4.903 4.8812-7.657 11.5012-7.657 18.4042 0 6.9023 2.754 13.5233 7.657 18.4033 4.903 4.882 11.553 7.624 18.487 7.624l-.165.246c-5.107 4.608-11.45 7.639-18.256 8.724-6.806 1.084-13.782.176-20.079-2.614-6.2967-2.791-11.6429-7.343-15.3879-13.104-3.7454-5.761-5.7275-12.481-5.7058-19.3423.0216-6.862 2.0462-13.5695 5.8275-19.3062 3.7816-5.7372 9.1566-10.2562 15.4712-13.0073 6.314-2.7511 13.295-3.6157 20.095-2.4884 6.798 1.1273 13.122 4.1977 18.2 8.8377z" fill="url(#e)"/></g></g></svg>