<svg fill="none" height="200" viewBox="0 0 200 200" width="200" xmlns="http://www.w3.org/2000/svg"><path d="m100 184.463c46.648 0 84.463-37.815 84.463-84.463 0-46.6478-37.815-84.4634-84.463-84.4634-46.6478 0-84.4634 37.8156-84.4634 84.4634 0 46.648 37.8156 84.463 84.4634 84.463z" fill="#051221"/><g fill="#fff"><path d="m101.099 49-43.9215 25.5084v50.9996l43.9215 25.492 43.905-25.492v-50.9996zm30.894 68.951-30.894 17.952-30.8937-17.952v-35.9029l30.8937-17.9517 30.894 17.9517z"/><path d="m121.599 111.917-20.499 11.899-20.5163-11.899v-23.816l20.5163-11.9164 20.499 11.9164-8.548 4.9581-11.951-6.9584-11.9679 6.9584v13.8829l11.9679 6.958 11.951-6.958z"/></g></svg>