<svg fill="none" height="200" viewBox="0 0 200 200" width="200" xmlns="http://www.w3.org/2000/svg"><path clip-rule="evenodd" d="m98.3021 44.1589c-.7717.2443-.6283.1561-19.3838 11.9121-21.0572 13.1989-19.8605 12.3241-20.3937 14.9063-.1535.7429 3.5868 64.9887 3.9015 67.0177.3133 2.019 1.8216 3.766 3.8326 4.438l.733.244 33.1593-.03 33.159-.03.685-.276c1.557-.628 2.879-2.051 3.372-3.631.354-1.133 4.343-66.3472 4.134-67.5703-.181-1.0553-.822-2.2875-1.576-3.0288-.941-.9249-37.168-23.5491-38.238-23.8793-.89-.275-2.6271-.3125-3.3849-.0727zm18.0329 18.9769c16.077 10.0301 16.362 10.2211 16.532 11.0838.103.519-3.398 58.2354-3.557 58.6464-.185.478-.555.893-.998 1.119-.449.23-.794.233-28.402.233h-27.947l-.3965-.268c-.6122-.412-.9033-.935-.982-1.763-.0381-.402-.8672-13.603-1.8426-29.336l-1.7734-28.606.2646-.4999c.2103-.3974.5075-.6543 1.4517-1.2548.6531-.4152 7.8223-4.9113 15.9309-9.9915l14.7436-9.2365.6457.0444c.627.0434 1.134.3492 16.33 9.8291zm-27.6618 8.6256-11.2739 7.0743.0305.583c.0168.3207.3451 5.586.7301 11.7008.3848 6.1148.6994 11.2555.6994 11.4245v.307h15.5071 15.5076l-.002.382c-.001.21-.132 2.364-.292 4.787s-.291 4.551-.292 4.728l-.002.324h-9.264-9.2636l-.0707-.911c-.0387-.501-.1294-2.074-.2011-3.495-.072-1.421-.1545-2.703-.1834-2.849l-.0529-.264h-5.5778-5.5781l-.0007.558c-.0009.661.9072 16.439 1.0074 17.504l.0692.734h19.8447c10.914 0 19.844-.039 19.845-.088 0-.048.449-7.322.998-16.163.549-8.8419.998-16.1769.998-16.3003 0-.2198-.331-.2246-16.212-.2246-12.8917 0-16.2111-.0301-16.2099-.1469.001-.0805-.0866-1.564-.1947-3.2959-.1688-2.7069-.1732-3.1712-.0311-3.3054.1529-.1443 10.0435-6.3666 10.5577-6.6416.1938-.1041 1.056.3933 5.668 3.268l5.438 3.3904-.043 2.0747-.043 2.0745 5.623-.0305 5.623-.0304.256-4.3468c.14-2.3907.259-4.6671.264-5.0592l.009-.7124-11.072-6.9154c-6.09-3.8034-11.178-6.9816-11.307-7.0622-.2115-.1323-1.3822.5725-11.5088 6.9274z" fill="#e4ac4c" fill-rule="evenodd"/></svg>