<svg width="201" height="201" viewBox="0 0 201 201" fill="none" xmlns="http://www.w3.org/2000/svg">
<path d="M100.953 200.841C156.182 200.841 200.953 156.07 200.953 100.841C200.953 45.6126 156.182 0.841064 100.953 0.841064C45.7249 0.841064 0.953369 45.6126 0.953369 100.841C0.953369 156.07 45.7249 200.841 100.953 200.841Z" fill="#E2AB42"/>
<path fill-rule="evenodd" clip-rule="evenodd" d="M155.239 63.6982L155.953 67.9839C156.668 71.5554 156.668 75.8411 156.668 79.4125C156.668 87.9839 155.953 96.5553 153.81 104.412C150.953 115.841 146.668 126.555 139.525 135.841C131.668 146.555 120.953 157.27 105.239 165.841L103.096 166.555L100.953 165.841C85.239 157.27 73.8104 146.555 66.6675 135.841C60.2389 126.555 55.2389 115.841 52.3818 104.412C50.2389 95.8411 49.5247 87.9839 49.5247 79.4125C49.5247 75.8411 49.5247 71.5554 50.239 67.9839L50.9532 63.6982V62.9839C50.9532 62.9839 50.9532 62.2696 50.239 62.2696L49.5247 61.5554H48.8104H48.0961C48.0961 61.5554 47.3818 61.5553 47.3818 62.2696L46.6675 62.9839V63.6982L45.2389 66.5554C44.5247 70.8411 44.5247 74.4125 44.5247 78.6982C44.5247 87.2696 45.9532 96.5554 47.3818 105.127C50.239 117.27 55.2389 127.984 62.3818 137.984C70.2389 149.412 81.6675 160.841 98.8104 170.127L101.668 171.555C102.382 171.555 102.382 171.555 103.096 171.555C103.81 171.555 103.81 171.555 104.525 171.555L107.382 170.127C123.81 160.841 135.953 150.127 143.81 137.984C150.953 127.984 155.953 116.555 158.81 105.127C160.953 96.5554 161.668 87.2696 161.668 78.6982C161.668 74.4125 161.668 70.1268 160.953 66.5554L160.239 62.9839C160.239 62.2696 159.525 61.5554 159.525 61.5554C158.81 60.8411 158.096 60.8411 157.382 60.8411C156.668 60.8411 155.953 61.5554 155.953 61.5554C155.239 62.2696 155.239 62.9839 155.239 63.6982Z" fill="white"/>
<path fill-rule="evenodd" clip-rule="evenodd" d="M64.5247 60.8409L102.382 49.4124L141.668 61.5552C142.382 61.5552 143.096 61.5552 143.81 61.5552C144.525 61.5552 144.525 60.8409 145.239 60.1266C145.239 59.4124 145.239 58.6981 145.239 57.9838C145.239 57.2695 144.525 57.2695 143.81 56.5552L103.81 44.4124C103.096 44.4124 103.096 44.4124 102.382 44.4124L63.8104 56.5552C63.8104 56.5552 63.0961 56.5552 63.0961 57.2695L62.3818 57.9838V58.6981V59.4124C62.3818 59.4124 62.3818 60.1266 63.0961 60.1266L63.8104 60.8409H64.5247Z" fill="white"/>
<path fill-rule="evenodd" clip-rule="evenodd" d="M45.9532 64.4125L100.953 170.841C100.953 171.555 101.667 171.555 101.667 171.555C102.382 171.555 102.382 172.27 103.096 172.27C103.81 172.27 103.81 172.27 104.525 171.555C105.239 171.555 105.239 170.841 105.239 170.841L138.81 108.698L160.239 64.4125V63.6982V62.9839C160.239 62.9839 160.239 62.2696 159.525 62.2696L158.81 61.5554H158.096H157.382C157.382 61.5554 156.667 61.5553 156.667 62.2696L155.953 62.9839L134.525 107.27L103.096 164.413L50.9532 62.2696C50.9532 61.5553 50.2389 61.5554 49.5246 60.8411C48.8103 60.8411 48.0961 60.8411 47.3818 60.8411C46.6675 60.8411 46.6675 61.5553 45.9532 62.2696C45.2389 62.9839 45.2389 63.6982 45.9532 64.4125Z" fill="white"/>
<path fill-rule="evenodd" clip-rule="evenodd" d="M71.6675 111.555H132.382C133.096 111.555 133.81 111.555 133.81 110.841C134.525 110.127 134.525 109.412 134.525 109.412C134.525 108.698 134.525 107.984 133.81 107.984C133.096 107.984 132.382 107.27 132.382 107.27H71.6675H70.9532C70.9532 107.27 70.2389 107.27 70.2389 107.984L69.5247 108.698V109.412V110.127C69.5247 110.127 69.5247 110.841 70.2389 110.841L70.9532 111.555C71.6675 111.555 71.6675 111.555 71.6675 111.555Z" fill="white"/>
</svg>
