<svg fill="none" height="200" viewBox="0 0 200 200" width="200" xmlns="http://www.w3.org/2000/svg" xmlns:xlink="http://www.w3.org/1999/xlink"><linearGradient id="a" gradientUnits="userSpaceOnUse" x1="40.3626" x2="159.637" y1="159.637" y2="40.3626"><stop offset="0" stop-color="#4c80e9"/><stop offset="1" stop-color="#91d2f5"/></linearGradient><path d="m100 15.6611c-46.5779 0-84.3389 37.761-84.3389 84.3389 0 46.578 37.761 84.339 84.3389 84.339 46.578 0 84.339-37.761 84.339-84.339 0-46.5779-37.759-84.3389-84.339-84.3389zm0 122.3959c-20.9836 0-38.0569-17.073-38.0569-38.057 0-20.9836 17.0733-38.0569 38.0569-38.0569 20.984 0 38.057 17.0733 38.057 38.0569 0 20.984-17.073 38.057-38.057 38.057zm-75.0069-38.057c0-39.7919 31.1506-72.4297 70.3457-74.8481v27.6878c-23.9844 2.3438-42.7277 22.5599-42.7277 47.1579 0 24.5984 18.7433 44.8164 42.7277 47.1574v27.688c-39.1927-2.418-70.3433-35.056-70.3433-74.8478zm79.6679 74.848v-27.688c23.985-2.344 42.728-22.56 42.728-47.158 0-24.5976-18.743-44.816-42.728-47.1575v-27.6926c39.193 2.4184 70.344 35.0562 70.344 74.8481 0 39.792-31.151 72.43-70.344 74.848z" fill="url(#a)"/></svg>