<svg fill="none" height="200" viewBox="0 0 200 200" width="200" xmlns="http://www.w3.org/2000/svg"><path d="m100 16c46.396 0 84 37.6114 84 84 0 46.396-37.604 84-84 84-46.3886 0-84-37.608-84-84 0-46.3886 37.6114-84 84-84z" fill="#f5ac37"/><path d="m103.096 105.931h31.919c.68 0 1.001 0 1.05-.892.261-3.247.261-6.5133 0-9.7641 0-.6313-.313-.8921-.998-.8921h-63.5231c-.7863 0-.9979.2608-.9979.998v9.3442c0 1.206 0 1.206 1.2587 1.206zm29.405-22.4687c.091-.2381.091-.499 0-.7333-.533-1.1605-1.164-2.2681-1.898-3.3076-1.104-1.7766-2.404-3.4133-3.886-4.8838-.699-.8883-1.508-1.6859-2.415-2.3625-4.544-3.867-9.945-6.6037-15.752-7.9797-2.929-.6577-5.923-.9714-8.9242-.945h-28.1915c-.7863 0-.8921.3138-.8921.998v18.6355c0 .7863 0 .998.9979.998h60.5829s.525-.1059.631-.4196h-.257zm0 33.3887c-.892-.098-1.792-.098-2.684 0h-58.2202c-.7862 0-1.0508 0-1.0508 1.051v18.22c0 .839 0 1.051 1.0508 1.051h26.8799c1.2852.098 2.5703.007 3.8293-.261 3.901-.28 7.738-1.126 11.397-2.521 1.33-.461 2.615-1.062 3.829-1.784h.367c6.301-3.278 11.419-8.426 14.647-14.746 0 0 .367-.794-.045-1.002zm-72.5051 29.768v-.314-12.232-4.146-12.339c0-.684 0-.786-.8392-.786h-11.393c-.6313 0-.8921 0-.8921-.839v-9.975h12.1793c.6804 0 .945 0 .945-.893v-9.8692c0-.6313 0-.7863-.8392-.7863h-11.393c-.6313 0-.8921 0-.8921-.8391v-9.2385c0-.5783 0-.7333.8392-.7333h11.2871c.7863 0 .998 0 .998-.9979v-28.2974c0-.8391 0-1.0508 1.0508-1.0508h39.3733c2.857.1134 5.696.4271 8.505.945 5.787 1.0697 11.347 3.1374 16.432 6.0896 3.371 1.9845 6.475 4.3811 9.238 7.1405 2.079 2.1584 3.954 4.4945 5.617 6.9817 1.652 2.5213 3.024 5.2165 4.101 8.0326.133.7334.836 1.2285 1.569 1.1038h9.397c1.206 0 1.206 0 1.259 1.1567v8.6109c0 .8392-.314 1.0509-1.157 1.0509h-7.246c-.733 0-.945 0-.892.945.287 3.1979.287 6.4068 0 9.6048 0 .892 0 .998 1.002.998h8.289c.367.473 0 .945 0 1.421.053.609.053 1.225 0 1.834v6.354c0 .892-.261 1.157-1.051 1.157h-9.922c-.692-.133-1.365.31-1.524.998-2.362 6.142-6.142 11.65-11.026 16.065-1.784 1.606-3.659 3.118-5.617 4.513-2.102 1.21-4.147 2.469-6.301 3.466-3.966 1.785-8.124 3.1-12.391 3.935-4.053.726-8.161 1.055-12.2855.998h-36.4357v-.053z" fill="#fefefd"/></svg>