<svg fill="none" height="200" viewBox="0 0 200 200" width="200" xmlns="http://www.w3.org/2000/svg"><path d="m100 184c46.392 0 84-37.608 84-84 0-46.3919-37.608-84-84-84-46.3919 0-84 37.6081-84 84 0 46.392 37.6081 84 84 84z" fill="#012f61"/><path d="m82.3389 55.1019v35.4397c0 1.1988 1.1326 2.1728 2.3249 2.1728s2.325-.974 2.325-2.1728v-33.6265c2.1464-.3747 4.5608-.5695 6.9156-.5695 22.6236 0 41.1486 17.0679 43.1756 39.6805.105 1.1988 1.133 2.0829 2.31 1.963 1.193-.1049 2.057-1.1538 1.938-2.3526-1.058-11.8833-6.483-22.8973-15.261-30.9892-8.823-8.1518-20.299-12.6473-32.2819-12.6473-3.2341 0-6.528.3297-9.6727.974-.9985.2098-1.7735 1.0939-1.7735 2.1279z" fill="#fff"/><path d="m95.3389 144.843v.15c.0886 1.194 1.1073 2.09 2.2885 2.001 11.2066-.807 21.8076-5.676 29.8246-13.681s12.948-18.654 13.879-29.96c.103-1.195-.768-2.24-1.949-2.345-1.182-.104-2.215.777-2.318 1.972-1.757 21.118-18.84 38.189-39.7467 39.698-1.1073.089-1.9784 1.045-1.9784 2.165z" fill="#fff"/><path d="m91.3389 63.1607v35.0041c0 1.1922.9661 2.1612 2.1738 2.1612 1.2076 0 2.1737-.969 2.1737-2.1612v-32.7688c17.7526 1.1176 32.2896 15.915 32.2896 33.9461 0 8.1069-2.928 15.9449-8.257 22.0989-.785.909-.679 2.265.241 3.04.921.775 2.295.671 3.08-.238 6.008-6.929 9.299-15.766 9.299-24.9009 0-10.2375-4.046-19.864-11.382-27.1062-7.337-7.2422-17.089-11.2359-27.4594-11.2359-1.1775 0-2.1587.9686-2.1587 2.1607z" fill="#99d7fd"/><g fill="#fff"><path d="m95.3389 125.866c0 .088 0 .176.0145.265.1453 1.161 1.1916 1.999 2.3396 1.852 14.052-1.749 24.646-13.88 24.646-28.2154 0-5.896-1.773-11.5568-5.115-16.3646-3.27-4.6904-7.804-8.2486-13.093-10.2629-.64-.25-1.41-.1618-1.977.2352-.566.397-.944 1.0587-.944 1.7497v30.083c0 1.176.93 2.132 2.092 2.132 1.163 0 2.093-.956 2.093-2.132v-26.76c7.673 4.161 12.686 12.38 12.686 21.3196 0 12.1894-8.981 22.4964-20.9111 23.9814-1.0754.147-1.831 1.058-1.831 2.117z"/><path d="m84.339 98c2.7615 0 4.9999-2.2386 4.9999-5s-2.2384-5-4.9999-5-5.0001 2.2386-5.0001 5 2.2386 5 5.0001 5z"/><path d="m95.3389 150c2.7614 0 5.0001-2.239 5.0001-5s-2.2387-5-5.0001-5c-2.7615 0-5 2.239-5 5s2.2385 5 5 5z"/></g></svg>