<svg fill="none" height="200" viewBox="0 0 200 200" width="200" xmlns="http://www.w3.org/2000/svg" xmlns:xlink="http://www.w3.org/1999/xlink"><mask id="a" height="130" maskUnits="userSpaceOnUse" width="124" x="38" y="35"><path d="m161.149 35h-122.2388v130h122.2388z" fill="#fff"/></mask><g fill="#e6007a" mask="url(#a)"><path d="m100.025 62.2665c12.946 0 23.441-6.1038 23.441-13.6332 0-7.5295-10.495-13.6333-23.441-13.6333-12.9461 0-23.441 6.1038-23.441 13.6333 0 7.5294 10.4949 13.6332 23.441 13.6332z"/><path d="m100.025 164.991c12.946 0 23.441-6.104 23.441-13.634 0-7.529-10.495-13.633-23.441-13.633-12.9461 0-23.441 6.104-23.441 13.633 0 7.53 10.4949 13.634 23.441 13.634z"/><path d="m67.3586 81.1383c6.4732-11.2115 6.4311-23.3541-.0939-27.1213-6.5249-3.7673-17.0618 2.2673-23.5349 13.4788-6.4731 11.2112-6.4311 23.354.0938 27.1211 6.5249 3.7674 17.0619-2.2674 23.535-13.4786z"/><path d="m156.311 132.494c6.473-11.211 6.434-23.352-.086-27.116-6.521-3.765-17.054 2.272-23.527 13.483s-6.435 23.352.086 27.117c6.52 3.764 17.054-2.272 23.527-13.484z"/><path d="m67.2678 145.975c6.5247-3.768 6.5668-15.91.0939-27.122-6.4733-11.211-17.0102-17.246-23.5351-13.479-6.5249 3.768-6.567 15.91-.0939 27.122 6.4731 11.211 17.0101 17.246 23.5351 13.479z"/><path d="m156.23 94.62c6.521-3.7648 6.559-15.9053.086-27.1167s-17.006-17.2481-23.527-13.4834c-6.52 3.7647-6.559 15.9053-.086 27.1168 6.473 11.2112 17.007 17.2478 23.527 13.4833z"/></g></svg>