<svg fill="none" height="200" viewBox="0 0 200 200" width="200" xmlns="http://www.w3.org/2000/svg" xmlns:xlink="http://www.w3.org/1999/xlink"><linearGradient id="a" gradientUnits="userSpaceOnUse" x1="23.5261" x2="183.726" y1="123.516" y2="85.8856"><stop offset="0" stop-color="#ff6c2e"/><stop offset="1" stop-color="#f3725a" stop-opacity="0"/></linearGradient><linearGradient id="b" gradientUnits="userSpaceOnUse" x1="151.471" x2="22.4508" y1="56.8556" y2="154.696"><stop offset="0" stop-color="#ffa756"/><stop offset="1" stop-color="#f8765e" stop-opacity="0"/></linearGradient><path d="m100 184c46.392 0 84-37.608 84-84 0-46.3919-37.608-84-84-84-46.3919 0-84 37.6081-84 84 0 46.392 37.6081 84 84 84z" fill="#ed6c53"/><path d="m100 184c46.392 0 84-37.608 84-84 0-46.3919-37.608-84-84-84-46.3919 0-84 37.6081-84 84 0 46.392 37.6081 84 84 84z" fill="#f3725a"/><path d="m100 184c46.392 0 84-37.608 84-84 0-46.3919-37.608-84-84-84-46.3919 0-84 37.6081-84 84 0 46.392 37.6081 84 84 84z" fill="url(#a)"/><path d="m99.8625 177.274c42.7535 0 77.4115-34.659 77.4115-77.4118 0-42.7533-34.658-77.4118-77.4115-77.4118-42.7534 0-77.4118 34.6585-77.4118 77.4118 0 42.7528 34.6584 77.4118 77.4118 77.4118z" fill="url(#b)"/><path clip-rule="evenodd" d="m88.5884 145c5.8187 0 12.4726-1.483 19.2246-4.257.212-.085.422-.176.631-.27.192-.086.383-.174.571-.262l.084-.038.014-.007c2.852-.709 5.819-1.68 8.784-2.914 19.049-7.878 27.098-20.459 28.265-29.714 1.404-11.3239-5.752-22.1532-14.747-30.277-4.278-5.0153-9.582-9.4054-14.851-12.7931-6.674-4.3049-13.509-7.2548-19.5203-8.6137-5.9898-1.3547-11.2539-1.1492-14.7045.9843-3.3151 2.0391-5.7538 5.9173-7.4365 11.718-2.4576 2.8697-4.2667 7.212-5.5012 13.1095-1.2467 5.9556-1.9141 13.5384-2.046 22.879-.1331 9.77.5344 17.765 2.0081 23.933 1.4714 6.158 3.7602 10.555 6.9244 13.051 2.8926 2.285 7.1683 3.471 12.3004 3.471zm23.7406-13.438c6.246-2.586 11.316-5.681 15.362-9.003-3.948 5.236-10.268 10.493-19.614 14.622-2.081.5-4.089.847-5.992 1.039-1.991.201-3.8685.232-5.5971.094-3.3935-.27-6.1821-1.189-8.141-2.728l-.2292-.191c1.5396.275 3.2056.426 4.9846.426 5.8186 0 12.4747-1.486 19.2267-4.259zm20.564-20.936c-.042.404-.107.814-.189 1.236-.077.391-.17.792-.277 1.208-4.112 5.592-10.945 11.264-21.3 15.56-5.313 2.199-10.463 3.505-15.007 3.915-4.4792.403-8.3366-.067-11.1834-1.378-3.0345-5.898-4.5093-15.933-4.3058-30.07.1309-8.9166.7604-16.1681 1.8963-21.8211 1.1114-5.5316 2.6991-9.4872 4.7397-11.9806 6.3732.4647 14.7532 3.6096 23.0552 8.9747 6.033 3.893 12.106 9.1291 16.454 15.0793 4.352 5.953 6.949 12.5797 6.117 19.2767zm-20.842-37.0075c-7.334-4.7269-14.8654-7.8273-21.2867-8.9715.7211-.2916 1.5351-.5086 2.4419-.647.7771-.1187 1.6225-.1797 2.5336-.1797 6.7042 0 15.9372 3.3525 24.7242 9.0193 2.991 1.9171 5.982 4.183 8.77 6.7093 5.547 6.5468 9.147 14.1905 8.203 21.8981-.192 1.549-.602 3.212-1.27 4.931-.465-6.298-3.36-12.3431-7.476-17.7297-4.554-5.9628-10.627-11.1511-16.64-15.0298zm-34.2803-3.5376c.5411-.5559 1.1281-1.0299 1.7364-1.4008.5099-.3169 1.0778-.5806 1.7018-.791.6507-.2191 1.3641-.3812 2.1367-.4856-1.8203 3.0295-3.19 7.129-4.1493 12.3558-1.0466 5.697-1.6124 12.7623-1.7297 21.2957-.1533 10.437.6227 18.845 2.3256 25.17-1.401-2.435-2.5057-5.695-3.2951-9.787-1.0689-5.544-1.553-12.572-1.4356-21.0605.1453-10.8612 1.0432-19.258 2.7092-25.2966zm12.401-11.9795c4.7821 0 10.8793 1.7188 17.1873 4.784-2.836-.9602-5.559-1.6177-8.0814-1.9507-4.5798-.6036-8.5603-.1433-11.341 1.5936-.7458.4593-1.4055.9959-2.054 1.6293-2.3749-.0291-4.5195.2934-6.3263.9992 1.25-2.7152 2.7696-4.567 4.4959-5.6278 1.4894-.9382 3.5333-1.4276 6.1195-1.4276zm-8.0884 75.0826.1542.096c.1364.084.2762.167.4171.248 1.0644 1.867 2.3111 3.375 3.7445 4.511 2.1446 1.698 5.0472 2.776 8.4922 3.23-3.095.539-5.9764.702-8.529.495-3.3801-.274-6.1552-1.194-8.0996-2.719-2.6343-2.09-4.6414-5.987-5.9485-11.77-1.3047-5.77-1.8974-13.35-1.7666-22.718.1275-9.1642.7895-16.5596 1.988-22.2758-.3655 3.9023-.5813 8.2491-.6373 13.0551-.1475 9.7697.5199 17.7657 1.997 23.9327 1.4759 6.158 3.7725 10.555 6.9357 13.051l.0088.006c.3075.231.6229.454.9505.669zm58.4827-31.337c.372-3.0523.126-6.0712-.608-9.0058 2.41 4.5852 3.636 9.4468 3.019 14.3248-.853 6.823-6.113 15.95-18.131 23.104 5.755-5.208 9.085-10.842 10.497-15.849 3.115-4.372 4.745-8.759 5.223-12.574z" fill="#fff" fill-rule="evenodd"/></svg>