<svg fill="none" height="200" viewBox="0 0 200 200" width="200" xmlns="http://www.w3.org/2000/svg"><path clip-rule="evenodd" d="m53.625 47h92.75v50.3991c0 7.4979-1.766 19.2939-8.174 30.2689-6.467 11.076-17.584 21.165-38.201 25.332-20.6152-4.167-31.7329-14.254-38.2024-25.33-6.4077-10.978-8.1726-22.774-8.1726-30.2734zm89.437 3.3125v47.0841c0 14.1664-6.267 44.5634-43.062 52.2904-36.7946-7.727-43.0625-38.124-43.0625-52.2904v-47.0841z" fill="#00b6fa" fill-rule="evenodd"/><path d="m143.062 50.3125h-86.1245v47.0841c0 14.1664 6.2679 44.5634 43.0625 52.4564 36.795-7.893 43.062-38.29 43.062-52.4564z" fill="#142d51"/><path d="m132.463 62.582h-64.9254v21.3781l44.1184 36.2259-4.125 3.39-39.9934-32.8408v6.7777c0 14.1661 7.7843 35.7901 32.4624 39.9051 20.988-3.498 29.757-19.663 31.91-33.135.046-.29-43.5657-36.2229-43.5657-36.2229h8.25l35.8687 29.4503z" fill="#10a0ec"/></svg>