<svg width="400" height="400" viewBox="0 0 400 400" fill="none" xmlns="http://www.w3.org/2000/svg">
<path fill-rule="evenodd" clip-rule="evenodd" d="M25 0H375V190.185C375 218.48 368.336 262.992 344.156 304.408C319.75 346.205 277.801 384.275 200 400C122.207 384.277 80.2539 346.211 55.8398 304.414C31.6602 262.988 25 218.477 25 190.176V0ZM362.5 12.5V190.176C362.5 243.633 338.848 358.34 200 387.5C61.1523 358.34 37.5 243.633 37.5 190.176V12.5H362.5Z" fill="#00B6FA"/>
<path d="M362.5 12.5H37.5V190.176C37.5 243.633 61.1523 358.34 200 388.125C338.848 358.34 362.5 243.633 362.5 190.176V12.5Z" fill="#142D51"/>
<path d="M322.5 58.8003H77.5V139.473L243.984 276.172L228.418 288.965L77.5 165.039V190.614C77.5 244.071 106.875 325.673 200 341.2C279.2 328.001 312.289 267 320.415 216.163C320.59 215.069 156.016 79.4728 156.016 79.4728H187.148L322.5 190.606L322.5 58.8003Z" fill="#10A0EC"/>
</svg>
