<svg fill="none" height="200" viewBox="0 0 200 200" width="200" xmlns="http://www.w3.org/2000/svg"><path d="m77.7806 89.2484s16.7152-9.8522 18.2202-17.6252c1.5049-7.7731-5.6762-21.2551-21.7252-21.328s-23.1933 15.4549-24.6601 23.3677c-1.4668 7.9127-6.328 28.7641 28.1651 15.5855z" fill="#000" stroke="#00ff0d" stroke-linecap="round" stroke-linejoin="round" stroke-width="3.31738"/><path d="m76.1282 68.2668c-2.4649-3.2031-11.6447 3.5949-8.5742 6.3925 2.4253 2.2098 10.4834-3.9124 8.5742-6.3925z" fill="#0f0"/><path d="m132.334 87.4006s15.445-9.4594 16.836-16.9226c1.39-7.4632-5.245-20.4078-20.074-20.4778-14.83-.0699-21.431 14.8389-22.786 22.4362s-5.847 27.6176 26.024 14.9642z" fill="#000" stroke="#00ff0d" stroke-linecap="round" stroke-linejoin="round" stroke-width="3.31738"/><path d="m133.12 66.4256c-1.602-2.8144-6.629 3.733-3.989 5.6287 2.913 2.0925 5.5-2.9748 3.989-5.6287z" fill="#0f0"/><path d="m123.273 70.5553c-1.602-2.8144-7.68 3.889-5.04 5.7847 2.912 2.0926 6.551-3.1308 5.04-5.7847z" fill="#0f0"/><path d="m64.4254 141.452s6.6786-6.986 7.7733-13.469c1.0947-6.484-2.4517-21.109-10.701-21.434-8.2492-.325-11.4727 12.716-12.2136 19.975-.7422 7.263-2.3026 27.021 15.1413 14.928z" fill="#000" stroke="#00ff0d" stroke-linecap="round" stroke-linejoin="round" stroke-width="3.31738"/><path d="m87.403 141.258s6.6786-6.986 7.7732-13.47c1.0947-6.484-2.4517-21.109-10.7009-21.434s-11.4728 12.716-12.2137 19.976c-.7422 7.262-2.3025 27.021 15.1414 14.928z" fill="#000" stroke="#00ff0d" stroke-linecap="round" stroke-linejoin="round" stroke-width="3.31738"/><path d="m82.0314 128.823c-1.9565-1.412.5094-7.819 3.0152-6.117 2.2691 1.54-.4811 7.748-3.0152 6.117z" fill="#0f0"/><path d="m61.3268 123.352c2.2151 1.976-1.5912 7.606-2.8852 6.625-1.8266-1.387.8258-8.462 2.8852-6.625z" fill="#0f0"/><g fill="#000" stroke="#00ff0d" stroke-linecap="round" stroke-linejoin="round" stroke-width="3.31738"><path d="m111.365 134.388c2.806-.661 6.831-3.902 7.413-6.945.583-3.043 1.599-12.293-8.089-12.685-6.21-.252-8.826 6.804-8.985 10.563-.151 3.547.657 10.1 9.661 9.067z"/><path d="m110.839 124.115c.913-1.495-.803 1.313 0 0z"/><path d="m145.424 134.477c4.379-.665 5.834-3.63 6.764-6.853.929-3.223 1.888-12.418-7.801-12.806-6.209-.248-8.826 6.715-8.985 10.422-.15 3.501 1.708 10.501 10.022 9.237z"/><path d="m144.537 124.176c.914-1.496-.802 1.312 0 0z"/><path d="m135.849 151.345s5.288-2.473 6.764-6.786c1.476-4.314-1.108-12.263-7.52-12.277-6.213-.013-9.106 6.242-9.265 9.913-.151 3.469 1.018 10.16 10.021 9.15z"/><path d="m134.963 141.231c.913-1.496-.803 1.312 0 0z"/><path d="m117.744 151.569c4.681-.78 6.291-3.818 7.247-6.844.955-3.025 3.041-12.349-6.728-12.648-6.211-.19-8.826 6.624-8.985 10.282-.151 3.453-.538 10.217 8.466 9.21z"/><path d="m118.413 141.434c.913-1.496-.803 1.312 0 0z"/><path d="m127.345 134.268c4.547-1.162 7.76-4.079 7.953-8.162.192-4.083 1.628-9.454-7.884-10.964-6.152-.977-8.204 6.335-8.332 10.189-.115 3.42 3.038 10.273 8.263 8.937z"/><path d="m127.34 123.917c.914-1.495-.802 1.313 0 0z"/><path d="m119.976 116.955c3.891-1.141 6.58-3.635 8.074-7.152 1.493-3.518 1.706-11.6736-7.885-12.1476-6.208-.3072-8.996 6.9706-8.985 10.8286.01 3.522 1.361 8.42 8.796 8.471z"/><path d="m120.315 107.012c.914-1.495-.802 1.313 0 0z"/><path d="m137.17 117.102c2.507-.257 5.722-2.247 7.448-6.334 1.727-4.086-1.133-13.142-7.8-13.3055-6.212-.152-8.102 6.4805-8.212 10.3345-.102 3.597.746 9.393 8.564 9.305z"/><path d="m136.968 106.82c.914-1.496-.802 1.312 0 0z"/></g></svg>