<svg fill="none" height="200" viewBox="0 0 200 200" width="200" xmlns="http://www.w3.org/2000/svg"><path d="m100.329 46.4981c-.28-.8216 1.321-.4808 1.48-.0187 1.886 2.6891 4.412 4.8739 6.144 7.6796.079.0981.238.2988.312.4015.098.0981.295.2988.393.3968.084.0887.242.2661.326.3548.463.5276.962 1.0318 1.317 1.6433.075.0981.229.2988.303.4015.094.1027.285.3035.383.4062.084.0887.248.2661.327.3548.611.6816 1.288 1.3165 1.774 2.0961.07.0934.205.2801.275.3735.075.0887.224.2614.299.3454.602.6816 1.293 1.3072 1.774 2.0915.075.098.229.2988.304.4015.098.098.289.3034.387.4015.084.0887.243.2661.327.3548.462.5275.962 1.0317 1.316 1.6433.075.098.229.2988.304.4015.093.1027.285.3034.383.4061.084.0887.247.2661.326.3548.612.6816 1.289 1.3165 1.774 2.0962.07.0933.206.2801.276.3734.075.0887.224.2615.299.3455.602.6816 1.288 1.3072 1.774 2.0915.074.098.228.2987.303.4014.098.0981.29.3035.388.4015.084.0887.242.2661.326.3548.463.5276.962 1.0318 1.317 1.6433.075.0981.229.2988.303.4015.094.1027.285.3035.383.4062.084.0887.248.2661.327.3548.611.6816 1.288 1.3165 1.774 2.0961.07.0934.205.2801.275.3735.075.0887.224.2567.299.3454.602.6816 1.289 1.3072 1.774 2.0868.075.0981.224.2942.304.3969.098.0933.303.2894.406.3874l.028.3268c-.327.0514-.971.1634-1.298.2194-.789-.0606-1.578-.1307-2.367-.224-.728-.0654-2.185-.2008-2.913-.2661l-.332.0793c-.788-.0887-1.573-.1587-2.362-.2427-.686-.5696-1.629-.4996-2.432-.2615l-.336.0654c-.784-.098-1.573-.1774-2.358-.2661-.653-.6443-1.615-.4855-2.409-.2614-.91-.0654-1.82-.1214-2.726-.1914-.64-.6676-1.615-.4949-2.409-.2755-.91-.0653-1.821-.1167-2.726-.1774-.495-.5835-1.312-.5229-1.97-.3174l-.355.0513c-.794-.0653-1.592-.112-2.39-.1494-.243-.098-.729-.3034-.971-.4061.065-4.8552.06-9.7104.037-14.5656.215-6.0736-.742-12.1053-.467-18.1836z" fill="#9e60bf"/><path d="m70.7637 81.7028c9.7384-11.7878 19.6261-23.6737 29.5653-35.2048-.275 6.0784.682 12.11.467 18.1836-.304.0467-.9199.1494-1.2233.1961-.4902 3.2959-3.3987 5.2287-6.2651 6.3865-2.8524 1.2278-6.0456 2.0027-8.3145 4.2623-2.4136 1.9747-5.5414 3.2445-7.5209 5.6488-2.2175.084-4.5097 1.013-6.7085.5275z" fill="#8049a1"/><path d="m104.12 79.8028.355-.0513.047.2707c-.098-.056-.299-.1634-.402-.2194z" fill="#8049a1"/><path d="m119.073 81.2407.336-.0654.047.2287c-.093-.042-.289-.1213-.383-.1633z" fill="#8049a1"/><path d="m124.204 81.6795.331-.0794.042.2568c-.093-.0467-.28-.1354-.373-.1774z" fill="#8049a1"/><g fill="#8554a5"><path d="m99.5731 64.8777c.3034-.0467.9199-.1494 1.2229-.1961.024 4.8552.028 9.7104-.037 14.5656l-.369.0327c-.8496.0373-2.5536.1167-3.4032.154-.0747.0047-.2241.0187-.2988.0234-1.6153.14-3.2259.2007-4.8319.4248-.0747.0093-.2287.028-.3034.0374-1.4566.1633-2.9131.2334-4.365.4341-.0747.0094-.2288.028-.3081.0374-3.1419.1634-6.2604.6209-9.4069.7843 1.9794-2.4043 5.1072-3.6741 7.5208-5.6489 2.2689-2.2595 5.4621-3.0344 8.3145-4.2622 2.8665-1.1578 5.7749-3.0906 6.2651-6.3865z"/><path d="m100.759 79.2473c.243.1027.728.3081.971.4062-.229-.0187-.686-.0607-.915-.0794z"/><path d="m104.475 79.7515c.658-.2055 1.475-.2661 1.97.3174-.659.2148-1.298.1961-1.924-.0467z"/><path d="m109.171 80.2463c.794-.2194 1.769-.3921 2.409.2755-.794.2241-1.774.3968-2.409-.2755z"/><path d="m114.307 80.7132c.793-.2241 1.755-.3829 2.409.2614-.794.2427-1.774.4201-2.409-.2614z"/><path d="m119.409 81.1753c.803-.2381 1.746-.3081 2.432.2614-.775.1681-1.638.3548-2.385-.0327z"/><path d="m124.535 81.6001c.728.0654 2.185.2007 2.913.2661-.915.3268-1.984.5042-2.871-.0093z"/><path d="m129.815 82.0903c.327-.0561.971-.1681 1.298-.2195l.299.0794c.196.7983-1.182.7516-1.606.4248z"/></g><path d="m96.9866 79.4341c.8497-.0374 2.5536-.1167 3.4034-.1541.107.0747.317.2194.425.2941.228.0187.686.0607.915.0794.798.0374 1.596.084 2.39.1494.103.056.303.1634.401.2194.626.2428 1.266.2614 1.924.0467.906.0607 1.816.112 2.726.1774.635.6723 1.616.4995 2.409.2754.906.0701 1.816.1261 2.727.1914.634.6816 1.615.5042 2.408.2615.785.0887 1.574.168 2.358.2661.093.042.289.1214.383.1634.747.3875 1.61.2007 2.385.0327.789.084 1.574.154 2.363.2427.093.042.28.1307.373.1774.887.5135 1.956.3361 2.871.0093.789.0934 1.578.1634 2.367.2241l-.009.2848c-9.804.8917-19.645 1.3492-29.467 2.0028-9.9442-.5602-19.8927-1.3399-29.8458-1.9514.07-.1774.2007-.5416.2707-.7236 2.1989.4855 4.4911-.4435 6.7086-.5276 3.1465-.1634 6.265-.6209 9.4069-.7843.0794-.0093.2334-.028.3081-.0373 1.4519-.2008 2.9085-.2708 4.365-.4342.0747-.0093.2288-.028.3035-.0373 1.6059-.2241 3.2165-.2848 4.8318-.4249.0747-.0046.2241-.0186.2988-.0233z" fill="#5e3b57" opacity=".97"/><path d="m100.39 79.28.368-.0327.056.3268c-.107-.0747-.317-.2194-.424-.2941z" fill="#695c58" opacity=".97"/><path d="m131.085 81.5442c.079.098.243.3034.327.4061l-.299-.0793z" fill="#5a5159"/><path d="m95.6699 85.2836c.3922-1.027 2.5817-.2521 3.6881-.4341l.0794.4295c-1.2605.0046-2.5163.0093-3.7675.0046z" fill="#3f9c81" opacity=".68"/><path d="m99.358 84.8494h.91c.453 4.2016 2.755 7.7916 4.323 11.6244.827 1.8907 1.774 3.7352 2.909 5.4622.481 1.27 2.213.588 3.086-.009 1.993.406 1.652 2.917 1.83 4.463-.299-.682-.575-1.373-.883-2.045-.691-.808-2.273.285-3.305.191-.443-.532-.878-1.069-1.349-1.568-.481-.901-.943-1.807-1.401-2.713-.56-1.4423-1.157-2.8662-1.783-4.2807-.243-.775-.761-1.4192-1.41-1.9001-.089.6863-.168 1.3725-.233 2.0635-.262-.9711-.5-1.9514-.878-2.8805-2.0775-.098-3.52 1.7134-5.154 2.7124.7143-1.5593 2.1055-2.619 3.436-3.632 1.797-1.1111.826-4.0803.556-5.7702-.1825-.4342-.3739-.8637-.5747-1.2885z" fill="#c1fa63"/><path d="m100.269 84.8495c.966-.0327 1.97-.1494 2.908.1587l.075.2661c.112.3922.219.7843.326 1.1811-.359.7423.197 1.4519.416 2.1522.952 2.0681 1.634 4.4443 3.483 5.9382 1.82 1.2932 3.198-2.0821 4.649-.971.253 2.4836.542 4.9952.29 7.4932-.616.28-1.275.467-1.83.859-.873.597-2.605 1.279-3.086.009-1.134-1.727-2.082-3.5714-2.908-5.4621-1.569-3.8328-3.871-7.4228-4.323-11.6244z" fill="#f4f358"/><path d="m103.177 85.0081c.859-.3502 2.689-.6396 3.156.2567-.771 0-2.311.0047-3.082.0094z" fill="#9a3a89" opacity=".67"/><path d="m87.8223 85.8391c2.5444-.7283 5.224-.5369 7.8477-.5556 1.2512.0047 2.507 0 3.7674-.0047.2008.4249.3922.8544.5746 1.2885-.047 1.9328-.0517 3.8935-.5559 5.7702-1.3305 1.0131-2.7217 2.0728-3.436 3.6321-.957 1.8347-1.1671 3.9822-1.4052 6.0174-.168 1.237-.3221 2.493-.4575 3.735-.4808 2.88-.3081 5.803-.4295 8.707l-.3454.018c-.2615-.051-.775-.149-1.0318-.2-.5135-2.671-.5555-5.425-1.1857-8.072-.0654-.29-.1915-.864-.2568-1.153-.2848-2.213.1494-5.2149-1.4659-6.9516-1.5873.3034-3.3053-.8123-3.2026-2.4556.0607-.9197.1168-1.8394.1821-2.7591.3922-2.3575 1.0784-4.6497 1.4005-7.0166z" fill="#6cf9e2"/><path d="m103.251 85.2742c.771-.0046 2.311-.0093 3.082-.0093.387.014 1.157.042 1.545.0513-.518.6023-1.097 1.1672-1.522 1.8441 1.2 2.5443 4.267 1.5779 6.512 1.4145.733.9617.967 2.1755 1.42 3.2726.014.8123.051 2.4369.065 3.2492h-.467l-.476-.014c-.009-.3221-.033-.971-.042-1.2931.219-1.4566-.383-2.8151-1.438-3.7955-.934.3688-1.667 1.0644-2.455 1.6573-1.873.8824-2.769-.915-4.09-1.6526-.705-1.1298-1.088-2.4229-1.807-3.5434-.107-.3968-.214-.7889-.327-1.1811z" fill="#fa5bd7"/><path d="m107.878 85.3161c4.15-.0653 8.282.5882 12.432.5322.135.0981.406.2988.541.3968-.63 2.507-1.213 5.0746-2.455 7.3669-1.9.7843-2.801-.9711-4.108-1.7647-.453-1.0971-.687-2.3109-1.42-3.2726-2.245.1634-5.312 1.1298-6.512-1.4145.425-.677 1.004-1.2418 1.522-1.8441z" fill="#f844f2"/><path d="m80.8101 86.1425c.5602-.7702 2.2408-.4808 3.1372-.2427l-.0047.2661c-.2008.0373-.5976.1074-.7936.14-.7797-.056-1.5593-.1027-2.3389-.1634z" fill="#993380" opacity=".67"/><path d="m83.9475 85.8998.4809-.1354c.0047 2.521.1867 5.0699-.3315 7.5582-.056-2.3856-.0747-4.7711-.154-7.1567z" fill="#f6908e"/><path d="m84.4281 85.7645c.9711-.0467 1.9468-.0373 2.9178.028-.3548 1.8207-.8776 3.6134-1.1344 5.4575-.1914 1.2324-.3268 2.4836-.4622 3.73-.2054 1.5546-.3595 3.1232-.5042 4.6872-.2101 1.7698-.3034 3.5478-.2941 5.3318-.8637 1.666-1.3538 3.496-2.2595 5.139-.056-.966-.1214-1.932-.1261-2.899.2755-1.237.4529-2.479.5042-3.739.2288-1.27.4389-2.535.4202-3.8235.0233-.1914.0747-.5695.098-.761.2941-1.4518.4342-2.9177.3408-4.393.042-.2987.1261-.8963.1681-1.1998.5182-2.4882.3361-5.0372.3314-7.5582z" fill="#f1ef68"/><path d="m87.3463 85.7925.4762.0467c-.3221 2.3669-1.0084 4.6591-1.4005 7.0166-.0514-.4014-.1541-1.2044-.2101-1.6059.2568-1.844.7796-3.6367 1.1344-5.4574z" fill="#88f88e"/><path d="m70.0123 86.7308c1.9421.3034 3.7768-.2848 5.6582-.5042-.0934.915-.2988 1.8207-.6116 2.6843-.5042 1.2605-.9103 2.591-.7749 3.9635-1.3539 2.1288-1.634 5.5555-4.2483 6.5359-.028-1.7554-.028-3.5014-.0514-5.252-.014-2.4743-.0046-4.9533.028-7.4275z" fill="#f933e9"/><path d="m75.6703 86.2266c1.3959-.0467 2.8011-.0327 4.1969.0233-1.027 1.0551-1.774 2.3249-2.4369 3.6321-1.1951 1.6713-2.0308 3.6834-1.7833 5.7795-.4062 2.2969-.7983 4.6075-1.0784 6.9235l-.3502-.024c.0374-2.04.2568-4.0611.4248-6.0918-.3034.0373-.901.1167-1.1997.154-.8357 1.592-1.7974 3.2493-3.422 4.1498.0047-.34.014-1.0219.014-1.3627 2.6143-.9804 2.8944-4.407 4.2483-6.5358.6722-1.2185.957-2.577.7749-3.9636.3128-.8636.5182-1.7693.6116-2.6843z" fill="#f8a468"/><path d="m79.8673 86.25c.2381-.0234.7096-.0794.943-.1074.7797.0607 1.5593.1074 2.3389.1634-.9523 5.0792-2.5583 10.0932-2.4416 15.317-.1214 3.749.1914 7.488.5135 11.218-2.5489-.116-5.0699-.578-7.5722-1.064.0747-.317.2288-.952.3035-1.27.4061-1.097.4622-2.18.168-3.249.0561-.35.1774-1.06.2381-1.41.5089-1.106.5789-2.194.2101-3.263.2801-2.316.6723-4.6266 1.0784-6.9235.5509-1.942 1.5499-3.7627 1.7834-5.7795.6629-1.3072 1.4098-2.577 2.4369-3.632z" fill="#f94bf4"/><path d="m83.149 86.3061c.1961-.0327.5929-.1027.7936-.1401.0794 2.3856.0981 4.7712.1541 7.1567-.042.3035-.126.9011-.1681 1.1998-.2847 1.4473-.4108 2.9225-.3408 4.393-.0233.1915-.0747.5696-.098.761-.2007 1.2605-.3688 2.5395-.4202 3.8235-.2287 1.232-.4248 2.484-.5041 3.739-.4762 1.826-.7937 3.684-.9477 5.565l-.3969.038c-.3221-3.731-.6349-7.47-.5135-11.219-.1167-5.2237 1.4892-10.2377 2.4416-15.3169z" fill="#f863f0"/><path d="m120.852 86.2454.471-.0374c.211.4248.407.859.584 1.3025-.019 4.8739 1.162 9.6917.84 14.5845.229 2.32-.551 4.864.491 7.058.009.785.032 2.363.042 3.147-2.293.882-5.075.56-7.521 1.022-.322-6.069-.159-12.254-1.406-18.2253-.014-.8123-.051-2.4369-.065-3.2492 1.307.7936 2.208 2.549 4.108 1.7647 1.242-2.2922 1.826-4.8599 2.456-7.3668z" fill="#f856f6"/><path d="m121.323 86.2078c.771-.014 1.545-.014 2.32.0467.323 2.2922.705 4.5751 1.14 6.8439-.042 1.3259-.383 2.7171.182 3.9682.06.1821.177.5416.233.719.051 1.2885-.569 2.8154.36 3.8604.023.901.032 1.798.084 2.699-.08 1.708-.761 3.291-1.368 4.864-.243-3.492.172-7.063-.453-10.5178-.047-.1867-.14-.5695-.192-.7609.584-1.3632.472-2.479-.336-3.352-.266-2.3809-.518-4.8178-1.386-7.068-.178-.4435-.374-.8777-.584-1.3025z" fill="#ebee7a"/><path d="m123.644 86.2546c1.62.3268 3.874-.7236 5.228.5883-1.195 1.2324-2.483 2.3715-3.604 3.674.453 4.0943.304 8.7113 2.979 12.1151 1.634 2.082 1.918 4.822 3.291 7.044.028.598.056 1.195.075 1.793l-.435-.103c-.13-.201-.387-.607-.518-.807-.023-1.392-.775-2.582-1.312-3.819-.163-.453-.345-.897-.541-1.335-.327-1.27-1.835-1.238-2.591-2.073-.234-.56-.425-1.13-.658-1.685-.07-1.298.149-2.6382-.36-3.8613-.056-.1774-.173-.5369-.233-.7189-.005-1.3305.2-2.6751-.182-3.9682-.435-2.2689-.817-4.5518-1.139-6.844z" fill="#6ef5de"/><path d="m100.012 86.5674c.27 1.69 1.241 4.6591-.5559 5.7702.5041-1.8767.5088-3.8375.5559-5.7702z" fill="#7bf894"/><path d="m103.994 88.6075c-.219-.7003-.775-1.4099-.415-2.1522.718 1.1204 1.101 2.4136 1.806 3.5434.5.8076 1.499 2.4276 1.998 3.2399 2.47 1.3865 2.871-2.3669 4.949-1.8114.373.775.681 1.5779 1.036 2.3622.01.3222.033.9711.042 1.2932-.023.3782-.074 1.1298-.098 1.5079-.238-1.0924-.257-2.2922-1.186-3.0158-1.451-1.1111-2.829 2.2642-4.649.971-1.849-1.4939-2.531-3.8701-3.483-5.9382z" fill="#fab75f"/><path d="m128.872 86.8429c.392-.0607.658.2287.798.8683.878 3.2259.906 6.6105 1.83 9.8317.075.8917.108 1.788.131 2.6841-.033 3.147.042 6.298-.093 9.449-1.373-2.222-1.658-4.962-3.291-7.044-2.675-3.4038-2.526-8.0209-2.979-12.1151 1.12-1.3025 2.409-2.4416 3.604-3.674z" fill="#67f6f4"/><path d="m129.67 87.7111c-.313-1.1578.602-1.1204 1.452-1.0177.028 1.7506.159 3.4966.388 5.2333.028.789.088 2.3669.116 3.1559-.028.8169-.079 1.6386-.126 2.4602-.924-3.2212-.952-6.6058-1.83-9.8317z" fill="#dced7c"/><path d="m131.122 86.6934.49-.0047.01.4715c-.014 1.5873-.014 3.1792-.112 4.7665-.229-1.7366-.36-3.4826-.388-5.2333z" fill="#f681c0"/><path d="m131.622 87.1602.453-.0047c.014 2.647.074 5.294-.005 7.941l-.444-.014c-.028-.7889-.088-2.3669-.116-3.1558.098-1.5873.098-3.1792.112-4.7665z" fill="#c65bbc" opacity=".85"/><path d="m121.906 87.5105c.869 2.2502 1.121 4.6871 1.387 7.068-.64 1.3819-.528 2.5023.336 3.352.051.1914.145.5742.192.7609-.136 3.4876-.141 6.9746-.257 10.4576l-.327.004c-1.041-2.194-.261-4.738-.49-7.058.322-4.8928-.859-9.7106-.841-14.5845z" fill="#f86fe5"/><path d="m74.2841 92.8744c-.1353-1.3725.2708-2.703.775-3.9635.1821 1.3865-.1027 2.745-.775 3.9635z" fill="#fb4d9e"/><path d="m75.6471 95.6616c-.2475-2.0961.5882-4.1082 1.7833-5.7795-.2334 2.0167-1.2325 3.8374-1.7833 5.7795z" fill="#fb52a0"/><path d="m105.385 89.9988c1.321.7376 2.217 2.535 4.089 1.6526.789-.5929 1.522-1.2885 2.456-1.6573 1.055.9804 1.657 2.3389 1.438 3.7955-.355-.7843-.663-1.5873-1.037-2.3622-2.077-.5556-2.479 3.1978-4.948 1.8113-.5-.8123-1.499-2.4322-1.998-3.2399z" fill="#fa6a95"/><path d="m85.7495 94.9798c.1354-1.2464.2708-2.4976.4622-3.73.056.4014.1587 1.2044.2101 1.6059-.0654.9197-.1214 1.8394-.1821 2.7591l-.4622-.1541z" fill="#a6f87b"/><path d="m96.0199 95.9696c1.634-.999 3.0766-2.8104 5.1541-2.7124.378.9291.616 1.9094.878 2.8805.13.7796.247 1.5686.448 2.3389.14.6209.294 1.2418.462 1.8584.71 4.831 1.793 9.598 2.6 14.406-.257.084-.765.253-1.022.332-.794-5.238-1.816-10.443-3.011-15.6067-.346-1.0971-.864-2.2689-2.1244-2.5023-3.478 1.0784-3.3613 5.397-3.8935 8.361-.6256 1.121-.6956 2.227-.2194 3.333.154 1.999-.5276 4.193.3314 6.097-.2334-.023-.7002-.074-.9337-.098l-.0466-.359c.0466-4.099.2521-8.212-.0281-12.311.2381-2.0352.4482-4.1827 1.4052-6.0174z" fill="#eaef6d"/><path d="m124.782 93.0986c.383 1.2932.178 2.6377.182 3.9682-.565-1.2511-.224-2.6423-.182-3.9682z" fill="#a2f59d"/><path d="m112.127 93.5747c.929.7236.947 1.9234 1.185 3.0158.028 1.1064.196 2.1849.5 3.2399l.084.3546c-.014 1.77.103 3.53.35 5.285.037.313.112.938.149 1.251-.569 1.335-.462 2.456.318 3.361.093 1.083.28 2.152.551 3.208.327.98-1.289.289-1.802.406-.201-1.84-.472-3.684-1.018-5.448-.005-.621-.014-1.242-.028-1.858-.177-1.546.163-4.057-1.83-4.463.555-.393 1.214-.579 1.83-.859.252-2.4981-.037-5.0097-.289-7.4933z" fill="#ecec6f"/><path d="m69.5361 94.1629.4482-.0047c.0233 1.7507.0233 3.4967.0513 5.252 0 .3408-.0093 1.0228-.014 1.3628-.028 1.961-.0373 3.927.0093 5.897-.014 1.414-.0326 2.838-.0373 4.262l-.4528.037c-.0327-5.602-.0327-11.204-.0047-16.8061z" fill="#070603" opacity=".04"/><path d="m102.285 94.0742c.649.4809 1.167 1.1251 1.41 1.9001-1.709-1.2045-1.148 1.1437-1.195 2.5023-.201-.7703-.318-1.5593-.448-2.3389.065-.691.144-1.3772.233-2.0635z" fill="#a3f968"/><path d="m83.5883 98.9155c-.07-1.4706.056-2.9458.3408-4.393.0934 1.4752-.0467 2.9411-.3408 4.393z" fill="#f7999d"/><path d="m123.293 94.5784c.808.873.92 1.9887.336 3.3519-.864-.8496-.976-1.9701-.336-3.3519z" fill="#f692ae"/><path d="m85.2451 99.6671c.1447-1.5639.2988-3.1325.5042-4.6871l.028.4808c.0187.831.056 2.493.0747 3.324.0934.7703-.1587 1.7222.5182 2.2922.8683-.257 1.676-1.004 2.6283-.77.3969.439.747.91 1.1111 1.377.2008.91.3548 1.835.4482 2.764-.5555-.906-.9197-1.914-1.5079-2.801-1.0504-.047-2.0541.345-3.0952.42-.7002-.598-.5555-1.583-.7096-2.3999z" fill="#bdfa65"/><path d="m113.41 95.0825.476.014c-.014 1.5733-.032 3.1559-.074 4.7338-.304-1.055-.472-2.1335-.5-3.2399.023-.3781.075-1.1297.098-1.5079z" fill="#f89986"/><path d="m113.886 95.0967h.467c1.247 5.9713 1.083 12.1563 1.405 18.2253l-.495-.032c-.27-1.055-.457-2.125-.55-3.208.653-1.395.55-2.516-.318-3.361-.037-.313-.112-.938-.149-1.251.163-1.783.046-3.548-.35-5.285l-.084-.3545c.042-1.578.06-3.1606.074-4.7338z" fill="#f86ee4"/><path d="m131.627 95.0825.443.014c.028 1.704.061 3.422-.005 5.1305h-.434c-.023-.8962-.056-1.7925-.131-2.6842.047-.8217.099-1.6433.127-2.4603z" fill="#bdc26d" opacity=".88"/><path d="m85.7773 95.4607.4623.1541c-.1027 1.6432 1.6153 2.759 3.2026 2.4556 1.6153 1.7366 1.1811 4.7386 1.4659 6.9516-.0887-.14-.2614-.43-.3501-.575-.0934-.929-.2476-1.853-.4483-2.763.084-1.135-.733-2.7873-2.0635-2.1151-.901.3922-1.7553.0887-2.1942-.7843-.0186-.831-.056-2.4929-.0747-3.3239z" fill="#79f8aa"/><path d="m102.5 98.4767c.047-1.3585-.513-3.7068 1.195-2.5023.626 1.4145 1.223 2.8384 1.784 4.2806-.724-.5365-1.336-1.3255-2.269-1.4749-.066.3875-.187 1.1671-.248 1.5549-.168-.6165-.322-1.2374-.462-1.8583z" fill="#8af7b0"/><path d="m73.4434 96.6233c.2987-.0374.8963-.1167 1.1998-.1541-.1681 2.0308-.3875 4.0518-.4249 6.0928-.0513.2-.154.602-.2054.798-.2287 1.284-.2381 2.61-.2381 3.912-.07.341-.2054 1.018-.2754 1.354-.1027.747-.3128 2.241-.4155 2.988-1.7553-1.177-.901-3.978-3.0532-4.944-.0467-1.97-.0373-3.936-.0093-5.896 1.6246-.9015 2.5863-2.5588 3.422-4.1507z" fill="#f8ec56"/><path d="m95.5111 105.325c.5322-2.964.4155-7.2825 3.8935-8.3609 1.2604.2334 1.7784 1.4052 2.1244 2.5023 1.195 5.1636 2.217 10.3686 3.011 15.6066-.336.023-1.018.075-1.359.098-.275-4.085-1.05-8.118-1.993-12.091-.257-.967-.794-2.059-1.7834-2.414-2.479 1.237-2.5023 4.571-2.9178 6.919-.2568 2.227-.789 4.626-.0187 6.811l.1447.462c-.2474-.023-.7422-.074-.9897-.102-.859-1.905-.1774-4.099-.3314-6.097.7376-1.102.8123-2.213.2194-3.334z" fill="#f58edb"/><path d="m125.198 97.7856c.509 1.2232.289 2.5634.359 3.8604-.929-1.045-.308-2.5719-.359-3.8604z" fill="#9cf79a"/><path d="m85.8525 98.7847c.4389.873 1.2932 1.1764 2.1942.7843 1.3305-.6723 2.1475.98 2.0635 2.115-.3642-.467-.7143-.939-1.1111-1.377-.9524-.234-1.76.513-2.6284.77-.6769-.57-.4248-1.522-.5182-2.2923z" fill="#8bf974"/><path d="m103.209 98.78c.934.1494 1.546.9384 2.269 1.475.458.906.92 1.812 1.401 2.713.294 1.946 1.909 3.977 4.178 3.375.873.079.943 1.293 1.387 1.905.546 1.764.817 3.608 1.017 5.448-1.596.186-3.184.476-4.771.705-1.041.112-2.087.224-3.128.34-.807-4.808-1.89-9.575-2.6-14.406.061-.3879.182-1.1675.247-1.555z" fill="#73f8e5"/><path d="m123.821 98.6914c.625 3.4546.21 7.0256.453 10.5176-.136.701-.402 2.101-.533 2.801.047-.957.024-1.923-.177-2.861.117-3.483.121-6.97.257-10.4576z" fill="#f8b280"/><path d="m83.0698 103.5c.0514-1.284.2194-2.563.4202-3.8237.0187 1.2887-.1914 2.5537-.4202 3.8237z" fill="#f79898"/><path d="m113.896 100.185c.396 1.737.513 3.502.35 5.285-.248-1.755-.364-3.515-.35-5.285z" fill="#f79898"/><path d="m84.9513 104.998c-.0093-1.783.084-3.562.2941-5.331.1541.817.0094 1.802.7096 2.4 1.0411-.075 2.0448-.467 3.0952-.421.5882.887.9524 1.896 1.5079 2.801.0887.145.2615.435.3502.575.0653.289.1914.863.2567 1.153-.07.873-.2054 2.619-.2754 3.492-.873-1.83-.6396-4.29-2.3342-5.64-1.3726-.429-2.2269 1.63-3.6041.971z" fill="#ddfa5d"/><path d="m131.631 100.227h.435c.014 3.726.088 7.46-.005 11.186l-.448.056c-.019-.598-.047-1.195-.075-1.793.135-3.151.061-6.302.093-9.449z" fill="#4cd8d2" opacity=".9"/><path d="m96.4869 107.585c.4155-2.349.4389-5.682 2.9178-6.919.9893.355 1.5263 1.447 1.7833 2.414.943 3.972 1.718 8.006 1.993 12.091-.634.009-1.269.014-1.904.005-.159-2.031.327-4.165-.313-6.139-.289-1.102-.35-3.394-1.9374-3.161-1.9188 2.53-1.1905 6.134-1.9468 9.075l-.4668-.093-.1447-.462c.0747-2.274.154-4.542.0186-6.811z" fill="#efef64"/><path d="m125.558 101.646c.233.556.424 1.126.658 1.686.756.835 2.264.803 2.591 2.073-.967-.052-1.938-.117-2.862-.416-.075-.163-.224-.485-.303-.644-.052-.901-.061-1.798-.084-2.699z" fill="#79f8ae"/><path d="m94.1572 105.722c.1354-1.242.2895-2.498.4575-3.735.2801 4.099.0747 8.212.028 12.311-.5182-2.834-.3361-5.714-.4855-8.576z" fill="#c8f873"/><path d="m74.2186 102.562.3501.023c.3688 1.069.2988 2.157-.2101 3.263-.182-.822-.3081-1.653-.3454-2.488.0513-.196.154-.598.2054-.798z" fill="#f974a8"/><path d="m106.879 102.968c.471.499.906 1.036 1.349 1.568.714 1.527 2.227.07 3.305-.191.308.672.584 1.363.883 2.045.014.616.023 1.237.028 1.858-.444-.612-.514-1.826-1.387-1.905-2.269.602-3.884-1.428-4.178-3.375z" fill="#7cf8ae"/><path d="m73.7749 107.272c0-1.302.0093-2.628.2381-3.912.0373.836.1634 1.666.3455 2.488-.0607.35-.1821 1.06-.2381 1.41z" fill="#f9ba73"/><path d="m82.5654 107.239c.0794-1.256.2755-2.507.5042-3.739-.0513 1.26-.2287 2.502-.5042 3.739z" fill="#f88e99"/><path d="m84.9514 104.998c1.3772.659 2.2315-1.4 3.6041-.971 1.6946 1.349 1.4612 3.81 2.3342 5.64.3408 1.34 1.5359 4.015-.3081 4.178-.2195-.028-.6583-.079-.8777-.107-.3595-1.303-.845-2.573-1.5499-3.73-2.4696-.449-2.479 3.632-5.0746 2.871-.2615-.014-.775-.052-1.0364-.07.098-.915.3081-1.816.6489-2.671.9057-1.643 1.3958-3.473 2.2595-5.14z" fill="#f7f450"/><path d="m108.228 104.536c1.032.094 2.614-.999 3.305-.191-1.078.261-2.591 1.718-3.305.191z" fill="#93f972"/><path d="m125.641 104.345c.08.158.229.481.304.644.014.224.042.677.056.906-.388 1.993 1.424 1.736 2.717 1.363.668 1.088 1.246 2.227 1.942 3.3.131.201.387.607.518.808-2.315.836-5.102.635-7.572.985l.135-.341c.131-.7.397-2.1.533-2.801.606-1.573 1.288-3.156 1.367-4.864z" fill="#e5f457"/><path d="m125.945 104.989c.924.299 1.895.364 2.862.416.196.438.378.882.541 1.335-.924-.943-2.199-.561-3.347-.845-.014-.229-.042-.682-.056-.906z" fill="#82f97b"/><path d="m95.292 108.658c-.4762-1.106-.4061-2.212.2194-3.333.5929 1.121.5182 2.232-.2194 3.333z" fill="#f4aaaa"/><path d="m93.7275 114.429c.1214-2.904-.0513-5.827.4295-8.707.1494 2.862-.0326 5.742.4856 8.576l.0466.359c-.2381-.056-.7189-.172-.9617-.228z" fill="#83f3bb"/><path d="m99.0268 105.876c1.5872-.233 1.6482 2.059 1.9372 3.161-.135-.126-.411-.378-.546-.509-.14-1.615-2.0121-1.643-1.9887.056-.3595 2.147-.9011 4.524-.0047 6.592-.4528-.047-.901-.122-1.3445-.224.7563-2.941.028-6.546 1.9467-9.076z" fill="#acf666"/><path d="m126.001 105.895c1.148.285 2.423-.098 3.347.845.537 1.237 1.289 2.427 1.312 3.819-.695-1.074-1.274-2.213-1.942-3.301-1.293.373-3.104.63-2.717-1.363z" fill="#b6f965"/><path d="m91.1651 106.175c.6302 2.647.6722 5.401 1.1858 8.072-.4902-.187-2.0215.457-1.7694-.402 1.8441-.163.6489-2.838.3081-4.178.0701-.873.2055-2.619.2755-3.492z" fill="#a0ef6d" opacity=".97"/><path d="m70.031 106.67c2.1522.966 1.2978 3.767 3.0532 4.944l.2614.238c-1.0177-.243-2.9738.009-3.3519-.92.0046-1.424.0233-2.848.0373-4.262z" fill="#d8f44a" opacity=".98"/><path d="m114.395 106.721c.868.845.971 1.966.317 3.361-.779-.905-.887-2.026-.317-3.361z" fill="#f7989d"/><path d="m73.775 107.272.3454-.014c.2941 1.069.2381 2.152-.168 3.249-.1728-.621-.3222-1.251-.4529-1.881.07-.336.2054-1.013.2755-1.354z" fill="#f874ad"/><path d="m81.6182 112.804c.154-1.881.4715-3.739.9477-5.565.0046.967.07 1.933.126 2.899-.3408.855-.5509 1.756-.6489 2.671z" fill="#f9808b"/><path d="m98.4289 108.584c-.0233-1.7 1.8491-1.672 1.9891-.056-.6586-.294-1.3495-.29-1.9891.056z" fill="#81f89a"/><path d="m96.4684 114.396c-.7703-2.185-.2381-4.584.0187-6.811.1354 2.269.056 4.537-.0187 6.811z" fill="#f7bd82"/><path d="m98.4293 108.584c.6396-.346 1.3306-.35 1.9887-.056.135.131.411.383.546.509-.098 2.044-.149 4.094-.168 6.139-.789.014-1.5824.037-2.3713 0-.8964-2.068-.3548-4.445.0046-6.592z" fill="#75f8be"/><path d="m73.084 111.614c.1027-.747.3128-2.241.4155-2.988.1307.63.2801 1.26.4528 1.881-.0747.318-.2286.952-.3033 1.27l-.3036.075z" fill="#f7c368"/><path d="m100.964 109.037c.64 1.974.154 4.108.313 6.139h-.481c.019-2.045.07-4.095.168-6.139z" fill="#9df96d"/><path d="m123.237 109.153.327-.004c.201.938.224 1.904.177 2.861l-.135.341-.327-.051c-.009-.784-.032-2.362-.042-3.147z" fill="#f96dae"/><path d="m83.0791 112.879c2.5957.761 2.605-3.32 5.0746-2.871.7049 1.157 1.1905 2.427 1.5499 3.73-.2521-.028-.7563-.084-1.0084-.112l-.042-.322c.1121-2.143-2.2968-1.438-2.8897-.052-.6723-.093-2.0121-.28-2.6844-.373z" fill="#f7d442"/><path d="m85.7637 113.252c.5929-1.386 3.0018-2.091 2.8897.052-.5415-.5-1.4005-.677-1.9607-.098-.2334.014-.6956.032-.929.046z" fill="#fca642"/><path d="m86.6924 113.206c.5602-.579 1.4192-.402 1.9607.098l.042.322c-.5648.392-1.8487.425-2.0027-.42z" fill="#db6166" opacity=".9"/><path d="m93.3827 114.447.3455-.018c.2427.056.7236.172.9617.228.2334.024.7002.075.9336.098.2475.028.7423.08.9898.103l.4668.094c.4435.102.8917.177 1.3445.224.789.037 1.5824.014 2.3714 0h.481c.635.009 1.27.004 1.905-.005.341-.023 1.022-.075 1.358-.098.257-.079.766-.248 1.023-.332 1.041-.116 2.086-.228 3.128-.34 1.512.056 3.034.266 4.388.961-1.279 1.004-2.96 1.223-4.51 1.457-4.603.313-9.262 1.158-13.8511.247-1.9841-.312-4.1923-.228-5.7189-1.732 1.1765-1.101 2.9552-.378 4.3837-.887z" fill="#807697"/><path d="m83.9196 115.731c1.6526-.294 3.4499-.933 5.0792-.397 1.5266 1.504 3.7348 1.42 5.7189 1.732 4.5891.911 9.2483.066 13.8513-.247 1.55-.233 3.231-.453 4.51-1.457 3.618-.261 7.371.743 11.059.775l-.009.407c-6.97.831-13.907 1.914-20.84 3.006-4.9486 1.298-10.0932.747-15.1025.247l.0794.421c2.5256.112 5.0046.7 7.4041 1.484-4.9112-.387-9.7757-1.246-14.5655-2.357.8543-1.639 2.7357-1.396 4.267-1.816-.4856-.603-.9804-1.191-1.4519-1.798z" fill="#83609e"/><path d="m70.4697 117.08c4.5004-.149 9.0148-1.181 13.4498-1.349.4715.607.9664 1.195 1.4519 1.798-1.5312.42-3.4126.177-4.267 1.816-1.7506.084-3.4266-.481-5.1212-.817-1.6853-.234-3.38-.397-5.07-.556l-.4388-.051c0-.21-.0047-.631-.0047-.841z" fill="#7f5097" opacity=".98"/><path d="m103.289 119.55c6.933-1.092 13.87-2.176 20.84-3.006 2.512-.169 4.981.289 7.465.55-.103.215-.308.64-.411.855-10.14 1.087-20.079 3.945-30.261 4.631-1.7086-.542-3.4686-.799-5.252-.878-2.3995-.784-4.8785-1.372-7.4041-1.484l-.0794-.421c5.0093.5 10.1539 1.051 15.1025-.247z" fill="#9464b5"/><path d="m70.9131 117.972c1.69.159 3.3846.322 5.0699.555-.07.197-.2007.584-.2661.78 7.6563 2.516 15.5553 4.388 23.571 5.313 1.0971.723 1.2601 2.007 1.4521 3.24.135 8.702.051 17.404.056 26.11-5.2849-5.672-10.1401-11.904-15.0699-17.936-.0701-.093-.2101-.28-.2801-.369-.0747-.088-.2241-.256-.2988-.345-.6022-.677-1.2792-1.307-1.76-2.082-.07-.094-.2054-.285-.2755-.378-.0747-.084-.224-.257-.3034-.341-1.6153-1.672-3.0578-3.502-4.5004-5.313-.0607-.079-.1774-.238-.2334-.317-2.2736-3.054-5.2987-5.602-7.1614-8.917z" fill="#4a353e"/><path d="m100.922 122.58c10.182-.686 20.121-3.544 30.261-4.631-2.05 2.796-4.305 5.518-6.625 8.071-.074.075-.224.22-.299.29-.387.551-.826 1.06-1.274 1.559-.079.089-.243.271-.327.36-.103.107-.313.326-.415.434-.108.107-.322.317-.425.425-.08.102-.234.308-.308.41-.215.295-.645.883-.859 1.177-.084.089-.243.271-.322.359-.103.108-.313.323-.421.43-.107.107-.322.317-.424.425-.08.102-.234.308-.308.411-.215.294-.645.882-.859 1.176-.085.089-.243.271-.323.364-.107.107-.317.327-.424.434-.117.117-.341.341-.453.458-.112.107-.327.327-.439.434-.089.117-.266.355-.355.471l-.299.57c-.088.107-.27.317-.359.425-.108.112-.322.336-.43.443-.112.117-.34.341-.453.458-.112.107-.326.327-.438.434-.089.117-.266.355-.355.472l-.299.569c-.089.103-.266.313-.355.416-.098.102-.299.308-.397.41-.074.098-.228.299-.303.402-.355.607-.854 1.111-1.316 1.639-.085.088-.243.266-.327.354-.098.098-.29.304-.388.402-.074.103-.229.303-.303.406-.355.607-.855 1.111-1.317 1.639-.084.088-.242.266-.327.354-.098.098-.289.304-.387.402-.075.103-.229.303-.303.406-.355.607-.859 1.111-1.317 1.639-.084.088-.247.27-.331.359-.103.107-.313.327-.416.434-.107.108-.322.318-.425.425-.079.103-.233.308-.308.411-.215.294-.644.882-.859 1.176-.084.089-.243.271-.322.36-.103.107-.313.322-.42.429-.107.108-.322.318-.43.425-.074.103-.228.308-.303.411-.215.285-.64.859-.854 1.148-.075.094-.22.285-.29.379-1.162-10.084.252-20.327-.737-30.439z" fill="#7f4d9e"/><path d="m75.9834 118.528c1.6946.336 3.3706.901 5.1213.817 4.7898 1.111 9.6543 1.97 14.5655 2.357 1.6807.691 3.45.873 5.2518.878l.033.415c-.07 1.616-.163 3.245-.215 4.865-.191-1.233-.355-2.516-1.4517-3.24-8.0157-.924-15.9148-2.796-23.571-5.313.0653-.196.1961-.583.2661-.779z" fill="#503e44"/><path d="m95.6699 121.702c1.7834.08 3.5434.336 5.2521.878-1.8021-.005-3.5714-.187-5.2521-.878z" fill="#7c5595"/><path d="m100.955 122.995c.99 10.112-.425 20.355.738 30.439l.056.438c-.238.024-.715.07-.953.099-.004-8.707.08-17.409-.056-26.111.052-1.62.145-3.249.215-4.865z" fill="#592e73"/></svg>