<svg fill="none" height="200" viewBox="0 0 200 200" width="200" xmlns="http://www.w3.org/2000/svg"><path d="m100 184c46.392 0 84-37.608 84-84 0-46.3919-37.608-84-84-84-46.3919 0-84 37.6081-84 84 0 46.392 37.6081 84 84 84z" fill="#fff"/><path d="m99.9895 38.8479-.8225 2.7872v80.8699l.8225.819 37.6195-22.19z" fill="#343434"/><path d="m99.9894 38.8479-37.6212 62.2861 37.6212 22.19v-39.2525z" fill="#8c8c8c"/><path d="m99.9891 130.431-.4637.564v28.807l.4637 1.35 37.6429-52.899z" fill="#3c3c3b"/><path d="m99.9894 161.152v-30.721l-37.6212-22.178z" fill="#8c8c8c"/><path d="m99.9893 123.324 37.6197-22.19-37.6197-17.0625z" fill="#141414"/><path d="m62.3682 101.134 37.6212 22.19v-39.2525z" fill="#393939"/></svg>