<svg fill="none" height="200" viewBox="0 0 200 200" width="200" xmlns="http://www.w3.org/2000/svg"><path d="m100 184c46.392 0 84-37.608 84-84.0001 0-46.3918-37.608-83.9999-84-83.9999-46.3919 0-84 37.6081-84 83.9999 0 46.3921 37.6081 84.0001 84 84.0001z" fill="#ed4e33"/><path d="m85.5768 61.7463c-22.9154 8.8111-25.0146 31.3763-31.5854 41.9147-6.6486 10.664-21.8803 16.547-19.7974 21.982 2.0828 5.434 17.3327-.403 29.3975 3.065 11.922 3.426 28.5561 18.79 51.4715 9.978 11.674-4.488 20.127-13.727 24.014-24.669.418-1.175-.364-2.431-1.604-2.547-.771-.073-1.51.331-1.858 1.024-3.516 7.015-9.547 12.792-17.441 15.826-13.031 5.01-27.2895 1.076-36.0463-8.79-1.9889-2.24-3.6899-4.79-5.0327-7.609-.3692-.776-.7202-1.564-1.0314-2.38-.3131-.816-.5792-1.637-.8235-2.461 6.8876-3.216 14.8354-6.622 23.8457-10.0857 8.8342-3.3969 16.8752-6.1521 24.0342-8.3561 4.843-1.4901 9.281-2.7299 13.289-3.7431.29-.0726.576-.145.86-.2157.606-.1504 1.229.174 1.453.7577l.004.0108c.132.3462.246.6942.369 1.0423.792 2.2459 1.387 4.5152 1.779 6.79.172.9952 1.258 1.5372 2.148 1.0586 3.29-1.7692 6.299-3.4947 8.988-5.1551 10.021-6.1809 15.576-11.423 14.436-14.3939-1.138-2.9727-8.768-3.143-20.344-1.0223-3.679.6743-7.758 1.5805-12.153 2.7026-.76.194-1.529.3952-2.308.6018-3.699.9825-7.6 2.108-11.663 3.3678-7.555 2.3437-15.661 5.1515-24.0283 8.3688-7.8286 3.0107-15.2481 6.1321-22.0523 9.2425-.0832-13.2012 7.8846-25.6811 20.9158-30.6911 7.8918-3.0343 16.2338-2.7859 23.5348.0725.72.2828 1.54.087 2.066-.4839.843-.9154.585-2.3728-.51-2.9673-10.199-5.523-22.6532-6.7229-34.3272-2.2349z" fill="#fff"/></svg>