<svg fill="none" height="200" viewBox="0 0 200 200" width="200" xmlns="http://www.w3.org/2000/svg" xmlns:xlink="http://www.w3.org/1999/xlink"><linearGradient id="a" gradientUnits="userSpaceOnUse" x1="100" x2="100" y1="16" y2="184"><stop offset="0" stop-color="#222d53"/><stop offset="1" stop-color="#151d37"/></linearGradient><path d="m100 184c46.392 0 84-37.608 84-84 0-46.3919-37.608-84-84-84-46.3919 0-84 37.6081-84 84 0 46.392 37.6081 84 84 84z" fill="url(#a)"/><path d="m100 182.688c45.667 0 82.688-37.021 82.688-82.688s-37.021-82.6875-82.688-82.6875-82.6875 37.0205-82.6875 82.6875 37.0205 82.688 82.6875 82.688z" stroke="#fff" stroke-width=".42"/><g fill="#fff"><path d="m56.7871 56.7874h10.6785v10.6785h-10.6785z"/><path d="m83.4834 56.7874h10.6785v10.6785h-10.6785z"/><path d="m110.174 56.7874h10.679v10.6785h-10.679z"/><path d="m56.7871 83.4836h10.6785v10.6785h-10.6785z"/><path d="m83.4834 83.4836h10.6785v10.6785h-10.6785z"/><path d="m56.7871 110.154h10.6785v10.678h-10.6785z"/><path d="m142.205 64.7883c1.473 0 2.667-1.194 2.667-2.667 0-1.4729-1.194-2.667-2.667-2.667s-2.667 1.1941-2.667 2.667c0 1.473 1.194 2.667 2.667 2.667z"/><path d="m142.205 91.4846c1.473 0 2.667-1.194 2.667-2.667 0-1.4729-1.194-2.667-2.667-2.667s-2.667 1.1941-2.667 2.667c0 1.473 1.194 2.667 2.667 2.667z"/><path d="m142.205 118.16c1.473 0 2.667-1.194 2.667-2.667s-1.194-2.667-2.667-2.667-2.667 1.194-2.667 2.667 1.194 2.667 2.667 2.667z"/><path d="m142.205 144.851c1.473 0 2.667-1.194 2.667-2.667s-1.194-2.667-2.667-2.667-2.667 1.194-2.667 2.667 1.194 2.667 2.667 2.667z"/><path d="m115.514 91.4846c1.473 0 2.667-1.194 2.667-2.667 0-1.4729-1.194-2.667-2.667-2.667s-2.667 1.1941-2.667 2.667c0 1.473 1.194 2.667 2.667 2.667z"/><path d="m115.514 118.16c1.473 0 2.667-1.194 2.667-2.667s-1.194-2.667-2.667-2.667-2.667 1.194-2.667 2.667 1.194 2.667 2.667 2.667z"/><path d="m115.514 144.851c1.473 0 2.667-1.194 2.667-2.667s-1.194-2.667-2.667-2.667-2.667 1.194-2.667 2.667 1.194 2.667 2.667 2.667z"/><path d="m88.8174 118.16c1.4729 0 2.667-1.194 2.667-2.667s-1.1941-2.667-2.667-2.667c-1.473 0-2.667 1.194-2.667 2.667s1.194 2.667 2.667 2.667z"/><path d="m88.8174 144.851c1.4729 0 2.667-1.194 2.667-2.667s-1.1941-2.667-2.667-2.667c-1.473 0-2.667 1.194-2.667 2.667s1.194 2.667 2.667 2.667z"/><path d="m62.1211 144.851c1.4729 0 2.667-1.194 2.667-2.667s-1.1941-2.667-2.667-2.667-2.667 1.194-2.667 2.667 1.1941 2.667 2.667 2.667z"/></g></svg>