<svg fill="none" height="200" viewBox="0 0 200 200" width="200" xmlns="http://www.w3.org/2000/svg"><g clip-rule="evenodd" fill-rule="evenodd"><path d="m100 184c-46.2 0-84-37.8-84-84.4204.42-46.2 37.8-84 84.42-83.58 46.2.42 83.58 37.8 83.58 84.8404-.42 45.78-37.8 83.16-84 83.16z" fill="#0090ff"/><path d="m107.98 89.9195-2.52 13.4395 23.94 3.36-1.68 6.3-23.52-3.36c-1.68 5.46-2.52 11.34-4.6198 16.38-2.1 5.88-4.2 11.76-6.72 17.22-3.36 7.14-9.24 12.18-17.22 13.44-4.62.84-9.66.42-13.44-2.52-1.26-.84-2.52-2.52-2.52-3.78 0-1.68.84-3.78 2.1-4.62.84-.42 2.94 0 4.2.42 1.26 1.26 2.52 2.94 3.36 4.62 2.52 3.36 5.88 3.78 9.24 1.26 3.78-3.36 5.88-7.98 7.14-12.6 2.52-10.08 5.04-19.74 7.14-29.82v-1.68l-22.26-3.36.84-6.2995 23.1 3.3595 2.94-13.0195-23.94-3.78.84-6.72 24.78 3.36c.8398-2.52 1.2598-4.62 2.0998-6.72 2.1-7.56 4.2-15.12 9.24-21.84s10.92-10.92 19.74-10.5c3.78 0 7.56 1.26 10.08 4.2.42.42 1.26 1.26 1.26 2.1 0 1.68 0 3.78-1.26 5.04-1.68 1.26-3.78.84-5.46-.84-1.26-1.26-2.1-2.52-3.36-3.78-2.52-3.36-6.3-3.78-9.24-.84-2.1 2.1-4.2 5.04-5.46 7.98-2.94 8.82-5.04 18.06-7.98 27.3l23.1 3.36-1.68 6.3z" fill="#fff"/></g></svg>