<svg fill="none" height="200" viewBox="0 0 200 200" width="200" xmlns="http://www.w3.org/2000/svg" xmlns:xlink="http://www.w3.org/1999/xlink"><linearGradient id="a" gradientUnits="userSpaceOnUse" x1="173.427" x2="52.4452" y1="90.4665" y2="209.977"><stop offset="0" stop-opacity=".6"/><stop offset=".655513" stop-opacity="0"/></linearGradient><linearGradient id="b" gradientUnits="userSpaceOnUse" x1="50.1544" x2="216.958" y1="45.4131" y2="76.0305"><stop offset="0" stop-opacity=".6"/><stop offset=".645833" stop-opacity="0"/></linearGradient><linearGradient id="c" gradientUnits="userSpaceOnUse" x1="61.3735" x2="11.9301" y1="172.605" y2="20.2378"><stop offset="0" stop-opacity=".6"/><stop offset=".675464" stop-opacity="0"/></linearGradient><mask id="d" height="170" maskUnits="userSpaceOnUse" width="170" x="15" y="15"><path d="m185 15h-170v170h170z" fill="#fff"/></mask><g mask="url(#d)"><path d="m73.4374 140.966-1.83 1.055.0014-2.112s-.0255 1.08.462 1.35c.4775.264 1.3666-.293 1.3666-.293z" fill="#8e3315"/><path d="m26.478 138.789c10.3138 19.494 27.9535 34.092 49.0385 40.587 21.0851 6.494 43.8885 4.352 63.3935-5.958 19.505-10.309 34.115-27.94 40.614-49.014 6.5-21.074 4.313-43.8662-6.002-63.3603 9.3 29.2965-23.079 39.5883-23.079 39.5883l-39.188 20.472-40.7284 21.231s-27.7581 17.861-44.0486-3.546z" fill="#473ade"/><path d="m26.332 138.932c10.3138 19.494 27.9534 34.095 49.0384 40.589 21.0852 6.495 43.8886 4.351 63.3936-5.957 19.505-10.31 34.115-27.941 40.614-49.015s4.357-43.865-5.957-63.3591c9.301 29.2966-23.123 39.5881-23.123 39.5881l-39.189 20.471-40.7284 21.232s-27.7582 17.858-44.0486-3.549z" fill="url(#a)"/><path d="m149.399 98.6001 3.025 1.4699-3.193 1.281s1.37-.647 1.534-1.281c.16-.621-1.366-1.4699-1.366-1.4699z" fill="#251e73"/><path d="m174.026 137.919c10.071-19.62 11.932-42.4359 5.172-63.428-6.76-20.9922-21.586-38.4411-41.217-48.5084-19.632-10.0672-42.4598-11.928-63.463-5.173-21.003 6.7549-38.4606 21.5723-48.5322 41.1925 18.6891-24.4082 45.7099-3.75 45.7099-3.75l39.2443 20.3648 40.75 21.1899s30.55 12.5002 22.336 38.1122z" fill="#d71d6a"/><path d="m173.826 137.838c10.042-19.561 11.897-42.3092 5.157-63.2389-6.74-20.9295-21.522-38.3266-41.095-48.3638s-42.3332-11.8925-63.2737-5.1576c-20.9405 6.7348-38.3462 21.5081-48.3877 41.0698 18.6333-24.3353 45.5738-3.7388 45.5738-3.7388l39.1276 20.304 40.628 21.127s30.46 12.4633 22.27 37.9983z" fill="url(#b)"/><path d="m71.6196 60.223-.0342-2.2105 1.9325 1.0756s-.9756-.5727-1.4708-.2642c-.485.3023-.4275 1.3991-.4275 1.3991z" fill="#741039"/><path d="m100.012 16.7944c-22.0628 0-43.2222 8.7607-58.823 24.3548-15.6008 15.5942-24.3653 36.7443-24.3653 58.7978 0 22.053 8.7645 43.204 24.3653 58.798s36.7602 24.354 58.823 24.354c-28.316-4.751-28.316-41.419-28.316-41.419v-41.733-42.4716s0-35.6153 28.316-40.681z" fill="#ff5b25"/><path d="m100.012 16.6003c-22.0628 0-43.2222 8.7607-58.823 24.3548s-24.3653 36.7443-24.3653 58.7976 8.7645 43.2033 24.3653 58.7973c15.6008 15.595 36.7602 24.354 58.823 24.354-28.316-9.041-28.316-41.178-28.316-41.178v-41.8705-41.6032s-1.0302-36.2634 28.316-41.652z" fill="url(#c)"/><path d="m100.012 16.6003c-22.0628 0-43.2222 8.7607-58.823 24.3548s-24.3653 36.7443-24.3653 58.7976 8.7645 43.2033 24.3653 58.7973c15.6008 15.595 36.7602 24.354 58.823 24.354-28.316-9.041-28.316-41.178-28.316-41.178v-41.8705-41.6032s-1.0302-36.2634 28.316-41.652z" fill="url(#c)" fill-opacity=".3"/><path d="m99.7935 183.063c-28.0977-12.792-28.0645-41.35-28.0645-41.35s-34.8253 19.635-46.5493-5.478c0 0 19.6535 46.994 74.6138 46.828z" fill="#473ade"/></g></svg>