<svg fill="none" height="200" viewBox="0 0 200 200" width="200" xmlns="http://www.w3.org/2000/svg" xmlns:xlink="http://www.w3.org/1999/xlink"><linearGradient id="a"><stop offset="0" stop-color="#ee3624"/><stop offset=".19" stop-color="#ef4623"/><stop offset=".51" stop-color="#f08121"/><stop offset=".76" stop-color="#f19121"/></linearGradient><linearGradient id="b" gradientUnits="userSpaceOnUse" x1="52.4338" x2="118.36" xlink:href="#a" y1="105.042" y2="128.3"/><linearGradient id="c" gradientUnits="userSpaceOnUse" x1="63.1969" x2="117.853" xlink:href="#a" y1="76.2776" y2="95.5599"/><linearGradient id="d" gradientUnits="userSpaceOnUse" x1="65.732" x2="81.1139" y1="91.2534" y2="68.2092"><stop offset="0" stop-color="#c52326"/><stop offset=".5" stop-color="#cf3027"/><stop offset=".76" stop-color="#dd4726"/><stop offset=".91" stop-color="#e24f25"/></linearGradient><linearGradient id="e" gradientUnits="userSpaceOnUse" x1="70.4692" x2="112.921" y1="102.338" y2="97.0547"><stop offset="0" stop-color="#c52326"/><stop offset=".23" stop-color="#cf3027"/><stop offset=".44" stop-color="#dd4726"/><stop offset=".91" stop-color="#e24f25"/></linearGradient><linearGradient id="f" gradientUnits="userSpaceOnUse" x1="52.7753" x2="59.144" y1="86.3903" y2="118.139"><stop offset="0" stop-color="#c42126"/><stop offset=".4" stop-color="#cb2a27"/></linearGradient><linearGradient id="g" gradientUnits="userSpaceOnUse" x1="52.6225" x2="115.06" y1="119.089" y2="139.376"><stop offset=".06" stop-color="#cf3027"/><stop offset=".24" stop-color="#ef4623"/><stop offset=".76" stop-color="#f19121"/></linearGradient><linearGradient id="h" gradientUnits="userSpaceOnUse" x1="89.4697" x2="92.4538" y1="107.568" y2="104.167"><stop offset=".64" stop-color="#b3b1b1"/><stop offset="1" stop-color="#d1cdcd"/></linearGradient><linearGradient id="i" gradientUnits="userSpaceOnUse" x1="84.7552" x2="110.695" y1="106.635" y2="100.216"><stop offset=".56" stop-color="#dad6d6"/><stop offset=".8" stop-color="#ebe8e8"/></linearGradient><linearGradient id="j" gradientUnits="userSpaceOnUse" x1="108.351" x2="151.05" y1="130.749" y2="120.674"><stop offset=".14" stop-color="#dad6d6"/><stop offset=".52" stop-color="#ebe8e8"/></linearGradient><linearGradient id="k" gradientUnits="userSpaceOnUse" x1="109.824" x2="125.984" y1="130.337" y2="119.863"><stop offset=".06" stop-color="#b3b1b1"/><stop offset=".67" stop-color="#d1cdcd"/></linearGradient><linearGradient id="l"><stop offset=".44" stop-color="#dd4726"/><stop offset=".91" stop-color="#e24f25"/></linearGradient><linearGradient id="m" gradientUnits="userSpaceOnUse" x1="83.5464" x2="88.8156" xlink:href="#l" y1="63.7377" y2="63.7377"/><linearGradient id="n" gradientUnits="userSpaceOnUse" x1="93.7597" x2="95.6945" xlink:href="#l" y1="83.3882" y2="82.639"/><linearGradient id="o" gradientUnits="userSpaceOnUse" x1="60.9134" x2="60.917" xlink:href="#a" y1="85.8028" y2="85.8046"/><linearGradient id="p" gradientUnits="userSpaceOnUse" x1="60.9961" x2="60.9979" xlink:href="#a" y1="85.5824" y2="85.5824"/><path d="m148.454 126.985c.052.032.088.056.113.072l5.292 3.199-2.305-5.738c-2.594-6.455-6.198-11.138-10.712-13.921-.349-.216-.694-.415-1.037-.597 2.104.185 3.886.548 3.886.548-1.425-1.424-2.932-2.384-4.19-3.016-.84-.422-1.572-.699-2.094-.87-.534-.174-.852-.239-.852-.239-3.167-.853-6.281-1.282-9.281-1.282-.171 0-.339.002-.506.003v-.023c2.283-.568 5.903-.873 5.903-.873-2.362-.776-5.104-1.17-7.747-1.342-1.32-.12-2.678-.182-4.065-.182-2.187 0-4.461.151-6.786.446-.011.002-.018.002-.018.002.25-.261.446-.51.598-.737 1.628-.839 2.963-1.866 3.971-3.0647.742-.8839 1.121-1.9834 1.112-3.0973-.182-2.2834-1.554-3.496-2.018-3.8446-.052-.0359-.102-.0736-.154-.1095-4.714-3.0488-8.501-6.0059-10.485-8.1779-.598-1.8307-3.05-8.5407-8.1758-13.4794-1.0079-.9738-1.4714-2.3769-1.2378-3.7602.618-3.6883.8084-9.6259-2.2439-15.9515l-1.4247-2.9499-2.048 2.5583c-1.5432 1.9259-3.2679 3.4493-4.9369 4.9225-1.2019 1.0635-2.3391 2.066-3.3416 3.1619l-.5425.5947v.0251c-1.0797 1.2899-1.8091 2.5421-2.2762 3.9111-.0036.0108-.0054.0179-.0108.0287l-.2839.142c-.2012.0988-.4042.1904-.6144.2748-20.1931 8.106-20.9423 19.1745-20.9656 19.6434l-.0809 1.7408c-2.5511 2.4272-7.2957 7.8437-9.8881 16.4577-.6144 2.032-1.0223 4.14-1.2145 6.27v.026c-.0233.221-.0413.44-.0557.661l-.0036.068v.016c-.0143.207-.0251.415-.0359.623-.0108.238-.0198.473-.0252.708-.0053.234-.0089.467-.0089.703 0 2.041.203 4.082.5982 6.068v.004l.0431.207c1.0366 5.026 3.3416 9.699 6.6634 13.511 2.0409 2.349 4.2812 4.161 6.6544 5.39l6.0346 3.124-.5426-.99c5.0267 3.457 12.6351 6.529 23.806 6.529 1.3635 0 2.763-.048 4.1913-.142 0 0 7.1235-.361 11.1005-1.033 0 0-3.532-.192-6.115-.533.18-.004.361-.008.539-.011 4.08-.106 7.975-.43 11.632-.963 0 0 .015 0 .04-.006.751-.109 1.493-.23 2.222-.357 2.862-.478 7.637-1.344 9.466-2.072 0 0-4.031.302-6.861-.012 6.673-.323 11.554-2.407 13.444-3.349.055-.029.111-.057.167-.086.277-.147.55-.295.823-.446.079-.043.151-.086.217-.134l2.855-1.966c5.874 2.379 8.871 7.488 9.211 8.095l2.182 4.366 1.612-4.614c2.141-6.128.463-11.596-1.554-15.351.893.383 1.692.791 2.361 1.218zm-51.9222-23.181c.2766.04.5695.081.8731.122 0 0 .6216.085.7024.097.133.018.2677.038.4043.056h.0233c.1222.018.2479.036.3845.054.4042.056.8246.109 1.2306.16.126.016.681.086.681.086 1.739.217 3.268.384 4.581.501-3.911 1.044-7.6999 2.42-11.0163 4.008l-.6737-5.499" fill="#2f140e"/><path d="m122.172 116.538s-7.736-4.339-12.511-4.064c0 0 1.714-6.02 16.855-7.622-4.703-.653-9.649-.408-14.365.371-7.212 1.19-13.8929 3.62-18.3627 5.967-2.4918 1.306-6.0453 3.542-10.1181 4.924-.8713.327-2.3301.747-3.8464 1.134-3.5409.9-7.3155.28-10.3498-1.759-.0162-.011-.0306-.02-.045-.031-5.3932-3.643-8.1239-8.188-9.3689-12.626-.221-.794-.397-1.581-.5282-2.359-1.1606-6.7349.715-12.7856 1.3079-14.4618l-.9055 2.4128c.3054-.936.6468-1.8595 1.0312-2.7541l.0054-.0144.0126-.0323c.0108-.0252.0234-.0521.0323-.0773l-.0053.0054c-2.1505 1.8935-7.303 7.1484-10.0247 16.1927-.5803 1.924-.9558 3.884-1.1337 5.847-.0179.218-.0377.431-.0521.649v.023c-.0161.216-.0269.43-.0377.645-.0108.221-.0179.44-.0233.659-.0054.22-.009.437-.009.656 0 1.975.2012 3.94.5982 5.86.9486 4.592 3.0272 8.933 6.1999 12.576 1.6905 1.942 3.6955 3.694 6.0471 4.91-.3754-.684-.7617-2.003-1.0527-3.153-.2911-1.148-.4905-2.125-.4905-2.125.7438 1.653 1.9439 3.101 3.4081 4.367 4.7949 4.765 15.2705 11.385 35.2427 8.737 0 0-2.3104-.32-4.3584-1.074.4545-.031 2.3966.032 5.2606-.042 4.089-.106 10.051-.485 16.246-1.809-7.233.783-12.917-.713-16.588-2.235-3.0269-1.185-4.7228-2.436-4.7246-2.554 2.3571-.212 6.9026-.469 10.8866-2.339 0 0-3.546-.103-7.369-2.273 0 0 9.141-12.204 23.138-12.531zm-64.1618 1.574s.0018-.031.0036-.088l.1527.061c-.1024.018-.1563.027-.1563.027z" fill="url(#b)"/><path d="m116.304 95.5419c0-.6252.153-1.1911.401-1.6025-.083-.0719-.171-.1383-.264-.1976-2.95-1.908-8.428-5.6609-11.201-8.8731 0 0-2.972-10.1828-10.4725-15.2293 0 0 3.3721-8.6162-1.2091-18.1038-2.7864 3.4764-6.0759 5.6897-8.3683 8.1905-1.0528 1.1498-1.8971 2.3606-2.3822 3.7817-.3503 1.0617-.5497 2.4091-.1635 3.8643 0 0-.9737-.7491-1.5342-2.3121l-.0126.0054c-19.5769 7.7233-20.0584 17.978-20.0584 17.978 1.042-.5695 2.4954-1.2235 4.071-1.5001-.0018.0018-.0036.0036-.0036.0053 0 0-.0018.0018-.0054.009-.2731.3144-1.2666 1.8523-2.3535 4.6459h.0018l-.0197.0575-.009.0197-.0252.0647-.0036.009-.0916.2461c-.0808.2264-.1886.5408-.3072.9324-.0826.2677-.1689.5749-.2605.9109-.0233.0808-.0431.1653-.0665.2497-.0431.1689-.088.3449-.1329.5282-.0611.2659-.1258.5461-.1886.839-.0018.0107-.0036.0197-.0054.0323-.0647.3054-.1258.6252-.1833.9593-.0377.212-.0718.4294-.1078.6522-.0215.1383-.0413.2785-.0593.4222-.0646.4581-.1185.936-.1634 1.43-.0018.0162-.0036.0324-.0036.0503-.0198.2497-.0396.5013-.0557.7582-.0414.6791-.0575 1.3869-.0449 2.1127 2.0282-1.669 4.1913-2.896 4.2703-2.9391-1.0653 1.9708-2.2906 5.0626-3.3164 9.2302 1.378 4.52 4.2309 8.272 8.4923 11.15l.0503.036c1.7893 1.2 3.8967 1.838 6.0902 1.838.9271 0 1.8559-.115 2.7559-.345.0378-.011.0737-.018.1096-.029 2.2098-3.065 2.1397-7.075 2.1397-7.075l2.066.62c-4.5452-3.719-3.0828-11.7747-3.0828-11.7747-1.9619 1.3941-2.702 2.7541-2.702 2.7541-.0539-9.0006 9.6222-9.6222 9.6222-9.6222-1.6528-1.1355-4.4195-.4653-4.4195-.4653 5.9646-4.4411 10.9769.5156 16.5839 5.0608 5.609 4.5453 13.476 5.6393 13.476 5.6393 1.888-.8785 3.104-1.9025 3.886-2.8295.029-.0359.055-.0683.082-.106-.483-.3485-.822-1.148-.822-2.0786zm-23.5235-26.8008s-1.9798-2.6014-4.7608-3.099c0 0 .8174.5946 1.3312 1.8666-.0916-.027-2.4038-.7402-5.8028.1437 1.8989-3.1475 3.2948-3.6649 4.9117-5.5854-1.3384.6198-3.3398 1.6959-3.3398 1.6959s1.0492-1.7516 3.6955-3.9416c.0018-.0036.0036-.0036.0036-.0036.124-.1006.2497-.2048.3827-.309 2.4074-1.9169 3.0613-3.347 3.0613-3.347.0036-.0054.009-.0054.009-.0107.0036-.0018.0054-.0018.009-.0054.0018 0 .0018-.0018.0036-.0018 0 0 2.0768 7.4556.4976 12.5973zm3.3344 16.3916c-.027-.0143-.0539-.0287-.0791-.0449-1.6294-1.042-.7383-2.7828-.7383-2.7828-.424-.5821-1.3528-.9414-1.581-1.024-.0144-.0036-.0288-.0108-.0377-.0126h-.0108v-.0036c.0683 0 .1365.0018.2066.0036.0575.0018.115.0036.1743.0054.2982.0161.5874.0521.8659.1024.0449.009.0916.0162.1365.0269.0629.0126.1258.0252.1851.0396.0611.0143.1239.0287.1832.0449.124.0305.2443.0664.3611.1024.0593.0179.1186.0377.1761.0575.0575.0179.115.0395.1707.061.0556.018.1095.0396.1634.0629.0575.0234.115.0449.1743.0701.0557.0233.1114.0467.1653.0718.1078.0503.2156.0989.3198.1528l.1545.0808c.0143.009.0287.0162.0449.0251.0431.0234.0862.0468.1293.0719.8588.4833 1.5738 1.0797 2.1271 1.6349.0306.0305.0611.0592.0917.0916.1527.1545.291.3054.4168.4491.0449.0539.0914.106.1344.1563.047.0557.092.1078.13.1563.019.0252.041.0503.059.0737.16.1958.284.3629.37.4904.023.0306.043.0593.059.0845.006.0107.013.0179.018.0269.018.027.033.0503.043.0683.002 0 .002.0018.004.0036.013.0161.02.0305.027.0413.005.0108.013.018.014.0234.002.0018.002.0036.002.0036s-3.248.3988-4.6691-.4168z" fill="url(#c)"/><path d="m101.566 86.0131s-3.9598.4869-5.6935-.5084c-.0323-.018-.0646-.036-.0952-.0557-1.9869-1.2702-.9-3.3937-.9-3.3937-.5156-.7096-1.6493-1.148-1.9277-1.2504-.018-.0054-.036-.0126-.0449-.0144h-.0126v-.0053c.0826 0 .1671.0018.2515.0053.0701 0 .1419.0054.212.0072.3629.0198.715.0629 1.0564.1258.0557.0108.1113.0198.167.0323.0755.0144.1545.0306.2264.0485.0755.018.1509.036.2246.0557.1509.0378.2964.0809.4401.1258.0701.0233.1419.0449.2138.0701.0701.0233.1419.0485.2084.0754.0683.0234.133.0485.1994.0755.0701.0269.142.0557.212.0862.0683.0305.1366.0575.2012.088.1312.0611.2623.1204.3899.1869l.1886.0988c.018.0108.0359.0197.0557.0305.0521.027.106.0575.1581.088 1.0474.5893 1.9205 1.3169 2.5942 1.9924.0377.0377.0755.0737.1116.1114.187.1886.356.3737.508.5461.056.0647.112.1294.164.1923.057.0682.111.1311.158.1922.025.0305.05.0611.073.0898.194.239.345.4438.451.5965.027.0377.051.0736.074.1024.007.0126.014.0233.023.0323.02.0324.038.0575.052.0827.002 0 .002.0018.006.0054.012.0197.023.0359.032.0503.007.0125.015.0233.018.0269.002.0018.002.0054.002.0054z" fill="#2f140e"/><path d="m140.912 122.039s8.307 8.316 4.784 18.397c0 0-.002-.004-.004-.011-.208-.385-6.199-11.302-18.838-10.375 0 0 .154 1.739 3.76 3.483 0 0-.012.009-.039.024-.263.147-.525.289-.791.429-.043.023-.086.045-.133.068-2.607 1.299-10.296 4.454-20.543 2.609-2.312-.356-4.684-.976-7.045-1.962-.251-.106-.504-.215-.756-.329 0 0 .209-.018.588-.063 2.459-.278 12.044-1.552 17.178-4.895 0 0-10.039.638-14.739-.871-.093-.031-.183-.063-.273-.094 0 0 .144-.201.428-.546.041-.047.084-.099.133-.154.016-.018.032-.042.052-.062.205-.244.463-.535.772-.866.085-.091.176-.185.272-.285.061-.067.125-.133.194-.201.057-.06.118-.119.179-.18l.16-.16c.135-.133.275-.268.422-.404.069-.065.139-.128.209-.194.284-.264.589-.536.914-.812.083-.068.166-.139.248-.207.085-.07.169-.14.257-.21.086-.07.174-.14.262-.21.18-.14.361-.284.55-.426.196-.147.397-.295.604-.442.19-.135.386-.271.587-.408.103-.072.209-.142.316-.21.106-.07.212-.138.322-.208s.219-.139.331-.207c.222-.138.45-.275.684-.41.115-.066.234-.132.35-.197.237-.135.482-.264.728-.39.246-.128.498-.253.754-.375.128-.06.259-.123.389-.18.109-.052.221-.101.332-.149.027-.013.056-.025.083-.038.095-.041.188-.081.283-.12.198-.085.399-.166.604-.246.093-.036.189-.072.284-.108.032-.013.068-.025.1-.038.112-.043.227-.084.342-.124.018-.005.036-.013.054-.018.125-.045.253-.088.382-.129.191-.065.383-.126.577-.184.252-.079.509-.152.769-.22.153-.042.305-.081.458-.119.079-.02.16-.04.239-.058.126-.03.253-.061.385-.088.001 0 .005 0 .009-.001.159-.036.319-.069.483-.099.032-.006.066-.015.097-.018.106-.024.212-.041.32-.059.115-.022.231-.042.346-.06.119-.018.237-.037.356-.055 2.062-.317 4.288-.369 6.662-.038 0 0-.002-.002-.006-.006-.219-.238-6.519-7.028-13.318-7.602 0 0 .403-.381 1.389-.884 3.033-1.686 10.93-4.871 22.721-.996 0 0 .002 0 .004.002.08.025.163.054.246.081-.561-.14-3.496-.992-7.666.891.278-.052 12.125-1.676 18.934 15.271-.277-.167-3.028-2.072-8.726-3.25z" fill="#f6f3f4"/><path d="m113.159 100.556s-.257.78-1.351 1.491c-.275.18-.602.356-.992.512-.224.092-.625.14-1.155.155-1.874.057-5.375-.3-8.573-.697-.223-.029-.446-.056-.665-.085-.417-.052-.828-.106-1.2268-.16-.1348-.018-.2677-.038-.3989-.054-.1275-.016-.2569-.032-.3808-.052-.1276-.018-.2533-.036-.3755-.052-.4312-.059-.839-.115-1.2163-.169-1.5827-.226-2.6373-.39-2.6373-.39l-2.0714-.294c-1.5971-.227-2.9553 1.153-2.7074 2.747.327 2.118.9522 4.008.9522 4.008l1.1605-5.449.9738 7.928c-.433.237-.9073.501-1.4247.781-.0952.054-.1904.106-.2874.157-.4743.257-.9827.524-1.5289.801-2.8116 1.425-6.552 3.036-11.3272 4.012 3.8177-2.993 3.6901-7.404 3.6901-7.404l2.066.62c-4.5452-3.719-3.0828-11.7746-3.0828-11.7746-1.9619 1.3941-2.702 2.7541-2.702 2.7541-.0539-9.0006 9.6222-9.6223 9.6222-9.6223-1.6528-1.1354-4.4194-.4653-4.4194-.4653 5.9645-4.441 10.9768.5157 16.5838 5.0609 5.3462 4.3315 12.7412 5.5302 13.4242 5.6322.036.005.052.009.052.009z" fill="#f6f3f4"/><path d="m69.2873 90.233s-4.4895 7.346-3.9667 18.97c-.1905-.245-.3755-.491-.5516-.737-.2479-1.284-.4797-2.732-.5425-3.943 0 0-.2516.776-.5785 2.179-.6917-1.233-1.2504-2.54-1.669-3.926 1.0204-4.1711 2.2457-7.2648 3.3128-9.2356-.0826.0431-2.3103 1.2702-4.2704 2.9086-.0808-4.7195 1.1319-8.5892 1.581-9.845l.1491-.3971h-.0018c1.0869-2.7936 2.0804-4.3314 2.3535-4.6458.0036-.0054.0054-.009.0054-.009 0-.0018.0018-.0036.0036-.0054-1.5756.2767-3.0308.9288-4.071 1.5001 0 0 .4815-10.2546 20.0584-17.978-.4779.2534-15.7683 8.4402-17.0797 14.8197 0 0 3.0469-.309 4.7518 0 0 0-5.4058 6.6975-6.2322 13.6501 0 0 3.4098-2.9265 6.7496-3.3056z" fill="url(#d)"/><path d="m113.069 100.542c-.877-.133-8.122-1.362-13.3862-5.6252-5.607-4.5453-10.6194-9.5019-16.5839-5.0609 0 0 2.7667-.6719 4.4195.4653 0 0-9.6762.6216-9.6223 9.6223 0 0 .7402-1.36 2.702-2.7541 0 0-1.4624 8.0576 3.0829 11.7746l-2.066-.62s.0305 1.035-.3719 2.442c-.4042 1.412-1.245 3.201-2.9913 4.696l-.3269.266c1.2791-2.72 1.1156-7.981 1.1156-7.981s-1.448 1.941-4.7662 3.962c-.212-1.394-.2228-2.747-.1294-3.958.2156-2.864.9953-4.937.9953-4.937-3.3056 1.894-4.6063 5.372-4.6063 5.372-.5156-11.9544 10.6679-19.0382 10.6679-19.0382-1.687-.0359-4.5453.963-4.5453.963 8.2623-7.6443 16.8695-2.8565 23.0281 3.2014 5.7634 5.6699 12.5394 7.0548 13.3864 7.2098z" fill="url(#e)"/><path d="m62.5754 133.571c-2.3517-1.216-4.3566-2.968-6.0472-4.91-3.1727-3.643-5.2513-7.984-6.1998-12.574-.5749-2.774-.7384-5.637-.4797-8.492.1779-1.966.5533-3.926 1.1336-5.848 2.7236-9.0436 7.8743-14.2967 10.0247-16.1921 0 0-10.0049 12.4608-7.8347 23.5131 0 0-1.342-1.394-1.5486-3.306 0 0-2.9913 15.165 10.9499 27.811z" fill="url(#f)"/><path d="m95.3245 140.322c2.0499.755 4.3584 1.075 4.3584 1.075-19.9721 2.648-30.4478-3.972-35.2427-8.737-1.4642-1.266-2.6643-2.714-3.4081-4.367 0 0 .1977.977.4905 2.125.291 1.148.6773 2.468 1.0528 3.153-13.943-12.644-10.9517-27.811-10.9517-27.811s-.4492 12.086 7.4017 19.453c0 0-.3773-1.636.4491-3.598 0 0 5.3789 11.092 28.6477 11.954 0 0-1.5343 1.369-4.168 1.732 0 0 9.9744 6.027 32.8748 3.169-6.193 1.324-12.157 1.705-16.246 1.809-2.8637.074-4.8058.011-5.2603.042z" fill="url(#g)"/><path d="m92.4915 109.997c-.433.237-.9073.501-1.4247.781-.0952.054-1.3438.721-1.4408.773-1.1408-1.915-.5767-4.256-.8066-5.893-.5606.814-.6971 1.955-.6971 1.955s0-.002-.0018-.009c-.0467-.235-1.0348-5.309 2.6679-6.655-.9378.426-1.5558 1.439-1.3816 2.561.327 2.118.9522 4.008.9522 4.008l1.1606-5.449.9737 7.928z" fill="url(#h)"/><path d="m100.423 101.934c-.417-.052-.8284-.106-1.2272-.16.3988.052.8082.106 1.2272.16z" fill="#bcb8b7"/><path d="m94.2481 99.7367c-3.5823-1.8235-8.8479-.7923-10.1558 3.9233 0 0 .4815-.652 1.2396-.858 0 0-1.1713 3.889.6881 7.195 0 0-.309-1.781.4653-3.358 0 0-.2048 2.447 1.4821 5.727.5462-.276 1.1839-.56 1.66-.815-.7006-2.359-.6557-4.21-.8066-5.893-.5066.819-.6971 1.462-.6989 1.946-.0467-.236-1.0348-5.309 2.6679-6.655.2066-.095.4294-.161.6647-.192h.0108c.2084-.029.4276-.027.6503.004l2.0714.294s1.0564.164 2.6374.39c1.1965.169 2.693.374 4.2636.57 3.197.397 6.699.754 8.573.697.528-.015.928-.065 1.155-.155 0 0-12.9874-.997-16.5679-2.8221z" fill="url(#i)"/><path d="m126.854 130.052s.154 1.739 3.76 3.483c0 0-.012.009-.039.023-.263.148-.525.29-.791.43-.043.023-.086.045-.133.068-2.607 1.299-10.296 4.454-20.543 2.609-2.312-.356-4.684-.976-7.045-1.962-.251-.106-.504-.216-.756-.329 0 0 .209-.018.588-.063 2.459-.278 12.044-1.552 17.178-4.895 0 0-10.039.637-14.739-.872-.093-.03-.183-.063-.273-.093 0 0 .144-.201.428-.546.041-.047.084-.099.133-.155.016-.018.032-.041.052-.061.205-.244.463-.535.772-.866.085-.091.176-.185.272-.285.061-.067.125-.133.194-.202.057-.059.118-.118.179-.179.052-.052.106-.106.16-.16.135-.133.275-.268.422-.404.069-.065.139-.128.209-.195.284-.264.589-.535.914-.812.083-.068.166-.138.248-.206.085-.07.169-.14.257-.21.086-.07.174-.14.262-.211.18-.14.361-.283.55-.425.196-.148.397-.295.604-.442.19-.135.386-.272.587-.408.103-.072.209-.142.316-.21.106-.07.212-.139.322-.209s.219-.138.331-.206c.222-.139.45-.275.684-.41.115-.066.234-.133.35-.198.237-.134.482-.264.728-.389.246-.128.498-.254.754-.376.128-.059.259-.122.389-.179.109-.053.221-.101.332-.15.027-.012.056-.025.083-.037.095-.042.188-.081.283-.121.198-.084.399-.165.604-.246.093-.036.189-.072.284-.108.032-.012.068-.025.1-.037.112-.043.227-.085.342-.124.018-.006.036-.013.054-.018.125-.045.253-.088.382-.13.191-.064.383-.125.577-.183.252-.079.509-.153.769-.221.153-.041.305-.081.458-.118.079-.02.16-.04.239-.058.126-.03.253-.061.385-.088.001 0 .005 0 .009-.002.159-.036.319-.068.483-.099.032-.005.066-.014.097-.017.106-.024.212-.042.32-.06.115-.021.231-.041.346-.059.119-.018.237-.038.356-.056 2.062-.316 4.288-.368 6.662-.037 0 0-.002-.002-.006-.006-.219-.239-6.519-7.028-13.318-7.603 0 0 13.221-2.898 21.072 11.827 0 0-6.3-1.705-12.962.62 0 0 17.335 1.221 23.572 17.052-.208-.384-6.199-11.302-18.838-10.375z" fill="url(#j)"/><path d="m114.116 125.693c.322-1.105.67-4.13 13.199-7.163-2.378-.309-4.595-.26-6.641.04-.119.018-.238.038-.356.056-.115.018-.232.039-.347.059-.108.018-.216.038-.32.059-.03.004-.064.013-.097.018-.163.031-.325.065-.483.099-.002.002-.005.002-.009.002-.129.027-.259.057-.384.088-.081.018-.162.037-.239.057-.153.038-.306.078-.458.119-.261.068-.516.142-.769.221-.194.057-.387.12-.577.183-.128.041-.257.084-.383.129-.018.006-.036.013-.054.018-.113.04-.23.081-.341.124-.032.013-.068.025-.101.038-.095.036-.19.072-.283.108-.205.081-.405.162-.604.246-.095.039-.189.079-.284.12-.027.013-.056.025-.083.038-.111.047-.222.097-.332.149-.129.058-.26.121-.388.18-.257.122-.508.248-.755.375-.246.126-.49.257-.727.39-.119.067-.235.133-.35.198-.234.135-.46.271-.685.409-.111.069-.221.137-.331.207-.109.07-.217.138-.321.208-.108.069-.212.139-.316.211-.202.136-.397.273-.588.407-.206.148-.408.295-.603.442-.189.142-.37.286-.55.426-.088.07-.176.14-.262.21-.087.07-.171.14-.257.211-.083.068-.166.138-.248.206-.327.277-.633.548-.915.812-.07.067-.14.13-.208.194-.147.137-.288.273-.422.404-.054.054-.108.108-.16.16-.063.063-.122.121-.18.18-.068.068-.133.135-.194.201-.095.099-.187.194-.271.286-.309.33-.568.621-.773.866-.018.02-.037.043-.052.061h-.002c-.046.056-.088.108-.129.154-.284.345-.427.546-.427.546.088.031.179.063.273.094.08.025.161.05.244.074.248.071.508.14.781.204.392.088.809.169 1.242.239.086.015.174.027.262.042.106.016.21.03.318.045.106.014.216.028.322.043.222.028.451.055.681.08.168.018.341.036.512.053.722.066 1.462.115 2.2.151.23.01.46.019.688.028.203.009.405.013.604.018.027 0 .052.002.079.002.113.002.226.005.34.009.079.002.16.002.237.004 3.377.059 6.23-.123 6.23-.123-5.136 3.346-14.719 4.618-17.178 4.896-.378.043-.588.063-.588.063.219.029.433.056.649.081 17.755 2.1 21.352-7.379 21.352-7.379-5.543.827-9.193-1.378-9.191-1.379z" fill="url(#k)"/><path d="m116.441 93.7398c.094.0593.182.1258.264.1976-.106.1743-.192.3737-.257.5947-3.264-1.6672-7.831-5.4974-10.321-7.682-1.126-.9881-2.001-2.2385-2.486-3.6542-2.183-6.3651-5.8173-9.9402-8.045-11.6416-1.0905-.8354-1.572-2.2331-1.263-3.5715 1.8433-7.9137-1.033-14.2807-1.033-14.2807-.7941 2.2726-8.1096 6.0238-8.1096 6.0238 2.2924-2.5044 5.5819-4.7159 8.3683-8.1922 3.3164 6.87 2.4631 13.2854 1.7391 16.3018-.2623 1.0977.1383 2.2349 1.006 2.9553 4.9782 4.1374 7.6322 10.402 8.5552 12.9441.307.8533.801 1.6276 1.446 2.269 2.945 2.9212 7.528 6.049 10.134 7.7359z" fill="#eeb31e"/><path d="m92.8883 113.775 5.5262-1.408c-14.7352 8.991-23.7485 5.943-23.7485 5.943 1.6564-.141 6.9562-1.423 9.0025-2.194 4.0745-1.382 7.6263-3.62 10.1181-4.924 4.4698-2.347 11.1514-4.777 18.3624-5.967 4.716-.778 9.662-1.024 14.365-.372-24.244.775-33.6275 8.922-33.6275 8.922z" fill="#eeb31e"/><path d="m85.1184 63.7628s2.0013-1.0761 3.3397-1.6959c-1.6169 1.9205-3.0146 2.4379-4.9117 5.5854.7042-2.6014 1.9816-3.3901 2.0355-3.4925.0503-.1024-1.6529.4923-1.6529.4923.6073-2.2798 4.7303-4.7393 4.8848-4.8291-2.6463 2.19-3.6954 3.9416-3.6954 3.9416z" fill="url(#m)"/><path d="m101.562 86.0094s-.011-.0144-.018-.027c-.007-.0125-.018-.0305-.032-.0503-.002-.0018-.002-.0054-.006-.0054-.014-.0251-.032-.0503-.052-.0826-.007-.0108-.014-.0198-.023-.0323-.02-.0306-.045-.0647-.074-.1024-.106-.1545-.257-.3575-.451-.5965-.023-.0269-.048-.0575-.074-.0898-.048-.0611-.1-.124-.158-.1922-.052-.0629-.107-.1258-.163-.1923-.155-.1742-.322-.3575-.509-.5461-.0354-.036-.0732-.0737-.1109-.1114-.6755-.6755-1.5468-1.4031-2.5942-1.9924-.0521-.0305-.106-.0611-.1581-.088-.0198-.0108-.0377-.0198-.0557-.0305l-.1886-.0988c-.1294-.0647-.2587-.1258-.3899-.1869-.0647-.0305-.1329-.0575-.2012-.088-.0701-.0306-.1419-.0575-.212-.0863-.0647-.0269-.1311-.0521-.1994-.0754-.0683-.027-.1383-.0521-.2084-.0755-.0737-.0251-.1437-.0485-.2138-.07-.1437-.0449-.2892-.0881-.4401-.1258-.0737-.0197-.1492-.0377-.2246-.0557-.0737-.0179-.1509-.0323-.2264-.0485-.0557-.0126-.1114-.0233-.167-.0323-.3396-.0629-.6935-.106-1.0564-.1258-.0701-.0018-.1419-.0072-.212-.0072-.0862-.0018-.1689-.0054-.2551-.0054 5.7795-.6431 8.5928 5.0537 8.6738 5.2226z" fill="#eeb31e"/><path d="m95.8706 85.5045c-2.393-1.2091-1.3959-3.4889-1.3959-3.4889-.415-.5587-1.5163-1.1893-1.5846-1.227h.0126c.0108.0054.027.0126.0449.0179.2767.1006 1.4103.539 1.9277 1.2504 0 0-1.0887 2.1235.9001 3.3937.0305.0198.0629.0377.0952.0557z" fill="url(#n)"/><path d="m60.9637 85.6716-.097.2641c.0395-.1114.0719-.2012.097-.2641z" fill="url(#o)"/><path d="m61.0071 85.5586s-.0092.0238-.0183.0477z" fill="url(#p)"/></svg>