<?xml version="1.0" encoding="UTF-8"?>
<svg id="Layer_1" data-name="Layer 1" xmlns="http://www.w3.org/2000/svg" xmlns:xlink="http://www.w3.org/1999/xlink" viewBox="0 0 600 600">
  <defs>
    <style>
      .cls-1 {
        fill: url(#linear-gradient-2);
      }

      .cls-2 {
        fill: #eeb31e;
      }

      .cls-3 {
        fill: url(#linear-gradient-14);
      }

      .cls-4 {
        fill: #bcb8b7;
      }

      .cls-5 {
        fill: url(#linear-gradient-6);
      }

      .cls-6 {
        fill: #2f140e;
      }

      .cls-7 {
        fill: url(#linear-gradient-11);
      }

      .cls-8 {
        fill: url(#linear-gradient-10);
      }

      .cls-9 {
        fill: url(#linear-gradient-5);
      }

      .cls-10 {
        fill: url(#linear-gradient-7);
      }

      .cls-11 {
        fill: #f6f3f4;
      }

      .cls-12 {
        fill: url(#linear-gradient-9);
      }

      .cls-13 {
        fill: url(#linear-gradient-3);
      }

      .cls-14 {
        fill: url(#linear-gradient);
      }

      .cls-15 {
        fill: url(#linear-gradient-4);
      }

      .cls-16 {
        fill: url(#linear-gradient-8);
      }

      .cls-17 {
        fill: url(#linear-gradient-12);
      }

      .cls-18 {
        fill: url(#linear-gradient-13);
      }
    </style>
    <linearGradient id="linear-gradient" x1="33.28" y1="348.11" x2="400.24" y2="477.57" gradientUnits="userSpaceOnUse">
      <stop offset="0" stop-color="#ee3624"/>
      <stop offset=".19" stop-color="#ef4623"/>
      <stop offset=".51" stop-color="#f08121"/>
      <stop offset=".76" stop-color="#f19121"/>
    </linearGradient>
    <linearGradient id="linear-gradient-2" x1="93.19" y1="188" x2="397.42" y2="295.33" xlink:href="#linear-gradient"/>
    <linearGradient id="linear-gradient-3" x1="107.3" y1="271.36" x2="192.92" y2="143.09" gradientUnits="userSpaceOnUse">
      <stop offset="0" stop-color="#c52326"/>
      <stop offset=".5" stop-color="#cf3027"/>
      <stop offset=".76" stop-color="#dd4726"/>
      <stop offset=".91" stop-color="#e24f25"/>
    </linearGradient>
    <linearGradient id="linear-gradient-4" x1="133.67" y1="333.06" x2="369.97" y2="303.65" gradientUnits="userSpaceOnUse">
      <stop offset="0" stop-color="#c52326"/>
      <stop offset=".23" stop-color="#cf3027"/>
      <stop offset=".44" stop-color="#dd4726"/>
      <stop offset=".91" stop-color="#e24f25"/>
    </linearGradient>
    <linearGradient id="linear-gradient-5" x1="35.18" y1="244.29" x2="70.63" y2="421.01" gradientUnits="userSpaceOnUse">
      <stop offset="0" stop-color="#c42126"/>
      <stop offset=".4" stop-color="#cb2a27"/>
    </linearGradient>
    <linearGradient id="linear-gradient-6" x1="34.33" y1="426.3" x2="381.87" y2="539.22" gradientUnits="userSpaceOnUse">
      <stop offset=".06" stop-color="#cf3027"/>
      <stop offset=".24" stop-color="#ef4623"/>
      <stop offset=".76" stop-color="#f19121"/>
    </linearGradient>
    <linearGradient id="linear-gradient-7" x1="239.43" y1="362.17" x2="256.04" y2="343.24" gradientUnits="userSpaceOnUse">
      <stop offset=".64" stop-color="#b3b1b1"/>
      <stop offset="1" stop-color="#d1cdcd"/>
    </linearGradient>
    <linearGradient id="linear-gradient-8" x1="213.19" y1="356.98" x2="357.58" y2="321.25" gradientUnits="userSpaceOnUse">
      <stop offset=".56" stop-color="#dad6d6"/>
      <stop offset=".8" stop-color="#ebe8e8"/>
    </linearGradient>
    <linearGradient id="linear-gradient-9" x1="344.53" y1="491.2" x2="582.2" y2="435.12" gradientUnits="userSpaceOnUse">
      <stop offset=".14" stop-color="#dad6d6"/>
      <stop offset=".52" stop-color="#ebe8e8"/>
    </linearGradient>
    <linearGradient id="linear-gradient-10" x1="352.73" y1="488.91" x2="442.68" y2="430.61" gradientUnits="userSpaceOnUse">
      <stop offset=".06" stop-color="#b3b1b1"/>
      <stop offset=".67" stop-color="#d1cdcd"/>
    </linearGradient>
    <linearGradient id="linear-gradient-11" x1="206.46" y1="118.2" x2="235.79" y2="118.2" gradientUnits="userSpaceOnUse">
      <stop offset=".44" stop-color="#dd4726"/>
      <stop offset=".91" stop-color="#e24f25"/>
    </linearGradient>
    <linearGradient id="linear-gradient-12" x1="263.31" y1="227.58" x2="274.08" y2="223.41" xlink:href="#linear-gradient-11"/>
    <linearGradient id="linear-gradient-13" x1="80.48" y1="241.02" x2="80.5" y2="241.03" xlink:href="#linear-gradient"/>
    <linearGradient id="linear-gradient-14" x1="80.94" y1="239.79" x2="80.95" y2="239.79" xlink:href="#linear-gradient"/>
  </defs>
  <path class="cls-6" d="m567.75,470.25c.29.18.49.31.63.4l29.46,17.81-12.83-31.94c-14.44-35.93-34.5-62-59.63-77.49-1.94-1.2-3.86-2.31-5.77-3.32,11.71,1.03,21.63,3.05,21.63,3.05-7.93-7.93-16.32-13.27-23.32-16.79-4.68-2.35-8.75-3.89-11.66-4.84-2.97-.97-4.74-1.33-4.74-1.33h0c-17.63-4.75-34.96-7.14-51.66-7.14-.95,0-1.89.01-2.82.02v-.13c12.71-3.16,32.86-4.86,32.86-4.86-13.15-4.32-28.41-6.51-43.12-7.47-7.35-.67-14.91-1.01-22.63-1.01-12.17,0-24.83.84-37.77,2.48-.06.01-.1.01-.1.01,1.39-1.45,2.48-2.84,3.33-4.1,9.06-4.67,16.49-10.39,22.1-17.06,4.13-4.92,6.24-11.04,6.19-17.24-1.01-12.71-8.65-19.46-11.23-21.4-.29-.2-.57-.41-.86-.61-26.24-16.97-47.32-33.43-58.36-45.52-3.33-10.19-16.98-47.54-45.51-75.03-5.61-5.42-8.19-13.23-6.89-20.93,3.44-20.53,4.5-53.58-12.49-88.79l-7.93-16.42-11.4,14.24c-8.59,10.72-18.19,19.2-27.48,27.4-6.69,5.92-13.02,11.5-18.6,17.6l-3.02,3.31v.14c-6.01,7.18-10.07,14.15-12.67,21.77-.02.06-.03.1-.06.16l-1.58.79c-1.12.55-2.25,1.06-3.42,1.53-112.4,45.12-116.57,106.73-116.7,109.34l-.45,9.69c-14.2,13.51-40.61,43.66-55.04,91.61-3.42,11.31-5.69,23.04-6.76,34.9v.14c-.13,1.23-.23,2.45-.31,3.68l-.02.38v.09c-.08,1.15-.14,2.31-.2,3.47-.06,1.32-.11,2.63-.14,3.94-.03,1.3-.05,2.6-.05,3.91,0,11.36,1.13,22.72,3.33,33.78v.02l.24,1.15c5.77,27.98,18.6,53.99,37.09,75.21,11.36,13.07,23.83,23.16,37.04,30l33.59,17.39-3.02-5.51c27.98,19.24,70.33,36.34,132.51,36.34,7.59,0,15.38-.27,23.33-.79h0s39.65-2.01,61.79-5.75c0,0-19.66-1.07-34.04-2.97,1-.02,2.01-.04,3-.06,22.71-.59,44.39-2.39,64.75-5.36h0s.08,0,.22-.03c4.18-.61,8.31-1.28,12.37-1.99,15.93-2.66,42.51-7.48,52.69-11.53,0,0-22.44,1.68-38.19-.07,37.14-1.8,64.31-13.4,74.83-18.64.31-.16.62-.32.93-.48,1.54-.82,3.06-1.64,4.58-2.48.44-.24.84-.48,1.21-.75l15.89-10.94c32.7,13.24,49.38,41.68,51.27,45.06l12.15,24.3,8.97-25.68c11.92-34.11,2.58-64.55-8.65-85.45,4.97,2.13,9.42,4.4,13.14,6.78Zm-289.01-129.03c1.54.22,3.17.45,4.86.68,0,0,3.46.47,3.91.54.74.1,1.49.21,2.25.31h.13c.68.1,1.38.2,2.14.3,2.25.31,4.59.61,6.85.89.7.09,3.79.48,3.79.48,9.68,1.21,18.19,2.14,25.5,2.79-21.77,5.81-42.86,13.47-61.32,22.31l-3.75-30.61"/>
  <path class="cls-14" d="m421.46,412.1s-43.06-24.15-69.64-22.62c0,0,9.54-33.51,93.82-42.43-26.18-3.63-53.71-2.27-79.96,2.07-40.14,6.62-77.33,20.15-102.21,33.21-13.87,7.27-33.65,19.72-56.32,27.41-4.85,1.82-12.97,4.16-21.41,6.31-19.71,5.01-40.72,1.56-57.61-9.79-.09-.06-.17-.11-.25-.17-30.02-20.28-45.22-45.58-52.15-70.28-1.23-4.42-2.21-8.8-2.94-13.13-6.46-37.49,3.98-71.17,7.28-80.5l-5.04,13.43c1.7-5.21,3.6-10.35,5.74-15.33l.03-.08.07-.18c.06-.14.13-.29.18-.43l-.03.03c-11.97,10.54-40.65,39.79-55.8,90.13-3.23,10.71-5.32,21.62-6.31,32.55-.1,1.21-.21,2.4-.29,3.61v.13c-.09,1.2-.15,2.39-.21,3.59-.06,1.23-.1,2.45-.13,3.67-.03,1.22-.05,2.43-.05,3.65,0,10.99,1.12,21.93,3.33,32.62h0c5.28,25.56,16.85,49.72,34.51,70,9.41,10.81,20.57,20.56,33.66,27.33-2.09-3.81-4.24-11.15-5.86-17.55-1.62-6.39-2.73-11.83-2.73-11.83,4.14,9.2,10.82,17.26,18.97,24.31,26.69,26.52,85,63.37,196.17,48.63,0,0-12.86-1.78-24.26-5.98,2.53-.17,13.34.18,29.28-.23,22.76-.59,55.95-2.7,90.43-10.07-40.26,4.36-71.9-3.97-92.33-12.44-16.85-6.6-26.29-13.56-26.3-14.22,13.12-1.18,38.42-2.61,60.6-13.02,0,0-19.74-.57-41.02-12.65,0,0,50.88-67.93,128.79-69.75Zm-357.14,8.76s.01-.17.02-.49l.85.34c-.57.1-.87.15-.87.15Z"/>
  <path class="cls-1" d="m388.8,295.23c0-3.48.85-6.63,2.23-8.92-.46-.4-.95-.77-1.47-1.1-16.42-10.62-46.91-31.51-62.35-49.39,0,0-16.54-56.68-58.29-84.77,0,0,18.77-47.96-6.73-100.77-15.51,19.35-33.82,31.67-46.58,45.59h0c-5.86,6.4-10.56,13.14-13.26,21.05-1.95,5.91-3.06,13.41-.91,21.51,0,0-5.42-4.17-8.54-12.87l-.07.03c-108.97,42.99-111.65,100.07-111.65,100.07,5.8-3.17,13.89-6.81,22.66-8.35-.01.01-.02.02-.02.03,0,0-.01.01-.03.05-1.52,1.75-7.05,10.31-13.1,25.86h.01l-.11.32-.05.11-.14.36-.02.05-.51,1.37c-.45,1.26-1.05,3.01-1.71,5.19-.46,1.49-.94,3.2-1.45,5.07-.13.45-.24.92-.37,1.39-.24.94-.49,1.92-.74,2.94-.34,1.48-.7,3.04-1.05,4.67-.01.06-.02.11-.03.18-.36,1.7-.7,3.48-1.02,5.34-.21,1.18-.4,2.39-.6,3.63-.12.77-.23,1.55-.33,2.35-.36,2.55-.66,5.21-.91,7.96-.01.09-.02.18-.02.28-.11,1.39-.22,2.79-.31,4.22-.23,3.78-.32,7.72-.25,11.76,11.29-9.29,23.33-16.12,23.77-16.36-5.93,10.97-12.75,28.18-18.46,51.38,7.67,25.16,23.55,46.04,47.27,62.06l.28.2c9.96,6.68,21.69,10.23,33.9,10.23,5.16,0,10.33-.64,15.34-1.92.21-.06.41-.1.61-.16,12.3-17.06,11.91-39.38,11.91-39.38l11.5,3.45c-25.3-20.7-17.16-65.54-17.16-65.54-10.92,7.76-15.04,15.33-15.04,15.33-.3-50.1,53.56-53.56,53.56-53.56-9.2-6.32-24.6-2.59-24.6-2.59,33.2-24.72,61.1,2.87,92.31,28.17,31.22,25.3,75.01,31.39,75.01,31.39,10.51-4.89,17.28-10.59,21.63-15.75.16-.2.31-.38.46-.59-2.69-1.94-4.58-6.39-4.58-11.57Zm-130.94-149.18s-11.02-14.48-26.5-17.25c0,0,4.55,3.31,7.41,10.39-.51-.15-13.38-4.12-32.3.8,10.57-17.52,18.34-20.4,27.34-31.09-7.45,3.45-18.59,9.44-18.59,9.44,0,0,5.84-9.75,20.57-21.94.01-.02.02-.02.02-.02.69-.56,1.39-1.14,2.13-1.72,13.4-10.67,17.04-18.63,17.04-18.63.02-.03.05-.03.05-.06.02-.01.03-.01.05-.03.01,0,.01-.01.02-.01,0,0,11.56,41.5,2.77,70.12Zm18.56,91.24c-.15-.08-.3-.16-.44-.25-9.07-5.8-4.11-15.49-4.11-15.49-2.36-3.24-7.53-5.24-8.8-5.7-.08-.02-.16-.06-.21-.07h-.06v-.02c.38,0,.76.01,1.15.02.32.01.64.02.97.03,1.66.09,3.27.29,4.82.57.25.05.51.09.76.15.35.07.7.14,1.03.22.34.08.69.16,1.02.25.69.17,1.36.37,2.01.57.33.1.66.21.98.32.32.1.64.22.95.34.31.1.61.22.91.35.32.13.64.25.97.39.31.13.62.26.92.4.6.28,1.2.55,1.78.85l.86.45c.08.05.16.09.25.14.24.13.48.26.72.4,4.78,2.69,8.76,6.01,11.84,9.1.17.17.34.33.51.51.85.86,1.62,1.7,2.32,2.5.25.3.51.59.75.87.26.31.51.6.72.87.11.14.23.28.33.41.89,1.09,1.58,2.02,2.06,2.73.13.17.24.33.33.47.03.06.07.1.1.15.1.15.18.28.24.38.01,0,.01.01.02.02.07.09.11.17.15.23.03.06.07.1.08.13.01.01.01.02.01.02,0,0-18.08,2.22-25.99-2.32Z"/>
  <path class="cls-6" d="m306.76,242.19s-22.04,2.71-31.69-2.83c-.18-.1-.36-.2-.53-.31-11.06-7.07-5.01-18.89-5.01-18.89-2.87-3.95-9.18-6.39-10.73-6.96-.1-.03-.2-.07-.25-.08h-.07v-.03c.46,0,.93.01,1.4.03.39,0,.79.03,1.18.04,2.02.11,3.98.35,5.88.7.31.06.62.11.93.18.42.08.86.17,1.26.27.42.1.84.2,1.25.31.84.21,1.65.45,2.45.7.39.13.79.25,1.19.39.39.13.79.27,1.16.42.38.13.74.27,1.11.42.39.15.79.31,1.18.48.38.17.76.32,1.12.49.73.34,1.46.67,2.17,1.04l1.05.55c.1.06.2.11.31.17.29.15.59.32.88.49,5.83,3.28,10.69,7.33,14.44,11.09.21.21.42.41.62.62,1.04,1.05,1.98,2.08,2.83,3.04.31.36.62.72.91,1.07.32.38.62.73.88,1.07.14.17.28.34.41.5,1.08,1.33,1.92,2.47,2.51,3.32.15.21.28.41.41.57.04.07.08.13.13.18.11.18.21.32.29.46.01,0,.01.01.03.03.07.11.13.2.18.28.04.07.08.13.1.15.01.01.01.03.01.03Z"/>
  <path class="cls-11" d="m525.77,442.72s46.24,46.29,26.63,102.4c0,0-.01-.02-.02-.06-1.16-2.14-34.51-62.91-104.86-57.75,0,0,.86,9.68,20.93,19.39,0,0-.07.05-.22.13-1.46.82-2.92,1.61-4.4,2.39-.24.13-.48.25-.74.38-14.51,7.23-57.31,24.79-114.35,14.52-12.87-1.98-26.07-5.43-39.21-10.92-1.4-.59-2.81-1.2-4.21-1.83,0,0,1.16-.1,3.27-.35,13.69-1.55,67.04-8.64,95.62-27.25,0,0-55.88,3.55-82.04-4.85-.52-.17-1.02-.35-1.52-.52,0,0,.8-1.12,2.38-3.04.23-.26.47-.55.74-.86.09-.1.18-.23.29-.34,1.14-1.36,2.58-2.98,4.3-4.82.47-.51.98-1.03,1.51-1.59.34-.37.7-.74,1.08-1.12.32-.33.66-.66,1-1,.29-.29.59-.59.89-.89.75-.74,1.53-1.49,2.35-2.25.38-.36.77-.71,1.16-1.08,1.58-1.47,3.28-2.98,5.09-4.52.46-.38.92-.77,1.38-1.15.47-.39.94-.78,1.43-1.17.48-.39.97-.78,1.46-1.17,1-.78,2.01-1.58,3.06-2.37,1.09-.82,2.21-1.64,3.36-2.46,1.06-.75,2.15-1.51,3.27-2.27.57-.4,1.16-.79,1.76-1.17.59-.39,1.18-.77,1.79-1.16.61-.39,1.22-.77,1.84-1.15,1.24-.77,2.51-1.53,3.81-2.28.64-.37,1.3-.74,1.95-1.1,1.32-.75,2.68-1.47,4.05-2.17,1.37-.71,2.77-1.41,4.2-2.09.71-.33,1.44-.68,2.16-1,.61-.29,1.23-.56,1.85-.83.15-.07.31-.14.46-.21.53-.23,1.05-.45,1.58-.67,1.1-.47,2.22-.92,3.36-1.37.52-.2,1.05-.4,1.58-.6.18-.07.38-.14.56-.21.62-.24,1.26-.47,1.9-.69.1-.03.2-.07.3-.1.7-.25,1.41-.49,2.13-.72,1.06-.36,2.13-.7,3.21-1.02,1.4-.44,2.83-.85,4.28-1.23.85-.23,1.7-.45,2.55-.66.44-.11.89-.22,1.33-.32.7-.17,1.41-.34,2.14-.49.01,0,.03,0,.05-.01.89-.2,1.78-.38,2.69-.55.18-.03.37-.08.54-.1.59-.13,1.18-.23,1.78-.33.64-.12,1.29-.23,1.93-.33.66-.1,1.32-.21,1.98-.31,11.48-1.76,23.87-2.05,37.08-.21,0,0-.01-.01-.03-.03-1.22-1.33-36.29-39.12-74.13-42.32,0,0,2.24-2.12,7.73-4.92,16.88-9.38,60.84-27.11,126.47-5.54,0,0,.01,0,.02.01.45.14.91.3,1.37.45-3.12-.78-19.46-5.52-42.67,4.96,1.55-.29,67.49-9.33,105.39,85-1.54-.93-16.85-11.53-48.57-18.09Z"/>
  <path class="cls-11" d="m371.29,323.14s-1.43,4.34-7.52,8.3c-1.53,1-3.35,1.98-5.52,2.85-1.25.51-3.48.78-6.43.86-10.43.32-29.92-1.67-47.72-3.88-1.24-.16-2.48-.31-3.7-.47-2.32-.29-4.61-.59-6.83-.89-.75-.1-1.49-.21-2.22-.3-.71-.09-1.43-.18-2.12-.29-.71-.1-1.41-.2-2.09-.29-2.4-.33-4.67-.64-6.77-.94-8.81-1.26-14.68-2.17-14.68-2.17l-11.53-1.64c-8.89-1.26-16.45,6.42-15.07,15.29,1.82,11.79,5.3,22.31,5.3,22.31l6.46-30.33,5.42,44.13c-2.41,1.32-5.05,2.79-7.93,4.35h0c-.53.3-1.06.59-1.6.87-2.64,1.43-5.47,2.92-8.51,4.46-15.65,7.93-36.47,16.9-63.05,22.33,21.25-16.66,20.54-41.21,20.54-41.21l11.5,3.45c-25.3-20.7-17.16-65.54-17.16-65.54-10.92,7.76-15.04,15.33-15.04,15.33-.3-50.1,53.56-53.56,53.56-53.56-9.2-6.32-24.6-2.59-24.6-2.59,33.2-24.72,61.1,2.87,92.31,28.17,29.76,24.11,70.92,30.78,74.72,31.35.2.03.29.05.29.05Z"/>
  <path class="cls-13" d="m127.09,265.68s-24.99,40.89-22.08,105.59c-1.06-1.36-2.09-2.73-3.07-4.1-1.38-7.15-2.67-15.21-3.02-21.95,0,0-1.4,4.32-3.22,12.13-3.85-6.86-6.96-14.14-9.29-21.85,5.68-23.22,12.5-40.44,18.44-51.41-.46.24-12.86,7.07-23.77,16.19-.45-26.27,6.3-47.81,8.8-54.8l.83-2.21h-.01c6.05-15.55,11.58-24.11,13.1-25.86.02-.03.03-.05.03-.05,0-.01.01-.02.02-.03-8.77,1.54-16.87,5.17-22.66,8.35,0,0,2.68-57.08,111.65-100.07-2.66,1.41-87.77,46.98-95.07,82.49,0,0,16.96-1.72,26.45,0,0,0-30.09,37.28-34.69,75.98,0,0,18.98-16.29,37.57-18.4Z"/>
  <path class="cls-15" d="m370.79,323.06c-4.88-.74-45.21-7.58-74.51-31.31-31.21-25.3-59.11-52.89-92.31-28.17,0,0,15.4-3.74,24.6,2.59,0,0-53.86,3.46-53.56,53.56,0,0,4.12-7.57,15.04-15.33,0,0-8.14,44.85,17.16,65.54l-11.5-3.45s.17,5.76-2.07,13.59c-2.25,7.86-6.93,17.82-16.65,26.14l-1.82,1.48c7.12-15.14,6.21-44.42,6.21-44.42,0,0-8.06,10.8-26.53,22.05-1.18-7.76-1.24-15.29-.72-22.03,1.2-15.94,5.54-27.48,5.54-27.48-18.4,10.54-25.64,29.9-25.64,29.9-2.87-66.54,59.38-105.97,59.38-105.97-9.39-.2-25.3,5.36-25.3,5.36,45.99-42.55,93.9-15.9,128.18,17.82,32.08,31.56,69.8,39.27,74.51,40.13Z"/>
  <path class="cls-9" d="m89.73,506.91c-13.09-6.77-24.25-16.52-33.66-27.33-17.66-20.28-29.23-44.44-34.51-69.99h0c-3.2-15.44-4.11-31.38-2.67-47.27.99-10.94,3.08-21.85,6.31-32.55,15.16-50.34,43.83-79.58,55.8-90.13,0,0-55.69,69.36-43.61,130.88,0,0-7.47-7.76-8.62-18.4,0,0-16.65,84.41,60.95,154.8Z"/>
  <path class="cls-5" d="m272.02,544.49c11.41,4.2,24.26,5.98,24.26,5.98-111.17,14.74-169.48-22.11-196.17-48.63-8.15-7.05-14.83-15.11-18.97-24.31,0,0,1.1,5.44,2.73,11.83,1.62,6.39,3.77,13.74,5.86,17.55C12.12,436.53,28.77,352.11,28.77,352.11c0,0-2.5,67.27,41.2,108.28,0,0-2.1-9.11,2.5-20.03,0,0,29.94,61.74,159.46,66.54,0,0-8.54,7.62-23.2,9.64,0,0,55.52,33.55,182.99,17.64-34.47,7.37-67.67,9.49-90.43,10.07-15.94.41-26.75.06-29.28.23Z"/>
  <path class="cls-10" d="m256.25,375.69c-2.41,1.32-5.05,2.79-7.93,4.35h0c-.53.3-7.48,4.01-8.02,4.3-6.35-10.66-3.21-23.69-4.49-32.8-3.12,4.53-3.88,10.88-3.88,10.88,0,0,0-.01-.01-.05-.26-1.31-5.76-29.55,14.85-37.04-5.22,2.37-8.66,8.01-7.69,14.25,1.82,11.79,5.3,22.31,5.3,22.31l6.46-30.33,5.42,44.13Z"/>
  <path class="cls-4" d="m300.4,330.81c-2.32-.29-4.61-.59-6.83-.89,2.22.29,4.5.59,6.83.89Z"/>
  <path class="cls-16" d="m266.03,318.58c-19.94-10.15-49.25-4.41-56.53,21.84,0,0,2.68-3.63,6.9-4.78,0,0-6.52,21.65,3.83,40.05,0,0-1.72-9.91,2.59-18.69,0,0-1.14,13.62,8.25,31.88,3.04-1.54,6.59-3.12,9.24-4.54-3.9-13.13-3.65-23.43-4.49-32.8-2.82,4.56-3.88,8.14-3.89,10.83-.26-1.31-5.76-29.55,14.85-37.04,1.15-.53,2.39-.9,3.7-1.07h.06c1.16-.16,2.38-.15,3.62.02l11.53,1.64s5.88.91,14.68,2.17c6.66.94,14.99,2.08,23.73,3.17,17.8,2.21,37.29,4.2,47.72,3.88,2.94-.08,5.17-.36,6.43-.86,0,0-72.29-5.55-92.22-15.71Z"/>
  <path class="cls-12" d="m447.52,487.32s.86,9.68,20.93,19.39c0,0-.07.05-.22.13-1.46.82-2.92,1.61-4.4,2.39-.24.13-.48.25-.74.38-14.51,7.23-57.31,24.79-114.35,14.52-12.87-1.98-26.07-5.43-39.21-10.92-1.4-.59-2.81-1.2-4.21-1.83,0,0,1.16-.1,3.27-.35,13.69-1.55,67.04-8.64,95.62-27.25,0,0-55.88,3.55-82.04-4.85-.52-.17-1.02-.35-1.52-.52,0,0,.8-1.12,2.38-3.04.23-.26.47-.55.74-.86.09-.1.18-.23.29-.34,1.14-1.36,2.58-2.98,4.3-4.82.47-.51.98-1.03,1.51-1.59.34-.37.7-.74,1.08-1.12.32-.33.66-.66,1-1,.29-.29.59-.59.89-.89.75-.74,1.53-1.49,2.35-2.25.38-.36.77-.71,1.16-1.08,1.58-1.47,3.28-2.98,5.09-4.52.46-.38.92-.77,1.38-1.15.47-.39.94-.78,1.43-1.17.48-.39.97-.78,1.46-1.17,1-.78,2.01-1.58,3.06-2.37,1.09-.82,2.21-1.64,3.36-2.46,1.06-.75,2.15-1.51,3.27-2.27.57-.4,1.16-.79,1.76-1.17.59-.39,1.18-.77,1.79-1.16.61-.39,1.22-.77,1.84-1.15,1.24-.77,2.51-1.53,3.81-2.28.64-.37,1.3-.74,1.95-1.1,1.32-.75,2.68-1.47,4.05-2.17,1.37-.71,2.77-1.41,4.2-2.09.71-.33,1.44-.68,2.16-1,.61-.29,1.23-.56,1.85-.83.15-.07.31-.14.46-.21.53-.23,1.05-.45,1.58-.67,1.1-.47,2.22-.92,3.36-1.37.52-.2,1.05-.4,1.58-.6.18-.07.38-.14.56-.21.62-.24,1.26-.47,1.9-.69.1-.03.2-.07.3-.1.7-.25,1.41-.49,2.13-.72,1.06-.36,2.13-.7,3.21-1.02,1.4-.44,2.83-.85,4.28-1.23.85-.23,1.7-.45,2.55-.66.44-.11.89-.22,1.33-.32.7-.17,1.41-.34,2.14-.49.01,0,.03,0,.05-.01.89-.2,1.78-.38,2.69-.55.18-.03.37-.08.54-.1.59-.13,1.18-.23,1.78-.33.64-.12,1.29-.23,1.93-.33.66-.1,1.32-.21,1.98-.31,11.48-1.76,23.87-2.05,37.08-.21,0,0-.01-.01-.03-.03-1.22-1.33-36.29-39.12-74.13-42.32,0,0,73.59-16.13,117.29,65.83,0,0-35.07-9.49-72.15,3.45,0,0,96.49,6.8,131.21,94.92-1.16-2.14-34.51-62.91-104.86-57.75Z"/>
  <path class="cls-8" d="m376.62,463.06c1.79-6.15,3.73-22.99,73.47-39.87-13.24-1.72-25.58-1.45-36.97.22-.66.1-1.32.21-1.98.31-.64.1-1.29.22-1.93.33-.6.1-1.2.21-1.78.33-.17.02-.36.07-.54.1-.91.17-1.81.36-2.69.55-.01.01-.03.01-.05.01-.72.15-1.44.32-2.14.49-.45.1-.9.21-1.33.32-.85.21-1.7.43-2.55.66-1.45.38-2.87.79-4.28,1.23-1.08.32-2.15.67-3.21,1.02-.71.23-1.43.47-2.13.72-.1.03-.2.07-.3.1-.63.22-1.28.45-1.9.69-.18.07-.38.14-.56.21-.53.2-1.06.4-1.58.6-1.14.45-2.25.9-3.36,1.37-.53.22-1.05.44-1.58.67-.15.07-.31.14-.46.21-.62.26-1.24.54-1.85.83-.72.32-1.45.67-2.16,1-1.43.68-2.83,1.38-4.2,2.09-1.37.7-2.73,1.43-4.05,2.17-.66.37-1.31.74-1.95,1.1-1.3.75-2.56,1.51-3.81,2.28-.62.38-1.23.76-1.84,1.15-.61.39-1.21.77-1.79,1.16-.6.38-1.18.77-1.76,1.17-1.12.76-2.21,1.52-3.27,2.27-1.15.82-2.27,1.64-3.36,2.46-1.05.79-2.06,1.59-3.06,2.37-.49.39-.98.78-1.46,1.17-.48.39-.95.78-1.43,1.17-.46.38-.92.77-1.38,1.15-1.82,1.54-3.52,3.05-5.09,4.52-.39.37-.78.72-1.16,1.08-.82.76-1.6,1.52-2.35,2.25-.3.3-.6.6-.89.89-.35.35-.68.67-1,1-.38.38-.74.75-1.08,1.12-.53.55-1.04,1.08-1.51,1.59-1.72,1.84-3.16,3.46-4.3,4.82-.1.11-.21.24-.29.34h-.01c-.26.31-.49.6-.72.86-1.58,1.92-2.38,3.04-2.38,3.04.49.17,1,.35,1.52.52.45.14.9.28,1.36.41,1.38.4,2.83.78,4.35,1.14,2.18.49,4.5.94,6.91,1.33.48.08.97.15,1.46.23.59.09,1.17.17,1.77.25.59.08,1.2.16,1.79.24,1.24.16,2.51.31,3.79.45.94.1,1.9.2,2.85.29,4.02.37,8.14.64,12.25.84,1.28.06,2.56.11,3.83.16,1.13.05,2.25.07,3.36.1.15,0,.29.01.44.01.63.01,1.26.03,1.89.05.44.01.89.01,1.32.02,18.8.33,34.68-.68,34.68-.68-28.59,18.62-81.93,25.7-95.62,27.25-2.1.24-3.27.35-3.27.35,1.22.16,2.41.31,3.61.45,98.83,11.69,118.85-41.07,118.85-41.07-30.85,4.6-51.17-7.67-51.16-7.68Z"/>
  <path class="cls-2" d="m389.56,285.2c.52.33,1.01.7,1.47,1.1-.59.97-1.07,2.08-1.43,3.31-18.17-9.28-43.59-30.6-57.45-42.76-6.27-5.5-11.14-12.46-13.84-20.34-12.15-35.43-32.38-55.33-44.78-64.8-6.07-4.65-8.75-12.43-7.03-19.88,10.26-44.05-5.75-79.49-5.75-79.49-4.42,12.65-45.14,33.53-45.14,33.53h0c12.76-13.94,31.07-26.25,46.58-45.6,18.46,38.24,13.71,73.95,9.68,90.74-1.46,6.11.77,12.44,5.6,16.45,27.71,23.03,42.48,57.9,47.62,72.05,1.71,4.75,4.46,9.06,8.05,12.63,16.39,16.26,41.9,33.67,56.41,43.06Z"/>
  <path class="cls-2" d="m258.46,396.72l30.76-7.84c-82.02,50.05-132.19,33.08-132.19,33.08,9.22-.78,38.72-7.92,50.11-12.21,22.68-7.69,42.45-20.15,56.32-27.41,24.88-13.06,62.07-26.59,102.21-33.21,26.25-4.33,53.78-5.7,79.96-2.07-134.95,4.31-187.18,49.66-187.18,49.66Z"/>
  <path class="cls-7" d="m215.21,118.34s11.14-5.99,18.59-9.44c-9,10.69-16.78,13.57-27.34,31.09,3.92-14.48,11.03-18.87,11.33-19.44.28-.57-9.2,2.74-9.2,2.74,3.38-12.69,26.33-26.38,27.19-26.88-14.73,12.19-20.57,21.94-20.57,21.94Z"/>
  <path class="cls-2" d="m306.74,242.17s-.06-.08-.1-.15c-.04-.07-.1-.17-.18-.28-.01-.01-.01-.03-.03-.03-.08-.14-.18-.28-.29-.46-.04-.06-.08-.11-.13-.18-.11-.17-.25-.36-.41-.57-.59-.86-1.43-1.99-2.51-3.32-.13-.15-.27-.32-.41-.5-.27-.34-.56-.69-.88-1.07-.29-.35-.6-.7-.91-1.07-.86-.97-1.79-1.99-2.83-3.04-.2-.2-.41-.41-.62-.62-3.76-3.76-8.61-7.81-14.44-11.09-.29-.17-.59-.34-.88-.49-.11-.06-.21-.11-.31-.17l-1.05-.55c-.72-.36-1.44-.7-2.17-1.04-.36-.17-.74-.32-1.12-.49-.39-.17-.79-.32-1.18-.48-.36-.15-.73-.29-1.11-.42-.38-.15-.77-.29-1.16-.42-.41-.14-.8-.27-1.19-.39-.8-.25-1.61-.49-2.45-.7-.41-.11-.83-.21-1.25-.31-.41-.1-.84-.18-1.26-.27-.31-.07-.62-.13-.93-.18-1.89-.35-3.86-.59-5.88-.7-.39-.01-.79-.04-1.18-.04-.48-.01-.94-.03-1.42-.03,32.17-3.58,47.83,28.13,48.28,29.07Z"/>
  <path class="cls-17" d="m275.06,239.36h0c-13.32-6.73-7.77-19.42-7.77-19.42-2.31-3.11-8.44-6.62-8.82-6.83h.07c.06.03.15.07.25.1,1.54.56,7.85,3,10.73,6.96,0,0-6.06,11.82,5.01,18.89.17.11.35.21.53.31Z"/>
  <path class="cls-18" d="m80.76,240.29l-.54,1.47c.22-.62.4-1.12.54-1.47Z"/>
  <path class="cls-3" d="m81,239.66s-.05.13-.1.26l.1-.26Z"/>
</svg>