<svg fill="none" height="200" viewBox="0 0 200 200" width="200" xmlns="http://www.w3.org/2000/svg"><path d="m100 184c46.392 0 84-37.608 84-84 0-46.3919-37.608-84-84-84-46.3919 0-84 37.6081-84 84 0 46.392 37.6081 84 84 84z" fill="#000" stroke="#000" stroke-miterlimit="11.3386" stroke-width="1.01664"/><path d="m53.6612 53.2777c-3.5418 3.7189-6.4638 6.8475-6.4933 6.9065-.0296.0886 3.1581 3.2172 7.0836 6.9361 3.9255 3.7484 7.3492 7.0246 7.5854 7.2312l.4427.4132-.7969 1.3282c-6.9951 11.5699-8.4413 25.5011-4.0436 38.3101.8264 2.421 2.2432 5.52 3.4533 7.556.5903 1.004.8559 1.653.7969 1.771s-3.6304 3.896-7.9396 8.412c-4.3092 4.486-7.8215 8.235-7.8805 8.294-.0295.088 12.0422 11.747 13.1932 12.691l.4428.384 6.818-7.113c3.7484-3.926 7.2607-7.615 7.792-8.176l1.0035-1.003.9444.59c4.811 3.07 10.4484 5.195 16.6761 6.316 3.1286.561 9.0908.709 12.4258.295 6.434-.738 12.81-2.892 18.034-6.05l1.357-.827 1.447 1.417c3.158 3.07 14.964 14.285 15.082 14.344s13.075-13.488 13.046-13.665c-.03-.089-8.914-8.619-14.345-13.725l-1.8-1.712.826-1.357c6.936-11.541 8.383-25.5308 3.896-38.4289-.649-1.8889-2.627-6.1391-3.778-8.0871l-.56-.974 7.585-7.9396c4.162-4.3387 7.556-7.9691 7.526-8.0576-.118-.2952-13.4-12.8391-13.577-12.8391-.118 0-3.453 3.3943-7.437 7.5854-3.985 4.1616-7.291 7.5854-7.379 7.6149-.059.0295-.443-.1476-.797-.4132-1.004-.6789-3.542-2.0661-4.959-2.7154-4.309-1.9775-8.323-3.1876-12.986-3.8665-2.421-.3542-9.6813-.4132-11.9245-.0885-5.3717.7674-9.7695 2.0955-14.2558 4.3387-1.2986.6198-2.8039 1.4462-3.3942 1.8004l-1.0625.6494-1.2102-1.1807c-.6493-.6493-3.6008-3.4237-6.5228-6.2276-2.922-2.7745-5.903-5.6079-6.6114-6.3163l-1.2986-1.2691zm49.5558 19.2438c4.693.5608 8.884 2.1546 12.751 4.87 1.977 1.3872 4.929 4.3388 6.316 6.3163 7.88 11.1567 6.375 26.3272-3.542 35.6242-8.471 7.911-20.7196 9.681-31.0204 4.428-7.4378-3.808-12.6915-10.773-14.3738-19.126-.5313-2.656-.5313-7.6149 0-10.2418.5017-2.5973 1.1806-4.4568 2.4497-7.0541 5.0766-10.2122 16.0857-16.1743 27.4195-14.8166z" fill="#fff"/></svg>