<svg fill="none" height="200" viewBox="0 0 200 200" width="200" xmlns="http://www.w3.org/2000/svg"><path d="m100.002 184.003c46.392 0 84.001-37.609 84.001-84.001 0-46.3933-37.609-84.002-84.001-84.002-46.3933 0-84.002 37.6087-84.002 84.002 0 46.392 37.6087 84.001 84.002 84.001z" fill="#00001f"/><g stroke="#fff" stroke-miterlimit="10" stroke-width="26.2135"><path d="m68.5055 113.25-21.549 21.546"/><path d="m132.133 114.791 13.047-11.445c4.999-4.3864 7.866-10.7139 7.866-17.3623v-1.5187c0-12.7545-10.338-23.0961-23.096-23.0961-6.126 0-11.999 2.4328-16.331 6.7647l-14.7333 14.7332"/><path d="m100.456 82.2082-14.075-14.0746c-4.3319-4.3319-10.2053-6.7647-16.3313-6.7647-12.7545 0-23.0961 10.3387-23.0961 23.0961v1.5187c0 6.6512 2.8672 12.9759 7.8662 17.3623l12.8255 11.249"/></g></svg>