<svg id="svg" version="1.1" xmlns="http://www.w3.org/2000/svg" xmlns:xlink="http://www.w3.org/1999/xlink" width="400" height="399.88162178159223" viewBox="0, 0, 400,399.88162178159223"><g id="svgg"><path id="path0" d="M198.630 75.792 C 198.489 75.952,190.106 89.808,180.001 106.583 C 159.759 140.186,161.130 137.961,160.588 138.097 C 160.080 138.225,162.291 139.519,138.250 125.019 C 122.830 115.718,116.948 112.252,116.586 112.251 C 116.023 112.250,116.759 111.098,107.055 127.191 C 103.471 133.135,101.996 135.723,102.067 135.941 C 102.195 136.332,99.959 134.956,124.083 149.494 C 146.543 163.030,145.723 162.506,145.633 163.250 C 145.598 163.540,141.121 171.136,134.976 181.333 C 123.714 200.020,123.768 199.927,123.915 200.164 C 124.047 200.378,123.776 200.492,131.667 196.904 C 135.563 195.132,152.137 187.603,168.500 180.173 C 199.731 165.990,199.022 166.327,199.189 165.566 C 199.330 164.917,199.363 84.629,199.223 79.527 C 199.112 75.445,199.084 75.272,198.630 75.792 M200.934 75.930 C 200.718 76.493,200.827 165.560,201.044 166.000 C 201.319 166.557,199.928 165.905,228.750 178.978 C 242.683 185.299,258.949 192.689,264.896 195.401 C 275.651 200.307,276.450 200.631,276.290 200.019 C 276.245 199.845,271.329 191.610,265.365 181.718 C 259.402 171.826,254.475 163.541,254.416 163.307 C 254.230 162.565,254.594 162.330,275.917 149.488 C 300.037 134.959,297.805 136.333,297.933 135.940 C 298.028 135.648,295.968 132.152,286.134 115.917 C 284.034 112.450,283.885 112.250,283.415 112.251 C 283.051 112.252,277.174 115.717,261.708 125.047 C 238.468 139.067,239.783 138.319,239.181 137.869 C 238.948 137.695,230.831 124.395,221.046 108.152 C 200.364 73.823,201.488 75.667,201.234 75.667 C 201.125 75.667,200.990 75.785,200.934 75.930 M196.333 169.019 C 195.096 169.576,181.671 175.681,166.500 182.586 C 151.329 189.491,135.546 196.671,131.426 198.542 C 123.779 202.015,123.266 202.309,123.979 202.807 C 125.173 203.641,198.333 246.865,198.723 246.966 C 198.894 247.011,199.100 246.943,199.181 246.816 C 199.345 246.557,199.395 168.689,199.232 168.264 C 199.073 167.850,198.734 167.938,196.333 169.019 M201.041 168.138 C 200.625 168.402,200.833 246.919,201.250 246.906 C 201.676 246.892,276.172 202.846,276.291 202.538 C 276.339 202.411,276.275 202.210,276.148 202.092 C 275.962 201.918,201.475 167.994,201.300 168.003 C 201.272 168.004,201.156 168.065,201.041 168.138 M124.500 219.692 C 124.500 219.995,123.717 218.873,137.205 237.893 C 150.229 256.259,149.606 255.329,149.298 255.932 C 149.167 256.191,142.927 260.720,133.167 267.641 C 119.281 277.487,117.251 278.980,117.259 279.339 C 117.273 279.929,129.235 296.667,129.644 296.667 C 130.001 296.667,129.463 297.041,147.443 284.288 C 163.017 273.243,162.157 273.803,162.796 274.280 C 163.046 274.466,171.069 285.636,180.625 299.101 C 199.173 325.236,198.776 324.692,199.010 324.323 C 199.234 323.970,199.216 264.123,198.992 263.633 C 198.763 263.131,199.503 263.587,185.667 255.418 C 179.021 251.495,162.676 241.835,149.346 233.952 C 124.974 219.541,124.500 219.269,124.500 219.692 M274.416 219.855 C 273.730 220.223,260.984 227.749,239.083 240.717 C 232.117 244.842,220.829 251.512,214.000 255.538 C 207.171 259.564,201.396 263.041,201.167 263.266 L 200.750 263.674 200.700 292.962 C 200.649 323.041,200.667 324.391,201.122 324.301 C 201.265 324.273,209.280 313.121,218.933 299.519 C 237.454 273.422,237.032 274.000,237.571 274.001 C 238.074 274.002,237.779 273.799,252.694 284.375 C 260.241 289.727,267.232 294.682,268.229 295.386 C 269.226 296.090,270.181 296.667,270.351 296.667 C 270.685 296.667,282.664 280.052,282.791 279.412 C 282.882 278.955,284.088 279.845,266.667 267.511 C 250.641 256.164,250.500 256.058,250.500 255.417 C 250.500 255.181,255.164 248.460,262.747 237.767 C 276.841 217.891,276.176 218.912,274.416 219.855 " stroke="none" fill="#fbfbfb" fill-rule="evenodd"></path><path id="path1" d="M191.500 5.271 C 108.467 8.700,35.950 65.676,12.918 145.583 C 12.760 146.133,12.528 146.921,12.404 147.333 C 11.468 150.438,9.457 159.064,8.654 163.417 C 8.146 166.168,7.509 169.935,7.329 171.250 C 7.241 171.892,7.056 173.242,6.917 174.250 C 4.730 190.101,4.730 209.733,6.917 225.583 C 7.056 226.592,7.241 227.942,7.329 228.583 C 7.509 229.898,8.146 233.665,8.654 236.417 C 9.457 240.770,11.468 249.395,12.404 252.500 C 12.528 252.912,12.760 253.700,12.918 254.250 C 31.971 320.352,85.438 371.986,152.250 388.806 C 163.671 391.681,173.477 393.252,186.417 394.280 C 191.085 394.650,208.348 394.708,212.583 394.368 C 220.628 393.720,223.730 393.378,229.667 392.480 C 312.565 379.949,378.780 314.554,392.245 231.917 C 392.484 230.450,392.748 228.838,392.832 228.333 C 393.092 226.777,393.806 220.727,394.070 217.833 C 394.696 210.982,394.747 209.654,394.747 199.917 C 394.747 190.180,394.696 188.852,394.070 182.000 C 393.806 179.106,393.092 173.056,392.832 171.500 C 392.748 170.996,392.484 169.383,392.245 167.917 C 380.715 97.152,330.086 37.846,261.769 15.078 C 246.298 9.922,231.346 6.955,213.833 5.566 C 210.755 5.322,195.235 5.117,191.500 5.271 M201.417 73.918 C 201.600 74.037,204.472 78.660,207.799 84.192 C 234.718 128.949,239.465 136.751,239.813 136.803 C 240.049 136.839,247.276 132.572,261.293 124.120 C 286.633 108.840,283.673 110.449,284.541 111.481 C 285.170 112.228,298.864 134.998,299.051 135.607 C 299.342 136.556,299.366 136.540,277.723 149.588 C 253.883 163.960,255.702 162.846,255.585 163.143 C 255.536 163.268,260.522 171.713,266.665 181.910 L 277.833 200.451 277.833 201.578 C 277.833 202.596,277.789 202.745,277.375 203.119 C 277.018 203.441,234.685 228.549,205.429 245.790 L 201.275 248.238 199.963 248.214 C 198.861 248.193,198.527 248.117,197.867 247.732 C 196.654 247.025,141.492 214.424,131.833 208.706 C 121.771 202.749,122.333 203.173,122.333 201.561 L 122.333 200.352 129.943 187.718 C 134.128 180.769,139.121 172.475,141.038 169.288 C 142.955 166.101,144.499 163.371,144.470 163.221 C 144.439 163.064,135.377 157.498,122.834 149.931 C 99.871 136.079,100.604 136.563,100.974 135.503 C 101.186 134.895,114.913 112.129,115.459 111.481 C 116.195 110.606,116.488 110.717,121.604 113.802 C 152.839 132.642,159.800 136.831,160.007 136.907 C 160.141 136.956,160.333 136.941,160.434 136.873 C 160.683 136.707,160.113 137.647,180.322 104.083 C 190.146 87.767,198.393 74.222,198.649 73.984 C 199.166 73.503,200.720 73.466,201.417 73.918 M124.525 218.140 C 125.015 218.401,133.629 223.474,143.667 229.414 C 153.704 235.354,170.242 245.127,180.417 251.133 C 190.592 257.139,199.147 262.228,199.429 262.441 L 199.941 262.828 200.596 262.354 C 200.956 262.093,205.487 259.382,210.667 256.330 C 215.846 253.278,229.421 245.254,240.833 238.500 C 280.133 215.242,276.395 217.369,277.007 217.923 C 277.698 218.548,278.621 217.138,264.230 237.428 C 257.308 247.189,251.668 255.288,251.697 255.427 C 251.726 255.566,258.910 260.759,267.662 266.967 C 283.521 278.218,284.152 278.704,283.948 279.517 C 283.744 280.331,271.291 297.562,270.777 297.742 C 270.094 297.981,270.670 298.366,253.599 286.263 C 245.086 280.228,237.998 275.258,237.846 275.218 C 237.456 275.116,238.665 273.452,219.422 300.583 C 199.615 328.510,201.440 326.099,200.028 326.216 C 198.570 326.338,200.067 328.295,180.490 300.667 C 162.053 274.648,162.388 275.110,162.053 275.238 C 161.936 275.283,155.005 280.168,146.651 286.093 C 127.929 299.371,129.663 298.268,128.773 297.458 C 128.220 296.956,116.323 280.210,116.098 279.619 C 115.771 278.756,116.092 278.500,128.585 269.639 C 135.276 264.893,142.418 259.827,144.457 258.380 C 147.187 256.443,148.163 255.662,148.162 255.417 C 148.160 255.233,146.348 252.533,144.135 249.417 C 121.340 217.317,122.210 218.596,122.756 217.993 C 123.153 217.554,123.471 217.581,124.525 218.140 " stroke="none" fill="#04040c" fill-rule="evenodd"></path><path id="path2" d="M198.608 74.708 C 198.383 75.006,189.821 89.162,179.581 106.167 C 160.910 137.170,160.657 137.578,160.133 137.442 C 159.891 137.379,153.559 133.577,121.604 114.302 C 116.733 111.365,116.332 111.200,115.716 111.875 C 115.296 112.335,101.679 134.889,101.442 135.519 C 101.137 136.327,101.485 136.553,123.346 149.740 C 140.644 160.174,144.927 162.825,144.970 163.123 C 145.025 163.509,145.054 163.458,130.468 187.678 L 122.882 200.272 122.902 201.548 C 122.919 202.612,122.977 202.863,123.253 203.067 C 124.048 203.654,197.920 247.308,198.627 247.609 C 199.086 247.804,199.242 247.804,199.627 247.614 C 200.000 247.429,200.158 247.426,200.489 247.600 C 200.819 247.772,200.992 247.771,201.406 247.596 C 202.336 247.201,276.745 203.151,277.019 202.832 C 277.218 202.601,277.280 202.223,277.256 201.385 L 277.225 200.250 266.228 182.000 C 254.700 162.870,254.956 163.309,255.104 162.923 C 255.155 162.789,264.875 156.845,276.702 149.715 C 298.510 136.567,298.866 136.336,298.558 135.517 C 298.320 134.889,284.704 112.334,284.284 111.875 C 283.738 111.277,283.193 111.410,281.147 112.643 C 280.104 113.272,270.513 119.056,259.834 125.496 C 238.566 138.323,239.822 137.605,239.359 137.201 C 239.180 137.045,230.951 123.492,221.072 107.083 C 199.155 70.681,201.402 74.333,200.927 74.333 C 200.715 74.333,200.445 74.448,200.329 74.589 C 200.140 74.816,200.077 74.807,199.756 74.506 C 199.265 74.045,199.085 74.077,198.608 74.708 M199.559 74.792 C 199.603 74.952,199.664 95.489,199.695 120.429 L 199.750 165.774 199.267 166.504 C 198.928 167.017,198.847 167.255,198.996 167.304 C 199.113 167.343,199.349 167.516,199.521 167.688 C 199.912 168.079,200.023 246.910,199.633 247.300 C 199.107 247.826,197.997 247.183,133.500 209.003 C 121.792 202.072,122.531 202.604,123.374 201.707 C 123.721 201.337,123.727 201.297,123.457 201.146 C 122.711 200.729,121.595 202.699,137.736 175.923 C 141.823 169.143,145.167 163.436,145.167 163.240 C 145.167 162.693,145.824 163.106,123.421 149.593 C 100.920 136.021,101.428 136.342,101.538 135.764 C 101.602 135.428,114.347 114.138,115.549 112.359 C 115.979 111.722,116.101 111.642,116.561 111.697 C 116.883 111.736,125.218 116.667,138.315 124.570 C 161.340 138.462,160.348 137.896,160.822 137.412 C 160.999 137.231,169.521 123.171,179.761 106.167 C 200.068 72.444,199.262 73.722,199.559 74.792 M202.225 76.143 C 202.715 76.935,211.157 90.933,220.986 107.250 C 230.815 123.567,239.036 137.099,239.254 137.322 C 239.780 137.859,237.607 139.095,261.739 124.536 C 274.804 116.654,283.117 111.735,283.439 111.697 C 283.899 111.642,284.021 111.723,284.451 112.359 C 285.653 114.138,298.398 135.428,298.462 135.764 C 298.572 136.342,299.080 136.021,276.579 149.593 C 254.044 163.185,254.774 162.726,254.876 163.259 C 254.913 163.452,259.838 171.731,265.821 181.656 C 277.712 201.384,277.316 200.684,276.860 201.140 C 276.594 201.406,276.582 201.492,276.775 201.756 C 277.081 202.174,277.058 202.564,276.708 202.876 C 275.998 203.510,201.537 247.403,201.068 247.463 C 200.111 247.588,200.159 249.816,200.206 207.276 L 200.250 167.968 200.718 167.595 L 201.187 167.222 200.759 166.417 L 200.331 165.613 200.374 120.332 C 200.419 72.779,200.394 74.342,201.097 74.612 C 201.228 74.662,201.736 75.351,202.225 76.143 M200.443 166.402 C 200.896 167.352,200.305 168.046,199.623 167.364 C 199.276 167.016,199.275 167.010,199.591 166.424 C 199.986 165.690,200.102 165.687,200.443 166.402 M123.167 218.670 C 123.167 219.141,122.326 217.929,136.506 237.917 C 143.139 247.267,148.594 255.104,148.629 255.334 C 148.719 255.924,149.453 255.375,132.917 267.088 C 116.102 278.999,116.500 278.704,116.500 279.242 C 116.500 279.642,117.716 281.408,124.871 291.401 C 129.243 297.508,129.240 297.505,129.984 297.224 C 130.254 297.122,137.400 292.129,145.863 286.130 C 163.928 273.323,162.058 274.597,162.474 274.819 C 162.655 274.916,170.828 286.303,180.637 300.123 C 201.092 328.944,198.933 326.081,199.695 325.391 C 199.979 325.134,200.022 325.135,200.329 325.413 C 200.903 325.932,201.010 325.790,219.085 300.318 C 238.887 272.413,237.300 274.578,237.846 274.725 C 238.068 274.785,245.333 279.861,253.991 286.005 C 262.648 292.150,269.916 297.223,270.142 297.280 C 270.791 297.443,270.871 297.348,275.129 291.401 C 284.217 278.708,283.882 279.248,283.125 278.541 C 282.919 278.349,275.818 273.275,267.345 267.266 C 250.672 255.442,251.165 255.804,251.170 255.376 C 251.173 255.215,256.018 248.258,261.937 239.917 C 277.040 218.634,276.667 219.172,276.667 218.728 C 276.667 217.726,278.805 216.515,239.417 239.836 C 231.258 244.666,219.333 251.709,212.917 255.487 C 204.015 260.728,201.084 262.533,200.550 263.102 L 199.849 263.848 199.594 263.354 C 199.273 262.734,200.437 263.444,178.583 250.544 C 168.500 244.593,152.150 234.931,142.250 229.075 C 124.240 218.420,123.167 217.835,123.167 218.670 M124.548 218.856 C 124.934 219.053,135.675 225.378,148.417 232.914 C 161.158 240.450,177.658 250.198,185.083 254.577 C 199.236 262.925,199.064 262.817,199.434 263.533 C 199.729 264.104,199.789 324.461,199.494 325.011 C 199.029 325.880,200.578 327.949,180.515 299.675 C 170.794 285.976,162.718 274.699,162.569 274.615 C 162.141 274.376,162.383 274.212,146.013 285.819 C 128.974 297.900,129.954 297.233,129.431 297.102 C 129.133 297.027,119.006 283.137,116.941 279.970 C 116.321 279.020,115.839 279.404,132.760 267.402 C 141.520 261.189,148.765 255.962,148.859 255.786 C 149.094 255.346,149.675 256.198,135.778 236.605 C 122.679 218.136,122.466 217.799,124.548 218.856 M276.424 218.679 C 276.596 218.956,276.314 219.365,263.325 237.679 C 256.601 247.160,251.070 255.111,251.034 255.349 C 250.951 255.905,249.513 254.837,267.708 267.734 C 284.152 279.390,283.682 279.015,283.059 279.971 C 281.012 283.114,270.870 297.026,270.571 297.101 C 270.039 297.235,270.803 297.755,253.710 285.625 C 244.918 279.385,237.879 274.500,237.682 274.500 C 237.179 274.500,238.154 273.161,219.395 299.605 C 199.709 327.357,200.766 325.934,200.452 325.114 C 200.251 324.590,200.264 263.751,200.465 263.387 C 200.758 262.857,200.566 262.976,213.250 255.495 C 219.667 251.711,230.767 245.150,237.917 240.916 C 279.074 216.543,276.148 218.232,276.424 218.679 " stroke="none" fill="#616166" fill-rule="evenodd"></path><path id="path3" d="M198.723 75.038 C 198.535 75.246,190.005 89.329,179.768 106.333 C 169.530 123.338,160.996 137.383,160.804 137.546 C 160.295 137.975,161.544 138.690,138.355 124.701 C 126.568 117.590,116.764 111.742,116.566 111.704 C 116.053 111.606,116.142 111.470,108.508 124.129 C 103.188 132.950,101.657 135.611,101.698 135.962 C 101.745 136.374,103.767 137.633,123.083 149.283 C 146.849 163.617,145.494 162.749,145.227 163.468 C 145.122 163.749,140.152 172.088,134.182 181.998 C 128.211 191.909,123.309 200.182,123.288 200.384 C 123.205 201.180,124.002 200.934,129.044 198.609 C 133.476 196.565,159.119 184.911,186.696 172.407 C 198.987 166.834,198.611 167.014,199.167 166.419 L 199.583 165.973 199.626 120.888 C 199.672 72.222,199.706 73.949,198.723 75.038 M200.668 74.997 C 200.554 75.211,200.512 90.078,200.541 120.727 L 200.583 166.140 201.000 166.594 C 201.501 167.140,202.054 167.405,213.000 172.337 C 223.767 177.189,257.270 192.413,267.983 197.321 C 276.278 201.122,276.967 201.369,276.871 200.510 C 276.846 200.286,271.898 191.923,265.876 181.926 C 259.076 170.640,254.902 163.550,254.863 163.223 C 254.785 162.566,251.946 164.359,276.983 149.250 C 296.231 137.635,298.255 136.374,298.302 135.963 C 298.343 135.611,296.809 132.946,291.492 124.130 C 283.852 111.462,283.946 111.606,283.434 111.704 C 283.236 111.742,273.527 117.533,261.858 124.572 C 239.764 137.901,239.842 137.856,239.371 137.566 C 239.017 137.347,239.168 137.596,219.329 104.667 C 200.426 73.291,201.406 74.897,201.087 74.775 C 200.941 74.719,200.768 74.811,200.668 74.997 M199.223 79.527 C 199.363 84.629,199.330 164.917,199.189 165.566 C 199.022 166.327,199.731 165.990,168.500 180.173 C 152.137 187.603,135.563 195.132,131.667 196.904 C 123.776 200.492,124.047 200.378,123.915 200.164 C 123.768 199.927,123.714 200.020,134.976 181.333 C 141.121 171.136,145.598 163.540,145.633 163.250 C 145.723 162.506,146.543 163.030,124.083 149.494 C 99.959 134.956,102.195 136.332,102.067 135.941 C 101.996 135.723,103.471 133.135,107.055 127.191 C 116.759 111.098,116.023 112.250,116.586 112.251 C 116.948 112.252,122.830 115.718,138.250 125.019 C 162.291 139.519,160.080 138.225,160.588 138.097 C 161.130 137.961,159.759 140.186,180.001 106.583 C 197.644 77.297,198.742 75.500,198.999 75.500 C 199.062 75.500,199.163 77.312,199.223 79.527 M202.382 77.208 C 202.905 78.056,211.303 91.981,221.046 108.152 C 230.831 124.395,238.948 137.695,239.181 137.869 C 239.783 138.319,238.468 139.067,261.708 125.047 C 277.174 115.717,283.051 112.252,283.415 112.251 C 283.885 112.250,284.034 112.450,286.134 115.917 C 295.968 132.152,298.028 135.648,297.933 135.940 C 297.805 136.333,300.037 134.959,275.917 149.488 C 254.594 162.330,254.230 162.565,254.416 163.307 C 254.475 163.541,259.402 171.826,265.365 181.718 C 271.329 191.610,276.245 199.845,276.290 200.019 C 276.450 200.631,275.651 200.307,264.896 195.401 C 258.949 192.689,242.683 185.299,228.750 178.978 C 199.928 165.905,201.319 166.557,201.044 166.000 C 200.827 165.560,200.718 76.493,200.934 75.930 C 201.133 75.412,201.446 75.688,202.382 77.208 M198.333 167.621 C 198.095 167.711,191.695 170.622,153.083 188.205 C 143.825 192.421,133.440 197.140,130.006 198.691 C 122.815 201.940,122.575 202.094,123.458 202.872 C 123.761 203.138,131.002 207.432,173.357 232.462 C 199.571 247.954,199.036 247.649,199.425 247.327 C 199.808 247.008,199.789 168.146,199.405 167.762 C 199.139 167.496,198.786 167.450,198.333 167.621 M200.750 167.729 C 200.419 167.972,200.416 168.190,200.374 207.348 C 200.327 250.236,200.275 247.700,201.200 247.406 C 201.633 247.269,276.141 203.229,276.542 202.874 C 277.467 202.053,277.693 202.178,264.500 196.197 C 250.985 190.070,216.791 174.515,207.867 170.435 C 201.139 167.359,201.216 167.388,200.750 167.729 M199.232 168.264 C 199.395 168.689,199.345 246.557,199.181 246.816 C 199.100 246.943,198.894 247.011,198.723 246.966 C 198.333 246.865,125.173 203.641,123.979 202.807 C 123.266 202.309,123.779 202.015,131.426 198.542 C 135.546 196.671,151.329 189.491,166.500 182.586 C 199.894 167.388,198.520 168.007,198.857 168.003 C 199.008 168.001,199.177 168.119,199.232 168.264 M238.633 184.938 C 276.215 202.011,276.450 202.121,276.291 202.538 C 276.172 202.846,201.676 246.892,201.250 246.906 C 200.918 246.917,200.917 246.796,200.875 207.593 C 200.833 168.652,200.840 168.026,201.300 168.003 C 201.327 168.001,218.127 175.622,238.633 184.938 M123.667 218.967 C 123.667 219.405,123.543 219.227,136.814 237.917 C 147.014 252.282,148.996 255.163,148.960 255.570 C 148.921 256.011,147.458 257.090,133.005 267.341 C 124.253 273.548,117.017 278.746,116.925 278.892 C 116.629 279.361,116.974 279.896,123.153 288.558 C 129.143 296.956,129.202 297.032,129.724 296.967 C 130.093 296.920,134.966 293.554,146.034 285.700 C 156.696 278.135,161.952 274.500,162.231 274.500 C 162.809 274.500,161.895 273.248,180.915 300.083 C 199.970 326.969,199.070 325.760,199.399 324.903 C 199.454 324.758,199.500 310.919,199.500 294.151 L 199.500 263.662 198.958 263.094 C 198.644 262.765,193.693 259.745,187.167 255.903 C 180.979 252.260,164.442 242.493,150.417 234.199 C 122.884 217.916,123.667 218.362,123.667 218.967 M275.544 218.838 C 275.155 218.994,269.502 222.326,239.917 239.837 C 230.200 245.588,217.525 253.081,211.750 256.487 C 205.975 259.893,201.063 262.866,200.833 263.094 L 200.417 263.508 200.417 294.162 C 200.417 327.455,200.365 325.722,201.322 324.744 C 201.588 324.472,209.622 313.225,219.175 299.750 C 236.993 274.616,237.199 274.333,237.675 274.333 C 237.828 274.333,245.108 279.410,253.852 285.615 C 264.962 293.500,269.909 296.918,270.277 296.965 C 270.885 297.044,283.167 280.192,283.167 279.278 C 283.167 278.740,284.447 279.685,266.526 266.989 C 258.061 260.993,251.060 255.945,250.967 255.772 C 250.709 255.289,250.388 255.764,263.123 237.804 C 277.252 217.878,276.167 219.442,276.167 219.012 C 276.167 218.634,276.098 218.615,275.544 218.838 M149.346 233.952 C 162.676 241.835,179.021 251.495,185.667 255.418 C 199.503 263.587,198.763 263.131,198.992 263.633 C 199.216 264.123,199.234 323.970,199.010 324.323 C 198.776 324.692,199.173 325.236,180.625 299.101 C 171.069 285.636,163.046 274.466,162.796 274.280 C 162.157 273.803,163.017 273.243,147.443 284.288 C 129.463 297.041,130.001 296.667,129.644 296.667 C 129.235 296.667,117.273 279.929,117.259 279.339 C 117.251 278.980,119.281 277.487,133.167 267.641 C 142.927 260.720,149.167 256.191,149.298 255.932 C 149.606 255.329,150.229 256.259,137.205 237.893 C 123.717 218.873,124.500 219.995,124.500 219.692 C 124.500 219.269,124.974 219.541,149.346 233.952 M275.251 219.998 C 275.109 220.272,269.482 228.268,262.747 237.767 C 255.164 248.460,250.500 255.181,250.500 255.417 C 250.500 256.058,250.641 256.164,266.667 267.511 C 284.088 279.845,282.882 278.955,282.791 279.412 C 282.664 280.052,270.685 296.667,270.351 296.667 C 270.181 296.667,269.226 296.090,268.229 295.386 C 267.232 294.682,260.241 289.727,252.694 284.375 C 237.779 273.799,238.074 274.002,237.571 274.001 C 237.032 274.000,237.454 273.422,218.933 299.519 C 209.280 313.121,201.265 324.273,201.122 324.301 C 200.667 324.391,200.649 323.041,200.700 292.962 L 200.750 263.674 201.167 263.266 C 201.396 263.041,207.171 259.564,214.000 255.538 C 220.829 251.512,232.117 244.842,239.083 240.717 C 279.049 217.051,275.818 218.902,275.251 219.998 " stroke="none" fill="#848489" fill-rule="evenodd"></path><path id="path4" d="M198.654 74.958 L 198.250 75.417 198.696 75.024 C 199.159 74.617,199.500 74.658,199.500 75.121 C 199.500 75.268,199.544 75.345,199.599 75.290 C 199.759 75.130,199.496 74.500,199.268 74.500 C 199.152 74.500,198.876 74.706,198.654 74.958 M200.692 74.708 C 200.586 74.814,200.502 74.979,200.505 75.075 C 200.508 75.171,200.587 75.118,200.681 74.957 C 200.815 74.727,200.921 74.702,201.176 74.838 C 201.354 74.934,201.500 74.974,201.500 74.928 C 201.500 74.700,200.872 74.528,200.692 74.708 M200.415 120.583 C 200.415 145.425,200.435 155.563,200.458 143.112 C 200.482 130.660,200.482 110.335,200.458 97.945 C 200.435 85.554,200.415 95.742,200.415 120.583 M199.745 154.667 C 199.745 160.487,199.766 162.869,199.792 159.958 C 199.817 157.048,199.817 152.285,199.792 149.375 C 199.766 146.465,199.745 148.846,199.745 154.667 M144.858 162.583 C 145.009 162.767,145.169 163.067,145.213 163.250 C 145.292 163.571,145.295 163.570,145.314 163.234 C 145.325 163.042,145.165 162.742,144.958 162.567 C 144.586 162.253,144.586 162.253,144.858 162.583 M198.661 166.898 C 198.526 167.025,196.129 168.159,193.333 169.419 C 183.643 173.785,134.062 196.307,129.667 198.339 C 124.106 200.909,123.701 201.069,123.399 200.819 C 123.243 200.689,123.167 200.684,123.167 200.805 C 123.167 200.903,123.297 201.057,123.457 201.146 C 123.727 201.297,123.721 201.337,123.374 201.707 C 122.901 202.210,122.901 202.531,123.375 202.933 C 123.750 203.250,123.750 203.250,123.458 202.904 C 122.758 202.072,123.032 201.841,126.676 200.190 C 139.481 194.388,145.850 191.494,159.000 185.501 C 167.296 181.720,179.580 176.124,186.298 173.064 C 198.772 167.382,198.952 167.309,199.405 167.762 C 199.759 168.116,199.812 246.937,199.458 247.334 C 199.281 247.532,199.294 247.534,199.542 247.347 C 200.013 246.990,199.993 168.160,199.521 167.688 C 199.349 167.516,199.105 167.340,198.979 167.298 C 198.785 167.233,198.785 167.179,198.979 166.944 C 199.255 166.609,199.004 166.573,198.661 166.898 M201.095 167.018 C 201.158 167.121,200.994 167.375,200.730 167.586 L 200.250 167.968 200.206 207.276 C 200.163 246.505,200.175 247.500,200.691 247.500 C 200.773 247.500,200.726 247.325,200.586 247.111 C 200.130 246.414,200.291 168.065,200.750 167.729 C 201.227 167.380,201.110 167.334,209.563 171.195 C 222.075 176.909,251.519 190.304,264.319 196.104 C 277.741 202.186,277.336 201.961,276.542 202.904 C 276.250 203.250,276.250 203.250,276.625 202.933 C 277.066 202.559,277.098 202.214,276.741 201.704 C 276.598 201.500,276.558 201.333,276.651 201.333 C 276.745 201.333,276.908 201.165,277.015 200.958 C 277.174 200.649,277.169 200.620,276.987 200.792 C 276.547 201.207,275.854 200.942,268.116 197.395 C 257.807 192.670,218.443 174.791,209.083 170.583 C 205.050 168.770,201.632 167.184,201.487 167.060 C 201.169 166.786,200.936 166.762,201.095 167.018 M123.500 218.885 C 123.500 219.096,123.610 219.415,123.745 219.593 C 123.966 219.885,123.970 219.863,123.789 219.368 C 123.621 218.909,123.629 218.792,123.836 218.662 C 124.045 218.529,124.038 218.505,123.792 218.503 C 123.597 218.501,123.500 218.628,123.500 218.885 M275.667 218.670 C 275.472 218.798,275.508 218.825,275.833 218.792 C 276.165 218.759,276.241 218.818,276.204 219.083 C 276.162 219.389,276.173 219.392,276.338 219.124 C 276.655 218.608,276.213 218.310,275.667 218.670 M199.541 294.195 C 199.519 310.939,199.454 324.758,199.399 324.903 C 199.254 325.280,199.006 325.231,198.426 324.708 L 197.917 324.250 198.406 324.792 C 198.967 325.413,199.249 325.469,199.495 325.010 C 199.613 324.789,199.654 315.032,199.625 294.218 L 199.582 263.750 199.541 294.195 M200.239 268.250 C 200.239 270.542,200.262 271.502,200.291 270.385 C 200.320 269.267,200.320 267.392,200.291 266.218 C 200.263 265.044,200.239 265.958,200.239 268.250 M201.279 324.792 C 200.820 325.245,200.812 325.246,200.552 324.917 C 200.321 324.625,200.302 324.621,200.394 324.889 C 200.452 325.057,200.500 325.225,200.500 325.264 C 200.500 325.498,201.009 325.259,201.417 324.833 C 202.017 324.206,201.905 324.173,201.279 324.792 " stroke="none" fill="#7c7c84" fill-rule="evenodd"></path><path id="path5" d="M198.649 73.984 C 198.393 74.222,190.146 87.767,180.322 104.083 C 160.113 137.647,160.683 136.707,160.434 136.873 C 160.333 136.941,160.141 136.956,160.007 136.907 C 159.800 136.831,152.839 132.642,121.604 113.802 C 116.488 110.717,116.195 110.606,115.459 111.481 C 114.913 112.129,101.186 134.895,100.974 135.503 C 100.604 136.563,99.871 136.079,122.834 149.931 C 135.377 157.498,144.439 163.064,144.470 163.221 C 144.499 163.371,142.955 166.101,141.038 169.288 C 139.121 172.475,134.128 180.769,129.943 187.718 L 122.333 200.352 122.333 201.561 C 122.333 203.173,121.771 202.749,131.833 208.706 C 141.492 214.424,196.654 247.025,197.867 247.732 C 198.527 248.117,198.861 248.193,199.963 248.214 L 201.275 248.238 205.429 245.790 C 234.685 228.549,277.018 203.441,277.375 203.119 C 277.789 202.745,277.833 202.596,277.833 201.578 L 277.833 200.451 266.665 181.910 C 260.522 171.713,255.536 163.268,255.585 163.143 C 255.702 162.846,253.883 163.960,277.723 149.588 C 299.366 136.540,299.342 136.556,299.051 135.607 C 298.864 134.998,285.170 112.228,284.541 111.481 C 283.673 110.449,286.633 108.840,261.293 124.120 C 247.276 132.572,240.049 136.839,239.813 136.803 C 239.465 136.751,234.718 128.949,207.799 84.192 C 204.472 78.660,201.600 74.037,201.417 73.918 C 200.720 73.466,199.166 73.503,198.649 73.984 M201.670 74.667 C 201.921 74.987,210.434 89.050,220.588 105.917 C 240.020 138.197,239.385 137.167,239.848 137.167 C 240.012 137.167,249.771 131.360,261.537 124.262 C 284.375 110.485,283.563 110.941,284.215 111.529 C 284.832 112.086,298.684 135.141,298.788 135.785 C 298.914 136.562,300.022 135.853,276.750 149.892 C 256.084 162.358,255.417 162.776,255.418 163.255 C 255.419 163.613,258.437 168.755,266.311 181.815 C 278.402 201.869,277.665 200.548,277.510 201.878 C 277.370 203.087,282.522 199.907,239.002 225.650 L 201.417 247.882 200.167 247.916 C 198.567 247.960,201.742 249.737,171.525 231.881 C 115.445 198.741,122.667 203.224,122.667 201.549 L 122.667 200.282 133.569 182.183 C 145.837 161.814,145.011 163.266,144.572 162.845 C 144.395 162.675,134.689 156.774,123.004 149.730 C 100.180 135.973,101.087 136.554,101.214 135.772 C 101.317 135.138,115.177 112.079,115.785 111.529 C 116.437 110.941,115.633 110.490,138.412 124.230 C 162.035 138.480,160.197 137.422,160.641 137.033 C 160.819 136.877,169.160 123.138,179.175 106.500 C 189.190 89.862,197.706 75.748,198.099 75.135 L 198.814 74.020 200.014 74.052 C 201.172 74.082,201.230 74.104,201.670 74.667 M199.838 166.578 C 199.607 166.855,199.742 167.167,200.093 167.167 C 200.353 167.167,200.427 166.578,200.186 166.428 C 200.104 166.378,199.948 166.445,199.838 166.578 M122.756 217.993 C 122.210 218.596,121.340 217.317,144.135 249.417 C 146.348 252.533,148.160 255.233,148.162 255.417 C 148.163 255.662,147.187 256.443,144.457 258.380 C 142.418 259.827,135.276 264.893,128.585 269.639 C 116.092 278.500,115.771 278.756,116.098 279.619 C 116.323 280.210,128.220 296.956,128.773 297.458 C 129.663 298.268,127.929 299.371,146.651 286.093 C 155.005 280.168,161.936 275.283,162.053 275.238 C 162.388 275.110,162.053 274.648,180.490 300.667 C 200.067 328.295,198.570 326.338,200.028 326.216 C 201.440 326.099,199.615 328.510,219.422 300.583 C 238.665 273.452,237.456 275.116,237.846 275.218 C 237.998 275.258,245.086 280.228,253.599 286.263 C 270.670 298.366,270.094 297.981,270.777 297.742 C 271.291 297.562,283.744 280.331,283.948 279.517 C 284.152 278.704,283.521 278.218,267.662 266.967 C 258.910 260.759,251.726 255.566,251.697 255.427 C 251.668 255.288,257.308 247.189,264.230 237.428 C 278.621 217.138,277.698 218.548,277.007 217.923 C 276.395 217.369,280.133 215.242,240.833 238.500 C 229.421 245.254,215.846 253.278,210.667 256.330 C 205.487 259.382,200.956 262.093,200.596 262.354 L 199.941 262.828 199.429 262.441 C 199.147 262.228,190.592 257.139,180.417 251.133 C 170.242 245.127,153.704 235.354,143.667 229.414 C 121.459 216.272,123.370 217.315,122.756 217.993 M124.376 218.355 C 124.759 218.551,135.688 224.988,148.661 232.661 C 161.635 240.334,178.137 250.084,185.333 254.327 C 192.529 258.569,198.669 262.238,198.977 262.479 C 200.004 263.281,199.956 263.270,200.452 262.804 C 200.708 262.563,205.529 259.648,211.167 256.326 C 216.804 253.004,230.379 244.981,241.333 238.499 C 279.908 215.671,276.306 217.734,276.774 218.202 C 277.221 218.650,276.912 219.113,264.223 237.000 C 257.297 246.762,251.547 254.928,251.446 255.145 C 251.201 255.669,249.831 254.644,267.737 267.333 C 283.239 278.319,283.806 278.756,283.606 279.554 C 283.510 279.933,272.170 296.001,271.263 297.042 C 270.462 297.961,271.080 298.348,253.984 286.225 C 238.065 274.937,237.745 274.720,237.395 274.956 C 237.292 275.026,229.203 286.371,219.421 300.167 C 200.354 327.057,201.252 325.849,200.354 325.816 C 200.022 325.804,199.596 325.846,199.407 325.908 C 198.830 326.100,198.886 326.175,180.742 300.583 C 161.847 273.932,162.561 274.902,161.974 275.063 C 161.759 275.122,154.505 280.194,145.854 286.335 C 129.816 297.720,129.651 297.826,128.962 297.292 C 128.606 297.016,116.875 280.573,116.534 279.873 C 116.018 278.812,115.517 279.212,132.500 267.169 C 144.081 258.958,148.431 255.786,148.470 255.528 C 148.507 255.277,144.800 249.922,135.908 237.383 C 128.970 227.599,123.178 219.351,123.036 219.055 C 122.563 218.062,123.175 217.743,124.376 218.355 " stroke="none" fill="#2a2c33" fill-rule="evenodd"></path><path id="path6" d="" stroke="none" fill="#7c8484" fill-rule="evenodd"></path><path id="path7" d="M199.748 74.209 C 199.871 74.278,200.259 74.267,200.611 74.186 C 201.244 74.040,201.242 74.039,200.387 74.061 C 199.903 74.073,199.622 74.138,199.748 74.209 M199.658 166.600 C 199.450 166.989,199.458 167.057,199.741 167.264 C 200.300 167.673,200.801 166.868,200.300 166.367 C 200.013 166.079,199.918 166.114,199.658 166.600 M200.333 166.843 C 200.333 167.185,199.928 167.288,199.745 166.993 C 199.612 166.778,199.983 166.303,200.186 166.428 C 200.267 166.479,200.333 166.665,200.333 166.843 M122.705 201.500 C 122.705 201.821,122.740 201.952,122.782 201.792 C 122.823 201.631,122.823 201.369,122.782 201.208 C 122.740 201.048,122.705 201.179,122.705 201.500 M123.033 218.200 C 122.923 218.310,122.839 218.516,122.845 218.658 C 122.853 218.839,122.895 218.818,122.985 218.587 C 123.056 218.406,123.295 218.207,123.515 218.145 C 123.864 218.048,123.872 218.031,123.575 218.017 C 123.387 218.007,123.143 218.090,123.033 218.200 M276.318 218.145 C 276.539 218.207,276.777 218.406,276.848 218.587 C 276.938 218.818,276.980 218.839,276.988 218.658 C 277.005 218.297,276.663 217.997,276.258 218.017 C 275.962 218.031,275.970 218.048,276.318 218.145 M200.491 262.760 C 200.253 263.012,199.971 263.154,199.795 263.108 C 199.633 263.066,199.542 263.099,199.593 263.182 C 199.763 263.458,200.098 263.339,200.583 262.833 C 200.847 262.558,201.024 262.333,200.977 262.333 C 200.930 262.333,200.711 262.525,200.491 262.760 M162.167 274.951 C 162.304 275.001,162.604 275.202,162.833 275.396 L 163.250 275.750 162.846 275.292 C 162.624 275.040,162.324 274.839,162.179 274.846 C 161.954 274.858,161.953 274.873,162.167 274.951 M199.417 325.772 C 199.009 325.971,198.993 325.996,199.333 325.906 C 199.563 325.845,199.930 325.797,200.151 325.798 C 200.448 325.801,200.491 325.763,200.317 325.653 C 200.030 325.471,200.031 325.471,199.417 325.772 " stroke="none" fill="#393c44" fill-rule="evenodd"></path><path id="path8" d="M198.729 74.365 C 198.539 74.577,198.327 74.862,198.258 75.000 C 198.189 75.137,198.333 75.006,198.578 74.708 C 199.095 74.080,199.332 74.038,199.751 74.501 C 200.033 74.812,200.076 74.817,200.355 74.564 C 200.534 74.402,200.823 74.324,201.072 74.372 C 201.302 74.416,201.449 74.386,201.399 74.305 C 201.349 74.224,200.958 74.170,200.529 74.185 C 200.101 74.200,199.598 74.161,199.413 74.097 C 199.174 74.015,198.976 74.092,198.729 74.365 M115.654 111.792 L 115.250 112.250 115.677 111.875 C 116.143 111.467,116.651 111.401,117.219 111.676 C 117.571 111.846,117.572 111.843,117.260 111.593 C 116.760 111.192,116.112 111.272,115.654 111.792 M282.740 111.593 C 282.428 111.843,282.429 111.846,282.781 111.676 C 283.349 111.401,283.857 111.467,284.323 111.875 L 284.750 112.250 284.346 111.792 C 283.888 111.272,283.240 111.192,282.740 111.593 M101.177 135.838 C 101.163 136.191,101.611 136.794,102.050 137.014 C 102.338 137.157,102.319 137.113,101.962 136.806 C 101.713 136.592,101.436 136.229,101.348 136.000 C 101.260 135.771,101.183 135.698,101.177 135.838 M298.680 135.891 C 298.673 136.061,298.423 136.429,298.125 136.709 C 297.747 137.065,297.697 137.158,297.958 137.020 C 298.428 136.771,298.892 136.080,298.779 135.797 C 298.727 135.669,298.688 135.707,298.680 135.891 M255.708 162.353 C 255.140 162.716,254.956 162.961,255.458 162.685 C 255.841 162.475,256.440 162.011,256.333 162.008 C 256.287 162.007,256.006 162.162,255.708 162.353 M144.678 162.788 C 144.864 163.088,144.871 163.265,144.710 163.705 C 144.529 164.197,144.534 164.219,144.755 163.926 C 145.080 163.498,145.066 162.928,144.723 162.645 C 144.470 162.436,144.466 162.448,144.678 162.788 M199.591 166.424 C 199.274 167.013,199.274 167.015,199.639 167.380 C 200.078 167.819,200.561 167.624,200.621 166.983 C 200.642 166.754,200.615 166.690,200.557 166.833 C 200.289 167.495,199.489 167.585,199.505 166.952 C 199.518 166.464,199.975 166.105,200.272 166.350 C 200.530 166.563,200.537 166.551,200.355 166.208 C 200.084 165.700,199.963 165.734,199.591 166.424 M277.235 201.123 C 277.221 202.057,277.225 202.066,277.380 201.445 C 277.472 201.076,277.478 200.672,277.395 200.485 C 277.291 200.254,277.246 200.435,277.235 201.123 M122.776 201.083 C 122.832 201.450,122.905 201.781,122.939 201.819 C 123.065 201.963,122.971 201.070,122.826 200.750 C 122.720 200.518,122.705 200.619,122.776 201.083 M123.062 218.411 C 123.011 218.546,123.007 218.752,123.054 218.870 C 123.102 218.987,123.146 218.920,123.154 218.719 C 123.163 218.455,123.292 218.337,123.625 218.286 L 124.083 218.217 123.620 218.192 C 123.348 218.177,123.117 218.268,123.062 218.411 M276.309 218.288 C 276.637 218.347,276.689 218.438,276.628 218.851 C 276.585 219.150,276.616 219.284,276.709 219.191 C 277.020 218.880,276.773 218.251,276.333 218.234 C 275.936 218.219,275.935 218.221,276.309 218.288 M275.333 221.000 C 275.138 221.275,275.015 221.500,275.061 221.500 C 275.106 221.500,275.304 221.275,275.500 221.000 C 275.696 220.725,275.819 220.500,275.773 220.500 C 275.727 220.500,275.529 220.725,275.333 221.000 M124.833 221.667 C 125.029 221.942,125.227 222.167,125.273 222.167 C 125.319 222.167,125.196 221.942,125.000 221.667 C 124.804 221.392,124.606 221.167,124.561 221.167 C 124.515 221.167,124.638 221.392,124.833 221.667 M272.500 225.000 C 272.304 225.275,272.181 225.500,272.227 225.500 C 272.273 225.500,272.471 225.275,272.667 225.000 C 272.862 224.725,272.985 224.500,272.939 224.500 C 272.894 224.500,272.696 224.725,272.500 225.000 M127.667 225.667 C 127.862 225.942,128.060 226.167,128.106 226.167 C 128.152 226.167,128.029 225.942,127.833 225.667 C 127.638 225.392,127.440 225.167,127.394 225.167 C 127.348 225.167,127.471 225.392,127.667 225.667 M271.667 226.167 C 271.471 226.442,271.348 226.667,271.394 226.667 C 271.440 226.667,271.638 226.442,271.833 226.167 C 272.029 225.892,272.152 225.667,272.106 225.667 C 272.060 225.667,271.862 225.892,271.667 226.167 M128.500 226.833 C 128.696 227.108,128.894 227.333,128.939 227.333 C 128.985 227.333,128.862 227.108,128.667 226.833 C 128.471 226.558,128.273 226.333,128.227 226.333 C 128.181 226.333,128.304 226.558,128.500 226.833 M269.667 229.000 C 269.471 229.275,269.348 229.500,269.394 229.500 C 269.440 229.500,269.638 229.275,269.833 229.000 C 270.029 228.725,270.152 228.500,270.106 228.500 C 270.060 228.500,269.862 228.725,269.667 229.000 M268.833 230.167 C 268.638 230.442,268.515 230.667,268.561 230.667 C 268.606 230.667,268.804 230.442,269.000 230.167 C 269.196 229.892,269.319 229.667,269.273 229.667 C 269.227 229.667,269.029 229.892,268.833 230.167 M131.333 230.833 C 131.529 231.108,131.727 231.333,131.773 231.333 C 131.819 231.333,131.696 231.108,131.500 230.833 C 131.304 230.558,131.106 230.333,131.061 230.333 C 131.015 230.333,131.138 230.558,131.333 230.833 M266.000 234.167 C 265.804 234.442,265.681 234.667,265.727 234.667 C 265.773 234.667,265.971 234.442,266.167 234.167 C 266.362 233.892,266.485 233.667,266.439 233.667 C 266.394 233.667,266.196 233.892,266.000 234.167 M134.167 234.833 C 134.362 235.108,134.560 235.333,134.606 235.333 C 134.652 235.333,134.529 235.108,134.333 234.833 C 134.138 234.558,133.940 234.333,133.894 234.333 C 133.848 234.333,133.971 234.558,134.167 234.833 M265.167 235.333 C 264.971 235.608,264.848 235.833,264.894 235.833 C 264.940 235.833,265.138 235.608,265.333 235.333 C 265.529 235.058,265.652 234.833,265.606 234.833 C 265.560 234.833,265.362 235.058,265.167 235.333 M135.000 236.000 C 135.196 236.275,135.394 236.500,135.439 236.500 C 135.485 236.500,135.362 236.275,135.167 236.000 C 134.971 235.725,134.773 235.500,134.727 235.500 C 134.681 235.500,134.804 235.725,135.000 236.000 M262.333 239.333 C 262.138 239.608,262.015 239.833,262.061 239.833 C 262.106 239.833,262.304 239.608,262.500 239.333 C 262.696 239.058,262.819 238.833,262.773 238.833 C 262.727 238.833,262.529 239.058,262.333 239.333 M137.833 240.000 C 138.029 240.275,138.227 240.500,138.273 240.500 C 138.319 240.500,138.196 240.275,138.000 240.000 C 137.804 239.725,137.606 239.500,137.561 239.500 C 137.515 239.500,137.638 239.725,137.833 240.000 M259.500 243.333 C 259.304 243.608,259.181 243.833,259.227 243.833 C 259.273 243.833,259.471 243.608,259.667 243.333 C 259.862 243.058,259.985 242.833,259.939 242.833 C 259.894 242.833,259.696 243.058,259.500 243.333 M140.667 244.000 C 140.862 244.275,141.060 244.500,141.106 244.500 C 141.152 244.500,141.029 244.275,140.833 244.000 C 140.638 243.725,140.440 243.500,140.394 243.500 C 140.348 243.500,140.471 243.725,140.667 244.000 M258.667 244.500 C 258.471 244.775,258.348 245.000,258.394 245.000 C 258.440 245.000,258.638 244.775,258.833 244.500 C 259.029 244.225,259.152 244.000,259.106 244.000 C 259.060 244.000,258.862 244.225,258.667 244.500 M141.500 245.167 C 141.696 245.442,141.894 245.667,141.939 245.667 C 141.985 245.667,141.862 245.442,141.667 245.167 C 141.471 244.892,141.273 244.667,141.227 244.667 C 141.181 244.667,141.304 244.892,141.500 245.167 M199.719 247.555 C 199.395 247.729,199.441 247.752,200.136 247.766 C 200.565 247.774,200.804 247.745,200.667 247.701 C 200.529 247.658,200.341 247.563,200.250 247.491 C 200.158 247.420,199.919 247.448,199.719 247.555 M255.833 248.500 C 255.638 248.775,255.515 249.000,255.561 249.000 C 255.606 249.000,255.804 248.775,256.000 248.500 C 256.196 248.225,256.319 248.000,256.273 248.000 C 256.227 248.000,256.029 248.225,255.833 248.500 M144.333 249.167 C 144.529 249.442,144.727 249.667,144.773 249.667 C 144.819 249.667,144.696 249.442,144.500 249.167 C 144.304 248.892,144.106 248.667,144.061 248.667 C 144.015 248.667,144.138 248.892,144.333 249.167 M253.000 252.500 C 252.804 252.775,252.681 253.000,252.727 253.000 C 252.773 253.000,252.971 252.775,253.167 252.500 C 253.362 252.225,253.485 252.000,253.439 252.000 C 253.394 252.000,253.196 252.225,253.000 252.500 M147.167 253.167 C 147.362 253.442,147.560 253.667,147.606 253.667 C 147.652 253.667,147.529 253.442,147.333 253.167 C 147.138 252.892,146.940 252.667,146.894 252.667 C 146.848 252.667,146.971 252.892,147.167 253.167 M252.167 253.667 C 251.971 253.942,251.848 254.167,251.894 254.167 C 251.940 254.167,252.138 253.942,252.333 253.667 C 252.529 253.392,252.652 253.167,252.606 253.167 C 252.560 253.167,252.362 253.392,252.167 253.667 M148.000 254.333 C 148.196 254.608,148.394 254.833,148.439 254.833 C 148.485 254.833,148.362 254.608,148.167 254.333 C 147.971 254.058,147.773 253.833,147.727 253.833 C 147.681 253.833,147.804 254.058,148.000 254.333 M147.083 256.931 L 146.583 257.361 147.125 257.002 C 147.423 256.805,147.667 256.612,147.667 256.572 C 147.667 256.447,147.596 256.491,147.083 256.931 M145.917 257.765 L 145.417 258.194 145.958 257.836 C 146.256 257.639,146.500 257.445,146.500 257.405 C 146.500 257.281,146.429 257.324,145.917 257.765 M256.333 259.394 C 256.333 259.440,256.558 259.638,256.833 259.833 C 257.108 260.029,257.333 260.152,257.333 260.106 C 257.333 260.060,257.108 259.862,256.833 259.667 C 256.558 259.471,256.333 259.348,256.333 259.394 M141.917 260.598 L 141.417 261.028 141.958 260.669 C 142.256 260.472,142.500 260.278,142.500 260.239 C 142.500 260.114,142.429 260.157,141.917 260.598 M260.333 262.227 C 260.333 262.273,260.558 262.471,260.833 262.667 C 261.108 262.862,261.333 262.985,261.333 262.939 C 261.333 262.894,261.108 262.696,260.833 262.500 C 260.558 262.304,260.333 262.181,260.333 262.227 M200.575 262.842 C 200.279 263.151,199.972 263.321,199.796 263.275 C 199.552 263.211,199.534 263.252,199.685 263.534 C 199.784 263.718,199.914 263.805,199.974 263.726 C 200.035 263.648,200.343 263.302,200.658 262.958 C 201.344 262.212,201.273 262.114,200.575 262.842 M261.500 263.061 C 261.500 263.106,261.725 263.304,262.000 263.500 C 262.275 263.696,262.500 263.819,262.500 263.773 C 262.500 263.727,262.275 263.529,262.000 263.333 C 261.725 263.138,261.500 263.015,261.500 263.061 M136.750 264.265 L 136.250 264.694 136.792 264.336 C 137.090 264.139,137.333 263.945,137.333 263.905 C 137.333 263.781,137.263 263.824,136.750 264.265 M265.500 265.894 C 265.500 265.940,265.725 266.138,266.000 266.333 C 266.275 266.529,266.500 266.652,266.500 266.606 C 266.500 266.560,266.275 266.362,266.000 266.167 C 265.725 265.971,265.500 265.848,265.500 265.894 M132.750 267.098 L 132.250 267.528 132.792 267.169 C 133.090 266.972,133.333 266.778,133.333 266.739 C 133.333 266.614,133.263 266.657,132.750 267.098 M266.667 266.727 C 266.667 266.773,266.892 266.971,267.167 267.167 C 267.442 267.362,267.667 267.485,267.667 267.439 C 267.667 267.394,267.442 267.196,267.167 267.000 C 266.892 266.804,266.667 266.681,266.667 266.727 M131.583 267.931 L 131.083 268.361 131.625 268.002 C 131.923 267.805,132.167 267.612,132.167 267.572 C 132.167 267.447,132.096 267.491,131.583 267.931 M270.667 269.561 C 270.667 269.606,270.892 269.804,271.167 270.000 C 271.442 270.196,271.667 270.319,271.667 270.273 C 271.667 270.227,271.442 270.029,271.167 269.833 C 270.892 269.638,270.667 269.515,270.667 269.561 M127.583 270.765 L 127.083 271.194 127.625 270.836 C 127.923 270.639,128.167 270.445,128.167 270.405 C 128.167 270.281,128.096 270.324,127.583 270.765 M274.667 272.394 C 274.667 272.440,274.892 272.638,275.167 272.833 C 275.442 273.029,275.667 273.152,275.667 273.106 C 275.667 273.060,275.442 272.862,275.167 272.667 C 274.892 272.471,274.667 272.348,274.667 272.394 M123.583 273.598 L 123.083 274.028 123.625 273.669 C 123.923 273.472,124.167 273.278,124.167 273.239 C 124.167 273.114,124.096 273.157,123.583 273.598 M275.833 273.227 C 275.833 273.273,276.058 273.471,276.333 273.667 C 276.608 273.862,276.833 273.985,276.833 273.939 C 276.833 273.894,276.608 273.696,276.333 273.500 C 276.058 273.304,275.833 273.181,275.833 273.227 M122.417 274.431 L 121.917 274.861 122.458 274.502 C 122.756 274.305,123.000 274.112,123.000 274.072 C 123.000 273.947,122.929 273.991,122.417 274.431 M237.067 275.042 C 236.753 275.414,236.753 275.414,237.083 275.142 C 237.267 274.991,237.567 274.831,237.750 274.787 C 238.071 274.708,238.070 274.705,237.734 274.686 C 237.542 274.675,237.242 274.835,237.067 275.042 M279.833 276.061 C 279.833 276.106,280.058 276.304,280.333 276.500 C 280.608 276.696,280.833 276.819,280.833 276.773 C 280.833 276.727,280.608 276.529,280.333 276.333 C 280.058 276.138,279.833 276.015,279.833 276.061 M240.333 276.394 C 240.333 276.440,240.558 276.638,240.833 276.833 C 241.108 277.029,241.333 277.152,241.333 277.106 C 241.333 277.060,241.108 276.862,240.833 276.667 C 240.558 276.471,240.333 276.348,240.333 276.394 M118.417 277.265 L 117.917 277.694 118.458 277.336 C 118.756 277.139,119.000 276.945,119.000 276.905 C 119.000 276.781,118.929 276.824,118.417 277.265 M157.917 277.598 L 157.417 278.028 157.958 277.669 C 158.256 277.472,158.500 277.278,158.500 277.239 C 158.500 277.114,158.429 277.157,157.917 277.598 M164.667 277.833 C 164.862 278.108,165.060 278.333,165.106 278.333 C 165.152 278.333,165.029 278.108,164.833 277.833 C 164.638 277.558,164.440 277.333,164.394 277.333 C 164.348 277.333,164.471 277.558,164.667 277.833 M117.069 278.262 L 116.417 278.857 117.125 278.317 C 117.772 277.824,117.930 277.667,117.778 277.667 C 117.747 277.667,117.428 277.935,117.069 278.262 M234.667 278.333 C 234.471 278.608,234.348 278.833,234.394 278.833 C 234.440 278.833,234.638 278.608,234.833 278.333 C 235.029 278.058,235.152 277.833,235.106 277.833 C 235.060 277.833,234.862 278.058,234.667 278.333 M165.500 279.000 C 165.696 279.275,165.894 279.500,165.939 279.500 C 165.985 279.500,165.862 279.275,165.667 279.000 C 165.471 278.725,165.273 278.500,165.227 278.500 C 165.181 278.500,165.304 278.725,165.500 279.000 M244.333 279.227 C 244.333 279.273,244.558 279.471,244.833 279.667 C 245.108 279.862,245.333 279.985,245.333 279.939 C 245.333 279.894,245.108 279.696,244.833 279.500 C 244.558 279.304,244.333 279.181,244.333 279.227 M153.917 280.431 L 153.417 280.861 153.958 280.502 C 154.256 280.305,154.500 280.112,154.500 280.072 C 154.500 279.947,154.429 279.991,153.917 280.431 M245.500 280.061 C 245.500 280.106,245.725 280.304,246.000 280.500 C 246.275 280.696,246.500 280.819,246.500 280.773 C 246.500 280.727,246.275 280.529,246.000 280.333 C 245.725 280.138,245.500 280.015,245.500 280.061 M152.750 281.265 L 152.250 281.694 152.792 281.336 C 153.090 281.139,153.333 280.945,153.333 280.905 C 153.333 280.781,153.263 280.824,152.750 281.265 M117.667 281.500 C 117.862 281.775,118.060 282.000,118.106 282.000 C 118.152 282.000,118.029 281.775,117.833 281.500 C 117.638 281.225,117.440 281.000,117.394 281.000 C 117.348 281.000,117.471 281.225,117.667 281.500 M282.167 281.500 C 281.971 281.775,281.848 282.000,281.894 282.000 C 281.940 282.000,282.138 281.775,282.333 281.500 C 282.529 281.225,282.652 281.000,282.606 281.000 C 282.560 281.000,282.362 281.225,282.167 281.500 M168.333 283.000 C 168.529 283.275,168.727 283.500,168.773 283.500 C 168.819 283.500,168.696 283.275,168.500 283.000 C 168.304 282.725,168.106 282.500,168.061 282.500 C 168.015 282.500,168.138 282.725,168.333 283.000 M249.500 282.894 C 249.500 282.940,249.725 283.138,250.000 283.333 C 250.275 283.529,250.500 283.652,250.500 283.606 C 250.500 283.560,250.275 283.362,250.000 283.167 C 249.725 282.971,249.500 282.848,249.500 282.894 M231.000 283.500 C 230.804 283.775,230.681 284.000,230.727 284.000 C 230.773 284.000,230.971 283.775,231.167 283.500 C 231.362 283.225,231.485 283.000,231.439 283.000 C 231.394 283.000,231.196 283.225,231.000 283.500 M148.750 284.098 L 148.250 284.528 148.792 284.169 C 149.090 283.972,149.333 283.778,149.333 283.739 C 149.333 283.614,149.263 283.657,148.750 284.098 M169.167 284.167 C 169.362 284.442,169.560 284.667,169.606 284.667 C 169.652 284.667,169.529 284.442,169.333 284.167 C 169.138 283.892,168.940 283.667,168.894 283.667 C 168.848 283.667,168.971 283.892,169.167 284.167 M253.500 285.727 C 253.500 285.773,253.725 285.971,254.000 286.167 C 254.275 286.362,254.500 286.485,254.500 286.439 C 254.500 286.394,254.275 286.196,254.000 286.000 C 253.725 285.804,253.500 285.681,253.500 285.727 M144.750 286.931 L 144.250 287.361 144.792 287.002 C 145.090 286.805,145.333 286.612,145.333 286.572 C 145.333 286.447,145.263 286.491,144.750 286.931 M254.667 286.561 C 254.667 286.606,254.892 286.804,255.167 287.000 C 255.442 287.196,255.667 287.319,255.667 287.273 C 255.667 287.227,255.442 287.029,255.167 286.833 C 254.892 286.638,254.667 286.515,254.667 286.561 M143.583 287.765 L 143.083 288.194 143.625 287.836 C 143.923 287.639,144.167 287.445,144.167 287.405 C 144.167 287.281,144.096 287.324,143.583 287.765 M172.000 288.167 C 172.196 288.442,172.394 288.667,172.439 288.667 C 172.485 288.667,172.362 288.442,172.167 288.167 C 171.971 287.892,171.773 287.667,171.727 287.667 C 171.681 287.667,171.804 287.892,172.000 288.167 M227.333 288.667 C 227.138 288.942,227.015 289.167,227.061 289.167 C 227.106 289.167,227.304 288.942,227.500 288.667 C 227.696 288.392,227.819 288.167,227.773 288.167 C 227.727 288.167,227.529 288.392,227.333 288.667 M172.833 289.333 C 173.029 289.608,173.227 289.833,173.273 289.833 C 173.319 289.833,173.196 289.608,173.000 289.333 C 172.804 289.058,172.606 288.833,172.561 288.833 C 172.515 288.833,172.638 289.058,172.833 289.333 M258.667 289.394 C 258.667 289.440,258.892 289.638,259.167 289.833 C 259.442 290.029,259.667 290.152,259.667 290.106 C 259.667 290.060,259.442 289.862,259.167 289.667 C 258.892 289.471,258.667 289.348,258.667 289.394 M139.583 290.598 L 139.083 291.028 139.625 290.669 C 139.923 290.472,140.167 290.278,140.167 290.239 C 140.167 290.114,140.096 290.157,139.583 290.598 M274.333 292.500 C 274.138 292.775,274.015 293.000,274.061 293.000 C 274.106 293.000,274.304 292.775,274.500 292.500 C 274.696 292.225,274.819 292.000,274.773 292.000 C 274.727 292.000,274.529 292.225,274.333 292.500 M262.667 292.227 C 262.667 292.273,262.892 292.471,263.167 292.667 C 263.442 292.862,263.667 292.985,263.667 292.939 C 263.667 292.894,263.442 292.696,263.167 292.500 C 262.892 292.304,262.667 292.181,262.667 292.227 M175.667 293.333 C 175.862 293.608,176.060 293.833,176.106 293.833 C 176.152 293.833,176.029 293.608,175.833 293.333 C 175.638 293.058,175.440 292.833,175.394 292.833 C 175.348 292.833,175.471 293.058,175.667 293.333 M135.583 293.431 L 135.083 293.861 135.625 293.502 C 135.923 293.305,136.167 293.112,136.167 293.072 C 136.167 292.947,136.096 292.991,135.583 293.431 M263.833 293.061 C 263.833 293.106,264.058 293.304,264.333 293.500 C 264.608 293.696,264.833 293.819,264.833 293.773 C 264.833 293.727,264.608 293.529,264.333 293.333 C 264.058 293.138,263.833 293.015,263.833 293.061 M126.333 293.667 C 126.529 293.942,126.727 294.167,126.773 294.167 C 126.819 294.167,126.696 293.942,126.500 293.667 C 126.304 293.392,126.106 293.167,126.061 293.167 C 126.015 293.167,126.138 293.392,126.333 293.667 M273.500 293.667 C 273.304 293.942,273.181 294.167,273.227 294.167 C 273.273 294.167,273.471 293.942,273.667 293.667 C 273.862 293.392,273.985 293.167,273.939 293.167 C 273.894 293.167,273.696 293.392,273.500 293.667 M223.667 293.833 C 223.471 294.108,223.348 294.333,223.394 294.333 C 223.440 294.333,223.638 294.108,223.833 293.833 C 224.029 293.558,224.152 293.333,224.106 293.333 C 224.060 293.333,223.862 293.558,223.667 293.833 M134.417 294.265 L 133.917 294.694 134.458 294.336 C 134.756 294.139,135.000 293.945,135.000 293.905 C 135.000 293.781,134.929 293.824,134.417 294.265 M127.167 294.833 C 127.362 295.108,127.560 295.333,127.606 295.333 C 127.652 295.333,127.529 295.108,127.333 294.833 C 127.138 294.558,126.940 294.333,126.894 294.333 C 126.848 294.333,126.971 294.558,127.167 294.833 M272.667 294.833 C 272.471 295.108,272.348 295.333,272.394 295.333 C 272.440 295.333,272.638 295.108,272.833 294.833 C 273.029 294.558,273.152 294.333,273.106 294.333 C 273.060 294.333,272.862 294.558,272.667 294.833 M128.000 296.000 C 128.196 296.275,128.394 296.500,128.439 296.500 C 128.485 296.500,128.362 296.275,128.167 296.000 C 127.971 295.725,127.773 295.500,127.727 295.500 C 127.681 295.500,127.804 295.725,128.000 296.000 M271.833 296.000 C 271.638 296.275,271.515 296.500,271.561 296.500 C 271.606 296.500,271.804 296.275,272.000 296.000 C 272.196 295.725,272.319 295.500,272.273 295.500 C 272.227 295.500,272.029 295.725,271.833 296.000 M267.833 295.894 C 267.833 295.940,268.058 296.138,268.333 296.333 C 268.608 296.529,268.833 296.652,268.833 296.606 C 268.833 296.560,268.608 296.362,268.333 296.167 C 268.058 295.971,267.833 295.848,267.833 295.894 M129.833 297.260 C 129.431 297.413,129.356 297.484,129.593 297.491 C 129.782 297.496,130.082 297.390,130.260 297.255 C 130.640 296.968,130.605 296.968,129.833 297.260 M269.740 297.238 C 269.918 297.382,270.218 297.494,270.407 297.486 C 270.682 297.474,270.662 297.445,270.305 297.337 C 270.060 297.263,269.760 297.151,269.638 297.089 C 269.516 297.026,269.562 297.093,269.740 297.238 M179.333 298.500 C 179.529 298.775,179.727 299.000,179.773 299.000 C 179.819 299.000,179.696 298.775,179.500 298.500 C 179.304 298.225,179.106 298.000,179.061 298.000 C 179.015 298.000,179.138 298.225,179.333 298.500 M220.000 299.000 C 219.804 299.275,219.681 299.500,219.727 299.500 C 219.773 299.500,219.971 299.275,220.167 299.000 C 220.362 298.725,220.485 298.500,220.439 298.500 C 220.394 298.500,220.196 298.725,220.000 299.000 M183.000 303.667 C 183.196 303.942,183.394 304.167,183.439 304.167 C 183.485 304.167,183.362 303.942,183.167 303.667 C 182.971 303.392,182.773 303.167,182.727 303.167 C 182.681 303.167,182.804 303.392,183.000 303.667 M216.333 304.167 C 216.138 304.442,216.015 304.667,216.061 304.667 C 216.106 304.667,216.304 304.442,216.500 304.167 C 216.696 303.892,216.819 303.667,216.773 303.667 C 216.727 303.667,216.529 303.892,216.333 304.167 M186.667 308.833 C 186.862 309.108,187.060 309.333,187.106 309.333 C 187.152 309.333,187.029 309.108,186.833 308.833 C 186.638 308.558,186.440 308.333,186.394 308.333 C 186.348 308.333,186.471 308.558,186.667 308.833 M212.667 309.333 C 212.471 309.608,212.348 309.833,212.394 309.833 C 212.440 309.833,212.638 309.608,212.833 309.333 C 213.029 309.058,213.152 308.833,213.106 308.833 C 213.060 308.833,212.862 309.058,212.667 309.333 M209.833 313.333 C 209.638 313.608,209.515 313.833,209.561 313.833 C 209.606 313.833,209.804 313.608,210.000 313.333 C 210.196 313.058,210.319 312.833,210.273 312.833 C 210.227 312.833,210.029 313.058,209.833 313.333 M190.333 314.000 C 190.529 314.275,190.727 314.500,190.773 314.500 C 190.819 314.500,190.696 314.275,190.500 314.000 C 190.304 313.725,190.106 313.500,190.061 313.500 C 190.015 313.500,190.138 313.725,190.333 314.000 M209.000 314.500 C 208.804 314.775,208.681 315.000,208.727 315.000 C 208.773 315.000,208.971 314.775,209.167 314.500 C 209.362 314.225,209.485 314.000,209.439 314.000 C 209.394 314.000,209.196 314.225,209.000 314.500 M194.000 319.167 C 194.196 319.442,194.394 319.667,194.439 319.667 C 194.485 319.667,194.362 319.442,194.167 319.167 C 193.971 318.892,193.773 318.667,193.727 318.667 C 193.681 318.667,193.804 318.892,194.000 319.167 M205.333 319.667 C 205.138 319.942,205.015 320.167,205.061 320.167 C 205.106 320.167,205.304 319.942,205.500 319.667 C 205.696 319.392,205.819 319.167,205.773 319.167 C 205.727 319.167,205.529 319.392,205.333 319.667 M197.667 324.333 C 197.862 324.608,198.060 324.833,198.106 324.833 C 198.152 324.833,198.029 324.608,197.833 324.333 C 197.638 324.058,197.440 323.833,197.394 323.833 C 197.348 323.833,197.471 324.058,197.667 324.333 M198.541 325.417 C 198.964 325.871,199.037 325.892,199.521 325.710 C 199.880 325.574,200.142 325.564,200.356 325.679 C 200.704 325.865,201.131 325.699,201.514 325.227 C 201.661 325.046,201.548 325.084,201.212 325.330 C 200.688 325.713,200.664 325.716,200.337 325.420 C 200.023 325.136,199.979 325.134,199.695 325.391 C 199.288 325.760,199.021 325.739,198.511 325.296 C 198.118 324.956,198.120 324.966,198.541 325.417 " stroke="none" fill="#3c4444" fill-rule="evenodd"></path></g></svg>