<svg fill="none" height="200" viewBox="0 0 200 200" width="200" xmlns="http://www.w3.org/2000/svg" xmlns:xlink="http://www.w3.org/1999/xlink"><mask id="a" height="168" maskUnits="userSpaceOnUse" width="168" x="16" y="16"><path d="m184 16h-168v168h168z" fill="#fff"/></mask><g mask="url(#a)"><path clip-rule="evenodd" d="m100 15.96c46.42 0 84.04 37.6206 84.04 84.04 0 46.42-37.62 84.04-84.04 84.04-46.4194 0-84.04-37.62-84.04-84.04 0-46.4194 37.6206-84.04 84.04-84.04z" fill="#1969ff" fill-rule="evenodd"/><path d="m94.8891 42.0959c2.8661-1.5032 7.2359-1.5032 10.1019 0l29.283 15.393c1.724.9019 2.686 2.2649 2.846 3.6678h.02v77.3463c-.04 1.523-1.002 3.046-2.866 4.028l-29.283 15.393c-2.866 1.503-7.2358 1.503-10.1019 0l-29.2826-15.393c-1.864-.982-2.7659-2.505-2.806-4.028 0-.141 0-.281 0-.382v-76.4832c0-.0802 0-.1603 0-.2606v-.2405h.02c.1203-1.403 1.0423-2.7258 2.8061-3.6678l29.2826-15.393zm37.6609 62.1931-27.559 14.471c-2.866 1.504-7.2358 1.504-10.1019 0l-27.4988-14.451v34.013l27.4988 14.371c1.5433.822 3.1668 1.624 4.7303 1.724l.3209.019c1.6437 0 3.2267-.821 4.8497-1.603l27.76-14.631zm-74.5197 32.51c0 2.966.3407 4.91 1.0422 6.294.5612 1.142 1.4231 2.004 2.9864 3.066l.0802.06c.3407.221.7215.461 1.1825.762l.5412.32 1.6635 1.002-2.3851 3.929-1.864-1.123-.3206-.2c-.5412-.34-.9822-.621-1.4031-.902-4.4495-2.986-6.113-6.233-6.1331-13.008v-.2zm39.605-53.2541c-.2206.0801-.4211.1602-.6014.2604l-29.2828 15.3927c-.0401.0202-.0601.0404-.0801.0404l-.0201.0201.0401.0202.0601.0397 29.2828 15.3936c.1803.1.3808.18.6014.26v-31.4075zm4.6097 0v31.4071c.22-.08.421-.16.601-.26l29.283-15.3937c.04-.0196.06-.0398.08-.0398l.02-.0201-.04-.0202-.06-.0398-29.283-15.3932c-.18-.1003-.381-.1804-.601-.2604zm30.305-16.9364-26.276 13.8094 26.276 13.8096zm-65.1396.0401v27.5391l26.2159-13.7698zm35.4356-20.504c-1.523-.8017-4.2688-.8017-5.792 0l-29.2829 15.393c-.0401.02-.0601.04-.0801.04l-.02.0201.04.02.0601.0401 29.2829 15.3928c1.5232.8019 4.269.8019 5.792 0l29.283-15.3928c.04-.02.06-.0401.08-.0401l.02-.02-.04-.0201-.06-.04zm34.033 1.6836 1.864 1.1224.321.2004c.541.3207.982.6214 1.403.902 4.45 2.9864 6.113 6.2333 6.133 13.0079v.2004h-4.61c0-2.9664-.34-4.9105-1.042-6.2935-.561-1.1425-1.423-2.0043-2.987-3.0666l-.08-.0601c-.34-.2205-.721-.461-1.182-.7616l-.541-.3207-1.664-1.0022z" fill="#fff"/></g></svg>