<svg fill="none" height="200" viewBox="0 0 200 200" width="200" xmlns="http://www.w3.org/2000/svg" xmlns:xlink="http://www.w3.org/1999/xlink"><linearGradient id="a"><stop offset="0" stop-color="#0092d5"/><stop offset=".380022" stop-color="#0092d5"/><stop offset=".656313" stop-color="#475fa9"/><stop offset=".776414" stop-color="#475fa9"/><stop offset=".811727" stop-color="#475fa9"/><stop offset="1" stop-color="#475fa9"/></linearGradient><linearGradient id="b" gradientUnits="userSpaceOnUse" x1="14.7256" x2="185.274" xlink:href="#a" y1="100" y2="100"/><linearGradient id="c" gradientUnits="userSpaceOnUse" x1="14.1423" x2="185.858" xlink:href="#a" y1="100" y2="100"/><mask id="d" height="168" maskUnits="userSpaceOnUse" width="168" x="16" y="16"><path d="m100 184c46.392 0 84-37.608 84-84 0-46.3919-37.608-84-84-84-46.3919 0-84 37.6081-84 84 0 46.392 37.6081 84 84 84z" fill="#d9d9d9"/></mask><mask id="e" height="168" maskUnits="userSpaceOnUse" width="168" x="16" y="16"><path d="m16 16h168v168h-168z" fill="#fff"/></mask><g mask="url(#d)"><path d="m16 184h168v-168h-168z" fill="url(#b)"/></g><g mask="url(#e)"><path d="m185.275 185.275h-170.5489v-170.5489h170.5489z" stroke="url(#c)" stroke-miterlimit="10" stroke-width="1.12"/><path d="m99.9981 123.05-27.3966-41.3586 2.1513-4.0635h41.8272l2.193 4.2361-18.7795 26.923-15.477-23.2387h21.3815v1.7522h-18.1089l12.2389 18.3765 16.703-23.9474-1.217-2.3494h-39.7066l-1.1714 2.2108 25.366 38.291 25.368-38.0927-5.139-10.3156h-49.3133l-5.4016 10.8956 30.7394 46.1557h7.4905l30.738-46.157-9.265-18.7996h-59.2043l-9.6101 19.3805 35.6186 53.4821h15.9558l35.616-53.4821-13.564-27.2871h-68.9211l-13.8181 27.8684 40.4973 60.8068h24.4239l40.494-60.8081-17.719-35.7724h-78.7817l-18.0262 36.3545 45.375 68.132h32.8919l45.373-68.1332-18.268-36.8421 1.569-.7782 18.718 37.7475-46.453 69.759h-34.7687l-46.4567-69.7569 18.9583-38.2349h80.9551l18.654 37.6528-22.014 33.055-19.561 29.377h-26.303l-41.5777-62.4307 14.7515-29.7488h71.0912l14.5 29.1679-36.698 55.1066h-17.8334l-36.6985-55.1053 10.5422-21.2625h61.3817l10.193 20.6825-31.818 47.7783h-9.3664l-31.8208-47.7783 6.3348-12.776h51.4844l6.075 12.1938c-9.131 13.7105-18.261 27.4215-27.3929 41.1335z" fill="#fff"/><path d="m99.9981 123.05-27.3966-41.3586 2.1513-4.0635h41.8272l2.193 4.2361-18.7795 26.923-15.477-23.2387h21.3815v1.7522h-18.1089l12.2389 18.3765 16.703-23.9474-1.217-2.3494h-39.7066l-1.1714 2.2108 25.366 38.291 25.368-38.0927-5.139-10.3156h-49.3133l-5.4016 10.8956 30.7394 46.1557h7.4905l30.738-46.157-9.265-18.7996h-59.2043l-9.6101 19.3805 35.6186 53.4821h15.9558l35.616-53.4821-13.564-27.2871h-68.9211l-13.8181 27.8684 40.4973 60.8068h24.4239l40.494-60.8081-17.719-35.7724h-78.7817l-18.0262 36.3545 45.375 68.132h32.8919l45.373-68.1332-18.268-36.8421 1.569-.7782 18.718 37.7475-46.453 69.759h-34.7687l-46.4567-69.7569 18.9583-38.2349h80.9551l18.654 37.6528-22.014 33.055-19.561 29.377h-26.303l-41.5777-62.4307 14.7515-29.7488h71.0912l14.5 29.1679-36.698 55.1066h-17.8334l-36.6985-55.1053 10.5422-21.2625h61.3817l10.193 20.6825-31.818 47.7783h-9.3664l-31.8208-47.7783 6.3348-12.776h51.4844l6.075 12.1938c-9.131 13.7105-18.261 27.4215-27.3929 41.1335z" stroke="#fff" stroke-miterlimit="10" stroke-width="2.24"/></g></svg>