<svg fill="none" height="200" viewBox="0 0 200 200" width="200" xmlns="http://www.w3.org/2000/svg"><path d="m100 184c46.392 0 84-37.608 84-84 0-46.3919-37.608-84-84-84-46.3919 0-84 37.6081-84 84 0 46.392 37.6081 84 84 84z" fill="#cae9ef"/><g stroke="#00f" stroke-miterlimit="10" stroke-width="3.36"><path d="m100 140.005c22.094 0 40.005-17.911 40.005-40.005s-17.911-40.0049-40.005-40.0049-40.0049 17.9109-40.0049 40.0049 17.9109 40.005 40.0049 40.005z"/><path d="m99.9998 140.005c11.0412 0 19.9922-17.911 19.9922-40.005s-8.951-40.0049-19.9922-40.0049c-11.0413 0-19.992 17.9109-19.992 40.0049s8.9507 40.005 19.992 40.005z"/><path d="m59.9951 100h80.0099"/><path d="m100 59.323v81.354"/><path d="m100 168.502c37.833 0 68.502-30.669 68.502-68.502 0-37.8326-30.669-68.502-68.502-68.502-37.8326 0-68.502 30.6694-68.502 68.502 0 37.833 30.6694 68.502 68.502 68.502z"/></g></svg>