<svg fill="none" height="200" viewBox="0 0 200 200" width="200" xmlns="http://www.w3.org/2000/svg" xmlns:xlink="http://www.w3.org/1999/xlink"><filter id="a" color-interpolation-filters="sRGB" filterUnits="userSpaceOnUse" height="46.0279" width="45.6575" x="57.3153" y="43.224"><feFlood flood-opacity="0" result="BackgroundImageFix"/><feBlend in="SourceGraphic" in2="BackgroundImageFix" mode="normal" result="shape"/><feGaussianBlur result="effect1_foregroundBlur_8_1633" stdDeviation="3.01277"/></filter><g fill="#461d92"><path d="m100 181c44.735 0 81-36.265 81-81 0-44.7351-36.265-81-81-81-44.7351 0-81 36.2649-81 81 0 44.735 36.2649 81 81 81z" stroke="#d6a473" stroke-width="5.85542"/><path d="m101.125 123.444 22.154 31.539 6.119-.206c3.349-.1 6.312-.342 6.558-.518.249-.175 1.466-2.9 2.683-6.035l2.243-5.724-3.547-5.05-3.528-5.021-4.4 3.12-4.401 3.121-3.101-4.414-3.101-4.415 4.401-3.121 4.402-3.121-3.101-4.415-3.101-4.415-4.401 3.121-4.4 3.121-3.101-4.415-3.101-4.415 4.4-3.12 4.401-3.121-3.101-4.415-3.101-4.4143-4.401 3.1203-4.4 3.121-3.1013-4.4145-3.1036-4.4184 4.4006-3.1207 4.4003-3.1207-3.1006-4.4147-3.101-4.4146-8.8012 6.2414-8.8012 6.2415 22.135 31.5117z"/><path d="m53.1704 83.0647c-9.2683-17.6242-7.1578-31.208 6.3317-40.7514 13.4894-9.5434 26.2478-6.4791 38.2753 9.193 7.0516-1.977 12.6136-.7375 16.6856 3.7186 5.936 6.4949 1.361 14.6449-7.404 19.6161-8.0904 4.5891-21.1475 13.6973-21.1475 13.6973 7.6515 10.668 1.264 16.9497-4.8676 21.2877-6.1315 4.338-9.1947-1.704-15.0877-8.72-6.1002 5.611-10.7856 6.109-14.0562 1.494-4.9058-6.9222-7.927-13.0284 1.2704-19.5353z"/></g><path d="m58.2177 84.4055c-8.4944-16.3564-6.2507-29.1243 6.7312-38.3037 12.9819-9.1793 25.0477-6.5296 36.1971 7.9493 6.734-1.9758 11.995-.911 15.785 3.1945 5.524 5.9838 1.036 13.7019-7.378 18.5138-22.6265 7.0037-19.5567 47.8496-39.5068 25.3316-5.8934 5.366-10.353 5.914-13.3787 1.646-4.5386-6.4026-7.3011-12.0729 1.5502-18.3315z" fill="#e443e2"/><g filter="url(#a)"><path d="m82.7443 54.3368c1.3426-1.3863.0264-4.3759-2.3123-4.8938-4.731-1.0477-9.7703 2.2171-13.7965 8.4059-3.8091 5.8551-4.4665 10.8546-1.1776 17.739 3.2889 6.8843 12.9483 8.6532 17.4498 7.1313 4.5015-1.522 7.258-3.1962 8.8743-4.2852 1.6163-1.0889 4.6144-3.0551 5.1066-6.612.7129-5.1519-5.2136-12.5226-10.3194-13.501-1.6322-.3128-2.6952 2.3906-3.2862 4.6895-.5283 2.0546 5.5827 1.3506 4.2322 5.7783-.8499 2.7864-7.4047 4.1825-7.4047 4.1825-4.1817.3574-6.32-4.1998-7.0878-7.4037s2.8386-7.2446 4.7982-8.5434c1.9596-1.2987 3.5264-1.2447 4.9234-2.6874z" fill="#491e9b"/></g><path d="m105.087 123.573 22.154 31.539 6.119-.206c3.349-.1 6.312-.342 6.558-.517.249-.176 1.466-2.9 2.683-6.036l2.243-5.724-3.548-5.049-3.527-5.022-4.4 3.121-4.401 3.121-3.101-4.415-3.101-4.415 4.401-3.12 4.402-3.122-3.101-4.415-3.101-4.414-4.401 3.12-4.401 3.121-3.101-4.415-3.1-4.414 4.4-3.121 4.401-3.121-3.101-4.414-3.101-4.4149-4.401 3.1209-4.4 3.121-3.101-4.4151-3.104-4.4184 4.401-3.1207 4.4-3.1208-3.101-4.4146-3.101-4.4146-8.8009 6.2414-8.8012 6.2415 22.1351 31.5113z" fill="#e443e2"/></svg>