<svg fill="none" height="200" viewBox="0 0 200 200" width="200" xmlns="http://www.w3.org/2000/svg"><g clip-rule="evenodd" fill-rule="evenodd"><path d="m57.811 92.0168c-.3929.373-.6433.7244-.693.9726-.0428.2137-.1252.4185-.1834.454-.1468.0909-.1331 1.3536.0157 1.4455.0667.0413.1213.1725.1213.2919 0 .1191.1091.3153.2425.4357.1334.1207.2426.2838.2426.3622s.15.2199.3334.3145c.1834.0948.4393.2678.5685.3845.2628.2372 1.6923.3083 1.8265.0908.0413-.0665.1765-.1212.3008-.1212.3355 0 1.29-1.0116 1.3802-1.4633.4657-2.328-.52-3.7511-2.5986-3.7511h-.9411zm8.9618-.4627c0 .0669-.0832.1213-.1851.1213-.2404 0-1.27 1.0297-1.27 1.27 0 .1019-.0547.1852-.1213.1852-.0706 0-.1213.4018-.1213.9628 0 .5298.0545.9968.1213 1.0381.0666.0412.1213.159.1213.2616 0 .2843 1.0876 1.2542 1.4066 1.2542.1523 0 .3105.0547.3517.1212.104.1685 88.905.1685 89.009 0 .041-.0665.171-.1212.289-.1212.73 0 1.494-1.2965 1.499-2.5466.004-1.0658-.733-2.4253-1.315-2.4253-.094 0-.17-.0544-.17-.1213 0-.0805-15.017-.1212-44.808-.1212-29.7904 0-44.8072.0407-44.8072.1212zm-25.7689 10.4289c-.0412.067-.2016.121-.3562.121-.1643 0-.4896.203-.7813.485l-.4996.485v1.583c0 1.683.1913 2.16.8719 2.173.1128.002.2389.058.2801.125.0879.142 2.2435.166 2.2435.025 0-.053.1758-.149.3904-.212.8622-.256 1.397-1.654 1.122-2.933-.2449-1.14-2.8124-2.594-3.2708-1.852zm8.2461 0c-.0413.067-.181.121-.3105.121-.1294 0-.2352.055-.2352.121 0 .067-.0794.122-.1765.122-.5278 0-1.2535 1.264-1.2493 2.176.0045 1.034.7555 2.311 1.3582 2.311.0961 0 .2082.054.2495.121.0497.08 11.2181.121 33.1128.121 21.944 0 33.038-.04 33.038-.121 0-.067.164-.121.366-.121.276 0 .395-.073.478-.292.061-.16.169-.327.239-.371.071-.043.129-.185.129-.315 0-.129.055-.235.121-.235.238 0 .144-1.907-.119-2.423-.259-.505-.93-1.094-1.249-1.094-.106 0-.227-.054-.269-.121-.049-.08-11.094-.121-32.7413-.121-21.647 0-32.692.041-32.7417.121zm10.065 10.429c-.0412.067-.2595.121-.4851.121-.2255 0-.4438.055-.485.121-.0412.067-.1561.122-.2553.122-.2055 0-.7755.53-.7755.722 0 .07-.0545.126-.1212.126s-.1213.137-.1213.304c0 .166-.0546.303-.1213.303-.0685 0-.1212.343-.1212.788s.0527.788.1212.788c.0667 0 .1213.097.1213.216 0 .29 1.1702 1.482 1.4558 1.482.1252 0 .2613.055.3025.121.0413.067.3141.121.6064.121.2921 0 .5651-.054.6063-.121.0412-.066.1816-.121.3121-.121.5446 0 1.4926-.869 1.6147-1.479.2463-1.231-.0968-2.875-.6535-3.129-.1-.046-.304-.147-.4533-.224-.149-.077-.4594-.14-.6898-.14s-.4528-.054-.494-.121-.1231-.121-.1819-.121-.1407.054-.1819.121zm7.2153.242c0 .067-.128.122-.2843.122-.2622 0-.6858.327-.6858.53 0 .047-.1013.195-.225.328-.4048.434-.3016 2.658.1231 2.658.0561 0 .1019.085.1019.188 0 .242.5403.782.7828.782.103 0 .1873.055.1873.122s.1639.121.3638.121c.2002 0 .3638.055.3638.121 0 .081 13.1371.121 39.1691.121 26.031 0 39.168-.04 39.168-.121 0-.066.164-.121.364-.121s.364-.045.364-.101c0-.055.132-.171.292-.257.879-.47 1.408-2.366.919-3.285-.292-.547-.784-1.086-.992-1.086-.112 0-.238-.055-.28-.122-.049-.08-13.482-.121-39.903-.121-26.4717 0-39.8287.041-39.8287.121zm-21.1002 10.187c0 .066-.1091.121-.2425.121s-.2426.055-.2426.121c0 .067-.0891.121-.1979.121-.2231 0-.6066.398-.7161.743-.0397.125-.1234.228-.1855.228-.0622 0-.1131.105-.1131.235 0 .129-.0546.269-.1213.31-.2561.159-.0057 2.001.2719 2.001.0507 0 .0919.084.0919.188 0 .759 2.8291 1.768 3.2136 1.146.0412-.066.1555-.121.2537-.121.871 0 2.0818-3.025 1.3833-3.456-.0667-.041-.1212-.155-.1212-.253 0-.231-1.0317-1.263-1.263-1.263-.0979 0-.2116-.055-.2528-.121-.0413-.067-.4539-.122-.9168-.122-.4802 0-.8416.053-.8416.122zm8.2461 0c0 .066-.1165.121-.2586.121-.3362 0-1.3179.982-1.3179 1.318 0 .142-.0546.258-.1213.258-.07 0-.1212.382-.1212.903 0 .496.0545.936.1212.977s.1213.165.1213.274c0 .268 1.045 1.242 1.333 1.242.1261 0 .2629.055.3041.121.0494.08 5.5152.121 16.0027.121h15.9276l.5271-.272c.2897-.15.7042-.461.9211-.691l.394-.418v-1.352-1.351l-.5336-.565c-.2937-.311-.6179-.565-.7206-.565-.1029 0-.2204-.055-.2617-.121-.0493-.08-5.5795-.122-16.1962-.122-10.6665 0-16.121.041-16.121.122zm39.438.129c-.5341.314-1.2394 1.031-1.2394 1.261 0 .103-.0544.186-.1212.186-.0712 0-.1213.425-.1213 1.031s.0501 1.031.1213 1.031c.0668 0 .1212.071.1212.158 0 .238.7392.997 1.252 1.285l.453.254h32.6662 32.666l.527-.272c1.074-.557 1.189-.796 1.192-2.474.002-1.651-.104-1.88-1.133-2.458l-.449-.253-32.769.009c-32.1173.008-32.7759.013-33.1658.242zm5.1877 10.299c0 .067-.1803.122-.4007.122-.4452 0-1.297.668-1.297 1.017 0 .107-.0547.195-.1213.195-.0668 0-.1212.106-.1212.236 0 .129-.0545.269-.1213.31-.0666.041-.1213.399-.1213.796 0 .399.0539.72.1213.72.0668 0 .1213.11.1213.244 0 .733.9208 1.563 1.9459 1.754.8725.164 2.5404-.558 2.5404-1.099 0-.094.046-.171.102-.171s.165-.139.243-.309c.173-.381.189-2.238.019-2.238-.066 0-.121-.071-.121-.158 0-.2-.775-1.055-.956-1.055-.074 0-.1354-.054-.1354-.121s-.1331-.121-.2959-.121c-.1627 0-.3298-.055-.371-.122-.0413-.066-.2903-.121-.553-.121-.2628 0-.4778.055-.4778.121zm8.0641 0c-.041.067-.181.122-.31.122-.13 0-.236.054-.236.121s-.083.121-.186.121c-.102 0-.375.189-.606.421-.231.231-.42.504-.42.606s-.055.186-.122.186c-.177 0-.152 1.89.031 2.21.257.453.857 1.035 1.341 1.3l.461.253h20.307c11.169 0 20.452-.036 20.629-.081.474-.119 1.372-.916 1.372-1.219 0-.087.055-.159.121-.159.067 0 .122-.16.122-.357 0-.196.054-.39.121-.431s.121-.26.121-.485c0-.226-.054-.444-.121-.485-.067-.042-.121-.181-.121-.311 0-.129-.055-.235-.122-.235-.066 0-.121-.097-.121-.216 0-.118-.109-.294-.242-.39-.134-.096-.243-.236-.243-.311 0-.252-.44-.538-.828-.538-.212 0-.385-.055-.385-.122 0-.08-6.828-.121-20.244-.121-13.365 0-20.27.041-20.319.121zm-32.8023 10.672c0 .067-.0709.121-.1574.121-.2217 0-1.086.855-1.2676 1.255-.1811.398-.2056 2.141-.0302 2.141.0666 0 .1213.106.1213.236 0 .21.6761.855.8955.855.0466 0 .2018.109.3449.242.3579.334 1.9855.355 2.3445.031.1291-.117.3837-.289.5656-.383.7605-.392 1.2124-2.172.7944-3.128-.1878-.429-1.0062-1.249-1.2463-1.249-.1 0-.1819-.054-.1819-.121 0-.072-.4446-.121-1.0914-.121-.6467 0-1.0914.049-1.0914.121zm8.1248 0c0 .067-.0795.121-.1765.121-.2285 0-.7936.565-.7936.794 0 .097-.0547.176-.1213.176-.0665 0-.1212.164-.1212.364s-.0547.364-.1213.364c-.0668 0-.1213.242-.1213.538s.0545.573.1213.614c.0666.041.1213.174.1213.297 0 .453.6421 1.34.9701 1.34.0722 0 .2484.109.3915.242.2965.276 41.2025.397 41.2025.122 0-.067.109-.122.243-.122.133 0 .242-.041.242-.091 0-.051.165-.165.366-.253.67-.297 1.089-1.088 1.089-2.054 0-.832-.243-1.603-.506-1.603-.068 0-.277-.164-.464-.364s-.427-.364-.533-.364c-.107 0-.194-.054-.194-.121 0-.08-7.014-.121-20.797-.121-13.7843 0-20.7975.041-20.7975.121z" fill="#e4147c"/><path d="m107.804 45.112c-.057.0558-.459.1146-.892.1303-.434.0158-.816.0688-.849.1183-.034.0494-.306.1046-.607.1227-.3.0179-.613.0843-.697.1474-.101.077-.151.0652-.151-.0361 0-.1128-.042-.1167-.163-.0155-.09.0743-.486.1568-.88.1829-.924.0612-1.504.1952-1.504.3477 0 .0664-.092.046-.205-.0455-.14-.1131-.176-.1179-.114-.0148.092.1543.057.167-.554.2016-.18.0103-.367.0579-.415.1055-.047.0478-.18.087-.295.087-.114 0-.36.0791-.547.1758-.1862.0964-.3834.148-.4381.114s-.0997-.004-.0997.0667c0 .0706-.0989.1285-.2199.1285-.1208 0-.4455.1092-.7217.2426-.276.1334-.5864.2425-.6899.2425-.1029 0-.1875.0546-.1875.1213s-.0825.1212-.1835.1212c-.1941 0-.6797.241-.7934.3935-.0372.0497-.2107.1022-.3856.1167-.1746.0146-.2913.0695-.2587.1219.0326.0525-.0806.0955-.2512.0955s-.3104.0413-.3104.0916c0 .144-.7589.4435-1.061.4186-.1501-.0124-.2729.0316-.2729.0974 0 .066-.0844.12-.1871.12-.1894 0-.3683.1213-.7798.5284-.1248.1237-.2803.1922-.345.1522-.0649-.04-.1514.0143-.1921.121-.0426.1103-.1523.164-.2552.1243-.0997-.0382-.1811-.0167-.1811.0482 0 .0645-.0792.1173-.1757.1173-.0967 0-.2196.0709-.273.1577-.0533.0866-.3576.308-.6764.492-.3185.184-.6456.4405-.7262.5699-.0811.1298-.2312.2356-.3339.2356-.1024 0-.2652.1091-.3614.2425s-.2991.2426-.4511.2426c-.1522 0-.2765.0412-.2765.0915 0 .0506-.1641.1643-.3643.2531-.2008.0889-.339.2029-.3075.2538.0316.0509-.0773.1646-.242.2525-.1641.0882-.2988.2056-.2988.2611 0 .0551-.0835.1006-.186.1006-.1018 0-.2217.0955-.2662.2122-.1027.2689-.9588 1.072-1.397 1.3103-.1835.0997-.3336.238-.3336.3068s-.0447.0976-.0997.0637c-.0962-.0595-.4277.251-.4759.4459-.0132.0525-.2571.2768-.5427.4987-.2854.2216-.505.4654-.4883.5411.0164.076-.0607.138-.172.138-.111 0-.17.0318-.1312.0706.0747.0749-.0092.1894-.6944.9483-.2353.2605-.4274.5066-.4274.5475 0 .0407-.1218.1278-.2709.1935-.1487.0658-.3311.2428-.4055.3935-.0741.1503-.3207.4778-.5479.7273-.2269.2495-.4196.4948-.4279.5449-.0084.0501-.0218.1762-.0305.2802-.0083.1041-.0695.1553-.1363.114-.0666-.0412-.124.0237-.1272.1445-.0032.1204-.2204.4376-.4826.7044-.2625.2668-.5393.6351-.6153.8187-.076.1832-.1797.3333-.2306.3333-.051 0-.1256.0957-.166.2124-.0402.1166-.1836.3759-.3186.5758-.135.2003-.2783.4595-.3185.5762-.0404.1167-.125.2121-.1878.2121-.0631 0-.0833.0501-.0458.111.0377.0609.0108.1301-.0598.1536-.1103.0366-.1908.2544-.2275.6147-.0051.0498-.0913.0908-.1913.0908-.1571 0-.232.3527-.1717.8049.0059.0429-.035.111-.0908.1517-.1611.1178-.4045.5994-.4045.8004 0 .1008-.0544.1832-.1212.1832-.0666 0-.1213.1116-.1213.2477s-.1092.3649-.2425.508c-.1334.143-.2426.3592-.2426.4799s-.0544.2196-.1212.2196c-.0666 0-.1213.1364-.1213.3032s-.0544.3031-.1213.3031c-.0665 0-.1212.1399-.1212.3105 0 .2137-.0469.2832-.1515.2228-.0835-.0479-.1137-.0447-.0671.0068.0738.0822-.0512.5147-.388 1.3396-.1922.4707-.2792.7303-.3248.9674-.025.1323-.0989.2932-.1633.3579-.1528.1528-.153.3479-.0002.2535.0644-.0398.0132.1598-.114.4441-.1671.373-.1957.5598-.103.6719.0709.0851.079.1549.0176.1549-.0612 0-.1251.2048-.1418.4546-.017.2501-.0827.5064-.1461.57-.0638.0636-.1156.3772-.1156.6974 0 .3201-.0452.5821-.1005.5821-.0552 0-.1129.3139-.128.6974-.0151.3834-.0792.7154-.142.7375-.0631.0224-.1145.4148-.1145.8721s-.0461.8601-.1024.8949c-.2997.1851-.1296 4.8016.1768 4.8016.0924 0 .1681.1.1681.222 0 .1221.1364.2951.3032.3843s.3031.2078.3031.2633c0 .055 16.6439.1005 36.9856.1005 24.577 0 36.986-.0407 36.986-.1213 0-.0665.097-.1212.216-.1212s.295-.1092.391-.2426c.096-.1333.244-.2425.33-.2425.085 0 .155-.0682.155-.1514.001-.0836.074-.2911.163-.4616.174-.3329.214-2.5671.049-2.7318-.05-.0501-.091-.6518-.091-1.3368 0-.6999-.053-1.2787-.121-1.321-.067-.0413-.121-.3991-.121-.7955 0-.3991-.054-.7204-.122-.7204-.066 0-.121-.2694-.121-.599s-.054-.633-.121-.6742c-.067-.0413-.121-.314-.121-.6064 0-.2921-.055-.5651-.122-.6063-.066-.0412-.121-.2355-.121-.4317s-.054-.3565-.121-.3565-.122-.1604-.122-.3565c0-.1962-.054-.3905-.121-.4317-.066-.0413-.121-.3948-.121-.7853 0-.3908-.043-.7284-.096-.7508-.053-.0221-.186-.3131-.295-.6467-.278-.8422-.507-1.4439-.579-1.5159-.058-.0582-.121-.2665-.17-.5637-.012-.0765-.088-.218-.168-.3142-.08-.0965-.109-.211-.065-.2549.044-.044.016-.0798-.062-.0798s-.143-.0954-.146-.2121c-.001-.1167-.081-.3161-.177-.4425s-.146-.2765-.111-.3333c.035-.0571.015-.1035-.045-.1035s-.181-.2172-.268-.4832c-.088-.266-.26-.5745-.384-.6858-.122-.1113-.223-.2859-.223-.388 0-.1022-.118-.3116-.263-.4654-.144-.1536-.271-.3757-.28-.4929-.026-.3053-.435-1.1227-.563-1.1227-.059 0-.107-.1091-.107-.2425s-.041-.2425-.091-.2425c-.051 0-.165-.1639-.254-.3644-.088-.2007-.211-.3338-.272-.2961s-.11-.0402-.11-.1728c0-.1352-.107-.2756-.243-.3188-.133-.0423-.243-.1476-.243-.2341s-.162-.342-.361-.5681c-.199-.2258-.363-.4514-.364-.5012-.001-.0501-.111-.2002-.245-.3336-.133-.1334-.242-.3258-.242-.4277 0-.1956-.932-1.1889-1.223-1.3043-.095-.0374-.109-.0722-.031-.0773.078-.0054-.345-.4937-.939-1.0852-.595-.5919-1.081-1.1127-1.081-1.1576 0-.1252-.58-.6772-.711-.6772-.065 0-.254-.1637-.423-.3638-.168-.2001-.352-.3638-.408-.3638-.057 0-.181-.1092-.277-.2426-.097-.1334-.222-.2425-.279-.2425-.137 0-1.055-.958-1.055-1.1014 0-.0612-.092-.1113-.204-.1113s-.356-.1773-.542-.3941c-.284-.3304-.358-.3647-.461-.2122-.068.1001-.124.1228-.125.051-.001-.0722-.151-.2086-.334-.3032-.182-.0949-.478-.3111-.658-.4811-.181-.1698-.482-.3878-.67-.4842-.187-.0964-.429-.2713-.537-.3884-.108-.1173-.258-.2131-.334-.2131-.075 0-.137-.0421-.137-.0937 0-.1155-.859-.5848-.994-.5429-.053.0166-.097-.0188-.097-.0792 0-.06-.166-.1673-.37-.2379-.202-.071-.525-.2398-.715-.3757-.191-.1358-.503-.2482-.693-.2498-.189-.0015-.481-.1094-.648-.2397-.167-.1304-.398-.2383-.515-.2399-.117-.0015-.212-.0485-.212-.1045 0-.0561-.232-.1753-.516-.2653-.283-.0898-.66-.2622-.837-.3832s-.477-.2241-.667-.2295c-.19-.0052-.274-.0379-.187-.0728.087-.0348-.404-.2498-1.091-.4775-.687-.2276-1.359-.468-1.492-.5344-.134-.0664-.393-.1322-.576-.1459-.184-.0139-.334-.0724-.334-.1303 0-.0576-.068-.081-.151-.0516-.084.0294-.278.0067-.433-.0506-.154-.057-.698-.1343-1.209-.1716-.51-.0373-.984-.114-1.053-.1701-.069-.056-.425-.1327-.792-.1703-1.472-.1513-2.376-.2835-2.597-.3802-.182-.0797-.209-.0649-.128.0707.083.137.068.1436-.071.033-.207-.1652-6.937-.2034-7.104-.0403z" fill="#54cccb"/><path d="m84.3816 55.9674c-.2005.2277-.0345.2225.2705-.0085.1655-.1252.1838-.1764.0607-.1734-.0962.0027-.245.0846-.3312.1819z" fill="#54d0a4"/></g></svg>