<svg fill="none" height="200" viewBox="0 0 200 200" width="200" xmlns="http://www.w3.org/2000/svg" xmlns:xlink="http://www.w3.org/1999/xlink"><filter id="a" color-interpolation-filters="sRGB" filterUnits="userSpaceOnUse" height="73.0582" width="68.7231" x="65.5752" y="56.0871"><feFlood flood-opacity="0" result="BackgroundImageFix"/><feBlend in="SourceGraphic" in2="BackgroundImageFix" mode="normal" result="shape"/><feGaussianBlur result="effect1_foregroundBlur_8_1656" stdDeviation="5.44009"/></filter><linearGradient id="b" gradientUnits="userSpaceOnUse" x1="93.7372" x2="98.4037" y1="132.118" y2="107.366"><stop offset=".19" stop-color="#d8a573"/><stop offset="1" stop-color="#dfab77"/></linearGradient><radialGradient id="c" cx="0" cy="0" gradientTransform="matrix(28.4425 0 0 24.5381 66.9868 70.2377)" gradientUnits="userSpaceOnUse" r="1"><stop offset="0" stop-color="#e443e2"/><stop offset="1" stop-color="#c631c3"/></radialGradient><path d="m100 181c44.735 0 81-36.265 81-81 0-44.7351-36.265-81-81-81-44.7351 0-81 36.2649-81 81 0 44.735 36.2649 81 81 81z" fill="#461d92" stroke="#d6a473" stroke-width="6"/><path d="m74.4542 87.2169c1.6303-11.412 7.5692-17.118 17.8167-17.118 10.2471 0 15.6041 5.706 16.0701 17.118 4.277 1.4213 6.646 3.8633 7.109 7.326.674 5.0469-4.563 7.3661-10.78 6.7851-5.7396-.535-15.6123-.596-15.6123-.596.046 7.589-2.2599 11.384-6.9179 11.384-4.6579 0-7.2198-4.039-7.6856-12.116-5.0986.611-7.6479-.7179-7.6479-3.9878 0-4.9049.661-8.7953 7.6479-8.7953z" fill="#461d92"/><path d="m84.2212 133.479h19.5788s2.329-11.159 6.986-33.479h-33.8863z" fill="url(#b)"/><path d="m74.4542 87.2169c1.6303-11.412 7.5692-17.118 17.8167-17.118 10.2471 0 15.6041 5.706 16.0701 17.118 4.277 1.4213 6.646 3.8633 7.109 7.326.674 5.0469-4.563 7.3661-10.78 6.7851-5.7396-.535-15.6123-.596-15.6123-.596.046 7.589-2.2599 11.384-6.9179 11.384-4.6579 0-7.2198-4.039-7.6856-12.116-5.0986.611-7.6479-.7179-7.6479-3.9878 0-4.9049.661-8.7953 7.6479-8.7953z" fill="url(#c)"/><g filter="url(#a)"><path d="m117.483 79.7683c2.932-.5497 3.939-5.4968 1.451-8.2391-5.035-5.5477-14.308-5.9306-24.913-1.7198-10.0329 3.9837-15.3251 9.7033-17.3201 21.3257-1.9951 11.6219 8.6146 22.4819 15.6534 24.5829 7.0388 2.102 12.0117 2.452 15.0227 2.522 3.012.07 8.55.268 12.346-3.78 5.499-5.862 4.599-20.4541-.97-26.2492-1.78-1.8525-5.535.6083-8.333 2.9804-2.5 2.12 5.839 6.6905.183 11.0698-3.56 2.756-13.0771-1.338-13.0771-1.338-5.5957-3.2846-4.2261-10.9435-2.3351-15.6711 1.8911-4.7275 10.0492-6.6034 13.6812-6.4914 3.632.1121 5.56 1.5797 8.611 1.0078z" fill="#491e9b"/></g></svg>