<svg fill="none" height="200" viewBox="0 0 200 200" width="200" xmlns="http://www.w3.org/2000/svg" xmlns:xlink="http://www.w3.org/1999/xlink"><linearGradient id="a" gradientUnits="userSpaceOnUse" x1="25.2131" x2="169.525" y1="57.1902" y2="139.796"><stop offset="0" stop-color="#420082"/><stop offset="1" stop-color="#643cfc"/></linearGradient><linearGradient id="b"><stop offset="0" stop-color="#5b14cd"/><stop offset="1" stop-color="#5567ff"/></linearGradient><linearGradient id="c" gradientUnits="userSpaceOnUse" x1="49.5587" x2="148.79" xlink:href="#b" y1="61.8464" y2="137.684"/><linearGradient id="d"><stop offset="0" stop-color="#733cff"/><stop offset="1" stop-color="#55a0ff"/></linearGradient><linearGradient id="e" gradientUnits="userSpaceOnUse" x1="62.3002" x2="136.555" xlink:href="#d" y1="71.5814" y2="128.336"/><linearGradient id="f" gradientUnits="userSpaceOnUse" x1="130.448" x2="82.1752" y1="87.2387" y2="113.346"><stop offset="0" stop-color="#ffa9ff"/><stop offset="1" stop-color="#77daff"/></linearGradient><linearGradient id="g" gradientUnits="userSpaceOnUse" x1="51.0214" x2="79.2319" xlink:href="#b" y1="144.322" y2="174.686"/><linearGradient id="h" gradientUnits="userSpaceOnUse" x1="95.9446" x2="148.088" xlink:href="#d" y1="173.302" y2="190.532"/><mask id="i" height="168" maskUnits="userSpaceOnUse" width="168" x="16" y="16"><path d="m100 184c46.392 0 84-37.608 84-84 0-46.3919-37.608-84-84-84-46.3919 0-84 37.6081-84 84 0 46.392 37.6081 84 84 84z" fill="#fff"/></mask><mask id="j" height="168" maskUnits="userSpaceOnUse" width="168" x="16" y="16"><path d="m184 16h-168v168h168z" fill="#fff"/></mask><mask id="k" height="58" maskUnits="userSpaceOnUse" width="101" x="50" y="72"><path d="m68.1641 100.669c0 4.442.9005 8.672 2.5267 12.519l59.1632-25.2874c-1.707-3.9412-4.18-7.4726-7.228-10.4092l24.992-5.1711 2.678 14.8176-14.814 18.2211-58.2627 24.276-26.5877-.463 2.389-17.341 15.1435-11.166z" fill="#fff"/></mask><g mask="url(#i)"><g mask="url(#j)"><path d="m187.105 12.8987h-174.2063v174.2063h174.2063z" fill="url(#a)"/><path d="m99.9361 167.428c-16.0406 0-31.5705-5.816-43.727-16.373-12.2741-10.661-20.2205-25.412-22.3776-41.54-2.3621-17.6732 2.2982-35.209 13.1241-49.3781 10.826-14.1692 26.5205-23.2714 44.1941-25.6335 2.9501-.3931 5.9472-.5947 8.9073-.5947 16.041 0 31.571 5.8162 43.727 16.3733 12.274 10.6613 20.221 25.4117 22.378 41.5397 2.362 17.6733-2.299 35.2093-13.124 49.3783-10.826 14.169-26.521 23.272-44.195 25.634-2.95.393-5.947.594-8.9069.594z" fill="url(#c)"/><path d="m100 150.622c27.588 0 49.953-22.365 49.953-49.954 0-27.5879-22.365-49.9527-49.953-49.9527-27.5884 0-49.9531 22.3648-49.9531 49.9527 0 27.589 22.3647 49.954 49.9531 49.954z" fill="url(#e)"/><path d="m117.529 60.997c3.819 0 6.915-3.0959 6.915-6.9149s-3.096-6.9149-6.915-6.9149-6.915 3.0959-6.915 6.9149 3.096 6.9149 6.915 6.9149z" fill="#fff"/><path d="m147.961 120.119c2.612 0 4.73-2.118 4.73-4.73 0-2.613-2.118-4.731-4.73-4.731-2.613 0-4.731 2.118-4.731 4.731 0 2.612 2.118 4.73 4.731 4.73z" fill="#fff"/><path d="m64.4881 75.2838c5.5114 0 9.9792-4.4678 9.9792-9.9792 0-5.5113-4.4678-9.9792-9.9792-9.9792-5.5113 0-9.9792 4.4679-9.9792 9.9792 0 5.5114 4.4679 9.9792 9.9792 9.9792z" fill="#77daff"/><path d="m100.326 132.83c17.762 0 32.162-14.399 32.162-32.161 0-17.763-14.4-32.1624-32.162-32.1624-17.7627 0-32.1621 14.3994-32.1621 32.1624 0 17.762 14.3994 32.161 32.1621 32.161z" fill="#fff"/><path d="m108.37 69.5181c-17.452.3595-31.4901 14.616-31.4901 32.1549 0 14.986 10.248 27.576 24.1181 31.147 17.452-.359 31.49-14.616 31.49-32.155 0-14.9853-10.248-27.5753-24.118-31.1469z" fill="url(#f)"/><g mask="url(#k)"><path d="m66.6386 128.338c-4.6973 0-11.7533-.148-13.44-3.763-2.4932-5.342 5.6884-12.61 10.7452-16.968 6.9149-5.961 17.5628-12.3714 30.7911-18.5404 13.2281-6.1689 24.9811-10.2043 33.9931-11.6693 6.589-1.0718 16.8-2.1033 19.293 3.2391s-4.848 12.5361-9.905 16.8941c-6.915 5.9605-17.563 12.3715-30.791 18.5405-13.2285 6.169-24.9818 10.204-33.9933 11.669-2.1303.346-4.4487.598-6.6965.598zm64.1524-44.1434c-1.438 0-3.172.1445-5.231.4805-7.433 1.2096-17.224 4.5831-28.3253 9.7608-11.0981 5.1744-19.9785 10.5101-25.6805 15.4221-5.4129 4.667-6.6393 7.836-5.9808 9.247.6586 1.411 3.8741 2.51 10.9301 1.364 7.4323-1.209 17.2234-4.583 28.3245-9.761 11.098-5.174 19.979-10.51 25.681-15.422 5.413-4.667 6.639-7.8355 5.981-9.2467-.467-.998-2.215-1.8413-5.699-1.8413z" fill="#fff"/></g><path d="m112.234 28.2773c.383.6653-17.9897 11.9918-18.655 12.3749-.6653.383-1.5154.1545-1.8984-.5074-.3831-.6653-.1546-1.5153.5073-1.8984.662-.383 19.6591-10.631 20.0421-9.9691z" fill="#fff"/><path d="m10.3586 118.984s17.593-.061 39.3524 13.443c20.1532 12.506 36.0729 20.873 62.614 16.239 25.744-4.496 65.856 6.317 78.23 13.719v53.75h-180.1964z" fill="#fff"/><path d="m8.73914 228.328h180.15986v-65.127c-13.655-7.355-52.04-17.347-76.957-12.996-.733.128-1.455.245-2.171.353-.081.023-.161.043-.242.067-25.8451 7.617-42.6115 1.109-64.0516-9.028-16.6354-7.866-30.3408-9.019-36.7349-9.045v95.773z" fill="url(#g)"/><path d="m189.396 132.182s-35.831-6.982-72.058 14.058c-32.3538 18.789-57.0834 36.567-132.371 32.128v32.834h204.429z" fill="#fff"/><path d="m189.396 132.182s-.769-.148-2.19-.339c-10.924-.061-38.987 1.871-65.688 20.929-30.4521 21.736-53.411 41.751-128.78253 44.379v14.051h196.66053z" fill="url(#h)"/><g fill="#fff"><path d="m77.0446 40.6086c1.2544 0 2.2713-1.0169 2.2713-2.2713 0-1.2545-1.0169-2.2714-2.2713-2.2714-1.2545 0-2.2714 1.0169-2.2714 2.2714 0 1.2544 1.0169 2.2713 2.2714 2.2713z"/><path d="m50.1343 103.266c1.2544 0 2.2713-1.017 2.2713-2.271 0-1.2549-1.0169-2.2719-2.2713-2.2719-1.2545 0-2.2714 1.017-2.2714 2.2719 0 1.254 1.0169 2.271 2.2714 2.271z"/><path d="m158.172 95.0809c.545 0 .988-.4423.988-.9878 0-.5456-.443-.9879-.988-.9879-.546 0-.988.4423-.988.9879 0 .5455.442.9878.988.9878z"/><path d="m44.2039 86.3382c.5456 0 .9878-.4422.9878-.9878s-.4422-.9879-.9878-.9879-.9878.4423-.9878.9879.4422.9878.9878.9878z"/><path d="m160.453 50.2653c.383.6653-17.989 11.9919-18.655 12.3749-.665.3831-1.515.1546-1.898-.5073-.383-.6653-.154-1.5154.507-1.8984.666-.3831 19.66-10.6311 20.043-9.9692z"/></g></g></g></svg>