<svg fill="none" height="200" viewBox="0 0 200 200" width="200" xmlns="http://www.w3.org/2000/svg"><path d="m100 184c46.392 0 84-37.608 84-84 0-46.3919-37.608-84-84-84-46.3919 0-84 37.6081-84 84 0 46.392 37.6081 84 84 84z" fill="#665aa6"/><path d="m73.4263 137.804c-3.2995-2.432-5.9801-5.587-7.8301-9.216-1.8497-3.628-2.8184-7.632-2.8292-11.693-.2103-11.41-.0282-22.8283-.0151-34.2439.0064-5.3861 2.8678-9.1322 7.1188-12.011 9.0472-6.134 24.904-6.0631 33.8983.1172 4.765 3.271 7.313 7.6857 7.155 13.5476-.086 3.2151-.015 6.4347-.015 9.7887h-22.3583v-14.5277h-8.9897v2.6047 30.1194c0 12.965 6.2462 21.707 18.6275 25.971 8.2925 2.865 17.2645 3.219 25.7625 1.016.711-.176 1.418-.367 2.132-.525.134-.03.297.069.689.175-3.473 3.22-7.714 5.522-12.33 6.692-4.393 1.223-8.932 1.857-13.496 1.885-9.8142 0-19.0202-3.176-27.5197-9.7zm22.1125-10.925c-2.2519-1.432-4.0844-3.421-5.3138-5.77-1.2295-2.348-1.8128-4.972-1.6938-7.611.0796-3.224.0151-6.448.0151-9.844h22.3147v14.495h9.031v-2.523c0-10.203-.193-20.4085.05-30.6044.292-12.0809-5.737-19.8966-16.362-24.5905-9.1127-4.0287-18.6276-4.2824-28.255-1.9344-.7748.1892-1.5519.3632-3.0455.7117 3.1564-3.0889 7.0342-5.366 11.293-6.6307 15.3713-4.7024 29.6145-2.4145 42.4105 7.3161 3.31 2.4182 6.002 5.5655 7.861 9.1913 1.858 3.6257 2.832 7.6295 2.843 11.6918.211 11.4922.023 22.9901 0 34.4871-.01 5.303-2.894 8.958-7.046 11.8-4.487 3.071-10.668 4.598-16.859 4.599-6.34.001-12.69-1.597-17.2432-4.784z" fill="#fff"/></svg>