<svg fill="none" height="200" viewBox="0 0 200 200" width="200" xmlns="http://www.w3.org/2000/svg"><path d="m171.373 142.502v-85l-70.928-42.4983-70.9282 42.4983v85l70.9282 42.498z" fill="#02e296"/><path d="m100.457 15.0036-70.9402 42.4984v85l70.9402 42.438v-166.0764z" fill="#0fce89"/><g fill="#fff"><path d="m75.3999 46.1313-30.6675 30.9574 18.9861 19.6702 32.2151 4.0301-28.0803-31.5069 31.985 27.5665-4.4724-32.0329z"/><path d="m125.313 156.684 30.668-30.958-18.986-19.67-32.215-4.03 28.08 31.507-31.985-27.567 4.473 32.033z"/><path d="m45.0823 126.363 30.9543 30.67 19.6702-18.989 4.0333-32.215-31.5101 28.08 27.5664-31.985-32.0328 4.473z"/><path d="m155.631 76.4522-30.953-30.6705-19.671 18.989-4.033 32.2121 31.51-28.0772-27.566 31.9854 32.032-4.4727z"/></g></svg>