<svg fill="none" height="200" viewBox="0 0 200 200" width="200" xmlns="http://www.w3.org/2000/svg"><path d="m167.119 102.534c0 38.661-34.161 64.084-60.11 67.938-2.562.383-4.453.455-5.219.479-28.2952.886-71.5285-24.465-71.5285-68.417-.024-36.9611 30.5458-68.4166 68.4168-68.4166 37.7987 0 68.4407 30.6415 68.4407 68.4166z" fill="#f0a841"/><path d="m168.675 98.4407c0 38.6613-34.161 64.0843-60.11 67.9383-2.562.383-4.453.455-5.219.478-28.2714.886-71.4807-24.465-71.5047-68.4163-.0239-36.9613 30.5219-68.4407 68.4167-68.4407 37.775 0 68.417 30.6415 68.417 68.4407z" fill="#fed62e"/><path d="m149.38 96.7889c.527 21.6641-15.249 40.5761-34.136 45.8191-28.6548 7.947-62.935-16.015-62.6956-45.8191.2154-23.4599 21.7842-45.9622 48.4036-45.9622 25.687.0239 47.83 20.9702 48.428 45.9622z" fill="#f0a841"/><path d="m116.537 63.3465c.598 1.6278 2.346 2.2502 3.638 3.2317 9.695 7.5168 16.949 16.5896 21.88 27.2423 1.245 2.705 1.82 5.6256 3.352 8.2345.024-.024.071-.048.095-.048.048-.023.048-.047.048-.071.144-.192 10.629-9.7673 16.518-22.5984 1.221-2.6572 3.687-8.1392 4.548-15.6559 1.221-10.6049-2.01-14.0521-1.723-21.7842.024-.407.072-1.4364-.575-2.3221-1.46-2.0587-5.41-1.6757-8.57-1.1491-9.48 1.6039-18.672 3.1599-28.032 11.1076-2.992 2.5614-7.421 6.9901-11.179 13.8126z" fill="#373636"/><path d="m80.3174 64.7589c-.5985 1.6278-2.346 2.2502-3.6387 3.2317-9.6952 7.5167-16.9486 16.5895-21.88 27.2422-1.2448 2.7051-1.8193 5.6252-3.3514 8.2352-.0239-.024-.0718-.048-.0957-.048-.0479-.024-.0479-.048-.0479-.072-.1436-.191-10.6288-9.767-16.5177-22.5981-1.2209-2.6572-3.6866-8.1391-4.5484-15.6559-1.2208-10.6048 2.0109-14.052 1.7236-21.7842-.0239-.407-.0718-1.4363.5746-2.3221 1.4602-2.0587 5.4101-1.6757 8.57-1.149 9.4797 1.6039 18.6722 3.1599 28.0322 11.1075 2.9924 2.5854 7.4449 6.9901 11.1794 13.8127z" fill="#373636"/><path d="m78.1868 67.847c-.4788 1.3884-1.8433 1.9151-2.8487 2.7529-7.6364 6.3917-13.3578 14.1238-17.2359 23.1966-.9814 2.2981-1.4363 4.7877-2.6332 7.0145-.0479-.024-.1197-.072-.1197-.096-.5027-3.8783-2.7529-6.8227-5.0271-9.9108-4.6681-6.3438-6.7507-13.7887-8.2589-21.3533-1.3166-6.5592-1.7714-13.1903-1.939-19.8691-.0479-2.1306.5266-2.5615 2.6333-2.1306 14.1477 2.9205 25.9734 9.6952 35.4292 20.3958z" fill="#fed62e"/><path d="m122.114 66.9134c.455 1.3884 1.844 1.9151 2.849 2.7769 7.589 6.4395 13.262 14.1956 17.092 23.2923.982 2.3221 1.413 4.7878 2.586 7.0141.047-.024.119-.0719.119-.0958.527-3.8781 2.777-6.7986 5.075-9.8867 4.692-6.3198 6.823-13.7408 8.379-21.3054 1.364-6.5353 1.867-13.1902 2.059-19.8452.071-2.1305-.503-2.5854-2.634-2.1545-14.147 2.8487-25.997 9.5516-35.525 20.2043z" fill="#fed62e"/><path d="m120.391 70.3607c.431 1.2208 1.723 1.6757 2.657 2.4178 7.086 5.6016 12.4 12.3284 16.015 20.2521.909 2.0109 1.34 4.1893 2.442 6.1283.047-.0239.119-.0479.119-.0957.479-3.3754 2.562-5.9608 4.668-8.6658 4.333-5.5538 6.272-12.0412 7.685-18.6483 1.22-5.7213 1.651-11.5384 1.819-17.3555.048-1.8673-.479-2.2503-2.442-1.8672-13.214 2.5614-24.178 8.4982-32.963 17.8343z" fill="#fff"/><path d="m80.5567 71.8927c-.4309 1.2208-1.7236 1.6757-2.6572 2.4178-7.0859 5.6016-12.4002 12.3284-16.015 20.2521-.9097 2.0108-1.3406 4.1893-2.4417 6.1284-.0479-.024-.1197-.048-.1197-.096-.4788-3.3752-2.5615-5.9606-4.6681-8.6657-4.3329-5.5537-6.2719-12.0411-7.6843-18.6482-1.2209-5.7213-1.6518-11.5384-1.8193-17.3555-.0479-1.8673.4787-2.2503 2.4417-1.8673 13.2142 2.5375 24.202 8.4743 32.9636 17.8344z" fill="#fff"/><path d="m99.7553 146.414c26.7327 0 48.4037-20.578 48.4037-45.962 0-25.3847-21.671-45.9627-48.4037-45.9627-26.7328 0-48.404 20.578-48.404 45.9627 0 25.384 21.6712 45.962 48.404 45.962z" fill="#373636"/><path d="m73.3032 126.138c9.4794 0 17.164-7.685 17.164-17.164 0-9.4798-7.6846-17.1644-17.164-17.1644s-17.164 7.6846-17.164 17.1644c0 9.479 7.6846 17.164 17.164 17.164z" fill="#fed62e"/><path d="m73.7102 121.35c7.5095 0 13.5972-6.088 13.5972-13.597 0-7.51-6.0877-13.5972-13.5972-13.5972s-13.5972 6.0872-13.5972 13.5972c0 7.509 6.0877 13.597 13.5972 13.597z" fill="#373636"/><path d="m134.132 125.252c9.479 0 17.164-7.684 17.164-17.164 0-9.4793-7.685-17.1639-17.164-17.1639-9.48 0-17.164 7.6846-17.164 17.1639 0 9.48 7.684 17.164 17.164 17.164z" fill="#fed62e"/><path d="m134.538 120.464c7.51 0 13.598-6.087 13.598-13.597 0-7.5093-6.088-13.597-13.598-13.597-7.509 0-13.597 6.0877-13.597 13.597 0 7.51 6.088 13.597 13.597 13.597z" fill="#373636"/><path d="m138.153 104.569c2.248 0 4.07-1.822 4.07-4.069 0-2.2481-1.822-4.0701-4.07-4.0701-2.247 0-4.069 1.822-4.069 4.0701 0 2.247 1.822 4.069 4.069 4.069z" fill="#fffedf"/><path d="m128.575 117.613c.209-1.292-.668-2.509-1.96-2.719s-2.509.668-2.719 1.96c-.21 1.291.668 2.509 1.96 2.719 1.292.209 2.509-.668 2.719-1.96z" fill="#fffedf"/><path d="m97.5052 149.478c.8857 1.484 3.7108 6.2 8.8338 6.2 3.662 0 7.133-2.466 8.809-6.176.359-1.245 1.46-5.41-.694-8.618-3.95-5.865-16.1828-4.812-18.6485.144-1.556 3.088.9576 7.229 1.6997 8.45z" fill="#fa7f5b"/><path d="m125.394 132.362c.766 4.74-1.101 9.623-4.333 12.807-2.609 2.585-5.482 3.423-7.972 4.118-2.202.622-13.3814 3.734-22.0232-3.089-1.2927-1.005-6.7268-5.314-6.9901-11.897-.1437-3.543 1.2927-6.296 2.1784-7.996 3.112-5.841 6.631-5.865 9.5276-9.623 6.9183-9.001-.1915-25.8537 4.3333-32.0538.407-.5746 1.58-2.1545 3.183-2.1785 1.556-.0239 2.753 1.4603 3.184 1.987 4.884 6.0564-.502 23.5793 7.349 32.3413 2.394 2.681 5.458 3.902 8.762 9.168 1.293 2.011 2.37 3.807 2.801 6.416z" fill="#fff"/><path d="m105.118 136.455c-2.226-.502-4.046-1.723-4.166-1.819-1.6034-1.077-3.5424-2.394-3.3988-4.022.0718-.79.5985-1.388.7181-1.508.5985-.622 1.4124-.838 2.8007-1.173.192-.048.455-.119.814-.167 3.519-.647 7.373-.192 7.373-.192.766.096 1.58.216 2.442.407.67.144 1.317.311 1.891.479.694.167 1.245.646 1.436 1.293.216.742-.143 1.364-.191 1.484-.886 1.604-1.915 2.681-2.633 3.303-.862.766-1.868 1.652-3.376 1.987-.933.216-1.867.168-2.082.168-.24-.024-.838-.072-1.628-.24z" fill="#373636"/><g fill="#fffedf"><path d="m77.301 105.455c2.2476 0 4.0696-1.822 4.0696-4.07 0-2.2473-1.822-4.0693-4.0696-4.0693-2.2475 0-4.0696 1.822-4.0696 4.0693 0 2.248 1.8221 4.07 4.0696 4.07z"/><path d="m67.3426 120.488c1.3089 0 2.3699-1.061 2.3699-2.37s-1.061-2.37-2.3699-2.37-2.3699 1.061-2.3699 2.37 1.061 2.37 2.3699 2.37z"/></g></svg>