<svg fill="none" height="200" viewBox="0 0 200 200" width="200" xmlns="http://www.w3.org/2000/svg" xmlns:xlink="http://www.w3.org/1999/xlink"><radialGradient id="a" cx="0" cy="0" gradientTransform="matrix(-2.09665305 67.64161335 -67.6442121 -2.0967336 100 100)" gradientUnits="userSpaceOnUse" r="1"><stop offset=".291667" stop-color="#869cff"/><stop offset=".859375" stop-color="#080e29"/></radialGradient><radialGradient id="b" cx="0" cy="0" gradientTransform="matrix(0 60.2125 -59.4013 0 96.5378 100)" gradientUnits="userSpaceOnUse" r="1"><stop offset=".572917" stop-color="#ddf1ff"/><stop offset="1" stop-color="#84a6ff"/></radialGradient><path d="m100 184c46.392 0 84-37.608 84-84 0-46.3919-37.608-84-84-84-46.3919 0-84 37.6081-84 84 0 46.392 37.6081 84 84 84z" fill="url(#a)"/><path d="m145.94 66.6594c-1.425-2.0324-5.456-6.2419-9.528-8.6471-3.245-1.9522-6.724-2.3319-11.087-1.0663-.533-.8473-1.403-2.177-1.964-2.962-4.972-6.9921-11.103-11.5537-17.488-13.428-11.9919-3.5268-26.5995 5.6935-30.3145 15.2975-5.3169.0415-10.5679 1.1563-15.238 3.9963-11.103 6.7462-10.508 19.6815-8.8971 27.548l.7154-.2424c.6107-2.0003 1.5072-7.2021 10.8642-11.9141 0 0-5.2663 5.5516-7.0177 13.1094 10.9032-2.7714 35.5121.1123 37.0704-5.8264-1.5583-3.9504-15.2887.4246-21.6396 1.5652-7.8092 1.4034-14.6298 3.6381-20.1118 6.2958-9.5668 4.6537-14.9642 10.6187-14.0722 15.7607.773 4.45 6.2465 6.45 11.01 7.352l-.0602-.264c-7.7566-2.393-13.8163-7.982 4.2852-14.6287 15.8131-5.8038 73.5209-10.2994 73.5209-10.2994s-47.3213 10.5687-58.7835 16.0021c-9.9088 4.689-11.4237 8.607-11.7323 9.734 1.2886 4.285 3.1515 8.352 5.5348 12.084-.7088 11.408-.1585 29.972 17.9524 33.743 9.4685 1.972 20.004-5.195 20.004-5.195l2.1526-1.573c8.672-7.177 18.06-17.785 24.142-31.342 6.83-15.231 9.101-26.4295 9.552-31.7946l.62-1.1472c10.084 12.7368 10.844 25.5658 9.386 32.6658-1.118 5.448-2.578 12.959-10.02 19.613-4.23 3.8-11.652 5.602-14.874 5.723l-.485.554c5.135.546 10.957-1.879 14.277-3.911 10.571-6.521 17.491-16.781 21.036-34.049 3.801-18.6957-2.15-33.2271-8.81-42.7536zm-43.386-3.9292c-6.5592-3.0973-14.7624-6.478-25.134-6.8548l.1228-.4002c3.5386-1.1053 10.8231-2.3793 21.1181 1.6323 12.6991 4.9507 32.6861 25.1027 35.8711 29.5399-1.038-1.1312-20.239-18.3663-31.978-23.9172zm22.9 40.2328s-21.838 34.776-45.2115 36.89c-8.1289.733-15.1481-7.124-18.0055-11.186l.004-.617c2.8738 4.003 10.607 12.459 22.2099 7.872 18.4011-7.273 40.8071-30.991 40.8071-30.991l9.024-15.6338zm9.849-16.1552c-.016-.3991-.1-1.242-.155-1.6873-1.175-9.7426-4.362-19.0791-9.343-27.3724 4.484-1.1938 8.124-.887 10.641 1.2158 9.591 8.0392-1.151 27.8424-1.151 27.8424z" fill="url(#b)"/></svg>