<svg fill="none" height="200" viewBox="0 0 200 200" width="200" xmlns="http://www.w3.org/2000/svg"><path d="m100 184c46.392 0 84-37.608 84-84 0-46.3919-37.608-84-84-84-46.3919 0-84 37.6081-84 84 0 46.392 37.6081 84 84 84z" fill="#fff"/><path d="m100 184c46.392 0 84-37.608 84-84 0-46.3919-37.608-84-84-84-46.3919 0-84 37.6081-84 84 0 46.392 37.6081 84 84 84z" fill="#4c57e2"/><path clip-rule="evenodd" d="m76.9138 66.6957c0 3.974-3.2266 7.1957-7.207 7.1957s-7.207-3.2217-7.207-7.1957c0-3.9741 3.2266-7.1957 7.207-7.1957s7.207 3.2216 7.207 7.1957zm57.7282-5.9704c1.129.4791 2.128 1.2171 2.918 2.1539.656 1.0075 1.065 2.1552 1.194 3.3501.129 1.1948-.025 2.4033-.451 3.5274-.713 2.2875-1.638 4.5296-2.534 6.6654l-.652 1.5149c-.886 2.1932-1.777 4.3503-2.679 6.5344-.643 1.5573-1.292 3.1284-1.949 4.7364-.658 1.6132-1.328 3.2079-1.995 4.7963-.93 2.215-1.855 4.4177-2.738 6.6409-1.669 3.983-3.295 7.958-4.923 11.937-.563 1.378-1.127 2.756-1.693 4.136-3.393 8.192-6.76 16.36-10.16 24.605l-1.023 2.481c-.602 1.65-1.692 3.078-3.125 4.094-1.434 1.018-3.143 1.576-4.901 1.602-2.0064-.047-3.9523-.696-5.5835-1.863-.8631-.62-1.54-1.463-1.9573-2.44-.5784-1.352-1.1672-2.721-1.7619-4.104-2.2755-5.29-4.6365-10.779-6.8259-16.316l-.1471-.349c-.3118-.74-.6154-1.46-.9302-2.181-1.3752-3.232-5.1035-12.702-6.6908-16.734l-.2583-.657-.0912-.272c-.3489-.924-.7434-1.818-1.1378-2.712-.1037-.252-.2082-.504-.3127-.757-.5226-1.2624-1.0453-2.5248-1.4625-3.7874-1.5932-4.8931.8647-7.3927 2.382-8.4228 1.1578-.7917 2.5266-1.219 3.9298-1.227 1.1584.011 2.2946.3174 3.3011.89 1.0064.5727 1.8495 1.3926 2.4494 2.3821.2146.3146.4073.6436.5765.9846 1.0334 1.8998 1.8965 3.887 2.5795 5.9384.3489.8938.6826 1.8179 1.0772 2.7121.9968 2.367 2.8866 7.196 4.6093 11.598 1.1877 3.036 2.296 5.868 2.9771 7.55 1.1076 2.529 2.109 5.09 3.0346 7.68l1.7597-4.181 5.189-12.377c.464-1.198.986-2.412 1.505-3.62.229-.532.458-1.063.68-1.591.225-.54.451-1.082.677-1.624 1.953-4.6869 3.934-9.439 5.757-14.1912 1.638-4.2567 3.429-8.5438 5.158-12.6794l1.396-3.3933c-.553-.0778-1.111-.1082-1.669-.0909h-14.035-9.422c-2.4124-.0304-6.0236-.0909-7.814-3.651-.4029-.7949-.6442-1.6616-.7096-2.5501-.0655-.8885.046-1.7812.3282-2.6263.2821-.8453.7294-1.6263 1.3157-2.2979.5864-.6715 1.3001-1.2204 2.1003-1.6149 1.5299-.6364 3.1864-.9111 4.8401-.8029h34.3213c1.223-.0825 2.449.1242 3.576.6032z" fill="#fff" fill-rule="evenodd"/></svg>