<svg fill="none" height="200" viewBox="0 0 200 200" width="200" xmlns="http://www.w3.org/2000/svg" xmlns:xlink="http://www.w3.org/1999/xlink"><linearGradient id="a"><stop offset="0" stop-color="#0082fa"/><stop offset="1" stop-color="#00f2fe"/></linearGradient><linearGradient id="b" gradientUnits="userSpaceOnUse" x1="33.3333" x2="166.667" xlink:href="#a" y1="100" y2="100"/><linearGradient id="c" gradientUnits="userSpaceOnUse" x1="33.3334" x2="166.667" xlink:href="#a" y1="99.9999" y2="99.9999"/><path d="m49.4989 56.3784c.828-1.0407 1.7054-2.042 2.5827-3.0433.0393-.0497.1283-.0597.1677-.1094.079-.099.2073-.1586.286-.258l.079-.099c.6116-.5653 1.2623-1.1807 2.0126-1.7167 2.6547-2.0153 5.4097-3.5463 8.3147-4.5536 9.3177-3.2713 19.6897-1.2553 27.8233 6.4233 11.3571 10.6457 10.3401 27.7954 1.274 39.194-11.4563 16.9923-31.1443 40.7003-3.8846 61.9373 4.9013 3.819 8.5373 6.967 23.9767 11.429-10.098 1.86-19.4604 1.281-29.8817-1.38-7.3714-4.161-18.9607-13.07-22.9037-25.102-5.9593-18.246 10.492-45.5226 18.4427-56.028 10.916-14.5389-6.747-30.2779-19.751-12.707-6.7974 9.157-18.6894 35.069-14.5567 54.29 2.4163 10.9 5.637 18.845 18.407 29.759-2.368-1.398-4.6677-2.983-6.8983-4.756-29.6704-27.638-26.2281-70.3716-5.4904-93.2796z" fill="url(#b)"/><path d="m150.501 143.622c-.828 1.04-1.705 2.042-2.583 3.043-.039.05-.128.06-.167.109-.079.099-.208.159-.286.258l-.079.099c-.612.566-1.263 1.181-2.013 1.717-2.655 2.015-5.41 3.546-8.315 4.554-9.317 3.271-19.689 1.255-27.823-6.424-11.357-10.645-10.34-27.795-1.274-39.194 11.456-16.9924 31.144-40.7001 3.885-61.9374-4.902-3.8187-8.538-6.967-23.9766-11.4287 10.0973-1.8601 19.4596-1.2815 29.8806 1.3804 7.372 4.1606 18.961 13.0693 22.904 25.1016 5.96 18.246-10.492 45.5231-18.442 56.0281-10.916 14.539 6.747 30.278 19.751 12.707 6.797-9.157 18.689-35.0694 14.556-54.2901-2.416-10.8996-5.637-18.8446-18.407-29.7586 2.368 1.3973 4.668 2.9823 6.899 4.7556 29.67 27.638 26.228 70.3721 5.49 93.2801z" fill="url(#c)"/></svg>