<svg fill="none" height="200" viewBox="0 0 200 200" width="200" xmlns="http://www.w3.org/2000/svg" xmlns:xlink="http://www.w3.org/1999/xlink"><radialGradient id="a" cx="99.9743" cy="99.9999" gradientUnits="userSpaceOnUse" r="80.7814"><stop offset="0" stop-color="#56c1fc"/><stop offset="1" stop-color="#3a8cfc"/></radialGradient><radialGradient id="b" cx="99.9743" cy="140.391" gradientUnits="userSpaceOnUse" r="63.8622"><stop offset="0" stop-color="#5577e5"/><stop offset="1" stop-color="#3f3ee5"/></radialGradient><linearGradient id="c" gradientUnits="userSpaceOnUse" x1="115.553" x2="84.0866" y1="77.3211" y2="123.128"><stop offset="0" stop-color="#30a4e4"/><stop offset="1" stop-color="#9dd0e4"/></linearGradient><linearGradient id="d" gradientUnits="userSpaceOnUse" x1="114.324" x2="85.3415" y1="79.1124" y2="121.302"><stop offset="0" stop-color="#85d0e4"/><stop offset="1" stop-color="#bbd0e4"/></linearGradient><linearGradient id="e" gradientUnits="userSpaceOnUse" x1="89.9302" x2="110.218" y1="114.621" y2="85.0875"><stop offset="0" stop-color="#87d0e5"/><stop offset=".3" stop-color="#6ecae1"/><stop offset=".95" stop-color="#2dbbd6"/><stop offset="1" stop-color="#28bad5"/></linearGradient><linearGradient id="f"><stop offset="0" stop-color="#fff" stop-opacity="0"/><stop offset=".22" stop-color="#fff" stop-opacity=".24"/><stop offset=".6" stop-color="#fff" stop-opacity=".64"/><stop offset=".87" stop-color="#fff" stop-opacity=".9"/><stop offset="1" stop-color="#fff"/></linearGradient><linearGradient id="g" gradientUnits="userSpaceOnUse" x1="104.065" x2="115.734" xlink:href="#f" y1="86.1613" y2="78.7427"/><linearGradient id="h" gradientUnits="userSpaceOnUse" x1="2450.97" x2="2395.75" xlink:href="#f" y1="9470.84" y2="9716.31"/><linearGradient id="i" gradientUnits="userSpaceOnUse" x1="6237.93" x2="4688.72" xlink:href="#f" y1="1009.4" y2="330.381"/><linearGradient id="j" gradientUnits="userSpaceOnUse" x1="20481" x2="15535.3" xlink:href="#f" y1="3153.68" y2="693.617"/><mask id="k" height="186" maskUnits="userSpaceOnUse" width="186" x="7" y="7"><path d="m193 7h-186v186h186z" fill="#fff"/></mask><mask id="l" height="170" maskUnits="userSpaceOnUse" width="187" x="6" y="15"><path d="m193 15.9897h-186.05103v168.0213h186.05103z" fill="#fff"/></mask><g mask="url(#k)"><g mask="url(#l)"><path d="m99.9745 184.01c46.3975 0 84.0105-37.612 84.0105-84.0101 0-46.3977-37.613-84.0104-84.0105-84.0104-46.3977 0-84.0104 37.6127-84.0104 84.0104 0 46.3981 37.6127 84.0101 84.0104 84.0101z" fill="#390176"/><path d="m99.9743 180.781c44.6147 0 80.7817-36.167 80.7817-80.7811 0-44.6142-36.167-80.7814-80.7817-80.7814-44.6144 0-80.7814 36.1672-80.7814 80.7814 0 44.6141 36.167 80.7811 80.7814 80.7811z" fill="url(#a)"/><path d="m19.1929 100c0 44.614 36.1677 80.781 80.7814 80.781s80.7817-36.167 80.7817-80.781z" fill="url(#b)"/><path d="m179.982 88.8196c-.366 2.7526-.871 5.5233-1.508 8.2942-1.335-3.0297-3.55-5.5879-6.357-7.3421-2.808-1.7542-6.078-2.6233-9.386-2.4943-3.308.1291-6.501 1.25-9.163 3.2176-2.663 1.9674-4.672 4.6902-5.767 7.8146-1.094 3.1244-1.223 6.5054-.371 9.7044.853 3.199 2.648 6.068 5.152 8.233s5.602 3.527 8.891 3.908c3.288.382 6.615-.235 9.549-1.77-9.8 30.246-40.377 53.044-71.107 53.044-30.78 0-60.8982-22.8-71.1685-53.218 2.9274 1.613 6.2759 2.299 9.6021 1.967 3.3259-.332 6.4725-1.667 9.0231-3.828 2.5502-2.16 4.3842-5.045 5.2584-8.271.8744-3.226.7482-6.642-.3622-9.7948-1.1102-3.1529-3.1523-5.8939-5.8553-7.8603-2.7031-1.9663-5.9397-3.0651-9.2812-3.1509-3.3415-.0855-6.6302.8459-9.4304 2.671-2.8003 1.8253-4.98 4.4582-6.2505 7.5499-.647-2.7565-1.1626-5.513-1.5426-8.2511-.4753 3.566-.7141 7.1596-.7148 10.757 0 44.6142 36.1677 80.7812 80.7814 80.7812 44.6135 0 80.7815-36.167 80.7815-80.7812-.002-3.74-.26-7.4755-.774-11.1802z" fill="#b2a8c1" opacity=".6"/><path d="m15.6234 110.206c-2.3005 0-4.5068-.914-6.13357-2.54-1.62672-1.627-2.54061-3.833-2.54061-6.134 0-2.3006.91389-4.5068 2.54061-6.1336 1.62677-1.6268 3.83307-2.5405 6.13357-2.5405h168.7026c1.139 0 2.267.2244 3.32.6603 1.052.4359 2.008 1.0749 2.814 1.8802.805.8057 1.444 1.7617 1.88 2.8142.436 1.0523.66 2.1804.66 3.3194s-.224 2.267-.66 3.32c-.436 1.052-1.075 2.008-1.88 2.814-.806.805-1.762 1.444-2.814 1.88-1.053.436-2.181.66-3.32.66z" fill="#390176"/><path d="m185.464 94.8994h-170.9767c-3.0357 0-5.49658 2.461-5.49658 5.4966v2.272c0 3.036 2.46088 5.496 5.49658 5.496h170.9767c3.036 0 5.496-2.46 5.496-5.496v-2.272c0-3.0356-2.46-5.4966-5.496-5.4966z" fill="#455399"/><path d="m9.00293 101.362h181.94707c-.043-1.7289-.759-3.3722-1.997-4.5793-1.238-1.2074-2.898-1.8833-4.627-1.8833h-168.7029c-1.7282.0012-3.3877.6775-4.6244 1.8847-1.23675 1.2071-1.95291 2.8497-1.99577 4.5779z" fill="#fff"/><path d="m99.3312 151.942c25.1708 0 45.5748-20.404 45.5748-45.575 0-25.1701-20.404-45.5748-45.5748-45.5748-25.1704 0-45.5751 20.4047-45.5751 45.5748 0 25.171 20.4047 45.575 45.5751 45.575z" fill="#b2a8c1" opacity=".6"/><path d="m99.9745 145.575c25.1705 0 45.5755-20.405 45.5755-45.5751 0-25.1704-20.405-45.5751-45.5755-45.5751-25.1704 0-45.5751 20.4047-45.5751 45.5751 0 25.1701 20.4047 45.5751 45.5751 45.5751z" fill="#390176"/><path d="m99.9746 144.1c24.3564 0 44.1004-19.744 44.1004-44.1002 0-24.356-19.744-44.1004-44.1004-44.1004-24.356 0-44.1003 19.7444-44.1003 44.1004 0 24.3562 19.7443 44.1002 44.1003 44.1002z" fill="#50ccc9"/><path d="m55.8743 99.9996c0 24.3544 19.7455 44.1004 44.1003 44.1004 24.3544 0 44.1004-19.746 44.1004-44.1004 0-.3388 0-.6756-.012-1.0125h-88.1764c-.0061.3369-.0123.6737-.0123 1.0125z" fill="#b2a8c1" opacity=".6"/><path d="m99.9742 138.419c21.2178 0 38.4188-17.201 38.4188-38.4192s-17.201-38.419-38.4188-38.419c-21.2182 0-38.4188 17.2008-38.4188 38.419s17.2006 38.4192 38.4188 38.4192z" fill="#390176"/><path d="m99.9746 137.225c20.5594 0 37.2254-16.666 37.2254-37.225s-16.666-37.2253-37.2254-37.2253c-20.559 0-37.2253 16.6663-37.2253 37.2253s16.6663 37.225 37.2253 37.225z" fill="#4a6899"/><path d="m99.9746 64.3603c20.2924 0 36.7814 16.2392 37.2044 36.4327 0-.265.021-.528.021-.793 0-9.8729-3.922-19.3412-10.903-26.3223-6.981-6.9812-16.45-10.903-26.3224-10.903-9.8729 0-19.3412 3.9218-26.3222 10.903-6.9813 6.9811-10.9031 16.4494-10.9031 26.3223 0 .265.0144.528.0204.793.4232-20.1935 16.9109-36.4327 37.2049-36.4327z" fill="#b2a8c1" opacity=".6"/><path d="m99.9742 129.245c16.1518 0 29.2458-13.093 29.2458-29.2451 0-16.1518-13.094-29.2455-29.2458-29.2455-16.1517 0-29.2454 13.0937-29.2454 29.2455 0 16.1521 13.0937 29.2451 29.2454 29.2451z" fill="#390176"/><path d="m99.9747 127.783c15.3443 0 27.7833-12.439 27.7833-27.7831s-12.439-27.7831-27.7833-27.7831c-15.3441 0-27.783 12.439-27.783 27.7831s12.4389 27.7831 27.783 27.7831z" fill="url(#c)"/><path d="m99.9746 125.591c14.1334 0 25.5914-11.457 25.5914-25.591 0-14.1337-11.458-25.5913-25.5914-25.5913-14.1337 0-25.5913 11.4576-25.5913 25.5913 0 14.134 11.4576 25.591 25.5913 25.591z" fill="url(#d)"/><path d="m99.9745 117.913c9.8935 0 17.9135-8.02 17.9135-17.9131s-8.02-17.9132-17.9135-17.9132c-9.8934 0-17.9132 8.0201-17.9132 17.9132s8.0198 17.9131 17.9132 17.9131z" fill="url(#e)" opacity=".16"/><path d="m111.354 93.6569c3.699 0 6.698-2.9988 6.698-6.6981s-2.999-6.6983-6.698-6.6983-6.698 2.999-6.698 6.6983 2.999 6.6981 6.698 6.6981z" fill="url(#g)"/><path d="m85.8943 118.581c1.9523 0 3.5349-1.583 3.5349-3.535 0-1.953-1.5826-3.535-3.5349-3.535s-3.5349 1.582-3.5349 3.535c0 1.952 1.5826 3.535 3.5349 3.535z" fill="url(#h)" opacity=".36"/><path d="m99.9745 74.4086c7.1775.0018 14.0755 2.7816 19.2495 7.7566 5.173 4.9753 8.22 11.7597 8.503 18.9318.014-.364.026-.729.026-1.0971 0-7.3684-2.927-14.4353-8.137-19.6456s-12.277-8.1375-19.6457-8.1375c-7.3684 0-14.4352 2.9272-19.6455 8.1375-5.2104 5.2103-8.1373 12.2772-8.1373 19.6456 0 .3681.0123.7331.0265 1.0971.2825-7.1735 3.3308-13.9593 8.506-18.9345 5.1752-4.9753 12.0756-7.7542 19.2545-7.7539z" fill="#85d0e4"/><path d="m36.71 118.028c9.1105 0 16.4961-7.385 16.4961-16.496 0-9.1105-7.3856-16.4959-16.4961-16.4959-9.1104 0-16.4959 7.3854-16.4959 16.4959 0 9.111 7.3855 16.496 16.4959 16.496z" fill="#390176"/><path d="m36.7098 115.787c7.8729 0 14.255-6.382 14.255-14.255 0-7.8725-6.3821-14.2547-14.255-14.2547-7.8727 0-14.255 6.3822-14.255 14.2547 0 7.873 6.3823 14.255 14.255 14.255z" fill="#fff"/><path d="m36.7099 111.942c-3.4461 0-6.7753-1.248-9.3716-3.514-2.5962-2.266-4.2837-5.396-4.7501-8.8101-.0864.6371-.1303 1.2791-.1314 1.9221.045 3.751 1.5666 7.333 4.2349 9.97 2.6682 2.636 6.2682 4.114 10.0191 4.114 3.751 0 7.351-1.478 10.0192-4.114 2.6684-2.637 4.1898-6.219 4.2349-9.97-.0018-.643-.0465-1.285-.1336-1.9221-.4662 3.4141-2.1537 6.5441-4.75 8.8101-2.5964 2.266-5.9255 3.514-9.3714 3.514z" fill="#b2a8c1" opacity=".6"/><path d="m163.578 118.028c9.11 0 16.496-7.385 16.496-16.496 0-9.1105-7.386-16.4959-16.496-16.4959-9.111 0-16.496 7.3854-16.496 16.4959 0 9.111 7.385 16.496 16.496 16.496z" fill="#390176"/><path d="m163.578 115.787c7.873 0 14.255-6.382 14.255-14.255 0-7.8725-6.382-14.2547-14.255-14.2547s-14.255 6.3822-14.255 14.2547c0 7.873 6.382 14.255 14.255 14.255z" fill="#fff"/><path d="m163.578 111.942c-3.446 0-6.775-1.249-9.371-3.515-2.597-2.266-4.284-5.395-4.751-8.8091-.086.6371-.13 1.2791-.131 1.9221-.006 1.957.392 3.893 1.168 5.69.775 1.796 1.912 3.413 3.34 4.751 1.427 1.337 3.115 2.367 4.958 3.024 1.842.658 3.8.929 5.753.796 1.951-.132 3.855-.665 5.592-1.564 1.738-.9 3.271-2.148 4.505-3.666s2.142-3.274 2.669-5.158c.526-1.885.659-3.857.389-5.7951-.466 3.4141-2.154 6.5441-4.75 8.8101s-5.925 3.514-9.371 3.514z" fill="#b2a8c1" opacity=".6"/><path d="m53.5262 78.4859c-1.9739-.265-5.667-1.5426-8.2161-7.1338-.7642-1.67-1.7212-1.9802-2.3745-2.0664-1.6166-.2156-3.8514.7251-6.0122 1.6433-2.4648 1.0372-4.7798 2.0151-6.8913 1.7335-.583-.0681-1.1462-.2534-1.6559-.5447-.5096-.2911-.9552-.6822-1.3101-1.1498-1.2653-1.6268-1.2324-3.5739.1027-5.4802 1.4378-2.0539 4.2908-3.9602 7.8362-5.2357 3.7651-1.3557 7.8383-1.8344 11.4718-1.3476 7.5999 1.0168 12.5441 5.9855 13.91 13.9924.1281.7674.0525 1.5552-.2192 2.2845-.2718.7291-.7303 1.3743-1.3295 1.8707-1.3557 1.1853-3.2866 1.7089-5.3035 1.4378z" fill="#b2a8c1" opacity=".6"/><path d="m53.615 76.5838c-1.974-.263-5.667-1.5406-8.2161-7.1338-.7642-1.6699-1.7214-1.9781-2.3745-2.0663-1.6145-.2157-3.8493.7271-6.0123 1.6431-2.4647 1.027-4.7797 2.0172-6.8912 1.7338-.5825-.0684-1.1452-.2535-1.6545-.5443-.5093-.2909-.9547-.6815-1.3095-1.1483-1.2653-1.6289-1.2324-3.5761.1027-5.4824 1.4378-2.0539 4.2888-3.9602 7.8342-5.2357 3.7651-1.3536 7.8401-1.8321 11.4718-1.3475 7.5999 1.0169 12.5461 5.9855 13.9121 13.9923.2648 1.5529-.3 3.0667-1.5508 4.1573-1.3557 1.1832-3.2866 1.707-5.3036 1.4378z" fill="#390176"/><path d="m46.4074 69.1174c-3.6521-7.9882-14.3166 4.6196-18.357-.5812-2.2821-2.9372 1.0742-6.6509 6.347-8.8611 8.6618-3.6295 22.4918-3.1982 24.9854 11.4184.0267.159.0425.3194.0472.4805.1704 4.5826-8.6044 7.2015-13.0226-2.4566z" fill="#7c9bd1"/><path d="m46.4074 69.1173c-3.6521-7.9882-14.3166 4.6196-18.357-.5812-2.2821-2.9374 1.0742-6.6512 6.347-8.8613-1.2631 1.2509-3.5475 4.0464.0123 5.016 5.1822 1.4131 11.0919-3.1818 13.7334 1.8362 2.8755 5.4659 4.1819 6.4928 6.1889 7.0353 1.2938.3513 3.9764-.1479 5.098-1.9884.1704 4.5826-8.6044 7.2015-13.0226-2.4566z" fill="#b2a8c1" opacity=".6"/><path d="m146.418 78.4859c1.974-.265 5.668-1.5426 8.216-7.1338.765-1.67 1.722-1.9802 2.375-2.0664 1.617-.2156 3.851.7251 6.012 1.6433 2.465 1.0372 4.78 2.0151 6.891 1.7335.583-.0683 1.146-.2539 1.656-.545s.955-.6821 1.31-1.1495c1.266-1.6268 1.233-3.5739-.102-5.4802-1.438-2.0539-4.291-3.9602-7.836-5.2357-3.765-1.3557-7.839-1.8344-11.472-1.3476-7.6 1.0168-12.546 5.9855-13.91 13.9924-.128.7674-.053 1.5552.219 2.2845.272.7291.73 1.3743 1.33 1.8707 1.355 1.1853 3.286 1.7089 5.303 1.4378z" fill="#b2a8c1" opacity=".6"/><path d="m146.334 76.5838c1.974-.263 5.667-1.5406 8.216-7.1338.765-1.6699 1.722-1.9781 2.375-2.0663 1.614-.2157 3.849.7271 6.012 1.6431 2.465 1.027 4.78 2.0172 6.892 1.7338.582-.0684 1.145-.2535 1.654-.5443.509-.2909.955-.6815 1.309-1.1483 1.266-1.6289 1.233-3.5761-.102-5.4824-1.438-2.0539-4.289-3.9602-7.836-5.2357-3.764-1.3536-7.839-1.8321-11.47-1.3475-7.6 1.0169-12.546 5.9855-13.912 13.9923-.265 1.5529.3 3.0667 1.55 4.1573 1.356 1.1832 3.287 1.707 5.304 1.4378z" fill="#390176"/><path d="m153.54 69.1175c3.654-7.9883 14.318 4.6195 18.359-.5813 2.282-2.9374-1.074-6.6511-6.347-8.8613-8.658-3.6314-22.492-3.198-24.986 11.4186-.026.1588-.042.3194-.047.4806-.172 4.5825 8.604 7.2014 13.021-2.4566z" fill="#7c9bd1"/><path d="m153.54 69.1173c3.654-7.9882 14.318 4.6196 18.359-.5812 2.282-2.9374-1.074-6.6512-6.347-8.8613 1.263 1.2509 3.547 4.0464-.013 5.016-5.182 1.4131-11.092-3.1818-13.733 1.8362-2.876 5.4659-4.182 6.4928-6.189 7.0353-1.294.3513-3.976-.1479-5.098-1.9884-.172 4.5826 8.604 7.2015 13.021-2.4566z" fill="#b2a8c1" opacity=".6"/><path d="m117.272 32.3561c2.327 0 4.213-1.6414 4.213-3.6664s-1.886-3.6665-4.213-3.6665-4.213 1.6415-4.213 3.6665 1.886 3.6664 4.213 3.6664z" fill="url(#i)"/><path d="m149.173 49.762c-1.719.4108-3.57-.3265-4.289-1.7931-5.039-10.2888-18.39-13.4664-18.519-13.4931-1.925-.4436-3.081-2.1609-2.576-3.837.505-1.676 2.465-2.6825 4.394-2.2491.686.1541 16.878 3.9336 23.344 17.1143.783 1.5961-.07 3.4426-1.904 4.1245-.147.0535-.298.0981-.45.1335z" fill="url(#j)"/></g></g></svg>