<svg fill="none" height="200" viewBox="0 0 200 200" width="200" xmlns="http://www.w3.org/2000/svg"><path d="m100 181.528c45.027 0 81.529-36.501 81.529-81.5281 0-45.0269-36.502-81.5285-81.529-81.5285-45.0268 0-81.5283 36.5016-81.5283 81.5285 0 45.0271 36.5015 81.5281 81.5283 81.5281z" fill="#fff" stroke="#d0d2d3" stroke-width="4"/><path d="m100 184c-16.6136 0-32.8541-4.926-46.6679-14.157-13.8137-9.23-24.5802-22.349-30.9379-37.698-6.3578-15.349-8.0213-32.2381-4.7801-48.5325 3.2411-16.2945 11.2414-31.2618 22.989-43.0094s26.7149-19.7479 43.0094-22.989c16.2944-3.2412 33.1835-1.5777 48.5325 4.7801 15.349 6.3577 28.468 17.1242 37.698 30.9379 9.231 13.8138 14.157 30.0543 14.157 46.6679-.026 22.27-8.885 43.621-24.632 59.368s-37.098 24.606-59.368 24.632zm0-163.0295c-15.6305 0-30.9101 4.635-43.9064 13.3188-12.9964 8.6839-23.1258 21.0267-29.1074 35.4674-5.9815 14.4408-7.5466 30.3313-4.4972 45.6613s10.5762 29.412 21.6287 40.464c11.0525 11.053 25.1342 18.58 40.4644 21.629 15.3303 3.049 31.2209 1.484 45.6609-4.497 14.441-5.982 26.784-16.111 35.468-29.107 8.684-12.997 13.319-28.276 13.319-43.907-.024-20.9526-8.358-41.0404-23.174-55.8562s-34.903-23.1497-55.856-23.1733z" fill="#d0d2d3"/><g fill="#5c67b0"><path d="m88.568 76.7086 11.561-18.321 11.8 17.7643c2.849-2.4734 4.865-5.7656 5.774-9.4273.909-3.6618.666-7.5148-.697-11.0332-1.362-3.5184-3.776-6.5308-6.914-8.6261-3.137-2.0953-6.845-3.1715-10.6168-3.0816-3.7717.0899-7.4239 1.3414-10.4581 3.5838s-5.3025 5.3664-6.4955 8.9456c-1.193 3.5793-1.2525 7.4395-.1704 11.0539 1.0821 3.6143 3.2531 6.8067 6.2168 9.1416z"/><path d="m85.0788 124.474-21.671-.258 8.9468-19.355c-3.5974-1.126-7.4545-1.115-11.0454.032-3.5908 1.146-6.7406 3.373-9.0198 6.375s-3.5768 6.635-3.7159 10.402c-.1391 3.766.8871 7.485 2.9387 10.647 2.0515 3.162 5.0286 5.615 8.5251 7.023s7.3423 1.704 11.0129.846c3.6707-.858 6.9874-2.826 9.498-5.638 2.5105-2.812 4.0927-6.33 4.5306-10.074z"/><path d="m114.414 124.782 21.661-.596-9.285-19.216c3.578-1.19 7.436-1.247 11.048-.164 3.611 1.084 6.8 3.255 9.132 6.218s3.693 6.573 3.897 10.338c.205 3.765-.758 7.501-2.755 10.699-1.998 3.198-4.934 5.702-8.407 7.169-3.473 1.468-7.314 1.829-11 1.033-3.685-.797-7.035-2.71-9.593-5.481-2.558-2.77-4.198-6.262-4.698-10z"/></g></svg>