<svg fill="none" height="200" viewBox="0 0 200 200" width="200" xmlns="http://www.w3.org/2000/svg" xmlns:xlink="http://www.w3.org/1999/xlink"><linearGradient id="a"><stop offset="0" stop-color="#009dde"/><stop offset=".5" stop-color="#694d9f"/><stop offset="1" stop-color="#ed3554"/></linearGradient><linearGradient id="b" gradientUnits="userSpaceOnUse" x1="32.9523" x2="162.429" xlink:href="#a" y1="166.815" y2="37.3388"/><linearGradient id="c" gradientUnits="userSpaceOnUse" x1="47.0788" x2="176.555" xlink:href="#a" y1="180.942" y2="51.4654"/><linearGradient id="d" gradientUnits="userSpaceOnUse" x1="84.0184" x2="213.495" xlink:href="#a" y1="217.882" y2="88.4051"/><linearGradient id="e" gradientUnits="userSpaceOnUse" x1="70.8626" x2="200.339" xlink:href="#a" y1="204.726" y2="75.2489"/><linearGradient id="f" gradientUnits="userSpaceOnUse" x1="-4.73398" x2="124.743" xlink:href="#a" y1="129.129" y2="-.347474"/><linearGradient id="g" gradientUnits="userSpaceOnUse" x1="-17.8628" x2="111.614" xlink:href="#a" y1="116" y2="-13.4763"/><linearGradient id="h" gradientUnits="userSpaceOnUse" x1="19.0744" x2="148.551" xlink:href="#a" y1="152.938" y2="23.4612"/><path d="m67.3811 137.3-38.0804 4.283 22.3602-51.5927-22.8914-31.208 55.6598-6.3412 15.1226-34.777 33.1341 45.0358 38.08-4.2828-22.261 51.3439 22.726 30.992-55.378 6.308-15.355 35.275zm15.8198-3.419c-1.4608.713-3.0212 1.311-4.6314 1.759l-1.4608.399 21.4638 29.182 7.6195-17.529-1.378-.183c-7.5031-.946-14.3257-4.996-18.7247-11.072l-2.1414-2.955zm-7.47-26.461 17.3138 23.954c3.5192 4.864 9.2133 7.769 15.2223 7.769.697 0 1.394-.033 2.075-.116l45.185-5.146-17.994-24.552c-.897-1.212-1.926-2.307-3.071-3.27l-1.063-.88-12.881 29.1-22.4103-29.664zm.747-29.1659c-6.7064.7138-12.5496 5.0132-15.2388 11.2216l-18.1438 41.8813 30.1456-3.386c1.494-.166 2.9548-.515 4.3658-1.029l1.2948-.482-18.6584-25.763 36.7856-4.6643 8.7483-20.8994zm28.4691 21.1318 13.629 18.0441 8.316-18.7745 3.652-8.2668c2.739-6.1918 1.959-13.4128-2.058-18.8576l-27.008-36.7524-12.1517 27.9212c-.5976 1.3778-1.0292 2.822-1.2948 4.316l-.2324 1.3612 31.5239-3.3366zm33.117-28.6184.531 1.2782c2.922 6.9886 2.855 14.9566-.199 21.8456l-1.477 3.32.713.4814c1.362.913 2.64 1.9754 3.818 3.1543l1.079 1.062 14.426-33.2829zm-93.5909-5.1128 11.4872 15.6704.8466-1.0956c4.565-5.9262 11.4208-9.7774 18.7746-10.5576l3.6022-.3818.0664-.8798c.1162-1.8094.4316-3.6188.913-5.3784l.415-1.494z" fill="url(#b)"/><path d="m91.9656 183c-23.904-2.307-45.3844-14.741-59.4446-34.445l9.628-1.079c1.5936 1.959 3.2868 3.835 5.0298 5.594 10.4414 10.491 23.5056 17.563 37.8314 20.485z" fill="url(#c)"/><path d="m112.018 174.086c15.505-2.507 29.598-9.761 40.803-21.016.996-1.012 2.009-2.091 3.021-3.22l11.67-1.328c-14.01 19.687-35.458 32.137-59.362 34.478z" fill="url(#d)"/><path d="m169.886 126.61c3.187-8.483 4.814-17.43 4.814-26.6101 0-8.1008-1.278-16.0688-3.785-23.6716l4.682-10.79c4.913 10.8398 7.403 22.4266 7.403 34.4616 0 12.0181-2.49 23.5891-7.387 34.4281z" fill="url(#e)"/><path d="m24.4368 134.545c-4.9302-10.873-7.4368-22.477-7.4368-34.5451 0-12.1346 2.5232-23.8044 7.5198-34.7106l5.7104 7.802c-3.2702 8.5656-4.9302 17.6126-4.9302 26.9086 0 8.1341 1.2782 16.1191 3.8014 23.7551z" fill="url(#f)"/><path d="m32.8696 50.9636c14.0436-19.3888 35.358-31.6728 59.0462-33.9636l-3.8678 8.8976c-15.521 2.49-29.6476 9.7608-40.8692 21.0322-.8466.8466-1.6932 1.7596-2.5398 2.6892z" fill="url(#g)"/><path d="m157.867 52.524c-1.593-1.9588-3.286-3.8346-5.046-5.5942-10.425-10.4746-23.472-17.5462-37.765-20.4678l-6.955-9.462c23.887 2.324 45.334 14.7574 59.378 34.445z" fill="url(#h)"/></svg>