<svg fill="none" height="200" viewBox="0 0 200 200" width="200" xmlns="http://www.w3.org/2000/svg" xmlns:xlink="http://www.w3.org/1999/xlink"><linearGradient id="a" gradientUnits="userSpaceOnUse" x1="39.7213" x2="160.279" y1="43.2789" y2="156.721"><stop offset="0" stop-color="#032963"/><stop offset=".604502" stop-color="#040d21"/></linearGradient><clipPath id="b"><path d="m0 0h200v200h-200z"/></clipPath><g clip-path="url(#b)"><path d="m43.2791 160.279c33.2912 31.326 85.6739 29.733 116.9999-3.558s29.733-85.6737-3.558-116.9999-85.6735-29.7333-116.9997 3.5578c-31.32622 33.2912-29.73331 85.6741 3.5578 117.0001z" fill="url(#a)"/><path clip-rule="evenodd" d="m54.2894 42s26.8778 15.6065 35.6514 33.3755c3.189-.8762 6.5404-1.3532 9.9577-1.3532 3.4815 0 6.8935.4949 10.1365 1.4028 8.748-17.7895 35.676-33.4251 35.676-33.4251.952 10.1409.062 34.4817-10.564 54.8419-.614-1.0548-1.207-2.0407-1.799-2.9856 3.533-7.2986 4.563-12.0032 4.65-20.9773-2.037 8.1458-3.227 12.7312-6.952 17.52-2.291-3.2321-4.955-6.3884-9.071-10.8286l.003-.1173c1.369-8.3044 3.469-13.3053 7.851-22.3898-8.566 10.0455-12.658 18.196-12.535 25.4591l-.071-.0678c.055 4.1146 1.46 7.9442 4.17 11.6709l.517-3.9062 2.337 1.4291c-.29-.8813-.581-1.6155-.854-2.3055-.295-.7462-.57-1.4406-.802-2.2132.031.0255.062.0511.092.0766-.007-.0255-.015-.0511-.023-.0766 3.359 2.7898 6.379 5.9767 11.454 11.6233l-.067.1192-.066-.0643c.242 1.3101.368 2.6411.368 3.9881 0 2.171-.328 4.891-.941 7.961.962.557 1.911 1.32 2.528 2.519-1.301.022-2.199.13-3.191.473-.035.145-.071.291-.107.438 3.523 3.402 5.121 5.815 7.42 10.331-3.615-3.008-5.902-4.867-8.481-6.406-.116.397-.236.797-.358 1.199 1.981 3.504 2.364 6.088 1.457 10.543-1.704-1.475-2.93-2.511-4.02-3.086-.8 2.098-1.673 4.21-2.611 6.297-.63.609-1.135 1.27-1.635 1.922-1.338 1.748-2.634 3.442-6.16 3.941.189 4.829-.879 6.945-2.014 9.196-.569 1.127-1.155 2.289-1.608 3.842-.895 1.045-1.808 2.017-2.737 2.907-5.746 2.876-6.046 2.733-11.412.189l-.6717-.318c-6.0171 2.846-6.4504 2.998-11.5535.456-1.2199-1.134-2.4127-2.415-3.5723-3.814-.4228-1.271-.9315-2.28-1.4274-3.262-1.1358-2.251-2.2033-4.367-2.0138-9.196-3.5262-.499-4.8226-2.193-6.1606-3.941-.3349-.438-.6725-.878-1.0483-1.305-1.0325-2.262-1.9891-4.556-2.8603-6.835-1.0975.572-2.3308 1.614-4.0504 3.102-.9101-4.469-.5214-7.055 1.477-10.577-.1211-.395-.2389-.788-.3535-1.179-2.5894 1.541-4.8787 3.403-8.5056 6.421 2.3029-4.524 3.9028-6.939 7.4396-10.351-.034-.137-.0676-.274-.1006-.41-1.0021-.35-1.9041-.459-3.2163-.482.6206-1.205 1.577-1.971 2.5456-2.528-.6252-3.105-.9589-5.856-.9589-8.047 0-1.337.1241-2.659.3628-3.9599 5.1202-5.6984 8.1539-8.9028 11.529-11.7064-.2323.7726-.5071 1.467-.8022 2.2129-.273.6901-.5635 1.4243-.8541 2.3058l2.3377-1.4294.5168 3.9065c7.4808-10.2897 5.0213-21.3613-8.3664-37.0622 4.3815 9.0845 6.4817 14.0857 7.8499 22.3898l.0042.1173c-4.1164 4.4402-6.7806 7.5965-9.0718 10.8286-3.7253-4.7888-4.9145-9.3742-6.9517-17.52.0864 8.9741 1.1175 13.6787 4.6505 20.9773-.5922.9444-1.1847 1.9303-1.7995 2.9851-10.6255-20.3602-11.5162-44.7006-10.5638-54.8414zm36.1598 75.849-3.0512-5.717-8.5636-1.524c.3736 6.053 4.4294 8.384 11.6148 7.241zm23.1318-5.717-3.052 5.717c7.186 1.143 11.241-1.188 11.615-7.241zm-19.1635 29.794c-1.3312.912-2.1529 2.164-2.1529 3.545 0 2.789 3.3493 5.049 7.4808 5.049 4.1316 0 7.4806-2.26 7.4806-5.049 0-1.453-.909-2.763-2.365-3.684-1.475.576-3.358.921-5.4108.921-1.8808 0-3.62-.29-5.0327-.782z" fill="#fff" fill-rule="evenodd"/></g></svg>