<svg fill="none" height="200" viewBox="0 0 200 200" width="200" xmlns="http://www.w3.org/2000/svg"><path d="m192.439 100.266c0 12.116-2.386 24.114-7.02 35.309-4.635 11.194-11.429 21.365-19.993 29.933s-18.731 15.364-29.921 20.001c-11.189 4.636-23.182 7.023-35.294 7.023-12.1114 0-24.1043-2.387-35.2939-7.023-11.1896-4.637-21.3567-11.433-29.9208-20.001-8.5642-8.568-15.3576-18.739-19.9925-29.933-4.6349-11.195-7.0204-23.193-7.0204-35.309 0-24.4705 9.7168-47.9387 27.0129-65.2419s40.7545-27.0241 65.2147-27.0241c24.46 0 47.919 9.7209 65.215 27.0241s27.013 40.7714 27.013 65.2419z" fill="#1e1e1e"/><g clip-rule="evenodd" fill="#ff7b7c" fill-rule="evenodd"><path d="m100.293 24.4206c-41.8273 0-75.7444 33.9846-75.7444 75.9274 0 41.942 33.9171 75.926 75.7444 75.926 41.826 0 75.743-33.984 75.743-75.926 0-41.9277-33.917-75.9274-75.743-75.9274zm-83.4248 75.9274c0-46.1956 37.3568-83.6263 83.4248-83.6263s83.425 37.4464 83.425 83.6263c0 46.195-37.358 83.626-83.425 83.626-46.068 0-83.4248-37.431-83.4248-83.626z"/><path d="m133.226 80.4225-21.044-.8775 14.301-15.5212-5.76-5.7589-15.499 14.2893-.845-21.0952h-8.126l-.8756 21.0952-15.4837-14.3355-5.7448 5.7742 14.27 15.5365-21.0595.8315v8.161l21.0441.8775-14.3009 15.5206 5.7604 5.759 15.2533-14.0732.6759 34.1832-12.1811.893v7.591l12.3655.94.2304 11.871h8.126l.246-11.856 12.488-.955v-7.591l-12.304-.893.691-34.1679 15.238 14.0889 5.745-5.759-14.255-15.5362 21.044-.8466z"/></g></svg>