<svg fill="none" height="200" viewBox="0 0 200 200" width="200" xmlns="http://www.w3.org/2000/svg" xmlns:xlink="http://www.w3.org/1999/xlink"><linearGradient id="a" gradientUnits="userSpaceOnUse" x1="50.8319" x2="187.308" y1="172.346" y2="172.346"><stop offset="0" stop-color="#808080"/><stop offset=".327" stop-color="#838383"/><stop offset=".59" stop-color="#8d8d8d"/><stop offset=".83" stop-color="#9e9e9e"/><stop offset="1" stop-color="#afafaf"/></linearGradient><linearGradient id="b" gradientUnits="userSpaceOnUse" x1="119.07" x2="119.07" y1="160.043" y2="184.675"><stop offset=".35" stop-color="#dfdfdf"/><stop offset=".645" stop-color="#ddd"/><stop offset=".752" stop-color="#d6d6d6"/><stop offset=".828" stop-color="#cbcbcb"/><stop offset=".889" stop-color="#bababa"/><stop offset=".941" stop-color="#a4a4a4"/><stop offset=".987" stop-color="#898989"/><stop offset="1" stop-color="#808080"/></linearGradient><linearGradient id="c" gradientUnits="userSpaceOnUse" x1="50.8315" x2="187.308" y1="130.911" y2="130.911"><stop offset="0" stop-color="#dfdfdf"/><stop offset=".021" stop-color="#e1e1e1"/><stop offset=".244" stop-color="#f2f2f2"/><stop offset=".487" stop-color="#fcfcfc"/><stop offset=".791" stop-color="#fff"/><stop offset=".844" stop-color="#fcfcfc"/><stop offset=".887" stop-color="#f2f2f2"/><stop offset=".926" stop-color="#e1e1e1"/><stop offset=".963" stop-color="#c9c9c9"/><stop offset=".966" stop-color="#c7c7c7"/><stop offset="1" stop-color="#fff"/></linearGradient><linearGradient id="d"><stop offset="0" stop-color="#242424"/><stop offset=".335" stop-color="#2d2d2d"/><stop offset=".791" stop-color="#303030"/><stop offset=".867" stop-color="#2d2d2d"/><stop offset=".928" stop-color="#232323"/><stop offset=".966" stop-color="#181818"/><stop offset="1" stop-color="#303030"/></linearGradient><linearGradient id="e" gradientUnits="userSpaceOnUse" x1="50.8363" x2="187.306" xlink:href="#d" y1="103.287" y2="103.287"/><linearGradient id="f" gradientUnits="userSpaceOnUse" x1="50.8232" x2="187.31" xlink:href="#d" y1="112.347" y2="112.347"/><linearGradient id="g" gradientUnits="userSpaceOnUse" x1="50.8382" x2="187.306" xlink:href="#d" y1="103.844" y2="103.844"/><linearGradient id="h" gradientUnits="userSpaceOnUse" x1="50.8384" x2="187.304" xlink:href="#d" y1="95.3265" y2="95.3265"/><linearGradient id="i" gradientUnits="userSpaceOnUse" x1="50.8386" x2="187.306" xlink:href="#d" y1="104.432" y2="104.432"/><linearGradient id="j" gradientUnits="userSpaceOnUse" x1="50.834" x2="187.306" xlink:href="#d" y1="156.388" y2="156.388"/><linearGradient id="k" gradientUnits="userSpaceOnUse" x1="50.8295" x2="187.317" xlink:href="#d" y1="155.151" y2="155.151"/><linearGradient id="l" gradientUnits="userSpaceOnUse" x1="50.8383" x2="187.293" xlink:href="#d" y1="164.81" y2="164.81"/><linearGradient id="m" gradientUnits="userSpaceOnUse" x1="50.8314" x2="187.308" xlink:href="#d" y1="163.506" y2="163.506"/><linearGradient id="n" gradientUnits="userSpaceOnUse" x1="50.834" x2="187.304" xlink:href="#d" y1="116.435" y2="116.435"/><linearGradient id="o" gradientUnits="userSpaceOnUse" x1="50.8317" x2="187.308" xlink:href="#d" y1="113.708" y2="113.708"/><linearGradient id="p" gradientUnits="userSpaceOnUse" x1="50.8317" x2="187.308" xlink:href="#d" y1="110.933" y2="110.933"/><linearGradient id="q" gradientUnits="userSpaceOnUse" x1="50.8363" x2="187.306" xlink:href="#d" y1="153.494" y2="153.494"/><linearGradient id="r" gradientUnits="userSpaceOnUse" x1="50.8229" x2="187.31" xlink:href="#d" y1="142.051" y2="142.051"/><linearGradient id="s" gradientUnits="userSpaceOnUse" x1="50.8362" x2="187.308" xlink:href="#d" y1="155.827" y2="155.827"/><linearGradient id="t" gradientUnits="userSpaceOnUse" x1="50.8382" x2="187.306" xlink:href="#d" y1="144.384" y2="144.384"/><linearGradient id="u" gradientUnits="userSpaceOnUse" x1="50.8383" x2="187.306" xlink:href="#d" y1="158.152" y2="158.152"/><linearGradient id="v" gradientUnits="userSpaceOnUse" x1="50.8382" x2="187.306" xlink:href="#d" y1="146.753" y2="146.753"/><linearGradient id="w" gradientUnits="userSpaceOnUse" x1="50.8319" x2="187.308" y1="128.618" y2="128.618"><stop offset="0" stop-color="#b41b00"/><stop offset=".021" stop-color="#b61d01"/><stop offset=".244" stop-color="#c72e0b"/><stop offset=".487" stop-color="#d13811"/><stop offset=".791" stop-color="#d43b13"/><stop offset=".841" stop-color="#d13812"/><stop offset=".882" stop-color="#c72f0f"/><stop offset=".919" stop-color="#b61f0a"/><stop offset=".954" stop-color="#9e0903"/><stop offset=".966" stop-color="#940000"/><stop offset="1" stop-color="#d43b13"/></linearGradient><linearGradient id="x" gradientUnits="userSpaceOnUse" x1="50.832" x2="187.306" y1="139.2" y2="139.2"><stop offset="0" stop-color="#00209f"/><stop offset=".021" stop-color="#0222a1"/><stop offset=".244" stop-color="#1333b2"/><stop offset=".487" stop-color="#1d3dbc"/><stop offset=".791" stop-color="#2040bf"/><stop offset=".841" stop-color="#1e3dbc"/><stop offset=".882" stop-color="#1933b2"/><stop offset=".919" stop-color="#1122a1"/><stop offset=".954" stop-color="#050a89"/><stop offset=".966" stop-color="#00007f"/><stop offset="1" stop-color="#2040bf"/></linearGradient><path d="m84.0426 139.505c4.3558 16.117 19.9844 28.411 27.8774 27.901.276-.017 29.935-5.547 46.171-32.668 12.632-21.111 8.333-41.4893-8.851-41.9358-6.183.453-73.493 16.0058-65.193 46.7078m63.591-103.5098-.018-.0152.024-.0131c-10.823-9.2073-24.028-15.1693-38.093-17.1988-14.0639-2.0295-28.4155-.044-41.4006 5.7278-1.634.6839-3.2253 1.4658-4.7652 2.3412-1.0585.5619-2.117 1.1238-3.1449 1.7424l.2504.0762c-3.04 2.0692-5.7276 4.6135-7.9602 7.5355-21.6571 28.5916 50.8975 49.3841 89.6945 49.4451 17.84 12.8126 22.849-36.0684 5.413-49.6411z" fill="#0e3ca5"/><path d="m72.5324 36.5775c-9.9683 14.984-43.1705 25.5403-48.6305 23.896l-.037-.0697c.2178-.4508.4508-.9017.6817-1.3481 5.662-10.9056 13.7633-20.3581 23.6738-27.6224 2.0429-1.4955 4.1576-2.8952 6.3443-4.199 3.3649-1.8572 7.1337-2.8614 10.9766-2.925 14.7858.2832 7.0651 12.1528 6.9846 12.2725m-8.1737 105.8702c.7165 4.707-.0174 23.304-.9801 24.867-.8298.051-2.5568.157-7.5595-2.65-15.9742-9.115-28.2984-23.481-34.8772-40.656-6.5787-17.174-7.0057-36.0975-1.2086-53.5516.2658-.7986.5438-1.5921.8342-2.3805 5.7301 7.6227 12.3618 14.518 17.9982 22.2147 5.3686 7.3286 12.7538 19.2784 14.2566 21.8314 9.3302 15.849 10.8177 25.627 11.5298 30.327m110.3064-46.8683c.013 9.9943-1.865 19.9003-5.534 29.1973-9.365 10.062-72.487-14.708-73.1056-14.978-8.6354-3.783-34.914-15.2952-37.2858-33.3718-3.3997-26.026 49.3714-44.1549 72.5654-44.8409 2.782.0326 11.245.1306 16.18 4.138 8.546 7.4537 15.395 16.6535 20.084 26.9789 4.689 10.3255 7.108 21.5364 7.096 32.8765zm-42.732 70.5053c-6.883 3.21-14.457.871-12.489-5.83 3.779-12.869 36.777-26.063 44.064-26.788.899-.09 1.28.522.882 1.221-7.593 13.35-18.855 24.243-32.451 31.386" fill="#5493f7"/><path d="m50.8319 178.695c-.0978 1.453.3786 2.886 1.3268 3.991.9482 1.106 2.2924 1.795 3.7434 1.919 66.8619.458 131.4059-2.613 131.4059-12.631 0-30.326-136.4761 6.721-136.4761 6.721z" fill="url(#a)"/><path d="m50.8317 178.695c-.0992 1.457.3801 2.895 1.3342 4.002.954 1.106 2.3057 1.792 3.7621 1.908 66.844.508 131.3-1.592 131.38-12.631 0-30.326-136.4763 6.721-136.4763 6.721zm5.1006 5.525c-.1783 0-.3564-.01-.5336-.031-1.0192-.142-1.9735-.583-2.7434-1.266-.7698-.683-1.3209-1.578-1.5841-2.573.2856 1.078.9131 2.035 1.7884 2.726.8752.692 1.9511 1.081 3.0662 1.109 66.7962-.418 130.3352-20.984 130.3352-11.928 0 9.243-63.532 12.418-130.3287 11.963z" fill="url(#b)"/><path d="m55.9366 92.8176c-.6703-.0003-1.3341.1314-1.9535.3878-.6193.2563-1.1821.6321-1.6562 1.106-.4741.4738-.8501 1.0365-1.1067 1.6557-.2566.6193-.3887 1.283-.3887 1.9533v80.7746c-.0017 1.348.5307 2.643 1.4808 3.601.9501.957 2.2406 1.499 3.5894 1.508 66.8593-.501 131.4893-22.631 131.4063-11.828v-90.9823c.083-10.8046-64.525 11.3229-131.3714 11.8239z" fill="url(#c)"/><path d="m147.115 108.448c1.263-1.058 1.891-1.59 3.152-2.652-1.155-1.525-2.022-2.681-2.886-3.834l-2.892-3.837-3.154 2.646 2.892 3.84c.869 1.154 1.734 2.313 2.888 3.837z" fill="url(#e)"/><path d="m153.934 117.504c1.254-1.063 1.884-1.594 3.14-2.65l-2.87-3.836c-.871-1.152-1.727-2.295-2.879-3.826-1.259 1.06-1.886 1.596-3.147 2.655 1.154 1.524 2.019 2.678 2.883 3.83z" fill="url(#f)"/><path d="m152.361 105.168c.943 1.253 1.886 2.501 2.908 3.862l3.378 4.508c1.259-1.054 1.886-1.581 3.143-2.624-1.257-1.69-2.359-3.156-3.381-4.524l-2.898-3.879-2.908-3.8654c-1.021-1.3546-2.121-2.8313-3.382-4.493-1.259 1.0606-1.886 1.592-3.147 2.6505l3.384 4.4969c1.024 1.359 1.962 2.614 2.903 3.868z" fill="url(#g)"/><path d="m156.55 100.486c1.256-1.0585 1.886-1.5834 3.142-2.6353-1.152-1.5442-2.003-2.6876-2.874-3.8506l-2.88-3.8331-3.145 2.6614 2.882 3.8266z" fill="url(#h)"/><path d="m160.738 99.2532c-1.257 1.0478-1.886 1.5748-3.143 2.6288l2.879 3.855 2.882 3.874c1.259-1.041 1.886-1.559 3.145-2.587-1.155-1.564-2.017-2.731-2.882-3.894-.864-1.163-1.725-2.328-2.881-3.8768z" fill="url(#i)"/><path d="m90.8139 155.204-2.9271-4.099c-1.0302-1.446-2.1322-2.995-3.3976-4.792-1.2653.954-1.8969 1.429-3.1601 2.372 1.2632 1.793 2.3696 3.354 3.3954 4.792 1.0258 1.437 1.9775 2.783 2.9271 4.114.9495 1.33 1.8991 2.663 2.9271 4.099 1.0279 1.435 2.1365 2.983 3.404 4.743 1.2654-.971 1.8992-1.457 3.1624-2.437l-3.3997-4.728z" fill="url(#j)"/><path d="m79.4798 156.327 2.901 4.11c1.2654-.945 1.8948-1.42 3.1623-2.374-1.1608-1.631-2.0298-2.855-2.8987-4.086-.869-1.23-1.7424-2.463-2.8988-4.109-1.2654.934-1.8992 1.4-3.1645 2.328z" fill="url(#k)"/><path d="m86.5952 159.544c-1.2654.961-1.897 1.429-3.1601 2.383 1.1586 1.635 2.0254 2.859 2.8966 4.081l2.9009 4.069c1.2654-.961 1.8992-1.444 3.1646-2.414-1.1609-1.62-2.032-2.831-2.8988-4.055z" fill="url(#l)"/><path d="m81.3243 162.365c-.9474-1.342-1.8948-2.692-2.9228-4.156l-3.4062-4.861c-1.2654.917-1.8991 1.381-3.1667 2.287l3.4019 4.887c1.9436 2.785 3.8958 5.564 5.8564 8.337 1.028 1.457 2.1365 3.023 3.3997 4.805 1.2654-.954 1.897-1.427 3.1645-2.396-1.2675-1.777-2.3717-3.33-3.3997-4.778-1.028-1.449-1.9775-2.782-2.9271-4.125z" fill="url(#m)"/><path d="m90.583 110.894-2.9314 4.657c-.9496 1.507-1.9013 3.007-2.9271 4.641-1.0258 1.633-2.1322 3.38-3.3954 5.373 1.2632.74 1.8948 1.104 3.1601 1.836l3.3998-5.393c1.0301-1.633 1.9797-3.145 2.9292-4.659l2.9315-4.669c1.0302-1.644 2.1387-3.413 3.4041-5.445-1.2654-.703-1.8992-1.056-3.1667-1.766-1.2654 2.023-2.3739 3.79-3.4041 5.425z" fill="url(#n)"/><path d="m82.9079 112.819c-2.1014 3.317-4.2103 6.629-6.3268 9.936 1.2653.756 1.8991 1.13 3.1645 1.88 1.2653-1.989 2.3717-3.735 3.3997-5.358 1.0279-1.623 1.9753-3.127 2.9249-4.635l2.9293-4.647c1.0301-1.636 2.1387-3.396 3.4041-5.417-1.2654-.716-1.9014-1.073-3.1689-1.794-1.2675 2.012-2.3783 3.767-3.4041 5.399-1.0258 1.631-1.9732 3.138-2.9227 4.636z" fill="url(#o)"/><path d="m78.4128 116.491 2.9249-4.597c.9496-1.496 1.897-2.995 2.9249-4.622l3.3997-5.39c-1.2675-.725-1.8991-1.089-3.1623-1.819-2.1006 3.328-4.2096 6.65-6.3268 9.967-.9496 1.487-1.9013 2.968-2.9315 4.573-1.0301 1.605-2.1343 3.326-3.4019 5.284 1.2676.773 1.9014 1.158 3.1667 1.919 1.2567-1.974 2.3631-3.703 3.4063-5.315z" fill="url(#p)"/><path d="m150.264 149.432-3.149-1.553-2.89 4.838-2.89 4.83 3.154 1.562 2.89-4.835z" fill="url(#q)"/><path d="m151.314 147.67c1.154-1.936 2.017-3.393 2.881-4.845l2.882-4.838c-1.259-.623-1.889-.94-3.143-1.557l-2.882 4.848c-.871 1.453-1.742 2.908-2.887 4.842z" fill="url(#r)"/><path d="m154.979 151.754-3.142-1.546c-1.152 1.938-2.019 3.393-2.886 4.843l-2.888 4.837 3.151 1.558 2.884-4.844z" fill="url(#s)"/><path d="m158.908 145.166c.871-1.447 1.729-2.893 2.882-4.811-1.257-.654-1.887-.957-3.145-1.586l-2.88 4.833-2.879 4.846c1.257.614 1.884.923 3.141 1.548 1.152-1.932 2.017-3.386 2.881-4.83z" fill="url(#t)"/><path d="m153.67 157.375c-.871 1.457-1.727 2.912-2.881 4.846 1.259.62 1.886.932 3.145 1.548 1.15-1.936 2.015-3.391 2.879-4.839.865-1.448 1.729-2.901 2.882-4.826-1.257-.634-1.887-.948-3.143-1.571z" fill="url(#u)"/><path d="m160.48 145.956c-.871 1.444-1.729 2.89-2.881 4.822 1.257.625 1.886.941 3.143 1.575 1.154-1.928 2.019-3.361 2.883-4.792.865-1.43 1.725-2.872 2.88-4.791-1.259-.653-1.886-.978-3.143-1.618z" fill="url(#v)"/><path d="m140.616 121.461c-.788-2.046-1.94-3.933-3.4-5.569-1.5-1.672-3.301-3.048-5.309-4.055-1.732-.87-3.583-1.477-5.493-1.803-1.919-.331-3.874-.404-5.813-.218-1.97.199-3.911.627-5.782 1.274-3.934 1.35-7.515 3.567-10.476 6.488-1.539 1.523-2.893 3.224-4.031 5.066-1.257 2.009-2.1299 4.234-2.5745 6.562-.4101 2.16-.3983 4.378.0348 6.534.4171 2.074 1.2636 4.039 2.4847 5.767 1.252 1.756 2.892 3.2 4.792 4.221 1.942 1.043 4.092 1.644 6.294 1.757 2.22.108 4.44-.221 6.534-.967 2.198-.781 4.246-1.933 6.054-3.406 1.912-1.552 3.541-3.424 4.813-5.532l4.731 2.396c1.415.71 2.831 1.413 4.713 2.35 1.34-2.227 2.357-4.633 3.021-7.146.614-2.325.874-4.728.77-7.131-.093-2.255-.554-4.48-1.363-6.588z" fill="url(#w)"/><path d="m135.039 127.085c-1.745-.853-3.697-1.189-5.626-.967-2.019.221-3.958.911-5.663 2.016-1.829 1.171-3.364 2.748-4.484 4.609-1.109 1.853-2.637 3.419-4.462 4.573-1.709 1.088-3.657 1.742-5.676 1.906-1.962.16-3.928-.249-5.663-1.178-1.683-.909-3.05-2.308-3.9198-4.012-.8656-1.709-1.2567-3.62-1.1325-5.532.1349-2.078.787-4.09 1.8973-5.852-1.3484 2.161-2.3699 4.51-3.032 6.97-.6175 2.303-.8797 4.688-.7775 7.071.0961 2.285.5579 4.541 1.3677 6.68.7975 2.101 1.9521 4.05 3.4128 5.758 1.501 1.75 3.314 3.207 5.347 4.295 1.723.929 3.578 1.59 5.501 1.96 1.909.369 3.86.462 5.796.279 1.98-.194 3.929-.633 5.802-1.307 1.939-.69 3.792-1.604 5.521-2.722 1.792-1.154 3.444-2.514 4.922-4.051 1.536-1.597 2.883-3.364 4.016-5.268 1.101-1.806 1.75-3.851 1.89-5.961.13-1.891-.26-3.781-1.128-5.465-.872-1.646-2.239-2.977-3.909-3.802z" fill="url(#x)"/></svg>