<svg fill="none" height="200" viewBox="0 0 200 200" width="200" xmlns="http://www.w3.org/2000/svg"><path d="m100 187c48.049 0 87-38.951 87-87 0-48.0488-38.951-87-87-87-48.0488 0-87 38.9512-87 87 0 48.049 38.9512 87 87 87z" fill="#22242f"/><g fill="#e53935"><path d="m100 16.48c46.127 0 83.52 37.3932 83.52 83.52 0 46.127-37.393 83.52-83.52 83.52-46.1268 0-83.52-37.393-83.52-83.52 0-46.1268 37.3932-83.52 83.52-83.52zm0 5.8955c-42.8708 0-77.6245 34.7537-77.6245 77.6245 0 42.871 34.7537 77.624 77.6245 77.624 42.871 0 77.624-34.753 77.624-77.624 0-42.8708-34.753-77.6245-77.624-77.6245z"/><path d="m152.636 67.0848v-7.5868h-24.032c-1.289-4.9023-2.579-9.2209-3.986-13.1894l-8.089 1.4006c1.407 3.5017 2.814 7.4702 4.104 11.7888h-25.4394v7.5868zm-61.5455 56.3762v-48.4392h-11.8402c2.4618-3.6183 4.9236-8.0537 7.3855-13.4228v-5.6026h-19.343c1.0551-2.3344 1.9929-4.6688 2.9308-7.12l-7.5028-2.3344c-3.5169 11.4386-9.0267 20.6596-16.4122 27.7795l1.7584 8.2872c1.524-1.4007 3.048-2.8013 4.4548-4.3187v45.171zm-19.9291-48.4392h-15.7088c3.0479-3.735 5.9787-7.937 8.5578-12.3723h14.771c-2.5791 4.6688-5.0409 8.8707-7.62 12.3723zm48.2986 78.6692c5.862 0 8.91-3.268 8.91-9.687v-33.266h18.639v-33.1483h-45.602v33.1483h18.757v31.281c0 2.918-1.173 4.436-3.517 4.436-2.697 0-5.51-.234-8.324-.584l1.642 7.82zm-50.9949-57.8929h-8.675v-13.8898h8.675zm15.3572 0h-8.5579v-13.8898h8.5579zm55.2157 7.5869h-29.66v-18.3252h29.66zm-55.2157 13.073h-8.5579v-13.89h8.5579zm-15.3572 0h-8.675v-13.89h8.675zm79.0129 31.864 6.213-4.318c-3.165-7.47-7.62-16.108-13.481-26.029l-6.213 3.735c5.627 9.688 10.199 18.559 13.481 26.612zm-49.1192 1.985c5.1582-8.054 9.6132-17.625 13.3642-28.597l-6.799-3.268c-3.634 10.505-7.972 19.609-12.8956 27.312zm-9.7301-7.937 5.7443-1.401c-1.6412-5.603-3.2825-10.505-5.1582-14.707l-5.5098 1.634c1.8757 4.669 3.5169 9.455 4.9237 14.474zm-12.4264 6.769 6.096-.7c-.7034-8.871-1.9929-15.874-3.8686-21.01l-5.8615.701c1.8756 4.902 3.0479 11.905 3.6341 21.009zm-22.391 3.152c2.4619-6.887 3.9859-14.707 4.6892-23.578l-6.3304-.817c-.5861 8.404-2.2274 15.874-4.8064 22.411zm9.8474-1.401 6.0959-.7c-.2344-9.221-.8206-16.574-1.6412-21.944l-5.627.701c.5861 5.135.9378 12.489 1.1723 21.943z"/></g></svg>