<svg fill="none" height="200" viewBox="0 0 200 200" width="200" xmlns="http://www.w3.org/2000/svg"><path d="m144.101 50.7358h-88.3935v96.3092h88.3935z" fill="#fff"/><path d="m92.6479 184.876c-34.8592-3.396-63.3355-27.131-73.0862-60.919-4.258-14.755-4.258-31.8605 0-46.6153 7.1459-24.7619 24.5498-44.575 47.9424-54.5794 17.3409-7.4162 37.4619-8.5838 55.5129-3.2213 27.355 8.1266 48.734 29.886 56.79 57.8007 4.258 14.7548 4.258 31.8603 0 46.6153-9.06 31.394-34.725 54.602-66.308 59.961-6.137 1.041-15.5542 1.474-20.8511.958zm12.3131-45.307v-7.476h-15.1715-15.172v-38.6998-38.6995h-9.455-9.4549v46.1753 46.176h24.6269 24.6265zm39.14-40.6787v-48.1545h-16.052-16.051v8.5755 8.5754h6.376 6.377v39.5793 39.579h9.675 9.675z" fill="#000"/></svg>