<svg fill="none" height="200" viewBox="0 0 200 200" width="200" xmlns="http://www.w3.org/2000/svg"><path d="m100 184c46.392 0 84-37.608 84-84 0-46.3919-37.608-84-84-84-46.3919 0-84 37.6081-84 84 0 46.392 37.6081 84 84 84z" fill="#fff"/><path d="m83.1326 77.5421.1159.323c1.0349 3.011 3.809 5.0799 6.9897 5.2134 3.181.1336 6.1185-1.6955 7.402-4.609l14.0778-31.7734c1.29-2.9262.648-6.3445-1.615-8.6037-1.799-1.7966-4.365-2.5957-6.866-2.1378-2.501.4578-4.6173 2.1142-5.6627 4.4316l-14.1767 31.467c-.8097 1.7934-.9042 3.8279-.265 5.6889z" fill="#e11f53"/><path d="m106.775 70.6529c.808-1.8274 2.342-3.2353 4.232-3.8838l17.563-6.0198c2.592-.8904 5.466-.2256 7.403 1.714l.232.2318c1.768 1.7645 2.491 4.3218 1.908 6.7507-.583 2.4293-2.389 4.3798-4.765 5.1488l-17.787 5.7964c-2.695.8778-5.655.0878-7.554-2.0173-1.899-2.1046-2.382-5.1294-1.232-7.7208z" fill="#e11f53"/><path d="m122.094 82.9317-.323.1076c-3.004 1.0416-5.066 3.8135-5.199 6.99-.134 3.1769 1.688 6.1123 4.594 7.4017l31.774 14.078c2.922 1.299 6.343.663 8.603-1.599 1.801-1.796 2.604-4.363 2.148-6.864-.456-2.502-2.114-4.6205-4.433-5.665l-31.467-14.1847c-1.796-.8114-3.834-.9063-5.697-.2646z" fill="#4c8bf5"/><path d="m129.173 106.797c1.828.811 3.237 2.343 3.892 4.232l6.02 17.538c.887 2.593.222 5.464-1.714 7.404l-.232.231c-1.763 1.757-4.31 2.475-6.731 1.898-2.421-.578-4.37-2.367-5.152-4.73l-5.796-17.787c-.87-2.689-.082-5.639 2.014-7.535 2.097-1.896 5.11-2.386 7.699-1.251z" fill="#4c8bf5"/><path d="m116.554 122.1-.107-.314c-1.046-2.994-3.812-5.048-6.98-5.182-3.169-.136-6.099 1.675-7.396 4.569l-14.0772 31.774c-1.2987 2.924-.6632 6.347 1.5981 8.612 1.7988 1.796 4.365 2.595 6.8657 2.137 2.5011-.457 4.6174-2.114 5.6634-4.431l14.185-31.467c.806-1.798.895-3.836.248-5.698z" fill="#43c6ac"/><path d="m92.6882 129.166c-.8089 1.83-2.3461 3.238-4.2399 3.883l-17.5551 6.021c-2.6074.907-5.5037.241-7.4529-1.715l-.2235-.232c-1.7509-1.769-2.4586-4.321-1.8694-6.74.5889-2.419 2.3907-4.359 4.7595-5.126l17.787-5.796c2.6871-.865 5.6317-.076 7.5272 2.016 1.8959 2.091 2.3915 5.099 1.2671 7.689z" fill="#43c6ac"/><g fill="#f8b233"><path d="m77.5431 116.769.323-.108c3.011-1.035 5.0803-3.809 5.2139-6.99.1335-3.181-1.696-6.118-4.6091-7.402l-31.7736-14.0772c-2.9253-1.2978-6.348-.6552-8.6037 1.6145-1.7966 1.7988-2.5956 4.365-2.1378 6.8661.4578 2.5003 2.1142 4.6176 4.4315 5.6626l31.4669 14.177c1.7947.806 3.8292.898 5.6889.257z"/><path d="m70.3225 93.152c-1.8161-.8157-3.2134-2.3478-3.859-4.2315l-6.0446-17.5552c-.9055-2.6073-.2394-5.5028 1.714-7.4529l.2318-.2318c1.7678-1.7632 4.3244-2.4826 6.7524-1.9001s4.3797 2.3835 5.1555 4.7569l5.7964 17.7874c.9034 2.7027.1231 5.6843-1.9895 7.5974-2.1122 1.9131-5.1564 2.3957-7.757 1.2298z"/></g></svg>