<svg fill="none" height="200" viewBox="0 0 200 200" width="200" xmlns="http://www.w3.org/2000/svg" xmlns:xlink="http://www.w3.org/1999/xlink"><linearGradient id="a" gradientUnits="userSpaceOnUse" x1="16" x2="184" y1="100" y2="100"><stop offset="0" stop-color="#d2f0f0"/><stop offset="1" stop-color="#f0e6b4"/></linearGradient><path d="m100 184c46.392 0 84-37.608 84-84 0-46.3919-37.608-84-84-84-46.3919 0-84 37.6081-84 84 0 46.392 37.6081 84 84 84z" fill="url(#a)"/><g fill="#28646e"><path d="m99.9999 178.771c-43.4142 0-78.7714-35.357-78.7714-78.7711 0-43.4142 35.3572-78.7714 78.7714-78.7714 43.4141 0 78.7711 35.3572 78.7711 78.7714 0 43.4141-35.357 78.7711-78.7711 78.7711zm0-150.8568c-39.7285 0-72.0857 32.3143-72.0857 72.0857 0 39.7711 32.3572 72.0861 72.0857 72.0861 39.7291 0 72.0861-32.357 72.0861-72.0861 0-39.7285-32.357-72.0857-72.0861-72.0857z"/><path d="m94.8145 85.6c-1.2428 0-2.2286-.9858-2.2286-2.2286 0-.6429.2572-1.2429.7715-1.6714 6.3428-5.5715 9.1286-10.1572 9.6426-11.0572 1.843-3.2571 4.843-4.9286 7.972-4.5 1.243.1714 2.1 1.2857 1.928 2.5286-.171 1.2428-1.285 2.1-2.528 1.9286-1.843-.2572-3.043 1.5-3.515 2.2714-.557.9857-3.685 6.1286-10.5425 12.1714-.4286.3857-.9857.5572-1.5.5572z"/><path d="m57.0997 123.571c-1.2429 0-2.2286-.985-2.2286-2.228 0-.643.3-1.286.8143-1.714 2.6143-2.058 5.3571-3.9 8.2286-5.529 1.1142-.514 2.4428 0 2.9571 1.114.4714 1.072.0429 2.315-.9429 2.872-2.5714 1.457-5.0571 3.128-7.3714 4.928-.4286.386-.9428.557-1.4571.557z"/><path d="m113.414 102.314c.9.815 1.929.472 2.872-.428 6.471-6.1717 13.371-15.9002 15.643-20.9574.471-1.0714 1.5-1.6714 2.528-1.2428 1.243.5143 1.243 2.6571.086 4.9714-3 6.1714-7.157 12.9857-15.386 21.4718-.685.642-.728 1.714-.085 2.442.042.043.085.086.128.129.729.643 1.886.6 3-.514 4.286-4.329 7.114-7.715 9.6-11.1859.643-.9 1.372-1.2858 2.143-1.1143 1.071.2143 1.243 1.2428.9 2.4857-.514 2.0145-6.214 9.4285-8.443 11.9575-6.086 6.771-12.171 10.5-23.871 16.585-4.0717 2.143-7.1574 4.157-9.0002 7.286-1.6715 2.829-2.1858 3.771-2.3572 4.114-.6857 1.372-.1285 3.086 1.2429 3.772 1.3714.643 3 .085 3.6857-1.286.0428-.043.0428-.086.0428-.129 0-.042-.0857.043 2.1-3.685 1.6715-2.657 4.071-4.757 6.9-6.086 11.7-5.357 16.5-9.557 23.314-16.371 3.086-3.086 7.372-9.772 8.572-11.7 3.257-5.5289 1.543-10.2432-1.415-11.0575-.214-.0429-.342-.2572-.257-.4714 0-.0429.043-.0858.043-.0858 2.272-3.9 3.343-6.6428 3.772-8.7428.6-2.8714-.215-6.3-4.158-7.1572-.214-.0428-.342-.2571-.257-.4714.257-.9.472-2.0571.643-2.7857.814-3.6857-1.5-7.0714-4.328-7.6714-1.843-.4286-3.772 0-5.272 1.1143-.214.1285-.514.1285-.686-.0858-.728-.8142-1.8-1.3285-2.914-1.3714-2.443-.0428-4.886.7286-6.643 4.5-1.285 2.7-3.128 6.3-8.657 12.4286-5.1 5.6571-12.2141 11.1857-16.6284 14.1-.7714.5143-1.8428.3857-1.7143-.6429.2143-1.6285 1.9715-12.6857 2.2715-15.9428.4714-5.2715-2.3572-7.7143-5.5286-8.1429-2.6143-.3428-6.6.3857-8.7857 6.3857-1.2857 3.5143-3.9429 9.2572-6.2143 18.5143-1.5857 6.5141-1.8429 14.1001-.3857 22.8431.0857.514 0 1.071-.3 1.543-1.7572 2.871-4.2857 6.642-5.7 9.9-.6 1.328-.0857 2.871 1.1571 3.6 1.3286.728 3 .257 3.7286-1.115.0428-.043.0428-.085.0857-.128.8571-1.8 2.5714-5.143 3.2571-6.515 1.2-2.4 1.9715-4.028 2.2715-5.014.3-.9.4714-1.971-.0429-4.414-.9-4.072-1.2-11.7.4715-18.4287 1.8-6.9857 4.0285-13.8428 6.5999-20.5714.6858-1.6714 1.6286-2.1428 2.5715-2.1.9428.0429 2.7428.5572 2.2285 3.9-.9428 6.0429-2.2285 13.7143-2.6571 16.2857-.2143 1.2857-.4714 4.2429 1.8857 5.5714 1.8 1.071 3.8143.471 6.0429-1.0285 4.9714-3.3429 13.5855-10.1143 18.9855-16.1572 5.657-6.3857 7.457-10.1571 8.914-13.5857.643-1.5428 2.358-1.5428 2.958-1.3714s1.328.9857.814 2.7c-1.243 4.2-6.429 13.7571-16.414 22.7571-1.115 1.0286-.986 2.2286-.386 2.8715.6.6428 1.586 1.0285 2.743 0 8.957-7.6286 14.057-16.7572 16.371-21.6429.772-1.6286 1.414-3.3 1.972-5.0143.471-1.4143 1.585-1.9285 2.357-1.7571 1.071.2143 1.8 1.3286 1.457 3.1714-.557 2.3572-1.372 4.6286-2.443 6.8143-2.871 6.0857-8.957 14.2286-15.471 21.2571-.772.6857-.815 1.8427-.172 2.6147.129 0 .172.042.214.085z"/><path d="m72.9141 71.9713c.3429-.3.2143-.6857.1286-1.0285-.4715-1.5429-3.2143-7.9715-3.9429-9.2572-.3857-.6428-.8143-.7285-1.3286-.5571-.6428.2571-1.4571.8571-2.6571 1.9286-1.2 1.0714-1.9286 1.8-2.2286 2.4-.2571.4714-.2143.9428.3857 1.3714 1.2.9 7.2 4.4571 8.7 5.1428.2143.1715.6.3429.9429 0z"/><path d="m122.585 128.972c-.471.042-.6.428-.685.728-.557 1.5-2.272 8.314-2.486 9.772-.086.728.214 1.071.686 1.242.643.215 1.671.215 3.3.086 1.628-.128 2.614-.257 3.257-.557.471-.214.728-.6.514-1.329-.428-1.414-3.043-7.928-3.771-9.342-.172-.258-.343-.643-.815-.6z"/><path d="m126.486 125.8c-.214.429.043.729.257.986 1.029 1.243 5.914 6.257 7.029 7.2.557.471 1.028.386 1.414.043.514-.472 1.028-1.329 1.8-2.743.771-1.414 1.157-2.357 1.243-3.043.085-.514-.129-.943-.857-1.157-1.415-.386-8.358-1.543-9.943-1.629-.3-.043-.729-.085-.943.343z"/><path d="m70.5145 76.1713c-.0857-.4714-.4714-.5571-.8143-.6-1.5857-.3857-8.4857-1.3714-9.9857-1.4142-.7286-.0429-1.0714.3428-1.1571.8571-.1286.6857-.0429 1.6714.2571 3.2571.3 1.5858.5143 2.5715.9 3.1715.2572.4714.6857.6857 1.3714.3857 1.3715-.5571 7.5429-3.8572 8.8715-4.7572.3-.2142.6428-.4285.5571-.9z"/><path d="m100 166c1.373 0 2.486-1.113 2.486-2.486s-1.113-2.485-2.486-2.485c-1.3725 0-2.4854 1.112-2.4854 2.485s1.1129 2.486 2.4854 2.486z"/><path d="m100 38.9714c1.373 0 2.486-1.1129 2.486-2.4857s-1.113-2.4857-2.486-2.4857c-1.3725 0-2.4854 1.1129-2.4854 2.4857s1.1129 2.4857 2.4854 2.4857z"/><path d="m116.457 163.814c1.373 0 2.486-1.113 2.486-2.486 0-1.372-1.113-2.485-2.486-2.485-1.372 0-2.485 1.113-2.485 2.485 0 1.373 1.113 2.486 2.485 2.486z"/><path d="m83.5428 41.1572c1.3729 0 2.4858-1.1129 2.4858-2.4857s-1.1129-2.4857-2.4858-2.4857c-1.3728 0-2.4857 1.1129-2.4857 2.4857s1.1129 2.4857 2.4857 2.4857z"/><path d="m131.757 157.471c1.373 0 2.485-1.112 2.485-2.485s-1.112-2.486-2.485-2.486-2.486 1.113-2.486 2.486 1.113 2.485 2.486 2.485z"/><path d="m70.7186 45.4021c.2199-1.3551-.7003-2.6319-2.0554-2.8519-1.3552-.2199-2.632.7004-2.8519 2.0555s.7003 2.6319 2.0554 2.8518c1.3551.22 2.632-.7003 2.8519-2.0554z"/><path d="m144.914 147.4c1.373 0 2.486-1.113 2.486-2.486s-1.113-2.486-2.486-2.486-2.486 1.113-2.486 2.486 1.113 2.486 2.486 2.486z"/><path d="m55.0858 57.5715c1.3728 0 2.4857-1.1129 2.4857-2.4857s-1.1129-2.4857-2.4857-2.4857-2.4857 1.1129-2.4857 2.4857 1.1129 2.4857 2.4857 2.4857z"/><path d="m154.986 134.243c1.373 0 2.485-1.113 2.485-2.486s-1.112-2.486-2.485-2.486-2.486 1.113-2.486 2.486 1.113 2.486 2.486 2.486z"/><path d="m45.0145 70.7285c1.3728 0 2.4857-1.1129 2.4857-2.4857s-1.1129-2.4857-2.4857-2.4857-2.4857 1.1129-2.4857 2.4857 1.1129 2.4857 2.4857 2.4857z"/><path d="m161.328 118.943c1.373 0 2.486-1.113 2.486-2.486s-1.113-2.486-2.486-2.486c-1.372 0-2.485 1.113-2.485 2.486s1.113 2.486 2.485 2.486z"/><path d="m38.6713 86.0286c1.3728 0 2.4857-1.1129 2.4857-2.4858 0-1.3728-1.1129-2.4857-2.4857-2.4857-1.3729 0-2.4858 1.1129-2.4858 2.4857 0 1.3729 1.1129 2.4858 2.4858 2.4858z"/><path d="m163.515 102.486c1.372 0 2.485-1.113 2.485-2.486 0-1.3727-1.113-2.4856-2.485-2.4856-1.373 0-2.486 1.1129-2.486 2.4856 0 1.373 1.113 2.486 2.486 2.486z"/><path d="m36.4857 102.486c1.3728 0 2.4857-1.113 2.4857-2.486 0-1.3727-1.1129-2.4856-2.4857-2.4856s-2.4857 1.1129-2.4857 2.4856c0 1.373 1.1129 2.486 2.4857 2.486z"/><path d="m161.328 86.0286c1.373 0 2.486-1.1129 2.486-2.4858 0-1.3728-1.113-2.4857-2.486-2.4857-1.372 0-2.485 1.1129-2.485 2.4857 0 1.3729 1.113 2.4858 2.485 2.4858z"/><path d="m38.6713 118.943c1.3728 0 2.4857-1.113 2.4857-2.486s-1.1129-2.486-2.4857-2.486c-1.3729 0-2.4858 1.113-2.4858 2.486s1.1129 2.486 2.4858 2.486z"/><path d="m154.986 70.7285c1.373 0 2.485-1.1129 2.485-2.4857s-1.112-2.4857-2.485-2.4857-2.486 1.1129-2.486 2.4857 1.113 2.4857 2.486 2.4857z"/><path d="m45.0145 134.243c1.3728 0 2.4857-1.113 2.4857-2.486s-1.1129-2.486-2.4857-2.486-2.4857 1.113-2.4857 2.486 1.1129 2.486 2.4857 2.486z"/><path d="m144.914 57.5715c1.373 0 2.486-1.1129 2.486-2.4857s-1.113-2.4857-2.486-2.4857-2.486 1.1129-2.486 2.4857 1.113 2.4857 2.486 2.4857z"/><path d="m55.0858 147.4c1.3728 0 2.4857-1.113 2.4857-2.486s-1.1129-2.486-2.4857-2.486-2.4857 1.113-2.4857 2.486 1.1129 2.486 2.4857 2.486z"/><path d="m131.757 47.5c1.373 0 2.485-1.1129 2.485-2.4857s-1.112-2.4857-2.485-2.4857-2.486 1.1129-2.486 2.4857 1.113 2.4857 2.486 2.4857z"/><path d="m68.2426 157.471c1.3728 0 2.4857-1.112 2.4857-2.485s-1.1129-2.486-2.4857-2.486c-1.3729 0-2.4858 1.113-2.4858 2.486s1.1129 2.485 2.4858 2.485z"/><path d="m116.457 41.1572c1.373 0 2.486-1.1129 2.486-2.4857s-1.113-2.4857-2.486-2.4857c-1.372 0-2.485 1.1129-2.485 2.4857s1.113 2.4857 2.485 2.4857z"/><path d="m83.5428 163.814c1.3729 0 2.4858-1.113 2.4858-2.486 0-1.372-1.1129-2.485-2.4858-2.485-1.3728 0-2.4857 1.113-2.4857 2.485 0 1.373 1.1129 2.486 2.4857 2.486z"/></g></svg>