<svg fill="none" height="200" viewBox="0 0 200 200" width="200" xmlns="http://www.w3.org/2000/svg" xmlns:xlink="http://www.w3.org/1999/xlink"><linearGradient id="a" gradientUnits="userSpaceOnUse" x1="109.545" x2="109.545" y1="16" y2="184"><stop offset="0" stop-color="#fff"/><stop offset="1" stop-color="#e1d1dd"/></linearGradient><linearGradient id="b" gradientUnits="userSpaceOnUse" x1="99.3754" x2="99.3754" y1="32.5454" y2="168.247"><stop offset="0" stop-color="#0e112c"/><stop offset="1" stop-color="#461847"/></linearGradient><path d="m184 100c0-46.3919-37.608-84-84-84-46.3919 0-84 37.6081-84 84 0 46.392 37.6081 84 84 84 46.392 0 84-37.608 84-84z" fill="url(#a)"/><path clip-rule="evenodd" d="m91.4795 32.5454h15.7085v13.2458c15.334 3.6171 26.743 17.3501 26.743 33.7391 0 19.1479-15.573 34.6697-34.7836 34.6697-19.2104 0-34.7836-15.5218-34.7836-34.6697 0-16.5218 11.5944-30.3442 27.1157-33.8249zm27.4095 46.9849c0 10.8677-8.839 19.6774-19.7416 19.6774-10.9032 0-19.742-8.8097-19.742-19.6774s8.8388-19.6776 19.742-19.6776c10.9026 0 19.7416 8.8099 19.7416 19.6776zm-4.571 56.3117c-3.923 3.909-9.243 6.105-14.7901 6.105-5.547 0-10.867-2.196-14.7894-6.105-3.9223-3.91-6.1259-9.213-6.1259-14.742h-13.9438c0 9.215 3.6728 18.053 10.2101 24.569 4.605 4.59 10.3657 7.763 16.6006 9.238v13.34h15.7085v-13.251c6.384-1.433 12.289-4.642 16.989-9.327 6.537-6.516 10.21-15.354 10.21-24.569h-13.944c0 5.529-2.203 10.832-6.125 14.742z" fill="url(#b)" fill-rule="evenodd"/></svg>