<svg width="400" height="400" viewBox="0 0 400 400" fill="none" xmlns="http://www.w3.org/2000/svg">
<path fill-rule="evenodd" clip-rule="evenodd" d="M199.355 197.04C226.424 197.04 248.368 175.097 248.368 148.028C248.368 120.959 226.424 99.0156 199.355 99.0156C172.286 99.0156 150.343 120.959 150.343 148.028C150.343 175.097 172.286 197.04 199.355 197.04ZM199.355 234.383C247.048 234.383 285.71 195.721 285.71 148.028C285.71 100.335 247.048 61.6729 199.355 61.6729C151.663 61.6729 113 100.335 113 148.028C113 195.721 151.663 234.383 199.355 234.383Z" fill="#13181E"/>
<path fill-rule="evenodd" clip-rule="evenodd" d="M200.295 303.494C214.067 303.494 227.274 298.024 237.012 288.286C246.75 278.548 252.221 265.34 252.221 251.569H286.838C286.838 274.521 277.72 296.534 261.49 312.764C245.26 328.993 223.248 338.111 200.295 338.111C177.343 338.111 155.33 328.993 139.101 312.764C122.871 296.534 113.753 274.521 113.753 251.569H148.37C148.37 265.34 153.841 278.548 163.579 288.286C173.316 298.024 186.524 303.494 200.295 303.494Z" fill="#13181E"/>
<path d="M180.308 31H219.308V76H180.308V31Z" fill="#13181E"/>
<path d="M180.308 328H219.308V369H180.308V328Z" fill="#13181E"/>
</svg>
