<svg fill="none" height="200" viewBox="0 0 200 200" width="200" xmlns="http://www.w3.org/2000/svg" xmlns:xlink="http://www.w3.org/1999/xlink"><filter id="a" color-interpolation-filters="sRGB" filterUnits="userSpaceOnUse" height="107.216" width="109.686" x="45.4373" y="46.1548"><feFlood flood-opacity="0" result="BackgroundImageFix"/><feBlend in="SourceGraphic" in2="BackgroundImageFix" mode="normal" result="shape"/><feGaussianBlur result="effect1_foregroundBlur_8_1987" stdDeviation="4.69883"/></filter><filter id="b" color-interpolation-filters="sRGB" filterUnits="userSpaceOnUse" height="92.18" width="94.6497" x="52.9554" y="53.673"><feFlood flood-opacity="0" result="BackgroundImageFix"/><feBlend in="SourceGraphic" in2="BackgroundImageFix" mode="normal" result="shape"/><feGaussianBlur result="effect1_foregroundBlur_8_1987" stdDeviation=".939767"/></filter><filter id="c" color-interpolation-filters="sRGB" filterUnits="userSpaceOnUse" height="129.77" width="132.24" x="33.5992" y="35.2864"><feFlood flood-opacity="0" result="BackgroundImageFix"/><feBlend in="SourceGraphic" in2="BackgroundImageFix" mode="normal" result="shape"/><feGaussianBlur result="effect1_foregroundBlur_8_1987" stdDeviation="10.3374"/></filter><filter id="d" color-interpolation-filters="sRGB" filterUnits="userSpaceOnUse" height="145.95" width="148.572" x="25.7139" y="26.9925"><feFlood flood-opacity="0" result="BackgroundImageFix"/><feBlend in="SourceGraphic" in2="BackgroundImageFix" mode="normal" result="shape"/><feGaussianBlur result="effect1_foregroundBlur_8_1987" stdDeviation="14.28"/></filter><filter id="e" color-interpolation-filters="sRGB" filterUnits="userSpaceOnUse" height="107.216" width="109.686" x="45.4373" y="46.1548"><feFlood flood-opacity="0" result="BackgroundImageFix"/><feBlend in="SourceGraphic" in2="BackgroundImageFix" mode="normal" result="shape"/><feGaussianBlur result="effect1_foregroundBlur_8_1987" stdDeviation="4.69883"/></filter><filter id="f" color-interpolation-filters="sRGB" filterUnits="userSpaceOnUse" height="92.18" width="94.6497" x="52.9554" y="53.673"><feFlood flood-opacity="0" result="BackgroundImageFix"/><feBlend in="SourceGraphic" in2="BackgroundImageFix" mode="normal" result="shape"/><feGaussianBlur result="effect1_foregroundBlur_8_1987" stdDeviation=".939767"/></filter><filter id="g" color-interpolation-filters="sRGB" filterUnits="userSpaceOnUse" height="129.77" width="132.24" x="33.5992" y="35.2864"><feFlood flood-opacity="0" result="BackgroundImageFix"/><feBlend in="SourceGraphic" in2="BackgroundImageFix" mode="normal" result="shape"/><feGaussianBlur result="effect1_foregroundBlur_8_1987" stdDeviation="10.3374"/></filter><path d="m184 100c0-46.3919-37.608-84-84-84-46.3919 0-84 37.6081-84 84 0 46.392 37.6081 84 84 84 46.392 0 84-37.608 84-84z" fill="#000"/><g fill="#fff"><path d="m99.9153 73.7945h-.1303c-5.0014 0-9.056-4.0546-9.056-9.0558v-.1304c0-5.0012 4.0546-9.0558 9.056-9.0558h.1303c5.0017 0 9.0557 4.0546 9.0557 9.0558v.1304c0 5.0012-4.054 9.0558-9.0557 9.0558z"/><path d="m99.9153 109.688h-.1303c-5.0014 0-9.056-4.054-9.056-9.056v-.13c0-5.0014 4.0546-9.056 9.056-9.056h.1303c5.0017 0 9.0557 4.0546 9.0557 9.056v.13c0 5.002-4.054 9.056-9.0557 9.056z"/><path d="m73.0772 100.502v.13c0 5.002-4.0551 9.056-9.056 9.056h-.1304c-5.0012 0-9.0558-4.054-9.0558-9.056v-.13c0-5.0014 4.0546-9.056 9.0558-9.056h.1304c5.0009 0 9.056 4.0546 9.056 9.056z"/><path d="m99.784 125.734h.1303c5.0007 0 9.0547 4.054 9.0547 9.055v.13c0 5-4.054 9.054-9.0547 9.054h-.1303c-5.0009 0-9.055-4.054-9.055-9.054v-.13c0-5.001 4.0541-9.055 9.055-9.055z"/><path d="m127.484 100.632v-.13c0-5.0014 4.054-9.056 9.056-9.056h.13c5.002 0 9.056 4.0546 9.056 9.056v.13c0 5.002-4.054 9.056-9.056 9.056h-.13c-5.002 0-9.056-4.054-9.056-9.056z"/><path d="m75.5629 130.124c3.1825 0 5.7622-2.581 5.7622-5.763s-2.5797-5.762-5.7622-5.762c-3.1824 0-5.7626 2.58-5.7626 5.762s2.5802 5.763 5.7626 5.763z"/><path d="m75.5629 78.6144c3.1825 0 5.7622-2.5802 5.7622-5.7627 0-3.1824-2.5797-5.7621-5.7622-5.7621-3.1824 0-5.7626 2.5797-5.7626 5.7621 0 3.1825 2.5802 5.7627 5.7626 5.7627z"/><path d="m123.413 78.6144c3.182 0 5.762-2.5802 5.762-5.7627 0-3.1824-2.58-5.7621-5.762-5.7621-3.183 0-5.763 2.5797-5.763 5.7621 0 3.1825 2.58 5.7627 5.763 5.7627z"/><path d="m123.425 130.125c3.182 0 5.762-2.58 5.762-5.762s-2.58-5.763-5.762-5.763-5.762 2.581-5.762 5.763 2.58 5.762 5.762 5.762z"/><g filter="url(#a)" opacity=".8"><path d="m99.9153 73.7945h-.1303c-5.0014 0-9.056-4.0546-9.056-9.0558v-.1304c0-5.0012 4.0546-9.0558 9.056-9.0558h.1303c5.0017 0 9.0557 4.0546 9.0557 9.0558v.1304c0 5.0012-4.054 9.0558-9.0557 9.0558z"/><path d="m99.9153 109.688h-.1303c-5.0014 0-9.056-4.054-9.056-9.056v-.13c0-5.0014 4.0546-9.056 9.056-9.056h.1303c5.0017 0 9.0557 4.0546 9.0557 9.056v.13c0 5.002-4.054 9.056-9.0557 9.056z"/><path d="m73.0772 100.502v.13c0 5.002-4.0551 9.056-9.056 9.056h-.1304c-5.0012 0-9.0558-4.054-9.0558-9.056v-.13c0-5.0014 4.0546-9.056 9.0558-9.056h.1304c5.0009 0 9.056 4.0546 9.056 9.056z"/><path d="m99.784 125.734h.1303c5.0007 0 9.0547 4.054 9.0547 9.055v.13c0 5-4.054 9.054-9.0547 9.054h-.1303c-5.0009 0-9.055-4.054-9.055-9.054v-.13c0-5.001 4.0541-9.055 9.055-9.055z"/><path d="m127.483 100.632v-.13c0-5.0014 4.055-9.056 9.056-9.056h.131c5.001 0 9.056 4.0546 9.056 9.056v.13c0 5.002-4.055 9.056-9.056 9.056h-.131c-5.001 0-9.056-4.054-9.056-9.056z"/><path d="m75.5625 130.124c3.1824 0 5.7621-2.581 5.7621-5.763s-2.5797-5.762-5.7621-5.762c-3.1825 0-5.7627 2.58-5.7627 5.762s2.5802 5.763 5.7627 5.763z"/><path d="m75.5625 78.6144c3.1824 0 5.7621-2.5802 5.7621-5.7627 0-3.1824-2.5797-5.7621-5.7621-5.7621-3.1825 0-5.7627 2.5797-5.7627 5.7621 0 3.1825 2.5802 5.7627 5.7627 5.7627z"/><path d="m123.413 78.6144c3.182 0 5.762-2.5802 5.762-5.7627 0-3.1824-2.58-5.7621-5.762-5.7621-3.183 0-5.763 2.5797-5.763 5.7621 0 3.1825 2.58 5.7627 5.763 5.7627z"/><path d="m123.425 130.125c3.182 0 5.762-2.58 5.762-5.762s-2.58-5.763-5.762-5.763-5.762 2.581-5.762 5.763 2.58 5.762 5.762 5.762z"/></g><g filter="url(#b)" opacity=".5"><path d="m99.9153 73.7945h-.1303c-5.0014 0-9.056-4.0546-9.056-9.0558v-.1304c0-5.0012 4.0546-9.0558 9.056-9.0558h.1303c5.0017 0 9.0557 4.0546 9.0557 9.0558v.1304c0 5.0012-4.054 9.0558-9.0557 9.0558z"/><path d="m99.9153 109.688h-.1303c-5.0014 0-9.056-4.054-9.056-9.056v-.13c0-5.0014 4.0546-9.056 9.056-9.056h.1303c5.0017 0 9.0557 4.0546 9.0557 9.056v.13c0 5.002-4.054 9.056-9.0557 9.056z"/><path d="m73.0772 100.502v.13c0 5.002-4.0551 9.056-9.056 9.056h-.1304c-5.0012 0-9.0558-4.054-9.0558-9.056v-.13c0-5.0014 4.0546-9.056 9.0558-9.056h.1304c5.0009 0 9.056 4.0546 9.056 9.056z"/><path d="m99.784 125.734h.1303c5.0007 0 9.0547 4.054 9.0547 9.055v.13c0 5-4.054 9.054-9.0547 9.054h-.1303c-5.0009 0-9.055-4.054-9.055-9.054v-.13c0-5.001 4.0541-9.055 9.055-9.055z"/><path d="m127.483 100.632v-.13c0-5.0014 4.055-9.056 9.056-9.056h.131c5.001 0 9.056 4.0546 9.056 9.056v.13c0 5.002-4.055 9.056-9.056 9.056h-.131c-5.001 0-9.056-4.054-9.056-9.056z"/><path d="m75.5625 130.124c3.1824 0 5.7621-2.581 5.7621-5.763s-2.5797-5.762-5.7621-5.762c-3.1825 0-5.7627 2.58-5.7627 5.762s2.5802 5.763 5.7627 5.763z"/><path d="m75.5625 78.6144c3.1824 0 5.7621-2.5802 5.7621-5.7627 0-3.1824-2.5797-5.7621-5.7621-5.7621-3.1825 0-5.7627 2.5797-5.7627 5.7621 0 3.1825 2.5802 5.7627 5.7627 5.7627z"/><path d="m123.413 78.6144c3.182 0 5.762-2.5802 5.762-5.7627 0-3.1824-2.58-5.7621-5.762-5.7621-3.183 0-5.763 2.5797-5.763 5.7621 0 3.1825 2.58 5.7627 5.763 5.7627z"/><path d="m123.425 130.125c3.182 0 5.762-2.58 5.762-5.762s-2.58-5.763-5.762-5.763-5.762 2.581-5.762 5.763 2.58 5.762 5.762 5.762z"/></g><g filter="url(#c)" opacity=".1"><path d="m99.3538 74.2032h-.1304c-5.0014 0-9.0559-4.0546-9.0559-9.0558v-.1305c0-5.0012 4.0545-9.0557 9.0559-9.0557h.1304c5.0012 0 9.0562 4.0545 9.0562 9.0557v.1305c0 5.0012-4.055 9.0558-9.0562 9.0558z"/><path d="m99.3538 110.097h-.1304c-5.0014 0-9.0559-4.055-9.0559-9.056v-.131c0-5.0007 4.0545-9.0553 9.0559-9.0553h.1304c5.0012 0 9.0562 4.0546 9.0562 9.0553v.131c0 5.001-4.055 9.056-9.0562 9.056z"/><path d="m72.5161 100.91v.131c0 5.001-4.0546 9.056-9.056 9.056h-.1304c-5.0012 0-9.0558-4.055-9.0558-9.056v-.131c0-5.0007 4.0546-9.0553 9.0558-9.0553h.1304c5.0014 0 9.056 4.0546 9.056 9.0553z"/><path d="m99.2224 126.142h.1304c5.0002 0 9.0542 4.054 9.0542 9.055v.131c0 5-4.054 9.054-9.0542 9.054h-.1304c-5.0009 0-9.0549-4.054-9.0549-9.054v-.131c0-5.001 4.054-9.055 9.0549-9.055z"/><path d="m126.922 101.041v-.131c0-5.0007 4.055-9.0553 9.056-9.0553h.131c5.001 0 9.056 4.0546 9.056 9.0553v.131c0 5.001-4.055 9.056-9.056 9.056h-.131c-5.001 0-9.056-4.055-9.056-9.056z"/><path d="m75.0014 130.532c3.1825 0 5.7622-2.58 5.7622-5.762 0-3.183-2.5797-5.762-5.7622-5.762s-5.7621 2.579-5.7621 5.762c0 3.182 2.5796 5.762 5.7621 5.762z"/><path d="m75.0014 79.0231c3.1825 0 5.7622-2.5802 5.7622-5.7627 0-3.1824-2.5797-5.7621-5.7622-5.7621s-5.7621 2.5797-5.7621 5.7621c0 3.1825 2.5796 5.7627 5.7621 5.7627z"/><path d="m122.852 79.0231c3.182 0 5.762-2.5802 5.762-5.7627 0-3.1824-2.58-5.7621-5.762-5.7621-3.183 0-5.763 2.5797-5.763 5.7621 0 3.1825 2.58 5.7627 5.763 5.7627z"/><path d="m122.863 130.534c3.183 0 5.763-2.58 5.763-5.762 0-3.183-2.58-5.763-5.763-5.763-3.182 0-5.762 2.58-5.762 5.763 0 3.182 2.58 5.762 5.762 5.762z"/></g><g filter="url(#d)" opacity=".3"><path d="m99.9153 73.7945h-.1303c-5.0014 0-9.056-4.0546-9.056-9.0558v-.1304c0-5.0012 4.0546-9.0558 9.056-9.0558h.1303c5.0017 0 9.0557 4.0546 9.0557 9.0558v.1304c0 5.0012-4.054 9.0558-9.0557 9.0558z"/><path d="m99.9153 109.688h-.1303c-5.0014 0-9.056-4.054-9.056-9.056v-.13c0-5.0014 4.0546-9.056 9.056-9.056h.1303c5.0017 0 9.0557 4.0546 9.0557 9.056v.13c0 5.002-4.054 9.056-9.0557 9.056z"/><path d="m73.0772 100.502v.13c0 5.002-4.0546 9.056-9.056 9.056h-.1304c-5.0012 0-9.0558-4.054-9.0558-9.056v-.13c0-5.0014 4.0546-9.056 9.0558-9.056h.1304c5.0014 0 9.056 4.0546 9.056 9.056z"/><path d="m99.784 125.734h.1303c5.0007 0 9.0547 4.054 9.0547 9.055v.13c0 5-4.054 9.054-9.0547 9.054h-.1303c-5.0009 0-9.055-4.054-9.055-9.054v-.13c0-5.001 4.0541-9.055 9.055-9.055z"/><path d="m127.483 100.632v-.13c0-5.0014 4.055-9.056 9.056-9.056h.131c5.001 0 9.056 4.0546 9.056 9.056v.13c0 5.002-4.055 9.056-9.056 9.056h-.131c-5.001 0-9.056-4.054-9.056-9.056z"/><path d="m75.5625 130.124c3.1824 0 5.7621-2.581 5.7621-5.763s-2.5797-5.762-5.7621-5.762c-3.1825 0-5.7627 2.58-5.7627 5.762s2.5802 5.763 5.7627 5.763z"/><path d="m75.5625 78.6144c3.1824 0 5.7621-2.5802 5.7621-5.7627 0-3.1824-2.5797-5.7621-5.7621-5.7621-3.1825 0-5.7627 2.5797-5.7627 5.7621 0 3.1825 2.5802 5.7627 5.7627 5.7627z"/><path d="m123.413 78.6144c3.182 0 5.762-2.5802 5.762-5.7627 0-3.1824-2.58-5.7621-5.762-5.7621-3.183 0-5.763 2.5797-5.763 5.7621 0 3.1825 2.58 5.7627 5.763 5.7627z"/><path d="m123.425 130.125c3.182 0 5.762-2.58 5.762-5.762s-2.58-5.763-5.762-5.763-5.762 2.581-5.762 5.763 2.58 5.762 5.762 5.762z"/><g filter="url(#e)" opacity=".8"><path d="m99.9149 73.7945h-.1304c-5.0014 0-9.056-4.0546-9.056-9.0558v-.1304c0-5.0012 4.0546-9.0558 9.056-9.0558h.1304c5.0011 0 9.0561 4.0546 9.0561 9.0558v.1304c0 5.0012-4.055 9.0558-9.0561 9.0558z"/><path d="m99.9149 109.688h-.1304c-5.0014 0-9.056-4.054-9.056-9.056v-.13c0-5.0014 4.0546-9.056 9.056-9.056h.1304c5.0011 0 9.0561 4.0546 9.0561 9.056v.13c0 5.002-4.055 9.056-9.0561 9.056z"/><path d="m73.0772 100.502v.13c0 5.002-4.0546 9.056-9.056 9.056h-.1304c-5.0012 0-9.0558-4.054-9.0558-9.056v-.13c0-5.0014 4.0546-9.056 9.0558-9.056h.1304c5.0014 0 9.056 4.0546 9.056 9.056z"/><path d="m99.7835 125.734h.1304c5.0001 0 9.0541 4.054 9.0541 9.055v.13c0 5-4.054 9.054-9.0541 9.054h-.1304c-5.0009 0-9.055-4.054-9.055-9.054v-.13c0-5.001 4.0541-9.055 9.055-9.055z"/><path d="m127.483 100.632v-.13c0-5.0014 4.055-9.056 9.056-9.056h.131c5.001 0 9.056 4.0546 9.056 9.056v.13c0 5.002-4.055 9.056-9.056 9.056h-.131c-5.001 0-9.056-4.054-9.056-9.056z"/><path d="m75.5625 130.124c3.1824 0 5.7621-2.581 5.7621-5.763s-2.5797-5.762-5.7621-5.762c-3.1825 0-5.7627 2.58-5.7627 5.762s2.5802 5.763 5.7627 5.763z"/><path d="m75.5625 78.6144c3.1824 0 5.7621-2.5802 5.7621-5.7627 0-3.1824-2.5797-5.7621-5.7621-5.7621-3.1825 0-5.7627 2.5797-5.7627 5.7621 0 3.1825 2.5802 5.7627 5.7627 5.7627z"/><path d="m123.413 78.6144c3.182 0 5.762-2.5802 5.762-5.7627 0-3.1824-2.58-5.7621-5.762-5.7621-3.183 0-5.763 2.5797-5.763 5.7621 0 3.1825 2.58 5.7627 5.763 5.7627z"/><path d="m123.425 130.125c3.182 0 5.762-2.58 5.762-5.762s-2.58-5.763-5.762-5.763-5.762 2.581-5.762 5.763 2.58 5.762 5.762 5.762z"/></g><g filter="url(#f)" opacity=".5"><path d="m99.9149 73.7945h-.1304c-5.0014 0-9.056-4.0546-9.056-9.0558v-.1304c0-5.0012 4.0546-9.0558 9.056-9.0558h.1304c5.0011 0 9.0561 4.0546 9.0561 9.0558v.1304c0 5.0012-4.055 9.0558-9.0561 9.0558z"/><path d="m99.9149 109.688h-.1304c-5.0014 0-9.056-4.054-9.056-9.056v-.13c0-5.0014 4.0546-9.056 9.056-9.056h.1304c5.0011 0 9.0561 4.0546 9.0561 9.056v.13c0 5.002-4.055 9.056-9.0561 9.056z"/><path d="m73.0772 100.502v.13c0 5.002-4.0546 9.056-9.056 9.056h-.1304c-5.0012 0-9.0558-4.054-9.0558-9.056v-.13c0-5.0014 4.0546-9.056 9.0558-9.056h.1304c5.0014 0 9.056 4.0546 9.056 9.056z"/><path d="m99.7835 125.734h.1304c5.0001 0 9.0541 4.054 9.0541 9.055v.13c0 5-4.054 9.054-9.0541 9.054h-.1304c-5.0009 0-9.055-4.054-9.055-9.054v-.13c0-5.001 4.0541-9.055 9.055-9.055z"/><path d="m127.483 100.632v-.13c0-5.0014 4.055-9.056 9.056-9.056h.131c5.001 0 9.056 4.0546 9.056 9.056v.13c0 5.002-4.055 9.056-9.056 9.056h-.131c-5.001 0-9.056-4.054-9.056-9.056z"/><path d="m75.5625 130.124c3.1824 0 5.7621-2.581 5.7621-5.763s-2.5797-5.762-5.7621-5.762c-3.1825 0-5.7627 2.58-5.7627 5.762s2.5802 5.763 5.7627 5.763z"/><path d="m75.5625 78.6144c3.1824 0 5.7621-2.5802 5.7621-5.7627 0-3.1824-2.5797-5.7621-5.7621-5.7621-3.1825 0-5.7627 2.5797-5.7627 5.7621 0 3.1825 2.5802 5.7627 5.7627 5.7627z"/><path d="m123.413 78.6144c3.182 0 5.762-2.5802 5.762-5.7627 0-3.1824-2.58-5.7621-5.762-5.7621-3.183 0-5.763 2.5797-5.763 5.7621 0 3.1825 2.58 5.7627 5.763 5.7627z"/><path d="m123.425 130.125c3.182 0 5.762-2.58 5.762-5.762s-2.58-5.763-5.762-5.763-5.762 2.581-5.762 5.763 2.58 5.762 5.762 5.762z"/></g><g filter="url(#g)" opacity=".1"><path d="m99.3538 74.2032h-.1304c-5.0009 0-9.0559-4.0546-9.0559-9.0558v-.1305c0-5.0012 4.055-9.0557 9.0559-9.0557h.1304c5.0012 0 9.0562 4.0545 9.0562 9.0557v.1305c0 5.0012-4.055 9.0558-9.0562 9.0558z"/><path d="m99.3538 110.097h-.1304c-5.0009 0-9.0559-4.055-9.0559-9.056v-.131c0-5.0007 4.055-9.0553 9.0559-9.0553h.1304c5.0012 0 9.0562 4.0546 9.0562 9.0553v.131c0 5.001-4.055 9.056-9.0562 9.056z"/><path d="m72.5161 100.91v.131c0 5.001-4.0546 9.056-9.0559 9.056h-.1305c-5.0012 0-9.0558-4.055-9.0558-9.056v-.131c0-5.0007 4.0546-9.0553 9.0558-9.0553h.1305c5.0013 0 9.0559 4.0546 9.0559 9.0553z"/><path d="m99.2224 126.142h.1304c5.0002 0 9.0542 4.054 9.0542 9.055v.131c0 5-4.054 9.054-9.0542 9.054h-.1304c-5.0009 0-9.0549-4.054-9.0549-9.054v-.131c0-5.001 4.054-9.055 9.0549-9.055z"/><path d="m126.922 101.041v-.131c0-5.0007 4.055-9.0553 9.056-9.0553h.131c5.001 0 9.056 4.0546 9.056 9.0553v.131c0 5.001-4.055 9.056-9.056 9.056h-.131c-5.001 0-9.056-4.055-9.056-9.056z"/><path d="m75.0014 130.532c3.1825 0 5.7622-2.58 5.7622-5.762 0-3.183-2.5797-5.762-5.7622-5.762s-5.7621 2.579-5.7621 5.762c0 3.182 2.5796 5.762 5.7621 5.762z"/><path d="m75.0014 79.0231c3.1825 0 5.7622-2.5802 5.7622-5.7627 0-3.1824-2.5797-5.7621-5.7622-5.7621s-5.7621 2.5797-5.7621 5.7621c0 3.1825 2.5796 5.7627 5.7621 5.7627z"/><path d="m122.852 79.0231c3.182 0 5.762-2.5802 5.762-5.7627 0-3.1824-2.58-5.7621-5.762-5.7621-3.183 0-5.763 2.5797-5.763 5.7621 0 3.1825 2.58 5.7627 5.763 5.7627z"/><path d="m122.864 130.534c3.182 0 5.762-2.58 5.762-5.762 0-3.183-2.58-5.763-5.762-5.763-3.183 0-5.763 2.58-5.763 5.763 0 3.182 2.58 5.762 5.763 5.762z"/></g></g></g></svg>