<svg fill="none" height="200" viewBox="0 0 200 200" width="200" xmlns="http://www.w3.org/2000/svg" xmlns:xlink="http://www.w3.org/1999/xlink"><linearGradient id="a"><stop offset="0" stop-color="#f7d45c"/><stop offset="1" stop-color="#de3633"/></linearGradient><linearGradient id="b" gradientUnits="userSpaceOnUse" x1="82.8277" x2="111.358" xlink:href="#a" y1="116.936" y2="184.538"/><linearGradient id="c" gradientUnits="userSpaceOnUse" x1="48.7093" x2="115.51" xlink:href="#a" y1="49.1879" y2="124.689"/><path d="m96.5854 182.587c40.5456 0 73.4146-32.721 73.4146-73.085 0-40.3634-32.869-73.0845-73.4146-73.0845-40.546 0-73.415 32.7211-73.415 73.0845 0 40.364 32.869 73.085 73.415 73.085z" fill="#f2e373"/><g clip-rule="evenodd" fill-rule="evenodd"><path d="m126.417 101.93-100.3125 29.747c4.5766 14.498 13.9191 27.871 28.0721 37.758 34.9314 24.356 78.5034 13.993 105.8184-15.09.585-.626 0-1.661-.79-1.306-5.134 2.397-10.901 3.11-16.469 2.037-5.175-.981-9.935-3.483-13.664-7.183-3.73-3.7-6.256-8.427-7.254-13.57-1.294-6.508-.091-13.263 3.371-18.934 3.461-5.672 8.932-9.851 15.336-11.716z" fill="url(#b)"/><path d="m114.831 96.1286c1.981-.8087 3.902-1.7539 5.751-2.8286 9.025-5.1476 19.553-7.0611 29.826-5.4209 10.273 1.6401 19.669 6.7346 26.619 14.4329.108.128.174.287.187.454s-.027.334-.114.478c-.087.143-.217.256-.372.322s-.327.082-.492.047c-12.505-2.619-25.984-3.134-36.251.204-12.377 4.036-21.457 12.793-27.743 23.659-9.209 15.931-13.0007 20.437-27.8775 26.205-25.9229 10.063-50.1088.946-58.2542-21.965-5.1788-16.508-4.3533-34.3005 2.332-50.2642 6.6852-15.9638 18.8043-29.0816 34.2363-37.0576 8.9806-4.7273 19.8709-8.7129 28.9907-11.3367 8.7917-2.4965 23.7517-6.1222 27.6097-15.5325.076-.1753.208-.3208.376-.4141.167-.0933.361-.1292.551-.1021s.366.1156.5.2519c.135.1364.22.3129.244.5023 1.542 11.1208-1.019 16.1857-7.439 22.1917-6.959 6.5153-15.5503 9.4823-23.2559 14.1874-11.7533 7.7497-15.478 21.9038-7.6833 33.5892 4.6322 6.947 12.5216 10.6336 20.8122 10.6336 2.543-.0073 5.076-.3196 7.544-.9299 1.33-.3438 2.634-.7803 3.903-1.3064z" fill="url(#c)"/></g></svg>