<svg fill="none" height="200" viewBox="0 0 200 200" width="200" xmlns="http://www.w3.org/2000/svg"><path d="m182.705 86.0723-6.72-8.7091-38.405-24.7897c.126.7287.263 1.4575.42 2.1799.306 1.3418.643 2.6764 1.01 4.0028.219.8079.444 1.5975.676 2.3689.074.2352.143.4747.211.712 7.589 24.3864 22.735 35.9727 43.066 51.4989 1.324-8.289 1.409-16.7283.25-25.0418z" fill="#ef7730"/><path d="m108.078 121.001c-36.5419-16.343-59.3869-49.514-60.7184-82.8973-.0133-.3175-.1164-.6246-.2973-.8858-.1808-.2612-.432-.4658-.7244-.59s-.614-.163-.9276-.1118c-.3135.0512-.6061.1902-.8438.401-9.5635 8.4296-17.0839 18.9244-21.9919 30.69s-7.075 24.4935-6.337 37.2199c.7381 12.727 4.3618 25.12 10.597 36.239 6.2351 11.119 14.9182 20.674 25.3919 27.942s22.4636 12.057 35.062 14.006 25.4755 1.007 37.6555-2.756 23.344-10.248 32.648-18.964c9.304-8.715 16.503-19.433 21.052-31.342.112-.286.143-.598.09-.9-.052-.303-.187-.585-.389-.817-.202-.231-.464-.403-.757-.496-.292-.093-.605-.104-.904-.032-22.975 5.494-47.129 3.133-68.606-6.706zm75.127-32.6333c-2.971-6.8716-2.971-6.8716-82.652-35.6515-40.1076-14.4907-47.5588-28.4754-18.5206-34.8051 1.4141-.3038 2.8401-.574 4.2779-.8106 11.0565-1.8058 22.3627-1.3859 33.2547 1.235s21.151 7.3901 30.176 14.0279c9.024 6.6378 16.633 15.0106 22.379 24.6275 5.747 9.6169 9.515 20.2843 11.085 31.3768z" fill="#f9d85e"/><path d="m106.708 16.2751-.968-.0861c1.315.0924 2.609.2562 3.906.4053-.231-.0273-.453-.0609-.688-.0882-.735-.0903-1.479-.1596-2.25-.231z" fill="#ef7730"/></svg>