<svg fill="none" height="200" viewBox="0 0 200 200" width="200" xmlns="http://www.w3.org/2000/svg"><path d="m99.9999 16c-46.3898 0-84 37.6102-84 84 0 46.39 37.6102 84 84 84 46.3901 0 84.0001-37.61 84.0001-84 0-46.3898-37.61-84-84.0001-84z" fill="#000"/><path d="m99.9777 20.7178c-43.7729 0-79.26 35.4871-79.26 79.26 0 43.7732 35.4871 79.2602 79.26 79.2602 43.7733 0 79.2603-35.487 79.2603-79.2602 0-43.7729-35.487-79.26-79.2603-79.26z" fill="#fff"/><path d="m99.963 25.0671c-41.3623 0-74.896 33.5337-74.896 74.8961 0 41.3698 33.5337 74.9038 74.896 74.9038 41.37 0 74.903-33.534 74.903-74.9038 0-41.3624-33.533-74.8961-74.903-74.8961z" fill="#000"/><g fill="#fff"><path d="m49.5187 105.536h-9.6052c-.3981 0-.7225-.317-.7225-.715v-9.6052c0-.398.3244-.7224.7225-.7224h9.6052c.3981 0 .7151.3244.7151.7224v9.6052c0 .398-.317.715-.7151.715z"/><path d="m80.7599 108.256h-14.3453c-.5897 0-1.0762-.479-1.0762-1.069v-14.3449c0-.5971.4865-1.0762 1.0762-1.0762h14.3453c.5897 0 1.0689.4791 1.0689 1.0762v14.3449c0 .59-.4792 1.069-1.0689 1.069z"/><path d="m117.161 110.807h-18.805c-.774 0-1.408-.627-1.408-1.401v-18.8122c0-.774.634-1.408 1.408-1.408h18.805c.774 0 1.408.634 1.408 1.408v18.8122c0 .774-.634 1.401-1.408 1.401z"/><path d="m159.017 113.52h-23.545c-.965 0-1.761-.789-1.761-1.762v-23.5452c0-.9657.796-1.7619 1.761-1.7619h23.545c.974 0 1.762.7962 1.762 1.7619v23.5452c0 .973-.788 1.762-1.762 1.762z"/></g></svg>