<svg fill="none" height="200" viewBox="0 0 200 200" width="200" xmlns="http://www.w3.org/2000/svg" xmlns:xlink="http://www.w3.org/1999/xlink"><linearGradient id="a" gradientUnits="userSpaceOnUse" x1="159.798" x2="54.2671" y1="134.811" y2="29.7782"><stop offset="0" stop-color="#ef4136"/><stop offset=".01" stop-color="#ef4136"/><stop offset=".32" stop-color="#df5153"/><stop offset="1" stop-color="#ac0b1b"/></linearGradient><path d="m106.992 20.5854c6.842 0 9.185.8233 13.799 2.4346 1.15.3975 2.441.8518 3.982 1.3487 31.636 10.2924 55.082 40.6442 55.082 75.6663 0 5.849-.831 12.181-2.038 17.753-5.444 22.118-19.52 40.907-38.472 51.803-9.44 5.423-20.393 9.419-31.764 10.185-1.902.128-8.0779.071-12.2729.029-1.5119-.014-2.7612-.029-3.471-.029-41.0914-5.82-71.6917-36.179-71.6917-79.741 0-11.0586 2.1081-22.1318 6.4097-32.3035 4.4647-10.5479 12.1308-19.5555 20.1091-27.3564 7.0272-6.8568 15.7154-10.6473 24.2758-14.3809 1.2422-.5395 2.4773-1.079 3.7053-1.6255 4.4151-1.9662 7.3892-2.3921 11.1299-2.9316 1.5475-.2271 3.2226-.4684 5.1888-.8517 3.4568-.6602 7.0911-.4401 10.697-.2201 1.789.1136 3.577.2201 5.331.2201z" fill="url(#a)"/><path d="m106.992 20.5854c6.842 0 9.185.8233 13.799 2.4346 1.15.3975 2.441.8518 3.982 1.3487 31.636 10.2924 55.082 40.6442 55.082 75.6663 0 5.849-.831 12.181-2.038 17.753-5.444 22.118-19.52 40.907-38.472 51.803-9.44 5.423-20.393 9.419-31.764 10.185-1.902.128-8.0779.071-12.2729.029-1.5119-.014-2.7612-.029-3.471-.029-41.0914-5.82-71.6917-36.179-71.6917-79.741 0-11.0586 2.1081-22.1318 6.4097-32.3035 4.4647-10.5479 12.1308-19.5555 20.1091-27.3564 7.0272-6.8568 15.7154-10.6473 24.2758-14.3809 1.2422-.5395 2.4773-1.079 3.7053-1.6255 4.4151-1.9662 7.3892-2.3921 11.1299-2.9316 1.5475-.2271 3.2226-.4684 5.1888-.8517 3.4568-.6602 7.0911-.4401 10.697-.2201 1.789.1136 3.577.2201 5.331.2201z" stroke="#fff" stroke-width=".851783"/><g clip-rule="evenodd" fill="#fff" fill-rule="evenodd"><path d="m99.9929 16 25.9581 4.1169 23.417 11.925 18.583 18.5831 11.932 23.4098 4.117 25.9581-4.117 25.9581-11.932 23.417-18.583 18.583-23.417 11.932-25.9581 4.117-25.951-4.117-23.4169-11.932-18.5831-18.583-11.925-23.417-4.1169-25.9581 4.1169-25.951 11.925-23.4169 18.5831-18.5831 23.4169-11.925zm-24.4888 8.6243-22.0966 11.2506-17.5255 17.5326-11.2577 22.0966-3.8827 24.4888 3.8827 24.4961 11.2577 22.089 17.5255 17.533 22.0966 11.265 24.4888 3.882 24.4961-3.882 22.089-11.265 17.533-17.533 11.265-22.089 3.882-24.4961-3.882-24.4888-11.265-22.0966-17.533-17.5326-22.089-11.2506-24.4961-3.8827z"/><path d="m99.3966 42.7033c.5537-.3336 1.2704-.149 1.6044.4046l18.434 30.9339c.333.5537.149 1.2777-.405 1.6042-.553.3336-1.277.1491-1.604-.4046l-18.4411-30.9339c-.3265-.5537-.149-1.2706.4117-1.6042z"/><path d="m99.9928 42.533 38.0532 4.1169-.248 2.3282-37.8052-4.0885-37.7978 4.0885-.2485-2.3282z"/><path d="m80.3878 74.6312c0-.6531.5253-1.1712 1.1712-1.1712h36.868c.646 0 1.171.5181 1.171 1.1712 0 .6459-.525 1.1712-1.171 1.1712h-36.868c-.6459 0-1.1712-.5253-1.1712-1.1712z"/><path d="m100.589 42.7033c.554.3336.738 1.0505.405 1.6042l-18.4273 30.9339c-.3336.5537-1.0505.7382-1.6042.4046-.5536-.3265-.7382-1.0505-.4046-1.6042l18.4269-30.9339c.3265-.5536 1.0432-.7382 1.6042-.4046z"/><path d="m74.3898 20.5215 25.6032 21.6495 25.603-21.6495 13.373 26.7602-2.094 1.0505-12.038-24.0984-24.844 21.0036-24.8437-21.0036-12.0314 24.0984-2.094-1.0505z"/><path d="m51.3278 33.0143c.5253-.3833 1.2564-.2698 1.6397.2555l47.0255 64.7355 47.033-64.7355c.383-.5253 1.114-.6388 1.639-.2555.518.3762.639 1.1073.256 1.6326l-47.977 66.0411c-.22.306-.575.483-.951.483-.3691 0-.724-.177-.944-.483l-47.9767-66.0411c-.3833-.5253-.2626-1.2564.2555-1.6326z"/><path d="m82.4319 73.836c.284.3124.3763.7525.2485 1.15l-11.13 34.263 29.0246 21.089 32.978 14.139c.596.256.873.944.618 1.533-.256.597-.944.874-1.541.618l-33.0985-14.189c-.0781-.036-.1562-.078-.2272-.128l-29.8194-21.671c-.4117-.298-.5821-.823-.4259-1.306l10.7537-33.1059-33.0988 7.5099c-.6318.142-1.2635-.2484-1.4055-.8802-.1419-.6317.2556-1.2563.8873-1.4054l35.1147-7.9642c.4046-.0993.8376.0355 1.1215.3478z"/><path d="m45.6776 81.7293c.4898-.4259 1.228-.3762 1.6539.1135l23.7221 27.0942c.4259.489.3762 1.228-.1065 1.653-.4897.426-1.2279.377-1.6538-.106l-23.7222-27.1009c-.4259-.4826-.3762-1.228.1065-1.6538z"/><path d="m64.0192 46.3306-16.2974 36.3001.1845.4472-.4116.2555-7.588 36.1936 27.69 25.078 32.9573 18.91 23.878 12.407 7.758-31.601 32.439 2.392-4.429-26.575 2.314-.384 4.912 29.515-33.433-2.471-7.999 32.574-26.5832-13.813-33.1982-19.045-28.407-25.731-21.3229-20.9889 28.5063-17.6603-12.6774-31.0474zm-19.2786 38.7135-24.4888 15.1689 17.6674 17.39zm1.7603-5.4088 13.6214-30.3519-24.5171 3.6769z"/><path d="m70.287 108.532c.6388.064 1.1144.632 1.0576 1.278l-3.2722 35.853c-.0568.646-.6247 1.121-1.2706 1.064-.6459-.064-1.1215-.631-1.0576-1.277l3.2651-35.853c.0568-.646.6318-1.122 1.2777-1.065z"/><path d="m101.072 130.898c.255.589-.022 1.278-.611 1.533l-33.0915 14.197c-.5963.248-1.2848-.021-1.5403-.618-.2556-.596.0213-1.284.6175-1.54l33.0918-14.189c.5895-.256 1.2775.021 1.5335.617z"/><path d="m35.3567 146.713 4.4293-26.576-2.314-.383-4.9119 29.514 33.4466-2.463 7.9855 32.567 26.5398-13.785-1.0786-2.08-23.8996 12.415-7.7441-31.601z"/><path d="m100.689 99.0418c.305.2201.482.575.482.9441v81.6431c0 .646-.525 1.171-1.171 1.171-.6459 0-1.1712-.525-1.1712-1.171v-80.025l-76.0925 24.723c-.6105.199-1.2706-.135-1.4694-.752-.2058-.611.1349-1.278.7453-1.477l77.6258-25.2194c.3549-.1207.745-.0568 1.051.1632z"/><path d="m136.996 47.0971c.255-.3407.681-.511 1.107-.4471l28.102 4.2163c.355.0497.667.2626.844.5749.178.3123.199.6886.064 1.0222l-12.109 29.6704 27.243 16.8795c.305.1845.504.504.546.8589.036.3618-.085.7168-.341.9658l-20.258 19.931-.042.043h-.007l-.015.014-28.25 25.603c-.327.298-.795.384-1.214.22-.412-.156-.696-.539-.738-.979l-3.259-35.733-11.35-34.9369c-.134-.4046-.035-.8447.249-1.157.284-.3052.71-.4401 1.121-.3478l32.83 7.446-14.658-32.6517c-.178-.3975-.128-.8518.135-1.1925zm14.374 36.215-31.19-7.0769 10.122 31.1468zm-20.337 26.7819 3.017 33.02 26.029-23.587-7.198-34.3836zm24.219-25.0499 6.814 32.5589 17.675-17.39zm-1.76-5.416 10.888-26.6679-24.51-3.6768z"/><path d="m98.8784 99.6238c.1988-.6104.8589-.9511 1.4766-.7453l77.633 25.2195c.617.199.951.866.752 1.477-.199.617-.859.951-1.476.752l-77.6332-25.227c-.6175-.199-.9511-.859-.7524-1.4762z"/><path d="m130.771 109.015c.383.518.262 1.256-.263 1.632l-29.827 21.664c-.525.383-1.256.27-1.6322-.256-.3833-.525-.2697-1.256.2556-1.639l29.8266-21.664c.525-.376 1.256-.263 1.64.263z"/><path d="m132.51 144.548c.518-.298 1.178-.156 1.533.327l14.878 20.485c.376.525.262 1.256-.263 1.64-.518.376-1.256.262-1.633-.263l-14.26-19.634-32.19 18.463c-.561.319-1.2777.128-1.5972-.433-.3265-.561-.1277-1.278.433-1.597z"/><path d="m99.993 17.1997c.646 0 1.171.5253 1.171 1.1712v25.3263c0 .646-.525 1.1712-1.171 1.1712s-1.1712-.5252-1.1712-1.1712v-25.3263c0-.6459.5252-1.1712 1.1712-1.1712z"/><path d="m178.74 74.4182c.199.6175-.142 1.2777-.752 1.4764l-24.084 7.8222c-.618.2059-1.278-.1349-1.477-.7453-.198-.6175.135-1.2777.753-1.4764l24.084-7.8293c.61-.1988 1.27.1348 1.476.7524z"/><path d="m67.5968 144.619c.5253.383.6389 1.115.2556 1.633l-14.8849 20.485c-.3833.525-1.1144.639-1.6397.263-.5253-.384-.6389-1.115-.2555-1.64l14.8849-20.485c.3833-.518 1.1144-.639 1.6396-.256z"/><path d="m21.2669 74.4182c.1988-.6176.8589-.9512 1.4694-.7524l24.0841 7.8293c.6176.1987.9512.8589.7524 1.4764-.1987.6104-.8589.9512-1.4764.7453l-24.0842-7.8222c-.6104-.1987-.9511-.8589-.7453-1.4764z"/></g></svg>