<svg fill="none" height="200" viewBox="0 0 200 200" width="200" xmlns="http://www.w3.org/2000/svg" xmlns:xlink="http://www.w3.org/1999/xlink"><mask id="a" height="97" maskUnits="userSpaceOnUse" width="111" x="44" y="52"><path d="m154.488 52.3586h-109.9582v96.3584h109.9582z" fill="#fff"/></mask><path d="m100.087 16.0798c46.347 0 83.913 37.5589 83.913 83.8967 0 46.3385-37.566 83.8635-83.88 83.8635-46.3475 0-83.8805-37.559-83.8805-83.8635-.033-46.3378 37.533-83.8967 83.8475-83.8967z" fill="#8247e5"/><g mask="url(#a)"><path d="m127.585 81.705c-2.014-1.1552-4.589-1.1552-6.866 0l-16.044 9.5073-10.8931 6.0407-15.7463 9.474c-2.0135 1.156-4.5883 1.156-6.8661 0l-12.313-7.4934c-2.0138-1.1552-3.433-3.4659-3.433-6.0407v-14.3929c0-2.3107 1.1552-4.5882 3.433-6.0407l12.313-7.1966c2.0138-1.1552 4.5886-1.1552 6.8661 0l12.3133 7.4935c2.0134 1.1556 3.433 3.4663 3.433 6.0411v9.507l10.8931-6.338v-9.7714c0-2.3107-1.155-4.5882-3.433-6.0407l-22.9091-13.5346c-2.0138-1.1552-4.5886-1.1552-6.8662 0l-23.4707 13.8315c-2.2778 1.1556-3.4331 3.4663-3.4331 5.7438v27.036c0 2.3111 1.1553 4.5881 3.4331 6.0411l23.2064 13.534c2.0138 1.156 4.5885 1.156 6.8664 0l15.746-9.21 10.8932-6.338 15.746-9.2099c2.014-1.1552 4.589-1.1552 6.867 0l12.313 7.1969c2.013 1.155 3.433 3.466 3.433 6.04v14.393c0 2.311-1.156 4.588-3.433 6.041l-12.016 7.197c-2.014 1.155-4.589 1.155-6.867 0l-12.345-7.197c-2.014-1.155-3.433-3.466-3.433-6.041v-9.21l-10.8942 6.338v9.507c0 2.311 1.1556 4.589 3.4331 6.041l23.2071 13.535c2.013 1.155 4.588 1.155 6.866 0l23.206-13.535c2.014-1.155 3.433-3.466 3.433-6.041v-27.333c0-2.3105-1.155-4.588-3.433-6.0405z" fill="#fff"/></g></svg>