<svg fill="none" height="200" viewBox="0 0 200 200" width="200" xmlns="http://www.w3.org/2000/svg"><path d="m100 184c46.392 0 84-37.608 84-84 0-46.3919-37.608-84-84-84-46.3919 0-84 37.6081-84 84 0 46.392 37.6081 84 84 84z" fill="#196ae5"/><path d="m135.596 74.2222c-2.804-1.2483-6.088.0134-7.337 2.8156l-18.434 41.4032c-1.249 2.804.013 6.089 2.815 7.337 2.804 1.248 6.089-.012 7.337-2.816l18.433-41.4033c1.251-2.8039-.01-6.0883-2.814-7.3365z" fill="#badafb"/><g fill="#fff"><path d="m133.336 84.8566c3.069 0 5.557-2.4882 5.557-5.5575s-2.488-5.5574-5.557-5.5574-5.557 2.4881-5.557 5.5574 2.488 5.5575 5.557 5.5575z"/><path d="m114.902 126.258c3.069 0 5.557-2.488 5.557-5.557s-2.488-5.557-5.557-5.557c-3.07 0-5.558 2.488-5.558 5.557s2.488 5.557 5.558 5.557z"/><path d="m87.3581 74.2222c-2.8039-1.2483-6.0883.0134-7.3365 2.8156l-18.4347 41.4032c-1.2482 2.804.0118 6.089 2.8157 7.337s6.0883-.012 7.3366-2.816l18.4329-41.4033c1.2516-2.8039-.0101-6.0883-2.814-7.3365z"/><path d="m111.478 74.2222c-2.804-1.2483-6.089.0134-7.337 2.8156l-9.2162 20.701c-1.2483 2.8042.0134 6.0882 2.8173 7.3362 2.8039 1.249 6.0879-.013 7.3369-2.817l9.216-20.701c1.247-2.8022-.013-6.0866-2.817-7.3348z"/></g></svg>