<svg fill="none" height="200" viewBox="0 0 200 200" width="200" xmlns="http://www.w3.org/2000/svg" xmlns:xlink="http://www.w3.org/1999/xlink"><radialGradient id="a" cx="0" cy="0" gradientTransform="matrix(116.37643195 118.89282142 -118.89282142 116.37643195 40.8682 40.8682)" gradientUnits="userSpaceOnUse" r="1"><stop offset="0" stop-color="#bafa99"/><stop offset=".157403" stop-color="#aaf8ae"/><stop offset=".319058" stop-color="#9bf6c4"/><stop offset=".486362" stop-color="#a3ebcf"/><stop offset=".68272" stop-color="#b9d9db"/><stop offset=".834858" stop-color="#c9cce4"/><stop offset="1" stop-color="#d9bdec"/></radialGradient><mask id="b" height="168" maskUnits="userSpaceOnUse" width="168" x="16" y="16"><path d="m100 183.875c46.323 0 83.875-37.552 83.875-83.875 0-46.3229-37.552-83.875-83.875-83.875-46.3229 0-83.875 37.5521-83.875 83.875 0 46.323 37.5521 83.875 83.875 83.875z" fill="#d9d9d9"/></mask><g mask="url(#b)"><path d="m40.8682 208.618c92.6458 0 167.7498-75.104 167.7498-167.7498s-75.104-167.7502-167.7498-167.7502-167.7502 75.1044-167.7502 167.7502 75.1044 167.7498 167.7502 167.7498z" fill="url(#a)"/></g><g fill="#7d5aff"><path d="m109.243 43h-41.368v28.0019h41.368c3.827 0 6.925 3.1351 6.925 6.9981s-3.103 6.9985-6.925 6.9985h-34.4431v28.0015h34.4431c19.129 0 34.632-15.6725 34.632-35s-15.503-35-34.632-35z"/><path d="m95.3748 162c11.3222 0 20.5002-9.402 20.5002-21s-9.178-21-20.5002-21c-11.3219 0-20.4998 9.402-20.4998 21s9.1779 21 20.4998 21z"/></g></svg>