<svg fill="none" height="200" viewBox="0 0 200 200" width="200" xmlns="http://www.w3.org/2000/svg" xmlns:xlink="http://www.w3.org/1999/xlink"><linearGradient id="a" gradientUnits="userSpaceOnUse" x1="100" x2="100" y1="16" y2="184"><stop offset="0" stop-color="#4fa89b"/><stop offset="1" stop-color="#6acebb"/></linearGradient><path d="m100 184c46.392 0 84-37.608 84-84 0-46.3919-37.608-84-84-84-46.3919 0-84 37.6081-84 84 0 46.392 37.6081 84 84 84z" fill="url(#a)"/><path d="m58.6552 125.2v-39.5359l29.9824 22.5649v16.971h7.6524v-18.564c-.0014-.69-.1627-1.37-.4712-1.987s-.7558-1.154-1.3068-1.569l-36.3608-27.3755c-.6651-.4939-1.4541-.7938-2.2793-.8663-.8253-.0725-1.6545.0853-2.3955.4558-.7409.3705-1.3647.9392-1.8019 1.6429-.4371.7037-.6706 1.5148-.6745 2.3432v45.9199zm82.9188 0v-39.5359l-29.982 22.5649v16.971h-7.652v-18.564c.001-.69.162-1.37.471-1.987.308-.617.756-1.154 1.307-1.569l36.36-27.3643c.665-.4934 1.453-.7932 2.277-.8661s1.653.0839 2.393.4531c.741.3691 1.365.9361 1.803 1.6382s.673 1.5118.679 2.3392v45.9199z" fill="#fff"/></svg>