<svg fill="none" height="200" viewBox="0 0 200 200" width="200" xmlns="http://www.w3.org/2000/svg" xmlns:xlink="http://www.w3.org/1999/xlink"><clipPath id="a"><path d="m0 0h200v200h-200z"/></clipPath><g clip-path="url(#a)"><path d="m200 0h-200v200h200z" fill="#dfe7dd"/><path d="m125.468 47.1961v-8.49h-8.49-8.488-8.49-8.49-8.488-8.49v8.49h-8.488v8.49h-8.49v8.488 8.49h8.49 8.488v-8.49h8.49v-8.488h8.488 8.49 8.49 8.488 8.49 8.488v-8.49z" fill="#5f6264"/><g fill="#414545"><path d="m74.5339 38.7061h-8.49v8.49h8.49z"/><path d="m66.044 47.196h-8.49v8.49h8.49z"/><path d="m142.446 64.1741h-8.49-8.488-8.49-8.488-8.49-8.49-8.488v8.49h8.488 8.49 8.49 8.488 8.49 8.488 8.49 8.488v-8.49z"/></g><path d="m74.532 89.6421v8.488 8.4899h8.49 8.488v-8.4899-8.488h-8.488z" fill="#61bcd9"/><path d="m125.468 89.6421h-8.49v8.488 8.4899h8.49 8.488v-8.4899-8.488z" fill="#61bcd9"/><path d="m74.532 132.088h-8.488v-8.49h-8.49v8.49 8.488 8.49h8.49v8.488h8.488 8.49v-8.488-8.49h-8.49z" fill="#a17644"/><path d="m125.468 132.088v8.488 8.49 8.488h8.488v-8.488-8.49-8.488z" fill="#a17644"/><path d="m66.0437 81.1521h-8.49v8.49h8.49z" fill="#d1ab87"/><path d="m108.49 81.1521h-8.4902v8.49h8.4902z" fill="#d1ab87"/><path d="m125.468 115.108h-8.49-8.49v-8.488-8.4899h-8.4882v8.4899 8.49h-8.49-8.49-8.49-8.49v-8.49-8.4899h-8.49-8.49v8.4899 8.49h8.49v8.49h8.49v8.49h8.49v8.49h8.49v8.49 8.49h-8.49-8.49v-8.49h-8.49v8.49 8.49 8.49 8.49 8.49 8.48h8.49 8.49 8.49v-8.49-8.49-8.49h8.49 8.49 8.4902 8.49 8.49v-8.49h8.49v-8.49h-8.49v-8.49-8.49-8.49h8.49v-8.49-8.49h-8.492zm-8.49 42.446h-8.49-8.4882-8.49v-8.49h8.49 8.4902 8.49v8.49zm-8.488-25.466h-8.4902v-8.49h8.4902 8.49v8.49z" fill="#d1ab87"/><g fill="#1c1c1a"><path d="m66.044 38.7061h-8.49v8.49h8.49z"/><path d="m133.958 38.7061h-8.49v8.49h8.49z"/><path d="m83.0219 38.706h8.488 8.49 8.4901 8.488 8.49v-8.488h-8.49-8.488-8.4901-8.49-8.488-8.49-8.488v8.488h8.488z"/><path d="m125.468 55.686h-8.49-8.488-8.49-8.49-8.488v8.488h8.488 8.49 8.49 8.488 8.49 8.488 8.49 8.488v-8.488h-8.488v-8.49h-8.49v8.49z"/><path d="m150.934 64.1741v8.49h-8.49-8.49-8.49-8.49-8.49-8.4842-8.49-8.49v-8.49h-8.49v8.49h-8.49-8.49v-8.49-8.49-8.49h-8.49v8.49 8.49 8.49 8.49 8.49 8.49h8.49 8.49v8.4899 8.49h8.49 8.49 8.49 8.49v-8.494-8.4899h8.4902v8.4899 8.49h8.49 8.49 8.49v8.49 8.49 8.49 8.49 8.49 8.49h8.49v-8.49-8.49-8.49-8.49-8.49-8.49-8.49-8.4899-8.49-8.49h8.49 8.49v-8.49-8.49h-8.496zm-93.3802 25.468v-8.49h8.49v8.49zm33.956 16.9779h-8.49-8.49v-8.4899-8.49h8.49 8.49v8.49zm8.49-16.9779v-8.49h8.4902v8.49zm33.9562 8.488v8.4899h-8.49-8.49v-8.4899-8.49h8.49 8.49z"/><path d="m116.978 132.088v-8.49h-8.488-8.49v8.49h8.49z"/><path d="m40.5759 106.62v8.488 8.49h8.49v8.49 8.488 8.49 8.488 8.49 8.488 8.49 8.488 8.49h8.488v-8.49-8.488-8.49-8.488-8.49-8.488-8.49-8.488-8.49-8.49h-8.488v-8.488-8.4899h-8.49z"/><path d="m91.51 149.066v8.488h8.49 8.49 8.488v-8.488h-8.488-8.49z"/><path d="m108.49 174.532h-8.49-8.49-8.488v8.49 8.488 8.49h8.488v-8.49-8.488h8.49 8.49 8.488 8.49v-8.49h-8.49z"/><path d="m133.958 166.044h-8.49v8.49h8.49z"/></g></g></svg>