<svg fill="none" height="200" viewBox="0 0 200 200" width="200" xmlns="http://www.w3.org/2000/svg" xmlns:xlink="http://www.w3.org/1999/xlink"><filter id="a" color-interpolation-filters="sRGB" filterUnits="userSpaceOnUse" height="85.2377" width="82.7998" x="78.6829" y="83.5403"><feFlood flood-opacity="0" result="BackgroundImageFix"/><feBlend in="SourceGraphic" in2="BackgroundImageFix" mode="normal" result="shape"/><feColorMatrix in="SourceAlpha" result="hardAlpha" type="matrix" values="0 0 0 0 0 0 0 0 0 0 0 0 0 0 0 0 0 0 127 0"/><feOffset dy="2.43768"/><feGaussianBlur stdDeviation="3.0471"/><feComposite in2="hardAlpha" k2="-1" k3="1" operator="arithmetic"/><feColorMatrix type="matrix" values="0 0 0 0 0 0 0 0 0 0 0 0 0 0 0 0 0 0 0.1 0"/><feBlend in2="shape" mode="normal" result="effect1_innerShadow_8_2207"/></filter><filter id="b" color-interpolation-filters="sRGB" filterUnits="userSpaceOnUse" height="85.2382" width="82.8" x="96.7957" y="91.8196"><feFlood flood-opacity="0" result="BackgroundImageFix"/><feBlend in="SourceGraphic" in2="BackgroundImageFix" mode="normal" result="shape"/><feColorMatrix in="SourceAlpha" result="hardAlpha" type="matrix" values="0 0 0 0 0 0 0 0 0 0 0 0 0 0 0 0 0 0 127 0"/><feOffset dy="2.43768"/><feGaussianBlur stdDeviation="3.0471"/><feComposite in2="hardAlpha" k2="-1" k3="1" operator="arithmetic"/><feColorMatrix type="matrix" values="0 0 0 0 0 0 0 0 0 0 0 0 0 0 0 0 0 0 0.1 0"/><feBlend in2="shape" mode="normal" result="effect1_innerShadow_8_2207"/></filter><linearGradient id="c" gradientUnits="userSpaceOnUse" x1="99.382" x2="99.382" y1="16.4526" y2="184.782"><stop offset="0"/><stop offset="1" stop-color="#2d3749"/></linearGradient><linearGradient id="d"><stop offset="0" stop-color="#30ffb4"/><stop offset="1" stop-color="#00b68a"/></linearGradient><linearGradient id="e" gradientUnits="userSpaceOnUse" x1="58.8179" x2="97.5426" xlink:href="#d" y1="107.838" y2="126.362"/><linearGradient id="f"><stop offset="0" stop-color="#ffe353"/><stop offset="1" stop-color="#01e887"/></linearGradient><linearGradient id="g" gradientUnits="userSpaceOnUse" x1="87.962" x2="129.184" xlink:href="#f" y1="105.211" y2="125.033"/><linearGradient id="h" gradientUnits="userSpaceOnUse" x1="76.0953" x2="102.623" xlink:href="#d" y1="127.269" y2="134.955"/><linearGradient id="i" gradientUnits="userSpaceOnUse" x1="104.876" x2="138.196" xlink:href="#f" y1="116.641" y2="131.409"/><mask id="j" height="73" maskUnits="userSpaceOnUse" width="73" x="63" y="64"><path d="m135.09 100.617c0 19.721-15.987 35.707-35.7075 35.707-19.7207 0-35.7075-15.986-35.7075-35.707 0-19.7206 15.9868-35.7073 35.7075-35.7073 19.7205 0 35.7075 15.9867 35.7075 35.7073z" fill="#fff"/></mask><path d="m92.8478 20.7509c4.0433-2.3345 9.0252-2.3345 13.0682 0l59.365 34.2742c4.044 2.3345 6.535 6.6487 6.535 11.3177v68.5482c0 4.669-2.491 8.983-6.535 11.318l-59.365 34.274c-4.043 2.335-9.0249 2.335-13.0682 0l-59.3649-34.274c-4.0433-2.335-6.5342-6.649-6.5342-11.318v-68.5482c0-4.669 2.4909-8.9832 6.5342-11.3177z" fill="url(#c)"/><path d="m135.09 100.617c0 19.721-15.987 35.707-35.7075 35.707-19.7207 0-35.7075-15.986-35.7075-35.707 0-19.7206 15.9868-35.7073 35.7075-35.7073 19.7205 0 35.7075 15.9867 35.7075 35.7073z" fill="#fff"/><g mask="url(#j)"><path d="m93.6903 174.62c22.8647 0 41.3997-18.536 41.3997-41.4 0-22.865-18.535-41.4004-41.3997-41.4004-22.8646 0-41.4 18.5354-41.4 41.4004 0 22.864 18.5354 41.4 41.4 41.4z" fill="url(#e)"/><g filter="url(#a)"><path d="m120.083 166.34c22.865 0 41.4-18.535 41.4-41.4 0-22.864-18.535-41.3997-41.4-41.3997-22.8647 0-41.4001 18.5357-41.4001 41.3997 0 22.865 18.5354 41.4 41.4001 41.4z" fill="url(#g)"/></g><path d="m99.3827 189.109c22.8653 0 41.4003-18.535 41.4003-41.4 0-22.864-18.535-41.4-41.4003-41.4-22.8646 0-41.4 18.536-41.4 41.4 0 22.865 18.5354 41.4 41.4 41.4z" fill="url(#h)"/><g filter="url(#b)"><path d="m138.196 174.62c22.864 0 41.4-18.536 41.4-41.4 0-22.865-18.536-41.4004-41.4-41.4004-22.865 0-41.4003 18.5354-41.4003 41.4004 0 22.864 18.5353 41.4 41.4003 41.4z" fill="url(#i)"/></g></g></svg>