<svg fill="none" height="200" viewBox="0 0 200 200" width="200" xmlns="http://www.w3.org/2000/svg"><path d="m184.083 100.586c0 46.311-37.459 83.849-83.663 83.849-46.2045 0-83.6632-37.538-83.6632-83.849 0-46.3014 37.4587-83.8397 83.6632-83.8397 46.204 0 83.663 37.5383 83.663 83.8397z" fill="#f0827d"/><path d="m180.794 100.312c0 44.436-36.027 80.462-80.462 80.462-44.4362 0-80.4624-36.026-80.4624-80.462 0-44.4358 36.0262-80.4619 80.4624-80.4619 44.435 0 80.462 36.0261 80.462 80.4619z" fill="#000"/><path d="m176.257 100.153c0 41.906-34.028 75.881-75.996 75.881-41.9778 0-76.0054-33.975-76.0054-75.881 0-41.9157 34.0276-75.8903 76.0054-75.8903 41.968 0 75.996 33.9746 75.996 75.8903z" stroke="#fff" stroke-width="1.12502"/><path d="m70.9553 134.976v-17.862l-7.7287 2.405v-9.32l7.7287-2.459v-40.7835h14.6528l19.9939 29.7831 10.532-3.3338v-26.4493h13.989v21.9924l8.498-2.6882v9.5504l-8.498 2.6971v36.4678h-15.112l-17.7479-26.175-12.3183 3.9v22.275zm13.9895-31.648 7.0744-2.273-7.0744-10.4347zm31.1892 9.046v-9.462l-5.288 1.627z" fill="#f0827d"/></svg>