<svg fill="none" height="200" viewBox="0 0 200 200" width="200" xmlns="http://www.w3.org/2000/svg"><path d="m100 184.406c46.62 0 84.413-37.699 84.413-84.203 0-46.5041-37.793-84.203-84.413-84.203-46.6201 0-84.4133 37.6989-84.4133 84.203 0 46.504 37.7932 84.203 84.4133 84.203z" fill="#002e33"/><path d="m130.355 92.7802c-2.203-14.3006-14.36-24.8681-29.53-24.8681-15.4919 0-28.1294 10.4189-31.2861 24.8681h-13.4959v10.7848h12.927c1.7609 16.677 15.3852 28.927 32.11 28.927 12.845 0 23.275-5.076 27.853-13.449l-11.32-7.231c-2.925 4.82-9.284 7.864-16.28 7.864-10.0479 0-16.9166-6.09-18.4416-16.111h47.3146 10.181l3.569-10.7848zm-30.293-13.1942c8.522 0 15.007 5.4534 15.771 13.1942h-32.4347c2.1627-8.1201 8.1413-13.1942 16.6637-13.1942z" fill="#ccf7ed"/></svg>