<svg width="32" height="32" viewBox="0 0 32 32" fill="none" xmlns="http://www.w3.org/2000/svg">
<path d="M16 0C12.8355 0 9.74202 0.93835 7.11083 2.69645C4.47965 4.45456 2.42893 6.95342 1.21793 9.87704C0.00692503 12.8007 -0.309918 16.0177 0.307445 19.1214C0.924809 22.2251 2.44855 25.076 4.68619 27.3136C6.92383 29.5513 9.77472 31.0752 12.8784 31.6926C15.9821 32.3099 19.1993 31.9931 22.1229 30.7821C25.0465 29.5711 27.5453 27.5203 29.3034 24.8891C31.0615 22.2579 32 19.1645 32 16C32 11.7565 30.3142 7.68686 27.3136 4.68628C24.3131 1.6857 20.2435 0 16 0V0ZM21.5999 24H10.4119C9.77542 24 9.16492 23.7471 8.71484 23.297C8.26475 22.847 8.01187 22.2365 8.01187 21.5999V10.4119C8.01187 9.77543 8.26475 9.16502 8.71484 8.71493C9.16492 8.26484 9.77542 8.01197 10.4119 8.01197H21.5999C22.2365 8.01197 22.8469 8.26484 23.297 8.71493C23.7471 9.16502 24 9.77543 24 10.4119V21.5999C24 21.9156 23.9377 22.2281 23.8167 22.5196C23.6958 22.8111 23.5185 23.076 23.2951 23.2989C23.0717 23.5218 22.8064 23.6986 22.5146 23.8189C22.2228 23.9392 21.9102 24.0007 21.5946 24H21.5999Z" fill="#FF562E"/>
</svg>
