<svg fill="none" height="200" viewBox="0 0 200 200" width="200" xmlns="http://www.w3.org/2000/svg"><path d="m100 15.917c-16.63 0-32.8869 4.9312-46.7143 14.1703-13.8273 9.2392-24.6042 22.3712-30.9683 37.7354-6.364 15.3644-8.0291 32.2703-4.7847 48.5813 3.2443 16.31 11.2519 31.292 23.0111 43.051 11.7592 11.76 26.7412 19.768 43.0516 23.013 16.3105 3.244 33.2176 1.579 48.5816-4.785s28.496-17.142 37.735-30.969c9.239-13.828 14.171-30.084 14.171-46.714 0-22.3004-8.859-43.6871-24.628-59.4557-15.768-15.7686-37.155-24.6273-59.455-24.6273zm29.429 126.125h-58.7955c-3.3448 0-6.5531-1.33-8.9184-3.695s-3.6942-5.573-3.6942-8.918v-58.7955c0-3.3448 1.3289-6.5526 3.6942-8.9179s5.5736-3.6942 8.9184-3.6942h58.7955c3.345 0 6.553 1.3289 8.918 3.6942s3.695 5.5731 3.695 8.9179v58.7955c0 1.659-.328 3.301-.964 4.833-.635 1.532-1.567 2.924-2.741 4.095s-2.568 2.101-4.102 2.733c-1.533.632-3.176.955-4.834.952z" fill="#ff562e"/></svg>