<svg fill="none" height="200" viewBox="0 0 200 200" width="200" xmlns="http://www.w3.org/2000/svg" xmlns:xlink="http://www.w3.org/1999/xlink"><mask id="a" height="170" maskUnits="userSpaceOnUse" width="170" x="15" y="15"><path d="m184.083 15.917h-168.166v168.166h168.166z" fill="#fff"/></mask><g mask="url(#a)"><path d="m184.083 100c0-46.4378-37.645-84.083-84.083-84.083-46.4378 0-84.083 37.6452-84.083 84.083 0 46.438 37.6452 84.083 84.083 84.083 46.438 0 84.083-37.645 84.083-84.083z" fill="#fff"/><g fill="#353340"><path d="m82.4332 82.0218c-13.5744-7.5725-18.8607-1.6556-20.0593 8.8615-3.1203-20.2308 3.2494-27.8781 14.5762-22.7486 4.8878 2.2429 9.4123 5.206 13.4218 8.79 2.3421 2.0529 5.3632 3.1615 8.4772 3.1111"/><path d="m98.792 80.0358c3.133-.0437 6.152-1.1826 8.534-3.2187 4.107-3.5193 8.69-6.442 13.613-8.6824 11.344-5.1295 17.722 2.5178 14.598 22.7486-1.437 1.0187-2.857 2.0609-4.26 3.1254.133-3.1859-.305-6.8818-.354-9.6616-.156-9.054-12.884-5.7714-19.46 1.8528-3.818 4.4274 1.38 10.4835 7.318 14.5071 1.062.302 2.147.522 3.244.656-2.821 2.314-5.635 4.636-8.441 6.968-4.126-3.875-9.406-8.8418-14.6823-13.5029"/><path d="m98.9582 80.0349c-3.0925-.0677-6.0661-1.2045-8.415-3.2171-4.1012-3.5184-8.6774-6.4411-13.5937-8.6828-11.3277-5.1278-17.6974 2.5179-14.5762 22.7483 1.4101 1.0014 2.7924 2.0146 4.2542 3.1245-.1316-3.1859.3056-6.8801.3519-9.6645.1568-9.0537 12.8668-5.7702 19.4278 1.8523 3.8127 4.4283-1.3765 10.4852-7.3052 14.5064-1.0619.302-2.1454.522-3.241.658 2.3939 1.965 5.1472 4.242 8.4273 6.969 4.1213-3.876 9.3962-8.8466 14.6682-13.5094 5.2725-4.6624.0017-14.7847.0017-14.7847zm4.9758 41.0331c2.542 5.828 6.798 10.742 12.202 14.091 12.946 6.399 20.465-3.554 17.182-14.249-1.473-4.8-6.989-14.296-15.566-17.79-2.153-.878-16.201 12.23-13.818 17.948zm5.876-9.477c.61-3.427 2.265-3.144 3.177-2.754 3.708 1.589 8.165 5.492 9.742 9.425 2.252 5.621-1.612 9.152-6.652 5.876-4.598-2.99-7.113-7.781-6.267-12.547z"/><path d="m80.1636 103.12c-8.5773 3.494-14.0927 12.99-15.5663 17.789-3.2826 10.695 4.2357 20.649 17.1824 14.25 5.4044-3.349 9.6607-8.264 12.203-14.091 2.3816-5.718-11.6661-18.825-13.8191-17.948zm1.6754 21.017c-5.0399 3.277-8.9048-.255-6.6522-5.875 1.5761-3.934 6.0359-7.834 9.7422-9.425.9123-.391 2.5675-.673 3.1767 2.754.8467 4.766-1.6682 9.557-6.2676 12.547z"/></g><path d="m120.962 68.1346c24.741-8.5652 10.128 35.3094-22.0066 35.3094-32.1349 0-46.7482-43.8779-22.0071-35.3094-26.9654-14.008-33.9543 21.0934-1.6232 40.2914 9.6057 5.704 19.2832 16.209 6.4525 26.734 8.1262-4.045 10.1388-11.358 17.1769-11.358 7.0385 0 9.0505 7.312 17.1765 11.358-12.83-10.525-3.153-21.03 6.453-26.734 32.332-19.1959 25.343-54.2994-1.622-40.2914z" fill="#00000e"/></g></svg>