<svg fill="none" height="200" viewBox="0 0 200 200" width="200" xmlns="http://www.w3.org/2000/svg"><path d="m99.9994 184c46.3916 0 83.9996-37.608 83.9996-84.0002 0-46.3918-37.608-83.9998-83.9996-83.9998-46.3919 0-83.9999 37.608-83.9999 83.9998 0 46.3922 37.608 84.0002 83.9999 84.0002z" fill="#fafafa" stroke="#000"/><g fill="#000"><path d="m99.9996 167.263c-32.823 0-60.2069-23.636-66.0869-54.768h-8.463c5.964 35.805 37.0649 63.105 74.5499 63.105 37.4854 0 68.5964-27.3 74.5494-63.105h-8.463c-5.88 31.143-33.263 54.768-66.0864 54.768z"/><path d="m99.9993 24.3999c-41.7479 0-75.5999 33.8519-75.5999 75.5999 0 1.3962.042 2.7822.1155 4.1682h33.5265v38.231h20.7584v-18.176h32.9492l6.216 18.176h20.758l-8.977-26.219c3.958-3.265 7.15-7.36 9.271-12.012h36.467c.073-1.375.115-2.772.115-4.1682 0-41.748-33.852-75.5999-75.5997-75.5999zm21.1887 71.4314v-13.125c0-7.0455-6.111-12.6-13.902-12.6h-14.5632c-7.791 0-13.923 5.565-13.923 12.6v13.125h-45.9269c.1785-2.835.546-5.607 1.0605-8.337h24.108v-4.7985c0-18.354 15.5819-33.3689 34.6709-33.3689h14.5637c19.099 0 34.671 15.0254 34.671 33.3689v4.7985h24.108c.514 2.73.882 5.502 1.06 8.337z"/></g></svg>