<svg fill="none" height="200" viewBox="0 0 200 200" width="200" xmlns="http://www.w3.org/2000/svg" xmlns:xlink="http://www.w3.org/1999/xlink"><mask id="a" height="168" maskUnits="userSpaceOnUse" width="168" x="16" y="16"><path d="m100 184c46.392 0 84-37.608 84-84 0-46.3919-37.608-84-84-84-46.3919 0-84 37.6081-84 84 0 46.392 37.6081 84 84 84z" fill="#d9d9d9"/></mask><mask id="b" height="84" maskUnits="userSpaceOnUse" width="84" x="58" y="58"><path d="m141.274 58.7256h-82.5484v82.5484h82.5484z" fill="#fff"/></mask><mask id="c" height="84" maskUnits="userSpaceOnUse" width="84" x="58" y="58"><path d="m141.274 58.7256h-82.5484v82.5484h82.5484z" fill="#fff"/></mask><g mask="url(#a)"><path d="m184 16h-168v168h168z" fill="#000"/><g mask="url(#b)"><g fill="#fff" mask="url(#c)"><path d="m141.274 58.7256h-76.7012l21.8363 25.7443c3.6304-3.1799 8.3855-5.1071 13.5909-5.1071 11.398 0 20.637 9.2395 20.637 20.6372 0 5.141-1.879 9.843-4.989 13.456l25.626 22.05z"/><path d="m131.171 141.274-20.295-23.732c-3.158 1.962-6.885 3.095-10.876 3.095-11.3976 0-20.6372-9.24-20.6372-20.6375 0-3.9552 1.1128-7.6512 3.0426-10.7907l-23.6798-20.6202v72.6854z"/></g></g></g></svg>