<svg fill="none" height="200" viewBox="0 0 200 200" width="200" xmlns="http://www.w3.org/2000/svg"><path d="m100 184c46.392 0 84-37.608 84-84 0-46.3919-37.608-84-84-84-46.3919 0-84 37.6081-84 84 0 46.392 37.6081 84 84 84z" fill="#000"/><g fill="#fff"><path d="m138.338 71.9589.389 1.1435-.418 1.0021.354 1.0021-.272 1.008.095 1.0022-.106 1.0079.118 1.008.135 1.008-.43 1.0965 1.291-.507.719-.8429.731-.8312 1.02-.4303.943-.5246.849-.6661.595-.8194-.212 1.1907-.537.9962-.878.7369-.784.7899-1.014.5069-.978.56-1.521.4716-.1 1.0964-.048 1.0611-.035 1.0551.177 1.0552.283 1.0611-.478 1.0551.431 1.0611-.148 1.0551.207 1.0552-.03 1.061-.012 1.0611-.041 1.0551-.082 1.0552-.348 1.0552.094 1.0551.271 1.0552.136 1.0551-.277 1.0607.206 1.056-.006 1.061-.342 1.055.437 1.061-.201 1.055.083 1.061.023 1.055-.312 1.061.289 1.061-.366 1.055.372 1.061.106 1.062-.513 1.055.471 1.061-.194 1.061-.053 1.055-.03 1.061.301 1.061-.283 1.061.195 1.061-.219 1.067.272 1.256-1.256.088-1.061-.106-1.067-.088-1.061-.331-1.061.49-1.061-.106-1.061-.23-1.067.312-1.061-.029-1.061.094-1.067-.1-1.067-.448-1.273.448.512-1.232-.188-1.085.212-1.055.147-1.061-.212-1.085.425-1.031.053-1.067.059-1.067.118-1.061-.407-1.097.489-1.031.195-1.055.023-1.067.083-1.067-.213-1.085.036-1.067.094-1.061-.041-1.073.566-1.031-.442-1.103.359-1.037-.035-1.073.212-1.0492.112-1.061-.171-1.0788.018-1.0669.501-1.0375-.183-1.0787.206-1.0552.183-1.0552.059-1.0669-.094-1.0787.218-1.0493.236-1.0552-.254-1.0905.354-1.0434.136-1.061-.112-1.0787-.166-1.0847.166-1.061.023-1.067.542-1.0316-.347-1.0964.07-1.0669.059-1.067.295-1.0492-.23-1.0906.542-1.0374v-1.2026l-1.226.0413-1.102.3124-1.096.0177-1.103-.5187-1.102.3772-1.096-.3419-1.109.0708-1.096.0648-1.108-.0118-1.103.2535-.937.0177.089.8842.141 1.061.13 1.0611-.336 1.0905.365 1.0434-.271 1.0846.047 1.067.548 1.0316-.123 1.0787.123 1.0551-.253 1.0906.489 1.0316-.224 1.0846-.059 1.0787.23 1.0493.33 1.0492.183 1.0552-.024 1.067-.064 1.0787.283 1.0492-.301 1.0906.442 1.0316-.195 1.0846.048 1.061.371 1.0434-.365 1.0964.518 1.0317-.141 1.079-.136 1.078.631 1.02-.153 1.085.006 1.067.023 1.067-.053 1.078.077 1.061.094 1.067.106 1.061.525 1.032-.348 1.102-.029 1.073.442 1.032v1.073l.017 1.072.383 1.044-.029 1.073-.277 1.09.041 1.073.395 1.049-.006 1.055-1.043-.094-1.061.124-1.067.171-1.061-.248-1.061.024-1.061-.024-1.061.271-1.061-.312-1.067.218-1.061.018-1.067.047-1.067-.195-1.073.024-.165-1.067.1-1.067-.024-1.061-.194-1.067.448-1.061.024-1.061-.036-1.061-.277-1.067.165-1.061-.076-1.067.288-1.061-.171-1.061-.3-1.067.224-1.061.188-1.067-.2-1.061.183-1.067-.13-1.061-.141-1.067.353-1.061-.477-1.061.471-1.067-.153-1.0611-.171-1.061.318-1.0611-.477-1.061.195-1.067.1-1.061-.212-1.0611.277-1.0669.165-1.0611-.442-1.0669.112-1.0611.253-1.0669-.259-1.067.206-1.061-.083-1.067.012-1.0669-.012-1.067-.336-1.061.366-1.067-.389-1.0669.047-1.0611.401-1.0669.112-1.067-.448-1.0669.283-1.067-.148-1.0728-.117-.9078-.95-.0884-1.102-.3537-1.096.3242-1.103.1886-1.102-.2122-1.1022-.0943-1.1023.3478-1.1023-.283-1.1024-.2475-1.1082.3949-1.1082-.1415-.1414 1.0552.2063 1.0551.112 1.0552-.0767 1.0493-.336 1.0551.0236 1.0552.0649 1.0492-.0118 1.0552-.0472 1.0552.1886 1.0551.1769 1.0493-.3124 1.0551.1179 1.0552-.1946 1.0493.2063 1.0551.1651 1.0552.1533 1.0492-.0177 1.0493-.1769 1.0552.0767 1.0492-.3183 1.0552.4303 1.0551-.4068 1.0493.4127 1.0552-.3478 1.0551.3065 1.0493-.224 1.0555-.2594 1.055.3301 1.055-.1532 1.055-.0826 1.055.4009 1.055-.5364 1.056.1886 1.055.2122 1.055-.224 1.049.1474 1.061-.2712 1.049-.0295 1.062.5424 1.055-.1828 1.055-.2534 1.055.0825 1.061v1.096l.4185-.288.0177.79 1.0257-.619.9903-.466.9078-.619 1.0433-.389.843-.737 1.1732-.625-1.0494.843-.8135.778-.9667.584-.9903.554-.6603.973-.8252.772-.9196.548.112.949-.1061 1.014-.2063 1.02.3183 1.02-.3006 1.013.0707 1.02-.2535 1.02.224 1.032 1.0729.271 1.0551-.154 1.0611.13 1.061-.407 1.0611.307 1.0613-.236 1.061.148 1.061.212 1.061-.159 1.061-.301 1.061-.094 1.061.294 1.061-.135 1.061.171 1.061.088 1.061-.424 1.061.147 1.061.33 1.061-.277 1.061.324 1.062-.395 1.061.413 1.061-.124 1.061-.218 1.061.142 1.061-.266 1.055-.011 1.061.076 1.061.301 1.061-.254 1.061.213 1.061-.142 1.061.218 1.061-.177 1.061.106 1.061.012 1.061-.017 1.062.053 1.066-.118 1.062.124 1.061.076 1.067-.171 1.061-.053 1.061-.318 1.061.13 1.067.029 1.061.253 1.061-.359 1.067.371 1.061.012 1.067-.212 1.067.029.949-.088.082-.943.153-1.067-.188-1.067-.053-1.067.312-1.067.03-1.067.07-1.067-.176-1.067-.336-1.067.353-1.067.071-1.067-.1-1.067-.071-1.067-.053-1.067-.189-1.067.401-1.066.053-1.067-.395-1.067.307-1.067-.413-1.067.136-1.067.359-1.067-.147-1.073-.224-1.067.106-1.067-.259-1.061.041-1.0669.141-1.0669.307-1.067.018-1.0669-.425-1.067.425-1.0669-.124-1.067-.1-1.0669-.254-1.067.448-1.0669-.448-1.067.047-1.0728.301-1.0669.018-1.067.065-1.0728-.077-1.067-.024-1.0669.071-1.0729-.194-1.0669.347-1.067-.053-1.0669-.271-1.0729-.012-1.0728-.153-1.0669.33-1.0729-.023-1.0728-.16-1.0198-1.055.1591-1.096-.3242-1.102.1356-1.103.0825-1.096-.3301-1.103.2122-1.102-.1179-1.102.0059-1.108-.1179-1.091.0354z"/><path d="m87.6967 84.1374-1.2614.112-1.2851-.5423 1.2084-.7074.4186-1.4442-.6367-1.0316-.7604-.8783-.6248-.9373-.4421-1.0846-.8725-.7545-.7545-.8548-.9314-.4951-.5069-1.0493-1.0846-.2476-.7251-.8252-1.1082-.1002-.8724-.5895-.9668-.3832-1.061-.3065-1.1259-.0236-1.0316-.4716-1.1259.0885-1.0787-.283-1.1141.2004-1.0905-.5246-1.0611.1474-1.0552.1002-1.0787-.0825-.9903.5305-1.0846-.0472-1.0552.1828-1.0198.3242-.8017.8547-1.0139.4657-1.1966.1768-.6779 1.0139-1.0021.5423-.8724.7251-.8606.7781-.6544.9373-.7604.8134-.501.9845-.2594 1.0964-.7781.837-.4244 1.0139-.2005 1.0965-.5187.9844v1.1377l-.1591 1.0846-.4245.9903-.3537 1.0139-.2004 1.0493.1769 1.1023-.1179 1.0551-.0177 1.0611-.4775 1.0257.2948 1.0846-.2535 1.0493.1179 1.0728-.2181 1.0552-.1415 1.0669-.1002 1.2029.8429.619.6602.742 1.067.313.5069.943.9255-.743.8665-.825.9786-.254.9667-.283 1.0669.054.8253-.773 1.0846.101.8194-.4426-.9196.4776-1.0257.466-.9667.583-.9314.643-1.0846.365-.8194.867-.9785.347.7663.608.507 1.043 1.173.33.6308.914.8311.695.672.867.8842.642.6779.861 1.0316.478.5482.996.8253.701.7427.79.7369.802 1.0433.471.896.625.5718.985.8724.66.7487.79-.5129.766-.4067.831-.2358.92-.3242 1.143-.8371.896-.613 1.002-.4893 1.103-.3831 1.155-.7428.973-.2358 1.073-.3124 1.031-.7545.908 1.0728-.071 1.0434.165 1.0434-.442 1.0433.171 1.0434.236 1.0434-.43 1.0433.106 1.0434-.106 1.0434.483 1.0433-.094 1.0493-.254 1.0493.13 1.12.253.56-1.173.3301-1.061.5895-.943.2829-1.079.448-1.008.2063-1.12.8371-.831.1532-1.143.4245-1.02.7545-.861.3949-1.031.6072-.926.3242-.972.4126-.926.2948-.978.8488-.72.2063-1.025.1533-1.05.8488-.719.4244-.919.1887-1.026.2063-1.014.7368-.813.3891-.967.1356-1.067.7604-.831-.1002-1.138.784-.843.2417-1.02.0118-1.0725.1296-1.0139.3891-.9608.1709-1.008.0472-1.0198.3006-.9962.1002-1.0198-.1414-1.0316-.1651-1.0198.3065-1.0551-.4244-1.0316-.0059-1.0493-.0943-1.0374.0059-1.0611-.1179-1.0492zm-12.0311 11.9781.2063 1.0728-.2535.9844-.2358.9904-.7427.8252-.2122.9967-.1297 1.002-.3419.925-.6484.802-.2299.972-.4657.873-.1886 1.002-.9019.696-.0708 1.078-.7486.761-.0707 1.084-.619.826-.4774.89-.3184.872-.9136-.53-.5895-.92-.9491-.542-.6602-.849-.9608-.531-.4303-1.096-.8666-.631-.8017-.701-.6484-.873-1.0492-.465.2416-1.156.0944-1.102.0118-1.102-.4952-1.115.0295-1.102.4716-1.0904-.4068-1.1258.2594-1.0906.1356-1.0964.1945-1.0905.0177-1.1023.2534-1.0375.0295-1.0611-.1709-1.0846.4774-1.008.1533-1.0434-.0236-1.0728.3655-1.008-.1061-1.0964.112-1.0611.4539-1.0198.4421-1.008.3655-1.0257.0884-1.1376.4598-1.0021.4775-1.008.9431-.6072.5364-.9844 1.0552-.3301 1.0434-.3301.9608.2593.8901.3537.7781.5188.8135.4597.6366.8135 1.0198.56.224 1.0964.4952.9255.501.9314.2653 1.0198.2417 1.0198-.1533 1.0905.6484.9608-.2947 1.0493.1297.9962.1061 1.0021-.0236 1.008.0884 1.0021.1356 1.008-.2181 1.1436.2888 1.173-.2416 1.1377z"/></g></svg>