<svg fill="none" height="200" viewBox="0 0 200 200" width="200" xmlns="http://www.w3.org/2000/svg" xmlns:xlink="http://www.w3.org/1999/xlink"><mask id="a" height="168" maskUnits="userSpaceOnUse" width="168" x="16" y="16"><path d="m184 16h-168v168h168z" fill="#fff"/></mask><g fill="#fff" mask="url(#a)"><path d="m85.5773 87.7433 5.3234 15.7227h-12.0088l5.633-15.7227zm28.7217 24.1417h-8.79v3.095h21.666v-3.095h-8.666v-24.7606h8.666v-3.0951h-21.666v3.0951h8.79zm-39.5545 3.095 2.9712-8.295h14.2992l2.7856 8.295h4.5807l-11.1423-30.9507h-6.3139l-11.3279 30.9507zm69.7005 29.465h-88.8898v-88.8903h88.8898z"/><path d="m108.666 184c39.679-4.086 71.249-35.655 75.334-75.334h-10.461c-3.714 34.417-29.775 61.839-64.873 65.739z"/><path d="m16 108.666c4.0855 39.679 35.6551 71.248 75.3339 75.334v-9.595c-35.0981-3.9-61.0966-31.384-64.8726-65.739z"/><path d="m184 91.3339c-4.085-39.6788-35.655-71.2484-75.334-75.3339v9.5947c35.098 3.8998 61.097 31.3839 64.873 65.7392z"/><path d="m91.3337 16c-39.6786 4.0855-71.2482 35.6551-75.3337 75.3337h10.4613c3.7141-34.417 29.7745-61.8392 64.8724-65.739z"/></g></svg>