<?xml version="1.0" encoding="UTF-8"?>
<svg id="Layer_2" data-name="Layer 2" xmlns="http://www.w3.org/2000/svg" viewBox="0 0 397.62 397.62">
  <defs>
    <style>
      .cls-1 {
        fill: #fff;
      }

      .cls-2 {
        fill: #3d2d2e;
      }

      .cls-3 {
        fill: #f39c4f;
      }
    </style>
  </defs>
  <g id="Layer_1-2" data-name="Layer 1">
    <g id="Logo">
      <g>
        <path class="cls-1" d="m248.37,359.84c.11-2.16.27-4.36.48-6.58-1.67-.56-3.04-1.31-3.04-1.31,0,0-1.9,3.41-6.82,6.88-5.65,3.98-13.63,8.2-27.02,8.31,0,0,0,0,0,0-11.59.09-11.49-14.3-8.24-24.02,2.46-7.36-1.49-14.81-1.77-19.53-.33-5.55,1.91-8.8,4.63-10.27,1.29-.7,2.92-1.04,4.83-1.06.04,0,.08,0,.12,0,9.5,0,15.86,1.5,24.78,8.01,6.61,4.82,8.86,9.02,8.86,9.02,1.33-.59,3.61-1.82,7.5-1.5.04,0,.08,0,.11.01,2-9.83,4.23-18.45,5.69-23.8-3.83.97-7.59,3.55-8.84,12.42-.28,1.98-1.98,3.41-3.92,3.41-.18,0-.37-.01-.56-.04-2.17-.31-3.68-2.31-3.37-4.48,1.59-11.26,7.21-17.79,16.69-19.42,60.02-10.27,63.29-13.9,68.89-42.47-.38-.87-1.13-2.37-2.11-4.23-2.06,8.16-7.07,14.28-11.66,17.22-11.44,7.36-23.86,9.68-32.27,10.34-2.07.16-4.12.24-6.14.24-9.39,0-18.02-1.72-23.85-4.85-1.93-1.04-2.66-3.44-1.62-5.37,1.04-1.93,3.44-2.66,5.37-1.62,5.71,3.06,15.52,4.47,25.62,3.69,7.5-.59,18.54-2.64,28.59-9.1,3.62-2.33,11.8-11.5,8-25.31-5.9-3.27-13.71-3.42-20.02-7.04-1.96-1.12-3.29-3.81-3.84-6.72-1.06-.22-2.12-.54-3.15-.97-3.61-1.49-8.14-3.45-13.79-6.02-13.96-6.37-8.94,22.58-54.95,18.67-33-2.8-53.95-21.74-73.62-1.92-21.96,22.12-17.96,55.59,4.84,75.41,31.26,27.18,41.61,59.87,44.88,81.84.39,0,.78.01,1.17.01,17.4,0,34.25-2.38,50.26-6.8-1.17-10.91-.72-20.6-.7-21.06Z"/>
        <path class="cls-1" d="m330.45,221.55c0,1.11-.05,2.22-.08,3.32-.01.46-.03.93-.05,1.43v-.13c0,.21,0,.43-.02.64-.13,3.3-.46,6.74-1.91,11.44,1.53,2.75,2.73,4.97,3.68,6.78,3.98-13.84,2.24-21.16-1.68-25.64.06.67.08,1.38.06,2.15Z"/>
        <path class="cls-3" d="m239,83.24c-1.03-1.32-2.57-2.11-4.22-2.18-1.68-.07-3.2.56-4.33,1.77-7.49,8.03-13.75,26.18-16.6,35.5l8.79.34c9.9.39,19.32,3,27.61,7.5,1.12-23.17-6.38-36.69-11.24-42.92Z"/>
        <path class="cls-3" d="m304.04,203.6c-11.48-.74-25.29-17.01-30.18-24.96-.3-.49-.87-.75-1.44-.67l-4.85.73c-.77.12-1.31.84-1.21,1.62,3.51,26.15-6.44,41.15-29.57,44.58-2.34.35-4.81.57-7.36.65-.29,0-.58.01-.87.01-18.38,0-27.77-19.91-29.45-29.73-.12-.7-.8-1.23-1.44-1.2l-31.69,2.39c-1.34-.03-2.6.05-3.84.23-5.02.74-9.67,3.23-13.07,7-.91,1.02-2.53,1.23-3.69.49-1.28-.83-2.12-2.11-2.36-3.62-.24-1.51.16-2.98,1.12-4.17l2.98-3.67c3.01-3.7,7.27-6.12,11.99-6.82l40.66-7.96c.49-.07.88-.35,1.1-.75,5.48-10.23,18.53-11.92,24.1-12.65.48-.06.91-.12,1.26-.17.93-.14,1.48-.19,1.49-.19l42.82-3.27c-1.9-5.13-4.49-10.15-7.74-14.42-9.43-12.36-24.17-19.83-40.44-20.47l-46.56-.79c-10.1-.34-16.41-13.22-23.71-28.15-5.28-10.79-11.26-23.02-18.75-29.91-2.08-1.91-5.03-2.81-8.3-2.53-3.67.31-7.09,2.08-9.14,4.73-7.7,9.95-16.98,29.5-17.48,66.09,0,.41-.08.82-.21,1.21-.21.62-20.76,62.56-18.44,105.92,1.62,30.25-13.92,60.58-24.8,77.87,34.44,40.47,85.6,66.29,142.71,66.64-3.26-21.97-13.62-54.66-44.88-81.84-22.8-19.82-26.8-53.28-4.84-75.41,19.67-19.82,40.62-.88,73.62,1.92,46.02,3.9,40.99-25.04,54.95-18.67,5.65,2.58,10.18,4.54,13.79,6.02,1.03.43,2.09.74,3.15.97-.69-3.64-.17-7.64,1.87-9.4,3.33-2.87,7.77-4.43,12.36-5.25-1.17-.75-2.37-1.56-3.62-2.42Z"/>
        <path class="cls-1" d="m310.68,211.1c-.83,1.76.93,4.34,3.95,5.77,3.01,1.43,6.13,1.16,6.97-.6.83-1.76-.93-4.34-3.95-5.77-3.01-1.43-6.13-1.16-6.97.6Z"/>
        <path class="cls-1" d="m233.61,160.5c7.33,2.3,14.29.91,15.54-3.09,1.25-4-3.67-9.11-11-11.4-7.33-2.3-14.29-.91-15.54,3.09-1.25,4,3.67,9.11,11,11.4Z"/>
        <path class="cls-1" d="m268.59,156.87c-1.58-3.42-3.48-6.71-5.7-9.64-1.99,3.72-2.24,7.34-.3,9.13,1.37,1.27,3.57,1.37,6,.51Z"/>
        <path class="cls-1" d="m251.51,172.64c-5.09-3.23-19.51-.51-22.35.06-.28.06-.47.31-.45.59.02.28.24.51.52.53.13.01,13.53,1.07,18.28,3.91,3.45,2.07,7.49,5.17,11.25,12.55.11.22.35.34.59.3.03,0,.06-.01.08-.02.26-.08.43-.34.39-.62-.07-.54-1.81-13.19-8.32-17.32Z"/>
        <path class="cls-1" d="m276.97,167.59c.12,0,12.46.99,16.83,3.6,3.18,1.9,6.89,4.76,10.35,11.55.11.22.35.34.59.3.03,0,.06-.01.09-.02.26-.08.43-.34.39-.61-.07-.5-1.67-12.18-7.69-15.99-4.71-2.99-18.01-.48-20.63.05-.28.06-.47.31-.45.59.02.28.24.51.52.53Z"/>
        <g>
          <path class="cls-2" d="m198.81,0C89.19,0,0,89.18,0,198.81s89.19,198.81,198.81,198.81,198.81-89.19,198.81-198.81S308.43,0,198.81,0Zm0,387.7c-.39,0-.78-.01-1.17-.01-57.1-.35-108.27-26.16-142.71-66.64,10.88-17.29,26.41-47.62,24.8-77.87-2.32-43.36,18.24-105.3,18.44-105.92.13-.39.2-.8.21-1.21.5-36.59,9.78-56.14,17.48-66.09,2.05-2.65,5.47-4.42,9.14-4.73,3.27-.28,6.22.62,8.3,2.53,7.49,6.88,13.47,19.12,18.75,29.91,7.3,14.92,13.61,27.81,23.71,28.15l46.56.79c16.27.65,31.01,8.11,40.44,20.47,3.25,4.27,5.85,9.29,7.74,14.42l-42.82,3.27s-.56.05-1.49.19c-.36.05-.78.11-1.26.17-5.57.72-18.62,2.42-24.1,12.65-.22.41-.6.68-1.1.75l-40.66,7.96c-4.72.7-8.97,3.12-11.99,6.82l-2.98,3.67c-.96,1.18-1.36,2.66-1.12,4.17.24,1.51,1.08,2.79,2.36,3.62,1.15.74,2.77.52,3.69-.49,3.41-3.77,8.05-6.26,13.07-7,1.24-.18,2.51-.26,3.84-.23l31.69-2.39c.64-.03,1.32.49,1.44,1.2,1.68,9.82,11.07,29.73,29.45,29.73.29,0,.58,0,.87-.01,2.55-.09,5.03-.31,7.36-.65,23.13-3.43,33.08-18.43,29.57-44.58-.1-.77.44-1.5,1.21-1.62l4.85-.73c.57-.08,1.14.18,1.44.67,4.89,7.95,18.71,24.22,30.18,24.96,1.25.86,2.45,1.67,3.62,2.42-4.59.82-9.03,2.38-12.36,5.25-2.04,1.76-2.56,5.76-1.87,9.4.55,2.91,1.89,5.6,3.84,6.72,6.31,3.61,14.13,3.76,20.02,7.04,3.8,13.82-4.38,22.98-8,25.31-10.05,6.46-21.09,8.52-28.59,9.1-10.1.78-19.91-.62-25.62-3.69-1.93-1.04-4.34-.31-5.37,1.62-1.04,1.93-.31,4.34,1.62,5.37,5.83,3.13,14.46,4.85,23.85,4.85,2.02,0,4.07-.08,6.14-.24,8.41-.66,20.83-2.98,32.27-10.34,4.59-2.95,9.6-9.06,11.66-17.22.98,1.87,1.73,3.36,2.11,4.23-5.6,28.58-8.87,32.2-68.89,42.47-9.49,1.62-15.11,8.15-16.69,19.42-.31,2.17,1.2,4.18,3.37,4.48.19.03.38.04.56.04,1.95,0,3.65-1.43,3.92-3.41,1.25-8.87,5.02-11.46,8.84-12.42-1.47,5.35-3.69,13.97-5.69,23.8-.04,0-.07,0-.11-.01-3.89-.32-6.16.91-7.5,1.5,0,0-2.25-4.19-8.86-9.02-8.92-6.51-15.29-8.02-24.78-8.01-.04,0-.08,0-.12,0-1.91.02-3.54.35-4.83,1.06-2.71,1.47-4.95,4.72-4.63,10.27.28,4.72,4.23,12.17,1.77,19.53-3.25,9.72-3.35,24.11,8.24,24.02,0,0,0,0,0,0,13.39-.11,21.37-4.32,27.02-8.31,4.92-3.47,6.82-6.88,6.82-6.88,0,0,1.37.75,3.04,1.31-.21,2.22-.37,4.42-.48,6.58-.02.46-.48,10.14.7,21.06-16.01,4.42-32.86,6.8-50.26,6.8Zm51.44-261.53c-8.28-4.5-17.7-7.11-27.61-7.5l-8.79-.34c2.86-9.32,9.11-27.46,16.6-35.5,1.13-1.21,2.65-1.84,4.33-1.77,1.66.07,3.19.87,4.22,2.18,4.86,6.23,12.37,19.76,11.24,42.92Zm81.82,118.88c-.95-1.81-2.15-4.03-3.68-6.78,1.46-4.7,1.79-8.14,1.91-11.44.01-.21.02-.43.03-.64v.13c0-.5.02-.97.03-1.43.04-1.11.08-2.21.08-3.32.02-.77,0-1.48-.06-2.15,3.92,4.49,5.66,11.8,1.68,25.64Zm-17.44-28.18c-3.01-1.43-4.78-4.01-3.95-5.77.83-1.76,3.95-2.03,6.97-.6,3.01,1.43,4.78,4.01,3.95,5.77-.83,1.76-3.95,2.03-6.97.6Zm-85.92-43.57c-.02-.28.18-.53.45-.59,2.84-.58,17.26-3.29,22.35-.06,6.51,4.13,8.25,16.78,8.32,17.32.04.27-.13.53-.39.62-.03,0-.06.02-.08.02-.24.04-.48-.08-.59-.3-3.76-7.38-7.8-10.48-11.25-12.55-4.75-2.84-18.14-3.9-18.28-3.91-.28-.02-.5-.25-.52-.53Zm47.74-6.24c-.02-.28.18-.53.45-.59,2.62-.53,15.93-3.04,20.63-.05,6.02,3.82,7.62,15.5,7.69,15.99.04.27-.13.53-.39.61-.03,0-.06.02-.09.02-.24.04-.48-.08-.59-.3-3.46-6.79-7.18-9.65-10.35-11.55-4.37-2.61-16.71-3.59-16.83-3.6-.28-.02-.5-.25-.52-.53Zm-19.64,211.51c-.92-9.72-.52-18.24-.51-18.34.12-2.33.3-4.73.55-7.15,2.19-.84,2.74-2.03,2.74-2.03,7.02,7.33,17.53,12.67,24.34,12.62.63,0,1.22-.06,1.78-.15,8.89-1.57,9.32-8.72,4.91-22.37-2.06-6.37,5.12-21.3-1.48-25.51-.83-.53-2.63-.71-3.85-.7-.29,0-.56,0-.76.04-10.89,1.49-20.3,10.36-23.82,13.88,2.5-12.13,5.32-22.38,6.47-26.4,52.08-9.21,60.9-14.76,67.15-43.46.96-.41,1.75-1.18,2.16-2.22,14.83-38.63-2.8-46.55-13.34-51.27-.84-.38-1.65-.74-2.41-1.11-2.51-1.21-5.72-3.04-9.41-5.47.58-1.65.93-3.76.77-6.31-.57-8.8-3.02-17.2-7.25-24.97-2.71-4.96-8.23-7.9-14.07-7.47l-12.04.72c-2.21-6.7-5.44-13.14-9.63-18.63-3.24-4.25-7.02-7.99-11.22-11.17,2.56-28.47-6.73-45.2-12.6-52.73-2.46-3.15-6.15-5.05-10.13-5.23-4.01-.17-7.78,1.39-10.48,4.29-9.25,9.92-16.33,31.55-19,40.59l-29.59-.14c-5.36-.18-11.47-12.68-16.86-23.7-5.59-11.42-11.92-24.37-20.51-32.26-3.73-3.43-8.83-5.07-14.34-4.6-5.85.5-11.36,3.41-14.75,7.79-8.39,10.85-18.5,31.83-19.13,70.23-2.27,6.9-20.95,65.19-18.65,108.28,1.43,26.85-11.96,54.22-22.18,70.93-24.87-31.99-39.71-72.15-39.71-115.72C9.92,94.66,94.66,9.92,198.81,9.92s188.89,84.73,188.89,188.89c0,83.92-55.02,155.23-130.88,179.76Z"/>
          <path class="cls-2" d="m132.73,82.04c.39-.44.64-.65.66-.68,1.04-.88,1.18-2.44.3-3.48-.88-1.05-2.44-1.2-3.49-.32-.61.51-14.95,12.91-12.56,50.32.05.76.44,1.45,1.07,1.88.17.12,5.13,1.25,6.41-1.94,2.39-5.93,3.33-11.29,5.77-11.89,2.35-.58,6.17,7.25,6.89,8.08,0,0,.72-6.82,3.01-6.82,1.6,0,4.2,3.07,5.63,4.93,2.68,1.13,2.55.36,2.68-2.51.23-5.43-8.62-30.32-16.38-37.57Z"/>
        </g>
        <path class="cls-2" d="m225.28,118.82s4.35-24.34,12.52-24.34c6.3,0,8.13,29.8,8.13,29.8l-20.65-5.47Z"/>
        <path class="cls-2" d="m232.11,105.53c-.12,0-.24-.01-.36-.03-1.04-.2-1.73-1.19-1.54-2.23.04-.24,1.15-5.96,7.64-10.73.86-.63,2.07-.45,2.7.41.63.86.45,2.07-.41,2.7-5.18,3.81-6.09,8.14-6.13,8.32-.18.92-.99,1.56-1.89,1.56Z"/>
      </g>
    </g>
  </g>
</svg>