<svg fill="none" height="200" viewBox="0 0 200 200" width="200" xmlns="http://www.w3.org/2000/svg"><path d="m120.94 168.037c.046-.912.114-1.842.203-2.78-.706-.236-1.285-.553-1.285-.553s-.803 1.441-2.881 2.907c-2.388 1.681-5.759 3.464-11.417 3.511-4.897.038-4.854-6.042-3.481-10.149 1.039-3.11-.63-6.257-.748-8.252-.14-2.345.807-3.718 1.956-4.339.545-.296 1.234-.439 2.041-.448h.051c4.013 0 6.701.634 10.469 3.385 2.793 2.036 3.744 3.811 3.744 3.811.562-.25 1.525-.769 3.169-.634.017 0 .034 0 .046.004.845-4.153 1.788-7.795 2.404-10.056-1.618.41-3.206 1.5-3.735 5.248-.118.836-.836 1.441-1.656 1.441-.076 0-.156-.005-.236-.017-.917-.131-1.555-.976-1.424-1.893.671-4.758 3.046-7.517 7.051-8.205 25.36-4.34 26.741-5.873 29.107-17.944-.16-.368-.477-1.002-.891-1.788-.871 3.448-2.987 6.034-4.927 7.276-4.833 3.11-10.081 4.09-13.634 4.369-.875.067-1.741.101-2.594.101-3.968 0-7.614-.727-10.077-2.049-.816-.439-1.124-1.453-.685-2.269.44-.815 1.454-1.124 2.269-.684 2.413 1.293 6.557 1.888 10.825 1.559 3.169-.25 7.833-1.116 12.08-3.845 1.529-.985 4.985-4.859 3.38-10.694-2.493-1.382-5.793-1.445-8.459-2.975-.828-.473-1.39-1.609-1.623-2.839-.447-.093-.895-.228-1.33-.41-1.526-.629-3.44-1.457-5.827-2.543-5.898-2.692-3.777 9.54-23.217 7.888-13.943-1.183-22.7947-9.185-31.1055-.811-9.2784 9.346-7.5884 23.487 2.0449 31.862 13.2078 11.484 17.5808 25.296 18.9625 34.578.1647 0 .3295.004.4941.004 7.352 0 14.471-1.005 21.236-2.873-.495-4.609-.304-8.703-.296-8.898z" fill="#fff"/><path d="m155.62 109.608c0 .469-.021.938-.034 1.403-.004.194-.013.393-.021.604v-.055c0 .089 0 .182-.008.27-.055 1.395-.195 2.848-.807 4.834.646 1.162 1.153 2.1 1.554 2.865 1.682-5.848.947-8.941-.709-10.834.025.283.033.583.025.909z" fill="#fff"/><path d="m116.981 51.1701c-.435-.5577-1.086-.8915-1.783-.921-.71-.0296-1.352.2366-1.83.7478-3.164 3.3928-5.809 11.0614-7.014 14.9992l3.714.1437c4.183.1648 8.163 1.2675 11.666 3.1689.473-9.7897-2.696-15.5021-4.749-18.1343z" fill="#f39c4f"/><path d="m144.461 102.024c-4.85-.313-10.685-7.187-12.751-10.546-.127-.207-.368-.3169-.609-.2831l-2.049.3085c-.325.0507-.553.3549-.511.6844 1.483 11.0492-2.721 17.3862-12.494 18.8362-.989.147-2.032.24-3.11.274-.122 0-.245.004-.367.004-7.766 0-11.733-8.412-12.443-12.561-.051-.2957-.3383-.5197-.6087-.507l-13.3894 1.0098c-.5662-.0126-1.0986.0212-1.6225.0972-2.121.3127-4.0857 1.365-5.5223 2.958-.3844.431-1.0689.519-1.559.207-.5408-.351-.8958-.892-.9972-1.53s.0676-1.259.4733-1.7618l1.259-1.5506c1.2718-1.5633 3.0717-2.5858 5.066-2.8815l17.1798-3.3632c.207-.0296.371-.1479.464-.3169 2.316-4.3223 7.83-5.0364 10.183-5.3448.203-.0254.384-.0507.532-.0719.393-.0591.626-.0802.63-.0802l18.092-1.3816c-.803-2.1675-1.897-4.2886-3.27-6.0927-3.985-5.2223-10.213-8.3785-17.087-8.6489l-19.6721-.3337c-4.2673-.1437-6.9334-5.5857-10.0178-11.8938-2.2308-4.5589-4.7575-9.7263-7.9221-12.6374-.8788-.807-2.1252-1.1873-3.5069-1.069-1.5506.131-2.9956.8789-3.8617 1.9985-3.2534 4.204-7.1743 12.4642-7.3856 27.924 0 .1732-.0338.3464-.0887.5112-.0887.262-8.7714 26.4323-7.7912 44.7523.6845 12.781-5.8814 25.596-10.4783 32.902 14.5514 17.099 36.1672 28.008 60.2969 28.156-1.3773-9.283-5.7546-23.095-18.9624-34.579-9.6333-8.374-11.3233-22.511-2.0449-31.861 8.3108-8.375 17.1625-.372 31.1058.811 19.444 1.648 17.318-10.58 23.217-7.889 2.387 1.091 4.301 1.919 5.826 2.544.435.182.883.313 1.331.41-.291-1.538-.072-3.228.79-3.972 1.407-1.212 3.283-1.872 5.223-2.218-.495-.317-1.002-.659-1.53-1.022z" fill="#f39c4f"/><g fill="#fff"><path d="m147.266 105.193c-.35.743.393 1.834 1.669 2.438 1.272.604 2.59.49 2.945-.254.351-.743-.393-1.833-1.669-2.438-1.271-.604-2.59-.49-2.945.254z"/><path d="m114.704 83.8135c3.097.9718 6.037.3845 6.566-1.3055.528-1.6901-1.551-3.8491-4.648-4.8167-3.097-.9718-6.038-.3845-6.566 1.3056-.528 1.69 1.551 3.8491 4.648 4.8166z"/><path d="m129.483 82.2798c-.667-1.445-1.47-2.835-2.408-4.073-.841 1.5717-.947 3.1012-.127 3.8575.579.5366 1.508.5789 2.535.2155z"/><path d="m122.266 88.9428c-2.15-1.3648-8.243-.2155-9.443.0253-.118.0254-.199.131-.19.2493.008.1183.101.2155.22.2239.055.0043 5.716.4521 7.723 1.6521 1.458.8746 3.165 2.1844 4.753 5.3025.047.093.148.1437.25.1268.012 0 .025-.0043.034-.0085.109-.0338.181-.1436.164-.2619-.029-.2282-.764-5.573-3.515-7.318z"/><path d="m133.024 86.8092c.05 0 5.264.4183 7.11 1.5211 1.344.8027 2.912 2.0111 4.373 4.88.047.093.148.1437.25.1268.012 0 .025-.0043.038-.0085.11-.0338.181-.1436.165-.2577-.03-.2113-.706-5.1462-3.25-6.756-1.99-1.2633-7.609-.2028-8.716.0211-.118.0254-.199.131-.19.2493.008.1183.101.2155.22.2239z"/></g><g fill="#3d2d2e"><path d="m100 16c-46.316 0-84 37.6798-84 84 0 46.32 37.684 84 84 84s84-37.684 84-84-37.684-84-84-84zm0 163.809c-.1648 0-.3296-.005-.4943-.005-24.1256-.147-45.7456-11.053-60.297-28.156 4.5969-7.305 11.1586-20.12 10.4783-32.901-.9802-18.32 7.7067-44.4908 7.7912-44.7527.0549-.1648.0845-.338.0887-.5113.2113-15.4598 4.1322-23.7199 7.3856-27.9239.8661-1.1197 2.3111-1.8675 3.8617-1.9985 1.3817-.1183 2.6281.2619 3.5069 1.0689 3.1646 2.9069 5.6913 8.0785 7.9221 12.6374 3.0844 6.3039 5.7505 11.7502 10.0179 11.8938l19.6719.3338c6.875.2746 13.102 3.4266 17.087 8.6489 1.373 1.8041 2.471 3.9251 3.27 6.0926l-18.092 1.3816s-.237.0212-.63.0803c-.152.0211-.329.0465-.532.0718-2.353.3042-7.867 1.0225-10.183 5.3448-.092.1733-.253.2873-.464.3169l-17.1797 3.3632c-1.9943.2958-3.79 1.3183-5.0659 2.8816l-1.2591 1.5506c-.4056.4986-.5747 1.1242-.4733 1.7622s.4564 1.178.9972 1.529c.4859.313 1.1703.22 1.5591-.207 1.4407-1.593 3.4012-2.6448 5.5222-2.9574.5239-.0761 1.0605-.1099 1.6225-.0972l13.3894-1.0098c.2704-.0127.5576.207.6086.507.71 4.1494 4.677 12.5614 12.443 12.5614.122 0 .245 0 .367-.004 1.078-.038 2.126-.131 3.11-.275 9.773-1.449 13.977-7.787 12.494-18.8356-.042-.3253.186-.6338.511-.6845l2.049-.3084c.241-.0338.482.076.609.2831 2.066 3.359 7.905 10.2334 12.751 10.5464.528.363 1.035.705 1.53 1.022-1.94.346-3.816 1.006-5.223 2.218-.861.744-1.081 2.434-.79 3.972.233 1.229.799 2.366 1.623 2.839 2.666 1.525 5.97 1.589 8.459 2.975 1.605 5.839-1.851 9.709-3.381 10.693-4.246 2.73-8.91 3.6-12.079 3.845-4.268.33-8.412-.262-10.825-1.559-.815-.439-1.834-.131-2.269.685-.439.815-.131 1.833.685 2.269 2.463 1.322 6.109 2.049 10.076 2.049.854 0 1.72-.034 2.595-.102 3.553-.278 8.801-1.259 13.634-4.368 1.94-1.247 4.056-3.828 4.927-7.276.414.79.731 1.42.891 1.787-2.366 12.076-3.747 13.605-29.107 17.944-4.009.685-6.384 3.444-7.051 8.206-.131.916.507 1.766 1.423 1.892.081.013.161.017.237.017.824 0 1.542-.604 1.656-1.44.528-3.748 2.121-4.842 3.735-5.248-.621 2.26-1.559 5.902-2.404 10.056-.017 0-.029 0-.046-.004-1.644-.136-2.603.384-3.169.633 0 0-.951-1.77-3.744-3.811-3.768-2.75-6.46-3.388-10.47-3.384-.016 0-.033 0-.05 0-.807.008-1.496.148-2.041.448-1.145.621-2.091 1.994-1.956 4.339.118 1.994 1.787 5.142.748 8.252-1.374 4.106-1.416 10.186 3.481 10.148 5.658-.046 9.029-1.825 11.416-3.511 2.079-1.466 2.882-2.907 2.882-2.907s.579.317 1.284.554c-.088.938-.156 1.867-.202 2.78-.009.194-.203 4.284.295 8.898-6.764 1.868-13.883 2.873-21.2351 2.873zm21.734-110.5004c-3.498-1.9013-7.478-3.0041-11.665-3.1689l-3.714-.1436c1.208-3.9379 3.849-11.6023 7.013-14.9993.478-.5112 1.12-.7774 1.83-.7478.701.0296 1.348.3676 1.783.9211 2.053 2.6322 5.226 8.3488 4.749 18.1343zm34.57 50.2284c-.401-.765-.908-1.703-1.555-2.865.617-1.985.757-3.439.807-4.833.005-.089.009-.182.013-.271v.055c0-.211.008-.409.013-.604.017-.469.034-.934.034-1.403.008-.325 0-.625-.026-.908 1.656 1.897 2.392 4.986.71 10.833zm-7.368-11.906c-1.272-.605-2.02-1.695-1.669-2.438.35-.744 1.669-.858 2.945-.254 1.271.604 2.019 1.694 1.668 2.438-.35.744-1.668.858-2.944.254zm-36.303-18.4093c-.008-.1183.076-.224.19-.2493 1.2-.2451 7.293-1.3901 9.443-.0254 2.751 1.745 3.486 7.0898 3.516 7.318.017.1141-.055.2239-.165.2619-.013 0-.025.0085-.034.0085-.101.0169-.203-.0338-.249-.1268-1.589-3.1181-3.296-4.4279-4.753-5.3025-2.007-1.2-7.665-1.6478-7.724-1.652-.118-.0085-.211-.1057-.22-.224zm20.171-2.6365c-.008-.1183.076-.2239.19-.2493 1.107-.2239 6.731-1.2844 8.717-.0211 2.543 1.614 3.219 6.5489 3.249 6.756.017.1141-.055.2239-.165.2577-.013 0-.025.0085-.038.0085-.102.0169-.203-.0338-.249-.1268-1.462-2.8689-3.034-4.0773-4.373-4.88-1.847-1.1028-7.061-1.5169-7.111-1.5211-.119-.0084-.212-.1056-.22-.2239zm-8.298 89.3658c-.389-4.107-.22-7.707-.216-7.749.051-.984.127-1.998.233-3.021.925-.355 1.157-.857 1.157-.857 2.966 3.097 7.407 5.353 10.284 5.332.267 0 .516-.026.752-.064 3.757-.663 3.938-3.684 2.075-9.451-.87-2.692 2.163-9-.625-10.779-.351-.224-1.112-.3-1.627-.295-.123 0-.237 0-.321.016-4.601.63-8.577 4.378-10.064 5.865 1.056-5.125 2.247-9.456 2.733-11.154 22.005-3.892 25.731-6.237 28.372-18.363.406-.173.739-.498.913-.938 6.266-16.322-1.183-19.668-5.637-21.662-.355-.161-.697-.313-1.018-.469-1.06-.511-2.417-1.285-3.976-2.311.245-.6974.393-1.589.326-2.6664-.241-3.7181-1.276-7.2672-3.064-10.5501-1.145-2.0957-3.477-3.3379-5.944-3.1562l-5.087.3042c-.934-2.8308-2.299-5.5518-4.069-7.8714-1.369-1.7957-2.966-3.3759-4.741-4.7195 1.082-12.029-2.843-19.0976-5.324-22.2792-1.039-1.3309-2.598-2.1337-4.28-2.2097-1.694-.0719-3.287.5873-4.428 1.8126-3.908 4.1913-6.899 13.3303-8.027 17.1498l-12.5025-.0592c-2.2647-.076-4.8463-5.3574-7.1236-10.0135-2.3619-4.8251-5.0364-10.2967-8.6658-13.6303-1.5759-1.4493-3.7308-2.1422-6.0588-1.9436-2.4717.2113-4.7998 1.4408-6.2321 3.2914-3.5449 4.5843-7.8165 13.4486-8.0827 29.6731-.9591 2.9154-8.8517 27.544-7.8799 45.75.6042 11.344-5.0532 22.909-9.3713 29.969-10.508-13.516-16.7781-30.485-16.7781-48.894-.0169-44.0128 35.787-79.8167 79.7918-79.8167 44.005 0 79.809 35.7996 79.809 79.8087 0 35.457-23.247 65.587-55.299 75.951z"/><path d="m72.0805 50.6632c.1647-.1859.2704-.2747.2788-.2873.4394-.3719.4986-1.031.1268-1.4704-.3718-.4436-1.031-.507-1.4746-.1352-.2577.2155-6.3166 5.4547-5.3068 21.2609.0211.3211.1859.6126.4521.7943.0718.0507 2.1675.5282 2.7083-.8196 1.0098-2.5056 1.407-4.7702 2.4379-5.0237.9929-.2451 2.6069 3.0632 2.9112 3.4139 0 0 .3042-2.8816 1.2717-2.8816.676 0 1.7746 1.2972 2.3788 2.083 1.1323.4775 1.0774.1521 1.1323-1.0605.0972-2.2942-3.6421-12.8106-6.9208-15.8738z"/><path d="m111.184 66.2032s1.838-10.284 5.29-10.284c2.662 0 3.435 12.5909 3.435 12.5909l-8.725-2.3111z"/><path d="m114.07 60.5878c-.051 0-.101-.0042-.152-.0127-.44-.0845-.731-.5028-.651-.9422.017-.1014.486-2.5182 3.228-4.5336.364-.2661.875-.1901 1.141.1733.266.3633.19.8746-.173 1.1408-2.189 1.6097-2.573 3.4392-2.59 3.5153-.076.3887-.419.6591-.799.6591z"/></g></svg>