<svg fill="none" height="22" viewBox="0 0 20 22" width="20" xmlns="http://www.w3.org/2000/svg" xmlns:xlink="http://www.w3.org/1999/xlink"><linearGradient id="a"><stop offset="0" stop-color="#ffeaff" stop-opacity=".6"/><stop offset=".6807" stop-color="#a087c9"/><stop offset="1" stop-color="#10002f"/></linearGradient><radialGradient id="b" cx="0" cy="0" gradientTransform="matrix(6.8247 0 0 6.94221 18.738 3.77528)" gradientUnits="userSpaceOnUse" r="1" xlink:href="#a"/><radialGradient id="c" cx="0" cy="0" gradientTransform="matrix(19.1135 0 0 20.6781 16.9515 11.1798)" gradientUnits="userSpaceOnUse" r="1" xlink:href="#a"/><linearGradient id="d" gradientUnits="userSpaceOnUse" x1="7.92046" x2="10.743" y1="21.2814" y2="4.16306"><stop offset="0" stop-color="#81ffff"/><stop offset=".6202" stop-color="#fff" stop-opacity="0"/></linearGradient><linearGradient id="e"><stop offset=".2888" stop-color="#fff"/><stop offset=".7796" stop-color="#fff" stop-opacity="0"/></linearGradient><linearGradient id="f" gradientUnits="userSpaceOnUse" x1="15.3053" x2="8.13702" xlink:href="#e" y1="6.82502" y2="13.2908"/><linearGradient id="g" gradientUnits="userSpaceOnUse" x1="1.17301" x2="17.3939" y1="16.7626" y2="16.7626"><stop offset="0" stop-color="#0002e9"/><stop offset=".9952" stop-color="#ff00c7"/></linearGradient><linearGradient id="h" gradientUnits="userSpaceOnUse" x1="18.1618" x2="9.19076" xlink:href="#e" y1="13.3673" y2="21.7019"/><linearGradient id="i" gradientUnits="userSpaceOnUse" x1="1.17301" x2="9.8511" y1="16.7626" y2="16.7626"><stop offset="0" stop-color="#000292"/><stop offset=".9952" stop-color="#7d00c7"/></linearGradient><linearGradient id="j" gradientUnits="userSpaceOnUse" x1="1.1839" x2="17.383" y1="13.4068" y2="13.4068"><stop offset="0" stop-color="#000292"/><stop offset=".9952" stop-color="#be00c7"/></linearGradient><linearGradient id="k" gradientUnits="userSpaceOnUse" x1="17.1176" x2="15.9242" xlink:href="#e" y1="4.56967" y2="6.47597"/><linearGradient id="l" gradientUnits="userSpaceOnUse" x1="8.29303" x2="8.93907" xlink:href="#e" y1="18.7813" y2="18.7813"/><linearGradient id="m" gradientUnits="userSpaceOnUse" x1="10.521" x2="11.167" xlink:href="#e" y1="18.5596" y2="18.5596"/><linearGradient id="n" gradientUnits="userSpaceOnUse" x1="9.52534" x2="10.0104" xlink:href="#e" y1="19.6712" y2="19.6712"/><linearGradient id="o" gradientUnits="userSpaceOnUse" x1="11.4952" x2="11.9802" xlink:href="#e" y1="19.4378" y2="19.4378"/><linearGradient id="p" gradientUnits="userSpaceOnUse" x1="6.20625" x2="7.26129" xlink:href="#e" y1="18.3473" y2="18.3473"/><linearGradient id="q" gradientUnits="userSpaceOnUse" x1="12.4724" x2="13.5274" xlink:href="#e" y1="16.5918" y2="16.5918"/><path d="m19.4442 4.62929c-.2138-.82323-.9009-1.64646-2.1377-2.56288-.9926-.73004-2.0462-1.149418-2.886-1.149418-.168 0-.3207.015532-.4734.046597-.3817.077661-.7177.357251-.9314.776631-.2596.49704-.3207 1.16495-.1527 1.56879.061.12426.1374.27959.229.41938-.8093.49705-1.2674.63684-1.3285.65237 2.1073.7145 3.8633 2.20563 4.9627 4.14721l.0153-.18639c.0458-.51258.1985-1.10282.4123-1.70859.2137.06213.4275.0932.6413.0932.565 0 1.0536-.23299 1.359-.65237s.4275-.97856.2901-1.44453z" fill="#5e12a0"/><path d="m17.2453 6.18285c1.3895.38831 1.9545-.69897 1.7712-1.429-.1985-.73004-.8398-1.4756-1.9698-2.31436-1.1299-.83876-2.2751-1.18048-3.0081-1.02516-.7329.15533-.9467 1.28921-.7635 1.72412.0764.17086.2443.41938.4734.69897-.2901.20193-.565.35725-.794.49704 1.4048.63684 2.6264 1.63093 3.5425 2.87354.1069-.41938.2596-.79217.3971-1.11835.1068.01553.229.0466.3512.0932z" fill="url(#b)"/><path d="m9.28967 21.4045c4.71413 0 8.53573-3.8874 8.53573-8.6827 0-4.79535-3.8216-8.68274-8.53573-8.68274-4.71417 0-8.535764 3.88739-8.535764 8.68274 0 4.7953 3.821594 8.6827 8.535764 8.6827z" fill="url(#c)"/><path d="m18.3142 4.03888c-1.1605-1.2426-2.1378-1.56879-3.3135-1.83284-.9162-.21746-.6719-.74557.4428-.63684-.5344-.18639-1.0383-.23299-1.4048-.15533-.733.15533-.9467 1.28921-.7635 1.72412.0763.17086.2443.41938.4734.69897-.4123.27959-.7635.48151-1.0537.63684.1375.06213.3054.13979.5039.24852.5192.27959 1.0842.74556 1.0842.74556-.8551-.74556-.6719-1.08728.5039-1.92604.3665-.26405 1.0383-.23299 1.6644.0932.6261.32618 1.359 1.14941 1.359 1.14941l-.7024 1.36687c.0458.01553.0916.03106.1374.0466.4428.12426.794.09319 1.0689-.01553.3207-.20193 1.1605-.88536 0-2.14351z" fill="#a98698" opacity=".6"/><path d="m14.9853 2.95174c.3054.12426.7024.34172 1.1911.66791.5802.38831 1.0841.82323 1.4048 1.16494-.5345.7145-.8857 1.69306-1.0994 2.37649.1069.15533.229.31065.3359.46598.1069-.38831.2901-.96302.5344-1.53773.0611.01553.1375.01553.2138.01553.1832 0 .397-.03106.565-.17086.1221-.09319.2596-.26405.2443-.5747 0-.29512-.229-.6679-.7024-1.11835-.3359-.32618-.794-.68343-1.2521-1.00962-1.3132-.88536-2.2294-1.13388-2.6417-.7145-.2748.27959-.2443.62131-.1527.86983-.4886.32618-.9009.55917-1.1757.7145.1832.06213.3512.13979.5344.21745.4886-.26405 1.191-.7145 2.0003-1.36687zm2.886 2.22117c.0458.07766.0611.15532.0611.20192 0 .1398-.0458.18639-.0764.21746-.061.0466-.1832.07766-.2901.07766.0916-.18639.1985-.34172.3054-.49704zm-3.7716-2.31436c.0458-.0466.168-.07767.3665-.0466-.1527.12426-.3054.23299-.4581.34172-.0153-.10873 0-.21746.0916-.29512z" fill="#5e12a0"/><path d="m9.28979 3.52637c-4.9932 0-9.039668 4.11614-9.039668 9.19533 0 5.0791 4.046468 9.1953 9.039668 9.1953 4.99321 0 9.03961-4.1162 9.03961-9.1953 0-5.07919-4.0617-9.19533-9.03961-9.19533zm0 17.87803c-4.71834 0-8.535767-3.8831-8.535767-8.6827s3.817427-8.68276 8.535767-8.68276c4.71831 0 8.53581 3.88316 8.53581 8.68276s-3.8327 8.6827-8.53581 8.6827z" fill="#5e12a0"/><path d="m9.28967 21.4045c4.71413 0 8.53573-3.8874 8.53573-8.6827 0-4.79535-3.8216-8.68274-8.53573-8.68274-4.71417 0-8.535764 3.88739-8.535764 8.68274 0 4.7953 3.821594 8.6827 8.535764 8.6827z" fill="url(#d)" opacity=".6"/><path d="m9.22866 20.3485c-4.65726-.7611-7.81809-5.219-7.05461-9.9564.33594-2.09692 1.37428-3.88317 2.84017-5.17237-2.13776 1.25814-3.72581 3.44824-4.15336 6.11987-.748216 4.7374 2.41261 9.1953 7.0546 9.9564 2.59584.4349 5.10004-.3883 6.94774-2.0037-1.6339.963-3.6189 1.3824-5.63454 1.0562z" fill="#a98698" opacity=".6"/><path d="m10.6488 4.16326c-2.15306-.35725-4.24501.13979-5.95522 1.24261-.03054.03106-.06108.06213-.06108.06213.6566-.40385 1.61859-.7611 1.61859-.7611-2.47369 1.46006-3.23717 3.12205-3.23717 3.12205.96199-1.89498 3.78688-3.23078 6.00099-3.32398 2.21409-.09319 3.66469.57471 5.43599 2.01924 1.7713 1.46007 2.8402 4.44229 2.7333 6.80329-.0916 2.361-1.3132 4.2715-1.3132 4.2715.8398-1.1029 1.3437-1.9105 1.6644-2.7338.0611-.2485.1222-.497.1527-.7611.7635-4.72189-2.3821-9.17975-7.0393-9.94084z" fill="url(#f)" opacity=".6"/><path d="m17.3978 12.6436c0 4.551-3.6342 8.2478-8.10818 8.2478-4.47402 0-8.12348-3.6968-8.12348-8.2478z" fill="url(#g)"/><path d="m16.7565 12.6436c0 4.4423-3.4509 8.0769-7.78751 8.2478h.32067c4.47404 0 8.10824-3.6968 8.10824-8.2478z" fill="url(#h)" opacity=".36"/><path d="m2.31137 12.6436h-1.14523c0 4.551 3.63419 8.2478 8.10821 8.2478.1985 0 .38174 0 .56498-.0156-4.19917-.3106-7.52796-3.8831-7.52796-8.2322z" fill="url(#i)" opacity=".49"/><path d="m17.3826 12.7216c0-.9475-1.6186-1.4912-3.7717-1.6775-1.5575-.1243-3.1302.031-4.93207.5902-1.55751.466-2.96232.3883-3.98539.264-2.27519-.264-3.5273-.2951-3.5273.8233 0 1.6154 3.23717 3.6346 8.09294 2.9356 2.45842-.3572 3.72582-1.0872 5.17642-1.5843 1.5728-.5281 2.9471-.5126 2.9471-1.3513z" fill="url(#j)"/><path d="m11.9467 8.80759c.759 0 1.3742-.62588 1.3742-1.39794 0-.77205-.6152-1.39793-1.3742-1.39793s-1.3743.62588-1.3743 1.39793c0 .77206.6153 1.39794 1.3743 1.39794z" fill="#fff"/><path d="m14.1913 9.84845c.3205 0 .5803-.26426.5803-.59024s-.2598-.59024-.5803-.59024c-.3204 0-.5802.26426-.5802.59024s.2598.59024.5802.59024z" fill="#fff"/><path d="m16.2682 6.29177c-.0153 0-.0305 0-.0305 0-.0917-.01553-.1527-.10873-.1375-.21746.1375-.7145.7177-1.39793.7483-1.429.061-.07766.1832-.07766.2443-.01553.0763.06213.0763.18639.0152.24852-.0152.01553-.5497.65237-.6718 1.27368-.0153.09319-.0916.13979-.168.13979z" fill="url(#k)" opacity=".36"/><path d="m8.72736 19.1989c.23613 0 .42755-.1947.42755-.4349s-.19142-.4349-.42755-.4349-.42756.1947-.42756.4349.19143.4349.42756.4349z" fill="#fff" opacity=".2"/><path d="m8.48051 19.0476c-.16797-.1709-.16797-.4504 0-.6213.03054-.0311.06108-.0466.09162-.0777-.06108.0156-.10689.0466-.1527.0932-.16796.1709-.16796.4505 0 .6213.13743.1398.3512.1709.51917.0777-.1527.0621-.33593.0311-.45809-.0932z" fill="url(#l)" opacity=".24"/><path d="m8.87751 18.6395c.0506 0 .09162-.0417.09162-.0932s-.04102-.0932-.09162-.0932-.09162.0417-.09162.0932.04102.0932.09162.0932z" fill="#fff" opacity=".3"/><path d="m10.9568 18.9812c.2362 0 .4276-.1948.4276-.435s-.1914-.4349-.4276-.4349c-.2361 0-.4275.1947-.4275.4349s.1914.435.4275.435z" fill="#fff" opacity=".2"/><path d="m10.71 18.8289c-.168-.1709-.168-.4505 0-.6214.0305-.031.0611-.0466.0916-.0776-.0611.0155-.1069.0466-.1527.0932-.1679.1708-.1679.4504 0 .6213.1375.1398.3512.1708.5192.0776-.1527.0622-.3359.0311-.4581-.0931z" fill="url(#m)" opacity=".24"/><path d="m11.107 18.4217c.0506 0 .0916-.0417.0916-.0932 0-.0514-.041-.0931-.0916-.0931s-.0916.0417-.0916.0931c0 .0515.041.0932.0916.0932z" fill="#fff" opacity=".3"/><path d="m9.8546 19.9912c.1771 0 .3207-.146.3207-.3261 0-.1802-.1436-.3262-.3207-.3262s-.32066.146-.32066.3262c0 .1801.14356.3261.32066.3261z" fill="#fff" opacity=".2"/><path d="m9.67136 19.87c-.12215-.1243-.12215-.3417 0-.466.01527-.0155.04581-.031.06108-.0466-.04581.0156-.07635.0466-.10689.0777-.12215.1242-.12215.3417 0 .466.10689.1087.25959.1242.39705.0466-.12219.0466-.25962.0155-.35124-.0777z" fill="url(#n)" opacity=".24"/><path d="m9.96147 19.5559c.03373 0 .06103-.0278.06103-.0621s-.0273-.0622-.06103-.0622-.06108.0279-.06108.0622.02735.0621.06108.0621z" fill="#fff" opacity=".3"/><path d="m11.8244 19.7578c.1771 0 .3207-.146.3207-.3261 0-.1802-.1436-.3262-.3207-.3262-.177 0-.3206.146-.3206.3262 0 .1801.1436.3261.3206.3261z" fill="#fff" opacity=".2"/><path d="m11.6412 19.6366c-.1221-.1243-.1221-.3417 0-.466.0153-.0155.0458-.031.0611-.0466-.0458.0156-.0764.0466-.1069.0777-.1222.1242-.1222.3417 0 .466.1069.1087.2596.1242.397.0466-.1221.0466-.2596.0155-.3512-.0777z" fill="url(#o)" opacity=".24"/><path d="m11.9313 19.3235c.0338 0 .0611-.0278.0611-.0622 0-.0343-.0273-.0621-.0611-.0621-.0337 0-.0611.0278-.0611.0621 0 .0344.0274.0622.0611.0622z" fill="#fff" opacity=".3"/><path d="m6.90761 19.0433c.38793 0 .7024-.3199.7024-.7145s-.31447-.7145-.7024-.7145-.70241.3199-.70241.7145.31448.7145.70241.7145z" fill="#fff" opacity=".2"/><path d="m6.51102 18.7795c-.27486-.2796-.27486-.7301 0-1.0096.04581-.0466.09162-.0777.15269-.1088-.09161.0311-.16796.0932-.24431.1554-.27486.2795-.27486.73 0 1.0096.22904.233.58025.2796.8551.1087-.25958.1087-.56498.0621-.76348-.1553z" fill="url(#p)" opacity=".24"/><path d="m7.15209 18.1114c.08433 0 .15269-.0695.15269-.1553s-.06836-.1553-.15269-.1553c-.08434 0-.1527.0695-.1527.1553s.06836.1553.1527.1553z" fill="#fff" opacity=".3"/><path d="m13.1859 17.2884c.388 0 .7024-.3199.7024-.7145s-.3144-.7145-.7024-.7145c-.3879 0-.7024.3199-.7024.7145s.3145.7145.7024.7145z" fill="#fff" opacity=".2"/><path d="m12.7713 17.0246c-.2749-.2796-.2749-.73 0-1.0096.0458-.0466.0916-.0777.1527-.1088-.0917.0311-.168.0932-.2443.1554-.2749.2796-.2749.73 0 1.0096.229.233.5802.2796.8551.1087-.2596.1088-.5498.0622-.7635-.1553z" fill="url(#q)" opacity=".24"/><path d="m13.4278 16.3566c.0844 0 .1527-.0696.1527-.1554s-.0683-.1553-.1527-.1553c-.0843 0-.1527.0695-.1527.1553s.0684.1554.1527.1554z" fill="#fff" opacity=".3"/></svg>