<svg fill="none" height="200" viewBox="0 0 200 200" width="200" xmlns="http://www.w3.org/2000/svg"><path d="m184 100c0-46.3919-37.608-84-84-84-46.3919 0-84 37.6081-84 84 0 46.392 37.6081 84 84 84 46.392 0 84-37.608 84-84z" fill="#120901"/><path d="m149.332 97.2957c-1.414 0-2.829.1764-4.067.8841-1.592 1.061-2.829 3.5362-2.829 5.8352 0 1.945 1.768 4.421 3.713 5.482 5.482 2.829 11.318-3.537 8.488-8.842-.884-1.945-3.183-3.1829-5.305-3.3593z" fill="#ff8500"/><path d="m105.036 59.4536c1.945.3536 4.775 7.0734 5.305 12.7324.177 1.2374 0 3.8902 0 5.8353-.177 3.0062-.53 3.8903-1.591 5.3052-2.299 3.36-6.543 5.482-12.0252 5.8353-1.5913.177-4.2441.3539-5.6585.3539-2.2989-.1769-2.4758-.1769-2.122-1.061.1764-.3539.7072-1.5918 1.061-2.6529 2.2985-7.0733 7.4267-18.3906 10.0797-21.9273 1.768-2.6526 3.89-4.5978 4.951-4.4209zm-1.768-15.3847c-.884 0-1.945.1768-3.5371.7073-2.2989.7074-4.4204 1.9452-6.3661 3.5368-2.8292 2.1219-3.1831 2.2988-3.3595 1.4146-.1769-1.4146-2.4759-3.3598-4.5979-3.5367-2.1221-.3536-4.7744.7073-5.8354 2.2989-.5308.7073-1.9451 3.0062-3.36 5.305-2.4759 4.2441-3.36 7.2503-2.4759 9.0186.5308 1.0611.3538 2.2989-1.238 9.9028-2.8292 13.7933-7.4268 42.2638-7.4268 47.7458-.1768 12.378 0 24.05.1768 26.349.5305 3.536 1.7684 6.012 4.0675 7.603 2.2984 1.592 3.5364 1.945 6.0123 1.238 2.4754-.53 3.7133-1.414 5.1282-3.36 1.5913-2.298 1.9451-4.774 1.9451-15.561-.1769-13.086 1.5913-33.776 2.6523-35.014.3539-.177 2.6528-.354 5.3051 0 9.9034.884 18.0374-.884 24.2264-5.4818 6.72-4.9513 9.55-10.6098 10.08-20.159.531-12.5554-3.537-23.696-10.787-29.3548-2.299-1.5915-3.006-1.7683-6.543-2.2989-1.768-.3536-3.006-.5305-4.067-.3536z" fill="#fff"/></svg>