<svg height="512" viewBox="1088.235 840.724 1894.118 1900.452" width="512" xmlns="http://www.w3.org/2000/svg"><circle cx="2032.805" cy="1796.606" fill="#fff" r="944.57"/><path d="m13687.4 14780.2-7833.62-4527.9 2612.72-1506.71 7833.5 4527.91z" fill="#3d587b" transform="matrix(.12889037782 0 0 -.12889037782 600.50116 3278.643311)"/><path d="m16300 10256.6-1.4 3015.8-2611-1509.3 1.6-3015.7z" fill="#d5f6ff" transform="matrix(.12890237182 0 0 -.12890237182 600.50116 3278.643311)"/><path d="m12217.3 14638.1-2881.84 1661.9 1.58-3326.7z" fill="#5a7b92" transform="matrix(.11685300686 0 0 -.11685300686 600.50116 3278.643311)"/><path d="m16300 10415.7-2 3590.9-3108.7-1797z" fill="#5a7b92" transform="matrix(.10825607098 0 0 -.10825607098 600.50116 3278.643311)"/><path d="m9337.04 12973.3-1.58 3326.7-2880.22-1664.8 1.59-3326.7z" fill="#aef" transform="matrix(.11685300686 0 0 -.11685300686 600.50116 3278.643311)"/></svg>