<svg fill="none" height="500" viewBox="0 0 500 500" width="500" xmlns="http://www.w3.org/2000/svg" xmlns:xlink="http://www.w3.org/1999/xlink"><clipPath id="a"><rect height="500" rx="250" width="500"/></clipPath><clipPath id="b"><path d="m0 0h500v500h-500z"/></clipPath><clipPath id="c"><path d="m0 300h200v200h-200z"/></clipPath><mask id="d" height="115" maskUnits="userSpaceOnUse" width="132" x="33" y="343"><path d="m164.807 343.324h-130.8281v114.647h130.8281z" fill="#fff"/></mask><g clip-path="url(#a)"><g clip-path="url(#b)"><path d="m250 500c138.542 0 250-111.458 250-250s-111.458-250-250-250-250 111.458-250 250 111.458 250 250 250z" fill="#2775ca"/><g fill="#fff"><path d="m318.75 289.583c0-36.458-21.875-48.958-65.625-54.165-31.25-4.168-37.5-12.5-37.5-27.085s10.417-23.958 31.25-23.958c18.75 0 29.167 6.25 34.375 21.875 1.042 3.125 4.167 5.208 7.292 5.208h16.665c4.168 0 7.293-3.125 7.293-7.29v-1.043c-4.168-22.917-22.918-40.625-46.875-42.707v-25c0-4.168-3.125-7.293-8.333-8.335h-15.625c-4.167 0-7.292 3.125-8.335 8.335v23.957c-31.25 4.168-51.04 25-51.04 51.043 0 34.375 20.833 47.915 64.583 53.125 29.167 5.207 38.542 11.457 38.542 28.125 0 16.667-14.585 28.125-34.375 28.125-27.085 0-36.46-11.46-39.585-27.085-1.04-4.165-4.165-6.25-7.29-6.25h-17.71c-4.165 0-7.29 3.125-7.29 7.292v1.043c4.165 26.04 20.833 44.79 55.208 50v25c0 4.165 3.125 7.29 8.332 8.332h15.625c4.168 0 7.293-3.125 8.335-8.332v-25c31.25-5.21 52.083-27.085 52.083-55.21z"/><path d="m196.875 398.957c-81.25-29.165-122.9175-119.79-92.708-200 15.625-43.75 50-77.082 92.708-92.707 4.167-2.083 6.25-5.208 6.25-10.4175v-14.5825c0-4.1675-2.083-7.2925-6.25-8.3325-1.043 0-3.125 0-4.168 1.04-98.957 31.2495-153.1245 136.4595-121.8745 235.4175 18.75 58.332 63.5425 103.125 121.8745 121.875 4.168 2.082 8.335 0 9.375-4.168 1.043-1.04 1.043-2.082 1.043-4.165v-14.585c0-3.125-3.125-7.29-6.25-9.375zm110.417-324.9995c-4.167-2.0825-8.335 0-9.375 4.1675-1.042 1.0425-1.042 2.0825-1.042 4.1675v14.5825c0 4.167 3.125 8.332 6.25 10.417 81.25 29.165 122.917 119.79 92.707 200-15.625 43.75-50 77.083-92.707 92.708-4.168 2.082-6.25 5.207-6.25 10.417v14.583c0 4.167 2.082 7.292 6.25 8.332 1.042 0 3.125 0 4.167-1.04 98.958-31.25 153.126-136.46 121.876-235.417-18.75-59.375-64.586-104.1675-121.876-122.9175z"/></g></g></g><g clip-path="url(#c)"><path d="m100.081 300.16c55.143 0 99.839 44.687 99.839 99.82s-44.696 99.78-99.8 99.78c-55.1439 0-99.800577-44.687-99.800577-99.78-.039276-55.133 44.656677-99.82 99.761577-99.82z" fill="#8247e5"/><g mask="url(#d)"><path d="m132.797 378.24c-2.395-1.374-5.459-1.374-8.169 0l-19.088 11.312-12.9611 7.187-18.7349 11.273c-2.3956 1.375-5.4591 1.375-8.1693 0l-14.6499-8.916c-2.396-1.374-4.0846-4.124-4.0846-7.187v-17.125c0-2.749 1.3744-5.459 4.0846-7.187l14.6499-8.563c2.396-1.374 5.4595-1.374 8.1693 0l14.6503 8.916c2.3956 1.375 4.0846 4.124 4.0846 7.188v11.311l12.9611-7.541v-11.626c0-2.749-1.375-5.459-4.085-7.187l-27.2573-16.103c-2.3961-1.375-5.4595-1.375-8.1693 0l-27.9254 16.456c-2.7101 1.375-4.0848 4.125-4.0848 6.834v32.168c0 2.749 1.3747 5.459 4.0848 7.187l27.6108 16.103c2.396 1.375 5.4595 1.375 8.1697 0l18.7345-10.958 12.961-7.541 18.735-10.958c2.396-1.374 5.459-1.374 8.169 0l14.65 8.563c2.396 1.374 4.085 4.123 4.085 7.187v17.124c0 2.75-1.375 5.46-4.085 7.188l-14.296 8.562c-2.396 1.375-5.46 1.375-8.17 0l-14.689-8.562c-2.396-1.375-4.085-4.124-4.085-7.188v-10.958l-12.9608 7.541v11.312c0 2.749 1.3748 5.459 4.0846 7.187l27.6112 16.104c2.396 1.374 5.459 1.374 8.169 0l27.611-16.104c2.396-1.374 4.085-4.123 4.085-7.187v-32.521c0-2.749-1.374-5.459-4.085-7.187z" fill="#fff"/></g></g><circle cx="100" cy="400" r="97.5" stroke="#000" stroke-width="5"/></svg>