<svg fill="none" height="311" viewBox="0 0 311 311" width="311" xmlns="http://www.w3.org/2000/svg" xmlns:xlink="http://www.w3.org/1999/xlink"><clipPath id="a"><path d="m0 0h311v311h-311z"/></clipPath><g clip-path="url(#a)"><path clip-rule="evenodd" d="m161.577 1.55355c-3.585-2.070095-8.003-2.070097-11.588-.00001l-124.6314 71.95576c-3.5855 2.0701-5.7942 5.8957-5.7942 10.0359v143.9118c0 4.14 2.2087 7.966 5.7942 10.036l50.4707 29.139v-70.309-41.036-34.563c0-4.023 2.0857-7.757 5.5103-9.867l34.4564-21.2269 33.889-20.8769c3.727-2.296 8.43-2.296 12.157 0l33.888 20.8769 34.457 21.2269c3.425 2.11 5.511 5.844 5.511 9.867v34.563 34.564c0 4.022-2.086 7.757-5.511 9.867l-34.457 21.226-33.888 20.877c-3.247 2-6.511-1.304-6.511-5.117v-27.373c0-3.731 3.334-6.589 6.511-8.545l28.378-17.483c3.425-2.109 5.51-5.844 5.51-9.866v-28.092c0-4.022-2.085-7.757-5.51-9.867l-28.378-17.482c-3.727-2.296-8.43-2.296-12.157 0l-28.378 17.482c-3.425 2.11-5.511 5.845-5.511 9.867v20.378c0 .009-.007.016-.016.016-.004 0-.007.002-.01.004-.004.003-.006.007-.006.013v85.72c0 .009.007.016.016.016s.016.007.016.016v36.612c0 .522-.033 1.033-.097 1.531l34.291 19.797c3.585 2.07 8.003 2.07 11.588 0l124.631-71.955c3.586-2.07 5.794-5.896 5.794-10.036v-143.9118c0-4.1402-2.208-7.9658-5.794-10.0359z" fill="#4e7fdc" fill-rule="evenodd"/></g></svg>