<svg fill="none" height="200" viewBox="0 0 200 200" width="200" xmlns="http://www.w3.org/2000/svg" xmlns:xlink="http://www.w3.org/1999/xlink"><mask id="a" height="168" maskUnits="userSpaceOnUse" width="168" x="16" y="16"><path d="m184 16h-168v168h168z" fill="#fff"/></mask><g mask="url(#a)"><path d="m99.8359 184c46.4821 0 84.1641-37.682 84.1641-84.1641 0-46.4825-37.682-84.164-84.1641-84.164-46.4825 0-84.164 37.6815-84.164 84.164 0 46.4821 37.6815 84.1641 84.164 84.1641z" fill="#fff"/><path d="m127.891 49.4648h-56.1098v12.3165h56.1098z" fill="#e50913"/><path d="m100.081 143.893c-5.3018 0-10.0527-.873-14.253-2.618-4.2004-1.744-7.5742-4.326-10.122-7.746-2.4787-3.42-3.7869-7.538-3.9248-12.353h18.798c.2753 2.722 1.2049 4.815 2.7884 6.281 1.5839 1.396 3.6494 2.094 6.1973 2.094 2.6161 0 4.6821-.594 6.1971-1.78 1.515-1.256 2.272-2.966 2.272-5.129 0-1.815-.62-3.315-1.859-4.502-1.17-1.186-2.651-2.164-4.441-2.931-1.722-.768-4.2005-1.64-7.4368-2.617-4.682-1.466-8.5037-2.932-11.4644-4.397-2.961-1.466-5.5085-3.629-7.6433-6.491-2.1345-2.861-3.2015-6.5947-3.2015-11.2009 0-6.8395 2.4442-12.1784 7.3329-16.0168 4.8891-3.9083 11.2583-5.8623 19.1077-5.8623 7.9874 0 14.4254 1.954 19.3144 5.8623 4.889 3.8384 7.505 9.2121 7.849 16.1214h-19.107c-.138-2.373-.998-4.2223-2.582-5.5482-1.584-1.3959-3.615-2.0938-6.0939-2.0938-2.1348 0-3.8561.5933-5.1644 1.7798-1.3082 1.1166-1.9625 2.7565-1.9625 4.9202 0 2.3727 1.1019 4.2223 3.3052 5.5483 2.2034 1.3259 5.6464 2.7565 10.3286 4.2922 4.682 1.6048 8.469 3.1408 11.361 4.6058 2.961 1.466 5.509 3.594 7.643 6.386 2.135 2.792 3.202 6.386 3.202 10.783 0 4.187-1.067 7.99-3.202 11.41-2.065 3.42-5.095 6.142-9.089 8.166-3.993 2.024-8.71 3.036-14.15 3.036z" fill="#000"/></g></svg>