<svg fill="none" height="200" viewBox="0 0 200 200" width="200" xmlns="http://www.w3.org/2000/svg" xmlns:xlink="http://www.w3.org/1999/xlink"><radialGradient id="a" cx="0" cy="0" gradientTransform="matrix(79.13082382 -7.62244254 16.00502853 166.15292097 65.9856 101.524)" gradientUnits="userSpaceOnUse" r="1"><stop offset="0" stop-color="#f99974"/><stop offset=".166667" stop-color="#fe4366"/><stop offset=".402254" stop-color="#f43d88"/><stop offset=".552743" stop-color="#d72de5"/><stop offset=".6875" stop-color="#3b7bea"/><stop offset=".828125" stop-color="#30b1cd"/><stop offset=".927083" stop-color="#40cad7"/><stop offset="1" stop-color="#09aca2"/></radialGradient><linearGradient id="b" gradientUnits="userSpaceOnUse" x1="67.6043" x2="119.4" y1="87.0516" y2="138.784"><stop offset="0" stop-color="#fff" stop-opacity="0"/><stop offset=".270833" stop-color="#fff" stop-opacity=".5"/><stop offset=".515625" stop-color="#fff" stop-opacity=".8"/><stop offset=".802083" stop-color="#fff" stop-opacity=".5"/><stop offset="1" stop-color="#fff" stop-opacity="0"/></linearGradient><linearGradient id="c"><stop offset="0" stop-color="#2f3146"/><stop offset="1" stop-color="#2f3146" stop-opacity="0"/></linearGradient><linearGradient id="d" gradientUnits="userSpaceOnUse" x1="122.914" x2="122.585" xlink:href="#c" y1="99.265" y2="75.4368"/><linearGradient id="e" gradientUnits="userSpaceOnUse" x1="123.158" x2="122.84" xlink:href="#c" y1="99.1695" y2="75.5022"/><path d="m100.333 184c46.392 0 84-37.608 84-84 0-46.3919-37.608-84-84-84-46.3914 0-83.9995 37.6081-83.9995 84 0 46.392 37.6081 84 83.9995 84z" fill="#000"/><g clip-rule="evenodd" fill-rule="evenodd"><path d="m99.8335 175.489c41.4275 0 75.0115-33.797 75.0115-75.489 0-41.6914-33.584-75.4889-75.0115-75.4889s-75.0111 33.7975-75.0111 75.4889c0 41.692 33.5836 75.489 75.0111 75.489zm0 3.511c43.3545 0 78.4995-35.37 78.4995-79 0-43.6305-35.145-79-78.4995-79-43.3543 0-78.5 35.3695-78.5 79 0 43.63 35.1457 79 78.5 79z" fill="#f0827d"/><path d="m105.884 65.4874c-9.0654-.1192-16.3413 6.8122-16.2523 15.4816l.1002 9.6973 5.6792-5.4095c1.7151-1.6341 4.5239-1.5971 6.2729.0824 1.751 1.6795 1.778 4.3655.063 5.9996l-5.6794 5.4098 10.1404.1337c9.065.1189 16.341-6.8123 16.252-15.4819-.09-8.6693-7.511-15.7939-16.576-15.913zm-24.8127 45.5466.2446 24.465c.0241 2.343 2.0299 4.268 4.4799 4.3 2.4501.033 4.4167-1.84 4.3922-4.183l-.2445-24.465 28.7185 27.565c1.749 1.68 4.558 1.716 6.273.082s1.688-4.32-.062-6l-28.7179-27.564 10.1399.133c13.965.183 25.175-10.4947 25.037-23.8499-.138-13.3556-11.57-24.3312-25.536-24.5148-13.965-.1835-25.1741 10.4945-25.0363 23.8501l.1001 9.6977-5.7921-5.5607c-1.7495-1.6796-4.5583-1.7165-6.2736-.0825-1.7153 1.6338-1.6876 4.3205.0619 6.0001l5.7921 5.5603-7.922-.1043c-2.4501-.0322-4.4166 1.8413-4.3924 4.184.0242 2.343 2.0299 4.269 4.4799 4.301l7.922.104-5.6788 5.41c-1.7153 1.634-1.6876 4.32.0619 6 1.7495 1.679 4.5584 1.716 6.2737.082z" fill="url(#a)"/><path d="m84.8289 75.0004c2.4168.0324 4.3954 1.9698 4.4189 4.3272l.1119 11.0377 5.6013-5.443c1.6924-1.6441 4.463-1.607 6.189.0829 1.725 1.6901 1.752 4.3926.06 6.0368l-5.6008 5.4429 11.3148.1514c2.416.0324 4.395 1.9702 4.419 4.3277.024 2.357-1.916 4.242-4.333 4.209l-11.3144-.151 28.3254 27.732c1.726 1.69 1.753 4.393.061 6.037s-4.462 1.607-6.188-.083l-28.3262-27.733.0863 8.477c.0235 2.357-1.9163 4.242-4.3329 4.21-2.4167-.033-4.3952-1.97-4.419-4.327l-.0858-8.477-5.6016 5.443c-1.692 1.645-4.4626 1.607-6.1883-.083-1.7258-1.69-1.7531-4.392-.0611-6.036l5.6016-5.443-7.8143-.105c-2.4166-.032-4.3951-1.97-4.419-4.327-.0238-2.3575 1.916-4.2424 4.3326-4.21l7.8143.1049-5.7133-5.5951c-1.7257-1.6899-1.7531-4.3924-.061-6.0365 1.692-1.6441 4.4626-1.607 6.1883.0829l5.7133 5.5945-.1117-11.0374c-.0239-2.3575 1.9159-4.2423 4.3327-4.2099z" fill="url(#b)" opacity=".7"/><path d="m104.05 56.8088c-2.448-.0323-4.4127 1.8415-4.3882 4.1851.0238 2.3436 2.0282 4.2696 4.4762 4.3018l1.329.0175c9.057.1191 16.472 7.2453 16.561 15.9167.09 8.6712-7.18 15.604-16.237 15.485l1.329.0175c2.448.0322 4.452 1.9579 4.477 4.3026.021 2.032-1.455 3.712-3.444 4.1 12.875-.931 22.87-11.1641 22.74-23.7885-.138-13.3586-11.56-24.3367-25.514-24.5203z" fill="url(#d)" opacity=".8"/><path d="m103.83 57.0004c-2.508-.032-4.5214 1.829-4.4963 4.1569.0244 2.3277 2.0773 4.2407 4.5853 4.2726l1.362.0174c9.28.1184 16.878 7.1963 16.969 15.809.091 8.6126-7.357 15.4986-16.636 15.3804l1.361.0173c2.509.032 4.562 1.9447 4.587 4.273.021 2.019-1.49 3.687-3.529 4.073 13.192-.925 23.433-11.0888 23.299-23.6278-.141-13.2683-11.844-24.1721-26.14-24.3545z" fill="url(#e)" opacity=".8"/></g></svg>