<svg fill="none" height="200" viewBox="0 0 200 200" width="200" xmlns="http://www.w3.org/2000/svg" xmlns:xlink="http://www.w3.org/1999/xlink"><linearGradient id="a" gradientUnits="userSpaceOnUse" x1="56.3335" x2="198.546" y1="57" y2="92.8496"><stop offset="0" stop-color="#5084e9"/><stop offset="1" stop-color="#6f50e9"/></linearGradient><linearGradient id="b" gradientUnits="userSpaceOnUse" x1="22.3335" x2="164.547" y1="23" y2="58.8496"><stop offset="0" stop-color="#e95062"/><stop offset="1" stop-color="#e950d0"/></linearGradient><linearGradient id="c" gradientUnits="userSpaceOnUse" x1="56.3336" x2="158.546" y1="56.9999" y2="82.8502"><stop offset="0" stop-color="#5084e9"/><stop offset="1" stop-color="#e95062"/></linearGradient><g clip-rule="evenodd" fill-rule="evenodd"><path d="m85.4616 148.112c17.3264 17.183 45.4174 17.183 62.7434 0s17.326-45.042 0-62.2247c-17.326-17.183-45.417-17.183-62.7434 0-17.3263 17.1827-17.3263 45.0417 0 62.2247zm-11.4081 11.314c23.6268 23.432 61.9335 23.432 85.5595 0 23.627-23.431 23.627-61.4209 0-84.8524-23.626-23.4315-61.9327-23.4315-85.5595 0-23.6267 23.4315-23.6267 61.4214 0 84.8524z" fill="url(#a)"/><path d="m51.4616 114.113c17.3263 17.183 45.4178 17.183 62.7444 0 17.326-17.1831 17.326-45.0425 0-62.2256-17.3266-17.1831-45.4181-17.1831-62.7444 0s-17.3263 45.0425 0 62.2256zm-11.408 11.314c23.6268 23.431 61.9334 23.431 85.5604 0 23.626-23.432 23.626-61.4218 0-84.8533-23.627-23.4316-61.9336-23.4316-85.5604 0-23.6268 23.4315-23.6268 61.4213 0 84.8533z" fill="url(#b)"/><path d="m73.4644 126.066c14.2406 2.965 29.6376-1.032 40.6656-11.933 11.028-10.902 15.072-26.122 12.073-40.1991-14.241-2.965-29.6383 1.0326-40.6662 11.9336-11.0279 10.9012-15.072 26.1215-12.0724 40.1985zm-12.9524 12.803c-8.5296-21.516-4.0005-46.9217 13.5873-64.3074s43.2897-21.8627 65.0557-13.4311c8.53 21.5163 4 46.9225-13.587 64.3085-17.588 17.385-43.2895 21.862-65.056 13.43z" fill="url(#c)"/></g></svg>