<svg fill="none" height="200" viewBox="0 0 200 200" width="200" xmlns="http://www.w3.org/2000/svg" xmlns:xlink="http://www.w3.org/1999/xlink"><linearGradient id="a" gradientUnits="userSpaceOnUse" x1="59.7078" x2="123.726" y1="173.676" y2="15.7343"><stop offset="0" stop-color="#3fad6c"/><stop offset="1" stop-color="#6ec2b7"/></linearGradient><path d="m99.8335 184c46.6685 0 84.4995-37.608 84.4995-84 0-46.3919-37.831-84-84.4995-84-46.6681 0-84.5 37.6081-84.5 84 0 46.392 37.8319 84 84.5 84z" fill="url(#a)"/><g fill="#fff"><path clip-rule="evenodd" d="m99.8334 177.43c43.0176 0 77.8916-34.876 77.8916-77.8992 0-43.0227-34.874-77.8995-77.8916-77.8995-43.018 0-77.891 34.8768-77.891 77.8995 0 43.0232 34.873 77.8992 77.891 77.8992zm0-6.57c39.3686 0 71.2826-31.935 71.2826-71.3292s-31.914-71.3296-71.2826-71.3296c-39.368 0-71.2821 31.9354-71.2821 71.3296s31.9141 71.3292 71.2821 71.3292z" fill-rule="evenodd"/><path d="m92.6265 82.3239v.0625l-5.9165-31.0345-4.9095-1.5643-3.0842 4.1296z"/><path d="m95.8364 69.3721 2.5177 12.0134 2.7069-12.2011-2.644-1.752z"/><path d="m114.531 71.4995-3.21.3129-3.777 11.8882 8.309-9.3228z"/><path d="m141.973 74.0023v-5.0681l-4.973-1.5643-23.288 21.7118z"/><path d="m85.0733 86.8291-6.9236-10.324-3.1472.5006-.5035 3.1284z"/><path d="m129.636 97.3408-12.399 2.4402 12.399 2.69 1.888-2.5648z"/><path d="m79.5345 99.8435-31.8487-4.0044-3.0842 4.1296 3.0842 4.1293z"/><path d="m67.7644 106.726-.9441 2.941 2.5806 1.877 11.0149-6.132z"/><path d="m71.4149 115.423-.1258 3.129 3.0212 1.064 8.8119-9.198z"/><path d="m87.2763 114.672-9.3784 8.198.8183 3.003 3.2101.125z"/><path d="m98.4176 118.302-2.5177 12.138 2.5806 1.815 2.5805-1.877z"/><path d="m142.036 125.685-28.324-14.955 23.415 21.587 4.909-1.564z"/><path d="m110.816 128-6.357-10.574 1.448 12.138 3.021.939z"/><path d="m92.6896 117.426-13.7843 28.469 3.0842 4.13 4.9095-1.565z"/></g></svg>