<svg fill="none" height="200" viewBox="0 0 200 200" width="200" xmlns="http://www.w3.org/2000/svg" xmlns:xlink="http://www.w3.org/1999/xlink"><linearGradient id="a" gradientUnits="userSpaceOnUse" x1="99.8516" x2="99.8516" y1="16" y2="184"><stop offset="0" stop-color="#fadc7e"/><stop offset="1" stop-color="#50400f"/></linearGradient><linearGradient id="b" gradientUnits="userSpaceOnUse" x1="99.8516" x2="99.8516" y1="21.25" y2="178.75"><stop offset="0" stop-color="#daab16"/><stop offset="1" stop-color="#a78a30"/></linearGradient><linearGradient id="c" gradientUnits="userSpaceOnUse" x1="99.8515" x2="99.8515" y1="23.875" y2="100"><stop offset="0" stop-color="#fcd24f"/><stop offset="1" stop-color="#c39c22"/></linearGradient><linearGradient id="d" gradientUnits="userSpaceOnUse" x1="99.8515" x2="99.8515" y1="43.5625" y2="168.25"><stop offset="0" stop-color="#ffe8a0"/><stop offset="1" stop-color="#dfc05c"/></linearGradient><path d="m99.8516 184c46.3914 0 84.0004-37.608 84.0004-84 0-46.3919-37.609-84-84.0004-84-46.392 0-84 37.6081-84 84 0 46.392 37.608 84 84 84z" fill="url(#a)"/><path d="m99.8516 178.75c43.4924 0 78.7504-35.258 78.7504-78.75 0-43.4924-35.258-78.75-78.7504-78.75-43.4925 0-78.75 35.2576-78.75 78.75 0 43.492 35.2575 78.75 78.75 78.75z" fill="url(#b)"/><path clip-rule="evenodd" d="m166.772 81.6654c-8.285-28.0552-35.109-48.6029-66.9204-48.6029-31.8117 0-58.636 20.548-66.9209 48.6035.8018-30.5823 30.4563-55.166 66.9208-55.166s66.1185 24.5834 66.9205 55.1654z" fill="url(#c)" fill-rule="evenodd"/><path d="m137.475 57.366c1.531-5.6703-.97-12.6393-7.057-12.4886-11.705-.1624-13.612 16.1759-12.299 30.4501l-12.413 10.5868c-4.624-3.954-11.0878-4.731-16.9002-3.3511-19.4359 4.7658-26.5958 32.4788-18.4652 48.3768-3.9739 9.323-3.4144 20.767 2.0097 29.418 4.5679 9.114 18.4082 12.071 15.6561 6.087-.6509-.811-.6509-.521-1.6443-.626-12.9839-.823-16.227-20.326-12.6414-29.672 11.5108 13.543 36.8733 8.905 45.8263-3.155 13.235-17.741 8.724-39.2506 5.995-58.5689 4.83-4.8122 10.22-10.1462 11.933-17.0571zm-64.9989 67.776c-6.6119-25.7884 15.4503-46.6605 29.6559-36.1549h.012c-12.3219 9.752-22.4395 22.0899-29.6679 36.1549zm41.4869 3.027c-7.651 13.613-30.4102 16.593-38.929 2.887 2.478-7.305 6.2806-14.077 11.2025-19.968l.0685-.023c5.5726-6.644 11.6592-12.8245 18.203-18.4948 2.934 9.0328-4.306 21.2428-12.7789 20.6518.5025 7.978 12.3439 1.774 14.6509-1.415 5.539-6.053 6.041-17.1496 2.09-22.7386l10.129-8.5229c2.101 24.2235 3.54 31.3895-4.636 47.6235zm10.894-59.2655c-2.113-22.6809 6.737-20.4662 7.868-18.5182 3.049 6.2037-5.036 16.5817-7.868 18.5182z" fill="#987918"/><path d="m134.85 56.0535c1.531-5.6703-.97-12.6393-7.057-12.4886-11.705-.1624-13.612 16.1759-12.299 30.4501l-12.413 10.5868c-4.6244-3.954-11.0878-4.731-16.9002-3.3511-19.4359 4.7658-26.5958 32.4793-18.4652 48.3773-3.9739 9.322-3.4144 20.767 2.0097 29.417 4.5679 9.114 18.4082 12.072 15.6561 6.088-.6509-.811-.6509-.521-1.6443-.626-12.9839-.823-16.227-20.327-12.6414-29.673 11.5108 13.543 36.8733 8.905 45.8263-3.154 13.235-17.741 8.724-39.2511 5.995-58.5694 4.83-4.8122 10.22-10.1462 11.933-17.0571zm-64.9989 67.7765c-6.6119-25.7889 15.4503-46.661 29.6562-36.1554h.0114c-12.3216 9.752-22.4392 22.0894-29.6676 36.1554zm41.4869 3.026c-7.651 13.614-30.4102 16.594-38.929 2.888 2.478-7.306 6.2806-14.078 11.2025-19.968l.0685-.023c5.5726-6.645 11.6592-12.825 18.203-18.4953 2.934 9.0333-4.3056 21.2433-12.7789 20.6523.5025 7.977 12.3439 1.774 14.6509-1.415 5.539-6.053 6.041-17.1501 2.09-22.7391l10.129-8.5229c2.101 24.223 3.54 31.389-4.636 47.623zm10.894-59.265c-2.113-22.6809 6.737-20.4662 7.868-18.5182 3.049 6.2037-5.036 16.5817-7.868 18.5182z" fill="url(#d)"/></svg>