<svg fill="none" height="200" viewBox="0 0 200 200" width="200" xmlns="http://www.w3.org/2000/svg"><path d="m159.251 40.612c-15.873-15.876-36.96-24.612-59.391-24.612-46.3257 0-84.0084 37.6824-84.0084 84 0 46.318 37.6827 84 84.0084 84 22.431 0 43.534-8.736 59.391-24.612 15.873-15.876 24.601-36.96 24.601-59.388s-8.728-43.5288-24.601-59.388zm-59.391 137.575c-43.1141 0-78.1904-35.078-78.1904-78.187 0-43.1088 35.0763-78.1872 78.1904-78.1872 43.114 0 78.19 35.0784 78.19 78.1872 0 43.109-35.076 78.187-78.19 78.187z" fill="#151a20"/><path d="m99.8598 178.187c-43.114 0-78.1904-35.078-78.1904-78.1871 0-43.1088 35.0764-78.1872 78.1904-78.1872 43.1142 0 78.1902 35.0784 78.1902 78.1872 0 43.1091-35.076 78.1871-78.1902 78.1871z" fill="#151a20"/><g fill="#fff"><path d="m159.251 40.612c-15.873-15.876-36.96-24.612-59.391-24.612-46.3257 0-84.0084 37.6824-84.0084 84 0 46.318 37.6827 84 84.0084 84 22.431 0 43.534-8.736 59.391-24.612 15.873-15.876 24.601-36.96 24.601-59.388s-8.728-43.5288-24.601-59.388zm-59.391 137.575c-43.1141 0-78.1904-35.078-78.1904-78.187 0-43.1088 35.0763-78.1872 78.1904-78.1872 43.114 0 78.19 35.0784 78.19 78.1872 0 43.109-35.076 78.187-78.19 78.187z"/><path d="m127.383 101.966c-5.374-4.8034-12.411-8.0113-19.23-11.1183l-.05-.0168c-12.0258-5.4921-22.422-10.245-21.683-21.481.3192-4.2828 3.4262-6.8692 5.9791-8.2632 2.872-1.5787 6.6844-2.5192 10.2119-2.5192.419 0 .839.0168 1.242.0336 10.262.6885 18.357 5.0385 26.268 14.0742l.47.5542.554-.4702 3.091-2.6872.554-.487-.487-.5542c-8.818-10.1108-18.391-15.1997-30.097-15.9891-.504-.0504-1.041-.0672-1.629-.0672-.353 0-.739 0-1.142.0168h-.504c-7.6754 0-16.0897 2.5193-22.4886 6.7518-7.6418 5.0553-11.9245 12.0084-12.0421 19.583-.3024 18.4243 14.7628 24.6218 28.0478 30.1138l.0336.017.1344.05c11.7569 4.871 21.9009 9.069 21.6819 20.322-.1 7.423-10.715 11.522-18.0037 11.522h-.3024-.7223v.016c-10.8664-.319-20.5739-5.005-28.854-13.889l-.5038-.538-.5374.487-3.0064 2.788-.5374.504.5038.538c9.4053 10.127 21.0108 15.569 33.5735 15.72h.571c8.1121 0 16.9291-2.183 23.5801-5.862 8.331-4.551 13.184-11.185 13.688-18.676.571-8.229-2.166-14.931-8.364-20.473zm-38.9979-16.0226c4.7867 4.0981 11.2695 7.0372 17.5339 9.8756l.118.0504c6.634 3.0567 12.915 5.9456 17.467 9.9596 5.038 4.434 7.171 9.573 6.718 16.174-.42 6.533-5.274 10.9-9.691 13.536.857-1.746 1.327-3.644 1.377-5.66.101-6.785-2.502-12.21-7.978-16.61-4.786-3.846-11.135-6.449-17.2818-8.985-12.7809-5.2571-24.8566-10.2285-24.6384-24.9073.0672-5.6433 3.4598-10.9841 9.5565-15.0317.2015-.1344.4031-.2688.6215-.4032-.7223 1.5789-1.1255 3.2248-1.2261 4.9547-.487 6.802 1.9481 12.3779 7.4234 17.0469z"/></g></svg>