<svg fill="none" height="200" viewBox="0 0 200 200" width="200" xmlns="http://www.w3.org/2000/svg"><path d="m100 184c-11.3379 0-22.338-2.223-32.6979-6.602-10.0044-4.232-18.9835-10.289-26.7001-18-7.7107-7.711-13.7679-16.696-17.9996-26.7-4.3799-10.36-6.6024-21.36-6.6024-32.698 0-11.3379 2.2225-22.338 6.6024-32.6979 4.2317-10.0044 10.2889-18.9835 17.9996-26.7001 7.7166-7.7107 16.6957-13.7679 26.7001-17.9996 10.3599-4.3799 21.36-6.6024 32.6979-6.6024 11.338 0 22.338 2.2225 32.698 6.6024 10.004 4.2317 18.983 10.2889 26.7 17.9996 7.711 7.7107 13.768 16.6957 18 26.7001 4.379 10.3599 6.602 21.36 6.602 32.6979 0 11.338-2.223 22.338-6.602 32.698-4.232 10.004-10.289 18.983-18 26.7-7.711 7.711-16.696 13.768-26.7 18-10.36 4.385-21.36 6.602-32.698 6.602z" fill="#fff"/><path d="m100 179.549c43.934 0 79.549-35.615 79.549-79.5491 0-43.9337-35.615-79.549-79.549-79.549-43.9337 0-79.549 35.6153-79.549 79.549 0 43.9341 35.6153 79.5491 79.549 79.5491z" fill="#000"/><g fill="#fff"><path d="m101.955 68.357c10.627.9483 18.99 9.7496 19.25 20.56l16.305 6.7743-8.499-13.8568 18.071-18.0707-10.799-10.7986-15.481 15.4867-18.841-30.7244v30.6295z"/><path d="m120.927 92.9412c-1.565 9.4118-9.341 16.7198-18.972 17.5848v11.19l35.881-21.7457z"/><path d="m79.1671 92.9412-16.909 7.0232 35.8806 21.7456v-11.19c-9.631-.859-17.4069-8.167-18.9716-17.5788z"/><path d="m137.433 111.374-35.478 21.502v28.478l14.598-20.572 15.238 15.238 10.798-10.799-17.069-17.069z"/><path d="m98.139 132.876-35.4776-21.502 11.9128 16.778-17.0691 17.069 10.7986 10.799 15.2377-15.232 14.5976 20.56z"/><path d="m62.5842 95.6972 16.3045-6.7743c.2608-10.8104 8.6234-19.6116 19.2501-20.5599v-30.6355l-18.8412 30.7244-15.4866-15.4867-10.7985 10.8045 18.0707 18.0707z"/><path d="m100.794 87.0086c-5.2335-1.6062-5.2335-2.4952-5.2335-3.2123 0-.9957 1.5053-2.3707 4.3324-2.3707 1.6711 0 4.4811.4148 4.4811 3.2123h5.091c0-4.9667-3.847-8.3034-9.5721-8.3034-6.1223 0-9.4235 3.8464-9.4235 7.4618 0 4.9429 4.3384 6.6972 8.7953 8.0722 5.2333 1.6062 5.2633 2.507 5.2633 3.2242 0 .9957-1.506 2.3707-4.333 2.3707-1.6771 0-4.4805-.4149-4.4805-3.2123h-5.091c0 4.9666 3.8464 8.3029 9.5715 8.3029 6.123 0 9.424-3.846 9.424-7.4613.006-4.9489-4.362-6.715-8.825-8.0841z"/></g></svg>