<svg fill="none" height="200" viewBox="0 0 200 200" width="200" xmlns="http://www.w3.org/2000/svg" xmlns:xlink="http://www.w3.org/1999/xlink"><linearGradient id="a" gradientUnits="userSpaceOnUse" x1="73.6381" x2="134.461" y1="19.948" y2="178.005"><stop offset="0" stop-color="#3a447c"/><stop offset=".523958" stop-color="#252945"/><stop offset="1" stop-color="#121114"/></linearGradient><linearGradient id="b" gradientUnits="userSpaceOnUse" x1="73.5826" x2="135.141" y1="20.3428" y2="178.062"><stop offset="0" stop-color="#7387f6"/><stop offset=".473958" stop-color="#4b548d"/><stop offset="1" stop-color="#1f1d23"/></linearGradient><linearGradient id="c" gradientUnits="userSpaceOnUse" x1="126.361" x2="65.5381" y1="180.052" y2="21.9952"><stop offset="0" stop-color="#53347a"/><stop offset=".523958" stop-color="#37244d"/><stop offset="1" stop-color="#16141b"/></linearGradient><linearGradient id="d" gradientUnits="userSpaceOnUse" x1="126.418" x2="64.859" y1="179.657" y2="21.9379"><stop offset="0" stop-color="#a868f5"/><stop offset=".473958" stop-color="#684692"/><stop offset="1" stop-color="#25222a"/></linearGradient><path d="m73.5817 19.948c32.6673-1.6312 54.4693 13.3438 74.9243 47.7168 25.169 42.2962 12.069 85.0372-14.884 110.2892 17.042-35.725 13.472-50.111-24.125-80.8211-37.5968-30.7101-40.1121-56.4649-35.9153-77.1849z" fill="url(#a)"/><path clip-rule="evenodd" d="m184 100.601c0 34.518-20.713 64.209-50.41 77.364 19.03-17.59 42.058-63.379 15.831-106.5844-23.191-38.2042-57.4647-47.8166-75.8514-51.4322 8.0965-2.5647 16.7203-3.9484 25.6679-3.9484 46.8135 0 84.7625 37.877 84.7625 84.601z" fill="url(#b)" fill-rule="evenodd"/><path d="m126.418 180.052c-22.325 3.893-49.1888-10.154-74.9246-47.717-27.8217-40.6076-12.0691-85.0367 14.8838-110.2886-17.0422 35.7243-13.472 50.1109 24.1247 80.8216 37.5971 30.71 40.1131 56.464 35.9161 77.184z" fill="url(#c)"/><path clip-rule="evenodd" d="m16 99.3991c0-34.5185 20.713-64.2087 50.4106-77.3644-19.03 17.589-42.0583 63.3793-15.8313 106.5843 23.1911 38.204 57.4647 47.817 75.8517 51.433-8.097 2.565-16.721 3.948-25.668 3.948-46.8133 0-84.763-37.877-84.763-84.6009z" fill="url(#d)" fill-rule="evenodd"/></svg>