<svg fill="none" height="200" viewBox="0 0 200 200" width="200" xmlns="http://www.w3.org/2000/svg" xmlns:xlink="http://www.w3.org/1999/xlink"><linearGradient id="a" gradientUnits="userSpaceOnUse" x1="73.6387" x2="134.462" y1="19.948" y2="178.005"><stop offset="0" stop-color="#818181"/><stop offset=".523958" stop-color="#505050"/><stop offset="1" stop-color="#252525"/></linearGradient><linearGradient id="b" gradientUnits="userSpaceOnUse" x1="73.5824" x2="135.141" y1="20.3428" y2="178.062"><stop offset="0" stop-color="#f2f2f2"/><stop offset=".473958" stop-color="#989898"/><stop offset="1" stop-color="#292929"/></linearGradient><linearGradient id="c" gradientUnits="userSpaceOnUse" x1="126.361" x2="65.538" y1="180.052" y2="21.9952"><stop offset="0" stop-color="#808080"/><stop offset=".523958" stop-color="#545454"/><stop offset="1" stop-color="#171717"/></linearGradient><linearGradient id="d" gradientUnits="userSpaceOnUse" x1="126.418" x2="64.8588" y1="179.657" y2="21.9382"><stop offset="0" stop-color="#f3f3f3"/><stop offset=".473958" stop-color="#949494"/><stop offset="1" stop-color="#303030"/></linearGradient><path d="m73.5824 19.948c32.6676-1.6312 54.4696 13.3439 74.9236 47.7171 25.17 42.2959 12.069 85.0369-14.883 110.2879 17.042-35.724 13.472-50.11-24.125-80.8203-37.5972-30.7101-40.1126-56.4647-35.9156-77.1847z" fill="url(#a)"/><path clip-rule="evenodd" d="m184 100.601c0 34.518-20.713 64.209-50.411 77.364 19.031-17.589 42.058-63.379 15.831-106.5846-23.191-38.2041-57.4639-47.8164-75.8507-51.432 8.0964-2.5647 16.7202-3.9484 25.6679-3.9484 46.8128 0 84.7628 37.877 84.7628 84.601z" fill="url(#b)" fill-rule="evenodd"/><path d="m126.418 180.052c-22.325 3.893-49.1888-10.154-74.9246-47.717-27.8217-40.6076-12.0691-85.0368 14.8839-110.2886-17.0423 35.7244-13.4721 50.1108 24.1248 80.8216 37.5969 30.709 40.1129 56.464 35.9159 77.184z" fill="url(#c)"/><path clip-rule="evenodd" d="m16 99.3994c0-34.5186 20.7131-64.2087 50.4105-77.3645-19.03 17.5891-42.0582 63.3792-15.8312 106.5841 23.1913 38.205 57.4647 47.817 75.8517 51.433-8.097 2.564-16.721 3.948-25.668 3.948-46.8134 0-84.763-37.877-84.763-84.6006z" fill="url(#d)" fill-rule="evenodd"/></svg>