<svg fill="none" height="200" viewBox="0 0 200 200" width="200" xmlns="http://www.w3.org/2000/svg"><path d="m138.081 34.4365c-4.267 4.2195-8.177 8.7927-11.652 13.6691l-1.099-.3538c-6.338-2.0465-12.905-3.3098-19.523-3.7394-1.993-.1516-9.4296-.1516-11.8572 0-7.334.4801-12.9558 1.5665-19.3442 3.7647-.2556.1011-.4855.1769-.7155.2527-3.6031-4.8512-7.615-9.3991-12.0359-13.568 21.2097-10.7382 46.0228-12.0268 68.2288-3.5626 2.376.8843 4.702 1.9202 6.976 3.032z" fill="#f00500"/><path d="m177.638 130.272c-3.219 9.07-8.049 17.484-14.31 24.811-3.398 3.942-7.155 7.555-11.192 10.839-9.455 7.53-20.494 12.912-32.275 15.741-13.032 3.108-26.6267 3.108-39.6592 0-11.8058-2.829-22.8195-8.211-32.2743-15.741-4.0375-3.284-7.794-6.897-11.1926-10.839-18.0154-21.047-23.4839-49.951-14.3101-76.0009 1.7376-4.8259 3.9097-9.4749 6.5162-13.8965 1.201-2.0213 2.6831-4.2953 3.3987-5.2302 2.4531 10.435 5.4684 19.6067 6.5928 22.9166-.0767.1769-.1789.379-.2811.5559-5.954 11.9257-9.1738 23.4221-9.9404 35.6511 0 .151-.0256.328-.0256.48-.2044 3.663-.1022 5.407.5111 7.706 1.9166 7.201 7.8195 15.135 17.07 22.917 15.1533 12.734 35.6986 21.931 51.2608 22.992 16.2267 1.086 40.1707-8.287 56.1157-21.982 2.505-2.198 4.856-4.522 7.053-6.999 1.585-1.819 3.936-4.952 3.757-4.952-.051 0 0-.05.102-.101.077-.05.153-.126.102-.177-.025-.025.026-.101.102-.126.077-.025.128-.076.103-.126-.026-.051 0-.101.102-.127.076-.025.102-.101.076-.151-.025-.051 0-.101.051-.101.052 0 .103-.076.103-.127 0-.05.051-.126.102-.126s.102-.051.102-.101c.077-.202.205-.404.332-.581.384-.581 1.917-3.285 2.121-3.74 1.457-3.259 2.377-6.165 2.811-9.07.205-1.39.332-3.942.23-4.548-.025-.101-.025-.278-.051-.556-.051-.505-.077-1.263-.128-2.021-.051-1.137-.153-2.729-.23-3.512-1.098-11.471-4.063-20.8451-9.685-30.7748-.23-.379-.434-.758-.562-1.0612-.051-.0758-.076-.1516-.102-.2021.792-2.3498 4.038-12.1784 6.618-23.4219l.052.0505.383.5054c.664.8843 2.427 3.512 3.22 4.7753 3.603 5.8112 6.414 12.052 8.407 18.5707 4.625 15.6904 4.242 32.4171-1.176 47.8801z" fill="#f00500"/><g fill="#000"><path d="m144.47 100.078c-.077.405-1.278 1.617-2.479 2.502-3.526 2.552-9.838 4.927-16.252 6.064-3.654.657-7.309.758-8.407.227-.716-.354-.818-.632-.563-1.541.537-1.895 2.275-3.967 4.983-5.913 1.38-.985 6.977-4.3454 9.583-5.7603 4.293-2.3245 7.768-3.7141 10.119-4.0426.741-.1011 1.636-.1263 1.917 0 .46.1769.971 1.516 1.175 3.133.103.8591.051 4.649-.076 5.3309z"/><path d="m84.2649 108.442c-.1533.303-.92.631-1.7888.758-.8688.126-3.5264.05-5.0341-.127-5.4174-.707-11.167-2.35-15.3578-4.371-2.3509-1.137-4.0375-2.274-5.2896-3.512l-.7155-.733-.0767-.9597c-.1278-1.6676-.1022-4.2953.1022-5.2302.1278-.7832.4089-1.5412.7922-2.2234.2044-.2527.2044-.2527 1.1244-.2527 1.1243 0 2.0698.1769 3.603.6569 3.1432.9602 7.8195 3.2847 13.518 6.6704 4.7019 2.7797 6.4651 4.1437 7.8194 6.0137.92 1.162 1.5333 2.804 1.3033 3.31z"/><path d="m120.449 143.612c0 .076-.307 1.289-.69 2.729s-.69 2.603-.69 2.653c-.281.025-.536.051-.817.025h-.818l-1.125 2.628c-.613 1.44-1.175 2.779-1.252 2.981l-.153.354-.537-.859-.536-.859v-6.999l-.205.051c-.434.101-3.526.505-4.88.631-5.597.556-11.2186.43-16.7893-.353-.8944-.127-1.661-.228-1.6866-.202-.0255.025.0001 1.642.0512 3.638l.0766 3.588-.4344.657c-.23.353-.46.657-.46.682-.0766.076-.3322-.329-.9199-1.491-.6389-1.213-1.0988-2.501-1.431-3.84l-.1789-.733-.7922.051-.7921.075-.2045-.935c-.1022-.505-.23-1.288-.2811-1.718l-.0766-.808-.6644-.581c-.3833-.329-.7666-.657-.8433-.708-.1277-.101-.1789-.278-.1789-.429v-.303l3.1942.025 3.1943.025.1022.329.1022.328 1.0988.051c.6133.025 2.5554.075 4.2931.126l3.1942.076.8177-1.264.8433-1.263h1.0734l-.026-2.628-.025-2.627-1.4057-.607c-4.5231-1.971-7.1806-4.219-8.1772-6.948-.2045-.556-.2045-.758-.2556-3.285-.0255-2.501-.0255-2.728.1533-3.284.3578-1.264 1.3544-2.249 2.6321-2.577.4344-.127 1.5843-.127 7.6151-.127l7.104.025.792.379c.945.455 1.38.784 1.917 1.491.613.809.792 1.44.792 2.982 0 2.198-.154 4.093-.384 4.851-.332 1.036-.843 2.021-1.482 2.905-1.277 1.617-3.603 3.234-5.724 3.967l-.613.228.026 2.653.025 2.653.562.05.562.051.767 1.137.741 1.137h3.424c1.891 0 3.552.025 3.706.05.255.051.306.025.562-.404l.306-.455h2.939c2.198-.101 2.862-.05 2.862.025z"/><path d="m106.957 150.864c-.486.278-.818.404-.895.353-.076-.025-.434-.328-.818-.606l-.689-.556-.716.758c-1.559 1.668-1.61 1.744-2.07 1.769-.715.076-.869-.051-1.738-1.339-.4595-.657-.8172-1.213-.8172-1.213s-.3322-.051-.7155-.076l-.7155-.076-.3323.683-.3321.682-.5878-.177c-.46-.152-.9199-.329-1.3543-.531l-.7666-.379v-1.44l6.7973.025 6.797.026.026.682c.025.808.051.783-1.073 1.415z"/></g><path d="m170.841 120.039c-.025-.101-.025-.278-.051-.556-6.133-.657-23.637-1.061-39.889 12.204 0 0-5.239-23.751-29.771-23.751-24.5311 0-33.6283 23.751-33.6283 23.751-13.7479-14.63-32.1466-13.568-38.7906-12.608 0 .151-.0256.328-.0256.48-.2044 3.663-.1022 5.407.5111 7.706 1.9165 7.201 7.8195 15.135 17.0699 22.917 15.1534 12.734 35.6986 21.931 51.2609 22.992 16.2266 1.086 40.1706-8.287 56.1156-21.982 2.505-2.198 4.856-4.522 7.053-6.999 1.585-1.819 3.936-4.952 3.757-4.952-.051 0 0-.05.102-.101.077-.05.153-.126.102-.177-.025-.025.026-.101.102-.126.077-.025.128-.076.103-.126-.026-.051 0-.101.102-.127.076-.025.102-.101.076-.151-.025-.051 0-.101.052-.101.051 0 .102-.076.102-.127 0-.05.051-.126.102-.126s.102-.05.102-.101c.077-.202.205-.404.332-.581.384-.581 1.917-3.285 2.121-3.74 1.457-3.259 2.377-6.165 2.811-9.07.154-1.39.281-3.942.179-4.548zm-63.884 30.825c-.486.278-.818.404-.895.354-.076-.026-.434-.329-.817-.607l-.69-.556-.716.758c-1.559 1.668-1.61 1.744-2.07 1.769-.715.076-.868-.051-1.737-1.339-.4603-.657-.8181-1.213-.8181-1.213s-.3321-.051-.7154-.076l-.7156-.076-.3322.683-.3322.682-.5877-.177c-.46-.152-.9199-.329-1.3543-.531l-.7667-.379v-1.44l6.7972.025 6.797.026.026.682c.026.808.051.783-1.073 1.415zm12.777-4.548c-.384 1.44-.69 2.602-.69 2.653-.281.025-.537.05-.818.025h-.818l-1.099 2.653c-.613 1.44-1.175 2.779-1.252 2.981l-.153.354-.537-.859-.536-.859v-6.999l-.205.051c-.434.101-3.526.505-4.88.632-5.597.555-11.2186.429-16.7893-.354-.8944-.127-1.661-.228-1.6866-.202-.0255.025 0 1.642.0511 3.638l.0767 3.588-.4344.657c-.23.353-.46.657-.46.682-.0767.076-.3322-.329-.9199-1.491-.6389-1.213-1.0988-2.501-1.431-3.84l-.1789-.733-.7922.051-.7921.075-.2045-.934c-.1022-.506-.23-1.289-.2811-1.719l-.0766-.808-.6644-.581c-.3833-.329-.7666-.657-.8433-.708-.1278-.101-.1789-.278-.1789-.429v-.303l3.1942.025 3.1943.025.1022.329.1022.328 1.0988.051c.6133.025 2.5554.075 4.293.126l3.1943.076.8177-1.264.8433-1.263h1.0734l-.026-2.628-.025-2.627-1.4058-.607c-4.523-1.971-7.1806-4.219-8.1772-6.948-.2044-.556-.2044-.758-.2555-3.285-.0255-2.501-.0256-2.728.1533-3.284.3578-1.264 1.3544-2.249 2.6321-2.577.4344-.127 1.5843-.127 7.6151-.127l7.104.026.792.379c.945.454 1.38.783 1.917 1.49.613.809.792 1.44.792 2.982 0 2.198-.154 4.093-.384 4.851-.332 1.036-.843 2.021-1.482 2.905-1.277 1.617-3.603 3.235-5.724 3.967l-.613.228.026 2.653.025 2.653.562.05.562.051.767 1.137.741 1.137h3.424c1.891 0 3.552.025 3.706.05.255.051.306.025.562-.404l.306-.455h2.939c2.274 0 2.939.025 2.939.101-.077-.025-.409 1.213-.792 2.628z" fill="#fff"/><path d="m170.637 117.462c-.051-1.137-.154-2.729-.23-3.512-1.099-11.471-4.063-20.845-9.685-30.7747-.23-.379-.435-.758-.562-1.0612-.051-.0758-.077-.1516-.103-.2021.793-2.3498 4.038-12.1784 6.619-23.4219 3.501-15.2609 5.724-33.0989-1.073-38.4554 0 0-11.755-.859-27.496 14.4018-4.268 4.2195-8.178 8.7927-11.653 13.6691l-1.099-.3537c-6.337-2.0466-12.904-3.3099-19.523-3.7394-1.993-.1516-9.429-.1516-11.8567 0-7.3339.48-12.9557 1.5665-19.3441 3.7647-.2556.101-.4856.1768-.7156.2526-3.603-4.8511-7.615-9.399-12.0358-13.568-16.38-15.3367-28.5691-14.4523-28.5691-14.4523-7.2062 5.5333-4.753 24.1798-1.0221 39.946 2.4531 10.435 5.4685 19.6067 6.5928 22.9166-.0766.1769-.1788.379-.2811.5559-5.954 11.9257-9.1738 23.422-9.9404 35.651 6.6695-.96 25.0427-2.047 38.8162 12.608 0 0 9.0971-23.751 33.6289-23.751 24.531 0 29.77 23.751 29.77 23.751 16.252-13.265 33.757-12.836 39.889-12.204-.025-.505-.076-1.263-.127-2.021zm-126.9259-44.1153s-9.5571-23.624-7.104-37.1163c.4089-2.2739 1.1755-4.27 2.3765-5.786 0 0 10.8348 1.0612 28.3136 20.2637 0 0-3.322 1.5917-7.7683 4.9774 0 0-.0256.0253-.0511.0253-4.8297 3.6636-11.0137 9.4749-15.7667 17.6359zm40.5538 35.0953c-.1533.303-.9199.631-1.7888.758-.8688.126-3.5264.05-5.034-.127-5.4174-.707-11.167-2.349-15.3578-4.371-2.351-1.137-4.0376-2.274-5.2897-3.512l-.7155-.733-.0767-.9596c-.1277-1.6676-.1022-4.2953.1023-5.2302.1277-.7832.4088-1.5412.7921-2.2234.2045-.2527.2045-.2527 1.1244-.2527 1.1244 0 2.0699.1769 3.6031.657 3.1431.9601 7.8194 3.2846 13.5179 6.6703 4.7019 2.7796 6.4651 4.1436 7.8195 6.0136.9199 1.162 1.5332 2.804 1.3032 3.31zm60.2051-8.364c-.077.405-1.278 1.618-2.479 2.502-3.527 2.552-9.838 4.927-16.252 6.064-3.654.657-7.309.758-8.407.227-.716-.354-.818-.631-.563-1.541.537-1.895 2.275-3.967 4.983-5.912 1.38-.986 6.976-4.3462 9.583-5.7611 4.293-2.3245 7.768-3.7142 10.119-4.0426.741-.1011 1.636-.1264 1.917 0 .46.1768.971 1.5159 1.175 3.133.102.859.051 4.649-.076 5.3307zm-4.242-44.3925-.051-.0252c-4.293-3.3857-7.513-4.9775-7.513-4.9775 16.891-19.2024 27.342-20.2636 27.342-20.2636 1.15 1.5412 1.891 3.512 2.3 5.786 2.377 13.4922-6.848 37.1415-6.848 37.1415-3.859-6.7966-9.046-12.81-15.23-17.6612z" fill="#ffa409"/><path d="m162.332 36.2052c-1.993-.2527-11.423-.3032-22.104 19.4803l-.051-.0252c-4.293-3.3857-7.513-4.9775-7.513-4.9775 16.891-19.2024 27.342-20.2636 27.342-20.2636 1.176 1.5412 1.917 3.512 2.326 5.786z" fill="#ff9300"/><path d="m155.483 73.3467c-3.884-6.8219-9.046-12.81-15.255-17.6611 10.681-19.7836 20.085-19.733 22.104-19.4804 2.376 13.5175-6.849 37.1415-6.849 37.1415z" fill="#ff8300"/><path d="m162.715 36.2809c-.128-.0253-.255-.0506-.383-.0758z" fill="#ff8300"/><path d="m67.2972 50.6828s-3.322 1.5918-7.7684 4.9775c0 0-.0255.0252-.0511.0252-11.0648-19.8088-20.8007-19.733-22.8962-19.4803.4089-2.274 1.1755-4.27 2.3766-5.786.0255 0 10.8603 1.0612 28.3391 20.2636z" fill="#ff9300"/><path d="m59.5034 55.6856c-4.8552 3.6889-11.0392 9.4748-15.7922 17.6611 0 0-9.5571-23.624-7.1039-37.1415 2.0698-.2526 11.8314-.3032 22.8961 19.4804z" fill="#ff8300"/><path d="m36.6071 36.2051c-.1278.0252-.2811.0505-.4089.0758z" fill="#ff8300"/><g fill="#fff"><path d="m129.623 86.46s-8.177.5053-7.155-5.8113c1.022-6.3165 7.41-7.0745 9.199-6.8219 1.789.2527 8.944 2.7793 7.666 8.0853-1.277 5.3059-3.066 4.2952-4.088 4.5479s-5.622 0-5.622 0z"/><path d="m69.316 86.46s-8.1772.5053-7.1551-5.8113c1.0222-6.3165 7.4106-7.0745 9.1994-6.8219 1.7888.2527 8.9438 2.7793 7.6661 8.0853-1.2777 5.3059-3.0664 4.2952-4.0886 4.5479-1.0221.2527-5.6218 0-5.6218 0z"/></g></svg>