<svg fill="none" height="200" viewBox="0 0 200 200" width="200" xmlns="http://www.w3.org/2000/svg"><path d="m100 184c46.392 0 84-37.608 84-84 0-46.3919-37.608-84-84-84-46.3919 0-84 37.6081-84 84 0 46.392 37.6081 84 84 84z" fill="#fafafa" stroke="#000"/><path d="m126.877 65.753c-.212-14.1564-7.087-22.7136-20.203-24.8265-9.9432-1.5846-19.7802 5.2823-21.3668 15.1072-.3173 2.2185.1058 4.5427 1.1635 6.55 2.7501 5.1766 7.9331 8.6628 13.8563 9.1911 4.02.5282 6.981-1.9016 6.876-5.3879-.106-2.1129-.952-3.0637-3.068-2.6411-1.481.3169-2.856.7395-4.3367 1.1621-4.0194 1.162-6.7696.2112-8.5677-3.4863-.6347-1.479-.5289-3.275.2115-4.754 5.7118-8.4516 21.1549-8.1347 26.6549.3169 3.914 5.9161 1.693 15.8467-4.971 18.8048-8.251 3.4862-16.924 6.0217-26.4437 3.0637-8.1447-2.5355-12.2699-7.7121-13.5392-15.6355-3.0674-18.1708 5.8176-28.524 23.482-32.2216 7.1929-1.479 14.4909-1.5846 21.3669 1.5847 10.894 5.0709 16.5 14.3677 19.145 25.6716 3.913 16.2693-5.924 37.2926-20.521 45.4268-8.779 4.86-17.4524 3.909-26.2316.212-4.5483-1.902-8.9909-4.1204-13.2218-6.5502-5.6061-3.1694-11.4237-3.275-17.6644-2.4299-2.8559.317-5.7118-.2113-8.1446-1.479-3.1732-1.7959-4.3368-5.9161-2.4328-9.0854.6346-1.0565 1.5866-2.0073 2.6443-2.5355 6.3465-3.8032 14.2796-3.8032 20.6261-.1056 6.3464 3.3806 12.6929 7.0781 19.4625 9.4023 13.3273 4.5427 30.2513-4.754 33.9533-17.8539.952-2.3242.952-4.9653 1.27-7.5008z" fill="#85be60"/><path d="m52.7255 143.829c0-3.425-11.303-3.532-11.303-10.918 0-5.137 4.2254-7.492 8.979-7.492 2.2183-.107 4.5423.428 6.5494 1.498.9507.536 1.5845 1.606 1.5845 2.676 0 1.499-1.162 2.783-2.6409 2.783-.1056 0-.1056 0-.2112 0-2.1127 0-3.6973-1.391-6.1269-1.391-1.0563 0-1.9014.321-1.9014 1.498 0 2.89 11.6199 3.639 11.5142 10.597 0 5.565-4.8592 7.706-9.1902 7.706-2.7465 0-5.3874-.856-7.7114-2.462-.8451-.642-1.2676-1.605-1.2676-2.676 0-1.498 1.162-2.783 2.6409-2.783h.2112c2.4296 0 3.5916 2.355 6.7607 2.355 1.2676.107 2.1127-.321 2.1127-1.391zm11.9367-27.508c2.0071 0 3.6973 1.606 3.8029 3.639 0 2.034-1.5845 3.746-3.5916 3.853-2.0071 0-3.6972-1.605-3.8029-3.639 0 0 0 0 0-.107-.1056-2.033 1.4789-3.746 3.486-3.746zm-3.0634 13.272c0-2.14 1.162-3.211 3.0634-3.211 2.0071 0 3.1691 1.071 3.1691 3.211v17.661c0 2.248-1.0564 3.318-3.1691 3.318s-3.169-1.07-3.169-3.318zm9.8241-9.847c0-2.14.9507-3.318 3.0634-3.318s3.0634 1.07 3.0634 3.318v14.236l7.9226-6.958c.6338-.535 1.3733-.749 2.1127-.749 1.7958.107 3.1691 1.606 3.1691 3.425 0 .964-.4226 1.927-1.2676 2.462l-4.4367 3.853c5.3874 10.168 6.1268 9.098 6.1268 11.56 0 1.819-.8451 3.318-2.9578 3.318-1.1619 0-2.3239-.642-2.9577-1.713l-5.0705-9.311c-.2113.214-2.4296 2.033-2.6409 2.247v5.352c0 2.141-.9507 3.211-3.0634 3.211s-3.0634-1.07-3.0634-3.211zm42.0431 18.624c0 6.636-3.698 12.63-10.564 12.63-6.8662 0-10.5634-6.315-10.4578-12.844 0-6.636 3.5916-12.416 10.5638-12.309 6.866 0 10.563 6.101 10.458 12.523zm-14.6837-.428c0 2.89 1.2677 7.171 4.1197 7.171s4.12-3.425 4.12-6.422-1.268-6.85-4.12-6.85c-2.852-.107-4.1197 3.104-4.1197 6.101zm17.5357-18.624c0-2.141.95-3.318 3.063-3.318s3.169 1.177 3.169 3.318v9.74c1.268-2.141 3.592-3.425 6.127-3.425 4.014 0 8.24 4.281 8.24 12.63 0 6.957-4.86 12.737-9.296 12.737-2.536-.107-4.754-1.606-5.599-3.96v1.391c-.106 1.392-1.268 2.569-2.641 2.569-2.007 0-3.063-1.177-3.063-3.425zm14.155 19.159c0-2.89-.951-6.636-3.592-6.636-2.852 0-4.225 3.425-4.225 6.422 0 3.211 1.267 6.422 4.225 6.422 2.641 0 3.592-3.318 3.592-6.208zm18.275-12.416c5.176 0 10.246 2.569 10.246 8.991v12.63c.106 1.712-1.267 3.211-2.957 3.211-.106 0-.106 0-.212 0-1.267 0-2.429-.963-2.535-2.248v-.856c-1.69 1.927-4.12 2.997-6.655 3.104-4.648 0-7.289-3.318-7.289-6.85.106-4.389 3.697-7.814 8.028-7.707h.212c2.007 0 4.119.536 5.81 1.713v-2.034c0-2.461-2.641-4.067-4.965-4.067-1.69 0-2.958.535-4.437.535s-2.958-.535-2.958-2.676c.106-1.284.951-2.354 2.113-2.675 1.796-.643 3.697-1.071 5.599-1.071zm.105 19.266c1.796 0 3.803-.749 3.803-2.247 0-1.071-1.796-1.713-3.38-1.713-1.585 0-3.38.535-3.38 1.927-.106 1.391 1.478 2.033 2.957 2.033z" fill="#7b7f84"/></svg>