<svg fill="none" height="40" viewBox="0 0 40 40" width="40" xmlns="http://www.w3.org/2000/svg" xmlns:xlink="http://www.w3.org/1999/xlink"><linearGradient id="a" gradientUnits="userSpaceOnUse" x1="6.17143" x2="31.619" y1="5.86667" y2="35.2762"><stop offset="0" stop-color="#02b8ff"/><stop offset=".555208" stop-color="#2436ff"/><stop offset="1" stop-color="#7026fe"/></linearGradient><path d="m20 40c11.0457 0 20-8.9543 20-20 0-11.04569-8.9543-20-20-20-11.04569 0-20 8.95431-20 20 0 11.0457 8.95431 20 20 20z" fill="url(#a)"/><path d="m3.09828 9.27036 13.63332 17.83104c1.714 1.9712 3.3203 2.4649 5.2666 1.6815 2.0799-1.2229 2.1563-3.6687.1145-5.6942-1.589-1.2609-2.6772-2.1062-4.885-3.7643-7.0985-5.3311-.1908-13.89149 6.3543-9.64955.8675.68085 1.2878 1.08445 1.8891 1.85355l12.8253 16.7325c-.3621.801-.7751 1.5739-1.2349 2.3146l-13.6131-17.7287c-.5449-.6499-.8162-.9045-1.2784-1.2038-4.5225-2.44582-7.3085 2.656-3.7592 5.5413.4583.3483.8859.6702 1.2897.9742 1.4794 1.1139 2.64 1.9878 3.8243 3.0385 3.6447 2.8089 3.0531 7.8534-.229 9.5923-2.5761 1.4713-6.0872.9553-8.3579-2.0828l-13.09879-17.124c.36997-.8007.79109-1.5728 1.25917-2.31214z" fill="#fff"/></svg>