<svg fill="none" height="200" viewBox="0 0 200 200" width="200" xmlns="http://www.w3.org/2000/svg"><path d="m184.456 100c0-46.3919-37.608-84-84-84-46.3919 0-83.9999 37.6081-83.9999 84 0 46.392 37.608 84 83.9999 84 46.392 0 84-37.608 84-84z" fill="#1f1f2d"/><g fill="#f26057"><path d="m100.456 121c-11.6024 0-20.9999-9.397-20.9999-21 0-11.6025 9.3975-21 20.9999-21 11.603 0 21 9.3975 21 21 0 11.603-9.397 21-21 21z"/><path d="m100.456 121c11.598 0 21-9.402 21-21 0-11.5979-9.402-21-21-21-11.5979 0-20.9999 9.4021-20.9999 21 0 11.598 9.402 21 20.9999 21z"/><path d="m129.856 100c0 11.603 9.397 21 21 21v-42c-11.603 0-21 9.3975-21 21z"/><path d="m71.0561 100c0-11.6025-9.3975-21-20.9999-21v42c11.6024 0 20.9999-9.397 20.9999-21z"/><path d="m100.456 70.6001c11.603 0 21-9.3975 21-21h-41.9999c0 11.6025 9.3975 21 20.9999 21z"/><path d="m150.856 70.6001v-21h-21c0 11.6025 9.397 21 21 21z"/><path d="m71.0561 49.6001h-20.9999v21c11.6024 0 20.9999-9.3975 20.9999-21z"/><path d="m100.456 129.4c-11.6024 0-20.9999 9.397-20.9999 21h41.9999c0-11.603-9.397-21-21-21z"/><path d="m150.856 129.4c-11.603 0-21 9.397-21 21h21z"/><path d="m50.0562 129.4v21h20.9999c0-11.603-9.3975-21-20.9999-21z"/></g></svg>