<svg fill="none" height="200" viewBox="0 0 200 200" width="200" xmlns="http://www.w3.org/2000/svg" xmlns:xlink="http://www.w3.org/1999/xlink"><linearGradient id="a" gradientUnits="userSpaceOnUse" x1="28.9635" x2="192.123" y1="82.334" y2="122.651"><stop offset="0" stop-color="#fef5a0"/><stop offset=".6354" stop-color="#93d4cb"/><stop offset="1" stop-color="#719ad1"/></linearGradient><path d="m100.456 184c-22.4422 0-43.5272-8.739-59.3939-24.606-15.8666-15.867-24.606-36.952-24.606-59.394 0-22.4423 8.7394-43.5273 24.606-59.3939 15.8667-15.8667 36.9517-24.6061 59.3939-24.6061 22.442 0 43.527 8.7394 59.394 24.6061 15.867 15.8666 24.606 36.9516 24.606 59.3939 0 22.442-8.739 43.527-24.606 59.394s-36.952 24.606-59.394 24.606zm0-161.1697c-42.5514 0-77.1697 34.6182-77.1697 77.1697 0 42.551 34.6183 77.17 77.1697 77.17 42.552 0 77.17-34.619 77.17-77.17 0-42.5515-34.618-77.1697-77.17-77.1697zm-10.0119 52.5636-49.0426-12.1334 32.582 38.6485-26.7275 42.934 46.8362-19.049 32.5818 38.648-3.648-50.4 46.836-19.048-49.042-12.1334-3.649-50.4z" fill="url(#a)"/></svg>