<svg fill="none" height="200" viewBox="0 0 200 200" width="200" xmlns="http://www.w3.org/2000/svg" xmlns:xlink="http://www.w3.org/1999/xlink"><mask id="a" height="168" maskUnits="userSpaceOnUse" width="168" x="16" y="16"><path d="m100 184c46.392 0 84-37.608 84-84 0-46.3919-37.608-84-84-84-46.3919 0-84 37.6081-84 84 0 46.392 37.6081 84 84 84z" fill="#d9d9d9"/></mask><g mask="url(#a)"><path d="m184 16h-168v168h168z" fill="#e50571"/><g fill="#fff"><path d="m100.731 46.9216c-6.5213 0-11.8096 23.655-11.8096 52.8353 0 29.1791 5.2883 52.8351 11.8096 52.8351 6.522 0 11.811-23.656 11.811-52.8351 0-29.1803-5.289-52.8353-11.811-52.8353zm.816 102.6884c-.746.995-1.492.248-1.492.248-3.0031-3.48-4.5047-9.945-4.5047-9.945-5.254-16.907-4.0037-53.2074-4.0037-53.2074 2.4689-28.8194 6.9605-35.6271 8.4894-37.1386.155-.1543.361-.2485.58-.2662.218-.0177.437.0424.615.1696 2.218 1.5712 4.078 8.143 4.078 8.143 5.492 20.3878 4.994 39.5331 4.994 39.5331.498 16.6585-2.752 35.3055-2.752 35.3055-2.501 14.172-6.004 17.158-6.004 17.158z"/><path d="m146.561 73.4615c-3.248-5.6589-26.395 1.5264-51.7188 16.0473-25.323 14.5202-43.1854 30.8802-39.9407 36.5372 3.2448 5.656 26.3952-1.527 51.7185-16.048 25.322-14.5201 43.185-30.88 39.941-36.5365zm-88.6637 51.8075c-1.2432-.156-.9623-1.178-.9623-1.178 1.5248-4.336 6.3776-8.856 6.3776-8.856 12.0564-12.971 44.1674-29.951 44.1674-29.951 26.223-12.2005 34.369-11.6858 36.436-11.1169.211.0594.395.1918.52.3736.124.1821.179.4022.156.6213-.248 2.7068-5.035 7.5885-5.035 7.5885-14.941 14.9157-31.796 24.0135-31.796 24.0135-14.2023 8.724-31.9939 15.181-31.9939 15.181-13.5381 4.878-17.8691 3.324-17.8691 3.324z"/><path d="m146.445 126.236c3.273-5.644-14.545-22.078-39.779-36.7085-25.234-14.6301-48.379-21.9045-51.6483-16.2506-3.2696 5.6535 14.5452 22.0789 39.7939 36.7091 25.2484 14.63 48.3644 21.904 51.6334 16.25zm-89.259-50.7785c-.4835-1.1461.5369-1.4219.5369-1.4219 4.5175-.8531 10.8629 1.091 10.8629 1.091 17.2626 3.9308 48.0442 23.2122 48.0442 23.2122 23.7 16.5842 27.335 23.8892 27.88 25.9622.055.213.033.439-.061.637-.095.198-.257.357-.456.447-2.472 1.132-9.091-.554-9.091-.554-20.4-5.469-36.716-15.492-36.716-15.492-14.6593-7.907-29.1547-20.0722-29.1547-20.0722-11.0144-9.274-11.842-13.7965-11.842-13.7965z"/><path d="m100.608 105.846c3.432 0 6.215-2.783 6.215-6.2157 0-3.4329-2.783-6.216-6.215-6.216-3.4336 0-6.2164 2.7831-6.2164 6.216 0 3.4327 2.7828 6.2157 6.2164 6.2157z"/><path d="m126.092 79.4906c1.991 0 3.606-1.6696 3.606-3.7296 0-2.0597-1.615-3.7293-3.606-3.7293s-3.605 1.6696-3.605 3.7293c0 2.06 1.614 3.7296 3.605 3.7296z"/><path d="m66.9178 92.1706c1.9911 0 3.6053-1.6699 3.6053-3.7296s-1.6142-3.7296-3.6053-3.7296c-1.9912 0-3.6053 1.6699-3.6053 3.7296s1.6141 3.7296 3.6053 3.7296z"/><path d="m93.2728 137.92c1.9911 0 3.6056-1.67 3.6056-3.73s-1.6145-3.73-3.6056-3.73c-1.9912 0-3.6053 1.67-3.6053 3.73s1.6141 3.73 3.6053 3.73z"/></g></g></svg>