<svg fill="none" height="200" viewBox="0 0 200 200" width="200" xmlns="http://www.w3.org/2000/svg" xmlns:xlink="http://www.w3.org/1999/xlink"><mask id="a" height="168" maskUnits="userSpaceOnUse" width="168" x="16" y="16"><path d="m184 16h-168v168h168z" fill="#fff"/></mask><mask id="b" height="168" maskUnits="userSpaceOnUse" width="168" x="16" y="16"><path d="m100 184c46.392 0 84-37.608 84-84 0-46.3919-37.608-84-84-84-46.3919 0-84 37.6081-84 84 0 46.392 37.6081 84 84 84z" fill="#d9d9d9"/></mask><g mask="url(#a)"><g mask="url(#b)"><path d="m186.922 12.3479h-175.3043v175.3041h175.3043z" fill="#e50571"/><path d="m87.8786 65.2316c-20.5769 7.9692-22.4618 28.3778-28.362 37.9094-5.9701 9.645-19.6474 14.966-17.777 19.882 1.8702 4.914 15.5638-.365 26.3974 2.771 10.7051 3.099 25.6421 16.995 46.218 9.025 10.483-4.059 18.074-12.415 21.564-22.312.375-1.062-.327-2.198-1.44-2.304-.692-.065-1.357.301-1.669.927-3.157 6.344-8.573 11.569-15.661 14.313-11.701 4.533-24.5043.974-32.3676-7.949-1.7859-2.026-3.3134-4.333-4.5191-6.882-.3315-.702-.6467-1.415-.9262-2.153-.2811-.737-.52-1.48-.7394-2.226 6.1847-2.908 13.3212-5.989 21.4123-9.1219 7.932-3.0722 15.153-5.5637 21.581-7.5571 4.349-1.3479 8.334-2.4692 11.933-3.3857.261-.0656.518-.131.772-.195.545-.1361 1.104.1574 1.305.6852l.004.0099c.119.3131.221.6279.33.9426.712 2.0314 1.246 4.0839 1.598 6.1408.155.9007 1.13 1.3908 1.929.9576 2.954-1.5996 5.656-3.1606 8.071-4.6623 8.998-5.5903 13.986-10.3314 12.962-13.0183-1.021-2.6887-7.873-2.8428-18.267-.9247-3.304.6099-6.966 1.4295-10.913 2.4444-.682.1754-1.373.3573-2.072.5442-3.322.8886-6.825 1.9066-10.473 3.0461-6.785 2.1197-14.063 4.6591-21.5766 7.5694-7.029 2.7223-13.6916 5.5461-19.8014 8.359-.0746-11.9398 7.0799-23.2271 18.781-27.7584 7.087-2.7444 14.577-2.5197 21.133.0657.647.2556 1.383.0786 1.855-.4378.758-.8279.525-2.146-.458-2.6837-9.159-4.9952-20.3409-6.0805-30.8234-2.0214z" fill="#fff"/></g></g></svg>