<svg fill="none" height="200" viewBox="0 0 200 200" width="200" xmlns="http://www.w3.org/2000/svg"><path d="m184 100c0-46.392-37.608-84-84-84s-84 37.608-84 84 37.608 84 84 84 84-37.608 84-84z" fill="#e50571"/><path d="m145.449 66.2967c-1.338-1.8982-5.123-5.8294-8.945-8.0758-3.047-1.823-6.312-2.1777-10.409-.9958-.5-.7911-1.317-2.0331-1.845-2.7661-4.667-6.5301-10.423-10.7903-16.417-12.5407-11.2576-3.2937-24.9716 5.3172-28.4592 14.2866-4.9915.0388-9.9212 1.0799-14.3056 3.7321-10.4236 6.3004-9.8651 18.3809-8.3528 25.7277l.6717-.2265c.5732-1.8683 1.4149-6.7262 10.1994-11.127 0 0-4.9442 5.185-6.5884 12.2437 10.2362-2.5883 33.3398.104 34.8022-5.4417-1.4624-3.6891-14.3531.3964-20.3155 1.4618-7.3313 1.3106-13.7343 3.3971-18.8813 5.8797-8.9813 4.3463-14.0484 9.9173-13.211 14.7193.7257 4.156 5.8643 6.023 10.3363 6.866l-.0564-.246c-7.2822-2.236-12.971-7.456 4.0228-13.6631 14.8457-5.4194 69.0228-9.618 69.0228-9.618s-44.4262 9.87-55.1871 14.9441c-9.3023 4.38-10.7244 8.039-11.0145 9.091 1.2098 4.001 2.959 7.801 5.1962 11.285-.6651 10.655-.1486 27.992 16.8538 31.514 8.8896 1.842 18.7796-4.852 18.7796-4.852l2.021-1.469c8.142-6.702 16.956-16.61 22.666-29.271 6.412-14.225 8.543-24.6833 8.967-29.6931l.582-1.0716c9.467 11.8955 10.18 23.8767 8.812 30.5067-1.05 5.088-2.421 12.103-9.407 18.318-3.972 3.547-10.939 5.232-13.964 5.344l-.455.517c4.82.51 10.286-1.754 13.403-3.652 9.924-6.09 16.421-15.672 19.749-31.799 3.568-17.4606-2.019-31.0315-8.271-39.9283zm-40.732-3.6694c-6.1574-2.8927-13.8592-6.0499-23.5957-6.402l.1155-.3734c3.322-1.0326 10.1608-2.2227 19.8262 1.5241 11.922 4.6236 30.686 23.4436 33.675 27.5878-.974-1.0566-19-17.1528-30.021-22.3365zm21.499 37.5747s-20.502 32.477-42.445 34.452c-7.6316.685-14.221-6.654-16.9034-10.447l.0036-.576c2.6978 3.737 9.9579 11.635 20.8504 7.351 17.2754-6.792 38.3114-28.944 38.3114-28.944l8.471-14.5998zm9.247-15.0883c-.015-.3727-.094-1.1599-.146-1.576-1.103-9.0989-4.095-17.8181-8.771-25.5635 4.21-1.115 7.627-.8282 9.99 1.1353 9.003 7.5082-1.08 26.0026-1.08 26.0026z" fill="#fff"/></svg>