<svg fill="none" height="200" viewBox="0 0 200 200" width="200" xmlns="http://www.w3.org/2000/svg" xmlns:xlink="http://www.w3.org/1999/xlink"><mask id="a" height="168" maskUnits="userSpaceOnUse" width="168" x="16" y="16"><path d="m100 184c46.392 0 84-37.608 84-84 0-46.3919-37.608-84-84-84-46.3919 0-84 37.6081-84 84 0 46.392 37.6081 84 84 84z" fill="#d9d9d9"/></mask><g mask="url(#a)"><path d="m184 16h-168v168h168z" fill="#e50571"/><g clip-rule="evenodd" fill="#fff" fill-rule="evenodd"><path d="m99.9997 44.1884c-30.2188 0-54.7161 24.4972-54.7161 54.716 0 30.2196 24.4973 54.7166 54.7161 54.7166 30.2193 0 54.7163-24.497 54.7163-54.7166 0-30.2188-24.497-54.716-54.7163-54.716zm-58.4348 54.716c0-32.2724 26.162-58.4347 58.4348-58.4347 32.2733 0 58.4353 26.1623 58.4353 58.4347 0 32.2726-26.162 58.4346-58.4353 58.4346-32.2728 0-58.4348-26.162-58.4348-58.4346z"/><path d="m123.412 84.7681-14.963-.6202 10.162-11.0054-4.089-4.0888-11.018 10.1419-.597-14.9678h-5.783l-.6192 14.9627-11.0057-10.162-4.0891 4.0892 10.1424 11.0177-14.9684.5978v5.7819l14.9631.6202-10.162 11.0057 4.0894 4.089 10.8485-9.9868.4717 24.2408-8.6543.633v5.385l8.785.667.1637 8.42h5.7829l.17-8.408 8.876-.673v-5.385l-8.741-.639.49-24.229 10.83 10 4.089-4.089-10.141-11.0182 14.967-.5974z"/></g></g></svg>