<svg fill="none" height="200" viewBox="0 0 200 200" width="200" xmlns="http://www.w3.org/2000/svg"><path d="m100.727 169.02c38.489 0 69.694-31.118 69.694-69.5073 0-38.3892-31.205-69.5127-69.694-69.5127-38.4889 0-69.6879 31.1235-69.6879 69.5127 0 38.3893 31.199 69.5073 69.6879 69.5073z" fill="#2e3148"/><path d="m100.563 138.851c22.236 0 40.266-17.983 40.266-40.1619 0-22.1782-18.03-40.1618-40.266-40.1618-22.2415 0-40.2666 17.9836-40.2666 40.1618 0 22.1789 18.0251 40.1619 40.2666 40.1619z" fill="#1b1e36"/><path d="m187.456 98.7273c0 11.4597-2.264 22.8057-6.661 33.3987-4.397 10.587-10.844 20.209-18.966 28.308-8.126 8.106-17.773 14.536-28.388 18.922-10.615 4.385-21.995 6.644-33.4849 6.644s-22.8704-2.259-33.4852-6.644c-10.6148-4.386-20.2619-10.816-28.3885-18.922-8.121-8.099-14.5684-17.721-18.9653-28.308-4.3969-10.593-6.661-21.939-6.661-33.3987h20.9727c0 8.7107 1.7171 17.3407 5.0639 25.3907 3.3414 8.051 8.2416 15.366 14.4213 21.529 6.1796 6.159 13.513 11.051 21.5851 14.384 8.0718 3.333 16.7179 5.051 25.457 5.051 8.7399 0 17.3849-1.718 25.4569-5.051s15.406-8.225 21.585-14.384c6.18-6.163 11.08-13.478 14.422-21.529 3.346-8.05 5.063-16.68 5.063-25.3907z" fill="#c73238"/><path d="m169.037 98.7273c0 9.0497-1.788 18.0057-5.261 26.3667-3.472 8.356-8.558 15.955-14.973 22.353s-14.027 11.471-22.411 14.935c-8.378 3.463-17.363 5.242-26.436 5.242-9.0727 0-18.0524-1.779-26.4359-5.242-8.3781-3.464-15.9962-8.537-22.411-14.935s-11.5006-13.997-14.9733-22.353c-3.4726-8.361-5.2554-17.317-5.2554-26.3667h69.0756z" fill="#070b09"/><g fill="#fff"><path d="m99.3214 38.678c-7.3554 0-13.3219 26.6073-13.3219 59.4327 0 32.8253 5.9665 59.4323 13.3219 59.4323 7.3556 0 13.3216-26.607 13.3216-59.4323 0-32.8254-5.966-59.4327-13.3216-59.4327zm.9186 115.511c-.842 1.118-1.6842.278-1.6842.278-3.3851-3.911-5.0805-11.187-5.0805-11.187-5.9227-19.015-4.5117-59.8529-4.5117-59.8529 2.7836-32.4163 7.8477-40.0747 9.5703-41.7765.1805-.1746.4102-.2782.6562-.3.2462-.0164.4922.0492.6946.191 2.4993 1.7672 4.5993 9.1635 4.5993 9.1635 6.196 22.931 5.632 44.4711 5.632 44.4711.564 18.7368-3.1 39.7148-3.1 39.7148-2.822 15.938-6.776 19.298-6.776 19.298z"/><path d="m151.002 68.5309c-3.659-6.3654-29.767 1.7181-58.3245 18.049-28.5634 16.3361-48.7102 34.7401-45.0462 41.1001 3.6587 6.366 29.7665-1.712 58.3237-18.049 28.564-16.3365 48.711-34.7401 45.047-41.1001zm-99.9964 58.2761c-1.4-.174-1.0828-1.325-1.0828-1.325 1.7172-4.876 7.1914-9.96 7.1914-9.96 13.6008-14.591 49.8148-33.693 49.8148-33.693 29.575-13.7235 38.763-13.1454 41.092-12.5073.24.071.449.2182.585.4201.143.2072.202.4527.18.6982-.284 3.049-5.681 8.5363-5.681 8.5363-16.85 16.7837-35.859 27.0167-35.859 27.0167-16.0177 9.813-36.0826 17.078-36.0826 17.078-15.2689 5.487-20.1578 3.736-20.1578 3.736z"/><path d="m150.876 127.893c3.691-6.349-16.401-24.84-44.861-41.2961-28.4591-16.4563-54.5669-24.6382-58.2529-18.2782-3.6859 6.36 16.4065 24.8345 44.8821 41.2903 28.4758 16.462 54.5448 24.644 58.2318 18.284zm-100.6692-57.1197c-.5414-1.2928.6069-1.5982.6069-1.5982 5.0969-.96 12.2503 1.2218 12.2503 1.2218 19.4685 4.4237 54.19 26.1163 54.19 26.1163 26.725 18.6548 30.827 26.8698 31.44 29.2038.065.24.038.491-.066.714-.109.224-.29.404-.515.502-2.788 1.277-10.253-.622-10.253-.622-23.007-6.152-41.4095-17.427-41.4095-17.427-16.5321-8.8908-32.8836-22.5762-32.8836-22.5762-12.4195-10.4346-13.3548-15.5236-13.3548-15.5236z"/><path d="m99.1794 104.95c3.8726 0 7.0106-3.131 7.0106-6.9924 0-3.8618-3.138-6.9928-7.0106-6.9928-3.8719 0-7.0109 3.131-7.0109 6.9928 0 3.8614 3.139 6.9924 7.0109 6.9924z"/><path d="m127.929 75.3112c2.241 0 4.063-1.8764 4.063-4.1946 0-2.3181-1.822-4.1945-4.063-4.1945-2.248 0-4.069 1.8764-4.069 4.1945 0 2.3182 1.821 4.1946 4.069 4.1946z"/><path d="m61.1823 89.5753c2.2421 0 4.0635-1.8819 4.0635-4.1946 0-2.3182-1.8214-4.2-4.0635-4.2-2.2477 0-4.0685 1.8818-4.0685 4.2 0 2.3127 1.8208 4.1946 4.0685 4.1946z"/></g></svg>