<svg fill="none" height="40" viewBox="0 0 40 40" width="40" xmlns="http://www.w3.org/2000/svg" xmlns:xlink="http://www.w3.org/1999/xlink"><filter id="a" filterUnits="userSpaceOnUse"><feBlend in="SourceGraphic" in2="BackgroundImageFix" mode="normal" result="shape"/><feColorMatrix in="SourceAlpha" result="hardAlpha" type="matrix" values="0 0 0 0 0 0 0 0 0 0 0 0 0 0 0 0 0 0 127 0"/><feOffset dy="4.33333"/><feGaussianBlur stdDeviation="1.73333"/><feComposite in2="hardAlpha" k2="-1" k3="1" operator="arithmetic"/><feColorMatrix type="matrix" values="0 0 0 0 0 0 0 0 0 0 0 0 0 0 0 0 0 0 0.8 0"/><feBlend in2="shape" mode="normal" result="effect1_innerShadow_4159_2699"/></filter><filter id="b"><feBlend in="SourceGraphic" in2="BackgroundImageFix" mode="normal" result="shape"/><feColorMatrix in="SourceAlpha" result="hardAlpha" type="matrix" values="0 0 0 0 0 0 0 0 0 0 0 0 0 0 0 0 0 0 127 0"/><feOffset dy="4.33333"/><feGaussianBlur stdDeviation="1.73333"/><feComposite in2="hardAlpha" k2="-1" k3="1" operator="arithmetic"/><feColorMatrix type="matrix" values="0 0 0 0 0 0 0 0 0 0 0 0 0 0 0 0 0 0 0.8 0"/><feBlend in2="shape" mode="normal" result="effect1_innerShadow_4159_2699"/></filter><linearGradient id="c"><stop offset="0" stop-color="#b977ff"/><stop offset="1" stop-color="#606dc8"/></linearGradient><linearGradient id="d" gradientUnits="userSpaceOnUse" x1="21.0726" x2="21.0726" xlink:href="#c" y1="1" y2="38.8549"/><linearGradient id="e" gradientUnits="userSpaceOnUse" x1="2.42902" x2="8.99054" xlink:href="#c" y1="2.41956" y2="14.6908"/><linearGradient id="f" gradientUnits="userSpaceOnUse" x1="7.99745" x2="7.99745" y1="3.42902" y2="13.1124"><stop offset="0" stop-color="#747474"/><stop offset=".211458" stop-color="#4f4e4e"/><stop offset="1" stop-color="#020202"/></linearGradient><linearGradient id="g" gradientUnits="userSpaceOnUse" x1="7.82512" x2="8.26288" y1="5.18225" y2="12.6567"><stop offset="0"/><stop offset="1" stop-color="#0e0e0e"/></linearGradient><linearGradient id="h" gradientUnits="userSpaceOnUse" x1="4.64708" x2="4.21048" y1="11.6583" y2="4.18365"><stop offset="0" stop-color="#444"/><stop offset=".789583" stop-color="#a2a2a2"/><stop offset="1" stop-color="#adadad"/></linearGradient><path d="m21.0726 38.8549c10.4533 0 18.9274-8.4741 18.9274-18.9275 0-10.4533-8.4741-18.9274-18.9274-18.9274-10.4534 0-18.92746 8.4741-18.92746 18.9274 0 10.4534 8.47406 18.9275 18.92746 18.9275z" fill="url(#d)"/><path d="m21.0726 37.4353c9.6693 0 17.5079-7.8385 17.5079-17.5079 0-9.6693-7.8386-17.50784-17.5079-17.50784-9.6694 0-17.5079 7.83854-17.5079 17.50784 0 9.6694 7.8385 17.5079 17.5079 17.5079z" fill="#000"/><path d="m6.13565 14.6908c3.38862 0 6.13565-2.747 6.13565-6.1356 0-3.38862-2.74703-6.13564-6.13565-6.13564-3.38863 0-6.13565 2.74702-6.13565 6.13564 0 3.3886 2.74702 6.1356 6.13565 6.1356z" fill="url(#e)"/><g filter="url(#a)"><path d="m4.83313 3.62797c-.31738 1.50821.1894 3.05035 2.01969 4.55367 2.36593 1.94326 2.48135 2.72646 1.44264 4.93076 1.96204-.8701 3.66434-3.27751 2.65444-6.46799-1.09639-2.55238-3.75084-3.71254-6.11677-3.01644z" fill="url(#f)"/></g><g filter="url(#b)"><path d="m7.72104 13.324c.32104-1.5141-.19158-3.0621-2.0429-4.5713-2.39316-1.95079-2.50988-2.73694-1.45925-4.94978-1.98454.8735-3.706422 3.29016-2.68496 6.49298 1.109 2.5622 3.79399 3.7268 6.18711 3.0281z" fill="#070707"/><path d="m5.67319 8.75882c.92492.75397 1.51495 1.51728 1.83378 2.28068.31814.7618.3664 1.5241.20735 2.2782-2.38801.6948-5.06613-.4679-6.17297-3.0246-1.016491-3.18788.68831-5.59517 2.66136-6.47437-.51889 1.09586-.74987 1.84353-.55318 2.55943.19773.71971.82722 1.40536 2.02366 2.38066z" stroke="#fff" stroke-opacity=".1" stroke-width=".216667"/></g><path d="m4.836 3.57855c1.75372.34993 2.86152.84815 4.22691 2.71695 1.45259 2.5876.90057 5.2183-.71173 6.7421.93202-2.3919.87151-2.8607-1.37994-4.80141-2.25145-1.94069-2.38631-3.40732-2.13524-4.65764z" fill="url(#g)" fill-opacity=".8"/><path d="m7.6443 13.262c-1.75849-.35-2.86928-.8482-4.23836-2.717-1.45649-2.58756-.8629-5.21829.75379-6.74208-.93455 2.39193-.91401 2.8607 1.34353 4.8014 2.25754 1.94068 2.39274 3.40728 2.14104 4.65768z" fill="url(#h)" fill-opacity=".5"/><path d="m27.1496 20.668c-1.2811-1.144-2.9586-1.908-4.5841-2.648l-.012-.004c-2.8666-1.308-5.3448-2.44-5.1687-5.116.0761-1.02.8168-1.636 1.4253-1.968.6846-.376 1.5935-.6 2.4342-.6.1001 0 .2002.004.2963.008 2.4462.164 4.3759 1.2 6.2616 3.352l.1121.132.1321-.112.7367-.64.1321-.116-.1161-.132c-2.1019-2.408-4.3839-3.62-7.1744-3.808-.1201-.012-.2483-.016-.3884-.016-.0841 0-.1761 0-.2722.004h-.1201c-1.8297 0-3.8355.6-5.3609 1.608-1.8216 1.204-2.8425 2.86-2.8705 4.664-.0721 4.388 3.5191 5.864 6.686 7.172l.008.004.032.012c2.8025 1.16 5.2207 2.16 5.1687 4.84-.0241 1.768-2.5543 2.744-4.2919 2.744h-.0721-.1721v.004c-2.5904-.076-4.9044-1.192-6.8782-3.308l-.1201-.128-.1281.116-.7167.664-.1281.12.1201.128c2.242 2.412 5.0085 3.708 8.0032 3.744h.1361c1.9338 0 4.0357-.52 5.6211-1.396 1.9858-1.084 3.1428-2.664 3.2629-4.448.1361-1.96-.5164-3.556-1.9938-4.876zm-9.2963-3.816c1.141.976 2.6864 1.676 4.1797 2.352l.0281.012c1.5814.728 3.0787 1.416 4.1637 2.372 1.2011 1.056 1.7095 2.28 1.6014 3.852-.1 1.556-1.2571 2.596-2.31 3.224.2041-.416.3162-.868.3283-1.348.024-1.616-.5966-2.908-1.9018-3.956-1.141-.916-2.6543-1.536-4.1197-2.14-3.0467-1.252-5.9253-2.436-5.8732-5.932.016-1.344.8247-2.616 2.278-3.58.048-.032.0961-.064.1481-.096-.1721.376-.2682.768-.2922 1.18-.1161 1.62.4644 2.948 1.7696 4.06z" fill="#fff"/></svg>