<svg fill="none" height="200" viewBox="0 0 200 200" width="200" xmlns="http://www.w3.org/2000/svg" xmlns:xlink="http://www.w3.org/1999/xlink"><mask id="a" height="168" maskUnits="userSpaceOnUse" width="168" x="16" y="16"><path d="m100 184c46.392 0 84-37.608 84-84 0-46.3919-37.608-84-84-84-46.3919 0-84 37.6081-84 84 0 46.392 37.6081 84 84 84z" fill="#d9d9d9"/></mask><g mask="url(#a)"><path d="m186.922 12.3479h-175.3043v175.3041h175.3043z" fill="#e50571"/><path d="m156.428 94.302c-2.234-1.9853-4.333-3.6025-6.321-4.918.009.0051.017.0117.026.016-3.907-19.2883-18.633-34.6488-37.569-39.4802.13-.1275.26-.2566.396-.3905 6.255-6.1812 5.112-15.2854 3.776-15.2854-.003 0-.005 0-.008 0-1.34.0359-.327 3.8756-9.164 7.7513-8.7633 3.843-12.7515 3.7303-26.2807 9.2137-19.2917 7.8167-33.1441 26.4059-33.1441 48.472 0 27.9861 22.1086 50.8041 49.8134 51.9491 0 0 .5639.032 1.5683.032 3.6651 0 13.2161-.431 22.8931-4.439 12.334-5.107 19.285-12.555 21.244-14.398 1.466-1.38 1.53-2.247.922-2.247-.159 0-.361.059-.596.181-.622.326-2.197.881-4.302 1.226 7.173-8.826 11.475-20.079 11.475-32.3399 0-1.6566-.082-3.2942-.236-4.91 2.779.3558 4.694.748 5.016.8167.144.0314.278.0445.396.0445.73 0 .935-.5478.093-1.2943zm-95.7403-21.9501c2.7123-3.8692 5.9802-7.3363 9.7169-10.3036 3.7515-2.9802 7.9066-5.4034 12.3509-7.2039 6.8621-2.781 11.2024-4.0848 15.0306-5.2351 3.7169-1.116 6.9259-2.0816 11.3519-4.0211 1.174-.5147 2.206-1.0375 3.119-1.5587-.504.9117-1.173 1.843-2.054 2.7139-4.229 4.1828-5.601 4.8462-10.139 7.0439-1.5555.7532-3.4904 1.6894-5.9498 2.972-2.5434 1.3268-4.6938 3.1535-6.3884 5.4329-1.474 1.9802-2.5766 4.2628-3.2808 6.784-.7451 2.6714-1.0163 5.5423-.7811 8.3036.2304 2.7139.9166 5.0783 1.9853 6.8363 1.913 3.1489 6.9932 11.5109 19.3878 11.5109 1.946 0 4.02-.2089 6.166-.6223 2.979-.5734 5.7-1.9196 8.33-3.222 3.036-1.5032 6.173-3.0576 9.794-3.471 1.775-.2023 3.15-.2922 4.464-.2922 3.092 0 5.85.5376 8.683 1.6946.395.1615.792.3346 1.191.5208-.583-.016-1.173-.0241-1.769-.0241-6.517 0-11.853 1.0226-15.863 3.0372-1.197.6011-2.327 1.3009-3.384 2.0898-3.519 2.2957-9.916 10.0802-13.514 17.4812-2.518 5.178-6.963 10.174-12.2021 13.705-4.0992 2.765-10.5613 5.906-18.0841 5.17-5.1633-.504-10.5634-1.4-15.0779-4.503-4.5848-3.152-7.8641-8.246-10.3199-16.032l-.013.005c-.9085-3.717-1.3758-7.565-1.3758-11.4765 0-9.8251 2.9836-19.2754 8.6271-27.3291zm60.2263 71.2481c-9.024 3.737-17.967 4.141-21.3931 4.141-.8539 0-1.3411-.026-1.3426-.026h-.0328l-.0329-.004c-12.4108-.512-24.0006-5.736-32.6309-14.71-.2125-.22-.4184-.442-.6259-.666 2.8823 1.369 6.9916 2.609 13.6106 3.256.8872.087 1.7614.127 2.6208.127 7.5341 0 13.8787-3.143 18.0385-5.947 5.7923-3.905 10.7253-9.46 13.5353-15.241.271-.557.561-1.114.863-1.671-.153 5.105 1.452 10.153 4.697 14.573 2.332 3.176 5.268 5.533 8.727 7.01 2.173.929 4.523 1.494 7.005 1.692-3.258 2.46-7.6 5.215-13.039 7.469zm18.722-11.607c.014-.001.029-.004.042-.006-.015.002-.029.005-.042.006z" fill="#fff"/></g></svg>