<svg fill="none" height="200" viewBox="0 0 200 200" width="200" xmlns="http://www.w3.org/2000/svg" xmlns:xlink="http://www.w3.org/1999/xlink"><mask id="a" height="168" maskUnits="userSpaceOnUse" width="168" x="16" y="16"><path d="m100 184c46.392 0 84-37.608 84-84 0-46.3919-37.608-84-84-84-46.3919 0-84 37.6081-84 84 0 46.392 37.6081 84 84 84z" fill="#d9d9d9"/></mask><g mask="url(#a)"><path d="m184 16h-168v168h168z" fill="#e50571"/><path clip-rule="evenodd" d="m135.59 54.9973c5.923 4.3031 9.214 8.1688 10.238 12.0341.658 2.1881.073 4.8139-1.389 6.7832-1.463 1.969-3.803 3.063-6.509 3.063-1.024 0-2.123-.1566-3.145-.4482.309-.829.652-1.6861 1.023-2.5432.293.0729.659.0729 1.024.0729.877 0 1.901-.1462 2.706-.8024.585-.4375 1.243-1.2398 1.171-2.6987 0-1.3857-1.098-3.1363-3.365-5.2514-1.608-1.5315-3.803-3.2091-5.996-4.7406-6.29-4.1573-10.677-5.3243-12.652-3.355-1.316 1.3128-1.17 2.9175-.731 4.0845-.916.5994-1.776 1.1316-2.563 1.6013-1.896-2.8412-1.993-6.268-.362-9.331 1.024-1.9693 2.633-3.2821 4.461-3.647.731-.1458 1.462-.2187 2.267-.2187 4.022 0 9.068 1.9693 13.822 5.3972zm-20.725 10.6155c2.339-1.2398 5.732-3.3966 9.608-6.4595 1.463.5832 3.364 1.6044 5.705 3.1362 2.778 1.8231 5.192 3.8653 6.728 5.4701-2.556 3.3492-4.237 7.9343-5.261 11.1424 5.546 7.2536 8.844 16.3077 8.844 26.129 0 23.849-19.38 43.177-43.2924 43.177-23.9138 0-43.2933-19.328-43.2933-43.177 0-23.8503 19.3795-43.178 43.2933-43.178 6.2784 0 12.2544 1.341 17.6494 3.7521zm-17.6684 80.1882c-22.5977 0-40.8801-18.233-40.8801-40.77 0-22.5372 18.2824-40.7712 40.8801-40.7712 22.5964 0 40.8794 18.234 40.8794 40.7712 0 22.537-18.356 40.77-40.8794 40.77zm41.3904-75.2701c0-.2188-.073-.5833-.292-.9479-.512.7291-1.024 1.4586-1.463 2.3339.512 0 1.097-.1458 1.389-.3649.147-.1458.366-.3646.366-1.0211zm-16.6-12.0342c-.951-.1458-1.536 0-1.755.2187-.439.3649-.512.8753-.439 1.3857.731-.5104 1.463-1.0208 2.194-1.6044zm-4.096 38.6568c10.312.8743 18.136 3.0615 18.136 7.5105 0 21.369-17.405 38.728-38.8314 38.728-21.2292 0-38.5819-17.039-38.9008-38.137-.003-.075-.0047-.15-.0047-.225 0-.037.0004-.073.001-.11-.0006-.085-.0006-.171-.0006-.256h.0101c.2785-4.8779 6.2462-4.7099 16.8826-3.5 4.8999.584 11.628.949 19.0872-1.2392 8.6296-2.6258 16.1616-3.3556 23.6206-2.7713zm-22.7786 5.5905-.0138.004c-8.0042 2.348-15.1822 1.942-20.2554 1.339-5.5481-.631-9.3388-.907-11.7207-.52-1.1518.188-1.5648.474-1.684.588l-.0037.004c-.0367.034-.2023.185-.2023.871 0 .884.4687 2.209 1.9723 3.784 1.4798 1.552 3.783 3.142 6.9035 4.479 6.225 2.669 15.3619 4.184 26.5278 2.609 8.2869-1.181 13.4279-3.191 18.4529-5.154 1.9-.743 3.783-1.479 5.814-2.162l.008-.002.009-.003c2.002-.659 3.921-1.142 5.615-1.55.305-.073.6-.144.885-.211l.023-.006.007-.002c1.33-.317 2.446-.583 3.419-.878 1.218-.369 1.827-.679 2.106-.901.013-.011.026-.021.036-.03-.018-.281-.331-1.314-3.323-2.524-2.829-1.143-7.007-1.966-12.036-2.394-7.077-.5516-14.238.133-22.5255 2.654zm14.8086-16.0925c3.635 0 6.581-2.939 6.581-6.5644 0-3.6251-2.946-6.5641-6.581-6.5641s-6.582 2.939-6.582 6.5641c0 3.6254 2.947 6.5644 6.582 6.5644zm13.529 2.1175c0 1.5308-1.245 2.772-2.779 2.772-1.535 0-2.779-1.2412-2.779-2.772 0-1.5302 1.244-2.7714 2.779-2.7714 1.534 0 2.779 1.2412 2.779 2.7714z" fill="#fff" fill-rule="evenodd"/></g></svg>