<svg fill="none" height="200" viewBox="0 0 200 200" width="200" xmlns="http://www.w3.org/2000/svg" xmlns:xlink="http://www.w3.org/1999/xlink"><mask id="a" height="168" maskUnits="userSpaceOnUse" width="168" x="16" y="16"><path d="m100 184c46.392 0 84-37.608 84-84 0-46.3919-37.608-84-84-84-46.3919 0-84 37.6081-84 84 0 46.392 37.6081 84 84 84z" fill="#d9d9d9"/></mask><g mask="url(#a)"><path d="m184 16h-168v168h168z" fill="#e50571"/><path d="m102.663 142.418c-10.4681 0-19.0475-2.325-25.7386-6.975-6.1448-4.271-10.0599-10.224-11.7446-17.856-.2574-1.167.4691-2.303 1.5974-2.603l14.4829-3.844c1.2496-.331 2.5035.487 2.8526 1.762.757 2.767 1.8141 5.022 3.1722 6.763 1.8339 2.214 4.0465 3.82 6.6367 4.816 2.6981.886 5.6119 1.329 8.7414 1.329 4.748 0 8.256-.831 10.522-2.492 2.266-1.771 3.4-3.93 3.4-6.476 0-2.547-1.08-4.485-3.238-5.814-2.159-1.439-5.612-2.602-10.36-3.488l-4.5324-.83c-5.6126-1.107-10.7383-2.602-15.3788-4.484-4.6408-1.993-8.3637-4.7061-11.1696-8.1383-2.8056-3.4323-4.2084-7.8617-4.2084-13.2868 0-8.1937 2.9135-14.4493 8.741-18.768 5.828-4.4288 13.4894-6.643 22.9865-6.643 8.9577 0 16.4037 2.0482 22.3387 6.1448 5.283 3.6466 8.942 8.3015 10.976 13.9655.423 1.1766-.254 2.4397-1.422 2.8083l-14.484 4.5729c-1.264.3988-2.573-.4106-3.002-1.6941-.985-2.9464-2.55-5.1237-4.694-6.5315-2.59-1.7717-5.828-2.6574-9.7127-2.6574-3.8852 0-6.8531.7197-8.9034 2.1591-2.0502 1.3286-3.0757 3.2108-3.0757 5.6472 0 2.657 1.0796 4.6502 3.238 5.9787 2.1578 1.2177 5.0713 2.1592 8.7411 2.8231l4.5327.8306c6.043 1.1071 11.493 2.6017 16.35 4.4839 4.964 1.7721 8.849 4.3741 11.654 7.806 2.914 3.322 4.372 7.862 4.372 13.62 0 8.636-3.077 15.335-9.228 20.096-6.043 4.65-14.191 6.975-24.443 6.975z" fill="#fff"/></g></svg>