<svg fill="none" height="200" viewBox="0 0 200 200" width="200" xmlns="http://www.w3.org/2000/svg" xmlns:xlink="http://www.w3.org/1999/xlink"><mask id="a" height="168" maskUnits="userSpaceOnUse" width="168" x="16" y="16"><path d="m100 184c46.392 0 84-37.608 84-84 0-46.3919-37.608-84-84-84-46.3919 0-84 37.6081-84 84 0 46.392 37.6081 84 84 84z" fill="#d9d9d9"/></mask><g mask="url(#a)"><path d="m184 16h-168v168h168z" fill="#e50571"/><g fill="#fff"><path d="m141.284 58.3215c-11.032-11.0443-25.688-17.1215-41.278-17.1215-32.1979 0-58.3883 26.2137-58.3883 58.4347 0 32.2213 26.1904 58.4343 58.3883 58.4343 15.59 0 30.257-6.077 41.278-17.121 11.033-11.044 17.098-25.711 17.098-41.3133 0-15.6021-6.065-30.281-17.098-41.3132zm-41.278 95.7045c-29.9658 0-54.3447-24.403-54.3447-54.3913 0-29.9887 24.3789-54.3911 54.3447-54.3911 29.965 0 54.344 24.4024 54.344 54.3911 0 29.9883-24.379 54.3913-54.344 54.3913z"/><path d="m119.173 101.019c-3.739-3.3423-8.636-5.5744-13.381-7.7365l-.035-.0118c-8.3682-3.8217-15.603-7.1289-15.0882-14.948.2221-2.9799 2.3836-4.7799 4.16-5.7499 1.9985-1.0984 4.6513-1.7529 7.1062-1.7529.292 0 .585.0117.865.0232 7.141.4794 12.774 3.5061 18.278 9.7937l.328.3857.385-.3273 2.151-1.8698.385-.339-.338-.3858c-6.136-7.0355-12.798-10.5766-20.944-11.1259-.35-.035-.725-.0467-1.134-.0467-.245 0-.513 0-.794.0117h-.351c-5.3405 0-11.1963 1.7529-15.6486 4.698-5.3175 3.5179-8.2979 8.3563-8.3795 13.6268-.2107 12.8211 10.2729 17.1335 19.5172 20.9555l.0235.012.0935.035c8.1809 3.389 15.2399 6.311 15.0879 14.141-.07 5.165-7.456 8.017-12.5283 8.017h-.2113-.5017v.012c-7.5613-.222-14.3169-3.483-20.0787-9.665l-.3504-.374-.374.338-2.0919 1.941-.374.35.3505.374c6.5446 7.048 14.62 10.834 23.3617 10.939h.3982c5.6449 0 11.7809-1.519 16.4089-4.079 5.796-3.167 9.174-7.783 9.525-12.995.397-5.727-1.508-10.39-5.821-14.247zm-27.1367-11.1499c3.3308 2.8523 7.8419 4.8975 12.2007 6.8725l.082.0346c4.616 2.1269 8.987 4.1378 12.155 6.9308 3.506 3.085 4.99 6.662 4.674 11.255-.292 4.546-3.669 7.584-6.743 9.419.596-1.215.923-2.536.958-3.938.071-4.722-1.741-8.496-5.552-11.559-3.33-2.676-7.747-4.487-12.0247-6.252-8.8939-3.658-17.297-7.1175-17.1451-17.3319.0467-3.9271 2.4074-7.6436 6.6501-10.46.1405-.0934.2806-.1871.4325-.2806-.5027 1.0988-.7829 2.2442-.8532 3.4477-.339 4.7333 1.3558 8.6137 5.1657 11.8619z"/></g></g></svg>