<svg fill="none" height="200" viewBox="0 0 200 200" width="200" xmlns="http://www.w3.org/2000/svg" xmlns:xlink="http://www.w3.org/1999/xlink"><linearGradient id="a"><stop offset="0" stop-color="#e50571" stop-opacity=".3"/><stop offset=".87" stop-color="#e50571" stop-opacity="0"/></linearGradient><linearGradient id="b" gradientUnits="userSpaceOnUse" x1="94.5525" x2="107.486" xlink:href="#a" y1="104.184" y2="56.8309"/><linearGradient id="c" gradientUnits="userSpaceOnUse" x1="88.7699" x2="106.004" xlink:href="#a" y1="117.474" y2="82.0888"/><mask id="d" height="86" maskUnits="userSpaceOnUse" width="98" x="51" y="64"><path d="m149 64.3h-98v85.4h98z" fill="#fff"/></mask><path d="m184 100c0-46.3919-37.608-84-84-84-46.3919 0-84 37.6081-84 84 0 46.392 37.6081 84 84 84 46.392 0 84-37.608 84-84z" fill="#e50571"/><g mask="url(#d)"><path d="m51.0566 65.953v30.4536-1.1935c.227 26.0219 22.0174 48.2369 48.9724 48.2369 26.954 0 48.744-21.022 48.971-47.0434v-30.4536s-6.81-3.2953-14.527 4.6022c-4.937 5.0566-8.909 23.351-19.52 23.4651-14.187.2268-23.834-18.6358-35.3532-25.681-12.0869-7.386-28.5432-2.3863-28.5432-2.3863z" fill="#fff"/><path d="m51.0566 65.953v30.4536-1.1935c.227 26.0219 22.0174 48.2369 48.9724 48.2369 26.954 0 48.744-21.022 48.971-47.0434v-30.4536s-6.81-3.2953-14.527 4.6022c-4.937 5.0566-8.909 23.351-19.52 23.4651-14.187.2268-23.834-18.6358-35.3532-25.681-12.0869-7.386-28.5432-2.3863-28.5432-2.3863z" fill="url(#b)"/><path d="m149 99.361v-21.1353c-2.78.4545-6.185 1.8181-9.76 5.1134-5.562 5.1131-9.988 23.5779-21.905 23.7489-15.888.227-26.7262-18.8626-39.6644-26.0215-9.0227-4.8862-20.2016-4.3181-26.6706-3.3522v21.7034-1.3062c.227 27.8395 22.0741 51.5885 48.9713 51.5885 26.8977 0 48.8017-22.499 49.0287-50.339z" fill="#fff"/><path d="m149 99.361v-21.1353c-2.78.4545-6.185 1.8181-9.76 5.1134-5.562 5.1131-9.988 23.5779-21.905 23.7489-15.888.227-26.7262-18.8626-39.6644-26.0215-9.0227-4.8862-20.2016-4.3181-26.6706-3.3522v21.7034-1.3062c.227 27.8395 22.0741 51.5885 48.9713 51.5885 26.8977 0 48.8017-22.499 49.0287-50.339z" fill="url(#c)"/><path d="m149 99.3609v-4.8293c-2.099.7959-4.426 2.1021-6.81 4.1475-6.015 5.1139-10.781 23.5789-23.606 23.7499-17.137.226-28.7697-18.863-42.7293-26.0221-8.0579-4.0341-17.8182-4.3183-24.8547-3.7499v6.7606-1.3062c.227 27.8396 22.0741 51.5886 48.9713 51.5886 26.8977 0 48.8017-22.499 49.0287-50.3391z" fill="#fff"/></g></svg>