<svg fill="none" height="200" viewBox="0 0 200 200" width="200" xmlns="http://www.w3.org/2000/svg"><path d="m153.287 35.0969-72.1214 72.5811-11.9437-11.878 69.7591-70.2187c-11.615-6.1032-24.872-9.5813-38.981-9.5813-46.3969 0-84 37.6031-84 84 0 25.069 10.9594 47.578 28.4156 62.934l69.9564-70.3496 11.944 11.8786-68.0535 68.446c12.2719 7.022 26.5125 11.091 41.7375 11.091 46.397 0 84-37.603 84-84 0-26.1187-11.944-49.4812-30.713-64.9031z" fill="#534eff"/><g fill="#fff"><path d="m81.1654 107.678 72.1216-72.581c-4.397-3.6094-9.187-6.825-14.306-9.45l-69.7593 70.2187z"/><path d="m114.306 92.5845-69.8905 70.3495c4.2657 3.741 8.925 7.088 13.8469 9.91l67.9876-68.447z"/></g></svg>