<svg fill="none" height="200" viewBox="0 0 200 200" width="200" xmlns="http://www.w3.org/2000/svg" xmlns:xlink="http://www.w3.org/1999/xlink"><radialGradient id="a" cx="0" cy="0" gradientTransform="matrix(-475.72980407 .43175879 -1.25452644 -1382.28943071 162.73 145.822)" gradientUnits="userSpaceOnUse" r="1"><stop offset=".1042" stop-color="#24537e"/><stop offset=".5203" stop-color="#4fc1c0"/><stop offset="1" stop-color="#dafff4"/></radialGradient><linearGradient id="b"><stop offset="0" stop-color="#04171e"/><stop offset="1" stop-color="#04171e" stop-opacity="0"/></linearGradient><linearGradient id="c" gradientUnits="userSpaceOnUse" x1="95.9088" x2="74.294" xlink:href="#b" y1="166.733" y2="54.304"/><linearGradient id="d"><stop offset=".1042" stop-color="#3a78b1"/><stop offset=".5203" stop-color="#4fc1c0"/><stop offset="1" stop-color="#8cf2fd"/></linearGradient><radialGradient id="e" cx="0" cy="0" gradientTransform="matrix(50.82751049 -79.90687544 1157.89469009 736.51865609 60.5908 136.094)" gradientUnits="userSpaceOnUse" r="1" xlink:href="#d"/><radialGradient id="f" cx="0" cy="0" gradientTransform="matrix(-75.6000551 54.39020339 -54.00411515 -75.06340896 149.967 46.2328)" gradientUnits="userSpaceOnUse" r="1"><stop offset=".2165" stop-color="#fff"/><stop offset=".9063" stop-color="#fff" stop-opacity="0"/></radialGradient><linearGradient id="g"><stop offset="0" stop-color="#fff"/><stop offset=".7324" stop-color="#fff" stop-opacity="0"/></linearGradient><linearGradient id="h" gradientUnits="userSpaceOnUse" x1="121.302" x2="65.8617" xlink:href="#g" y1="38.0432" y2="62.1931"/><linearGradient id="i" gradientUnits="userSpaceOnUse" x1="139.22" x2="83.7803" xlink:href="#g" y1="79.1786" y2="103.329"/><linearGradient id="j" gradientUnits="userSpaceOnUse" x1="267.49" x2="40.7439" xlink:href="#b" y1="-10.9489" y2="177.961"/><linearGradient id="k" gradientUnits="userSpaceOnUse" x1="144.671" x2="59.6204" y1="111.484" y2="141.514"><stop offset="0" stop-color="#0e6585"/><stop offset="1" stop-color="#04171e"/></linearGradient><radialGradient id="l" cx="0" cy="0" gradientTransform="matrix(60.63406529 -48.33980918 753.95016588 945.70219359 54.4806 152.542)" gradientUnits="userSpaceOnUse" r="1" xlink:href="#d"/><linearGradient id="m" gradientUnits="userSpaceOnUse" x1="126.367" x2="115.734" y1="103.368" y2="96.7952"><stop offset="0" stop-color="#8cf2fd"/><stop offset="1" stop-color="#8cf2fd" stop-opacity="0"/></linearGradient><path d="m100 184c46.392 0 84-37.608 84-84 0-46.3919-37.608-84-84-84-46.3919 0-84 37.6081-84 84 0 46.392 37.6081 84 84 84z" fill="#161515"/><path d="m100 184c46.392 0 84-37.608 84-84 0-46.3919-37.608-84-84-84-46.3919 0-84 37.6081-84 84 0 46.392 37.6081 84 84 84z" fill="#063c4f"/><path d="m37.252 112.978c.63 0 1.26.042 1.848.042 12.81 0 24.78-3.696 34.86-10.038 4.116 21.294 22.8479 37.338 45.36 37.338 18.396 0 34.272-10.752 41.706-26.334.588-.294 1.134-.63 1.722-.966-8.106 26.964-33.138 46.62-62.7481 46.62-29.61 0-54.6419-19.656-62.7479-46.662z" fill="url(#a)"/><path d="m37.252 112.978c.63 0 1.26.042 1.848.042 12.81 0 24.78-3.696 34.86-10.038 4.116 21.294 22.8479 37.338 45.36 37.338 18.396 0 34.272-10.752 41.706-26.334.588-.294 1.134-.63 1.722-.966-8.106 26.964-33.138 46.62-62.7481 46.62-29.61 0-54.6419-19.656-62.7479-46.662z" fill="#04171e" fill-opacity=".88"/><path d="m37.5459 114.028h1.554c12.894 0 24.906-3.738 35.07-10.164 4.452 20.832 22.974 36.456 45.1501 36.456 18.396 0 34.272-10.752 41.706-26.334.588-.294 1.134-.63 1.722-.966-8.106 26.964-33.138 46.62-62.7481 46.62-29.274 0-54.012-19.152-62.454-45.612z" fill="url(#a)"/><path d="m37.5459 114.028h1.554c12.894 0 24.906-3.738 35.07-10.164 4.452 20.832 22.974 36.456 45.1501 36.456 18.396 0 34.272-10.752 41.706-26.334.588-.294 1.134-.63 1.722-.966-8.106 26.964-33.138 46.62-62.7481 46.62-29.274 0-54.012-19.152-62.454-45.612z" fill="#04171e" fill-opacity=".4"/><path d="m130.996 138.85c-9.324 7.728-21.294 12.39-34.356 12.39-24.402 0-44.982-16.254-51.576-38.472 10.542-.966 20.37-4.41 28.896-9.786 4.116 21.294 22.848 37.338 45.36 37.338 4.032 0 7.938-.504 11.676-1.47z" fill="url(#c)" fill-opacity=".64"/><path d="m153.76 94.1201c0 29.6939-24.066 53.7599-53.76 53.7599-29.6938 0-53.7598-24.066-53.7598-53.7599 0-29.694 24.066-53.76 53.7598-53.76 29.694 0 53.76 24.066 53.76 53.76z" fill="url(#e)"/><path d="m150.19 84.04c0 20.874-16.926 37.8-37.8 37.8-20.8742 0-37.8002-16.926-37.8002-37.8s16.926-37.8 37.8002-37.8c20.874 0 37.8 16.926 37.8 37.8z" fill="url(#f)" fill-opacity=".6"/><g fill-opacity=".64"><path d="m103.528 46.282c-.84-.042-1.68-.084-2.562-.084-8.0219 0-15.624 2.016-22.218 5.586 3.528-.798 7.2241-1.176 11.0041-1.176 3.864 0 7.6019.42 11.1719 1.218z" fill="url(#h)"/><path d="m106.636 53.5061c19.782 6.972 33.936 25.788 33.936 47.9639 0 9.114-2.394 17.64-6.594 25.032 8.61-8.484 13.902-20.286 13.902-33.3479 0-22.974-16.464-42.042-38.22-46.116z" fill="url(#i)"/><path d="m128.728 139.564c-8.316 5.25-18.144 8.316-28.7281 8.316-16.758 0-31.71-7.644-41.58-19.656 2.73.504 5.502.756 8.4.756 20.79 0 38.3461-13.734 44.1841-32.592 1.932.168 3.864.252 5.796.252 13.44 0 25.914-4.032 36.288-10.962.42 2.772.672 5.586.672 8.442 0 1.764-.084 3.528-.252 5.292-3.024 16.296-12.096 30.492-24.78 40.152z" fill="url(#j)"/></g><path d="m37.252 113.062c8.106 26.964 33.1379 46.62 62.7479 46.62 36.0361 0 65.3101-29.106 65.5201-65.1-3.612-.042-7.14-.336-10.542-.924-8.064 3.57-17.01 5.544-26.418 5.544-3.276 0-6.468-.252-9.576-.714-5.796 18.9-23.394 32.634-44.184 32.634-14.49 0-27.426-6.678-35.91-17.136-.546-.336-1.092-.63-1.638-.924z" fill="url(#k)"/><path d="m165.52 94.582c-9.618 5.586-20.832 8.778-32.76 8.778-2.268 0-4.536-.126-6.72-.336-4.158 21.252-22.89 37.296-45.36 37.296-18.396 0-34.272-10.752-41.706-26.334-.588-.294-1.134-.63-1.722-.966 8.106 26.964 33.1379 46.62 62.7479 46.62 36.0361 0 65.2681-29.064 65.5201-65.058z" fill="url(#l)"/><path clip-rule="evenodd" d="m118.942 98.5719c.084-.084.21-.126.294-.042 2.184 1.7221 4.536 3.2761 7.098 4.5781.126.042.168.21.084.294s-.168.168-.294.084c-2.562-1.302-4.956-2.856-7.14-4.6201-.084-.042-.126-.21-.042-.294z" fill="url(#m)" fill-rule="evenodd" opacity=".2"/></svg>