<svg fill="none" height="200" viewBox="0 0 200 200" width="200" xmlns="http://www.w3.org/2000/svg" xmlns:xlink="http://www.w3.org/1999/xlink"><linearGradient id="a" gradientUnits="userSpaceOnUse" x1="184" x2="82.192" y1="184" y2="-17.4497"><stop offset="0" stop-color="#71399f"/><stop offset=".11" stop-color="#71399f"/><stop offset=".8" stop-color="#ec096d"/><stop offset="1" stop-color="#ec096d"/></linearGradient><path clip-rule="evenodd" d="m16 100c0-22.2782 8.85-43.6439 24.603-59.397 15.7531-15.753 37.1188-24.603 59.397-24.603 22.278 0 43.644 8.85 59.397 24.603 15.753 15.7531 24.603 37.1188 24.603 59.397 0 22.278-8.85 43.644-24.603 59.397s-37.119 24.603-59.397 24.603c-22.2782 0-43.6439-8.85-59.397-24.603-15.753-15.753-24.603-37.119-24.603-59.397zm69.9676-23.4669h-23.467c-3.1119 0-6.0963-1.2363-8.2968-3.4367-2.2004-2.2005-3.4366-5.1849-3.4366-8.2968s1.2362-6.0964 3.4366-8.2968c2.2005-2.2005 5.1849-3.4367 8.2968-3.4367h37.3137c.1533-.0023.3067-.0023.4597 0h37.331c3.112 0 6.097 1.2362 8.297 3.4367 2.201 2.2004 3.437 5.1849 3.437 8.2968s-1.236 6.0963-3.437 8.2968c-2.2 2.2004-5.185 3.4367-8.297 3.4367h-23.475v35.1999c0 .354-.354.566-.681.443-1.146-.416-2.374-.548-3.582-.388-1.207.161-2.358.611-3.355 1.311s-1.811 1.63-2.372 2.712c-.561 1.081-.853 2.282-.851 3.5v1.265c0 .769.115 1.512.327 2.21.363 1.203-.079 2.653-1.308 2.847-1.913.308-3.8693.22-5.7476-.256-1.5031-.38-1.4678-2.432-.3802-3.537 1.343-1.371 2.2336-3.121 2.5518-5.014.3182-1.892.0488-3.837-.772-5.572-.8207-1.735-2.1534-3.177-3.8186-4.131-1.6651-.955-3.5828-1.376-5.4947-1.208-1.3174.106-2.6791-.804-2.6791-2.131zm24.6344 46.9339c.462 0 .919-.091 1.346-.268s.815-.436 1.142-.763.586-.715.763-1.141c.177-.427.268-.885.268-1.347s-.091-.92-.268-1.347-.436-.815-.763-1.142c-.327-.326-.715-.586-1.142-.762-.427-.177-.884-.268-1.346-.268-.934 0-1.829.37-2.489 1.03s-1.03 1.555-1.03 2.489c0 .933.37 1.828 1.03 2.488s1.555 1.031 2.489 1.031zm-6.234 9.47c0 1.301.517 2.55 1.437 3.47.921.92 2.169 1.437 3.47 1.437 1.302 0 2.55-.517 3.47-1.437.921-.92 1.438-2.169 1.438-3.47 0-1.302-.517-2.55-1.438-3.47-.92-.92-2.168-1.438-3.47-1.438-1.301 0-2.549.518-3.47 1.438-.92.92-1.437 2.168-1.437 3.47zm2.936 14.236c0 .911.361 1.784 1.006 2.429.644.644 1.518 1.006 2.429 1.006s1.785-.362 2.429-1.006c.644-.645 1.006-1.518 1.006-2.429s-.362-1.785-1.006-2.429c-.644-.645-1.518-1.007-2.429-1.007s-1.785.362-2.429 1.007c-.645.644-1.006 1.518-1.006 2.429zm-2.945-5.102c0 .961-.382 1.883-1.062 2.563s-1.602 1.062-2.563 1.062c-.9616 0-1.8837-.382-2.5636-1.062-.6798-.68-1.0618-1.602-1.0618-2.563 0-.962.382-1.884 1.0618-2.564.6799-.68 1.602-1.062 2.5636-1.062.961 0 1.883.382 2.563 1.062s1.062 1.602 1.062 2.564zm-5.3935 18.94c-1.4305 0-2.8024-.569-3.8139-1.58-1.0116-1.012-1.5798-2.384-1.5798-3.814 0-1.431.5682-2.803 1.5798-3.814 1.0115-1.012 2.3834-1.58 3.8139-1.58s2.8025.568 3.8135 1.58c1.012 1.011 1.58 2.383 1.58 3.814 0 1.43-.568 2.802-1.58 3.814-1.011 1.011-2.383 1.58-3.8135 1.58zm-16.579-26.491c0 1.822.7239 3.569 2.0123 4.858 1.2884 1.288 3.0359 2.012 4.858 2.012 1.8222 0 3.5697-.724 4.8581-2.012 1.2884-1.289 2.0123-3.036 2.0123-4.858 0-1.823-.7239-3.57-2.0123-4.858-1.2884-1.289-3.0359-2.013-4.8581-2.013-1.8221 0-3.5696.724-4.858 2.013-1.2884 1.288-2.0123 3.035-2.0123 4.858zm7.1002-23.963c-1.2452 0-2.4394.495-3.3199 1.376-.8806.88-1.3752 2.074-1.3752 3.32 0 1.245.4946 2.439 1.3752 3.32.8805.88 2.0747 1.375 3.3199 1.375 1.2453 0 2.4395-.495 3.32-1.375.8805-.881 1.3752-2.075 1.3752-3.32 0-1.246-.4947-2.44-1.3752-3.32-.8805-.881-2.0747-1.376-3.32-1.376z" fill="url(#a)" fill-rule="evenodd"/></svg>