<svg fill="none" height="200" viewBox="0 0 200 200" width="200" xmlns="http://www.w3.org/2000/svg" xmlns:xlink="http://www.w3.org/1999/xlink"><linearGradient id="a" gradientUnits="userSpaceOnUse" x1="157.732" x2="39.9453" y1="106.352" y2="106.352"><stop offset="0"/><stop offset="1" stop-opacity="0"/></linearGradient><circle cx="100.456" cy="100" fill="#fbf4f4" r="84"/><path d="m124.422 79.4607h-9.057v24.6283h9.057z" fill="#000"/><path d="m140.907 84.3755h-9.697v19.7135h9.697z" fill="#000"/><path d="m157.781 57h-10.025v35.0877h10.025z" fill="#6bab17"/><path d="m123.565 83.1626c4.606-5.2623 13.361-6.017 16.417-.169 0 0 3.206-4.7828 7.881-3.4701l.095 9.7599c-1.377-3.8464-6.97-2.7361-7.133 1.0301l-9.492-1.1054c.072-2.09-5.729-4.1178-7.253.6399z" fill="#000"/><path d="m99.3451 93.6826h-9.8036v10.4074h9.8036z" fill="#000"/><path d="m112.405 86.292h-10.407v17.797h10.407z" fill="#000"/><g stroke-width=".2"><path d="m62.0359 118.129c0-3.103-2.0503-4.86-5.2558-4.86-1.1551 0-3.1765.137-4.6204 2.087-1.1552-1.566-3.0322-2.087-4.7649-2.087s-3.4076.494-4.4761 2.087v-1.621h-2.7434v16.093h2.8878v-9.639c0-2.142.8952-4.778 3.4076-4.778 1.5305 0 2.5124.796 2.8878 1.867.3177.851.2888 1.84.2888 2.719v9.831h2.8878v-9.667c0-2.114.6931-4.75 3.4653-4.75 1.5306 0 2.4547.796 2.8878 1.867.3177.851.2599 1.84.2599 2.746v9.804h2.8878z" fill="#6bab17" stroke="#6bab17"/><path d="m68.3629 113.735h-2.7882v16.093h2.7882zm0-6.151h-2.7882v3.076h2.7882z" fill="#6bab17" stroke="#6bab17"/><path d="m81.8758 124.844c-.3282 1.565-1.4391 3.295-3.6355 3.295-3.1052 0-4.0646-4.037-4.0646-6.536 0-2.526.9341-6.508 4.0394-6.508 2.2217 0 3.3325 1.785 3.6607 3.35h2.6508c-.6059-3.405-2.979-5.465-6.3115-5.465-4.5948 0-6.6902 3.79-6.6902 8.596 0 4.833 2.1459 8.677 6.6902 8.677 3.3325 0 5.7561-2.087 6.3115-5.409z" fill="#6bab17" stroke="#6bab17"/><path d="m94.9366 113.323c-.1706-.055-.4548-.082-.6538-.082-2.132 0-3.6954 1.153-4.5198 3.295v-2.801h-2.7005v16.093h2.8426v-8.047c0-2.718.9097-5.794 4.3208-5.794.2559 0 .5117.028.7107.082z" fill="#6bab17" stroke="#6bab17"/><path d="m107.647 121.727c0 2.608-.929 6.563-4.168 6.563-3.188 0-4.1922-3.927-4.1922-6.563 0-2.554 1.0292-6.509 4.2172-6.509 3.113 0 4.143 3.79 4.143 6.509zm2.635.027c0-4.778-2.108-8.65-6.778-8.65-4.6942 0-6.8531 3.68-6.8531 8.678 0 5.025 2.184 8.622 6.8281 8.622 4.695 0 6.803-3.679 6.803-8.65z" fill="#6bab17" stroke="#6bab17"/><path d="m119.032 127.836c-2.454.193-2.844-.686-2.844-2.746v-9.089h2.844v-2.087h-2.844v-4.614l-2.788 1.071v3.543h-2.175v2.087h2.175v9.748c0 3.186 1.115 4.449 3.792 4.449.474 0 1.45-.11 1.84-.22z" fill="#000" stroke="#000"/><path d="m125.932 113.735h-2.788v16.093h2.788zm0-6.151h-2.788v3.076h2.788z" fill="#000" stroke="#000"/><path d="m139.867 125.145c-.332 1.566-1.456 3.296-3.678 3.296-3.141 0-4.111-4.037-4.111-6.536 0-2.527.945-6.509 4.086-6.509 2.247 0 3.371 1.785 3.703 3.351h2.682c-.613-3.405-3.014-5.465-6.385-5.465-4.648 0-6.768 3.79-6.768 8.595 0 4.834 2.171 8.678 6.768 8.678 3.371 0 5.823-2.087 6.385-5.41z" fill="#000" stroke="#000"/><path d="m150.987 120.299 5.358-6.564h-3.178l-5.909 7.223v-13.374h-2.627v22.244h2.627v-5.273l1.812-2.252 4.622 7.525h3.178z" fill="#000" stroke="#000"/></g><path d="m157.732 104.089h-117.7867v2.263h117.7867z" fill="url(#a)"/><path d="m152.696 104.09c2.766 0 5.008-2.195 5.008-4.9023 0-2.7072-2.242-4.9018-5.008-4.9018s-5.008 2.1946-5.008 4.9018c0 2.7073 2.242 4.9023 5.008 4.9023z" fill="#6bab17"/></svg>