<svg fill="none" height="200" viewBox="0 0 200 200" width="200" xmlns="http://www.w3.org/2000/svg" xmlns:xlink="http://www.w3.org/1999/xlink"><linearGradient id="a"><stop offset="0" stop-color="#ffa2ff"/><stop offset=".285552" stop-color="#d7b3ff"/><stop offset=".367148" stop-color="#d7b3ff"/><stop offset=".889732" stop-color="#00ffe5"/><stop offset="1" stop-color="#00ffe5"/></linearGradient><linearGradient id="b" gradientUnits="userSpaceOnUse" x1="35.3794" x2="178.159" xlink:href="#a" y1="130.639" y2="55.6282"/><linearGradient id="c"><stop offset="0" stop-color="#fff" stop-opacity=".299992"/><stop offset=".67422" stop-color="#fff" stop-opacity="0"/><stop offset=".866878" stop-color="#fff" stop-opacity="0"/><stop offset="1" stop-color="#fff" stop-opacity="0"/></linearGradient><linearGradient id="d" gradientUnits="userSpaceOnUse" x1="93.7591" x2="108.375" xlink:href="#c" y1="107.301" y2="53.4592"/><linearGradient id="e"><stop offset="0" stop-color="#16173e"/><stop offset=".67422" stop-color="#16173e"/><stop offset=".866878" stop-color="#16173e"/><stop offset="1" stop-color="#16173e"/></linearGradient><linearGradient id="f" gradientUnits="userSpaceOnUse" x1="93.7581" x2="108.374" xlink:href="#e" y1="107.302" y2="53.4597"/><linearGradient id="g" gradientUnits="userSpaceOnUse" x1="40.1244" x2="168.252" xlink:href="#a" y1="134.684" y2="77.7143"/><linearGradient id="h" gradientUnits="userSpaceOnUse" x1="87.1653" x2="106.675" xlink:href="#c" y1="122.406" y2="82.1148"/><linearGradient id="i" gradientUnits="userSpaceOnUse" x1="87.1646" x2="106.674" xlink:href="#e" y1="122.406" y2="82.1146"/><linearGradient id="j" gradientUnits="userSpaceOnUse" x1="34.6224" x2="149.703" xlink:href="#a" y1="142.811" y2="98.4261"/><mask id="k" height="90" maskUnits="userSpaceOnUse" width="112" x="44" y="62"><path d="m44.041 63.8725v34.5704l.0108-1.3715c.2323 29.5416 25.1964 54.7946 55.9682 54.7946 30.773 0 55.737-23.881 55.969-53.4231l.011-1.3715v-33.1989s-7.763-3.7695-16.595 5.2194c-5.67 5.7712-10.203 26.5034-22.343 26.6903-16.212.2497-27.2432-21.1917-40.4336-29.2034-5.8546-3.5561-12.6189-4.5788-18.4613-4.5788-7.9067-.0002-14.1261 1.8725-14.1261 1.8725z" fill="#fff"/></mask><mask id="l" height="14612" maskUnits="userSpaceOnUse" width="14681" x="-7394" y="-7110"><path d="m-7393.03-7109.67h14679.84v14611.15h-14679.84z" fill="url(#d)"/></mask><mask id="m" height="83" maskUnits="userSpaceOnUse" width="112" x="44" y="76"><path d="m44 77.2107v24.6423l.0108-1.467c.2322 31.601 25.2058 58.614 55.9891 58.614 30.7841 0 55.7571-25.546 55.9891-57.147l.011-1.467v-22.5447c-3.16.5242-7.051 2.0594-11.159 5.8324-6.36 5.8406-11.444 26.8213-25.059 27.0103-18.182.253-30.5542-21.4456-45.3473-29.5533-6.5659-3.5986-14.1488-4.6333-20.6989-4.6336-3.697 0-7.0644.3295-9.7358.7136z" fill="#fff"/></mask><mask id="n" height="14612" maskUnits="userSpaceOnUse" width="14681" x="-7394" y="-7110"><path d="m-7393.03-7109.67h14679.84v14611.15h-14679.84z" fill="url(#h)"/></mask><path d="m44.041 63.8725v34.5704l.0108-1.3715c.2323 29.5416 25.1964 54.7946 55.9682 54.7946 30.773 0 55.737-23.881 55.969-53.4231l.011-1.3715v-33.1989s-7.763-3.7695-16.595 5.2194c-5.67 5.7712-10.203 26.5034-22.343 26.6903-16.212.2497-27.2432-21.1917-40.4336-29.2034-5.8546-3.5561-12.6189-4.5788-18.4613-4.5788-7.9067-.0002-14.1261 1.8725-14.1261 1.8725z" fill="url(#b)"/><g mask="url(#k)"><g mask="url(#l)"><path d="m44.041 63.8725v34.5704l.0108-1.3715c.2323 29.5416 25.1964 54.7946 55.9682 54.7946 30.773 0 55.737-23.881 55.969-53.4231l.011-1.3715v-33.1989s-7.763-3.7695-16.595 5.2194c-5.67 5.7712-10.203 26.5034-22.343 26.6903-16.212.2497-27.2432-21.1917-40.4336-29.2034-5.8546-3.5561-12.6189-4.5788-18.4613-4.5788-7.9067-.0002-14.1261 1.8725-14.1261 1.8725z" fill="url(#f)"/></g></g><path d="m44 77.2107v24.6423l.0108-1.467c.2322 31.601 25.2058 58.614 55.9891 58.614 30.7841 0 55.7571-25.546 55.9891-57.147l.011-1.467v-22.5447c-3.16.5242-7.051 2.0594-11.159 5.8324-6.36 5.8406-11.444 26.8213-25.059 27.0103-18.182.253-30.5542-21.4456-45.3473-29.5533-6.5659-3.5986-14.1488-4.6333-20.6989-4.6336-3.697 0-7.0644.3295-9.7358.7136z" fill="url(#g)"/><g mask="url(#m)"><g mask="url(#n)"><path d="m44 77.2102v24.6428l.0108-1.467c.2322 31.601 25.2058 58.614 55.9891 58.614 30.7841 0 55.7571-25.546 55.9891-57.147l.011-1.467v-22.5452c-3.16.5242-7.051 2.0594-11.159 5.8324-6.36 5.8406-11.444 26.8218-25.059 27.0108-18.182.252-30.5542-21.4461-45.3473-29.5538-6.5659-3.5986-14.1488-4.6333-20.6989-4.6336-3.697 0-7.0644.3296-9.7358.7136z" fill="url(#i)"/></g></g><path d="m44 94.1972v7.6558l.0108-1.467c.2322 31.601 25.2058 58.614 55.9891 58.614 30.7841 0 55.7571-25.546 55.9891-57.147l.011-1.467v-3.9787c-2.421.9175-5.057 2.3906-7.781 4.7147-6.846 5.841-12.319 26.822-26.975 27.011-19.572.252-32.8912-21.446-48.8157-29.5541-7.0669-3.5981-15.2287-4.6324-22.2802-4.6324-2.1767-.0001-4.2475.0985-6.1481.2507z" fill="url(#j)"/></svg>