<svg fill="none" height="200" viewBox="0 0 200 200" width="200" xmlns="http://www.w3.org/2000/svg"><g fill="#ff007a"><path d="m87.6961 68.9279c-1.422-.1764-1.4897-.2351-.8126-.2939 1.2867-.1764 4.2662.0588 6.3654.4703 4.8756.9995 9.2771 3.5864 13.9491 8.1135l1.219 1.2346 1.761-.2352c7.517-1.0582 15.236-.2351 21.669 2.3518 1.761.7055 4.537 2.1165 4.876 2.4693.135.1176.338.8819.474 1.6462.474 2.7633.271 4.821-.745 6.4085-.542.8819-.542 1.117-.203 1.8813.271.588 1.083.9995 1.828.9995 1.625 0 3.318-2.2341 4.131-5.3502l.339-1.2346.609.5879c3.453 3.3512 6.162 7.9959 6.568 11.2883l.136.8818-.61-.7642c-1.015-1.3522-1.963-2.2341-3.25-2.9985-2.302-1.3522-4.74-1.7637-11.173-2.0577-5.824-.294-9.142-.7055-12.392-1.6462-5.553-1.5874-8.397-3.6452-14.966-11.2295-2.911-3.3512-4.74-5.1738-6.568-6.7024-3.9954-3.3513-7.9907-5.1151-13.2049-5.8206z"/><path d="m138.145 76.3946c.135-2.2342.474-3.704 1.219-5.0562.27-.5292.541-.9995.609-.9995s-.068.4115-.271.8819c-.542 1.2934-.609 3.116-.271 5.1738.474 2.6457.677 2.9984 3.928 5.8793 1.49 1.3522 3.25 3.0572 3.927 3.7627l1.152 1.2935-1.152-.9407c-1.422-1.1759-4.672-3.41-5.417-3.704-.474-.2351-.542-.2351-.88.0588-.271.2352-.339.588-.339 2.293-.068 2.6457-.474 4.2919-1.49 5.9969-.541.8819-.609.7055-.135-.294.339-.7643.406-1.1171.406-3.6452 0-5.115-.677-6.3496-4.808-8.4074-1.015-.5291-2.776-1.2935-3.792-1.705-1.083-.4116-1.896-.7643-1.828-.7643.135-.1176 4.131.8819 5.688 1.4698 2.37.8231 2.777.8819 3.047.8231.204-.1764.339-.6467.407-2.1165z"/><path d="m90.4724 85.1547c-2.8441-3.41-4.6724-8.7014-4.2661-12.6405l.1354-1.2347.6772.1176c1.2189.1764 3.3181.8819 4.3338 1.4111 2.7087 1.411 3.9276 3.3512 5.0788 8.1722.3385 1.4111.8126 3.0573 1.0157 3.5864.3386.8819 1.6252 2.9397 2.7088 4.2331.745.9407.271 1.411-1.4222 1.2935-2.5732-.2352-6.0268-2.293-8.2614-4.9387z"/><path d="m134.691 110.73c-13.408-4.704-18.148-8.76-18.148-15.6391 0-.9995.068-1.8226.068-1.8226.067 0 .541.3528 1.151.7643 2.709 1.8814 5.756 2.7045 14.22 3.7628 4.944.6467 7.788 1.1171 10.361 1.8814 8.194 2.3512 13.272 7.1732 14.491 13.6992.339 1.881.136 5.467-.406 7.349-.474 1.47-1.828 4.174-2.167 4.233-.068 0-.203-.294-.203-.764-.136-2.47-1.558-4.822-3.928-6.644-2.844-2.117-6.5-3.704-15.439-6.82z"/><path d="m125.211 112.67c-.135-.882-.474-1.999-.677-2.469l-.339-.882.61.647c.88.881 1.557 1.94 2.167 3.41.474 1.117.474 1.469.474 3.292 0 1.764-.068 2.175-.474 3.175-.677 1.587-1.49 2.704-2.844 3.939-2.438 2.175-5.621 3.351-10.158 3.88-.812.059-3.115.235-5.146.353-5.079.235-8.465.706-11.5122 1.646-.4063.118-.8126.235-.8803.177-.1354-.118 1.9638-1.176 3.6565-1.882 2.37-.999 4.808-1.528 10.158-2.351 2.641-.353 5.349-.824 6.026-1.059 6.704-1.822 10.023-6.349 8.939-11.876z"/><path d="m131.373 122.136c-1.761-3.352-2.167-6.526-1.219-9.525.135-.294.271-.588.406-.588.136 0 .542.177.948.412.813.47 2.506 1.293 6.84 3.351 5.485 2.587 8.6 4.586 10.767 6.879 1.896 1.999 3.047 4.292 3.589 7.114.338 1.587.135 5.409-.339 6.996-1.49 4.998-4.876 8.995-9.819 11.288-.745.353-1.354.588-1.422.588s.203-.588.609-1.293c1.626-2.999 1.829-5.879.61-9.113-.745-1.999-2.302-4.41-5.417-8.466-3.725-4.704-4.605-5.938-5.553-7.643z"/><path d="m80.924 140.126c5.011-3.645 11.1732-6.232 16.8614-7.055 2.4376-.352 6.5006-.235 8.7356.294 3.589.823 6.839 2.587 8.532 4.762 1.625 2.117 2.37 3.94 3.115 7.996.271 1.588.61 3.234.677 3.587.542 2.116 1.625 3.763 2.98 4.644 2.099 1.353 5.756 1.411 9.345.236.609-.177 1.151-.353 1.151-.294.135.117-1.693 1.175-2.912 1.705-1.693.764-3.047.999-4.876.999-3.25 0-6.026-1.47-8.261-4.409-.474-.588-1.422-2.293-2.235-3.881-2.37-4.762-3.589-6.173-6.365-7.76-2.438-1.353-5.553-1.647-7.9228-.647-3.115 1.293-3.9276 4.762-1.7606 6.879.8803.882 2.5054 1.587 3.8594 1.763 2.506.294 4.673-1.411 4.673-3.586 0-1.411-.61-2.234-2.235-2.881-2.167-.823-4.5368.118-4.4691 1.94 0 .765.4061 1.235 1.2871 1.588.541.235.541.235.135.176-1.9638-.353-2.4378-2.469-.88-3.821 1.896-1.647 5.891-.941 7.245 1.352.542.941.61 2.822.136 3.998-1.151 2.587-4.402 3.939-7.72 3.175-2.2346-.53-3.1826-1.059-5.8913-3.469-4.7401-4.233-6.5685-5.056-13.3401-5.938l-1.2866-.177z"/><g clip-rule="evenodd" fill-rule="evenodd"><path d="m45.3054 45.5281c15.7779 16.6385 40.0881 42.5075 41.307 43.9185 1.0158 1.1759.6095 2.293-1.0834 3.1161-.9481.4703-2.9118.9407-3.8599.9407-1.0834 0-2.37-.4704-3.2504-1.2347-.6094-.5291-3.2503-3.8804-9.2094-11.935-4.537-6.1733-8.3968-11.2883-8.4646-11.3471-.2708-.1176-.2708-.1176 7.9906 12.6993 5.2142 8.0547 6.9071 10.9356 6.9071 11.2883 0 .7643-.2709 1.1759-1.3544 2.2342-1.8283 1.7638-2.6409 3.7627-3.2504 7.9366-.6771 4.645-2.5055 7.938-7.7196 13.523-3.0473 3.292-3.5213 3.88-4.2662 5.232-.948 1.647-1.2189 2.587-1.3543 4.704-.1354 2.234.1354 3.645.8803 5.762.6772 1.881 1.4221 3.116 3.2504 5.526 1.5575 2.117 2.5055 3.704 2.5055 4.292 0 .47.1354.47 2.5732 0 5.8237-1.176 10.6315-3.175 13.2725-5.644 1.6252-1.529 2.0315-2.352 2.0315-4.468 0-1.353-.0677-1.647-.474-2.47-.6772-1.293-1.9638-2.351-4.7402-3.998-3.6567-2.175-5.2142-3.939-5.6205-6.29-.3386-1.999.0677-3.352 2.0992-7.056 2.0993-3.821 2.641-5.409 2.9796-9.289.2031-2.469.5417-3.4687 1.3543-4.2331.8803-.8231 1.6252-1.117 3.7244-1.3522 3.4535-.4115 5.6882-1.1759 7.4488-2.6457 1.5575-1.2346 2.2347-2.4693 2.3024-4.2919l.0677-1.3522-.8803-.8231c-3.1827-3.1749-47.2661-45.2708-47.4693-45.2708-.0677 0 1.0158 1.1171 2.3024 2.5281zm20.7889 83.6039c.7449-1.117.3386-2.528-.8803-3.234-1.1512-.646-2.9118-.352-2.9118.53 0 .235.1354.47.5417.587.6095.294.6772.588.2032 1.235s-.474 1.235.1354 1.646c.9481.647 2.2347.294 2.9118-.764z"/><path d="m93.5194 98.2067c-1.6252.4116-3.1827 1.9403-3.6567 3.4693-.2709.94-.1355 2.645.3385 3.174.7449.823 1.4221 1.059 3.3182 1.059 3.7244 0 6.9066-1.411 7.2456-3.116.339-1.411-1.0834-3.3516-3.0472-4.2335-1.0158-.4704-3.115-.6468-4.1984-.3528zm4.3338 2.9393c.5417-.705.3386-1.4695-.6772-1.9986-1.8283-.9995-4.6047-.1764-4.6047 1.3526 0 .764 1.4221 1.587 2.7764 1.587.8803 0 2.0992-.47 2.5055-.941z"/></g></g></svg>