<svg fill="none" height="200" viewBox="0 0 200 200" width="200" xmlns="http://www.w3.org/2000/svg"><path d="m100 184c46.392 0 84-37.608 84-84 0-46.3919-37.608-84-84-84-46.3919 0-84 37.6081-84 84 0 46.392 37.6081 84 84 84z" fill="#2775ca"/><g fill="#fff"><path d="m84.25 158.406c0 1.969-1.575 3.085-3.4125 2.494-25.4625-8.137-43.8375-31.894-43.8375-60.047 0-28.0874 18.375-51.9092 43.8375-60.0467 1.9031-.5907 3.4125.525 3.4125 2.4937v4.9219c0 1.3125-.9844 2.8219-2.2313 3.2812-20.1468 7.4157-34.5187 26.775-34.5187 49.3499 0 22.641 14.3719 41.935 34.5187 49.285 1.2469.459 2.2313 1.968 2.2313 3.281z"/><path d="m105.25 140.228c0 1.444-1.181 2.625-2.625 2.625h-5.2498c-1.4438 0-2.625-1.181-2.625-2.625v-8.269c-11.4844-1.575-17.0625-7.94-18.5719-16.734-.2625-1.509.9187-2.822 2.4281-2.822h5.9719c1.2469 0 2.2969.919 2.5594 2.1 1.1156 5.184 4.1343 9.188 13.3223 9.188 6.759 0 11.615-3.807 11.615-9.45 0-5.644-2.822-7.81-12.7967-9.45-14.7-1.969-21.6563-6.4317-21.6563-17.9161 0-8.8594 6.7594-15.8156 17.1282-17.2594v-8.1375c0-1.4437 1.1812-2.625 2.625-2.625h5.2498c1.444 0 2.625 1.1813 2.625 2.625v8.3344c8.466 1.5094 13.847 6.3 15.619 14.3063.328 1.5093-.853 2.8874-2.428 2.8874h-5.513c-1.181 0-2.165-.7874-2.493-1.9031-1.51-5.0531-5.119-7.2844-11.4192-7.2844-6.9563 0-10.5656 3.3469-10.5656 8.0719 0 4.9875 2.0343 7.4813 12.7308 8.9906 14.438 1.9688 21.919 6.1029 21.919 18.3749 0 9.319-6.956 16.866-17.784 18.572v8.4z"/><path d="m119.162 160.9c-1.903.59-3.412-.525-3.412-2.494v-4.922c0-1.444.853-2.822 2.231-3.281 20.081-7.35 34.519-26.709 34.519-49.284 0-22.641-14.372-41.9348-34.519-49.2848-1.247-.4593-2.231-1.9687-2.231-3.2812v-4.9219c0-1.9687 1.575-3.0844 3.412-2.4937 25.463 8.0062 43.838 31.8281 43.838 59.9156 0 28.153-18.375 51.909-43.838 60.047z"/></g></svg>