<svg fill="none" height="200" viewBox="0 0 200 200" width="200" xmlns="http://www.w3.org/2000/svg"><path d="m100 184c46.392 0 84-37.608 84-84 0-46.3919-37.608-84-84-84-46.3919 0-84 37.6081-84 84 0 46.392 37.6081 84 84 84z" fill="#06d6a0"/><path d="m106.431 70.2718c7.547 0 13.519 4.0688 17.194 7.35 2.297 1.9688 4.659 1.6407 7.613-1.2468l6.037-6.1688c2.559-2.4938 2.559-4.3969 0-7.4156-3.872-3.6094-9.122-6.2344-15.356-7.8094l2.953-12.8625c.197-.6563-.328-1.2469-.984-1.2469h-5.185c-.656 0-1.247.4594-1.509 1.05l-2.625 11.7469c-2.231-.2625-4.528-.3938-6.891-.3938l2.494-11.1562c.197-.6563-.328-1.2469-.984-1.2469h-5.185c-.656 0-1.247.4594-1.509 1.05l-2.6252 11.7469c-17.85 2.2313-29.4 13.125-29.4 28.6125 0 6.1687 2.3625 11.6156 7.0875 16.0781 4.725 4.5277 10.8937 6.8907 15.225 8.2687 1.575.525 3.0187.984 4.3969 1.378 6.9558 2.1 12.2058 4.725 12.2058 10.106 0 5.513-5.709 10.304-13.8465 10.304-8.0062 0-16.9312-4.791-21.6562-9.385-.5906-.525-1.6406-1.312-2.9531-1.312-1.3782 0-2.9532.853-4.5938 2.428l-6.4312 6.431c-2.5594 2.559-2.6907 5.119-.3938 7.547 4.5938 5.119 11.4844 8.859 19.6875 10.828l-2.7562 12.206c-.2625.919.4593 1.772 1.4437 1.772h4.3969c.8531 0 1.575-.525 1.7719-1.312l2.5593-11.485c2.1.197 4.2657.328 6.4313.328h.525l-2.4281 10.632c-.2625.918.4593 1.772 1.4437 1.772h4.3969c.8531 0 1.575-.525 1.7719-1.313l2.6248-11.681c7.547-1.05 14.306-3.413 19.556-7.088 7.875-5.447 12.535-15.028 12.535-24.74 0-14.9628-13.388-19.7534-25.135-24.0847-.59-.2625-1.246-.4594-1.837-.6562l-.788-.2625c-5.578-2.1-11.5496-4.4625-11.5496-9.975-.1969-4.9875 5.0531-8.7938 12.2716-8.7938z" fill="#fff"/></svg>