<svg fill="none" height="200" viewBox="0 0 200 200" width="200" xmlns="http://www.w3.org/2000/svg" xmlns:xlink="http://www.w3.org/1999/xlink"><linearGradient id="a" gradientUnits="userSpaceOnUse" x1="16468.4" x2="712.673" y1="363.607" y2="16119.3"><stop offset="0" stop-color="#282a2d"/><stop offset="1" stop-color="#354252"/></linearGradient><radialGradient id="b" cx="0" cy="0" gradientTransform="matrix(-278.44616526 -9962.91971809 12421.54968188 -347.16056872 12122 -4382.99)" gradientUnits="userSpaceOnUse" r="1"><stop offset="0" stop-color="#1e89dd"/><stop offset="1" stop-color="#60fbd0"/></radialGradient><path d="m100 184c46.392 0 84-37.608 84-84 0-46.3919-37.608-84-84-84-46.3919 0-84 37.6081-84 84 0 46.392 37.6081 84 84 84z" fill="url(#a)"/><path d="m89.0455 102.26v1.067 45.853c0 1.202-.0014 1.204-1.2168 1.205-4.3107.001-8.6215.001-12.9322-.001-1.0014 0-1.0347-.033-1.0347-1.033-.0015-9.503-.0006-19.007-.0015-28.511-.0003-1.141-.0547-1.179-1.155-.941-6.2192 1.343-12.5102 2.022-18.873 2.066-.6936.005-.8746-.233-.8713-.894.0229-4.458.0226-8.916.0005-13.374-.0032-.658.1899-.908.8735-.914 6.791-.066 13.486-.93 20.0056-2.825 3.3999-.989 6.6983-2.328 10.0396-3.516.2166-.077.4097-.218.7763-.419-.3905-.2177-.6191-.3737-.8687-.4808-5.283-2.2666-10.7473-3.9223-16.403-4.9759-4.4669-.8316-8.9678-1.2504-13.5024-1.3398-.7022-.0139-.9264-.2234-.9224-.9285.026-4.4579.023-8.9157.0027-13.3739-.0027-.663.2098-.917.8894-.9002 4.2624.1056 8.5146.3437 12.729 1.0179 2.1975.3514 4.384.7716 6.5706 1.186.5989.1136.7169-.1413.7145-.6633-.0123-3.0126-.0056-6.0255-.0053-9.0385 0-6.6135-.0006-13.227.0006-19.8402.0003-1.063.0038-1.0653 1.0618-1.0656 4.3843-.0006 8.7683-.0012 13.1526.0003.9644.0006.9688.0044.9688.9926.0008 11.2185.0079 22.437-.0156 33.6553-.0015.7298.256 1.0585.897 1.3696 3.1927 1.5485 6.3663 3.1383 9.5181 4.7677.6098.3152 1.0068.3367 1.5588-.1003 13.132-10.3928 22.125-23.593 26.905-39.6467.241-.8081.583-1.0662 1.418-1.0587 4.506.0417 9.013.019 13.52.0211.98.0003 1.071.115.835 1.0618-4.796 19.2881-14.702 35.4571-29.638 48.5547-.887.7784-.89.7744.015 1.5654 12.888 11.26 22.104 24.978 27.515 41.224.803 2.412 1.423 4.886 2.107 7.338.248.889.127 1.018-.821 1.018-4.58.004-9.16-.012-13.741.017-.7.004-.974-.265-1.169-.906-6.305-20.779-18.988-36.408-37.9597-46.949-.1916-.106-.3931-.197-.5956-.281-.0612-.025-.1416-.004-.3482-.004z" fill="url(#b)"/></svg>