<svg fill="none" height="200" viewBox="0 0 200 200" width="200" xmlns="http://www.w3.org/2000/svg" xmlns:xlink="http://www.w3.org/1999/xlink"><linearGradient id="a" gradientUnits="userSpaceOnUse" x1="50.9816" x2="178.996" y1="168.387" y2="168.387"><stop offset="0" stop-color="#600000"/><stop offset=".327" stop-color="#630000"/><stop offset=".59" stop-color="#6d0000"/><stop offset=".83" stop-color="#7e0000"/><stop offset="1" stop-color="#8f0000"/></linearGradient><linearGradient id="b" gradientUnits="userSpaceOnUse" x1="114.989" x2="114.989" y1="156.798" y2="180"><stop offset=".35" stop-color="#bf1010"/><stop offset=".645" stop-color="#bd1010"/><stop offset=".752" stop-color="#b60f0f"/><stop offset=".828" stop-color="#ab0d0d"/><stop offset=".889" stop-color="#9a0a0a"/><stop offset=".941" stop-color="#840606"/><stop offset=".987" stop-color="#690202"/><stop offset="1" stop-color="#600000"/></linearGradient><linearGradient id="c" gradientUnits="userSpaceOnUse" x1="50.9818" x2="178.996" y1="129.358" y2="129.358"><stop offset="0" stop-color="#bf1010"/><stop offset=".021" stop-color="#c11212"/><stop offset=".244" stop-color="#d22323"/><stop offset=".487" stop-color="#dc2d2d"/><stop offset=".791" stop-color="#df3030"/><stop offset=".841" stop-color="#dc2e2e"/><stop offset=".882" stop-color="#d22626"/><stop offset=".919" stop-color="#c11919"/><stop offset=".954" stop-color="#a90808"/><stop offset=".966" stop-color="#9f0000"/><stop offset="1" stop-color="#df3030"/></linearGradient><linearGradient id="d"><stop offset="0" stop-color="#dfdfdf"/><stop offset=".021" stop-color="#e1e1e1"/><stop offset=".244" stop-color="#f2f2f2"/><stop offset=".487" stop-color="#fcfcfc"/><stop offset=".791" stop-color="#fff"/><stop offset=".841" stop-color="#fcfcfc"/><stop offset=".882" stop-color="#f2f2f2"/><stop offset=".919" stop-color="#e1e1e1"/><stop offset=".954" stop-color="#c9c9c9"/><stop offset=".966" stop-color="#bfbfbf"/><stop offset="1" stop-color="#fff"/></linearGradient><linearGradient id="e" gradientUnits="userSpaceOnUse" x1="50.9817" x2="178.996" xlink:href="#d" y1="116.209" y2="116.209"/><linearGradient id="f" gradientUnits="userSpaceOnUse" x1="50.9817" x2="178.996" xlink:href="#d" y1="149.173" y2="149.173"/><linearGradient id="g" gradientUnits="userSpaceOnUse" x1="50.9817" x2="178.996" xlink:href="#d" y1="162.36" y2="162.36"/><linearGradient id="h" gradientUnits="userSpaceOnUse" x1="50.9816" x2="178.996" y1="114.096" y2="114.096"><stop offset="0" stop-color="#00209f"/><stop offset=".021" stop-color="#0222a1"/><stop offset=".244" stop-color="#1333b2"/><stop offset=".487" stop-color="#1d3dbc"/><stop offset=".791" stop-color="#2040bf"/><stop offset=".841" stop-color="#1e3dbc"/><stop offset=".882" stop-color="#1933b2"/><stop offset=".919" stop-color="#1122a1"/><stop offset=".954" stop-color="#050a89"/><stop offset=".966" stop-color="#00007f"/><stop offset="1" stop-color="#2040bf"/></linearGradient><linearGradient id="i" gradientUnits="userSpaceOnUse" x1="50.9838" x2="178.99" xlink:href="#d" y1="97.8321" y2="97.8321"/><linearGradient id="j" gradientUnits="userSpaceOnUse" x1="50.9837" x2="178.984" xlink:href="#d" y1="120.594" y2="120.594"/><linearGradient id="k" gradientUnits="userSpaceOnUse" x1="50.9837" x2="178.984" xlink:href="#d" y1="129.794" y2="129.794"/><linearGradient id="l" gradientUnits="userSpaceOnUse" x1="50.9836" x2="178.99" xlink:href="#d" y1="116.238" y2="116.238"/><linearGradient id="m" gradientUnits="userSpaceOnUse" x1="50.9837" x2="178.99" xlink:href="#d" y1="125.437" y2="125.437"/><linearGradient id="n" gradientUnits="userSpaceOnUse" x1="50.9836" x2="178.99" xlink:href="#d" y1="107.035" y2="107.035"/><linearGradient id="o" gradientUnits="userSpaceOnUse" x1="50.9756" x2="179.014" xlink:href="#d" y1="129.043" y2="129.043"/><linearGradient id="p" gradientUnits="userSpaceOnUse" x1="50.9837" x2="178.984" xlink:href="#d" y1="111.393" y2="111.393"/><linearGradient id="q" gradientUnits="userSpaceOnUse" x1="50.9838" x2="178.984" xlink:href="#d" y1="124.863" y2="124.863"/><linearGradient id="r" gradientUnits="userSpaceOnUse" x1="50.9837" x2="178.984" xlink:href="#d" y1="134.066" y2="134.066"/><linearGradient id="s" gradientUnits="userSpaceOnUse" x1="50.9837" x2="178.984" xlink:href="#d" y1="102.19" y2="102.19"/><linearGradient id="t" gradientUnits="userSpaceOnUse" x1="50.9837" x2="178.988" xlink:href="#d" y1="115.662" y2="115.662"/><linearGradient id="u" gradientUnits="userSpaceOnUse" x1="50.9837" x2="178.99" xlink:href="#d" y1="134.642" y2="134.642"/><linearGradient id="v" gradientUnits="userSpaceOnUse" x1="50.9817" x2="179.012" xlink:href="#d" y1="116.515" y2="116.515"/><linearGradient id="w" gradientUnits="userSpaceOnUse" x1="50.9817" x2="179.012" xlink:href="#d" y1="107.312" y2="107.312"/><linearGradient id="x" gradientUnits="userSpaceOnUse" x1="50.9817" x2="178.978" xlink:href="#d" y1="134.919" y2="134.919"/><linearGradient id="y" gradientUnits="userSpaceOnUse" x1="50.9838" x2="178.984" xlink:href="#d" y1="106.461" y2="106.461"/><linearGradient id="z" gradientUnits="userSpaceOnUse" x1="50.9838" x2="178.984" xlink:href="#d" y1="97.2556" y2="97.2556"/><linearGradient id="A" gradientUnits="userSpaceOnUse" x1="50.9817" x2="178.978" xlink:href="#d" y1="125.716" y2="125.716"/><linearGradient id="B" gradientUnits="userSpaceOnUse" x1="50.9815" x2="178.982" xlink:href="#d" y1="102.612" y2="102.612"/><linearGradient id="C" gradientUnits="userSpaceOnUse" x1="50.9815" x2="178.982" xlink:href="#d" y1="111.813" y2="111.813"/><linearGradient id="D" gradientUnits="userSpaceOnUse" x1="50.9817" x2="178.982" xlink:href="#d" y1="130.215" y2="130.215"/><linearGradient id="E" gradientUnits="userSpaceOnUse" x1="50.9815" x2="178.982" xlink:href="#d" y1="121.014" y2="121.014"/><linearGradient id="F" gradientUnits="userSpaceOnUse" x1="50.9817" x2="179.008" xlink:href="#d" y1="98.109" y2="98.109"/><linearGradient id="G" gradientUnits="userSpaceOnUse" x1="50.9755" x2="179.014" xlink:href="#d" y1="119.843" y2="119.843"/><linearGradient id="H" gradientUnits="userSpaceOnUse" x1="50.9878" x2="178.986" xlink:href="#d" y1="117.524" y2="117.524"/><linearGradient id="I" gradientUnits="userSpaceOnUse" x1="50.9878" x2="178.986" xlink:href="#d" y1="108.323" y2="108.323"/><linearGradient id="J" gradientUnits="userSpaceOnUse" x1="50.9878" x2="178.986" xlink:href="#d" y1="126.727" y2="126.727"/><linearGradient id="K" gradientUnits="userSpaceOnUse" x1="50.9634" x2="179.027" xlink:href="#d" y1="104.391" y2="104.391"/><linearGradient id="L" gradientUnits="userSpaceOnUse" x1="50.9898" x2="178.984" xlink:href="#d" y1="99.1226" y2="99.1226"/><linearGradient id="M" gradientUnits="userSpaceOnUse" x1="50.9634" x2="179.027" xlink:href="#d" y1="95.1898" y2="95.1898"/><linearGradient id="N" gradientUnits="userSpaceOnUse" x1="50.9857" x2="178.992" xlink:href="#d" y1="112.205" y2="112.205"/><linearGradient id="O" gradientUnits="userSpaceOnUse" x1="50.9859" x2="178.992" xlink:href="#d" y1="103.004" y2="103.004"/><linearGradient id="P" gradientUnits="userSpaceOnUse" x1="50.9878" x2="178.99" xlink:href="#d" y1="130.611" y2="130.611"/><linearGradient id="Q" gradientUnits="userSpaceOnUse" x1="50.9859" x2="178.992" xlink:href="#d" y1="93.799" y2="93.799"/><linearGradient id="R" gradientUnits="userSpaceOnUse" x1="50.9856" x2="178.992" xlink:href="#d" y1="121.406" y2="121.406"/><linearGradient id="S" gradientUnits="userSpaceOnUse" x1="50.9632" x2="179.027" xlink:href="#d" y1="113.594" y2="113.594"/><linearGradient id="T" gradientUnits="userSpaceOnUse" x1="50.9756" x2="179.014" xlink:href="#d" y1="101.439" y2="101.439"/><linearGradient id="U" gradientUnits="userSpaceOnUse" x1="50.9858" x2="178.986" xlink:href="#d" y1="123.946" y2="123.946"/><linearGradient id="V" gradientUnits="userSpaceOnUse" x1="50.9632" x2="179.027" xlink:href="#d" y1="122.795" y2="122.795"/><linearGradient id="W" gradientUnits="userSpaceOnUse" x1="50.9858" x2="178.986" xlink:href="#d" y1="105.544" y2="105.544"/><linearGradient id="X" gradientUnits="userSpaceOnUse" x1="50.9858" x2="178.986" xlink:href="#d" y1="133.151" y2="133.151"/><linearGradient id="Y" gradientUnits="userSpaceOnUse" x1="50.9755" x2="179.014" xlink:href="#d" y1="110.64" y2="110.64"/><linearGradient id="Z" gradientUnits="userSpaceOnUse" x1="50.9776" x2="179.008" xlink:href="#d" y1="96.3406" y2="96.3406"/><linearGradient id="aa" gradientUnits="userSpaceOnUse" x1="50.9858" x2="178.986" xlink:href="#d" y1="114.747" y2="114.747"/><linearGradient id="ab" gradientUnits="userSpaceOnUse" x1="50.9633" x2="179.027" xlink:href="#d" y1="131.998" y2="131.998"/><linearGradient id="ac" gradientUnits="userSpaceOnUse" x1="50.9858" x2="178.988" xlink:href="#d" y1="128.001" y2="128.001"/><linearGradient id="ad" gradientUnits="userSpaceOnUse" x1="50.9857" x2="178.988" xlink:href="#d" y1="100.398" y2="100.398"/><linearGradient id="ae" gradientUnits="userSpaceOnUse" x1="50.9858" x2="178.988" xlink:href="#d" y1="118.8" y2="118.8"/><linearGradient id="af" gradientUnits="userSpaceOnUse" x1="50.9858" x2="178.988" xlink:href="#d" y1="109.598" y2="109.598"/><path d="m82.1334 137.453c4.0858 15.181 18.7456 26.761 26.1486 26.281.26-.016 28.079-5.225 43.309-30.772 11.849-19.885 7.818-39.0831-8.302-39.5016-5.798.4247-68.9368 15.0766-61.1515 43.9966m59.6475-97.5016-.016-.0143.022-.0144c-10.153-8.6721-22.539-14.2873-35.731-16.1987-13.192-1.9113-26.6535-.041-38.8334 5.3955-1.5406.6435-3.0414 1.3793-4.4943 2.2034-.9928.5313-1.9856 1.0585-2.9499 1.6411l.2349.0739c-2.8509 1.9489-5.3719 4.3448-7.4666 7.0961-20.2898 26.9341 47.7663 46.5197 84.1583 46.5771 16.733 12.0669 21.431-33.9748 5.076-46.7597z" fill="#0e3ca5"/><path d="m71.3368 40.4992c-9.3502 14.1142-40.4938 24.0578-45.6152 22.5089l-.0348-.0656c.2043-.4247.4229-.8493.6395-1.2699 5.3109-10.2725 12.9099-19.1764 22.2059-26.0191 1.9162-1.4114 3.9005-2.7305 5.953-3.9573 3.1553-1.7495 6.69-2.6949 10.294-2.7531 13.869.2667 6.627 11.4473 6.5535 11.5602m-7.6689 99.7247c.6721 4.434-.0164 21.951-.9193 23.424-.7784.048-2.3984.148-7.0908-2.496-14.9838-8.586-26.5439-22.118-32.7147-38.296s-6.5714-34.0027-1.1336-50.4437c.2492-.7522.51-1.4997.7824-2.2423 5.3748 7.1802 11.5953 13.6753 16.8823 20.9252 5.0356 6.9033 11.963 18.1578 13.3726 20.5638 8.7516 14.929 10.1469 24.14 10.8149 28.567m103.4674-44.1477c.011 9.4137-1.749 18.7447-5.189 27.5027-8.784 9.478-67.9949-13.854-68.5751-14.111-8.0999-3.563-32.7492-14.4051-34.9739-31.4325-3.1889-24.5154 46.31-41.592 68.066-42.2382 2.609.0308 10.548.1231 15.177 3.8978 8.017 7.0209 14.441 15.6867 18.839 25.4129 4.398 9.7261 6.668 20.2864 6.656 30.9683zm-40.083 66.4107c-6.454 3.026-13.561.821-11.714-5.49 3.544-12.122 34.496-24.55 41.331-25.233.844-.084 1.201.492.828 1.151-7.122 12.575-17.686 22.835-30.439 29.562" fill="#5493f7"/><path d="m50.9816 174.369c-.0911 1.369.3563 2.719 1.246 3.76.8898 1.04 2.1508 1.689 3.5118 1.806 62.7166.431 123.2566-2.462 123.2566-11.899 0-28.565-128.0144 6.333-128.0144 6.333z" fill="url(#a)"/><path d="m50.9816 174.369c-.0925 1.373.3574 2.727 1.2522 3.769.8948 1.041 2.1625 1.687 3.5281 1.797 62.7001.478 123.1581-1.5 123.2341-11.899 0-28.565-128.0144 6.333-128.0144 6.333zm4.7824 5.203c-.1673-.001-.3344-.01-.5005-.029-.9558-.134-1.8508-.549-2.5729-1.192-.722-.643-1.2391-1.486-1.4863-2.423.2682 1.016.8568 1.917 1.6777 2.568.821.651 1.83 1.018 2.8758 1.045 62.6572-.394 122.2552-19.768 122.2552-11.238 0 8.706-59.594 11.697-122.249 11.269z" fill="url(#b)"/><path d="m55.7683 93.4729c-.6288 0-1.2514.1244-1.8322.366-.5809.2417-1.1086.596-1.5531 1.0425-.4445.4466-.797.9767-1.0374 1.5601s-.3641 1.2087-.3638 1.8401v76.0874c-.0016 1.271.4981 2.491 1.3898 3.392.8917.902 2.1027 1.412 3.3681 1.419 62.7123-.472 123.3323-21.317 123.2563-11.139v-85.7057c.076-10.1754-60.524 10.6678-123.2277 11.1376z" fill="url(#c)"/><path d="m65.0141 145.989c2.2329-.088 4.4208-.183 6.5699-.304s4.2532-.258 6.3227-.41c2.0694-.152 4.098-.328 6.1-.511s3.9754-.369 5.9243-.564 3.8712-.398 5.7711-.616c3.7441-.427 7.4839-.89 11.2199-1.388 1.848-.249 3.677-.501 5.515-.77 1.839-.268 3.647-.556 5.479-.839 1.833-.283 3.677-.568 5.516-.861 1.839-.294 3.696-.591 5.553-.903 1.856-.312 3.726-.642 5.619-.968 1.894-.327 3.812-.655 5.751-.993 1.939-.339 3.902-.677 5.892-1.026s4.006-.712 6.061-1.059c2.055-.346 4.147-.687 6.278-1.013 2.13-.326 4.085-.616 6.741-.952 2.895-.413 5.821-.57 8.744-.468 2.747.187 4.923.889 4.923 2.813v-6.598c0-1.899-2.086-2.58-4.646-2.792-2.728-.139-5.464-.024-8.171.345-2.552.293-4.39.574-6.31.859-1.921.286-3.794.583-5.637.887-1.842.303-3.656.615-5.458.929s-3.596.636-5.402.954-3.626.634-5.474.952l-5.653.976c-1.924.333-3.882.667-5.924 1.001-2.043.335-4.176.667-6.388 1.01-2.213.342-4.509.708-6.907 1.065v-6.594c2.398-.355 4.698-.722 6.907-1.065 2.208-.342 4.341-.679 6.388-1.009s4.008-.669 5.924-1.003c1.916-.335 3.806-.657 5.655-.975l5.472-.952 5.402-.953c1.802-.318 3.614-.616 5.458-.93 1.845-.314 3.714-.599 5.637-.886 1.922-.287 3.758-.568 6.31-.86 2.707-.366 5.443-.482 8.171-.346 2.562.205 4.648.894 4.648 2.792v-6.586c0-1.895-2.086-2.58-4.646-2.794-2.728-.135-5.463-.019-8.171.347-2.552.295-4.388.572-6.31.86-1.923.287-3.794.582-5.637.886-1.842.303-3.656.615-5.458.929s-3.596.64-5.402.956l-5.474.952c-1.849.32-3.727.64-5.653.975-1.926.334-3.882.668-5.924.999-2.043.33-4.176.668-6.388 1.011-2.213.343-4.509.708-6.905 1.063v-6.592c2.394-.357 4.698-.718 6.907-1.065 2.208-.346 4.341-.679 6.388-1.009s4.004-.667 5.924-1.001l5.655-.974c1.838-.32 3.667-.634 5.472-.952l5.402-.954c3.69-.652 7.389-1.258 11.095-1.816 1.922-.283 3.759-.568 6.31-.861 2.708-.365 5.443-.48 8.172-.345 2.559.205 4.645.896 4.645 2.794v-6.6c0-1.897-2.086-2.5763-4.645-2.7897-2.729-.1373-5.464-.0219-8.172.3447-2.551.293-4.388.574-6.31.86-1.923.285-3.794.584-5.637.886-1.842.301-3.656.615-5.458.927l-5.402.958-5.474.95c-1.849.32-3.727.638-5.653.974-1.926.337-3.881.669-5.924 1-2.043.33-4.178.668-6.392 1.013-2.215.345-4.511.708-6.905 1.065v-6.594c2.394-.357 4.686-.722 6.902-1.067 2.217-.344 4.348-.677 6.395-1.011 2.047-.3344 3.998-.6667 5.924-.9991l5.655-.9744c1.838-.3201 3.667-.6319 5.472-.9519 1.806-.3201 3.598-.638 5.402-.954 1.804-.3159 3.614-.6298 5.458-.9313 1.845-.3016 3.714-.5991 5.635-.8842 1.92-.2852 3.761-.5662 6.312-.8596 2.708-.3664 5.443-.4825 8.172-.3467 2.561.2051 4.647.8965 4.647 2.7921v-6.5915c0-1.8976-2.086-2.5808-4.645-2.7941-2.729-.1346-5.464-.0186-8.172.3467-2.551.2934-4.388.5724-6.31.8596-1.923.2872-3.794.5826-5.637.8862-1.842.3036-3.656.6155-5.458.9293-1.802.3139-3.596.6401-5.401.956-1.806.316-3.627.6319-5.473.9478l-5.655.9786c-4.099.7114-8.206 1.3809-12.318 2.0084-2.217.3446-4.511.7078-6.905 1.0668v-6.6858c-18.9502 2.9789-38.0822 4.6397-57.2599 4.9707-.6288 0-1.2514.1244-1.8322.3661-.5809.2417-1.1086.5959-1.5531 1.0425-.4445.4465-.797.9767-1.0374 1.5601s-.3641 1.2086-.3638 1.84v48.0047c2.4515 0 4.8375-.031 7.1746-.082 2.337-.051 4.625-.129 6.8599-.215z" fill="url(#e)"/><path d="m65.004 159.176c2.2369-.086 4.4228-.185 6.5719-.304s4.2553-.26 6.3329-.41 4.0959-.324 6.0979-.509c2.002-.184 3.9755-.367 5.9243-.566 1.9489-.199 3.8815-.398 5.7712-.615 3.7423-.43 7.4808-.892 11.2148-1.387 1.847-.249 3.678-.505 5.516-.772 1.839-.266 3.651-.556 5.481-.841 1.831-.285 3.677-.566 5.516-.857 1.839-.292 3.698-.595 5.557-.905s3.728-.64 5.622-.968l5.748-.993c1.939-.337 3.904-.675 5.892-1.026s4.008-.71 6.063-1.059c2.055-.348 4.147-.687 6.278-1.013s4.073-.615 6.741-.952c2.895-.416 5.821-.573 8.744-.47 2.747.189 4.923.893 4.923 2.815v-6.6c0-1.922-2.176-2.628-4.921-2.814-2.923-.104-5.85.053-8.746.467-2.67.329-4.613.63-6.741.954-2.129.325-4.223.663-6.278 1.012s-4.071.703-6.061 1.058-3.953.694-5.894 1.026-3.855.663-5.748.993c-1.894.33-3.763.656-5.62.968s-3.712.616-5.557.903l-5.516.864c-1.838.287-3.652.57-5.481.837-1.828.266-3.665.527-5.515.771-1.851.244-3.706.484-5.573.716-1.8676.232-3.7429.46-5.6428.671s-3.8222.41-5.7711.615-3.9223.382-5.9243.564c-2.002.183-4.0327.357-6.1.511-2.0674.154-4.1777.294-6.3329.411-2.1553.116-4.337.217-6.5719.303s-4.5189.158-6.8579.205c-2.3391.048-4.7232.086-7.1705.086v6.592c4.6774-.014 9.3542-.108 14.0284-.281z" fill="url(#f)"/><path d="m174.073 152.115c-2.923-.102-5.849.054-8.744.468-2.67.33-4.613.627-6.741.953-2.129.327-4.221.665-6.276 1.012s-4.086.706-6.065 1.058c-1.98.353-3.953.696-5.892 1.026l-5.751.993c-1.893.326-3.762.659-5.621.968-1.859.31-3.712.616-5.557.903s-3.677.579-5.516.86c-1.838.281-3.652.568-5.483.839-1.83.27-3.677.529-5.516.773-3.734.494-7.4727.956-11.215 1.387-1.8999.213-3.8222.41-5.7711.615s-3.9203.384-5.9243.567c-2.0041.182-4.0326.354-6.1.508s-4.1777.292-6.3329.411c-6.8605.377-13.7296.575-20.6003.595v6.605c2.4514 0 4.8416-.027 7.1705-.082 2.3288-.054 4.6148-.123 6.8579-.205 2.2369-.086 4.4228-.184 6.5719-.303s4.2553-.261 6.3329-.411 4.098-.328 6.1-.509c2.002-.18 3.9734-.367 5.9243-.564s3.8815-.398 5.7711-.615c1.8897-.218 3.7773-.439 5.644-.673 1.868-.234 3.723-.466 5.569-.714 1.847-.248 3.677-.503 5.516-.771 1.839-.269 3.651-.558 5.483-.839 1.833-.281 3.677-.571 5.516-.862 1.838-.291 3.695-.591 5.556-.905 1.862-.314 3.733-.64 5.627-.968l5.748-.991 5.89-1.026c1.99-.35 4.01-.712 6.067-1.058 2.057-.347 4.145-.687 6.276-1.014 2.13-.326 4.085-.615 6.741-.949 2.895-.413 5.821-.569 8.744-.468 2.747.182 4.923.886 4.923 2.81v-6.612c0-1.924-2.176-2.621-4.923-2.812z" fill="url(#g)"/><path d="m64.5953 139.414c2.0837-.078 4.0857-.166 6.053-.271s3.8815-.222 5.7609-.355c1.8795-.133 3.7507-.281 5.6097-.441 3.7923-.331 7.5813-.698 11.3666-1.102 1.9611-.209 3.9631-.437 6.0428-.691s4.2447-.523 6.5047-.821c2.259-.297 4.621-.615 7.089-.988v-46.2411c-18.9469 2.9783-38.0755 4.6385-57.2498 4.9687-.6288 0-1.2514.1244-1.8322.3661-.5809.2417-1.1086.5959-1.5531 1.0425-.4445.4465-.797.9767-1.0374 1.5601s-.3641 1.2086-.3638 1.84v41.4097c2.4821 0 4.8416-.029 7.1031-.08 2.2614-.052 4.4207-.121 6.5065-.197z" fill="url(#h)"/><path d="m65.7517 95.4175c-.2349.7365-.3493 1.1057-.5822 1.8463l-1.8876.0698 1.526 1.075-.5843 1.8464c.6129-.474.9173-.7058 1.5281-1.1818.6128.4288.9111.6381 1.526 1.0628-.237-.7181-.3514-1.0771-.5842-1.7972l1.528-1.196c-.7558.0369-1.1358.0472-1.8896.082z" fill="url(#i)"/><path d="m71.2061 118.165-.5822 1.856-1.8917.095 1.528 1.052c-.2328.741-.3493 1.112-.5842 1.846.6128-.478.9193-.72 1.5301-1.206.6129.41.9193.615 1.5321 1.038l-.5863-1.789 1.5322-1.22c-.7579.049-1.1358.071-1.8917.112z" fill="url(#j)"/><path d="m71.7924 129.156-.5863-1.791-.5822 1.859-1.8917.092c.6128.423.9172.636 1.528 1.053-.2328.743-.3493 1.112-.5842 1.846.6128-.482.9193-.724 1.5301-1.21.6129.41.9193.628 1.5321 1.042l-.5863-1.789 1.5322-1.221c-.7579.056-1.1358.087-1.8917.119z" fill="url(#k)"/><path d="m65.7495 113.819c-.2349.741-.3514 1.106-.5822 1.847-.7559.03-1.1338.047-1.8876.069.6128.429.9131.647 1.5239 1.071l-.5801 1.847c.6128-.472.9152-.712 1.526-1.188.6129.427.9132.64 1.5281 1.067-.237-.72-.3535-1.079-.5864-1.802l1.5302-1.194c-.7559.035-1.1359.054-1.8897.082z" fill="url(#l)"/><path d="m65.7475 123.02-.5801 1.847c-.7559.024-1.1359.043-1.8897.069l1.526 1.071-.5822 1.847 1.526-1.192 1.5301 1.064c-.2369-.72-.3534-1.077-.5863-1.799.6129-.474.9173-.718 1.5302-1.196l-1.8897.082z" fill="url(#m)"/><path d="m65.7515 104.618-.5842 1.847-1.8876.069 1.526 1.073-.5822 1.847c.6128-.472.9172-.71 1.528-1.186.6129.427.9112.64 1.5261 1.065-.237-.718-.3535-1.079-.5864-1.799l1.5302-1.196c-.7559.034-1.1338.053-1.8897.084-.2308-.725-.3493-1.081-.5802-1.804z" fill="url(#n)"/><path d="m82.1273 126.59-.5822 1.871c-.7579.065-1.1379.094-1.8937.158.6128.41.9193.615 1.5301 1.003l-.5822 1.873 1.528-1.256 1.5281.991c-.1957-.59-.3904-1.181-.5843-1.772l1.5281-1.268c-.7579.072-1.1358.103-1.8897.17-.2328-.71-.3411-1.06-.5822-1.77z" fill="url(#o)"/><path d="m71.2061 108.964-.5822 1.856c-.7579.041-1.1359.058-1.8917.095l1.528 1.05-.5842 1.857 1.5301-1.209c.6129.411.9193.616 1.5321 1.038-.2328-.714-.3534-1.073-.5863-1.791l1.5322-1.216c-.7579.045-1.1358.072-1.8917.111z" fill="url(#p)"/><path d="m76.6708 122.421-.5863 1.867-1.8876.117 1.5322 1.026-.5843 1.861 1.5301-1.231 1.5301 1.013-.5843-1.781c.6129-.494.9173-.744 1.5281-1.243l-1.8896.144c-.2004-.59-.3966-1.18-.5884-1.773z" fill="url(#q)"/><path d="m77.2611 133.405-.5842-1.781-.5863 1.865c-.7539.053-1.1338.076-1.8917.125l1.5321 1.026-.5843 1.867c.6129-.49.9173-.743 1.5302-1.231.6128.41.9172.615 1.5301 1.015l-.5843-1.78c.6129-.497.9172-.743 1.5281-1.243z" fill="url(#r)"/><path d="m71.2061 99.7627-.5822 1.8463c-.7579.041-1.1359.057-1.8917.096l1.528 1.053c-.2328.743-.3493 1.114-.5842 1.846.6128-.482.9193-.722 1.5301-1.208.6129.41.9193.615 1.5321 1.04l-.5863-1.791c.6129-.484.9173-.732 1.5322-1.221-.7579.048-1.1358.072-1.8917.113z" fill="url(#s)"/><path d="m76.6667 113.222-.5822 1.865c-.7579.049-1.1318.078-1.8897.123l1.5301 1.026-.5863 1.865 1.5322-1.231 1.5301 1.013-.5843-1.782 1.5281-1.231-1.8897.143z" fill="url(#t)"/><path d="m66.3318 134.025-.5843-1.802-.5822 1.847-1.8876.072c.6129.424.9152.644 1.526 1.07l-.5822 1.847 1.526-1.188 1.5301 1.067-.5863-1.799 1.5302-1.196z" fill="url(#u)"/><path d="m54.8264 114.119-.5863 1.832c-.758 0-1.1379 0-1.8938.012.6129.447.9193.673 1.5322 1.116l-.5863 1.832 1.5321-1.147c.6129.446.9193.663 1.5322 1.106l-.5823-1.813 1.5302-1.155c-.7579.012-1.1359.024-1.8938.032z" fill="url(#v)"/><path d="m54.8264 104.916-.5863 1.83c-.758 0-1.1379.01-1.8938.012l1.5322 1.116-.5843 1.832 1.5322-1.142 1.5301 1.101-.5823-1.815c.6129-.46.9173-.688 1.5302-1.153-.7559.014-1.1359.02-1.8938.03z" fill="url(#w)"/><path d="m55.4024 134.339-.5863-1.816-.5863 1.828c-.7579.01-1.1358.012-1.8917.016l1.5322 1.114-.5843 1.834 1.5301-1.144 1.5322 1.105c-.1957-.606-.3904-1.213-.5843-1.819l1.5301-1.153c-.7497.018-1.1256.02-1.8917.035z" fill="url(#x)"/><path d="m75.1387 108.9 1.5281-1.231c.6128.41.9213.615 1.5321 1.015l-.5822-1.782 1.5281-1.246c-.7579.062-1.1338.091-1.8897.146l-.5863-1.779-.5842 1.861c-.7538.053-1.1338.076-1.8917.127l1.5321 1.026z" fill="url(#y)"/><path d="m75.1387 99.6969c.6129-.4903.9193-.7365 1.5301-1.2309.6129.4103.9193.6155 1.5301 1.0134l-.5822-1.7806c.6129-.4945.9173-.7447 1.5281-1.2433-.7579.0616-1.1338.0883-1.8897.1437l-.5863-1.7828-.5842 1.8648c-.7538.0554-1.1338.08-1.8917.1272l1.5321 1.0258z" fill="url(#z)"/><path d="m54.8264 123.32-.5884 1.832h-1.8917l1.5322 1.122-.5863 1.828 1.5321-1.145 1.5322 1.104-.5823-1.816 1.5281-1.153c-.7558.015-1.1338.021-1.8917.031z" fill="url(#A)"/><path d="m60.2929 100.198-.5842 1.836c-.7559.018-1.1338.03-1.8938.047l1.5322 1.093-.5843 1.847 1.5301-1.17 1.5322 1.083-.5863-1.807 1.5301-1.178-1.8876.06c-.237-.722-.3534-1.083-.5884-1.811z" fill="url(#B)"/><path d="m60.2929 109.405-.5842 1.846-1.8938.045c.6129.439.9193.654 1.5322 1.089-.2349.735-.3514 1.106-.5843 1.847.6129-.468.9173-.698 1.5281-1.168.6129.435.9213.649 1.5342 1.079l-.5863-1.805 1.5301-1.175-1.8917.059c-.2349-.734-.3493-1.093-.5843-1.817z" fill="url(#C)"/><path d="m60.8753 129.614-.5842-1.807-.5843 1.846c-.7579.021-1.1379.029-1.8958.045l1.5342 1.092-.5863 1.846 1.5301-1.167 1.5342 1.083-.5863-1.808 1.5301-1.177z" fill="url(#D)"/><path d="m60.2909 118.605-.5843 1.847c-.7558.018-1.1358.031-1.8917.043l1.5302 1.093c-.235.735-.3514 1.106-.5843 1.847l1.5301-1.17 1.5321 1.084c-.2328-.723-.3493-1.084-.5863-1.806.6129-.468.9214-.708 1.5322-1.179-.7579.024-1.1358.041-1.8917.063z" fill="url(#E)"/><path d="m54.8264 95.7129-.5843 1.832c-.7579 0-1.1399.0123-1.8958.0164.6129.4472.9213.6729 1.5322 1.1139l-.5843 1.8278 1.5322-1.1385c.6128.4432.9192.6605 1.5321 1.0995l-.5822-1.8134 1.5321-1.155c-.7579.0164-1.1399.0247-1.8978.0349z" fill="url(#F)"/><path d="m82.1272 117.391-.5822 1.871c-.7579.066-1.1338.094-1.8917.156.6129.41.9173.603 1.5281 1.001l-.5822 1.875c.6128-.5.9172-.755 1.528-1.257l1.5281.99-.5843-1.77 1.5281-1.268c-.7579.072-1.1358.103-1.8896.17-.2329-.703-.3412-1.058-.5823-1.768z" fill="url(#G)"/><path d="m103.957 115.04-.586 1.898-1.894.24 1.53.935-.586 1.898 1.534-1.321c.613.369.92.558 1.532.929l-.586-1.748 1.534-1.329-1.893.248z" fill="url(#H)"/><path d="m103.957 105.839c-.235.761-.353 1.137-.586 1.898-.758.096-1.138.145-1.894.236.613.379.92.564 1.532.939l-.584 1.896c.613-.529.919-.79 1.532-1.321l1.532.929-.586-1.746 1.534-1.331c-.755.098-1.137.152-1.893.248z" fill="url(#I)"/><path d="m104.54 125.989-.585-1.748-.586 1.9c-.756.092-1.136.145-1.892.236l1.53.937-.586 1.898 1.532-1.321c.613.371.922.556 1.532.929l-.584-1.746 1.532-1.331z" fill="url(#J)"/><path d="m98.507 101.913c-.2308.757-.3452 1.136-.5801 1.895l-1.8836.218 1.524.949-.5802 1.894c.6129-.521.9112-.784 1.5199-1.307l1.526.942-.5842-1.752 1.5322-1.315-1.8918.232c-.2023-.583-.3964-1.168-.5822-1.756z" fill="url(#K)"/><path d="m103.959 96.6362-.588 1.8977c-.758.0964-1.136.1436-1.894.2359l1.534.9396-.586 1.8996c.613-.527.919-.798 1.532-1.325l1.535.933c-.195-.584-.39-1.167-.587-1.7497.613-.5272.922-.8001 1.534-1.3314l-1.895.2482z" fill="url(#L)"/><path d="m98.507 92.7136c-.2308.755-.3452 1.1366-.5801 1.8936l-1.8836.2174c.6129.3775.9173.5703 1.524.9499l-.5802 1.8914c.6129-.5211.9112-.7836 1.5199-1.3068l1.528.9417-.5842-1.75c.6132-.5272.9152-.7898 1.5302-1.315l-1.8918.2318c-.2014-.5821-.3955-1.1669-.5822-1.754z" fill="url(#M)"/><path d="m109.424 109.712-.586 1.906c-.756.103-1.134.156-1.89.255l1.53.921-.586 1.904 1.53-1.338 1.528.913c-.235-.696-.349-1.044-.582-1.742.613-.537.915-.804 1.524-1.346-.754.111-1.13.16-1.884.269z" fill="url(#N)"/><path d="m109.428 100.511-.586 1.902c-.756.107-1.134.156-1.892.258.613.372.917.55 1.528.917l-.584 1.908 1.532-1.341 1.526.917c-.235-.698-.349-1.047-.582-1.746.613-.538.915-.804 1.524-1.344l-1.884.269z" fill="url(#O)"/><path d="m110 129.858-.582-1.742-.586 1.904c-.754.105-1.134.156-1.888.256l1.528.922-.586 1.907c.613-.533.921-.806 1.532-1.343l1.526.917-.584-1.744 1.526-1.346c-.754.111-1.122.164-1.886.269z" fill="url(#P)"/><path d="m109.43 91.3064-.586 1.9058c-.756.1047-1.136.158-1.894.2585l1.534.9191-.588 1.9017 1.534-1.3355c.613.3652.915.5498 1.526.9109-.233-.6955-.351-1.0442-.582-1.7418.613-.5374.913-.8041 1.522-1.3457-.752.1108-1.128.1661-1.882.2708z" fill="url(#Q)"/><path d="m109.422 118.915-.586 1.904-1.89.254 1.528.924-.584 1.901 1.53-1.335 1.526.911-.582-1.742c.613-.538.915-.804 1.524-1.346-.752.113-1.13.164-1.886.269z" fill="url(#R)"/><path d="m98.5069 111.116c-.2309.757-.3453 1.136-.5802 1.893l-1.8856.22c.6129.379.9173.574 1.5261.952l-.5802 1.891 1.5199-1.309 1.5281.944-.5843-1.752c.6133-.525.9153-.79 1.5303-1.315-.758.094-1.1401.139-1.8919.23z" fill="url(#S)"/><path d="m82.1273 98.9851-.5822 1.8709c-.7579.066-1.1379.099-1.8937.158l1.5301 1.005-.5822 1.873c.6128-.5.9172-.757 1.528-1.259.6129.41.9152.597 1.5281.993l-.5843-1.771c.6129-.505.9173-.765 1.5281-1.27l-1.8897.173c-.2328-.712-.3411-1.0631-.5822-1.7729z" fill="url(#T)"/><path d="m87.5858 121.486-.5843 1.881c-.7558.072-1.1358.109-1.8937.176l1.5321.983-.5863 1.881 1.5322-1.274c.6129.394.9193.587 1.5321.979l-.5863-1.764c.6129-.509.9173-.768 1.5301-1.28l-1.8896.188c-.2349-.697-.3534-1.06-.5863-1.77z" fill="url(#U)"/><path d="m98.5069 120.316-.5802 1.894c-.7538.088-1.1297.135-1.8856.219.6129.384.9152.575 1.5261.952l-.5823 1.89c.6129-.521.9132-.782 1.522-1.305l1.5261.942-.5823-1.75c.6133-.528.9153-.792 1.5303-1.317-.758.094-1.1401.137-1.8919.229-.2023-.581-.3964-1.166-.5822-1.754z" fill="url(#V)"/><path d="m87.5858 103.084-.5843 1.879-1.8937.179 1.5321.982-.5863 1.882c.6129-.511.9214-.764 1.5322-1.274.6129.391.9193.584 1.5321.978-.2349-.708-.3534-1.061-.5842-1.768.6128-.511.9172-.763 1.5301-1.278l-1.8917.186z" fill="url(#W)"/><path d="m87.5858 130.689-.5843 1.879c-.7558.074-1.1358.109-1.8937.178l1.5321.983-.5863 1.883 1.5322-1.276 1.5321.981-.5863-1.769c.6129-.508.9173-.765 1.5301-1.278l-1.8896.185z" fill="url(#X)"/><path d="m82.1272 108.198-.5822 1.873c-.7579.064-1.1338.097-1.8917.156.6129.41.9173.616 1.5281 1.003l-.5822 1.873 1.528-1.257c.6129.398.9152.597 1.5281.991l-.5843-1.771 1.5281-1.268c-.7579.072-1.1358.103-1.8896.173z" fill="url(#Y)"/><path d="m87.5878 93.8809-.5863 1.8812c-.7558.0738-1.1358.1067-1.8937.1764l1.5301.9847-.5843 1.8771 1.5342-1.2719c.6129.3877.9152.5888 1.5301.9786l-.5842-1.7664c.6128-.5087.9172-.7672 1.5321-1.2801-.7579.0759-1.1358.1169-1.8937.1887z" fill="url(#Z)"/><path d="m87.5858 112.285-.5843 1.879-1.8937.189 1.5321.985-.5842 1.881 1.5301-1.276 1.5321.978-.5842-1.766 1.5301-1.28c-.7559.078-1.1338.115-1.8917.189-.2329-.721-.3514-1.069-.5863-1.779z" fill="url(#aa)"/><path d="m99.079 131.276c-.2329-.7-.3473-1.055-.5823-1.756l-.5801 1.893c-.7538.092-1.1297.131-1.8856.218l1.524.951-.5802 1.894c.6129-.521.9132-.788 1.5219-1.311.6129.38.9173.57 1.5283.946l-.5844-1.752 1.5304-1.317z" fill="url(#ab)"/><path d="m93.6327 127.294-.5842-1.763-.5863 1.89-1.8897.205 1.5301.97-.5842 1.886 1.5321-1.291 1.5281.965-.5863-1.761c.6128-.517.9193-.779 1.5301-1.3-.7559.076-1.1338.119-1.8897.199z" fill="url(#ac)"/><path d="m93.0504 97.9285-.5842 1.8853c-.7559.082-1.1359.1149-1.8917.2052l1.5301.972-.5843 1.886 1.5322-1.291 1.528.962-.5863-1.758 1.5301-1.2983-1.8896.2052z" fill="url(#ad)"/><path d="m93.0485 116.333-.5843 1.885-1.8917.205 1.5322.968-.5843 1.886 1.5301-1.287 1.5301.958-.5863-1.756 1.5301-1.298c-.7558.082-1.1358.127-1.8896.205z" fill="url(#ae)"/><path d="m93.0505 107.13c-.2329.757-.3514 1.13-.5863 1.887-.7538.082-1.1358.117-1.8917.195l1.5322.968-.5843 1.886 1.5301-1.287 1.5301.96-.5863-1.758c.6129-.517.9193-.779 1.5301-1.298-.7538.086-1.1338.125-1.8896.205z" fill="url(#af)"/></svg>