<svg fill="none" height="2750" viewBox="0 0 2818 2750" width="2818" xmlns="http://www.w3.org/2000/svg" xmlns:xlink="http://www.w3.org/1999/xlink"><filter id="a" color-interpolation-filters="sRGB" filterUnits="userSpaceOnUse" height="2049.25" width="1889" x="407" y="413"><feFlood flood-opacity="0" result="BackgroundImageFix"/><feColorMatrix in="SourceAlpha" result="hardAlpha" type="matrix" values="0 0 0 0 0 0 0 0 0 0 0 0 0 0 0 0 0 0 127 0"/><feOffset dy="4"/><feGaussianBlur stdDeviation="2"/><feComposite in2="hardAlpha" operator="out"/><feColorMatrix type="matrix" values="0 0 0 0 0 0 0 0 0 0 0 0 0 0 0 0 0 0 0.25 0"/><feBlend in2="BackgroundImageFix" mode="normal" result="effect1_dropShadow_3924_21215"/><feBlend in="SourceGraphic" in2="effect1_dropShadow_3924_21215" mode="normal" result="shape"/><feColorMatrix in="SourceAlpha" result="hardAlpha" type="matrix" values="0 0 0 0 0 0 0 0 0 0 0 0 0 0 0 0 0 0 127 0"/><feMorphology in="SourceAlpha" operator="erode" radius="5" result="effect2_innerShadow_3924_21215"/><feOffset dx="20" dy="20"/><feGaussianBlur stdDeviation="2.5"/><feComposite in2="hardAlpha" k2="-1" k3="1" operator="arithmetic"/><feColorMatrix type="matrix" values="0 0 0 0 1 0 0 0 0 1 0 0 0 0 1 0 0 0 1 0"/><feBlend in2="shape" mode="normal" result="effect2_innerShadow_3924_21215"/></filter><linearGradient id="b" gradientUnits="userSpaceOnUse" x1="411" x2="2286" y1="1432.63" y2="1432.63"><stop offset="0" stop-color="#5433ff"/><stop offset=".5" stop-color="#20bdff"/><stop offset="1" stop-color="#a5fecb"/></linearGradient><ellipse cx="1409" cy="1375" fill="#000" rx="1409" ry="1375"/><g fill="url(#b)" filter="url(#a)"><path d="m1009.26 2313.7c-9.528-8.42-15.495-20.15-16.685-32.81l-94.739-1007.88h337.164v1129.15c0 43.06-50.81 65.98-83.09 37.48z"/><path d="m1235 1253.01v-140.7l-355.153-30.68 16.11 171.38z"/><path d="m1235 1092.24-357.055-30.85-55.807-593.711c-2.757-29.333 20.318-54.679 49.78-54.679h313.082c27.61 0 50 22.386 50 50z"/><path d="m1893.99 1253h257.01c13.81 0 25-11.19 25-25v-147.44c0-14.76-12.73-26.31-27.43-24.88l-238.66 23.31z"/><path d="m1889.64 1080.97-355.64 34.72v137.31h339.9z"/><path d="m1514 1117.65v135.35h-947c-13.807 0-25-11.19-25-25v-147.77c0-14.64 12.536-26.15 27.13-24.91l841.64 71.99c1.52.13 3.04.12 4.56-.03z"/><path d="m1619.6 2436.24c-31.4 31.83-85.6 9.59-85.6-35.12v-1551.113h377.25l-131.23 1407.523c-1.08 11.49-6.09 22.25-14.19 30.47z"/><path d="m1913.12 830.007h-379.12v-215.575l401.55-25.05z"/><path d="m1534 463.007v131.386l403.43-25.167 9.48-101.577c2.73-29.32-20.34-54.642-49.79-54.642h-313.12c-27.61 0-50 22.386-50 50z"/><path d="m1235 830.008v-214.948l-401.058-19.737 21.943 234.685z"/><path d="m1255 830.008h1011c11.05 0 20-8.954 20-20v-222.189c0-11.545-9.75-20.692-21.27-19.96l-868.23 55.149-141.5-6.964z"/><path d="m812.114 594.248 23.956 235.76h-405.07c-11.046 0-20-8.954-20-20v-214.492c0-11.431 9.565-20.537 20.983-19.975z"/></g></svg>