<svg enable-background="new 0 0 1000 1000" viewBox="0 0 1000 1000" xmlns="http://www.w3.org/2000/svg"><path d="m844.7 155.3c-92.1-92.1-214.5-142.8-344.7-142.8-268.8 0-487.5 218.7-487.5 487.5s218.7 487.5 487.5 487.5c130.2 0 252.7-50.7 344.7-142.8 92.1-92.1 142.8-214.5 142.8-344.7s-50.6-252.6-142.8-344.7z" fill="#fcfcfc"/><g fill="#3054bc"><path d="m750.1 375.7h-289.6c-2.2 0-4.2-1.2-5.3-3.3l-57.3-105.4c-.3-.6-.5-1.3-.4-2 .5-3.2 3-5.6 6-5.6h403.7c3 0 5.6 2.4 6 5.6.1.7-.1 1.4-.4 2l-57.4 105.4c-1.1 2-3.1 3.3-5.3 3.3z"/><path d="m308.8 265.7 147 249.5c1.1 1.9 1.1 4.2.1 6.1l-54.5 98.7c-.3.6-.8 1-1.3 1.3-2.7 1.1-6 0-7.5-2.6l-205-347.8c-1.5-2.6-.9-5.9 1.4-7.8.5-.4 1.1-.6 1.8-.6l112.8.2c2.1 0 4.1 1.2 5.2 3z"/><path d="m444.6 704 142.7-252c1.1-1.9 3-3.1 5.2-3.1l112.7-2.1c.6 0 1.3.1 1.8.5 2.3 1.8 3 5.2 1.5 7.8l-198.9 351.3c-1.5 2.6-4.7 3.7-7.5 2.7-.6-.2-1.1-.7-1.4-1.3l-56.2-97.8c-1-1.8-1-4.1.1-6z"/></g></svg>