<svg fill="none" height="200" viewBox="0 0 200 200" width="200" xmlns="http://www.w3.org/2000/svg"><path d="m100 184c46.392 0 84-37.608 84-84s-37.608-84-84-84-84 37.608-84 84 37.608 84 84 84z" fill="#3ccd64"/><path d="m178.59 99.9931c0 37.6559-26.491 69.1269-61.857 76.7939l-.513-2.359c-5.328 1.149-10.763 1.729-16.214 1.729-38.1194 0-70.5877-28.453-75.5228-66.185-.4287-3.309-.6432-6.642-.642-9.9789h-2.4315c0-43.3951 35.1838-78.5834 78.5903-78.5834v2.4124c42.011 0 76.17 34.1677 76.17 76.1635z" fill="#191919"/><g fill="#3ccd64"><path d="m140.409 159.957-2.692-4.023c30.286-20.426 38.801-61.3658 19.183-92.2418l4.07-2.6116c21.032 33.0978 11.908 76.9824-20.561 98.8764z"/><path d="m40.169 140.422c-5.5824-8.199-9.4038-17.453-11.2257-27.184-1.8219-9.732-1.6052-19.7314.6366-29.3759 2.2419-9.6442 6.4606-18.7261 12.3932-26.6792 5.9325-7.9528 13.4513-14.606 22.0875-19.5442l2.4296 4.1893c-20.9088 11.9786-33.8976 34.2959-33.8976 58.244-.0246 13.421 4.0192 26.539 11.6052 37.645z"/><path d="m72.4579 156.651c-31.4032-15.335-44.345-53.07-28.9049-84.2751 1.1583-2.3405 2.4618-4.6072 3.9029-6.7873l4.0633 2.655c-6.2824 9.475-9.6216 20.5768-9.6019 31.9234 0 22.314 12.5258 42.291 32.6876 52.153z"/><path d="m160.91 116.079-4.668-1.229c1.259-4.831 1.895-9.805 1.893-14.798 0-32.0772-26.012-58.1734-57.985-58.1734v-4.841c34.688.0019 62.812 28.2138 62.812 63.0144.002 5.408-.688 10.794-2.052 16.027z"/></g><path d="m147.445 76.9657c-11.455 17.4705-21.656 12.1766-33.839 9.8101-12.184-2.3661-18.9149 10.5483-18.9149 10.5483s.0135-.0436.021-.0643c-.2314.4231-.4571.8499-.6732 1.2826-.3904.7589-.7432 1.5546-1.0807 2.3676.0379-.884.1728-1.7626.4021-2.6182.2215-.8616.51-1.7049.8626-2.5218.4387-1.0176.9707-1.9929 1.5889-2.9125 1.8961-12.2162-8.1887-16.9163-20.9243-24.271-14.1838-8.1897-7.8362-17.1231-7.8362-17.1231s-23.9823 24.9331-7.9801 48.5078c16.0021 23.5748 36.2438 30.2408 15.1434 65.7278 0 0 14.3356 8.33 37.4004 4.256-6.029-25.772-4.507-35.483 5.041-44.235l-1.041.38c-.379.127-.758.22-1.137.322l-.569.15c-.189.046-.379.072-.58.108-.379.069-.774.133-1.161.19-.386.057-.785.057-1.173.08-.19 0-.391.019-.586.023s-.392-.015-.588-.031c-.39-.024-.779-.053-1.164-.1.379-.118.759-.215 1.123-.31.189-.049.369-.091.553-.134l.548-.169c.362-.108.724-.211 1.086-.311.363-.101.712-.249 1.066-.365.178-.058.357-.11.531-.176l.525-.201c.345-.141.702-.249 1.043-.399l1.032-.43c.346-.137.678-.308 1.02-.46 1.353-.622 2.689-1.298 4.008-2.026l.948-.528c4.531-2.277 8.532-4.863 12.212-8.159 22.625-20.2254 13.093-36.2083 13.093-36.2083z" fill="#fff"/></svg>