<svg fill="none" height="200" viewBox="0 0 200 200" width="200" xmlns="http://www.w3.org/2000/svg" xmlns:xlink="http://www.w3.org/1999/xlink"><mask id="a" height="85" maskUnits="userSpaceOnUse" width="110" x="45" y="58"><path d="m154.609 58h-109.2176v84.141h109.2176z" fill="#fff"/></mask><g mask="url(#a)"><path d="m45.4933 68.582 18.181-10.5034 54.4717 31.4737.001.0599c-1.424.7318-2.781 1.5929-4.178 2.3746l-13.958 8.0632c-.1203-.042-.2395-.0876-.3573-.1364l-51.869-29.9717c-.7684-.4212-1.5056-.9014-2.2964-1.2814zm72.6657-.0101 18.17-10.4933 18.165 10.4946.016.0684-18.188 10.4661-14.013-8.0864c-1.373-.8338-2.812-1.5605-4.15-2.4494z" fill="#2b6def"/><path d="m118.146 89.5524.013-20.9804c1.338.8889 2.777 1.6154 4.15 2.4494l14.013 8.0863.01 59.2923c-.016 1.222.036 2.446-.04 3.665l-18.136-10.471-.006-20.982-.003-20.9997zm-72.6576-20.892c.7908.3802 1.5281.8601 2.2965 1.2816l51.8689 29.9715c.1178.049.2371.0945.3572.1355-.0794.608-.0371 1.221-.0447 1.832l-.0022 19.21-18.11-10.487c-.9216-.625-1.9242-1.121-2.8744-1.7l-14.6203-8.448c-.2144-.127-.4371-.236-.6664-.332-.0211.169-.0365.339-.046.509l.0062 36.146c.0212 1.761-.0611 3.529.0559 5.286l-.0236.076h-.0499c-.0047-.02-.0161-.058-.0211-.078l-18.1323-10.482z" fill="#2891f9"/><path d="m136.322 79.1076 18.188-10.466.008 62.9384-18.132 10.481-.02.08h-.049l-.025-.076c.076-1.219.024-2.443.04-3.665zm-22.353 12.8791c1.397-.7816 2.754-1.643 4.178-2.3746l.003 20.9999-13.678 7.902-4.5083 2.577.0026-19.211c.0075-.61-.0348-1.224.0447-1.831zm-50.2761 8.1373c.2293.096.452.205.6664.332l14.6203 8.447c.9503.58 1.9528 1.076 2.8744 1.701l-.0113 20.992-18.1337 10.469c-.117-1.758-.0347-3.525-.0558-5.286l-.0063-36.146c.0095-.17.0249-.34.046-.509z" fill="#2bbdf7"/></g></svg>