<svg fill="none" height="200" viewBox="0 0 200 200" width="200" xmlns="http://www.w3.org/2000/svg" xmlns:xlink="http://www.w3.org/1999/xlink"><mask id="a" height="168" maskUnits="userSpaceOnUse" width="168" x="16" y="16"><path d="m100 184c46.392 0 84-37.608 84-84 0-46.3919-37.608-84-84-84-46.3919 0-84 37.6081-84 84 0 46.392 37.6081 84 84 84z" fill="#d9d9d9"/></mask><g mask="url(#a)"><path d="m195.573 4.42651h-191.14624v191.14649h191.14624z" fill="#00a3ff"/><g fill="#fff"><path d="m60.7951 93.2178-1.07 1.6415c-12.0683 18.5127-9.3729 42.7587 6.4803 58.2917 9.3263 9.138 21.5496 13.708 33.7733 13.709 0 0 0 0-39.1836-73.6422z"/><path d="m99.9756 115.599-39.1836-22.3812c39.1836 73.6422 39.1836 73.6422 39.1836 73.6422 0-16.038 0-34.417 0-51.261z" opacity=".6"/><path d="m139.205 93.2178 1.07 1.6415c12.068 18.5127 9.372 42.7587-6.481 58.2917-9.326 9.138-21.549 13.708-33.773 13.709 0 0 0 0 39.184-73.6422z" opacity=".6"/><path d="m100.017 115.599 39.183-22.3812c-39.183 73.6422-39.183 73.6422-39.183 73.6422 0-16.038 0-34.417 0-51.261z" opacity=".2"/><path d="m100.023 65.5911v38.6019l33.752-19.2883z" opacity=".2"/><path d="m100.029 65.5911-33.777 19.3132 33.777 19.2887z" opacity=".6"/><path d="m100.029 33.1265-33.777 51.7903 33.777-19.3675z"/><path d="m100.023 65.5438 33.778 19.3682-33.778-51.8161z" opacity=".6"/></g></g></svg>