<svg fill="none" height="200" viewBox="0 0 200 200" width="200" xmlns="http://www.w3.org/2000/svg" xmlns:xlink="http://www.w3.org/1999/xlink"><linearGradient id="a" gradientUnits="userSpaceOnUse" x1="-203.958" x2="208.377" y1="543.865" y2="305.786"><stop offset=".72" stop-color="#1cafed"/><stop offset="1" stop-color="#6fcf97"/></linearGradient><path clip-rule="evenodd" d="m138.876 156.736c-16.819 2.665-34.948-.655-50.7615-10.659-33.5058-21.143-44.2521-64.3464-23.9389-96.4543 1.3105-2.1842 2.7958-4.1936 4.3684-6.1157-14.5468 30.142-3.451 67.841 26.8221 86.931 27.6519 17.474 62.2939 13.936 84.1359-6.596 5.489-18.304 4.494-37.9413-2.817-55.5968s-20.49-32.2474-37.313-41.3123c-16.822-9.0648-36.257-12.0472-55.0238-8.4436-18.7665 3.6035-35.7148 13.5723-47.9834 28.2232-12.2686 14.651-19.1059 33.0865-19.3576 52.1942-.2517 19.1073 6.0976 37.7173 17.976 52.6863s28.5582 25.381 47.2233 29.477c18.6655 4.097 38.1725 1.627 55.2275-6.991-11.47 3.397-23.518 4.39-35.39 2.916-11.8713-1.473-23.3111-5.38-33.6032-11.478-10.2921-6.097-19.215-14.253-26.2103-23.957-6.9954-9.704-11.9125-20.748-14.4439-32.439 8.724 20.785 25.1807 37.369 45.8983 46.252 20.7176 8.884 44.0761 9.373 65.1471 1.363z" fill="url(#a)" fill-rule="evenodd"/></svg>