<svg fill="none" height="200" viewBox="0 0 200 200" width="200" xmlns="http://www.w3.org/2000/svg" xmlns:xlink="http://www.w3.org/1999/xlink"><mask id="a" height="168" maskUnits="userSpaceOnUse" width="168" x="16" y="16"><path d="m184 16h-168v168h168z" fill="#fff"/></mask><g mask="url(#a)"><path d="m99.8359 184c46.4821 0 84.1641-37.682 84.1641-84.1641 0-46.4825-37.682-84.164-84.1641-84.164-46.4825 0-84.164 37.6815-84.164 84.164 0 46.4821 37.6815 84.1641 84.164 84.1641z" fill="#fff"/><path d="m129.259 59.4648h-56.1091v12.3165h56.1091z" fill="#e50913"/><path d="m130.333 103.082c0 4.341-.997 8.326-2.989 11.956-1.993 3.558-5.053 6.44-9.18 8.646-4.128 2.206-9.251 3.309-15.372 3.309h-11.3143v26.9h-18.2536v-74.935h29.5679c5.978 0 11.031 1.032 15.158 3.0955 4.128 2.0639 7.223 4.9104 9.287 8.5398 2.064 3.6291 3.096 7.7923 3.096 12.4887zm-28.928 9.394c3.487 0 6.084-.818 7.792-2.455s2.562-3.95 2.562-6.939c0-2.988-.854-5.3014-2.562-6.9381s-4.305-2.455-7.792-2.455h-9.9273v18.7871z" fill="#000"/></g></svg>