<svg width="24" height="24" viewBox="0 0 24 24" fill="#fff" xmlns="http://www.w3.org/2000/svg">
<g id="Icon/Add">
<g id="Paper Plus">
<path id="Paper Plus_2" fill-rule="evenodd" clip-rule="evenodd" d="M15.8354 13.1586H13.1491V15.8491C13.1491 16.4868 12.6366 17 12 17C11.3634 17 10.8354 16.4868 10.8354 15.8491V13.1586H8.1646C7.52795 13.1586 7 12.6454 7 12.0078C7 11.3546 7.52795 10.8414 8.1646 10.8414H10.8354V8.15086C10.8354 7.51322 11.3634 7 12 7C12.6366 7 13.1491 7.51322 13.1491 8.15086V10.8414H15.8354C16.472 10.8414 17 11.3546 17 12.0078C17 12.6454 16.472 13.1586 15.8354 13.1586Z"/>
</g>
</g>
</svg>
