<svg xmlns="http://www.w3.org/2000/svg" xmlns:xlink="http://www.w3.org/1999/xlink" width="100%" height="100%" version="1.1" viewBox="0 0 24 24" xml:space="preserve" style="fill-rule:evenodd;clip-rule:evenodd;stroke-linejoin:round;stroke-miterlimit:2"><g><path d="M38.901,22.994L33.955,22.994C34.473,22.33 34.489,21.374 33.943,20.689C33.306,19.894 32.148,19.768 31.358,20.409L30.115,21.418C30.054,21.467 29.967,21.467 29.906,21.421L28.625,20.409C27.825,19.777 26.67,19.918 26.044,20.721C25.512,21.402 25.534,22.34 26.038,22.994L21.099,22.994C20.493,22.994 20,23.488 20,24.1L20,26.053C20,26.664 20.493,27.158 21.099,27.158L38.9,27.158C39.508,27.158 39.999,26.663 39.999,26.053L39.999,24.1C40,23.488 39.508,22.994 38.901,22.994Z" transform="matrix(1,0,0,1,-17.9994,-18.0002)" style="fill:#8e83aa;fill-rule:nonzero"/></g><g><path d="M21.461,29.886L21.461,38.422C21.461,39.293 22.164,40 23.031,40L29.408,40L29.408,28.308L23.031,28.308C22.164,28.308 21.461,29.014 21.461,29.886Z" transform="matrix(1,0,0,1,-17.9994,-18.0002)" style="fill:#8e83aa;fill-rule:nonzero"/></g><g><path d="M36.97,28.308L30.594,28.308L30.594,39.999L36.97,39.999C37.836,39.999 38.54,39.293 38.54,38.421L38.54,29.885C38.539,29.014 37.836,28.308 36.97,28.308Z" transform="matrix(1,0,0,1,-17.9994,-18.0002)" style="fill:#8e83aa;fill-rule:nonzero"/></g></svg>