<svg width="24" height="24" viewBox="0 0 24 24" fill="#8E83AA" xmlns="http://www.w3.org/2000/svg">
    <g id="Icon/Airdrop">
        <g id="Group">
            <path id="Vector" d="M20.9008 4.99418H15.9545C16.473 4.3303 16.4892 3.37441 15.9433 2.68932C15.3056 1.89441 14.1481 1.76837 13.3579 2.40854L12.1148 3.41809C12.054 3.46676 11.9671 3.46676 11.9063 3.42058L10.6248 2.40854C9.82458 1.77711 8.66956 1.91812 8.04429 2.72052C7.51207 3.40187 7.5344 4.34028 8.03809 4.99418H3.09919C2.49253 4.99418 2 5.48834 2 6.09981V8.05277C2 8.66423 2.49253 9.1584 3.09919 9.1584H20.8996C21.5075 9.1584 21.9988 8.66299 21.9988 8.05277V6.09981C22 5.48834 21.5075 4.99418 20.9008 4.99418Z"/>
            <g id="Group_2">
            <path id="Vector_2" d="M3.46094 11.8872V20.4228C3.46094 21.2938 4.16313 22.0014 5.03032 22.0014H11.4071V10.3086H5.03032C4.16313 10.3086 3.46094 11.0149 3.46094 11.8872Z"/>
            <path id="Vector_3" d="M18.9695 10.3086H12.5928V22.0001H18.9695C19.8355 22.0001 20.5389 21.2938 20.5389 20.4215V11.8859C20.5377 11.0149 19.8355 10.3086 18.9695 10.3086Z"/>
            </g>
        </g>
    </g>
</svg>
