<svg xmlns="http://www.w3.org/2000/svg" xmlns:xlink="http://www.w3.org/1999/xlink" width="100%" height="100%" version="1.1" viewBox="0 0 24 24" xml:space="preserve" style="fill-rule:evenodd;clip-rule:evenodd;stroke-linejoin:round;stroke-miterlimit:2"><g><path d="M42.901,25.994L37.955,25.994C38.473,25.33 38.489,24.374 37.943,23.689C37.306,22.894 36.148,22.768 35.358,23.409L34.115,24.418C34.054,24.467 33.967,24.467 33.906,24.421L32.625,23.409C31.825,22.777 30.67,22.918 30.044,23.721C29.512,24.402 29.534,25.34 30.038,25.994L25.099,25.994C24.493,25.994 24,26.488 24,27.1L24,29.053C24,29.664 24.493,30.158 25.099,30.158L42.9,30.158C43.508,30.158 43.999,29.663 43.999,29.053L43.999,27.1C44,26.488 43.508,25.994 42.901,25.994Z" transform="matrix(1,0,0,1,-21.9994,-21.0002)" style="fill:url(#_Linear1);fill-rule:nonzero"/></g><g><path d="M25.461,32.886L25.461,41.422C25.461,42.293 26.164,43 27.031,43L33.408,43L33.408,31.308L27.031,31.308C26.164,31.308 25.461,32.014 25.461,32.886Z" transform="matrix(1,0,0,1,-21.9994,-21.0002)" style="fill:url(#_Linear2);fill-rule:nonzero"/></g><g><path d="M40.97,31.308L34.594,31.308L34.594,42.999L40.97,42.999C41.836,42.999 42.54,42.293 42.54,41.421L42.54,32.885C42.539,32.014 41.836,31.308 40.97,31.308Z" transform="matrix(1,0,0,1,-21.9994,-21.0002)" style="fill:url(#_Linear3);fill-rule:nonzero"/></g><defs><linearGradient id="_Linear1" x1="0" x2="1" y1="0" y2="0" gradientTransform="matrix(4.38326e-16,7.1584,-7.1584,4.38326e-16,33.9994,23)" gradientUnits="userSpaceOnUse"><stop offset="0" style="stop-color:#ff7a45;stop-opacity:1"/><stop offset="1" style="stop-color:#ff00a7;stop-opacity:1"/></linearGradient><linearGradient id="_Linear2" x1="0" x2="1" y1="0" y2="0" gradientTransform="matrix(7.15978e-16,11.6928,-11.6928,7.15978e-16,29.4345,31.3076)" gradientUnits="userSpaceOnUse"><stop offset="0" style="stop-color:#ff7a45;stop-opacity:1"/><stop offset="1" style="stop-color:#ff00a7;stop-opacity:1"/></linearGradient><linearGradient id="_Linear3" x1="0" x2="1" y1="0" y2="0" gradientTransform="matrix(7.15898e-16,11.6915,-11.6915,7.15898e-16,38.5667,31.3076)" gradientUnits="userSpaceOnUse"><stop offset="0" style="stop-color:#ff7a45;stop-opacity:1"/><stop offset="1" style="stop-color:#ff00a7;stop-opacity:1"/></linearGradient></defs></svg>