<svg width="24" height="25" viewBox="0 0 24 25" fill="none" xmlns="http://www.w3.org/2000/svg">
<path fill-rule="evenodd" clip-rule="evenodd" d="M17.7689 8.89352H22C22 5.49631 19.9644 3.51172 16.5156 3.51172H7.48444C4.03556 3.51172 2 5.49631 2 8.85019V16.1733C2 19.5271 4.03556 21.5117 7.48444 21.5117H16.5156C19.9644 21.5117 22 19.5271 22 16.1733V15.8613H17.7689C15.8052 15.8613 14.2133 14.3092 14.2133 12.3947C14.2133 10.4802 15.8052 8.92818 17.7689 8.92818V8.89352ZM17.7672 10.3828H21.2516C21.664 10.3828 21.9983 10.7087 21.9983 11.1108V13.6414C21.9935 14.0415 21.662 14.3647 21.2516 14.3693H17.8472C16.8531 14.3824 15.9838 13.7188 15.7583 12.7747C15.6454 12.1887 15.8039 11.584 16.1913 11.1226C16.5788 10.6613 17.1556 10.3905 17.7672 10.3828ZM17.9168 13.0414H18.2457C18.6679 13.0414 19.0101 12.7078 19.0101 12.2961C19.0101 11.8845 18.6679 11.5508 18.2457 11.5508H17.9168C17.7149 11.5485 17.5204 11.6251 17.3768 11.7635C17.2332 11.9019 17.1523 12.0906 17.1523 12.2875C17.1523 12.7005 17.4932 13.0367 17.9168 13.0414ZM6.7371 8.89296H12.3815C12.8037 8.89296 13.146 8.55927 13.146 8.14765C13.146 7.73603 12.8037 7.40234 12.3815 7.40234H6.7371C6.31836 7.40232 5.97753 7.73075 5.97266 8.13898C5.97263 8.55203 6.31348 8.88821 6.7371 8.89296Z" fill="#8E867B"/>
</svg>
