<svg xmlns="http://www.w3.org/2000/svg" xmlns:xlink="http://www.w3.org/1999/xlink" width="100%" height="100%" version="1.1" viewBox="0 0 24 24" xml:space="preserve" style="fill-rule:evenodd;clip-rule:evenodd;stroke-linejoin:round;stroke-miterlimit:2"><g><path d="M35.769,26.382L40,26.382C40,22.985 37.964,21 34.516,21L25.484,21C22.036,21 20,22.985 20,26.339L20,33.661C20,37.015 22.036,39 25.484,39L34.516,39C37.964,39 40,37.015 40,33.661L40,33.35L35.769,33.35C33.805,33.35 32.213,31.798 32.213,29.883C32.213,27.969 33.805,26.417 35.769,26.417L35.769,26.382ZM35.769,27.872L39.253,27.872C39.666,27.872 40,28.198 40,28.6L40,31.131C39.995,31.531 39.664,31.854 39.253,31.859L35.849,31.859C34.855,31.872 33.986,31.208 33.76,30.264C33.647,29.678 33.806,29.074 34.193,28.612C34.581,28.151 35.157,27.88 35.769,27.872ZM35.92,30.533L36.249,30.533C36.671,30.533 37.013,30.199 37.013,29.788C37.013,29.376 36.671,29.042 36.249,29.042L35.92,29.042C35.718,29.04 35.524,29.117 35.38,29.255C35.236,29.393 35.156,29.582 35.156,29.779C35.156,30.192 35.496,30.528 35.92,30.533ZM24.738,26.382L30.382,26.382C30.804,26.382 31.147,26.048 31.147,25.637C31.147,25.225 30.804,24.891 30.382,24.891L24.738,24.891C24.319,24.891 23.978,25.22 23.973,25.628C23.973,26.041 24.314,26.377 24.738,26.382Z" transform="matrix(1,0,0,1,-18,-18)" style="fill:#8e83aa"/></g></svg>