<svg xmlns="http://www.w3.org/2000/svg" xmlns:xlink="http://www.w3.org/1999/xlink" width="100%" height="100%" version="1.1" viewBox="0 0 40 40" xml:space="preserve" style="fill-rule:evenodd;clip-rule:evenodd;stroke-linejoin:round;stroke-miterlimit:2"><g transform="matrix(1,0,0,1,-52.5,-58.0002)"><circle cx="65.159" cy="92.682" r="3.455" style="fill:#fff;fill-opacity:.3"/></g><g transform="matrix(1,0,0,1,-52.5,-58.0002)"><circle cx="64.432" cy="91.409" r="1.273" style="fill:#fff;fill-opacity:.6"/></g><g transform="matrix(1,0,0,1,-52.5,-58.0002)"><circle cx="78.977" cy="88.363" r="2.591" style="fill:#fff;fill-opacity:.3"/></g><g transform="matrix(1,0,0,1,-52.5,-58.0002)"><circle cx="78.432" cy="87.409" r=".955" style="fill:#fff;fill-opacity:.6"/></g><g transform="matrix(1,0,0,1,-52.5,-58.0002)"><circle cx="58.25" cy="85.773" r="2.591" style="fill:#fff;fill-opacity:.3"/></g><g transform="matrix(1,0,0,1,-52.5,-58.0002)"><circle cx="57.705" cy="84.818" r=".955" style="fill:#fff;fill-opacity:.6"/></g><g transform="matrix(1,0,0,1,-52.5,-58.0002)"><circle cx="73.795" cy="95.273" r="1.727" style="fill:#fff;fill-opacity:.3"/></g><g transform="matrix(1,0,0,1,-52.5,-58.0002)"><circle cx="73.432" cy="94.636" r=".636" style="fill:#fff;fill-opacity:.6"/></g><g transform="matrix(1,0,0,1,-52.5,-58.0002)"><circle cx="70.341" cy="80.591" r="4.318" style="fill:#fff;fill-opacity:.3"/></g><g transform="matrix(1,0,0,1,-52.5,-58.0002)"><circle cx="69.432" cy="78.999" r="1.591" style="fill:#fff;fill-opacity:.6"/></g><g><g opacity=".6" transform="matrix(1,0,0,1,-52.5,-58.0002)"><circle cx="59.977" cy="66.773" r="7.773" style="fill:#fff;fill-opacity:.3"/><circle cx="58.341" cy="63.909" r="2.864" style="fill:#fff;fill-opacity:.6"/></g></g><g><g opacity=".8" transform="matrix(1,0,0,1,-52.5,-58.0002)"><circle cx="87.182" cy="75.841" r="5.614" style="fill:#fff;fill-opacity:.3"/><circle cx="86" cy="73.773" r="2.068" style="fill:#fff;fill-opacity:.6"/></g></g></svg>