<svg width="24" height="25" viewBox="0 0 24 25" fill="none" xmlns="http://www.w3.org/2000/svg">
<path fill-rule="evenodd" clip-rule="evenodd" d="M7.33037 2.09277H16.6694C20.0704 2.09277 21.9904 4.02177 22.0004 7.42277V16.7628C22.0004 20.1628 20.0704 22.0928 16.6694 22.0928H7.33037C3.92937 22.0928 2.00037 20.1628 2.00037 16.7628V7.42277C2.00037 4.02177 3.92937 2.09277 7.33037 2.09277ZM12.0494 17.9528C12.4804 17.9528 12.8394 17.6328 12.8794 17.2028V7.01277C12.9194 6.70277 12.7704 6.39177 12.5004 6.22277C12.2194 6.05277 11.8794 6.05277 11.6104 6.22277C11.3394 6.39177 11.1904 6.70277 11.2194 7.01277V17.2028C11.2704 17.6328 11.6294 17.9528 12.0494 17.9528ZM16.6504 17.9528C17.0704 17.9528 17.4294 17.6328 17.4804 17.2028V13.9228C17.5094 13.6018 17.3604 13.3028 17.0894 13.1328C16.8204 12.9628 16.4804 12.9628 16.2004 13.1328C15.9294 13.3028 15.7804 13.6018 15.8204 13.9228V17.2028C15.8604 17.6328 16.2194 17.9528 16.6504 17.9528ZM8.21937 17.2028C8.17937 17.6328 7.82037 17.9528 7.38937 17.9528C6.95937 17.9528 6.59937 17.6328 6.56037 17.2028V10.2928C6.53037 9.98177 6.67937 9.67277 6.95037 9.50277C7.21937 9.33277 7.56037 9.33277 7.83037 9.50277C8.09937 9.67277 8.25037 9.98177 8.21937 10.2928V17.2028Z" fill="#8E867B"/>
</svg>
