<svg width="24" height="24" viewBox="0 0 24 24" fill="#8283AA" xmlns="http://www.w3.org/2000/svg">
<g id="Icon/Close">
<g id="Paper Plus">
<path id="Paper Plus_2" fill-rule="evenodd" clip-rule="evenodd" d="M14.2713 16.2374L11.9919 13.958L9.70891 16.241C9.16786 16.782 8.29757 16.7827 7.75736 16.2425C7.21715 15.7023 7.20465 14.8188 7.7457 14.2778L10.0287 11.9948L7.76242 9.72854C7.22221 9.18833 7.20971 8.30487 7.75076 7.76382C8.30501 7.20957 9.18847 7.22207 9.72868 7.76228L11.9949 10.0285L14.2779 7.74556C14.819 7.20451 15.7024 7.21701 16.2426 7.75722C16.7829 8.29743 16.7822 9.16772 16.2411 9.70877L13.9581 11.9917L16.2376 14.2712C16.7778 14.8114 16.7903 15.6948 16.236 16.2491C15.695 16.7902 14.8115 16.7777 14.2713 16.2374Z"/>
</g>
</g>
</svg>
