<svg xmlns="http://www.w3.org/2000/svg" width="24" height="24" fill="none" viewBox="0 0 24 24"><g id="Icon/Github"><path id="coolicon" fill="#8E83AA" d="M11.9996 4C8.07639 3.99948 4.73204 6.91782 4.1039 10.8899C3.47577 14.862 5.74933 18.715 9.47156 19.9864C9.87245 20.0604 10.016 19.808 10.016 19.5908C10.016 19.3959 10.0096 18.8795 10.0072 18.1928C7.78219 18.6862 7.31234 17.0924 7.31234 17.0924C7.16587 16.5965 6.85097 16.1708 6.42476 15.8926C5.70315 15.3835 6.48008 15.395 6.48008 15.395C6.99377 15.4673 7.44588 15.7794 7.70441 16.2404C7.92325 16.6485 8.29193 16.9501 8.72854 17.0781C9.16515 17.2061 9.63353 17.15 10.0296 16.9222C10.0668 16.5061 10.2473 16.1171 10.5387 15.8251C8.76358 15.6187 6.89701 14.9147 6.89701 11.7707C6.88716 10.9576 7.18157 10.1714 7.71965 9.57415C7.47619 8.86633 7.50486 8.08995 7.79983 7.40304C7.79983 7.40304 8.47092 7.18182 9.99833 8.2427C11.3083 7.87428 12.6909 7.87428 14.0009 8.2427C15.5291 7.181 16.1994 7.40304 16.1994 7.40304C16.4957 8.08962 16.5244 8.86655 16.2795 9.57415C16.8196 10.1714 17.1138 10.9596 17.1006 11.774C17.1006 14.9263 15.2324 15.6187 13.4508 15.8218C13.8352 16.2249 14.0322 16.7777 13.992 17.34C13.992 18.437 13.9824 19.3219 13.9824 19.5908C13.9824 19.8104 14.1251 20.0654 14.5332 19.9848C18.2539 18.7112 20.5251 14.858 19.8956 10.8869C19.2662 6.9159 15.922 3.99908 11.9996 4Z"/></g></svg>