<svg xmlns="http://www.w3.org/2000/svg" width="24" height="24" fill="none" viewBox="0 0 24 24"><g id="Icon/Heart"><g id="Heart"><path id="Heart_2" fill="#8E83AA" fill-rule="evenodd" d="M15.85 2.50016C16.481 2.50016 17.111 2.58916 17.71 2.79016C21.401 3.99016 22.731 8.04016 21.62 11.5802C20.99 13.3892 19.96 15.0402 18.611 16.3892C16.68 18.2592 14.561 19.9192 12.28 21.3492L12.03 21.5002L11.77 21.3392C9.48102 19.9192 7.35002 18.2592 5.40102 16.3792C4.06102 15.0302 3.03002 13.3892 2.39002 11.5802C1.26002 8.04016 2.59002 3.99016 6.32102 2.76916C6.61102 2.66916 6.91002 2.59916 7.21002 2.56016H7.33002C7.61102 2.51916 7.89002 2.50016 8.17002 2.50016H8.28002C8.91002 2.51916 9.52002 2.62916 10.111 2.83016H10.17C10.21 2.84916 10.24 2.87016 10.26 2.88916C10.481 2.96016 10.69 3.04016 10.89 3.15016L11.27 3.32016C11.3618 3.36913 11.4649 3.44396 11.554 3.50863C11.6104 3.5496 11.6612 3.5865 11.7 3.61016C11.7163 3.61979 11.7329 3.62947 11.7496 3.63923C11.8354 3.68928 11.9247 3.74142 12 3.79916C13.111 2.95016 14.46 2.49016 15.85 2.50016ZM18.51 9.70016C18.92 9.68916 19.27 9.36016 19.3 8.93916V8.82016C19.33 7.41916 18.481 6.15016 17.19 5.66016C16.78 5.51916 16.33 5.74016 16.18 6.16016C16.04 6.58016 16.26 7.04016 16.68 7.18916C17.321 7.42916 17.75 8.06016 17.75 8.75916V8.79016C17.731 9.01916 17.8 9.24016 17.94 9.41016C18.08 9.58016 18.29 9.67916 18.51 9.70016Z" clip-rule="evenodd"/></g></g></svg>