<svg xmlns="http://www.w3.org/2000/svg" xmlns:xlink="http://www.w3.org/1999/xlink" width="100%" height="100%" version="1.1" viewBox="0 0 24 24" xml:space="preserve" style="fill-rule:evenodd;clip-rule:evenodd;stroke-linejoin:round;stroke-miterlimit:2"><g><path d="M17.997,0.401C17.997,0.401 16.484,0.319 15.602,1.201C14.719,2.084 14.802,3.597 14.802,3.597C14.802,3.597 16.316,3.681 17.198,2.798C18.081,1.916 17.997,0.401 17.997,0.401ZM1.203,0.403C1.203,0.403 1.078,2.674 2.402,3.998C3.04,4.637 3.896,4.934 4.614,5.075C4.819,5.63 5.2,6.952 5.2,9.2L5.2,10.8L1.2,10.8C0.988,10.8 0.784,10.884 0.634,11.034C0.484,11.184 0.4,11.388 0.4,11.6L0.4,16.4C0.4,17.716 1.484,18.8 2.8,18.8L17.2,18.8C18.516,18.8 19.6,17.716 19.6,16.4L19.6,11.6C19.6,11.388 19.516,11.184 19.366,11.034C19.216,10.884 19.012,10.8 18.8,10.8L17.2,10.8C17.094,10.798 16.989,10.818 16.89,10.858C16.792,10.897 16.702,10.956 16.627,11.03C16.552,11.105 16.491,11.193 16.451,11.291C16.41,11.389 16.389,11.494 16.389,11.6C16.389,11.706 16.41,11.811 16.451,11.909C16.491,12.007 16.552,12.095 16.627,12.17C16.702,12.244 16.792,12.303 16.89,12.342C16.989,12.382 17.094,12.401 17.2,12.4L18,12.4L18,15.502C17.07,15.291 16.4,14.8 16.4,14.8C16.4,14.8 15.326,15.6 14,15.6C13.164,15.6 12.43,15.282 12,15.047C11.57,15.282 10.836,15.6 10,15.6C9.164,15.6 8.43,15.282 8,15.047C7.57,15.282 6.836,15.6 6,15.6C4.674,15.6 3.6,14.8 3.6,14.8C3.6,14.8 2.93,15.291 2,15.502L2,12.4L5.2,12.4L5.2,13.2C5.198,13.306 5.218,13.411 5.258,13.509C5.297,13.608 5.356,13.697 5.43,13.773C5.505,13.848 5.593,13.908 5.691,13.949C5.789,13.99 5.894,14.011 6,14.011C6.106,14.011 6.211,13.99 6.309,13.949C6.407,13.908 6.495,13.848 6.57,13.773C6.644,13.697 6.703,13.608 6.742,13.509C6.782,13.411 6.801,13.306 6.8,13.2L6.8,11.734C6.814,11.648 6.814,11.56 6.8,11.473L6.8,9.2C6.8,9.177 6.799,9.158 6.798,9.136C7.301,9.054 7.932,8.865 8.398,8.398C9.281,7.516 9.197,6.001 9.197,6.001C9.197,6.001 7.684,5.919 6.802,6.801C6.748,6.855 6.708,6.917 6.661,6.975C6.412,5.064 5.916,4.042 5.916,4.042C5.913,4.038 5.91,4.034 5.908,4.03C5.789,3.271 5.508,2.311 4.798,1.601C3.474,0.277 1.203,0.403 1.203,0.403ZM10.003,2.003C10.003,2.003 9.898,3.895 11.002,4.998C11.464,5.461 12.06,5.706 12.603,5.841C12.806,6.38 13.2,7.719 13.2,10L13.2,10.8L9.2,10.8C9.094,10.798 8.989,10.818 8.89,10.858C8.792,10.897 8.702,10.956 8.627,11.03C8.551,11.105 8.492,11.193 8.451,11.291C8.41,11.389 8.389,11.494 8.389,11.6C8.389,11.706 8.41,11.811 8.451,11.909C8.492,12.007 8.551,12.095 8.627,12.17C8.702,12.244 8.792,12.303 8.89,12.342C8.989,12.382 9.094,12.401 9.2,12.4L13.2,12.4L13.2,13.2C13.198,13.306 13.218,13.411 13.258,13.509C13.297,13.608 13.356,13.697 13.43,13.773C13.505,13.848 13.593,13.908 13.691,13.949C13.789,13.99 13.894,14.011 14,14.011C14.106,14.011 14.211,13.99 14.309,13.949C14.407,13.908 14.495,13.848 14.57,13.773C14.644,13.697 14.703,13.608 14.742,13.509C14.782,13.411 14.802,13.306 14.8,13.2L14.8,11.734C14.814,11.648 14.814,11.56 14.8,11.473L14.8,10C14.8,9.7 14.787,9.427 14.773,9.151C15.552,9.08 16.747,8.85 17.598,7.998C18.922,6.674 18.797,4.403 18.797,4.403C18.797,4.403 16.526,4.277 15.202,5.601C14.879,5.924 14.647,6.303 14.473,6.691C14.221,5.49 13.916,4.842 13.916,4.842C13.904,4.819 13.892,4.797 13.878,4.775C13.755,4.191 13.51,3.513 12.998,3.001C11.895,1.898 10.003,2.003 10.003,2.003Z" transform="matrix(1,0,0,1,2,2.40034)" style="fill:#8e83aa;fill-rule:nonzero"/></g></svg>