<svg xmlns="http://www.w3.org/2000/svg" width="24" height="24" fill="none" viewBox="0 0 24 24"><g id="Icon/Medium"><path id="Vector" fill="#8E83AA" d="M6.66017 8.28467C6.66877 8.19926 6.65725 8.11302 6.62654 8.03294C6.59582 7.95287 6.54679 7.88123 6.48342 7.82386L5.17675 6.23687V6H9.235L12.3722 12.9328L15.1302 6H19V6.23687L17.8818 7.31661C17.8345 7.35297 17.7979 7.40162 17.776 7.45733C17.7542 7.51305 17.7477 7.57372 17.7575 7.63283V15.5678C17.7479 15.6268 17.7543 15.6873 17.7762 15.7429C17.7981 15.7985 17.8346 15.8471 17.8818 15.8834L18.9726 16.9631V17.2H13.4834V16.9631L14.6133 15.8569C14.7242 15.7453 14.7242 15.7123 14.7242 15.5407V9.12754L11.58 17.173H11.1559L7.4955 9.12754V14.5198C7.46517 14.7466 7.53983 14.9747 7.69792 15.1387L9.16792 16.9373V17.1735H5V16.9367L6.47 15.1381C6.6275 14.9747 6.6975 14.7443 6.66017 14.5198V8.28467Z"/></g></svg>