<svg xmlns="http://www.w3.org/2000/svg" width="24" height="24" fill="none" viewBox="0 0 24 24"><g id="Icon/Menu"><g id="Paper Negative"><g id="Paper Negative_2"><path id="Paper Negative_3" fill="#8E83AA" fill-rule="evenodd" d="M7.39752 9C6.63354 9 6 8.55705 6 8.00671C6 7.44295 6.63354 7 7.39752 7H16.6025C17.3665 7 18 7.44295 18 8.00671C18 8.55705 17.3665 9 16.6025 9H7.39752Z" clip-rule="evenodd"/></g><g id="Paper Negative_4"><path id="Paper Negative_5" fill="#8E83AA" fill-rule="evenodd" d="M7.39752 13C6.63354 13 6 12.557 6 12.0067C6 11.443 6.63354 11 7.39752 11H16.6025C17.3665 11 18 11.443 18 12.0067C18 12.557 17.3665 13 16.6025 13H7.39752Z" clip-rule="evenodd"/></g><path id="Paper Negative_6" fill="#8E83AA" fill-rule="evenodd" d="M7.39752 17C6.63354 17 6 16.557 6 16.0067C6 15.443 6.63354 15 7.39752 15H16.6025C17.3665 15 18 15.443 18 16.0067C18 16.557 17.3665 17 16.6025 17H7.39752Z" clip-rule="evenodd"/></g></g></svg>