<svg width="24" height="24" viewBox="0 0 24 24" fill="none" xmlns="http://www.w3.org/2000/svg">
<g id="Icon/Menu-in">
<g id="Paper Negative">
<g id="Paper Negative_2">
<path id="Paper Negative_3" fill-rule="evenodd" clip-rule="evenodd" d="M7.01638 9C6.46076 9 6 8.55705 6 8.00671C6 7.44295 6.46076 7 7.01638 7H13.7109C14.2666 7 14.7273 7.44295 14.7273 8.00671C14.7273 8.55705 14.2666 9 13.7109 9H7.01638Z" fill="#8E83AA"/>
</g>
<g id="Paper Negative_4">
<path id="Paper Negative_5" fill-rule="evenodd" clip-rule="evenodd" d="M6.76228 13C6.34557 13 6 12.557 6 12.0067C6 11.443 6.34557 11 6.76228 11H11.7832C12.1999 11 12.5455 11.443 12.5455 12.0067C12.5455 12.557 12.1999 13 11.7832 13H6.76228Z" fill="#8E83AA"/>
</g>
<path id="Paper Negative_6" fill-rule="evenodd" clip-rule="evenodd" d="M7.01638 17C6.46076 17 6 16.557 6 16.0067C6 15.443 6.46076 15 7.01638 15H13.7109C14.2666 15 14.7273 15.443 14.7273 16.0067C14.7273 16.557 14.2666 17 13.7109 17H7.01638Z" fill="#8E83AA"/>
<g id="Group">
<path id="Vector" d="M17.4483 16.0002C17.3061 16.0002 17.1639 15.9423 17.0552 15.8294L13.8291 12.4845C13.5726 12.218 13.5726 11.7836 13.8291 11.5172L17.0524 8.16937C17.2922 7.92031 17.6965 7.94637 17.9028 8.24466C18.0646 8.47924 18.0171 8.8065 17.8192 9.01211L14.9416 12.0008L17.8164 14.9866C18.0255 15.2038 18.0646 15.5629 17.8722 15.7975C17.7606 15.9336 17.6045 16.0002 17.4483 16.0002Z" fill="#8E83AA" stroke="#8E83AA"/>
</g>
</g>
</g>
</svg>
