<svg width="24" height="24" viewBox="0 0 24 24" fill="none" xmlns="http://www.w3.org/2000/svg">
<g id="Icon/Password">
<g id="Password">
<path id="Password_2" fill-rule="evenodd" clip-rule="evenodd" d="M17.011 14.602C17.425 14.602 17.761 14.266 17.761 13.852V12C17.761 11.586 17.425 11.25 17.011 11.25H11.319C10.995 10.183 10.013 9.399 8.841 9.399C7.407 9.399 6.24 10.566 6.24 12C6.24 13.435 7.407 14.602 8.841 14.602C10.013 14.602 10.995 13.818 11.319 12.75H13.431V13.852C13.431 14.266 13.767 14.602 14.181 14.602C14.595 14.602 14.931 14.266 14.931 13.852V12.75H16.261V13.852C16.261 14.266 16.597 14.602 17.011 14.602ZM7.666 2H16.335C19.723 2 22 4.378 22 7.917V16.084C22 19.623 19.723 22 16.334 22H7.666C4.277 22 2 19.623 2 16.084V7.917C2 4.378 4.277 2 7.666 2ZM7.7391 12.0009C7.7391 11.3929 8.2341 10.8989 8.8411 10.8989C9.4481 10.8989 9.9431 11.3929 9.9431 12.0009C9.9431 12.6079 9.4481 13.1019 8.8411 13.1019C8.2341 13.1019 7.7391 12.6079 7.7391 12.0009Z" fill="#8E83AA"/>
</g>
</g>
</svg>
