<svg width="24" height="24" viewBox="0 0 24 24" fill="none" xmlns="http://www.w3.org/2000/svg">
<g id="Icon/Pool">
<g id="Group">
<path id="Vector" d="M12.0615 9.65469C12.0615 8.3447 12.8758 6.54875 13.5214 5.32931C12.2269 3.39752 10.9876 2 10.3809 2C8.81388 2 3 11.342 3 15.1331C3 18.9242 6.30275 22 10.3809 22C14.4558 22 17.7618 18.9242 17.7618 15.1331C17.7618 15.0456 17.7553 14.952 17.7488 14.8584C17.7196 14.8584 17.6904 14.8615 17.658 14.8615C14.5726 14.8645 12.0615 12.5282 12.0615 9.65469Z" fill="#8E83AA"/>
</g>
<path id="Vector_2" d="M21.9595 9.65469C21.9595 11.8642 20.0323 13.6571 17.6575 13.6571C15.2826 13.6571 13.3555 11.8642 13.3555 9.65469C13.3555 7.44522 16.7458 2 17.6575 2C18.5724 2 21.9595 7.44522 21.9595 9.65469Z" fill="#8E83AA"/>
</g>
</svg>
