<svg xmlns="http://www.w3.org/2000/svg" width="24" height="24" fill="none" viewBox="0 0 24 24"><g id="Icon/Star"><g id="Star"><path id="Star_2" fill="#8E83AA" d="M17.9189 14.32C17.6599 14.571 17.5409 14.934 17.5999 15.29L18.4889 20.21C18.5639 20.627 18.3879 21.049 18.0389 21.29C17.6969 21.54 17.2419 21.57 16.8689 21.37L12.4399 19.06C12.2859 18.978 12.1149 18.934 11.9399 18.929H11.6689C11.5749 18.943 11.4829 18.973 11.3989 19.019L6.96888 21.34C6.74988 21.45 6.50188 21.489 6.25888 21.45C5.66688 21.338 5.27188 20.774 5.36888 20.179L6.25888 15.259C6.31788 14.9 6.19888 14.535 5.93988 14.28L2.32888 10.78C2.02688 10.487 1.92188 10.047 2.05988 9.65C2.19388 9.254 2.53588 8.965 2.94888 8.9L7.91888 8.179C8.29688 8.14 8.62888 7.91 8.79888 7.57L10.9889 3.08C11.0409 2.98 11.1079 2.888 11.1889 2.81L11.2789 2.74C11.3259 2.688 11.3799 2.645 11.4399 2.61L11.5489 2.57L11.7189 2.5H12.1399C12.5159 2.539 12.8469 2.764 13.0199 3.1L15.2389 7.57C15.3989 7.897 15.7099 8.124 16.0689 8.179L21.0389 8.9C21.4589 8.96 21.8099 9.25 21.9489 9.65C22.0799 10.051 21.9669 10.491 21.6589 10.78L17.9189 14.32Z"/></g></g></svg>