<svg width="24" height="24" viewBox="0 0 24 24" fill="none" xmlns="http://www.w3.org/2000/svg">
<path d="M7.00393 2.00195C6.79068 2.00195 6.57659 2.08164 6.41409 2.24414L2.99026 5.9375C2.61426 6.3425 2.90115 7 3.45315 7H6.00002V12C5.99815 12.1325 6.02263 12.2641 6.07204 12.387C6.12146 12.51 6.19482 12.6219 6.28786 12.7163C6.38091 12.8107 6.49178 12.8856 6.61404 12.9368C6.73629 12.9879 6.8675 13.0142 7.00002 13.0142C7.13255 13.0142 7.26375 12.9879 7.38601 12.9368C7.50827 12.8856 7.61914 12.8107 7.71218 12.7163C7.80523 12.6219 7.87859 12.51 7.928 12.387C7.97742 12.2641 8.0019 12.1325 8.00002 12V7H10.5528C11.1058 7 11.3926 6.3425 11.0156 5.9375L7.59182 2.24414C7.42932 2.08164 7.21718 2.00195 7.00393 2.00195ZM17 3C16.448 3 16 3.448 16 4C16 4.552 16.448 5 17 5C17.552 5 18 4.552 18 4C18 3.448 17.552 3 17 3ZM17 7C16.448 7 16 7.448 16 8C16 8.552 16.448 9 17 9C17.552 9 18 8.552 18 8C18 7.448 17.552 7 17 7ZM16.9844 10.9863C16.7195 10.9905 16.4671 11.0995 16.2826 11.2896C16.098 11.4796 15.9964 11.7351 16 12V17H13.4531C12.9011 17 12.6143 17.6575 12.9903 18.0625L16.4141 21.7559C16.7391 22.0809 17.2668 22.0809 17.5918 21.7559L21.0156 18.0625C21.3926 17.6575 21.1058 17 20.5528 17H18V12C18.0019 11.8662 17.9768 11.7334 17.9264 11.6095C17.876 11.4855 17.8012 11.373 17.7065 11.2784C17.6118 11.1839 17.4991 11.1094 17.3751 11.0592C17.251 11.009 17.1182 10.9842 16.9844 10.9863V10.9863ZM7.00002 15C6.44802 15 6.00002 15.448 6.00002 16C6.00002 16.552 6.44802 17 7.00002 17C7.55202 17 8.00002 16.552 8.00002 16C8.00002 15.448 7.55202 15 7.00002 15ZM7.00002 19C6.44802 19 6.00002 19.448 6.00002 20C6.00002 20.552 6.44802 21 7.00002 21C7.55202 21 8.00002 20.552 8.00002 20C8.00002 19.448 7.55202 19 7.00002 19Z" fill="#8E867B"/>
</svg>
