<svg xmlns="http://www.w3.org/2000/svg" xmlns:xlink="http://www.w3.org/1999/xlink" width="100%" height="100%" version="1.1" viewBox="0 0 24 24" xml:space="preserve" style="fill-rule:evenodd;clip-rule:evenodd;stroke-linejoin:round;stroke-miterlimit:2"><g><path d="M44.787,33.539C44.652,33.671 44.468,33.746 44.275,33.746C43.559,33.746 42.979,34.31 42.979,34.995C42.979,35.686 43.552,36.247 44.261,36.254C44.661,36.258 45,36.529 45,36.917L45,39.327C45,41.355 43.308,43 41.219,43L38.066,43C37.74,43 37.476,42.744 37.476,42.427L37.476,40.398C37.476,40.003 37.157,39.693 36.751,39.693C36.354,39.693 36.025,40.003 36.025,40.398L36.025,42.427C36.025,42.744 35.761,43 35.436,43L28.781,43C26.702,43 25,41.356 25,39.327L25,36.917C25,36.529 25.34,36.258 25.739,36.254C26.449,36.247 27.021,35.686 27.021,34.995C27.021,34.328 26.46,33.821 25.725,33.821C25.532,33.821 25.348,33.746 25.213,33.614C25.077,33.483 25,33.304 25,33.116L25,30.683C25,28.657 26.706,27 28.791,27L35.436,27C35.761,27 36.025,27.257 36.025,27.573L36.025,29.978C36.025,30.363 36.354,30.683 36.751,30.683C37.157,30.683 37.476,30.363 37.476,29.978L37.476,27.573C37.476,27.257 37.74,27 38.066,27L41.219,27C43.308,27 45,28.644 45,30.674L45,33.041C45,33.229 44.923,33.408 44.787,33.539ZM36.751,37.87C37.157,37.87 37.476,37.551 37.476,37.166L37.476,33.408C37.476,33.022 37.157,32.703 36.751,32.703C36.354,32.703 36.025,33.022 36.025,33.408L36.025,37.166C36.025,37.551 36.354,37.87 36.751,37.87Z" transform="matrix(1,0,0,1,-23,-23)" style="fill:url(#_Linear1)"/></g><defs><linearGradient id="_Linear1" x1="0" x2="1" y1="0" y2="0" gradientTransform="matrix(9.79717e-16,16,-16,9.79717e-16,35,27)" gradientUnits="userSpaceOnUse"><stop offset="0" style="stop-color:#00ceba;stop-opacity:1"/><stop offset="1" style="stop-color:#008a7d;stop-opacity:1"/></linearGradient></defs></svg>