<svg width="24" height="25" viewBox="0 0 24 25" fill="none" xmlns="http://www.w3.org/2000/svg">
<path fill-rule="evenodd" clip-rule="evenodd" d="M21.7872 10.6313C21.6518 10.7629 21.4681 10.838 21.2747 10.838C20.559 10.838 19.9787 11.4017 19.9787 12.0876C19.9787 12.7781 20.5522 13.339 21.2611 13.3465C21.6605 13.3503 22 13.6209 22 14.0089V16.4188C22 18.4472 20.3075 20.0923 18.2186 20.0923H15.0658C14.7398 20.0923 14.4758 19.8358 14.4758 19.5192V17.4898C14.4758 17.0952 14.1567 16.7852 13.7505 16.7852C13.354 16.7852 13.0251 17.0952 13.0251 17.4898V19.5192C13.0251 19.8358 12.7611 20.0923 12.4362 20.0923H5.78143C3.70213 20.0923 2 18.4481 2 16.4188V14.0089C2 13.6209 2.33946 13.3503 2.73888 13.3465C3.44874 13.339 4.02128 12.7781 4.02128 12.0876C4.02128 11.4205 3.46035 10.9132 2.72534 10.9132C2.53191 10.9132 2.34816 10.838 2.21277 10.7065C2.07737 10.575 2 10.3965 2 10.2086V7.7752C2 5.7496 3.706 4.09229 5.7911 4.09229H12.4362C12.7611 4.09229 13.0251 4.34877 13.0251 4.66539V7.07056C13.0251 7.45576 13.354 7.7752 13.7505 7.7752C14.1567 7.7752 14.4758 7.45576 14.4758 7.07056V4.66539C14.4758 4.34877 14.7398 4.09229 15.0658 4.09229H18.2186C20.3075 4.09229 22 5.73644 22 7.7658V10.1334C22 10.3213 21.9226 10.4998 21.7872 10.6313ZM13.7488 14.9628C14.155 14.9628 14.4741 14.6433 14.4741 14.2581V10.5C14.4741 10.1148 14.155 9.79541 13.7488 9.79541C13.3523 9.79541 13.0234 10.1148 13.0234 10.5V14.2581C13.0234 14.6433 13.3523 14.9628 13.7488 14.9628Z" fill="#8E867B"/>
</svg>
