<svg xmlns="http://www.w3.org/2000/svg" xmlns:xlink="http://www.w3.org/1999/xlink" width="100%" height="100%" version="1.1" viewBox="0 0 24 24" xml:space="preserve" style="fill-rule:evenodd;clip-rule:evenodd;stroke-linejoin:round;stroke-miterlimit:2"><g><path d="M13.29,6.047C12.98,2.658 10.134,0 6.656,0C2.979,0 0,2.979 0,6.656C0,9.868 2.27,12.537 5.283,13.169C5.77,9.181 9.17,6.058 13.29,6.047Z" transform="matrix(1,0,0,1,2.01,1.60585)" style="fill:url(#_Linear1);fill-rule:nonzero"/></g><g><path d="M13.324,20.788C17,20.788 19.98,17.808 19.98,14.132C19.98,10.456 17,7.476 13.324,7.476C9.648,7.476 6.667,10.456 6.667,14.132C6.667,17.808 9.648,20.788 13.324,20.788Z" transform="matrix(1,0,0,1,2.01,1.60585)" style="fill:url(#_Linear2);fill-rule:nonzero"/></g><defs><linearGradient id="_Linear1" x1="0" x2="1" y1="0" y2="0" gradientTransform="matrix(1.27292e-15,20.7883,-20.7883,1.27292e-15,9.98999,0)" gradientUnits="userSpaceOnUse"><stop offset="0" style="stop-color:#ffbc00;stop-opacity:1"/><stop offset="1" style="stop-color:#ff8e00;stop-opacity:1"/></linearGradient><linearGradient id="_Linear2" x1="0" x2="1" y1="0" y2="0" gradientTransform="matrix(1.27292e-15,20.7883,-20.7883,1.27292e-15,9.98999,0)" gradientUnits="userSpaceOnUse"><stop offset="0" style="stop-color:#ffbc00;stop-opacity:1"/><stop offset="1" style="stop-color:#ff8e00;stop-opacity:1"/></linearGradient></defs></svg>