<svg xmlns="http://www.w3.org/2000/svg" width="24" height="24" fill="none" viewBox="0 0 24 24"><g id="Icon/Twitter"><path id="coolicon" fill="#8E83AA" d="M18.1153 8.04983C18.801 7.63981 19.314 6.99418 19.5587 6.2335C18.9144 6.6159 18.2094 6.88527 17.4743 7.02996C16.4552 5.95159 14.8404 5.68916 13.5324 6.38932C12.2243 7.08948 11.5468 8.57888 11.8784 10.0253C9.23921 9.89275 6.78035 8.64577 5.11368 6.59463C4.24388 8.09529 4.68837 10.0136 6.12946 10.9786C5.60834 10.9618 5.09879 10.8207 4.64327 10.567C4.64327 10.5807 4.64327 10.5945 4.64327 10.6083C4.64358 12.1715 5.745 13.518 7.2768 13.8278C6.79343 13.9593 6.28642 13.9787 5.79444 13.8844C6.22522 15.2212 7.45697 16.137 8.86089 16.1644C7.69812 17.0772 6.26215 17.5723 4.78401 17.5698C4.52202 17.5702 4.26022 17.5551 4 17.5247C5.50102 18.4895 7.24801 19.0016 9.03222 18.9998C11.5145 19.0168 13.9 18.038 15.6552 16.2822C17.4104 14.5264 18.3888 12.1402 18.3715 9.65728C18.3715 9.51497 18.3682 9.37343 18.3616 9.23265C19.0045 8.76794 19.5593 8.19225 20 7.53263C19.4011 7.79816 18.7658 7.97249 18.1153 8.04983Z"/></g></svg>