<svg width="24" height="25" viewBox="0 0 24 25" fill="none" xmlns="http://www.w3.org/2000/svg">
<g clip-path="url(#clip0_4840_32165)">
<path d="M5.60002 3.29248C4.72557 3.29248 4.00002 4.01803 4.00002 4.89248V17.6925C3.57568 17.6925 3.16871 17.8611 2.86865 18.1611C2.5686 18.4612 2.40002 18.8681 2.40002 19.2925C2.40002 19.7168 2.5686 20.1238 2.86865 20.4239C3.16871 20.7239 3.57568 20.8925 4.00002 20.8925H20C20.4244 20.8925 20.8313 20.7239 21.1314 20.4239C21.4315 20.1238 21.6 19.7168 21.6 19.2925C21.6 18.8681 21.4315 18.4612 21.1314 18.1611C20.8313 17.8611 20.4244 17.6925 20 17.6925V4.89248C20 4.01803 19.2745 3.29248 18.4 3.29248H5.60002ZM5.60002 4.89248H18.4V19.2925H5.60002V4.89248ZM14.3922 8.08467C14.2331 8.08471 14.0775 8.13221 13.9455 8.2211C13.8135 8.30999 13.711 8.43623 13.6511 8.58368C13.5913 8.73113 13.5767 8.89309 13.6094 9.04886C13.642 9.20462 13.7204 9.34711 13.8344 9.45811L14.0688 9.69248L13.8344 9.92686C13.7576 10.0006 13.6963 10.0889 13.6541 10.1866C13.6119 10.2843 13.5896 10.3894 13.5885 10.4959C13.5874 10.6023 13.6076 10.7079 13.6478 10.8064C13.688 10.9049 13.7475 10.9945 13.8228 11.0697C13.898 11.145 13.9876 11.2045 14.0861 11.2447C14.1846 11.285 14.2902 11.3051 14.3967 11.304C14.5031 11.303 14.6082 11.2806 14.7059 11.2384C14.8036 11.1962 14.8919 11.1349 14.9656 11.0581L15.2 10.8237L15.4344 11.0581C15.5081 11.1349 15.5964 11.1962 15.6941 11.2384C15.7918 11.2806 15.897 11.303 16.0034 11.304C16.1098 11.3051 16.2154 11.285 16.314 11.2447C16.4125 11.2045 16.502 11.145 16.5773 11.0697C16.6525 10.9945 16.712 10.9049 16.7523 10.8064C16.7925 10.7079 16.8127 10.6023 16.8116 10.4959C16.8105 10.3894 16.7882 10.2843 16.746 10.1866C16.7037 10.0889 16.6424 10.0006 16.5656 9.92686L16.3313 9.69248L16.5656 9.45811C16.6813 9.34574 16.7602 9.20106 16.7922 9.04305C16.8241 8.88503 16.8076 8.72104 16.7448 8.57258C16.682 8.42411 16.5757 8.29808 16.4401 8.21102C16.3044 8.12396 16.1455 8.07992 15.9844 8.08467C15.7766 8.09086 15.5793 8.17772 15.4344 8.32686L15.2 8.56123L14.9656 8.32686C14.8911 8.25022 14.8019 8.1893 14.7035 8.14771C14.605 8.10611 14.4991 8.08467 14.3922 8.08467ZM8.00002 8.89248C7.89401 8.89098 7.78876 8.91057 7.69039 8.9501C7.59202 8.98963 7.50248 9.04832 7.42698 9.12275C7.35149 9.19719 7.29154 9.28589 7.25062 9.38369C7.2097 9.4815 7.18863 9.58646 7.18863 9.69248C7.18863 9.7985 7.2097 9.90346 7.25062 10.0013C7.29154 10.0991 7.35149 10.1878 7.42698 10.2622C7.50248 10.3366 7.59202 10.3953 7.69039 10.4349C7.78876 10.4744 7.89401 10.494 8.00002 10.4925H11.2C11.306 10.494 11.4113 10.4744 11.5097 10.4349C11.608 10.3953 11.6976 10.3366 11.7731 10.2622C11.8486 10.1878 11.9085 10.0991 11.9494 10.0013C11.9903 9.90346 12.0114 9.7985 12.0114 9.69248C12.0114 9.58646 11.9903 9.4815 11.9494 9.38369C11.9085 9.28589 11.8486 9.19719 11.7731 9.12275C11.6976 9.04832 11.608 8.98963 11.5097 8.9501C11.4113 8.91057 11.306 8.89098 11.2 8.89248H8.00002ZM15.2 13.2925C14.8818 13.2925 14.5765 13.4189 14.3515 13.644C14.1265 13.869 14 14.1742 14 14.4925C14 14.8107 14.1265 15.116 14.3515 15.341C14.5765 15.5661 14.8818 15.6925 15.2 15.6925C15.5183 15.6925 15.8235 15.5661 16.0486 15.341C16.2736 15.116 16.4 14.8107 16.4 14.4925C16.4 14.1742 16.2736 13.869 16.0486 13.644C15.8235 13.4189 15.5183 13.2925 15.2 13.2925ZM8.00002 13.6925C7.89401 13.691 7.78876 13.7106 7.69039 13.7501C7.59202 13.7896 7.50248 13.8483 7.42698 13.9228C7.35149 13.9972 7.29154 14.0859 7.25062 14.1837C7.2097 14.2815 7.18863 14.3865 7.18863 14.4925C7.18863 14.5985 7.2097 14.7035 7.25062 14.8013C7.29154 14.8991 7.35149 14.9878 7.42698 15.0622C7.50248 15.1366 7.59202 15.1953 7.69039 15.2349C7.78876 15.2744 7.89401 15.294 8.00002 15.2925H11.2C11.306 15.294 11.4113 15.2744 11.5097 15.2349C11.608 15.1953 11.6976 15.1366 11.7731 15.0622C11.8486 14.9878 11.9085 14.8991 11.9494 14.8013C11.9903 14.7035 12.0114 14.5985 12.0114 14.4925C12.0114 14.3865 11.9903 14.2815 11.9494 14.1837C11.9085 14.0859 11.8486 13.9972 11.7731 13.9228C11.6976 13.8483 11.608 13.7896 11.5097 13.7501C11.4113 13.7106 11.306 13.691 11.2 13.6925H8.00002Z" fill="#8E867B"/>
</g>
<defs>
<clipPath id="clip0_4840_32165">
<rect width="24" height="24" fill="white" transform="translate(0 0.0922852)"/>
</clipPath>
</defs>
</svg>
