<svg xmlns="http://www.w3.org/2000/svg" width="40" height="40" fill="none" viewBox="0 0 40 40"><path fill="#C4A46A" fill-rule="evenodd" d="M0 19.999C0 8.96102 8.96 -0.000976562 20 -0.000976562C31.06 -0.000976562 40 8.96102 40 19.999C40 31.041 31.06 39.999 20 39.999C8.96 39.999 0 31.041 0 19.999ZM18.2402 12.4192C18.2402 11.4612 19.0402 10.6592 20.0002 10.6592C20.9602 10.6592 21.7402 11.4612 21.7402 12.4192V21.2592C21.7402 22.2212 20.9602 22.9992 20.0002 22.9992C19.0402 22.9992 18.2402 22.2212 18.2402 21.2592V12.4192ZM20.0198 29.3613C19.0398 29.3613 18.2598 28.5613 18.2598 27.6013C18.2598 26.6413 19.0398 25.8613 19.9998 25.8613C20.9798 25.8613 21.7598 26.6413 21.7598 27.6013C21.7598 28.5613 20.9798 29.3613 20.0198 29.3613Z" clip-rule="evenodd"/></svg>