<svg width="40" height="40" viewBox="0 0 40 40" fill="none" xmlns="http://www.w3.org/2000/svg">
<mask id="mask0_36_1322" style="mask-type:luminance" maskUnits="userSpaceOnUse" x="0" y="0" width="40" height="40">
<path d="M32.9688 0H7.03125C3.148 0 0 3.148 0 7.03125V32.9688C0 36.852 3.148 40 7.03125 40H32.9688C36.852 40 40 36.852 40 32.9688V7.03125C40 3.148 36.852 0 32.9688 0Z" fill="white"/>
</mask>
<g mask="url(#mask0_36_1322)">
<path d="M32.9688 0H7.03125C3.148 0 0 3.148 0 7.03125V32.9688C0 36.852 3.148 40 7.03125 40H32.9688C36.852 40 40 36.852 40 32.9688V7.03125C40 3.148 36.852 0 32.9688 0Z" fill="url(#paint0_linear_36_1322)"/>
<g filter="url(#filter0_d_36_1322)">
<g filter="url(#filter1_d_36_1322)">
<path d="M34.2193 24.4892C34.2193 29.7023 28.0188 31.8207 20.32 31.8207C12.6213 31.8207 6.33057 29.7023 6.33057 24.4892C6.33057 19.2761 12.5762 15.0577 20.275 15.0577C27.9736 15.0577 34.2193 19.2853 34.2193 24.4892Z" fill="url(#paint1_linear_36_1322)"/>
<path d="M34.099 24.4892C34.099 27.0346 32.5904 28.8323 30.1057 30.0004C27.6163 31.1709 24.1619 31.6999 20.3205 31.6999C16.4792 31.6999 13.002 31.1709 10.4898 30.0003C7.9819 28.8316 6.4519 27.0338 6.4519 24.4892C6.4519 21.9349 7.98199 19.6101 10.4839 17.9187C12.9851 16.2277 16.4469 15.1786 20.2754 15.1786C24.1038 15.1786 27.5656 16.2299 30.0668 17.9221C32.5688 19.6147 34.099 21.9394 34.099 24.4892Z" stroke="url(#paint2_linear_36_1322)" stroke-width="1.5412"/>
</g>
<g filter="url(#filter2_d_36_1322)">
<g filter="url(#filter3_dd_36_1322)">
<path d="M32.8044 13.1391C32.8044 10.3944 30.6203 8.1655 27.9307 8.1655C27.7876 8.1655 27.6459 8.17182 27.5059 8.18419C25.1307 8.39416 22.6885 9.54707 20.3041 9.54707C17.9202 9.54707 15.4745 8.39513 13.1 8.18419C12.9607 8.17182 12.8198 8.1655 12.6776 8.1655C9.98799 8.1655 7.80382 10.3944 7.80382 13.1391C7.80382 14.7597 7.9025 16.4792 7.85203 18.099C7.84998 18.1648 7.84895 18.2307 7.84895 18.2969C7.84895 23.1325 13.4267 27.0469 20.3041 27.0469C27.1815 27.0469 32.7593 23.1325 32.7593 18.2969C32.7593 18.2307 32.7582 18.1648 32.7562 18.099C32.7057 16.4792 32.8044 14.7597 32.8044 13.1391Z" fill="url(#paint3_linear_36_1322)"/>
<path d="M24.1514 10.0504V10.0504C24.1782 10.0565 24.2062 10.0467 24.2235 10.0253V10.0253C25.1042 8.93598 26.4378 8.2377 27.931 8.2377C30.5793 8.2377 32.7324 10.4329 32.7324 13.1391C32.7324 14.029 32.5012 14.8551 32.1007 15.5723V15.5723C32.0896 15.5925 32.0886 15.6167 32.0982 15.6376V15.6376C32.4822 16.476 32.6874 17.3684 32.6874 18.2969C32.6874 20.6848 31.3103 22.8525 29.0695 24.4261C26.8289 25.9996 23.7301 26.9747 20.3043 26.9747C16.8788 26.9747 13.7798 25.9996 11.5393 24.4261C9.29852 22.8525 7.92146 20.6848 7.92146 18.2969C7.92146 17.3684 8.12659 16.476 8.51059 15.6376V15.6376C8.52017 15.6167 8.51919 15.5924 8.50798 15.5723V15.5723C8.10764 14.8551 7.87633 14.029 7.87633 13.1391C7.87633 10.4329 10.0295 8.2377 12.6778 8.2377C14.1618 8.2377 15.4957 8.93588 16.3856 10.0256V10.0256C16.4029 10.047 16.4311 10.0565 16.4579 10.0503V10.0503C17.6708 9.76606 18.9649 9.61927 20.3043 9.61927C21.6436 9.61927 22.9379 9.77519 24.1514 10.0504Z" stroke="url(#paint4_linear_36_1322)" stroke-width="0.92103"/>
</g>
<g filter="url(#filter4_d_36_1322)">
<path d="M12.2849 15.906C13.9298 15.906 15.2633 14.5451 15.2633 12.8665C15.2633 11.1879 13.9298 9.82706 12.2849 9.82706C10.64 9.82706 9.3065 11.1879 9.3065 12.8665C9.3065 14.5451 10.64 15.906 12.2849 15.906Z" fill="url(#paint5_linear_36_1322)"/>
<path d="M15.2089 12.8666C15.2089 14.5163 13.8987 15.8517 12.2847 15.8517C10.6707 15.8517 9.36046 14.5163 9.36046 12.8666C9.36046 11.2168 10.6707 9.88129 12.2847 9.88129C13.8987 9.88129 15.2089 11.2168 15.2089 12.8666Z" stroke="url(#paint6_linear_36_1322)" stroke-width="0.690773"/>
</g>
<g filter="url(#filter5_d_36_1322)">
<path d="M28.1769 15.906C29.8218 15.906 31.1553 14.5451 31.1553 12.8665C31.1553 11.1879 29.8218 9.82706 28.1769 9.82706C26.5321 9.82706 25.1986 11.1879 25.1986 12.8665C25.1986 14.5451 26.5321 15.906 28.1769 15.906Z" fill="url(#paint7_linear_36_1322)"/>
<path d="M31.1018 12.8666C31.1018 14.5163 29.7915 15.8517 28.1775 15.8517C26.5636 15.8517 25.2533 14.5163 25.2533 12.8666C25.2533 11.2168 26.5636 9.88129 28.1775 9.88129C29.7915 9.88129 31.1018 11.2168 31.1018 12.8666Z" stroke="url(#paint8_linear_36_1322)" stroke-width="0.690773"/>
</g>
</g>
<g filter="url(#filter6_d_36_1322)">
<path d="M10.6945 31.4624C11.3353 31.4624 11.8408 30.8914 11.7686 30.2467C11.5068 27.9625 10.3967 23.0164 5.5139 20.0415C0.357706 16.899 2.53167 24.8321 3.64963 28.2431C3.93056 29.1002 3.59248 30.0468 2.81528 30.5046C2.36402 30.7717 2.55354 31.4624 3.068 31.4624H10.6945Z" fill="#32DA6D"/>
<path d="M10.6945 31.4624C11.3353 31.4624 11.8408 30.8914 11.7686 30.2467C11.5068 27.9625 10.3967 23.0164 5.5139 20.0415C0.357706 16.899 2.53167 24.8321 3.64963 28.2431C3.93056 29.1002 3.59248 30.0468 2.81528 30.5046C2.36402 30.7717 2.55354 31.4624 3.068 31.4624H10.6945Z" fill="url(#paint9_linear_36_1322)"/>
<path d="M4.16029 29.7125C4.25781 29.6757 4.27123 29.6706 4.27306 29.6698C4.27327 29.6697 4.27329 29.6695 4.27319 29.6693V29.6693L4.27251 29.6674L4.2698 29.6602C4.26842 29.6566 4.26666 29.6519 4.26453 29.6461C4.26291 29.6419 4.26108 29.6368 4.25905 29.6314C4.24959 29.6059 4.23562 29.5681 4.21766 29.5189C4.18172 29.4205 4.12981 29.2765 4.066 29.0946C3.93838 28.7305 3.76326 28.2149 3.57336 27.6083C3.19326 26.3945 2.75521 24.8205 2.51963 23.3724C2.40183 22.6483 2.33529 21.9592 2.35088 21.3642C2.36653 20.7664 2.4649 20.2778 2.66481 19.9438C2.85896 19.6194 3.15143 19.4351 3.58862 19.4408C4.03766 19.4467 4.64561 19.6538 5.45121 20.1448C10.2863 23.0907 11.3884 27.9896 11.6487 30.2602C11.713 30.8347 11.2621 31.3416 10.6947 31.3416H3.06821C2.67987 31.3416 2.52892 30.8147 2.87706 30.6086L4.22164 29.8166L4.26923 29.7886C4.29239 29.775 4.30238 29.7466 4.29289 29.7215V29.7215C4.28212 29.6929 4.25025 29.6785 4.2217 29.6893L4.16029 29.7125Z" stroke="url(#paint10_linear_36_1322)" stroke-width="1.5412"/>
</g>
<g filter="url(#filter7_d_36_1322)">
<path d="M30.0862 31.4624C29.5085 31.4624 29.0572 30.8914 29.1204 30.2467C29.3461 27.9717 30.357 23.0164 34.7614 20.0415C39.4641 16.8717 37.4252 24.9712 36.4238 28.3312C36.1797 29.1503 36.4908 30.0388 37.2073 30.5046C37.6134 30.7717 37.442 31.4624 36.9816 31.4624H30.0862Z" fill="#32DA6D"/>
<path d="M30.0862 31.4624C29.5085 31.4624 29.0572 30.8914 29.1204 30.2467C29.3461 27.9717 30.357 23.0164 34.7614 20.0415C39.4641 16.8717 37.4252 24.9712 36.4238 28.3312C36.1797 29.1503 36.4908 30.0388 37.2073 30.5046C37.6134 30.7717 37.442 31.4624 36.9816 31.4624H30.0862Z" fill="url(#paint11_linear_36_1322)"/>
<path d="M35.8747 29.6734L35.9891 29.7125C35.8747 29.6734 35.8747 29.6734 35.8747 29.6734ZM35.8747 29.6734V29.6734C35.8568 29.7258 35.8768 29.7836 35.9232 29.8138V29.8138L37.141 30.6056C37.1411 30.6056 37.1412 30.6056 37.1412 30.6056V30.6056C37.1413 30.6056 37.1413 30.6056 37.1413 30.6057C37.2926 30.7054 37.3425 30.8875 37.3022 31.0554C37.2616 31.2238 37.1408 31.3416 36.9819 31.3416H30.0865C29.5957 31.3416 29.1833 30.8485 29.241 30.2587C29.4656 27.9945 30.4705 23.0858 34.8292 20.1418C35.5574 19.651 36.1034 19.4466 36.5031 19.4408C36.7001 19.4379 36.8606 19.4833 36.9927 19.5658C37.1252 19.6488 37.236 19.7733 37.3259 19.9393C37.5075 20.2747 37.5968 20.765 37.6112 21.3639C37.6255 21.9598 37.5654 22.6497 37.459 23.3743C37.2465 24.823 36.8506 26.3975 36.5072 27.6116C36.3358 28.2182 36.1775 28.7339 36.0622 29.098C36.0045 29.28 35.9576 29.424 35.9251 29.5225C35.9088 29.5717 35.8962 29.6096 35.8876 29.635L35.8779 29.6638L35.8755 29.6712L35.8749 29.6729L35.8747 29.6734Z" stroke="url(#paint12_linear_36_1322)" stroke-width="1.5412"/>
</g>
<path d="M12.2903 13.4035C12.5894 13.4035 12.8318 13.1561 12.8318 12.8509C12.8318 12.5457 12.5894 12.2982 12.2903 12.2982C11.9912 12.2982 11.7488 12.5457 11.7488 12.8509C11.7488 13.1561 11.9912 13.4035 12.2903 13.4035Z" fill="url(#paint13_linear_36_1322)"/>
<path d="M28.1682 13.4035C28.4673 13.4035 28.7098 13.1561 28.7098 12.8509C28.7098 12.5457 28.4673 12.2982 28.1682 12.2982C27.8692 12.2982 27.6267 12.5457 27.6267 12.8509C27.6267 13.1561 27.8692 13.4035 28.1682 13.4035Z" fill="url(#paint14_linear_36_1322)"/>
</g>
</g>
<defs>
<filter id="filter0_d_36_1322" x="-16.6007" y="1.30257" width="73.1633" height="61.0507" filterUnits="userSpaceOnUse" color-interpolation-filters="sRGB">
<feFlood flood-opacity="0" result="BackgroundImageFix"/>
<feColorMatrix in="SourceAlpha" type="matrix" values="0 0 0 0 0 0 0 0 0 0 0 0 0 0 0 0 0 0 127 0" result="hardAlpha"/>
<feOffset dy="11.7041"/>
<feGaussianBlur stdDeviation="9.08936"/>
<feComposite in2="hardAlpha" operator="out"/>
<feColorMatrix type="matrix" values="0 0 0 0 0 0 0 0 0 0 0 0 0 0 0 0 0 0 0.25 0"/>
<feBlend mode="normal" in2="BackgroundImageFix" result="effect1_dropShadow_36_1322"/>
<feBlend mode="normal" in="SourceGraphic" in2="effect1_dropShadow_36_1322" result="shape"/>
</filter>
<filter id="filter1_d_36_1322" x="-0.765915" y="9.57257" width="42.0827" height="30.9569" filterUnits="userSpaceOnUse" color-interpolation-filters="sRGB">
<feFlood flood-opacity="0" result="BackgroundImageFix"/>
<feColorMatrix in="SourceAlpha" type="matrix" values="0 0 0 0 0 0 0 0 0 0 0 0 0 0 0 0 0 0 127 0" result="hardAlpha"/>
<feOffset dy="1.6118"/>
<feGaussianBlur stdDeviation="3.22361"/>
<feComposite in2="hardAlpha" operator="out"/>
<feColorMatrix type="matrix" values="0 0 0 0 0 0 0 0 0 0 0 0 0 0 0 0 0 0 0.25 0"/>
<feBlend mode="normal" in2="BackgroundImageFix" result="effect1_dropShadow_36_1322"/>
<feBlend mode="normal" in="SourceGraphic" in2="effect1_dropShadow_36_1322" result="shape"/>
</filter>
<filter id="filter2_d_36_1322" x="-10.7629" y="1.30257" width="62.1345" height="56.0155" filterUnits="userSpaceOnUse" color-interpolation-filters="sRGB">
<feFlood flood-opacity="0" result="BackgroundImageFix"/>
<feColorMatrix in="SourceAlpha" type="matrix" values="0 0 0 0 0 0 0 0 0 0 0 0 0 0 0 0 0 0 127 0" result="hardAlpha"/>
<feOffset dy="11.7041"/>
<feGaussianBlur stdDeviation="9.08936"/>
<feComposite in2="hardAlpha" operator="out"/>
<feColorMatrix type="matrix" values="0 0 0 0 0 0 0 0 0 0 0 0 0 0 0 0 0 0 0.25 0"/>
<feBlend mode="normal" in2="BackgroundImageFix" result="effect1_dropShadow_36_1322"/>
<feBlend mode="normal" in="SourceGraphic" in2="effect1_dropShadow_36_1322" result="shape"/>
</filter>
<filter id="filter3_dd_36_1322" x="-2.94577" y="0.639221" width="46.5003" height="40.3812" filterUnits="userSpaceOnUse" color-interpolation-filters="sRGB">
<feFlood flood-opacity="0" result="BackgroundImageFix"/>
<feColorMatrix in="SourceAlpha" type="matrix" values="0 0 0 0 0 0 0 0 0 0 0 0 0 0 0 0 0 0 127 0" result="hardAlpha"/>
<feOffset dy="1.6118"/>
<feGaussianBlur stdDeviation="3.22361"/>
<feComposite in2="hardAlpha" operator="out"/>
<feColorMatrix type="matrix" values="0 0 0 0 0 0 0 0 0 0 0 0 0 0 0 0 0 0 0.25 0"/>
<feBlend mode="normal" in2="BackgroundImageFix" result="effect1_dropShadow_36_1322"/>
<feColorMatrix in="SourceAlpha" type="matrix" values="0 0 0 0 0 0 0 0 0 0 0 0 0 0 0 0 0 0 127 0" result="hardAlpha"/>
<feOffset dy="3.22361"/>
<feGaussianBlur stdDeviation="5.18079"/>
<feComposite in2="hardAlpha" operator="out"/>
<feColorMatrix type="matrix" values="0 0 0 0 0 0 0 0 0 0 0 0 0 0 0 0 0 0 0.25 0"/>
<feBlend mode="normal" in2="effect1_dropShadow_36_1322" result="effect2_dropShadow_36_1322"/>
<feBlend mode="normal" in="SourceGraphic" in2="effect2_dropShadow_36_1322" result="shape"/>
</filter>
<filter id="filter4_d_36_1322" x="-3.18856" y="-0.825691" width="30.9465" height="31.0685" filterUnits="userSpaceOnUse" color-interpolation-filters="sRGB">
<feFlood flood-opacity="0" result="BackgroundImageFix"/>
<feColorMatrix in="SourceAlpha" type="matrix" values="0 0 0 0 0 0 0 0 0 0 0 0 0 0 0 0 0 0 127 0" result="hardAlpha"/>
<feOffset dy="1.84206"/>
<feGaussianBlur stdDeviation="6.10182"/>
<feComposite in2="hardAlpha" operator="out"/>
<feColorMatrix type="matrix" values="0 0 0 0 0 0 0 0 0 0 0 0 0 0 0 0 0 0 0.25 0"/>
<feBlend mode="normal" in2="BackgroundImageFix" result="effect1_dropShadow_36_1322"/>
<feBlend mode="normal" in="SourceGraphic" in2="effect1_dropShadow_36_1322" result="shape"/>
</filter>
<filter id="filter5_d_36_1322" x="12.7043" y="-0.825691" width="30.9465" height="31.0685" filterUnits="userSpaceOnUse" color-interpolation-filters="sRGB">
<feFlood flood-opacity="0" result="BackgroundImageFix"/>
<feColorMatrix in="SourceAlpha" type="matrix" values="0 0 0 0 0 0 0 0 0 0 0 0 0 0 0 0 0 0 127 0" result="hardAlpha"/>
<feOffset dy="1.84206"/>
<feGaussianBlur stdDeviation="6.10182"/>
<feComposite in2="hardAlpha" operator="out"/>
<feColorMatrix type="matrix" values="0 0 0 0 0 0 0 0 0 0 0 0 0 0 0 0 0 0 0.25 0"/>
<feBlend mode="normal" in2="BackgroundImageFix" result="effect1_dropShadow_36_1322"/>
<feBlend mode="normal" in="SourceGraphic" in2="effect1_dropShadow_36_1322" result="shape"/>
</filter>
<filter id="filter6_d_36_1322" x="-4.86919" y="13.8346" width="23.7418" height="26.3366" filterUnits="userSpaceOnUse" color-interpolation-filters="sRGB">
<feFlood flood-opacity="0" result="BackgroundImageFix"/>
<feColorMatrix in="SourceAlpha" type="matrix" values="0 0 0 0 0 0 0 0 0 0 0 0 0 0 0 0 0 0 127 0" result="hardAlpha"/>
<feOffset dy="1.6118"/>
<feGaussianBlur stdDeviation="3.22361"/>
<feComposite in2="hardAlpha" operator="out"/>
<feColorMatrix type="matrix" values="0 0 0 0 0 0 0 0 0 0 0 0 0 0 0 0 0 0 0.25 0"/>
<feBlend mode="normal" in2="BackgroundImageFix" result="effect1_dropShadow_36_1322"/>
<feBlend mode="normal" in="SourceGraphic" in2="effect1_dropShadow_36_1322" result="shape"/>
</filter>
<filter id="filter7_d_36_1322" x="22.0183" y="13.8346" width="22.8128" height="26.3366" filterUnits="userSpaceOnUse" color-interpolation-filters="sRGB">
<feFlood flood-opacity="0" result="BackgroundImageFix"/>
<feColorMatrix in="SourceAlpha" type="matrix" values="0 0 0 0 0 0 0 0 0 0 0 0 0 0 0 0 0 0 127 0" result="hardAlpha"/>
<feOffset dy="1.6118"/>
<feGaussianBlur stdDeviation="3.22361"/>
<feComposite in2="hardAlpha" operator="out"/>
<feColorMatrix type="matrix" values="0 0 0 0 0 0 0 0 0 0 0 0 0 0 0 0 0 0 0.25 0"/>
<feBlend mode="normal" in2="BackgroundImageFix" result="effect1_dropShadow_36_1322"/>
<feBlend mode="normal" in="SourceGraphic" in2="effect1_dropShadow_36_1322" result="shape"/>
</filter>
<linearGradient id="paint0_linear_36_1322" x1="2.43137" y1="-9.29899e-08" x2="20" y2="40" gradientUnits="userSpaceOnUse">
<stop stop-color="#80BE96"/>
<stop offset="1" stop-color="#1C6435"/>
</linearGradient>
<linearGradient id="paint1_linear_36_1322" x1="20.275" y1="15.0577" x2="20.275" y2="31.8207" gradientUnits="userSpaceOnUse">
<stop stop-color="#4BAF74"/>
<stop offset="1" stop-color="#26824B"/>
</linearGradient>
<linearGradient id="paint2_linear_36_1322" x1="20.2754" y1="15.0577" x2="20.2754" y2="31.8207" gradientUnits="userSpaceOnUse">
<stop stop-color="white"/>
<stop offset="1" stop-color="#9B9B9B" stop-opacity="0"/>
</linearGradient>
<linearGradient id="paint3_linear_36_1322" x1="20.8466" y1="7.01449" x2="20.3041" y2="27.0469" gradientUnits="userSpaceOnUse">
<stop stop-color="#32DA6D"/>
<stop offset="1" stop-color="#209F4D" stop-opacity="0.81"/>
</linearGradient>
<linearGradient id="paint4_linear_36_1322" x1="20.3043" y1="8.16547" x2="20.3043" y2="27.0468" gradientUnits="userSpaceOnUse">
<stop stop-color="white"/>
<stop offset="1" stop-color="#9B9B9B" stop-opacity="0"/>
</linearGradient>
<linearGradient id="paint5_linear_36_1322" x1="12.2849" y1="9.82706" x2="12.2849" y2="15.906" gradientUnits="userSpaceOnUse">
<stop stop-color="white"/>
<stop offset="1" stop-color="#C4C4C4"/>
</linearGradient>
<linearGradient id="paint6_linear_36_1322" x1="12.2847" y1="9.82711" x2="12.2847" y2="15.906" gradientUnits="userSpaceOnUse">
<stop/>
<stop offset="1" stop-opacity="0"/>
</linearGradient>
<linearGradient id="paint7_linear_36_1322" x1="28.1769" y1="9.82706" x2="28.1769" y2="15.906" gradientUnits="userSpaceOnUse">
<stop stop-color="white"/>
<stop offset="1" stop-color="#C4C4C4"/>
</linearGradient>
<linearGradient id="paint8_linear_36_1322" x1="28.1775" y1="9.82711" x2="28.1775" y2="15.906" gradientUnits="userSpaceOnUse">
<stop/>
<stop offset="1" stop-opacity="0"/>
</linearGradient>
<linearGradient id="paint9_linear_36_1322" x1="7.20869" y1="18.5796" x2="6.62195" y2="31.4451" gradientUnits="userSpaceOnUse">
<stop stop-color="#32DA6D"/>
<stop offset="1" stop-color="#209F4D"/>
</linearGradient>
<linearGradient id="paint10_linear_36_1322" x1="7.0017" y1="19.3198" x2="7.0017" y2="31.4624" gradientUnits="userSpaceOnUse">
<stop stop-color="white"/>
<stop offset="1" stop-color="#9B9B9B" stop-opacity="0"/>
</linearGradient>
<linearGradient id="paint11_linear_36_1322" x1="33.6112" y1="18.5796" x2="32.9617" y2="31.439" gradientUnits="userSpaceOnUse">
<stop stop-color="#32DA6D"/>
<stop offset="1" stop-color="#209F4D"/>
</linearGradient>
<linearGradient id="paint12_linear_36_1322" x1="33.4245" y1="19.3198" x2="33.4245" y2="31.4624" gradientUnits="userSpaceOnUse">
<stop stop-color="white"/>
<stop offset="1" stop-color="#9B9B9B" stop-opacity="0"/>
</linearGradient>
<linearGradient id="paint13_linear_36_1322" x1="12.2903" y1="12.2982" x2="12.2903" y2="13.4035" gradientUnits="userSpaceOnUse">
<stop stop-color="#0D0D0D"/>
<stop offset="1" stop-color="#6A6A6A"/>
</linearGradient>
<linearGradient id="paint14_linear_36_1322" x1="28.1682" y1="12.2982" x2="28.1682" y2="13.4035" gradientUnits="userSpaceOnUse">
<stop stop-color="#0D0D0D"/>
<stop offset="1" stop-color="#6A6A6A"/>
</linearGradient>
</defs>
</svg>
