<svg width="40" height="40" viewBox="0 0 40 40" fill="none" xmlns="http://www.w3.org/2000/svg">
<path opacity="0.51" d="M34.9689 13.9584H22.7463C22.1482 13.9584 21.6523 13.4728 21.6523 12.8645V7.63497C21.6523 7.03687 22.138 6.54102 22.7463 6.54102H35.5159C35.8226 6.54102 36.0629 6.78128 36.0629 7.088V12.8747C36.0528 13.4728 35.567 13.9584 34.9689 13.9584Z" fill="#AD83FF"/>
<path opacity="0.5" d="M31.9151 11.428H20.6176C20.2803 11.428 20.0195 11.1519 20.0195 10.8299V4.61372C20.0195 4.27635 20.2956 4.01562 20.6176 4.01562H31.9253C32.2626 4.01562 32.5233 4.29167 32.5233 4.61372V10.8299C32.5284 11.1672 32.2525 11.428 31.9151 11.428Z" fill="#AD83FF"/>
<path opacity="0.9" d="M39.3604 16.7951H26.1052C25.7881 16.7951 25.5273 16.5446 25.5273 16.2174V9.78662C25.5273 9.46968 25.7779 9.20898 26.1052 9.20898H39.3604C39.6772 9.20898 39.9379 9.45947 39.9379 9.78662V16.2123C39.943 16.5293 39.6772 16.7951 39.3604 16.7951Z" fill="#AD83FF"/>
<path d="M35.0169 31.436C31.5202 36.3486 25.7795 39.5539 19.2925 39.5539C8.63918 39.5539 0 30.9146 0 20.2613C0 10.0732 7.90306 1.72544 17.9122 1.01999C17.994 1.01999 18.0707 1.00977 18.1525 1.00977C18.7864 1.03021 19.2925 1.50562 19.2925 2.0935V9.05084C13.0917 9.05084 8.07176 14.0759 8.07176 20.2716C8.07176 26.4673 13.0968 31.4922 19.2925 31.4922C25.4882 31.4922 30.5133 26.4673 30.5133 20.2716C30.5133 20.2716 36.7855 22.8633 35.0169 31.436Z" fill="#925AFF"/>
<path d="M38.5325 21.7496C38.4354 20.9164 37.6889 20.2723 36.774 20.2723H20.5946C19.879 20.2723 19.2962 19.6946 19.2962 18.9738V2.09418C19.2962 1.50631 18.7901 1.0309 18.1562 1.01045C18.2278 1.01045 18.3045 1.00023 18.3761 1.00023C19.1991 0.990003 19.6387 1.32739 19.7563 1.43474L19.7665 1.44497L19.7869 1.46542L37.1624 18.8409C38.6347 20.3234 38.5325 21.7496 38.5325 21.7496Z" fill="#AD83FF"/>
<path opacity="0.91" d="M38.5221 21.7335C38.512 21.9482 38.4915 22.1578 38.471 22.3572C38.1081 25.7157 36.8811 28.8186 35.0153 31.4359C36.784 22.8581 30.5117 20.2715 30.5117 20.2715H36.7688C37.6888 20.2715 38.4351 20.9156 38.5221 21.7335Z" fill="url(#paint0_linear_8528_172824)"/>
<defs>
<linearGradient id="paint0_linear_8528_172824" x1="34.517" y1="31.8764" x2="34.517" y2="20.3203" gradientUnits="userSpaceOnUse">
<stop offset="8.52446e-08" stop-color="#925AFF"/>
<stop offset="1" stop-color="#713BBB"/>
</linearGradient>
</defs>
</svg>
