<svg
  width="100%"
  height="100%"
  viewBox="0 0 32 32"
  version="1.1"
  xmlns="http://www.w3.org/2000/svg"
  xmlns:xlink="http://www.w3.org/1999/xlink"
  xml:space="preserve"
  xmlns:serif="http://www.serif.com/"
  style="
    fill-rule: evenodd;
    clip-rule: evenodd;
    stroke-linejoin: round;
    stroke-miterlimit: 2;
  "
>
  <g transform="matrix(1,0,0,1,-0.0217729,0.0786086)">
    <g transform="matrix(0.309228,0,0,0.309228,0.347434,1.74547)">
      <path
        d="M8.494,21.754C11.884,15.104 18.98,11.812 24.484,14.357L24.767,14.494L37.254,20.894C40.016,20.103 42.969,20.305 45.598,21.464L45.989,21.644L54.507,25.928L79.625,38.656C84.113,40.947 86.503,45.856 86.468,51.333L86.462,51.655L90.95,53.816L83.206,69.097L78.67,66.8C74.397,70.21 69.018,71.285 64.49,69.155L64.151,68.989L30.66,52.05C30.614,52.07 30.56,52.07 30.514,52.05C27.954,50.752 25.947,48.574 24.861,45.917L24.719,45.552L12.439,39.273C12.399,39.225 12.345,39.189 12.285,39.171L12.245,39.164C6.703,36.369 5.045,28.517 8.495,21.754L8.494,21.754Z"
        style="fill: rgb(40, 69, 174); fill-rule: nonzero"
      />
    </g>
    <g transform="matrix(0.309228,0,0,0.309228,0.347434,1.74547)">
      <path
        d="M14.544,65.456L35.947,76.889L22.323,90.815C22.146,91.033 21.843,91.108 21.585,90.997L21.525,90.997L1.065,80.53C0.834,80.406 0.689,80.164 0.689,79.901C0.689,79.745 0.74,79.592 0.835,79.468L14.544,65.455L14.544,65.456ZM32.497,47.576L32.596,47.609L53.09,58.075C53.406,58.222 53.556,58.593 53.43,58.918L53.38,59.018C53.361,59.068 53.332,59.113 53.296,59.152L53.296,59.225L37.446,75.437L15.982,63.992L31.857,47.79C32.01,47.601 32.26,47.517 32.497,47.575L32.497,47.576ZM91.047,53.986C93.781,55.365 94.204,59.89 92.063,64.125C89.921,68.359 86.013,70.67 83.279,69.291C80.544,67.911 80.121,63.387 82.262,59.151C84.404,54.929 88.312,52.606 91.046,53.986L91.047,53.986ZM33.55,20.084C34.795,20.071 36.03,20.309 37.18,20.786C36.18,21.066 35.212,21.447 34.288,21.923L33.974,22.08L33.526,22.08C29.582,22.08 25.492,25.032 23.302,29.267C20.955,33.913 21.246,39.055 23.798,42.104C23.982,43.261 24.282,44.396 24.694,45.492C19.673,42.443 18.281,34.954 21.633,28.372C24.173,23.23 28.965,20.084 33.55,20.084ZM63.205,16.986L84.622,28.42L76.285,36.962L54.507,25.928L63.207,16.986L63.205,16.986ZM79.574,0.656L79.674,0.689L100.278,11.155C100.628,11.322 100.784,11.743 100.628,12.098C100.61,12.141 100.585,12.181 100.556,12.217L86.11,26.92L64.658,15.498L78.935,0.87C79.066,0.709 79.268,0.623 79.474,0.64L79.574,0.656Z"
        style="fill: rgb(84, 147, 247); fill-rule: nonzero"
      />
    </g>
  </g>
</svg>
