<svg width="36" height="36" viewBox="0 0 36 36" fill="none" xmlns="http://www.w3.org/2000/svg">
<path fill-rule="evenodd" clip-rule="evenodd" d="M23.7531 19.7379H19.7236V23.7737C19.7236 24.7302 18.955 25.5 18 25.5C17.045 25.5 16.2531 24.7302 16.2531 23.7737V19.7379H12.2469C11.2919 19.7379 10.5 18.9681 10.5 18.0117C10.5 17.0319 11.2919 16.2621 12.2469 16.2621H16.2531V12.2263C16.2531 11.2698 17.045 10.5 18 10.5C18.955 10.5 19.7236 11.2698 19.7236 12.2263V16.2621H23.7531C24.7081 16.2621 25.5 17.0319 25.5 18.0117C25.5 18.9681 24.7081 19.7379 23.7531 19.7379Z" fill="white"/>
</svg>
