<svg width="16" height="16" viewBox="0 0 16 16" fill="none" xmlns="http://www.w3.org/2000/svg">
<path fill-rule="evenodd" clip-rule="evenodd" d="M13.6567 9.73795H9.69482V13.7737C9.69482 14.7302 8.93908 15.5 8.00014 15.5C7.06119 15.5 6.28255 14.7302 6.28255 13.7737V9.73795H2.34356C1.40461 9.73795 0.625977 8.96812 0.625977 8.01166C0.625977 7.03188 1.40461 6.26205 2.34356 6.26205H6.28255V2.22628C6.28255 1.26983 7.06119 0.5 8.00014 0.5C8.93908 0.5 9.69482 1.26983 9.69482 2.22628V6.26205H13.6567C14.5957 6.26205 15.3743 7.03188 15.3743 8.01166C15.3743 8.96812 14.5957 9.73795 13.6567 9.73795Z" fill="white"/>
</svg>
