<svg width="24" height="24" viewBox="0 0 24 24" fill="none" xmlns="http://www.w3.org/2000/svg">
<path d="M19.2727 12.9091C19.7748 12.9091 20.1866 13.3173 20.1371 13.817C19.6815 18.4115 15.8053 22.0001 11.0909 22.0001C6.07014 22.0001 2 17.9299 2 12.9091C2 8.19476 5.58855 4.31852 10.1831 3.863C10.6827 3.81346 11.0909 4.22525 11.0909 4.72733V11.091C11.0909 12.0951 11.9049 12.9091 12.9091 12.9091H19.2727Z" fill="white"/>
<path d="M21.9553 10.1831C22.0048 10.6827 21.5936 11.0909 21.0915 11.0909C19.7439 11.0909 17.0265 11.0909 13.8183 11.0909C13.3163 11.0909 12.9091 10.6838 12.9091 10.1817C12.9091 6.97357 12.9091 4.25609 12.9091 2.90854C12.9091 2.40647 13.3173 1.99522 13.8169 2.04476C18.1129 2.47068 21.5294 5.88715 21.9553 10.1831Z" fill="white"/>
</svg>
