<svg width="50" height="50" viewBox="0 0 50 50" fill="none" xmlns="http://www.w3.org/2000/svg">
<rect width="50" height="50" rx="25" fill="#020202"/>
<g clip-path="url(#clip0_1637_54443)">
<g filter="url(#filter0_d_1637_54443)">
<path d="M26.5108 23.3682L34.4475 15.1265L31.4365 12L25.0055 18.6783L18.5746 12L15.5637 15.1265L23.5002 23.3682C23.9159 23.7998 24.4607 24.0157 25.0055 24.0157C25.5503 24.0157 26.0951 23.8 26.5108 23.3682ZM38 32.1727L31.569 25.4944L38 18.816L34.9892 15.6895L27.0529 23.9312C26.2216 24.7946 26.2216 26.1943 27.0529 27.0577L34.9892 35.2994L38 32.1729V32.1727ZM24.9945 32.3217L31.4255 39L34.4361 35.8735L26.4998 27.6318C25.6682 26.7684 24.3206 26.7684 23.489 27.6318L15.5527 35.8735L18.5635 39L24.9945 32.3217ZM22.9471 27.069C23.3465 26.6543 23.5707 26.0921 23.5707 25.5058C23.5707 24.9194 23.3465 24.357 22.9471 23.9425L15.0108 15.7008L12 18.8275L18.431 25.5058L12 32.1842L15.0108 35.3107L22.9473 27.069H22.9471Z" fill="white"/>
</g>
</g>
<defs>
<filter id="filter0_d_1637_54443" x="9.018" y="9.018" width="31.964" height="32.964" filterUnits="userSpaceOnUse" color-interpolation-filters="sRGB">
<feFlood flood-opacity="0" result="BackgroundImageFix"/>
<feColorMatrix in="SourceAlpha" type="matrix" values="0 0 0 0 0 0 0 0 0 0 0 0 0 0 0 0 0 0 127 0" result="hardAlpha"/>
<feOffset/>
<feGaussianBlur stdDeviation="1.491"/>
<feColorMatrix type="matrix" values="0 0 0 0 0 0 0 0 0 0 0 0 0 0 0 0 0 0 0.13 0"/>
<feBlend mode="normal" in2="BackgroundImageFix" result="effect1_dropShadow_1637_54443"/>
<feBlend mode="normal" in="SourceGraphic" in2="effect1_dropShadow_1637_54443" result="shape"/>
</filter>
<clipPath id="clip0_1637_54443">
<rect width="26" height="27" fill="white" transform="translate(12 12)"/>
</clipPath>
</defs>
</svg>
