<svg xmlns="http://www.w3.org/2000/svg" width="252.31" height="236.437" viewBox="0 0 252.31 236.437"><g><path d="M.843,12.28c1.688.6,3.476.6,5.76,1.191a2.456,2.456,0,0,1,2.284,2.285c.6,2.284,1.689,4.568,2.285,7.448.595,1.192,0,2.285-1.192,1.689C8.291,24.3,6.5,24.3,4.815,23.7c-1.191,0-1.688-1.192-2.284-2.284-.6-2.285-1.688-5.165-2.284-7.449-.6-1.192,0-2.284.6-1.688" fill="#fff" fill-rule="evenodd"></path><path d="M7.1.163c1.688.6,4.072,1.192,5.76,1.688,1.192,0,2.284,1.689,2.284,2.881.6,1.688,1.689,4.072,2.284,6.356.6,1.192,0,1.688-1.191,1.688a16.454,16.454,0,0,0-5.761-1.192A2.62,2.62,0,0,1,8.192,8.7C7.6,6.42,6.5,4.136,5.908,1.256c-.5-.5.1-1.689,1.192-1.093" fill="#fff" fill-rule="evenodd"></path><path d="M18.124,3.043c1.688.6,4.072,1.192,5.76,1.689,1.192.6,2.284,1.688,2.284,2.88,1.192,2.284,1.689,4.568,2.88,6.952.6,1.192,0,1.688-1.191,1.688-1.689-.6-4.072-1.192-5.761-1.688-1.192,0-2.284-1.688-2.284-2.88-.6-2.285-1.688-4.569-2.284-6.952-.6-1.093,0-1.689.6-1.689" fill="#fff" fill-rule="evenodd"></path><path d="M52.586,15.656a26.019,26.019,0,0,1,5.761,2.881c1.191.6,2.284,1.688,2.284,2.88a32.651,32.651,0,0,0,2.284,6.356c.6,1.192,0,1.688-1.192,1.192-1.688-1.192-4.072-1.689-5.76-2.285-1.192-.595-2.284-1.688-2.284-2.88a32.59,32.59,0,0,0-2.285-6.356c.1-1.788.6-1.788,1.192-1.788" fill="#fff" fill-rule="evenodd"></path><path d="M11.767,14.564c1.689.6,3.477.6,5.761,1.192a2.62,2.62,0,0,1,2.284,2.88c.6,2.284,1.688,4.568,2.284,6.952.6,1.192,0,1.688-1.192,1.688a16.223,16.223,0,0,0-5.164-1.191c-1.192,0-1.688-1.192-2.284-2.285-.6-2.284-1.689-4.568-2.284-7.448-.6-1.192,0-2.384.595-1.788" fill="#fff" fill-rule="evenodd"></path><path d="M22.692,17.444c1.689.6,4.072,1.192,5.76,1.688a2.457,2.457,0,0,1,2.285,2.285c.6,2.284,1.688,4.568,2.284,6.952.6,1.192,0,1.688-1.192,1.688a19.865,19.865,0,0,0-5.76-1.192,2.455,2.455,0,0,1-2.284-2.284c-.6-2.284-1.689-4.568-2.285-6.952,0-2.185.6-2.781,1.192-2.185" fill="#fff" fill-rule="evenodd"></path><path d="M34.213,20.324c1.688.6,4.072,1.192,5.76,1.689,1.192.595,2.284,1.688,2.284,2.88.6,2.284,1.689,4.568,2.285,6.356.6,1.192,0,1.688-1.192,1.192-1.689-.6-4.072-1.192-5.76-1.689a2.456,2.456,0,0,1-2.285-2.284c-.6-2.284-1.688-4.568-2.284-6.952-.6-.6,0-1.192,1.192-1.192" fill="#fff" fill-rule="evenodd"></path><path d="M45.733,24.3a27.838,27.838,0,0,1,5.761,2.284c1.192.6,2.284,1.688,2.284,2.88a32.628,32.628,0,0,0,2.284,6.356c.6,1.192,0,1.689-1.192,1.192a27.852,27.852,0,0,1-5.76-2.284c-1.192-.6-2.284-1.688-2.284-2.88-.6-2.284-1.688-4.569-2.284-6.356-.6-1.192,0-1.788,1.191-1.192" fill="#fff" fill-rule="evenodd"></path><path d="M57.155,28.965c1.688.6,4.072,1.688,5.76,2.284,1.192.6,2.284,1.688,2.284,2.88a32.59,32.59,0,0,0,2.285,6.356c.595,1.192,0,1.689-1.192,1.192-1.689-1.192-4.072-1.688-5.761-2.284-1.191-.6-2.284-1.689-2.284-2.88a32.659,32.659,0,0,0-2.284-6.357c-.5-1.191.1-1.787,1.192-1.191" fill="#fff" fill-rule="evenodd"></path><path d="M38.781,34.129c1.689.6,4.072,1.192,5.761,1.688,1.191.6,2.284,1.689,2.284,2.285.6,2.284,1.688,4.568,2.284,6.356.6,1.192,0,1.688-1.192,1.688-1.688-.6-4.072-1.192-5.76-1.688a2.456,2.456,0,0,1-2.284-2.284c-.6-2.285-1.689-4.569-2.284-6.952-.5-1.093,0-1.689,1.191-1.093" fill="#fff" fill-rule="evenodd"></path><path d="M49.706,37.6a27.83,27.83,0,0,1,5.76,2.284c1.192.6,2.285,1.689,2.285,2.881.6,2.284,1.688,4.071,2.284,6.356.6,1.192,0,1.688-1.192,1.192-1.688-.6-4.072-1.192-5.76-1.689-1.192-.6-2.284-1.688-2.284-2.284-.6-2.284-1.689-4.569-2.285-6.356.1-2.384.6-2.98,1.192-2.384" fill="#fff" fill-rule="evenodd"></path><path d="M32.425,45.054c1.688.6,3.476.6,5.76,1.192A2.456,2.456,0,0,1,40.47,48.53c.6,2.284,1.688,4.568,2.284,6.952.6,1.192,0,1.688-1.192,1.688-1.688-.6-3.476-.6-5.164-1.191-1.192,0-1.689-1.192-2.285-2.285-.595-2.284-1.688-4.568-2.284-6.952-1.092-1.092-.5-1.688.6-1.688" fill="#fff" fill-rule="evenodd"></path><path d="M43.35,47.338c1.688.6,4.072,1.192,5.76,1.688a2.456,2.456,0,0,1,2.284,2.285c.6,2.284,1.689,4.568,2.285,6.356.6,1.192,0,1.688-1.192,1.688a19.865,19.865,0,0,0-5.76-1.192,2.456,2.456,0,0,1-2.285-2.284c-.6-2.284-1.688-4.568-2.284-6.952-.5-.993.1-1.589,1.192-1.589" fill="#fff" fill-rule="evenodd"></path><path d="M54.275,50.814c1.688.6,4.072,1.192,5.76,1.688,1.192.6,2.284,1.689,2.284,2.881.6,2.284,1.689,4.072,2.284,6.356.6,1.192,0,1.688-1.191,1.192-1.689-.6-4.072-1.192-5.761-1.689-1.191-.6-2.284-1.192-2.284-2.284-.6-2.284-1.688-4.569-2.284-6.356.1-1.788.1-2.384,1.192-1.788" fill="#fff" fill-rule="evenodd"></path><path d="M65.8,54.787c1.689.6,4.072,1.688,5.761,2.284,1.191.6,2.284,1.688,2.284,2.88a32.651,32.651,0,0,0,2.284,6.356c.6,1.192,0,1.689-1.192,1.192-1.688-.6-4.072-1.688-5.76-2.284-1.192-.6-2.284-1.688-2.284-2.88A32.567,32.567,0,0,0,64.6,55.979c-.5-1.192.1-1.788,1.192-1.192" fill="#fff" fill-rule="evenodd"></path><path d="M65.8,22.013c2.284,1.191,4.072,2.284,6.356,3.476,1.192.6,2.285,2.284,2.881,2.88a32.52,32.52,0,0,0,2.284,6.356c.6,1.192,0,1.192-1.192.6a40.962,40.962,0,0,1-6.952-3.476c-1.192-.6-2.284-1.689-2.284-2.88A32.6,32.6,0,0,0,64.6,22.608c-.5-.595.1-1.191,1.192-.595" fill="#fff" fill-rule="evenodd"></path><path d="M69.867,34.725a29.98,29.98,0,0,0,6.356,2.88c1.192.6,2.285,2.284,2.881,2.88a32.5,32.5,0,0,0,2.284,6.356c.6,1.192,0,1.192-1.192.6a30.03,30.03,0,0,0-6.356-2.88c-1.192-.6-2.284-1.688-2.284-2.88-1.689-1.688-2.285-4.072-2.881-5.76-.5-1.192,0-1.788,1.192-1.192" fill="#fff" fill-rule="evenodd"></path><path d="M73.84,47.338c2.284,1.192,4.072,1.688,6.356,2.88a6.724,6.724,0,0,1,2.88,2.88,32.659,32.659,0,0,0,2.284,6.357c.6,1.191,0,1.191-1.191.595a30.037,30.037,0,0,0-6.357-2.88c-1.191-.6-2.284-1.688-2.284-2.88a32.651,32.651,0,0,0-2.284-6.356c-.5-.6.1-1.192.6-.6" fill="#fff" fill-rule="evenodd"></path><path d="M78.508,59.951c2.284,1.192,4.072,1.689,6.356,2.88a6.724,6.724,0,0,1,2.88,2.88,32.659,32.659,0,0,0,2.284,6.357c.6,1.191,0,1.191-1.192.6-2.284-1.192-4.071-1.689-6.356-2.881C81.288,69.188,80.2,68.1,80.2,66.9a32.651,32.651,0,0,0-2.284-6.356c-1.192-.6-.6-1.092.6-.6" fill="#fff" fill-rule="evenodd"></path><path d="M77.912,28.965a70.692,70.692,0,0,1,6.356,4.072,8.244,8.244,0,0,1,2.88,3.476,32.651,32.651,0,0,0,2.284,6.356c.6,1.192,0,1.192-1.191.6-2.285-1.689-4.569-2.88-6.357-4.072-1.191-.6-2.284-2.284-2.88-2.88a32.659,32.659,0,0,0-2.284-6.357c-.5-1.787,0-1.787,1.192-1.191" fill="#fff" fill-rule="evenodd"></path><path d="M91.121,37.6c2.284,1.688,4.568,4.072,6.952,5.76,1.192,1.192,2.284,2.881,2.88,3.476a57.012,57.012,0,0,0,2.284,6.357c.6,1.191-.6,1.191-1.688,0-2.284-1.689-4.569-4.072-6.952-5.761a14.783,14.783,0,0,1-2.88-3.476A32.59,32.59,0,0,0,89.432,37.6c0-.6.6-1.192,1.689,0" fill="#fff" fill-rule="evenodd"></path><path d="M105.521,50.218a106.546,106.546,0,0,1,9.237,10.925c1.688,2.284,16.089,45.487,16.089,45.487S118.73,72.068,117.638,70.379c-2.88-4.072-6.356-7.448-8.64-10.329a17.088,17.088,0,0,1-2.881-4.071c-.6-1.689-1.191-4.072-1.688-5.761-1.192-1.688-.1-1.192,1.092,0" fill="#fff" fill-rule="evenodd"></path><path d="M95.193,49.622a68.75,68.75,0,0,1,6.952,5.761c1.192,1.191,2.284,2.88,2.88,3.476a32.651,32.651,0,0,0,2.284,6.356c.6,1.192-.6,1.192-1.688,0-2.284-1.688-4.569-4.072-6.952-5.76a8.249,8.249,0,0,1-2.88-3.476A32.6,32.6,0,0,0,93.5,49.622c-.1-.6.5-.6,1.689,0" fill="#fff" fill-rule="evenodd"></path><path d="M109.593,62.335a86.047,86.047,0,0,1,8.641,10.329c1.688,1.688,12.613,33.966,12.613,33.966S122.8,82.992,121.114,81.3c-2.88-3.476-5.76-6.952-8.64-9.236A17.093,17.093,0,0,1,109.593,68c-.595-2.285-1.191-4.072-1.688-5.761-.7-1.688.5-1.092,1.688.1" fill="#fff" fill-rule="evenodd"></path><path d="M86.552,53.694c2.284,1.192,4.072,2.88,6.356,4.072a8.252,8.252,0,0,1,2.881,3.476A32.5,32.5,0,0,0,98.073,67.6c.6,1.192,0,1.192-1.192.6a70.55,70.55,0,0,1-6.356-4.072c-1.192-.595-2.284-1.688-2.284-2.88a32.59,32.59,0,0,0-2.285-6.356c-1.092-1.192-.6-1.788.6-1.192" fill="#fff" fill-rule="evenodd"></path><path d="M99.165,62.335a68.514,68.514,0,0,1,6.952,5.76c1.192,1.192,2.285,2.88,2.881,3.476a32.52,32.52,0,0,0,2.284,6.356c.6,1.192-.6,1.192-1.689,0-2.284-1.688-4.568-3.476-6.952-5.164a8.257,8.257,0,0,1-2.88-3.476,32.651,32.651,0,0,0-2.284-6.356c0-1.192.6-1.788,1.688-.6" fill="#fff" fill-rule="evenodd"></path><path d="M113.566,74.352c2.88,2.284,5.76,5.76,8.641,9.236,1.688,1.689,9.236,23.042,9.236,23.042s-4.569-12.117-6.356-13.8c-2.88-3.476-5.761-6.357-8.045-8.641a17.087,17.087,0,0,1-2.88-4.072c-.6-1.688-1.192-4.072-1.688-5.76-1.192-1.688,0-1.093,1.092,0" fill="#fff" fill-rule="evenodd"></path><path d="M90.525,66.307c2.284,1.192,4.072,2.881,6.356,4.072a8.256,8.256,0,0,1,2.88,3.476,32.659,32.659,0,0,0,2.284,6.357c.6,1.191,0,1.191-1.191.595A70.8,70.8,0,0,1,94.5,76.736c-1.191-.6-2.284-1.689-2.284-2.881A32.651,32.651,0,0,0,89.929,67.5c-1.093-1.192-.5-1.788.6-1.192" fill="#fff" fill-rule="evenodd"></path><path d="M103.833,74.948c2.284,1.688,4.569,3.476,6.952,5.164,1.192,1.192,2.284,2.88,2.88,3.476a32.6,32.6,0,0,0,2.285,6.357c.6,1.191-.6,1.191-1.689,0-2.284-1.689-4.568-3.477-6.952-5.165a8.25,8.25,0,0,1-2.88-3.476,32.651,32.651,0,0,0-2.284-6.356c-.6-.6.5-1.192,1.688,0" fill="#fff" fill-rule="evenodd"></path><path d="M117.638,85.873c2.88,2.284,5.164,5.164,8.045,8.64,1.191,1.688,5.164,11.521,5.164,11.521a19.468,19.468,0,0,1-2.284-2.88c-2.88-2.881-5.165-5.761-8.045-8.045-1.192-1.192-2.284-2.88-2.88-3.476-.6-1.688-1.192-4.072-1.688-5.76-.6-1.093.5-1.093,1.688,0" fill="#fff" fill-rule="evenodd"></path><path d="M102.045,236.038c1.689-1.688,3.476-2.88,5.165-4.569a1.682,1.682,0,0,0,0-2.284c-1.689-1.688-2.88-3.476-4.569-4.568-.6-.6-1.191-.6-2.284,0a37.041,37.041,0,0,1-5.164,4.072,1.019,1.019,0,0,0,0,1.688c1.688,1.688,2.88,3.476,4.568,5.164,1.192,1.093,1.788,1.093,2.284.5M86.552,200.979c1.689-1.688,3.476-2.88,5.165-4.568a1.684,1.684,0,0,0,0-2.284c-1.192-1.689-2.881-2.88-4.072-4.569a1.02,1.02,0,0,0-1.689,0c-1.688,1.192-3.476,2.88-5.164,4.072a1.019,1.019,0,0,0,0,1.688c1.688,1.689,2.88,3.477,4.568,4.569C85.36,201.575,85.956,201.575,86.552,200.979Zm9.237-8.64c1.688-1.688,2.88-3.476,4.568-4.569a1.682,1.682,0,0,0,0-2.284c-1.192-1.688-2.88-2.88-4.072-4.568a1.019,1.019,0,0,0-1.688,0l-4.569,4.568a1.02,1.02,0,0,0,0,1.689c1.192,1.688,2.88,2.88,4.072,4.568C94.6,192.935,95.193,192.935,95.789,192.339Zm8.541-9.236a37.047,37.047,0,0,0,4.072-5.165,1.682,1.682,0,0,0,0-2.284c-1.192-1.192-2.285-2.88-4.072-4.072a1.02,1.02,0,0,0-1.689,0c-1.688,1.688-2.88,3.476-4.568,5.164a1.684,1.684,0,0,0,0,2.285c1.192,1.688,2.88,2.88,4.072,4.568C103.237,184.294,103.833,183.7,104.33,183.1Zm8.144-9.733c1.191-1.689,2.284-3.476,4.072-5.761a1.684,1.684,0,0,0,0-2.284,24.667,24.667,0,0,1-3.477-4.072c-.595-.6-1.191-.6-1.688.6-1.192,1.688-2.88,3.476-4.072,5.164a1.684,1.684,0,0,0,0,2.285c1.192,1.192,2.284,2.88,4.072,4.072C110.686,174.462,111.878,174.462,112.474,173.37Zm6.852-10.428a60.884,60.884,0,0,0,3.476-6.357,1.682,1.682,0,0,0,0-2.284,14.853,14.853,0,0,1-2.88-3.476c-.6-.6-1.192,0-1.688.6-1.192,1.688-2.284,4.072-4.072,5.76a1.684,1.684,0,0,0,0,2.285,24.655,24.655,0,0,1,3.476,4.071C118.234,164.133,118.73,163.537,119.326,162.942Zm6.357-11.422c1.191-2.284,1.688-4.568,2.88-6.952.6-.6,0-1.688,0-2.284l-2.88-2.88c-.6-.6-.6,0-1.192.6-1.192,2.284-2.284,4.072-3.476,6.356a1.682,1.682,0,0,0,0,2.284,14.828,14.828,0,0,1,2.88,3.476C124.491,152.613,125.087,152.017,125.683,151.52Zm4.568-13.308c.6-2.284,1.192-5.164,1.688-8.045v-2.284l-1.688-1.688a2.081,2.081,0,0,0-.6,1.192c-.6,2.284-1.688,4.568-2.284,6.952a1.682,1.682,0,0,0,0,2.284c.6,1.192,1.688,1.688,2.284,2.88C129.655,139.4,130.251,139.4,130.251,138.212Zm-26.418,62.767c1.688-1.688,2.88-3.476,4.569-5.164a1.682,1.682,0,0,0,0-2.284c-1.192-1.689-2.881-2.88-4.072-4.569a1.02,1.02,0,0,0-1.689,0c-1.688,1.689-2.88,3.476-4.568,4.569a1.682,1.682,0,0,0,0,2.284c1.192,1.688,2.88,2.88,4.072,4.569C102.641,201.575,103.237,201.575,103.833,200.979Zm8.045-9.236c1.191-1.688,2.88-3.476,4.072-5.164a1.684,1.684,0,0,0,0-2.285l-4.072-4.072a1.021,1.021,0,0,0-1.689,0c-1.191,1.689-2.88,3.477-4.072,5.165a1.682,1.682,0,0,0,0,2.284c1.192,1.689,2.881,2.88,4.072,4.569A1.716,1.716,0,0,0,111.878,191.743Zm7.448-10.329c1.192-1.688,2.285-4.072,3.476-5.76a1.682,1.682,0,0,0,0-2.284,24.755,24.755,0,0,1-3.476-4.072c-.6-.6-1.191,0-1.688.6-1.192,1.688-2.284,4.072-4.072,5.76a1.682,1.682,0,0,0,0,2.284c1.192,1.192,2.284,2.88,4.072,4.072A1.994,1.994,0,0,0,119.326,181.414Zm6.357-11.52a30.037,30.037,0,0,0,2.88-6.357,1.682,1.682,0,0,0,0-2.284,14.8,14.8,0,0,1-2.88-3.476c-.6-.6-1.192,0-1.192.6-1.192,2.284-2.284,4.072-3.476,6.356a1.684,1.684,0,0,0,0,2.285,24.655,24.655,0,0,1,3.476,4.071A11.992,11.992,0,0,1,125.683,169.894Zm5.164-12.713c.6-2.284,1.688-4.568,2.284-7.448v-2.285l-2.88-2.88c-.6-.6-.6,0-1.192,1.192a36.9,36.9,0,0,1-2.88,6.952,1.682,1.682,0,0,0,0,2.284,14.848,14.848,0,0,1,2.88,3.476C130.251,158.373,130.847,158.373,130.847,157.181Zm4.072-14.3a42.169,42.169,0,0,0,.6-8.641c0-1.191,0-2.284-.6-2.284l-1.688-1.688a2.49,2.49,0,0,0-.6,1.688c-.6,2.88-1.192,5.76-1.689,8.045v2.284c.6,1.192,1.689,1.688,2.285,2.88C134.323,144.568,134.323,143.972,134.919,142.88Zm-31.682,75.877c1.689-1.688,3.476-2.88,4.569-4.569a1.682,1.682,0,0,0,0-2.284c-1.192-1.688-2.88-2.88-4.072-4.568a1.02,1.02,0,0,0-1.689,0c-1.688,1.688-3.476,2.88-4.568,4.568a1.02,1.02,0,0,0,0,1.689c1.688,1.688,2.88,3.476,4.568,4.568C101.549,218.757,102.641,219.353,103.237,218.757Zm8.641-9.137c1.191-1.688,2.88-3.476,4.072-5.164a1.684,1.684,0,0,0,0-2.285c-1.192-1.688-2.881-2.88-4.072-4.568a1.02,1.02,0,0,0-1.689,0c-1.688,1.688-2.88,3.476-4.568,5.164a1.682,1.682,0,0,0,0,2.284c1.192,1.689,2.88,2.881,4.072,4.569A1.781,1.781,0,0,0,111.878,209.62Zm7.448-9.832a48.048,48.048,0,0,0,4.072-5.761,1.682,1.682,0,0,0,0-2.284c-1.191-1.192-2.284-2.88-4.072-4.072-.6-.6-1.191-.6-1.688.6a48.145,48.145,0,0,0-4.072,5.76,1.684,1.684,0,0,0,0,2.285c1.192,1.688,2.88,2.88,4.072,4.568C118.234,200.384,118.73,200.384,119.326,199.788Zm6.952-10.925c1.192-2.284,2.285-4.072,3.477-6.356a1.686,1.686,0,0,0,0-2.285,24.657,24.657,0,0,1-3.477-4.071c-.595-.6-1.191,0-1.688.595a48.91,48.91,0,0,1-3.476,5.761,1.682,1.682,0,0,0,0,2.284c1.192,1.192,2.284,2.88,4.072,4.072C125.087,189.459,126.278,189.459,126.278,188.863Zm5.761-12.117a29.985,29.985,0,0,0,2.284-6.952V167.51a14.828,14.828,0,0,1-2.88-3.476c-.6-.6-1.192,0-1.192.6-1.192,2.284-1.688,4.568-2.88,6.952a1.682,1.682,0,0,0,0,2.284l3.476,3.476C131.443,177.938,132.039,177.342,132.039,176.746Zm4.568-13.8c.6-2.881,1.192-5.165,1.689-8.045,0-1.192,0-2.284-.6-2.284-.6-1.192-1.689-1.689-2.88-2.88-.6-.6-.6,0-1.192,1.191a31.252,31.252,0,0,1-2.284,7.449v2.284a14.873,14.873,0,0,1,2.88,3.476C136.011,164.729,136.607,164.133,136.607,162.942Zm2.285-15.494v-9.733a23.407,23.407,0,0,0-.6-2.88l-1.689-1.688a2.49,2.49,0,0,0-.6,1.688c0,3.476-.6,6.356-.6,9.237,0,1.191,0,2.284.6,2.284.6,1.192,1.689,1.688,2.285,2.88C138.892,149.137,138.892,148.64,138.892,147.448ZM111.282,227.4c1.688-1.688,2.88-3.476,4.568-5.164a1.682,1.682,0,0,0,0-2.284c-1.191-1.689-2.88-2.88-4.072-4.569a1.019,1.019,0,0,0-1.688,0c-1.688,1.689-2.88,3.476-4.569,4.569a1.684,1.684,0,0,0,0,2.284c1.689,1.688,2.881,3.476,4.569,4.569C110.09,227.993,110.686,227.993,111.282,227.4Zm8.64-9.137c1.192-1.688,2.88-3.476,4.072-5.164a1.682,1.682,0,0,0,0-2.284c-1.192-1.689-2.88-2.88-4.072-4.569a1.019,1.019,0,0,0-1.688,0c-1.192,1.689-2.88,3.476-4.072,5.165a1.682,1.682,0,0,0,0,2.284c1.192,1.688,2.88,2.88,4.072,4.568C118.234,218.757,119.326,218.757,119.922,218.26Zm13.805-21.948c1.192-2.285,1.689-4.569,2.88-6.952.6-.6,0-1.689,0-2.285A24.713,24.713,0,0,1,133.131,183c-.6-.6-1.192,0-1.688.6a29.98,29.98,0,0,0-2.88,6.356,1.684,1.684,0,0,0,0,2.285c1.192,1.191,2.284,2.88,4.072,4.072C132.535,197.5,133.131,196.908,133.727,196.312ZM138.3,183.7c.6-2.285,1.688-4.569,2.284-7.449v-2.284a14.848,14.848,0,0,1-2.88-3.476c-.6-.6-1.192,0-1.192,1.191-.6,2.285-1.688,4.569-2.284,6.952-.6.6,0,1.689,0,2.285a24.624,24.624,0,0,1,3.476,4.072C137.7,184.89,138.3,184.294,138.3,183.7Zm4.072-14.4c.6-2.88.6-5.761,1.191-8.641,0-1.191,0-2.284-.6-2.88l-2.88-2.88c-.6-.6-.6,0-.6,1.192-.595,2.88-1.191,5.76-1.688,8.044,0,1.192,0,2.285.6,2.285a14.808,14.808,0,0,1,2.88,3.476C141.772,170.986,141.772,170.49,142.368,169.3Zm1.092-16.685a74.743,74.743,0,0,0-1.192-10.925,7.022,7.022,0,0,0-.6-2.88l-1.688-1.689v1.689a60.652,60.652,0,0,1,.6,10.329c0,1.191,0,2.284.6,2.88.6,1.192,1.688,1.688,2.284,2.88Zm-3.377-22.446a148.586,148.586,0,0,0-6.952-17.281,31.089,31.089,0,0,0-2.284-4.568V110.6a45.14,45.14,0,0,1-.6,9.237v2.284l1.688,1.688a2.49,2.49,0,0,0,.6-1.688,74.872,74.872,0,0,0-1.191-10.925,9.562,9.562,0,0,1-.6-2.88,7.022,7.022,0,0,1,.6,2.88c1.191,4.072,1.191,8.045,1.688,11.521,0,1.191,0,2.284.6,2.284l1.688,1.688v-2.284a72.8,72.8,0,0,0-2.88-13.209c-.6-1.688-1.192-3.476-1.192-3.476s.6,1.688,1.192,3.476a98.294,98.294,0,0,1,3.476,13.209,23.366,23.366,0,0,0,.6,2.88l1.688,1.689v-2.285a116.881,116.881,0,0,0-4.568-15,23.3,23.3,0,0,1-1.689-4.072,12.015,12.015,0,0,1,1.689,4.072,117.446,117.446,0,0,1,5.164,15.493c.695,1.887.695,2.979,1.291,2.979l1.689,1.689C140.58,133.048,140.58,131.955,140.083,130.167Zm-54.723,87.5c1.689-1.192,3.476-2.881,5.165-4.072a1.02,1.02,0,0,0,0-1.689c-1.689-1.688-2.88-3.476-4.569-4.568a1.682,1.682,0,0,0-2.284,0c-1.688,1.191-3.476,2.88-5.164,4.072a1.019,1.019,0,0,0,0,1.688c1.688,1.688,2.88,3.476,4.568,5.164C83.672,217.665,84.864,218.26,85.36,217.665Z" fill="#fff" fill-rule="evenodd"></path><path d="M189.543,134.239l60.979-60.384H198.779l-35.158,34.463L128.563,73.756h-7.449a54.334,54.334,0,0,0,2.88,6.356,381.614,381.614,0,0,1,11.521,38.535q17.28,19.813,15.493,53.531l12.117-12.117L200.567,197.5H252.31l-58.2-58.695-4.568-4.569" fill="#fff" fill-rule="evenodd"></path></g></svg>