<svg width="24" height="24" viewBox="0 0 24 24" fill="none" xmlns="http://www.w3.org/2000/svg">
<g id="Icon/Chart">
<g id="Chart">
<path id="Chart_2" fill-rule="evenodd" clip-rule="evenodd" d="M7.33 2H16.669C20.07 2 21.99 3.929 22 7.33V16.67C22 20.07 20.07 22 16.669 22H7.33C3.929 22 2 20.07 2 16.67V7.33C2 3.929 3.929 2 7.33 2ZM12.049 17.86C12.48 17.86 12.839 17.54 12.879 17.11V6.92C12.919 6.61 12.77 6.299 12.5 6.13C12.219 5.96 11.879 5.96 11.61 6.13C11.339 6.299 11.19 6.61 11.219 6.92V17.11C11.27 17.54 11.629 17.86 12.049 17.86ZM16.65 17.86C17.07 17.86 17.429 17.54 17.48 17.11V13.83C17.509 13.509 17.36 13.21 17.089 13.04C16.82 12.87 16.48 12.87 16.2 13.04C15.929 13.21 15.78 13.509 15.82 13.83V17.11C15.86 17.54 16.219 17.86 16.65 17.86ZM8.219 17.11C8.179 17.54 7.82 17.86 7.389 17.86C6.959 17.86 6.599 17.54 6.56 17.11V10.2C6.53 9.889 6.679 9.58 6.95 9.41C7.219 9.24 7.56 9.24 7.83 9.41C8.099 9.58 8.25 9.889 8.219 10.2V17.11Z" fill="white"/>
</g>
</g>
</svg>
