<svg width="16" height="16" viewBox="0 0 16 16" fill="none" xmlns="http://www.w3.org/2000/svg">
<path d="M14.3748 1.62518C16.3751 3.62542 16.3751 6.86844 14.3748 8.86868C12.7819 10.4616 10.4009 10.786 8.48695 9.84182C8.17416 9.68751 7.7908 9.72253 7.54418 9.96915C7.31318 10.2001 7.26872 10.5533 7.37992 10.8605C7.85845 12.1824 7.56783 13.7201 6.50805 14.7798C5.04784 16.2401 2.68037 16.2401 1.22016 14.7798C-0.240053 13.3196 -0.240053 10.9521 1.22016 9.49193C2.27977 8.43231 3.81713 8.14161 5.13887 8.61983C5.44613 8.731 5.79939 8.68651 6.03044 8.45545C6.27713 8.20876 6.31218 7.8253 6.15788 7.5124C5.21414 5.5986 5.53863 3.2179 7.13135 1.62518C9.13158 -0.375059 12.3746 -0.37506 14.3748 1.62518Z" fill="#FA825D"/>
</svg>
