<svg width="32" height="32" viewBox="0 0 32 32" fill="none" xmlns="http://www.w3.org/2000/svg">
<path fill-rule="evenodd" clip-rule="evenodd" d="M19.7855 23.3469L15.9865 19.5479L12.1815 23.3528C11.2798 24.2546 9.82929 24.2557 8.92893 23.3554C8.02858 22.455 8.00775 20.9826 8.9095 20.0808L12.7145 16.2759L8.93737 12.4988C8.03701 11.5984 8.01618 10.126 8.91794 9.22422C9.84168 8.30047 11.3141 8.3213 12.2145 9.22166L15.9916 12.9987L19.7965 9.19379C20.6983 8.29203 22.1707 8.31287 23.0711 9.21322C23.9714 10.1136 23.9703 11.564 23.0685 12.4658L19.2636 16.2708L23.0626 20.0698C23.963 20.9702 23.9838 22.4426 23.0601 23.3664C22.1583 24.2681 20.6859 24.2473 19.7855 23.3469Z" fill="#8E83AA"/>
</svg>
