<svg width="40" height="41" viewBox="0 0 40 41" fill="none" xmlns="http://www.w3.org/2000/svg">
<rect y="0.5" width="40" height="40" rx="20" fill="#3C356D"/>
<path d="M15.0502 24.036C14.6597 24.4265 14.6597 25.0597 15.0502 25.4502C15.4407 25.8407 16.0739 25.8407 16.4644 25.4502L20 21.9147L23.5355 25.4502C23.926 25.8407 24.5592 25.8407 24.9497 25.4502C25.3402 25.0597 25.3402 24.4265 24.9497 24.036L21.4142 20.5004L24.9497 16.9649C25.3402 16.5744 25.3402 15.9412 24.9497 15.5507C24.5592 15.1602 23.926 15.1602 23.5355 15.5507L20 19.0862L16.4644 15.5507C16.0739 15.1602 15.4408 15.1602 15.0502 15.5507C14.6597 15.9412 14.6597 16.5744 15.0502 16.9649L18.5858 20.5004L15.0502 24.036Z" fill="white" fill-opacity="0.87"/>
</svg>
