<svg width="24" height="24" viewBox="0 0 24 24" fill="#E0E0E0" xmlns="http://www.w3.org/2000/svg">
<circle cx="12" cy="12" r="12" fill="#E0E0E0"/>
<path fill-rule="evenodd" clip-rule="evenodd" d="M14.8391 17.5102L11.9899 14.6609L9.13614 17.5146C8.45982 18.1909 7.37196 18.1918 6.6967 17.5165C6.02143 16.8413 6.00581 15.7369 6.68212 15.0606L9.53584 12.2069L6.70303 9.37407C6.02776 8.6988 6.01214 7.59448 6.68845 6.91816C7.38126 6.22535 8.48559 6.24098 9.16085 6.91624L11.9937 9.74906L14.8474 6.89534C15.5237 6.21902 16.628 6.23465 17.3033 6.90991C17.9786 7.58518 17.9777 8.67304 17.3014 9.34935L14.4477 12.2031L17.297 15.0524C17.9722 15.7276 17.9879 16.832 17.2951 17.5248C16.6187 18.2011 15.5144 18.1855 14.8391 17.5102Z" fill="#230B34"/>
</svg>