<svg width="16" height="15" viewBox="0 0 16 16" fill="none" xmlns="http://www.w3.org/2000/svg">
  <path fill-rule="evenodd" clip-rule="evenodd"
    d="M9.89276 11.6735L7.99324 9.77394L6.09076 11.6764C5.63988 12.1273 4.91464 12.1279 4.46447 11.6777C4.01429 11.2275 4.00387 10.4913 4.45475 10.0404L6.35723 8.13794L4.46868 6.24939C4.01851 5.79921 4.00809 5.06299 4.45897 4.61212C4.92084 4.15024 5.65706 4.16066 6.10724 4.61084L7.99578 6.49938L9.89826 4.5969C10.3491 4.14603 11.0854 4.15644 11.5355 4.60662C11.9857 5.0568 11.9851 5.78203 11.5343 6.23291L9.63179 8.13539L11.5313 10.0349C11.9815 10.4851 11.9919 11.2213 11.53 11.6832C11.0792 12.1341 10.3429 12.1236 9.89276 11.6735Z"
    fill="white" fill-opacity="0.95" />
</svg>