<svg width="24" height="24" viewBox="0 0 24 24" fill="none" xmlns="http://www.w3.org/2000/svg">
<path fill-rule="evenodd" clip-rule="evenodd" d="M19 21C19 21.5523 19.4477 22 20 22C20.5523 22 21 21.5523 21 21V3C21 2.44772 20.5523 2 20 2C19.4477 2 19 2.44772 19 3V21ZM16.2076 12.7071C16.5981 12.3166 16.5981 11.6834 16.2076 11.2929L10.7076 5.79289C10.3171 5.40237 9.68391 5.40237 9.29338 5.79289C8.90286 6.18342 8.90286 6.81658 9.29338 7.20711L13.0863 11L3.00049 11C2.4482 11 2.00049 11.4477 2.00049 12C2.00049 12.5523 2.4482 13 3.00049 13L13.0863 13L9.29338 16.7929C8.90286 17.1834 8.90286 17.8166 9.29338 18.2071C9.68391 18.5976 10.3171 18.5976 10.7076 18.2071L16.2076 12.7071Z" fill="#B3B1FD"/>
</svg>
