<svg width="30" height="30" viewBox="0 0 30 30" fill="none" xmlns="http://www.w3.org/2000/svg">
<path d="M8.63314 11.3732C10.0874 11.3732 11.2663 10.2063 11.2663 8.76669C11.2663 7.32714 10.0874 6.16016 8.63314 6.16016C7.1789 6.16016 6 7.32714 6 8.76669C6 10.2063 7.1789 11.3732 8.63314 11.3732Z" fill="#8E83AA"/>
<path d="M14.9534 11.3732C16.4077 11.3732 17.5866 10.2063 17.5866 8.76669C17.5866 7.32714 16.4077 6.16016 14.9534 6.16016C13.4992 6.16016 12.3203 7.32714 12.3203 8.76669C12.3203 10.2063 13.4992 11.3732 14.9534 11.3732Z" fill="#8E83AA"/>
<path d="M21.2738 11.3732C22.728 11.3732 23.9069 10.2063 23.9069 8.76669C23.9069 7.32714 22.728 6.16016 21.2738 6.16016C19.8195 6.16016 18.6406 7.32714 18.6406 8.76669C18.6406 10.2063 19.8195 11.3732 21.2738 11.3732Z" fill="#8E83AA"/>
<path d="M8.63314 17.6271C10.0874 17.6271 11.2663 16.4602 11.2663 15.0206C11.2663 13.581 10.0874 12.4141 8.63314 12.4141C7.1789 12.4141 6 13.581 6 15.0206C6 16.4602 7.1789 17.6271 8.63314 17.6271Z" fill="#8E83AA"/>
<path d="M21.2738 17.6271C22.728 17.6271 23.9069 16.4602 23.9069 15.0206C23.9069 13.581 22.728 12.4141 21.2738 12.4141C19.8195 12.4141 18.6406 13.581 18.6406 15.0206C18.6406 16.4602 19.8195 17.6271 21.2738 17.6271Z" fill="#8E83AA"/>
<path d="M8.63314 23.8849C10.0874 23.8849 11.2663 22.718 11.2663 21.2784C11.2663 19.8389 10.0874 18.6719 8.63314 18.6719C7.1789 18.6719 6 19.8389 6 21.2784C6 22.718 7.1789 23.8849 8.63314 23.8849Z" fill="#8E83AA"/>
<path d="M14.9534 23.8849C16.4077 23.8849 17.5866 22.718 17.5866 21.2784C17.5866 19.8389 16.4077 18.6719 14.9534 18.6719C13.4992 18.6719 12.3203 19.8389 12.3203 21.2784C12.3203 22.718 13.4992 23.8849 14.9534 23.8849Z" fill="#8E83AA"/>
<path d="M14.567 12.6715L12.5833 14.6352C12.3681 14.8482 12.3681 15.1936 12.5833 15.4066L14.567 17.3704C14.7822 17.5834 15.1311 17.5834 15.3463 17.3704L17.3301 15.4066C17.5453 15.1936 17.5453 14.8482 17.3301 14.6352L15.3463 12.6715C15.1311 12.4585 14.7822 12.4585 14.567 12.6715Z" fill="#8E83AA"/>
<path d="M20.8835 18.9293L18.8997 20.8931C18.6845 21.1061 18.6845 21.4514 18.8997 21.6644L20.8835 23.6282C21.0987 23.8412 21.4475 23.8412 21.6627 23.6282L23.6465 21.6644C23.8617 21.4514 23.8617 21.1061 23.6465 20.8931L21.6627 18.9293C21.4475 18.7163 21.0987 18.7163 20.8835 18.9293Z" fill="#8E83AA"/>
</svg>
