<svg width="14" height="14" viewBox="0 0 14 14" fill="none" xmlns="http://www.w3.org/2000/svg">
<path d="M0 7C0 6.64855 0.285734 6.36698 0.635473 6.3323C3.64264 6.03416 6.03416 3.64264 6.3323 0.635473C6.36698 0.285734 6.64855 0 7 0C7.35145 0 7.63302 0.285734 7.6677 0.635473C7.96584 3.64263 10.3574 6.03416 13.3645 6.3323C13.7143 6.36698 14 6.64855 14 7C14 7.35145 13.7143 7.63302 13.3645 7.6677C10.3574 7.96585 7.96585 10.3574 7.6677 13.3645C7.63302 13.7143 7.35145 14 7 14C6.64855 14 6.36698 13.7143 6.3323 13.3645C6.03416 10.3574 3.64263 7.96584 0.635473 7.6677C0.285734 7.63302 0 7.35145 0 7Z" fill="#F5A68C"/>
</svg>
