<svg width="24" height="24" viewBox="0 0 24 24" fill="none" xmlns="http://www.w3.org/2000/svg">
<path fill-rule="evenodd" clip-rule="evenodd" d="M3 2C3 1.44772 2.55228 1 2 1C1.44772 1 1 1.44772 1 2V21C1 21.5523 1.44772 22 2 22H21C21.5523 22 22 21.5523 22 21C22 20.4477 21.5523 20 21 20H3V2ZM22.6809 8.73239C23.0854 8.35634 23.1084 7.7236 22.7324 7.31911C22.3563 6.91462 21.7236 6.89157 21.3191 7.26761L15.8824 12.3221L12.3279 9.01761C11.9441 8.6608 11.35 8.6608 10.9662 9.01761L5.31911 14.2676C4.91462 14.6437 4.89157 15.2764 5.26761 15.6809C5.64366 16.0854 6.2764 16.1084 6.68089 15.7324L11.6471 11.1154L15.2015 14.4199C15.5853 14.7767 16.1794 14.7767 16.5632 14.4199L22.6809 8.73239Z" fill="#D3D1FF"/>
</svg>
