<svg width="16" height="8" viewBox="0 0 16 8" fill="none" xmlns="http://www.w3.org/2000/svg">
<path d="M4.42685 0.647727C4.88139 0.647727 5.29616 0.714015 5.67116 0.846591C6.04616 0.975379 6.38329 1.14205 6.68253 1.34659C6.98556 1.55114 7.25071 1.76326 7.47798 1.98295C7.58404 2.08144 7.67685 2.17614 7.75639 2.26705C7.83973 2.35417 7.92117 2.44318 8.00071 2.53409C8.07268 2.44318 8.14844 2.35417 8.22798 2.26705C8.30753 2.17992 8.40223 2.08523 8.51207 1.98295C8.85677 1.64962 9.2848 1.3447 9.79617 1.06818C10.3113 0.787879 10.9041 0.647727 11.5746 0.647727C12.2109 0.647727 12.7905 0.801136 13.3132 1.10795C13.8359 1.41477 14.2507 1.82576 14.5575 2.34091C14.8681 2.85606 15.0234 3.42424 15.0234 4.04545C15.0234 4.51515 14.9344 4.95644 14.7564 5.36932C14.5784 5.7822 14.3303 6.14394 14.0121 6.45455C13.6977 6.76515 13.3322 7.00758 12.9155 7.18182C12.4988 7.35606 12.0518 7.44318 11.5746 7.44318C11.12 7.44318 10.7053 7.38068 10.3303 7.25568C9.95526 7.12689 9.61813 6.96402 9.31889 6.76705C9.01965 6.57008 8.75639 6.36553 8.52912 6.15341C8.41548 6.04356 8.317 5.94318 8.23366 5.85227C8.15033 5.76136 8.07268 5.67045 8.00071 5.57955C7.91738 5.67424 7.83404 5.76894 7.75071 5.86364C7.66738 5.95455 7.57268 6.05114 7.46662 6.15341C7.24692 6.35795 6.98745 6.56061 6.68821 6.76136C6.38897 6.95833 6.04995 7.12121 5.67116 7.25C5.29616 7.37879 4.88139 7.44318 4.42685 7.44318C3.79048 7.44318 3.21094 7.29167 2.68821 6.98864C2.16548 6.68182 1.74882 6.27273 1.43821 5.76136C1.1276 5.24621 0.972301 4.67424 0.972301 4.04545C0.972301 3.57955 1.06132 3.14205 1.23935 2.73295C1.41738 2.32386 1.66359 1.96402 1.97798 1.65341C2.29616 1.33902 2.66359 1.0928 3.08026 0.914772C3.50071 0.736742 3.94957 0.647727 4.42685 0.647727ZM2.82457 4.04545C2.82457 4.33333 2.89654 4.59659 3.04048 4.83523C3.18442 5.07008 3.3776 5.25758 3.62003 5.39773C3.86245 5.53409 4.13139 5.60227 4.42685 5.60227C4.77154 5.60227 5.08594 5.5303 5.37003 5.38636C5.65791 5.23864 5.93063 5.04545 6.18821 4.80682C6.33973 4.66667 6.46851 4.5322 6.57457 4.40341C6.68063 4.27083 6.77154 4.15152 6.8473 4.04545C6.76776 3.93939 6.66548 3.81629 6.54048 3.67614C6.41927 3.53598 6.30185 3.41288 6.18821 3.30682C5.94957 3.07955 5.68253 2.88636 5.38707 2.72727C5.09162 2.56818 4.77154 2.48864 4.42685 2.48864C4.13139 2.48864 3.86245 2.56061 3.62003 2.70455C3.3776 2.8447 3.18442 3.03409 3.04048 3.27273C2.89654 3.50758 2.82457 3.76515 2.82457 4.04545ZM13.1655 4.04545C13.1655 3.76515 13.0935 3.50758 12.9496 3.27273C12.8056 3.03409 12.6125 2.8447 12.37 2.70455C12.1314 2.56061 11.8662 2.48864 11.5746 2.48864C11.3397 2.48864 11.1162 2.52651 10.9041 2.60227C10.6958 2.67424 10.4988 2.77273 10.3132 2.89773C10.1276 3.01894 9.95904 3.1553 9.80753 3.30682C9.67117 3.43561 9.54048 3.57386 9.41548 3.72159C9.29427 3.86932 9.20526 3.97727 9.14844 4.04545C9.23556 4.16667 9.33215 4.28977 9.43821 4.41477C9.54427 4.53977 9.66738 4.67045 9.80753 4.80682C10.0575 5.04167 10.3265 5.23295 10.6143 5.38068C10.9022 5.52841 11.2223 5.60227 11.5746 5.60227C11.8662 5.60227 12.1314 5.53409 12.37 5.39773C12.6125 5.25758 12.8056 5.07008 12.9496 4.83523C13.0935 4.59659 13.1655 4.33333 13.1655 4.04545Z" fill="white"/>
</svg>
