<svg width="36" height="36" viewBox="0 0 36 36" fill="none" xmlns="http://www.w3.org/2000/svg">
<g opacity="0.1">
<g clip-path="url(#clip0_346_17061)">
<path d="M22.3749 10.7079H26.7499C27.7075 10.7079 28.6557 10.8965 29.5403 11.2629C30.425 11.6294 31.2288 12.1665 31.9059 12.8436C32.583 13.5207 33.1201 14.3245 33.4865 15.2092C33.853 16.0938 34.0416 17.042 34.0416 17.9996C34.0416 18.9571 33.853 19.9053 33.4865 20.79C33.1201 21.6746 32.583 22.4784 31.9059 23.1555C31.2288 23.8326 30.425 24.3697 29.5403 24.7362C28.6557 25.1026 27.7075 25.2912 26.7499 25.2912H22.3749M13.6249 25.2912H9.24992C8.29236 25.2912 7.34418 25.1026 6.45952 24.7362C5.57485 24.3697 4.77103 23.8326 4.09393 23.1555C2.72648 21.7881 1.95825 19.9334 1.95825 17.9996C1.95825 16.0657 2.72648 14.211 4.09393 12.8436C5.46138 11.4761 7.31605 10.7079 9.24992 10.7079H13.6249" stroke="#CEC8F3" stroke-width="2.91667" stroke-linecap="round" stroke-linejoin="round"/>
<path d="M12.1667 18H23.8334" stroke="#CEC8F3" stroke-width="2.91667" stroke-linecap="round" stroke-linejoin="round"/>
</g>
</g>
<defs>
<clipPath id="clip0_346_17061">
<rect x="0.5" y="0.5" width="35" height="35" rx="15" fill="white"/>
</clipPath>
</defs>
</svg>
