<svg width="32" height="32" viewBox="0 0 32 32" fill="none" xmlns="http://www.w3.org/2000/svg">
<path d="M16.0002 2.6665C9.66959 2.6665 4.35673 7.10022 3.00804 13.0389C2.93 13.3839 2.9922 13.7458 3.18095 14.0449C3.36971 14.344 3.66957 14.5559 4.01455 14.634C4.35954 14.712 4.72141 14.6498 5.02054 14.461C5.31967 14.2723 5.53156 13.9724 5.60961 13.6274C6.68758 8.88079 10.9122 5.33317 16.0002 5.33317C21.0883 5.33317 25.3129 8.88079 26.3909 13.6274C26.4689 13.9724 26.6808 14.2723 26.9799 14.461C27.2791 14.6498 27.6409 14.712 27.9859 14.634C28.3309 14.5559 28.6308 14.344 28.8195 14.0449C29.0083 13.7458 29.0705 13.3839 28.9924 13.0389C27.6437 7.10022 22.3309 2.6665 16.0002 2.6665ZM4.25284 17.3149C4.05555 17.3225 3.86241 17.3739 3.68736 17.4652C3.51232 17.5565 3.35973 17.6856 3.24064 17.843C3.12154 18.0005 3.03889 18.1825 2.99867 18.3758C2.95845 18.5691 2.96165 18.7689 3.00804 18.9608C3.33629 20.4074 3.90312 21.7609 4.65388 22.9816C4.74249 23.1369 4.86142 23.2727 5.00358 23.3811C5.14574 23.4894 5.30825 23.5681 5.48143 23.6124C5.6546 23.6567 5.83493 23.6658 6.01167 23.639C6.18841 23.6122 6.35796 23.5502 6.51025 23.4566C6.66254 23.363 6.79445 23.2397 6.89815 23.0941C7.00184 22.9485 7.0752 22.7835 7.11387 22.609C7.15253 22.4345 7.15571 22.254 7.12322 22.0782C7.09072 21.9024 7.02321 21.7349 6.92471 21.5858C6.3208 20.6038 5.87069 19.5229 5.60961 18.3722C5.54465 18.0642 5.3728 17.7891 5.12449 17.5956C4.87617 17.4021 4.5674 17.3027 4.25284 17.3149ZM24.6981 22.8644C24.5041 22.8626 24.312 22.9031 24.1352 22.9831C23.9585 23.0632 23.8013 23.1809 23.6747 23.328C23.4986 23.5264 23.3679 23.6769 23.2763 23.7629C23.1485 23.8827 23.0456 24.0266 22.9735 24.1862C22.9013 24.3458 22.8613 24.5181 22.8557 24.6932C22.8502 24.8683 22.8791 25.0427 22.941 25.2066C23.0029 25.3705 23.0964 25.5206 23.2163 25.6484C23.3362 25.7761 23.48 25.879 23.6396 25.9511C23.7993 26.0233 23.9716 26.0632 24.1467 26.0688C24.3217 26.0744 24.4962 26.0454 24.6601 25.9835C24.824 25.9216 24.9741 25.8281 25.1018 25.7082C25.3542 25.4714 25.5309 25.255 25.6695 25.0988C25.8437 24.9087 25.959 24.6723 26.0016 24.418C26.0442 24.1638 26.0121 23.9026 25.9093 23.6662C25.8066 23.4298 25.6375 23.2282 25.4225 23.0859C25.2075 22.9436 24.9559 22.8667 24.6981 22.8644ZM9.65909 24.867C9.37117 24.8762 9.09396 24.9783 8.86893 25.1581C8.64389 25.3379 8.48314 25.5858 8.41073 25.8646C8.33832 26.1434 8.35813 26.4382 8.46721 26.7048C8.5763 26.9714 8.76878 27.1955 9.01586 27.3436C9.95853 27.9266 10.974 28.3769 12.0263 28.7082C12.1933 28.7609 12.3692 28.7802 12.5437 28.765C12.7182 28.7497 12.8881 28.7002 13.0435 28.6194C13.1989 28.5385 13.3368 28.4278 13.4495 28.2936C13.5621 28.1594 13.6472 28.0043 13.6998 27.8372C13.7525 27.6701 13.7717 27.4943 13.7565 27.3197C13.7412 27.1452 13.6916 26.9754 13.6107 26.82C13.5298 26.6646 13.419 26.5267 13.2848 26.4141C13.1506 26.3016 12.9955 26.2165 12.8284 26.1639C11.966 25.8925 11.1542 25.5297 10.4195 25.0754C10.1928 24.9309 9.92776 24.8582 9.65909 24.867ZM19.5315 26.1066C19.4119 26.1124 19.2937 26.1343 19.1799 26.1717C18.6822 26.3268 18.1764 26.4478 17.6643 26.5285C17.4913 26.5557 17.3253 26.6167 17.1758 26.708C17.0263 26.7994 16.8963 26.9192 16.7932 27.0608C16.5849 27.3468 16.4987 27.7037 16.5536 28.0532C16.6085 28.4027 16.8 28.7161 17.086 28.9243C17.3719 29.1326 17.7289 29.2188 18.0784 29.1639C18.7342 29.0606 19.3653 28.9049 19.9716 28.716C20.2828 28.6225 20.5492 28.4186 20.7206 28.1426C20.8921 27.8666 20.9569 27.5375 20.9029 27.2171C20.8489 26.8967 20.6797 26.607 20.4272 26.4026C20.1746 26.1981 19.8561 26.0928 19.5315 26.1066Z" fill="url(#paint0_linear_449_10125)"/>
<defs>
<linearGradient id="paint0_linear_449_10125" x1="15.998" y1="2.6665" x2="15.998" y2="29.1801" gradientUnits="userSpaceOnUse">
<stop stop-color="#89EAFB"/>
<stop offset="1" stop-color="#1377B0"/>
</linearGradient>
</defs>
</svg>
