<svg width="25" height="24" viewBox="0 0 25 24" fill="none" xmlns="http://www.w3.org/2000/svg">
  <g clip-path="url(#clip0_3720_15044)">
    <path
      d="M12.4999 2C7.75195 2 3.76731 5.32528 2.75579 9.7793C2.69725 10.038 2.7439 10.3094 2.88547 10.5338C3.02704 10.7581 3.25193 10.9171 3.51067 10.9756C3.76941 11.0341 4.04081 10.9875 4.26516 10.8459C4.48951 10.7043 4.64843 10.4794 4.70696 10.2207C5.51544 6.66072 8.68391 4 12.4999 4C16.3159 4 19.4844 6.66072 20.2929 10.2207C20.3514 10.4794 20.5104 10.7043 20.7347 10.8459C20.959 10.9875 21.2304 11.0341 21.4892 10.9756C21.7479 10.9171 21.9728 10.7581 22.1144 10.5338C22.256 10.3094 22.3026 10.038 22.2441 9.7793C21.2326 5.32528 17.2479 2 12.4999 2ZM3.68938 12.9863C3.54142 12.992 3.39656 13.0305 3.26528 13.099C3.13399 13.1675 3.01956 13.2643 2.93023 13.3824C2.84091 13.5005 2.77893 13.637 2.74876 13.7819C2.71859 13.9269 2.72099 14.0768 2.75579 14.2207C3.00197 15.3057 3.4271 16.3208 3.99016 17.2363C4.05662 17.3528 4.14582 17.4546 4.25244 17.5359C4.35906 17.6172 4.48094 17.6762 4.61083 17.7094C4.74071 17.7427 4.87595 17.7495 5.00851 17.7294C5.14106 17.7093 5.26823 17.6628 5.38245 17.5926C5.49666 17.5224 5.5956 17.4299 5.67337 17.3207C5.75114 17.2115 5.80616 17.0878 5.83516 16.9569C5.86416 16.826 5.86654 16.6906 5.84217 16.5588C5.8178 16.4269 5.76717 16.3013 5.69329 16.1895C5.24036 15.453 4.90278 14.6423 4.70696 13.7793C4.65824 13.5483 4.52936 13.3419 4.34312 13.1968C4.15688 13.0517 3.92531 12.9771 3.68938 12.9863ZM19.0234 17.1484C18.8778 17.147 18.7338 17.1774 18.6012 17.2375C18.4686 17.2975 18.3507 17.3858 18.2558 17.4961C18.1237 17.6449 18.0257 17.7578 17.957 17.8223C17.8611 17.9122 17.784 18.02 17.7299 18.1398C17.6757 18.2595 17.6457 18.3887 17.6416 18.52C17.6374 18.6513 17.6591 18.7822 17.7055 18.9051C17.7519 19.028 17.8221 19.1406 17.912 19.2364C18.0019 19.3322 18.1098 19.4094 18.2295 19.4635C18.3492 19.5176 18.4784 19.5476 18.6097 19.5517C18.7411 19.5559 18.8719 19.5341 18.9948 19.4877C19.1177 19.4413 19.2303 19.3712 19.3261 19.2812C19.5154 19.1037 19.6479 18.9414 19.7519 18.8242C19.8825 18.6817 19.969 18.5043 20.001 18.3136C20.0329 18.1229 20.0089 17.9271 19.9318 17.7498C19.8547 17.5725 19.7279 17.4213 19.5666 17.3146C19.4054 17.2078 19.2167 17.1501 19.0234 17.1484ZM7.74407 18.6504C7.52814 18.6572 7.32022 18.7338 7.15145 18.8687C6.98268 19.0036 6.86211 19.1895 6.8078 19.3986C6.75349 19.6077 6.76835 19.8288 6.85017 20.0287C6.93198 20.2287 7.07634 20.3967 7.26165 20.5078C7.96865 20.9451 8.73024 21.2828 9.51946 21.5312C9.64477 21.5708 9.77664 21.5853 9.90754 21.5738C10.0384 21.5624 10.1658 21.5253 10.2824 21.4646C10.3989 21.404 10.5024 21.321 10.5868 21.2203C10.6713 21.1196 10.7351 21.0033 10.7746 20.878C10.8141 20.7527 10.8286 20.6208 10.8171 20.4899C10.8056 20.359 10.7685 20.2317 10.7078 20.1151C10.6471 19.9986 10.564 19.8952 10.4634 19.8107C10.3627 19.7263 10.2464 19.6625 10.121 19.623C9.47425 19.4195 8.86538 19.1474 8.31438 18.8066C8.14437 18.6983 7.94558 18.6438 7.74407 18.6504ZM15.1484 19.5801C15.0587 19.5844 14.97 19.6009 14.8847 19.6289C14.5114 19.7452 14.1321 19.836 13.748 19.8965C13.6182 19.9169 13.4937 19.9626 13.3816 20.0311C13.2695 20.0996 13.172 20.1896 13.0946 20.2957C12.9384 20.5102 12.8738 20.7779 12.915 21.04C12.9562 21.3021 13.0998 21.5372 13.3142 21.6934C13.5287 21.8496 13.7964 21.9142 14.0585 21.873C14.5504 21.7956 15.0237 21.6788 15.4784 21.5371C15.7118 21.467 15.9116 21.3141 16.0402 21.1071C16.1689 20.9001 16.2175 20.6533 16.1769 20.4129C16.1364 20.1726 16.0095 19.9554 15.8201 19.802C15.6307 19.6487 15.3919 19.5697 15.1484 19.5801Z"
      fill="white" fill-opacity="0.95" />
    <animateTransform attributeName="transform" attributeType="XML" type="rotate" from="0 12.5 12" to="360 12.5 12"
      dur="00.8s" repeatCount="indefinite" />
  </g>
  <defs>
    <clipPath id="clip0_3720_15044">
      <rect width="24" height="24" fill="white" transform="translate(0.5)" />
    </clipPath>
  </defs>
</svg>