<svg width="25" height="25" viewBox="0 0 25 25" fill="none" xmlns="http://www.w3.org/2000/svg">
<path d="M19.5 11.1853H5.5C4.39543 11.1853 3.5 12.0807 3.5 13.1853V20.1853C3.5 21.2899 4.39543 22.1853 5.5 22.1853H19.5C20.6046 22.1853 21.5 21.2899 21.5 20.1853V13.1853C21.5 12.0807 20.6046 11.1853 19.5 11.1853Z" stroke="#958FC0" stroke-width="2" stroke-linecap="round" stroke-linejoin="round"/>
<path d="M7.5 11.1853V7.1853C7.5 5.85922 8.02678 4.58745 8.96447 3.64977C9.90215 2.71209 11.1739 2.1853 12.5 2.1853C13.8261 2.1853 15.0979 2.71209 16.0355 3.64977C16.9732 4.58745 17.5 5.85922 17.5 7.1853V11.1853" stroke="#958FC0" stroke-width="2" stroke-linecap="round" stroke-linejoin="round"/>
</svg>
