<svg width="24" height="24" viewBox="0 0 24 24" fill="none" xmlns="http://www.w3.org/2000/svg">
<path fill-rule="evenodd" clip-rule="evenodd" d="M4.71273 7.24998C3.50311 7.24998 2.5 6.54864 2.5 5.67727C2.5 4.78466 3.50311 4.08331 4.71273 4.08331H19.2873C20.4969 4.08331 21.5 4.78466 21.5 5.67727C21.5 6.54864 20.4969 7.24998 19.2873 7.24998H4.71273Z" fill="white" fill-opacity="0.3"/>
<path fill-rule="evenodd" clip-rule="evenodd" d="M4.71273 13.5833C3.50311 13.5833 2.5 12.8819 2.5 12.0106C2.5 11.118 3.50311 10.4166 4.71273 10.4166H19.2873C20.4969 10.4166 21.5 11.118 21.5 12.0106C21.5 12.8819 20.4969 13.5833 19.2873 13.5833H4.71273Z" fill="white" fill-opacity="0.3"/>
<path fill-rule="evenodd" clip-rule="evenodd" d="M4.71273 19.9167C3.50311 19.9167 2.5 19.2153 2.5 18.344C2.5 17.4513 3.50311 16.75 4.71273 16.75H19.2873C20.4969 16.75 21.5 17.4513 21.5 18.344C21.5 19.2153 20.4969 19.9167 19.2873 19.9167H4.71273Z" fill="white" fill-opacity="0.3"/>
</svg>
