<svg width="64" height="64" viewBox="0 0 64 64" fill="none" xmlns="http://www.w3.org/2000/svg">
<path fill-rule="evenodd" clip-rule="evenodd" d="M20.0371 51.7137L27.5548 53.7083V51.1L28.1685 50.4863H32.4643V53.5547V55.7026H27.8617L22.185 53.2479L20.0371 51.7137Z" fill="#CDBDB2"/>
<path fill-rule="evenodd" clip-rule="evenodd" d="M44.584 51.7137L37.2198 53.7083V51.1L36.6061 50.4863H32.3104V53.5547V55.7026H36.913L42.5894 53.2479L44.584 51.7137Z" fill="#CDBDB2"/>
<path fill-rule="evenodd" clip-rule="evenodd" d="M28.1684 46.0368L27.5547 51.0995L28.3217 50.4858H36.2995L37.22 51.0995L36.6063 46.0368L35.379 45.2695L29.2422 45.4231L28.1684 46.0368Z" fill="#393939"/>
<path fill-rule="evenodd" clip-rule="evenodd" d="M24.0254 11.8242L27.7075 20.4158L29.3952 45.4234H35.3785L37.2195 20.4158L40.5948 11.8242H24.0254Z" fill="#F89C35"/>
<path fill-rule="evenodd" clip-rule="evenodd" d="M7.91686 30.6944L3.62109 43.1213L14.3605 42.5076H21.2643V37.1381L20.9575 26.0918L19.4232 27.3192L7.91686 30.6944Z" fill="#F89D35"/>
<path fill-rule="evenodd" clip-rule="evenodd" d="M16.0488 32.0762L28.6293 32.383L27.2486 38.8267L21.2651 37.2925L16.0488 32.0762Z" fill="#D87C30"/>
<path fill-rule="evenodd" clip-rule="evenodd" d="M16.0488 32.2285L21.2651 37.138V42.0474L16.0488 32.2285Z" fill="#EA8D3A"/>
<path fill-rule="evenodd" clip-rule="evenodd" d="M21.2656 37.291L27.4024 38.8252L29.397 45.4224L28.0161 46.1894L21.2656 42.2005V37.291Z" fill="#F89D35"/>
<path fill-rule="evenodd" clip-rule="evenodd" d="M21.2645 42.2012L20.0371 51.7132L28.1685 46.0368L21.2645 42.2012Z" fill="#EB8F35"/>
<path fill-rule="evenodd" clip-rule="evenodd" d="M28.628 32.3828L29.3952 45.4237L27.0938 38.7498L28.628 32.3828Z" fill="#EA8E3A"/>
<path fill-rule="evenodd" clip-rule="evenodd" d="M14.207 42.3547L21.2644 42.2012L20.037 51.7132L14.207 42.3547Z" fill="#D87C30"/>
<path fill-rule="evenodd" clip-rule="evenodd" d="M6.99634 55.8564L20.0369 51.714L14.207 42.3555L3.62109 43.1224L6.99634 55.8564Z" fill="#EB8F35"/>
<path fill-rule="evenodd" clip-rule="evenodd" d="M27.7088 20.416L21.1118 25.9391L16.0488 32.076L28.6293 32.5364L27.7088 20.416Z" fill="#E8821E"/>
<path fill-rule="evenodd" clip-rule="evenodd" d="M20.0371 51.7135L28.1685 46.0371L27.5548 50.9466V53.7081L22.0317 52.634L20.0371 51.7135Z" fill="#DFCEC3"/>
<path fill-rule="evenodd" clip-rule="evenodd" d="M44.584 51.7135L36.6061 46.0371L37.2198 50.9466V53.7081L42.7429 52.634L44.584 51.7135Z" fill="#DFCEC3"/>
<path fill-rule="evenodd" clip-rule="evenodd" d="M25.2536 35.1445L26.9414 38.6733L20.9579 37.1391L25.2536 35.1445Z" fill="#393939"/>
<path fill-rule="evenodd" clip-rule="evenodd" d="M6.84375 4.61328L27.7089 20.4154L24.1804 11.8239L6.84375 4.61328Z" fill="#E88F35"/>
<path fill-rule="evenodd" clip-rule="evenodd" d="M6.84164 4.61328L4.08008 13.0514L5.61428 22.2566L4.54034 22.8703L6.07454 24.2511L4.84718 25.325L6.5348 26.8592L5.46086 27.7797L7.91559 30.8482L19.4221 27.3195C25.0475 22.8192 27.8091 20.5179 27.7068 20.4156C27.6045 20.3133 20.6495 15.0459 6.84164 4.61328Z" fill="#8E5A30"/>
<path fill-rule="evenodd" clip-rule="evenodd" d="M56.7042 30.6944L61 43.1213L50.2606 42.5076H43.3568V37.1381L43.6636 26.0918L45.1978 27.3192L56.7042 30.6944Z" fill="#F89D35"/>
<path fill-rule="evenodd" clip-rule="evenodd" d="M48.5723 32.0742L35.9918 32.3811L37.3724 38.8247L43.356 37.2905L48.5723 32.0742Z" fill="#D87C30"/>
<path fill-rule="evenodd" clip-rule="evenodd" d="M48.5723 32.2285L43.356 37.138V42.0474L48.5723 32.2285Z" fill="#EA8D3A"/>
<path fill-rule="evenodd" clip-rule="evenodd" d="M43.3555 37.291L37.2187 38.8252L35.2241 45.4224L36.605 46.1894L43.3555 42.2005V37.291Z" fill="#F89D35"/>
<path fill-rule="evenodd" clip-rule="evenodd" d="M43.3566 42.2012L44.584 51.7132L36.6061 46.1901L43.3566 42.2012Z" fill="#EB8F35"/>
<path fill-rule="evenodd" clip-rule="evenodd" d="M35.9931 32.3828L35.2259 45.4237L37.5273 38.7498L35.9931 32.3828Z" fill="#EA8E3A"/>
<path fill-rule="evenodd" clip-rule="evenodd" d="M50.4141 42.3547L43.3567 42.2012L44.5841 51.7132L50.4141 42.3547Z" fill="#D87C30"/>
<path fill-rule="evenodd" clip-rule="evenodd" d="M57.6248 55.8564L44.5842 51.714L50.4141 42.3555L61 43.1224L57.6248 55.8564Z" fill="#EB8F35"/>
<path fill-rule="evenodd" clip-rule="evenodd" d="M36.9123 20.416L43.5093 25.9391L48.5723 32.076L35.9918 32.5364L36.9123 20.416Z" fill="#E8821E"/>
<path fill-rule="evenodd" clip-rule="evenodd" d="M39.3674 35.1445L37.6797 38.6733L43.6632 37.1391L39.3674 35.1445Z" fill="#393939"/>
<path fill-rule="evenodd" clip-rule="evenodd" d="M57.7773 4.61328L36.9122 20.4154L40.4407 11.8239L57.7773 4.61328Z" fill="#E88F35"/>
<path fill-rule="evenodd" clip-rule="evenodd" d="M57.7795 4.61328L60.541 13.0514L59.0068 22.2566L60.0808 22.8703L58.5466 24.2511L59.7739 25.325L58.0863 26.8592L59.1602 27.7797L56.7055 30.8482L45.199 27.3195C39.5736 22.8192 36.812 20.5179 36.9143 20.4156C37.0166 20.3133 43.9716 15.0459 57.7795 4.61328Z" fill="#8E5A30"/>
</svg>
