<svg width="42" height="42" viewBox="0 0 42 42" fill="none" xmlns="http://www.w3.org/2000/svg">
<path d="M38.0791 12.0661C38.6403 11.5048 38.6403 10.591 38.0791 10.0298L31.9702 3.92093C31.409 3.35969 30.4952 3.35969 29.9339 3.92093L26.9838 6.87102C26.5881 7.26677 25.9981 7.40348 25.48 7.20921C19.5942 4.95706 12.773 6.32418 8.23274 10.8644C1.92242 17.1748 1.92242 27.4497 8.23274 33.7601C11.3915 36.9188 15.536 38.4946 19.6806 38.4946C23.8251 38.4946 27.9696 36.9188 31.1284 33.7601C35.6686 29.2198 37.0357 22.3986 34.7836 16.5128C34.5821 15.9947 34.726 15.4047 35.1218 15.009L38.0791 12.0661ZM33.5028 11.5552L30.7038 14.3542C30.3081 14.7499 30.2146 15.3615 30.488 15.8508C31.3658 17.4338 31.9055 19.1535 32.0925 20.8876C32.2652 22.4706 31.2651 23.9672 29.7397 24.4061C28.8402 24.6651 27.653 24.8522 26.1132 24.8522C20.9541 24.8522 18.6012 20.6717 14.025 20.6717C11.8016 20.6717 10.0963 21.1682 8.93789 21.6791C8.05286 22.0676 7.10307 21.3409 7.24698 20.3767C7.47004 18.9232 7.94493 17.5058 8.68605 16.189C11.0461 11.9797 15.3489 9.74917 19.6949 9.74917C21.7816 9.74917 23.8826 10.26 25.7894 11.3249L26.1492 11.5192C26.6385 11.7926 27.2501 11.7063 27.653 11.3106L30.452 8.51156C30.7326 8.23095 31.1859 8.23095 31.4665 8.51156L33.5028 10.5478C33.7834 10.8213 33.7834 11.2746 33.5028 11.5552Z" fill="white" fill-opacity="0.87"/>
</svg>
