<svg width="24" height="24" viewBox="0 0 24 24" fill="none" xmlns="http://www.w3.org/2000/svg">
<rect x="3" y="2" width="18" height="20" rx="4" stroke="#958FC0" stroke-width="2"/>
<path d="M8.5 11V6M8.5 6L6 8M8.5 6L11 8" stroke="#958FC0" stroke-width="1.5" stroke-linecap="round"/>
<path d="M8.5 13.5L8.5 18.5M8.5 18.5L11 16.5M8.5 18.5L6 16.5" stroke="#958FC0" stroke-width="1.5" stroke-linecap="round"/>
<path d="M15.7379 17.0909V8H16.3203V17.0909H15.7379ZM17.1406 11.0895C17.117 10.8291 17.0116 10.6267 16.8246 10.4822C16.6399 10.3355 16.3759 10.2621 16.0327 10.2621C15.8054 10.2621 15.616 10.2917 15.4645 10.3509C15.313 10.41 15.1993 10.4917 15.1236 10.5959C15.0478 10.6977 15.0088 10.8149 15.0064 10.9474C15.0017 11.0563 15.023 11.1522 15.0703 11.2351C15.12 11.3179 15.1911 11.3913 15.2834 11.4553C15.3781 11.5168 15.4917 11.5713 15.6243 11.6186C15.7569 11.666 15.906 11.7074 16.0717 11.7429L16.6967 11.8849C17.0566 11.9631 17.3738 12.0672 17.6484 12.1974C17.9254 12.3277 18.1574 12.4827 18.3445 12.6626C18.5339 12.8426 18.6771 13.0497 18.7741 13.2841C18.8712 13.5185 18.9209 13.7813 18.9233 14.0724C18.9209 14.5317 18.8049 14.9259 18.5753 15.255C18.3456 15.584 18.0154 15.8362 17.5845 16.0114C17.156 16.1866 16.6387 16.2741 16.0327 16.2741C15.4242 16.2741 14.8939 16.183 14.4418 16.0007C13.9896 15.8184 13.638 15.5414 13.3871 15.1697C13.1361 14.7981 13.0071 14.3281 13 13.7599H14.6832C14.6974 13.9943 14.7602 14.1896 14.8714 14.3459C14.9827 14.5021 15.1354 14.6205 15.3295 14.701C15.526 14.7815 15.7533 14.8217 16.0114 14.8217C16.2481 14.8217 16.4493 14.7898 16.6151 14.7259C16.7831 14.6619 16.9122 14.5732 17.0021 14.4595C17.0921 14.3459 17.1383 14.2157 17.1406 14.0689C17.1383 13.9316 17.0956 13.8144 17.0128 13.7173C16.9299 13.6179 16.8021 13.5327 16.6293 13.4616C16.4588 13.3883 16.241 13.3208 15.9759 13.2592L15.2159 13.0817C14.5862 12.9373 14.0902 12.7041 13.728 12.3821C13.3658 12.0578 13.1858 11.6198 13.1882 11.0682C13.1858 10.6184 13.3066 10.2242 13.5504 9.88565C13.7943 9.54711 14.1316 9.28314 14.5625 9.09375C14.9934 8.90436 15.4846 8.80966 16.0362 8.80966C16.5997 8.80966 17.0885 8.90554 17.5028 9.0973C17.9195 9.2867 18.2427 9.55303 18.4723 9.89631C18.7019 10.2396 18.8191 10.6373 18.8239 11.0895H17.1406Z" fill="#958FC0"/>
</svg>
