<?xml version="1.0" encoding="UTF-8" standalone="no"?>
<!DOCTYPE svg PUBLIC "-//W3C//DTD SVG 1.1//EN" "http://www.w3.org/Graphics/SVG/1.1/DTD/svg11.dtd">
<svg width="100%" height="100%" viewBox="0 0 24 24" version="1.1" xmlns="http://www.w3.org/2000/svg" xmlns:xlink="http://www.w3.org/1999/xlink" xml:space="preserve" xmlns:serif="http://www.serif.com/" style="fill-rule:evenodd;clip-rule:evenodd;stroke-linejoin:round;stroke-miterlimit:2;">
    <g transform="matrix(1,0,0,1,-18.48,-18)">
        <path d="M30.061,27.655C30.061,26.345 30.876,24.549 31.521,23.329C30.227,21.398 28.988,20 28.381,20C26.814,20 21,29.342 21,33.133C21,36.924 24.303,40 28.381,40C32.456,40 35.762,36.924 35.762,33.133C35.762,33.046 35.755,32.952 35.749,32.858C35.72,32.858 35.69,32.862 35.658,32.862C32.573,32.865 30.061,30.528 30.061,27.655Z" fill="white" />
    </g>
    <g transform="matrix(1,0,0,1,-18.48,-18)">
        <path d="M39.96,27.655C39.96,29.864 38.033,31.657 35.658,31.657C33.283,31.657 31.356,29.864 31.356,27.655C31.356,25.445 34.746,20 35.658,20C36.573,20 39.96,25.445 39.96,27.655Z" fill="white" />
    </g>
</svg>
