<?xml version="1.0" encoding="UTF-8" standalone="no"?>
<!DOCTYPE svg PUBLIC "-//W3C//DTD SVG 1.1//EN" "http://www.w3.org/Graphics/SVG/1.1/DTD/svg11.dtd">
<svg width="100%" height="100%" viewBox="0 0 24 24" version="1.1" xmlns="http://www.w3.org/2000/svg" xmlns:xlink="http://www.w3.org/1999/xlink" xml:space="preserve" xmlns:serif="http://www.serif.com/" style="fill-rule:evenodd;clip-rule:evenodd;stroke-linejoin:round;stroke-miterlimit:2;">
    <g transform="matrix(1,0,0,1,-23.48,-23)">
        <path d="M35.062,32.655C35.062,31.345 35.876,29.549 36.521,28.329C35.227,26.398 33.988,25 33.381,25C31.814,25 26,34.342 26,38.133C26,41.924 29.303,45 33.381,45C37.456,45 40.762,41.924 40.762,38.133C40.762,38.046 40.755,37.952 40.749,37.858C40.72,37.858 40.69,37.862 40.658,37.862C37.573,37.865 35.062,35.528 35.062,32.655Z" style="fill:url(#_Linear1);fill-rule:nonzero;"/>
    </g>
    <g transform="matrix(1,0,0,1,-23.48,-23)">
        <path d="M44.96,32.655C44.96,34.864 43.033,36.657 40.658,36.657C38.283,36.657 36.356,34.864 36.356,32.655C36.356,30.445 39.746,25 40.658,25C41.573,25 44.96,30.445 44.96,32.655Z" style="fill:url(#_Linear2);fill-rule:nonzero;"/>
    </g>
    <defs>
        <linearGradient id="_Linear1" x1="0" y1="0" x2="1" y2="0" gradientUnits="userSpaceOnUse" gradientTransform="matrix(1.22465e-15,20,-20,1.22465e-15,33.3809,25)"><stop offset="0" style="stop-color:rgb(137,234,251);stop-opacity:1"/><stop offset="1" style="stop-color:rgb(19,119,176);stop-opacity:1"/></linearGradient>
        <linearGradient id="_Linear2" x1="0" y1="0" x2="1" y2="0" gradientUnits="userSpaceOnUse" gradientTransform="matrix(7.13792e-16,11.6571,-11.6571,7.13792e-16,40.658,25)"><stop offset="0" style="stop-color:rgb(137,234,251);stop-opacity:1"/><stop offset="1" style="stop-color:rgb(19,119,176);stop-opacity:1"/></linearGradient>
    </defs>
</svg>
