<svg width="16" height="16" viewBox="0 0 16 16" fill="none" xmlns="http://www.w3.org/2000/svg">
<g clip-path="url(#clip0_434_21323)">
<path d="M0.666626 2.66666V6.66666H4.66663" stroke="#B0AADC" stroke-width="1.5" stroke-linecap="round" stroke-linejoin="round"/>
<path d="M15.3334 13.3333V9.33334H11.3334" stroke="#B0AADC" stroke-width="1.5" stroke-linecap="round" stroke-linejoin="round"/>
<path d="M13.66 6.00001C13.3218 5.04453 12.7472 4.19028 11.9896 3.51696C11.2321 2.84363 10.3163 2.37319 9.32777 2.14952C8.33922 1.92584 7.31012 1.95624 6.3365 2.23786C5.36288 2.51948 4.47646 3.04315 3.75996 3.76001L0.666626 6.66668M15.3333 9.33334L12.24 12.24C11.5235 12.9569 10.637 13.4805 9.66342 13.7622C8.6898 14.0438 7.6607 14.0742 6.67215 13.8505C5.6836 13.6268 4.76783 13.1564 4.01027 12.4831C3.25271 11.8097 2.67807 10.9555 2.33996 10" stroke="#B0AADC" stroke-width="1.5" stroke-linecap="round" stroke-linejoin="round"/>
</g>
<defs>
<clipPath id="clip0_434_21323">
<rect width="16" height="16" fill="white"/>
</clipPath>
</defs>
</svg>
