<svg
  xmlns="http://www.w3.org/2000/svg"
  xmlns:xlink="http://www.w3.org/1999/xlink"
>
  <defs>
    <symbol viewBox="0 0 14 8" id="chevron-down">
      <path
        d="M13.6667 1.01198C13.6667 1.27269 13.5702 1.5334 13.3819 1.73277L7.80721 7.6473C7.36316 8.1176 6.63917 8.1176 6.19512 7.6473L0.615584 1.73788C0.200497 1.29825 0.243937 0.557021 0.741076 0.178737C1.13203 -0.117757 1.67743 -0.0308533 2.02012 0.332095L7.00117 5.60763L11.9774 0.337207C12.3394 -0.0461892 12.9379 -0.117757 13.3288 0.234968C13.5557 0.439447 13.6667 0.725715 13.6667 1.01198Z"
        fill="currentColor"
      />
    </symbol>
    <symbol viewBox="0 0 8 14" id="chevron-right">
      <path
        d="M1.01201 0.333336C1.27272 0.333336 1.53342 0.429867 1.73279 0.618103L7.64728 6.19278C8.11757 6.63682 8.11757 7.36081 7.64728 7.80485L1.7379 13.3844C1.29827 13.7994 0.557047 13.756 0.178765 13.2589C-0.117727 12.8679 -0.0308238 12.3225 0.332122 11.9798L5.60762 6.99882L0.337235 2.02263C-0.0461585 1.66064 -0.117725 1.06215 0.234997 0.671195C0.439474 0.444347 0.725741 0.333336 1.01201 0.333336Z"
        fill="currentcolor"
      />
    </symbol>
  </defs>
</svg>
