<svg
  xmlns="http://www.w3.org/2000/svg"
  xmlns:xlink="http://www.w3.org/1999/xlink"
>
  <defs>
    <symbol viewBox="0 0 19 20" fill="none" id="search">
      <circle
        cx="8.30769"
        cy="8.61539"
        r="7.30769"
        stroke="currentColor"
        stroke-width="2"
      />
      <line
        x1="13.8756"
        y1="14.1539"
        x2="17.9999"
        y2="18.2781"
        stroke="currentColor"
        stroke-width="2"
        stroke-linecap="round"
      />
    </symbol>
    <symbol viewBox="0 0 9 12" fill="none" id="up-down-arrow">
      <path
        d="M3.21053 10.7894V1.94733L1 3.78943"
        stroke="currentColor"
        stroke-width="1.5"
        stroke-linecap="round"
      />
      <path
        d="M5.78947 1.21051L5.78947 10.0526L8 8.21051"
        stroke="currentColor"
        stroke-width="1.5"
        stroke-linecap="round"
      />
    </symbol>
    <symbol viewBox="0 0 15 8" id="chevron-up">
      <path
        d="M0.83321 6.988C0.83321 6.72729 0.92974 6.46658 1.11798 6.26721L6.69266 0.352722C7.1367 -0.117574 7.86068 -0.117574 8.30473 0.352722L13.8842 6.2621C14.2993 6.70173 14.2559 7.44296 13.7587 7.82124C13.3678 8.11773 12.8224 8.03083 12.4797 7.66788L7.49869 2.39238L2.52251 7.66277C2.16051 8.04616 1.56202 8.11773 1.17107 7.76501C0.94422 7.56053 0.83321 7.27426 0.83321 6.988Z"
        fill="currentColor"
      />
    </symbol>
    <symbol viewBox="0 0 14 8" id="chevron-down">
      <path
        d="M13.6667 1.01198C13.6667 1.27269 13.5702 1.5334 13.3819 1.73277L7.80721 7.6473C7.36316 8.1176 6.63917 8.1176 6.19512 7.6473L0.615584 1.73788C0.200497 1.29825 0.243937 0.557021 0.741076 0.178737C1.13203 -0.117757 1.67743 -0.0308533 2.02012 0.332095L7.00117 5.60763L11.9774 0.337207C12.3394 -0.0461892 12.9379 -0.117757 13.3288 0.234968C13.5557 0.439447 13.6667 0.725715 13.6667 1.01198Z"
        fill="currentColor"
      />
    </symbol>
    <symbol viewBox="0 0 9 14" id="chevron-left">
      <path
        d="M7.48799 13.6667C7.22728 13.6667 6.96657 13.5701 6.76721 13.3819L0.852721 7.80722C0.382425 7.36317 0.382425 6.63919 0.852721 6.19515L6.7621 0.615645C7.20173 0.200561 7.94295 0.244 8.32124 0.741136C8.61773 1.13209 8.53082 1.67749 8.16788 2.02017L2.89238 7.00118L8.16276 11.9774C8.54616 12.3394 8.61772 12.9379 8.265 13.3288C8.06053 13.5557 7.77426 13.6667 7.48799 13.6667Z"
        fill="currentColor"
      />
    </symbol>
    <symbol viewBox="0 0 8 14" id="chevron-right">
      <path
        d="M1.01201 0.333336C1.27272 0.333336 1.53342 0.429867 1.73279 0.618103L7.64728 6.19278C8.11757 6.63682 8.11757 7.36081 7.64728 7.80485L1.7379 13.3844C1.29827 13.7994 0.557047 13.756 0.178765 13.2589C-0.117727 12.8679 -0.0308238 12.3225 0.332122 11.9798L5.60762 6.99882L0.337235 2.02263C-0.0461585 1.66064 -0.117725 1.06215 0.234997 0.671195C0.439474 0.444347 0.725741 0.333336 1.01201 0.333336Z"
        fill="currentcolor"
      />
    </symbol>
    <symbol viewBox="0 0 24 24" id="setting">
      <path
        d="M12 13.5C12.8284 13.5 13.5 12.8284 13.5 12C13.5 11.1716 12.8284 10.5 12 10.5C11.1716 10.5 10.5 11.1716 10.5 12C10.5 12.8284 11.1716 13.5 12 13.5Z"
        fill="currentColor"
      />
      <path
        d="M21.8898 10.32L21.0998 7.8C21.0145 7.50876 20.8714 7.23767 20.6791 7.00292C20.4867 6.76817 20.2491 6.57456 19.9803 6.43364C19.7116 6.29272 19.4171 6.20737 19.1147 6.1827C18.8122 6.15802 18.5079 6.19451 18.2198 6.29L17.8798 6.4C17.6134 6.48805 17.3297 6.51039 17.0529 6.46511C16.776 6.41984 16.5142 6.3083 16.2898 6.14L16.1798 6.06C15.9608 5.89237 15.7842 5.67562 15.6644 5.42723C15.5445 5.17884 15.4847 4.90575 15.4898 4.63V4.35C15.4947 3.72202 15.2501 3.11779 14.8098 2.67C14.6004 2.45845 14.3512 2.29036 14.0766 2.17538C13.8021 2.0604 13.5075 2.0008 13.2098 2H10.6598C10.048 2.00791 9.46404 2.25719 9.03514 2.69358C8.60624 3.12997 8.3671 3.71813 8.36979 4.33V4.57C8.36883 4.86027 8.30274 5.14663 8.1764 5.40796C8.05006 5.6693 7.86669 5.89895 7.63979 6.08L7.50979 6.18C7.25913 6.36962 6.96596 6.49516 6.65575 6.5457C6.34554 6.59624 6.02767 6.57025 5.72979 6.47C5.45621 6.37533 5.16626 6.33715 4.87749 6.35777C4.58872 6.3784 4.30714 6.4574 4.04979 6.59C3.78184 6.72299 3.54413 6.90969 3.35145 7.1385C3.15877 7.36731 3.01524 7.63333 2.92979 7.92L2.10979 10.52C1.91963 11.1062 1.9684 11.7437 2.2455 12.2942C2.5226 12.8447 3.00566 13.2636 3.58979 13.46H3.74979C4.01925 13.561 4.2611 13.7241 4.4557 13.9361C4.6503 14.148 4.79217 14.4029 4.86979 14.68L4.92979 14.84C5.04127 15.1461 5.07855 15.4743 5.03856 15.7977C4.99858 16.121 4.88248 16.4302 4.69979 16.7C4.33001 17.2036 4.17403 17.8328 4.2658 18.4508C4.35756 19.0688 4.68964 19.6256 5.18979 20L7.25979 21.57C7.65174 21.855 8.12523 22.0058 8.60979 22C8.73948 22.0127 8.8701 22.0127 8.99979 22C9.29989 21.9419 9.58501 21.8233 9.83775 21.6514C10.0905 21.4794 10.3055 21.2578 10.4698 21L10.6998 20.67C10.8611 20.4386 11.0746 20.2483 11.323 20.1145C11.5714 19.9808 11.8478 19.9073 12.1298 19.9C12.4253 19.8927 12.7179 19.9604 12.9802 20.0968C13.2425 20.2332 13.466 20.4339 13.6298 20.68L13.7498 20.85C13.9203 21.1037 14.1409 21.3199 14.3981 21.4852C14.6553 21.6504 14.9436 21.7613 15.2452 21.8109C15.5469 21.8606 15.8555 21.848 16.1521 21.7739C16.4487 21.6997 16.727 21.5657 16.9698 21.38L18.9998 19.86C19.4798 19.4872 19.799 18.945 19.8919 18.3444C19.9849 17.7438 19.8446 17.1304 19.4998 16.63L19.2398 16.25C19.0834 16.0084 18.9811 15.736 18.9396 15.4512C18.8982 15.1664 18.9187 14.8761 18.9998 14.6C19.0824 14.3044 19.2357 14.0334 19.4466 13.8104C19.6574 13.5874 19.9193 13.4191 20.2098 13.32L20.4098 13.25C20.9885 13.0492 21.4665 12.6312 21.7426 12.0845C22.0188 11.5377 22.0716 10.905 21.8898 10.32ZM11.9998 15.5C11.3076 15.5 10.6309 15.2947 10.0553 14.9101C9.47972 14.5256 9.03112 13.9789 8.76621 13.3394C8.50131 12.6999 8.43199 11.9961 8.56704 11.3172C8.70209 10.6383 9.03543 10.0146 9.52492 9.52513C10.0144 9.03564 10.638 8.7023 11.317 8.56725C11.9959 8.4322 12.6996 8.50151 13.3392 8.76642C13.9787 9.03133 14.5253 9.47993 14.9099 10.0555C15.2945 10.6311 15.4998 11.3078 15.4998 12C15.4998 12.9283 15.131 13.8185 14.4747 14.4749C13.8183 15.1313 12.928 15.5 11.9998 15.5Z"
        fill="currentColor"
      />
    </symbol>
    <symbol viewBox="0 0 18 18" id="info">
      <g clip-path="url(#clip0_1567_8455)">
        <path
          d="M9 1.5C4.85787 1.5 1.5 4.85786 1.5 9C1.5 13.1421 4.85787 16.5 9 16.5C13.1421 16.5 16.5 13.1421 16.5 9C16.5 4.85787 13.1421 1.5 9 1.5Z"
          stroke="currentColor"
          stroke-width="2"
          stroke-linecap="round"
          stroke-linejoin="round"
        />
        <path
          d="M9 12L9 9"
          stroke="currentColor"
          stroke-width="2"
          stroke-linecap="round"
          stroke-linejoin="round"
        />
        <path
          d="M9 6L8.99167 6"
          stroke="currentColor"
          stroke-width="2"
          stroke-linecap="round"
          stroke-linejoin="round"
        />
      </g>
      <defs>
        <clipPath id="clip0_1567_8455">
          <rect
            width="18"
            height="18"
            fill="white"
            transform="translate(18 18) rotate(-180)"
          />
        </clipPath>
      </defs>
    </symbol>
    <symbol viewBox="0 0 30 30" id="hamburger">
      <path
        d="M3.75 15H26.25"
        stroke="currentColor"
        stroke-width="3"
        stroke-linecap="round"
        stroke-linejoin="round"
      />
      <path
        d="M3.75 7.5H26.25"
        stroke="currentColor"
        stroke-width="3"
        stroke-linecap="round"
        stroke-linejoin="round"
      />
      <path
        d="M3.75 22.5H26.25"
        stroke="currentColor"
        stroke-width="3"
        stroke-linecap="round"
        stroke-linejoin="round"
      />
    </symbol>
    <symbol viewBox="0 0 25 24" id="close">
      <path
        fill-rule="evenodd"
        clip-rule="evenodd"
        d="M15.4759 17.5102L12.6266 14.6609L9.77286 17.5146C9.09654 18.1909 8.00868 18.1918 7.33342 17.5165C6.65815 16.8412 6.64253 15.7369 7.31884 15.0606L10.1726 12.2069L7.33974 9.37406C6.66448 8.69879 6.64886 7.59446 7.32517 6.91815C8.01798 6.22534 9.12231 6.24096 9.79757 6.91623L12.6304 9.74905L15.4841 6.89533C16.1604 6.21901 17.2648 6.23464 17.94 6.9099C18.6153 7.58517 18.6144 8.67302 17.9381 9.34934L15.0844 12.2031L17.9337 15.0523C18.609 15.7276 18.6246 16.8319 17.9318 17.5248C17.2555 18.2011 16.1511 18.1854 15.4759 17.5102Z"
        fill="currentColor"
      />
    </symbol>
    <symbol viewBox="0 0 25 24" id="close-thin">
      <path
        d="M18 6L6 18"
        stroke="currentColor"
        stroke-width="3"
        stroke-linecap="round"
        stroke-linejoin="round"
      />
      <path
        d="M6 6L18 18"
        stroke="currentColor"
        stroke-width="3"
        stroke-linecap="round"
        stroke-linejoin="round"
      />
    </symbol>
    <symbol viewBox="0 0 24 24" fill="none" id="globe">
      <path
        d="M12 22C17.5228 22 22 17.5228 22 12C22 6.47715 17.5228 2 12 2C6.47715 2 2 6.47715 2 12C2 17.5228 6.47715 22 12 22Z"
        stroke="currentColor"
        stroke-width="2"
        stroke-linecap="round"
        stroke-linejoin="round"
      />
      <path
        d="M2 12H22"
        stroke="currentColor"
        stroke-width="2"
        stroke-linecap="round"
        stroke-linejoin="round"
      />
      <path
        d="M12 2C14.5013 4.73835 15.9228 8.29203 16 12C15.9228 15.708 14.5013 19.2616 12 22C9.49872 19.2616 8.07725 15.708 8 12C8.07725 8.29203 9.49872 4.73835 12 2V2Z"
        stroke="currentColor"
        stroke-width="2"
        stroke-linecap="round"
        stroke-linejoin="round"
      />
    </symbol>
    <symbol viewBox="0 0 24 24" fill="none" id="dust-broom">
      <path
        d="M22.5 2C22.5 2 18.6479 8.29002 16.5 12M16.5 12C18.4162 12.7984 19.5 14.5 19.5 16C19.5 17.5 19.1 20.1 17.5 20.5M16.5 12C16.2585 11.8994 16.7739 12.0384 16.5 12ZM16.5 12C14.8369 11.7666 12.5 12.0657 12.5 15.5C12.5 18 10 20 9 20M16.5 12C16.7596 12.2371 17 12.5 16.5 15C16 17.5 16 20 13 20.5"
        stroke="currentColor"
        stroke-width="2"
        stroke-linecap="round"
      />
      <circle cx="3" cy="21" r="1" fill="currentColor" />
      <circle cx="7" cy="21" r="1" fill="currentColor" />
      <circle cx="1.5" cy="14.5" r="0.5" fill="currentColor" />
      <circle cx="3.5" cy="11.5" r="0.5" fill="currentColor" />
      <circle cx="4" cy="18" r="1" fill="currentColor" />
    </symbol>

    <symbol viewBox="0 0 25 24" fill="none" id="arrow-right">
      <path
        d="M3 12H21.5"
        stroke="currentColor"
        stroke-width="2.5"
        stroke-linecap="round"
        stroke-linejoin="round"
      />
      <path
        d="M14.5 5L21.5 12L14.5 19"
        stroke="currentColor"
        stroke-width="2.5"
        stroke-linecap="round"
        stroke-linejoin="round"
      />
    </symbol>

    <symbol
      width="24"
      height="24"
      viewBox="0 0 24 24"
      fill="none"
      id="close-small"
    >
      <path
        d="M18 6L6 18"
        stroke="currentColor"
        stroke-width="3"
        stroke-linecap="round"
        stroke-linejoin="round"
      />
      <path
        d="M6 6L18 18"
        stroke="currentColor"
        stroke-width="3"
        stroke-linecap="round"
        stroke-linejoin="round"
      />
    </symbol>
    <symbol viewBox="0 0 24 24" id="tune">
      <path
        d="M3 17v2h6v-2H3zM3 5v2h10V5H3zm10 16v-2h8v-2h-8v-2h-2v6h2zM7 9v2H3v2h4v2h2V9H7zm14 4v-2H11v2h10zm-6-4h2V7h4V5h-4V3h-2v6z"
        fill="currentColor"
      />
    </symbol>
    <symbol viewBox="0 0 16 16" fill="none" id="help-circle">
      <rect width="16" height="16" rx="8" fill="currentColor" />
      <path
        d="M7.22673 9.5193V9.42636C7.22905 8.995 7.26862 8.65181 7.34542 8.39681C7.42455 8.1418 7.53627 7.93685 7.68057 7.78194C7.82486 7.62464 8.00058 7.48046 8.20772 7.34938C8.34969 7.25882 8.47653 7.15991 8.58825 7.05267C8.70229 6.94304 8.79189 6.8215 8.85706 6.68804C8.92223 6.55219 8.95481 6.40086 8.95481 6.23403C8.95481 6.04576 8.91175 5.88251 8.82564 5.74428C8.73953 5.60605 8.62316 5.49881 8.47653 5.42255C8.33223 5.34628 8.17048 5.30815 7.99127 5.30815C7.82603 5.30815 7.66893 5.34509 7.51998 5.41897C7.37335 5.49047 7.25116 5.6001 7.15341 5.74786C7.05799 5.89323 7.00446 6.07793 6.99282 6.30195H5.75C5.76164 5.84914 5.8687 5.47021 6.07118 5.16516C6.27599 4.86011 6.54597 4.63132 6.88111 4.47879C7.21858 4.32626 7.59096 4.25 7.99825 4.25C8.44279 4.25 8.83379 4.32984 9.17126 4.48951C9.51106 4.64919 9.77521 4.87679 9.96373 5.17231C10.1546 5.46544 10.25 5.81339 10.25 6.21616C10.25 6.48785 10.2069 6.73093 10.1208 6.94542C10.037 7.15991 9.91718 7.35057 9.76125 7.5174C9.60531 7.68422 9.42029 7.83317 9.20617 7.96425C9.01765 8.08341 8.86288 8.20734 8.74185 8.33603C8.62316 8.46473 8.53472 8.61606 8.47653 8.79004C8.42068 8.96163 8.39158 9.17374 8.38926 9.42636V9.5193H7.22673ZM7.83417 11.75C7.62471 11.75 7.44434 11.6737 7.29306 11.5212C7.14178 11.3687 7.06614 11.1828 7.06614 10.9635C7.06614 10.749 7.14178 10.5655 7.29306 10.413C7.44434 10.2605 7.62471 10.1842 7.83417 10.1842C8.04131 10.1842 8.22052 10.2605 8.3718 10.413C8.52541 10.5655 8.60221 10.749 8.60221 10.9635C8.60221 11.1089 8.56614 11.2412 8.49399 11.3603C8.42417 11.4795 8.33107 11.5748 8.2147 11.6463C8.10066 11.7154 7.97382 11.75 7.83417 11.75Z"
        fill="#282750"
      />
    </symbol>
    <symbol id="kado-logo" viewBox="0 0 260 260">
      <g opacity="0.75">
        <path
          fill="#5493f7"
          d="M209.53,161.73a115,115,0,0,0,6.3-55.36c-4.48-32.06-21.62-56.69-53.53-74.17-40.85-22.38-96-14.49-129,18.43C15,68.91,3.92,99.22,18.62,120.49c10.66,15.42,31.23,21,43.33,35.32,15.14,17.88,14,45.49,29,63.46,13.33,15.93,37.32,20.27,57,13.74C164.46,227.55,194.25,203.45,209.53,161.73Z"
        />
      </g>
      <g opacity="0.8">
        <path
          fill="#2043b5"
          d="M148,233c16.47-5.46,46.26-29.56,61.55-71.28,6.47-17.68,10-34.7,6.29-55.36C203.56,38.13,120,125.89,105.59,134.8c-28.44,17.58-36.29,56.12-16,82.71.47.61.93,1.2,1.4,1.76C104.29,235.2,128.28,239.54,148,233Z"
        />
      </g>
      <g opacity="0.7">
        <path
          fill="#3573ec"
          d="M174,42.78a115,115,0,0,0-55.36-6.3C86.55,41,61.92,58.1,44.44,90c-22.37,40.85-14.49,96,18.43,129,18.28,18.3,48.59,29.39,69.87,14.69,15.41-10.65,21-31.22,35.31-43.33,17.88-15.14,45.49-14,63.46-29,15.93-13.33,20.27-37.31,13.74-57C239.79,87.85,215.69,58.06,174,42.78Z"
        />
      </g>
      <path
        fill="#fff"
        d="M137.37,177.57l-16.23-32.81-10.9,10-4.86,22.86H86.79l17.76-84h18.72l-7,32.69,35.77-32.69h25.83l-42.17,38.14,23.92,45.84Z"
      />
    </symbol>

    <symbol id="transak-logo" viewBox="0 0 1080 1080">
      <rect x="194" y="262" width="691" height="557" rx="103" fill="white" />
      <path
        fill="#1461db"
        d="M921.61,164.48a70.12,70.12,0,0,0-52.67-23.74H211.06a70.33,70.33,0,0,0-70.32,70.32V868.94a70.33,70.33,0,0,0,70.32,70.32H868.94a70.33,70.33,0,0,0,70.32-70.32V211.06A70,70,0,0,0,921.61,164.48Zm-98.7,397.3a34.76,34.76,0,0,1-49.15,0l-67.45-67.46V669.58a34.76,34.76,0,0,1-69.51,0V494.77L437.41,694.16c-.7.7-1.43,1.34-2.18,2l-.33.3a36,36,0,0,1-3.78,2.68l-.78.46a34.62,34.62,0,0,1-4.17,2.1l0,0h0c-1,.42-2.06.79-3.11,1.11l-.15.06c-1,.29-1.94.52-2.92.72-.14,0-.27.08-.41.1-.88.18-1.77.29-2.66.39-.23,0-.46.08-.69.1-.94.09-1.88.13-2.83.14l-.51,0h0c-1.12,0-2.25-.05-3.37-.16l-.15,0a34.61,34.61,0,0,1-15.68-5.6l0,0c-.93-.63-1.84-1.3-2.73-2a33.82,33.82,0,0,1-2.6-2.35L257.09,563a34.75,34.75,0,1,1,49.14-49.15l71.86,71.85V410.42a34.75,34.75,0,0,1,69.5,0V585.68L644.42,388.85a34.38,34.38,0,0,1,45.83-7.62c.3.18.6.36.89.56.66.45,1.3.91,1.92,1.41.89.69,1.74,1.43,2.57,2.21.16.16.35.27.5.43l.23.23L822.91,512.63A34.74,34.74,0,0,1,822.91,561.78Z"
      />
    </symbol>

    <symbol viewBox="0 0 24 24" fill="none" id="more-menu">
      <path
        d="M12 13C12.5523 13 13 12.5523 13 12C13 11.4477 12.5523 11 12 11C11.4477 11 11 11.4477 11 12C11 12.5523 11.4477 13 12 13Z"
        stroke="#8C8AF9"
        stroke-width="2"
        stroke-linecap="round"
        stroke-linejoin="round"
      />
      <path
        d="M12 6C12.5523 6 13 5.55228 13 5C13 4.44772 12.5523 4 12 4C11.4477 4 11 4.44772 11 5C11 5.55228 11.4477 6 12 6Z"
        stroke="#8C8AF9"
        stroke-width="2"
        stroke-linecap="round"
        stroke-linejoin="round"
      />
      <path
        d="M12 20C12.5523 20 13 19.5523 13 19C13 18.4477 12.5523 18 12 18C11.4477 18 11 18.4477 11 19C11 19.5523 11.4477 20 12 20Z"
        stroke="#8C8AF9"
        stroke-width="2"
        stroke-linecap="round"
        stroke-linejoin="round"
      />
    </symbol>

    <symbol viewBox="0 0 7 16" fill="none" id="sort-up">
      <path
        d="M3.48891 15.9165C3.94891 15.9165 4.32225 15.5432 4.32225 15.0832L4.32225 8.4165L4.32225 4.24984H6.44464C6.90464 4.24984 7.14372 3.70192 6.83038 3.36442L3.97719 0.286622C3.70636 0.015789 3.26658 0.015789 2.99575 0.286622L0.142559 3.36442C-0.171607 3.70192 0.0674682 4.24984 0.528301 4.24984H2.65558L2.65558 8.4165L2.65558 15.0832C2.65558 15.5432 3.02891 15.9165 3.48891 15.9165Z"
        fill="currentColor"
      />
    </symbol>

    <symbol viewBox="0 0 7 16" fill="none" id="sort-down">
      <path
        d="M3.4835 0C3.0235 0 2.65017 0.373333 2.65017 0.833333L2.65017 7.5L2.65017 11.6667H0.52777C0.0677701 11.6667 -0.171305 12.2146 0.142028 12.5521L2.99522 15.6299C3.26605 15.9007 3.70583 15.9007 3.97666 15.6299L6.82985 12.5521C7.14402 12.2146 6.90494 11.6667 6.44411 11.6667H4.31683L4.31683 7.5L4.31683 0.833333C4.31683 0.373333 3.9435 0 3.4835 0Z"
        fill="currentColor"
      />
    </symbol>

    <symbol id="check-mark" viewBox="0 0 15 12" fill="none">
      <path
        d="M1.5 6L4.80769 9.5L13 2"
        stroke="currentColor"
        stroke-width="3"
        stroke-linecap="round"
      />
    </symbol>

    <symbol id="minus" viewBox="0 0 20 4">
      <path
        d="M1.51477 2H18.4853"
        stroke="currentColor"
        stroke-width="3"
        stroke-linecap="round"
        stroke-linejoin="round"
      />
    </symbol>
    <symbol
      viewBox="0 0 385 236"
      fill="none"
      xmlns="http://www.w3.org/2000/svg"
      id="walletconnect"
    >
      <g clip-path="url(#a)">
        <path
          d="M78.6501 46.0001c62.6499-61.31 164.2199-61.31 226.8699 0l7.54 7.38c.743.7206 1.334 1.5832 1.738 2.5366.404.9534.611 1.9781.611 3.0134 0 1.0353-.207 2.06-.611 3.0134-.404.9534-.995 1.816-1.738 2.5366l-25.79 25.25c-.761.735-1.777 1.1458-2.835 1.1458s-2.074-.4108-2.835-1.1458l-10.38-10.16c-43.7-42.77-114.57-42.77-158.27 0l-11.11 10.88c-.762.7356-1.78 1.1468-2.8399 1.1468-1.0595 0-2.0776-.4112-2.8401-1.1468l-25.7899-25.25c-.7434-.7206-1.3344-1.5832-1.7379-2.5366-.4036-.9534-.6116-1.9781-.6116-3.0134 0-1.0353.208-2.06.6116-3.0134.4035-.9534.9945-1.816 1.7379-2.5366l8.28-8.1Zm280.2099 52.21 23 22.4599c.742.722 1.332 1.586 1.735 2.54s.611 1.979.611 3.015-.208 2.061-.611 3.015c-.403.954-.993 1.818-1.735 2.54L278.31 233.06c-1.52 1.472-3.554 2.296-5.67 2.296s-4.15-.824-5.67-2.296l-73.47-71.9c-.186-.186-.406-.333-.649-.434-.243-.101-.503-.152-.766-.152s-.523.051-.766.152-.463.248-.649.434l-73.46 71.9c-1.522 1.473-3.557 2.297-5.675 2.297s-4.153-.824-5.675-2.297L2.35005 131.75c-.74331-.721-1.3343-1.583-1.737886-2.537-.403588-.953-.61155365-1.978-.61155365-3.013s.20796565-2.06.61155365-3.013c.403586-.954.994576-1.816 1.737886-2.537L25.3501 98.1901c1.5178-1.4771 3.5521-2.3035 5.67-2.3035 2.1178 0 4.1521.8264 5.67 2.3035L110.16 170.08c.186.186.406.334.649.434.243.101.503.153.766.153s.523-.052.766-.153c.243-.1.463-.248.649-.434l73.46-71.8899c1.52-1.4777 3.556-2.3044 5.675-2.3044 2.12 0 4.156.8267 5.675 2.3044l73.46 71.8899c.186.188.407.336.651.438.244.101.505.154.769.154s.525-.053.769-.154c.244-.102.465-.25.651-.438l73.46-71.8899c1.518-1.4771 3.552-2.3035 5.67-2.3035s4.152.8264 5.67 2.3035l-.04.02Z"
          fill="#3396FF"
        />
      </g>
      <defs>
        <clipPath id="a">
          <path fill="#fff" d="M0 0h384.17v235.35H0z" />
        </clipPath>
      </defs>
    </symbol>
    <symbol id="alert-triangle" viewBox="0 0 20 20" fill="none">
      <path
        d="M8.5749 3.21672L1.51656 15C1.37104 15.2521 1.29403 15.5378 1.29322 15.8288C1.2924 16.1198 1.3678 16.406 1.51192 16.6588C1.65603 16.9116 1.86383 17.1223 2.11465 17.2699C2.36547 17.4175 2.65056 17.4969 2.94156 17.5H17.0582C17.3492 17.4969 17.6343 17.4175 17.8851 17.2699C18.136 17.1223 18.3438 16.9116 18.4879 16.6588C18.632 16.406 18.7074 16.1198 18.7066 15.8288C18.7058 15.5378 18.6288 15.2521 18.4832 15L11.4249 3.21672C11.2763 2.9718 11.0672 2.76931 10.8176 2.62879C10.568 2.48826 10.2863 2.41443 9.9999 2.41443C9.71345 2.41443 9.43184 2.48826 9.18223 2.62879C8.93263 2.76931 8.72345 2.9718 8.5749 3.21672V3.21672Z"
        stroke="currentColor"
        stroke-width="2"
        stroke-linecap="round"
        stroke-linejoin="round"
      />
      <path
        d="M10 7.5V10.8333"
        stroke="currentColor"
        stroke-width="2"
        stroke-linecap="round"
        stroke-linejoin="round"
      />
      <path
        d="M10 14.1666H10.0083"
        stroke="currentColor"
        stroke-width="2"
        stroke-linecap="round"
        stroke-linejoin="round"
      />
    </symbol>

    <symbol id="twitter" viewBox="0 0 16 13">
      <path
        d="M14.1153 2.04983C14.801 1.63981 15.314 0.994185 15.5587 0.233505C14.9144 0.615898 14.2094 0.885267 13.4743 1.02996C12.4552 -0.0484094 10.8404 -0.310836 9.53238 0.38932C8.22433 1.08948 7.5468 2.57888 7.87838 4.02529C5.23921 3.89275 2.78035 2.64577 1.11368 0.594627C0.243878 2.09529 0.688366 4.01364 2.12946 4.97859C1.60834 4.96183 1.09879 4.8207 0.643274 4.56697C0.643274 4.58074 0.643274 4.59451 0.643274 4.60828C0.643575 6.17148 1.745 7.51798 3.2768 7.82778C2.79343 7.95932 2.28642 7.97868 1.79444 7.8844C2.22522 9.22121 3.45697 10.137 4.86089 10.1644C3.69812 11.0772 2.26215 11.5723 0.784014 11.5698C0.522016 11.5702 0.260224 11.5551 0 11.5247C1.50102 12.4895 3.24801 13.0016 5.03222 12.9998C7.51448 13.0168 9.90001 12.038 11.6552 10.2822C13.4104 8.52641 14.3888 6.14018 14.3715 3.65728C14.3715 3.51497 14.3682 3.37343 14.3616 3.23265C15.0045 2.76794 15.5593 2.19225 16 1.53263C15.4011 1.79816 14.7658 1.97249 14.1153 2.04983Z"
      />
    </symbol>
    <symbol id="medium" viewBox="0 0 14 12">
      <path
        d="M1.66017 2.28467C1.66877 2.19926 1.65725 2.11302 1.62654 2.03294C1.59582 1.95287 1.54679 1.88123 1.48342 1.82386L0.17675 0.236872V0H4.235L7.37217 6.93277L10.1302 0H14V0.236872L12.8818 1.31661C12.8345 1.35297 12.7979 1.40162 12.776 1.45733C12.7542 1.51305 12.7477 1.57372 12.7575 1.63283V9.56776C12.7479 9.62677 12.7543 9.68733 12.7762 9.74293C12.7981 9.79853 12.8346 9.84708 12.8818 9.88339L13.9726 10.9631V11.2H8.48342V10.9631L9.61333 9.85694C9.72417 9.74526 9.72417 9.71235 9.72417 9.54072V3.12754L6.58 11.173H6.15592L2.4955 3.12754V8.51976C2.46517 8.74664 2.53983 8.97469 2.69792 9.13868L4.16792 10.9373V11.1735H0V10.9367L1.47 9.13809C1.6275 8.97469 1.6975 8.74429 1.66017 8.51976V2.28467Z"
      />
    </symbol>
    <symbol id="github" viewBox="0 0 16 16">
      <path
        d="M7.9996 2.17863e-07C4.07639 -0.000516665 0.732035 2.91782 0.103901 6.88991C-0.524233 10.862 1.74933 14.715 5.47156 15.9864C5.87245 16.0604 6.01597 15.808 6.01597 15.5908C6.01597 15.3959 6.00956 14.8795 6.00715 14.1928C3.78219 14.6862 3.31234 13.0924 3.31234 13.0924C3.16587 12.5965 2.85097 12.1708 2.42476 11.8926C1.70315 11.3835 2.48008 11.395 2.48008 11.395C2.99377 11.4673 3.44588 11.7794 3.70441 12.2404C3.92325 12.6485 4.29193 12.9501 4.72854 13.0781C5.16515 13.2061 5.63353 13.15 6.0296 12.9222C6.06682 12.5061 6.24732 12.1171 6.53874 11.8251C4.76358 11.6187 2.89701 10.9147 2.89701 7.77075C2.88716 6.95757 3.18157 6.17145 3.71965 5.57415C3.47619 4.86633 3.50486 4.08995 3.79983 3.40304C3.79983 3.40304 4.47092 3.18182 5.99833 4.2427C7.30833 3.87428 8.69086 3.87428 10.0009 4.2427C11.5291 3.181 12.1994 3.40304 12.1994 3.40304C12.4957 4.08962 12.5244 4.86655 12.2795 5.57415C12.8196 6.17139 13.1138 6.95958 13.1006 7.77404C13.1006 10.9263 11.2324 11.6187 9.45084 11.8218C9.83515 12.2249 10.0322 12.7777 9.99204 13.34C9.99204 14.437 9.98242 15.3219 9.98242 15.5908C9.98242 15.8104 10.1251 16.0654 10.5332 15.9848C14.2539 14.7112 16.5251 10.858 15.8956 6.88694C15.2662 2.9159 11.922 -0.000920395 7.9996 2.17863e-07Z"
      />
    </symbol>
    <symbol viewBox="0 0 24 24" fill="none" id="wallet">
      <g>
        <g>
          <path
            fill-rule="evenodd"
            clip-rule="evenodd"
            d="M17.7689 8.3818H22C22 4.98459 19.9644 3 16.5156 3H7.48444C4.03556 3 2 4.98459 2 8.33847V15.6615C2 19.0154 4.03556 21 7.48444 21H16.5156C19.9644 21 22 19.0154 22 15.6615V15.3495H17.7689C15.8052 15.3495 14.2133 13.7975 14.2133 11.883C14.2133 9.96849 15.8052 8.41647 17.7689 8.41647V8.3818ZM17.7689 9.87241H21.2533C21.6657 9.87241 22 10.1983 22 10.6004V13.131C21.9952 13.5311 21.6637 13.8543 21.2533 13.8589H17.8489C16.8548 13.872 15.9855 13.2084 15.76 12.2643C15.6471 11.6783 15.8056 11.0736 16.1931 10.6122C16.5805 10.1509 17.1573 9.88007 17.7689 9.87241ZM17.92 12.533H18.2489C18.6711 12.533 19.0133 12.1993 19.0133 11.7877C19.0133 11.3761 18.6711 11.0424 18.2489 11.0424H17.92C17.7181 11.0401 17.5236 11.1166 17.38 11.255C17.2364 11.3934 17.1555 11.5821 17.1556 11.779C17.1555 12.1921 17.4964 12.5282 17.92 12.533ZM6.73778 8.3818H12.3822C12.8044 8.3818 13.1467 8.04812 13.1467 7.63649C13.1467 7.22487 12.8044 6.89119 12.3822 6.89119H6.73778C6.31903 6.89116 5.9782 7.2196 5.97333 7.62783C5.97331 8.04087 6.31415 8.37705 6.73778 8.3818Z"
            fill="currentColor"
          />
        </g>
      </g>
    </symbol>
    <symbol viewBox="0 0 14 14" fill="none" id="left-right">
      <path
        d="M12.8323 4.08559C12.8323 3.9612 12.7858 3.83631 12.691 3.74152L10.5365 1.74429C10.3003 1.52495 9.91675 1.69231 9.91675 2.01431L9.91675 3.49998L7.00008 3.49998C6.92278 3.49889 6.84604 3.51317 6.77431 3.542C6.70258 3.57082 6.63729 3.61361 6.58224 3.66789C6.52719 3.72217 6.48348 3.78684 6.45364 3.85816C6.4238 3.92947 6.40844 4.00601 6.40844 4.08332C6.40844 4.16062 6.4238 4.23716 6.45364 4.30847C6.48348 4.37979 6.52719 4.44447 6.58224 4.49874C6.63729 4.55302 6.70258 4.59581 6.77431 4.62464C6.84604 4.65346 6.92278 4.66774 7.00008 4.66665L9.91675 4.66665L9.91675 6.15574C9.91675 6.47833 10.3003 6.64568 10.5365 6.42576L12.691 4.42853C12.7858 4.33374 12.8323 4.20999 12.8323 4.08559ZM12.2501 9.91665C12.2501 9.59465 11.9887 9.33332 11.6667 9.33332C11.3447 9.33332 11.0834 9.59465 11.0834 9.91665C11.0834 10.2386 11.3447 10.5 11.6667 10.5C11.9887 10.5 12.2501 10.2386 12.2501 9.91665ZM9.91675 9.91665C9.91675 9.59465 9.65541 9.33332 9.33341 9.33332C9.01141 9.33332 8.75008 9.59465 8.75008 9.91665C8.75008 10.2386 9.01141 10.5 9.33341 10.5C9.65541 10.5 9.91675 10.2386 9.91675 9.91665ZM7.59139 9.90753C7.58897 9.75302 7.52536 9.60578 7.4145 9.49813C7.30364 9.39047 7.1546 9.3312 7.00008 9.33332L4.08341 9.33332L4.08341 7.84764C4.08341 7.52564 3.69987 7.35829 3.46362 7.57762L1.30916 9.57485C1.11958 9.76444 1.11958 10.0723 1.30916 10.2619L3.46362 12.2591C3.69987 12.479 4.08341 12.3117 4.08341 11.9891L4.08341 10.5L7.00008 10.5C7.07813 10.5011 7.15559 10.4864 7.22789 10.457C7.30019 10.4276 7.36585 10.384 7.42099 10.3288C7.47612 10.2735 7.51962 10.2078 7.54889 10.1354C7.57816 10.0631 7.59261 9.98558 7.59139 9.90753ZM5.25008 4.08332C5.25008 3.76132 4.98875 3.49998 4.66675 3.49998C4.34475 3.49998 4.08341 3.76132 4.08341 4.08332C4.08341 4.40532 4.34475 4.66665 4.66675 4.66665C4.98875 4.66665 5.25008 4.40532 5.25008 4.08332ZM2.91675 4.08332C2.91675 3.76132 2.65541 3.49998 2.33341 3.49998C2.01142 3.49998 1.75008 3.76132 1.75008 4.08332C1.75008 4.40532 2.01142 4.66665 2.33341 4.66665C2.65541 4.66665 2.91675 4.40532 2.91675 4.08332Z"
        fill="currentColor"
      />
    </symbol>

    <symbol id="lightning" viewBox="0 0 24 24">
      <svg
        width="13"
        height="22"
        viewBox="0 0 13 22"
        fill="none"
        xmlns="http://www.w3.org/2000/svg"
      >
        <path
          d="M7.21334 1.95066C7.26031 1.57498 6.74735 1.41966 6.57803 1.7583L1.26328 12.3878C1.0767 12.7609 1.34805 13.2 1.76526 13.2H6.35718L5.50101 20.0493C5.45405 20.425 5.96701 20.5803 6.13633 20.2417L11.4511 9.61221C11.6377 9.23905 11.3663 8.8 10.9491 8.8H6.35718L7.21334 1.95066Z"
          stroke="#EE65E9"
          stroke-width="2"
          stroke-linecap="round"
          stroke-linejoin="round"
        />
      </svg>
    </symbol>

    <symbol id="lightning-small" viewBox="0 0 9 16">
      <path
        d="M5.15617 0.950664C5.20313 0.574976 4.69017 0.419663 4.52085 0.758303L0.406106 8.98779C0.219526 9.36095 0.490876 9.8 0.90808 9.8H4.5L3.84383 15.0493C3.79687 15.425 4.30983 15.5803 4.47915 15.2417L8.59389 7.01221C8.78047 6.63905 8.50912 6.2 8.09192 6.2H4.5L5.15617 0.950664Z"
        fill="currentColor"
      />
    </symbol>

    <symbol id="left-right-arrow" viewBox="0 0 24 24">
      <svg
        width="25"
        height="24"
        viewBox="0 0 25 24"
        fill="none"
        xmlns="http://www.w3.org/2000/svg"
      >
        <path
          d="M15.9854 7.75781L20.228 12.0005L15.9854 16.2431"
          stroke="#E4E1FB"
          stroke-width="2"
          stroke-linecap="round"
          stroke-linejoin="round"
        />
        <path
          d="M9.01465 16.2431L4.77201 12.0005L9.01465 7.75781"
          stroke="#E4E1FB"
          stroke-width="2"
          stroke-linecap="round"
          stroke-linejoin="round"
        />
        <path
          d="M20.2281 11.9996H12.3286"
          stroke="#E4E1FB"
          stroke-width="2"
          stroke-linecap="round"
          stroke-linejoin="round"
        />
        <path
          d="M6.77193 11.9996H13.6714"
          stroke="#E4E1FB"
          stroke-width="2"
          stroke-linecap="round"
          stroke-linejoin="round"
        />
      </svg>
    </symbol>
    <symbol id="sandbox" viewBox="0 0 28 29" fill="none">
      <path
        d="M24.5 19.2124V9.8791C24.4996 9.46992 24.3916 9.06804 24.1868 8.71379C23.982 8.35953 23.6877 8.06535 23.3333 7.86076L15.1667 3.1941C14.812 2.9893 14.4096 2.88149 14 2.88149C13.5904 2.88149 13.188 2.9893 12.8333 3.1941L4.66667 7.86076C4.31231 8.06535 4.01798 8.35953 3.81321 8.71379C3.60843 9.06804 3.50042 9.46992 3.5 9.8791V19.2124C3.50042 19.6216 3.60843 20.0235 3.81321 20.3777C4.01798 20.732 4.31231 21.0262 4.66667 21.2308L12.8333 25.8974C13.188 26.1022 13.5904 26.21 14 26.21C14.4096 26.21 14.812 26.1022 15.1667 25.8974L23.3333 21.2308C23.6877 21.0262 23.982 20.732 24.1868 20.3777C24.3916 20.0235 24.4996 19.6216 24.5 19.2124Z"
        stroke="#958FC0"
        stroke-width="2.33333"
        stroke-linecap="round"
        stroke-linejoin="round"
      />
      <path
        d="M8.75 5.45743L14 8.49076L19.25 5.45743"
        stroke="#958FC0"
        stroke-width="2.33333"
        stroke-linecap="round"
        stroke-linejoin="round"
      />
      <path
        d="M8.75 23.6341V17.5791L3.5 14.5458"
        stroke="#958FC0"
        stroke-width="2.33333"
        stroke-linecap="round"
        stroke-linejoin="round"
      />
      <path
        d="M24.5 14.5458L19.25 17.5791V23.6341"
        stroke="#958FC0"
        stroke-width="2.33333"
        stroke-linecap="round"
        stroke-linejoin="round"
      />
      <path
        d="M3.815 8.66576L14 14.5574L24.185 8.66576"
        stroke="#958FC0"
        stroke-width="2.33333"
        stroke-linecap="round"
        stroke-linejoin="round"
      />
      <path
        d="M14 26.3058V14.5458"
        stroke="#958FC0"
        stroke-width="2.33333"
        stroke-linecap="round"
        stroke-linejoin="round"
      />
    </symbol>

    <symbol id="arrow-right" viewBox="0 0 28 29" fill="none">
      <svg
        width="24"
        height="24"
        viewBox="0 0 24 24"
        fill="none"
        xmlns="http://www.w3.org/2000/svg"
      >
        <path
          d="M4 12H18"
          stroke="currentColor"
          stroke-width="2.5"
          stroke-linecap="round"
          stroke-linejoin="round"
        />
        <path
          d="M14 6L19 12L14 18"
          stroke="currentColor"
          stroke-width="2.5"
          stroke-linecap="round"
          stroke-linejoin="round"
        />
      </svg>
    </symbol>

    <symbol id="zoom-in" viewBox="0 0 16 16" fill="none">
      <path
        d="M7.33333 12.6667C10.2789 12.6667 12.6667 10.2789 12.6667 7.33333C12.6667 4.38781 10.2789 2 7.33333 2C4.38781 2 2 4.38781 2 7.33333C2 10.2789 4.38781 12.6667 7.33333 12.6667Z"
        stroke="currentColor"
        stroke-width="1.5"
        stroke-linecap="round"
        stroke-linejoin="round"
      />
      <path
        d="M14 14L11.1 11.1"
        stroke="currentColor"
        stroke-width="1.5"
        stroke-linecap="round"
        stroke-linejoin="round"
      />
      <path
        d="M7.33337 5.33334V9.33334"
        stroke="currentColor"
        stroke-width="1.5"
        stroke-linecap="round"
        stroke-linejoin="round"
      />
      <path
        d="M5.33337 7.33334H9.33337"
        stroke="currentColor"
        stroke-width="1.5"
        stroke-linecap="round"
        stroke-linejoin="round"
      />
    </symbol>

    <symbol id="zoom-out" viewBox="0 0 16 16" fill="none">
      <path
        d="M7.33333 12.6667C10.2789 12.6667 12.6667 10.2789 12.6667 7.33333C12.6667 4.38781 10.2789 2 7.33333 2C4.38781 2 2 4.38781 2 7.33333C2 10.2789 4.38781 12.6667 7.33333 12.6667Z"
        stroke="currentColor"
        stroke-width="1.5"
        stroke-linecap="round"
        stroke-linejoin="round"
      />
      <path
        d="M14 14L11.1 11.1"
        stroke="currentColor"
        stroke-width="1.5"
        stroke-linecap="round"
        stroke-linejoin="round"
      />
      <path
        d="M5.33337 7.33334H9.33337"
        stroke="currentColor"
        stroke-width="1.5"
        stroke-linecap="round"
        stroke-linejoin="round"
      />
    </symbol>

    <symbol id="refresh-ccw" viewBox="0 0 16 16" fill="none">
      <g clip-path="url(#clip0_434_21323)">
        <path
          d="M0.666626 2.66666V6.66666H4.66663"
          stroke="currentColor"
          stroke-width="1.5"
          stroke-linecap="round"
          stroke-linejoin="round"
        />
        <path
          d="M15.3334 13.3333V9.33334H11.3334"
          stroke="currentColor"
          stroke-width="1.5"
          stroke-linecap="round"
          stroke-linejoin="round"
        />
        <path
          d="M13.66 6.00001C13.3218 5.04453 12.7472 4.19028 11.9896 3.51696C11.2321 2.84363 10.3163 2.37319 9.32777 2.14952C8.33922 1.92584 7.31012 1.95624 6.3365 2.23786C5.36288 2.51948 4.47646 3.04315 3.75996 3.76001L0.666626 6.66668M15.3333 9.33334L12.24 12.24C11.5235 12.9569 10.637 13.4805 9.66342 13.7622C8.6898 14.0438 7.6607 14.0742 6.67215 13.8505C5.6836 13.6268 4.76783 13.1564 4.01027 12.4831C3.25271 11.8097 2.67807 10.9555 2.33996 10"
          stroke="currentColor"
          stroke-width="1.5"
          stroke-linecap="round"
          stroke-linejoin="round"
        />
      </g>
      <defs>
        <clipPath id="clip0_434_21323">
          <rect width="16" height="16" fill="white" />
        </clipPath>
      </defs>
    </symbol>

    <symbol id="superfluid-osmo" fill="none" viewBox="0 0 24 24">
      <path
        d="M21.7595 6.8949C22.0802 6.57419 22.0802 6.05201 21.7595 5.7313L18.2687 2.24053C17.948 1.91982 17.4258 1.91982 17.1051 2.24053L15.4193 3.9263C15.1932 4.15244 14.856 4.23056 14.56 4.11955C11.1967 2.83261 7.29886 3.61382 4.70443 6.20825C1.09852 9.81415 1.09852 15.6856 4.70443 19.2915C6.50943 21.0965 8.87773 21.9969 11.246 21.9969C13.6143 21.9969 15.9826 21.0965 17.7876 19.2915C20.3821 16.697 21.1633 12.7992 19.8763 9.43588C19.7612 9.13985 19.8434 8.80269 20.0696 8.57655L21.7595 6.8949ZM19.1445 6.60297L17.545 8.2024C17.3189 8.42853 17.2655 8.77802 17.4217 9.05761C17.9233 9.96217 18.2317 10.9449 18.3386 11.9358C18.4373 12.8403 17.8658 13.6955 16.9941 13.9463C16.4801 14.0944 15.8017 14.2013 14.9218 14.2013C11.9738 14.2013 10.6293 11.8124 8.01429 11.8124C6.74379 11.8124 5.76934 12.0961 5.10737 12.388C4.60163 12.6101 4.0589 12.1948 4.14113 11.6438C4.26859 10.8133 4.53996 10.0033 4.96346 9.25086C6.31207 6.84556 8.77083 5.57095 11.2543 5.57095C12.4466 5.57095 13.6472 5.86288 14.7368 6.4714L14.9424 6.58241C15.222 6.73865 15.5715 6.68932 15.8017 6.46318L17.4011 4.86375C17.5615 4.7034 17.8205 4.7034 17.9809 4.86375L19.1445 6.02734C19.3048 6.18358 19.3048 6.44262 19.1445 6.60297Z"
        fill="currentColor"
      />
    </symbol>
    <symbol id="bell" viewBox="0 0 24 24" fill="none">
      <path
        d="M18 8C18 6.4087 17.3679 4.88258 16.2426 3.75736C15.1174 2.63214 13.5913 2 12 2C10.4087 2 8.88258 2.63214 7.75736 3.75736C6.63214 4.88258 6 6.4087 6 8C6 15 3 17 3 17H21C21 17 18 15 18 8Z"
        stroke="currentColor"
        stroke-width="2"
        stroke-linecap="round"
        stroke-linejoin="round"
      />
      <path
        d="M13.73 21C13.5542 21.3031 13.3018 21.5547 12.9982 21.7295C12.6946 21.9044 12.3504 21.9965 12 21.9965C11.6496 21.9965 11.3054 21.9044 11.0018 21.7295C10.6982 21.5547 10.4458 21.3031 10.27 21"
        stroke="currentColor"
        stroke-width="2"
        stroke-linecap="round"
        stroke-linejoin="round"
      />
    </symbol>
    <symbol id="email" viewBox="0 0 24 24" fill="none">
      <path
        d="M4 4H20C21.1 4 22 4.9 22 6V18C22 19.1 21.1 20 20 20H4C2.9 20 2 19.1 2 18V6C2 4.9 2.9 4 4 4Z"
        stroke="currentColor"
        stroke-width="2"
        stroke-linecap="round"
        stroke-linejoin="round"
      />
      <path
        d="M22 6L12 13L2 6"
        stroke="currentColor"
        stroke-width="2"
        stroke-linecap="round"
        stroke-linejoin="round"
      />
    </symbol>
    <symbol id="telegram" viewBox="0 0 24 24" fill="none">
      <path 
        d="M22 2L11 13"
        stroke="currentColor"
        stroke-width="2"
        stroke-linecap="round"
        stroke-linejoin="round"
      />
      <path
        d="M22 2L15 22L11 13L2 9L22 2Z"
        stroke="currentColor"
        stroke-width="2"
        stroke-linecap="round"
        stroke-linejoin="round"
      />
    </symbol>
    <symbol id="smartphone" viewBox="0 0 24 24" fill="none" >
      <path
        d="M17 2H7C5.89543 2 5 2.89543 5 4V20C5 21.1046 5.89543 22 7 22H17C18.1046 22 19 21.1046 19 20V4C19 2.89543 18.1046 2 17 2Z"
        stroke="currentColor"
        stroke-width="2"
        stroke-linecap="round"
        stroke-linejoin="round"
      />
      <path
        d="M12 18H12.01"
        stroke="currentColor"
        stroke-width="2"
        stroke-linecap="round"
        stroke-linejoin="round"
      />
    </symbol>

    <symbol id="open-book" fill="none" viewBox="0 0 16 16">
      <path d="M1 1.7H5.2C5.94261 1.7 6.6548 1.995 7.1799 2.5201C7.705 3.0452 8 3.75739 8 4.5V14.3C8 13.743 7.77875 13.2089 7.38492 12.8151C6.9911 12.4213 6.45695 12.2 5.9 12.2H1V1.7Z" stroke="#95EEDE" stroke-width="2" stroke-linecap="round" stroke-linejoin="round"/>
      <path d="M15 1.7H10.8C10.0574 1.7 9.3452 1.995 8.8201 2.5201C8.295 3.0452 8 3.75739 8 4.5V14.3C8 13.743 8.22125 13.2089 8.61508 12.8151C9.0089 12.4213 9.54305 12.2 10.1 12.2H15V1.7Z" stroke="#95EEDE" stroke-width="2" stroke-linecap="round" stroke-linejoin="round"/>
    </symbol>
  </defs>
</svg>
