<svg
  xmlns="http://www.w3.org/2000/svg"
  xmlns:xlink="http://www.w3.org/1999/xlink"
>
  <defs>
    <symbol viewBox="0 0 19 20" fill="none" id="search">
      <circle
        cx="8.30769"
        cy="8.61539"
        r="7.30769"
        stroke="currentColor"
        stroke-width="2"
      />
      <line
        x1="13.8756"
        y1="14.1539"
        x2="17.9999"
        y2="18.2781"
        stroke="currentColor"
        stroke-width="2"
        stroke-linecap="round"
      />
    </symbol>
    <symbol viewBox="0 0 9 12" fill="none" id="up-down-arrow">
      <path
        d="M3.21053 10.7894V1.94733L1 3.78943"
        stroke="currentColor"
        stroke-width="1.5"
        stroke-linecap="round"
      />
      <path
        d="M5.78947 1.21051L5.78947 10.0526L8 8.21051"
        stroke="currentColor"
        stroke-width="1.5"
        stroke-linecap="round"
      />
    </symbol>
    <symbol viewBox="0 0 15 8" id="chevron-up">
      <path
        d="M0.83321 6.988C0.83321 6.72729 0.92974 6.46658 1.11798 6.26721L6.69266 0.352722C7.1367 -0.117574 7.86068 -0.117574 8.30473 0.352722L13.8842 6.2621C14.2993 6.70173 14.2559 7.44296 13.7587 7.82124C13.3678 8.11773 12.8224 8.03083 12.4797 7.66788L7.49869 2.39238L2.52251 7.66277C2.16051 8.04616 1.56202 8.11773 1.17107 7.76501C0.94422 7.56053 0.83321 7.27426 0.83321 6.988Z"
        fill="currentColor"
      />
    </symbol>
    <symbol viewBox="0 0 14 8" id="chevron-down">
      <path
        d="M13.6667 1.01198C13.6667 1.27269 13.5702 1.5334 13.3819 1.73277L7.80721 7.6473C7.36316 8.1176 6.63917 8.1176 6.19512 7.6473L0.615584 1.73788C0.200497 1.29825 0.243937 0.557021 0.741076 0.178737C1.13203 -0.117757 1.67743 -0.0308533 2.02012 0.332095L7.00117 5.60763L11.9774 0.337207C12.3394 -0.0461892 12.9379 -0.117757 13.3288 0.234968C13.5557 0.439447 13.6667 0.725715 13.6667 1.01198Z"
        fill="currentColor"
      />
    </symbol>
    <symbol viewBox="0 0 9 14" id="chevron-left">
      <path
        d="M7.48799 13.6667C7.22728 13.6667 6.96657 13.5701 6.76721 13.3819L0.852721 7.80722C0.382425 7.36317 0.382425 6.63919 0.852721 6.19515L6.7621 0.615645C7.20173 0.200561 7.94295 0.244 8.32124 0.741136C8.61773 1.13209 8.53082 1.67749 8.16788 2.02017L2.89238 7.00118L8.16276 11.9774C8.54616 12.3394 8.61772 12.9379 8.265 13.3288C8.06053 13.5557 7.77426 13.6667 7.48799 13.6667Z"
        fill="currentColor"
      />
    </symbol>
    <symbol viewBox="0 0 8 14" id="chevron-right">
      <path
        d="M1.01201 0.333336C1.27272 0.333336 1.53342 0.429867 1.73279 0.618103L7.64728 6.19278C8.11757 6.63682 8.11757 7.36081 7.64728 7.80485L1.7379 13.3844C1.29827 13.7994 0.557047 13.756 0.178765 13.2589C-0.117727 12.8679 -0.0308238 12.3225 0.332122 11.9798L5.60762 6.99882L0.337235 2.02263C-0.0461585 1.66064 -0.117725 1.06215 0.234997 0.671195C0.439474 0.444347 0.725741 0.333336 1.01201 0.333336Z"
        fill="currentcolor"
      />
    </symbol>
    <symbol viewBox="0 0 24 24" id="setting">
      <path
        d="M12 13.5C12.8284 13.5 13.5 12.8284 13.5 12C13.5 11.1716 12.8284 10.5 12 10.5C11.1716 10.5 10.5 11.1716 10.5 12C10.5 12.8284 11.1716 13.5 12 13.5Z"
        fill="currentColor"
      />
      <path
        d="M21.8898 10.32L21.0998 7.8C21.0145 7.50876 20.8714 7.23767 20.6791 7.00292C20.4867 6.76817 20.2491 6.57456 19.9803 6.43364C19.7116 6.29272 19.4171 6.20737 19.1147 6.1827C18.8122 6.15802 18.5079 6.19451 18.2198 6.29L17.8798 6.4C17.6134 6.48805 17.3297 6.51039 17.0529 6.46511C16.776 6.41984 16.5142 6.3083 16.2898 6.14L16.1798 6.06C15.9608 5.89237 15.7842 5.67562 15.6644 5.42723C15.5445 5.17884 15.4847 4.90575 15.4898 4.63V4.35C15.4947 3.72202 15.2501 3.11779 14.8098 2.67C14.6004 2.45845 14.3512 2.29036 14.0766 2.17538C13.8021 2.0604 13.5075 2.0008 13.2098 2H10.6598C10.048 2.00791 9.46404 2.25719 9.03514 2.69358C8.60624 3.12997 8.3671 3.71813 8.36979 4.33V4.57C8.36883 4.86027 8.30274 5.14663 8.1764 5.40796C8.05006 5.6693 7.86669 5.89895 7.63979 6.08L7.50979 6.18C7.25913 6.36962 6.96596 6.49516 6.65575 6.5457C6.34554 6.59624 6.02767 6.57025 5.72979 6.47C5.45621 6.37533 5.16626 6.33715 4.87749 6.35777C4.58872 6.3784 4.30714 6.4574 4.04979 6.59C3.78184 6.72299 3.54413 6.90969 3.35145 7.1385C3.15877 7.36731 3.01524 7.63333 2.92979 7.92L2.10979 10.52C1.91963 11.1062 1.9684 11.7437 2.2455 12.2942C2.5226 12.8447 3.00566 13.2636 3.58979 13.46H3.74979C4.01925 13.561 4.2611 13.7241 4.4557 13.9361C4.6503 14.148 4.79217 14.4029 4.86979 14.68L4.92979 14.84C5.04127 15.1461 5.07855 15.4743 5.03856 15.7977C4.99858 16.121 4.88248 16.4302 4.69979 16.7C4.33001 17.2036 4.17403 17.8328 4.2658 18.4508C4.35756 19.0688 4.68964 19.6256 5.18979 20L7.25979 21.57C7.65174 21.855 8.12523 22.0058 8.60979 22C8.73948 22.0127 8.8701 22.0127 8.99979 22C9.29989 21.9419 9.58501 21.8233 9.83775 21.6514C10.0905 21.4794 10.3055 21.2578 10.4698 21L10.6998 20.67C10.8611 20.4386 11.0746 20.2483 11.323 20.1145C11.5714 19.9808 11.8478 19.9073 12.1298 19.9C12.4253 19.8927 12.7179 19.9604 12.9802 20.0968C13.2425 20.2332 13.466 20.4339 13.6298 20.68L13.7498 20.85C13.9203 21.1037 14.1409 21.3199 14.3981 21.4852C14.6553 21.6504 14.9436 21.7613 15.2452 21.8109C15.5469 21.8606 15.8555 21.848 16.1521 21.7739C16.4487 21.6997 16.727 21.5657 16.9698 21.38L18.9998 19.86C19.4798 19.4872 19.799 18.945 19.8919 18.3444C19.9849 17.7438 19.8446 17.1304 19.4998 16.63L19.2398 16.25C19.0834 16.0084 18.9811 15.736 18.9396 15.4512C18.8982 15.1664 18.9187 14.8761 18.9998 14.6C19.0824 14.3044 19.2357 14.0334 19.4466 13.8104C19.6574 13.5874 19.9193 13.4191 20.2098 13.32L20.4098 13.25C20.9885 13.0492 21.4665 12.6312 21.7426 12.0845C22.0188 11.5377 22.0716 10.905 21.8898 10.32ZM11.9998 15.5C11.3076 15.5 10.6309 15.2947 10.0553 14.9101C9.47972 14.5256 9.03112 13.9789 8.76621 13.3394C8.50131 12.6999 8.43199 11.9961 8.56704 11.3172C8.70209 10.6383 9.03543 10.0146 9.52492 9.52513C10.0144 9.03564 10.638 8.7023 11.317 8.56725C11.9959 8.4322 12.6996 8.50151 13.3392 8.76642C13.9787 9.03133 14.5253 9.47993 14.9099 10.0555C15.2945 10.6311 15.4998 11.3078 15.4998 12C15.4998 12.9283 15.131 13.8185 14.4747 14.4749C13.8183 15.1313 12.928 15.5 11.9998 15.5Z"
        fill="currentColor"
      />
    </symbol>
    <symbol viewBox="0 0 17 16" id="info">
      <rect x="0.5" width="16" height="16" rx="8" fill="#565081" />
      <circle cx="8.5" cy="4" r="1" fill="#090524" />
      <rect x="7.5" y="6" width="2" height="6" fill="#090524" />
    </symbol>
    <symbol viewBox="0 0 30 30" id="hamburger">
      <path
        d="M3.75 15H26.25"
        stroke="currentColor"
        stroke-width="3"
        stroke-linecap="round"
        stroke-linejoin="round"
      />
      <path
        d="M3.75 7.5H26.25"
        stroke="currentColor"
        stroke-width="3"
        stroke-linecap="round"
        stroke-linejoin="round"
      />
      <path
        d="M3.75 22.5H26.25"
        stroke="currentColor"
        stroke-width="3"
        stroke-linecap="round"
        stroke-linejoin="round"
      />
    </symbol>
    <symbol viewBox="0 0 25 24" id="close">
      <path
        fill-rule="evenodd"
        clip-rule="evenodd"
        d="M15.4759 17.5102L12.6266 14.6609L9.77286 17.5146C9.09654 18.1909 8.00868 18.1918 7.33342 17.5165C6.65815 16.8412 6.64253 15.7369 7.31884 15.0606L10.1726 12.2069L7.33974 9.37406C6.66448 8.69879 6.64886 7.59446 7.32517 6.91815C8.01798 6.22534 9.12231 6.24096 9.79757 6.91623L12.6304 9.74905L15.4841 6.89533C16.1604 6.21901 17.2648 6.23464 17.94 6.9099C18.6153 7.58517 18.6144 8.67302 17.9381 9.34934L15.0844 12.2031L17.9337 15.0523C18.609 15.7276 18.6246 16.8319 17.9318 17.5248C17.2555 18.2011 16.1511 18.1854 15.4759 17.5102Z"
        fill="currentColor"
      />
    </symbol>
    <symbol viewBox="0 0 25 24" id="close-thin">
      <path
        d="M18 6L6 18"
        stroke="currentColor"
        stroke-width="3"
        stroke-linecap="round"
        stroke-linejoin="round"
      />
      <path
        d="M6 6L18 18"
        stroke="currentColor"
        stroke-width="3"
        stroke-linecap="round"
        stroke-linejoin="round"
      />
    </symbol>
    <symbol viewBox="0 0 24 24" fill="none" id="globe">
      <path
        d="M12 22C17.5228 22 22 17.5228 22 12C22 6.47715 17.5228 2 12 2C6.47715 2 2 6.47715 2 12C2 17.5228 6.47715 22 12 22Z"
        stroke="currentColor"
        stroke-width="2"
        stroke-linecap="round"
        stroke-linejoin="round"
      />
      <path
        d="M2 12H22"
        stroke="currentColor"
        stroke-width="2"
        stroke-linecap="round"
        stroke-linejoin="round"
      />
      <path
        d="M12 2C14.5013 4.73835 15.9228 8.29203 16 12C15.9228 15.708 14.5013 19.2616 12 22C9.49872 19.2616 8.07725 15.708 8 12C8.07725 8.29203 9.49872 4.73835 12 2V2Z"
        stroke="currentColor"
        stroke-width="2"
        stroke-linecap="round"
        stroke-linejoin="round"
      />
    </symbol>
    <symbol viewBox="0 0 24 24" fill="none" id="dust-broom">
      <path
        d="M22.5 2C22.5 2 18.6479 8.29002 16.5 12M16.5 12C18.4162 12.7984 19.5 14.5 19.5 16C19.5 17.5 19.1 20.1 17.5 20.5M16.5 12C16.2585 11.8994 16.7739 12.0384 16.5 12ZM16.5 12C14.8369 11.7666 12.5 12.0657 12.5 15.5C12.5 18 10 20 9 20M16.5 12C16.7596 12.2371 17 12.5 16.5 15C16 17.5 16 20 13 20.5"
        stroke="currentColor"
        stroke-width="2"
        stroke-linecap="round"
      />
      <circle cx="3" cy="21" r="1" fill="currentColor" />
      <circle cx="7" cy="21" r="1" fill="currentColor" />
      <circle cx="1.5" cy="14.5" r="0.5" fill="currentColor" />
      <circle cx="3.5" cy="11.5" r="0.5" fill="currentColor" />
      <circle cx="4" cy="18" r="1" fill="currentColor" />
    </symbol>

    <symbol viewBox="0 0 25 24" fill="none" id="arrow-right">
      <path
        d="M3 12H21.5"
        stroke="currentColor"
        stroke-width="2.5"
        stroke-linecap="round"
        stroke-linejoin="round"
      />
      <path
        d="M14.5 5L21.5 12L14.5 19"
        stroke="currentColor"
        stroke-width="2.5"
        stroke-linecap="round"
        stroke-linejoin="round"
      />
    </symbol>

    <symbol
      width="24"
      height="24"
      viewBox="0 0 24 24"
      fill="none"
      id="close-small"
    >
      <path
        d="M18 6L6 18"
        stroke="currentColor"
        stroke-width="3"
        stroke-linecap="round"
        stroke-linejoin="round"
      />
      <path
        d="M6 6L18 18"
        stroke="currentColor"
        stroke-width="3"
        stroke-linecap="round"
        stroke-linejoin="round"
      />
    </symbol>
    <symbol viewBox="0 0 24 24" id="tune">
      <path
        d="M3 17v2h6v-2H3zM3 5v2h10V5H3zm10 16v-2h8v-2h-8v-2h-2v6h2zM7 9v2H3v2h4v2h2V9H7zm14 4v-2H11v2h10zm-6-4h2V7h4V5h-4V3h-2v6z"
        fill="currentColor"
      />
    </symbol>
    <symbol viewBox="0 0 16 16" fill="none" id="help-circle">
      <rect width="16" height="16" rx="8" fill="currentColor" />
      <path
        d="M7.22673 9.5193V9.42636C7.22905 8.995 7.26862 8.65181 7.34542 8.39681C7.42455 8.1418 7.53627 7.93685 7.68057 7.78194C7.82486 7.62464 8.00058 7.48046 8.20772 7.34938C8.34969 7.25882 8.47653 7.15991 8.58825 7.05267C8.70229 6.94304 8.79189 6.8215 8.85706 6.68804C8.92223 6.55219 8.95481 6.40086 8.95481 6.23403C8.95481 6.04576 8.91175 5.88251 8.82564 5.74428C8.73953 5.60605 8.62316 5.49881 8.47653 5.42255C8.33223 5.34628 8.17048 5.30815 7.99127 5.30815C7.82603 5.30815 7.66893 5.34509 7.51998 5.41897C7.37335 5.49047 7.25116 5.6001 7.15341 5.74786C7.05799 5.89323 7.00446 6.07793 6.99282 6.30195H5.75C5.76164 5.84914 5.8687 5.47021 6.07118 5.16516C6.27599 4.86011 6.54597 4.63132 6.88111 4.47879C7.21858 4.32626 7.59096 4.25 7.99825 4.25C8.44279 4.25 8.83379 4.32984 9.17126 4.48951C9.51106 4.64919 9.77521 4.87679 9.96373 5.17231C10.1546 5.46544 10.25 5.81339 10.25 6.21616C10.25 6.48785 10.2069 6.73093 10.1208 6.94542C10.037 7.15991 9.91718 7.35057 9.76125 7.5174C9.60531 7.68422 9.42029 7.83317 9.20617 7.96425C9.01765 8.08341 8.86288 8.20734 8.74185 8.33603C8.62316 8.46473 8.53472 8.61606 8.47653 8.79004C8.42068 8.96163 8.39158 9.17374 8.38926 9.42636V9.5193H7.22673ZM7.83417 11.75C7.62471 11.75 7.44434 11.6737 7.29306 11.5212C7.14178 11.3687 7.06614 11.1828 7.06614 10.9635C7.06614 10.749 7.14178 10.5655 7.29306 10.413C7.44434 10.2605 7.62471 10.1842 7.83417 10.1842C8.04131 10.1842 8.22052 10.2605 8.3718 10.413C8.52541 10.5655 8.60221 10.749 8.60221 10.9635C8.60221 11.1089 8.56614 11.2412 8.49399 11.3603C8.42417 11.4795 8.33107 11.5748 8.2147 11.6463C8.10066 11.7154 7.97382 11.75 7.83417 11.75Z"
        fill="#282750"
      />
    </symbol>
    <symbol id="kado-logo" viewBox="0 0 260 260">
      <g opacity="0.75">
        <path
          fill="#5493f7"
          d="M209.53,161.73a115,115,0,0,0,6.3-55.36c-4.48-32.06-21.62-56.69-53.53-74.17-40.85-22.38-96-14.49-129,18.43C15,68.91,3.92,99.22,18.62,120.49c10.66,15.42,31.23,21,43.33,35.32,15.14,17.88,14,45.49,29,63.46,13.33,15.93,37.32,20.27,57,13.74C164.46,227.55,194.25,203.45,209.53,161.73Z"
        />
      </g>
      <g opacity="0.8">
        <path
          fill="#2043b5"
          d="M148,233c16.47-5.46,46.26-29.56,61.55-71.28,6.47-17.68,10-34.7,6.29-55.36C203.56,38.13,120,125.89,105.59,134.8c-28.44,17.58-36.29,56.12-16,82.71.47.61.93,1.2,1.4,1.76C104.29,235.2,128.28,239.54,148,233Z"
        />
      </g>
      <g opacity="0.7">
        <path
          fill="#3573ec"
          d="M174,42.78a115,115,0,0,0-55.36-6.3C86.55,41,61.92,58.1,44.44,90c-22.37,40.85-14.49,96,18.43,129,18.28,18.3,48.59,29.39,69.87,14.69,15.41-10.65,21-31.22,35.31-43.33,17.88-15.14,45.49-14,63.46-29,15.93-13.33,20.27-37.31,13.74-57C239.79,87.85,215.69,58.06,174,42.78Z"
        />
      </g>
      <path
        fill="#fff"
        d="M137.37,177.57l-16.23-32.81-10.9,10-4.86,22.86H86.79l17.76-84h18.72l-7,32.69,35.77-32.69h25.83l-42.17,38.14,23.92,45.84Z"
      />
    </symbol>

    <symbol id="transak-logo" viewBox="0 0 1080 1080">
      <rect x="194" y="262" width="691" height="557" rx="103" fill="white" />
      <path
        fill="#1461db"
        d="M921.61,164.48a70.12,70.12,0,0,0-52.67-23.74H211.06a70.33,70.33,0,0,0-70.32,70.32V868.94a70.33,70.33,0,0,0,70.32,70.32H868.94a70.33,70.33,0,0,0,70.32-70.32V211.06A70,70,0,0,0,921.61,164.48Zm-98.7,397.3a34.76,34.76,0,0,1-49.15,0l-67.45-67.46V669.58a34.76,34.76,0,0,1-69.51,0V494.77L437.41,694.16c-.7.7-1.43,1.34-2.18,2l-.33.3a36,36,0,0,1-3.78,2.68l-.78.46a34.62,34.62,0,0,1-4.17,2.1l0,0h0c-1,.42-2.06.79-3.11,1.11l-.15.06c-1,.29-1.94.52-2.92.72-.14,0-.27.08-.41.1-.88.18-1.77.29-2.66.39-.23,0-.46.08-.69.1-.94.09-1.88.13-2.83.14l-.51,0h0c-1.12,0-2.25-.05-3.37-.16l-.15,0a34.61,34.61,0,0,1-15.68-5.6l0,0c-.93-.63-1.84-1.3-2.73-2a33.82,33.82,0,0,1-2.6-2.35L257.09,563a34.75,34.75,0,1,1,49.14-49.15l71.86,71.85V410.42a34.75,34.75,0,0,1,69.5,0V585.68L644.42,388.85a34.38,34.38,0,0,1,45.83-7.62c.3.18.6.36.89.56.66.45,1.3.91,1.92,1.41.89.69,1.74,1.43,2.57,2.21.16.16.35.27.5.43l.23.23L822.91,512.63A34.74,34.74,0,0,1,822.91,561.78Z"
      />
    </symbol>

    <symbol viewBox="0 0 24 24" fill="none" id="more-menu">
      <path
        d="M12 13C12.5523 13 13 12.5523 13 12C13 11.4477 12.5523 11 12 11C11.4477 11 11 11.4477 11 12C11 12.5523 11.4477 13 12 13Z"
        stroke="#8C8AF9"
        stroke-width="2"
        stroke-linecap="round"
        stroke-linejoin="round"
      />
      <path
        d="M12 6C12.5523 6 13 5.55228 13 5C13 4.44772 12.5523 4 12 4C11.4477 4 11 4.44772 11 5C11 5.55228 11.4477 6 12 6Z"
        stroke="#8C8AF9"
        stroke-width="2"
        stroke-linecap="round"
        stroke-linejoin="round"
      />
      <path
        d="M12 20C12.5523 20 13 19.5523 13 19C13 18.4477 12.5523 18 12 18C11.4477 18 11 18.4477 11 19C11 19.5523 11.4477 20 12 20Z"
        stroke="#8C8AF9"
        stroke-width="2"
        stroke-linecap="round"
        stroke-linejoin="round"
      />
    </symbol>

    <symbol viewBox="0 0 7 16" fill="none" id="sort-up">
      <path
        d="M3.48891 15.9165C3.94891 15.9165 4.32225 15.5432 4.32225 15.0832L4.32225 8.4165L4.32225 4.24984H6.44464C6.90464 4.24984 7.14372 3.70192 6.83038 3.36442L3.97719 0.286622C3.70636 0.015789 3.26658 0.015789 2.99575 0.286622L0.142559 3.36442C-0.171607 3.70192 0.0674682 4.24984 0.528301 4.24984H2.65558L2.65558 8.4165L2.65558 15.0832C2.65558 15.5432 3.02891 15.9165 3.48891 15.9165Z"
        fill="currentColor"
      />
    </symbol>

    <symbol viewBox="0 0 7 16" fill="none" id="sort-down">
      <path
        d="M3.4835 0C3.0235 0 2.65017 0.373333 2.65017 0.833333L2.65017 7.5L2.65017 11.6667H0.52777C0.0677701 11.6667 -0.171305 12.2146 0.142028 12.5521L2.99522 15.6299C3.26605 15.9007 3.70583 15.9007 3.97666 15.6299L6.82985 12.5521C7.14402 12.2146 6.90494 11.6667 6.44411 11.6667H4.31683L4.31683 7.5L4.31683 0.833333C4.31683 0.373333 3.9435 0 3.4835 0Z"
        fill="currentColor"
      />
    </symbol>

    <symbol id="check-mark" viewBox="0 0 15 12" fill="none">
      <path
        d="M1.5 6L4.80769 9.5L13 2"
        stroke="currentColor"
        stroke-width="3"
        stroke-linecap="round"
      />
    </symbol>

    <symbol id="minus" viewBox="0 0 20 4">
      <path
        d="M1.51477 2H18.4853"
        stroke="currentColor"
        stroke-width="3"
        stroke-linecap="round"
        stroke-linejoin="round"
      />
    </symbol>
    <symbol
      viewBox="0 0 385 236"
      fill="none"
      xmlns="http://www.w3.org/2000/svg"
      id="walletconnect"
    >
      <g clip-path="url(#a)">
        <path
          d="M78.6501 46.0001c62.6499-61.31 164.2199-61.31 226.8699 0l7.54 7.38c.743.7206 1.334 1.5832 1.738 2.5366.404.9534.611 1.9781.611 3.0134 0 1.0353-.207 2.06-.611 3.0134-.404.9534-.995 1.816-1.738 2.5366l-25.79 25.25c-.761.735-1.777 1.1458-2.835 1.1458s-2.074-.4108-2.835-1.1458l-10.38-10.16c-43.7-42.77-114.57-42.77-158.27 0l-11.11 10.88c-.762.7356-1.78 1.1468-2.8399 1.1468-1.0595 0-2.0776-.4112-2.8401-1.1468l-25.7899-25.25c-.7434-.7206-1.3344-1.5832-1.7379-2.5366-.4036-.9534-.6116-1.9781-.6116-3.0134 0-1.0353.208-2.06.6116-3.0134.4035-.9534.9945-1.816 1.7379-2.5366l8.28-8.1Zm280.2099 52.21 23 22.4599c.742.722 1.332 1.586 1.735 2.54s.611 1.979.611 3.015-.208 2.061-.611 3.015c-.403.954-.993 1.818-1.735 2.54L278.31 233.06c-1.52 1.472-3.554 2.296-5.67 2.296s-4.15-.824-5.67-2.296l-73.47-71.9c-.186-.186-.406-.333-.649-.434-.243-.101-.503-.152-.766-.152s-.523.051-.766.152-.463.248-.649.434l-73.46 71.9c-1.522 1.473-3.557 2.297-5.675 2.297s-4.153-.824-5.675-2.297L2.35005 131.75c-.74331-.721-1.3343-1.583-1.737886-2.537-.403588-.953-.61155365-1.978-.61155365-3.013s.20796565-2.06.61155365-3.013c.403586-.954.994576-1.816 1.737886-2.537L25.3501 98.1901c1.5178-1.4771 3.5521-2.3035 5.67-2.3035 2.1178 0 4.1521.8264 5.67 2.3035L110.16 170.08c.186.186.406.334.649.434.243.101.503.153.766.153s.523-.052.766-.153c.243-.1.463-.248.649-.434l73.46-71.8899c1.52-1.4777 3.556-2.3044 5.675-2.3044 2.12 0 4.156.8267 5.675 2.3044l73.46 71.8899c.186.188.407.336.651.438.244.101.505.154.769.154s.525-.053.769-.154c.244-.102.465-.25.651-.438l73.46-71.8899c1.518-1.4771 3.552-2.3035 5.67-2.3035s4.152.8264 5.67 2.3035l-.04.02Z"
          fill="#3396FF"
        />
      </g>
      <defs>
        <clipPath id="a">
          <path fill="#fff" d="M0 0h384.17v235.35H0z" />
        </clipPath>
      </defs>
    </symbol>
    <symbol id="alert-triangle" viewBox="0 0 20 20" fill="none">
      <path
        d="M8.5749 3.21672L1.51656 15C1.37104 15.2521 1.29403 15.5378 1.29322 15.8288C1.2924 16.1198 1.3678 16.406 1.51192 16.6588C1.65603 16.9116 1.86383 17.1223 2.11465 17.2699C2.36547 17.4175 2.65056 17.4969 2.94156 17.5H17.0582C17.3492 17.4969 17.6343 17.4175 17.8851 17.2699C18.136 17.1223 18.3438 16.9116 18.4879 16.6588C18.632 16.406 18.7074 16.1198 18.7066 15.8288C18.7058 15.5378 18.6288 15.2521 18.4832 15L11.4249 3.21672C11.2763 2.9718 11.0672 2.76931 10.8176 2.62879C10.568 2.48826 10.2863 2.41443 9.9999 2.41443C9.71345 2.41443 9.43184 2.48826 9.18223 2.62879C8.93263 2.76931 8.72345 2.9718 8.5749 3.21672V3.21672Z"
        stroke="currentColor"
        stroke-width="2"
        stroke-linecap="round"
        stroke-linejoin="round"
      />
      <path
        d="M10 7.5V10.8333"
        stroke="currentColor"
        stroke-width="2"
        stroke-linecap="round"
        stroke-linejoin="round"
      />
      <path
        d="M10 14.1666H10.0083"
        stroke="currentColor"
        stroke-width="2"
        stroke-linecap="round"
        stroke-linejoin="round"
      />
    </symbol>

    <symbol id="twitter" viewBox="0 0 16 13">
      <path
        d="M14.1153 2.04983C14.801 1.63981 15.314 0.994185 15.5587 0.233505C14.9144 0.615898 14.2094 0.885267 13.4743 1.02996C12.4552 -0.0484094 10.8404 -0.310836 9.53238 0.38932C8.22433 1.08948 7.5468 2.57888 7.87838 4.02529C5.23921 3.89275 2.78035 2.64577 1.11368 0.594627C0.243878 2.09529 0.688366 4.01364 2.12946 4.97859C1.60834 4.96183 1.09879 4.8207 0.643274 4.56697C0.643274 4.58074 0.643274 4.59451 0.643274 4.60828C0.643575 6.17148 1.745 7.51798 3.2768 7.82778C2.79343 7.95932 2.28642 7.97868 1.79444 7.8844C2.22522 9.22121 3.45697 10.137 4.86089 10.1644C3.69812 11.0772 2.26215 11.5723 0.784014 11.5698C0.522016 11.5702 0.260224 11.5551 0 11.5247C1.50102 12.4895 3.24801 13.0016 5.03222 12.9998C7.51448 13.0168 9.90001 12.038 11.6552 10.2822C13.4104 8.52641 14.3888 6.14018 14.3715 3.65728C14.3715 3.51497 14.3682 3.37343 14.3616 3.23265C15.0045 2.76794 15.5593 2.19225 16 1.53263C15.4011 1.79816 14.7658 1.97249 14.1153 2.04983Z"
      />
    </symbol>
    <symbol id="medium" viewBox="0 0 14 12">
      <path
        d="M1.66017 2.28467C1.66877 2.19926 1.65725 2.11302 1.62654 2.03294C1.59582 1.95287 1.54679 1.88123 1.48342 1.82386L0.17675 0.236872V0H4.235L7.37217 6.93277L10.1302 0H14V0.236872L12.8818 1.31661C12.8345 1.35297 12.7979 1.40162 12.776 1.45733C12.7542 1.51305 12.7477 1.57372 12.7575 1.63283V9.56776C12.7479 9.62677 12.7543 9.68733 12.7762 9.74293C12.7981 9.79853 12.8346 9.84708 12.8818 9.88339L13.9726 10.9631V11.2H8.48342V10.9631L9.61333 9.85694C9.72417 9.74526 9.72417 9.71235 9.72417 9.54072V3.12754L6.58 11.173H6.15592L2.4955 3.12754V8.51976C2.46517 8.74664 2.53983 8.97469 2.69792 9.13868L4.16792 10.9373V11.1735H0V10.9367L1.47 9.13809C1.6275 8.97469 1.6975 8.74429 1.66017 8.51976V2.28467Z"
      />
    </symbol>
    <symbol id="github" viewBox="0 0 16 16">
      <path
        d="M7.9996 2.17863e-07C4.07639 -0.000516665 0.732035 2.91782 0.103901 6.88991C-0.524233 10.862 1.74933 14.715 5.47156 15.9864C5.87245 16.0604 6.01597 15.808 6.01597 15.5908C6.01597 15.3959 6.00956 14.8795 6.00715 14.1928C3.78219 14.6862 3.31234 13.0924 3.31234 13.0924C3.16587 12.5965 2.85097 12.1708 2.42476 11.8926C1.70315 11.3835 2.48008 11.395 2.48008 11.395C2.99377 11.4673 3.44588 11.7794 3.70441 12.2404C3.92325 12.6485 4.29193 12.9501 4.72854 13.0781C5.16515 13.2061 5.63353 13.15 6.0296 12.9222C6.06682 12.5061 6.24732 12.1171 6.53874 11.8251C4.76358 11.6187 2.89701 10.9147 2.89701 7.77075C2.88716 6.95757 3.18157 6.17145 3.71965 5.57415C3.47619 4.86633 3.50486 4.08995 3.79983 3.40304C3.79983 3.40304 4.47092 3.18182 5.99833 4.2427C7.30833 3.87428 8.69086 3.87428 10.0009 4.2427C11.5291 3.181 12.1994 3.40304 12.1994 3.40304C12.4957 4.08962 12.5244 4.86655 12.2795 5.57415C12.8196 6.17139 13.1138 6.95958 13.1006 7.77404C13.1006 10.9263 11.2324 11.6187 9.45084 11.8218C9.83515 12.2249 10.0322 12.7777 9.99204 13.34C9.99204 14.437 9.98242 15.3219 9.98242 15.5908C9.98242 15.8104 10.1251 16.0654 10.5332 15.9848C14.2539 14.7112 16.5251 10.858 15.8956 6.88694C15.2662 2.9159 11.922 -0.000920395 7.9996 2.17863e-07Z"
      />
    </symbol>
    <symbol viewBox="0 0 24 24" fill="none" id="wallet">
      <g>
        <g>
          <path
            fill-rule="evenodd"
            clip-rule="evenodd"
            d="M17.7689 8.3818H22C22 4.98459 19.9644 3 16.5156 3H7.48444C4.03556 3 2 4.98459 2 8.33847V15.6615C2 19.0154 4.03556 21 7.48444 21H16.5156C19.9644 21 22 19.0154 22 15.6615V15.3495H17.7689C15.8052 15.3495 14.2133 13.7975 14.2133 11.883C14.2133 9.96849 15.8052 8.41647 17.7689 8.41647V8.3818ZM17.7689 9.87241H21.2533C21.6657 9.87241 22 10.1983 22 10.6004V13.131C21.9952 13.5311 21.6637 13.8543 21.2533 13.8589H17.8489C16.8548 13.872 15.9855 13.2084 15.76 12.2643C15.6471 11.6783 15.8056 11.0736 16.1931 10.6122C16.5805 10.1509 17.1573 9.88007 17.7689 9.87241ZM17.92 12.533H18.2489C18.6711 12.533 19.0133 12.1993 19.0133 11.7877C19.0133 11.3761 18.6711 11.0424 18.2489 11.0424H17.92C17.7181 11.0401 17.5236 11.1166 17.38 11.255C17.2364 11.3934 17.1555 11.5821 17.1556 11.779C17.1555 12.1921 17.4964 12.5282 17.92 12.533ZM6.73778 8.3818H12.3822C12.8044 8.3818 13.1467 8.04812 13.1467 7.63649C13.1467 7.22487 12.8044 6.89119 12.3822 6.89119H6.73778C6.31903 6.89116 5.9782 7.2196 5.97333 7.62783C5.97331 8.04087 6.31415 8.37705 6.73778 8.3818Z"
            fill="currentColor"
          />
        </g>
      </g>
    </symbol>
    <symbol viewBox="0 0 14 14" fill="none" id="left-right">
      <path
        d="M12.8323 4.08559C12.8323 3.9612 12.7858 3.83631 12.691 3.74152L10.5365 1.74429C10.3003 1.52495 9.91675 1.69231 9.91675 2.01431L9.91675 3.49998L7.00008 3.49998C6.92278 3.49889 6.84604 3.51317 6.77431 3.542C6.70258 3.57082 6.63729 3.61361 6.58224 3.66789C6.52719 3.72217 6.48348 3.78684 6.45364 3.85816C6.4238 3.92947 6.40844 4.00601 6.40844 4.08332C6.40844 4.16062 6.4238 4.23716 6.45364 4.30847C6.48348 4.37979 6.52719 4.44447 6.58224 4.49874C6.63729 4.55302 6.70258 4.59581 6.77431 4.62464C6.84604 4.65346 6.92278 4.66774 7.00008 4.66665L9.91675 4.66665L9.91675 6.15574C9.91675 6.47833 10.3003 6.64568 10.5365 6.42576L12.691 4.42853C12.7858 4.33374 12.8323 4.20999 12.8323 4.08559ZM12.2501 9.91665C12.2501 9.59465 11.9887 9.33332 11.6667 9.33332C11.3447 9.33332 11.0834 9.59465 11.0834 9.91665C11.0834 10.2386 11.3447 10.5 11.6667 10.5C11.9887 10.5 12.2501 10.2386 12.2501 9.91665ZM9.91675 9.91665C9.91675 9.59465 9.65541 9.33332 9.33341 9.33332C9.01141 9.33332 8.75008 9.59465 8.75008 9.91665C8.75008 10.2386 9.01141 10.5 9.33341 10.5C9.65541 10.5 9.91675 10.2386 9.91675 9.91665ZM7.59139 9.90753C7.58897 9.75302 7.52536 9.60578 7.4145 9.49813C7.30364 9.39047 7.1546 9.3312 7.00008 9.33332L4.08341 9.33332L4.08341 7.84764C4.08341 7.52564 3.69987 7.35829 3.46362 7.57762L1.30916 9.57485C1.11958 9.76444 1.11958 10.0723 1.30916 10.2619L3.46362 12.2591C3.69987 12.479 4.08341 12.3117 4.08341 11.9891L4.08341 10.5L7.00008 10.5C7.07813 10.5011 7.15559 10.4864 7.22789 10.457C7.30019 10.4276 7.36585 10.384 7.42099 10.3288C7.47612 10.2735 7.51962 10.2078 7.54889 10.1354C7.57816 10.0631 7.59261 9.98558 7.59139 9.90753ZM5.25008 4.08332C5.25008 3.76132 4.98875 3.49998 4.66675 3.49998C4.34475 3.49998 4.08341 3.76132 4.08341 4.08332C4.08341 4.40532 4.34475 4.66665 4.66675 4.66665C4.98875 4.66665 5.25008 4.40532 5.25008 4.08332ZM2.91675 4.08332C2.91675 3.76132 2.65541 3.49998 2.33341 3.49998C2.01142 3.49998 1.75008 3.76132 1.75008 4.08332C1.75008 4.40532 2.01142 4.66665 2.33341 4.66665C2.65541 4.66665 2.91675 4.40532 2.91675 4.08332Z"
        fill="currentColor"
      />
    </symbol>

    <symbol id="lightning" viewBox="0 0 24 24">
      <svg
        width="13"
        height="22"
        viewBox="0 0 13 22"
        fill="none"
        xmlns="http://www.w3.org/2000/svg"
      >
        <path
          d="M7.21334 1.95066C7.26031 1.57498 6.74735 1.41966 6.57803 1.7583L1.26328 12.3878C1.0767 12.7609 1.34805 13.2 1.76526 13.2H6.35718L5.50101 20.0493C5.45405 20.425 5.96701 20.5803 6.13633 20.2417L11.4511 9.61221C11.6377 9.23905 11.3663 8.8 10.9491 8.8H6.35718L7.21334 1.95066Z"
          stroke="#EE65E9"
          stroke-width="2"
          stroke-linecap="round"
          stroke-linejoin="round"
        />
      </svg>
    </symbol>

    <symbol id="lightning-small" viewBox="0 0 9 16">
      <path
        d="M5.15617 0.950664C5.20313 0.574976 4.69017 0.419663 4.52085 0.758303L0.406106 8.98779C0.219526 9.36095 0.490876 9.8 0.90808 9.8H4.5L3.84383 15.0493C3.79687 15.425 4.30983 15.5803 4.47915 15.2417L8.59389 7.01221C8.78047 6.63905 8.50912 6.2 8.09192 6.2H4.5L5.15617 0.950664Z"
        fill="currentColor"
      />
    </symbol>

    <symbol id="left-right-arrow" viewBox="0 0 24 24">
      <svg
        width="25"
        height="24"
        viewBox="0 0 25 24"
        fill="none"
        xmlns="http://www.w3.org/2000/svg"
      >
        <path
          d="M15.9854 7.75781L20.228 12.0005L15.9854 16.2431"
          stroke="#E4E1FB"
          stroke-width="2"
          stroke-linecap="round"
          stroke-linejoin="round"
        />
        <path
          d="M9.01465 16.2431L4.77201 12.0005L9.01465 7.75781"
          stroke="#E4E1FB"
          stroke-width="2"
          stroke-linecap="round"
          stroke-linejoin="round"
        />
        <path
          d="M20.2281 11.9996H12.3286"
          stroke="#E4E1FB"
          stroke-width="2"
          stroke-linecap="round"
          stroke-linejoin="round"
        />
        <path
          d="M6.77193 11.9996H13.6714"
          stroke="#E4E1FB"
          stroke-width="2"
          stroke-linecap="round"
          stroke-linejoin="round"
        />
      </svg>
    </symbol>
    <symbol id="sandbox" viewBox="0 0 28 29" fill="none">
      <path
        d="M24.5 19.2124V9.8791C24.4996 9.46992 24.3916 9.06804 24.1868 8.71379C23.982 8.35953 23.6877 8.06535 23.3333 7.86076L15.1667 3.1941C14.812 2.9893 14.4096 2.88149 14 2.88149C13.5904 2.88149 13.188 2.9893 12.8333 3.1941L4.66667 7.86076C4.31231 8.06535 4.01798 8.35953 3.81321 8.71379C3.60843 9.06804 3.50042 9.46992 3.5 9.8791V19.2124C3.50042 19.6216 3.60843 20.0235 3.81321 20.3777C4.01798 20.732 4.31231 21.0262 4.66667 21.2308L12.8333 25.8974C13.188 26.1022 13.5904 26.21 14 26.21C14.4096 26.21 14.812 26.1022 15.1667 25.8974L23.3333 21.2308C23.6877 21.0262 23.982 20.732 24.1868 20.3777C24.3916 20.0235 24.4996 19.6216 24.5 19.2124Z"
        stroke="#958FC0"
        stroke-width="2.33333"
        stroke-linecap="round"
        stroke-linejoin="round"
      />
      <path
        d="M8.75 5.45743L14 8.49076L19.25 5.45743"
        stroke="#958FC0"
        stroke-width="2.33333"
        stroke-linecap="round"
        stroke-linejoin="round"
      />
      <path
        d="M8.75 23.6341V17.5791L3.5 14.5458"
        stroke="#958FC0"
        stroke-width="2.33333"
        stroke-linecap="round"
        stroke-linejoin="round"
      />
      <path
        d="M24.5 14.5458L19.25 17.5791V23.6341"
        stroke="#958FC0"
        stroke-width="2.33333"
        stroke-linecap="round"
        stroke-linejoin="round"
      />
      <path
        d="M3.815 8.66576L14 14.5574L24.185 8.66576"
        stroke="#958FC0"
        stroke-width="2.33333"
        stroke-linecap="round"
        stroke-linejoin="round"
      />
      <path
        d="M14 26.3058V14.5458"
        stroke="#958FC0"
        stroke-width="2.33333"
        stroke-linecap="round"
        stroke-linejoin="round"
      />
    </symbol>

    <symbol id="arrow-right" viewBox="0 0 28 29" fill="none">
      <svg
        width="24"
        height="24"
        viewBox="0 0 24 24"
        fill="none"
        xmlns="http://www.w3.org/2000/svg"
      >
        <path
          d="M4 12H18"
          stroke="currentColor"
          stroke-width="2.5"
          stroke-linecap="round"
          stroke-linejoin="round"
        />
        <path
          d="M14 6L19 12L14 18"
          stroke="currentColor"
          stroke-width="2.5"
          stroke-linecap="round"
          stroke-linejoin="round"
        />
      </svg>
    </symbol>

    <symbol id="zoom-in" viewBox="0 0 16 16" fill="none">
      <path
        d="M7.33333 12.6667C10.2789 12.6667 12.6667 10.2789 12.6667 7.33333C12.6667 4.38781 10.2789 2 7.33333 2C4.38781 2 2 4.38781 2 7.33333C2 10.2789 4.38781 12.6667 7.33333 12.6667Z"
        stroke="currentColor"
        stroke-width="1.5"
        stroke-linecap="round"
        stroke-linejoin="round"
      />
      <path
        d="M14 14L11.1 11.1"
        stroke="currentColor"
        stroke-width="1.5"
        stroke-linecap="round"
        stroke-linejoin="round"
      />
      <path
        d="M7.33337 5.33334V9.33334"
        stroke="currentColor"
        stroke-width="1.5"
        stroke-linecap="round"
        stroke-linejoin="round"
      />
      <path
        d="M5.33337 7.33334H9.33337"
        stroke="currentColor"
        stroke-width="1.5"
        stroke-linecap="round"
        stroke-linejoin="round"
      />
    </symbol>

    <symbol id="zoom-out" viewBox="0 0 16 16" fill="none">
      <path
        d="M7.33333 12.6667C10.2789 12.6667 12.6667 10.2789 12.6667 7.33333C12.6667 4.38781 10.2789 2 7.33333 2C4.38781 2 2 4.38781 2 7.33333C2 10.2789 4.38781 12.6667 7.33333 12.6667Z"
        stroke="currentColor"
        stroke-width="1.5"
        stroke-linecap="round"
        stroke-linejoin="round"
      />
      <path
        d="M14 14L11.1 11.1"
        stroke="currentColor"
        stroke-width="1.5"
        stroke-linecap="round"
        stroke-linejoin="round"
      />
      <path
        d="M5.33337 7.33334H9.33337"
        stroke="currentColor"
        stroke-width="1.5"
        stroke-linecap="round"
        stroke-linejoin="round"
      />
    </symbol>

    <symbol id="refresh-ccw" viewBox="0 0 16 16" fill="none">
      <g clip-path="url(#clip0_434_21323)">
        <path
          d="M0.666626 2.66666V6.66666H4.66663"
          stroke="currentColor"
          stroke-width="1.5"
          stroke-linecap="round"
          stroke-linejoin="round"
        />
        <path
          d="M15.3334 13.3333V9.33334H11.3334"
          stroke="currentColor"
          stroke-width="1.5"
          stroke-linecap="round"
          stroke-linejoin="round"
        />
        <path
          d="M13.66 6.00001C13.3218 5.04453 12.7472 4.19028 11.9896 3.51696C11.2321 2.84363 10.3163 2.37319 9.32777 2.14952C8.33922 1.92584 7.31012 1.95624 6.3365 2.23786C5.36288 2.51948 4.47646 3.04315 3.75996 3.76001L0.666626 6.66668M15.3333 9.33334L12.24 12.24C11.5235 12.9569 10.637 13.4805 9.66342 13.7622C8.6898 14.0438 7.6607 14.0742 6.67215 13.8505C5.6836 13.6268 4.76783 13.1564 4.01027 12.4831C3.25271 11.8097 2.67807 10.9555 2.33996 10"
          stroke="currentColor"
          stroke-width="1.5"
          stroke-linecap="round"
          stroke-linejoin="round"
        />
      </g>
      <defs>
        <clipPath id="clip0_434_21323">
          <rect width="16" height="16" fill="white" />
        </clipPath>
      </defs>
    </symbol>

    <symbol id="superfluid-osmo" fill="none" viewBox="0 0 24 24">
      <path
        d="M21.7595 6.8949C22.0802 6.57419 22.0802 6.05201 21.7595 5.7313L18.2687 2.24053C17.948 1.91982 17.4258 1.91982 17.1051 2.24053L15.4193 3.9263C15.1932 4.15244 14.856 4.23056 14.56 4.11955C11.1967 2.83261 7.29886 3.61382 4.70443 6.20825C1.09852 9.81415 1.09852 15.6856 4.70443 19.2915C6.50943 21.0965 8.87773 21.9969 11.246 21.9969C13.6143 21.9969 15.9826 21.0965 17.7876 19.2915C20.3821 16.697 21.1633 12.7992 19.8763 9.43588C19.7612 9.13985 19.8434 8.80269 20.0696 8.57655L21.7595 6.8949ZM19.1445 6.60297L17.545 8.2024C17.3189 8.42853 17.2655 8.77802 17.4217 9.05761C17.9233 9.96217 18.2317 10.9449 18.3386 11.9358C18.4373 12.8403 17.8658 13.6955 16.9941 13.9463C16.4801 14.0944 15.8017 14.2013 14.9218 14.2013C11.9738 14.2013 10.6293 11.8124 8.01429 11.8124C6.74379 11.8124 5.76934 12.0961 5.10737 12.388C4.60163 12.6101 4.0589 12.1948 4.14113 11.6438C4.26859 10.8133 4.53996 10.0033 4.96346 9.25086C6.31207 6.84556 8.77083 5.57095 11.2543 5.57095C12.4466 5.57095 13.6472 5.86288 14.7368 6.4714L14.9424 6.58241C15.222 6.73865 15.5715 6.68932 15.8017 6.46318L17.4011 4.86375C17.5615 4.7034 17.8205 4.7034 17.9809 4.86375L19.1445 6.02734C19.3048 6.18358 19.3048 6.44262 19.1445 6.60297Z"
        fill="currentColor"
      />
    </symbol>
    <symbol id="bell" viewBox="0 0 24 24" fill="none">
      <path
        d="M18 8C18 6.4087 17.3679 4.88258 16.2426 3.75736C15.1174 2.63214 13.5913 2 12 2C10.4087 2 8.88258 2.63214 7.75736 3.75736C6.63214 4.88258 6 6.4087 6 8C6 15 3 17 3 17H21C21 17 18 15 18 8Z"
        stroke="currentColor"
        stroke-width="2"
        stroke-linecap="round"
        stroke-linejoin="round"
      />
      <path
        d="M13.73 21C13.5542 21.3031 13.3018 21.5547 12.9982 21.7295C12.6946 21.9044 12.3504 21.9965 12 21.9965C11.6496 21.9965 11.3054 21.9044 11.0018 21.7295C10.6982 21.5547 10.4458 21.3031 10.27 21"
        stroke="currentColor"
        stroke-width="2"
        stroke-linecap="round"
        stroke-linejoin="round"
      />
    </symbol>
    <symbol id="email" viewBox="0 0 24 24" fill="none">
      <path
        d="M4 4H20C21.1 4 22 4.9 22 6V18C22 19.1 21.1 20 20 20H4C2.9 20 2 19.1 2 18V6C2 4.9 2.9 4 4 4Z"
        stroke="currentColor"
        stroke-width="2"
        stroke-linecap="round"
        stroke-linejoin="round"
      />
      <path
        d="M22 6L12 13L2 6"
        stroke="currentColor"
        stroke-width="2"
        stroke-linecap="round"
        stroke-linejoin="round"
      />
    </symbol>
    <symbol id="telegram" viewBox="0 0 24 24" fill="none">
      <path
        d="M22 2L11 13"
        stroke="currentColor"
        stroke-width="2"
        stroke-linecap="round"
        stroke-linejoin="round"
      />
      <path
        d="M22 2L15 22L11 13L2 9L22 2Z"
        stroke="currentColor"
        stroke-width="2"
        stroke-linecap="round"
        stroke-linejoin="round"
      />
    </symbol>
    <symbol id="smartphone" viewBox="0 0 24 24" fill="none">
      <path
        d="M17 2H7C5.89543 2 5 2.89543 5 4V20C5 21.1046 5.89543 22 7 22H17C18.1046 22 19 21.1046 19 20V4C19 2.89543 18.1046 2 17 2Z"
        stroke="currentColor"
        stroke-width="2"
        stroke-linecap="round"
        stroke-linejoin="round"
      />
      <path
        d="M12 18H12.01"
        stroke="currentColor"
        stroke-width="2"
        stroke-linecap="round"
        stroke-linejoin="round"
      />
    </symbol>

    <symbol id="open-book" fill="none" viewBox="0 0 16 16">
      <path
        d="M1 1.7H5.2C5.94261 1.7 6.6548 1.995 7.1799 2.5201C7.705 3.0452 8 3.75739 8 4.5V14.3C8 13.743 7.77875 13.2089 7.38492 12.8151C6.9911 12.4213 6.45695 12.2 5.9 12.2H1V1.7Z"
        stroke="currentColor"
        stroke-width="2"
        stroke-linecap="round"
        stroke-linejoin="round"
      />
      <path
        d="M15 1.7H10.8C10.0574 1.7 9.3452 1.995 8.8201 2.5201C8.295 3.0452 8 3.75739 8 4.5V14.3C8 13.743 8.22125 13.2089 8.61508 12.8151C9.0089 12.4213 9.54305 12.2 10.1 12.2H15V1.7Z"
        stroke="currentColor"
        stroke-width="2"
        stroke-linecap="round"
        stroke-linejoin="round"
      />
    </symbol>

    <symbol id="pie-chart" fill="none" viewBox="0 0 33 24">
      <path
        d="M23.868 15.1116C23.3591 16.3151 22.5631 17.3756 21.5496 18.2005C20.5361 19.0253 19.336 19.5893 18.0542 19.8432C16.7724 20.097 15.448 20.033 14.1966 19.6568C12.9452 19.2805 11.8051 18.6034 10.8759 17.6848C9.94661 16.7661 9.25656 15.6337 8.86604 14.3868C8.47552 13.1398 8.3964 11.8161 8.63562 10.5315C8.87484 9.24687 9.4251 8.0404 10.2383 7.01757C11.0515 5.99474 12.1029 5.18669 13.3005 4.66406"
        stroke="#E196DB"
        stroke-width="2"
        stroke-linecap="round"
        stroke-linejoin="round"
      />
      <path
        d="M24.5 11.9996C24.5 10.9491 24.2931 9.90885 23.8911 8.9383C23.489 7.96774 22.8998 7.08587 22.157 6.34303C21.4141 5.6002 20.5323 5.01095 19.5617 4.60893C18.5911 4.20692 17.5509 4 16.5004 4V11.9996H24.5Z"
        stroke="#E196DB"
        stroke-width="2"
        stroke-linecap="round"
        stroke-linejoin="round"
      />
    </symbol>

    <symbol id="gift" viewBox="0 0 24 24" fill="none">
      <path
        d="M20.25 6.75H16.9613C16.9978 6.71906 17.0353 6.68906 17.0709 6.65625C17.3557 6.40329 17.5851 6.0943 17.745 5.74861C17.9049 5.40292 17.9917 5.02796 18 4.64719C18.0123 4.23063 17.9394 3.81595 17.7856 3.42861C17.6319 3.04127 17.4006 2.68944 17.106 2.39472C16.8113 2.1 16.4596 1.8686 16.0723 1.71474C15.685 1.56089 15.2703 1.48781 14.8538 1.5C14.4728 1.50821 14.0977 1.59496 13.7518 1.75482C13.406 1.91468 13.0968 2.14422 12.8438 2.42906C12.4936 2.8349 12.2089 3.29291 12 3.78656C11.7911 3.29291 11.5064 2.8349 11.1562 2.42906C10.9032 2.14422 10.594 1.91468 10.2482 1.75482C9.90232 1.59496 9.52718 1.50821 9.14625 1.5C8.72969 1.48781 8.31503 1.56089 7.92774 1.71474C7.54044 1.8686 7.18868 2.1 6.89405 2.39472C6.59941 2.68944 6.36812 3.04127 6.21438 3.42861C6.06064 3.81595 5.98768 4.23063 6 4.64719C6.00833 5.02796 6.09514 5.40292 6.255 5.74861C6.41486 6.0943 6.64434 6.40329 6.92906 6.65625C6.96469 6.68719 7.00219 6.71719 7.03875 6.75H3.75C3.35218 6.75 2.97064 6.90804 2.68934 7.18934C2.40804 7.47064 2.25 7.85218 2.25 8.25V11.25C2.25 11.6478 2.40804 12.0294 2.68934 12.3107C2.97064 12.592 3.35218 12.75 3.75 12.75V18.75C3.75 19.1478 3.90804 19.5294 4.18934 19.8107C4.47064 20.092 4.85218 20.25 5.25 20.25H10.875C10.9745 20.25 11.0698 20.2105 11.1402 20.1402C11.2105 20.0698 11.25 19.9745 11.25 19.875V11.25H3.75V8.25H11.25V11.25H12.75V8.25H20.25V11.25H12.75V19.875C12.75 19.9745 12.7895 20.0698 12.8598 20.1402C12.9302 20.2105 13.0255 20.25 13.125 20.25H18.75C19.1478 20.25 19.5294 20.092 19.8107 19.8107C20.092 19.5294 20.25 19.1478 20.25 18.75V12.75C20.6478 12.75 21.0294 12.592 21.3107 12.3107C21.592 12.0294 21.75 11.6478 21.75 11.25V8.25C21.75 7.85218 21.592 7.47064 21.3107 7.18934C21.0294 6.90804 20.6478 6.75 20.25 6.75ZM7.92281 5.53125C7.79168 5.4125 7.68651 5.26792 7.61391 5.10659C7.54131 4.94525 7.50285 4.77065 7.50094 4.59375C7.4962 4.38647 7.53287 4.18033 7.60881 3.98741C7.68476 3.79448 7.79844 3.61866 7.9432 3.47023C8.08796 3.3218 8.26089 3.20375 8.45186 3.12301C8.64282 3.04226 8.84798 3.00045 9.05531 3H9.10125C9.27815 3.00191 9.45275 3.04037 9.61409 3.11297C9.77542 3.18557 9.92 3.29074 10.0388 3.42188C10.8253 4.31063 11.1028 5.78438 11.2003 6.69563C10.2853 6.59906 8.8125 6.32156 7.92281 5.53125ZM16.0791 5.53125C15.1894 6.31875 13.7128 6.59625 12.7978 6.69375C12.9094 5.70844 13.2188 4.26563 13.9688 3.42281C14.0875 3.29168 14.2321 3.18651 14.3934 3.11391C14.5547 3.04131 14.7293 3.00285 14.9062 3.00094H14.9522C15.1595 3.00223 15.3645 3.0449 15.5552 3.12644C15.7458 3.20798 15.9183 3.32675 16.0624 3.4758C16.2066 3.62484 16.3195 3.80115 16.3947 3.99441C16.4698 4.18767 16.5056 4.39398 16.5 4.60125C16.4969 4.77695 16.4578 4.95016 16.3851 5.11013C16.3124 5.27011 16.2076 5.41344 16.0772 5.53125H16.0791Z"
        fill="currentColor"
      />
    </symbol>

    <symbol id="down-arrow" viewBox="0 0 16 22" fill="none">
      <path
        d="M8 2V18"
        stroke="#8E83AA"
        stroke-width="3"
        stroke-linecap="round"
      />
      <path
        d="M14 13L8 19L2 13"
        stroke="#8E83AA"
        stroke-width="3"
        stroke-linecap="round"
      />
    </symbol>

    <symbol id="swap" viewBox="0 0 19 24" fill="none">
      <path
        d="M6.125 1.93748L6.125 19.375L1.625 15.325"
        stroke="#C7BFDA"
        stroke-width="3"
        stroke-linecap="round"
      />
      <path
        d="M12.875 21.6249L12.875 4.18741L17.375 8.23741"
        stroke="#C7BFDA"
        stroke-width="3"
        stroke-linecap="round"
      />
    </symbol>

    <symbol id="alert-circle" viewBox="0 0 24 25" fill="none">
      <path
        d="M12 22.0916C17.5228 22.0916 22 17.6144 22 12.0916C22 6.56871 17.5228 2.09155 12 2.09155C6.47715 2.09155 2 6.56871 2 12.0916C2 17.6144 6.47715 22.0916 12 22.0916Z"
        stroke="currentColor"
        stroke-width="2"
        stroke-linecap="round"
        stroke-linejoin="round"
      />
      <path
        d="M12 8.09155V12.0916"
        stroke="currentColor"
        stroke-width="2"
        stroke-linecap="round"
        stroke-linejoin="round"
      />
      <path
        d="M12 16.0916H12.01"
        stroke="currentColor"
        stroke-width="2"
        stroke-linecap="round"
        stroke-linejoin="round"
      />
    </symbol>

    <symbol id="chart" viewBox="0 0 24 24" fill="none">
      <g id="Icon/Chart">
        <g id="Chart">
          <path
            id="Chart_2"
            fill-rule="evenodd"
            clip-rule="evenodd"
            d="M7.33 2H16.669C20.07 2 21.99 3.929 22 7.33V16.67C22 20.07 20.07 22 16.669 22H7.33C3.929 22 2 20.07 2 16.67V7.33C2 3.929 3.929 2 7.33 2ZM12.049 17.86C12.48 17.86 12.839 17.54 12.879 17.11V6.92C12.919 6.61 12.77 6.299 12.5 6.13C12.219 5.96 11.879 5.96 11.61 6.13C11.339 6.299 11.19 6.61 11.219 6.92V17.11C11.27 17.54 11.629 17.86 12.049 17.86ZM16.65 17.86C17.07 17.86 17.429 17.54 17.48 17.11V13.83C17.509 13.509 17.36 13.21 17.089 13.04C16.82 12.87 16.48 12.87 16.2 13.04C15.929 13.21 15.78 13.509 15.82 13.83V17.11C15.86 17.54 16.219 17.86 16.65 17.86ZM8.219 17.11C8.179 17.54 7.82 17.86 7.389 17.86C6.959 17.86 6.599 17.54 6.56 17.11V10.2C6.53 9.889 6.679 9.58 6.95 9.41C7.219 9.24 7.56 9.24 7.83 9.41C8.099 9.58 8.25 9.889 8.219 10.2V17.11Z"
            fill="white"
          />
        </g>
      </g>
    </symbol>

    <symbol id="vote" viewBox="0 0 24 24">
      <g transform="matrix(1,0,0,1,2,2.9998)">
        <path
          d="M3.6,0.2C2.726,0.2 2,0.926 2,1.8L2,14.6C1.576,14.6 1.169,14.769 0.869,15.069C0.569,15.369 0.4,15.776 0.4,16.2C0.4,16.625 0.569,17.032 0.869,17.332C1.169,17.632 1.576,17.8 2,17.8L18,17.8C18.424,17.8 18.831,17.632 19.131,17.332C19.431,17.032 19.6,16.625 19.6,16.2C19.6,15.776 19.431,15.369 19.131,15.069C18.831,14.769 18.424,14.6 18,14.6L18,1.8C18,0.926 17.274,0.2 16.4,0.2L3.6,0.2ZM3.6,1.8L16.4,1.8L16.4,16.2L3.6,16.2L3.6,1.8ZM12.392,4.992C12.233,4.992 12.078,5.04 11.945,5.129C11.814,5.218 11.711,5.344 11.651,5.491C11.591,5.639 11.577,5.801 11.609,5.957C11.642,6.112 11.72,6.255 11.834,6.366L12.069,6.6L11.834,6.835C11.758,6.908 11.696,6.997 11.654,7.094C11.612,7.192 11.589,7.297 11.588,7.404C11.587,7.51 11.608,7.616 11.648,7.714C11.688,7.813 11.748,7.902 11.823,7.977C11.898,8.053 11.988,8.112 12.086,8.152C12.185,8.193 12.29,8.213 12.397,8.212C12.503,8.211 12.608,8.188 12.706,8.146C12.804,8.104 12.892,8.043 12.966,7.966L13.2,7.731L13.434,7.966C13.508,8.043 13.596,8.104 13.694,8.146C13.792,8.188 13.897,8.211 14.003,8.212C14.11,8.213 14.215,8.193 14.314,8.152C14.413,8.112 14.502,8.053 14.577,7.977C14.653,7.902 14.712,7.813 14.752,7.714C14.793,7.616 14.813,7.51 14.812,7.404C14.81,7.297 14.788,7.192 14.746,7.094C14.704,6.997 14.642,6.908 14.566,6.835L14.331,6.6L14.566,6.366C14.681,6.253 14.76,6.109 14.792,5.951C14.824,5.793 14.808,5.629 14.745,5.48C14.682,5.332 14.576,5.206 14.44,5.119C14.304,5.032 14.146,4.988 13.984,4.992C13.777,4.999 13.579,5.085 13.434,5.235L13.2,5.469L12.966,5.235C12.891,5.158 12.802,5.097 12.703,5.055C12.605,5.014 12.499,4.992 12.392,4.992ZM6,5.8C5.894,5.799 5.789,5.818 5.69,5.858C5.592,5.897 5.502,5.956 5.427,6.03C5.351,6.105 5.292,6.194 5.251,6.291C5.21,6.389 5.189,6.494 5.189,6.6C5.189,6.706 5.21,6.811 5.251,6.909C5.292,7.007 5.351,7.095 5.427,7.17C5.502,7.244 5.592,7.303 5.69,7.343C5.789,7.382 5.894,7.402 6,7.4L9.2,7.4C9.306,7.402 9.411,7.382 9.51,7.343C9.608,7.303 9.698,7.244 9.773,7.17C9.849,7.095 9.908,7.007 9.949,6.909C9.99,6.811 10.011,6.706 10.011,6.6C10.011,6.494 9.99,6.389 9.949,6.291C9.908,6.194 9.849,6.105 9.773,6.03C9.698,5.956 9.608,5.897 9.51,5.858C9.411,5.818 9.306,5.799 9.2,5.8L6,5.8ZM13.2,10.2C12.882,10.2 12.576,10.327 12.352,10.552C12.126,10.777 12,11.082 12,11.4C12,11.719 12.126,12.024 12.352,12.249C12.576,12.474 12.882,12.6 13.2,12.6C13.518,12.6 13.823,12.474 14.049,12.249C14.274,12.024 14.4,11.719 14.4,11.4C14.4,11.082 14.274,10.777 14.049,10.552C13.823,10.327 13.518,10.2 13.2,10.2ZM6,10.6C5.894,10.599 5.789,10.618 5.69,10.658C5.592,10.697 5.502,10.756 5.427,10.831C5.351,10.905 5.292,10.994 5.251,11.091C5.21,11.189 5.189,11.294 5.189,11.4C5.189,11.506 5.21,11.611 5.251,11.709C5.292,11.807 5.351,11.896 5.427,11.97C5.502,12.044 5.592,12.103 5.69,12.143C5.789,12.182 5.894,12.202 6,12.2L9.2,12.2C9.306,12.202 9.411,12.182 9.51,12.143C9.608,12.103 9.698,12.044 9.773,11.97C9.849,11.896 9.908,11.807 9.949,11.709C9.99,11.611 10.011,11.506 10.011,11.4C10.011,11.294 9.99,11.189 9.949,11.091C9.908,10.994 9.849,10.905 9.773,10.831C9.698,10.756 9.608,10.697 9.51,10.658C9.411,10.618 9.306,10.599 9.2,10.6L6,10.6Z"
          fill="white"
        />
      </g>
    </symbol>

    <symbol id="ticket" viewBox="0 0 24 24">
      <g transform="matrix(1,0,0,1,-18,-18)">
        <path
          d="M39.787,28.539C39.652,28.671 39.468,28.746 39.275,28.746C38.559,28.746 37.979,29.31 37.979,29.995C37.979,30.686 38.552,31.247 39.261,31.254C39.661,31.258 40,31.529 40,31.917L40,34.327C40,36.355 38.308,38 36.219,38L33.066,38C32.74,38 32.476,37.744 32.476,37.427L32.476,35.398C32.476,35.003 32.157,34.693 31.75,34.693C31.354,34.693 31.025,35.003 31.025,35.398L31.025,37.427C31.025,37.744 30.761,38 30.436,38L23.781,38C21.702,38 20,36.356 20,34.327L20,31.917C20,31.529 20.34,31.258 20.739,31.254C21.449,31.247 22.021,30.686 22.021,29.995C22.021,29.328 21.46,28.821 20.725,28.821C20.532,28.821 20.348,28.746 20.213,28.614C20.077,28.483 20,28.304 20,28.116L20,25.683C20,23.657 21.706,22 23.791,22L30.436,22C30.761,22 31.025,22.257 31.025,22.573L31.025,24.978C31.025,25.363 31.354,25.683 31.75,25.683C32.157,25.683 32.476,25.363 32.476,24.978L32.476,22.573C32.476,22.257 32.74,22 33.066,22L36.219,22C38.308,22 40,23.644 40,25.674L40,28.041C40,28.229 39.923,28.408 39.787,28.539ZM31.75,32.87C32.157,32.87 32.476,32.551 32.476,32.166L32.476,28.408C32.476,28.022 32.157,27.703 31.75,27.703C31.354,27.703 31.025,28.022 31.025,28.408L31.025,32.166C31.025,32.551 31.354,32.87 31.75,32.87Z"
          fill="white"
        />
      </g>
    </symbol>

    <symbol id="pool" viewBox="0 0 24 24">
      <g transform="matrix(1,0,0,1,-18.48,-18)">
        <path
          d="M30.061,27.655C30.061,26.345 30.876,24.549 31.521,23.329C30.227,21.398 28.988,20 28.381,20C26.814,20 21,29.342 21,33.133C21,36.924 24.303,40 28.381,40C32.456,40 35.762,36.924 35.762,33.133C35.762,33.046 35.755,32.952 35.749,32.858C35.72,32.858 35.69,32.862 35.658,32.862C32.573,32.865 30.061,30.528 30.061,27.655Z"
          fill="white"
        />
      </g>
      <g transform="matrix(1,0,0,1,-18.48,-18)">
        <path
          d="M39.96,27.655C39.96,29.864 38.033,31.657 35.658,31.657C33.283,31.657 31.356,29.864 31.356,27.655C31.356,25.445 34.746,20 35.658,20C36.573,20 39.96,25.445 39.96,27.655Z"
          fill="white"
        />
      </g>
    </symbol>

    <symbol id="apps" viewBox="0 0 24 24" fill="none">
      <circle cx="6" cy="6" r="2" fill="#E4E1FB" />
      <circle cx="6" cy="12" r="2" fill="#E4E1FB" />
      <circle cx="6" cy="18" r="2" fill="#E4E1FB" />
      <circle cx="12" cy="6" r="2" fill="#E4E1FB" />
      <circle cx="18" cy="6" r="2" fill="#E4E1FB" />
      <circle cx="12" cy="12" r="2" fill="#E4E1FB" />
      <circle cx="18" cy="12" r="2" fill="#E4E1FB" />
      <circle cx="12" cy="18" r="2" fill="#E4E1FB" />
      <circle cx="18" cy="18" r="2" fill="#E4E1FB" />
    </symbol>

    <symbol id="assets-pie-chart" viewBox="0 0 24 24" fill="none">
      <path
        d="M19.2727 12.9091C19.7748 12.9091 20.1866 13.3173 20.1371 13.817C19.6815 18.4115 15.8053 22.0001 11.0909 22.0001C6.07014 22.0001 2 17.9299 2 12.9091C2 8.19476 5.58855 4.31852 10.1831 3.863C10.6827 3.81346 11.0909 4.22525 11.0909 4.72733V11.091C11.0909 12.0951 11.9049 12.9091 12.9091 12.9091H19.2727Z"
        fill="white"
      />
      <path
        d="M21.9553 10.1831C22.0048 10.6827 21.5936 11.0909 21.0915 11.0909C19.7439 11.0909 17.0265 11.0909 13.8183 11.0909C13.3163 11.0909 12.9091 10.6838 12.9091 10.1817C12.9091 6.97357 12.9091 4.25609 12.9091 2.90854C12.9091 2.40647 13.3173 1.99522 13.8169 2.04476C18.1129 2.47068 21.5294 5.88715 21.9553 10.1831Z"
        fill="white"
      />
    </symbol>

    <symbol id="trade" viewBox="0 0 24 24">
      <g transform="matrix(1,0,0,1,2.01,1.60585)">
        <path
          d="M13.29,6.047C12.98,2.658 10.134,0 6.656,0C2.979,0 0,2.979 0,6.656C0,9.868 2.27,12.537 5.283,13.169C5.77,9.181 9.17,6.058 13.29,6.047Z"
          fill="white"
        />
      </g>
      <g transform="matrix(1,0,0,1,2.01,1.60585)">
        <path
          d="M13.324,20.788C17,20.788 19.98,17.808 19.98,14.132C19.98,10.456 17,7.476 13.324,7.476C9.648,7.476 6.667,10.456 6.667,14.132C6.667,17.808 9.648,20.788 13.324,20.788Z"
          fill="white"
        />
      </g>
    </symbol>

    <symbol id="earn" viewBox="0 0 24 24" fill="none">
      <rect x="10" y="17.5" width="3" height="4" rx="1" fill="white"/>
      <rect x="6" y="18.5" width="3" height="3" rx="1" fill="white"/>
      <rect x="2" y="19.5" width="3" height="2" rx="1" fill="white"/>
      <rect x="14" y="14.5" width="3" height="7" rx="1" fill="white"/>
      <rect x="18" y="9.5" width="3" height="12" rx="1" fill="white"/>
      <path d="M2.8356 16.0136C2.29083 16.1044 1.92281 16.6196 2.01361 17.1644C2.1044 17.7092 2.61963 18.0772 3.1644 17.9864L2.8356 16.0136ZM3.1644 17.9864C7.77754 17.2175 11.2354 15.7875 13.8025 13.423C16.3711 11.0572 17.9426 7.8528 18.9701 3.74254L17.0299 3.25746C16.0574 7.1472 14.6289 9.94284 12.4475 11.952C10.2646 13.9625 7.22246 15.2825 2.8356 16.0136L3.1644 17.9864Z" fill="white"/>
      <path d="M14.5 4.5L18.5 3L19.5 7" stroke="white" stroke-width="2" stroke-linecap="round"/>
    </symbol>

    <symbol id="external-link" viewBox="0 0 12 12" fill="none">
      <path
        d="M1.33333 0C0.604625 0 0 0.604625 0 1.33333V10.6667C0 11.3954 0.604625 12 1.33333 12H10.6667C11.3954 12 12 11.3954 12 10.6667V6H10.6667V10.6667H1.33333V1.33333H6V0H1.33333ZM7.33333 0V1.33333H9.72396L3.52865 7.52865L4.47135 8.47135L10.6667 2.27604V4.66667H12V0H7.33333Z"
        fill="#8E83AA"
      />
    </symbol>

    <symbol id="web" viewBox="0 0 22 22" fill="none">
      <path
        d="M11 2.0625C9.23233 2.0625 7.50436 2.58668 6.0346 3.56874C4.56483 4.55081 3.41929 5.94665 2.74283 7.57977C2.06637 9.21288 1.88938 11.0099 2.23424 12.7436C2.57909 14.4773 3.43031 16.0698 4.68024 17.3198C5.93017 18.5697 7.52268 19.4209 9.25638 19.7658C10.9901 20.1106 12.7871 19.9336 14.4202 19.2572C16.0534 18.5807 17.4492 17.4352 18.4313 15.9654C19.4133 14.4956 19.9375 12.7677 19.9375 11C19.935 8.6304 18.9926 6.35856 17.317 4.683C15.6414 3.00743 13.3696 2.065 11 2.0625ZM8.73383 14.4375H13.2662C12.8047 16.0136 12.0313 17.4341 11 18.553C9.96875 17.4341 9.19532 16.0136 8.73383 14.4375ZM8.42188 13.0625C8.19386 11.697 8.19386 10.303 8.42188 8.9375H13.5781C13.8061 10.303 13.8061 11.697 13.5781 13.0625H8.42188ZM3.4375 11C3.43691 10.3026 3.53322 9.60843 3.72368 8.9375H7.02883C6.82373 10.3049 6.82373 11.6951 7.02883 13.0625H3.72368C3.53322 12.3916 3.43691 11.6974 3.4375 11ZM13.2662 7.5625H8.73383C9.19532 5.98641 9.96875 4.56586 11 3.44695C12.0313 4.56586 12.8047 5.98641 13.2662 7.5625ZM14.9712 8.9375H18.2763C18.6579 10.286 18.6579 11.714 18.2763 13.0625H14.9712C15.1763 11.6951 15.1763 10.3049 14.9712 8.9375ZM17.7349 7.5625H14.6902C14.3393 6.18192 13.7501 4.87321 12.9491 3.69531C13.9725 3.97033 14.927 4.45648 15.7512 5.1225C16.5754 5.78852 17.2512 6.61967 17.7349 7.5625ZM9.05094 3.69531C8.24991 4.87321 7.6607 6.18192 7.30985 7.5625H4.26508C4.74885 6.61967 5.42458 5.78852 6.24881 5.1225C7.07305 4.45648 8.02756 3.97033 9.05094 3.69531ZM4.26508 14.4375H7.30985C7.6607 15.8181 8.24991 17.1268 9.05094 18.3047C8.02756 18.0297 7.07305 17.5435 6.24881 16.8775C5.42458 16.2115 4.74885 15.3803 4.26508 14.4375ZM12.9491 18.3047C13.7501 17.1268 14.3393 15.8181 14.6902 14.4375H17.7349C17.2512 15.3803 16.5754 16.2115 15.7512 16.8775C14.927 17.5435 13.9725 18.0297 12.9491 18.3047Z"
        fill="currentColor"
      />
    </symbol>

    <symbol id="coingecko" fill="none" viewBox="0 0 36 36">
      <path
        d="M20.25 14.6258C18 12.3753 15.1733 14.0771 13.5 15.7508C12.6001 16.6509 12.375 20.6257 12.375 22.5008C12.6 23.85 15.75 26.325 20.25 25.2C19.8 22.05 22.5 19.1256 23.625 18.0006C24 17.6256 24.75 16.8756 23.625 15.7507C22.9739 15.0996 22.5 15.7508 20.25 14.6258Z"
        fill="currentColor"
      />
      <circle
        cx="18"
        cy="18"
        r="8.1"
        stroke="currentColor"
        stroke-width="1.8"
      />
      <circle cx="17.75" cy="16.25" r="1" stroke="#140F34" stroke-width="0.5" />
      <path
        d="M22.5 20C21.8333 20.1667 19.8 20.3 19 19.5"
        stroke="#201B43"
        stroke-width="0.5"
        stroke-linecap="round"
      />
    </symbol>

    <symbol id="X" viewBox="0 0 1200 1227" fill="none">
      <path
        d="M714.163 519.284L1160.89 0H1055.03L667.137 450.887L357.328 0H0L468.492 681.821L0 1226.37H105.866L515.491 750.218L842.672 1226.37H1200L714.137 519.284H714.163ZM569.165 687.828L521.697 619.934L144.011 79.6944H306.615L611.412 515.685L658.88 583.579L1055.08 1150.3H892.476L569.165 687.854V687.828Z"
        fill="currentColor"
      />
    </symbol>

    <symbol id="star" viewBox="0 0 24 24">
      <path d="M0 0h24v24H0z" fill="none" />
      <path
        fill="currentColor"
        d="m12 17.27 4.15 2.51c.76.46 1.69-.22 1.49-1.08l-1.1-4.72 3.67-3.18c.67-.58.31-1.68-.57-1.75l-4.83-.41-1.89-4.46c-.34-.81-1.5-.81-1.84 0L9.19 8.63l-4.83.41c-.88.07-1.24 1.17-.57 1.75l3.67 3.18-1.1 4.72c-.2.86.73 1.54 1.49 1.08l4.15-2.5z"
      />
    </symbol>
    <symbol id="sleep-bell" viewBox="0 0 132 132" fill="none">
      <g clipPath="url(#clip0_1223_1600)">
        <mask
          id="mask0_1223_1600"
          maskUnits="userSpaceOnUse"
          x="0"
          y="0"
          width="132"
          height="132"
        >
          <path d="M132 0H0V132H132V0Z" fill="white" />
        </mask>
        <g mask="url(#mask0_1223_1600)">
          <path
            d="M71.478 30.228V36.366C70.026 36.036 68.574 35.838 67.122 35.706C64.878 35.574 62.634 35.838 60.456 36.366V30.228H71.478Z"
            fill="#565081"
          />
          <path
            d="M91.674 79.728H89.826V62.106C89.892 50.886 82.302 41.118 71.478 38.28C70.026 37.95 68.574 37.686 67.122 37.554C64.878 37.488 62.634 37.686 60.456 38.214C49.698 40.788 42.108 50.358 42.108 61.38V79.728H40.26C39.27 79.728 38.412 80.52 38.412 81.576V85.272C38.412 86.262 39.204 87.12 40.26 87.12H91.608C92.598 87.12 93.456 86.328 93.456 85.272V81.576C93.522 80.586 92.664 79.728 91.674 79.728Z"
            fill="#756CA3"
          />
          <path
            d="M53.328 88.902C54.384 95.898 60.918 100.716 67.914 99.66C73.458 98.802 77.814 94.446 78.672 88.902H53.328Z"
            fill="#565081"
          />
          <path
            d="M92.466 45.408C92.466 45.606 92.466 45.738 92.466 45.87C92.466 46.002 92.4 46.134 92.4 46.2C92.4 46.266 92.334 46.332 92.268 46.332C92.202 46.332 92.136 46.398 92.07 46.398H86.526C86.328 46.398 86.196 46.332 86.13 46.2C86.064 46.068 85.998 45.87 85.998 45.672V45.21C85.998 45.078 85.998 45.012 85.998 44.88C85.998 44.814 85.998 44.682 86.064 44.616C86.064 44.55 86.13 44.418 86.196 44.352C86.262 44.286 86.328 44.154 86.394 44.088L89.562 39.204H86.592C86.46 39.204 86.394 39.138 86.328 39.006C86.262 38.874 86.196 38.61 86.196 38.28C86.196 38.082 86.196 37.95 86.196 37.818C86.196 37.686 86.262 37.62 86.262 37.554C86.262 37.488 86.328 37.422 86.394 37.422C86.46 37.422 86.526 37.356 86.592 37.356H91.74C91.806 37.356 91.872 37.356 91.938 37.356C92.004 37.356 92.07 37.422 92.07 37.488C92.136 37.554 92.136 37.62 92.136 37.686C92.136 37.752 92.202 37.884 92.202 38.016V38.478C92.202 38.61 92.202 38.742 92.202 38.808C92.202 38.874 92.202 39.006 92.136 39.072C92.136 39.138 92.07 39.27 92.004 39.336C91.938 39.402 91.872 39.534 91.806 39.6L88.638 44.484H92.004C92.07 44.484 92.136 44.484 92.136 44.55C92.202 44.55 92.202 44.616 92.268 44.682C92.334 44.748 92.334 44.88 92.334 44.946C92.4 45.078 92.466 45.21 92.466 45.408Z"
            fill="#756CA3"
          />
          <path
            d="M101.508 34.716C101.508 34.98 101.508 35.178 101.442 35.31C101.442 35.508 101.376 35.64 101.31 35.706C101.244 35.838 101.244 35.904 101.178 35.904C101.112 35.904 101.046 35.97 100.98 35.97H93.72C93.522 35.97 93.324 35.904 93.192 35.772C93.06 35.64 92.994 35.376 92.994 35.046V34.452C92.994 34.32 92.994 34.188 92.994 34.056C92.994 33.924 93.06 33.792 93.06 33.726C93.126 33.594 93.126 33.528 93.192 33.396C93.258 33.264 93.324 33.132 93.456 33L97.614 26.598H93.654C93.522 26.598 93.39 26.466 93.258 26.268C93.192 26.07 93.126 25.74 93.126 25.278C93.126 25.014 93.126 24.816 93.126 24.684C93.126 24.552 93.192 24.42 93.192 24.288C93.258 24.222 93.258 24.156 93.324 24.09C93.39 24.024 93.456 24.024 93.588 24.024H100.386C100.518 24.024 100.584 24.024 100.716 24.09C100.782 24.09 100.848 24.156 100.914 24.222C100.98 24.288 100.98 24.354 101.046 24.486C101.046 24.618 101.112 24.75 101.112 24.948V25.542C101.112 25.74 101.112 25.872 101.112 26.004C101.112 26.136 101.046 26.268 101.046 26.4C100.98 26.532 100.98 26.664 100.914 26.73C100.848 26.862 100.782 26.994 100.716 27.126L96.558 33.528H100.914C100.98 33.528 101.046 33.528 101.112 33.594C101.178 33.66 101.244 33.66 101.31 33.792C101.376 33.858 101.376 33.99 101.442 34.188C101.508 34.254 101.508 34.452 101.508 34.716Z"
            fill="#756CA3"
          />
        </g>
      </g>
    </symbol>
    <symbol id="caret-down" viewBox="0 0 24 24" fill="none">
      <path
        fill="currentColor"
        d="M20.2959 9.79592L12.7959 17.2959C12.6914 17.4008 12.5672 17.484 12.4304 17.5408C12.2937 17.5976 12.1471 17.6268 11.999 17.6268C11.851 17.6268 11.7043 17.5976 11.5676 17.5408C11.4309 17.484 11.3067 17.4008 11.2021 17.2959L3.70215 9.79592C3.4908 9.58457 3.37207 9.29793 3.37207 8.99904C3.37207 8.70016 3.4908 8.41351 3.70215 8.20217C3.91349 7.99082 4.20014 7.87209 4.49902 7.87209C4.79791 7.87209 5.08455 7.99082 5.2959 8.20217L12 14.9062L18.704 8.20123C18.9154 7.98989 19.202 7.87115 19.5009 7.87115C19.7998 7.87115 20.0864 7.98989 20.2978 8.20123C20.5091 8.41258 20.6278 8.69922 20.6278 8.99811C20.6278 9.29699 20.5091 9.58364 20.2978 9.79498L20.2959 9.79592Z"
      />
    </symbol>
    <symbol id="dots-three-vertical" viewBox="0 0 24 24" fill="none">
      <g id="dots-three-vertical">
        <path
          id="Vector"
          d="M10.5 5.625C10.5 5.32833 10.588 5.03832 10.7528 4.79165C10.9176 4.54497 11.1519 4.35271 11.426 4.23918C11.7001 4.12565 12.0017 4.09594 12.2926 4.15382C12.5836 4.2117 12.8509 4.35456 13.0607 4.56434C13.2704 4.77412 13.4133 5.04139 13.4712 5.33237C13.5291 5.62334 13.4994 5.92494 13.3858 6.19903C13.2723 6.47311 13.08 6.70738 12.8334 6.8722C12.5867 7.03703 12.2967 7.125 12 7.125C11.6022 7.125 11.2206 6.96696 10.9393 6.68566C10.658 6.40436 10.5 6.02283 10.5 5.625ZM12 10.5C11.7033 10.5 11.4133 10.588 11.1666 10.7528C10.92 10.9176 10.7277 11.1519 10.6142 11.426C10.5006 11.7001 10.4709 12.0017 10.5288 12.2926C10.5867 12.5836 10.7296 12.8509 10.9393 13.0607C11.1491 13.2704 11.4164 13.4133 11.7074 13.4712C11.9983 13.5291 12.2999 13.4994 12.574 13.3858C12.8481 13.2723 13.0824 13.08 13.2472 12.8334C13.412 12.5867 13.5 12.2967 13.5 12C13.5 11.6022 13.342 11.2206 13.0607 10.9393C12.7794 10.658 12.3978 10.5 12 10.5ZM12 16.875C11.7033 16.875 11.4133 16.963 11.1666 17.1278C10.92 17.2926 10.7277 17.5269 10.6142 17.801C10.5006 18.0751 10.4709 18.3767 10.5288 18.6676C10.5867 18.9586 10.7296 19.2259 10.9393 19.4357C11.1491 19.6454 11.4164 19.7883 11.7074 19.8462C11.9983 19.9041 12.2999 19.8743 12.574 19.7608C12.8481 19.6473 13.0824 19.455 13.2472 19.2084C13.412 18.9617 13.5 18.6717 13.5 18.375C13.5 17.9772 13.342 17.5956 13.0607 17.3143C12.7794 17.033 12.3978 16.875 12 16.875Z"
          fill="#958FC0"
        />
      </g>
    </symbol>

    <symbol id="gift" viewBox="0 0 14 14" fill="none">
      <path
        d="M12.7037 4.33835H11.0224C11.263 3.99516 11.3967 3.59083 11.4074 3.1745C11.417 2.85734 11.3604 2.5416 11.241 2.24669C11.1216 1.95177 10.942 1.6839 10.7133 1.45954C10.4845 1.23517 10.2113 1.05905 9.91062 0.941982C9.60989 0.824917 9.28794 0.769384 8.96454 0.778795C8.66583 0.785047 8.37166 0.851798 8.10051 0.974856C7.82936 1.09791 7.58708 1.27462 7.38889 1.49388C7.24271 1.65742 7.1125 1.83405 7 2.02146C6.8875 1.83405 6.75729 1.65742 6.61111 1.49388C6.41292 1.27462 6.17064 1.09791 5.89949 0.974856C5.62834 0.851798 5.33417 0.785047 5.03546 0.778795C4.71206 0.769384 4.39011 0.824917 4.08938 0.941982C3.78866 1.05905 3.51552 1.23517 3.28674 1.45954C3.05795 1.6839 2.87836 1.95177 2.75899 2.24669C2.63962 2.5416 2.583 2.85734 2.59259 3.1745C2.60326 3.59083 2.73701 3.99516 2.97759 4.33835H1.2963C0.952497 4.33835 0.622779 4.47229 0.379676 4.71069C0.136574 4.9491 2.70222e-08 5.27246 2.70222e-08 5.60962V7.64365C-6.0965e-05 7.93671 0.103129 8.2208 0.292106 8.44783C0.481083 8.67486 0.744239 8.83088 1.03704 8.88949V12.7287C1.03704 13.0659 1.17361 13.3892 1.41671 13.6276C1.65982 13.8661 1.98953 14 2.33333 14H11.6667C12.0105 14 12.3402 13.8661 12.5833 13.6276C12.8264 13.3892 12.963 13.0659 12.963 12.7287V8.88949C13.2558 8.83088 13.5189 8.67486 13.7079 8.44783C13.8969 8.2208 14.0001 7.93671 14 7.64365V5.60962C14 5.27246 13.8634 4.9491 13.6203 4.71069C13.3772 4.47229 13.0475 4.33835 12.7037 4.33835ZM12.4444 7.38939H7.77778V5.86387H12.4444V7.38939ZM8.55556 2.50581C8.61293 2.44337 8.68285 2.39323 8.76093 2.35855C8.83901 2.32388 8.92355 2.30541 9.00926 2.30432H9.03194C9.14163 2.30401 9.25025 2.32535 9.35136 2.36705C9.45247 2.40875 9.54399 2.46996 9.62048 2.54706C9.69698 2.62415 9.75688 2.71554 9.79663 2.8158C9.83637 2.91605 9.85515 3.02312 9.85185 3.13064C9.85074 3.21469 9.83191 3.29761 9.79655 3.37418C9.76119 3.45075 9.71007 3.51932 9.64639 3.57559C9.19917 3.9646 8.46352 4.16418 7.85556 4.25953C7.95278 3.66585 8.1563 2.9444 8.55556 2.50581ZM4.38796 2.5395C4.54182 2.39024 4.74905 2.30584 4.96546 2.30432H4.99074C5.07645 2.30541 5.16099 2.32388 5.23907 2.35855C5.31715 2.39323 5.38707 2.44337 5.44444 2.50581C5.84111 2.9444 6.04463 3.66521 6.1412 4.2608C5.53843 4.16482 4.7963 3.96523 4.35361 3.57559C4.28993 3.51932 4.23881 3.45075 4.20345 3.37418C4.16809 3.29761 4.14926 3.21469 4.14815 3.13064C4.14528 3.02133 4.16506 2.91258 4.20628 2.81097C4.2475 2.70936 4.3093 2.61701 4.38796 2.5395ZM1.55556 5.86387H6.22222V7.38939H1.55556V5.86387ZM2.59259 8.91492H6.22222V12.4745H2.59259V8.91492ZM7.77778 12.4745V8.91492H11.4074V12.4745H7.77778Z"
        fill="currentColor"
      />
    </symbol>

    <symbol
      id="onrampmoney-logo"
      width="64"
      height="64"
      viewBox="0 0 64 64"
      fill="none"
    >
      <path
        d="M0 32C0 14.3269 14.3269 0 32 0C49.6731 0 64 14.3269 64 32C64 49.6731 49.6731 64 32 64C14.3269 64 0 49.6731 0 32Z"
        fill="#F3F3F3"
      />
      <path
        d="M43.0819 14.9426H49.9241L27.1936 38.7714H40.4503V43.8001H14.2244L43.0819 14.9426Z"
        fill="#151515"
      />
      <path
        fill-rule="evenodd"
        clip-rule="evenodd"
        d="M45.4831 24.8268V47.0779L48.5128 43.3478V16.3566L27.9474 37.959H32.3661L45.4831 24.8268ZM34.242 37.959H39.4067V32.7883L34.242 37.959ZM40.7339 31.4596V44.4825H14.3272V48.6728H44.1558V28.0336L40.7339 31.4596ZM44.8194 50H13V43.8189L42.7841 14H49.84V43.8189L44.8194 50ZM47.6603 15.3272L24.8515 39.2862H39.4067V43.1553H15.5387L43.3343 15.3272H47.6603Z"
        fill="#151515"
      />
    </symbol>
    <symbol id="stablecoins" viewBox="0 0 28 28" fill="none">
      <path
        opacity="0.3"
        d="M3.54431 13.2353C3.60838 13.0247 3.80258 12.8809 4.02264 12.8809H23.9774C24.1974 12.8809 24.3916 13.0247 24.4557 13.2353L27.8035 24.2353C27.9013 24.5565 27.6609 24.8809 27.3252 24.8809H0.674818C0.339055 24.8809 0.0987197 24.5565 0.196481 24.2353L3.54431 13.2353Z"
        fill="#1469AF"
      />
      <path
        d="M3.53221 8.20933C3.60425 8.01208 3.79187 7.88086 4.00187 7.88086H23.9981C24.2081 7.88086 24.3957 8.01208 24.4678 8.20933L27.7547 17.2093C27.8739 17.5355 27.6324 17.8809 27.2851 17.8809H0.714911C0.367633 17.8809 0.126118 17.5355 0.245253 17.2093L3.53221 8.20933Z"
        fill="#2994D0"
      />
      <path
        d="M3.38524 3.58471C3.54785 3.22852 3.90338 3 4.29493 3H23.7051C24.0966 3 24.4522 3.22852 24.6148 3.58471L27.6769 10.2924C27.8281 10.6235 27.5861 11 27.2221 11H0.7779C0.413902 11 0.17189 10.6235 0.323056 10.2924L3.38524 3.58471Z"
        fill="#87DDF8"
      />
    </symbol>
    <symbol id="arrow-up-right" viewBox="0 0 18 18" fill="none">
      <path
        d="M5.25 12.75L12.75 5.25"
        stroke="currentColor"
        stroke-width="2"
        stroke-linecap="round"
        stroke-linejoin="round"
      />
      <path
        d="M5.25 5.25H12.75V12.75"
        stroke="currentColor"
        stroke-width="2"
        stroke-linecap="round"
        stroke-linejoin="round"
      />
    </symbol>

    <symbol id="boost" viewBox="0 0 24 24" fill="none">
      <path
        d="M12 17.75C9.51472 17.75 7.5 15.6757 7.5 13.117C7.5 11.7865 8.04472 10.5871 8.91707 9.74209C9.72242 8.96198 11.7 7.55711 11.4 4.46875C15 6.93968 16.8 9.41061 13.2 13.117C13.8 13.117 14.7 13.117 16.2 11.591C16.3618 12.0688 16.5 12.5824 16.5 13.117C16.5 15.6757 14.4853 17.75 12 17.75Z"
        fill="#29D0B2"
      />
    </symbol>

    <symbol id="copy" viewBox="0 0 16 16" fill="none">
      <path
        d="M11.25 4H2.5C2.30109 4 2.11032 4.07902 1.96967 4.21967C1.82902 4.36032 1.75 4.55109 1.75 4.75V13.5C1.75 13.6989 1.82902 13.8897 1.96967 14.0303C2.11032 14.171 2.30109 14.25 2.5 14.25H11.25C11.4489 14.25 11.6397 14.171 11.7803 14.0303C11.921 13.8897 12 13.6989 12 13.5V4.75C12 4.55109 11.921 4.36032 11.7803 4.21967C11.6397 4.07902 11.4489 4 11.25 4ZM10.5 12.75H3.25V5.5H10.5V12.75ZM14.25 2.5V11.25C14.25 11.4489 14.171 11.6397 14.0303 11.7803C13.8897 11.921 13.6989 12 13.5 12C13.3011 12 13.1103 11.921 12.9697 11.7803C12.829 11.6397 12.75 11.4489 12.75 11.25V3.25H4.75C4.55109 3.25 4.36032 3.17098 4.21967 3.03033C4.07902 2.88968 4 2.69891 4 2.5C4 2.30109 4.07902 2.11032 4.21967 1.96967C4.36032 1.82902 4.55109 1.75 4.75 1.75H13.5C13.6989 1.75 13.8897 1.82902 14.0303 1.96967C14.171 2.11032 14.25 2.30109 14.25 2.5Z"
        fill="currentColor"
      />
    </symbol>

    <symbol id="code" viewBox="0 0 16 16" fill="none">
      <path
        d="M5.35992 6.55722L3.62835 8.00003L5.35992 9.44284C5.41734 9.48992 5.46488 9.54788 5.4998 9.61339C5.53471 9.67896 5.55631 9.75074 5.56334 9.82463C5.57037 9.89852 5.56271 9.97314 5.54078 10.044C5.51885 10.115 5.48309 10.1809 5.43557 10.238C5.38805 10.295 5.32971 10.342 5.26391 10.3765C5.1981 10.4108 5.12614 10.4319 5.05218 10.4383C4.97821 10.4447 4.9037 10.4365 4.83294 10.414C4.76219 10.3915 4.69658 10.3552 4.63992 10.3072L2.38991 8.43222C2.32654 8.37943 2.27556 8.31336 2.24057 8.23869C2.20558 8.16397 2.18744 8.08252 2.18744 8.00003C2.18744 7.91758 2.20558 7.83609 2.24057 7.76142C2.27556 7.68675 2.32654 7.62063 2.38991 7.56783L4.63992 5.69285C4.7547 5.59878 4.90201 5.55389 5.04975 5.56794C5.19749 5.582 5.33368 5.65387 5.42866 5.7679C5.52365 5.88193 5.56972 6.02887 5.55684 6.17672C5.54397 6.32457 5.47318 6.46133 5.35992 6.55722ZM13.61 7.56783L11.3599 5.69285C11.3032 5.64487 11.2377 5.60859 11.1669 5.5861C11.0962 5.5636 11.0216 5.55534 10.9477 5.56178C10.8737 5.56822 10.8018 5.58924 10.7359 5.62363C10.6701 5.65802 10.6118 5.7051 10.5643 5.76215C10.5167 5.81919 10.481 5.88509 10.4591 5.95602C10.4371 6.02695 10.4295 6.10153 10.4365 6.17544C10.4435 6.24936 10.4651 6.32115 10.5 6.38667C10.5349 6.4522 10.5825 6.51016 10.6399 6.55722L12.3715 8.00003L10.6399 9.44284C10.5825 9.48992 10.5349 9.54788 10.5 9.61339C10.4651 9.67896 10.4435 9.75074 10.4365 9.82463C10.4295 9.89852 10.4371 9.97314 10.4591 10.044C10.481 10.115 10.5167 10.1809 10.5643 10.238C10.6118 10.295 10.6701 10.342 10.7359 10.3765C10.8018 10.4108 10.8737 10.4319 10.9477 10.4383C11.0216 10.4447 11.0962 10.4365 11.1669 10.414C11.2377 10.3915 11.3032 10.3552 11.3599 10.3072L13.61 8.43222C13.6733 8.37943 13.7243 8.31336 13.7593 8.23869C13.7943 8.16397 13.8124 8.08252 13.8124 8.00003C13.8124 7.91758 13.7943 7.83609 13.7593 7.76142C13.7243 7.68675 13.6733 7.62063 13.61 7.56783ZM9.6921 3.34628C9.6227 3.32103 9.54892 3.3097 9.47514 3.31295C9.4013 3.31621 9.32885 3.33396 9.2619 3.36522C9.19495 3.39647 9.13482 3.44061 9.08497 3.49511C9.03506 3.54961 8.99642 3.6134 8.97116 3.68284L5.97117 11.9329C5.92032 12.073 5.9272 12.2277 5.99031 12.3627C6.05342 12.4979 6.16759 12.6024 6.30773 12.6533C6.36926 12.6761 6.43433 12.6876 6.49992 12.6876C6.61541 12.6876 6.7281 12.652 6.8227 12.5858C6.9173 12.5195 6.98921 12.4257 7.02867 12.3172L10.0287 4.06722C10.054 3.99779 10.0652 3.92406 10.062 3.85024C10.0587 3.77643 10.041 3.70398 10.0098 3.63703C9.97851 3.57008 9.93437 3.50995 9.87985 3.46006C9.82534 3.41017 9.76155 3.37151 9.6921 3.34628Z"
        fill="currentColor"
      />
    </symbol>

    <symbol id="star" width="20" height="20" viewBox="0 0 20 20" fill="none">
      <path
        d="M19.5003 9.1426L15.4762 12.6545L16.6817 17.8832C16.7455 18.1565 16.7273 18.4426 16.6293 18.7056C16.5314 18.9687 16.3581 19.197 16.1312 19.3621C15.9042 19.5272 15.6335 19.6217 15.3531 19.6339C15.0727 19.646 14.7949 19.5752 14.5545 19.4303L9.9942 16.6643L5.44369 19.4303C5.20328 19.5752 4.92551 19.646 4.64509 19.6339C4.36467 19.6217 4.09405 19.5272 3.86706 19.3621C3.64007 19.197 3.46679 18.9687 3.36887 18.7056C3.27096 18.4426 3.25275 18.1565 3.31654 17.8832L4.5202 12.6599L0.495223 9.1426C0.282338 8.959 0.1284 8.71662 0.052713 8.44588C-0.022974 8.17513 -0.0170404 7.88807 0.0697694 7.62069C0.156579 7.3533 0.320401 7.1175 0.540691 6.94284C0.760981 6.76819 1.02793 6.66247 1.30807 6.63893L6.61344 6.17941L8.68437 1.23987C8.79251 0.980687 8.97493 0.759292 9.20864 0.603566C9.44236 0.44784 9.71693 0.364746 9.99777 0.364746C10.2786 0.364746 10.5532 0.44784 10.7869 0.603566C11.0206 0.759292 11.203 0.980687 11.3112 1.23987L13.3884 6.17941L18.6919 6.63893C18.9721 6.66247 19.239 6.76819 19.4593 6.94284C19.6796 7.1175 19.8434 7.3533 19.9302 7.62069C20.017 7.88807 20.023 8.17513 19.9473 8.44588C19.8716 8.71662 19.7177 8.959 19.5048 9.1426H19.5003Z"
        fill="#6A67EA"
      />
    </symbol>

    <symbol
      id="triangle-down"
      width="10"
      height="6"
      viewBox="0 0 10 6"
      fill="none"
    >
      <path
        d="M9.8667 0.853694L5.32157 5.85337C5.27936 5.89985 5.22923 5.93673 5.17405 5.96189C5.11887 5.98705 5.05973 6 5 6C4.94027 6 4.88113 5.98705 4.82595 5.96189C4.77077 5.93673 4.72064 5.89985 4.67843 5.85337L0.133303 0.853694C0.069666 0.783771 0.0263202 0.69465 0.00875313 0.597614C-0.00881397 0.500578 0.000187484 0.39999 0.034618 0.308585C0.0690484 0.217179 0.12736 0.139066 0.20217 0.0841345C0.27698 0.0292027 0.364925 -7.77087e-05 0.454871 1.5489e-07H9.54513C9.63507 -7.77087e-05 9.72302 0.0292027 9.79783 0.0841345C9.87264 0.139066 9.93095 0.217179 9.96538 0.308585C9.99981 0.39999 10.0088 0.500578 9.99125 0.597614C9.97368 0.69465 9.93033 0.783771 9.8667 0.853694Z"
        fill="#958FC0"
      />
    </symbol>

    <symbol id="up-arrow-thin" width="24" height="24" viewBox="0 0 24 24" fill="none">
      <path fill-rule="evenodd" clip-rule="evenodd" d="M1.92961 11.6779L11.2936 2.31389C11.6841 1.92337 12.3173 1.92337 12.7078 2.31389L22.0717 11.6779C22.4623 12.0684 22.4623 12.7015 22.0717 13.0921C21.6812 13.4826 21.0481 13.4826 20.6575 13.0921L13.0007 5.43521L13.0007 20.9792C13.0007 21.5315 12.553 21.9792 12.0007 21.9792C11.4484 21.9792 11.0007 21.5315 11.0007 20.9792L11.0007 5.43521L3.34383 13.0921C2.9533 13.4826 2.32014 13.4826 1.92961 13.0921C1.53909 12.7015 1.53909 12.0684 1.92961 11.6779Z" fill="#D3D1FF"/>
    </symbol>

    <symbol
      id="down-arrow-thin"
       width="24" height="24" viewBox="0 0 24 24" fill="none"
    >
      <path fill-rule="evenodd" clip-rule="evenodd" d="M1.92961 12.3224L11.2936 21.6864C11.6841 22.0769 12.3173 22.0769 12.7078 21.6864L22.0717 12.3224C22.4623 11.9319 22.4623 11.2987 22.0717 10.9082C21.6812 10.5177 21.0481 10.5177 20.6575 10.9082L13.0007 18.565L13.0007 3.021C13.0007 2.46871 12.553 2.021 12.0007 2.021C11.4484 2.021 11.0007 2.46871 11.0007 3.021L11.0007 18.565L3.34383 10.9082C2.9533 10.5177 2.32014 10.5177 1.92961 10.9082C1.53909 11.2987 1.53909 11.9319 1.92961 12.3224Z" fill="#D3D1FF"/>
    </symbol>

    <symbol id="weighted-pool" viewBox="0 0 16 16" fill="none">
      <path
        d="M14.3748 1.62518C16.3751 3.62542 16.3751 6.86844 14.3748 8.86868C12.7819 10.4616 10.4009 10.786 8.48695 9.84182C8.17416 9.68751 7.7908 9.72253 7.54418 9.96915C7.31318 10.2001 7.26872 10.5533 7.37992 10.8605C7.85845 12.1824 7.56783 13.7201 6.50805 14.7798C5.04784 16.2401 2.68037 16.2401 1.22016 14.7798C-0.240053 13.3196 -0.240053 10.9521 1.22016 9.49193C2.27977 8.43231 3.81713 8.14161 5.13887 8.61983C5.44613 8.731 5.79939 8.68651 6.03044 8.45545C6.27713 8.20876 6.31218 7.8253 6.15788 7.5124C5.21414 5.5986 5.53863 3.2179 7.13135 1.62518C9.13158 -0.375059 12.3746 -0.37506 14.3748 1.62518Z"
        fill="currentColor"
      />
    </symbol>
    <symbol id="stable-pool" viewBox="0 0 15 16" fill="none">
      <path
        d="M7.90224 3.78798C8.13915 3.78798 8.33121 3.59941 8.33121 3.36679V0.592931C8.33121 0.217692 8.79328 0.0297727 9.06352 0.295105L14.7485 5.87685C15.0187 6.14218 14.8273 6.59587 14.4452 6.59587H0.470194C0.233277 6.59587 0.0412181 6.40729 0.0412181 6.17468V4.20917C0.0412181 3.97656 0.233277 3.78798 0.470194 3.78798H7.90224Z"
        fill="currentColor"
      />
      <path
        d="M0.126505 10.1228C-0.143735 9.85747 0.0476578 9.40379 0.429834 9.40379H14.4048C14.6417 9.40379 14.8338 9.59236 14.8338 9.82498V11.7905C14.8338 12.0231 14.6417 12.2117 14.4048 12.2117H6.97279C6.73587 12.2117 6.54381 12.4003 6.54381 12.6329V15.4068C6.54381 15.782 6.08175 15.9699 5.81151 15.7046L0.126505 10.1228Z"
        fill="currentColor"
      />
    </symbol>
    <symbol id="concentrated-pool" viewBox="0 0 13 16" fill="none">
      <path
        d="M4.21902 10.3486H1.70115C1.37627 10.3486 1.13598 10.2064 0.980309 9.92191C0.824635 9.63744 0.841556 9.3629 1.03107 9.09827L7.10239 0.564215C7.23776 0.37898 7.41374 0.249976 7.63033 0.177205C7.84692 0.104434 8.07028 0.107742 8.30041 0.187129C8.53054 0.266515 8.69975 0.405442 8.80805 0.603908C8.91634 0.802375 8.95695 1.01407 8.92988 1.239L8.28011 6.37928H11.4274C11.7794 6.37928 12.0265 6.53144 12.1686 6.83576C12.3107 7.14007 12.2667 7.42454 12.0366 7.68916L5.35613 15.5087C5.20722 15.6807 5.02447 15.7932 4.80788 15.8461C4.59129 15.8991 4.38147 15.8792 4.17841 15.7866C3.97536 15.694 3.8163 15.5517 3.70124 15.3599C3.58617 15.168 3.54218 14.9596 3.56925 14.7347L4.21902 10.3486Z"
        fill="currentColor"
      />
    </symbol>
    <symbol id="custom-pool" viewBox="0 0 14 14" fill="none">
      <path
        d="M0 7C0 6.64855 0.285734 6.36698 0.635473 6.3323C3.64264 6.03416 6.03416 3.64264 6.3323 0.635473C6.36698 0.285734 6.64855 0 7 0C7.35145 0 7.63302 0.285734 7.6677 0.635473C7.96584 3.64263 10.3574 6.03416 13.3645 6.3323C13.7143 6.36698 14 6.64855 14 7C14 7.35145 13.7143 7.63302 13.3645 7.6677C10.3574 7.96585 7.96585 10.3574 7.6677 13.3645C7.63302 13.7143 7.35145 14 7 14C6.64855 14 6.36698 13.7143 6.3323 13.3645C6.03416 10.3574 3.64263 7.96584 0.635473 7.6677C0.285734 7.63302 0 7.35145 0 7Z"
        fill="currentColor"
      />
    </symbol>
    <symbol id="geoblock" viewBox="0 0 18 18" fill="none">
      <g clip-path="url(#clip0_2110_33846)">
        <path d="M6.5 9C6.55794 11.781 7.62404 14.4462 9.5 16.5C10.6261 15.2671 11.4604 13.8139 11.96 12.2476M8 3.56229C8.41893 2.82631 8.92088 2.13401 9.5 1.5C11.1213 3.27494 12.1377 5.50662 12.4212 7.875L12.5 9H13.25" stroke="#736CA3" stroke-width="2" stroke-linecap="round" stroke-linejoin="round"/>
        <path d="M6.5 2.12407C7.41869 1.72267 8.43334 1.5 9.5 1.5C13.6421 1.5 17 4.85786 17 9C17 10.0667 16.7773 11.0813 16.3759 12M3.80031 4.125C2.67792 5.43602 2 7.13884 2 9C2 13.1421 5.35786 16.5 9.5 16.5C11.3612 16.5 13.064 15.8221 14.375 14.6997" stroke="#736CA3" stroke-width="2" stroke-linecap="round" stroke-linejoin="round"/>
        <path d="M2 9H8.75M17 9H13.25" stroke="#736CA3" stroke-width="2" stroke-linecap="round" stroke-linejoin="round"/>
        <path d="M1.25 1.5L16.25 16.5" stroke="#736CA3" stroke-width="2" stroke-linecap="round" stroke-linejoin="round"/>
      </g>
      <defs>
        <clipPath id="clip0_2110_33846">
          <rect width="18" height="18" fill="white" transform="translate(0.5)"/>
        </clipPath>
      </defs>
    </symbol>
  </defs>
</svg>
