<svg
  xmlns="http://www.w3.org/2000/svg"
  xmlns:xlink="http://www.w3.org/1999/xlink"
>
  <defs>
    <symbol viewBox="0 0 19 20" fill="none" id="search">
      <circle
        cx="8.30769"
        cy="8.61539"
        r="7.30769"
        stroke="currentColor"
        stroke-width="2"
      />
      <line
        x1="13.8756"
        y1="14.1539"
        x2="17.9999"
        y2="18.2781"
        stroke="currentColor"
        stroke-width="2"
        stroke-linecap="round"
      />
    </symbol>
    <symbol viewBox="0 0 9 12" fill="none" id="up-down-arrow">
      <path
        d="M3.21053 10.7894V1.94733L1 3.78943"
        stroke="currentColor"
        stroke-width="1.5"
        stroke-linecap="round"
      />
      <path
        d="M5.78947 1.21051L5.78947 10.0526L8 8.21051"
        stroke="currentColor"
        stroke-width="1.5"
        stroke-linecap="round"
      />
    </symbol>
    <symbol viewBox="0 0 15 8" id="chevron-up">
      <path
        d="M0.83321 6.988C0.83321 6.72729 0.92974 6.46658 1.11798 6.26721L6.69266 0.352722C7.1367 -0.117574 7.86068 -0.117574 8.30473 0.352722L13.8842 6.2621C14.2993 6.70173 14.2559 7.44296 13.7587 7.82124C13.3678 8.11773 12.8224 8.03083 12.4797 7.66788L7.49869 2.39238L2.52251 7.66277C2.16051 8.04616 1.56202 8.11773 1.17107 7.76501C0.94422 7.56053 0.83321 7.27426 0.83321 6.988Z"
        fill="currentColor"
      />
    </symbol>
    <symbol viewBox="0 0 14 8" id="chevron-down">
      <path
        d="M13.6667 1.01198C13.6667 1.27269 13.5702 1.5334 13.3819 1.73277L7.80721 7.6473C7.36316 8.1176 6.63917 8.1176 6.19512 7.6473L0.615584 1.73788C0.200497 1.29825 0.243937 0.557021 0.741076 0.178737C1.13203 -0.117757 1.67743 -0.0308533 2.02012 0.332095L7.00117 5.60763L11.9774 0.337207C12.3394 -0.0461892 12.9379 -0.117757 13.3288 0.234968C13.5557 0.439447 13.6667 0.725715 13.6667 1.01198Z"
        fill="currentColor"
      />
    </symbol>
    <symbol viewBox="0 0 9 14" id="chevron-left">
      <path
        d="M7.48799 13.6667C7.22728 13.6667 6.96657 13.5701 6.76721 13.3819L0.852721 7.80722C0.382425 7.36317 0.382425 6.63919 0.852721 6.19515L6.7621 0.615645C7.20173 0.200561 7.94295 0.244 8.32124 0.741136C8.61773 1.13209 8.53082 1.67749 8.16788 2.02017L2.89238 7.00118L8.16276 11.9774C8.54616 12.3394 8.61772 12.9379 8.265 13.3288C8.06053 13.5557 7.77426 13.6667 7.48799 13.6667Z"
        fill="currentColor"
      />
    </symbol>
    <symbol viewBox="0 0 8 14" id="chevron-right">
      <path
        d="M1.01201 0.333336C1.27272 0.333336 1.53342 0.429867 1.73279 0.618103L7.64728 6.19278C8.11757 6.63682 8.11757 7.36081 7.64728 7.80485L1.7379 13.3844C1.29827 13.7994 0.557047 13.756 0.178765 13.2589C-0.117727 12.8679 -0.0308238 12.3225 0.332122 11.9798L5.60762 6.99882L0.337235 2.02263C-0.0461585 1.66064 -0.117725 1.06215 0.234997 0.671195C0.439474 0.444347 0.725741 0.333336 1.01201 0.333336Z"
        fill="currentcolor"
      />
    </symbol>
    <symbol viewBox="0 0 24 24" id="setting">
      <path
        d="M12 13.5C12.8284 13.5 13.5 12.8284 13.5 12C13.5 11.1716 12.8284 10.5 12 10.5C11.1716 10.5 10.5 11.1716 10.5 12C10.5 12.8284 11.1716 13.5 12 13.5Z"
        fill="currentColor"
      />
      <path
        d="M21.8898 10.32L21.0998 7.8C21.0145 7.50876 20.8714 7.23767 20.6791 7.00292C20.4867 6.76817 20.2491 6.57456 19.9803 6.43364C19.7116 6.29272 19.4171 6.20737 19.1147 6.1827C18.8122 6.15802 18.5079 6.19451 18.2198 6.29L17.8798 6.4C17.6134 6.48805 17.3297 6.51039 17.0529 6.46511C16.776 6.41984 16.5142 6.3083 16.2898 6.14L16.1798 6.06C15.9608 5.89237 15.7842 5.67562 15.6644 5.42723C15.5445 5.17884 15.4847 4.90575 15.4898 4.63V4.35C15.4947 3.72202 15.2501 3.11779 14.8098 2.67C14.6004 2.45845 14.3512 2.29036 14.0766 2.17538C13.8021 2.0604 13.5075 2.0008 13.2098 2H10.6598C10.048 2.00791 9.46404 2.25719 9.03514 2.69358C8.60624 3.12997 8.3671 3.71813 8.36979 4.33V4.57C8.36883 4.86027 8.30274 5.14663 8.1764 5.40796C8.05006 5.6693 7.86669 5.89895 7.63979 6.08L7.50979 6.18C7.25913 6.36962 6.96596 6.49516 6.65575 6.5457C6.34554 6.59624 6.02767 6.57025 5.72979 6.47C5.45621 6.37533 5.16626 6.33715 4.87749 6.35777C4.58872 6.3784 4.30714 6.4574 4.04979 6.59C3.78184 6.72299 3.54413 6.90969 3.35145 7.1385C3.15877 7.36731 3.01524 7.63333 2.92979 7.92L2.10979 10.52C1.91963 11.1062 1.9684 11.7437 2.2455 12.2942C2.5226 12.8447 3.00566 13.2636 3.58979 13.46H3.74979C4.01925 13.561 4.2611 13.7241 4.4557 13.9361C4.6503 14.148 4.79217 14.4029 4.86979 14.68L4.92979 14.84C5.04127 15.1461 5.07855 15.4743 5.03856 15.7977C4.99858 16.121 4.88248 16.4302 4.69979 16.7C4.33001 17.2036 4.17403 17.8328 4.2658 18.4508C4.35756 19.0688 4.68964 19.6256 5.18979 20L7.25979 21.57C7.65174 21.855 8.12523 22.0058 8.60979 22C8.73948 22.0127 8.8701 22.0127 8.99979 22C9.29989 21.9419 9.58501 21.8233 9.83775 21.6514C10.0905 21.4794 10.3055 21.2578 10.4698 21L10.6998 20.67C10.8611 20.4386 11.0746 20.2483 11.323 20.1145C11.5714 19.9808 11.8478 19.9073 12.1298 19.9C12.4253 19.8927 12.7179 19.9604 12.9802 20.0968C13.2425 20.2332 13.466 20.4339 13.6298 20.68L13.7498 20.85C13.9203 21.1037 14.1409 21.3199 14.3981 21.4852C14.6553 21.6504 14.9436 21.7613 15.2452 21.8109C15.5469 21.8606 15.8555 21.848 16.1521 21.7739C16.4487 21.6997 16.727 21.5657 16.9698 21.38L18.9998 19.86C19.4798 19.4872 19.799 18.945 19.8919 18.3444C19.9849 17.7438 19.8446 17.1304 19.4998 16.63L19.2398 16.25C19.0834 16.0084 18.9811 15.736 18.9396 15.4512C18.8982 15.1664 18.9187 14.8761 18.9998 14.6C19.0824 14.3044 19.2357 14.0334 19.4466 13.8104C19.6574 13.5874 19.9193 13.4191 20.2098 13.32L20.4098 13.25C20.9885 13.0492 21.4665 12.6312 21.7426 12.0845C22.0188 11.5377 22.0716 10.905 21.8898 10.32ZM11.9998 15.5C11.3076 15.5 10.6309 15.2947 10.0553 14.9101C9.47972 14.5256 9.03112 13.9789 8.76621 13.3394C8.50131 12.6999 8.43199 11.9961 8.56704 11.3172C8.70209 10.6383 9.03543 10.0146 9.52492 9.52513C10.0144 9.03564 10.638 8.7023 11.317 8.56725C11.9959 8.4322 12.6996 8.50151 13.3392 8.76642C13.9787 9.03133 14.5253 9.47993 14.9099 10.0555C15.2945 10.6311 15.4998 11.3078 15.4998 12C15.4998 12.9283 15.131 13.8185 14.4747 14.4749C13.8183 15.1313 12.928 15.5 11.9998 15.5Z"
        fill="currentColor"
      />
    </symbol>
    <symbol viewBox="0 0 18 18" id="info">
      <g clip-path="url(#clip0_1567_8455)">
        <path
          d="M9 1.5C4.85787 1.5 1.5 4.85786 1.5 9C1.5 13.1421 4.85787 16.5 9 16.5C13.1421 16.5 16.5 13.1421 16.5 9C16.5 4.85787 13.1421 1.5 9 1.5Z"
          stroke="currentColor"
          stroke-width="2"
          stroke-linecap="round"
          stroke-linejoin="round"
        />
        <path
          d="M9 12L9 9"
          stroke="currentColor"
          stroke-width="2"
          stroke-linecap="round"
          stroke-linejoin="round"
        />
        <path
          d="M9 6L8.99167 6"
          stroke="currentColor"
          stroke-width="2"
          stroke-linecap="round"
          stroke-linejoin="round"
        />
      </g>
      <defs>
        <clipPath id="clip0_1567_8455">
          <rect
            width="18"
            height="18"
            fill="white"
            transform="translate(18 18) rotate(-180)"
          />
        </clipPath>
      </defs>
    </symbol>
    <symbol viewBox="0 0 30 30" id="hamburger">
      <path
        d="M3.75 15H26.25"
        stroke="currentColor"
        stroke-width="3"
        stroke-linecap="round"
        stroke-linejoin="round"
      />
      <path
        d="M3.75 7.5H26.25"
        stroke="currentColor"
        stroke-width="3"
        stroke-linecap="round"
        stroke-linejoin="round"
      />
      <path
        d="M3.75 22.5H26.25"
        stroke="currentColor"
        stroke-width="3"
        stroke-linecap="round"
        stroke-linejoin="round"
      />
    </symbol>
    <symbol viewBox="0 0 25 24" id="close">
      <path
        fill-rule="evenodd"
        clip-rule="evenodd"
        d="M15.4759 17.5102L12.6266 14.6609L9.77286 17.5146C9.09654 18.1909 8.00868 18.1918 7.33342 17.5165C6.65815 16.8412 6.64253 15.7369 7.31884 15.0606L10.1726 12.2069L7.33974 9.37406C6.66448 8.69879 6.64886 7.59446 7.32517 6.91815C8.01798 6.22534 9.12231 6.24096 9.79757 6.91623L12.6304 9.74905L15.4841 6.89533C16.1604 6.21901 17.2648 6.23464 17.94 6.9099C18.6153 7.58517 18.6144 8.67302 17.9381 9.34934L15.0844 12.2031L17.9337 15.0523C18.609 15.7276 18.6246 16.8319 17.9318 17.5248C17.2555 18.2011 16.1511 18.1854 15.4759 17.5102Z"
        fill="currentColor"
      />
    </symbol>
    <symbol viewBox="0 0 24 24" fill="none" id="globe">
      <path
        d="M12 22C17.5228 22 22 17.5228 22 12C22 6.47715 17.5228 2 12 2C6.47715 2 2 6.47715 2 12C2 17.5228 6.47715 22 12 22Z"
        stroke="currentColor"
        stroke-width="2"
        stroke-linecap="round"
        stroke-linejoin="round"
      />
      <path
        d="M2 12H22"
        stroke="currentColor"
        stroke-width="2"
        stroke-linecap="round"
        stroke-linejoin="round"
      />
      <path
        d="M12 2C14.5013 4.73835 15.9228 8.29203 16 12C15.9228 15.708 14.5013 19.2616 12 22C9.49872 19.2616 8.07725 15.708 8 12C8.07725 8.29203 9.49872 4.73835 12 2V2Z"
        stroke="currentColor"
        stroke-width="2"
        stroke-linecap="round"
        stroke-linejoin="round"
      />
    </symbol>
    <symbol viewBox="0 0 24 24" fill="none" id="dust-broom">
      <path
        d="M22.5 2C22.5 2 18.6479 8.29002 16.5 12M16.5 12C18.4162 12.7984 19.5 14.5 19.5 16C19.5 17.5 19.1 20.1 17.5 20.5M16.5 12C16.2585 11.8994 16.7739 12.0384 16.5 12ZM16.5 12C14.8369 11.7666 12.5 12.0657 12.5 15.5C12.5 18 10 20 9 20M16.5 12C16.7596 12.2371 17 12.5 16.5 15C16 17.5 16 20 13 20.5"
        stroke="currentColor"
        stroke-width="2"
        stroke-linecap="round"
      />
      <circle cx="3" cy="21" r="1" fill="currentColor" />
      <circle cx="7" cy="21" r="1" fill="currentColor" />
      <circle cx="1.5" cy="14.5" r="0.5" fill="currentColor" />
      <circle cx="3.5" cy="11.5" r="0.5" fill="currentColor" />
      <circle cx="4" cy="18" r="1" fill="currentColor" />
    </symbol>

    <symbol
      width="25"
      height="24"
      viewBox="0 0 25 24"
      fill="none"
      id="arrow-right"
    >
      <path
        d="M3 12H21.5"
        stroke="currentColor"
        stroke-width="2.5"
        stroke-linecap="round"
        stroke-linejoin="round"
      />
      <path
        d="M14.5 5L21.5 12L14.5 19"
        stroke="currentColor"
        stroke-width="2.5"
        stroke-linecap="round"
        stroke-linejoin="round"
      />
    </symbol>

    <symbol
      width="24"
      height="24"
      viewBox="0 0 24 24"
      fill="none"
      id="close-small"
    >
      <path
        d="M18 6L6 18"
        stroke="currentColor"
        stroke-width="3"
        stroke-linecap="round"
        stroke-linejoin="round"
      />
      <path
        d="M6 6L18 18"
        stroke="currentColor"
        stroke-width="3"
        stroke-linecap="round"
        stroke-linejoin="round"
      />
    </symbol>
    <symbol
      viewBox="0 0 385 236"
      fill="none"
      xmlns="http://www.w3.org/2000/svg"
      id="walletconnect"
    >
      <g clip-path="url(#a)">
        <path
          d="M78.6501 46.0001c62.6499-61.31 164.2199-61.31 226.8699 0l7.54 7.38c.743.7206 1.334 1.5832 1.738 2.5366.404.9534.611 1.9781.611 3.0134 0 1.0353-.207 2.06-.611 3.0134-.404.9534-.995 1.816-1.738 2.5366l-25.79 25.25c-.761.735-1.777 1.1458-2.835 1.1458s-2.074-.4108-2.835-1.1458l-10.38-10.16c-43.7-42.77-114.57-42.77-158.27 0l-11.11 10.88c-.762.7356-1.78 1.1468-2.8399 1.1468-1.0595 0-2.0776-.4112-2.8401-1.1468l-25.7899-25.25c-.7434-.7206-1.3344-1.5832-1.7379-2.5366-.4036-.9534-.6116-1.9781-.6116-3.0134 0-1.0353.208-2.06.6116-3.0134.4035-.9534.9945-1.816 1.7379-2.5366l8.28-8.1Zm280.2099 52.21 23 22.4599c.742.722 1.332 1.586 1.735 2.54s.611 1.979.611 3.015-.208 2.061-.611 3.015c-.403.954-.993 1.818-1.735 2.54L278.31 233.06c-1.52 1.472-3.554 2.296-5.67 2.296s-4.15-.824-5.67-2.296l-73.47-71.9c-.186-.186-.406-.333-.649-.434-.243-.101-.503-.152-.766-.152s-.523.051-.766.152-.463.248-.649.434l-73.46 71.9c-1.522 1.473-3.557 2.297-5.675 2.297s-4.153-.824-5.675-2.297L2.35005 131.75c-.74331-.721-1.3343-1.583-1.737886-2.537-.403588-.953-.61155365-1.978-.61155365-3.013s.20796565-2.06.61155365-3.013c.403586-.954.994576-1.816 1.737886-2.537L25.3501 98.1901c1.5178-1.4771 3.5521-2.3035 5.67-2.3035 2.1178 0 4.1521.8264 5.67 2.3035L110.16 170.08c.186.186.406.334.649.434.243.101.503.153.766.153s.523-.052.766-.153c.243-.1.463-.248.649-.434l73.46-71.8899c1.52-1.4777 3.556-2.3044 5.675-2.3044 2.12 0 4.156.8267 5.675 2.3044l73.46 71.8899c.186.188.407.336.651.438.244.101.505.154.769.154s.525-.053.769-.154c.244-.102.465-.25.651-.438l73.46-71.8899c1.518-1.4771 3.552-2.3035 5.67-2.3035s4.152.8264 5.67 2.3035l-.04.02Z"
          fill="#3396FF"
        />
      </g>
      <defs>
        <clipPath id="a">
          <path fill="#fff" d="M0 0h384.17v235.35H0z" />
        </clipPath>
      </defs>
    </symbol>
  </defs>
</svg>
