<svg width="15" height="16" viewBox="0 0 15 16" fill="none" xmlns="http://www.w3.org/2000/svg">
<path d="M7.90224 3.78798C8.13915 3.78798 8.33121 3.59941 8.33121 3.36679V0.592931C8.33121 0.217692 8.79328 0.0297727 9.06352 0.295105L14.7485 5.87685C15.0187 6.14218 14.8273 6.59587 14.4452 6.59587H0.470194C0.233277 6.59587 0.0412181 6.40729 0.0412181 6.17468V4.20917C0.0412181 3.97656 0.233277 3.78798 0.470194 3.78798H7.90224Z" fill="#95EEDE"/>
<path d="M0.126505 10.1228C-0.143735 9.85747 0.0476578 9.40379 0.429834 9.40379H14.4048C14.6417 9.40379 14.8338 9.59236 14.8338 9.82498V11.7905C14.8338 12.0231 14.6417 12.2117 14.4048 12.2117H6.97279C6.73587 12.2117 6.54381 12.4003 6.54381 12.6329V15.4068C6.54381 15.782 6.08175 15.9699 5.81151 15.7046L0.126505 10.1228Z" fill="#95EEDE"/>
</svg>
