<svg width="48" height="48" viewBox="0 0 48 48" fill="none" xmlns="http://www.w3.org/2000/svg">
<circle cx="24" cy="24" r="24" fill="url(#paint0_linear_1_3)"/>
<path d="M8.864 18.6V15.504H14.648V33H11.192V18.6H8.864ZM17.6433 29.328C17.9153 27.776 18.4193 26.632 19.1553 25.896C19.8913 25.16 20.8113 24.792 21.9153 24.792C22.3953 24.792 22.8273 24.872 23.2113 25.032C23.6113 25.176 24.0353 25.392 24.4833 25.68C24.8513 25.904 25.1633 26.072 25.4193 26.184C25.6913 26.296 25.9713 26.352 26.2593 26.352C26.6753 26.352 27.0193 26.224 27.2913 25.968C27.5793 25.712 27.7553 25.328 27.8193 24.816H30.3153C30.0433 26.368 29.5313 27.512 28.7793 28.248C28.0433 28.984 27.1233 29.352 26.0193 29.352C25.5393 29.352 25.1073 29.28 24.7233 29.136C24.3553 28.976 23.9393 28.752 23.4753 28.464C23.0753 28.24 22.7473 28.072 22.4913 27.96C22.2513 27.848 21.9873 27.792 21.6993 27.792C21.2833 27.792 20.9313 27.928 20.6433 28.2C20.3553 28.456 20.1713 28.832 20.0913 29.328H17.6433ZM17.6433 23.688C17.9153 22.136 18.4193 20.992 19.1553 20.256C19.8913 19.52 20.8113 19.152 21.9153 19.152C22.3953 19.152 22.8273 19.232 23.2113 19.392C23.6113 19.536 24.0353 19.752 24.4833 20.04C24.8513 20.264 25.1633 20.432 25.4193 20.544C25.6913 20.656 25.9713 20.712 26.2593 20.712C26.6753 20.712 27.0193 20.584 27.2913 20.328C27.5793 20.072 27.7553 19.688 27.8193 19.176H30.3153C30.0433 20.728 29.5313 21.872 28.7793 22.608C28.0433 23.344 27.1233 23.712 26.0193 23.712C25.5393 23.712 25.1073 23.64 24.7233 23.496C24.3553 23.336 23.9393 23.112 23.4753 22.824C23.0753 22.6 22.7473 22.432 22.4913 22.32C22.2513 22.208 21.9873 22.152 21.6993 22.152C21.2833 22.152 20.9313 22.288 20.6433 22.56C20.3553 22.816 20.1713 23.192 20.0913 23.688H17.6433ZM32.1224 18.6V15.504H37.9064V33H34.4504V18.6H32.1224Z" fill="#090524"/>
<defs>
<linearGradient id="paint0_linear_1_3" x1="0" y1="0" x2="52.2654" y2="5.7508" gradientUnits="userSpaceOnUse">
<stop stop-color="#899EFF"/>
<stop offset="1" stop-color="#28F6AF"/>
</linearGradient>
</defs>
</svg>
