<svg
  width="24"
  height="24"
  viewBox="0 0 24 24"
  fill="none"
  xmlns="http://www.w3.org/2000/svg"
>
  <path
    d="M21.7595 6.8949C22.0802 6.57419 22.0802 6.05201 21.7595 5.7313L18.2687 2.24053C17.948 1.91982 17.4258 1.91982 17.1051 2.24053L15.4193 3.9263C15.1932 4.15244 14.856 4.23056 14.56 4.11955C11.1967 2.83261 7.29886 3.61382 4.70443 6.20825C1.09852 9.81415 1.09852 15.6856 4.70443 19.2915C6.50943 21.0965 8.87773 21.9969 11.246 21.9969C13.6143 21.9969 15.9826 21.0965 17.7876 19.2915C20.3821 16.697 21.1633 12.7992 19.8763 9.43588C19.7612 9.13985 19.8434 8.80269 20.0696 8.57655L21.7595 6.8949ZM19.1445 6.60297L17.545 8.2024C17.3189 8.42853 17.2655 8.77802 17.4217 9.05761C17.9233 9.96217 18.2317 10.9449 18.3386 11.9358C18.4373 12.8403 17.8658 13.6955 16.9941 13.9463C16.4801 14.0944 15.8017 14.2013 14.9218 14.2013C11.9738 14.2013 10.6293 11.8124 8.01429 11.8124C6.74379 11.8124 5.76934 12.0961 5.10737 12.388C4.60163 12.6101 4.0589 12.1948 4.14113 11.6438C4.26859 10.8133 4.53996 10.0033 4.96346 9.25086C6.31207 6.84556 8.77083 5.57095 11.2543 5.57095C12.4466 5.57095 13.6472 5.86288 14.7368 6.4714L14.9424 6.58241C15.222 6.73865 15.5715 6.68932 15.8017 6.46318L17.4011 4.86375C17.5615 4.7034 17.8205 4.7034 17.9809 4.86375L19.1445 6.02734C19.3048 6.18358 19.3048 6.44262 19.1445 6.60297Z"
    fill="url(#paint0_linear_244_4787)"
  />
  <defs>
    <linearGradient
      id="paint0_linear_244_4787"
      x1="2.00847"
      y1="11.9868"
      x2="21.9951"
      y2="11.9868"
      gradientUnits="userSpaceOnUse"
    >
      <stop stop-color="#8A86FF" />
      <stop offset="0.9952" stop-color="#E13CBD" />
    </linearGradient>
  </defs>
</svg>
