<svg width="13" height="16" viewBox="0 0 13 16" fill="none" xmlns="http://www.w3.org/2000/svg">
<path d="M4.21902 10.3486H1.70115C1.37627 10.3486 1.13598 10.2064 0.980309 9.92191C0.824635 9.63744 0.841556 9.3629 1.03107 9.09827L7.10239 0.564215C7.23776 0.37898 7.41374 0.249976 7.63033 0.177205C7.84692 0.104434 8.07028 0.107742 8.30041 0.187129C8.53054 0.266515 8.69975 0.405442 8.80805 0.603908C8.91634 0.802375 8.95695 1.01407 8.92988 1.239L8.28011 6.37928H11.4274C11.7794 6.37928 12.0265 6.53144 12.1686 6.83576C12.3107 7.14007 12.2667 7.42454 12.0366 7.68916L5.35613 15.5087C5.20722 15.6807 5.02447 15.7932 4.80788 15.8461C4.59129 15.8991 4.38147 15.8792 4.17841 15.7866C3.97536 15.694 3.8163 15.5517 3.70124 15.3599C3.58617 15.168 3.54218 14.9596 3.56925 14.7347L4.21902 10.3486Z" fill="#64C5EE"/>
</svg>
