<svg width="24" height="24" viewBox="0 0 24 24" fill="none" xmlns="http://www.w3.org/2000/svg">
<path d="M12 2H13.9838C14.7973 2 15.3419 2.83677 15.0125 3.58057L14.475 4.79412V10.3824L18.5936 15.512C20.3671 17.7209 18.7947 21 15.9619 21H12" stroke="white" stroke-width="1.6875"/>
<path d="M12 2H10.0162C9.20267 2 8.6581 2.83677 8.98753 3.58057L9.525 4.79412V10.3824L5.40637 15.512C3.63285 17.7209 5.20532 21 8.03806 21H12" stroke="white" stroke-width="1.6875"/>
<path fill-rule="evenodd" clip-rule="evenodd" d="M9.80013 14L7.38924 17.0528C6.80663 17.7905 7.33208 18.875 8.27212 18.875H12.0001H15.7281C16.6682 18.875 17.1936 17.7905 16.611 17.0528L14.2001 14H12.0001H9.80013Z" fill="white"/>
</svg>
