<svg width="24" height="24" viewBox="0 0 24 24" fill="none" xmlns="http://www.w3.org/2000/svg">
<g id="Icon/Switch">
<g id="Group">
<g id="Up Down Arrow">
<path id="Vector" d="M7.83636 3.66797C7.65866 3.66797 7.48024 3.73438 7.34483 3.86979L4.49164 6.94759C4.1783 7.28509 4.41738 7.83301 4.87738 7.83301H6.99978V11.9997C6.99821 12.1101 7.01861 12.2197 7.05979 12.3222C7.10097 12.4247 7.1621 12.518 7.23964 12.5966C7.31718 12.6752 7.40957 12.7377 7.51145 12.7803C7.61333 12.8229 7.72267 12.8449 7.83311 12.8449C7.94355 12.8449 8.05288 12.8229 8.15476 12.7803C8.25664 12.7377 8.34904 12.6752 8.42658 12.5966C8.50411 12.518 8.56525 12.4247 8.60642 12.3222C8.6476 12.2197 8.668 12.1101 8.66644 11.9997V7.83301H10.7937C11.2546 7.83301 11.4936 7.28509 11.1795 6.94759L8.32627 3.86979C8.19086 3.73438 8.01407 3.66797 7.83636 3.66797ZM16.1664 4.49967C15.7064 4.49967 15.3331 4.87301 15.3331 5.33301C15.3331 5.79301 15.7064 6.16634 16.1664 6.16634C16.6264 6.16634 16.9998 5.79301 16.9998 5.33301C16.9998 4.87301 16.6264 4.49967 16.1664 4.49967ZM16.1664 7.83301C15.7064 7.83301 15.3331 8.20634 15.3331 8.66634C15.3331 9.12634 15.7064 9.49967 16.1664 9.49967C16.6264 9.49967 16.9998 9.12634 16.9998 8.66634C16.9998 8.20634 16.6264 7.83301 16.1664 7.83301ZM16.1534 11.1549C15.9327 11.1584 15.7223 11.2493 15.5686 11.4077C15.4148 11.566 15.3301 11.7789 15.3331 11.9997V16.1663H13.2107C12.7507 16.1663 12.5116 16.7143 12.825 17.0518L15.6782 20.1296C15.949 20.4004 16.3888 20.4004 16.6596 20.1296L19.5128 17.0518C19.827 16.7143 19.5879 16.1663 19.1271 16.1663H16.9998V11.9997C17.0013 11.8882 16.9804 11.7775 16.9384 11.6742C16.8964 11.571 16.8341 11.4771 16.7552 11.3984C16.6763 11.3196 16.5823 11.2575 16.479 11.2157C16.3756 11.1739 16.2649 11.1532 16.1534 11.1549ZM7.83311 14.4997C7.37311 14.4997 6.99978 14.873 6.99978 15.333C6.99978 15.793 7.37311 16.1663 7.83311 16.1663C8.29311 16.1663 8.66644 15.793 8.66644 15.333C8.66644 14.873 8.29311 14.4997 7.83311 14.4997ZM7.83311 17.833C7.37311 17.833 6.99978 18.2063 6.99978 18.6663C6.99978 19.1263 7.37311 19.4997 7.83311 19.4997C8.29311 19.4997 8.66644 19.1263 8.66644 18.6663C8.66644 18.2063 8.29311 17.833 7.83311 17.833Z" fill="white" fill-opacity="0.30"/>
</g>
</g>
</g>
</svg>
