<?xml version="1.0" encoding="UTF-8" standalone="no"?>
<!DOCTYPE svg PUBLIC "-//W3C//DTD SVG 1.1//EN" "http://www.w3.org/Graphics/SVG/1.1/DTD/svg11.dtd">
<svg width="100%" height="100%" viewBox="0 0 24 24" version="1.1" xmlns="http://www.w3.org/2000/svg" xmlns:xlink="http://www.w3.org/1999/xlink" xml:space="preserve" xmlns:serif="http://www.serif.com/" style="fill-rule:evenodd;clip-rule:evenodd;stroke-linejoin:round;stroke-miterlimit:2;">
    <g transform="matrix(1,0,0,1,-18,-18)">
        <path d="M39.787,28.539C39.652,28.671 39.468,28.746 39.275,28.746C38.559,28.746 37.979,29.31 37.979,29.995C37.979,30.686 38.552,31.247 39.261,31.254C39.661,31.258 40,31.529 40,31.917L40,34.327C40,36.355 38.308,38 36.219,38L33.066,38C32.74,38 32.476,37.744 32.476,37.427L32.476,35.398C32.476,35.003 32.157,34.693 31.75,34.693C31.354,34.693 31.025,35.003 31.025,35.398L31.025,37.427C31.025,37.744 30.761,38 30.436,38L23.781,38C21.702,38 20,36.356 20,34.327L20,31.917C20,31.529 20.34,31.258 20.739,31.254C21.449,31.247 22.021,30.686 22.021,29.995C22.021,29.328 21.46,28.821 20.725,28.821C20.532,28.821 20.348,28.746 20.213,28.614C20.077,28.483 20,28.304 20,28.116L20,25.683C20,23.657 21.706,22 23.791,22L30.436,22C30.761,22 31.025,22.257 31.025,22.573L31.025,24.978C31.025,25.363 31.354,25.683 31.75,25.683C32.157,25.683 32.476,25.363 32.476,24.978L32.476,22.573C32.476,22.257 32.74,22 33.066,22L36.219,22C38.308,22 40,23.644 40,25.674L40,28.041C40,28.229 39.923,28.408 39.787,28.539ZM31.75,32.87C32.157,32.87 32.476,32.551 32.476,32.166L32.476,28.408C32.476,28.022 32.157,27.703 31.75,27.703C31.354,27.703 31.025,28.022 31.025,28.408L31.025,32.166C31.025,32.551 31.354,32.87 31.75,32.87Z" fill="white"/>
    </g>
</svg>
