<?xml version="1.0" encoding="UTF-8" standalone="no"?>
<!DOCTYPE svg PUBLIC "-//W3C//DTD SVG 1.1//EN" "http://www.w3.org/Graphics/SVG/1.1/DTD/svg11.dtd">
<svg width="100%" height="100%" viewBox="0 0 24 24" version="1.1" xmlns="http://www.w3.org/2000/svg" xmlns:xlink="http://www.w3.org/1999/xlink" xml:space="preserve" xmlns:serif="http://www.serif.com/" style="fill-rule:evenodd;clip-rule:evenodd;stroke-linejoin:round;stroke-miterlimit:2;">
    <g transform="matrix(1,0,0,1,2.01,1.60585)">
        <path d="M13.29,6.047C12.98,2.658 10.134,0 6.656,0C2.979,0 0,2.979 0,6.656C0,9.868 2.27,12.537 5.283,13.169C5.77,9.181 9.17,6.058 13.29,6.047Z" fill="white"/>
    </g>
    <g transform="matrix(1,0,0,1,2.01,1.60585)">
        <path d="M13.324,20.788C17,20.788 19.98,17.808 19.98,14.132C19.98,10.456 17,7.476 13.324,7.476C9.648,7.476 6.667,10.456 6.667,14.132C6.667,17.808 9.648,20.788 13.324,20.788Z" fill="white"/>
    </g>
</svg>
