<svg width="24" height="24" viewBox="0 0 24 24" fill="none" xmlns="http://www.w3.org/2000/svg">
  <path
    d="M15.2904 8.04715C14.9803 4.65809 12.134 2 8.6563 2C4.97927 2 2 4.97927 2 8.65629C2 11.8681 4.27045 14.5373 7.28295 15.1686C7.77027 11.1815 11.1704 8.05823 15.2904 8.04715Z"
    fill="#C4A46A" />
  <path
    d="M15.3237 22.7883C18.9999 22.7883 21.98 19.8081 21.98 16.132C21.98 12.4558 18.9999 9.47568 15.3237 9.47568C11.6475 9.47568 8.6674 12.4558 8.6674 16.132C8.6674 19.8081 11.6475 22.7883 15.3237 22.7883Z"
    fill="#C4A46A" />
  <path d="M13 16.5L15 18.5L18.5 14" stroke="white" stroke-width="1.5" stroke-linecap="round" stroke-linejoin="round" />
</svg>