<svg width="16" height="18" viewBox="0 0 16 18" fill="none" xmlns="http://www.w3.org/2000/svg">
  <path
    d="M3.83636 0.668335C3.65866 0.668335 3.48024 0.734741 3.34483 0.870158L0.491637 3.94796C0.178304 4.28546 0.417379 4.83337 0.877379 4.83337H2.99978L2.99978 9.00004H4.66644V4.83337H6.79372C7.25455 4.83337 7.49363 4.28546 7.17946 3.94796L4.32627 0.870158C4.19086 0.734741 4.01407 0.668335 3.83636 0.668335Z"
    fill="#C4A46A" />
  <path d="M2.99978 9.00004L2.99978 15.6667H4.66644L4.66644 9.00004H2.99978Z" fill="#C4A46A" />
  <path
    d="M2.99978 15.6667C2.99978 16.1267 3.37311 16.5 3.83311 16.5C4.29311 16.5 4.66644 16.1267 4.66644 15.6667H2.99978Z"
    fill="#C4A46A" />
  <path
    d="M12.1664 1.50004C11.7064 1.50004 11.3331 1.87337 11.3331 2.33337L11.3331 9.00004V13.1667H9.21071C8.75071 13.1667 8.51164 13.7146 8.82497 14.0521L11.6782 17.1299C11.949 17.4008 12.3888 17.4008 12.6596 17.1299L15.5128 14.0521C15.827 13.7146 15.5879 13.1667 15.1271 13.1667H12.9998V9.00004L12.9998 2.33337C12.9998 1.87337 12.6264 1.50004 12.1664 1.50004Z"
    fill="#C4A46A" />
</svg>