<svg width="24" height="24" viewBox="0 0 24 24" fill="none" xmlns="http://www.w3.org/2000/svg">
<path d="M17.6881 20.9375C17.6881 21.153 17.6025 21.3597 17.4502 21.5121C17.2978 21.6644 17.0911 21.75 16.8756 21.75H7.12564C6.91015 21.75 6.70349 21.6644 6.55112 21.5121C6.39874 21.3597 6.31314 21.153 6.31314 20.9375C6.31314 20.722 6.39874 20.5154 6.55112 20.363C6.70349 20.2106 6.91015 20.125 7.12564 20.125H16.8756C17.0911 20.125 17.2978 20.2106 17.4502 20.363C17.6025 20.5154 17.6881 20.722 17.6881 20.9375ZM22.3255 10.6127L12.5755 0.862685C12.5 0.787142 12.4104 0.727212 12.3118 0.686324C12.2131 0.645435 12.1074 0.62439 12.0006 0.62439C11.8939 0.62439 11.7881 0.645435 11.6895 0.686324C11.5909 0.727212 11.5013 0.787142 11.4258 0.862685L1.6758 10.6127C1.56204 10.7263 1.48455 10.8711 1.45315 11.0288C1.42174 11.1865 1.43784 11.35 1.49938 11.4985C1.56093 11.6471 1.66517 11.774 1.7989 11.8633C1.93264 11.9526 2.08985 12.0002 2.25064 12H6.31314V14.4375C6.31314 14.653 6.39874 14.8597 6.55112 15.0121C6.70349 15.1644 6.91015 15.25 7.12564 15.25H16.8756C17.0911 15.25 17.2978 15.1644 17.4502 15.0121C17.6025 14.8597 17.6881 14.653 17.6881 14.4375V12H21.7506C21.9114 12.0002 22.0686 11.9526 22.2024 11.8633C22.3361 11.774 22.4403 11.6471 22.5019 11.4985C22.5634 11.35 22.5795 11.1865 22.5481 11.0288C22.5167 10.8711 22.4392 10.7263 22.3255 10.6127ZM16.8756 16.875H7.12564C6.91015 16.875 6.70349 16.9606 6.55112 17.113C6.39874 17.2654 6.31314 17.472 6.31314 17.6875C6.31314 17.903 6.39874 18.1097 6.55112 18.2621C6.70349 18.4144 6.91015 18.5 7.12564 18.5H16.8756C17.0911 18.5 17.2978 18.4144 17.4502 18.2621C17.6025 18.1097 17.6881 17.903 17.6881 17.6875C17.6881 17.472 17.6025 17.2654 17.4502 17.113C17.2978 16.9606 17.0911 16.875 16.8756 16.875Z" fill="url(#paint0_linear_6896_59200)"/>
<defs>
<linearGradient id="paint0_linear_6896_59200" x1="1.4375" y1="0.62439" x2="24.4411" y2="3.15557" gradientUnits="userSpaceOnUse">
<stop stop-color="#899EFF"/>
<stop offset="1" stop-color="#28F6AF"/>
</linearGradient>
</defs>
</svg>