<?xml version="1.0" encoding="UTF-8" standalone="no"?>
<!DOCTYPE svg PUBLIC "-//W3C//DTD SVG 1.1//EN" "http://www.w3.org/Graphics/SVG/1.1/DTD/svg11.dtd">
<svg width="100%" height="100%" viewBox="0 0 24 24" version="1.1" xmlns="http://www.w3.org/2000/svg" xmlns:xlink="http://www.w3.org/1999/xlink" xml:space="preserve" xmlns:serif="http://www.serif.com/" style="fill-rule:evenodd;clip-rule:evenodd;stroke-linejoin:round;stroke-miterlimit:2;">
    <g transform="matrix(1,0,0,1,2,2.9998)">
        <path d="M3.6,0.2C2.726,0.2 2,0.926 2,1.8L2,14.6C1.576,14.6 1.169,14.769 0.869,15.069C0.569,15.369 0.4,15.776 0.4,16.2C0.4,16.625 0.569,17.032 0.869,17.332C1.169,17.632 1.576,17.8 2,17.8L18,17.8C18.424,17.8 18.831,17.632 19.131,17.332C19.431,17.032 19.6,16.625 19.6,16.2C19.6,15.776 19.431,15.369 19.131,15.069C18.831,14.769 18.424,14.6 18,14.6L18,1.8C18,0.926 17.274,0.2 16.4,0.2L3.6,0.2ZM3.6,1.8L16.4,1.8L16.4,16.2L3.6,16.2L3.6,1.8ZM12.392,4.992C12.233,4.992 12.078,5.04 11.945,5.129C11.814,5.218 11.711,5.344 11.651,5.491C11.591,5.639 11.577,5.801 11.609,5.957C11.642,6.112 11.72,6.255 11.834,6.366L12.069,6.6L11.834,6.835C11.758,6.908 11.696,6.997 11.654,7.094C11.612,7.192 11.589,7.297 11.588,7.404C11.587,7.51 11.608,7.616 11.648,7.714C11.688,7.813 11.748,7.902 11.823,7.977C11.898,8.053 11.988,8.112 12.086,8.152C12.185,8.193 12.29,8.213 12.397,8.212C12.503,8.211 12.608,8.188 12.706,8.146C12.804,8.104 12.892,8.043 12.966,7.966L13.2,7.731L13.434,7.966C13.508,8.043 13.596,8.104 13.694,8.146C13.792,8.188 13.897,8.211 14.003,8.212C14.11,8.213 14.215,8.193 14.314,8.152C14.413,8.112 14.502,8.053 14.577,7.977C14.653,7.902 14.712,7.813 14.752,7.714C14.793,7.616 14.813,7.51 14.812,7.404C14.81,7.297 14.788,7.192 14.746,7.094C14.704,6.997 14.642,6.908 14.566,6.835L14.331,6.6L14.566,6.366C14.681,6.253 14.76,6.109 14.792,5.951C14.824,5.793 14.808,5.629 14.745,5.48C14.682,5.332 14.576,5.206 14.44,5.119C14.304,5.032 14.146,4.988 13.984,4.992C13.777,4.999 13.579,5.085 13.434,5.235L13.2,5.469L12.966,5.235C12.891,5.158 12.802,5.097 12.703,5.055C12.605,5.014 12.499,4.992 12.392,4.992ZM6,5.8C5.894,5.799 5.789,5.818 5.69,5.858C5.592,5.897 5.502,5.956 5.427,6.03C5.351,6.105 5.292,6.194 5.251,6.291C5.21,6.389 5.189,6.494 5.189,6.6C5.189,6.706 5.21,6.811 5.251,6.909C5.292,7.007 5.351,7.095 5.427,7.17C5.502,7.244 5.592,7.303 5.69,7.343C5.789,7.382 5.894,7.402 6,7.4L9.2,7.4C9.306,7.402 9.411,7.382 9.51,7.343C9.608,7.303 9.698,7.244 9.773,7.17C9.849,7.095 9.908,7.007 9.949,6.909C9.99,6.811 10.011,6.706 10.011,6.6C10.011,6.494 9.99,6.389 9.949,6.291C9.908,6.194 9.849,6.105 9.773,6.03C9.698,5.956 9.608,5.897 9.51,5.858C9.411,5.818 9.306,5.799 9.2,5.8L6,5.8ZM13.2,10.2C12.882,10.2 12.576,10.327 12.352,10.552C12.126,10.777 12,11.082 12,11.4C12,11.719 12.126,12.024 12.352,12.249C12.576,12.474 12.882,12.6 13.2,12.6C13.518,12.6 13.823,12.474 14.049,12.249C14.274,12.024 14.4,11.719 14.4,11.4C14.4,11.082 14.274,10.777 14.049,10.552C13.823,10.327 13.518,10.2 13.2,10.2ZM6,10.6C5.894,10.599 5.789,10.618 5.69,10.658C5.592,10.697 5.502,10.756 5.427,10.831C5.351,10.905 5.292,10.994 5.251,11.091C5.21,11.189 5.189,11.294 5.189,11.4C5.189,11.506 5.21,11.611 5.251,11.709C5.292,11.807 5.351,11.896 5.427,11.97C5.502,12.044 5.592,12.103 5.69,12.143C5.789,12.182 5.894,12.202 6,12.2L9.2,12.2C9.306,12.202 9.411,12.182 9.51,12.143C9.608,12.103 9.698,12.044 9.773,11.97C9.849,11.896 9.908,11.807 9.949,11.709C9.99,11.611 10.011,11.506 10.011,11.4C10.011,11.294 9.99,11.189 9.949,11.091C9.908,10.994 9.849,10.905 9.773,10.831C9.698,10.756 9.608,10.697 9.51,10.658C9.411,10.618 9.306,10.599 9.2,10.6L6,10.6Z" fill="white" />
    </g>
</svg>
