<svg width="64" height="64" viewBox="0 0 64 64" fill="none" xmlns="http://www.w3.org/2000/svg">
<rect width="64" height="64" rx="16" fill="white"/>
<path d="M17.8267 22.748C25.6545 15.084 38.3458 15.084 46.1736 22.748L47.1157 23.6704C47.507 24.0536 47.507 24.6749 47.1157 25.0581L43.893 28.2134C43.6973 28.405 43.38 28.405 43.1843 28.2134L41.8879 26.9441C36.427 21.5975 27.5733 21.5975 22.1124 26.9441L20.724 28.3034C20.5284 28.495 20.2111 28.495 20.0154 28.3034L16.7927 25.1481C16.4013 24.7649 16.4013 24.1436 16.7927 23.7604L17.8267 22.748ZM52.8384 29.2735L55.7066 32.0817C56.098 32.4649 56.098 33.0862 55.7066 33.4694L42.7737 46.132C42.3823 46.5152 41.7477 46.5152 41.3564 46.132C41.3564 46.132 41.3563 46.132 41.3563 46.132L32.1774 37.145C32.0795 37.0492 31.9209 37.0492 31.823 37.145C31.823 37.145 31.823 37.145 31.823 37.145L22.6443 46.132C22.2529 46.5152 21.6183 46.5152 21.2269 46.132C21.2269 46.132 21.2269 46.132 21.2269 46.132L8.29366 33.4692C7.90228 33.086 7.90228 32.4647 8.29366 32.0815L11.1619 29.2733C11.5533 28.8901 12.1878 28.8901 12.5792 29.2733L21.7583 38.2604C21.8562 38.3562 22.0148 38.3562 22.1126 38.2604C22.1127 38.2604 22.1127 38.2604 22.1127 38.2604L31.2913 29.2733C31.6827 28.8901 32.3172 28.8901 32.7086 29.2733C32.7087 29.2733 32.7087 29.2733 32.7087 29.2733L41.8878 38.2604C41.9856 38.3562 42.1442 38.3562 42.2421 38.2604L51.421 29.2735C51.8124 28.8903 52.447 28.8903 52.8384 29.2735Z" fill="#3B99FC"/>
</svg>
