<svg width="28" height="28" viewBox="0 0 28 28" fill="none" xmlns="http://www.w3.org/2000/svg">
<path fill-rule="evenodd" clip-rule="evenodd" d="M4.84039 8.23879C4.61528 8.27661 4.38401 8.2963 4.14815 8.2963C1.85719 8.2963 0 6.43911 0 4.14815C0 1.85719 1.85719 0 4.14815 0C6.27026 0 8.02019 1.59353 8.2666 3.64926L19.8379 5.17179C20.303 3.38947 21.9238 2.07407 23.8519 2.07407C26.1428 2.07407 28 3.93126 28 6.22222C28 8.51318 26.1428 10.3704 23.8519 10.3704C23.776 10.3704 23.7007 10.3683 23.6259 10.3643L21.898 19.8673C23.6258 20.3682 24.8889 21.9625 24.8889 23.8519C24.8889 26.1428 23.0317 28 20.7407 28C18.4498 28 16.5926 26.1428 16.5926 23.8519C16.5926 23.4029 16.6639 22.9706 16.7959 22.5657L11.2398 20.7136C10.8205 21.9361 9.661 22.8148 8.2963 22.8148C6.57808 22.8148 5.18518 21.4219 5.18518 19.7037C5.18518 18.3985 5.98894 17.281 7.1285 16.8192L4.84039 8.23879ZM5.83385 7.93947L8.14234 16.5963C8.19335 16.5938 8.24467 16.5926 8.2963 16.5926C8.92247 16.5926 9.50543 16.7776 9.99352 17.0959L12.8239 14.7372L6.67642 7.43702C6.41796 7.636 6.13539 7.8052 5.83385 7.93947ZM7.41526 6.70443L13.6206 14.0733L20.3578 8.45898C19.9438 7.81358 19.7037 7.04594 19.7037 6.22222C19.7037 6.21485 19.7037 6.20748 19.7038 6.20012L8.26064 4.69445C8.16169 5.44659 7.86123 6.13525 7.41526 6.70443ZM21.0221 9.25533L14.2886 14.8666L18.7773 20.1969C19.3618 19.8822 20.0304 19.7037 20.7407 19.7037C20.7851 19.7037 20.8293 19.7044 20.8734 19.7058L22.6054 10.1798C22.008 9.99186 21.4689 9.67238 21.0221 9.25533ZM17.9302 20.8009L13.4919 15.5305L10.7616 17.8057C11.1614 18.3243 11.4012 18.9724 11.4073 19.6763L17.2426 21.6215C17.4359 21.3189 17.6674 21.0432 17.9302 20.8009Z" fill="url(#paint0_linear_801_3510)"/>
<defs>
<linearGradient id="paint0_linear_801_3510" x1="0" y1="0" x2="30.4881" y2="3.35464" gradientUnits="userSpaceOnUse">
<stop stop-color="#899EFF"/>
<stop offset="1" stop-color="#28F6AF"/>
</linearGradient>
</defs>
</svg>
