<svg width="28" height="28" viewBox="0 0 28 28" fill="none" xmlns="http://www.w3.org/2000/svg">
<path fill-rule="evenodd" clip-rule="evenodd" d="M5.16762 8.44453C4.95052 8.48101 4.72748 8.5 4.5 8.5C2.29086 8.5 0.5 6.70914 0.5 4.5C0.5 2.29086 2.29086 0.5 4.5 0.5C6.54624 0.5 8.23361 2.03649 8.47134 4.01867L19.6294 5.48684C20.078 3.7683 21.6409 2.5 23.5 2.5C25.7091 2.5 27.5 4.29086 27.5 6.5C27.5 8.70914 25.7091 10.5 23.5 10.5C23.4269 10.5 23.3542 10.498 23.2821 10.4942L21.616 19.6577C23.282 20.1408 24.5 21.6782 24.5 23.5C24.5 25.7091 22.7091 27.5 20.5 27.5C18.2909 27.5 16.5 25.7091 16.5 23.5C16.5 23.067 16.5688 22.65 16.6961 22.2595L11.3385 20.4736C10.9342 21.6526 9.81605 22.5 8.5 22.5C6.84315 22.5 5.5 21.1569 5.5 19.5C5.5 18.2414 6.2751 17.1638 7.37401 16.7185L5.16762 8.44453ZM6.12559 8.15588L8.35165 16.5036C8.4008 16.5012 8.45026 16.5 8.5 16.5C9.10375 16.5 9.66584 16.6783 10.1365 16.9852L12.866 14.7106L6.93813 7.6713C6.68889 7.8632 6.41639 8.02638 6.12559 8.15588ZM7.65055 6.96484L13.6342 14.0704L20.1307 8.65674C19.7315 8.03441 19.5 7.29424 19.5 6.5C19.5 6.49281 19.5 6.48562 19.5001 6.47844L8.46565 5.02654C8.37028 5.75185 8.08058 6.41595 7.65055 6.96484ZM20.7712 9.42467L14.2784 14.8354L18.6069 19.9755C19.1705 19.6721 19.8151 19.5 20.5 19.5C20.5428 19.5 20.5854 19.5007 20.6279 19.502L22.298 10.3163C21.7219 10.135 21.2021 9.82688 20.7712 9.42467ZM17.79 20.5579L13.5101 15.4756L10.8772 17.6697C11.2627 18.1696 11.494 18.7946 11.4999 19.4734L17.127 21.349C17.3134 21.0574 17.5365 20.7915 17.79 20.5579Z" fill="url(#paint0_linear_544_11069)"/>
<defs>
<linearGradient id="paint0_linear_544_11069" x1="0.5" y1="0.5" x2="29.8993" y2="3.73483" gradientUnits="userSpaceOnUse">
<stop stop-color="#899EFF"/>
<stop offset="1" stop-color="#28F6AF"/>
</linearGradient>
</defs>
</svg>
