<svg width="28" height="28" viewBox="0 0 28 28" fill="none" xmlns="http://www.w3.org/2000/svg">
<path opacity="0.3" d="M3.54431 13.2353C3.60838 13.0247 3.80258 12.8809 4.02264 12.8809H23.9774C24.1974 12.8809 24.3916 13.0247 24.4557 13.2353L27.8035 24.2353C27.9013 24.5565 27.6609 24.8809 27.3252 24.8809H0.674818C0.339055 24.8809 0.0987197 24.5565 0.196481 24.2353L3.54431 13.2353Z" fill="#1469AF"/>
<path d="M3.53221 8.20933C3.60425 8.01208 3.79187 7.88086 4.00187 7.88086H23.9981C24.2081 7.88086 24.3957 8.01208 24.4678 8.20933L27.7547 17.2093C27.8739 17.5355 27.6324 17.8809 27.2851 17.8809H0.714911C0.367633 17.8809 0.126118 17.5355 0.245253 17.2093L3.53221 8.20933Z" fill="#2994D0"/>
<path d="M3.38524 3.58471C3.54785 3.22852 3.90338 3 4.29493 3H23.7051C24.0966 3 24.4522 3.22852 24.6148 3.58471L27.6769 10.2924C27.8281 10.6235 27.5861 11 27.2221 11H0.7779C0.413902 11 0.17189 10.6235 0.323056 10.2924L3.38524 3.58471Z" fill="#87DDF8"/>
</svg>
