<svg width="28" height="22" viewBox="0 0 28 22" fill="none" xmlns="http://www.w3.org/2000/svg">
<g id="Group 9921">
<path id="Rectangle 315" opacity="0.3" d="M3.54431 10.2948C3.60838 10.0843 3.80258 9.94043 4.02264 9.94043H23.9774C24.1974 9.94043 24.3916 10.0843 24.4557 10.2948L27.8035 21.2948C27.9013 21.6161 27.6609 21.9404 27.3252 21.9404H0.674819C0.339055 21.9404 0.0987197 21.6161 0.196481 21.2948L3.54431 10.2948Z" fill="#1469AF"/>
<path id="Rectangle 314" d="M3.53221 5.2689C3.60425 5.07165 3.79187 4.94043 4.00187 4.94043H23.9981C24.2081 4.94043 24.3957 5.07165 24.4678 5.2689L27.7547 14.2689C27.8739 14.5951 27.6324 14.9404 27.2851 14.9404H0.714911C0.367633 14.9404 0.126118 14.5951 0.245253 14.2689L3.53221 5.2689Z" fill="#2994D0"/>
<path id="Rectangle 313" d="M3.38524 0.644278C3.54785 0.288089 3.90338 0.0595703 4.29493 0.0595703H23.7051C24.0966 0.0595703 24.4522 0.288089 24.6148 0.644278L27.6769 7.35192C27.8281 7.68305 27.5861 8.05957 27.2221 8.05957H0.7779C0.413902 8.05957 0.17189 7.68305 0.323056 7.35192L3.38524 0.644278Z" fill="#87DDF8"/>
</g>
</svg>
