<svg width="230" height="142" viewBox="0 0 230 142" fill="none" xmlns="http://www.w3.org/2000/svg">
<path d="M89.1538 4.72354C49.543 19.8783 45.9145 58.6895 34.5564 76.8153C23.0639 95.1562 -3.26511 105.276 0.335303 114.623C3.93572 123.969 30.296 113.931 51.1509 119.895C71.7586 125.787 100.512 152.212 140.123 137.057C160.302 129.338 174.913 113.447 181.632 94.6263C182.355 92.606 181.003 90.4455 178.861 90.246C177.528 90.1213 176.249 90.8165 175.648 92.0074C169.57 104.073 159.144 114.008 145.5 119.227C122.975 127.844 98.3285 121.079 83.1917 104.11C79.754 100.257 76.8136 95.8702 74.4925 91.0223C73.8544 89.688 73.2476 88.3318 72.7095 86.9289C72.1684 85.5259 71.7086 84.1136 71.2863 82.6951C83.1917 77.1645 96.9302 71.3065 112.505 65.3487C127.776 59.5063 141.674 54.7675 154.049 50.9765C162.42 48.4138 170.093 46.2814 177.021 44.5386C177.522 44.4139 178.016 44.2892 178.507 44.1676C179.555 43.9089 180.631 44.4669 181.019 45.4708L181.025 45.4895C181.254 46.085 181.451 46.6835 181.663 47.2821C183.034 51.1449 184.06 55.0481 184.738 58.9607C185.036 60.6723 186.912 61.6045 188.451 60.7814C194.138 57.7386 199.34 54.7706 203.989 51.9149C221.309 41.2838 230.912 32.2677 228.941 27.1579C226.974 22.045 213.786 21.752 193.775 25.3996C187.416 26.5593 180.365 28.1181 172.767 30.0479C171.453 30.3815 170.124 30.7276 168.779 31.083C162.385 32.7727 155.641 34.7088 148.619 36.8755C135.559 40.9066 121.548 45.7358 107.084 51.2696C93.5519 56.4479 80.7268 61.8165 68.9652 67.1663C68.8214 44.4607 82.5943 22.9959 105.12 14.3788C118.761 9.15991 133.181 9.58703 145.8 14.5035C147.045 14.9899 148.462 14.6532 149.372 13.6711C150.83 12.0967 150.383 9.59014 148.49 8.56756C130.86 -0.931812 109.333 -2.99568 89.1538 4.72354Z" fill="#FAF1E4"/>
</svg>
