<?xml version="1.0" encoding="UTF-8" standalone="no"?>
<!DOCTYPE svg PUBLIC "-//W3C//DTD SVG 1.1//EN" "http://www.w3.org/Graphics/SVG/1.1/DTD/svg11.dtd">
<svg width="100%" height="100%" viewBox="0 0 2835 2835" version="1.1" xmlns="http://www.w3.org/2000/svg" xmlns:xlink="http://www.w3.org/1999/xlink" xml:space="preserve" xmlns:serif="http://www.serif.com/" style="fill-rule:evenodd;clip-rule:evenodd;stroke-linejoin:round;stroke-miterlimit:2;">
    <g id="layer1" transform="matrix(1,0,0,1,0,1992.76)">
        <g id="path1248" transform="matrix(1.33431,0,0,1.33431,-460.769,199.739)">
            <ellipse cx="1407.54" cy="-580.955" rx="1062.22" ry="1049.36" style="fill:rgb(240,130,125);"/>
        </g>
        <g id="path1202" transform="matrix(1.33431,0,0,1.33431,-460.769,199.739)">
            <ellipse cx="1410.84" cy="-581.696" rx="901.95" ry="879.987" style="fill:white;"/>
        </g>
        <g id="path1206" transform="matrix(1.33431,0,0,1.33431,-460.769,199.739)">
            <ellipse cx="1413.15" cy="-576.646" rx="850.99" ry="833.075" style="fill:rgb(240,130,125);"/>
        </g>
        <g id="g1246" transform="matrix(10.145,0,0,11.3968,730.515,-1361.66)">
            <g id="g1210" transform="matrix(0.721351,0,0,0.811444,18.5545,14.4659)">
                <path id="path1208" d="M77.7,22.45C77.7,20.069 75.529,18.139 72.85,18.139L72.845,18.139C70.169,18.139 67.997,20.069 67.997,22.45L67.997,121.995C67.997,124.376 70.169,126.306 72.845,126.306L72.85,126.306C75.529,126.306 77.7,124.376 77.7,121.995L77.7,22.45Z" style="fill:white;"/>
            </g>
            <g id="g1214" transform="matrix(0.000599295,-0.721351,0.258566,0.000214816,52.2366,155.294)">
                <path id="path1212" d="M77.7,31.666C77.7,24.197 75.529,18.139 72.85,18.139L72.845,18.139C70.169,18.139 67.997,24.197 67.997,31.666L67.997,112.776C67.997,120.249 70.169,126.306 72.845,126.306L72.85,126.306C75.529,126.306 77.7,120.249 77.7,112.776L77.7,31.666Z" style="fill:white;"/>
            </g>
            <g id="g1218" transform="matrix(0.000599295,-0.721351,0.579332,0.000481307,29.1268,109.53)">
                <path id="path1216" d="M77.7,24.177C77.7,20.84 75.529,18.139 72.85,18.139L72.845,18.139C70.169,18.139 67.997,20.84 67.997,24.177L67.997,120.268C67.997,123.602 70.169,126.306 72.845,126.306L72.85,126.306C75.529,126.306 77.7,123.602 77.7,120.268L77.7,24.177Z" style="fill:white;"/>
            </g>
            <g id="g1222" transform="matrix(0.509521,-0.510622,0.393855,0.393005,5.50363,65.8845)">
                <path id="path1220" d="M77.7,24.426C77.7,20.954 75.529,18.139 72.85,18.139L72.845,18.139C70.169,18.139 67.997,20.954 67.997,24.426L67.997,120.019C67.997,123.491 70.169,126.306 72.845,126.306L72.85,126.306C75.529,126.306 77.7,123.491 77.7,120.019L77.7,24.426Z" style="fill:white;"/>
            </g>
            <g id="g1226" transform="matrix(-0.51096,-0.509182,0.392744,-0.394115,79.9243,122.627)">
                <path id="path1224" d="M77.7,24.426C77.7,20.954 75.529,18.139 72.85,18.139L72.845,18.139C70.169,18.139 67.997,20.954 67.997,24.426L67.997,120.019C67.997,123.491 70.169,126.306 72.845,126.306L72.85,126.306C75.529,126.306 77.7,123.491 77.7,120.019L77.7,24.426Z" style="fill:white;"/>
            </g>
        </g>
    </g>
</svg>
