<svg id="Layer_1" data-name="Layer 1" xmlns="http://www.w3.org/2000/svg" viewBox="0 0 420 420"><defs><style>.cls-1{fill:#ffb100;}.cls-2{fill:#ff4900;}</style></defs><circle class="cls-1" cx="210" cy="210" r="196.1"/><path class="cls-2" d="M44.21,210.23c.21-.65.38-1.32.65-1.94a9.55,9.55,0,0,1,7.87-6.14,16.25,16.25,0,0,1,2.2-.14H145.7a10.62,10.62,0,0,1,6.75,2,10,10,0,0,1,3.94,8.28,51.72,51.72,0,0,0,8.85,29c9.12,13.52,21.8,21.66,38,23.65,26,3.18,49.43-11.78,57.73-36.51a53.44,53.44,0,0,0,2.66-16.56,9.6,9.6,0,0,1,7.24-9.46,13.29,13.29,0,0,1,3.27-.38q45.6,0,91.18,0c6.44,0,10.56,4.16,10.45,10.6-.83,48.31-18.87,89.06-54.33,121.84-23.06,21.31-50.34,34.6-81.21,40.39a160.24,160.24,0,0,1-45,2.07q-64.21-6.17-107.92-53.62c-20.47-22.24-33.57-48.39-39.77-78A156.22,156.22,0,0,1,44.43,220c0-.59-.15-1.17-.22-1.76Z"/><path class="cls-2" d="M224.65,211.82a9.74,9.74,0,1,1,9.77,9.72A9.78,9.78,0,0,1,224.65,211.82Z"/><path class="cls-2" d="M195.36,211.76A9.74,9.74,0,1,1,185.6,202,9.76,9.76,0,0,1,195.36,211.76Z"/><path class="cls-2" d="M200.29,236.13A9.72,9.72,0,1,1,210,245.9,9.65,9.65,0,0,1,200.29,236.13Z"/></svg>