<svg width="400" height="400" viewBox="0 0 400 400" fill="none" xmlns="http://www.w3.org/2000/svg">
<circle cx="200" cy="200" r="200" fill="white"/>
<path d="M287 62H113V96H287V62Z" fill="#E50913"/>
<path d="M202.336 339C186.161 339 171.667 336.323 158.853 330.968C146.039 325.613 135.746 317.688 127.974 307.193C120.411 296.698 116.42 284.061 116 269.282H173.347C174.187 277.636 177.023 284.061 181.855 288.559C186.686 292.843 192.988 294.985 200.76 294.985C208.743 294.985 215.045 293.164 219.666 289.523C224.287 285.668 226.598 280.42 226.598 273.78C226.598 268.211 224.708 263.606 220.926 259.965C217.355 256.324 212.839 253.325 207.377 250.969C202.126 248.613 194.564 245.936 184.691 242.937C170.406 238.439 158.748 233.942 149.715 229.444C140.682 224.946 132.91 218.306 126.398 209.524C119.886 200.743 116.63 189.284 116.63 175.147C116.63 154.157 124.087 137.772 139.002 125.992C153.916 113.997 173.347 108 197.294 108C221.662 108 241.303 113.997 256.217 125.992C271.131 137.772 279.114 154.264 280.164 175.469H221.872C221.452 168.186 218.826 162.51 213.994 158.441C209.163 154.157 202.966 152.015 195.404 152.015C188.892 152.015 183.64 153.836 179.649 157.477C175.658 160.904 173.662 165.937 173.662 172.577C173.662 179.86 177.023 185.535 183.745 189.605C190.467 193.675 200.97 198.065 215.255 202.777C229.539 207.704 241.092 212.416 249.915 216.914C258.948 221.412 266.72 227.944 273.232 236.512C279.744 245.079 283 256.11 283 269.604C283 282.455 279.744 294.128 273.232 304.623C266.93 315.118 257.687 323.472 245.504 329.683C233.32 335.894 218.931 339 202.336 339Z" fill="black"/>
</svg>
