<svg xmlns="http://www.w3.org/2000/svg" width="128" height="128" fill="none"><circle cx="64" cy="64" r="64" fill="url(#a)"/><circle cx="64" cy="64" r="60" fill="url(#b)"/><path fill-rule="evenodd" clip-rule="evenodd" d="M114.987 50.0308C108.675 28.6554 88.2374 13 64.0001 13 39.7626 13 19.325 28.6556 13.0127 50.0312 13.6236 26.7304 36.2175 8 64 8c27.7824 0 50.376 18.7302 50.987 42.0308Z" fill="url(#c)"/><path d="M92.6657 31.5169c1.1659-4.3202-.7395-9.6299-5.3769-9.5151-8.918-.1237-10.371 12.3245-9.3704 23.2001l-9.4575 8.0661c-3.5237-3.0126-8.4482-3.6046-12.8767-2.5532-14.8083 3.6311-20.2635 24.7461-14.0687 36.8586-3.0278 7.1031-2.6015 15.8226 1.5312 22.4136 3.4803 6.944 14.0253 9.197 11.9284 4.638-.4959-.618-.4959-.397-1.2528-.477-9.8925-.627-12.3634-15.487-9.6315-22.6078 8.7701 10.3188 28.0939 6.7851 34.9151-2.4031 10.0839-13.5172 6.6472-29.9056 4.5678-44.6243 3.6803-3.6664 7.7869-7.7304 9.092-12.9959ZM43.1425 83.156c-5.0376-19.6485 11.7717-35.5511 22.5952-27.5468h.0087c-9.3879 7.4301-17.0965 16.8302-22.6039 27.5468Zm31.6089 2.3059c-5.8294 10.372-23.1695 12.6425-29.66 2.1998 1.888-5.5659 4.7852-10.7254 8.5352-15.2134l.0522-.0177c4.2458-5.0623 8.8832-9.7712 13.8686-14.0914 2.236 6.8822-3.2801 16.1852-9.7359 15.7347.3828 6.0783 9.4052 1.3517 11.1627-1.0779 4.2198-4.6117 4.6026-13.0666 1.5922-17.3249l7.7174-6.4936c1.6009 18.4558 2.6971 23.9157-3.5324 36.2844Zm8.3003-45.1545c-1.6096-17.2807 5.1333-15.5933 5.9946-14.1091 2.323 4.7266-3.8369 12.6337-5.9946 14.1091Z" fill="#987918"/><path d="M90.6657 30.5169c1.1659-4.3202-.7395-9.6299-5.3769-9.5151-8.918-.1237-10.371 12.3245-9.3704 23.2001l-9.4575 8.0661c-3.5237-3.0126-8.4482-3.6046-12.8767-2.5532-14.8083 3.6311-20.2635 24.7461-14.0687 36.8586-3.0278 7.1031-2.6015 15.8226 1.5312 22.4136 3.4803 6.944 14.0253 9.197 11.9284 4.638-.4959-.618-.4959-.397-1.2528-.477-9.8925-.627-12.3634-15.487-9.6315-22.6078 8.7701 10.3188 28.0939 6.7851 34.9151-2.4031 10.0839-13.5172 6.6472-29.9056 4.5678-44.6243 3.6803-3.6664 7.7869-7.7304 9.092-12.9959ZM41.1425 82.156c-5.0376-19.6485 11.7717-35.5511 22.5952-27.5468h.0087c-9.3879 7.4301-17.0965 16.8302-22.6039 27.5468Zm31.6089 2.3059c-5.8294 10.372-23.1695 12.6425-29.66 2.1998 1.888-5.5659 4.7852-10.7254 8.5352-15.2134l.0522-.0177c4.2458-5.0623 8.8832-9.7712 13.8686-14.0914 2.236 6.8822-3.2801 16.1852-9.7359 15.7347.3828 6.0783 9.4052 1.3517 11.1627-1.0779 4.2198-4.6117 4.6026-13.0666 1.5922-17.3249l7.7174-6.4936c1.6009 18.4558 2.6971 23.9157-3.5324 36.2844Zm8.3003-45.1545c-1.6096-17.2807 5.1333-15.5933 5.9946-14.1091 2.323 4.7266-3.8369 12.6337-5.9946 14.1091Z" fill="url(#d)"/><defs><linearGradient id="a" x1="64" y1="0" x2="64" y2="128" gradientUnits="userSpaceOnUse"><stop stop-color="#FADC7E"/><stop offset="1" stop-color="#50400F"/></linearGradient><linearGradient id="b" x1="64" y1="4" x2="64" y2="124" gradientUnits="userSpaceOnUse"><stop stop-color="#DAAB16"/><stop offset="1" stop-color="#A78A30"/></linearGradient><linearGradient id="c" x1="64" y1="6" x2="64" y2="64" gradientUnits="userSpaceOnUse"><stop stop-color="#FCD24F"/><stop offset="1" stop-color="#C39C22"/></linearGradient><linearGradient id="d" x1="64" y1="21" x2="64" y2="116" gradientUnits="userSpaceOnUse"><stop stop-color="#FFE8A0"/><stop offset="1" stop-color="#DFC05C"/></linearGradient></defs></svg>