<svg width="168" height="168" viewBox="0 0 168 168" fill="none" xmlns="http://www.w3.org/2000/svg">
<path d="M84 103.882C73.0154 103.882 64.1184 94.9846 64.1184 84C64.1184 73.0154 73.0154 64.1183 84 64.1183C94.9846 64.1183 103.882 73.0154 103.882 84C103.882 94.9846 94.9846 103.882 84 103.882Z" fill="#F26057"/>
<path d="M84 103.882C94.9804 103.882 103.882 94.9803 103.882 84C103.882 73.0197 94.9804 64.1183 84 64.1183C73.0197 64.1183 64.1184 73.0197 64.1184 84C64.1184 94.9803 73.0197 103.882 84 103.882Z" fill="#F26057"/>
<path d="M111.834 84C111.834 94.9846 120.731 103.882 131.716 103.882V64.1183C120.731 64.1183 111.834 73.0154 111.834 84Z" fill="#F26057"/>
<path d="M56.1657 84C56.1657 73.0154 47.2687 64.1183 36.2841 64.1183V103.882C47.2687 103.882 56.1657 94.9846 56.1657 84Z" fill="#F26057"/>
<path d="M84 56.1657C94.9846 56.1657 103.882 47.2686 103.882 36.284H64.1184C64.1184 47.2686 73.0154 56.1657 84 56.1657Z" fill="#F26057"/>
<path d="M131.716 56.1657V36.284H111.834C111.834 47.2686 120.731 56.1657 131.716 56.1657Z" fill="#F26057"/>
<path d="M56.1657 36.284H36.2841V56.1657C47.2687 56.1657 56.1657 47.2686 56.1657 36.284Z" fill="#F26057"/>
<path d="M84 111.834C73.0154 111.834 64.1184 120.731 64.1184 131.716H103.882C103.882 120.731 94.9846 111.834 84 111.834Z" fill="#F26057"/>
<path d="M131.716 111.834C120.731 111.834 111.834 120.731 111.834 131.716H131.716V111.834Z" fill="#F26057"/>
<path d="M36.2841 111.834V131.716H56.1657C56.1657 120.731 47.2687 111.834 36.2841 111.834Z" fill="#F26057"/>
</svg>
