<svg width="48" height="48" viewBox="0 0 48 48" fill="none" xmlns="http://www.w3.org/2000/svg">
<rect width="48" height="48" rx="24" fill="#201B43"/>
<path d="M24 13C21.8244 13 19.6977 13.6451 17.8887 14.8538C16.0798 16.0625 14.6699 17.7805 13.8373 19.7905C13.0048 21.8005 12.7869 24.0122 13.2114 26.146C13.6358 28.2798 14.6835 30.2398 16.2218 31.7782C17.7602 33.3165 19.7202 34.3642 21.854 34.7886C23.9878 35.2131 26.1995 34.9952 28.2095 34.1627C30.2195 33.3301 31.9375 31.9202 33.1462 30.1113C34.3549 28.3023 35 26.1756 35 24C34.9969 21.0836 33.837 18.2875 31.7748 16.2252C29.7125 14.163 26.9164 13.0031 24 13ZM21.2109 28.2308H26.7891C26.2212 30.1706 25.2692 31.9189 24 33.2961C22.7308 31.9189 21.7788 30.1706 21.2109 28.2308ZM20.8269 26.5385C20.5463 24.8578 20.5463 23.1422 20.8269 21.4615H27.1731C27.4537 23.1422 27.4537 24.8578 27.1731 26.5385H20.8269ZM14.6923 24C14.6916 23.1416 14.8101 22.2873 15.0445 21.4615H19.1124C18.86 23.1444 18.86 24.8556 19.1124 26.5385H15.0445C14.8101 25.7127 14.6916 24.8584 14.6923 24ZM26.7891 19.7692H21.2109C21.7788 17.8294 22.7308 16.0811 24 14.7039C25.2692 16.0811 26.2212 17.8294 26.7891 19.7692ZM28.8876 21.4615H32.9555C33.4251 23.1213 33.4251 24.8787 32.9555 26.5385H28.8876C29.14 24.8556 29.14 23.1444 28.8876 21.4615ZM32.2891 19.7692H28.5417C28.1099 18.0701 27.3847 16.4593 26.3988 15.0096C27.6584 15.3481 28.8332 15.9464 29.8476 16.7662C30.8621 17.5859 31.6937 18.6088 32.2891 19.7692ZM21.6012 15.0096C20.6153 16.4593 19.8901 18.0701 19.4583 19.7692H15.7109C16.3063 18.6088 17.1379 17.5859 18.1524 16.7662C19.1668 15.9464 20.3416 15.3481 21.6012 15.0096ZM15.7109 28.2308H19.4583C19.8901 29.9299 20.6153 31.5407 21.6012 32.9904C20.3416 32.6519 19.1668 32.0536 18.1524 31.2338C17.1379 30.4141 16.3063 29.3912 15.7109 28.2308ZM26.3988 32.9904C27.3847 31.5407 28.1099 29.9299 28.5417 28.2308H32.2891C31.6937 29.3912 30.8621 30.4141 29.8476 31.2338C28.8332 32.0536 27.6584 32.6519 26.3988 32.9904Z" fill="#B3B1FD"/>
</svg>
