<svg
  width="44"
  height="44"
  viewBox="0 0 44 44"
  fill="none"
  xmlns="http://www.w3.org/2000/svg"
>
  <path
    d="M36.2424 17.8801L34.0556 9.71898C34.014 9.56352 33.8542 9.47127 33.6987 9.51292L5.62761 17.0346C5.47215 17.0762 5.3799 17.236 5.42155 17.3915L7.60832 25.5526C7.64998 25.708 7.80977 25.8003 7.96522 25.7586L36.0364 18.237C36.1918 18.1954 36.2841 18.0356 36.2424 17.8801Z"
    fill="#E11D48"
  />
  <path
    d="M19.7861 19.2449L19.1208 16.7619C19.0792 16.6065 18.9194 16.5142 18.7639 16.5559L0.971222 21.3234C0.815764 21.3651 0.723509 21.5249 0.765164 21.6803L1.43047 24.1633C1.47212 24.3187 1.63191 24.411 1.78737 24.3693L19.5801 19.6018C19.7355 19.5601 19.8278 19.4004 19.7861 19.2449Z"
    fill="#E11D48"
  />
  <path
    d="M22.1306 20.7753L21.3614 20.5446C21.2072 20.4984 21.0448 20.5859 20.9986 20.7401L15.7078 38.3842C15.6615 38.5384 15.749 38.7009 15.9032 38.7471L16.6723 38.9777C16.8265 39.0239 16.9889 38.9364 17.0352 38.7823L22.326 21.1381C22.3722 20.9839 22.2847 20.8215 22.1306 20.7753Z"
    fill="#E11D48"
  />
  <path
    d="M21.3629 20.7792L22.132 20.5485C22.2862 20.5023 22.4486 20.5898 22.4948 20.744L27.7857 38.3882C27.8319 38.5423 27.7444 38.7048 27.5902 38.751L26.8211 38.9816C26.6669 39.0279 26.5045 38.9404 26.4582 38.7862L21.1674 21.142C21.1212 20.9879 21.2087 20.8254 21.3629 20.7792Z"
    fill="#E11D48"
  />
  <path
    d="M43.9246 19.039L40.1284 4.87132C40.0867 4.71587 39.927 4.62361 39.7715 4.66527L26.0394 8.34476C25.884 8.38642 25.7917 8.54621 25.8334 8.70166L29.6296 22.8693C29.6712 23.0248 29.831 23.117 29.9865 23.0754L43.7186 19.3959C43.874 19.3542 43.9663 19.1944 43.9246 19.039Z"
    fill="#E11D48"
  />
</svg>
