<svg
  width="44"
  height="44"
  viewBox="0 0 44 44"
  fill="none"
  xmlns="http://www.w3.org/2000/svg"
>
  <g clip-path="url(#clip0_5533_55413)">
    <mask
      id="mask0_5533_55413"
      style="mask-type: luminance"
      maskUnits="userSpaceOnUse"
      x="0"
      y="0"
      width="44"
      height="44"
    >
      <path d="M43.1215 0H0.501709V44H43.1215V0Z" fill="white" />
    </mask>
    <g mask="url(#mask0_5533_55413)">
      <path
        d="M23.9857 10.4943L12.2809 16.3912L7.27979 5.51269L19.0988 0L23.9857 10.4943Z"
        fill="#D1E2FE"
      />
      <path
        d="M34.795 22.0341L35.7143 17.4659L31.7432 8.96389L38.0825 5.94922L42.866 17.203L34.795 22.0341Z"
        fill="#D1E2FE"
      />
      <path
        d="M36.2311 23.9727V25.7202L32.9925 27.2339L32.2944 25.7293L36.2311 23.9727Z"
        fill="#669BFF"
      />
      <path
        d="M12.9844 31.4511L7.79297 20.3569L7.95436 18.0039L12.7252 28.1845L12.9844 31.4511Z"
        fill="#669BFF"
      />
      <path
        d="M12.9844 31.4552V31.4842L5.87633 34.7998L0.501709 23.8233L7.81474 20.4062L12.9844 31.4552Z"
        fill="#D1E2FE"
      />
      <path
        d="M35.7124 17.4648L34.7967 22.0331L31.2771 23.5522L18.5314 29.0758L18.5151 29.083L12.9845 31.4542L12.7271 28.1857L35.7124 17.4648Z"
        fill="#B8CAFE"
      />
      <path
        d="M36.657 34.918V38.2118L24.2432 44L24.5877 40.5576L36.657 34.918Z"
        fill="#447AD3"
      />
      <path
        d="M24.5877 40.5564L24.2432 43.999L19.1823 33.8926L18 31.3983L18.2666 28.9038L18.3826 28.8477L24.5877 40.5564Z"
        fill="#1F54FE"
      />
      <path
        d="M5.87814 34.7988L5.47559 37.2425L0.61232 27.825L0.501709 23.8242L5.87814 34.7988Z"
        fill="#1F54FE"
      />
      <path
        d="M18.2666 28.9062L18.0001 31.4007L11.3471 34.5041L10.9735 34.6782L5.47559 37.2432L5.87813 34.7997"
        fill="#669BFF"
      />
      <path
        d="M19.0934 33.7025L11.3471 37.2393L11.269 34.5382L18 31.3984L19.0934 33.7025Z"
        fill="#669BFF"
      />
      <path
        d="M12.1648 16.1365L10.7214 16.8217L7.27979 9.78809V5.51172L12.1648 16.1365Z"
        fill="#1F54FE"
      />
      <path
        d="M42.8567 17.2109L30.927 22.8796L31.2498 23.5684L32.2924 25.7311L36.22 24.1485L43.1196 20.9235L42.8548 17.2128L42.8567 17.2109Z"
        fill="#669BFF"
      />
      <path
        d="M9.97437 35.1427L11.2691 34.5391L11.3471 37.2401L9.97437 35.1427Z"
        fill="#669BFF"
      />
      <path
        d="M36.6518 34.9207L24.5825 40.5603L18.3828 28.8479L30.9489 22.8711L33.1829 27.617L33.2736 27.8128H33.2754L36.6518 34.9207Z"
        fill="#B8CAFE"
      />
      <path
        d="M7.95435 18.0045L30.8962 7.11328L35.7141 17.4643L12.7251 28.1851"
        fill="#FFFEFF"
      />
    </g>
  </g>
  <defs>
    <clipPath id="clip0_5533_55413">
      <rect width="44" height="44" fill="white" />
    </clipPath>
  </defs>
</svg>
