<svg
  width="200"
  height="200"
  viewBox="0 0 200 200"
  fill="none"
  xmlns="http://www.w3.org/2000/svg"
>
  <mask
    id="mask0_1529_9519"
    style="mask-type: alpha"
    maskUnits="userSpaceOnUse"
    x="33"
    y="51"
    width="134"
    height="129"
  >
    <ellipse
      cx="66.5264"
      cy="64.3067"
      rx="66.5264"
      ry="64.3067"
      transform="matrix(0.925613 -0.378473 0.390935 0.920419 13.603 81.6216)"
      fill="#C4C4C4"
    />
  </mask>
  <g mask="url(#mask0_1529_9519)">
    <mask
      id="mask1_1529_9519"
      style="mask-type: alpha"
      maskUnits="userSpaceOnUse"
      x="26"
      y="52"
      width="149"
      height="137"
    >
      <path
        d="M49.2663 79.0706C50.2258 75.9621 53.0927 70.7755 53.0927 70.7755L34.916 91.4284L26.2547 116.604L38.3467 153.725L68.5985 177.652L110.8 188.761L157.226 158.48L174.253 113.779L158.508 76.7088L134.797 54.9148L117.663 52.0655C117.663 52.0655 108.941 57.5469 104.565 61.0268C99.4646 65.0817 97.2058 67.4992 92.1277 72.1215C86.5731 77.1776 83.9003 81.0142 77.3774 85.8448C71.7977 89.9768 65.6361 92.8091 61.3221 93.6115C58.3244 94.1691 51.7895 93.6633 49.7888 88.9527C48.4839 85.8806 47.8228 83.7472 49.2663 79.0706Z"
        fill="url(#paint0_linear_1529_9519)"
      />
    </mask>
    <g mask="url(#mask1_1529_9519)">
      <path
        d="M49.2663 79.0706C50.2258 75.9621 53.0927 70.7755 53.0927 70.7755L34.916 91.4284L26.2547 116.604L38.3467 153.725L68.5985 177.652L110.8 188.761L157.226 158.48L174.253 113.779L158.508 76.7088L134.797 54.9148L117.663 52.0655C117.663 52.0655 108.941 57.547 104.565 61.0268C99.4646 65.0817 97.2058 67.4992 92.1277 72.1215C86.5731 77.1776 83.9003 81.0142 77.3774 85.8448C71.7977 89.9768 65.6361 92.8091 61.3221 93.6115C58.3244 94.1691 51.7895 93.6633 49.7888 88.9527C48.4839 85.8806 47.8228 83.7472 49.2663 79.0706Z"
        fill="url(#paint1_linear_1529_9519)"
      />
      <path
        d="M32.7257 108.744C30.2166 104.722 30.896 99.0223 30.896 99.0223L37.4621 82.3958L71.066 46.4131L108.567 50.5317L121.16 49.4334C121.16 49.4334 138.315 43.4106 137.672 56.5725C137.136 67.556 135.993 77.1665 118.922 93.9164C111.573 101.127 97.0928 110.392 76.3834 115.883C63.8283 119.213 49.6192 117.894 43.0804 115.883C39.8463 114.889 34.6736 111.867 32.7257 108.744Z"
        fill="url(#paint2_linear_1529_9519)"
      />
      <path
        d="M35.4571 103.13C32.9481 99.108 33.6275 93.4081 33.6275 93.4081L40.1935 76.7815L73.7975 40.7988L111.298 44.9175L123.892 43.8191C123.892 43.8191 141.046 37.7964 140.404 50.9583C139.867 61.9417 138.724 71.5523 121.653 88.3022C114.304 95.5128 99.8243 104.777 79.1149 110.269C66.5597 113.599 52.3506 112.28 45.8119 110.269C42.5777 109.275 37.4051 106.252 35.4571 103.13Z"
        fill="url(#paint3_linear_1529_9519)"
      />
    </g>
    <mask
      id="mask2_1529_9519"
      style="mask-type: alpha"
      maskUnits="userSpaceOnUse"
      x="12"
      y="49"
      width="186"
      height="157"
    >
      <path
        d="M26.0373 105.787C25.5711 102.271 28.4049 95.8347 28.4049 95.8347L17.1518 110.067L12.5344 137.81L33.6815 186.4L115.081 205.75L181.446 173.884L197.736 103.994L135.934 49.5973C135.934 49.5973 144.29 63.2771 137.826 76.9171C132.295 88.5887 117.333 102.02 103.19 110.067C88.3978 118.482 74.4028 123.077 59.3101 123.756C49.7332 124.188 40.546 122.074 35.1828 118.801C30.3841 115.872 26.7394 111.081 26.0373 105.787Z"
        fill="url(#paint4_linear_1529_9519)"
      />
    </mask>
    <g mask="url(#mask2_1529_9519)">
      <path
        d="M25.0326 103.252C24.5663 99.7365 27.4002 93.3007 27.4002 93.3007L16.147 107.533L11.5296 135.276L32.6767 183.866L114.076 203.216L180.442 171.35L196.732 101.46L157.766 76.8843C157.766 76.8843 153.725 72.6127 144.675 76.8843C131.053 83.3132 115.005 97.5687 100.862 105.615C86.0703 114.031 73.3981 120.543 58.3053 121.222C48.7285 121.654 39.5412 119.54 34.178 116.267C29.3794 113.338 25.7346 108.547 25.0326 103.252Z"
        fill="url(#paint5_linear_1529_9519)"
      />
      <path
        d="M26.5544 121.464C28.5012 116.847 21.657 109.913 21.657 109.913L25.6099 96.9812C25.6099 96.9812 45.9049 115.368 63.6776 118.078C104.435 124.295 132.117 48.0968 132.117 48.0968L140.802 49.655C140.802 49.655 157.837 45.4132 150.811 58.9274C145.679 68.7971 159.092 68.7536 160.775 75.1914C148.762 61.2656 130.269 94.248 117.249 107.917C104.229 121.587 65.7519 153.003 39.4484 145.261C19.8584 139.495 22.4397 131.224 26.5544 121.464Z"
        fill="url(#paint6_linear_1529_9519)"
      />
      <path
        d="M24.3851 115.49C26.7485 111.063 20.5698 103.552 20.5698 103.552L25.6955 91.0228C25.6955 91.0228 44.2172 111.131 61.6682 115.404C101.688 125.202 136.263 51.7651 136.263 51.7651L144.77 54.0857C144.77 54.0857 162.125 51.369 153.885 64.2062C147.867 73.5815 161.229 74.7255 162.313 81.286C151.63 66.3535 127.331 98.0357 113.108 110.497C98.8842 122.958 66.6022 143.343 45.942 140.701C30.71 138.754 19.3897 124.846 24.3851 115.49Z"
        fill="url(#paint7_linear_1529_9519)"
      />
    </g>
    <mask
      id="mask3_1529_9519"
      style="mask-type: alpha"
      maskUnits="userSpaceOnUse"
      x="28"
      y="83"
      width="160"
      height="122"
    >
      <path
        d="M36.305 143.531C32.6351 139.269 28.1768 131.227 28.1768 131.227L28.4513 149.49L52.376 188.843L138.245 204.162L187.69 141.341L173.97 103.789C173.97 103.789 167.772 87.7885 161.021 84.4919C151.301 79.7461 141.307 89.2653 135.105 94.3653C126.7 101.277 121.192 107.876 113.581 115.622C105.541 123.804 101.248 128.613 92.7933 136.381C79.3267 148.754 68.4889 154.351 58.3199 154.903C46.9107 155.522 39.8063 147.597 36.305 143.531Z"
        fill="url(#paint8_linear_1529_9519)"
      />
    </mask>
    <g mask="url(#mask3_1529_9519)">
      <path
        d="M36.305 143.531C32.6351 139.269 28.1768 131.227 28.1768 131.227L28.4513 149.49L52.376 188.843L138.245 204.162L187.69 141.341L173.97 103.789C173.97 103.789 167.772 87.7885 161.021 84.4919C151.301 79.7461 141.307 89.2653 135.105 94.3653C126.7 101.277 121.192 107.876 113.581 115.622C105.541 123.804 101.248 128.613 92.7933 136.381C79.3267 148.754 68.4889 154.351 58.3199 154.903C46.9107 155.522 39.8063 147.597 36.305 143.531Z"
        fill="url(#paint9_linear_1529_9519)"
      />
      <path
        d="M65.9664 173.143C57.5208 172.75 50.9809 167.027 50.9809 167.027L33.8673 151.444L33.4684 124.902L75.9981 146.937L132.598 97.6518L148.233 80.6571L163.159 83.0836L177.641 88.7194L176.715 111.136C173.374 109.827 168.53 94.2745 162.653 92.0778C156.776 89.8812 151.734 91.4789 147.26 94.1118C142.16 97.1135 138.4 101.179 132.598 107.455C124.977 115.699 120.706 125.755 114.293 134.937C105.911 146.937 102.753 154.054 90.2389 164.406C84.845 168.868 75.9275 173.606 65.9664 173.143Z"
        fill="url(#paint10_linear_1529_9519)"
      />
      <path
        d="M55.6857 159.06C47.2915 158.066 41.1924 151.892 41.1924 151.892L25.2775 135.131L26.8443 108.631L67.6307 133.638L127.729 88.5157L159.288 76.1637L173.315 82.8165L172.681 100.158C164.505 84.6892 158.494 82.7693 153.327 84.1203C148.159 85.4713 147.585 86.4283 143.34 89.4042C136.313 94.3303 133.075 97.986 126.824 103.832C118.612 111.512 114.762 116.555 106.713 124.398C97.4882 133.386 92.8859 139.769 79.6387 149.202C73.9287 153.268 65.5863 160.231 55.6857 159.06Z"
        fill="url(#paint11_linear_1529_9519)"
      />
    </g>
    <mask
      id="mask4_1529_9519"
      style="mask-type: alpha"
      maskUnits="userSpaceOnUse"
      x="66"
      y="97"
      width="107"
      height="92"
    >
      <path
        d="M87.3204 181.91C79.3583 182.499 66.1745 178.806 66.1745 178.806L75.7514 188.41L129.357 187.634L172.815 155.831L172.2 114.923C172.2 114.923 168.136 99.9363 159.535 98.0576C147.154 95.3532 137.832 114.04 134.139 125.946C128.22 145.029 128.552 150.626 117.6 165.154C110.57 174.48 100.852 180.909 87.3204 181.91Z"
        fill="url(#paint12_linear_1529_9519)"
      />
    </mask>
    <g mask="url(#mask4_1529_9519)">
      <path
        d="M87.3204 181.91C79.3583 182.499 66.1745 178.806 66.1745 178.806L75.7514 188.41L129.357 187.634L172.815 155.831L172.2 114.923C172.2 114.923 168.136 99.9363 159.535 98.0576C147.154 95.3532 137.832 114.04 134.139 125.946C128.22 145.029 128.552 150.626 117.6 165.154C110.57 174.48 100.852 180.909 87.3204 181.91Z"
        fill="url(#paint13_linear_1529_9519)"
      />
      <path
        d="M82.8665 182.947C78.6454 182.829 72.1694 181.397 72.1694 181.397L68.1804 180.237L74.8444 177.705L107.968 168.458L121.562 148.047L137.279 103.736L157.442 91.0235L172.563 106.149L172.79 121.245C172.79 121.245 169.954 114.223 167.669 110.847C165.794 108.075 163.048 105.442 159.151 105.612C154.881 105.799 151.096 108.229 148.567 111.61C141.754 120.72 138.673 131.33 131.923 143.756C128.677 149.732 127.347 152.308 123.464 158.979C120.318 164.383 116.118 169.802 111.026 173.772C106.545 177.267 102.176 179.498 97.4831 181.031C93.0368 182.483 88.623 183.109 82.8665 182.947Z"
        fill="url(#paint14_linear_1529_9519)"
      />
      <path
        d="M69.4307 180.461C65.3104 179.553 71.0947 175.566 71.0947 175.566L67.1056 174.406L73.7697 171.874L106.893 162.627L120.487 142.215L136.204 97.9048L156.368 85.1919L171.489 100.317L171.716 115.414C171.716 115.414 168.88 108.392 166.595 105.015C164.719 102.243 161.714 98.7535 157.814 98.8099C152.85 98.8817 148.738 102.095 145.996 105.313C138.435 114.191 135.58 124.316 131.841 137.91C129.958 144.757 127.82 150.351 123.937 157.022C120.791 162.426 115.444 170.053 109.058 174.529C104.4 177.794 98.9735 180.715 92.04 181.839C87.8304 182.521 81.8832 183.203 69.4307 180.461Z"
        fill="#5C4C18"
      />
    </g>
    <ellipse
      cx="49.8451"
      cy="27.8924"
      rx="49.8451"
      ry="27.8924"
      transform="matrix(0.930372 -0.367071 0.379156 0.925148 28.5425 73.3799)"
      fill="url(#paint15_linear_1529_9519)"
    />
    <ellipse
      cx="43.7096"
      cy="24.4591"
      rx="43.7096"
      ry="24.4591"
      transform="matrix(0.930372 -0.367071 0.379156 0.925148 34.1274 70.5278)"
      fill="url(#paint16_linear_1529_9519)"
    />
    <ellipse
      cx="35.2085"
      cy="18.2866"
      rx="35.2085"
      ry="18.2866"
      transform="matrix(0.930372 -0.367071 0.379156 0.925148 43.0879 70.3325)"
      fill="#6BF491"
    />
    <ellipse
      cx="27.059"
      cy="14.0539"
      rx="27.059"
      ry="14.0539"
      transform="matrix(0.930372 -0.367071 0.379156 0.925148 53.1597 69.2793)"
      fill="#7AFF9F"
    />
    <mask
      id="mask5_1529_9519"
      style="mask-type: alpha"
      maskUnits="userSpaceOnUse"
      x="63"
      y="58"
      width="39"
      height="25"
    >
      <ellipse
        cx="20.2054"
        cy="10.4943"
        rx="20.2054"
        ry="10.4943"
        transform="matrix(0.930372 -0.367071 0.379157 0.925147 59.5669 68.0176)"
        fill="#7AFF9F"
      />
    </mask>
    <g mask="url(#mask5_1529_9519)">
      <ellipse
        cx="20.2054"
        cy="10.4943"
        rx="20.2054"
        ry="10.4943"
        transform="matrix(0.930372 -0.367071 0.379157 0.925147 59.5669 68.0176)"
        fill="#7AFF9F"
      />
      <g filter="url(#filter0_f_1529_9519)">
        <ellipse
          cx="87.4824"
          cy="83.9901"
          rx="13.457"
          ry="13.2035"
          fill="#37A453"
        />
      </g>
    </g>
  </g>
  <path
    d="M79.0981 46.0573C81.1452 46.0429 82.832 46.4984 83.9016 47.3545C84.9712 48.2106 85.3651 49.4204 85.0232 50.7998C84.6814 52.1792 83.6226 53.6525 82.008 54.9955C80.3934 56.3386 78.3114 57.4778 76.079 58.2397C73.8466 59.0016 71.586 59.3446 69.6414 59.2163C67.6967 59.088 66.1746 58.4956 65.3066 57.5291C64.4386 56.5627 64.2723 55.2752 64.8331 53.8626C65.3938 52.4501 66.6509 50.9898 68.4129 49.7041L69.6746 50.2837C68.2592 51.3164 67.2495 52.4894 66.799 53.624C66.3486 54.7587 66.4822 55.7928 67.1794 56.5691C67.8766 57.3454 69.0993 57.8213 70.6613 57.9243C72.2233 58.0274 74.0391 57.7519 75.8323 57.1399C77.6255 56.5279 79.2978 55.6128 80.5948 54.534C81.8917 53.4552 82.7422 52.2717 83.0168 51.1638C83.2913 50.0558 82.975 49.084 82.1158 48.3964C81.2567 47.7087 79.9018 47.3428 78.2574 47.3544L79.0981 46.0573Z"
    fill="#303736"
  />
  <path
    d="M84.1782 58.4303C86.2253 58.4159 87.9121 58.8714 88.9817 59.7276C90.0513 60.5837 90.4452 61.7935 90.1033 63.1728C89.7615 64.5522 88.7027 66.0255 87.0881 67.3686C85.4734 68.7116 83.3915 69.8508 81.159 70.6128C78.9266 71.3747 76.6661 71.7176 74.7214 71.5894C72.7768 71.4611 71.2547 70.8686 70.3867 69.9022C69.5187 68.9358 69.3524 67.6483 69.9132 66.2357C70.4739 64.8231 71.731 63.3629 73.493 62.0772L74.7546 62.6567C73.3393 63.6895 72.3296 64.8624 71.8791 65.9971C71.4287 67.1317 71.5623 68.1659 72.2595 68.9422C72.9567 69.7185 74.1793 70.1943 75.7414 70.2974C77.3034 70.4004 79.1192 70.125 80.9124 69.5129C82.7055 68.9009 84.3779 67.9859 85.6748 66.9071C86.9718 65.8283 87.8223 64.6448 88.0968 63.5368C88.3714 62.4289 88.0551 61.4571 87.1959 60.7694C86.3367 60.0817 84.9818 59.7158 83.3375 59.7274L84.1782 58.4303Z"
    fill="#303736"
  />
  <path
    d="M82.9018 55.3327C84.949 55.3183 86.6357 55.7738 87.7053 56.6299C88.7749 57.486 89.1688 58.6958 88.827 60.0752C88.4851 61.4545 87.4263 62.9279 85.8117 64.2709C84.1971 65.614 82.1151 66.7532 79.8827 67.5151C77.6503 68.277 75.3897 68.62 73.4451 68.4917C71.5004 68.3634 69.9783 67.771 69.1103 66.8045C68.2423 65.8381 68.076 64.5506 68.6368 63.138C69.1976 61.7255 70.4546 60.2652 72.2166 58.9795L73.4783 59.5591C72.0629 60.5918 71.0532 61.7648 70.6028 62.8994C70.1523 64.034 70.2859 65.0682 70.9831 65.8445C71.6803 66.6208 72.903 67.0967 74.465 67.1997C76.027 67.3028 77.8428 67.0273 79.636 66.4153C81.4292 65.8033 83.1015 64.8882 84.3985 63.8094C85.6954 62.7306 86.5459 61.5471 86.8205 60.4392C87.0951 59.3312 86.7787 58.3594 85.9195 57.6717C85.0604 56.9841 83.7055 56.6182 82.0611 56.6297L82.9018 55.3327Z"
    fill="#303736"
  />
  <path
    d="M81.6508 52.2453C83.698 52.2308 85.3847 52.6864 86.4543 53.5425C87.524 54.3986 87.9178 55.6084 87.576 56.9878C87.2341 58.3671 86.1753 59.8405 84.5607 61.1835C82.9461 62.5266 80.8641 63.6658 78.6317 64.4277C76.3993 65.1896 74.1387 65.5326 72.1941 65.4043C70.2495 65.276 68.7273 64.6836 67.8593 63.7171C66.9913 62.7507 66.8251 61.4632 67.3858 60.0506C67.9466 58.6381 69.2036 57.1778 70.9657 55.8921L72.2273 56.4717C70.8119 57.5044 69.8022 58.6774 69.3518 59.812C68.9014 60.9466 69.0349 61.9808 69.7321 62.7571C70.4293 63.5334 71.652 64.0093 73.214 64.1123C74.776 64.2154 76.5918 63.9399 78.385 63.3279C80.1782 62.7159 81.8505 61.8008 83.1475 60.722C84.4444 59.6432 85.2949 58.4597 85.5695 57.3518C85.8441 56.2438 85.5277 55.272 84.6685 54.5843C83.8094 53.8967 82.4545 53.5308 80.8101 53.5423L81.6508 52.2453Z"
    fill="#303736"
  />
  <mask
    id="mask6_1529_9519"
    style="mask-type: alpha"
    maskUnits="userSpaceOnUse"
    x="70"
    y="62"
    width="19"
    height="16"
  >
    <path
      d="M84.3805 77.2629L88.3721 62.218L70.8941 69.1026L84.3805 77.2629Z"
      fill="#5CDA7D"
    />
  </mask>
  <g mask="url(#mask6_1529_9519)">
    <path
      d="M84.3805 77.2629L88.3721 62.218L70.8941 69.1026L84.3805 77.2629Z"
      fill="#5CDA7D"
    />
    <path
      d="M84.9397 77.7718L76.4761 71.4053L78.0528 70.7842L84.9397 77.7718Z"
      fill="#9AFDB4"
    />
    <path
      d="M84.3051 78.0128C84.2591 74.9172 84.2048 68.6394 84.3558 68.2925L87.256 66.4315L88.5841 68.7826L84.3051 78.0128Z"
      fill="#339966"
    />
  </g>
  <path
    d="M80.3735 49.1481C82.4206 49.1337 84.1074 49.5892 85.177 50.4453C86.2466 51.3014 86.6405 52.5113 86.2986 53.8906C85.9568 55.27 84.898 56.7433 83.2834 58.0864C81.6688 59.4294 79.5868 60.5686 77.3544 61.3305C75.1219 62.0925 72.8614 62.4354 70.9167 62.3071C68.9721 62.1789 67.45 61.5864 66.582 60.62C65.714 59.6535 65.5477 58.366 66.1085 56.9535C66.6692 55.5409 67.9263 54.0806 69.6883 52.795L70.9499 53.3745C69.5346 54.4072 68.5249 55.5802 68.0744 56.7148C67.624 57.8495 67.7576 58.8837 68.4548 59.6599C69.152 60.4362 70.3747 60.9121 71.9367 61.0152C73.4987 61.1182 75.3145 60.8427 77.1077 60.2307C78.9009 59.6187 80.5732 58.7036 81.8701 57.6248C83.1671 56.546 84.0176 55.3626 84.2922 54.2546C84.5667 53.1466 84.2504 52.1749 83.3912 51.4872C82.532 50.7995 81.1772 50.4336 79.5328 50.4452L80.3735 49.1481Z"
    fill="#303736"
  />
  <mask
    id="mask7_1529_9519"
    style="mask-type: alpha"
    maskUnits="userSpaceOnUse"
    x="62"
    y="40"
    width="28"
    height="32"
  >
    <path
      d="M79.3794 40.4771L62.9823 46.938L72.8431 71.045C72.8431 71.045 76.4395 71.7812 81.8001 69.669C87.1607 67.5567 89.2402 64.5841 89.2402 64.5841L79.3794 40.4771Z"
      fill="#5CDA7D"
    />
  </mask>
  <g mask="url(#mask7_1529_9519)">
    <path
      d="M79.3794 40.4771L62.9823 46.938L72.8431 71.045C72.8431 71.045 76.4395 71.7812 81.8001 69.669C87.1607 67.5567 89.2402 64.5841 89.2402 64.5841L79.3794 40.4771Z"
      fill="#5CDA7D"
    />
    <path
      d="M81.4531 39.6323L73.8849 42.6135L86.2141 72.746C86.2141 72.746 88.4724 74.5479 90.9466 73.5733C93.4208 72.5987 93.7823 69.7649 93.7823 69.7649L81.4531 39.6323Z"
      fill="#339966"
    />
    <path
      d="M67.5762 45.1006L65.6841 45.8459L78.0133 75.9784C78.0133 75.9784 79.2892 78.1673 79.9077 77.9237C80.5263 77.68 79.9053 75.2332 79.9053 75.2332L67.5762 45.1006Z"
      fill="#9AFDB4"
    />
  </g>
  <mask
    id="mask8_1529_9519"
    style="mask-type: alpha"
    maskUnits="userSpaceOnUse"
    x="41"
    y="18"
    width="52"
    height="32"
  >
    <path
      d="M92.7286 31.932L87.157 18.315L41.4913 36.3027L47.0629 49.9197L60.3255 49.9346L83.1583 40.9408L92.7286 31.932Z"
      fill="#C4C4C4"
    />
  </mask>
  <g mask="url(#mask8_1529_9519)">
    <path
      d="M92.7286 31.932L87.157 18.315L41.4913 36.3027L47.0629 49.9197L60.3255 49.9346L83.1583 40.9408L92.7286 31.932Z"
      fill="#C4C4C4"
    />
    <path
      d="M58.5439 27.123L35.0263 36.3867L44.1413 58.6638L67.659 49.4001L58.5439 27.123Z"
      fill="#5CDA7D"
    />
    <path
      d="M48.269 30.4307L46.8353 30.9954L63.293 71.218C63.293 71.218 65.0594 74.1149 65.4717 73.9525C65.8841 73.7901 64.7267 70.6533 64.7267 70.6533L48.269 30.4307Z"
      fill="#9AFDB4"
    />
    <path
      d="M45.3385 30.8679L44.9753 31.011L61.433 71.2336C61.433 71.2336 62.5687 74.379 62.981 74.2165C63.3934 74.0541 61.7962 71.0905 61.7962 71.0905L45.3385 30.8679Z"
      fill="#9AFDB4"
    />
    <path
      d="M76.8569 23.521L53.3393 32.7846L62.4543 55.0617L85.972 45.7981L76.8569 23.521Z"
      fill="#339966"
    />
    <rect
      width="24.3207"
      height="24.1525"
      transform="matrix(-0.933554 0.367728 0.377396 0.922351 98.4165 13.5864)"
      fill="#3B5B4F"
    />
    <path
      d="M82.0304 37.9687L89.5186 21.7261L93.6963 31.9364L84.0542 41.4828L60.5354 50.3875L62.6662 49.1889L82.0304 37.9687Z"
      fill="#303736"
    />
  </g>
  <mask
    id="mask9_1529_9519"
    style="mask-type: alpha"
    maskUnits="userSpaceOnUse"
    x="41"
    y="18"
    width="47"
    height="19"
  >
    <path
      d="M87.1842 18.316L73.9217 18.301L51.0888 27.2949L41.5185 36.3037L54.7811 36.3186L77.6139 27.3248L87.1842 18.316Z"
      fill="#5CDA7D"
    />
  </mask>
  <g mask="url(#mask9_1529_9519)">
    <path
      d="M87.1842 18.316L73.9217 18.301L51.0888 27.2949L41.5185 36.3037L54.7811 36.3186L77.6139 27.3248L87.1842 18.316Z"
      fill="#5CDA7D"
    />
    <rect
      width="37.8157"
      height="3.34906"
      transform="matrix(-0.734683 0.671933 0.691836 0.72821 74.8828 14.2056)"
      fill="#9AFDB4"
    />
    <rect
      width="37.8157"
      height="0.9563"
      transform="matrix(-0.734683 0.671933 0.691836 0.72821 69.3867 16.3745)"
      fill="#9AFDB4"
    />
  </g>
  <path
    d="M84.9162 48.6749C85.487 50.0699 84.9712 51.8266 83.4824 53.5584C81.9936 55.2903 79.6536 56.8555 76.9773 57.9096C74.3011 58.9638 71.5076 59.4207 69.2116 59.1797C66.9156 58.9387 65.305 58.0196 64.7342 56.6246L66.6188 55.8823C67.083 57.0167 68.3928 57.7642 70.26 57.9602C72.1272 58.1561 74.3989 57.7846 76.5754 56.9273C78.7519 56.07 80.6548 54.7971 81.8656 53.3887C83.0763 51.9803 83.4958 50.5518 83.0316 49.4173L84.9162 48.6749Z"
    fill="#303736"
  />
  <path
    d="M89.9962 61.048C90.567 62.443 90.0513 64.1996 88.5625 65.9315C87.0737 67.6633 84.7337 69.2285 82.0574 70.2827C79.3811 71.3369 76.5877 71.7937 74.2917 71.5527C71.9956 71.3118 70.3851 70.3927 69.8143 68.9977L71.6989 68.2553C72.1631 69.3898 73.4728 70.1372 75.3401 70.3332C77.2073 70.5292 79.479 70.1577 81.6555 69.3004C83.832 68.443 85.7349 67.1702 86.9456 65.7618C88.1564 64.3534 88.5758 62.9248 88.1116 61.7903L89.9962 61.048Z"
    fill="#303736"
  />
  <path
    d="M88.7199 57.9503C89.2907 59.3453 88.7749 61.102 87.2861 62.8338C85.7973 64.5657 83.4574 66.1308 80.7811 67.185C78.1048 68.2392 75.3113 68.6961 73.0153 68.4551C70.7193 68.2141 69.1087 67.295 68.5379 65.9L70.4225 65.1577C70.8867 66.2921 72.1965 67.0396 74.0637 67.2356C75.9309 67.4315 78.2026 67.06 80.3791 66.2027C82.5556 65.3454 84.4585 64.0725 85.6693 62.6641C86.88 61.2557 87.2995 59.8271 86.8353 58.6927L88.7199 57.9503Z"
    fill="#303736"
  />
  <path
    d="M87.4689 54.8629C88.0397 56.2579 87.5239 58.0146 86.0351 59.7464C84.5463 61.4783 82.2064 63.0434 79.5301 64.0976C76.8538 65.1518 74.0604 65.6087 71.7643 65.3677C69.4683 65.1267 67.8577 64.2076 67.2869 62.8126L69.1715 62.0703C69.6357 63.2047 70.9455 63.9522 72.8127 64.1482C74.6799 64.3441 76.9517 63.9726 79.1281 63.1153C81.3046 62.258 83.2075 60.9851 84.4183 59.5767C85.6291 58.1683 86.0485 56.7397 85.5843 55.6053L87.4689 54.8629Z"
    fill="#303736"
  />
  <path
    d="M86.1916 51.7658C86.7623 53.1608 86.2466 54.9174 84.7578 56.6493C83.269 58.3811 80.929 59.9463 78.2527 61.0005C75.5764 62.0547 72.783 62.5115 70.487 62.2705C68.1909 62.0295 66.5804 61.1104 66.0096 59.7154L67.8942 58.9731C68.3584 60.1076 69.6682 60.855 71.5354 61.051C73.4026 61.247 75.6743 60.8754 77.8508 60.0181C80.0273 59.1608 81.9302 57.888 83.141 56.4796C84.3517 55.0711 84.7711 53.6426 84.307 52.5081L86.1916 51.7658Z"
    fill="#303736"
  />
  <mask
    id="mask10_1529_9519"
    style="mask-type: alpha"
    maskUnits="userSpaceOnUse"
    x="5"
    y="57"
    width="190"
    height="118"
  >
    <path
      d="M136.054 63.4537C155.014 57.904 170.916 56.219 181.362 58.6529C191.808 61.0867 196.232 67.5074 193.966 76.9464C191.7 86.3855 182.868 98.331 168.8 110.981C154.733 123.631 136.194 136.3 115.98 147.077C95.7661 157.854 74.9728 166.153 56.7368 170.725C38.5008 175.296 23.811 175.891 14.8831 172.419C5.95523 168.948 3.27347 161.599 7.24232 151.48C11.2112 141.361 21.6154 129.021 36.8857 116.323L53.0578 116.268C41.7003 125.713 33.962 134.89 31.0101 142.416C28.0582 149.942 30.0528 155.409 36.6931 157.991C43.3333 160.572 54.2591 160.13 67.8224 156.73C81.3857 153.33 96.8509 147.157 111.886 139.142C126.92 131.126 140.709 121.704 151.171 112.295C161.634 102.886 168.203 94.0016 169.889 86.9811C171.574 79.9607 168.284 75.1852 160.514 73.375C152.745 71.5648 140.917 72.8181 126.816 76.9457L136.054 63.4537Z"
      fill="url(#paint17_linear_1529_9519)"
    />
  </mask>
  <g mask="url(#mask10_1529_9519)">
    <path
      opacity="0.5"
      d="M6.13973 154.846C8.41973 146.035 16.3187 135.086 28.8088 123.426C41.2988 111.765 57.8017 99.9325 76.1698 89.4674C94.5379 79.0022 113.921 70.3892 131.796 64.7491C149.671 59.109 165.211 56.7031 176.394 57.8443L156.819 72.7737C148.502 71.9248 136.944 73.7143 123.649 77.9092C110.354 82.1041 95.9374 88.5101 82.2759 96.2938C68.6144 104.077 56.3402 112.878 47.0505 121.551C37.7608 130.224 31.8858 138.367 30.1901 144.92L6.13973 154.846Z"
      fill="#6BF491"
    />
    <mask
      id="mask11_1529_9519"
      style="mask-type: alpha"
      maskUnits="userSpaceOnUse"
      x="33"
      y="51"
      width="134"
      height="129"
    >
      <ellipse
        cx="66.5264"
        cy="64.3067"
        rx="66.5264"
        ry="64.3067"
        transform="matrix(0.925613 -0.378472 0.390935 0.920418 13.603 81.6201)"
        fill="#C4C4C4"
      />
    </mask>
    <g mask="url(#mask11_1529_9519)">
      <mask
        id="mask12_1529_9519"
        style="mask-type: alpha"
        maskUnits="userSpaceOnUse"
        x="26"
        y="52"
        width="149"
        height="137"
      >
        <path
          d="M49.2663 79.0696C50.2258 75.9612 53.0927 70.7745 53.0927 70.7745L34.916 91.4274L26.2547 116.603L38.3467 153.724L68.5985 177.651L110.8 188.76L157.226 158.479L174.253 113.778L158.508 76.7078L134.797 54.9139L117.663 52.0646C117.663 52.0646 108.941 57.546 104.565 61.0259C99.4647 65.0808 97.2058 67.4983 92.1278 72.1206C86.5731 77.1767 83.9004 81.0133 77.3774 85.8438C71.7977 89.9759 65.6361 92.8081 61.3221 93.6105C58.3244 94.1681 51.7895 93.6623 49.7888 88.9518C48.4839 85.8797 47.8228 83.7462 49.2663 79.0696Z"
          fill="url(#paint18_linear_1529_9519)"
        />
      </mask>
      <g mask="url(#mask12_1529_9519)">
        <path
          d="M49.2663 79.0696C50.2258 75.9612 53.0927 70.7745 53.0927 70.7745L34.916 91.4274L26.2547 116.603L38.3467 153.724L68.5985 177.651L110.8 188.76L157.226 158.479L174.253 113.778L158.508 76.7078L134.797 54.9139L117.663 52.0646C117.663 52.0646 108.941 57.546 104.565 61.0259C99.4647 65.0808 97.2058 67.4983 92.1278 72.1206C86.5731 77.1767 83.9004 81.0133 77.3774 85.8438C71.7977 89.9759 65.6361 92.8081 61.3221 93.6105C58.3244 94.1681 51.7895 93.6623 49.7888 88.9518C48.4839 85.8797 47.8228 83.7462 49.2663 79.0696Z"
          fill="url(#paint19_linear_1529_9519)"
        />
        <path
          d="M32.7257 108.742C30.2167 104.72 30.8961 99.0204 30.8961 99.0204L37.4621 82.3938L71.066 46.4111L108.567 50.5298L121.16 49.4315C121.16 49.4315 138.315 43.4087 137.672 56.5706C137.136 67.5541 135.993 77.1646 118.922 93.9145C111.573 101.125 97.0929 110.39 76.3835 115.881C63.8283 119.211 49.6192 117.892 43.0805 115.881C39.8463 114.887 34.6736 111.865 32.7257 108.742Z"
          fill="url(#paint20_linear_1529_9519)"
        />
        <path
          d="M35.4572 103.129C32.9481 99.1066 33.6275 93.4066 33.6275 93.4066L40.1936 76.7801L73.7975 40.7974L111.298 44.916L123.892 43.8177C123.892 43.8177 141.046 37.795 140.404 50.9569C139.867 61.9403 138.724 71.5508 121.653 88.3007C114.304 95.5113 99.8243 104.776 79.1149 110.268C66.5598 113.597 52.3507 112.278 45.8119 110.268C42.5778 109.273 37.4051 106.251 35.4572 103.129Z"
          fill="url(#paint21_linear_1529_9519)"
        />
      </g>
      <mask
        id="mask13_1529_9519"
        style="mask-type: alpha"
        maskUnits="userSpaceOnUse"
        x="12"
        y="49"
        width="186"
        height="157"
      >
        <path
          d="M26.0374 105.767C25.5711 102.251 28.405 95.8157 28.405 95.8157L17.1518 110.048L12.5344 137.791L33.6815 186.381L115.081 205.731L181.446 173.865L197.737 103.975L135.934 49.5783C135.934 49.5783 144.29 63.2581 137.826 76.8981C132.295 88.5697 117.333 102.001 103.19 110.048C88.3979 118.463 74.4029 123.058 59.3101 123.737C49.7333 124.169 40.546 122.055 35.1828 118.782C30.3842 115.853 26.7394 111.062 26.0374 105.767Z"
          fill="url(#paint22_linear_1529_9519)"
        />
      </mask>
      <g mask="url(#mask13_1529_9519)">
        <path
          d="M25.0326 103.234C24.5663 99.7179 27.4002 93.2821 27.4002 93.2821L16.147 107.514L11.5296 135.258L32.6768 183.848L114.076 203.197L180.442 171.331L196.732 101.442L157.766 76.8658C157.766 76.8658 153.725 72.5942 144.675 76.8658C131.053 83.2947 115.006 97.5501 100.863 105.597C86.0704 114.012 73.3981 120.524 58.3054 121.204C48.7285 121.635 39.5412 119.522 34.178 116.248C29.3794 113.319 25.7347 108.528 25.0326 103.234Z"
          fill="url(#paint23_linear_1529_9519)"
        />
        <path
          d="M26.5544 121.445C28.5012 116.827 21.657 109.893 21.657 109.893L25.6099 96.9617C25.6099 96.9617 45.9049 115.348 63.6776 118.059C104.436 124.275 132.117 48.0773 132.117 48.0773L140.802 49.6355C140.802 49.6355 157.837 45.3937 150.811 58.9079C145.68 68.7777 159.093 68.7342 160.776 75.1719C148.762 61.2461 130.269 94.2285 117.249 107.898C104.229 121.567 65.752 152.984 39.4485 145.241C19.8584 139.475 22.4397 131.205 26.5544 121.445Z"
          fill="url(#paint24_linear_1529_9519)"
        />
        <path
          d="M24.3851 115.472C26.7485 111.045 20.5698 103.533 20.5698 103.533L25.6955 91.0047C25.6955 91.0047 44.2172 111.113 61.6682 115.386C101.688 125.184 136.263 51.7471 136.263 51.7471L144.77 54.0677C144.77 54.0677 162.125 51.351 153.885 64.1882C147.867 73.5635 161.229 74.7074 162.313 81.2679C151.63 66.3355 127.331 98.0177 113.108 110.479C98.8842 122.94 66.6023 143.324 45.942 140.683C30.71 138.736 19.3897 124.828 24.3851 115.472Z"
          fill="url(#paint25_linear_1529_9519)"
        />
      </g>
      <mask
        id="mask14_1529_9519"
        style="mask-type: alpha"
        maskUnits="userSpaceOnUse"
        x="28"
        y="83"
        width="160"
        height="122"
      >
        <path
          d="M36.305 143.529C32.6351 139.267 28.1768 131.226 28.1768 131.226L28.4513 149.488L52.3761 188.841L138.245 204.16L187.691 141.339L173.97 103.787C173.97 103.787 167.772 87.7871 161.021 84.4905C151.301 79.7447 141.307 89.2639 135.105 94.3639C126.7 101.276 121.192 107.874 113.581 115.621C105.541 123.803 101.248 128.612 92.7933 136.38C79.3268 148.752 68.4889 154.349 58.3199 154.901C46.9108 155.52 39.8064 147.596 36.305 143.529Z"
          fill="url(#paint26_linear_1529_9519)"
        />
      </mask>
      <g mask="url(#mask14_1529_9519)">
        <path
          d="M36.305 143.529C32.6351 139.267 28.1768 131.226 28.1768 131.226L28.4513 149.488L52.3761 188.841L138.245 204.16L187.691 141.339L173.97 103.787C173.97 103.787 167.772 87.7871 161.021 84.4905C151.301 79.7447 141.307 89.2639 135.105 94.3639C126.7 101.276 121.192 107.874 113.581 115.621C105.541 123.803 101.248 128.612 92.7933 136.38C79.3268 148.752 68.4889 154.349 58.3199 154.901C46.9108 155.52 39.8064 147.596 36.305 143.529Z"
          fill="url(#paint27_linear_1529_9519)"
        />
        <path
          d="M65.9664 173.139C57.5208 172.747 50.9809 167.024 50.9809 167.024L33.8673 151.44L33.4684 124.899L75.9982 146.934L132.598 97.6484L148.233 80.6537L163.159 83.0802L177.641 88.716L176.715 111.133C173.374 109.823 168.53 94.2712 162.653 92.0745C156.776 89.8778 151.735 91.4755 147.26 94.1084C142.16 97.1101 138.4 101.175 132.598 107.451C124.977 115.696 120.706 125.752 114.293 134.933C105.911 146.934 102.753 154.051 90.239 164.403C84.8451 168.865 75.9276 173.602 65.9664 173.139Z"
          fill="url(#paint28_linear_1529_9519)"
        />
        <path
          d="M55.6858 159.057C47.2915 158.064 41.1925 151.89 41.1925 151.89L25.2775 135.128L26.8443 108.628L67.6308 133.636L127.729 88.5133L159.288 76.1613L173.315 82.8141L172.681 100.156C164.505 84.6868 158.494 82.7669 153.327 84.1179C148.159 85.4689 147.585 86.4259 143.34 89.4018C136.313 94.3279 133.075 97.9835 126.824 103.83C118.612 111.509 114.762 116.552 106.713 124.395C97.4882 133.384 92.8859 139.767 79.6387 149.2C73.9287 153.265 65.5864 160.229 55.6858 159.057Z"
          fill="url(#paint29_linear_1529_9519)"
        />
      </g>
      <mask
        id="mask15_1529_9519"
        style="mask-type: alpha"
        maskUnits="userSpaceOnUse"
        x="66"
        y="97"
        width="107"
        height="92"
      >
        <path
          d="M87.3204 181.909C79.3583 182.498 66.1745 178.805 66.1745 178.805L75.7514 188.409L129.357 187.633L172.815 155.83L172.2 114.922C172.2 114.922 168.136 99.9353 159.535 98.0567C147.154 95.3522 137.832 114.039 134.139 125.945C128.22 145.028 128.552 150.625 117.601 165.153C110.57 174.479 100.852 180.908 87.3204 181.909Z"
          fill="url(#paint30_linear_1529_9519)"
        />
      </mask>
      <g mask="url(#mask15_1529_9519)">
        <path
          d="M87.3204 181.909C79.3583 182.498 66.1745 178.805 66.1745 178.805L75.7514 188.409L129.357 187.633L172.815 155.83L172.2 114.922C172.2 114.922 168.136 99.9353 159.535 98.0567C147.154 95.3522 137.832 114.039 134.139 125.945C128.22 145.028 128.552 150.625 117.601 165.153C110.57 174.479 100.852 180.908 87.3204 181.909Z"
          fill="url(#paint31_linear_1529_9519)"
        />
        <path
          d="M82.8665 182.945C78.6455 182.827 72.1695 181.395 72.1695 181.395L68.1804 180.235L74.8445 177.703L107.968 168.456L121.562 148.045L137.279 103.734L157.443 91.0216L172.563 106.147L172.79 121.244C172.79 121.244 169.954 114.222 167.67 110.845C165.794 108.073 163.049 105.44 159.151 105.61C154.881 105.797 151.097 108.227 148.568 111.608C141.754 120.718 138.673 131.328 131.923 143.754C128.677 149.73 127.347 152.306 123.464 158.977C120.318 164.381 116.118 169.8 111.026 173.77C106.545 177.265 102.176 179.496 97.4831 181.029C93.0368 182.481 88.623 183.107 82.8665 182.945Z"
          fill="url(#paint32_linear_1529_9519)"
        />
        <path
          d="M69.4307 180.459C65.3105 179.552 71.0947 175.564 71.0947 175.564L67.1057 174.404L73.7698 171.872L106.893 162.625L120.487 142.214L136.204 97.9034L156.368 85.1905L171.489 100.316L171.716 115.412C171.716 115.412 168.88 108.39 166.595 105.014C164.719 102.242 161.714 98.7521 157.814 98.8085C152.85 98.8803 148.738 102.094 145.996 105.312C138.435 114.189 135.58 124.314 131.841 137.909C129.958 144.756 127.82 150.35 123.937 157.02C120.791 162.424 115.445 170.052 109.058 174.528C104.4 177.793 98.9736 180.714 92.0401 181.837C87.8305 182.519 81.8833 183.202 69.4307 180.459Z"
          fill="#5C4C18"
        />
      </g>
      <ellipse
        cx="49.8451"
        cy="27.8924"
        rx="49.8451"
        ry="27.8924"
        transform="matrix(0.930372 -0.367071 0.379156 0.925148 28.5425 73.3784)"
        fill="url(#paint33_linear_1529_9519)"
      />
      <ellipse
        cx="43.7096"
        cy="24.4591"
        rx="43.7096"
        ry="24.4591"
        transform="matrix(0.930372 -0.367071 0.379156 0.925148 34.1274 70.5269)"
        fill="url(#paint34_linear_1529_9519)"
      />
      <ellipse
        cx="35.2085"
        cy="18.2866"
        rx="35.2085"
        ry="18.2866"
        transform="matrix(0.930373 -0.36707 0.379157 0.925147 43.0879 70.3315)"
        fill="#6BF491"
      />
      <ellipse
        cx="27.059"
        cy="14.0539"
        rx="27.059"
        ry="14.0539"
        transform="matrix(0.930372 -0.367071 0.379156 0.925148 53.1597 69.2891)"
        fill="#7AFF9F"
      />
      <mask
        id="mask16_1529_9519"
        style="mask-type: alpha"
        maskUnits="userSpaceOnUse"
        x="63"
        y="58"
        width="39"
        height="25"
      >
        <ellipse
          cx="20.2054"
          cy="10.4943"
          rx="20.2054"
          ry="10.4943"
          transform="matrix(0.930372 -0.36707 0.379158 0.925147 59.5664 68.0034)"
          fill="#7AFF9F"
        />
      </mask>
      <g mask="url(#mask16_1529_9519)">
        <ellipse
          cx="20.2054"
          cy="10.4943"
          rx="20.2054"
          ry="10.4943"
          transform="matrix(0.930372 -0.36707 0.379158 0.925147 59.5664 68.0034)"
          fill="#7AFF9F"
        />
        <g filter="url(#filter1_f_1529_9519)">
          <ellipse
            cx="87.4814"
            cy="83.9813"
            rx="13.457"
            ry="13.2035"
            fill="#37A453"
          />
        </g>
      </g>
    </g>
  </g>
  <path
    opacity="0.5"
    d="M176.391 57.8508C185.47 58.7767 191.368 62.0093 193.572 67.2673C195.777 72.5253 194.22 79.6492 189.039 88.0191C183.858 96.389 175.209 105.751 163.845 115.291C152.48 124.83 138.745 134.258 123.835 142.754C108.925 151.249 93.2907 158.555 78.2941 164.035C63.2976 169.515 49.3928 173.003 37.7902 174.197C26.1875 175.39 17.2385 174.251 11.7221 170.88C6.20572 167.509 4.28911 162.008 6.1391 154.856L30.1896 144.929C28.8136 150.249 30.2391 154.34 34.342 156.847C38.4449 159.355 45.1009 160.201 53.7305 159.314C62.3602 158.427 72.702 155.832 83.8559 151.756C95.0098 147.68 106.638 142.247 117.728 135.928C128.817 129.609 139.033 122.597 147.485 115.502C155.938 108.407 162.371 101.444 166.224 95.2183C170.078 88.9931 171.235 83.6946 169.596 79.7839C167.956 75.8732 163.569 73.4689 156.817 72.7802L176.391 57.8508Z"
    fill="#6BF491"
  />
  <defs>
    <filter
      id="filter0_f_1529_9519"
      x="-8.17794"
      y="-11.4167"
      width="191.321"
      height="190.814"
      filterUnits="userSpaceOnUse"
      color-interpolation-filters="sRGB"
    >
      <feFlood flood-opacity="0" result="BackgroundImageFix" />
      <feBlend
        mode="normal"
        in="SourceGraphic"
        in2="BackgroundImageFix"
        result="shape"
      />
      <feGaussianBlur
        stdDeviation="41.1017"
        result="effect1_foregroundBlur_1529_9519"
      />
    </filter>
    <filter
      id="filter1_f_1529_9519"
      x="-8.17892"
      y="-11.4255"
      width="191.321"
      height="190.814"
      filterUnits="userSpaceOnUse"
      color-interpolation-filters="sRGB"
    >
      <feFlood flood-opacity="0" result="BackgroundImageFix" />
      <feBlend
        mode="normal"
        in="SourceGraphic"
        in2="BackgroundImageFix"
        result="shape"
      />
      <feGaussianBlur
        stdDeviation="41.1017"
        result="effect1_foregroundBlur_1529_9519"
      />
    </filter>
    <linearGradient
      id="paint0_linear_1529_9519"
      x1="83.7255"
      y1="66.1825"
      x2="67.8301"
      y2="126.192"
      gradientUnits="userSpaceOnUse"
    >
      <stop stop-color="#75ED94" />
      <stop offset="0.659209" stop-color="#57E57B" />
      <stop offset="1" stop-color="#A1CE75" />
    </linearGradient>
    <linearGradient
      id="paint1_linear_1529_9519"
      x1="83.7255"
      y1="66.1825"
      x2="67.8301"
      y2="126.192"
      gradientUnits="userSpaceOnUse"
    >
      <stop stop-color="#A3EE75" />
      <stop offset="1" stop-color="#75CE79" />
    </linearGradient>
    <linearGradient
      id="paint2_linear_1529_9519"
      x1="45.2647"
      y1="94.349"
      x2="103.359"
      y2="95.7109"
      gradientUnits="userSpaceOnUse"
    >
      <stop stop-color="#51D173" />
      <stop offset="1" stop-color="#43DA6C" stop-opacity="0" />
    </linearGradient>
    <linearGradient
      id="paint3_linear_1529_9519"
      x1="47.9962"
      y1="88.7347"
      x2="106.091"
      y2="90.0966"
      gradientUnits="userSpaceOnUse"
    >
      <stop stop-color="#3AD864" />
      <stop offset="1" stop-color="#43DA6C" stop-opacity="0" />
    </linearGradient>
    <linearGradient
      id="paint4_linear_1529_9519"
      x1="132.207"
      y1="79.8019"
      x2="78.9752"
      y2="144.354"
      gradientUnits="userSpaceOnUse"
    >
      <stop stop-color="#DDDD59" />
      <stop offset="1" stop-color="#7D7532" />
    </linearGradient>
    <linearGradient
      id="paint5_linear_1529_9519"
      x1="131.202"
      y1="77.2686"
      x2="77.9697"
      y2="141.82"
      gradientUnits="userSpaceOnUse"
    >
      <stop stop-color="#DDDD59" />
      <stop offset="1" stop-color="#7D7532" />
    </linearGradient>
    <linearGradient
      id="paint6_linear_1529_9519"
      x1="56.24"
      y1="140.593"
      x2="113.495"
      y2="113.399"
      gradientUnits="userSpaceOnUse"
    >
      <stop stop-color="#807E32" />
      <stop offset="1" stop-color="#A09B41" stop-opacity="0" />
      <stop offset="1" stop-color="#A09B41" stop-opacity="0" />
    </linearGradient>
    <linearGradient
      id="paint7_linear_1529_9519"
      x1="19.4127"
      y1="116.784"
      x2="137.319"
      y2="75.5294"
      gradientUnits="userSpaceOnUse"
    >
      <stop stop-color="#7B7632" />
      <stop offset="1" stop-color="#CAEF5F" />
    </linearGradient>
    <linearGradient
      id="paint8_linear_1529_9519"
      x1="134.409"
      y1="114.103"
      x2="79.0984"
      y2="190.698"
      gradientUnits="userSpaceOnUse"
    >
      <stop stop-color="#D1B14B" />
      <stop offset="1" stop-color="#817B59" />
    </linearGradient>
    <linearGradient
      id="paint9_linear_1529_9519"
      x1="134.409"
      y1="114.103"
      x2="94.7936"
      y2="190.331"
      gradientUnits="userSpaceOnUse"
    >
      <stop stop-color="#D1B14B" />
      <stop offset="1" stop-color="#686244" />
    </linearGradient>
    <linearGradient
      id="paint10_linear_1529_9519"
      x1="165.437"
      y1="85.9733"
      x2="73.6091"
      y2="174.8"
      gradientUnits="userSpaceOnUse"
    >
      <stop stop-color="#D2B24C" />
      <stop offset="1" stop-color="#504B30" />
    </linearGradient>
    <linearGradient
      id="paint11_linear_1529_9519"
      x1="162.381"
      y1="78.9089"
      x2="86.8019"
      y2="167.103"
      gradientUnits="userSpaceOnUse"
    >
      <stop stop-color="#C6A945" />
      <stop offset="1" stop-color="#4B472C" />
    </linearGradient>
    <linearGradient
      id="paint12_linear_1529_9519"
      x1="149.931"
      y1="119.629"
      x2="120.88"
      y2="188.415"
      gradientUnits="userSpaceOnUse"
    >
      <stop stop-color="#7C671C" />
      <stop offset="1" stop-color="#60501A" />
    </linearGradient>
    <linearGradient
      id="paint13_linear_1529_9519"
      x1="149.931"
      y1="119.629"
      x2="120.88"
      y2="188.415"
      gradientUnits="userSpaceOnUse"
    >
      <stop stop-color="#7C671C" />
      <stop offset="1" stop-color="#60501A" />
    </linearGradient>
    <linearGradient
      id="paint14_linear_1529_9519"
      x1="122.765"
      y1="112.471"
      x2="179.109"
      y2="171.65"
      gradientUnits="userSpaceOnUse"
    >
      <stop stop-color="#60511B" />
      <stop offset="1" stop-color="#726420" stop-opacity="0" />
    </linearGradient>
    <linearGradient
      id="paint15_linear_1529_9519"
      x1="49.8451"
      y1="-1.36495e-06"
      x2="75.6185"
      y2="50.3102"
      gradientUnits="userSpaceOnUse"
    >
      <stop stop-color="#5CDA7D" />
      <stop offset="1" stop-color="#7DF57A" />
    </linearGradient>
    <linearGradient
      id="paint16_linear_1529_9519"
      x1="57.5071"
      y1="2.08152"
      x2="8.32508"
      y2="2.46349"
      gradientUnits="userSpaceOnUse"
    >
      <stop stop-color="#6BF391" />
      <stop offset="1" stop-color="#5EDC7D" />
    </linearGradient>
    <linearGradient
      id="paint17_linear_1529_9519"
      x1="85.0591"
      y1="158.424"
      x2="203.1"
      y2="37.5579"
      gradientUnits="userSpaceOnUse"
    >
      <stop stop-color="#DDDE5A" />
      <stop offset="1" stop-color="#6BF491" />
    </linearGradient>
    <linearGradient
      id="paint18_linear_1529_9519"
      x1="83.7255"
      y1="66.1815"
      x2="67.8301"
      y2="126.191"
      gradientUnits="userSpaceOnUse"
    >
      <stop stop-color="#75ED94" />
      <stop offset="0.659209" stop-color="#57E57B" />
      <stop offset="1" stop-color="#A1CE75" />
    </linearGradient>
    <linearGradient
      id="paint19_linear_1529_9519"
      x1="83.7255"
      y1="66.1815"
      x2="67.8301"
      y2="126.191"
      gradientUnits="userSpaceOnUse"
    >
      <stop stop-color="#A3EE75" />
      <stop offset="1" stop-color="#75CE79" />
    </linearGradient>
    <linearGradient
      id="paint20_linear_1529_9519"
      x1="45.2647"
      y1="94.347"
      x2="103.359"
      y2="95.7089"
      gradientUnits="userSpaceOnUse"
    >
      <stop stop-color="#51D173" />
      <stop offset="1" stop-color="#43DA6C" stop-opacity="0" />
    </linearGradient>
    <linearGradient
      id="paint21_linear_1529_9519"
      x1="47.9962"
      y1="88.7332"
      x2="106.091"
      y2="90.0951"
      gradientUnits="userSpaceOnUse"
    >
      <stop stop-color="#3AD864" />
      <stop offset="1" stop-color="#43DA6C" stop-opacity="0" />
    </linearGradient>
    <linearGradient
      id="paint22_linear_1529_9519"
      x1="132.207"
      y1="79.7829"
      x2="78.9753"
      y2="144.335"
      gradientUnits="userSpaceOnUse"
    >
      <stop stop-color="#DDDD59" />
      <stop offset="1" stop-color="#7D7532" />
    </linearGradient>
    <linearGradient
      id="paint23_linear_1529_9519"
      x1="131.202"
      y1="77.2501"
      x2="77.9698"
      y2="141.802"
      gradientUnits="userSpaceOnUse"
    >
      <stop stop-color="#DDDD59" />
      <stop offset="1" stop-color="#7D7532" />
    </linearGradient>
    <linearGradient
      id="paint24_linear_1529_9519"
      x1="56.24"
      y1="140.574"
      x2="113.495"
      y2="113.38"
      gradientUnits="userSpaceOnUse"
    >
      <stop stop-color="#807E32" />
      <stop offset="1" stop-color="#A09B41" stop-opacity="0" />
      <stop offset="1" stop-color="#A09B41" stop-opacity="0" />
    </linearGradient>
    <linearGradient
      id="paint25_linear_1529_9519"
      x1="19.4127"
      y1="116.766"
      x2="137.32"
      y2="75.5112"
      gradientUnits="userSpaceOnUse"
    >
      <stop stop-color="#7B7632" />
      <stop offset="1" stop-color="#CAEF5F" />
    </linearGradient>
    <linearGradient
      id="paint26_linear_1529_9519"
      x1="134.409"
      y1="114.102"
      x2="79.0985"
      y2="190.696"
      gradientUnits="userSpaceOnUse"
    >
      <stop stop-color="#D1B14B" />
      <stop offset="1" stop-color="#817B59" />
    </linearGradient>
    <linearGradient
      id="paint27_linear_1529_9519"
      x1="134.409"
      y1="114.102"
      x2="94.7937"
      y2="190.329"
      gradientUnits="userSpaceOnUse"
    >
      <stop stop-color="#D1B14B" />
      <stop offset="1" stop-color="#686244" />
    </linearGradient>
    <linearGradient
      id="paint28_linear_1529_9519"
      x1="165.437"
      y1="85.9699"
      x2="73.6092"
      y2="174.797"
      gradientUnits="userSpaceOnUse"
    >
      <stop stop-color="#D2B24C" />
      <stop offset="1" stop-color="#504B30" />
    </linearGradient>
    <linearGradient
      id="paint29_linear_1529_9519"
      x1="162.381"
      y1="78.9065"
      x2="86.802"
      y2="167.101"
      gradientUnits="userSpaceOnUse"
    >
      <stop stop-color="#C6A945" />
      <stop offset="1" stop-color="#4B472C" />
    </linearGradient>
    <linearGradient
      id="paint30_linear_1529_9519"
      x1="149.931"
      y1="119.628"
      x2="120.88"
      y2="188.414"
      gradientUnits="userSpaceOnUse"
    >
      <stop stop-color="#7C671C" />
      <stop offset="1" stop-color="#60501A" />
    </linearGradient>
    <linearGradient
      id="paint31_linear_1529_9519"
      x1="149.931"
      y1="119.628"
      x2="120.88"
      y2="188.414"
      gradientUnits="userSpaceOnUse"
    >
      <stop stop-color="#7C671C" />
      <stop offset="1" stop-color="#60501A" />
    </linearGradient>
    <linearGradient
      id="paint32_linear_1529_9519"
      x1="122.765"
      y1="112.469"
      x2="179.109"
      y2="171.648"
      gradientUnits="userSpaceOnUse"
    >
      <stop stop-color="#60511B" />
      <stop offset="1" stop-color="#726420" stop-opacity="0" />
    </linearGradient>
    <linearGradient
      id="paint33_linear_1529_9519"
      x1="49.8451"
      y1="-1.36495e-06"
      x2="75.6185"
      y2="50.3102"
      gradientUnits="userSpaceOnUse"
    >
      <stop stop-color="#5CDA7D" />
      <stop offset="1" stop-color="#7DF57A" />
    </linearGradient>
    <linearGradient
      id="paint34_linear_1529_9519"
      x1="57.5071"
      y1="2.08152"
      x2="8.32508"
      y2="2.46349"
      gradientUnits="userSpaceOnUse"
    >
      <stop stop-color="#6BF391" />
      <stop offset="1" stop-color="#5EDC7D" />
    </linearGradient>
  </defs>
</svg>
